<?xml version="1.0" encoding="UTF-8" standalone="no"?>
<svg
   width="2554.196"
   height="691.01642"
   viewBox="0 0 2554.196 691.01646"
   version="1.2"
   id="svg348"
   sodipodi:docname="Abb-01-1.svg"
   inkscape:version="1.2.1 (9c6d41e410, 2022-07-14)"
   xmlns:inkscape="http://www.inkscape.org/namespaces/inkscape"
   xmlns:sodipodi="http://sodipodi.sourceforge.net/DTD/sodipodi-0.dtd"
   xmlns="http://www.w3.org/2000/svg"
   xmlns:svg="http://www.w3.org/2000/svg">
  <defs
     id="defs352" />
  <sodipodi:namedview
     id="namedview350"
     pagecolor="#505050"
     bordercolor="#eeeeee"
     borderopacity="1"
     inkscape:showpageshadow="0"
     inkscape:pageopacity="0"
     inkscape:pagecheckerboard="0"
     inkscape:deskcolor="#505050"
     showgrid="false"
     inkscape:zoom="0.25017761"
     inkscape:cx="899.36106"
     inkscape:cy="1754.7534"
     inkscape:current-layer="svg348" />
  <title
     id="title2">Abb-1</title>
  <desc
     id="desc4">Generated by MuseScore 4.0.1</desc>
  <polyline
     class="StaffLines"
     fill="none"
     stroke="#000000"
     stroke-width="3.22"
     stroke-linejoin="bevel"
     points="320.067,384.52 2765.62,384.52"
     id="polyline8"
     transform="translate(-211.429,-349.05128)" />
  <polyline
     class="StaffLines"
     fill="none"
     stroke="#000000"
     stroke-width="3.22"
     stroke-linejoin="bevel"
     points="320.067,409.323 2765.62,409.323"
     id="polyline10"
     transform="translate(-211.429,-349.05128)" />
  <polyline
     class="StaffLines"
     fill="none"
     stroke="#000000"
     stroke-width="3.22"
     stroke-linejoin="bevel"
     points="320.067,434.126 2765.62,434.126"
     id="polyline12"
     transform="translate(-211.429,-349.05128)" />
  <polyline
     class="StaffLines"
     fill="none"
     stroke="#000000"
     stroke-width="3.22"
     stroke-linejoin="bevel"
     points="320.067,458.929 2765.62,458.929"
     id="polyline14"
     transform="translate(-211.429,-349.05128)" />
  <polyline
     class="StaffLines"
     fill="none"
     stroke="#000000"
     stroke-width="3.22"
     stroke-linejoin="bevel"
     points="320.067,483.732 2765.62,483.732"
     id="polyline16"
     transform="translate(-211.429,-349.05128)" />
  <polyline
     class="StaffLines"
     fill="none"
     stroke="#000000"
     stroke-width="3.22"
     stroke-linejoin="bevel"
     points="320.067,644.953 2765.62,644.953"
     id="polyline18"
     transform="translate(-211.429,-349.05128)" />
  <polyline
     class="StaffLines"
     fill="none"
     stroke="#000000"
     stroke-width="3.22"
     stroke-linejoin="bevel"
     points="320.067,669.756 2765.62,669.756"
     id="polyline20"
     transform="translate(-211.429,-349.05128)" />
  <polyline
     class="StaffLines"
     fill="none"
     stroke="#000000"
     stroke-width="3.22"
     stroke-linejoin="bevel"
     points="320.067,694.559 2765.62,694.559"
     id="polyline22"
     transform="translate(-211.429,-349.05128)" />
  <polyline
     class="StaffLines"
     fill="none"
     stroke="#000000"
     stroke-width="3.22"
     stroke-linejoin="bevel"
     points="320.067,719.362 2765.62,719.362"
     id="polyline24"
     transform="translate(-211.429,-349.05128)" />
  <polyline
     class="StaffLines"
     fill="none"
     stroke="#000000"
     stroke-width="3.22"
     stroke-linejoin="bevel"
     points="320.067,744.165 2765.62,744.165"
     id="polyline26"
     transform="translate(-211.429,-349.05128)" />
  <polyline
     class="StaffLines"
     fill="none"
     stroke="#000000"
     stroke-width="3.22"
     stroke-linejoin="bevel"
     points="320.067,905.386 2765.62,905.386"
     id="polyline28"
     transform="translate(-211.429,-349.05128)" />
  <polyline
     class="StaffLines"
     fill="none"
     stroke="#000000"
     stroke-width="3.22"
     stroke-linejoin="bevel"
     points="320.067,930.189 2765.62,930.189"
     id="polyline30"
     transform="translate(-211.429,-349.05128)" />
  <polyline
     class="StaffLines"
     fill="none"
     stroke="#000000"
     stroke-width="3.22"
     stroke-linejoin="bevel"
     points="320.067,954.992 2765.62,954.992"
     id="polyline32"
     transform="translate(-211.429,-349.05128)" />
  <polyline
     class="StaffLines"
     fill="none"
     stroke="#000000"
     stroke-width="3.22"
     stroke-linejoin="bevel"
     points="320.067,979.795 2765.62,979.795"
     id="polyline34"
     transform="translate(-211.429,-349.05128)" />
  <polyline
     class="StaffLines"
     fill="none"
     stroke="#000000"
     stroke-width="3.22"
     stroke-linejoin="bevel"
     points="320.067,1004.6 2765.62,1004.6"
     id="polyline36"
     transform="translate(-211.429,-349.05128)" />
  <path
     class="InstrumentName"
     d="M 38.687,63.621717 H 36.5 l -2.359,3.531 c -2.829,-2.656 -6.547,-4.062 -10.735,-4.062 -7.797,0 -12.922,4.89 -12.922,12.328 0,6.437 3.188,9.625 11.86,11.859 l 5.609,1.422 c 4.359,1.125 4.766,1.234 6.016,2.172 1.765,1.359 2.718,3.312 2.718,5.609 0,2.36 -0.89,4.313003 -2.656,5.969003 -1.953,1.641 -3.906,2.297 -7.14,2.297 -8.922,0 -13.344,-6.547003 -14.875,-14.516003 H 9.484 l 0.235,16.813003 h 2.297 l 2.656,-4.016 c 3.953,3.25 7.203,4.438 12.39,4.438 8.672,0 14.219,-5.078 14.219,-12.985003 0,-3.718 -1.172,-6.781 -3.547,-9.031 -1.578,-1.531 -3.89,-2.531 -8.609,-3.719 l -6.313,-1.593 c -5.25,-1.36 -7.734,-3.657 -7.734,-7.25 0,-4.141 3.375,-6.969 8.391,-6.969 7.609,0 11.797,6.312 13.39,13.047 h 2.532 l -0.704,-15.344 m 12.86,36.406003 c -2.063,0 -3.719,1.656 -3.719,3.656 0,2.063 1.656,3.719 3.672,3.719 2.062,0 3.703,-1.656 3.703,-3.719 0,-2 -1.641,-3.656 -3.656,-3.656"
     id="path38" />
  <path
     class="InstrumentName"
     d="m 22.766,323.58572 h -2.469 l -13.578,34.391 c -1.594,4.609 -3.125,6.016 -6.485,6.266 H 0 v 2.765 h 15.641 v -2.765 h -1.188 c -3.187,0 -4.781,-1.125 -4.781,-3.375 0,-0.766 0.172,-1.469 0.531,-2.469 l 1.953,-5.203 h 15.625 l 3.188,7.906 c 0.359,0.953 0.484,1.297 0.484,1.594 0,0.953 -1.484,1.547 -3.672,1.547 h -2.469 v 2.765 h 18.297 v -2.765 h -0.828 c -3.078,-0.063 -3.609,-0.422 -4.969,-3.782 l -15.046,-36.875 m -2.891,9.672 6.672,16.75 H 13.328 l 6.547,-16.75 m 32.672,27.203 c -2.063,0 -3.719,1.657 -3.719,3.657 0,2.062 1.656,3.718 3.672,3.718 2.062,0 3.703,-1.656 3.703,-3.718 0,-2 -1.641,-3.657 -3.656,-3.657"
     id="path40" />
  <path
     class="InstrumentName"
     d="m 2.234,584.33172 v 2.781 h 1.063 c 3.375,0.063 4.484,0.234 4.953,0.828 0.359,0.531 0.359,0.641 0.359,3.656 v 28.094 c 0,3 0,3.125 -0.359,3.656 -0.469,0.579 -1.578,0.829 -4.953,0.829 H 2.234 v 2.765 h 21.422 c 10.203,0 16.344,-4.312 16.344,-11.562 0,-5.907 -3.719,-9.266 -11.797,-10.688 2.828,-0.578 4.125,-1.109 5.656,-2.234 2.422,-1.828 3.907,-4.719 3.907,-7.672 0,-3.844 -2.36,-7.547 -5.782,-9.031 -2.125,-0.938 -5.078,-1.422 -8.562,-1.422 H 2.234 m 12.985,19.187 v -13.453 c 0,-2.312 0.765,-2.89 3.89,-2.953 h 2.36 c 5.781,0 9.453,1.891 9.453,8.313 0,5.843 -2.844,8.093 -10.453,8.093 h -5.25 m 0,2.766 h 5.187 c 9.031,0 12.344,2.422 12.344,8.922 0,7.906 -4.969,8.969 -11.625,8.969 h -2.484 c -2.954,0 -3.532,-0.594 -3.422,-3.719 v -14.172 m 36.328,14.109 c -2.063,0 -3.719,1.657 -3.719,3.657 0,2.062 1.656,3.718 3.672,3.718 2.062,0 3.703,-1.656 3.703,-3.718 0,-2 -1.641,-3.657 -3.656,-3.657"
     id="path42" />
  <path
     class="TieSegment"
     stroke="#000000"
     stroke-width="2.48"
     stroke-linecap="round"
     stroke-linejoin="round"
     fill-rule="evenodd"
     d="m 958.221,41.793717 c 27.94,-24.207 111.74,-24.207 139.67,0 -27.93,-18.254 -111.73,-18.254 -139.67,0"
     id="path44" />
  <path
     class="TieSegment"
     stroke="#000000"
     stroke-width="2.48"
     stroke-linecap="round"
     stroke-linejoin="round"
     fill-rule="evenodd"
     d="m 1289.901,50.598717 c 47.17,-35.221 188.71,-35.221 235.89,0 -47.18,-29.268 -188.72,-29.268 -235.89,0"
     id="path46" />
  <path
     class="TieSegment"
     stroke="#000000"
     stroke-width="2.48"
     stroke-linecap="round"
     stroke-linejoin="round"
     fill-rule="evenodd"
     d="m 2129.481,126.36972 c 29.22,19.234 116.9,19.234 146.12,0 -29.22,25.187 -116.9,25.187 -146.12,0"
     id="path48" />
  <polyline
     class="BarLine"
     stroke="#000000"
     stroke-width="3.97"
     stroke-linejoin="bevel"
     points="2763.64,382.908 2763.64,485.345"
     id="polyline50"
     transform="translate(-211.429,-349.05128)" />
  <polyline
     class="BarLine"
     stroke="#000000"
     stroke-width="3.97"
     stroke-linejoin="bevel"
     points="322.051,382.908 322.051,644.953"
     id="polyline52"
     transform="translate(-211.429,-349.05128)" />
  <polyline
     class="BarLine"
     stroke="#000000"
     stroke-width="3.97"
     stroke-linejoin="bevel"
     points="2437.3,382.908 2437.3,485.345"
     id="polyline54"
     transform="translate(-211.429,-349.05128)" />
  <polyline
     class="BarLine"
     stroke="#000000"
     stroke-width="3.97"
     stroke-linejoin="bevel"
     points="1261.88,382.908 1261.88,485.345"
     id="polyline56"
     transform="translate(-211.429,-349.05128)" />
  <polyline
     class="BarLine"
     stroke="#000000"
     stroke-width="3.97"
     stroke-linejoin="bevel"
     points="2039.27,382.908 2039.27,485.345"
     id="polyline58"
     transform="translate(-211.429,-349.05128)" />
  <polyline
     class="BarLine"
     stroke="#000000"
     stroke-width="3.97"
     stroke-linejoin="bevel"
     points="1689.77,382.908 1689.77,485.345"
     id="polyline60"
     transform="translate(-211.429,-349.05128)" />
  <polyline
     class="BarLine"
     stroke="#000000"
     stroke-width="3.97"
     stroke-linejoin="bevel"
     points="877.117,382.908 877.117,485.345"
     id="polyline62"
     transform="translate(-211.429,-349.05128)" />
  <polyline
     class="BarLine"
     stroke="#000000"
     stroke-width="3.97"
     stroke-linejoin="bevel"
     points="2763.64,643.341 2763.64,745.778"
     id="polyline64"
     transform="translate(-211.429,-349.05128)" />
  <polyline
     class="BarLine"
     stroke="#000000"
     stroke-width="3.97"
     stroke-linejoin="bevel"
     points="877.117,643.341 877.117,745.778"
     id="polyline66"
     transform="translate(-211.429,-349.05128)" />
  <polyline
     class="BarLine"
     stroke="#000000"
     stroke-width="3.97"
     stroke-linejoin="bevel"
     points="322.051,643.341 322.051,905.386"
     id="polyline68"
     transform="translate(-211.429,-349.05128)" />
  <polyline
     class="BarLine"
     stroke="#000000"
     stroke-width="3.97"
     stroke-linejoin="bevel"
     points="1261.88,643.341 1261.88,745.778"
     id="polyline70"
     transform="translate(-211.429,-349.05128)" />
  <polyline
     class="BarLine"
     stroke="#000000"
     stroke-width="3.97"
     stroke-linejoin="bevel"
     points="2437.3,643.341 2437.3,745.778"
     id="polyline72"
     transform="translate(-211.429,-349.05128)" />
  <polyline
     class="BarLine"
     stroke="#000000"
     stroke-width="3.97"
     stroke-linejoin="bevel"
     points="1689.77,643.341 1689.77,745.778"
     id="polyline74"
     transform="translate(-211.429,-349.05128)" />
  <polyline
     class="BarLine"
     stroke="#000000"
     stroke-width="3.97"
     stroke-linejoin="bevel"
     points="2039.27,643.341 2039.27,745.778"
     id="polyline76"
     transform="translate(-211.429,-349.05128)" />
  <polyline
     class="BarLine"
     stroke="#000000"
     stroke-width="3.97"
     stroke-linejoin="bevel"
     points="322.051,903.774 322.051,1006.21"
     id="polyline78"
     transform="translate(-211.429,-349.05128)" />
  <polyline
     class="BarLine"
     stroke="#000000"
     stroke-width="3.97"
     stroke-linejoin="bevel"
     points="2437.3,903.774 2437.3,1006.21"
     id="polyline80"
     transform="translate(-211.429,-349.05128)" />
  <polyline
     class="BarLine"
     stroke="#000000"
     stroke-width="3.97"
     stroke-linejoin="bevel"
     points="877.117,903.774 877.117,1006.21"
     id="polyline82"
     transform="translate(-211.429,-349.05128)" />
  <polyline
     class="BarLine"
     stroke="#000000"
     stroke-width="3.97"
     stroke-linejoin="bevel"
     points="1689.77,903.774 1689.77,1006.21"
     id="polyline84"
     transform="translate(-211.429,-349.05128)" />
  <polyline
     class="BarLine"
     stroke="#000000"
     stroke-width="3.97"
     stroke-linejoin="bevel"
     points="1261.88,903.774 1261.88,1006.21"
     id="polyline86"
     transform="translate(-211.429,-349.05128)" />
  <polyline
     class="BarLine"
     stroke="#000000"
     stroke-width="3.97"
     stroke-linejoin="bevel"
     points="2763.64,903.774 2763.64,1006.21"
     id="polyline88"
     transform="translate(-211.429,-349.05128)" />
  <polyline
     class="BarLine"
     stroke="#000000"
     stroke-width="3.97"
     stroke-linejoin="bevel"
     points="2039.27,903.774 2039.27,1006.21"
     id="polyline90"
     transform="translate(-211.429,-349.05128)" />
  <polyline
     class="LedgerLine"
     stroke="#000000"
     stroke-width="3.97"
     stroke-linejoin="bevel"
     points="2627.31,768.969 2679.79,768.969"
     id="polyline92"
     transform="translate(-211.429,-349.05128)" />
  <polyline
     class="LedgerLine"
     stroke="#000000"
     stroke-width="3.97"
     stroke-linejoin="bevel"
     points="1060.68,768.969 1113.16,768.969"
     id="polyline94"
     transform="translate(-211.429,-349.05128)" />
  <polyline
     class="LedgerLine"
     stroke="#000000"
     stroke-width="3.97"
     stroke-linejoin="bevel"
     points="2627.31,793.772 2679.79,793.772"
     id="polyline96"
     transform="translate(-211.429,-349.05128)" />
  <polyline
     class="LedgerLine"
     stroke="#000000"
     stroke-width="3.97"
     stroke-linejoin="bevel"
     points="2461.61,768.969 2526.99,768.969"
     id="polyline98"
     transform="translate(-211.429,-349.05128)" />
  <polyline
     class="LedgerLine"
     stroke="#000000"
     stroke-width="3.97"
     stroke-linejoin="bevel"
     points="1180.13,768.969 1232.61,768.969"
     id="polyline100"
     transform="translate(-211.429,-349.05128)" />
  <polyline
     class="LedgerLine"
     stroke="#000000"
     stroke-width="3.97"
     stroke-linejoin="bevel"
     points="2355.55,768.969 2408.03,768.969"
     id="polyline102"
     transform="translate(-211.429,-349.05128)" />
  <polyline
     class="Stem"
     stroke="#000000"
     stroke-width="2.98"
     stroke-linejoin="bevel"
     points="1805.11,438.293 1805.11,508.536"
     id="polyline104"
     transform="translate(-211.429,-349.05128)" />
  <polyline
     class="Stem"
     stroke="#000000"
     stroke-width="2.98"
     stroke-linejoin="bevel"
     points="1151.72,413.49 1151.72,496.134"
     id="polyline106"
     transform="translate(-211.429,-349.05128)" />
  <polyline
     class="Stem"
     stroke="#000000"
     stroke-width="2.98"
     stroke-linejoin="bevel"
     points="1022.13,442.361 1022.13,365.917"
     id="polyline108"
     transform="translate(-211.429,-349.05128)" />
  <polyline
     class="Stem"
     stroke="#000000"
     stroke-width="2.98"
     stroke-linejoin="bevel"
     points="1297.59,413.49 1297.59,496.134"
     id="polyline110"
     transform="translate(-211.429,-349.05128)" />
  <polyline
     class="Stem"
     stroke="#000000"
     stroke-width="2.98"
     stroke-linejoin="bevel"
     points="1725.48,425.891 1725.48,502.335"
     id="polyline112"
     transform="translate(-211.429,-349.05128)" />
  <polyline
     class="Stem"
     stroke="#000000"
     stroke-width="2.98"
     stroke-linejoin="bevel"
     points="1433.43,442.361 1433.43,365.917"
     id="polyline114"
     transform="translate(-211.429,-349.05128)" />
  <polyline
     class="Stem"
     stroke="#000000"
     stroke-width="2.98"
     stroke-linejoin="bevel"
     points="2247.51,438.293 2247.51,508.536"
     id="polyline116"
     transform="translate(-211.429,-349.05128)" />
  <polyline
     class="Stem"
     stroke="#000000"
     stroke-width="2.98"
     stroke-linejoin="bevel"
     points="2356.81,442.361 2356.81,365.917"
     id="polyline118"
     transform="translate(-211.429,-349.05128)" />
  <polyline
     class="Stem"
     stroke="#000000"
     stroke-width="2.98"
     stroke-linejoin="bevel"
     points="2509.13,442.361 2509.13,365.917"
     id="polyline120"
     transform="translate(-211.429,-349.05128)" />
  <polyline
     class="Stem"
     stroke="#000000"
     stroke-width="2.98"
     stroke-linejoin="bevel"
     points="2588.76,454.762 2588.76,372.118"
     id="polyline122"
     transform="translate(-211.429,-349.05128)" />
  <polyline
     class="Stem"
     stroke="#000000"
     stroke-width="2.98"
     stroke-linejoin="bevel"
     points="2154.61,425.891 2154.61,502.335"
     id="polyline124"
     transform="translate(-211.429,-349.05128)" />
  <polyline
     class="Stem"
     stroke="#000000"
     stroke-width="2.98"
     stroke-linejoin="bevel"
     points="2104.65,442.361 2104.65,365.917"
     id="polyline126"
     transform="translate(-211.429,-349.05128)" />
  <polyline
     class="Stem"
     stroke="#000000"
     stroke-width="2.98"
     stroke-linejoin="bevel"
     points="796.992,425.891 796.992,502.335"
     id="polyline128"
     transform="translate(-211.429,-349.05128)" />
  <polyline
     class="Stem"
     stroke="#000000"
     stroke-width="2.98"
     stroke-linejoin="bevel"
     points="912.834,438.293 912.834,508.536"
     id="polyline130"
     transform="translate(-211.429,-349.05128)" />
  <polyline
     class="Stem"
     stroke="#000000"
     stroke-width="2.98"
     stroke-linejoin="bevel"
     points="1988.81,454.762 1988.81,372.118"
     id="polyline132"
     transform="translate(-211.429,-349.05128)" />
  <polyline
     class="Stem"
     stroke="#000000"
     stroke-width="2.98"
     stroke-linejoin="bevel"
     points="1935.72,442.361 1935.72,365.917"
     id="polyline134"
     transform="translate(-211.429,-349.05128)" />
  <polyline
     class="Stem"
     stroke="#000000"
     stroke-width="2.98"
     stroke-linejoin="bevel"
     points="1101.76,454.762 1101.76,372.118"
     id="polyline136"
     transform="translate(-211.429,-349.05128)" />
  <polyline
     class="Stem"
     stroke="#000000"
     stroke-width="2.98"
     stroke-linejoin="bevel"
     points="747.026,727.597 747.026,644.953"
     id="polyline138"
     transform="translate(-211.429,-349.05128)" />
  <polyline
     class="Stem"
     stroke="#000000"
     stroke-width="2.98"
     stroke-linejoin="bevel"
     points="1221.2,764.802 1221.2,682.158"
     id="polyline140"
     transform="translate(-211.429,-349.05128)" />
  <polyline
     class="Stem"
     stroke="#000000"
     stroke-width="2.98"
     stroke-linejoin="bevel"
     points="1380.34,739.999 1380.34,657.354"
     id="polyline142"
     transform="translate(-211.429,-349.05128)" />
  <polyline
     class="Stem"
     stroke="#000000"
     stroke-width="2.98"
     stroke-linejoin="bevel"
     points="942.497,752.4 942.497,669.756"
     id="polyline144"
     transform="translate(-211.429,-349.05128)" />
  <polyline
     class="Stem"
     stroke="#000000"
     stroke-width="2.98"
     stroke-linejoin="bevel"
     points="1542.92,739.999 1542.92,657.354"
     id="polyline146"
     transform="translate(-211.429,-349.05128)" />
  <polyline
     class="Stem"
     stroke="#000000"
     stroke-width="2.98"
     stroke-linejoin="bevel"
     points="2396.62,764.802 2396.62,682.158"
     id="polyline148"
     transform="translate(-211.429,-349.05128)" />
  <polyline
     class="Stem"
     stroke="#000000"
     stroke-width="2.98"
     stroke-linejoin="bevel"
     points="1433.43,727.597 1433.43,644.953"
     id="polyline150"
     transform="translate(-211.429,-349.05128)" />
  <polyline
     class="Stem"
     stroke="#000000"
     stroke-width="2.98"
     stroke-linejoin="bevel"
     points="1327.26,752.4 1327.26,669.756"
     id="polyline152"
     transform="translate(-211.429,-349.05128)" />
  <polyline
     class="Stem"
     stroke="#000000"
     stroke-width="2.98"
     stroke-linejoin="bevel"
     points="1649.09,715.195 1649.09,632.551"
     id="polyline154"
     transform="translate(-211.429,-349.05128)" />
  <polyline
     class="Stem"
     stroke="#000000"
     stroke-width="2.98"
     stroke-linejoin="bevel"
     points="826.655,739.999 826.655,657.354"
     id="polyline156"
     transform="translate(-211.429,-349.05128)" />
  <polyline
     class="Stem"
     stroke="#000000"
     stroke-width="2.98"
     stroke-linejoin="bevel"
     points="2277.18,752.4 2277.18,669.756"
     id="polyline158"
     transform="translate(-211.429,-349.05128)" />
  <polyline
     class="Stem"
     stroke="#000000"
     stroke-width="2.98"
     stroke-linejoin="bevel"
     points="1101.76,777.203 1101.76,694.559"
     id="polyline160"
     transform="translate(-211.429,-349.05128)" />
  <polyline
     class="Stem"
     stroke="#000000"
     stroke-width="2.98"
     stroke-linejoin="bevel"
     points="1988.81,739.999 1988.81,657.354"
     id="polyline162"
     transform="translate(-211.429,-349.05128)" />
  <polyline
     class="Stem"
     stroke="#000000"
     stroke-width="2.98"
     stroke-linejoin="bevel"
     points="2668.39,789.605 2668.39,694.559"
     id="polyline164"
     transform="translate(-211.429,-349.05128)" />
  <polyline
     class="Stem"
     stroke="#000000"
     stroke-width="2.98"
     stroke-linejoin="bevel"
     points="2104.65,727.597 2104.65,644.953"
     id="polyline166"
     transform="translate(-211.429,-349.05128)" />
  <polyline
     class="Stem"
     stroke="#000000"
     stroke-width="2.98"
     stroke-linejoin="bevel"
     points="2224.09,739.999 2224.09,657.354"
     id="polyline168"
     transform="translate(-211.429,-349.05128)" />
  <polyline
     class="Stem"
     stroke="#000000"
     stroke-width="2.98"
     stroke-linejoin="bevel"
     points="1022.13,752.4 1022.13,669.756"
     id="polyline170"
     transform="translate(-211.429,-349.05128)" />
  <polyline
     class="Stem"
     stroke="#000000"
     stroke-width="2.98"
     stroke-linejoin="bevel"
     points="1755.15,702.794 1755.15,626.35"
     id="polyline172"
     transform="translate(-211.429,-349.05128)" />
  <polyline
     class="Stem"
     stroke="#000000"
     stroke-width="2.98"
     stroke-linejoin="bevel"
     points="1596,727.597 1596,644.953"
     id="polyline174"
     transform="translate(-211.429,-349.05128)" />
  <path
     class="Note"
     d="m 1523.2829,86.562481 c 18.2613,0 21.9353,-14.88189 21.9353,-18.447343 0,-5.658243 -4.4646,-9.332185 -10.9134,-9.332185 -16.5716,0 -21.7338,12.804626 -21.7338,18.555862 0,5.844286 4.6661,9.223666 10.7119,9.223666 m 8.4331,-8.836122 c -4.9607,3.379429 -8.4331,4.573086 -10.8049,4.573086 -2.2943,0 -3.674,-1.193657 -4.3716,-2.588834 -0.403,-0.589075 -0.6976,-1.37967 -0.6976,-2.170276 0,-5.363681 15.9826,-14.199803 21.2377,-14.199803 2.0773,0 3.2709,0.992126 4.0616,2.387303 0.31,0.589075 0.6046,1.286658 0.6046,2.077264 0,2.185772 -2.2789,4.867618 -10.0298,9.92126"
     id="path176"
     style="stroke-width:0.992126" />
  <path
     class="Note"
     d="m 461.58996,46.676515 c -14.38583,0 -23.31496,6.061245 -23.31496,13.393676 0,7.23942 6.15429,13.688288 22.22987,13.688288 17.65667,0 23.31496,-6.138829 23.31496,-13.688288 0,-7.64247 -12.20007,-13.393676 -22.22987,-13.393676 m -2.77488,2.480315 c 7.34799,0 13.30074,7.936978 13.30074,14.494316 0,5.456693 -3.37948,7.627018 -8.24704,7.627018 -7.14639,0 -13.98283,-8.23159 -13.98283,-15.176482 0,-5.549704 3.86006,-6.944852 8.92913,-6.944852"
     id="path178"
     style="stroke-width:0.992126" />
  <path
     class="Note"
     d="m 1602.9129,98.964481 c 18.2613,0 21.9353,-14.88189 21.9353,-18.447343 0,-5.658243 -4.4646,-9.332185 -10.9134,-9.332185 -16.5716,0 -21.7338,12.804626 -21.7338,18.555862 0,5.844286 4.6661,9.223666 10.7119,9.223666 m 8.4331,-8.836122 c -4.9607,3.379429 -8.4331,4.573086 -10.8049,4.573086 -2.2943,0 -3.674,-1.193657 -4.3716,-2.588834 -0.403,-0.589075 -0.6976,-1.37967 -0.6976,-2.170276 0,-5.363681 15.9826,-14.199803 21.2377,-14.199803 2.0773,0 3.2709,0.992126 4.0616,2.387303 0.31,0.589075 0.6046,1.286658 0.6046,2.077264 0,2.185772 -2.2789,4.867618 -10.0298,9.92126"
     id="path180"
     style="stroke-width:0.992126" />
  <path
     class="Note"
     d="m 2277.2629,111.36648 c 18.2613,0 21.9353,-14.881889 21.9353,-18.447342 0,-5.658243 -4.4646,-9.332185 -10.9134,-9.332185 -16.5716,0 -21.7338,12.804626 -21.7338,18.555857 0,5.84429 4.6661,9.22367 10.7119,9.22367 m 8.4331,-8.83612 c -4.9607,3.37943 -8.4331,4.57308 -10.8049,4.57308 -2.2943,0 -3.674,-1.19365 -4.3716,-2.58883 -0.403,-0.58907 -0.6976,-1.37967 -0.6976,-2.17027 0,-5.363686 15.9826,-14.199808 21.2377,-14.199808 2.0773,0 3.2709,0.992126 4.0616,2.387303 0.31,0.589075 0.6046,1.286658 0.6046,2.077264 0,2.185772 -2.2789,4.867618 -10.0298,9.921261"
     id="path182"
     style="stroke-width:0.992126" />
  <path
     class="Note"
     d="m 1872.7829,111.36648 c 18.2613,0 21.9353,-14.881889 21.9353,-18.447342 0,-5.658243 -4.4646,-9.332185 -10.9134,-9.332185 -16.5716,0 -21.7338,12.804626 -21.7338,18.555857 0,5.84429 4.6661,9.22367 10.7119,9.22367 m 8.4331,-8.83612 c -4.9607,3.37943 -8.4331,4.57308 -10.8049,4.57308 -2.2943,0 -3.674,-1.19365 -4.3716,-2.58883 -0.403,-0.58907 -0.6976,-1.37967 -0.6976,-2.17027 0,-5.363686 15.9826,-14.199808 21.2377,-14.199808 2.0773,0 3.2709,0.992126 4.0616,2.387303 0.31,0.589075 0.6046,1.286658 0.6046,2.077264 0,2.185772 -2.2789,4.867618 -10.0298,9.921261"
     id="path184"
     style="stroke-width:0.992126" />
  <path
     class="Note"
     d="m 869.88289,123.76748 c 18.26126,0 21.93531,-14.88189 21.93531,-18.44734 0,-5.658245 -4.46457,-9.332187 -10.91339,-9.332187 -16.57165,0 -21.73381,12.804627 -21.73381,18.555857 0,5.84429 4.6661,9.22367 10.71189,9.22367 m 8.43307,-8.83612 c -4.96063,3.37943 -8.43307,4.57308 -10.8049,4.57308 -2.29429,0 -3.67396,-1.19365 -4.37156,-2.58883 -0.40305,-0.58907 -0.69758,-1.37967 -0.69758,-2.17027 0,-5.36369 15.98257,-14.19981 21.23767,-14.19981 2.07731,0 3.27094,0.99213 4.06156,2.3873 0.31004,0.58908 0.6046,1.28666 0.6046,2.07727 0,2.18577 -2.27881,4.86762 -10.02979,9.92126"
     id="path186"
     style="stroke-width:0.992126" />
  <path
     class="Note"
     d="m 2124.9429,111.36648 c 18.2613,0 21.9353,-14.881889 21.9353,-18.447342 0,-5.658243 -4.4646,-9.332185 -10.9134,-9.332185 -16.5716,0 -21.7338,12.804626 -21.7338,18.555857 0,5.84429 4.6661,9.22367 10.7119,9.22367 m 8.4331,-8.83612 c -4.9607,3.37943 -8.4331,4.57308 -10.8049,4.57308 -2.2943,0 -3.674,-1.19365 -4.3716,-2.58883 -0.403,-0.58907 -0.6976,-1.37967 -0.6976,-2.17027 0,-5.363686 15.9826,-14.199808 21.2377,-14.199808 2.0773,0 3.2709,0.992126 4.0616,2.387303 0.31,0.589075 0.6046,1.286658 0.6046,2.077264 0,2.185772 -2.2789,4.867618 -10.0298,9.921261"
     id="path188"
     style="stroke-width:0.992126" />
  <path
     class="Note"
     d="m 2442.676,83.881515 c -14.3859,0 -23.315,6.061245 -23.315,13.393676 0,7.239419 6.1543,13.688289 22.2299,13.688289 17.6566,0 23.3149,-6.13883 23.3149,-13.688289 0,-7.64247 -12.2,-13.393676 -22.2298,-13.393676 m -2.7749,2.480315 c 7.348,0 13.3007,7.936978 13.3007,14.49432 0,5.45669 -3.3795,7.62701 -8.247,7.62701 -7.1464,0 -13.9829,-8.23159 -13.9829,-15.176478 0,-5.549704 3.8601,-6.944852 8.9292,-6.944852"
     id="path190"
     style="stroke-width:0.992126" />
  <path
     class="Note"
     d="m 1201.5629,111.36648 c 18.2613,0 21.9353,-14.881889 21.9353,-18.447342 0,-5.658243 -4.4646,-9.332185 -10.9134,-9.332185 -16.5716,0 -21.7338,12.804626 -21.7338,18.555857 0,5.84429 4.6661,9.22367 10.7119,9.22367 m 8.4331,-8.83612 c -4.9607,3.37943 -8.4331,4.57308 -10.8049,4.57308 -2.2943,0 -3.674,-1.19365 -4.3716,-2.58883 -0.403,-0.58907 -0.6976,-1.37967 -0.6976,-2.17027 0,-5.363686 15.9826,-14.199808 21.2377,-14.199808 2.0773,0 3.2709,0.992126 4.0616,2.387303 0.31,0.589075 0.6046,1.286658 0.6046,2.077264 0,2.185772 -2.2789,4.867618 -10.0298,9.921261"
     id="path192"
     style="stroke-width:0.992126" />
  <path
     class="Note"
     d="m 1756.9329,123.76748 c 18.2613,0 21.9353,-14.88189 21.9353,-18.44734 0,-5.658245 -4.4646,-9.332187 -10.9134,-9.332187 -16.5716,0 -21.7338,12.804627 -21.7338,18.555857 0,5.84429 4.6661,9.22367 10.7119,9.22367 m 8.4331,-8.83612 c -4.9607,3.37943 -8.4331,4.57308 -10.8049,4.57308 -2.2943,0 -3.674,-1.19365 -4.3716,-2.58883 -0.403,-0.58907 -0.6976,-1.37967 -0.6976,-2.17027 0,-5.36369 15.9826,-14.19981 21.2377,-14.19981 2.0773,0 3.2709,0.99213 4.0616,2.3873 0.31,0.58908 0.6046,1.28666 0.6046,2.07727 0,2.18577 -2.2789,4.86762 -10.0298,9.92126"
     id="path194"
     style="stroke-width:0.992126" />
  <path
     class="Note"
     d="m 1952.4129,86.562481 c 18.2613,0 21.9353,-14.88189 21.9353,-18.447343 0,-5.658243 -4.4646,-9.332185 -10.9134,-9.332185 -16.5716,0 -21.7338,12.804626 -21.7338,18.555862 0,5.844286 4.6661,9.223666 10.7119,9.223666 m 8.4331,-8.836122 c -4.9607,3.379429 -8.4331,4.573086 -10.8049,4.573086 -2.2943,0 -3.674,-1.193657 -4.3716,-2.588834 -0.403,-0.589075 -0.6976,-1.37967 -0.6976,-2.170276 0,-5.363681 15.9826,-14.199803 21.2377,-14.199803 2.0773,0 3.2709,0.992126 4.0616,2.387303 0.31,0.589075 0.6046,1.286658 0.6046,2.077264 0,2.185772 -2.2789,4.867618 -10.0298,9.92126"
     id="path196"
     style="stroke-width:0.992126" />
  <path
     class="Note"
     d="m 2045.3129,98.964481 c 18.2613,0 21.9353,-14.88189 21.9353,-18.447343 0,-5.658243 -4.4646,-9.332185 -10.9134,-9.332185 -16.5716,0 -21.7338,12.804626 -21.7338,18.555862 0,5.844286 4.6661,9.223666 10.7119,9.223666 m 8.4331,-8.836122 c -4.9607,3.379429 -8.4331,4.573086 -10.8049,4.573086 -2.2943,0 -3.674,-1.193657 -4.3716,-2.588834 -0.403,-0.589075 -0.6976,-1.37967 -0.6976,-2.170276 0,-5.363681 15.9826,-14.199803 21.2377,-14.199803 2.0773,0 3.2709,0.992126 4.0616,2.387303 0.31,0.589075 0.6046,1.286658 0.6046,2.077264 0,2.185772 -2.2789,4.867618 -10.0298,9.92126"
     id="path198"
     style="stroke-width:0.992126" />
  <path
     class="Note"
     d="m 710.62889,98.964481 c 18.26126,0 21.93531,-14.88189 21.93531,-18.447343 0,-5.658243 -4.46457,-9.332185 -10.91339,-9.332185 -16.57165,0 -21.73381,12.804626 -21.73381,18.555862 0,5.844286 4.6661,9.223666 10.71189,9.223666 m 8.43307,-8.836122 c -4.96063,3.379429 -8.43307,4.573086 -10.8049,4.573086 -2.29429,0 -3.67396,-1.193657 -4.37156,-2.588834 -0.40305,-0.589075 -0.69758,-1.37967 -0.69758,-2.170276 0,-5.363681 15.98257,-14.199803 21.23767,-14.199803 2.07731,0 3.27094,0.992126 4.06156,2.387303 0.31004,0.589075 0.6046,1.286658 0.6046,2.077264 0,2.185772 -2.27881,4.867618 -10.02979,9.92126"
     id="path200"
     style="stroke-width:0.992126" />
  <path
     class="Note"
     d="m 1703.8529,111.36648 c 9.8282,0 21.9353,-9.13065 21.9353,-18.555861 0,-5.549724 -4.4646,-9.223666 -10.8204,-9.223666 -12.1071,0 -21.8268,9.022146 -21.8268,18.555857 0,5.75123 4.7591,9.22367 10.7119,9.22367"
     id="path202"
     style="stroke-width:0.992126" />
  <path
     class="Note"
     d="m 790.25789,111.36648 c 18.26126,0 21.93531,-14.881889 21.93531,-18.447342 0,-5.658243 -4.46457,-9.332185 -10.91339,-9.332185 -16.57165,0 -21.73381,12.804626 -21.73381,18.555857 0,5.84429 4.6661,9.22367 10.71189,9.22367 m 8.43307,-8.83612 c -4.96063,3.37943 -8.43307,4.57308 -10.8049,4.57308 -2.29429,0 -3.67396,-1.19365 -4.37156,-2.58883 -0.40305,-0.58907 -0.69758,-1.37967 -0.69758,-2.17027 0,-5.363686 15.98257,-14.199808 21.23767,-14.199808 2.07731,0 3.27094,0.992126 4.06156,2.387303 0.31004,0.589075 0.6046,1.286658 0.6046,2.077264 0,2.185772 -2.27881,4.867618 -10.02979,9.921261"
     id="path204"
     style="stroke-width:0.992126" />
  <path
     class="Note"
     d="m 1287.346,59.077515 c -14.3859,0 -23.315,6.061245 -23.315,13.393676 0,7.23942 6.1543,13.688288 22.2299,13.688288 17.6566,0 23.3149,-6.138829 23.3149,-13.688288 0,-7.64247 -12.2,-13.393676 -22.2298,-13.393676 m -2.7749,2.480315 c 7.348,0 13.3007,7.936978 13.3007,14.494316 0,5.456693 -3.3795,7.627018 -8.247,7.627018 -7.1464,0 -13.9829,-8.23159 -13.9829,-15.176482 0,-5.549704 3.8601,-6.944852 8.9292,-6.944852"
     id="path206"
     style="stroke-width:0.992126" />
  <path
     class="Note"
     d="m 1095.3829,74.161481 c 18.2613,0 21.9353,-14.88189 21.9353,-18.447343 0,-5.658243 -4.4646,-9.332185 -10.9134,-9.332185 -16.5716,0 -21.7338,12.804626 -21.7338,18.555862 0,5.844286 4.6661,9.223666 10.7119,9.223666 m 8.4331,-8.836122 c -4.9607,3.379429 -8.4331,4.573086 -10.8049,4.573086 -2.2943,0 -3.674,-1.193657 -4.3716,-2.588834 -0.403,-0.589075 -0.6976,-1.37967 -0.6976,-2.170276 0,-5.363681 15.9826,-14.199803 21.2377,-14.199803 2.0773,0 3.2709,0.992126 4.0616,2.387303 0.31,0.589075 0.6046,1.286658 0.6046,2.077264 0,2.185772 -2.2789,4.867618 -10.0298,9.92126"
     id="path208"
     style="stroke-width:0.992126" />
  <path
     class="Note"
     d="m 949.51289,74.161481 c 18.26126,0 21.93531,-14.88189 21.93531,-18.447343 0,-5.658243 -4.46457,-9.332185 -10.91339,-9.332185 -16.57165,0 -21.73381,12.804626 -21.73381,18.555862 0,5.844286 4.6661,9.223666 10.71189,9.223666 m 8.43307,-8.836122 c -4.96063,3.379429 -8.43307,4.573086 -10.8049,4.573086 -2.29429,0 -3.67396,-1.193657 -4.37156,-2.588834 -0.40305,-0.589075 -0.69758,-1.37967 -0.69758,-2.170276 0,-5.363681 15.98257,-14.199803 21.23767,-14.199803 2.07731,0 3.27094,0.992126 4.06156,2.387303 0.31004,0.589075 0.6046,1.286658 0.6046,2.077264 0,2.185772 -2.27881,4.867618 -10.02979,9.92126"
     id="path210"
     style="stroke-width:0.992126" />
  <path
     class="Note"
     d="m 594.78689,86.562481 c 18.26126,0 21.93531,-14.88189 21.93531,-18.447343 0,-5.658243 -4.46457,-9.332185 -10.91339,-9.332185 -16.57165,0 -21.73381,12.804626 -21.73381,18.555862 0,5.844286 4.6661,9.223666 10.71189,9.223666 m 8.43307,-8.836122 c -4.96063,3.379429 -8.43307,4.573086 -10.8049,4.573086 -2.29429,0 -3.67396,-1.193657 -4.37156,-2.588834 -0.40305,-0.589075 -0.69758,-1.37967 -0.69758,-2.170276 0,-5.363681 15.98257,-14.199803 21.23767,-14.199803 2.07731,0 3.27094,0.992126 4.06156,2.387303 0.31004,0.589075 0.6046,1.286658 0.6046,2.077264 0,2.185772 -2.27881,4.867618 -10.02979,9.92126"
     id="path212"
     style="stroke-width:0.992126" />
  <path
     class="Note"
     d="m 2356.8929,123.76748 c 18.2613,0 21.9353,-14.88189 21.9353,-18.44734 0,-5.658245 -4.4646,-9.332187 -10.9134,-9.332187 -16.5716,0 -21.7338,12.804627 -21.7338,18.555857 0,5.84429 4.6661,9.22367 10.7119,9.22367 m 8.4331,-8.83612 c -4.9607,3.37943 -8.4331,4.57308 -10.8049,4.57308 -2.2943,0 -3.674,-1.19365 -4.3716,-2.58883 -0.403,-0.58907 -0.6976,-1.37967 -0.6976,-2.17027 0,-5.36369 15.9826,-14.19981 21.2377,-14.19981 2.0773,0 3.2709,0.99213 4.0616,2.3873 0.31,0.58908 0.6046,1.28666 0.6046,2.07727 0,2.18577 -2.2789,4.86762 -10.0298,9.92126"
     id="path214"
     style="stroke-width:0.992126" />
  <path
     class="Note"
     d="m 1417.2229,384.20048 c 9.8282,0 21.9353,-9.13065 21.9353,-18.55586 0,-5.54973 -4.4646,-9.22367 -10.8204,-9.22367 -12.1071,0 -21.8268,9.02215 -21.8268,18.55586 0,5.75123 4.7591,9.22367 10.7119,9.22367"
     id="path216"
     style="stroke-width:0.992126" />
  <path
     class="Note"
     d="m 790.25789,421.40548 c 18.26126,0 21.93531,-14.88189 21.93531,-18.44734 0,-5.65825 -4.46457,-9.33219 -10.91339,-9.33219 -16.57165,0 -21.73381,12.80463 -21.73381,18.55586 0,5.84429 4.6661,9.22367 10.71189,9.22367 m 8.43307,-8.83612 c -4.96063,3.37943 -8.43307,4.57308 -10.8049,4.57308 -2.29429,0 -3.67396,-1.19365 -4.37156,-2.58883 -0.40305,-0.58907 -0.69758,-1.37967 -0.69758,-2.17027 0,-5.36369 15.98257,-14.19981 21.23767,-14.19981 2.07731,0 3.27094,0.99213 4.06156,2.3873 0.31004,0.58908 0.6046,1.28666 0.6046,2.07727 0,2.18577 -2.27881,4.86762 -10.02979,9.92126"
     id="path218"
     style="stroke-width:0.992126" />
  <path
     class="Note"
     d="m 1523.2829,371.79948 c 18.2613,0 21.9353,-14.88189 21.9353,-18.44734 0,-5.65825 -4.4646,-9.33219 -10.9134,-9.33219 -16.5716,0 -21.7338,12.80463 -21.7338,18.55586 0,5.84429 4.6661,9.22367 10.7119,9.22367 m 8.4331,-8.83612 c -4.9607,3.37943 -8.4331,4.57308 -10.8049,4.57308 -2.2943,0 -3.674,-1.19365 -4.3716,-2.58883 -0.403,-0.58907 -0.6976,-1.37967 -0.6976,-2.17027 0,-5.36369 15.9826,-14.19981 21.2377,-14.19981 2.0773,0 3.2709,0.99213 4.0616,2.3873 0.31,0.58908 0.6046,1.28666 0.6046,2.07727 0,2.18577 -2.2789,4.86762 -10.0298,9.92126"
     id="path220"
     style="stroke-width:0.992126" />
  <path
     class="Note"
     d="m 1609.066,393.92052 c -14.3859,0 -23.315,6.06124 -23.315,13.39367 0,7.23942 6.1543,13.68829 22.2299,13.68829 17.6566,0 23.3149,-6.13883 23.3149,-13.68829 0,-7.64247 -12.2,-13.39367 -22.2298,-13.39367 m -2.7749,2.48031 c 7.348,0 13.3007,7.93698 13.3007,14.49432 0,5.45669 -3.3795,7.62701 -8.247,7.62701 -7.1464,0 -13.9829,-8.23159 -13.9829,-15.17648 0,-5.5497 3.8601,-6.94485 8.9292,-6.94485"
     id="path222"
     style="stroke-width:0.992126" />
  <path
     class="Note"
     d="m 1756.9329,409.00348 c 18.2613,0 21.9353,-14.88189 21.9353,-18.44734 0,-5.65825 -4.4646,-9.33219 -10.9134,-9.33219 -16.5716,0 -21.7338,12.80463 -21.7338,18.55586 0,5.84429 4.6661,9.22367 10.7119,9.22367 m 8.4331,-8.83612 c -4.9607,3.37943 -8.4331,4.57308 -10.8049,4.57308 -2.2943,0 -3.674,-1.19365 -4.3716,-2.58883 -0.403,-0.58907 -0.6976,-1.37967 -0.6976,-2.17027 0,-5.36369 15.9826,-14.19981 21.2377,-14.19981 2.0773,0 3.2709,0.99213 4.0616,2.3873 0.31,0.58908 0.6046,1.28666 0.6046,2.07727 0,2.18577 -2.2789,4.86762 -10.0298,9.92126"
     id="path224"
     style="stroke-width:0.992126" />
  <path
     class="Note"
     d="m 2283.416,418.72352 c -14.3859,0 -23.315,6.06124 -23.315,13.39367 0,7.23942 6.1543,13.68829 22.2299,13.68829 17.6566,0 23.3149,-6.13883 23.3149,-13.68829 0,-7.64247 -12.2,-13.39367 -22.2298,-13.39367 m -2.7749,2.48031 c 7.348,0 13.3007,7.93698 13.3007,14.49432 0,5.45669 -3.3795,7.62701 -8.247,7.62701 -7.1464,0 -13.9829,-8.23159 -13.9829,-15.17648 0,-5.5497 3.8601,-6.94485 8.9292,-6.94485"
     id="path226"
     style="stroke-width:0.992126" />
  <path
     class="Note"
     d="m 1872.7829,396.60248 c 18.2613,0 21.9353,-14.88189 21.9353,-18.44734 0,-5.65825 -4.4646,-9.33219 -10.9134,-9.33219 -16.5716,0 -21.7338,12.80463 -21.7338,18.55586 0,5.84429 4.6661,9.22367 10.7119,9.22367 m 8.4331,-8.83612 c -4.9607,3.37943 -8.4331,4.57308 -10.8049,4.57308 -2.2943,0 -3.674,-1.19365 -4.3716,-2.58883 -0.403,-0.58907 -0.6976,-1.37967 -0.6976,-2.17027 0,-5.36369 15.9826,-14.19981 21.2377,-14.19981 2.0773,0 3.2709,0.99213 4.0616,2.3873 0.31,0.58908 0.6046,1.28666 0.6046,2.07727 0,2.18577 -2.2789,4.86762 -10.0298,9.92126"
     id="path228"
     style="stroke-width:0.992126" />
  <path
     class="Note"
     d="m 1992.2229,409.00348 c 9.8282,0 21.9353,-9.13065 21.9353,-18.55586 0,-5.54973 -4.4646,-9.22367 -10.8204,-9.22367 -12.1071,0 -21.8268,9.02215 -21.8268,18.55586 0,5.75123 4.7591,9.22367 10.7119,9.22367"
     id="path230"
     style="stroke-width:0.992126" />
  <path
     class="Note"
     d="m 381.96096,356.71552 c -14.38583,0 -23.31496,6.06124 -23.31496,13.39367 0,7.23942 6.15429,13.68829 22.22987,13.68829 17.65667,0 23.31496,-6.13883 23.31496,-13.68829 0,-7.64247 -12.20007,-13.39367 -22.22987,-13.39367 m -2.77488,2.48031 c 7.34799,0 13.30074,7.93698 13.30074,14.49432 0,5.45669 -3.37948,7.62701 -8.24704,7.62701 -7.14639,0 -13.98283,-8.23159 -13.98283,-15.17648 0,-5.5497 3.86006,-6.94485 8.92913,-6.94485"
     id="path232"
     style="stroke-width:0.992126" />
  <path
     class="Note"
     d="m 515.15789,396.60248 c 18.26126,0 21.93531,-14.88189 21.93531,-18.44734 0,-5.65825 -4.46457,-9.33219 -10.91339,-9.33219 -16.57165,0 -21.73381,12.80463 -21.73381,18.55586 0,5.84429 4.6661,9.22367 10.71189,9.22367 m 8.43307,-8.83612 c -4.96063,3.37943 -8.43307,4.57308 -10.8049,4.57308 -2.29429,0 -3.67396,-1.19365 -4.37156,-2.58883 -0.40305,-0.58907 -0.69758,-1.37967 -0.69758,-2.17027 0,-5.36369 15.98257,-14.19981 21.23767,-14.19981 2.07731,0 3.27094,0.99213 4.06156,2.3873 0.31004,0.58908 0.6046,1.28666 0.6046,2.07727 0,2.18577 -2.27881,4.86762 -10.02979,9.92126"
     id="path234"
     style="stroke-width:0.992126" />
  <path
     class="Note"
     d="m 594.78689,409.00348 c 18.26126,0 21.93531,-14.88189 21.93531,-18.44734 0,-5.65825 -4.46457,-9.33219 -10.91339,-9.33219 -16.57165,0 -21.73381,12.80463 -21.73381,18.55586 0,5.84429 4.6661,9.22367 10.71189,9.22367 m 8.43307,-8.83612 c -4.96063,3.37943 -8.43307,4.57308 -10.8049,4.57308 -2.29429,0 -3.67396,-1.19365 -4.37156,-2.58883 -0.40305,-0.58907 -0.69758,-1.37967 -0.69758,-2.17027 0,-5.36369 15.98257,-14.19981 21.23767,-14.19981 2.07731,0 3.27094,0.99213 4.06156,2.3873 0.31004,0.58908 0.6046,1.28666 0.6046,2.07727 0,2.18577 -2.27881,4.86762 -10.02979,9.92126"
     id="path236"
     style="stroke-width:0.992126" />
  <path
     class="Note"
     d="m 2045.3129,421.40548 c 18.2613,0 21.9353,-14.88189 21.9353,-18.44734 0,-5.65825 -4.4646,-9.33219 -10.9134,-9.33219 -16.5716,0 -21.7338,12.80463 -21.7338,18.55586 0,5.84429 4.6661,9.22367 10.7119,9.22367 m 8.4331,-8.83612 c -4.9607,3.37943 -8.4331,4.57308 -10.8049,4.57308 -2.2943,0 -3.674,-1.19365 -4.3716,-2.58883 -0.403,-0.58907 -0.6976,-1.37967 -0.6976,-2.17027 0,-5.36369 15.9826,-14.19981 21.2377,-14.19981 2.0773,0 3.2709,0.99213 4.0616,2.3873 0.31,0.58908 0.6046,1.28666 0.6046,2.07727 0,2.18577 -2.2789,4.86762 -10.0298,9.92126"
     id="path238"
     style="stroke-width:0.992126" />
  <path
     class="Note"
     d="m 2436.5129,458.61048 c 18.2613,0 21.9353,-14.88189 21.9353,-18.44734 0,-5.65825 -4.4646,-9.33219 -10.9134,-9.33219 -16.5716,0 -21.7338,12.80463 -21.7338,18.55586 0,5.84429 4.6661,9.22367 10.7119,9.22367 m 8.4331,-8.83612 c -4.9607,3.37943 -8.4331,4.57308 -10.8049,4.57308 -2.2943,0 -3.674,-1.19365 -4.3716,-2.58883 -0.403,-0.58907 -0.6976,-1.37967 -0.6976,-2.17027 0,-5.36369 15.9826,-14.19981 21.2377,-14.19981 2.0773,0 3.2709,0.99213 4.0616,2.38731 0.31,0.58907 0.6046,1.28665 0.6046,2.07726 0,2.18577 -2.2789,4.86762 -10.0298,9.92126"
     id="path240"
     style="stroke-width:0.992126" />
  <path
     class="Note"
     d="m 710.62889,421.40548 c 18.26126,0 21.93531,-14.88189 21.93531,-18.44734 0,-5.65825 -4.46457,-9.33219 -10.91339,-9.33219 -16.57165,0 -21.73381,12.80463 -21.73381,18.55586 0,5.84429 4.6661,9.22367 10.71189,9.22367 m 8.43307,-8.83612 c -4.96063,3.37943 -8.43307,4.57308 -10.8049,4.57308 -2.29429,0 -3.67396,-1.19365 -4.37156,-2.58883 -0.40305,-0.58907 -0.69758,-1.37967 -0.69758,-2.17027 0,-5.36369 15.98257,-14.19981 21.23767,-14.19981 2.07731,0 3.27094,0.99213 4.06156,2.3873 0.31004,0.58908 0.6046,1.28666 0.6046,2.07727 0,2.18577 -2.27881,4.86762 -10.02979,9.92126"
     id="path242"
     style="stroke-width:0.992126" />
  <path
     class="Note"
     d="m 869.88289,446.20848 c 18.26126,0 21.93531,-14.88189 21.93531,-18.44734 0,-5.65825 -4.46457,-9.33219 -10.91339,-9.33219 -16.57165,0 -21.73381,12.80463 -21.73381,18.55586 0,5.84429 4.6661,9.22367 10.71189,9.22367 m 8.43307,-8.83612 c -4.96063,3.37943 -8.43307,4.57308 -10.8049,4.57308 -2.29429,0 -3.67396,-1.19365 -4.37156,-2.58883 -0.40305,-0.58907 -0.69758,-1.37967 -0.69758,-2.17027 0,-5.36369 15.98257,-14.19981 21.23767,-14.19981 2.07731,0 3.27094,0.99213 4.06156,2.3873 0.31004,0.58908 0.6046,1.28666 0.6046,2.07727 0,2.18577 -2.27881,4.86762 -10.02979,9.92126"
     id="path244"
     style="stroke-width:0.992126" />
  <path
     class="Note"
     d="m 989.33289,433.80748 c 9.82819,0 21.93531,-9.13065 21.93531,-18.55586 0,-5.54973 -4.4646,-9.22367 -10.8204,-9.22367 -12.10706,0 -21.8268,9.02215 -21.8268,18.55586 0,5.75123 4.75911,9.22367 10.71189,9.22367"
     id="path246"
     style="stroke-width:0.992126" />
  <path
     class="Note"
     d="m 1095.3829,421.40548 c 9.8282,0 21.9353,-9.13065 21.9353,-18.55586 0,-5.54973 -4.4646,-9.22367 -10.8204,-9.22367 -12.1071,0 -21.8268,9.02215 -21.8268,18.55586 0,5.75123 4.7591,9.22367 10.7119,9.22367"
     id="path248"
     style="stroke-width:0.992126" />
  <path
     class="Note"
     d="m 2164.7529,433.80748 c 9.8282,0 21.9353,-9.13065 21.9353,-18.55586 0,-5.54973 -4.4646,-9.22367 -10.8204,-9.22367 -12.1071,0 -21.8268,9.02215 -21.8268,18.55586 0,5.75123 4.7591,9.22367 10.7119,9.22367"
     id="path250"
     style="stroke-width:0.992126" />
  <path
     class="Note"
     d="m 1148.4729,409.00348 c 9.8282,0 21.9353,-9.13065 21.9353,-18.55586 0,-5.54973 -4.4646,-9.22367 -10.8204,-9.22367 -12.1071,0 -21.8268,9.02215 -21.8268,18.55586 0,5.75123 4.7591,9.22367 10.7119,9.22367"
     id="path252"
     style="stroke-width:0.992126" />
  <path
     class="Note"
     d="m 1201.5629,396.60248 c 18.2613,0 21.9353,-14.88189 21.9353,-18.44734 0,-5.65825 -4.4646,-9.33219 -10.9134,-9.33219 -16.5716,0 -21.7338,12.80463 -21.7338,18.55586 0,5.84429 4.6661,9.22367 10.7119,9.22367 m 8.4331,-8.83612 c -4.9607,3.37943 -8.4331,4.57308 -10.8049,4.57308 -2.2943,0 -3.674,-1.19365 -4.3716,-2.58883 -0.403,-0.58907 -0.6976,-1.37967 -0.6976,-2.17027 0,-5.36369 15.9826,-14.19981 21.2377,-14.19981 2.0773,0 3.2709,0.99213 4.0616,2.3873 0.31,0.58908 0.6046,1.28666 0.6046,2.07727 0,2.18577 -2.2789,4.86762 -10.0298,9.92126"
     id="path254"
     style="stroke-width:0.992126" />
  <path
     class="Note"
     d="m 1311.0529,409.00348 c 9.8282,0 21.9353,-9.13065 21.9353,-18.55586 0,-5.54973 -4.4646,-9.22367 -10.8204,-9.22367 -12.1071,0 -21.8268,9.02215 -21.8268,18.55586 0,5.75123 4.7591,9.22367 10.7119,9.22367"
     id="path256"
     style="stroke-width:0.992126" />
  <path
     class="Note"
     d="m 1364.1329,396.60248 c 9.8282,0 21.9353,-9.13065 21.9353,-18.55586 0,-5.54973 -4.4646,-9.22367 -10.8204,-9.22367 -12.1071,0 -21.8268,9.02215 -21.8268,18.55586 0,5.75123 4.7591,9.22367 10.7119,9.22367"
     id="path258"
     style="stroke-width:0.992126" />
  <path
     class="Clef"
     d="m 170.25826,68.704488 c -0.2015,-1.193627 0,-1.286688 0.58903,-1.89129 10.71188,-10.014222 18.85039,-22.617298 18.85039,-37.79375 0,-8.634572 -2.38725,-17.176181 -6.44882,-23.1294334 -1.48819,-2.1697796 -4.06146,-4.96063004 -5.16213,-4.96063004 -1.37965,0 -4.46456,2.58944884 -6.44882,4.77510244 -7.3324,8.123032 -9.71976,20.524607 -9.71976,30.848868 0,5.751255 0.69767,12.200074 1.39523,16.277117 0.18603,1.193627 0.29456,1.37965 -0.89916,2.371776 -14.29277,11.81255 -29.46922,25.996777 -29.46922,46.040872 0,17.2692 11.81255,33.63925 36.11964,33.63925 2.27871,0 4.85209,-0.2015 6.83634,-0.6045 1.10066,-0.18603 1.30217,-0.29457 1.48819,0.89906 1.19363,6.65032 2.68181,15.28499 2.68181,19.95106 0,14.68039 -9.92125,16.46304 -15.76547,16.46304 -5.36373,0 -7.95249,-1.58115 -7.95249,-2.88332 0,-0.68208 0.89907,-0.99212 3.17788,-1.67421 3.08492,-0.89916 6.65032,-3.58098 6.65032,-9.33223 0,-5.4567 -3.47244,-10.12277 -9.51816,-10.12277 -6.65042,0 -10.61892,5.2552 -10.61892,11.40945 0,6.44882 3.86006,16.16858 18.85039,16.16858 6.65042,0 19.54806,-2.97638 19.54806,-19.84252 0,-5.64271 -1.78275,-15.06791 -2.88342,-21.22217 -0.2015,-1.19372 -0.093,-1.10066 1.28669,-1.68979 10.0298,-3.9685 16.68012,-12.40157 16.68012,-23.60947 0,-12.711665 -9.33223,-23.919514 -23.91956,-23.919514 -2.57328,0 -2.57328,0 -2.86784,-1.782751 l -2.48032,-14.385827 m 9.31666,-52.396654 c 3.27094,0 5.95276,2.681815 5.95276,8.138508 0,11.021925 -9.4252,19.951059 -17.25367,26.787402 -0.69756,0.604602 -1.10066,0.496063 -1.30216,-0.790625 -0.38753,-2.573277 -0.58913,-5.952756 -0.58913,-9.130635 0,-15.470915 7.14648,-25.00465 13.1922,-25.00465 M 168.77007,83.88094 c 0.29457,1.891191 0.29457,1.782652 -1.48818,2.387254 -8.74311,2.976378 -14.40131,10.804847 -14.40131,19.237966 0,8.92914 4.66607,15.28494 11.42493,17.56376 0.79062,0.29456 1.98425,0.6046 2.66634,0.6046 0.8061,0 1.19362,-0.49606 1.19362,-1.10067 0,-0.69756 -0.79062,-0.99212 -1.48819,-1.28668 -4.17,-1.78273 -7.14638,-6.04577 -7.14638,-10.61885 0,-5.65822 3.87544,-9.92127 9.92126,-11.611027 1.59673,-0.387524 1.79823,-0.294463 1.98425,0.806103 l 4.96063,29.562274 c 0.2015,1.08519 0.10854,1.08519 -1.37965,1.37975 -1.59672,0.31004 -3.58098,0.49607 -5.56523,0.49607 -17.3622,0 -28.57015,-9.61122 -28.57015,-23.40803 0,-5.85974 0.99212,-13.688258 9.22369,-23.020394 5.95276,-6.650419 10.52587,-10.324361 15.19193,-14.091364 0.99213,-0.790526 1.17815,-0.697564 1.37965,0.403101 l 2.09279,12.696137 m 6.83635,15.780955 c -0.2015,-1.193627 -0.093,-1.488189 1.10066,-1.395128 8.02997,0.697564 14.68039,7.440913 14.68039,16.168533 0,6.26284 -3.767,11.31643 -9.33223,14.09131 -1.19363,0.6046 -1.37965,0.6046 -1.58115,-0.58912 l -4.86767,-28.275595"
     id="path260"
     style="stroke-width:0.992126" />
  <path
     class="Clef"
     d="m 170.25826,329.13749 c -0.2015,-1.19363 0,-1.28669 0.58903,-1.89129 10.71188,-10.01422 18.85039,-22.6173 18.85039,-37.79375 0,-8.63457 -2.38725,-17.17618 -6.44882,-23.12944 -1.48819,-2.16978 -4.06146,-4.96063 -5.16213,-4.96063 -1.37965,0 -4.46456,2.58945 -6.44882,4.77511 -7.3324,8.12303 -9.71976,20.5246 -9.71976,30.84887 0,5.75125 0.69767,12.20007 1.39523,16.27711 0.18603,1.19363 0.29456,1.37965 -0.89916,2.37178 -14.29277,11.81255 -29.46922,25.99678 -29.46922,46.04087 0,17.2692 11.81255,33.63925 36.11964,33.63925 2.27871,0 4.85209,-0.2015 6.83634,-0.6045 1.10066,-0.18603 1.30217,-0.29457 1.48819,0.89906 1.19363,6.65032 2.68181,15.28499 2.68181,19.95106 0,14.68039 -9.92125,16.46304 -15.76547,16.46304 -5.36373,0 -7.95249,-1.58115 -7.95249,-2.88332 0,-0.68208 0.89907,-0.99212 3.17788,-1.67421 3.08492,-0.89916 6.65032,-3.58098 6.65032,-9.33223 0,-5.4567 -3.47244,-10.12277 -9.51816,-10.12277 -6.65042,0 -10.61892,5.2552 -10.61892,11.40945 0,6.44882 3.86006,16.16858 18.85039,16.16858 6.65042,0 19.54806,-2.97638 19.54806,-19.84252 0,-5.64271 -1.78275,-15.06791 -2.88342,-21.22217 -0.2015,-1.19372 -0.093,-1.10066 1.28669,-1.68979 10.0298,-3.9685 16.68012,-12.40157 16.68012,-23.60947 0,-12.71166 -9.33223,-23.91951 -23.91956,-23.91951 -2.57328,0 -2.57328,0 -2.86784,-1.78276 l -2.48032,-14.38582 m 9.31666,-52.39666 c 3.27094,0 5.95276,2.68182 5.95276,8.13851 0,11.02193 -9.4252,19.95106 -17.25367,26.7874 -0.69756,0.60461 -1.10066,0.49607 -1.30216,-0.79062 -0.38753,-2.57328 -0.58913,-5.95276 -0.58913,-9.13064 0,-15.47091 7.14648,-25.00465 13.1922,-25.00465 m -10.80485,67.57311 c 0.29457,1.89119 0.29457,1.78265 -1.48818,2.38725 -8.74311,2.97638 -14.40131,10.80485 -14.40131,19.23797 0,8.92914 4.66607,15.28494 11.42493,17.56376 0.79062,0.29456 1.98425,0.6046 2.66634,0.6046 0.8061,0 1.19362,-0.49606 1.19362,-1.10067 0,-0.69756 -0.79062,-0.99212 -1.48819,-1.28668 -4.17,-1.78273 -7.14638,-6.04577 -7.14638,-10.61885 0,-5.65822 3.87544,-9.92127 9.92126,-11.61103 1.59673,-0.38752 1.79823,-0.29446 1.98425,0.80611 l 4.96063,29.56227 c 0.2015,1.08519 0.10854,1.08519 -1.37965,1.37975 -1.59672,0.31004 -3.58098,0.49607 -5.56523,0.49607 -17.3622,0 -28.57015,-9.61122 -28.57015,-23.40803 0,-5.85974 0.99212,-13.68826 9.22369,-23.02039 5.95276,-6.65042 10.52587,-10.32436 15.19193,-14.09137 0.99213,-0.79052 1.17815,-0.69756 1.37965,0.4031 l 2.09279,12.69614 m 6.83635,15.78095 c -0.2015,-1.19362 -0.093,-1.48818 1.10066,-1.39512 8.02997,0.69756 14.68039,7.44091 14.68039,16.16853 0,6.26284 -3.767,11.31643 -9.33223,14.09131 -1.19363,0.6046 -1.37965,0.6046 -1.58115,-0.58912 l -4.86767,-28.2756"
     id="path262"
     style="stroke-width:0.992126" />
  <path
     class="Clef"
     d="m 157.94965,555.14094 c -17.26916,0 -25.00465,12.60308 -25.00465,22.12128 0,7.93701 4.17003,14.78888 12.20007,14.78888 6.24732,0 10.52587,-4.37155 10.52587,-10.51033 0,-6.35581 -4.66617,-10.32431 -9.53374,-10.32431 -2.68182,0 -3.67399,0.69758 -4.96065,0.69758 -1.28667,0 -1.5812,-0.79064 -1.5812,-1.78277 0,-3.9685 5.95273,-11.22343 16.07559,-11.22343 10.51028,0 15.08339,10.32436 15.08339,25.90385 0,27.68653 -13.70374,43.15745 -36.8172,56.34965 -0.89912,0.49606 -1.48819,0.99213 -1.48819,1.78275 0,0.6046 0.40305,1.19363 1.28666,1.19363 0.49607,0 1.10064,-0.2015 1.68971,-0.49607 24.41563,-11.90551 50.21091,-29.56227 50.21091,-59.72908 0,-17.25374 -10.52586,-28.77163 -27.68657,-28.77163 m 37.40633,8.13851 c -3.08492,0 -5.4567,2.38725 -5.4567,5.45669 0,3.06939 2.37178,5.45669 5.4567,5.45669 3.06934,0 5.45669,-2.3873 5.45669,-5.45669 0,-3.06944 -2.38735,-5.45669 -5.45669,-5.45669 m 0.093,24.89616 c -3.06934,0 -5.34816,2.29429 -5.34816,5.36368 0,3.06944 2.27882,5.36373 5.34816,5.36373 3.08491,0 5.36373,-2.29429 5.36373,-5.36373 0,-3.06939 -2.27882,-5.36368 -5.36373,-5.36368"
     id="path264"
     style="stroke-width:0.992126" />
  <path
     class="KeySig"
     d="m 226.80166,101.94086 c 0.29453,0.4031 0.58907,0.49606 0.8836,0.49606 0.31004,0 0.60459,-0.2015 0.60459,-0.2015 2.97637,-1.68969 5.34817,-4.356027 7.82853,-6.045816 8.83608,-6.154257 11.90552,-12.200025 11.90552,-16.773111 0,-5.658263 -4.35613,-9.223666 -8.92914,-9.518228 -1.67421,0 -4.06156,0.790625 -5.45674,1.68969 -0.58908,0.496063 -1.67421,1.379749 -2.17028,1.379749 -0.20152,0 -0.31004,0 -0.49606,-0.09306 -0.69758,-0.294562 -1.10063,-0.992126 -1.10063,-1.68969 0.10851,-2.185753 0.69758,-25.996777 0.69758,-27.981029 0,-1.085187 -0.89911,-1.689789 -1.89124,-1.689789 -1.37967,0 -2.97638,0.992126 -3.06939,2.774877 0,0 0.40305,56.659717 1.19366,57.651847 m 3.47244,-8.836122 c 0,0 -0.29454,-5.952756 -0.29454,-9.92126 0,-1.581201 0.093,-2.774858 0.18602,-3.162402 0.69759,-1.984252 4.6661,-4.867618 6.94493,-4.867618 2.88332,0 4.07694,3.27091 4.07694,5.751225 0,5.363692 -4.573,10.711866 -8.83609,13.393711 -0.38755,0.201521 -0.69759,0.294533 -0.99212,0.294533 -0.88362,0 -1.08514,-0.992126 -1.08514,-1.488189"
     id="path266"
     style="stroke-width:0.992126" />
  <path
     class="KeySig"
     d="m 226.80166,362.37386 c 0.29453,0.4031 0.58907,0.49606 0.8836,0.49606 0.31004,0 0.60459,-0.2015 0.60459,-0.2015 2.97637,-1.68969 5.34817,-4.35603 7.82853,-6.04582 8.83608,-6.15425 11.90552,-12.20002 11.90552,-16.77311 0,-5.65826 -4.35613,-9.22366 -8.92914,-9.51823 -1.67421,0 -4.06156,0.79063 -5.45674,1.68969 -0.58908,0.49607 -1.67421,1.37975 -2.17028,1.37975 -0.20152,0 -0.31004,0 -0.49606,-0.0931 -0.69758,-0.29456 -1.10063,-0.99212 -1.10063,-1.68969 0.10851,-2.18575 0.69758,-25.99677 0.69758,-27.98103 0,-1.08518 -0.89911,-1.68978 -1.89124,-1.68978 -1.37967,0 -2.97638,0.99212 -3.06939,2.77487 0,0 0.40305,56.65972 1.19366,57.65185 m 3.47244,-8.83612 c 0,0 -0.29454,-5.95276 -0.29454,-9.92126 0,-1.5812 0.093,-2.77486 0.18602,-3.1624 0.69759,-1.98426 4.6661,-4.86762 6.94493,-4.86762 2.88332,0 4.07694,3.27091 4.07694,5.75122 0,5.36369 -4.573,10.71187 -8.83609,13.39371 -0.38755,0.20152 -0.69759,0.29454 -0.99212,0.29454 -0.88362,0 -1.08514,-0.99213 -1.08514,-1.48819"
     id="path268"
     style="stroke-width:0.992126" />
  <path
     class="KeySig"
     d="m 226.80166,647.60986 c 0.29453,0.4031 0.58907,0.49606 0.8836,0.49606 0.31004,0 0.60459,-0.2015 0.60459,-0.2015 2.97637,-1.68969 5.34817,-4.35603 7.82853,-6.04582 8.83608,-6.15425 11.90552,-12.20002 11.90552,-16.77311 0,-5.65826 -4.35613,-9.22366 -8.92914,-9.51823 -1.67421,0 -4.06156,0.79063 -5.45674,1.68969 -0.58908,0.49607 -1.67421,1.37975 -2.17028,1.37975 -0.20152,0 -0.31004,0 -0.49606,-0.0931 -0.69758,-0.29456 -1.10063,-0.99212 -1.10063,-1.68969 0.10851,-2.18575 0.69758,-25.99677 0.69758,-27.98103 0,-1.08518 -0.89911,-1.68978 -1.89124,-1.68978 -1.37967,0 -2.97638,0.99212 -3.06939,2.77487 0,0 0.40305,56.65972 1.19366,57.65185 m 3.47244,-8.83612 c 0,0 -0.29454,-5.95276 -0.29454,-9.92126 0,-1.5812 0.093,-2.77486 0.18602,-3.1624 0.69759,-1.98426 4.6661,-4.86762 6.94493,-4.86762 2.88332,0 4.07694,3.27091 4.07694,5.75122 0,5.36369 -4.573,10.71187 -8.83609,13.39371 -0.38755,0.20152 -0.69759,0.29454 -0.99212,0.29454 -0.88362,0 -1.08514,-0.99213 -1.08514,-1.48819"
     id="path270"
     style="stroke-width:0.992126" />
  <path
     class="TimeSig"
     d="M 306.76904,67.62365 V 46.385953 c 0,-0.790625 -0.093,-1.68969 -1.19363,-1.68969 -0.88359,0 -1.37965,0.201501 -1.98425,0.899065 l -9.4252,11.409469 c -0.403,0.496063 -0.89906,1.085137 -0.89906,2.278794 v 8.340059 h -13.39375 c 7.93705,-6.758858 23.82655,-29.267766 24.12111,-30.461393 l 0.093,-0.294562 c 0,-0.899065 -0.69756,-1.488189 -1.48819,-1.488189 -0.88359,0 -4.96063,0.186023 -6.74338,0.186023 -1.78265,0 -6.24722,-0.186023 -7.05332,-0.186023 -0.88369,0 -2.27881,0.294562 -2.27881,1.875812 0,12.308514 -9.71976,26.089789 -12.69614,30.259823 l -0.58908,0.790596 c 0,0 0,0.108519 0,0.108519 l -0.10851,0.09301 c -0.20153,0.496063 -0.29454,0.899115 -0.29454,1.193647 0,0.992126 0.79061,1.68969 1.98425,1.68969 h 18.4474 v 6.247318 c 0,2.681816 -2.17028,3.472441 -3.96851,3.472441 -1.58125,0 -2.27881,0.899164 -2.27881,1.89129 0,0.992126 0.403,2.077214 1.89119,2.077214 h 21.12921 c 0.99212,0 1.98425,-0.697564 1.98425,-2.077214 0,-1.395227 -1.19363,-1.984252 -2.18575,-1.984252 -0.99213,0 -3.06944,-0.604602 -3.06944,-3.782481 v -5.844316 h 7.23944 c 0.99213,0 1.48819,-0.697564 1.48819,-1.891211 0,-1.193656 -0.38752,-1.875743 -1.48819,-1.875743 h -7.23944"
     id="path272"
     style="stroke-width:0.992126" />
  <path
     class="TimeSig"
     d="m 313.80683,119.49286 c 0,-1.17815 -0.49606,-1.37967 -1.19363,-1.37967 -0.79062,0 -1.10066,0.38755 -1.28668,1.08514 l -0.10854,0.10851 c -0.99213,2.48036 -1.78275,4.35608 -3.85997,4.35608 -0.49606,0 -0.99212,-0.0931 -1.68969,-0.29457 -1.28669,-0.49606 -1.98425,-0.58902 -2.97638,-1.08508 -1.98425,-0.80611 -6.65042,-2.38736 -10.72736,-2.38736 -1.28669,0 -2.57337,0.20153 -3.65846,0.58913 2.17027,-3.5655 10.61882,-6.54188 12.7891,-7.13096 6.94488,-1.89124 13.20767,-4.7746 13.20767,-13.00612 0,-10.510388 -10.32436,-15.083494 -19.54795,-15.083494 -6.94489,0 -13.09921,0.604602 -17.96683,6.262796 -1.68972,2.077313 -2.77486,4.557628 -2.77486,7.239444 0,1.379654 0.29454,2.774874 0.89912,4.263064 1.48819,3.06939 4.55757,5.45669 8.12308,5.45669 6.06119,0 6.94488,-6.24729 6.94488,-8.727628 0,-5.952756 -6.83644,-6.247318 -6.83644,-8.23157 0.2016,-1.395128 1.98425,-3.782481 7.82857,-3.782481 8.83607,0 8.94461,6.650419 8.94461,9.533736 0,9.022163 -7.45643,15.874043 -14.58733,20.230093 -5.45674,3.47249 -9.33224,8.34006 -11.02195,14.78888 l -0.093,0.29456 c 0,1.28669 1.08514,3.37938 2.57333,3.37938 2.18577,0 3.37943,-6.06119 9.22372,-6.06119 3.9685,0 5.45669,5.36363 14.29276,5.36363 4.26307,0 11.90551,-0.403 13.50224,-15.78101"
     id="path274"
     style="stroke-width:0.992126" />
  <path
     class="TimeSig"
     d="m 306.76904,328.05665 v -21.2377 c 0,-0.79062 -0.093,-1.68969 -1.19363,-1.68969 -0.88359,0 -1.37965,0.2015 -1.98425,0.89907 l -9.4252,11.40947 c -0.403,0.49606 -0.89906,1.08513 -0.89906,2.27879 v 8.34006 h -13.39375 c 7.93705,-6.75886 23.82655,-29.26777 24.12111,-30.46139 l 0.093,-0.29457 c 0,-0.89906 -0.69756,-1.48818 -1.48819,-1.48818 -0.88359,0 -4.96063,0.18602 -6.74338,0.18602 -1.78265,0 -6.24722,-0.18602 -7.05332,-0.18602 -0.88369,0 -2.27881,0.29456 -2.27881,1.87581 0,12.30851 -9.71976,26.08979 -12.69614,30.25982 l -0.58908,0.7906 c 0,0 0,0.10852 0,0.10852 l -0.10851,0.093 c -0.20153,0.49606 -0.29454,0.89911 -0.29454,1.19364 0,0.99213 0.79061,1.68969 1.98425,1.68969 h 18.4474 v 6.24732 c 0,2.68182 -2.17028,3.47244 -3.96851,3.47244 -1.58125,0 -2.27881,0.89917 -2.27881,1.89129 0,0.99213 0.403,2.07722 1.89119,2.07722 h 21.12921 c 0.99212,0 1.98425,-0.69757 1.98425,-2.07722 0,-1.39522 -1.19363,-1.98425 -2.18575,-1.98425 -0.99213,0 -3.06944,-0.6046 -3.06944,-3.78248 v -5.84432 h 7.23944 c 0.99213,0 1.48819,-0.69756 1.48819,-1.89121 0,-1.19365 -0.38752,-1.87574 -1.48819,-1.87574 h -7.23944"
     id="path276"
     style="stroke-width:0.992126" />
  <path
     class="TimeSig"
     d="m 313.80683,379.92586 c 0,-1.17815 -0.49606,-1.37967 -1.19363,-1.37967 -0.79062,0 -1.10066,0.38755 -1.28668,1.08514 l -0.10854,0.10851 c -0.99213,2.48036 -1.78275,4.35608 -3.85997,4.35608 -0.49606,0 -0.99212,-0.0931 -1.68969,-0.29457 -1.28669,-0.49606 -1.98425,-0.58902 -2.97638,-1.08508 -1.98425,-0.80611 -6.65042,-2.38736 -10.72736,-2.38736 -1.28669,0 -2.57337,0.20153 -3.65846,0.58913 2.17027,-3.5655 10.61882,-6.54188 12.7891,-7.13096 6.94488,-1.89124 13.20767,-4.7746 13.20767,-13.00612 0,-10.51039 -10.32436,-15.08349 -19.54795,-15.08349 -6.94489,0 -13.09921,0.6046 -17.96683,6.26279 -1.68972,2.07731 -2.77486,4.55763 -2.77486,7.23945 0,1.37965 0.29454,2.77487 0.89912,4.26306 1.48819,3.06939 4.55757,5.45669 8.12308,5.45669 6.06119,0 6.94488,-6.24729 6.94488,-8.72763 0,-5.95275 -6.83644,-6.24732 -6.83644,-8.23157 0.2016,-1.39513 1.98425,-3.78248 7.82857,-3.78248 8.83607,0 8.94461,6.65042 8.94461,9.53374 0,9.02216 -7.45643,15.87404 -14.58733,20.23009 -5.45674,3.47249 -9.33224,8.34006 -11.02195,14.78888 l -0.093,0.29456 c 0,1.28669 1.08514,3.37938 2.57333,3.37938 2.18577,0 3.37943,-6.06119 9.22372,-6.06119 3.9685,0 5.45669,5.36363 14.29276,5.36363 4.26307,0 11.90551,-0.403 13.50224,-15.78101"
     id="path278"
     style="stroke-width:0.992126" />
  <path
     class="TimeSig"
     d="m 306.76904,588.48965 v -21.2377 c 0,-0.79062 -0.093,-1.68969 -1.19363,-1.68969 -0.88359,0 -1.37965,0.2015 -1.98425,0.89907 l -9.4252,11.40947 c -0.403,0.49606 -0.89906,1.08513 -0.89906,2.27879 v 8.34006 h -13.39375 c 7.93705,-6.75886 23.82655,-29.26777 24.12111,-30.46139 l 0.093,-0.29457 c 0,-0.89906 -0.69756,-1.48818 -1.48819,-1.48818 -0.88359,0 -4.96063,0.18602 -6.74338,0.18602 -1.78265,0 -6.24722,-0.18602 -7.05332,-0.18602 -0.88369,0 -2.27881,0.29456 -2.27881,1.87581 0,12.30851 -9.71976,26.08979 -12.69614,30.25982 l -0.58908,0.7906 c 0,0 0,0.10852 0,0.10852 l -0.10851,0.093 c -0.20153,0.49606 -0.29454,0.89911 -0.29454,1.19364 0,0.99213 0.79061,1.68969 1.98425,1.68969 h 18.4474 v 6.24732 c 0,2.68182 -2.17028,3.47244 -3.96851,3.47244 -1.58125,0 -2.27881,0.89917 -2.27881,1.89129 0,0.99213 0.403,2.07722 1.89119,2.07722 h 21.12921 c 0.99212,0 1.98425,-0.69757 1.98425,-2.07722 0,-1.39522 -1.19363,-1.98425 -2.18575,-1.98425 -0.99213,0 -3.06944,-0.6046 -3.06944,-3.78248 v -5.84432 h 7.23944 c 0.99213,0 1.48819,-0.69756 1.48819,-1.89121 0,-1.19365 -0.38752,-1.87574 -1.48819,-1.87574 h -7.23944"
     id="path280"
     style="stroke-width:0.992126" />
  <path
     class="TimeSig"
     d="m 313.80683,640.35886 c 0,-1.17815 -0.49606,-1.37967 -1.19363,-1.37967 -0.79062,0 -1.10066,0.38755 -1.28668,1.08514 l -0.10854,0.10851 c -0.99213,2.48036 -1.78275,4.35608 -3.85997,4.35608 -0.49606,0 -0.99212,-0.0931 -1.68969,-0.29456 -1.28669,-0.49607 -1.98425,-0.58903 -2.97638,-1.08509 -1.98425,-0.80611 -6.65042,-2.38736 -10.72736,-2.38736 -1.28669,0 -2.57337,0.20153 -3.65846,0.58913 2.17027,-3.5655 10.61882,-6.54188 12.7891,-7.13096 6.94488,-1.89124 13.20767,-4.7746 13.20767,-13.00612 0,-10.51039 -10.32436,-15.08349 -19.54795,-15.08349 -6.94489,0 -13.09921,0.6046 -17.96683,6.26279 -1.68972,2.07732 -2.77486,4.55763 -2.77486,7.23945 0,1.37965 0.29454,2.77487 0.89912,4.26306 1.48819,3.06939 4.55757,5.4567 8.12308,5.4567 6.06119,0 6.94488,-6.2473 6.94488,-8.72764 0,-5.95275 -6.83644,-6.24732 -6.83644,-8.23157 0.2016,-1.39513 1.98425,-3.78248 7.82857,-3.78248 8.83607,0 8.94461,6.65042 8.94461,9.53374 0,9.02216 -7.45643,15.87404 -14.58733,20.23009 -5.45674,3.47249 -9.33224,8.34006 -11.02195,14.78888 l -0.093,0.29456 c 0,1.28669 1.08514,3.37938 2.57333,3.37938 2.18577,0 3.37943,-6.06119 9.22372,-6.06119 3.9685,0 5.45669,5.36363 14.29276,5.36363 4.26307,0 11.90551,-0.403 13.50224,-15.78101"
     id="path282"
     style="stroke-width:0.992126" />
  <path
     class="Rest"
     d="m 393.07603,82.687414 v -9.115207 c 0,-1.488189 -1.19363,-2.588755 -2.57328,-2.588755 h -22.83442 c -1.48819,0 -2.57333,1.100566 -2.57333,2.588755 v 9.115207 c 0,1.395177 1.08514,2.588829 2.57333,2.588829 h 22.83442 c 1.37965,0 2.57328,-1.193652 2.57328,-2.588829"
     id="path284"
     style="stroke-width:0.992126" />
  <path
     class="Lyrics"
     fill="#ff0000"
     d="m 1766.761,203.30272 c 5.19,-1.875 7.6,-4.781 7.6,-9.343 0,-5.985 -4.57,-9.813 -11.64,-9.813 -6.68,0 -11.74,3.938 -11.74,9.125 0,2.344 1.53,4 3.77,4 1.98,0 3.36,-1.375 3.36,-3.422 0,-1.265 -0.46,-2 -1.77,-2.906 -0.58,-0.406 -0.75,-0.625 -0.75,-1.031 0,-1.594 3.31,-3.313 6.56,-3.313 4.11,0 6.27,2.578 6.27,7.422 0,5.297 -2.16,8.094 -6.22,8.094 -0.5,0 -1.47,-0.063 -2.33,-0.125 -0.45,-0.047 -0.9,-0.047 -1.25,-0.047 -1.2,0 -1.83,0.516 -1.83,1.531 0,0.969 0.57,1.438 1.83,1.438 0.35,0 0.8,0 1.32,-0.063 1.14,-0.062 2.04,-0.062 2.67,-0.062 4.22,0 6.5,3.031 6.5,8.672 0,5.921 -2.85,9.234 -7.99,9.234 -3.59,0 -7.47,-1.938 -7.47,-3.703 0,-0.516 0.13,-0.625 1.21,-1.266 1.59,-0.969 2.22,-1.937 2.22,-3.359 0,-2.047 -1.54,-3.594 -3.6,-3.594 -2.45,0 -4.04,2 -4.04,5.016 0,5.531 5.07,9.359 12.37,9.359 8.27,0 13.63,-4.562 13.63,-11.578 0,-5.359 -2.74,-8.609 -8.68,-10.266"
     id="path286" />
  <path
     class="Lyrics"
     fill="#ff0000"
     d="m 593.113,204.91272 c 0.579,-7.141 0.86,-9.016 2.11,-11.922 1.656,-4.047 4.672,-6.391 8.265,-6.391 2,0 3.204,0.641 3.204,1.656 0,0.235 -0.063,0.407 -0.297,0.797 -0.563,1.094 -0.844,1.938 -0.844,2.735 0,1.89 1.469,3.312 3.469,3.312 2.218,0 3.765,-1.703 3.765,-4.109 0,-3.922 -3.937,-6.844 -9.343,-6.844 -11.86,0 -16.657,12.5 -16.657,22.578 0,11.172 5.469,18.422 13.907,18.422 7.64,0 13.125,-6.109 13.125,-13.625 0,-6.734 -4.797,-11.75 -11.297,-11.75 -3.875,0 -6.719,1.547 -9.407,5.141 m 7.813,-1.657 c 4.156,0 6.672,3.25 6.672,8.657 0,6.625 -2.625,10.781 -6.781,10.781 -5.079,0 -7.36,-5.641 -7.36,-9.984 0,-5.86 2.86,-9.454 7.469,-9.454"
     id="path288" />
  <path
     class="Lyrics"
     d="m 1533.101,207.89172 c 5.19,-1.875 7.6,-4.781 7.6,-9.344 0,-5.984 -4.56,-9.812 -11.64,-9.812 -6.67,0 -11.74,3.937 -11.74,9.125 0,2.343 1.53,4 3.77,4 1.98,0 3.36,-1.375 3.36,-3.422 0,-1.266 -0.45,-2 -1.77,-2.907 -0.58,-0.406 -0.75,-0.625 -0.75,-1.031 0,-1.594 3.32,-3.312 6.57,-3.312 4.1,0 6.26,2.578 6.26,7.422 0,5.296 -2.16,8.093 -6.22,8.093 -0.5,0 -1.47,-0.062 -2.33,-0.125 -0.45,-0.047 -0.9,-0.047 -1.25,-0.047 -1.2,0 -1.82,0.516 -1.82,1.532 0,0.968 0.56,1.437 1.82,1.437 0.35,0 0.8,0 1.32,-0.062 1.14,-0.063 2.04,-0.063 2.67,-0.063 4.22,0 6.5,3.031 6.5,8.672 0,5.922 -2.85,9.234 -7.99,9.234 -3.59,0 -7.46,-1.937 -7.46,-3.703 0,-0.515 0.12,-0.625 1.2,-1.265 1.59,-0.969 2.22,-1.938 2.22,-3.36 0,-2.047 -1.53,-3.593 -3.6,-3.593 -2.45,0 -4.04,2 -4.04,5.015 0,5.531 5.07,9.36 12.37,9.36 8.27,0 13.63,-4.563 13.63,-11.579 0,-5.359 -2.74,-8.609 -8.68,-10.265"
     id="path290" />
  <path
     class="Lyrics"
     fill="#ff0000"
     d="m 2043.641,204.91272 c 0.57,-7.141 0.85,-9.016 2.1,-11.922 1.66,-4.047 4.68,-6.391 8.27,-6.391 2,0 3.2,0.641 3.2,1.656 0,0.235 -0.06,0.407 -0.29,0.797 -0.57,1.094 -0.85,1.938 -0.85,2.735 0,1.89 1.47,3.312 3.47,3.312 2.22,0 3.77,-1.703 3.77,-4.109 0,-3.922 -3.94,-6.844 -9.35,-6.844 -11.86,0 -16.65,12.5 -16.65,22.578 0,11.172 5.47,18.422 13.9,18.422 7.64,0 13.13,-6.109 13.13,-13.625 0,-6.734 -4.8,-11.75 -11.3,-11.75 -3.87,0 -6.72,1.547 -9.4,5.141 m 7.81,-1.657 c 4.15,0 6.67,3.25 6.67,8.657 0,6.625 -2.63,10.781 -6.78,10.781 -5.08,0 -7.36,-5.641 -7.36,-9.984 0,-5.86 2.86,-9.454 7.47,-9.454"
     id="path292" />
  <path
     class="Lyrics"
     fill="#ff0000"
     d="m 708.955,204.91272 c 0.578,-7.141 0.86,-9.016 2.11,-11.922 1.656,-4.047 4.672,-6.391 8.265,-6.391 2,0 3.203,0.641 3.203,1.656 0,0.235 -0.062,0.407 -0.296,0.797 -0.563,1.094 -0.844,1.938 -0.844,2.735 0,1.89 1.469,3.312 3.469,3.312 2.218,0 3.765,-1.703 3.765,-4.109 0,-3.922 -3.937,-6.844 -9.344,-6.844 -11.859,0 -16.656,12.5 -16.656,22.578 0,11.172 5.469,18.422 13.906,18.422 7.641,0 13.125,-6.109 13.125,-13.625 0,-6.734 -4.796,-11.75 -11.296,-11.75 -3.875,0 -6.719,1.547 -9.407,5.141 m 7.813,-1.657 c 4.156,0 6.672,3.25 6.672,8.657 0,6.625 -2.625,10.781 -6.782,10.781 -5.078,0 -7.359,-5.641 -7.359,-9.984 0,-5.86 2.859,-9.454 7.469,-9.454"
     id="path294" />
  <path
     class="Lyrics"
     d="m 2355.211,204.91272 c 0.58,-7.141 0.86,-9.016 2.11,-11.922 1.66,-4.047 4.67,-6.391 8.27,-6.391 2,0 3.2,0.641 3.2,1.656 0,0.235 -0.06,0.407 -0.3,0.797 -0.56,1.094 -0.84,1.938 -0.84,2.735 0,1.89 1.47,3.312 3.47,3.312 2.22,0 3.77,-1.703 3.77,-4.109 0,-3.922 -3.94,-6.844 -9.35,-6.844 -11.86,0 -16.65,12.5 -16.65,22.578 0,11.172 5.46,18.422 13.9,18.422 7.64,0 13.13,-6.109 13.13,-13.625 0,-6.734 -4.8,-11.75 -11.3,-11.75 -3.88,0 -6.72,1.547 -9.41,5.141 m 7.82,-1.657 c 4.15,0 6.67,3.25 6.67,8.657 0,6.625 -2.63,10.781 -6.78,10.781 -5.08,0 -7.36,-5.641 -7.36,-9.984 0,-5.86 2.86,-9.454 7.47,-9.454"
     id="path296" />
  <path
     class="Lyrics"
     d="m 2447.451,202.05272 c 4.22,-2.281 6.27,-5.125 6.27,-8.828 0,-5.25 -4.74,-9.078 -11.35,-9.078 -6.95,0 -12.03,4.563 -12.03,10.891 0,2.453 0.91,5.015 2.52,6.797 0.97,1.125 1.87,1.765 3.92,2.843 -4.67,1.828 -8.31,4.391 -8.31,10.032 0,3.14 1.53,6.218 3.92,7.984 2.23,1.594 5.31,2.453 8.95,2.453 4.22,0 7.75,-1.141 10.16,-3.203 2.39,-2.156 3.87,-5.641 3.87,-9.109 0,-3.25 -1.26,-6.157 -3.59,-8.219 -1.14,-1.016 -2.17,-1.594 -4.33,-2.563 m -6.11,-2.281 c -4.61,-1.656 -6.61,-3.812 -6.61,-7.125 0,-3.641 2.97,-6.047 7.47,-6.047 4.39,0 7.3,2.797 7.3,6.953 0,2.969 -1.14,4.907 -4.39,7.641 l -3.77,-1.422 m 3.32,7.922 c 4.32,1.547 6.15,3.766 6.15,7.531 0,4.563 -3.59,7.469 -9.19,7.469 -5.36,0 -8.43,-2.906 -8.43,-7.984 0,-4.282 1.78,-6.844 6.22,-8.891 l 5.25,1.875"
     id="path298" />
  <path
     class="Lyrics"
     d="m 2270.221,197.94372 2.52,0.406 1.02,-4.5 c 0.86,-3.765 1.26,-4.344 2.92,-4.344 0.28,0 0.73,0 1.25,0.063 7.01,0.344 7.01,0.344 9.62,0.344 0.75,0 2.07,0 3.66,-0.063 l -3.88,7.813 c -4.21,8.375 -4.73,9.406 -6.15,12.937 -1.77,4.281 -2.69,7.875 -2.69,10.266 0,2.625 1.38,4.219 3.59,4.219 2.74,0 3.83,-1.829 3.77,-6.782 -0.28,-8.203 0.73,-12.203 6.84,-25.547 1.02,-2.218 2.11,-4.5 3.13,-6.718 v -1.657 c -3.41,0.282 -5.24,0.407 -8.77,0.407 -4.97,0 -8.9,-0.172 -15.06,-0.641 l -1.77,13.797"
     id="path300" />
  <path
     class="Lyrics"
     fill="#00aa00"
     d="m 1280.641,190.59972 c 3.08,0.735 4.62,0.969 6.91,0.969 4.84,0 8.37,-1.656 10.26,-4.844 0.63,-1.031 0.85,-1.594 0.85,-2.062 0,-0.344 -0.11,-0.516 -0.46,-0.516 -0.17,0 -0.39,0.063 -0.73,0.234 -2.8,1.204 -4.28,1.485 -7.6,1.485 -3.64,0 -5.92,-0.344 -11.73,-1.719 -0.23,4.797 -0.75,10.891 -1.55,17.969 -1.18,1.25 -1.59,1.984 -1.59,2.906 0,1.188 0.75,1.938 1.83,1.938 1.48,0 2.33,-1.204 2.56,-3.485 2,-1.422 3.87,-2.047 6.16,-2.047 5.12,0 8.15,3.875 8.15,10.438 0,5.922 -1.89,10.828 -8.5,10.828 -3.42,0 -6.95,-1.766 -6.95,-3.531 0,-0.407 0.34,-0.86 1.03,-1.266 1.77,-1.078 2.28,-1.812 2.28,-3.359 0,-2 -1.55,-3.532 -3.59,-3.532 -2.28,0 -4.11,2.11 -4.11,4.782 0,2.859 1.65,5.703 4.22,7.468 1.93,1.266 4.22,1.891 7.25,1.891 8.93,0 14.59,-5.25 14.59,-13.625 0,-7.75 -5.14,-12.937 -12.89,-12.937 -2.45,0 -4.22,0.39 -7.36,1.703 l 0.97,-9.688"
     id="path302" />
  <path
     class="Lyrics"
     d="m 1601.231,204.91272 c 0.58,-7.141 0.86,-9.016 2.11,-11.922 1.66,-4.047 4.67,-6.391 8.27,-6.391 2,0 3.2,0.641 3.2,1.656 0,0.235 -0.06,0.407 -0.3,0.797 -0.56,1.094 -0.84,1.938 -0.84,2.735 0,1.89 1.47,3.312 3.47,3.312 2.22,0 3.77,-1.703 3.77,-4.109 0,-3.922 -3.94,-6.844 -9.35,-6.844 -11.86,0 -16.65,12.5 -16.65,22.578 0,11.172 5.46,18.422 13.9,18.422 7.64,0 13.13,-6.109 13.13,-13.625 0,-6.734 -4.8,-11.75 -11.3,-11.75 -3.88,0 -6.72,1.547 -9.41,5.141 m 7.82,-1.657 c 4.15,0 6.67,3.25 6.67,8.657 0,6.625 -2.63,10.781 -6.78,10.781 -5.08,0 -7.36,-5.641 -7.36,-9.984 0,-5.86 2.86,-9.454 7.47,-9.454"
     id="path304" />
  <path
     class="Lyrics"
     d="m 868.211,204.91272 c 0.58,-7.141 0.86,-9.016 2.11,-11.922 1.66,-4.047 4.67,-6.391 8.27,-6.391 2,0 3.2,0.641 3.2,1.656 0,0.235 -0.06,0.407 -0.3,0.797 -0.56,1.094 -0.84,1.938 -0.84,2.735 0,1.89 1.47,3.312 3.47,3.312 2.22,0 3.76,-1.703 3.76,-4.109 0,-3.922 -3.93,-6.844 -9.34,-6.844 -11.86,0 -16.66,12.5 -16.66,22.578 0,11.172 5.47,18.422 13.91,18.422 7.64,0 13.13,-6.109 13.13,-13.625 0,-6.734 -4.8,-11.75 -11.3,-11.75 -3.88,0 -6.72,1.547 -9.41,5.141 m 7.82,-1.657 c 4.15,0 6.67,3.25 6.67,8.657 0,6.625 -2.63,10.781 -6.78,10.781 -5.08,0 -7.36,-5.641 -7.36,-9.984 0,-5.86 2.86,-9.454 7.47,-9.454"
     id="path306" />
  <path
     class="Lyrics"
     d="m 2124.391,190.59972 c 3.08,0.735 4.62,0.969 6.91,0.969 4.84,0 8.37,-1.656 10.26,-4.844 0.63,-1.031 0.84,-1.594 0.84,-2.062 0,-0.344 -0.1,-0.516 -0.45,-0.516 -0.17,0 -0.39,0.063 -0.73,0.234 -2.8,1.204 -4.28,1.485 -7.6,1.485 -3.64,0 -5.92,-0.344 -11.73,-1.719 -0.24,4.797 -0.75,10.891 -1.55,17.969 -1.19,1.25 -1.59,1.984 -1.59,2.906 0,1.188 0.75,1.938 1.83,1.938 1.48,0 2.32,-1.204 2.56,-3.485 2,-1.422 3.87,-2.047 6.16,-2.047 5.12,0 8.15,3.875 8.15,10.438 0,5.922 -1.89,10.828 -8.5,10.828 -3.42,0 -6.95,-1.766 -6.95,-3.531 0,-0.407 0.34,-0.86 1.03,-1.266 1.77,-1.078 2.28,-1.812 2.28,-3.359 0,-2 -1.55,-3.532 -3.59,-3.532 -2.28,0 -4.11,2.11 -4.11,4.782 0,2.859 1.65,5.703 4.22,7.468 1.93,1.266 4.22,1.891 7.25,1.891 8.93,0 14.59,-5.25 14.59,-13.625 0,-7.75 -5.14,-12.937 -12.89,-12.937 -2.45,0 -4.22,0.39 -7.36,1.703 l 0.97,-9.688"
     id="path308" />
  <path
     class="Lyrics"
     fill="#ff0000"
     d="m 1882.611,203.30272 c 5.18,-1.875 7.59,-4.781 7.59,-9.343 0,-5.985 -4.56,-9.813 -11.64,-9.813 -6.67,0 -11.74,3.938 -11.74,9.125 0,2.344 1.54,4 3.77,4 1.98,0 3.36,-1.375 3.36,-3.422 0,-1.265 -0.45,-2 -1.77,-2.906 -0.57,-0.406 -0.75,-0.625 -0.75,-1.031 0,-1.594 3.32,-3.313 6.57,-3.313 4.11,0 6.26,2.578 6.26,7.422 0,5.297 -2.15,8.094 -6.22,8.094 -0.5,0 -1.47,-0.063 -2.33,-0.125 -0.45,-0.047 -0.9,-0.047 -1.25,-0.047 -1.2,0 -1.82,0.516 -1.82,1.531 0,0.969 0.56,1.438 1.82,1.438 0.35,0 0.8,0 1.32,-0.063 1.14,-0.062 2.04,-0.062 2.67,-0.062 4.22,0 6.5,3.031 6.5,8.672 0,5.921 -2.84,9.234 -7.99,9.234 -3.59,0 -7.46,-1.938 -7.46,-3.703 0,-0.516 0.12,-0.625 1.2,-1.266 1.59,-0.969 2.22,-1.937 2.22,-3.359 0,-2.047 -1.53,-3.594 -3.6,-3.594 -2.45,0 -4.04,2 -4.04,5.016 0,5.531 5.08,9.359 12.37,9.359 8.27,0 13.63,-4.562 13.63,-11.578 0,-5.359 -2.74,-8.609 -8.67,-10.266"
     id="path310" />
  <path
     class="Lyrics"
     d="m 789.711,190.59972 c 3.08,0.735 4.62,0.969 6.9,0.969 4.85,0 8.38,-1.656 10.27,-4.844 0.63,-1.031 0.84,-1.594 0.84,-2.062 0,-0.344 -0.11,-0.516 -0.45,-0.516 -0.17,0 -0.39,0.063 -0.73,0.234 -2.8,1.204 -4.28,1.485 -7.6,1.485 -3.64,0 -5.92,-0.344 -11.732,-1.719 -0.234,4.797 -0.75,10.891 -1.546,17.969 -1.188,1.25 -1.594,1.984 -1.594,2.906 0,1.188 0.75,1.938 1.828,1.938 1.484,0 2.328,-1.204 2.562,-3.485 2.002,-1.422 3.872,-2.047 6.152,-2.047 5.13,0 8.16,3.875 8.16,10.438 0,5.922 -1.89,10.828 -8.5,10.828 -3.42,0 -6.952,-1.766 -6.952,-3.531 0,-0.407 0.344,-0.86 1.031,-1.266 1.761,-1.078 2.281,-1.812 2.281,-3.359 0,-2 -1.55,-3.532 -3.593,-3.532 -2.282,0 -4.11,2.11 -4.11,4.782 0,2.859 1.656,5.703 4.219,7.468 1.934,1.266 4.214,1.891 7.254,1.891 8.93,0 14.59,-5.25 14.59,-13.625 0,-7.75 -5.14,-12.937 -12.89,-12.937 -2.45,0 -4.22,0.39 -7.36,1.703 l 0.97,-9.688"
     id="path312" />
  <path
     class="Lyrics"
     d="m 1703.301,190.59972 c 3.08,0.735 4.63,0.969 6.91,0.969 4.84,0 8.37,-1.656 10.26,-4.844 0.63,-1.031 0.85,-1.594 0.85,-2.062 0,-0.344 -0.11,-0.516 -0.46,-0.516 -0.17,0 -0.39,0.063 -0.73,0.234 -2.8,1.204 -4.28,1.485 -7.59,1.485 -3.64,0 -5.93,-0.344 -11.74,-1.719 -0.23,4.797 -0.75,10.891 -1.54,17.969 -1.19,1.25 -1.6,1.984 -1.6,2.906 0,1.188 0.75,1.938 1.83,1.938 1.48,0 2.33,-1.204 2.56,-3.485 2,-1.422 3.88,-2.047 6.16,-2.047 5.12,0 8.15,3.875 8.15,10.438 0,5.922 -1.89,10.828 -8.5,10.828 -3.42,0 -6.95,-1.766 -6.95,-3.531 0,-0.407 0.35,-0.86 1.03,-1.266 1.77,-1.078 2.28,-1.812 2.28,-3.359 0,-2 -1.54,-3.532 -3.59,-3.532 -2.28,0 -4.11,2.11 -4.11,4.782 0,2.859 1.66,5.703 4.22,7.468 1.94,1.266 4.22,1.891 7.25,1.891 8.94,0 14.59,-5.25 14.59,-13.625 0,-7.75 -5.14,-12.937 -12.89,-12.937 -2.45,0 -4.22,0.39 -7.36,1.703 l 0.97,-9.688"
     id="path314" />
  <path
     class="Lyrics"
     d="m 939.981,184.14672 c -1.94,2.344 -7.19,4.109 -12.44,4.219 v 2.453 h 5.04 c 3.29,0.062 3.64,0.406 3.53,3.594 v 22.859 c 0,2.906 0,3.031 -0.35,3.531 -0.45,0.578 -1.54,0.813 -4.73,0.813 h -3.7 v 2.672 h 22.57 v -2.672 h -3.14 c -3.18,0 -4.28,-0.235 -4.73,-0.813 -0.39,-0.5 -0.39,-0.562 -0.39,-3.531 v -23.547 c 0,-3.187 0.11,-5.859 0.39,-9.578 h -2.05 m 29.83,0 c -7.98,0 -13.8,8.672 -13.8,20.641 0,11.75 5.64,20.359 13.35,20.359 7.98,0 13.56,-8.328 13.56,-20.187 0,-6.047 -1.25,-11.063 -3.64,-14.985 -2.22,-3.594 -5.88,-5.828 -9.47,-5.828 m -0.39,2.453 c 1.87,0 3.7,1.266 5.06,3.547 1.55,2.672 2.06,5.922 2.06,13.734 0,8.032 -0.4,11.797 -1.54,14.313 -1.31,2.781 -3.36,4.5 -5.53,4.5 -1.94,0 -3.71,-1.25 -5.07,-3.531 -1.61,-2.688 -2.06,-6.219 -2.06,-15.563 0,-6.672 0.41,-9.984 1.55,-12.484 1.31,-2.86 3.36,-4.516 5.53,-4.516"
     id="path316" />
  <path
     class="Lyrics"
     d="m 1951.861,190.59972 c 3.08,0.735 4.62,0.969 6.91,0.969 4.84,0 8.37,-1.656 10.26,-4.844 0.63,-1.031 0.84,-1.594 0.84,-2.062 0,-0.344 -0.1,-0.516 -0.45,-0.516 -0.17,0 -0.39,0.063 -0.73,0.234 -2.8,1.204 -4.28,1.485 -7.6,1.485 -3.64,0 -5.92,-0.344 -11.73,-1.719 -0.24,4.797 -0.75,10.891 -1.55,17.969 -1.19,1.25 -1.59,1.984 -1.59,2.906 0,1.188 0.75,1.938 1.83,1.938 1.48,0 2.32,-1.204 2.56,-3.485 2,-1.422 3.87,-2.047 6.16,-2.047 5.12,0 8.15,3.875 8.15,10.438 0,5.922 -1.89,10.828 -8.5,10.828 -3.42,0 -6.95,-1.766 -6.95,-3.531 0,-0.407 0.34,-0.86 1.03,-1.266 1.77,-1.078 2.28,-1.812 2.28,-3.359 0,-2 -1.55,-3.532 -3.59,-3.532 -2.28,0 -4.11,2.11 -4.11,4.782 0,2.859 1.65,5.703 4.22,7.468 1.93,1.266 4.22,1.891 7.25,1.891 8.93,0 14.59,-5.25 14.59,-13.625 0,-7.75 -5.14,-12.937 -12.89,-12.937 -2.45,0 -4.22,0.39 -7.36,1.703 l 0.97,-9.688"
     id="path318" />
  <path
     class="Lyrics"
     d="m 454.887,190.59972 c 3.079,0.735 4.625,0.969 6.907,0.969 4.843,0 8.375,-1.656 10.265,-4.844 0.625,-1.031 0.844,-1.594 0.844,-2.062 0,-0.344 -0.109,-0.516 -0.453,-0.516 -0.172,0 -0.391,0.063 -0.734,0.234 -2.797,1.204 -4.282,1.485 -7.594,1.485 -3.641,0 -5.922,-0.344 -11.735,-1.719 -0.234,4.797 -0.75,10.891 -1.546,17.969 -1.188,1.25 -1.594,1.984 -1.594,2.906 0,1.188 0.75,1.938 1.828,1.938 1.484,0 2.328,-1.204 2.562,-3.485 2,-1.422 3.875,-2.047 6.157,-2.047 5.125,0 8.156,3.875 8.156,10.438 0,5.922 -1.891,10.828 -8.5,10.828 -3.422,0 -6.953,-1.766 -6.953,-3.531 0,-0.407 0.344,-0.86 1.031,-1.266 1.766,-1.078 2.281,-1.812 2.281,-3.359 0,-2 -1.547,-3.532 -3.593,-3.532 -2.282,0 -4.11,2.11 -4.11,4.782 0,2.859 1.656,5.703 4.219,7.468 1.937,1.266 4.219,1.891 7.25,1.891 8.937,0 14.594,-5.25 14.594,-13.625 0,-7.75 -5.141,-12.937 -12.891,-12.937 -2.453,0 -4.219,0.39 -7.359,1.703 l 0.968,-9.688"
     id="path320" />
  <path
     class="Lyrics"
     fill="#ff0000"
     d="m 1999.211,205.80572 c 0.58,-7.14 0.86,-9.015 2.11,-11.922 1.66,-4.047 4.67,-6.39 8.27,-6.39 2,0 3.2,0.64 3.2,1.656 0,0.234 -0.06,0.406 -0.3,0.797 -0.56,1.094 -0.84,1.937 -0.84,2.734 0,1.891 1.47,3.313 3.47,3.313 2.22,0 3.76,-1.703 3.76,-4.11 0,-3.922 -3.93,-6.843 -9.34,-6.843 -11.86,0 -16.66,12.5 -16.66,22.578 0,11.172 5.47,18.422 13.91,18.422 7.64,0 13.12,-6.11 13.12,-13.625 0,-6.735 -4.79,-11.75 -11.29,-11.75 -3.88,0 -6.72,1.546 -9.41,5.14 m 7.81,-1.656 c 4.16,0 6.68,3.25 6.68,8.656 0,6.625 -2.63,10.781 -6.79,10.781 -5.07,0 -7.36,-5.64 -7.36,-9.984 0,-5.859 2.86,-9.453 7.47,-9.453"
     id="path322" />
  <path
     class="Lyrics"
     d="m 1211.391,206.70872 c 5.18,-1.875 7.59,-4.781 7.59,-9.344 0,-5.984 -4.56,-9.812 -11.64,-9.812 -6.67,0 -11.74,3.937 -11.74,9.125 0,2.343 1.54,4 3.77,4 1.98,0 3.36,-1.375 3.36,-3.422 0,-1.266 -0.45,-2 -1.77,-2.907 -0.57,-0.406 -0.75,-0.625 -0.75,-1.031 0,-1.594 3.32,-3.312 6.57,-3.312 4.11,0 6.26,2.578 6.26,7.422 0,5.296 -2.15,8.093 -6.22,8.093 -0.5,0 -1.47,-0.062 -2.33,-0.125 -0.45,-0.047 -0.9,-0.047 -1.25,-0.047 -1.2,0 -1.82,0.516 -1.82,1.532 0,0.968 0.56,1.437 1.82,1.437 0.35,0 0.8,0 1.32,-0.062 1.14,-0.063 2.04,-0.063 2.67,-0.063 4.22,0 6.5,3.031 6.5,8.672 0,5.922 -2.84,9.234 -7.99,9.234 -3.59,0 -7.46,-1.937 -7.46,-3.703 0,-0.515 0.12,-0.625 1.2,-1.265 1.59,-0.969 2.22,-1.938 2.22,-3.36 0,-2.047 -1.53,-3.593 -3.6,-3.593 -2.45,0 -4.04,2 -4.04,5.015 0,5.531 5.08,9.36 12.37,9.36 8.27,0 13.63,-4.563 13.63,-11.579 0,-5.359 -2.74,-8.609 -8.67,-10.265"
     id="path324" />
  <path
     class="Lyrics"
     d="m 1106.321,205.45872 c 4.22,-2.281 6.27,-5.125 6.27,-8.828 0,-5.25 -4.74,-9.078 -11.35,-9.078 -6.95,0 -12.03,4.562 -12.03,10.89 0,2.453 0.91,5.016 2.52,6.797 0.97,1.125 1.87,1.766 3.92,2.844 -4.67,1.828 -8.31,4.39 -8.31,10.031 0,3.141 1.53,6.219 3.92,7.984 2.23,1.594 5.31,2.454 8.95,2.454 4.22,0 7.75,-1.141 10.16,-3.204 2.39,-2.156 3.87,-5.64 3.87,-9.109 0,-3.25 -1.26,-6.156 -3.59,-8.219 -1.14,-1.015 -2.17,-1.593 -4.33,-2.562 m -6.11,-2.281 c -4.61,-1.657 -6.61,-3.813 -6.61,-7.125 0,-3.641 2.97,-6.047 7.47,-6.047 4.39,0 7.3,2.797 7.3,6.953 0,2.969 -1.14,4.906 -4.39,7.64 l -3.77,-1.421 m 3.32,7.921 c 4.32,1.547 6.15,3.766 6.15,7.532 0,4.562 -3.59,7.468 -9.19,7.468 -5.36,0 -8.43,-2.906 -8.43,-7.984 0,-4.281 1.78,-6.844 6.22,-8.891 l 5.25,1.875"
     id="path326" />
  <path
     class="Lyrics"
     d="m 517.815,203.98672 c 0.579,-7.141 0.86,-9.016 2.11,-11.922 1.656,-4.047 4.672,-6.39 8.265,-6.39 2,0 3.204,0.64 3.204,1.656 0,0.234 -0.063,0.406 -0.297,0.797 -0.563,1.093 -0.844,1.937 -0.844,2.734 0,1.891 1.469,3.313 3.469,3.313 2.218,0 3.765,-1.704 3.765,-4.11 0,-3.922 -3.937,-6.844 -9.343,-6.844 -11.86,0 -16.657,12.5 -16.657,22.579 0,11.171 5.469,18.421 13.907,18.421 7.64,0 13.125,-6.109 13.125,-13.625 0,-6.734 -4.797,-11.75 -11.297,-11.75 -3.875,0 -6.719,1.547 -9.407,5.141 m 7.813,-1.656 c 4.156,0 6.672,3.25 6.672,8.656 0,6.625 -2.625,10.781 -6.781,10.781 -5.079,0 -7.36,-5.64 -7.36,-9.984 0,-5.859 2.86,-9.453 7.469,-9.453"
     id="path328" />
  <path
     class="Lyrics"
     fill="#00aa00"
     d="m 1368.551,189.78872 c 3.08,0.735 4.62,0.969 6.9,0.969 4.85,0 8.38,-1.656 10.27,-4.844 0.62,-1.031 0.84,-1.594 0.84,-2.062 0,-0.344 -0.11,-0.516 -0.45,-0.516 -0.17,0 -0.39,0.063 -0.73,0.234 -2.8,1.204 -4.29,1.485 -7.6,1.485 -3.64,0 -5.92,-0.344 -11.73,-1.719 -0.24,4.797 -0.75,10.891 -1.55,17.969 -1.19,1.25 -1.59,1.984 -1.59,2.906 0,1.188 0.75,1.938 1.82,1.938 1.49,0 2.33,-1.204 2.57,-3.485 2,-1.422 3.87,-2.047 6.15,-2.047 5.13,0 8.16,3.875 8.16,10.438 0,5.922 -1.89,10.828 -8.5,10.828 -3.42,0 -6.95,-1.766 -6.95,-3.531 0,-0.407 0.34,-0.86 1.03,-1.266 1.76,-1.078 2.28,-1.812 2.28,-3.359 0,-2 -1.55,-3.532 -3.59,-3.532 -2.29,0 -4.11,2.11 -4.11,4.782 0,2.859 1.65,5.703 4.21,7.468 1.94,1.266 4.22,1.891 7.25,1.891 8.94,0 14.6,-5.25 14.6,-13.625 0,-7.75 -5.14,-12.937 -12.89,-12.937 -2.46,0 -4.22,0.39 -7.36,1.703 l 0.97,-9.688"
     id="path330" />
  <path
     class="NoteDot"
     d="m 1647.1623,72.672717 c 0,-2.774857 -2.1858,-4.96063 -4.9607,-4.96063 -2.7748,0 -4.9606,2.185773 -4.9606,4.96063 0,2.774857 2.1858,4.96063 4.9606,4.96063 2.7749,0 4.9607,-2.185773 4.9607,-4.96063"
     id="path332"
     style="stroke-width:0.992126" />
  <path
     class="NoteDot"
     d="m 1917.0323,382.71272 c 0,-2.77486 -2.1858,-4.96063 -4.9607,-4.96063 -2.7748,0 -4.9606,2.18577 -4.9606,4.96063 0,2.77485 2.1858,4.96063 4.9606,4.96063 2.7749,0 4.9607,-2.18578 4.9607,-4.96063"
     id="path334"
     style="stroke-width:0.992126" />
  <path
     class="NoteDot"
     d="m 914.14226,432.31872 c 0,-2.77486 -2.18577,-4.96063 -4.96063,-4.96063 -2.77485,0 -4.96063,2.18577 -4.96063,4.96063 0,2.77485 2.18578,4.96063 4.96063,4.96063 2.77486,0 4.96063,-2.18578 4.96063,-4.96063"
     id="path336"
     style="stroke-width:0.992126" />
  <path
     class="NoteDot"
     d="m 2089.5623,407.51572 c 0,-2.77486 -2.1858,-4.96063 -4.9607,-4.96063 -2.7748,0 -4.9606,2.18577 -4.9606,4.96063 0,2.77485 2.1858,4.96063 4.9606,4.96063 2.7749,0 4.9607,-2.18578 4.9607,-4.96063"
     id="path338"
     style="stroke-width:0.992126" />
  <path
     class="NoteDot"
     d="m 1245.8123,382.71272 c 0,-2.77486 -2.1858,-4.96063 -4.9607,-4.96063 -2.7748,0 -4.9606,2.18577 -4.9606,4.96063 0,2.77485 2.1858,4.96063 4.9606,4.96063 2.7749,0 4.9607,-2.18578 4.9607,-4.96063"
     id="path340"
     style="stroke-width:0.992126" />
  <polyline
     class="Bracket"
     fill="none"
     stroke="#000000"
     stroke-width="12.4"
     stroke-linejoin="bevel"
     points="302.705,372.118 302.705,1017"
     id="polyline342"
     transform="translate(-211.429,-349.05128)" />
  <path
     class="Bracket"
     d="M 85.075,29.267717 H 97.476575 C 113.35059,26.291339 127.53492,18.943356 131.50342,2.3717764 131.61196,1.984252 131.61196,1.6896898 131.61196,1.3796504 131.61196,0.58902521 131.3174,0.20150079 130.82133,0 129.92217,0 128.83708,0.69756379 128.34102,1.3796504 127.34889,2.480315 114.83878,15.579454 95.895424,16.959104 H 85.8656 c -0.589074,0 -0.7906,0.108539 -0.7906,0.697663 v 11.61095"
     id="path344"
     style="stroke-width:0.992126" />
  <path
     class="Bracket"
     d="m 85.075,673.35967 c 0,0.58912 0.201526,0.69766 0.7906,0.69766 h 10.029824 c 18.943356,1.37965 31.453466,14.47879 32.445596,15.57945 0.49606,0.68209 1.58115,1.37965 2.48031,1.37965 0.49607,-0.2015 0.79063,-0.58902 0.79063,-1.37965 0,-0.31004 0,-0.6046 -0.10854,-0.99212 -3.9685,-16.57158 -18.15283,-23.91957 -34.026845,-26.89594 H 85.075 v 11.61095"
     id="path346"
     style="stroke-width:0.992126" />
</svg>
