<?xml version="1.0" encoding="UTF-8" standalone="no"?>
<svg
   width="2554.196"
   height="691.01642"
   viewBox="0 0 2554.196 691.01646"
   version="1.2"
   id="svg260"
   sodipodi:docname="Abb-02-2.svg"
   inkscape:version="1.2.1 (9c6d41e410, 2022-07-14)"
   xmlns:inkscape="http://www.inkscape.org/namespaces/inkscape"
   xmlns:sodipodi="http://sodipodi.sourceforge.net/DTD/sodipodi-0.dtd"
   xmlns="http://www.w3.org/2000/svg"
   xmlns:svg="http://www.w3.org/2000/svg">
  <defs
     id="defs264" />
  <sodipodi:namedview
     id="namedview262"
     pagecolor="#505050"
     bordercolor="#eeeeee"
     borderopacity="1"
     inkscape:showpageshadow="0"
     inkscape:pageopacity="0"
     inkscape:pagecheckerboard="0"
     inkscape:deskcolor="#505050"
     showgrid="false"
     inkscape:zoom="0.25017761"
     inkscape:cx="899.36106"
     inkscape:cy="1744.7605"
     inkscape:current-layer="svg260" />
  <title
     id="title2">Abb-02 (2)</title>
  <desc
     id="desc4">Generated by MuseScore 4.0.0</desc>
  <rect
     style="fill:#ffffff;stroke:#003a66;stroke-width:2"
     id="rect599"
     width="2646.1201"
     height="759.46045"
     x="-31.977282"
     y="-27.980122" />
  <polyline
     class="StaffLines"
     fill="none"
     stroke="#000000"
     stroke-width="3.22"
     stroke-linejoin="bevel"
     points="320.067,384.52 2765.62,384.52"
     id="polyline8"
     transform="translate(-211.429,-349.05128)" />
  <polyline
     class="StaffLines"
     fill="none"
     stroke="#000000"
     stroke-width="3.22"
     stroke-linejoin="bevel"
     points="320.067,409.323 2765.62,409.323"
     id="polyline10"
     transform="translate(-211.429,-349.05128)" />
  <polyline
     class="StaffLines"
     fill="none"
     stroke="#000000"
     stroke-width="3.22"
     stroke-linejoin="bevel"
     points="320.067,434.126 2765.62,434.126"
     id="polyline12"
     transform="translate(-211.429,-349.05128)" />
  <polyline
     class="StaffLines"
     fill="none"
     stroke="#000000"
     stroke-width="3.22"
     stroke-linejoin="bevel"
     points="320.067,458.929 2765.62,458.929"
     id="polyline14"
     transform="translate(-211.429,-349.05128)" />
  <polyline
     class="StaffLines"
     fill="none"
     stroke="#000000"
     stroke-width="3.22"
     stroke-linejoin="bevel"
     points="320.067,483.732 2765.62,483.732"
     id="polyline16"
     transform="translate(-211.429,-349.05128)" />
  <polyline
     class="StaffLines"
     fill="none"
     stroke="#000000"
     stroke-width="3.22"
     stroke-linejoin="bevel"
     points="320.067,644.953 2765.62,644.953"
     id="polyline18"
     transform="translate(-211.429,-349.05128)" />
  <polyline
     class="StaffLines"
     fill="none"
     stroke="#000000"
     stroke-width="3.22"
     stroke-linejoin="bevel"
     points="320.067,669.756 2765.62,669.756"
     id="polyline20"
     transform="translate(-211.429,-349.05128)" />
  <polyline
     class="StaffLines"
     fill="none"
     stroke="#000000"
     stroke-width="3.22"
     stroke-linejoin="bevel"
     points="320.067,694.559 2765.62,694.559"
     id="polyline22"
     transform="translate(-211.429,-349.05128)" />
  <polyline
     class="StaffLines"
     fill="none"
     stroke="#000000"
     stroke-width="3.22"
     stroke-linejoin="bevel"
     points="320.067,719.362 2765.62,719.362"
     id="polyline24"
     transform="translate(-211.429,-349.05128)" />
  <polyline
     class="StaffLines"
     fill="none"
     stroke="#000000"
     stroke-width="3.22"
     stroke-linejoin="bevel"
     points="320.067,744.165 2765.62,744.165"
     id="polyline26"
     transform="translate(-211.429,-349.05128)" />
  <polyline
     class="StaffLines"
     fill="none"
     stroke="#000000"
     stroke-width="3.22"
     stroke-linejoin="bevel"
     points="320.067,905.386 2765.62,905.386"
     id="polyline28"
     transform="translate(-211.429,-349.05128)" />
  <polyline
     class="StaffLines"
     fill="none"
     stroke="#000000"
     stroke-width="3.22"
     stroke-linejoin="bevel"
     points="320.067,930.189 2765.62,930.189"
     id="polyline30"
     transform="translate(-211.429,-349.05128)" />
  <polyline
     class="StaffLines"
     fill="none"
     stroke="#000000"
     stroke-width="3.22"
     stroke-linejoin="bevel"
     points="320.067,954.992 2765.62,954.992"
     id="polyline32"
     transform="translate(-211.429,-349.05128)" />
  <polyline
     class="StaffLines"
     fill="none"
     stroke="#000000"
     stroke-width="3.22"
     stroke-linejoin="bevel"
     points="320.067,979.795 2765.62,979.795"
     id="polyline34"
     transform="translate(-211.429,-349.05128)" />
  <polyline
     class="StaffLines"
     fill="none"
     stroke="#000000"
     stroke-width="3.22"
     stroke-linejoin="bevel"
     points="320.067,1004.6 2765.62,1004.6"
     id="polyline36"
     transform="translate(-211.429,-349.05128)" />
  <path
     class="InstrumentName"
     d="M 38.687,63.621717 H 36.5 l -2.359,3.531 c -2.829,-2.656 -6.547,-4.062 -10.735,-4.062 -7.797,0 -12.922,4.89 -12.922,12.328 0,6.437 3.188,9.625 11.86,11.859 l 5.609,1.422 c 4.359,1.125 4.766,1.234 6.016,2.172 1.765,1.359 2.718,3.312 2.718,5.609 0,2.36 -0.89,4.313003 -2.656,5.969003 -1.953,1.641 -3.906,2.297 -7.14,2.297 -8.922,0 -13.344,-6.547003 -14.875,-14.516003 H 9.484 l 0.235,16.813003 h 2.297 l 2.656,-4.016 c 3.953,3.25 7.203,4.438 12.39,4.438 8.672,0 14.219,-5.078 14.219,-12.985003 0,-3.718 -1.172,-6.781 -3.547,-9.031 -1.578,-1.531 -3.89,-2.531 -8.609,-3.719 l -6.313,-1.593 c -5.25,-1.36 -7.734,-3.657 -7.734,-7.25 0,-4.141 3.375,-6.969 8.391,-6.969 7.609,0 11.797,6.312 13.39,13.047 h 2.532 l -0.704,-15.344 m 12.86,36.406003 c -2.063,0 -3.719,1.656 -3.719,3.656 0,2.063 1.656,3.719 3.672,3.719 2.062,0 3.703,-1.656 3.703,-3.719 0,-2 -1.641,-3.656 -3.656,-3.656"
     id="path38" />
  <path
     class="InstrumentName"
     d="m 22.766,323.58572 h -2.469 l -13.578,34.391 c -1.594,4.609 -3.125,6.016 -6.485,6.266 H 0 v 2.765 h 15.641 v -2.765 h -1.188 c -3.187,0 -4.781,-1.125 -4.781,-3.375 0,-0.766 0.172,-1.469 0.531,-2.469 l 1.953,-5.203 h 15.625 l 3.188,7.906 c 0.359,0.953 0.484,1.297 0.484,1.594 0,0.953 -1.484,1.547 -3.672,1.547 h -2.469 v 2.765 h 18.297 v -2.765 h -0.828 c -3.078,-0.063 -3.609,-0.422 -4.969,-3.782 l -15.046,-36.875 m -2.891,9.672 6.672,16.75 H 13.328 l 6.547,-16.75 m 32.672,27.203 c -2.063,0 -3.719,1.657 -3.719,3.657 0,2.062 1.656,3.718 3.672,3.718 2.062,0 3.703,-1.656 3.703,-3.718 0,-2 -1.641,-3.657 -3.656,-3.657"
     id="path40" />
  <path
     class="InstrumentName"
     d="m 2.234,584.33172 v 2.781 h 1.063 c 3.375,0.063 4.484,0.234 4.953,0.828 0.359,0.531 0.359,0.641 0.359,3.656 v 28.094 c 0,3 0,3.125 -0.359,3.656 -0.469,0.579 -1.578,0.829 -4.953,0.829 H 2.234 v 2.765 h 21.422 c 10.203,0 16.344,-4.312 16.344,-11.562 0,-5.907 -3.719,-9.266 -11.797,-10.688 2.828,-0.578 4.125,-1.109 5.656,-2.234 2.422,-1.828 3.907,-4.719 3.907,-7.672 0,-3.844 -2.36,-7.547 -5.782,-9.031 -2.125,-0.938 -5.078,-1.422 -8.562,-1.422 H 2.234 m 12.985,19.187 v -13.453 c 0,-2.312 0.765,-2.89 3.89,-2.953 h 2.36 c 5.781,0 9.453,1.891 9.453,8.313 0,5.843 -2.844,8.093 -10.453,8.093 h -5.25 m 0,2.766 h 5.187 c 9.031,0 12.344,2.422 12.344,8.922 0,7.906 -4.969,8.969 -11.625,8.969 h -2.484 c -2.954,0 -3.532,-0.594 -3.422,-3.719 v -14.172 m 36.328,14.109 c -2.063,0 -3.719,1.657 -3.719,3.657 0,2.062 1.656,3.718 3.672,3.718 2.062,0 3.703,-1.656 3.703,-3.718 0,-2 -1.641,-3.657 -3.656,-3.657"
     id="path42" />
  <path
     class="TieSegment"
     stroke="#000000"
     stroke-width="2.48"
     stroke-linecap="round"
     stroke-linejoin="round"
     fill-rule="evenodd"
     d="m 1273.831,46.238717 c 33.54,-28.465 134.15,-28.465 167.69,0 -33.54,-22.512 -134.15,-22.512 -167.69,0"
     id="path44" />
  <path
     class="TieSegment"
     stroke="#000000"
     stroke-width="2.48"
     stroke-linecap="round"
     stroke-linejoin="round"
     fill-rule="evenodd"
     d="m 962.261,41.006717 c 24.36,-21.489 97.44,-21.489 121.8,0 -24.36,-15.536 -97.44,-15.536 -121.8,0"
     id="path46" />
  <path
     class="TieSegment"
     stroke="#000000"
     stroke-width="2.48"
     stroke-linecap="round"
     stroke-linejoin="round"
     fill-rule="evenodd"
     d="m 2116.231,129.14272 c 24.36,15.537 97.44,15.537 121.8,0 -24.36,21.489 -97.44,21.489 -121.8,0"
     id="path48" />
  <path
     class="TieSegment"
     stroke="#000000"
     stroke-width="2.48"
     stroke-linecap="round"
     stroke-linejoin="round"
     fill-rule="evenodd"
     d="m 1273.831,537.85672 c 33.54,-28.466 134.15,-28.466 167.69,0 -33.54,-22.513 -134.15,-22.513 -167.69,0"
     id="path50" />
  <path
     class="TieSegment"
     stroke="#000000"
     stroke-width="2.48"
     stroke-linecap="round"
     stroke-linejoin="round"
     fill-rule="evenodd"
     d="m 962.261,525.45472 c 24.36,-21.489 97.44,-21.489 121.8,0 -24.36,-15.537 -97.44,-15.537 -121.8,0"
     id="path52" />
  <polyline
     class="BarLine"
     stroke="#000000"
     stroke-width="3.97"
     stroke-linejoin="bevel"
     points="322.051,382.908 322.051,644.953"
     id="polyline54"
     transform="translate(-211.429,-349.05128)" />
  <polyline
     class="BarLine"
     stroke="#000000"
     stroke-width="3.97"
     stroke-linejoin="bevel"
     points="2002.83,382.908 2002.83,485.345"
     id="polyline56"
     transform="translate(-211.429,-349.05128)" />
  <polyline
     class="BarLine"
     stroke="#000000"
     stroke-width="3.97"
     stroke-linejoin="bevel"
     points="2406.18,382.908 2406.18,485.345"
     id="polyline58"
     transform="translate(-211.429,-349.05128)" />
  <polyline
     class="BarLine"
     stroke="#000000"
     stroke-width="3.97"
     stroke-linejoin="bevel"
     points="2763.64,382.908 2763.64,485.345"
     id="polyline60"
     transform="translate(-211.429,-349.05128)" />
  <polyline
     class="BarLine"
     stroke="#000000"
     stroke-width="3.97"
     stroke-linejoin="bevel"
     points="1248.04,382.908 1248.04,485.345"
     id="polyline62"
     transform="translate(-211.429,-349.05128)" />
  <polyline
     class="BarLine"
     stroke="#000000"
     stroke-width="3.97"
     stroke-linejoin="bevel"
     points="1605.5,382.908 1605.5,485.345"
     id="polyline64"
     transform="translate(-211.429,-349.05128)" />
  <polyline
     class="BarLine"
     stroke="#000000"
     stroke-width="3.97"
     stroke-linejoin="bevel"
     points="844.692,382.908 844.692,485.345"
     id="polyline66"
     transform="translate(-211.429,-349.05128)" />
  <polyline
     class="BarLine"
     stroke="#000000"
     stroke-width="3.97"
     stroke-linejoin="bevel"
     points="1605.5,643.341 1605.5,745.778"
     id="polyline68"
     transform="translate(-211.429,-349.05128)" />
  <polyline
     class="BarLine"
     stroke="#000000"
     stroke-width="3.97"
     stroke-linejoin="bevel"
     points="322.051,643.341 322.051,905.386"
     id="polyline70"
     transform="translate(-211.429,-349.05128)" />
  <polyline
     class="BarLine"
     stroke="#000000"
     stroke-width="3.97"
     stroke-linejoin="bevel"
     points="2763.64,643.341 2763.64,745.778"
     id="polyline72"
     transform="translate(-211.429,-349.05128)" />
  <polyline
     class="BarLine"
     stroke="#000000"
     stroke-width="3.97"
     stroke-linejoin="bevel"
     points="2002.83,643.341 2002.83,745.778"
     id="polyline74"
     transform="translate(-211.429,-349.05128)" />
  <polyline
     class="BarLine"
     stroke="#000000"
     stroke-width="3.97"
     stroke-linejoin="bevel"
     points="1248.04,643.341 1248.04,745.778"
     id="polyline76"
     transform="translate(-211.429,-349.05128)" />
  <polyline
     class="BarLine"
     stroke="#000000"
     stroke-width="3.97"
     stroke-linejoin="bevel"
     points="2406.18,643.341 2406.18,745.778"
     id="polyline78"
     transform="translate(-211.429,-349.05128)" />
  <polyline
     class="BarLine"
     stroke="#000000"
     stroke-width="3.97"
     stroke-linejoin="bevel"
     points="844.692,643.341 844.692,745.778"
     id="polyline80"
     transform="translate(-211.429,-349.05128)" />
  <polyline
     class="BarLine"
     stroke="#000000"
     stroke-width="3.97"
     stroke-linejoin="bevel"
     points="1248.04,903.774 1248.04,1006.21"
     id="polyline82"
     transform="translate(-211.429,-349.05128)" />
  <polyline
     class="BarLine"
     stroke="#000000"
     stroke-width="3.97"
     stroke-linejoin="bevel"
     points="322.051,903.774 322.051,1006.21"
     id="polyline84"
     transform="translate(-211.429,-349.05128)" />
  <polyline
     class="BarLine"
     stroke="#000000"
     stroke-width="3.97"
     stroke-linejoin="bevel"
     points="1605.5,903.774 1605.5,1006.21"
     id="polyline86"
     transform="translate(-211.429,-349.05128)" />
  <polyline
     class="BarLine"
     stroke="#000000"
     stroke-width="3.97"
     stroke-linejoin="bevel"
     points="2002.83,903.774 2002.83,1006.21"
     id="polyline88"
     transform="translate(-211.429,-349.05128)" />
  <polyline
     class="BarLine"
     stroke="#000000"
     stroke-width="3.97"
     stroke-linejoin="bevel"
     points="2406.18,903.774 2406.18,1006.21"
     id="polyline90"
     transform="translate(-211.429,-349.05128)" />
  <polyline
     class="BarLine"
     stroke="#000000"
     stroke-width="3.97"
     stroke-linejoin="bevel"
     points="2763.64,903.774 2763.64,1006.21"
     id="polyline92"
     transform="translate(-211.429,-349.05128)" />
  <polyline
     class="BarLine"
     stroke="#000000"
     stroke-width="3.97"
     stroke-linejoin="bevel"
     points="844.692,903.774 844.692,1006.21"
     id="polyline94"
     transform="translate(-211.429,-349.05128)" />
  <polyline
     class="Stem"
     stroke="#000000"
     stroke-width="2.98"
     stroke-linejoin="bevel"
     points="2222.11,438.293 2222.11,508.536"
     id="polyline96"
     transform="translate(-211.429,-349.05128)" />
  <polyline
     class="Stem"
     stroke="#000000"
     stroke-width="2.98"
     stroke-linejoin="bevel"
     points="2130.33,425.891 2130.33,502.335"
     id="polyline98"
     transform="translate(-211.429,-349.05128)" />
  <polyline
     class="Stem"
     stroke="#000000"
     stroke-width="2.98"
     stroke-linejoin="bevel"
     points="2068.21,442.361 2068.21,365.917"
     id="polyline100"
     transform="translate(-211.429,-349.05128)" />
  <polyline
     class="Stem"
     stroke="#000000"
     stroke-width="2.98"
     stroke-linejoin="bevel"
     points="1001.86,442.361 1001.86,365.917"
     id="polyline102"
     transform="translate(-211.429,-349.05128)" />
  <polyline
     class="Stem"
     stroke="#000000"
     stroke-width="2.98"
     stroke-linejoin="bevel"
     points="752.411,425.891 752.411,502.335"
     id="polyline104"
     transform="translate(-211.429,-349.05128)" />
  <polyline
     class="Stem"
     stroke="#000000"
     stroke-width="2.98"
     stroke-linejoin="bevel"
     points="2471.56,442.361 2471.56,365.917"
     id="polyline106"
     transform="translate(-211.429,-349.05128)" />
  <polyline
     class="Stem"
     stroke="#000000"
     stroke-width="2.98"
     stroke-linejoin="bevel"
     points="2563.34,454.762 2563.34,372.118"
     id="polyline108"
     transform="translate(-211.429,-349.05128)" />
  <polyline
     class="Stem"
     stroke="#000000"
     stroke-width="2.98"
     stroke-linejoin="bevel"
     points="880.408,438.293 880.408,508.536"
     id="polyline110"
     transform="translate(-211.429,-349.05128)" />
  <polyline
     class="Stem"
     stroke="#000000"
     stroke-width="2.98"
     stroke-linejoin="bevel"
     points="1093.64,454.762 1093.64,372.118"
     id="polyline112"
     transform="translate(-211.429,-349.05128)" />
  <polyline
     class="Stem"
     stroke="#000000"
     stroke-width="2.98"
     stroke-linejoin="bevel"
     points="1940.21,454.762 1940.21,372.118"
     id="polyline114"
     transform="translate(-211.429,-349.05128)" />
  <polyline
     class="Stem"
     stroke="#000000"
     stroke-width="2.98"
     stroke-linejoin="bevel"
     points="1155.76,413.49 1155.76,496.134"
     id="polyline116"
     transform="translate(-211.429,-349.05128)" />
  <polyline
     class="Stem"
     stroke="#000000"
     stroke-width="2.98"
     stroke-linejoin="bevel"
     points="1283.76,413.49 1283.76,496.134"
     id="polyline118"
     transform="translate(-211.429,-349.05128)" />
  <polyline
     class="Stem"
     stroke="#000000"
     stroke-width="2.98"
     stroke-linejoin="bevel"
     points="1641.22,425.891 1641.22,502.335"
     id="polyline120"
     transform="translate(-211.429,-349.05128)" />
  <polyline
     class="Stem"
     stroke="#000000"
     stroke-width="2.98"
     stroke-linejoin="bevel"
     points="1879.02,442.361 1879.02,365.917"
     id="polyline122"
     transform="translate(-211.429,-349.05128)" />
  <polyline
     class="Stem"
     stroke="#000000"
     stroke-width="2.98"
     stroke-linejoin="bevel"
     points="1405.21,442.361 1405.21,365.917"
     id="polyline124"
     transform="translate(-211.429,-349.05128)" />
  <polyline
     class="Stem"
     stroke="#000000"
     stroke-width="2.98"
     stroke-linejoin="bevel"
     points="1733,438.293 1733,508.536"
     id="polyline126"
     transform="translate(-211.429,-349.05128)" />
  <polyline
     class="Stem"
     stroke="#000000"
     stroke-width="2.98"
     stroke-linejoin="bevel"
     points="2343.56,442.361 2343.56,365.917"
     id="polyline128"
     transform="translate(-211.429,-349.05128)" />
  <polyline
     class="Stem"
     stroke="#000000"
     stroke-width="2.98"
     stroke-linejoin="bevel"
     points="1063.98,946.758 1063.98,1023.2"
     id="polyline130"
     transform="translate(-211.429,-349.05128)" />
  <polyline
     class="Stem"
     stroke="#000000"
     stroke-width="2.98"
     stroke-linejoin="bevel"
     points="1155.76,897.151 1155.76,979.795"
     id="polyline132"
     transform="translate(-211.429,-349.05128)" />
  <polyline
     class="Stem"
     stroke="#000000"
     stroke-width="2.98"
     stroke-linejoin="bevel"
     points="1849.36,934.356 1849.36,1017"
     id="polyline134"
     transform="translate(-211.429,-349.05128)" />
  <polyline
     class="Stem"
     stroke="#000000"
     stroke-width="2.98"
     stroke-linejoin="bevel"
     points="1283.76,897.151 1283.76,979.795"
     id="polyline136"
     transform="translate(-211.429,-349.05128)" />
  <polyline
     class="Stem"
     stroke="#000000"
     stroke-width="2.98"
     stroke-linejoin="bevel"
     points="1733,921.954 1733,1004.6"
     id="polyline138"
     transform="translate(-211.429,-349.05128)" />
  <polyline
     class="Stem"
     stroke="#000000"
     stroke-width="2.98"
     stroke-linejoin="bevel"
     points="2130.33,909.553 2130.33,992.197"
     id="polyline140"
     transform="translate(-211.429,-349.05128)" />
  <polyline
     class="Stem"
     stroke="#000000"
     stroke-width="2.98"
     stroke-linejoin="bevel"
     points="1910.55,946.758 1910.55,1023.2"
     id="polyline142"
     transform="translate(-211.429,-349.05128)" />
  <polyline
     class="Stem"
     stroke="#000000"
     stroke-width="2.98"
     stroke-linejoin="bevel"
     points="2222.11,921.954 2222.11,1004.6"
     id="polyline144"
     transform="translate(-211.429,-349.05128)" />
  <polyline
     class="Stem"
     stroke="#000000"
     stroke-width="2.98"
     stroke-linejoin="bevel"
     points="1375.54,934.356 1375.54,1017"
     id="polyline146"
     transform="translate(-211.429,-349.05128)" />
  <polyline
     class="Stem"
     stroke="#000000"
     stroke-width="2.98"
     stroke-linejoin="bevel"
     points="972.193,934.356 972.193,1017"
     id="polyline148"
     transform="translate(-211.429,-349.05128)" />
  <polyline
     class="Stem"
     stroke="#000000"
     stroke-width="2.98"
     stroke-linejoin="bevel"
     points="2313.9,934.356 2313.9,1017"
     id="polyline150"
     transform="translate(-211.429,-349.05128)" />
  <polyline
     class="Stem"
     stroke="#000000"
     stroke-width="2.98"
     stroke-linejoin="bevel"
     points="752.411,909.553 752.411,992.197"
     id="polyline152"
     transform="translate(-211.429,-349.05128)" />
  <polyline
     class="Stem"
     stroke="#000000"
     stroke-width="2.98"
     stroke-linejoin="bevel"
     points="1641.22,909.553 1641.22,992.197"
     id="polyline154"
     transform="translate(-211.429,-349.05128)" />
  <polyline
     class="Stem"
     stroke="#000000"
     stroke-width="2.98"
     stroke-linejoin="bevel"
     points="880.408,921.954 880.408,1004.6"
     id="polyline156"
     transform="translate(-211.429,-349.05128)" />
  <polyline
     class="Stem"
     stroke="#000000"
     stroke-width="2.98"
     stroke-linejoin="bevel"
     points="2038.54,934.356 2038.54,1017"
     id="polyline158"
     transform="translate(-211.429,-349.05128)" />
  <path
     class="Note"
     d="m 769.98789,111.36648 c 18.26126,0 21.93531,-14.881889 21.93531,-18.447342 0,-5.658243 -4.46457,-9.332185 -10.91339,-9.332185 -16.57165,0 -21.73381,12.804626 -21.73381,18.555857 0,5.84429 4.6661,9.22367 10.71189,9.22367 m 8.43307,-8.83612 c -4.96063,3.37943 -8.43307,4.57308 -10.8049,4.57308 -2.29429,0 -3.67396,-1.19365 -4.37156,-2.58883 -0.40305,-0.58907 -0.69758,-1.37967 -0.69758,-2.17027 0,-5.363686 15.98257,-14.199808 21.23767,-14.199808 2.07731,0 3.27094,0.992126 4.06156,2.387303 0.31004,0.589075 0.6046,1.286658 0.6046,2.077264 0,2.185772 -2.27881,4.867618 -10.02979,9.921261"
     id="path160"
     style="stroke-width:0.992126" />
  <path
     class="Note"
     d="m 861.77289,123.76748 c 18.26126,0 21.93531,-14.88189 21.93531,-18.44734 0,-5.658245 -4.46457,-9.332187 -10.91339,-9.332187 -16.57165,0 -21.73381,12.804627 -21.73381,18.555857 0,5.84429 4.6661,9.22367 10.71189,9.22367 m 8.43307,-8.83612 c -4.96063,3.37943 -8.43307,4.57308 -10.8049,4.57308 -2.29429,0 -3.67396,-1.19365 -4.37156,-2.58883 -0.40305,-0.58907 -0.69758,-1.37967 -0.69758,-2.17027 0,-5.36369 15.98257,-14.19981 21.23767,-14.19981 2.07731,0 3.27094,0.99213 4.06156,2.3873 0.31004,0.58908 0.6046,1.28666 0.6046,2.07727 0,2.18577 -2.27881,4.86762 -10.02979,9.92126"
     id="path162"
     style="stroke-width:0.992126" />
  <path
     class="Note"
     d="m 953.55289,74.161481 c 18.26126,0 21.93531,-14.88189 21.93531,-18.447343 0,-5.658243 -4.46457,-9.332185 -10.91339,-9.332185 -16.57165,0 -21.73381,12.804626 -21.73381,18.555862 0,5.844286 4.6661,9.223666 10.71189,9.223666 m 8.43307,-8.836122 c -4.96063,3.379429 -8.43307,4.573086 -10.8049,4.573086 -2.29429,0 -3.67396,-1.193657 -4.37156,-2.588834 -0.40305,-0.589075 -0.69758,-1.37967 -0.69758,-2.170276 0,-5.363681 15.98257,-14.199803 21.23767,-14.199803 2.07731,0 3.27094,0.992126 4.06156,2.387303 0.31004,0.589075 0.6046,1.286658 0.6046,2.077264 0,2.185772 -2.27881,4.867618 -10.02979,9.92126"
     id="path164"
     style="stroke-width:0.992126" />
  <path
     class="Note"
     d="m 1173.3429,111.36648 c 18.2613,0 21.9353,-14.881889 21.9353,-18.447342 0,-5.658243 -4.4646,-9.332185 -10.9134,-9.332185 -16.5716,0 -21.7338,12.804626 -21.7338,18.555857 0,5.84429 4.6661,9.22367 10.7119,9.22367 m 8.4331,-8.83612 c -4.9607,3.37943 -8.4331,4.57308 -10.8049,4.57308 -2.2943,0 -3.674,-1.19365 -4.3716,-2.58883 -0.403,-0.58907 -0.6976,-1.37967 -0.6976,-2.17027 0,-5.363686 15.9826,-14.199808 21.2377,-14.199808 2.0773,0 3.2709,0.992126 4.0616,2.387303 0.31,0.589075 0.6046,1.286658 0.6046,2.077264 0,2.185772 -2.2789,4.867618 -10.0298,9.921261"
     id="path166"
     style="stroke-width:0.992126" />
  <path
     class="Note"
     d="m 1271.276,59.077515 c -14.3859,0 -23.315,6.061245 -23.315,13.393676 0,7.23942 6.1543,13.688288 22.2299,13.688288 17.6566,0 23.3149,-6.138829 23.3149,-13.688288 0,-7.64247 -12.2,-13.393676 -22.2298,-13.393676 m -2.7749,2.480315 c 7.348,0 13.3007,7.936978 13.3007,14.494316 0,5.456693 -3.3795,7.627018 -8.247,7.627018 -7.1464,0 -13.9829,-8.23159 -13.9829,-15.176482 0,-5.549704 3.8601,-6.944852 8.9292,-6.944852"
     id="path168"
     style="stroke-width:0.992126" />
  <path
     class="Note"
     d="m 2239.6929,111.36648 c 18.2613,0 21.9353,-14.881889 21.9353,-18.447342 0,-5.658243 -4.4646,-9.332185 -10.9134,-9.332185 -16.5716,0 -21.7338,12.804626 -21.7338,18.555857 0,5.84429 4.6661,9.22367 10.7119,9.22367 m 8.4331,-8.83612 c -4.9607,3.37943 -8.4331,4.57308 -10.8049,4.57308 -2.2943,0 -3.674,-1.19365 -4.3716,-2.58883 -0.403,-0.58907 -0.6976,-1.37967 -0.6976,-2.17027 0,-5.363686 15.9826,-14.199808 21.2377,-14.199808 2.0773,0 3.2709,0.992126 4.0616,2.387303 0.31,0.589075 0.6046,1.286658 0.6046,2.077264 0,2.185772 -2.2789,4.867618 -10.0298,9.921261"
     id="path170"
     style="stroke-width:0.992126" />
  <path
     class="Note"
     d="m 1081.5529,74.161481 c 18.2613,0 21.9353,-14.88189 21.9353,-18.447343 0,-5.658243 -4.4646,-9.332185 -10.9134,-9.332185 -16.5716,0 -21.7338,12.804626 -21.7338,18.555862 0,5.844286 4.6661,9.223666 10.7119,9.223666 m 8.4331,-8.836122 c -4.9607,3.379429 -8.4331,4.573086 -10.8049,4.573086 -2.2943,0 -3.674,-1.193657 -4.3716,-2.588834 -0.403,-0.589075 -0.6976,-1.37967 -0.6976,-2.170276 0,-5.363681 15.9826,-14.199803 21.2377,-14.199803 2.0773,0 3.2709,0.992126 4.0616,2.387303 0.31,0.589075 0.6046,1.286658 0.6046,2.077264 0,2.185772 -2.2789,4.867618 -10.0298,9.92126"
     id="path172"
     style="stroke-width:0.992126" />
  <path
     class="Note"
     d="m 2331.4729,123.76748 c 18.2613,0 21.9353,-14.88189 21.9353,-18.44734 0,-5.658245 -4.4646,-9.332187 -10.9134,-9.332187 -16.5716,0 -21.7338,12.804627 -21.7338,18.555857 0,5.84429 4.6661,9.22367 10.7119,9.22367 m 8.4331,-8.83612 c -4.9607,3.37943 -8.4331,4.57308 -10.8049,4.57308 -2.2943,0 -3.674,-1.19365 -4.3716,-2.58883 -0.403,-0.58907 -0.6976,-1.37967 -0.6976,-2.17027 0,-5.36369 15.9826,-14.19981 21.2377,-14.19981 2.0773,0 3.2709,0.99213 4.0616,2.3873 0.31,0.58908 0.6046,1.28666 0.6046,2.07727 0,2.18577 -2.2789,4.86762 -10.0298,9.92126"
     id="path174"
     style="stroke-width:0.992126" />
  <path
     class="Note"
     d="m 2429.416,83.881515 c -14.3859,0 -23.315,6.061245 -23.315,13.393676 0,7.239419 6.1543,13.688289 22.2299,13.688289 17.6566,0 23.3149,-6.13883 23.3149,-13.688289 0,-7.64247 -12.2,-13.393676 -22.2298,-13.393676 m -2.7749,2.480315 c 7.348,0 13.3007,7.936978 13.3007,14.49432 0,5.45669 -3.3795,7.62701 -8.247,7.62701 -7.1464,0 -13.9829,-8.23159 -13.9829,-15.176478 0,-5.549704 3.8601,-6.944852 8.9292,-6.944852"
     id="path176"
     style="stroke-width:0.992126" />
  <path
     class="Note"
     d="m 1439.0129,86.562481 c 18.2613,0 21.9353,-14.88189 21.9353,-18.447343 0,-5.658243 -4.4646,-9.332185 -10.9134,-9.332185 -16.5716,0 -21.7338,12.804626 -21.7338,18.555862 0,5.844286 4.6661,9.223666 10.7119,9.223666 m 8.4331,-8.836122 c -4.9607,3.379429 -8.4331,4.573086 -10.8049,4.573086 -2.2943,0 -3.674,-1.193657 -4.3716,-2.588834 -0.403,-0.589075 -0.6976,-1.37967 -0.6976,-2.170276 0,-5.363681 15.9826,-14.199803 21.2377,-14.199803 2.0773,0 3.2709,0.992126 4.0616,2.387303 0.31,0.589075 0.6046,1.286658 0.6046,2.077264 0,2.185772 -2.2789,4.867618 -10.0298,9.92126"
     id="path178"
     style="stroke-width:0.992126" />
  <path
     class="Note"
     d="m 1530.8029,98.964481 c 18.2613,0 21.9353,-14.88189 21.9353,-18.447343 0,-5.658243 -4.4646,-9.332185 -10.9134,-9.332185 -16.5716,0 -21.7338,12.804626 -21.7338,18.555862 0,5.844286 4.6661,9.223666 10.7119,9.223666 m 8.4331,-8.836122 c -4.9607,3.379429 -8.4331,4.573086 -10.8049,4.573086 -2.2943,0 -3.674,-1.193657 -4.3716,-2.588834 -0.403,-0.589075 -0.6976,-1.37967 -0.6976,-2.170276 0,-5.363681 15.9826,-14.199803 21.2377,-14.199803 2.0773,0 3.2709,0.992126 4.0616,2.387303 0.31,0.589075 0.6046,1.286658 0.6046,2.077264 0,2.185772 -2.2789,4.867618 -10.0298,9.92126"
     id="path180"
     style="stroke-width:0.992126" />
  <path
     class="Note"
     d="m 1647.1529,111.36648 c 9.8282,0 21.9353,-9.13065 21.9353,-18.555861 0,-5.549724 -4.4646,-9.223666 -10.8204,-9.223666 -12.1071,0 -21.8268,9.022146 -21.8268,18.555857 0,5.75123 4.7591,9.22367 10.7119,9.22367"
     id="path182"
     style="stroke-width:0.992126" />
  <path
     class="Note"
     d="m 1708.3429,123.76748 c 18.2613,0 21.9353,-14.88189 21.9353,-18.44734 0,-5.658245 -4.4646,-9.332187 -10.9134,-9.332187 -16.5716,0 -21.7338,12.804627 -21.7338,18.555857 0,5.84429 4.6661,9.22367 10.7119,9.22367 m 8.4331,-8.83612 c -4.9607,3.37943 -8.4331,4.57308 -10.8049,4.57308 -2.2943,0 -3.674,-1.19365 -4.3716,-2.58883 -0.403,-0.58907 -0.6976,-1.37967 -0.6976,-2.17027 0,-5.36369 15.9826,-14.19981 21.2377,-14.19981 2.0773,0 3.2709,0.99213 4.0616,2.3873 0.31,0.58908 0.6046,1.28666 0.6046,2.07727 0,2.18577 -2.2789,4.86762 -10.0298,9.92126"
     id="path184"
     style="stroke-width:0.992126" />
  <path
     class="Note"
     d="m 1836.3429,111.36648 c 18.2613,0 21.9353,-14.881889 21.9353,-18.447342 0,-5.658243 -4.4646,-9.332185 -10.9134,-9.332185 -16.5716,0 -21.7338,12.804626 -21.7338,18.555857 0,5.84429 4.6661,9.22367 10.7119,9.22367 m 8.4331,-8.83612 c -4.9607,3.37943 -8.4331,4.57308 -10.8049,4.57308 -2.2943,0 -3.674,-1.19365 -4.3716,-2.58883 -0.403,-0.58907 -0.6976,-1.37967 -0.6976,-2.17027 0,-5.363686 15.9826,-14.199808 21.2377,-14.199808 2.0773,0 3.2709,0.992126 4.0616,2.387303 0.31,0.589075 0.6046,1.286658 0.6046,2.077264 0,2.185772 -2.2789,4.867618 -10.0298,9.921261"
     id="path186"
     style="stroke-width:0.992126" />
  <path
     class="Note"
     d="m 1928.1229,86.562481 c 18.2613,0 21.9353,-14.88189 21.9353,-18.447343 0,-5.658243 -4.4646,-9.332185 -10.9134,-9.332185 -16.5716,0 -21.7338,12.804626 -21.7338,18.555862 0,5.844286 4.6661,9.223666 10.7119,9.223666 m 8.4331,-8.836122 c -4.9607,3.379429 -8.4331,4.573086 -10.8049,4.573086 -2.2943,0 -3.674,-1.193657 -4.3716,-2.588834 -0.403,-0.589075 -0.6976,-1.37967 -0.6976,-2.170276 0,-5.363681 15.9826,-14.199803 21.2377,-14.199803 2.0773,0 3.2709,0.992126 4.0616,2.387303 0.31,0.589075 0.6046,1.286658 0.6046,2.077264 0,2.185772 -2.2789,4.867618 -10.0298,9.92126"
     id="path188"
     style="stroke-width:0.992126" />
  <path
     class="Note"
     d="m 2019.9129,98.964481 c 18.2613,0 21.9353,-14.88189 21.9353,-18.447343 0,-5.658243 -4.4646,-9.332185 -10.9134,-9.332185 -16.5716,0 -21.7338,12.804626 -21.7338,18.555862 0,5.844286 4.6661,9.223666 10.7119,9.223666 m 8.4331,-8.836122 c -4.9607,3.379429 -8.4331,4.573086 -10.8049,4.573086 -2.2943,0 -3.674,-1.193657 -4.3716,-2.588834 -0.403,-0.589075 -0.6976,-1.37967 -0.6976,-2.170276 0,-5.363681 15.9826,-14.199803 21.2377,-14.199803 2.0773,0 3.2709,0.992126 4.0616,2.387303 0.31,0.589075 0.6046,1.286658 0.6046,2.077264 0,2.185772 -2.2789,4.867618 -10.0298,9.92126"
     id="path190"
     style="stroke-width:0.992126" />
  <path
     class="Note"
     d="m 2111.6929,111.36648 c 18.2613,0 21.9353,-14.881889 21.9353,-18.447342 0,-5.658243 -4.4646,-9.332185 -10.9134,-9.332185 -16.5716,0 -21.7338,12.804626 -21.7338,18.555857 0,5.84429 4.6661,9.22367 10.7119,9.22367 m 8.4331,-8.83612 c -4.9607,3.37943 -8.4331,4.57308 -10.8049,4.57308 -2.2943,0 -3.674,-1.19365 -4.3716,-2.58883 -0.403,-0.58907 -0.6976,-1.37967 -0.6976,-2.17027 0,-5.363686 15.9826,-14.199808 21.2377,-14.199808 2.0773,0 3.2709,0.992126 4.0616,2.387303 0.31,0.589075 0.6046,1.286658 0.6046,2.077264 0,2.185772 -2.2789,4.867618 -10.0298,9.921261"
     id="path192"
     style="stroke-width:0.992126" />
  <path
     class="Note"
     d="m 418.68296,46.676515 c -14.38583,0 -23.31496,6.061245 -23.31496,13.393676 0,7.23942 6.15429,13.688288 22.22987,13.688288 17.65667,0 23.31496,-6.138829 23.31496,-13.688288 0,-7.64247 -12.20007,-13.393676 -22.22987,-13.393676 m -2.77488,2.480315 c 7.34799,0 13.30074,7.936978 13.30074,14.494316 0,5.456693 -3.37948,7.627018 -8.24704,7.627018 -7.14639,0 -13.98283,-8.23159 -13.98283,-15.176482 0,-5.549704 3.86006,-6.944852 8.92913,-6.944852"
     id="path194"
     style="stroke-width:0.992126" />
  <path
     class="Note"
     d="m 550.20589,86.562481 c 18.26126,0 21.93531,-14.88189 21.93531,-18.447343 0,-5.658243 -4.46457,-9.332185 -10.91339,-9.332185 -16.57165,0 -21.73381,12.804626 -21.73381,18.555862 0,5.844286 4.6661,9.223666 10.71189,9.223666 m 8.43307,-8.836122 c -4.96063,3.379429 -8.43307,4.573086 -10.8049,4.573086 -2.29429,0 -3.67396,-1.193657 -4.37156,-2.588834 -0.40305,-0.589075 -0.69758,-1.37967 -0.69758,-2.170276 0,-5.363681 15.98257,-14.199803 21.23767,-14.199803 2.07731,0 3.27094,0.992126 4.06156,2.387303 0.31004,0.589075 0.6046,1.286658 0.6046,2.077264 0,2.185772 -2.27881,4.867618 -10.02979,9.92126"
     id="path196"
     style="stroke-width:0.992126" />
  <path
     class="Note"
     d="m 678.20289,98.964481 c 18.26126,0 21.93531,-14.88189 21.93531,-18.447343 0,-5.658243 -4.46457,-9.332185 -10.91339,-9.332185 -16.57165,0 -21.73381,12.804626 -21.73381,18.555862 0,5.844286 4.6661,9.223666 10.71189,9.223666 m 8.43307,-8.836122 c -4.96063,3.379429 -8.43307,4.573086 -10.8049,4.573086 -2.29429,0 -3.67396,-1.193657 -4.37156,-2.588834 -0.40305,-0.589075 -0.69758,-1.37967 -0.69758,-2.170276 0,-5.363681 15.98257,-14.199803 21.23767,-14.199803 2.07731,0 3.27094,0.992126 4.06156,2.387303 0.31004,0.589075 0.6046,1.286658 0.6046,2.077264 0,2.185772 -2.27881,4.867618 -10.02979,9.92126"
     id="path198"
     style="stroke-width:0.992126" />
  <path
     class="Note"
     d="m 1928.1229,570.22448 c 18.2613,0 21.9353,-14.88189 21.9353,-18.44734 0,-5.65825 -4.4646,-9.33219 -10.9134,-9.33219 -16.5716,0 -21.7338,12.80463 -21.7338,18.55586 0,5.84429 4.6661,9.22367 10.7119,9.22367 m 8.4331,-8.83612 c -4.9607,3.37943 -8.4331,4.57308 -10.8049,4.57308 -2.2943,0 -3.674,-1.19365 -4.3716,-2.58883 -0.403,-0.58907 -0.6976,-1.37967 -0.6976,-2.17027 0,-5.36369 15.9826,-14.19981 21.2377,-14.19981 2.0773,0 3.2709,0.99213 4.0616,2.3873 0.31,0.58908 0.6046,1.28666 0.6046,2.07727 0,2.18577 -2.2789,4.86762 -10.0298,9.92126"
     id="path200"
     style="stroke-width:0.992126" />
  <path
     class="Note"
     d="m 418.68296,530.33752 c -14.38583,0 -23.31496,6.06124 -23.31496,13.39367 0,7.23942 6.15429,13.68829 22.22987,13.68829 17.65667,0 23.31496,-6.13883 23.31496,-13.68829 0,-7.64247 -12.20007,-13.39367 -22.22987,-13.39367 m -2.77488,2.48031 c 7.34799,0 13.30074,7.93698 13.30074,14.49432 0,5.45669 -3.37948,7.62701 -8.24704,7.62701 -7.14639,0 -13.98283,-8.23159 -13.98283,-15.17648 0,-5.5497 3.86006,-6.94485 8.92913,-6.94485"
     id="path202"
     style="stroke-width:0.992126" />
  <path
     class="Note"
     d="m 2019.9129,582.62548 c 18.2613,0 21.9353,-14.88189 21.9353,-18.44734 0,-5.65825 -4.4646,-9.33219 -10.9134,-9.33219 -16.5716,0 -21.7338,12.80463 -21.7338,18.55586 0,5.84429 4.6661,9.22367 10.7119,9.22367 m 8.4331,-8.83612 c -4.9607,3.37943 -8.4331,4.57308 -10.8049,4.57308 -2.2943,0 -3.674,-1.19365 -4.3716,-2.58883 -0.403,-0.58907 -0.6976,-1.37967 -0.6976,-2.17027 0,-5.36369 15.9826,-14.19981 21.2377,-14.19981 2.0773,0 3.2709,0.99213 4.0616,2.38731 0.31,0.58907 0.6046,1.28665 0.6046,2.07726 0,2.18577 -2.2789,4.86762 -10.0298,9.92126"
     id="path204"
     style="stroke-width:0.992126" />
  <path
     class="Note"
     d="m 1081.5529,557.82248 c 18.2613,0 21.9353,-14.88189 21.9353,-18.44734 0,-5.65825 -4.4646,-9.33219 -10.9134,-9.33219 -16.5716,0 -21.7338,12.80463 -21.7338,18.55586 0,5.84429 4.6661,9.22367 10.7119,9.22367 m 8.4331,-8.83612 c -4.9607,3.37943 -8.4331,4.57308 -10.8049,4.57308 -2.2943,0 -3.674,-1.19365 -4.3716,-2.58883 -0.403,-0.58907 -0.6976,-1.37967 -0.6976,-2.17027 0,-5.36369 15.9826,-14.19981 21.2377,-14.19981 2.0773,0 3.2709,0.99213 4.0616,2.38731 0.31,0.58907 0.6046,1.28665 0.6046,2.07726 0,2.18577 -2.2789,4.86762 -10.0298,9.92126"
     id="path206"
     style="stroke-width:0.992126" />
  <path
     class="Note"
     d="m 1530.8029,582.62548 c 18.2613,0 21.9353,-14.88189 21.9353,-18.44734 0,-5.65825 -4.4646,-9.33219 -10.9134,-9.33219 -16.5716,0 -21.7338,12.80463 -21.7338,18.55586 0,5.84429 4.6661,9.22367 10.7119,9.22367 m 8.4331,-8.83612 c -4.9607,3.37943 -8.4331,4.57308 -10.8049,4.57308 -2.2943,0 -3.674,-1.19365 -4.3716,-2.58883 -0.403,-0.58907 -0.6976,-1.37967 -0.6976,-2.17027 0,-5.36369 15.9826,-14.19981 21.2377,-14.19981 2.0773,0 3.2709,0.99213 4.0616,2.38731 0.31,0.58907 0.6046,1.28665 0.6046,2.07726 0,2.18577 -2.2789,4.86762 -10.0298,9.92126"
     id="path208"
     style="stroke-width:0.992126" />
  <path
     class="Note"
     d="m 2111.6929,595.02748 c 18.2613,0 21.9353,-14.88189 21.9353,-18.44734 0,-5.65825 -4.4646,-9.33219 -10.9134,-9.33219 -16.5716,0 -21.7338,12.80463 -21.7338,18.55586 0,5.84429 4.6661,9.22367 10.7119,9.22367 m 8.4331,-8.83612 c -4.9607,3.37943 -8.4331,4.57308 -10.8049,4.57308 -2.2943,0 -3.674,-1.19365 -4.3716,-2.58883 -0.403,-0.58907 -0.6976,-1.37967 -0.6976,-2.17027 0,-5.36369 15.9826,-14.19981 21.2377,-14.19981 2.0773,0 3.2709,0.99213 4.0616,2.3873 0.31,0.58908 0.6046,1.28666 0.6046,2.07727 0,2.18577 -2.2789,4.86762 -10.0298,9.92126"
     id="path210"
     style="stroke-width:0.992126" />
  <path
     class="Note"
     d="m 1708.3429,607.42948 c 18.2613,0 21.9353,-14.88189 21.9353,-18.44734 0,-5.65825 -4.4646,-9.33219 -10.9134,-9.33219 -16.5716,0 -21.7338,12.80463 -21.7338,18.55586 0,5.84429 4.6661,9.22367 10.7119,9.22367 m 8.4331,-8.83612 c -4.9607,3.37943 -8.4331,4.57308 -10.8049,4.57308 -2.2943,0 -3.674,-1.19365 -4.3716,-2.58883 -0.403,-0.58907 -0.6976,-1.37967 -0.6976,-2.17027 0,-5.36369 15.9826,-14.19981 21.2377,-14.19981 2.0773,0 3.2709,0.99213 4.0616,2.3873 0.31,0.58908 0.6046,1.28666 0.6046,2.07727 0,2.18577 -2.2789,4.86762 -10.0298,9.92126"
     id="path212"
     style="stroke-width:0.992126" />
  <path
     class="Note"
     d="m 769.98789,595.02748 c 18.26126,0 21.93531,-14.88189 21.93531,-18.44734 0,-5.65825 -4.46457,-9.33219 -10.91339,-9.33219 -16.57165,0 -21.73381,12.80463 -21.73381,18.55586 0,5.84429 4.6661,9.22367 10.71189,9.22367 m 8.43307,-8.83612 c -4.96063,3.37943 -8.43307,4.57308 -10.8049,4.57308 -2.29429,0 -3.67396,-1.19365 -4.37156,-2.58883 -0.40305,-0.58907 -0.69758,-1.37967 -0.69758,-2.17027 0,-5.36369 15.98257,-14.19981 21.23767,-14.19981 2.07731,0 3.27094,0.99213 4.06156,2.3873 0.31004,0.58908 0.6046,1.28666 0.6046,2.07727 0,2.18577 -2.27881,4.86762 -10.02979,9.92126"
     id="path214"
     style="stroke-width:0.992126" />
  <path
     class="Note"
     d="m 1271.276,542.73952 c -14.3859,0 -23.315,6.06124 -23.315,13.39367 0,7.23942 6.1543,13.68829 22.2299,13.68829 17.6566,0 23.3149,-6.13883 23.3149,-13.68829 0,-7.64247 -12.2,-13.39367 -22.2298,-13.39367 m -2.7749,2.48031 c 7.348,0 13.3007,7.93698 13.3007,14.49432 0,5.45669 -3.3795,7.62701 -8.247,7.62701 -7.1464,0 -13.9829,-8.23159 -13.9829,-15.17648 0,-5.5497 3.8601,-6.94485 8.9292,-6.94485"
     id="path216"
     style="stroke-width:0.992126" />
  <path
     class="Note"
     d="m 953.55289,557.82248 c 18.26126,0 21.93531,-14.88189 21.93531,-18.44734 0,-5.65825 -4.46457,-9.33219 -10.91339,-9.33219 -16.57165,0 -21.73381,12.80463 -21.73381,18.55586 0,5.84429 4.6661,9.22367 10.71189,9.22367 m 8.43307,-8.83612 c -4.96063,3.37943 -8.43307,4.57308 -10.8049,4.57308 -2.29429,0 -3.67396,-1.19365 -4.37156,-2.58883 -0.40305,-0.58907 -0.69758,-1.37967 -0.69758,-2.17027 0,-5.36369 15.98257,-14.19981 21.23767,-14.19981 2.07731,0 3.27094,0.99213 4.06156,2.38731 0.31004,0.58907 0.6046,1.28665 0.6046,2.07726 0,2.18577 -2.27881,4.86762 -10.02979,9.92126"
     id="path218"
     style="stroke-width:0.992126" />
  <path
     class="Note"
     d="m 1647.1529,595.02748 c 9.8282,0 21.9353,-9.13065 21.9353,-18.55586 0,-5.54973 -4.4646,-9.22367 -10.8204,-9.22367 -12.1071,0 -21.8268,9.02215 -21.8268,18.55586 0,5.75123 4.7591,9.22367 10.7119,9.22367"
     id="path220"
     style="stroke-width:0.992126" />
  <path
     class="Note"
     d="m 861.77289,607.42948 c 18.26126,0 21.93531,-14.88189 21.93531,-18.44734 0,-5.65825 -4.46457,-9.33219 -10.91339,-9.33219 -16.57165,0 -21.73381,12.80463 -21.73381,18.55586 0,5.84429 4.6661,9.22367 10.71189,9.22367 m 8.43307,-8.83612 c -4.96063,3.37943 -8.43307,4.57308 -10.8049,4.57308 -2.29429,0 -3.67396,-1.19365 -4.37156,-2.58883 -0.40305,-0.58907 -0.69758,-1.37967 -0.69758,-2.17027 0,-5.36369 15.98257,-14.19981 21.23767,-14.19981 2.07731,0 3.27094,0.99213 4.06156,2.3873 0.31004,0.58908 0.6046,1.28666 0.6046,2.07727 0,2.18577 -2.27881,4.86762 -10.02979,9.92126"
     id="path222"
     style="stroke-width:0.992126" />
  <path
     class="Note"
     d="m 1439.0129,570.22448 c 18.2613,0 21.9353,-14.88189 21.9353,-18.44734 0,-5.65825 -4.4646,-9.33219 -10.9134,-9.33219 -16.5716,0 -21.7338,12.80463 -21.7338,18.55586 0,5.84429 4.6661,9.22367 10.7119,9.22367 m 8.4331,-8.83612 c -4.9607,3.37943 -8.4331,4.57308 -10.8049,4.57308 -2.2943,0 -3.674,-1.19365 -4.3716,-2.58883 -0.403,-0.58907 -0.6976,-1.37967 -0.6976,-2.17027 0,-5.36369 15.9826,-14.19981 21.2377,-14.19981 2.0773,0 3.2709,0.99213 4.0616,2.3873 0.31,0.58908 0.6046,1.28666 0.6046,2.07727 0,2.18577 -2.2789,4.86762 -10.0298,9.92126"
     id="path224"
     style="stroke-width:0.992126" />
  <path
     class="Note"
     d="m 678.20289,582.62548 c 18.26126,0 21.93531,-14.88189 21.93531,-18.44734 0,-5.65825 -4.46457,-9.33219 -10.91339,-9.33219 -16.57165,0 -21.73381,12.80463 -21.73381,18.55586 0,5.84429 4.6661,9.22367 10.71189,9.22367 m 8.43307,-8.83612 c -4.96063,3.37943 -8.43307,4.57308 -10.8049,4.57308 -2.29429,0 -3.67396,-1.19365 -4.37156,-2.58883 -0.40305,-0.58907 -0.69758,-1.37967 -0.69758,-2.17027 0,-5.36369 15.98257,-14.19981 21.23767,-14.19981 2.07731,0 3.27094,0.99213 4.06156,2.38731 0.31004,0.58907 0.6046,1.28665 0.6046,2.07726 0,2.18577 -2.27881,4.86762 -10.02979,9.92126"
     id="path226"
     style="stroke-width:0.992126" />
  <path
     class="Note"
     d="m 550.20589,570.22448 c 18.26126,0 21.93531,-14.88189 21.93531,-18.44734 0,-5.65825 -4.46457,-9.33219 -10.91339,-9.33219 -16.57165,0 -21.73381,12.80463 -21.73381,18.55586 0,5.84429 4.6661,9.22367 10.71189,9.22367 m 8.43307,-8.83612 c -4.96063,3.37943 -8.43307,4.57308 -10.8049,4.57308 -2.29429,0 -3.67396,-1.19365 -4.37156,-2.58883 -0.40305,-0.58907 -0.69758,-1.37967 -0.69758,-2.17027 0,-5.36369 15.98257,-14.19981 21.23767,-14.19981 2.07731,0 3.27094,0.99213 4.06156,2.3873 0.31004,0.58908 0.6046,1.28666 0.6046,2.07727 0,2.18577 -2.27881,4.86762 -10.02979,9.92126"
     id="path228"
     style="stroke-width:0.992126" />
  <path
     class="Note"
     d="m 1173.3429,595.02748 c 18.2613,0 21.9353,-14.88189 21.9353,-18.44734 0,-5.65825 -4.4646,-9.33219 -10.9134,-9.33219 -16.5716,0 -21.7338,12.80463 -21.7338,18.55586 0,5.84429 4.6661,9.22367 10.7119,9.22367 m 8.4331,-8.83612 c -4.9607,3.37943 -8.4331,4.57308 -10.8049,4.57308 -2.2943,0 -3.674,-1.19365 -4.3716,-2.58883 -0.403,-0.58907 -0.6976,-1.37967 -0.6976,-2.17027 0,-5.36369 15.9826,-14.19981 21.2377,-14.19981 2.0773,0 3.2709,0.99213 4.0616,2.3873 0.31,0.58908 0.6046,1.28666 0.6046,2.07727 0,2.18577 -2.2789,4.86762 -10.0298,9.92126"
     id="path230"
     style="stroke-width:0.992126" />
  <path
     class="Note"
     d="m 1836.3429,595.02748 c 18.2613,0 21.9353,-14.88189 21.9353,-18.44734 0,-5.65825 -4.4646,-9.33219 -10.9134,-9.33219 -16.5716,0 -21.7338,12.80463 -21.7338,18.55586 0,5.84429 4.6661,9.22367 10.7119,9.22367 m 8.4331,-8.83612 c -4.9607,3.37943 -8.4331,4.57308 -10.8049,4.57308 -2.2943,0 -3.674,-1.19365 -4.3716,-2.58883 -0.403,-0.58907 -0.6976,-1.37967 -0.6976,-2.17027 0,-5.36369 15.9826,-14.19981 21.2377,-14.19981 2.0773,0 3.2709,0.99213 4.0616,2.3873 0.31,0.58908 0.6046,1.28666 0.6046,2.07727 0,2.18577 -2.2789,4.86762 -10.0298,9.92126"
     id="path232"
     style="stroke-width:0.992126" />
  <path
     class="Clef"
     d="m 170.25826,68.704488 c -0.2015,-1.193627 0,-1.286688 0.58903,-1.89129 10.71188,-10.014222 18.85039,-22.617298 18.85039,-37.79375 0,-8.634572 -2.38725,-17.176181 -6.44882,-23.1294334 -1.48819,-2.1697796 -4.06146,-4.96063004 -5.16213,-4.96063004 -1.37965,0 -4.46456,2.58944884 -6.44882,4.77510244 -7.3324,8.123032 -9.71976,20.524607 -9.71976,30.848868 0,5.751255 0.69767,12.200074 1.39523,16.277117 0.18603,1.193627 0.29456,1.37965 -0.89916,2.371776 -14.29277,11.81255 -29.46922,25.996777 -29.46922,46.040872 0,17.2692 11.81255,33.63925 36.11964,33.63925 2.27871,0 4.85209,-0.2015 6.83634,-0.6045 1.10066,-0.18603 1.30217,-0.29457 1.48819,0.89906 1.19363,6.65032 2.68181,15.28499 2.68181,19.95106 0,14.68039 -9.92125,16.46304 -15.76547,16.46304 -5.36373,0 -7.95249,-1.58115 -7.95249,-2.88332 0,-0.68208 0.89907,-0.99212 3.17788,-1.67421 3.08492,-0.89916 6.65032,-3.58098 6.65032,-9.33223 0,-5.4567 -3.47244,-10.12277 -9.51816,-10.12277 -6.65042,0 -10.61892,5.2552 -10.61892,11.40945 0,6.44882 3.86006,16.16858 18.85039,16.16858 6.65042,0 19.54806,-2.97638 19.54806,-19.84252 0,-5.64271 -1.78275,-15.06791 -2.88342,-21.22217 -0.2015,-1.19372 -0.093,-1.10066 1.28669,-1.68979 10.0298,-3.9685 16.68012,-12.40157 16.68012,-23.60947 0,-12.711665 -9.33223,-23.919514 -23.91956,-23.919514 -2.57328,0 -2.57328,0 -2.86784,-1.782751 l -2.48032,-14.385827 m 9.31666,-52.396654 c 3.27094,0 5.95276,2.681815 5.95276,8.138508 0,11.021925 -9.4252,19.951059 -17.25367,26.787402 -0.69756,0.604602 -1.10066,0.496063 -1.30216,-0.790625 -0.38753,-2.573277 -0.58913,-5.952756 -0.58913,-9.130635 0,-15.470915 7.14648,-25.00465 13.1922,-25.00465 M 168.77007,83.88094 c 0.29457,1.891191 0.29457,1.782652 -1.48818,2.387254 -8.74311,2.976378 -14.40131,10.804847 -14.40131,19.237966 0,8.92914 4.66607,15.28494 11.42493,17.56376 0.79062,0.29456 1.98425,0.6046 2.66634,0.6046 0.8061,0 1.19362,-0.49606 1.19362,-1.10067 0,-0.69756 -0.79062,-0.99212 -1.48819,-1.28668 -4.17,-1.78273 -7.14638,-6.04577 -7.14638,-10.61885 0,-5.65822 3.87544,-9.92127 9.92126,-11.611027 1.59673,-0.387524 1.79823,-0.294463 1.98425,0.806103 l 4.96063,29.562274 c 0.2015,1.08519 0.10854,1.08519 -1.37965,1.37975 -1.59672,0.31004 -3.58098,0.49607 -5.56523,0.49607 -17.3622,0 -28.57015,-9.61122 -28.57015,-23.40803 0,-5.85974 0.99212,-13.688258 9.22369,-23.020394 5.95276,-6.650419 10.52587,-10.324361 15.19193,-14.091364 0.99213,-0.790526 1.17815,-0.697564 1.37965,0.403101 l 2.09279,12.696137 m 6.83635,15.780955 c -0.2015,-1.193627 -0.093,-1.488189 1.10066,-1.395128 8.02997,0.697564 14.68039,7.440913 14.68039,16.168533 0,6.26284 -3.767,11.31643 -9.33223,14.09131 -1.19363,0.6046 -1.37965,0.6046 -1.58115,-0.58912 l -4.86767,-28.275595"
     id="path234"
     style="stroke-width:0.992126" />
  <path
     class="Clef"
     d="m 170.25826,329.13749 c -0.2015,-1.19363 0,-1.28669 0.58903,-1.89129 10.71188,-10.01422 18.85039,-22.6173 18.85039,-37.79375 0,-8.63457 -2.38725,-17.17618 -6.44882,-23.12944 -1.48819,-2.16978 -4.06146,-4.96063 -5.16213,-4.96063 -1.37965,0 -4.46456,2.58945 -6.44882,4.77511 -7.3324,8.12303 -9.71976,20.5246 -9.71976,30.84887 0,5.75125 0.69767,12.20007 1.39523,16.27711 0.18603,1.19363 0.29456,1.37965 -0.89916,2.37178 -14.29277,11.81255 -29.46922,25.99678 -29.46922,46.04087 0,17.2692 11.81255,33.63925 36.11964,33.63925 2.27871,0 4.85209,-0.2015 6.83634,-0.6045 1.10066,-0.18603 1.30217,-0.29457 1.48819,0.89906 1.19363,6.65032 2.68181,15.28499 2.68181,19.95106 0,14.68039 -9.92125,16.46304 -15.76547,16.46304 -5.36373,0 -7.95249,-1.58115 -7.95249,-2.88332 0,-0.68208 0.89907,-0.99212 3.17788,-1.67421 3.08492,-0.89916 6.65032,-3.58098 6.65032,-9.33223 0,-5.4567 -3.47244,-10.12277 -9.51816,-10.12277 -6.65042,0 -10.61892,5.2552 -10.61892,11.40945 0,6.44882 3.86006,16.16858 18.85039,16.16858 6.65042,0 19.54806,-2.97638 19.54806,-19.84252 0,-5.64271 -1.78275,-15.06791 -2.88342,-21.22217 -0.2015,-1.19372 -0.093,-1.10066 1.28669,-1.68979 10.0298,-3.9685 16.68012,-12.40157 16.68012,-23.60947 0,-12.71166 -9.33223,-23.91951 -23.91956,-23.91951 -2.57328,0 -2.57328,0 -2.86784,-1.78276 l -2.48032,-14.38582 m 9.31666,-52.39666 c 3.27094,0 5.95276,2.68182 5.95276,8.13851 0,11.02193 -9.4252,19.95106 -17.25367,26.7874 -0.69756,0.60461 -1.10066,0.49607 -1.30216,-0.79062 -0.38753,-2.57328 -0.58913,-5.95276 -0.58913,-9.13064 0,-15.47091 7.14648,-25.00465 13.1922,-25.00465 m -10.80485,67.57311 c 0.29457,1.89119 0.29457,1.78265 -1.48818,2.38725 -8.74311,2.97638 -14.40131,10.80485 -14.40131,19.23797 0,8.92914 4.66607,15.28494 11.42493,17.56376 0.79062,0.29456 1.98425,0.6046 2.66634,0.6046 0.8061,0 1.19362,-0.49606 1.19362,-1.10067 0,-0.69756 -0.79062,-0.99212 -1.48819,-1.28668 -4.17,-1.78273 -7.14638,-6.04577 -7.14638,-10.61885 0,-5.65822 3.87544,-9.92127 9.92126,-11.61103 1.59673,-0.38752 1.79823,-0.29446 1.98425,0.80611 l 4.96063,29.56227 c 0.2015,1.08519 0.10854,1.08519 -1.37965,1.37975 -1.59672,0.31004 -3.58098,0.49607 -5.56523,0.49607 -17.3622,0 -28.57015,-9.61122 -28.57015,-23.40803 0,-5.85974 0.99212,-13.68826 9.22369,-23.02039 5.95276,-6.65042 10.52587,-10.32436 15.19193,-14.09137 0.99213,-0.79052 1.17815,-0.69756 1.37965,0.4031 l 2.09279,12.69614 m 6.83635,15.78095 c -0.2015,-1.19362 -0.093,-1.48818 1.10066,-1.39512 8.02997,0.69756 14.68039,7.44091 14.68039,16.16853 0,6.26284 -3.767,11.31643 -9.33223,14.09131 -1.19363,0.6046 -1.37965,0.6046 -1.58115,-0.58912 l -4.86767,-28.2756"
     id="path236"
     style="stroke-width:0.992126" />
  <path
     class="Clef"
     d="m 157.94965,555.14094 c -17.26916,0 -25.00465,12.60308 -25.00465,22.12128 0,7.93701 4.17003,14.78888 12.20007,14.78888 6.24732,0 10.52587,-4.37155 10.52587,-10.51033 0,-6.35581 -4.66617,-10.32431 -9.53374,-10.32431 -2.68182,0 -3.67399,0.69758 -4.96065,0.69758 -1.28667,0 -1.5812,-0.79064 -1.5812,-1.78277 0,-3.9685 5.95273,-11.22343 16.07559,-11.22343 10.51028,0 15.08339,10.32436 15.08339,25.90385 0,27.68653 -13.70374,43.15745 -36.8172,56.34965 -0.89912,0.49606 -1.48819,0.99213 -1.48819,1.78275 0,0.6046 0.40305,1.19363 1.28666,1.19363 0.49607,0 1.10064,-0.2015 1.68971,-0.49607 24.41563,-11.90551 50.21091,-29.56227 50.21091,-59.72908 0,-17.25374 -10.52586,-28.77163 -27.68657,-28.77163 m 37.40633,8.13851 c -3.08492,0 -5.4567,2.38725 -5.4567,5.45669 0,3.06939 2.37178,5.45669 5.4567,5.45669 3.06934,0 5.45669,-2.3873 5.45669,-5.45669 0,-3.06944 -2.38735,-5.45669 -5.45669,-5.45669 m 0.093,24.89616 c -3.06934,0 -5.34816,2.29429 -5.34816,5.36368 0,3.06944 2.27882,5.36373 5.34816,5.36373 3.08491,0 5.36373,-2.29429 5.36373,-5.36373 0,-3.06939 -2.27882,-5.36368 -5.36373,-5.36368"
     id="path238"
     style="stroke-width:0.992126" />
  <path
     class="KeySig"
     d="m 226.80166,101.94086 c 0.29453,0.4031 0.58907,0.49606 0.8836,0.49606 0.31004,0 0.60459,-0.2015 0.60459,-0.2015 2.97637,-1.68969 5.34817,-4.356027 7.82853,-6.045816 8.83608,-6.154257 11.90552,-12.200025 11.90552,-16.773111 0,-5.658263 -4.35613,-9.223666 -8.92914,-9.518228 -1.67421,0 -4.06156,0.790625 -5.45674,1.68969 -0.58908,0.496063 -1.67421,1.379749 -2.17028,1.379749 -0.20152,0 -0.31004,0 -0.49606,-0.09306 -0.69758,-0.294562 -1.10063,-0.992126 -1.10063,-1.68969 0.10851,-2.185753 0.69758,-25.996777 0.69758,-27.981029 0,-1.085187 -0.89911,-1.689789 -1.89124,-1.689789 -1.37967,0 -2.97638,0.992126 -3.06939,2.774877 0,0 0.40305,56.659717 1.19366,57.651847 m 3.47244,-8.836122 c 0,0 -0.29454,-5.952756 -0.29454,-9.92126 0,-1.581201 0.093,-2.774858 0.18602,-3.162402 0.69759,-1.984252 4.6661,-4.867618 6.94493,-4.867618 2.88332,0 4.07694,3.27091 4.07694,5.751225 0,5.363692 -4.573,10.711866 -8.83609,13.393711 -0.38755,0.201521 -0.69759,0.294533 -0.99212,0.294533 -0.88362,0 -1.08514,-0.992126 -1.08514,-1.488189"
     id="path240"
     style="stroke-width:0.992126" />
  <path
     class="KeySig"
     d="m 226.80166,362.37386 c 0.29453,0.4031 0.58907,0.49606 0.8836,0.49606 0.31004,0 0.60459,-0.2015 0.60459,-0.2015 2.97637,-1.68969 5.34817,-4.35603 7.82853,-6.04582 8.83608,-6.15425 11.90552,-12.20002 11.90552,-16.77311 0,-5.65826 -4.35613,-9.22366 -8.92914,-9.51823 -1.67421,0 -4.06156,0.79063 -5.45674,1.68969 -0.58908,0.49607 -1.67421,1.37975 -2.17028,1.37975 -0.20152,0 -0.31004,0 -0.49606,-0.0931 -0.69758,-0.29456 -1.10063,-0.99212 -1.10063,-1.68969 0.10851,-2.18575 0.69758,-25.99677 0.69758,-27.98103 0,-1.08518 -0.89911,-1.68978 -1.89124,-1.68978 -1.37967,0 -2.97638,0.99212 -3.06939,2.77487 0,0 0.40305,56.65972 1.19366,57.65185 m 3.47244,-8.83612 c 0,0 -0.29454,-5.95276 -0.29454,-9.92126 0,-1.5812 0.093,-2.77486 0.18602,-3.1624 0.69759,-1.98426 4.6661,-4.86762 6.94493,-4.86762 2.88332,0 4.07694,3.27091 4.07694,5.75122 0,5.36369 -4.573,10.71187 -8.83609,13.39371 -0.38755,0.20152 -0.69759,0.29454 -0.99212,0.29454 -0.88362,0 -1.08514,-0.99213 -1.08514,-1.48819"
     id="path242"
     style="stroke-width:0.992126" />
  <path
     class="KeySig"
     d="m 226.80166,647.60986 c 0.29453,0.4031 0.58907,0.49606 0.8836,0.49606 0.31004,0 0.60459,-0.2015 0.60459,-0.2015 2.97637,-1.68969 5.34817,-4.35603 7.82853,-6.04582 8.83608,-6.15425 11.90552,-12.20002 11.90552,-16.77311 0,-5.65826 -4.35613,-9.22366 -8.92914,-9.51823 -1.67421,0 -4.06156,0.79063 -5.45674,1.68969 -0.58908,0.49607 -1.67421,1.37975 -2.17028,1.37975 -0.20152,0 -0.31004,0 -0.49606,-0.0931 -0.69758,-0.29456 -1.10063,-0.99212 -1.10063,-1.68969 0.10851,-2.18575 0.69758,-25.99677 0.69758,-27.98103 0,-1.08518 -0.89911,-1.68978 -1.89124,-1.68978 -1.37967,0 -2.97638,0.99212 -3.06939,2.77487 0,0 0.40305,56.65972 1.19366,57.65185 m 3.47244,-8.83612 c 0,0 -0.29454,-5.95276 -0.29454,-9.92126 0,-1.5812 0.093,-2.77486 0.18602,-3.1624 0.69759,-1.98426 4.6661,-4.86762 6.94493,-4.86762 2.88332,0 4.07694,3.27091 4.07694,5.75122 0,5.36369 -4.573,10.71187 -8.83609,13.39371 -0.38755,0.20152 -0.69759,0.29454 -0.99212,0.29454 -0.88362,0 -1.08514,-0.99213 -1.08514,-1.48819"
     id="path244"
     style="stroke-width:0.992126" />
  <path
     class="Rest"
     d="m 338.01303,82.687414 v -9.115207 c 0,-1.488189 -1.19363,-2.588755 -2.57328,-2.588755 h -22.83442 c -1.48819,0 -2.57333,1.100566 -2.57333,2.588755 v 9.115207 c 0,1.395177 1.08514,2.588829 2.57333,2.588829 h 22.83442 c 1.37965,0 2.57328,-1.193652 2.57328,-2.588829"
     id="path246"
     style="stroke-width:0.992126" />
  <path
     class="Rest"
     d="m 338.01303,603.55341 v -9.1152 c 0,-1.48819 -1.19363,-2.58876 -2.57328,-2.58876 h -22.83442 c -1.48819,0 -2.57333,1.10057 -2.57333,2.58876 v 9.1152 c 0,1.39518 1.08514,2.58883 2.57333,2.58883 h 22.83442 c 1.37965,0 2.57328,-1.19365 2.57328,-2.58883"
     id="path248"
     style="stroke-width:0.992126" />
  <path
     class="NoteDot"
     d="m 1575.0523,72.672717 c 0,-2.774857 -2.1858,-4.96063 -4.9607,-4.96063 -2.7748,0 -4.9606,2.185773 -4.9606,4.96063 0,2.774857 2.1858,4.96063 4.9606,4.96063 2.7749,0 4.9607,-2.185773 4.9607,-4.96063"
     id="path250"
     style="stroke-width:0.992126" />
  <path
     class="NoteDot"
     d="m 1575.0523,568.73572 c 0,-2.77486 -2.1858,-4.96063 -4.9607,-4.96063 -2.7748,0 -4.9606,2.18577 -4.9606,4.96063 0,2.77485 2.1858,4.96063 4.9606,4.96063 2.7749,0 4.9607,-2.18578 4.9607,-4.96063"
     id="path252"
     style="stroke-width:0.992126" />
  <polyline
     class="Bracket"
     stroke="#000000"
     stroke-width="12.4"
     stroke-linejoin="bevel"
     points="302.705,372.118 302.705,1017"
     id="polyline254"
     transform="translate(-211.429,-349.05128)" />
  <path
     class="Bracket"
     d="M 85.075,29.267717 H 97.476575 C 113.35059,26.291339 127.53492,18.943356 131.50342,2.3717764 131.61196,1.984252 131.61196,1.6896898 131.61196,1.3796504 131.61196,0.58902521 131.3174,0.20150079 130.82133,0 129.92217,0 128.83708,0.69756379 128.34102,1.3796504 127.34889,2.480315 114.83878,15.579454 95.895424,16.959104 H 85.8656 c -0.589074,0 -0.7906,0.108539 -0.7906,0.697663 v 11.61095"
     id="path256"
     style="stroke-width:0.992126" />
  <path
     class="Bracket"
     d="m 85.075,673.35967 c 0,0.58912 0.201526,0.69766 0.7906,0.69766 h 10.029824 c 18.943356,1.37965 31.453466,14.47879 32.445596,15.57945 0.49606,0.68209 1.58115,1.37965 2.48031,1.37965 0.49607,-0.2015 0.79063,-0.58902 0.79063,-1.37965 0,-0.31004 0,-0.6046 -0.10854,-0.99212 -3.9685,-16.57158 -18.15283,-23.91957 -34.026845,-26.89594 H 85.075 v 11.61095"
     id="path258"
     style="stroke-width:0.992126" />
</svg>
