<?xml version="1.0" encoding="UTF-8"?>
<svg height="75pt" xmlns:xlink="http://www.w3.org/1999/xlink" viewBox="0 0 250 75" xmlns:inkscape="http://www.inkscape.org/namespaces/inkscape" xmlns="http://www.w3.org/2000/svg" version="1.1" width="250pt">
 <defs>
  <clipPath id="Clip0">
   <path d="M0 0 L266.961 0 L266.961 41 L0 41 L0 0 Z"/>
  </clipPath>
 </defs>
 <g id="Hintergrund" inkscape:groupmode="layer" inkscape:label="Hintergrund">
  <g id="Kopie von Gruppe1" clip-rule="evenodd" clip-path="url(#Clip0)" transform="translate(3.319, 19.699) scale(0.916542, 1)" style="fill:none; stroke:none">
   <path d="M 0 0 L 266.961 0" transform="translate(0, 0.5)" style="stroke-width:1; stroke-linecap:butt; stroke-linejoin:miter; stroke-dasharray:none; stroke:#171615;"/>
   <path d="M 0 0 L 266.961 0" transform="translate(7.10543e-14, 10.5)" style="stroke-width:1; stroke-linecap:butt; stroke-linejoin:miter; stroke-dasharray:none; stroke:#171615;"/>
   <path d="M 0 0 L 266.961 0" transform="translate(7.10543e-14, 20.5)" style="stroke-width:1; stroke-linecap:butt; stroke-linejoin:miter; stroke-dasharray:none; stroke:#171615;"/>
   <path d="M 0 0 L 266.961 0" transform="translate(7.10543e-14, 30.5)" style="stroke-width:1; stroke-linecap:butt; stroke-linejoin:miter; stroke-dasharray:none; stroke:#171615;"/>
   <path d="M 0 0 L 266.961 0" transform="translate(7.10543e-14, 40.5)" style="stroke-width:1; stroke-linecap:butt; stroke-linejoin:miter; stroke-dasharray:none; stroke:#171615;"/>
  </g>
  <path id="Kopie von Text6+U0" d="M14.9055 4.94305 C15.9521 4.94305 16.8083 5.8041 16.8083 7.55809 C16.8083 9.75854 15.7618 11.7995 13.2881 14.287 C12.7807 14.7973 12.0196 15.5308 11.2901 16.1686 C11.0681 16.3599 10.9413 16.328 10.8779 15.9134 C10.751 15.0843 10.6876 14 10.6876 12.9795 C10.6876 8.00456 12.971 4.94305 14.9055 4.94305 L14.9055 4.94305 Z M13.637 31.7312 C13.5735 31.3485 13.6052 31.2528 13.9858 31.2847 C16.5546 31.508 18.6795 33.6765 18.6795 36.4829 C18.6795 38.492 17.4743 40.1185 15.6984 41.0114 C15.3178 41.2027 15.2544 41.2027 15.1909 40.82 L13.637 31.7312 L13.637 31.7312 Z M11.4487 26.6606 C11.5438 27.2665 11.5438 27.2346 10.973 27.426 C8.18218 28.3827 6.37449 30.9021 6.37449 33.6128 C6.37449 36.4829 7.86504 38.5239 10.0216 39.2574 C10.2753 39.3531 10.6559 39.4487 10.8779 39.4487 C11.1316 39.4487 11.2584 39.2893 11.2584 39.0979 C11.2584 38.8747 11.0047 38.779 10.7827 38.6834 C9.45073 38.1093 8.49931 36.738 8.49931 35.2711 C8.49931 33.4533 9.73615 32.082 11.6707 31.5399 C12.1781 31.4123 12.2415 31.4442 12.305 31.795 L13.8907 41.2984 C13.9541 41.6492 13.9224 41.6492 13.4467 41.7449 C12.9393 41.8405 12.305 41.9043 11.6707 41.9043 C6.12077 41.9043 2.53711 38.8109 2.53711 34.3781 C2.53711 32.4966 2.85425 29.9772 5.4865 26.9795 C7.38933 24.8428 8.84817 23.6629 10.3387 22.451 C10.6559 22.1959 10.7193 22.2278 10.7827 22.5786 L11.4487 26.6606 L11.4487 26.6606 Z M11.9244 21.7813 C11.861 21.3986 11.9244 21.3667 12.1147 21.1754 C12.6221 20.697 13.2881 20.0273 13.8907 19.3576 C16.5546 16.4237 18.1403 12.6287 18.1403 9.02506 C18.1403 6.25057 17.3792 3.50797 16.0789 1.59453 C15.6032 0.892938 14.7787 0 14.4298 0 C13.9858 0 13.0027 0.829157 12.3684 1.53075 C10.0216 4.14579 9.26045 8.13212 9.26045 11.4487 C9.26045 13.2984 9.48244 15.3713 9.70444 16.6788 C9.76787 17.0615 9.79958 17.1253 9.41902 17.4442 C7.38933 19.1344 5.20107 21.0797 3.55195 23.1207 C1.3637 25.8633 0 28.8292 0 32.2415 C0 37.7904 3.77395 43.0524 11.5438 43.0524 C12.2733 43.0524 13.0978 42.9886 13.7321 42.861 C14.081 42.7973 14.1444 42.7654 14.2078 43.1481 C14.5884 45.2847 15.0641 48.0592 15.0641 49.5581 C15.0641 54.2779 11.8927 54.8519 10.0216 54.8519 C8.30903 54.8519 7.48447 54.3417 7.48447 53.9271 C7.48447 53.7039 7.7699 53.6082 8.49931 53.385 C9.48244 53.0979 10.6241 52.2369 10.6241 50.3872 C10.6241 48.6333 9.51416 47.1344 7.57961 47.1344 C5.45478 47.1344 4.18623 48.8246 4.18623 50.8018 C4.18623 52.8747 5.42307 56 10.2119 56 C12.3367 56 16.4595 55.0433 16.4595 49.6219 C16.4595 47.8041 15.8886 44.7745 15.5398 42.7973 C15.4764 42.4146 15.5081 42.4465 15.9521 42.2551 C19.1552 40.9795 21.28 38.2688 21.28 34.6651 C21.28 30.5831 18.2989 26.9795 13.637 26.9795 C12.8124 26.9795 12.8124 26.9795 12.7173 26.4055 L11.9244 21.7813 Z" transform="translate(7, 14)" style="fill:#171615; fill-rule:evenodd;stroke:none;"/>
  <path id="Text24+U0" d="M1.80513 19.4788 C1.80513 19.4788 1.68991 17.2313 1.68991 15.7329 C1.68991 15.1336 1.72832 14.684 1.76673 14.5342 C1.92035 14.0847 2.91894 13.2606 3.45664 12.9609 C3.8023 12.7736 4.14796 12.6987 4.45522 12.6987 C4.83929 12.6987 5.18496 12.8485 5.4154 13.1107 C5.79947 13.5228 6.02991 14.1596 6.02991 14.8713 C6.02991 15.5456 5.83788 16.3322 5.37699 17.1189 C4.8777 18.0179 3.76389 19.2166 2.61168 19.9283 C2.45805 20.0033 2.34283 20.0407 2.22761 20.0407 C1.88195 20.0407 1.80513 19.6661 1.80513 19.4788 L1.80513 19.4788 Z M0.460885 22.8127 C0.576106 22.9625 0.691327 23 0.806549 23 C0.92177 23 1.03699 22.9251 1.03699 22.9251 C2.1892 22.2883 3.11097 21.2769 4.07115 20.6401 C7.48938 18.3176 8.68 16.0326 8.68 14.3094 C8.68 12.1743 6.99009 10.8257 5.22336 10.7134 C4.95451 10.7134 4.68566 10.7508 4.41681 10.8257 C3.99434 10.9381 3.53345 11.0879 3.11097 11.3502 C2.88053 11.5375 2.45805 11.8746 2.26602 11.8746 C2.1892 11.8746 2.1508 11.8746 2.07398 11.8371 C1.80513 11.7248 1.6515 11.4625 1.6515 11.2003 C1.68991 10.3762 1.92035 1.38599 1.92035 0.636808 C1.92035 0.224756 1.57469 0 1.19062 0 C0.65292 0 0.0384071 0.374593 0 1.04886 C0 1.04886 0.153628 22.4381 0.460885 22.8127 Z" transform="translate(33.32, 23.76)" style="fill:#171615; fill-rule:evenodd;stroke:none;"/>
  <path id="Kopie von Text7+U0 (4)" d="M0.72103 0.104585 C0.240343 0.104585 0 0.348617 0 0.83668 L0 34.4433 C0 34.9314 0.240343 35.1754 0.72103 35.1754 L3.67382 35.1754 C4.15451 35.1754 4.39485 34.9314 4.39485 34.4433 L4.39485 0.83668 C4.39485 0.348617 4.15451 0.104585 3.67382 0.104585 L0.72103 0.104585 L0.72103 0.104585 Z M7.897 0.83668 C7.897 0.348617 7.65665 0.104585 7.17597 0.104585 L7.14163 0.104585 C6.66094 0.104585 6.4206 0.348617 6.4206 0.83668 L6.4206 34.4433 C6.4206 34.9314 6.66094 35.1754 7.14163 35.1754 L7.17597 35.1754 C7.65665 35.1754 7.897 34.9314 7.897 34.4433 L7.897 19.1739 C7.897 18.895 8.06867 18.9299 8.20601 18.9647 C9.09871 19.2088 10.5408 20.1152 11.2618 24.0545 C11.3648 24.6123 11.5708 24.9261 11.9142 24.9261 C12.2918 24.9261 12.4635 24.5775 12.6352 23.9848 C13.0815 22.4509 13.8712 20.7427 16.309 20.7427 C18.5408 20.7427 19.1588 22.9738 19.1588 27.5407 C19.1588 32.1076 18.3691 34.1644 15.5193 34.1644 C14.7639 34.1644 14.0773 34.0598 13.5279 33.8855 C12.9442 33.7112 12.6009 33.4672 12.6009 33.2232 C12.6009 33.0489 13.1502 32.8397 13.5279 32.7002 C14.2146 32.4562 14.9013 31.759 14.9013 30.4342 C14.9013 28.9003 13.9056 28.0288 12.5665 28.0288 C11.0901 28.0288 9.92275 29.0398 9.92275 30.8874 C9.92275 33.0837 11.8112 35.28 15.897 35.28 C21.5279 35.28 24 31.2709 24 27.6453 C24 22.8344 21.3906 19.4877 16.824 19.4877 C15.8283 19.4877 15.176 19.662 14.7296 19.8014 C14.3863 19.906 14.0429 19.9757 13.7339 19.7666 C13.2532 19.4528 12.4979 18.3372 12.4979 17.64 C12.4979 16.9428 13.2532 15.8272 13.7339 15.5134 C14.0429 15.3043 14.3863 15.374 14.7296 15.4786 C15.176 15.618 15.8283 15.7923 16.824 15.7923 C21.3906 15.7923 24 12.4456 24 7.6347 C24 4.00909 21.5279 0 15.897 0 C11.8112 0 9.92275 2.19628 9.92275 4.39257 C9.92275 6.24024 11.0901 7.25123 12.5665 7.25123 C13.9056 7.25123 14.9013 6.37968 14.9013 4.84577 C14.9013 3.52103 14.2146 2.82379 13.5279 2.57976 C13.1502 2.44032 12.6009 2.23115 12.6009 2.05684 C12.6009 1.81281 12.9442 1.56877 13.5279 1.39447 C14.0773 1.22016 14.7639 1.11557 15.5193 1.11557 C18.3691 1.11557 19.1588 3.17241 19.1588 7.73929 C19.1588 12.3062 18.5408 14.5373 16.309 14.5373 C13.8712 14.5373 13.0815 12.8291 12.6352 11.2952 C12.4635 10.7025 12.2918 10.3539 11.9142 10.3539 C11.5708 10.3539 11.3648 10.6677 11.2618 11.2255 C10.5408 15.1648 9.09871 16.0712 8.20601 16.3153 C8.06867 16.3501 7.897 16.385 7.897 16.1061 L7.897 0.83668 Z" transform="translate(66, 32.5)" style="fill:#171615; fill-rule:evenodd;stroke:none;"/>
  <path id="Kopie von Text7+U0 (5)" d="M0.72103 0.104585 C0.240343 0.104585 0 0.348617 0 0.83668 L0 34.4433 C0 34.9314 0.240343 35.1754 0.72103 35.1754 L3.67382 35.1754 C4.15451 35.1754 4.39485 34.9314 4.39485 34.4433 L4.39485 0.83668 C4.39485 0.348617 4.15451 0.104585 3.67382 0.104585 L0.72103 0.104585 L0.72103 0.104585 Z M7.897 0.83668 C7.897 0.348617 7.65665 0.104585 7.17597 0.104585 L7.14163 0.104585 C6.66094 0.104585 6.4206 0.348617 6.4206 0.83668 L6.4206 34.4433 C6.4206 34.9314 6.66094 35.1754 7.14163 35.1754 L7.17597 35.1754 C7.65665 35.1754 7.897 34.9314 7.897 34.4433 L7.897 19.1739 C7.897 18.895 8.06867 18.9299 8.20601 18.9647 C9.09871 19.2088 10.5408 20.1152 11.2618 24.0545 C11.3648 24.6123 11.5708 24.9261 11.9142 24.9261 C12.2918 24.9261 12.4635 24.5775 12.6352 23.9848 C13.0815 22.4509 13.8712 20.7427 16.309 20.7427 C18.5408 20.7427 19.1588 22.9738 19.1588 27.5407 C19.1588 32.1076 18.3691 34.1644 15.5193 34.1644 C14.7639 34.1644 14.0773 34.0598 13.5279 33.8855 C12.9442 33.7112 12.6009 33.4672 12.6009 33.2232 C12.6009 33.0489 13.1502 32.8397 13.5279 32.7002 C14.2146 32.4562 14.9013 31.759 14.9013 30.4342 C14.9013 28.9003 13.9056 28.0288 12.5665 28.0288 C11.0901 28.0288 9.92275 29.0398 9.92275 30.8874 C9.92275 33.0837 11.8112 35.28 15.897 35.28 C21.5279 35.28 24 31.2709 24 27.6453 C24 22.8344 21.3906 19.4877 16.824 19.4877 C15.8283 19.4877 15.176 19.662 14.7296 19.8014 C14.3863 19.906 14.0429 19.9757 13.7339 19.7666 C13.2532 19.4528 12.4979 18.3372 12.4979 17.64 C12.4979 16.9428 13.2532 15.8272 13.7339 15.5134 C14.0429 15.3043 14.3863 15.374 14.7296 15.4786 C15.176 15.618 15.8283 15.7923 16.824 15.7923 C21.3906 15.7923 24 12.4456 24 7.6347 C24 4.00909 21.5279 0 15.897 0 C11.8112 0 9.92275 2.19628 9.92275 4.39257 C9.92275 6.24024 11.0901 7.25123 12.5665 7.25123 C13.9056 7.25123 14.9013 6.37968 14.9013 4.84577 C14.9013 3.52103 14.2146 2.82379 13.5279 2.57976 C13.1502 2.44032 12.6009 2.23115 12.6009 2.05684 C12.6009 1.81281 12.9442 1.56877 13.5279 1.39447 C14.0773 1.22016 14.7639 1.11557 15.5193 1.11557 C18.3691 1.11557 19.1588 3.17241 19.1588 7.73929 C19.1588 12.3062 18.5408 14.5373 16.309 14.5373 C13.8712 14.5373 13.0815 12.8291 12.6352 11.2952 C12.4635 10.7025 12.2918 10.3539 11.9142 10.3539 C11.5708 10.3539 11.3648 10.6677 11.2618 11.2255 C10.5408 15.1648 9.09871 16.0712 8.20601 16.3153 C8.06867 16.3501 7.897 16.385 7.897 16.1061 L7.897 0.83668 Z" transform="translate(126, 22.5)" style="fill:#171615; fill-rule:evenodd;stroke:none;"/>
  <path id="Kopie von Text8+U0" d="M10.8171 0 C3.49347 0 0.21045 5.3575 0.21045 9.40727 C0.21045 12.7821 1.97823 15.6928 5.38752 15.6928 C8.03919 15.6928 9.84906 13.8367 9.84906 11.2212 C9.84906 8.52138 7.87083 6.83398 5.80842 6.83398 C4.67199 6.83398 4.25109 7.12928 3.70392 7.12928 C3.15675 7.12928 3.03048 6.79179 3.03048 6.36994 C3.03048 4.68254 5.55588 1.60303 9.84906 1.60303 C14.3106 1.60303 16.2467 5.99028 16.2467 12.6133 C16.2467 16.9584 15.3208 22.0206 12.7112 26.0704 C10.1858 29.9936 5.85051 33.5793 0.63135 36.5744 C0.25254 36.7854 0 36.9963 0 37.3338 C0 37.5869 0.16836 37.84 0.54717 37.84 C0.75762 37.84 1.01016 37.7556 1.2627 37.6291 C6.86067 34.887 12.2482 31.681 16.7097 26.8719 C20.3716 22.9065 22.5602 17.7599 22.5602 12.2337 C22.5602 4.89347 18.0987 0 10.8171 0 L10.8171 0 Z M26.7271 14.0476 C25.4224 14.0476 24.4543 15.0179 24.4543 16.3256 C24.4543 17.6334 25.4224 18.6036 26.7271 18.6036 C28.0319 18.6036 29 17.6334 29 16.3256 C29 15.0179 28.0319 14.0476 26.7271 14.0476 L26.7271 14.0476 Z M26.6851 3.45918 C25.3803 3.45918 24.3701 4.47162 24.3701 5.77935 C24.3701 7.08709 25.3803 8.09953 26.6851 8.09953 C27.9898 8.09953 29 7.08709 29 5.77935 C29 4.47162 27.9898 3.45918 26.6851 3.45918 Z" transform="translate(185.94, 28.9)" style="fill:#171615; fill-rule:evenodd;stroke:none;"/>
  <path id="Kopie von Text24+U0" d="M1.80513 19.4788 C1.80513 19.4788 1.68991 17.2313 1.68991 15.7329 C1.68991 15.1336 1.72832 14.684 1.76673 14.5342 C1.92035 14.0847 2.91894 13.2606 3.45664 12.9609 C3.8023 12.7736 4.14796 12.6987 4.45522 12.6987 C4.83929 12.6987 5.18496 12.8485 5.4154 13.1107 C5.79947 13.5228 6.02991 14.1596 6.02991 14.8713 C6.02991 15.5456 5.83788 16.3322 5.37699 17.1189 C4.8777 18.0179 3.76389 19.2166 2.61168 19.9283 C2.45805 20.0033 2.34283 20.0407 2.22761 20.0407 C1.88195 20.0407 1.80513 19.6661 1.80513 19.4788 L1.80513 19.4788 Z M0.460885 22.8127 C0.576106 22.9625 0.691327 23 0.806549 23 C0.92177 23 1.03699 22.9251 1.03699 22.9251 C2.1892 22.2883 3.11097 21.2769 4.07115 20.6401 C7.48938 18.3176 8.68 16.0326 8.68 14.3094 C8.68 12.1743 6.99009 10.8257 5.22336 10.7134 C4.95451 10.7134 4.68566 10.7508 4.41681 10.8257 C3.99434 10.9381 3.53345 11.0879 3.11097 11.3502 C2.88053 11.5375 2.45805 11.8746 2.26602 11.8746 C2.1892 11.8746 2.1508 11.8746 2.07398 11.8371 C1.80513 11.7248 1.6515 11.4625 1.6515 11.2003 C1.68991 10.3762 1.92035 1.38599 1.92035 0.636808 C1.92035 0.224756 1.57469 0 1.19062 0 C0.65292 0 0.0384071 0.374593 0 1.04886 C0 1.04886 0.153628 22.4381 0.460885 22.8127 Z" transform="translate(94.32, 37.76)" style="fill:#171615; fill-rule:evenodd;stroke:none;"/>
  <path id="Kopie von Text24+U0 (2)" d="M1.80513 19.4788 C1.80513 19.4788 1.68991 17.2313 1.68991 15.7329 C1.68991 15.1336 1.72832 14.684 1.76673 14.5342 C1.92035 14.0847 2.91894 13.2606 3.45664 12.9609 C3.8023 12.7736 4.14796 12.6987 4.45522 12.6987 C4.83929 12.6987 5.18496 12.8485 5.4154 13.1107 C5.79947 13.5228 6.02991 14.1596 6.02991 14.8713 C6.02991 15.5456 5.83788 16.3322 5.37699 17.1189 C4.8777 18.0179 3.76389 19.2166 2.61168 19.9283 C2.45805 20.0033 2.34283 20.0407 2.22761 20.0407 C1.88195 20.0407 1.80513 19.6661 1.80513 19.4788 L1.80513 19.4788 Z M0.460885 22.8127 C0.576106 22.9625 0.691327 23 0.806549 23 C0.92177 23 1.03699 22.9251 1.03699 22.9251 C2.1892 22.2883 3.11097 21.2769 4.07115 20.6401 C7.48938 18.3176 8.68 16.0326 8.68 14.3094 C8.68 12.1743 6.99009 10.8257 5.22336 10.7134 C4.95451 10.7134 4.68566 10.7508 4.41681 10.8257 C3.99434 10.9381 3.53345 11.0879 3.11097 11.3502 C2.88053 11.5375 2.45805 11.8746 2.26602 11.8746 C2.1892 11.8746 2.1508 11.8746 2.07398 11.8371 C1.80513 11.7248 1.6515 11.4625 1.6515 11.2003 C1.68991 10.3762 1.92035 1.38599 1.92035 0.636808 C1.92035 0.224756 1.57469 0 1.19062 0 C0.65292 0 0.0384071 0.374593 0 1.04886 C0 1.04886 0.153628 22.4381 0.460885 22.8127 Z" transform="translate(94.32, 3.76)" style="fill:#171615; fill-rule:evenodd;stroke:none;"/>
  <path id="Kopie von Text24+U0 (3)" d="M1.80513 19.4788 C1.80513 19.4788 1.68991 17.2313 1.68991 15.7329 C1.68991 15.1336 1.72832 14.684 1.76673 14.5342 C1.92035 14.0847 2.91894 13.2606 3.45664 12.9609 C3.8023 12.7736 4.14796 12.6987 4.45522 12.6987 C4.83929 12.6987 5.18496 12.8485 5.4154 13.1107 C5.79947 13.5228 6.02991 14.1596 6.02991 14.8713 C6.02991 15.5456 5.83788 16.3322 5.37699 17.1189 C4.8777 18.0179 3.76389 19.2166 2.61168 19.9283 C2.45805 20.0033 2.34283 20.0407 2.22761 20.0407 C1.88195 20.0407 1.80513 19.6661 1.80513 19.4788 L1.80513 19.4788 Z M0.460885 22.8127 C0.576106 22.9625 0.691327 23 0.806549 23 C0.92177 23 1.03699 22.9251 1.03699 22.9251 C2.1892 22.2883 3.11097 21.2769 4.07115 20.6401 C7.48938 18.3176 8.68 16.0326 8.68 14.3094 C8.68 12.1743 6.99009 10.8257 5.22336 10.7134 C4.95451 10.7134 4.68566 10.7508 4.41681 10.8257 C3.99434 10.9381 3.53345 11.0879 3.11097 11.3502 C2.88053 11.5375 2.45805 11.8746 2.26602 11.8746 C2.1892 11.8746 2.1508 11.8746 2.07398 11.8371 C1.80513 11.7248 1.6515 11.4625 1.6515 11.2003 C1.68991 10.3762 1.92035 1.38599 1.92035 0.636808 C1.92035 0.224756 1.57469 0 1.19062 0 C0.65292 0 0.0384071 0.374593 0 1.04886 C0 1.04886 0.153628 22.4381 0.460885 22.8127 Z" transform="translate(155.32, 28.76)" style="fill:#171615; fill-rule:evenodd;stroke:none;"/>
  <path id="Kopie von Text24+U0 (4)" d="M1.80513 19.4788 C1.80513 19.4788 1.68991 17.2313 1.68991 15.7329 C1.68991 15.1336 1.72832 14.684 1.76673 14.5342 C1.92035 14.0847 2.91894 13.2606 3.45664 12.9609 C3.8023 12.7736 4.14796 12.6987 4.45522 12.6987 C4.83929 12.6987 5.18496 12.8485 5.4154 13.1107 C5.79947 13.5228 6.02991 14.1596 6.02991 14.8713 C6.02991 15.5456 5.83788 16.3322 5.37699 17.1189 C4.8777 18.0179 3.76389 19.2166 2.61168 19.9283 C2.45805 20.0033 2.34283 20.0407 2.22761 20.0407 C1.88195 20.0407 1.80513 19.6661 1.80513 19.4788 L1.80513 19.4788 Z M0.460885 22.8127 C0.576106 22.9625 0.691327 23 0.806549 23 C0.92177 23 1.03699 22.9251 1.03699 22.9251 C2.1892 22.2883 3.11097 21.2769 4.07115 20.6401 C7.48938 18.3176 8.68 16.0326 8.68 14.3094 C8.68 12.1743 6.99009 10.8257 5.22336 10.7134 C4.95451 10.7134 4.68566 10.7508 4.41681 10.8257 C3.99434 10.9381 3.53345 11.0879 3.11097 11.3502 C2.88053 11.5375 2.45805 11.8746 2.26602 11.8746 C2.1892 11.8746 2.1508 11.8746 2.07398 11.8371 C1.80513 11.7248 1.6515 11.4625 1.6515 11.2003 C1.68991 10.3762 1.92035 1.38599 1.92035 0.636808 C1.92035 0.224756 1.57469 0 1.19062 0 C0.65292 0 0.0384071 0.374593 0 1.04886 C0 1.04886 0.153628 22.4381 0.460885 22.8127 Z" transform="translate(221.32, 8.76)" style="fill:#171615; fill-rule:evenodd;stroke:none;"/>
  <path id="Kopie von Text24+U0 (5)" d="M1.80513 19.4788 C1.80513 19.4788 1.68991 17.2313 1.68991 15.7329 C1.68991 15.1336 1.72832 14.684 1.76673 14.5342 C1.92035 14.0847 2.91894 13.2606 3.45664 12.9609 C3.8023 12.7736 4.14796 12.6987 4.45522 12.6987 C4.83929 12.6987 5.18496 12.8485 5.4154 13.1107 C5.79947 13.5228 6.02991 14.1596 6.02991 14.8713 C6.02991 15.5456 5.83788 16.3322 5.37699 17.1189 C4.8777 18.0179 3.76389 19.2166 2.61168 19.9283 C2.45805 20.0033 2.34283 20.0407 2.22761 20.0407 C1.88195 20.0407 1.80513 19.6661 1.80513 19.4788 L1.80513 19.4788 Z M0.460885 22.8127 C0.576106 22.9625 0.691327 23 0.806549 23 C0.92177 23 1.03699 22.9251 1.03699 22.9251 C2.1892 22.2883 3.11097 21.2769 4.07115 20.6401 C7.48938 18.3176 8.68 16.0326 8.68 14.3094 C8.68 12.1743 6.99009 10.8257 5.22336 10.7134 C4.95451 10.7134 4.68566 10.7508 4.41681 10.8257 C3.99434 10.9381 3.53345 11.0879 3.11097 11.3502 C2.88053 11.5375 2.45805 11.8746 2.26602 11.8746 C2.1892 11.8746 2.1508 11.8746 2.07398 11.8371 C1.80513 11.7248 1.6515 11.4625 1.6515 11.2003 C1.68991 10.3762 1.92035 1.38599 1.92035 0.636808 C1.92035 0.224756 1.57469 0 1.19062 0 C0.65292 0 0.0384071 0.374593 0 1.04886 C0 1.04886 0.153628 22.4381 0.460885 22.8127 Z" transform="translate(221.32, 43.76)" style="fill:#171615; fill-rule:evenodd;stroke:none;"/>
 </g>
</svg>
