<?xml version="1.0" encoding="UTF-8" standalone="no"?>
<svg
   xmlns:dc="http://purl.org/dc/elements/1.1/"
   xmlns:cc="http://creativecommons.org/ns#"
   xmlns:rdf="http://www.w3.org/1999/02/22-rdf-syntax-ns#"
   xmlns:svg="http://www.w3.org/2000/svg"
   xmlns="http://www.w3.org/2000/svg"
   xmlns:sodipodi="http://sodipodi.sourceforge.net/DTD/sodipodi-0.dtd"
   xmlns:inkscape="http://www.inkscape.org/namespaces/inkscape"
   width="2811.7673"
   height="1149.2085"
   viewBox="0 0 2811.7673 1149.2085"
   version="1.2"
   id="svg1494"
   sodipodi:docname="KV 545-Exposition-4d.svg"
   inkscape:version="0.92.3 (2405546, 2018-03-11)">
  <metadata
     id="metadata1500">
    <rdf:RDF>
      <cc:Work
         rdf:about="">
        <dc:format>image/svg+xml</dc:format>
        <dc:type
           rdf:resource="http://purl.org/dc/dcmitype/StillImage" />
        <dc:title>KV 545-Exposition (4)</dc:title>
      </cc:Work>
    </rdf:RDF>
  </metadata>
  <defs
     id="defs1498" />
  <sodipodi:namedview
     pagecolor="#ffffff"
     bordercolor="#666666"
     borderopacity="1"
     objecttolerance="10"
     gridtolerance="10"
     guidetolerance="10"
     inkscape:pageopacity="0"
     inkscape:pageshadow="2"
     inkscape:window-width="3840"
     inkscape:window-height="2066"
     id="namedview1496"
     showgrid="false"
     inkscape:zoom="0.31311696"
     inkscape:cx="-291.62783"
     inkscape:cy="-198.78483"
     inkscape:window-x="-11"
     inkscape:window-y="-11"
     inkscape:window-maximized="1"
     inkscape:current-layer="svg1494" />
  <title
     id="title2">KV 545-Exposition (4)</title>
  <desc
     id="desc4">Generated by MuseScore 3.6.2</desc>
  <polyline
     class="StaffLines"
     points="102.85,1500.31 2903.81,1500.31"
     id="polyline46"
     style="fill:none;stroke:#000000;stroke-width:2.57999992;stroke-linejoin:bevel"
     transform="translate(-101.74444,-1381.2945)" />
  <polyline
     class="StaffLines"
     points="102.85,1520.15 2903.81,1520.15"
     id="polyline48"
     style="fill:none;stroke:#000000;stroke-width:2.57999992;stroke-linejoin:bevel"
     transform="translate(-101.74444,-1381.2945)" />
  <polyline
     class="StaffLines"
     points="102.85,1539.99 2903.81,1539.99"
     id="polyline50"
     style="fill:none;stroke:#000000;stroke-width:2.57999992;stroke-linejoin:bevel"
     transform="translate(-101.74444,-1381.2945)" />
  <polyline
     class="StaffLines"
     points="102.85,1559.83 2903.81,1559.83"
     id="polyline52"
     style="fill:none;stroke:#000000;stroke-width:2.57999992;stroke-linejoin:bevel"
     transform="translate(-101.74444,-1381.2945)" />
  <polyline
     class="StaffLines"
     points="102.85,1579.68 2903.81,1579.68"
     id="polyline54"
     style="fill:none;stroke:#000000;stroke-width:2.57999992;stroke-linejoin:bevel"
     transform="translate(-101.74444,-1381.2945)" />
  <polyline
     class="StaffLines"
     points="102.85,3008.34 2903.81,3008.34"
     id="polyline96"
     style="fill:none;stroke:#000000;stroke-width:2.57999992;stroke-linejoin:bevel"
     transform="translate(-101.74444,-2387.3087)" />
  <polyline
     class="StaffLines"
     points="102.85,3028.18 2903.81,3028.18"
     id="polyline98"
     style="fill:none;stroke:#000000;stroke-width:2.57999992;stroke-linejoin:bevel"
     transform="translate(-101.74444,-2387.3087)" />
  <polyline
     class="StaffLines"
     points="102.85,3048.02 2903.81,3048.02"
     id="polyline100"
     style="fill:none;stroke:#000000;stroke-width:2.57999992;stroke-linejoin:bevel"
     transform="translate(-101.74444,-2387.3087)" />
  <polyline
     class="StaffLines"
     points="102.85,3067.86 2903.81,3067.86"
     id="polyline102"
     style="fill:none;stroke:#000000;stroke-width:2.57999992;stroke-linejoin:bevel"
     transform="translate(-101.74444,-2387.3087)" />
  <polyline
     class="StaffLines"
     points="102.85,3087.71 2903.81,3087.71"
     id="polyline104"
     style="fill:none;stroke:#000000;stroke-width:2.57999992;stroke-linejoin:bevel"
     transform="translate(-101.74444,-2387.3087)" />
  <path
     class="SlurSegment"
     d="m 138.29156,267.8228 c 352.01,70.05 1997.36404,83.94 2350.50404,19.85 -353.18,68.85 -1998.53404,54.96 -2350.50404,-19.85"
     id="path110"
     inkscape:connector-curvature="0"
     style="fill-rule:evenodd;stroke:#000000;stroke-width:1.98000002;stroke-linecap:round;stroke-linejoin:round" />
  <path
     class="SlurSegment"
     d="m 451.67156,153.4028 c 299.185,63.02 1722.91404,72.35 2033.89404,13.32 -311.02,63.79 -1734.74004,54.47 -2033.89404,-13.32"
     id="path112"
     inkscape:connector-curvature="0"
     style="fill-rule:evenodd;stroke:#000000;stroke-width:1.98000002;stroke-linecap:round;stroke-linejoin:round" />
  <path
     class="SlurSegment"
     d="m 314.45956,64.112804 c 33.2,21.26 110.047,27.87 153.694,13.21 -44.055,19.41 -120.902,12.8 -153.694,-13.21"
     id="path114"
     inkscape:connector-curvature="0"
     style="fill-rule:evenodd;stroke:#000000;stroke-width:1.98000002;stroke-linecap:round;stroke-linejoin:round" />
  <path
     class="SlurSegment"
     d="m 326.11856,48.972804 c 302.197,-67.34 1707.46704,-46.4500002 2007.52704,29.85 -300.13,-71.5300002 -1705.40104,-92.43 -2007.52704,-29.85"
     id="path116"
     inkscape:connector-curvature="0"
     style="fill-rule:evenodd;stroke:#000000;stroke-width:1.98000002;stroke-linecap:round;stroke-linejoin:round" />
  <path
     class="SlurSegment"
     d="m 996.3156,79.172804 c 29.86,17.56 101.23,19.21 142.75,3.3 -41.63,20.669996 -113,19.019996 -142.75,-3.3"
     id="path118"
     inkscape:connector-curvature="0"
     style="fill-rule:evenodd;stroke:#000000;stroke-width:1.98000002;stroke-linecap:round;stroke-linejoin:round" />
  <path
     class="SlurSegment"
     d="m 1657.5856,89.092804 c 36.21,17.119996 108.76,17.299996 145.11,0.37 -36.36,21.689996 -108.92,21.509996 -145.11,-0.37"
     id="path120"
     inkscape:connector-curvature="0"
     style="fill-rule:evenodd;stroke:#000000;stroke-width:1.98000002;stroke-linecap:round;stroke-linejoin:round" />
  <path
     class="SlurSegment"
     d="m 2366.7456,99.012804 c 35.3,12.439996 107.11,13.899996 143.62,2.939996 -36.61,15.73 -108.42,14.26 -143.62,-2.939996"
     id="path122"
     inkscape:connector-curvature="0"
     style="fill-rule:evenodd;stroke:#000000;stroke-width:1.98000002;stroke-linecap:round;stroke-linejoin:round" />
  <path
     class="SlurSegment"
     d="m 180.42356,658.8773 c 61.125,-62.89 379.223,-104.35 454.426,-59.22 -74.588,-40.41 -392.686,1.05 -454.426,59.22"
     id="path124"
     inkscape:connector-curvature="0"
     style="fill-rule:evenodd;stroke:#000000;stroke-width:1.98000002;stroke-linecap:round;stroke-linejoin:round" />
  <path
     class="SlurSegment"
     d="m 700.18356,616.1373 c 321.18204,59.4 1798.60204,71.66 2110.60204,17.51 -312.04,58.91 -1789.46,46.65 -2110.60204,-17.51"
     id="path126"
     inkscape:connector-curvature="0"
     style="fill-rule:evenodd;stroke:#000000;stroke-width:1.98000002;stroke-linecap:round;stroke-linejoin:round" />
  <polyline
     class="BarLine"
     points="104.438,1499.02 104.438,1580.96"
     id="polyline142"
     style="stroke:#000000;stroke-width:3.17000008;stroke-linejoin:bevel"
     transform="translate(-101.74444,-1381.2945)" />
  <polyline
     class="BarLine"
     points="834.413,1499.02 834.413,1580.96"
     id="polyline144"
     style="stroke:#000000;stroke-width:3.17000008;stroke-linejoin:bevel"
     transform="translate(-101.74444,-1381.2945)" />
  <polyline
     class="BarLine"
     points="1525.66,1499.02 1525.66,1580.96"
     id="polyline146"
     style="stroke:#000000;stroke-width:3.17000008;stroke-linejoin:bevel"
     transform="translate(-101.74444,-1381.2945)" />
  <polyline
     class="BarLine"
     points="2221.47,1499.02 2221.47,1580.96"
     id="polyline148"
     style="stroke:#000000;stroke-width:3.17000008;stroke-linejoin:bevel"
     transform="translate(-101.74444,-1381.2945)" />
  <polyline
     class="BarLine"
     points="2902.22,1499.02 2902.22,1580.96"
     id="polyline150"
     style="stroke:#000000;stroke-width:3.17000008;stroke-linejoin:bevel"
     transform="translate(-101.74444,-1381.2945)" />
  <polyline
     class="BarLine"
     points="104.438,3007.05 104.438,3089"
     id="polyline152"
     style="stroke:#000000;stroke-width:3.17000008;stroke-linejoin:bevel"
     transform="translate(-101.74444,-2387.3087)" />
  <polyline
     class="BarLine"
     points="725.763,3007.05 725.763,3089"
     id="polyline154"
     style="stroke:#000000;stroke-width:3.17000008;stroke-linejoin:bevel"
     transform="translate(-101.74444,-2387.3087)" />
  <polyline
     class="BarLine"
     points="1409.22,3007.05 1409.22,3089"
     id="polyline156"
     style="stroke:#000000;stroke-width:3.17000008;stroke-linejoin:bevel"
     transform="translate(-101.74444,-2387.3087)" />
  <polyline
     class="BarLine"
     points="2198.26,3007.05 2198.26,3089"
     id="polyline158"
     style="stroke:#000000;stroke-width:3.17000008;stroke-linejoin:bevel"
     transform="translate(-101.74444,-2387.3087)" />
  <polyline
     class="BarLine"
     points="2902.22,3007.05 2902.22,3089"
     id="polyline160"
     style="stroke:#000000;stroke-width:3.17000008;stroke-linejoin:bevel"
     transform="translate(-101.74444,-2387.3087)" />
  <polyline
     class="BarLine"
     points="104.438,1171.61 104.438,1500.31"
     id="polyline162"
     style="stroke:#000000;stroke-width:3.17000008;stroke-linejoin:bevel"
     transform="matrix(1,0,0,0.00392455,-101.74444,113.1274)" />
  <polyline
     class="BarLine"
     points="104.438,2679.65 104.438,3008.34"
     id="polyline172"
     style="stroke:#000000;stroke-width:3.17000008;stroke-linejoin:bevel"
     transform="matrix(1,0,0,0.00392467,-101.74444,609.2232)" />
  <path
     class="Accidental"
     d="m 2132.2581,255.8441 c 0.3224,0 1.823,-0.7193 2.071,-0.8805 0.075,0 0.1489,-0.074 0.2357,-0.074 0.558,0 1.0293,0.7937 1.0293,1.4262 v 7.8626 c 0,0.8681 -0.3968,1.5874 -0.8681,1.823 -0.4837,0.1612 -2.1455,0.8681 -2.1455,0.8681 -0.558,0.1612 -0.9549,0.7937 -0.9549,1.2774 v 5.6303 c 0,0.4713 0.2356,0.7193 0.6325,0.7193 0.087,0 0.2356,-0.087 0.3224,-0.087 0,0 1.1038,-0.4713 1.8231,-0.7069 0.074,-0.087 0.1612,-0.087 0.2356,-0.087 0.5581,0 0.9549,0.8805 0.9549,1.2774 v 9.7599 c 0,0.4713 0.4713,0.8682 1.0293,0.8682 0.7937,0 1.3518,-0.3969 1.3518,-0.8682 v -11.0373 c 0,-1.0294 0.3969,-1.5874 0.7937,-1.7486 l 4.8367,-1.9843 c 0.087,0 0.248,-0.074 0.3224,-0.074 0.6325,0 1.0293,0.9549 1.0293,1.4262 v 9.9212 c 0,0.4837 0.4837,0.8806 1.0294,0.8806 0.8804,0 1.3517,-0.3969 1.3517,-0.8806 v -11.273 c 0,-0.6325 0.3224,-1.5874 0.8806,-1.823 0.5456,-0.2357 2.2198,-0.8682 2.2198,-0.8682 0.5581,-0.2355 0.955,-0.8804 0.955,-1.3517 v -5.6303 c 0,-0.3969 -0.2481,-0.6449 -0.5582,-0.6449 -0.1612,0 -0.2355,0 -0.3968,0.087 l -2.071,0.7937 c -0.4713,0 -1.0294,-0.4837 -1.0294,-1.4262 v -7.3913 c 0,-0.5457 0.3969,-2.0587 1.0294,-2.2944 l 2.071,-0.7937 c 0.5581,-0.2356 0.955,-0.8805 0.955,-1.3517 v -5.6304 c 0,-0.3968 -0.2481,-0.6448 -0.5582,-0.6448 -0.1612,0 -0.2355,0 -0.3968,0.087 0,0 -1.5874,0.6325 -1.9843,0.7069 -0.558,0 -1.1161,-0.3969 -1.1161,-1.0293 v -9.6857 c 0,-0.4712 -0.4713,-0.8681 -1.1037,-0.8681 -0.7937,0 -1.2774,0.3969 -1.2774,0.8681 v 10.3181 c -0.074,0.7937 -0.31,1.8354 -1.0293,2.3067 -0.9549,0.5581 -3.6461,1.6618 -4.9979,1.9843 -0.7193,0 -0.9549,-0.9549 -0.9549,-1.5874 v -9.5244 c 0,-0.4837 -0.5581,-0.8806 -1.1161,-0.8806 -0.7937,0 -1.265,0.3969 -1.265,0.8806 v 10.7149 c 0,1.1161 -0.4713,1.9098 -0.9549,2.1455 -0.4713,0.2356 -2.0587,0.8681 -2.0587,0.8681 -0.558,0.1612 -0.9549,0.7937 -0.9549,1.2773 v 5.6304 c 0,0.4713 0.2356,0.7193 0.6325,0.7193 m 5.4815,4.4398 c 0,-2.4556 0.074,-5.2335 0.2356,-5.8784 0.1612,-1.3394 3.8073,-3.0136 5.7916,-3.0136 0.558,0 1.0293,0.1613 1.1905,0.4837 0.1612,0.3968 0.3224,2.3811 0.3224,4.5142 0,2.1454 -0.1612,4.3653 -0.3224,5.0846 -0.4713,1.5874 -4.2041,3.1748 -6.0272,3.1748 -0.4836,0 -0.8805,-0.1612 -0.9549,-0.3968 -0.1612,-0.3225 -0.2356,-2.0587 -0.2356,-3.9685"
     id="path242"
     inkscape:connector-curvature="0"
     style="stroke-width:0.79370099" />
  <path
     class="Accidental"
     d="m 2116.8983,619.5862 c 0.2257,0 1.2762,-0.5035 1.4498,-0.6164 0.052,0 0.1042,-0.052 0.1649,-0.052 0.3907,0 0.7206,0.5556 0.7206,0.9984 v 5.5038 c 0,0.6077 -0.2778,1.1112 -0.6077,1.2761 -0.3386,0.1129 -1.5019,0.6077 -1.5019,0.6077 -0.3906,0.1129 -0.6684,0.5556 -0.6684,0.8942 v 3.9412 c 0,0.3299 0.1649,0.5035 0.4427,0.5035 0.061,0 0.165,-0.061 0.2257,-0.061 0,0 0.7727,-0.3299 1.2762,-0.4948 0.052,-0.061 0.1128,-0.061 0.1649,-0.061 0.3907,0 0.6685,0.6164 0.6685,0.8942 v 6.832 c 0,0.3299 0.3298,0.6077 0.7205,0.6077 0.5556,0 0.9462,-0.2778 0.9462,-0.6077 v -7.7262 c 0,-0.7205 0.2778,-1.1111 0.5556,-1.224 l 3.3857,-1.389 c 0.061,0 0.1736,-0.052 0.2257,-0.052 0.4427,0 0.7205,0.6685 0.7205,0.9984 v 6.9449 c 0,0.3385 0.3386,0.6163 0.7206,0.6163 0.6163,0 0.9462,-0.2778 0.9462,-0.6163 v -7.8912 c 0,-0.4427 0.2257,-1.1111 0.6164,-1.2761 0.3819,-0.165 1.5538,-0.6077 1.5538,-0.6077 0.3907,-0.1649 0.6685,-0.6163 0.6685,-0.9462 v -3.9413 c 0,-0.2778 -0.1736,-0.4514 -0.3907,-0.4514 -0.1128,0 -0.1649,0 -0.2778,0.061 l -1.4497,0.5556 c -0.3299,0 -0.7205,-0.3386 -0.7205,-0.9983 v -5.174 c 0,-0.382 0.2778,-1.441 0.7205,-1.606 l 1.4497,-0.5556 c 0.3907,-0.1649 0.6685,-0.6164 0.6685,-0.9462 v -3.9413 c 0,-0.2778 -0.1736,-0.4514 -0.3907,-0.4514 -0.1128,0 -0.1649,0 -0.2778,0.061 0,0 -1.1112,0.4427 -1.3889,0.4948 -0.3907,0 -0.7813,-0.2778 -0.7813,-0.7205 v -6.78 c 0,-0.3298 -0.3299,-0.6076 -0.7726,-0.6076 -0.5556,0 -0.8942,0.2778 -0.8942,0.6076 v 7.2227 c -0.052,0.5556 -0.217,1.2848 -0.7205,1.6147 -0.6685,0.3907 -2.5523,1.1633 -3.4985,1.389 -0.5035,0 -0.6685,-0.6684 -0.6685,-1.1112 v -6.6671 c 0,-0.3386 -0.3906,-0.6163 -0.7813,-0.6163 -0.5556,0 -0.8854,0.2777 -0.8854,0.6163 v 7.5005 c 0,0.7813 -0.3299,1.3369 -0.6685,1.5018 -0.3299,0.165 -1.4411,0.6077 -1.4411,0.6077 -0.3906,0.1129 -0.6684,0.5556 -0.6684,0.8941 v 3.9413 c 0,0.3299 0.1649,0.5035 0.4427,0.5035 m 3.8371,3.1078 c 0,-1.7188 0.052,-3.6634 0.1649,-4.1148 0.1129,-0.9376 2.6651,-2.1095 4.0541,-2.1095 0.3907,0 0.7206,0.1128 0.8334,0.3385 0.1128,0.2778 0.2257,1.6668 0.2257,3.16 0,1.5018 -0.1129,3.0557 -0.2257,3.5592 -0.3299,1.1112 -2.9429,2.2224 -4.219,2.2224 -0.3386,0 -0.6164,-0.1129 -0.6685,-0.2778 -0.1128,-0.2257 -0.1649,-1.4411 -0.1649,-2.778"
     id="path244"
     inkscape:connector-curvature="0"
     style="stroke-width:0.55559099" />
  <polyline
     class="LedgerLine"
     points="225.155,1480.46 267.14,1480.46"
     id="polyline264"
     style="stroke:#000000;stroke-width:3.17000008;stroke-linejoin:bevel"
     transform="translate(-101.74444,-1381.2945)" />
  <polyline
     class="LedgerLine"
     points="225.155,1460.62 267.14,1460.62"
     id="polyline266"
     style="stroke:#000000;stroke-width:3.17000008;stroke-linejoin:bevel"
     transform="translate(-101.74444,-1381.2945)" />
  <polyline
     class="LedgerLine"
     points="225.155,1599.52 267.14,1599.52"
     id="polyline268"
     style="stroke:#000000;stroke-width:3.17000008;stroke-linejoin:bevel"
     transform="translate(-101.74444,-1381.2945)" />
  <polyline
     class="LedgerLine"
     points="372.059,1480.46 414.045,1480.46"
     id="polyline270"
     style="stroke:#000000;stroke-width:3.17000008;stroke-linejoin:bevel"
     transform="translate(-101.74444,-1381.2945)" />
  <polyline
     class="LedgerLine"
     points="372.059,1460.62 414.045,1460.62"
     id="polyline272"
     style="stroke:#000000;stroke-width:3.17000008;stroke-linejoin:bevel"
     transform="translate(-101.74444,-1381.2945)" />
  <polyline
     class="LedgerLine"
     points="527.621,1599.52 569.606,1599.52"
     id="polyline274"
     style="stroke:#000000;stroke-width:3.17000008;stroke-linejoin:bevel"
     transform="translate(-101.74444,-1381.2945)" />
  <polyline
     class="LedgerLine"
     points="855.843,1619.36 897.828,1619.36"
     id="polyline276"
     style="stroke:#000000;stroke-width:3.17000008;stroke-linejoin:bevel"
     transform="translate(-95.74444,-1381.2945)" />
  <polyline
     class="LedgerLine"
     points="855.843,1599.52 897.828,1599.52"
     id="polyline278"
     style="stroke:#000000;stroke-width:3.17000008;stroke-linejoin:bevel"
     transform="translate(-95.74444,-1381.2945)" />
  <polyline
     class="LedgerLine"
     points="1035.91,1480.46 1077.9,1480.46"
     id="polyline280"
     style="stroke:#000000;stroke-width:3.17000008;stroke-linejoin:bevel"
     transform="translate(-101.74444,-1381.2945)" />
  <polyline
     class="LedgerLine"
     points="1035.91,1460.62 1077.9,1460.62"
     id="polyline282"
     style="stroke:#000000;stroke-width:3.17000008;stroke-linejoin:bevel"
     transform="translate(-101.74444,-1381.2945)" />
  <polyline
     class="LedgerLine"
     points="1216.53,1599.52 1258.52,1599.52"
     id="polyline284"
     style="stroke:#000000;stroke-width:3.17000008;stroke-linejoin:bevel"
     transform="translate(-101.74444,-1381.2945)" />
  <polyline
     class="LedgerLine"
     points="1547.09,1619.36 1589.07,1619.36"
     id="polyline286"
     style="stroke:#000000;stroke-width:3.17000008;stroke-linejoin:bevel"
     transform="translate(-101.74444,-1381.2945)" />
  <polyline
     class="LedgerLine"
     points="1547.09,1599.52 1589.07,1599.52"
     id="polyline288"
     style="stroke:#000000;stroke-width:3.17000008;stroke-linejoin:bevel"
     transform="translate(-101.74444,-1381.2945)" />
  <polyline
     class="LedgerLine"
     points="1715.19,1480.46 1757.18,1480.46"
     id="polyline290"
     style="stroke:#000000;stroke-width:3.17000008;stroke-linejoin:bevel"
     transform="translate(-101.74444,-1381.2945)" />
  <polyline
     class="LedgerLine"
     points="1876.73,1619.36 1918.72,1619.36"
     id="polyline292"
     style="stroke:#000000;stroke-width:3.17000008;stroke-linejoin:bevel"
     transform="translate(-101.74444,-1381.2945)" />
  <polyline
     class="LedgerLine"
     points="1876.73,1599.52 1918.72,1599.52"
     id="polyline294"
     style="stroke:#000000;stroke-width:3.17000008;stroke-linejoin:bevel"
     transform="translate(-101.74444,-1381.2945)" />
  <polyline
     class="LedgerLine"
     points="2257.5,1639.2 2299.49,1639.2"
     id="polyline296"
     style="stroke:#000000;stroke-width:3.17000008;stroke-linejoin:bevel"
     transform="translate(-101.74444,-1381.2945)" />
  <polyline
     class="LedgerLine"
     points="2257.5,1619.36 2299.49,1619.36"
     id="polyline298"
     style="stroke:#000000;stroke-width:3.17000008;stroke-linejoin:bevel"
     transform="translate(-101.74444,-1381.2945)" />
  <polyline
     class="LedgerLine"
     points="2257.5,1599.52 2299.49,1599.52"
     id="polyline300"
     style="stroke:#000000;stroke-width:3.17000008;stroke-linejoin:bevel"
     transform="translate(-101.74444,-1381.2945)" />
  <polyline
     class="LedgerLine"
     points="2419.2,1480.46 2461.18,1480.46"
     id="polyline302"
     style="stroke:#000000;stroke-width:3.17000008;stroke-linejoin:bevel"
     transform="translate(-101.74444,-1381.2945)" />
  <polyline
     class="LedgerLine"
     points="2589.55,1619.36 2631.54,1619.36"
     id="polyline304"
     style="stroke:#000000;stroke-width:3.17000008;stroke-linejoin:bevel"
     transform="translate(-101.74444,-1381.2945)" />
  <polyline
     class="LedgerLine"
     points="2589.55,1599.52 2631.54,1599.52"
     id="polyline306"
     style="stroke:#000000;stroke-width:3.17000008;stroke-linejoin:bevel"
     transform="translate(-101.74444,-1381.2945)" />
  <polyline
     class="LedgerLine"
     points="224.758,3107.55 277.061,3107.55"
     id="polyline308"
     style="stroke:#000000;stroke-width:3.17000008;stroke-linejoin:bevel"
     transform="translate(-101.74444,-2387.3087)" />
  <polyline
     class="LedgerLine"
     points="752.352,2988.49 794.337,2988.49"
     id="polyline310"
     style="stroke:#000000;stroke-width:3.17000008;stroke-linejoin:bevel"
     transform="translate(-101.74444,-2387.3087)" />
  <polyline
     class="LedgerLine"
     points="1141.8,2988.49 1183.79,2988.49"
     id="polyline312"
     style="stroke:#000000;stroke-width:3.17000008;stroke-linejoin:bevel"
     transform="translate(-101.74444,-2387.3087)" />
  <polyline
     class="LedgerLine"
     points="1141.8,2968.65 1183.79,2968.65"
     id="polyline314"
     style="stroke:#000000;stroke-width:3.17000008;stroke-linejoin:bevel"
     transform="translate(-101.74444,-2387.3087)" />
  <polyline
     class="LedgerLine"
     points="1435.81,2988.49 1477.79,2988.49"
     id="polyline316"
     style="stroke:#000000;stroke-width:3.17000008;stroke-linejoin:bevel"
     transform="translate(-101.74444,-2387.3087)" />
  <polyline
     class="LedgerLine"
     points="2227.15,2988.49 2269.13,2988.49"
     id="polyline318"
     style="stroke:#000000;stroke-width:3.17000008;stroke-linejoin:bevel"
     transform="translate(-101.74444,-2387.3087)" />
  <polyline
     class="Stem"
     points="234.282,1612.11 234.282,1654.08"
     id="polyline496"
     style="stroke:#000000;stroke-width:2.38000011;stroke-linejoin:bevel"
     transform="translate(-101.74444,-1381.2945)" />
  <polyline
     class="Stem"
     points="536.748,1602.18 536.748,1646.64"
     id="polyline498"
     style="stroke:#000000;stroke-width:2.38000011;stroke-linejoin:bevel"
     transform="translate(-101.74444,-1381.2945)" />
  <polyline
     class="Stem"
     points="864.97,1622.03 864.97,1664.01"
     id="polyline500"
     style="stroke:#000000;stroke-width:2.38000011;stroke-linejoin:bevel"
     transform="translate(-95.74444,-1381.2945)" />
  <polyline
     class="Stem"
     points="1225.66,1612.11 1225.66,1654.08"
     id="polyline502"
     style="stroke:#000000;stroke-width:2.38000011;stroke-linejoin:bevel"
     transform="translate(-101.74444,-1381.2945)" />
  <polyline
     class="Stem"
     points="1556.22,1631.95 1556.22,1673.93"
     id="polyline504"
     style="stroke:#000000;stroke-width:2.38000011;stroke-linejoin:bevel"
     transform="translate(-101.74444,-1381.2945)" />
  <polyline
     class="Stem"
     points="1885.86,1622.03 1885.86,1664.01"
     id="polyline506"
     style="stroke:#000000;stroke-width:2.38000011;stroke-linejoin:bevel"
     transform="translate(-101.74444,-1381.2945)" />
  <polyline
     class="Stem"
     points="2266.63,1641.87 2266.63,1683.85"
     id="polyline508"
     style="stroke:#000000;stroke-width:2.38000011;stroke-linejoin:bevel"
     transform="translate(-101.74444,-1381.2945)" />
  <polyline
     class="Stem"
     points="2598.68,1631.95 2598.68,1673.93"
     id="polyline510"
     style="stroke:#000000;stroke-width:2.38000011;stroke-linejoin:bevel"
     transform="translate(-101.74444,-1381.2945)" />
  <polyline
     class="Stem"
     points="536.748,1512.89 536.748,1579.68"
     id="polyline512"
     style="stroke:#000000;stroke-width:2.38000011;stroke-linejoin:bevel"
     transform="translate(-101.74444,-1381.2945)" />
  <polyline
     class="Stem"
     points="864.97,1532.74 864.97,1559.83"
     id="polyline514"
     style="stroke:#000000;stroke-width:2.38000011;stroke-linejoin:bevel"
     transform="matrix(1,0,0,1.7662981,-95.74444,-2587.8303)" />
  <polyline
     class="Stem"
     points="1225.66,1522.81 1225.66,1567.9"
     id="polyline516"
     style="stroke:#000000;stroke-width:2.38000011;stroke-linejoin:bevel"
     transform="translate(-101.74444,-1381.2945)" />
  <polyline
     class="Stem"
     points="1556.22,1542.66 1556.22,1581.42"
     id="polyline518"
     style="stroke:#000000;stroke-width:2.38000011;stroke-linejoin:bevel"
     transform="matrix(1,0,0,1.2883883,-101.74444,-1854.1796)" />
  <polyline
     class="Stem"
     points="1885.86,1532.74 1885.86,1573.9"
     id="polyline520"
     style="stroke:#000000;stroke-width:2.38000011;stroke-linejoin:bevel"
     transform="translate(-101.74444,-1381.2945)" />
  <polyline
     class="Stem"
     points="2266.63,1552.58 2266.63,1609.44"
     id="polyline522"
     style="stroke:#000000;stroke-width:2.38000011;stroke-linejoin:bevel"
     transform="translate(-101.74444,-1411.2945)" />
  <polyline
     class="Stem"
     points="2598.68,1542.66 2598.68,1602"
     id="polyline524"
     style="stroke:#000000;stroke-width:2.38000011;stroke-linejoin:bevel"
     transform="translate(-101.74444,-1381.2945)" />
  <polyline
     class="Stem"
     points="404.917,1448.03 404.917,1406.05"
     id="polyline528"
     style="stroke:#000000;stroke-width:2.38000011;stroke-linejoin:bevel"
     transform="translate(-101.74444,-1381.2945)" />
  <polyline
     class="Stem"
     points="1068.77,1457.95 1068.77,1415.97"
     id="polyline530"
     style="stroke:#000000;stroke-width:2.38000011;stroke-linejoin:bevel"
     transform="translate(-101.74444,-1381.2945)" />
  <polyline
     class="Stem"
     points="1748.05,1467.87 1748.05,1425.9"
     id="polyline532"
     style="stroke:#000000;stroke-width:2.38000011;stroke-linejoin:bevel"
     transform="translate(-101.74444,-1381.2945)" />
  <polyline
     class="Stem"
     points="2452.06,1477.8 2452.06,1433.34"
     id="polyline534"
     style="stroke:#000000;stroke-width:2.38000011;stroke-linejoin:bevel"
     transform="translate(-101.74444,-1381.2945)" />
  <polyline
     class="Stem"
     points="262.775,3055.28 262.775,2993.45"
     id="polyline536"
     style="stroke:#000000;stroke-width:2.38000011;stroke-linejoin:bevel"
     transform="translate(-101.74444,-2387.3087)" />
  <polyline
     class="Stem"
     points="761.479,2991.16 761.479,3057.94"
     id="polyline538"
     style="stroke:#000000;stroke-width:2.38000011;stroke-linejoin:bevel"
     transform="translate(-101.74444,-2387.3087)" />
  <polyline
     class="Stem"
     points="1439.77,3001.08 1439.77,3037.07"
     id="polyline540"
     style="stroke:#000000;stroke-width:2.38000011;stroke-linejoin:bevel"
     transform="translate(-101.74444,-2387.3087)" />
  <polyline
     class="Stem"
     points="2239.84,3010.2 2239.84,3032.01"
     id="polyline542"
     style="stroke:#000000;stroke-width:1.66999996;stroke-linejoin:bevel"
     transform="translate(-101.74444,-2387.3087)" />
  <polyline
     class="Stem"
     points="258.013,1448.03 258.013,1384.23"
     id="polyline544"
     style="stroke:#000000;stroke-width:2.38000011;stroke-linejoin:bevel"
     transform="translate(-101.74444,-1381.2945)" />
  <polyline
     class="Stem"
     points="1174.66,2965.98 1174.66,2887.34"
     id="polyline546"
     style="stroke:#000000;stroke-width:2.38000011;stroke-linejoin:bevel"
     transform="translate(-101.74444,-2387.3087)" />
  <polyline
     class="Stem"
     points="1468.66,2975.91 1468.66,2892.68"
     id="polyline548"
     style="stroke:#000000;stroke-width:2.38000011;stroke-linejoin:bevel"
     transform="translate(-101.74444,-2387.3087)" />
  <polyline
     class="Stem"
     points="2260.01,2985.83 2260.01,2906.99"
     id="polyline550"
     style="stroke:#000000;stroke-width:2.38000011;stroke-linejoin:bevel"
     transform="translate(-101.74444,-2387.3087)" />
  <path
     class="Note"
     d="m 139.91707,239.2546 c 14.60902,0 17.54825,-11.9055 17.54825,-14.7579 0,-4.5266 -3.57165,-7.4658 -8.73071,-7.4658 -13.25732,0 -17.38705,10.2437 -17.38705,14.8447 0,4.6755 3.73288,7.379 8.56951,7.379 m -5.95277,-7.2177 c 0,-4.291 12.78606,-11.3599 16.99014,-11.3599 1.66185,0 2.61675,0.7937 3.24925,1.9099 0.24803,0.4712 0.48368,1.0293 0.48368,1.6618 0,1.7486 -1.82305,3.8941 -8.02384,7.937 -3.96851,2.7035 -6.74646,3.6584 -8.64392,3.6584 -1.83543,0 -2.93917,-0.9549 -3.49725,-2.071 -0.32244,-0.4713 -0.55806,-1.1038 -0.55806,-1.7362"
     id="path874"
     inkscape:connector-curvature="0"
     style="stroke-width:0.79370099" />
  <path
     class="Note"
     d="m 442.38307,229.3346 c 14.60902,0 17.54825,-11.9055 17.54825,-14.7579 0,-4.5266 -3.57165,-7.4658 -8.73071,-7.4658 -13.25732,0 -17.38705,10.2437 -17.38705,14.8447 0,4.6755 3.73288,7.379 8.56951,7.379 m -5.95277,-7.2177 c 0,-4.291 12.78606,-11.3599 16.99014,-11.3599 1.66185,0 2.61675,0.7937 3.24925,1.9099 0.24803,0.4712 0.48368,1.0293 0.48368,1.6618 0,1.7486 -1.82305,3.8941 -8.02384,7.937 -3.96851,2.7035 -6.74646,3.6584 -8.64392,3.6584 -1.83543,0 -2.93917,-0.9549 -3.49725,-2.071 -0.32244,-0.4713 -0.55806,-1.1038 -0.55806,-1.7362"
     id="path876"
     inkscape:connector-curvature="0"
     style="stroke-width:0.79370099" />
  <path
     class="Note"
     d="m 776.60507,249.1746 c 14.60902,0 17.54825,-11.9055 17.54825,-14.7579 0,-4.5266 -3.57165,-7.4658 -8.73071,-7.4658 -13.25732,0 -17.38705,10.2437 -17.38705,14.8447 0,4.6755 3.73288,7.379 8.56951,7.379 m -5.95277,-7.2177 c 0,-4.291 12.78606,-11.3599 16.99014,-11.3599 1.66185,0 2.61675,0.7937 3.24925,1.9099 0.24803,0.4712 0.48368,1.0293 0.48368,1.6618 0,1.7486 -1.82305,3.8941 -8.02384,7.937 -3.96851,2.7035 -6.74646,3.6584 -8.64392,3.6584 -1.83543,0 -2.93917,-0.9549 -3.49725,-2.071 -0.32244,-0.4713 -0.55806,-1.1038 -0.55806,-1.7362"
     id="path878"
     inkscape:connector-curvature="0"
     style="stroke-width:0.79370099" />
  <path
     class="Note"
     d="m 1131.2951,239.2546 c 14.609,0 17.5483,-11.9055 17.5483,-14.7579 0,-4.5266 -3.5717,-7.4658 -8.7307,-7.4658 -13.2574,0 -17.3871,10.2437 -17.3871,14.8447 0,4.6755 3.7329,7.379 8.5695,7.379 m -5.9528,-7.2177 c 0,-4.291 12.7861,-11.3599 16.9902,-11.3599 1.6618,0 2.6167,0.7937 3.2492,1.9099 0.2481,0.4712 0.4837,1.0293 0.4837,1.6618 0,1.7486 -1.823,3.8941 -8.0238,7.937 -3.9685,2.7035 -6.7465,3.6584 -8.644,3.6584 -1.8354,0 -2.9391,-0.9549 -3.4972,-2.071 -0.3224,-0.4713 -0.5581,-1.1038 -0.5581,-1.7362"
     id="path880"
     inkscape:connector-curvature="0"
     style="stroke-width:0.79370099" />
  <path
     class="Note"
     d="m 1461.8451,259.0946 c 14.609,0 17.5483,-11.9055 17.5483,-14.7579 0,-4.5266 -3.5717,-7.4658 -8.7307,-7.4658 -13.2574,0 -17.3871,10.2437 -17.3871,14.8447 0,4.6755 3.7329,7.379 8.5695,7.379 m -5.9528,-7.2177 c 0,-4.291 12.7861,-11.3599 16.9902,-11.3599 1.6618,0 2.6167,0.7937 3.2492,1.9099 0.2481,0.4712 0.4837,1.0293 0.4837,1.6618 0,1.7486 -1.823,3.8941 -8.0238,7.937 -3.9685,2.7035 -6.7465,3.6584 -8.644,3.6584 -1.8354,0 -2.9391,-0.9549 -3.4972,-2.071 -0.3224,-0.4713 -0.5581,-1.1038 -0.5581,-1.7362"
     id="path882"
     inkscape:connector-curvature="0"
     style="stroke-width:0.79370099" />
  <path
     class="Note"
     d="m 1791.4951,249.1746 c 14.609,0 17.5483,-11.9055 17.5483,-14.7579 0,-4.5266 -3.5717,-7.4658 -8.7307,-7.4658 -13.2574,0 -17.3871,10.2437 -17.3871,14.8447 0,4.6755 3.7329,7.379 8.5695,7.379 m -5.9528,-7.2177 c 0,-4.291 12.7861,-11.3599 16.9902,-11.3599 1.6618,0 2.6167,0.7937 3.2492,1.9099 0.2481,0.4712 0.4837,1.0293 0.4837,1.6618 0,1.7486 -1.823,3.8941 -8.0238,7.937 -3.9685,2.7035 -6.7465,3.6584 -8.644,3.6584 -1.8354,0 -2.9391,-0.9549 -3.4972,-2.071 -0.3224,-0.4713 -0.5581,-1.1038 -0.5581,-1.7362"
     id="path884"
     inkscape:connector-curvature="0"
     style="stroke-width:0.79370099" />
  <path
     class="Note"
     d="m 2172.2651,269.0146 c 14.609,0 17.5483,-11.9055 17.5483,-14.7579 0,-4.5266 -3.5717,-7.4658 -8.7307,-7.4658 -13.2574,0 -17.3871,10.2437 -17.3871,14.8447 0,4.6755 3.7329,7.379 8.5695,7.379 m -5.9528,-7.2177 c 0,-4.291 12.7861,-11.3599 16.9902,-11.3599 1.6618,0 2.6167,0.7937 3.2492,1.9099 0.2481,0.4712 0.4837,1.0293 0.4837,1.6618 0,1.7486 -1.823,3.8941 -8.0238,7.937 -3.9685,2.7035 -6.7465,3.6584 -8.644,3.6584 -1.8354,0 -2.9391,-0.9549 -3.4972,-2.071 -0.3224,-0.4713 -0.5581,-1.1038 -0.5581,-1.7362"
     id="path886"
     inkscape:connector-curvature="0"
     style="stroke-width:0.79370099" />
  <path
     class="Note"
     d="m 2504.3151,259.0946 c 14.609,0 17.5483,-11.9055 17.5483,-14.7579 0,-4.5266 -3.5717,-7.4658 -8.7307,-7.4658 -13.2574,0 -17.3871,10.2437 -17.3871,14.8447 0,4.6755 3.7329,7.379 8.5695,7.379 m -5.9528,-7.2177 c 0,-4.291 12.7861,-11.3599 16.9902,-11.3599 1.6618,0 2.6167,0.7937 3.2492,1.9099 0.2481,0.4712 0.4837,1.0293 0.4837,1.6618 0,1.7486 -1.823,3.8941 -8.0238,7.937 -3.9685,2.7035 -6.7465,3.6584 -8.644,3.6584 -1.8354,0 -2.9391,-0.9549 -3.4972,-2.071 -0.3224,-0.4713 -0.5581,-1.1038 -0.5581,-1.7362"
     id="path888"
     inkscape:connector-curvature="0"
     style="stroke-width:0.79370099" />
  <path
     class="Note"
     d="m 442.38307,140.0446 c 14.60902,0 17.54825,-11.9055 17.54825,-14.7579 0,-4.5266 -3.57165,-7.4658 -8.73071,-7.4658 -13.25732,0 -17.38705,10.2437 -17.38705,14.8447 0,4.6755 3.73288,7.379 8.56951,7.379 m -5.95277,-7.2177 c 0,-4.291 12.78606,-11.3599 16.99014,-11.3599 1.66185,0 2.61675,0.7937 3.24925,1.9099 0.24803,0.4712 0.48368,1.0293 0.48368,1.6618 0,1.7486 -1.82305,3.8941 -8.02384,7.937 -3.96851,2.7035 -6.74646,3.6584 -8.64392,3.6584 -1.83543,0 -2.93917,-0.9549 -3.49725,-2.071 -0.32244,-0.4713 -0.55806,-1.1038 -0.55806,-1.7362"
     id="path890"
     inkscape:connector-curvature="0"
     style="stroke-width:0.79370099" />
  <path
     class="Note"
     d="m 776.60507,127.8846 c 14.60902,0 17.54825,-11.9055 17.54825,-14.7579 0,-4.5266 -3.57165,-7.4658 -8.73071,-7.4658 -13.25732,0 -17.38705,10.2437 -17.38705,14.8447 0,4.6755 3.73288,7.379 8.56951,7.379 m -5.95277,-7.2177 c 0,-4.291 12.78606,-11.3599 16.99014,-11.3599 1.66185,0 2.61675,0.7937 3.24925,1.9099 0.24803,0.4712 0.48368,1.0293 0.48368,1.6618 0,1.7486 -1.82305,3.8941 -8.02384,7.937 -3.96851,2.7035 -6.74646,3.6584 -8.64392,3.6584 -1.83543,0 -2.93917,-0.9549 -3.49725,-2.071 -0.32244,-0.4713 -0.55806,-1.1038 -0.55806,-1.7362"
     id="path892"
     inkscape:connector-curvature="0"
     style="stroke-width:0.79370099" />
  <path
     class="Note"
     d="m 1131.2951,149.9646 c 14.609,0 17.5483,-11.9055 17.5483,-14.7579 0,-4.5266 -3.5717,-7.4658 -8.7307,-7.4658 -13.2574,0 -17.3871,10.2437 -17.3871,14.8447 0,4.6755 3.7329,7.379 8.5695,7.379 m -5.9528,-7.2177 c 0,-4.291 12.7861,-11.3599 16.9902,-11.3599 1.6618,0 2.6167,0.7937 3.2492,1.9099 0.2481,0.4712 0.4837,1.0293 0.4837,1.6618 0,1.7486 -1.823,3.8941 -8.0238,7.937 -3.9685,2.7035 -6.7465,3.6584 -8.644,3.6584 -1.8354,0 -2.9391,-0.9549 -3.4972,-2.071 -0.3224,-0.4713 -0.5581,-1.1038 -0.5581,-1.7362"
     id="path894"
     inkscape:connector-curvature="0"
     style="stroke-width:0.79370099" />
  <path
     class="Note"
     d="m 1461.8451,141.8046 c 14.609,0 17.5483,-11.9055 17.5483,-14.7579 0,-4.5266 -3.5717,-7.4658 -8.7307,-7.4658 -13.2574,0 -17.3871,10.2437 -17.3871,14.8447 0,4.6755 3.7329,7.379 8.5695,7.379 m -5.9528,-7.2177 c 0,-4.291 12.7861,-11.3599 16.9902,-11.3599 1.6618,0 2.6167,0.7937 3.2492,1.9099 0.2481,0.4712 0.4837,1.0293 0.4837,1.6618 0,1.7486 -1.823,3.8941 -8.0238,7.937 -3.9685,2.7035 -6.7465,3.6584 -8.644,3.6584 -1.8354,0 -2.9391,-0.9549 -3.4972,-2.071 -0.3224,-0.4713 -0.5581,-1.1038 -0.5581,-1.7362"
     id="path896"
     inkscape:connector-curvature="0"
     style="stroke-width:0.79370099" />
  <path
     class="Note"
     d="m 1791.4951,159.8846 c 14.609,0 17.5483,-11.9055 17.5483,-14.7579 0,-4.5266 -3.5717,-7.4658 -8.7307,-7.4658 -13.2574,0 -17.3871,10.2437 -17.3871,14.8447 0,4.6755 3.7329,7.379 8.5695,7.379 m -5.9528,-7.2177 c 0,-4.291 12.7861,-11.3599 16.9902,-11.3599 1.6618,0 2.6167,0.7937 3.2492,1.9099 0.2481,0.4712 0.4837,1.0293 0.4837,1.6618 0,1.7486 -1.823,3.8941 -8.0238,7.937 -3.9685,2.7035 -6.7465,3.6584 -8.644,3.6584 -1.8354,0 -2.9391,-0.9549 -3.4972,-2.071 -0.3224,-0.4713 -0.5581,-1.1038 -0.5581,-1.7362"
     id="path898"
     inkscape:connector-curvature="0"
     style="stroke-width:0.79370099" />
  <path
     class="Note"
     d="m 2172.2651,149.7246 c 14.609,0 17.5483,-11.9055 17.5483,-14.7579 0,-4.5266 -3.5717,-7.4658 -8.7307,-7.4658 -13.2574,0 -17.3871,10.2437 -17.3871,14.8447 0,4.6755 3.7329,7.379 8.5695,7.379 m -5.9528,-7.2177 c 0,-4.291 12.7861,-11.3599 16.9902,-11.3599 1.6618,0 2.6167,0.7937 3.2492,1.9099 0.2481,0.4712 0.4837,1.0293 0.4837,1.6618 0,1.7486 -1.823,3.8941 -8.0238,7.937 -3.9685,2.7035 -6.7465,3.6584 -8.644,3.6584 -1.8354,0 -2.9391,-0.9549 -3.4972,-2.071 -0.3224,-0.4713 -0.5581,-1.1038 -0.5581,-1.7362"
     id="path900"
     inkscape:connector-curvature="0"
     style="stroke-width:0.79370099" />
  <path
     class="Note"
     d="m 2504.3151,169.8046 c 14.609,0 17.5483,-11.9055 17.5483,-14.7579 0,-4.5266 -3.5717,-7.4658 -8.7307,-7.4658 -13.2574,0 -17.3871,10.2437 -17.3871,14.8447 0,4.6755 3.7329,7.379 8.5695,7.379 m -5.9528,-7.2177 c 0,-4.291 12.7861,-11.3599 16.9902,-11.3599 1.6618,0 2.6167,0.7937 3.2492,1.9099 0.2481,0.4712 0.4837,1.0293 0.4837,1.6618 0,1.7486 -1.823,3.8941 -8.0238,7.937 -3.9685,2.7035 -6.7465,3.6584 -8.644,3.6584 -1.8354,0 -2.9391,-0.9549 -3.4972,-2.071 -0.3224,-0.4713 -0.5581,-1.1038 -0.5581,-1.7362"
     id="path902"
     inkscape:connector-curvature="0"
     style="stroke-width:0.79370099" />
  <path
     class="Note"
     d="m 130.95056,720.076 c 0,5.7916 4.92343,10.9507 17.7839,10.9507 14.12534,0 18.65198,-4.9111 18.65198,-10.9507 0,-6.1139 -9.76007,-10.7149 -17.78391,-10.7149 -11.50866,0 -18.65197,4.849 -18.65197,10.7149 m 9.28876,-3.1748 c 0,-4.4397 3.08805,-5.5559 7.14331,-5.5559 5.87839,0 10.64059,6.3496 10.64059,11.5955 0,4.3654 -2.70358,6.1016 -6.59763,6.1016 -5.71711,0 -11.18627,-6.5853 -11.18627,-12.1412"
     id="path904"
     inkscape:connector-curvature="0"
     style="stroke-width:0.79370099" />
  <path
     class="Note"
     d="m 1336.8356,710.156 c 0,5.7916 4.9234,10.9507 17.7839,10.9507 14.1253,0 18.652,-4.9111 18.652,-10.9507 0,-6.1139 -9.7601,-10.7149 -17.7839,-10.7149 -11.5087,0 -18.652,4.849 -18.652,10.7149 m 9.2888,-3.1748 c 0,-4.4397 3.088,-5.5559 7.1433,-5.5559 5.8784,0 10.6406,6.3496 10.6406,11.5955 0,4.3654 -2.7036,6.1016 -6.5977,6.1016 -5.7171,0 -11.1862,-6.5853 -11.1862,-12.1412"
     id="path906"
     inkscape:connector-curvature="0"
     style="stroke-width:0.79370099" />
  <path
     class="Note"
     d="m 278.25156,73.135604 c 0,4.601 3.80729,7.379 8.56951,7.379 7.86256,0 17.54825,-7.3046 17.54825,-14.8447 0,-4.4398 -3.57165,-7.379 -8.65634,-7.379 -9.68563,0 -17.46142,7.2178 -17.46142,14.8447"
     id="path910"
     inkscape:connector-curvature="0"
     style="stroke-width:0.79370099" />
  <path
     class="Note"
     d="m 942.10556,83.055604 c 0,4.601 3.8073,7.379 8.5695,7.379 7.8626,0 17.5483,-7.3046 17.5483,-14.8447 0,-4.4398 -3.5717,-7.379 -8.6564,-7.379 -9.6856,0 -17.4614,7.2178 -17.4614,14.8447"
     id="path912"
     inkscape:connector-curvature="0"
     style="stroke-width:0.79370099" />
  <path
     class="Note"
     d="m 1621.3856,92.975604 c 0,4.601 3.8073,7.378996 8.5695,7.378996 7.8626,0 17.5483,-7.304596 17.5483,-14.844696 0,-4.4398 -3.5717,-7.379 -8.6564,-7.379 -9.6856,0 -17.4614,7.2178 -17.4614,14.8447"
     id="path914"
     inkscape:connector-curvature="0"
     style="stroke-width:0.79370099" />
  <path
     class="Note"
     d="m 2325.3856,102.8956 c 0,4.601 3.8073,7.379 8.5695,7.379 7.8626,0 17.5483,-7.3046 17.5483,-14.844696 0,-4.4398 -3.5717,-7.379 -8.6564,-7.379 -9.6856,0 -17.4614,7.2178 -17.4614,14.844696"
     id="path916"
     inkscape:connector-curvature="0"
     style="stroke-width:0.79370099" />
  <path
     class="Note"
     d="m 136.10956,674.3601 c 0,4.601 3.80729,7.379 8.56951,7.379 7.86256,0 17.54825,-7.3046 17.54825,-14.8447 0,-4.4398 -3.57165,-7.379 -8.65634,-7.379 -9.68563,0 -17.46142,7.2178 -17.46142,14.8447"
     id="path918"
     inkscape:connector-curvature="0"
     style="stroke-width:0.79370099" />
  <path
     class="Note"
     d="m 658.54456,604.9101 c 0,4.601 3.80729,7.379 8.56951,7.379 7.86256,0 17.54825,-7.3046 17.54825,-14.8447 0,-4.4398 -3.57165,-7.379 -8.65634,-7.379 -9.68563,0 -17.46142,7.2178 -17.46142,14.8447"
     id="path920"
     inkscape:connector-curvature="0"
     style="stroke-width:0.79370099" />
  <path
     class="Note"
     d="m 1336.8356,614.8401 c 0,4.601 3.8073,7.379 8.5695,7.379 7.8626,0 17.5483,-7.3046 17.5483,-14.8447 0,-4.4398 -3.5717,-7.379 -8.6564,-7.379 -9.6856,0 -17.4614,7.2178 -17.4614,14.8447"
     id="path922"
     inkscape:connector-curvature="0"
     style="stroke-width:0.79370099" />
  <path
     class="Note"
     d="m 2137.2556,623.6403 c 0,3.2207 2.6651,5.1652 5.9987,5.1652 5.5038,0 12.2837,-5.1131 12.2837,-10.3913 0,-3.1078 -2.5001,-5.1652 -6.0594,-5.1652 -6.7799,0 -12.223,5.0524 -12.223,10.3913"
     id="path924"
     inkscape:connector-curvature="0"
     style="stroke-width:0.55559099" />
  <path
     class="Note"
     d="m 139.91707,80.514604 c 14.60902,0 17.54825,-11.9055 17.54825,-14.7579 0,-4.5266 -3.57165,-7.4658 -8.73071,-7.4658 -13.25732,0 -17.38705,10.2437 -17.38705,14.8447 0,4.6755 3.73288,7.379 8.56951,7.379 m -5.95277,-7.2177 c 0,-4.291 12.78606,-11.3599 16.99014,-11.3599 1.66185,0 2.61675,0.7937 3.24925,1.9099 0.24803,0.4712 0.48368,1.0293 0.48368,1.6618 0,1.7486 -1.82305,3.8941 -8.02384,7.937 -3.96851,2.7035 -6.74646,3.6584 -8.64392,3.6584 -1.83543,0 -2.93917,-0.9549 -3.49725,-2.071 -0.32244,-0.4713 -0.55806,-1.1038 -0.55806,-1.7362"
     id="path926"
     inkscape:connector-curvature="0"
     style="stroke-width:0.79370099" />
  <path
     class="Note"
     d="m 1056.5651,592.4491 c 14.609,0 17.5483,-11.9055 17.5483,-14.7579 0,-4.5266 -3.5717,-7.4658 -8.7307,-7.4658 -13.2574,0 -17.3871,10.2437 -17.3871,14.8447 0,4.6755 3.7329,7.379 8.5695,7.379 m -5.9528,-7.2177 c 0,-4.291 12.7861,-11.3599 16.9902,-11.3599 1.6618,0 2.6167,0.7937 3.2492,1.9099 0.2481,0.4712 0.4837,1.0293 0.4837,1.6618 0,1.7486 -1.823,3.8941 -8.0238,7.937 -3.9685,2.7035 -6.7465,3.6584 -8.644,3.6584 -1.8354,0 -2.9391,-0.9549 -3.4972,-2.071 -0.3224,-0.4713 -0.5581,-1.1038 -0.5581,-1.7362"
     id="path928"
     inkscape:connector-curvature="0"
     style="stroke-width:0.79370099" />
  <path
     class="Note"
     d="m 1350.5651,602.3691 c 14.609,0 17.5483,-11.9055 17.5483,-14.7579 0,-4.5266 -3.5717,-7.4658 -8.7307,-7.4658 -13.2574,0 -17.3871,10.2437 -17.3871,14.8447 0,4.6755 3.7329,7.379 8.5695,7.379 m -5.9528,-7.2177 c 0,-4.291 12.7861,-11.3599 16.9902,-11.3599 1.6618,0 2.6167,0.7937 3.2492,1.9099 0.2481,0.4712 0.4837,1.0293 0.4837,1.6618 0,1.7486 -1.823,3.8941 -8.0238,7.937 -3.9685,2.7035 -6.7465,3.6584 -8.644,3.6584 -1.8354,0 -2.9391,-0.9549 -3.4972,-2.071 -0.3224,-0.4713 -0.5581,-1.1038 -0.5581,-1.7362"
     id="path930"
     inkscape:connector-curvature="0"
     style="stroke-width:0.79370099" />
  <path
     class="Note"
     d="m 2141.9151,612.2891 c 14.609,0 17.5483,-11.9055 17.5483,-14.7579 0,-4.5266 -3.5717,-7.4658 -8.7307,-7.4658 -13.2574,0 -17.3871,10.2437 -17.3871,14.8447 0,4.6755 3.7329,7.379 8.5695,7.379 m -5.9528,-7.2177 c 0,-4.291 12.7861,-11.3599 16.9902,-11.3599 1.6618,0 2.6167,0.7937 3.2492,1.9099 0.2481,0.4712 0.4837,1.0293 0.4837,1.6618 0,1.7486 -1.823,3.8941 -8.0238,7.937 -3.9685,2.7035 -6.7465,3.6584 -8.644,3.6584 -1.8354,0 -2.9391,-0.9549 -3.4972,-2.071 -0.3224,-0.4713 -0.5581,-1.1038 -0.5581,-1.7362"
     id="path932"
     inkscape:connector-curvature="0"
     style="stroke-width:0.79370099" />
  <path
     class="Clef"
     d="m 49.44728,198.5365 c 1.82297,0 3.88167,-0.1612 5.46907,-0.4836 0.88053,-0.1488 1.04174,-0.2357 1.19055,0.7192 0.95491,5.3203 2.14546,12.228 2.14546,15.9609 0,11.7443 -7.93701,13.1704 -12.61239,13.1704 -4.29098,0 -6.36199,-1.2649 -6.36199,-2.3066 0,-0.5457 0.71925,-0.7937 2.54231,-1.3394 2.46793,-0.7193 5.32025,-2.8648 5.32025,-7.4658 0,-4.3653 -2.77795,-8.0982 -7.61453,-8.0982 -5.32033,0 -8.49514,4.2042 -8.49514,9.1276 0,5.159 3.08806,12.9348 15.08032,12.9348 5.32034,0 15.63845,-2.3811 15.63845,-15.874 0,-4.5142 -1.4262,-12.0543 -2.30673,-16.9777 -0.1612,-0.955 -0.0744,-0.8806 1.02935,-1.3519 8.02384,-3.1748 13.344096,-9.9212 13.344096,-18.8876 0,-10.1693 -7.465786,-19.1356 -19.135656,-19.1356 -2.05862,0 -2.05862,0 -2.29427,-1.4262 l -1.98425,-11.5086 c -0.1612,-0.9549 0,-1.0294 0.47122,-1.5131 8.56951,-8.0113 15.08032,-18.0938 15.08032,-30.235 0,-6.9076 -1.90981,-13.7409 -5.15906,-18.503496 -1.19055,-1.7358 -3.24917,-3.9685 -4.1297,-3.9685 -1.10373,0 -3.57166,2.0715 -5.15906,3.8201 -5.86593,6.498396 -7.77581,16.419596 -7.77581,24.679096 0,4.601 0.55813,9.76 1.11618,13.0217 0.14882,0.9549 0.23565,1.1037 -0.71933,1.8974 -11.43422,9.45 -23.57538,20.7974 -23.57538,36.8327 0,13.8153 9.45004,26.9114 28.89572,26.9114 M 26.90117,176.9454 c 0,-4.6878 0.7937,-10.9507 7.37896,-18.4164 4.7622,-5.3203 8.42069,-8.2595 12.15354,-11.2731 0.7937,-0.6324 0.94252,-0.558 1.10372,0.3225 l 1.67424,10.1569 c 0.23565,1.513 0.23565,1.4262 -1.19055,1.9098 -6.99449,2.3811 -11.52105,8.6439 -11.52105,15.3904 0,7.1433 3.73285,12.228 9.13994,14.051 0.6325,0.2357 1.5874,0.4837 2.13307,0.4837 0.64489,0 0.95491,-0.3968 0.95491,-0.8805 0,-0.5581 -0.6325,-0.7937 -1.19056,-1.0294 -3.336,-1.4262 -5.7171,-4.8366 -5.7171,-8.4951 0,-4.5265 3.10035,-7.937 7.93701,-9.2888 1.27738,-0.31 1.43858,-0.2356 1.5874,0.6449 l 3.9685,23.6498 c 0.1612,0.8682 0.0868,0.8682 -1.10372,1.1038 -1.27738,0.2481 -2.86478,0.3969 -4.45218,0.3969 -13.88977,0 -22.85613,-7.689 -22.85613,-18.7264 m 30.95434,-73.2686 c 2.61675,0 4.7622,2.1455 4.7622,6.5108 0,8.8176 -7.54016,15.9609 -13.80293,21.43 -0.55805,0.4837 -0.88054,0.3968 -1.04174,-0.6325 -0.31002,-2.0587 -0.4713,-4.7622 -0.4713,-7.3045 0,-12.3768 5.71719,-20.0038 10.55377,-20.0038 m -2.29428,65.5672 c 6.42398,0.558 11.74432,5.9527 11.74432,12.9348 0,5.0103 -3.0136,9.0532 -7.46579,11.2731 -0.9549,0.4837 -1.10372,0.4837 -1.26492,-0.4713 L 54.6807,170.3601 c -0.1612,-0.9549 -0.0744,-1.1906 0.88053,-1.1161"
     id="path1320"
     inkscape:connector-curvature="0"
     style="stroke-width:0.79370099" />
  <path
     class="Clef"
     d="m 49.05028,700.551 c 1.82297,0 3.88167,-0.1612 5.46907,-0.4836 0.88053,-0.1488 1.04174,-0.2357 1.19055,0.7192 0.95491,5.3203 2.14546,12.228 2.14546,15.9609 0,11.7443 -7.93701,13.1704 -12.61239,13.1704 -4.29098,0 -6.36199,-1.2649 -6.36199,-2.3066 0,-0.5457 0.71925,-0.7937 2.54231,-1.3394 2.46793,-0.7193 5.32025,-2.8648 5.32025,-7.4658 0,-4.3653 -2.77795,-8.0982 -7.61453,-8.0982 -5.32033,0 -8.49514,4.2042 -8.49514,9.1276 0,5.159 3.08806,12.9348 15.08032,12.9348 5.32034,0 15.63845,-2.3811 15.63845,-15.874 0,-4.5142 -1.4262,-12.0543 -2.30673,-16.9777 -0.1612,-0.955 -0.0744,-0.8806 1.02935,-1.3519 8.02384,-3.1748 13.344096,-9.9212 13.344096,-18.8876 0,-10.1693 -7.465786,-19.1356 -19.135656,-19.1356 -2.05862,0 -2.05862,0 -2.29427,-1.4262 l -1.98425,-11.5086 c -0.1612,-0.9549 0,-1.0294 0.47122,-1.5131 8.56951,-8.0113 15.08032,-18.0938 15.08032,-30.235 0,-6.9076 -1.90981,-13.7409 -5.15906,-18.5035 -1.19055,-1.7358 -3.24917,-3.9685 -4.1297,-3.9685 -1.10373,0 -3.57166,2.0715 -5.15906,3.8201 -5.86593,6.4984 -7.77581,16.4196 -7.77581,24.6791 0,4.601 0.55813,9.76 1.11618,13.0217 0.14882,0.9549 0.23565,1.1037 -0.71933,1.8974 -11.43422,9.45 -23.57538,20.7974 -23.57538,36.8327 0,13.8153 9.45004,26.9114 28.89572,26.9114 M 26.50417,678.9599 c 0,-4.6878 0.7937,-10.9507 7.37896,-18.4164 4.7622,-5.3203 8.42069,-8.2595 12.15354,-11.2731 0.7937,-0.6324 0.94252,-0.558 1.10372,0.3225 l 1.67424,10.1569 c 0.23565,1.513 0.23565,1.4262 -1.19055,1.9098 -6.99449,2.3811 -11.52105,8.6439 -11.52105,15.3904 0,7.1433 3.73285,12.228 9.13994,14.051 0.6325,0.2357 1.5874,0.4837 2.13307,0.4837 0.64489,0 0.95491,-0.3968 0.95491,-0.8805 0,-0.5581 -0.6325,-0.7937 -1.19056,-1.0294 -3.336,-1.4262 -5.7171,-4.8366 -5.7171,-8.4951 0,-4.5265 3.10035,-7.937 7.93701,-9.2888 1.27738,-0.31 1.43858,-0.2356 1.5874,0.6449 l 3.9685,23.6498 c 0.1612,0.8682 0.0868,0.8682 -1.10372,1.1038 -1.27738,0.2481 -2.86478,0.3969 -4.45218,0.3969 -13.88977,0 -22.85613,-7.689 -22.85613,-18.7264 m 30.95434,-73.2686 c 2.61675,0 4.7622,2.1455 4.7622,6.5108 0,8.8176 -7.54016,15.9609 -13.80293,21.43 -0.55805,0.4837 -0.88054,0.3968 -1.04174,-0.6325 -0.31002,-2.0587 -0.4713,-4.7622 -0.4713,-7.3045 0,-12.3768 5.71719,-20.0038 10.55377,-20.0038 m -2.29428,65.5672 c 6.42398,0.558 11.74432,5.9527 11.74432,12.9348 0,5.0103 -3.0136,9.0532 -7.46579,11.2731 -0.9549,0.4837 -1.10372,0.4837 -1.26492,-0.4713 L 54.2837,672.3746 c -0.1612,-0.9549 -0.0744,-1.1906 0.88053,-1.1161"
     id="path1322"
     inkscape:connector-curvature="0"
     style="stroke-width:0.79370099" />
  <polyline
     class="TextLineSegment"
     points="193.075,1385.86 352.92,1389.5"
     id="polyline1478"
     style="stroke:#000000;stroke-width:8.93000031;stroke-linecap:square;stroke-linejoin:bevel"
     transform="translate(-101.74444,-1381.2945)" />
  <polyline
     class="TextLineSegment"
     points="1113.07,2883.07 2415.6,2905.99"
     id="polyline1480"
     style="stroke:#000000;stroke-width:8.93000031;stroke-linecap:square;stroke-linejoin:bevel"
     transform="translate(-101.74444,-2387.3087)" />
  <polyline
     transform="translate(-102.85,-456.40388)"
     style="fill:none;stroke:#000000;stroke-width:2.57999992;stroke-linejoin:bevel"
     class="StaffLines"
     points="102.85,1493.86 1041.95,1493.86"
     id="polyline126" />
  <polyline
     transform="translate(-102.85,-456.40388)"
     style="fill:none;stroke:#000000;stroke-width:2.57999992;stroke-linejoin:bevel"
     class="StaffLines"
     points="102.85,1513.7 1041.95,1513.7"
     id="polyline128" />
  <polyline
     transform="translate(-102.85,-456.40388)"
     style="fill:none;stroke:#000000;stroke-width:2.57999992;stroke-linejoin:bevel"
     class="StaffLines"
     points="102.85,1533.54 1041.95,1533.54"
     id="polyline130" />
  <polyline
     transform="translate(-102.85,-456.40388)"
     style="fill:none;stroke:#000000;stroke-width:2.57999992;stroke-linejoin:bevel"
     class="StaffLines"
     points="102.85,1553.39 1041.95,1553.39"
     id="polyline132" />
  <polyline
     transform="translate(-102.85,-456.40388)"
     style="fill:none;stroke:#000000;stroke-width:2.57999992;stroke-linejoin:bevel"
     class="StaffLines"
     points="102.85,1573.23 1041.95,1573.23"
     id="polyline134" />
  <polyline
     transform="translate(-102.85,-456.40388)"
     style="fill:none;stroke:#000000;stroke-width:2.57999992;stroke-linejoin:bevel"
     class="StaffLines"
     points="1041.95,1493.86 1760.55,1493.86"
     id="polyline136" />
  <polyline
     transform="translate(-102.85,-456.40388)"
     style="fill:none;stroke:#000000;stroke-width:2.57999992;stroke-linejoin:bevel"
     class="StaffLines"
     points="1041.95,1513.7 1760.55,1513.7"
     id="polyline138" />
  <polyline
     transform="translate(-102.85,-456.40388)"
     style="fill:none;stroke:#000000;stroke-width:2.57999992;stroke-linejoin:bevel"
     class="StaffLines"
     points="1041.95,1533.54 1760.55,1533.54"
     id="polyline140" />
  <polyline
     transform="translate(-102.85,-456.40388)"
     style="fill:none;stroke:#000000;stroke-width:2.57999992;stroke-linejoin:bevel"
     class="StaffLines"
     points="1041.95,1553.39 1760.55,1553.39"
     id="polyline142-6" />
  <polyline
     transform="translate(-102.85,-456.40388)"
     style="fill:none;stroke:#000000;stroke-width:2.57999992;stroke-linejoin:bevel"
     class="StaffLines"
     points="1041.95,1573.23 1760.55,1573.23"
     id="polyline144-7" />
  <polyline
     transform="translate(-102.85,-456.40388)"
     style="fill:none;stroke:#000000;stroke-width:2.57999992;stroke-linejoin:bevel"
     class="StaffLines"
     points="1760.55,1493.86 2233.18,1493.86"
     id="polyline146-1" />
  <polyline
     transform="translate(-102.85,-456.40388)"
     style="fill:none;stroke:#000000;stroke-width:2.57999992;stroke-linejoin:bevel"
     class="StaffLines"
     points="1760.55,1513.7 2233.18,1513.7"
     id="polyline148-0" />
  <polyline
     transform="translate(-102.85,-456.40388)"
     style="fill:none;stroke:#000000;stroke-width:2.57999992;stroke-linejoin:bevel"
     class="StaffLines"
     points="1760.55,1533.54 2233.18,1533.54"
     id="polyline150-0" />
  <polyline
     transform="translate(-102.85,-456.40388)"
     style="fill:none;stroke:#000000;stroke-width:2.57999992;stroke-linejoin:bevel"
     class="StaffLines"
     points="1760.55,1553.39 2233.18,1553.39"
     id="polyline152-3" />
  <polyline
     transform="translate(-102.85,-456.40388)"
     style="fill:none;stroke:#000000;stroke-width:2.57999992;stroke-linejoin:bevel"
     class="StaffLines"
     points="1760.55,1573.23 2233.18,1573.23"
     id="polyline154-4" />
  <polyline
     transform="translate(-102.85,-456.40388)"
     style="fill:none;stroke:#000000;stroke-width:3.17000008;stroke-linejoin:bevel"
     class="BarLine"
     points="104.438,1492.57 104.438,1574.52"
     id="polyline158-1" />
  <polyline
     transform="translate(-102.85,-456.40388)"
     style="fill:none;stroke:#000000;stroke-width:3.17000008;stroke-linejoin:bevel"
     class="BarLine"
     points="1040.36,1492.57 1040.36,1574.52"
     id="polyline160-1" />
  <polyline
     transform="translate(-102.85,-456.40388)"
     style="fill:none;stroke:#000000;stroke-width:3.17000008;stroke-linejoin:bevel"
     class="BarLine"
     points="1758.96,1492.57 1758.96,1574.52"
     id="polyline162-9" />
  <path
     style="stroke-width:0.79370099"
     inkscape:connector-curvature="0"
     class="BarLine"
     d="m 2098.1515,1067.2154 c 0,2.2199 1.7486,3.9685 3.9685,3.9685 2.1455,0 3.9685,-1.7486 3.9685,-3.9685 0,-2.2199 -1.823,-3.9685 -3.9685,-3.9685 -2.2199,0 -3.9685,1.7486 -3.9685,3.9685"
     id="path164" />
  <path
     style="stroke-width:0.79370099"
     inkscape:connector-curvature="0"
     class="BarLine"
     d="m 2098.1515,1087.0554 c 0,2.2199 1.7486,3.9685 3.9685,3.9685 2.1455,0 3.9685,-1.7486 3.9685,-3.9685 0,-2.2199 -1.823,-3.9685 -3.9685,-3.9685 -2.2199,0 -3.9685,1.7486 -3.9685,3.9685"
     id="path166" />
  <polyline
     transform="translate(-102.85,-456.40388)"
     style="fill:none;stroke:#000000;stroke-width:3.17000008;stroke-linejoin:bevel"
     class="BarLine"
     points="2212.71,1492.57 2212.71,1574.52"
     id="polyline168-7" />
  <polyline
     transform="translate(-102.85,-456.40388)"
     style="fill:none;stroke:#000000;stroke-width:9.92000008;stroke-linejoin:bevel"
     class="BarLine"
     points="2227.19,1492.57 2227.19,1574.52"
     id="polyline170-0" />
  <polyline
     transform="matrix(1,0,0,0.00392467,-102.85,1031.5925)"
     style="fill:none;stroke:#000000;stroke-width:3.17000008;stroke-linejoin:bevel"
     class="BarLine"
     points="104.438,1165.17 104.438,1493.86"
     id="polyline172-4" />
  <polyline
     transform="translate(-102.85,74.291204)"
     style="fill:none;stroke:#000000;stroke-width:2.38000011;stroke-linejoin:bevel"
     class="Stem"
     points="262.775,945.522 262.775,861.915"
     id="polyline258" />
  <path
     style="stroke-width:0.79370099"
     inkscape:connector-curvature="0"
     class="Note"
     d="m 143.57394,1033.592 c 14.60903,0 17.54823,-11.9055 17.54823,-14.7578 0,-4.5266 -3.5717,-7.4658 -8.73073,-7.4658 -13.2573,0 -17.3871,10.2437 -17.3871,14.8447 0,4.6754 3.7329,7.3789 8.5696,7.3789 m -5.9528,-7.2177 c 0,-4.2909 12.786,-11.3598 16.99013,-11.3598 1.6619,0 2.6168,0.7937 3.2493,1.9098 0.248,0.4713 0.4836,1.0293 0.4836,1.6618 0,1.7486 -1.823,3.8941 -8.02383,7.937 -3.9685,2.7036 -6.7464,3.6585 -8.6439,3.6585 -1.8354,0 -2.9392,-0.9549 -3.4973,-2.0711 -0.3224,-0.4712 -0.558,-1.1037 -0.558,-1.7362"
     id="path334" />
  <path
     style="stroke-width:0.79370099"
     inkscape:connector-curvature="0"
     class="Clef"
     d="m 47.94502,1116.9891 c 1.8229,0 3.8816,-0.1612 5.469,-0.4836 0.8806,-0.1488 1.0418,-0.2356 1.1906,0.7193 0.9549,5.3202 2.1454,12.228 2.1454,15.9608 0,11.7443 -7.937,13.1705 -12.6124,13.1705 -4.29093,0 -6.36193,-1.265 -6.36193,-2.3067 0,-0.5457 0.7192,-0.7937 2.54233,-1.3394 2.4679,-0.7193 5.3202,-2.8647 5.3202,-7.4658 0,-4.3653 -2.7779,-8.0982 -7.61453,-8.0982 -5.3203,0 -8.4952,4.2042 -8.4952,9.1276 0,5.1591 3.0881,12.9349 15.08043,12.9349 5.3203,0 15.6384,-2.3811 15.6384,-15.8741 0,-4.5141 -1.4262,-12.0543 -2.3067,-16.9777 -0.1612,-0.955 -0.074,-0.8805 1.0293,-1.3518 8.02393,-3.1748 13.344126,-9.9213 13.344126,-18.8876 0,-10.1693 -7.465796,-19.1356 -19.135626,-19.1356 -2.0586,0 -2.0586,0 -2.2943,-1.4262 l -1.9842,-11.5087 c -0.1612,-0.9549 0,-1.0293 0.4712,-1.513 8.5695,-8.0114 15.08033,-18.0939 15.08033,-30.235 0,-6.9077 -1.90983,-13.741 -5.15913,-18.5036 -1.1905,-1.7358 -3.2491,-3.9685 -4.1297,-3.9685 -1.1037,0 -3.5716,2.0716 -5.159,3.8201 -5.866,6.4984 -7.7758,16.4197 -7.7758,24.6791 0,4.601 0.5581,9.7601 1.1161,13.0217 0.1489,0.9549 0.2357,1.1037 -0.7193,1.8974 -11.43423,9.4501 -23.57543,20.7974 -23.57543,36.8327 0,13.8154 9.4501,26.9114 28.89583,26.9114 M 25.39879,1095.398 c 0,-4.6878 0.7937,-10.9506 7.379,-18.4163 4.7622,-5.3204 8.42073,-8.2595 12.15353,-11.2731 0.7937,-0.6324 0.9426,-0.5581 1.1038,0.3225 l 1.6742,10.1569 c 0.2357,1.5129 0.2357,1.4261 -1.1905,1.9098 -6.99453,2.3811 -11.52113,8.6439 -11.52113,15.3904 0,7.1433 3.7329,12.2279 9.13993,14.051 0.6325,0.2356 1.5874,0.4836 2.1331,0.4836 0.6449,0 0.9549,-0.3968 0.9549,-0.8805 0,-0.558 -0.6325,-0.7937 -1.1905,-1.0293 -3.336,-1.4262 -5.7171,-4.8367 -5.7171,-8.4951 0,-4.5266 3.1003,-7.937 7.937,-9.2888 1.2774,-0.3101 1.4386,-0.2356 1.5874,0.6448 l 3.9685,23.6499 c 0.1612,0.8681 0.087,0.8681 -1.1037,1.1038 -1.2774,0.248 -2.8648,0.3968 -4.4522,0.3968 -13.88983,0 -22.85623,-7.689 -22.85623,-18.7264 m 30.95443,-73.2685 c 2.6167,0 4.7622,2.1454 4.7622,6.5108 0,8.8175 -7.5402,15.9608 -13.8029,21.4299 -0.5581,0.4837 -0.8806,0.3969 -1.0418,-0.6325 -0.31,-2.0586 -0.4713,-4.7622 -0.4713,-7.3045 0,-12.3767 5.7172,-20.0037 10.5538,-20.0037 m -2.2943,65.5671 c 6.424,0.5581 11.74433,5.9528 11.74433,12.9349 0,5.0102 -3.0136,9.0531 -7.46583,11.273 -0.9549,0.4837 -1.1037,0.4837 -1.2649,-0.4713 l -3.8941,-22.6205 c -0.1612,-0.9549 -0.074,-1.1905 0.8805,-1.1161"
     id="path430" />
  <polyline
     transform="translate(-102.85,74.291204)"
     style="stroke:#000000;stroke-width:8.93000031;stroke-linecap:square;stroke-linejoin:bevel"
     class="TextLineSegment"
     points="165.71,863.692 260.028,867.084"
     id="polyline478-3" />
  <path
     class="Note"
     d="m 137.58236,120.89596 c 14.60902,0 17.54825,-11.9055 17.54825,-14.7579 0,-4.5266 -3.57165,-7.4658 -8.73071,-7.4658 -13.25732,0 -17.38705,10.2437 -17.38705,14.8447 0,4.6755 3.73288,7.379 8.56951,7.379 m -5.95277,-7.2177 c 0,-4.291 12.78606,-11.3599 16.99014,-11.3599 1.66185,0 2.61675,0.7937 3.24925,1.9099 0.24803,0.4712 0.48368,1.0293 0.48368,1.6618 0,1.7486 -1.82305,3.8941 -8.02384,7.937 -3.96851,2.7035 -6.74646,3.6584 -8.64392,3.6584 -1.83543,0 -2.93917,-0.9549 -3.49725,-2.071 -0.32244,-0.4713 -0.55806,-1.1038 -0.55806,-1.7362"
     id="path874-7"
     inkscape:connector-curvature="0"
     style="stroke-width:0.79370099" />
  <polyline
     class="Stem"
     points="234.282,1612.11 234.282,1654.08"
     id="polyline496-1"
     style="stroke:#000000;stroke-width:2.38000011;stroke-linejoin:bevel"
     transform="translate(-103.25827,-1494.0044)" />
  <polyline
     class="Stem"
     points="2452.06,1477.8 2452.06,1433.34"
     id="polyline534-4"
     style="stroke:#000000;stroke-width:2.38000011;stroke-linejoin:bevel"
     transform="translate(236.81311,-1371.9716)" />
  <path
     class="Note"
     d="m 2663.9431,112.21846 c 0,4.601 3.8073,7.379 8.5695,7.379 7.8626,0 17.5483,-7.3046 17.5483,-14.84469 0,-4.4398 -3.5717,-7.379 -8.6564,-7.379 -9.6856,0 -17.4614,7.2178 -17.4614,14.84469"
     id="path916-0"
     inkscape:connector-curvature="0"
     style="stroke-width:0.79370099" />
  <path
     class="Accidental"
     d="m 742.1494,117.2974 c 0.3224,0 1.823,-0.7193 2.071,-0.8805 0.075,0 0.1489,-0.074 0.2357,-0.074 0.558,0 1.0293,0.7937 1.0293,1.4262 v 7.8626 c 0,0.8681 -0.3968,1.5874 -0.8681,1.823 -0.4837,0.1612 -2.1455,0.8681 -2.1455,0.8681 -0.558,0.1612 -0.9549,0.7937 -0.9549,1.2774 v 5.6303 c 0,0.4713 0.2356,0.7193 0.6325,0.7193 0.087,0 0.2356,-0.087 0.3224,-0.087 0,0 1.1038,-0.4713 1.8231,-0.7069 0.074,-0.087 0.1612,-0.087 0.2356,-0.087 0.5581,0 0.9549,0.8805 0.9549,1.2774 v 9.7599 c 0,0.4713 0.4713,0.8682 1.0293,0.8682 0.7937,0 1.3518,-0.3969 1.3518,-0.8682 v -11.0373 c 0,-1.0294 0.3969,-1.5874 0.7937,-1.7486 l 4.8367,-1.9843 c 0.087,0 0.248,-0.074 0.3224,-0.074 0.6325,0 1.0293,0.9549 1.0293,1.4262 v 9.9212 c 0,0.4837 0.4837,0.8806 1.0294,0.8806 0.8804,0 1.3517,-0.3969 1.3517,-0.8806 v -11.273 c 0,-0.6325 0.3224,-1.5874 0.8806,-1.823 0.5456,-0.2357 2.2198,-0.8682 2.2198,-0.8682 0.5581,-0.2355 0.955,-0.8804 0.955,-1.3517 v -5.6303 c 0,-0.3969 -0.2481,-0.6449 -0.5582,-0.6449 -0.1612,0 -0.2355,0 -0.3968,0.087 l -2.071,0.7937 c -0.4713,0 -1.0294,-0.4837 -1.0294,-1.4262 v -7.3913 c 0,-0.5457 0.3969,-2.0587 1.0294,-2.2944 l 2.071,-0.7937 c 0.5581,-0.2356 0.955,-0.8805 0.955,-1.3517 v -5.6304 c 0,-0.3968 -0.2481,-0.6448 -0.5582,-0.6448 -0.1612,0 -0.2355,0 -0.3968,0.087 0,0 -1.5874,0.6325 -1.9843,0.7069 -0.558,0 -1.1161,-0.3969 -1.1161,-1.0293 v -9.6857 c 0,-0.4712 -0.4713,-0.8681 -1.1037,-0.8681 -0.7937,0 -1.2774,0.3969 -1.2774,0.8681 v 10.3181 c -0.074,0.7937 -0.31,1.8354 -1.0293,2.3067 -0.9549,0.5581 -3.6461,1.6618 -4.9979,1.9843 -0.7193,0 -0.9549,-0.9549 -0.9549,-1.5874 v -9.5244 c 0,-0.4837 -0.5581,-0.8806 -1.1161,-0.8806 -0.7937,0 -1.265,0.3969 -1.265,0.8806 v 10.7149 c 0,1.1161 -0.4713,1.9098 -0.9549,2.1455 -0.4713,0.2356 -2.0587,0.8681 -2.0587,0.8681 -0.558,0.1612 -0.9549,0.7937 -0.9549,1.2773 v 5.6304 c 0,0.4713 0.2356,0.7193 0.6325,0.7193 m 5.4815,4.4398 c 0,-2.4556 0.074,-5.2335 0.2356,-5.8784 0.1612,-1.3394 3.8073,-3.0136 5.7916,-3.0136 0.558,0 1.0293,0.1613 1.1905,0.4837 0.1612,0.3968 0.3224,2.3811 0.3224,4.5142 0,2.1454 -0.1612,4.3653 -0.3224,5.0846 -0.4713,1.5874 -4.2041,3.1748 -6.0272,3.1748 -0.4836,0 -0.8805,-0.1612 -0.9549,-0.3968 -0.1612,-0.3225 -0.2356,-2.0587 -0.2356,-3.9685"
     id="path262-2"
     inkscape:connector-curvature="0"
     style="stroke-width:0.79370099" />
</svg>
