<?xml version="1.0" encoding="UTF-8" standalone="no"?>
<svg
   xmlns:dc="http://purl.org/dc/elements/1.1/"
   xmlns:cc="http://creativecommons.org/ns#"
   xmlns:rdf="http://www.w3.org/1999/02/22-rdf-syntax-ns#"
   xmlns:svg="http://www.w3.org/2000/svg"
   xmlns="http://www.w3.org/2000/svg"
   xmlns:sodipodi="http://sodipodi.sourceforge.net/DTD/sodipodi-0.dtd"
   xmlns:inkscape="http://www.inkscape.org/namespaces/inkscape"
   width="2831.3296"
   height="720.48383"
   viewBox="0 0 2831.3297 720.48384"
   version="1.2"
   id="svg584"
   sodipodi:docname="KV 545-Exposition-1c.svg"
   inkscape:version="0.92.3 (2405546, 2018-03-11)">
  <metadata
     id="metadata590">
    <rdf:RDF>
      <cc:Work
         rdf:about="">
        <dc:format>image/svg+xml</dc:format>
        <dc:type
           rdf:resource="http://purl.org/dc/dcmitype/StillImage" />
      </cc:Work>
    </rdf:RDF>
  </metadata>
  <defs
     id="defs588" />
  <sodipodi:namedview
     pagecolor="#ffffff"
     bordercolor="#666666"
     borderopacity="1"
     objecttolerance="10"
     gridtolerance="10"
     guidetolerance="10"
     inkscape:pageopacity="0"
     inkscape:pageshadow="2"
     inkscape:window-width="3840"
     inkscape:window-height="2066"
     id="namedview586"
     showgrid="false"
     inkscape:zoom="0.76771219"
     inkscape:cx="1702.1821"
     inkscape:cy="271.12396"
     inkscape:window-x="-11"
     inkscape:window-y="-11"
     inkscape:window-maximized="1"
     inkscape:current-layer="svg584" />
  <title
     id="title2">KV 545-Exposition (1)</title>
  <desc
     id="desc4">Generated by MuseScore 3.6.2</desc>
  <polyline
     class="StaffLines"
     points="102.85,958.11 2903.81,958.11"
     id="polyline26"
     style="fill:none;stroke:#000000;stroke-width:2.57999992;stroke-linejoin:bevel"
     transform="translate(-72.480325,-927.15619)" />
  <polyline
     class="StaffLines"
     points="102.85,977.953 2903.81,977.953"
     id="polyline28"
     style="fill:none;stroke:#000000;stroke-width:2.57999992;stroke-linejoin:bevel"
     transform="translate(-72.480325,-927.15619)" />
  <polyline
     class="StaffLines"
     points="102.85,997.795 2903.81,997.795"
     id="polyline30"
     style="fill:none;stroke:#000000;stroke-width:2.57999992;stroke-linejoin:bevel"
     transform="translate(-72.480325,-927.15619)" />
  <polyline
     class="StaffLines"
     points="102.85,1017.64 2903.81,1017.64"
     id="polyline32"
     style="fill:none;stroke:#000000;stroke-width:2.57999992;stroke-linejoin:bevel"
     transform="translate(-72.480325,-927.15619)" />
  <polyline
     class="StaffLines"
     points="102.85,1037.48 2903.81,1037.48"
     id="polyline34"
     style="fill:none;stroke:#000000;stroke-width:2.57999992;stroke-linejoin:bevel"
     transform="translate(-72.480325,-927.15619)" />
  <polyline
     class="StaffLines"
     points="102.85,1166.46 2903.81,1166.46"
     id="polyline36"
     style="fill:none;stroke:#000000;stroke-width:2.57999992;stroke-linejoin:bevel"
     transform="translate(-72.480325,-927.15619)" />
  <polyline
     class="StaffLines"
     points="102.85,1186.3 2903.81,1186.3"
     id="polyline38"
     style="fill:none;stroke:#000000;stroke-width:2.57999992;stroke-linejoin:bevel"
     transform="translate(-72.480325,-927.15619)" />
  <polyline
     class="StaffLines"
     points="102.85,1206.14 2903.81,1206.14"
     id="polyline40"
     style="fill:none;stroke:#000000;stroke-width:2.57999992;stroke-linejoin:bevel"
     transform="translate(-72.480325,-927.15619)" />
  <polyline
     class="StaffLines"
     points="102.85,1225.98 2903.81,1225.98"
     id="polyline42"
     style="fill:none;stroke:#000000;stroke-width:2.57999992;stroke-linejoin:bevel"
     transform="translate(-72.480325,-927.15619)" />
  <polyline
     class="StaffLines"
     points="102.85,1245.83 2903.81,1245.83"
     id="polyline44"
     style="fill:none;stroke:#000000;stroke-width:2.57999992;stroke-linejoin:bevel"
     transform="translate(-72.480325,-927.15619)" />
  <polyline
     class="StaffLines"
     points="102.85,1493.86 2903.81,1493.86"
     id="polyline46"
     style="fill:none;stroke:#000000;stroke-width:2.57999992;stroke-linejoin:bevel"
     transform="translate(-72.480325,-927.15619)" />
  <polyline
     class="StaffLines"
     points="102.85,1513.7 2903.81,1513.7"
     id="polyline48"
     style="fill:none;stroke:#000000;stroke-width:2.57999992;stroke-linejoin:bevel"
     transform="translate(-72.480325,-927.15619)" />
  <polyline
     class="StaffLines"
     points="102.85,1533.54 2903.81,1533.54"
     id="polyline50"
     style="fill:none;stroke:#000000;stroke-width:2.57999992;stroke-linejoin:bevel"
     transform="translate(-72.480325,-927.15619)" />
  <polyline
     class="StaffLines"
     points="102.85,1553.39 2903.81,1553.39"
     id="polyline52"
     style="fill:none;stroke:#000000;stroke-width:2.57999992;stroke-linejoin:bevel"
     transform="translate(-72.480325,-927.15619)" />
  <polyline
     class="StaffLines"
     points="102.85,1573.23 2903.81,1573.23"
     id="polyline54"
     style="fill:none;stroke:#000000;stroke-width:2.57999992;stroke-linejoin:bevel"
     transform="translate(-72.480325,-927.15619)" />
  <polyline
     class="BarLine"
     points="104.438,1492.57 104.438,1574.52"
     id="polyline74"
     style="stroke:#000000;stroke-width:3.17000008;stroke-linejoin:bevel"
     transform="translate(-72.480325,-927.15619)" />
  <polyline
     class="BarLine"
     points="893.878,1492.57 893.878,1574.52"
     id="polyline76"
     style="stroke:#000000;stroke-width:3.17000008;stroke-linejoin:bevel"
     transform="translate(-72.480325,-927.15619)" />
  <polyline
     class="BarLine"
     points="1575.36,1492.57 1575.36,1574.52"
     id="polyline78"
     style="stroke:#000000;stroke-width:3.17000008;stroke-linejoin:bevel"
     transform="translate(-72.480325,-927.15619)" />
  <polyline
     class="BarLine"
     points="2222.73,1492.57 2222.73,1574.52"
     id="polyline80"
     style="stroke:#000000;stroke-width:3.17000008;stroke-linejoin:bevel"
     transform="translate(-72.480325,-927.15619)" />
  <polyline
     class="BarLine"
     points="2902.22,1492.57 2902.22,1574.52"
     id="polyline82"
     style="stroke:#000000;stroke-width:3.17000008;stroke-linejoin:bevel"
     transform="translate(-72.480325,-927.15619)" />
  <polyline
     class="BarLine"
     points="104.438,1165.17 104.438,1493.86"
     id="polyline84"
     style="stroke:#000000;stroke-width:3.17000008;stroke-linejoin:bevel"
     transform="translate(-72.480325,-927.15619)" />
  <polyline
     class="BarLine"
     points="893.878,1165.17 893.878,1247.12"
     id="polyline86"
     style="stroke:#000000;stroke-width:3.17000008;stroke-linejoin:bevel"
     transform="translate(-72.480325,-927.15619)" />
  <polyline
     class="BarLine"
     points="1575.36,1165.17 1575.36,1247.12"
     id="polyline88"
     style="stroke:#000000;stroke-width:3.17000008;stroke-linejoin:bevel"
     transform="translate(-72.480325,-927.15619)" />
  <polyline
     class="BarLine"
     points="2222.73,1165.17 2222.73,1247.12"
     id="polyline90"
     style="stroke:#000000;stroke-width:3.17000008;stroke-linejoin:bevel"
     transform="translate(-72.480325,-927.15619)" />
  <polyline
     class="BarLine"
     points="2902.22,1165.17 2902.22,1247.12"
     id="polyline92"
     style="stroke:#000000;stroke-width:3.17000008;stroke-linejoin:bevel"
     transform="translate(-72.480325,-927.15619)" />
  <polyline
     class="BarLine"
     points="104.438,956.821 104.438,1166.46"
     id="polyline94"
     style="stroke:#000000;stroke-width:3.17000008;stroke-linejoin:bevel"
     transform="translate(-72.480325,-927.15619)" />
  <polyline
     class="BarLine"
     points="893.878,956.821 893.878,1038.77"
     id="polyline96"
     style="stroke:#000000;stroke-width:3.17000008;stroke-linejoin:bevel"
     transform="translate(-72.480325,-927.15619)" />
  <polyline
     class="BarLine"
     points="1575.36,956.821 1575.36,1038.77"
     id="polyline98"
     style="stroke:#000000;stroke-width:3.17000008;stroke-linejoin:bevel"
     transform="translate(-72.480325,-927.15619)" />
  <polyline
     class="BarLine"
     points="2222.73,956.821 2222.73,1038.77"
     id="polyline100"
     style="stroke:#000000;stroke-width:3.17000008;stroke-linejoin:bevel"
     transform="translate(-72.480325,-927.15619)" />
  <polyline
     class="BarLine"
     points="2902.22,956.821 2902.22,1038.77"
     id="polyline102"
     style="stroke:#000000;stroke-width:3.17000008;stroke-linejoin:bevel"
     transform="translate(-72.480325,-927.15619)" />
  <polyline
     class="BarLine"
     points="104.438,629.419 104.438,958.11"
     id="polyline104"
     style="stroke:#000000;stroke-width:3.17000008;stroke-linejoin:bevel"
     transform="matrix(1,0,0,0.00392162,-72.480325,27.19647)" />
  <polyline
     class="LedgerLine"
     points="267.94,1593.07 320.244,1593.07"
     id="polyline124"
     style="stroke:#000000;stroke-width:3.17000008;stroke-linejoin:bevel"
     transform="translate(-72.480325,-927.15619)" />
  <polyline
     class="LedgerLine"
     points="1251.39,1593.07 1293.38,1593.07"
     id="polyline126"
     style="stroke:#000000;stroke-width:3.17000008;stroke-linejoin:bevel"
     transform="translate(-72.480325,-927.15619)" />
  <polyline
     class="LedgerLine"
     points="1601.95,1474.02 1643.93,1474.02"
     id="polyline128"
     style="stroke:#000000;stroke-width:3.17000008;stroke-linejoin:bevel"
     transform="translate(-72.480325,-927.15619)" />
  <polyline
     class="LedgerLine"
     points="1596.79,1593.07 1649.09,1593.07"
     id="polyline130"
     style="stroke:#000000;stroke-width:3.17000008;stroke-linejoin:bevel"
     transform="translate(-72.480325,-927.15619)" />
  <polyline
     class="LedgerLine"
     points="2244.16,1593.07 2286.14,1593.07"
     id="polyline132"
     style="stroke:#000000;stroke-width:3.17000008;stroke-linejoin:bevel"
     transform="translate(-72.480325,-927.15619)" />
  <polyline
     class="LedgerLine"
     points="2578.25,1593.07 2620.24,1593.07"
     id="polyline134"
     style="stroke:#000000;stroke-width:3.17000008;stroke-linejoin:bevel"
     transform="translate(-72.480325,-927.15619)" />
  <polyline
     class="LedgerLine"
     points="267.94,1265.67 320.244,1265.67"
     id="polyline136"
     style="stroke:#000000;stroke-width:3.17000008;stroke-linejoin:bevel"
     transform="translate(-72.480325,-927.15619)" />
  <polyline
     class="LedgerLine"
     points="1251.39,1265.67 1293.38,1265.67"
     id="polyline138"
     style="stroke:#000000;stroke-width:3.17000008;stroke-linejoin:bevel"
     transform="translate(-72.480325,-927.15619)" />
  <polyline
     class="LedgerLine"
     points="1601.95,1265.67 1643.93,1265.67"
     id="polyline140"
     style="stroke:#000000;stroke-width:3.17000008;stroke-linejoin:bevel"
     transform="translate(-72.480325,-927.15619)" />
  <polyline
     class="LedgerLine"
     points="1907.58,1265.67 1949.56,1265.67"
     id="polyline142"
     style="stroke:#000000;stroke-width:3.17000008;stroke-linejoin:bevel"
     transform="translate(-72.480325,-927.15619)" />
  <polyline
     class="LedgerLine"
     points="2244.16,1265.67 2286.14,1265.67"
     id="polyline144"
     style="stroke:#000000;stroke-width:3.17000008;stroke-linejoin:bevel"
     transform="translate(-72.480325,-927.15619)" />
  <polyline
     class="LedgerLine"
     points="2578.25,1265.67 2620.24,1265.67"
     id="polyline146"
     style="stroke:#000000;stroke-width:3.17000008;stroke-linejoin:bevel"
     transform="translate(-72.480325,-927.15619)" />
  <polyline
     class="LedgerLine"
     points="1601.95,938.268 1643.93,938.268"
     id="polyline148"
     style="stroke:#000000;stroke-width:3.17000008;stroke-linejoin:bevel"
     transform="translate(-72.480325,-927.15619)" />
  <polyline
     class="Stem"
     points="926.42,1585.82 926.42,1632.76"
     id="polyline170"
     style="stroke:#000000;stroke-width:2.38000011;stroke-linejoin:bevel"
     transform="translate(-72.480325,-927.15619)" />
  <polyline
     class="Stem"
     points="1260.52,1595.74 1260.52,1640.2"
     id="polyline172"
     style="stroke:#000000;stroke-width:2.38000011;stroke-linejoin:bevel"
     transform="translate(-72.480325,-927.15619)" />
  <polyline
     class="Stem"
     points="2253.28,1605.66 2253.28,1647.64"
     id="polyline174"
     style="stroke:#000000;stroke-width:2.38000011;stroke-linejoin:bevel"
     transform="translate(-72.480325,-927.15619)" />
  <polyline
     class="Stem"
     points="2587.38,1595.74 2587.38,1640.2"
     id="polyline176"
     style="stroke:#000000;stroke-width:2.38000011;stroke-linejoin:bevel"
     transform="translate(-72.480325,-927.15619)" />
  <polyline
     class="Stem"
     points="282.028,1526.29 282.028,1568.1"
     id="polyline178"
     style="stroke:#000000;stroke-width:2.38000011;stroke-linejoin:bevel"
     transform="translate(-72.480325,-927.15619)" />
  <polyline
     class="Stem"
     points="916.499,1536.21 916.499,1595.55"
     id="polyline180"
     style="stroke:#000000;stroke-width:2.38000011;stroke-linejoin:bevel"
     transform="translate(-72.480325,-927.15619)" />
  <polyline
     class="Stem"
     points="1250.6,1526.29 1250.6,1588.11"
     id="polyline182"
     style="stroke:#000000;stroke-width:2.38000011;stroke-linejoin:bevel"
     transform="translate(-72.480325,-927.15619)" />
  <polyline
     class="Stem"
     points="1634.81,1560.64 1634.81,1526.93"
     id="polyline184"
     style="stroke:#000000;stroke-width:2.38000011;stroke-linejoin:bevel"
     transform="translate(-72.480325,-927.15619)" />
  <polyline
     class="Stem"
     points="1940.43,1570.56 1940.43,1537.47"
     id="polyline186"
     style="stroke:#000000;stroke-width:2.38000011;stroke-linejoin:bevel"
     transform="translate(-72.480325,-927.15619)" />
  <polyline
     class="Stem"
     points="2277.01,1580.48 2277.01,1558.96"
     id="polyline188"
     style="stroke:#000000;stroke-width:2.38000011;stroke-linejoin:bevel"
     transform="translate(-72.480325,-927.15619)" />
  <polyline
     class="Stem"
     points="2587.38,1506.45 2587.38,1564.48"
     id="polyline190"
     style="stroke:#000000;stroke-width:2.38000011;stroke-linejoin:bevel"
     transform="translate(-72.480325,-927.15619)" />
  <polyline
     class="Stem"
     points="305.957,1520.96 305.957,1402.46"
     id="polyline192"
     style="stroke:#000000;stroke-width:2.38000011;stroke-linejoin:bevel"
     transform="matrix(1,0,0,0.47237611,-72.480325,-124.66136)" />
  <polyline
     class="Stem"
     points="611.585,1501.11 611.585,1449.21"
     id="polyline194"
     style="stroke:#000000;stroke-width:2.38000011;stroke-linejoin:bevel"
     transform="translate(-72.480325,-927.15619)" />
  <polyline
     class="Stem"
     points="764.398,1481.27 764.398,1447.51"
     id="polyline196"
     style="stroke:#000000;stroke-width:2.38000011;stroke-linejoin:bevel"
     transform="translate(-72.480325,-927.15619)" />
  <polyline
     class="Stem"
     points="1634.81,1471.35 1634.81,1426.89"
     id="polyline198"
     style="stroke:#000000;stroke-width:2.38000011;stroke-linejoin:bevel"
     transform="translate(-72.480325,-927.15619)" />
  <polyline
     class="Stem"
     points="1940.43,1481.27 1940.43,1434.33"
     id="polyline200"
     style="stroke:#000000;stroke-width:2.38000011;stroke-linejoin:bevel"
     transform="translate(-72.480325,-927.15619)" />
  <polyline
     class="Stem"
     points="2434.24,1491.19 2434.24,1441.77"
     id="polyline202"
     style="stroke:#000000;stroke-width:2.38000011;stroke-linejoin:bevel"
     transform="translate(-72.480325,-927.15619)" />
  <polyline
     class="Stem"
     points="2611.11,1501.11 2611.11,1423.23"
     id="polyline204"
     style="stroke:#000000;stroke-width:2.38000011;stroke-linejoin:bevel"
     transform="matrix(1,0,0,0.71566879,-72.480325,-500.34376)" />
  <polyline
     class="Stem"
     points="950.151,1253.08 950.151,1159.02"
     id="polyline206"
     style="stroke:#000000;stroke-width:2.38000011;stroke-linejoin:bevel"
     transform="translate(-72.480325,-927.15619)" />
  <polyline
     class="Stem"
     points="1284.25,1263 1284.25,1159.02"
     id="polyline208"
     style="stroke:#000000;stroke-width:2.38000011;stroke-linejoin:bevel"
     transform="translate(-72.480325,-927.15619)" />
  <polyline
     class="Stem"
     points="1634.81,1263 1634.81,1151.57"
     id="polyline210"
     style="stroke:#000000;stroke-width:2.38000011;stroke-linejoin:bevel"
     transform="translate(-72.480325,-927.15619)" />
  <polyline
     class="Stem"
     points="1940.43,1263 1940.43,1159.02"
     id="polyline212"
     style="stroke:#000000;stroke-width:2.38000011;stroke-linejoin:bevel"
     transform="translate(-72.480325,-927.15619)" />
  <polyline
     class="Stem"
     points="2277.01,1272.92 2277.01,1159.02"
     id="polyline214"
     style="stroke:#000000;stroke-width:2.38000011;stroke-linejoin:bevel"
     transform="translate(-72.480325,-927.15619)" />
  <polyline
     class="Stem"
     points="2611.11,1263 2611.11,1159.02"
     id="polyline216"
     style="stroke:#000000;stroke-width:2.38000011;stroke-linejoin:bevel"
     transform="translate(-72.480325,-927.15619)" />
  <polyline
     class="Stem"
     points="926.42,1000.46 926.42,1059.8"
     id="polyline218"
     style="stroke:#000000;stroke-width:2.38000011;stroke-linejoin:bevel"
     transform="translate(-72.480325,-927.15619)" />
  <polyline
     class="Stem"
     points="1260.52,990.541 1260.52,1052.36"
     id="polyline220"
     style="stroke:#000000;stroke-width:2.38000011;stroke-linejoin:bevel"
     transform="translate(-72.480325,-927.15619)" />
  <polyline
     class="Stem"
     points="1611.08,940.935 1611.08,1007.72"
     id="polyline222"
     style="stroke:#000000;stroke-width:2.38000011;stroke-linejoin:bevel"
     transform="translate(-72.480325,-927.15619)" />
  <polyline
     class="Stem"
     points="1916.7,950.856 1916.7,1017.64"
     id="polyline224"
     style="stroke:#000000;stroke-width:2.38000011;stroke-linejoin:bevel"
     transform="translate(-72.480325,-927.15619)" />
  <polyline
     class="Stem"
     points="2253.28,950.856 2253.28,1017.64"
     id="polyline226"
     style="stroke:#000000;stroke-width:2.38000011;stroke-linejoin:bevel"
     transform="translate(-72.480325,-927.15619)" />
  <polyline
     class="Stem"
     points="2410.51,960.777 2410.51,1027.56"
     id="polyline228"
     style="stroke:#000000;stroke-width:2.38000011;stroke-linejoin:bevel"
     transform="translate(-72.480325,-927.15619)" />
  <polyline
     class="Stem"
     points="2587.38,970.698 2587.38,1037.48"
     id="polyline230"
     style="stroke:#000000;stroke-width:2.38000011;stroke-linejoin:bevel"
     transform="translate(-72.480325,-927.15619)" />
  <path
     class="Note"
     d="m 203.39667,665.7526 c 0,5.7915 4.92344,10.9506 17.78391,10.9506 14.12534,0 18.65197,-4.911 18.65197,-10.9506 0,-6.114 -9.76006,-10.715 -17.7839,-10.715 -11.50867,0 -18.65198,4.849 -18.65198,10.715 m 9.28877,-3.1748 c 0,-4.4398 3.08805,-5.5559 7.14331,-5.5559 5.87838,0 10.64059,6.3496 10.64059,11.5955 0,4.3653 -2.70358,6.1016 -6.59764,6.1016 -5.71711,0 -11.18626,-6.5853 -11.18626,-12.1412"
     id="path326"
     inkscape:connector-curvature="0"
     style="stroke-width:0.79370099" />
  <path
     class="Note"
     d="m 1532.2497,665.7526 c 0,5.7915 4.9234,10.9506 17.7839,10.9506 14.1253,0 18.652,-4.911 18.652,-10.9506 0,-6.114 -9.7601,-10.715 -17.784,-10.715 -11.5086,0 -18.6519,4.849 -18.6519,10.715 m 9.2887,-3.1748 c 0,-4.4398 3.0881,-5.5559 7.1433,-5.5559 5.8784,0 10.6406,6.3496 10.6406,11.5955 0,4.3653 -2.7035,6.1016 -6.5976,6.1016 -5.7171,0 -11.1863,-6.5853 -11.1863,-12.1412"
     id="path328"
     inkscape:connector-curvature="0"
     style="stroke-width:0.79370099" />
  <path
     class="Note"
     d="m 861.31919,667.1056 c 14.60901,0 17.54825,-11.9055 17.54825,-14.7578 0,-4.5266 -3.57166,-7.4658 -8.73071,-7.4658 -13.25733,0 -17.38706,10.2437 -17.38706,14.8447 0,4.6754 3.73288,7.3789 8.56952,7.3789 m -5.95278,-7.2177 c 0,-4.2909 12.78606,-11.3598 16.99014,-11.3598 1.66185,0 2.61675,0.7937 3.24925,1.9098 0.24803,0.4713 0.48368,1.0293 0.48368,1.6618 0,1.7486 -1.82305,3.8941 -8.02384,7.937 -3.9685,2.7036 -6.74645,3.6585 -8.64392,3.6585 -1.83543,0 -2.93917,-0.9549 -3.49724,-2.0711 -0.32244,-0.4712 -0.55807,-1.1037 -0.55807,-1.7362"
     id="path330"
     inkscape:connector-curvature="0"
     style="stroke-width:0.79370099" />
  <path
     class="Note"
     d="m 1195.4192,677.0256 c 14.609,0 17.5482,-11.9055 17.5482,-14.7578 0,-4.5266 -3.5716,-7.4658 -8.7307,-7.4658 -13.2573,0 -17.387,10.2437 -17.387,14.8447 0,4.6754 3.7329,7.3789 8.5695,7.3789 m -5.9528,-7.2177 c 0,-4.2909 12.7861,-11.3598 16.9902,-11.3598 1.6618,0 2.6167,0.7937 3.2492,1.9098 0.248,0.4713 0.4837,1.0293 0.4837,1.6618 0,1.7486 -1.8231,3.8941 -8.0239,7.937 -3.9685,2.7036 -6.7464,3.6585 -8.6439,3.6585 -1.8354,0 -2.9391,-0.9549 -3.4972,-2.0711 -0.3225,-0.4712 -0.5581,-1.1037 -0.5581,-1.7362"
     id="path332"
     inkscape:connector-curvature="0"
     style="stroke-width:0.79370099" />
  <path
     class="Note"
     d="m 2188.1792,686.9456 c 14.609,0 17.5482,-11.9055 17.5482,-14.7578 0,-4.5266 -3.5716,-7.4658 -8.7307,-7.4658 -13.2573,0 -17.387,10.2437 -17.387,14.8447 0,4.6754 3.7329,7.3789 8.5695,7.3789 m -5.9528,-7.2177 c 0,-4.2909 12.7861,-11.3598 16.9902,-11.3598 1.6618,0 2.6167,0.7937 3.2492,1.9098 0.248,0.4713 0.4837,1.0293 0.4837,1.6618 0,1.7486 -1.8231,3.8941 -8.0239,7.937 -3.9685,2.7036 -6.7464,3.6585 -8.6439,3.6585 -1.8354,0 -2.9391,-0.9549 -3.4972,-2.0711 -0.3225,-0.4712 -0.5581,-1.1037 -0.5581,-1.7362"
     id="path334"
     inkscape:connector-curvature="0"
     style="stroke-width:0.79370099" />
  <path
     class="Note"
     d="m 2522.2792,677.0256 c 14.609,0 17.5482,-11.9055 17.5482,-14.7578 0,-4.5266 -3.5716,-7.4658 -8.7307,-7.4658 -13.2573,0 -17.387,10.2437 -17.387,14.8447 0,4.6754 3.7329,7.3789 8.5695,7.3789 m -5.9528,-7.2177 c 0,-4.2909 12.7861,-11.3598 16.9902,-11.3598 1.6618,0 2.6167,0.7937 3.2492,1.9098 0.248,0.4713 0.4837,1.0293 0.4837,1.6618 0,1.7486 -1.8231,3.8941 -8.0239,7.937 -3.9685,2.7036 -6.7464,3.6585 -8.6439,3.6585 -1.8354,0 -2.9391,-0.9549 -3.4972,-2.0711 -0.3225,-0.4712 -0.5581,-1.1037 -0.5581,-1.7362"
     id="path336"
     inkscape:connector-curvature="0"
     style="stroke-width:0.79370099" />
  <path
     class="Note"
     d="m 216.92719,607.5756 c 14.60901,0 17.54825,-11.9055 17.54825,-14.7578 0,-4.5266 -3.57166,-7.4658 -8.73071,-7.4658 -13.25733,0 -17.38706,10.2437 -17.38706,14.8447 0,4.6754 3.73288,7.3789 8.56952,7.3789 m -5.95278,-7.2177 c 0,-4.2909 12.78606,-11.3598 16.99014,-11.3598 1.66185,0 2.61675,0.7937 3.24925,1.9098 0.24803,0.4713 0.48368,1.0293 0.48368,1.6618 0,1.7486 -1.82305,3.8941 -8.02384,7.937 -3.9685,2.7036 -6.74645,3.6585 -8.64392,3.6585 -1.83543,0 -2.93917,-0.9549 -3.49724,-2.0711 -0.32244,-0.4712 -0.55807,-1.1037 -0.55807,-1.7362"
     id="path338"
     inkscape:connector-curvature="0"
     style="stroke-width:0.79370099" />
  <path
     class="Note"
     d="m 851.39719,617.4956 c 14.60901,0 17.54825,-11.9055 17.54825,-14.7578 0,-4.5266 -3.57166,-7.4658 -8.73071,-7.4658 -13.25733,0 -17.38706,10.2437 -17.38706,14.8447 0,4.6754 3.73288,7.3789 8.56952,7.3789 m -5.95278,-7.2177 c 0,-4.2909 12.78606,-11.3598 16.99014,-11.3598 1.66185,0 2.61675,0.7937 3.24925,1.9098 0.24803,0.4713 0.48368,1.0293 0.48368,1.6618 0,1.7486 -1.82305,3.8941 -8.02384,7.937 -3.9685,2.7036 -6.74645,3.6585 -8.64392,3.6585 -1.83543,0 -2.93917,-0.9549 -3.49724,-2.0711 -0.32244,-0.4712 -0.55807,-1.1037 -0.55807,-1.7362"
     id="path340"
     inkscape:connector-curvature="0"
     style="stroke-width:0.79370099" />
  <path
     class="Note"
     d="m 1176.9297,600.1967 c 0,4.601 3.8073,7.3789 8.5695,7.3789 7.8625,0 17.5482,-7.3045 17.5482,-14.8447 0,-4.4397 -3.5716,-7.3789 -8.6563,-7.3789 -9.6856,0 -17.4614,7.2177 -17.4614,14.8447"
     id="path342"
     inkscape:connector-curvature="0"
     style="stroke-width:0.79370099" />
  <path
     class="Note"
     d="m 1545.9692,647.2656 c 14.609,0 17.5482,-11.9055 17.5482,-14.7578 0,-4.5266 -3.5716,-7.4658 -8.7307,-7.4658 -13.2573,0 -17.387,10.2437 -17.387,14.8447 0,4.6754 3.7329,7.3789 8.5695,7.3789 m -5.9528,-7.2177 c 0,-4.2909 12.7861,-11.3598 16.9902,-11.3598 1.6618,0 2.6167,0.7937 3.2492,1.9098 0.248,0.4713 0.4837,1.0293 0.4837,1.6618 0,1.7486 -1.8231,3.8941 -8.0239,7.937 -3.9685,2.7036 -6.7464,3.6585 -8.6439,3.6585 -1.8354,0 -2.9391,-0.9549 -3.4972,-2.0711 -0.3225,-0.4712 -0.5581,-1.1037 -0.5581,-1.7362"
     id="path344"
     inkscape:connector-curvature="0"
     style="stroke-width:0.79370099" />
  <path
     class="Note"
     d="m 1851.5992,657.1856 c 14.609,0 17.5482,-11.9055 17.5482,-14.7578 0,-4.5266 -3.5716,-7.4658 -8.7307,-7.4658 -13.2573,0 -17.387,10.2437 -17.387,14.8447 0,4.6754 3.7329,7.3789 8.5695,7.3789 m -5.9528,-7.2177 c 0,-4.2909 12.7861,-11.3598 16.9902,-11.3598 1.6618,0 2.6167,0.7937 3.2492,1.9098 0.248,0.4713 0.4837,1.0293 0.4837,1.6618 0,1.7486 -1.8231,3.8941 -8.0239,7.937 -3.9685,2.7036 -6.7464,3.6585 -8.6439,3.6585 -1.8354,0 -2.9391,-0.9549 -3.4972,-2.0711 -0.3225,-0.4712 -0.5581,-1.1037 -0.5581,-1.7362"
     id="path346"
     inkscape:connector-curvature="0"
     style="stroke-width:0.79370099" />
  <path
     class="Note"
     d="m 2188.1792,667.1056 c 14.609,0 17.5482,-11.9055 17.5482,-14.7578 0,-4.5266 -3.5716,-7.4658 -8.7307,-7.4658 -13.2573,0 -17.387,10.2437 -17.387,14.8447 0,4.6754 3.7329,7.3789 8.5695,7.3789 m -5.9528,-7.2177 c 0,-4.2909 12.7861,-11.3598 16.9902,-11.3598 1.6618,0 2.6167,0.7937 3.2492,1.9098 0.248,0.4713 0.4837,1.0293 0.4837,1.6618 0,1.7486 -1.8231,3.8941 -8.0239,7.937 -3.9685,2.7036 -6.7464,3.6585 -8.6439,3.6585 -1.8354,0 -2.9391,-0.9549 -3.4972,-2.0711 -0.3225,-0.4712 -0.5581,-1.1037 -0.5581,-1.7362"
     id="path348"
     inkscape:connector-curvature="0"
     style="stroke-width:0.79370099" />
  <path
     class="Note"
     d="m 2522.2792,587.7356 c 14.609,0 17.5482,-11.9055 17.5482,-14.7578 0,-4.5266 -3.5716,-7.4658 -8.7307,-7.4658 -13.2573,0 -17.387,10.2437 -17.387,14.8447 0,4.6754 3.7329,7.3789 8.5695,7.3789 m -5.9528,-7.2177 c 0,-4.2909 12.7861,-11.3598 16.9902,-11.3598 1.6618,0 2.6167,0.7937 3.2492,1.9098 0.248,0.4713 0.4837,1.0293 0.4837,1.6618 0,1.7486 -1.8231,3.8941 -8.0239,7.937 -3.9685,2.7036 -6.7464,3.6585 -8.6439,3.6585 -1.8354,0 -2.9391,-0.9549 -3.4972,-2.0711 -0.3225,-0.4712 -0.5581,-1.1037 -0.5581,-1.7362"
     id="path350"
     inkscape:connector-curvature="0"
     style="stroke-width:0.79370099" />
  <path
     class="Note"
     d="m 217.12519,607.5756 c 14.60901,0 17.54825,-11.9055 17.54825,-14.7578 0,-4.5266 -3.57166,-7.4658 -8.73071,-7.4658 -13.25733,0 -17.38706,10.2437 -17.38706,14.8447 0,4.6754 3.73288,7.3789 8.56952,7.3789 m -5.95278,-7.2177 c 0,-4.2909 12.78606,-11.3598 16.99014,-11.3598 1.66185,0 2.61675,0.7937 3.24925,1.9098 0.24803,0.4713 0.48368,1.0293 0.48368,1.6618 0,1.7486 -1.82305,3.8941 -8.02384,7.937 -3.9685,2.7036 -6.74645,3.6585 -8.64392,3.6585 -1.83543,0 -2.93917,-0.9549 -3.49724,-2.0711 -0.32244,-0.4712 -0.55807,-1.1037 -0.55807,-1.7362"
     id="path352"
     inkscape:connector-curvature="0"
     style="stroke-width:0.79370099" />
  <path
     class="Note"
     d="m 514.18367,580.3567 c 0,4.601 3.80729,7.3789 8.56952,7.3789 7.86256,0 17.54825,-7.3045 17.54825,-14.8447 0,-4.4397 -3.57166,-7.3789 -8.65634,-7.3789 -9.68563,0 -17.46143,7.2177 -17.46143,14.8447"
     id="path354"
     inkscape:connector-curvature="0"
     style="stroke-width:0.79370099" />
  <path
     class="Note"
     d="m 666.99667,560.5167 c 0,4.601 3.80729,7.3789 8.56952,7.3789 7.86256,0 17.54825,-7.3045 17.54825,-14.8447 0,-4.4397 -3.57166,-7.3789 -8.65634,-7.3789 -9.68563,0 -17.46143,7.2177 -17.46143,14.8447"
     id="path356"
     inkscape:connector-curvature="0"
     style="stroke-width:0.79370099" />
  <path
     class="Note"
     d="m 1545.9692,557.9756 c 14.609,0 17.5482,-11.9055 17.5482,-14.7578 0,-4.5266 -3.5716,-7.4658 -8.7307,-7.4658 -13.2573,0 -17.387,10.2437 -17.387,14.8447 0,4.6754 3.7329,7.3789 8.5695,7.3789 m -5.9528,-7.2177 c 0,-4.2909 12.7861,-11.3598 16.9902,-11.3598 1.6618,0 2.6167,0.7937 3.2492,1.9098 0.248,0.4713 0.4837,1.0293 0.4837,1.6618 0,1.7486 -1.8231,3.8941 -8.0239,7.937 -3.9685,2.7036 -6.7464,3.6585 -8.6439,3.6585 -1.8354,0 -2.9391,-0.9549 -3.4972,-2.0711 -0.3225,-0.4712 -0.5581,-1.1037 -0.5581,-1.7362"
     id="path358"
     inkscape:connector-curvature="0"
     style="stroke-width:0.79370099" />
  <path
     class="Note"
     d="m 1851.5992,567.8956 c 14.609,0 17.5482,-11.9055 17.5482,-14.7578 0,-4.5266 -3.5716,-7.4658 -8.7307,-7.4658 -13.2573,0 -17.387,10.2437 -17.387,14.8447 0,4.6754 3.7329,7.3789 8.5695,7.3789 m -5.9528,-7.2177 c 0,-4.2909 12.7861,-11.3598 16.9902,-11.3598 1.6618,0 2.6167,0.7937 3.2492,1.9098 0.248,0.4713 0.4837,1.0293 0.4837,1.6618 0,1.7486 -1.8231,3.8941 -8.0239,7.937 -3.9685,2.7036 -6.7464,3.6585 -8.6439,3.6585 -1.8354,0 -2.9391,-0.9549 -3.4972,-2.0711 -0.3225,-0.4712 -0.5581,-1.1037 -0.5581,-1.7362"
     id="path360"
     inkscape:connector-curvature="0"
     style="stroke-width:0.79370099" />
  <path
     class="Note"
     d="m 2336.8397,570.4367 c 0,4.601 3.8073,7.3789 8.5695,7.3789 7.8625,0 17.5482,-7.3045 17.5482,-14.8447 0,-4.4397 -3.5716,-7.3789 -8.6563,-7.3789 -9.6856,0 -17.4614,7.2177 -17.4614,14.8447"
     id="path362"
     inkscape:connector-curvature="0"
     style="stroke-width:0.79370099" />
  <path
     class="Note"
     d="m 2522.2792,587.7356 c 14.609,0 17.5482,-11.9055 17.5482,-14.7578 0,-4.5266 -3.5716,-7.4658 -8.7307,-7.4658 -13.2573,0 -17.387,10.2437 -17.387,14.8447 0,4.6754 3.7329,7.3789 8.5695,7.3789 m -5.9528,-7.2177 c 0,-4.2909 12.7861,-11.3598 16.9902,-11.3598 1.6618,0 2.6167,0.7937 3.2492,1.9098 0.248,0.4713 0.4837,1.0293 0.4837,1.6618 0,1.7486 -1.8231,3.8941 -8.0239,7.937 -3.9685,2.7036 -6.7464,3.6585 -8.6439,3.6585 -1.8354,0 -2.9391,-0.9549 -3.4972,-2.0711 -0.3225,-0.4712 -0.5581,-1.1037 -0.5581,-1.7362"
     id="path364"
     inkscape:connector-curvature="0"
     style="stroke-width:0.79370099" />
  <path
     class="Note"
     d="m 203.39667,338.35259 c 0,5.79154 4.92344,10.95064 17.78391,10.95064 14.12534,0 18.65197,-4.91107 18.65197,-10.95064 0,-6.11397 -9.76006,-10.71494 -17.7839,-10.71494 -11.50867,0 -18.65198,4.849 -18.65198,10.71494 m 9.28877,-3.1748 c 0,-4.43977 3.08805,-5.55589 7.14331,-5.55589 5.87838,0 10.64059,6.34959 10.64059,11.59546 0,4.36535 -2.70358,6.10161 -6.59764,6.10161 -5.71711,0 -11.18626,-6.58527 -11.18626,-12.14118"
     id="path366"
     inkscape:connector-curvature="0"
     style="stroke-width:0.79370099" />
  <path
     class="Note"
     d="m 203.39667,318.51259 c 0,5.79154 4.92344,10.95064 17.78391,10.95064 14.12534,0 18.65197,-4.91107 18.65197,-10.95064 0,-6.11397 -9.76006,-10.71494 -17.7839,-10.71494 -11.50867,0 -18.65198,4.849 -18.65198,10.71494 m 9.28877,-3.1748 c 0,-4.43977 3.08805,-5.55589 7.14331,-5.55589 5.87838,0 10.64059,6.34959 10.64059,11.59546 0,4.36535 -2.70358,6.10161 -6.59764,6.10161 -5.71711,0 -11.18626,-6.58527 -11.18626,-12.14118"
     id="path368"
     inkscape:connector-curvature="0"
     style="stroke-width:0.79370099" />
  <path
     class="Note"
     d="m 203.39667,298.66259 c 0,5.79154 4.92344,10.95064 17.78391,10.95064 14.12534,0 18.65197,-4.91107 18.65197,-10.95064 0,-6.11397 -9.76006,-10.71494 -17.7839,-10.71494 -11.50867,0 -18.65198,4.849 -18.65198,10.71494 m 9.28877,-3.1748 c 0,-4.43977 3.08805,-5.55589 7.14331,-5.55589 5.87838,0 10.64059,6.34959 10.64059,11.59546 0,4.36535 -2.70358,6.10161 -6.59764,6.10161 -5.71711,0 -11.18626,-6.58527 -11.18626,-12.14118"
     id="path370"
     inkscape:connector-curvature="0"
     style="stroke-width:0.79370099" />
  <path
     class="Note"
     d="m 861.31919,339.70563 c 14.60901,0 17.54825,-11.90552 17.54825,-14.75788 0,-4.5266 -3.57166,-7.46575 -8.73071,-7.46575 -13.25733,0 -17.38706,10.2437 -17.38706,14.84469 0,4.67543 3.73288,7.37894 8.56952,7.37894 m -5.95278,-7.21772 c 0,-4.29095 12.78606,-11.35985 16.99014,-11.35985 1.66185,0 2.61675,0.7937 3.24925,1.90985 0.24803,0.47126 0.48368,1.02932 0.48368,1.66181 0,1.74862 -1.82305,3.89409 -8.02384,7.93701 -3.9685,2.70354 -6.74645,3.65847 -8.64392,3.65847 -1.83543,0 -2.93917,-0.95493 -3.49724,-2.07107 -0.32244,-0.47126 -0.55807,-1.10374 -0.55807,-1.73622"
     id="path372"
     inkscape:connector-curvature="0"
     style="stroke-width:0.79370099" />
  <path
     class="Note"
     d="m 861.31919,319.86563 c 14.60901,0 17.54825,-11.90552 17.54825,-14.75788 0,-4.5266 -3.57166,-7.46575 -8.73071,-7.46575 -13.25733,0 -17.38706,10.2437 -17.38706,14.84469 0,4.67543 3.73288,7.37894 8.56952,7.37894 m -5.95278,-7.21772 c 0,-4.29095 12.78606,-11.35985 16.99014,-11.35985 1.66185,0 2.61675,0.7937 3.24925,1.90985 0.24803,0.47126 0.48368,1.02932 0.48368,1.66181 0,1.74862 -1.82305,3.89409 -8.02384,7.93701 -3.9685,2.70354 -6.74645,3.65847 -8.64392,3.65847 -1.83543,0 -2.93917,-0.95493 -3.49724,-2.07107 -0.32244,-0.47126 -0.55807,-1.10374 -0.55807,-1.73622"
     id="path374"
     inkscape:connector-curvature="0"
     style="stroke-width:0.79370099" />
  <path
     class="Note"
     d="m 885.04919,309.93563 c 14.60901,0 17.54825,-11.90552 17.54825,-14.75788 0,-4.5266 -3.57166,-7.46575 -8.73071,-7.46575 -13.25733,0 -17.38706,10.2437 -17.38706,14.84469 0,4.67543 3.73288,7.37894 8.56952,7.37894 m -5.95278,-7.21772 c 0,-4.29095 12.78606,-11.35985 16.99014,-11.35985 1.66185,0 2.61675,0.7937 3.24925,1.90985 0.24803,0.47126 0.48368,1.02932 0.48368,1.66181 0,1.74862 -1.82305,3.89409 -8.02384,7.93701 -3.9685,2.70354 -6.74645,3.65847 -8.64392,3.65847 -1.83543,0 -2.93917,-0.95493 -3.49724,-2.07107 -0.32244,-0.47126 -0.55807,-1.10374 -0.55807,-1.73622"
     id="path376"
     inkscape:connector-curvature="0"
     style="stroke-width:0.79370099" />
  <path
     class="Note"
     d="m 1195.4192,349.62563 c 14.609,0 17.5482,-11.90552 17.5482,-14.75788 0,-4.5266 -3.5716,-7.46575 -8.7307,-7.46575 -13.2573,0 -17.387,10.2437 -17.387,14.84469 0,4.67543 3.7329,7.37894 8.5695,7.37894 m -5.9528,-7.21772 c 0,-4.29095 12.7861,-11.35985 16.9902,-11.35985 1.6618,0 2.6167,0.7937 3.2492,1.90985 0.248,0.47126 0.4837,1.02932 0.4837,1.66181 0,1.74862 -1.8231,3.89409 -8.0239,7.93701 -3.9685,2.70354 -6.7464,3.65847 -8.6439,3.65847 -1.8354,0 -2.9391,-0.95493 -3.4972,-2.07107 -0.3225,-0.47126 -0.5581,-1.10374 -0.5581,-1.73622"
     id="path378"
     inkscape:connector-curvature="0"
     style="stroke-width:0.79370099" />
  <path
     class="Note"
     d="m 1195.4192,329.78563 c 14.609,0 17.5482,-11.90552 17.5482,-14.75788 0,-4.5266 -3.5716,-7.46575 -8.7307,-7.46575 -13.2573,0 -17.387,10.2437 -17.387,14.84469 0,4.67543 3.7329,7.37894 8.5695,7.37894 m -5.9528,-7.21772 c 0,-4.29095 12.7861,-11.35985 16.9902,-11.35985 1.6618,0 2.6167,0.7937 3.2492,1.90985 0.248,0.47126 0.4837,1.02932 0.4837,1.66181 0,1.74862 -1.8231,3.89409 -8.0239,7.93701 -3.9685,2.70354 -6.7464,3.65847 -8.6439,3.65847 -1.8354,0 -2.9391,-0.95493 -3.4972,-2.07107 -0.3225,-0.47126 -0.5581,-1.10374 -0.5581,-1.73622"
     id="path380"
     inkscape:connector-curvature="0"
     style="stroke-width:0.79370099" />
  <path
     class="Note"
     d="m 1195.4192,309.93563 c 14.609,0 17.5482,-11.90552 17.5482,-14.75788 0,-4.5266 -3.5716,-7.46575 -8.7307,-7.46575 -13.2573,0 -17.387,10.2437 -17.387,14.84469 0,4.67543 3.7329,7.37894 8.5695,7.37894 m -5.9528,-7.21772 c 0,-4.29095 12.7861,-11.35985 16.9902,-11.35985 1.6618,0 2.6167,0.7937 3.2492,1.90985 0.248,0.47126 0.4837,1.02932 0.4837,1.66181 0,1.74862 -1.8231,3.89409 -8.0239,7.93701 -3.9685,2.70354 -6.7464,3.65847 -8.6439,3.65847 -1.8354,0 -2.9391,-0.95493 -3.4972,-2.07107 -0.3225,-0.47126 -0.5581,-1.10374 -0.5581,-1.73622"
     id="path382"
     inkscape:connector-curvature="0"
     style="stroke-width:0.79370099" />
  <path
     class="Note"
     d="m 1545.9692,349.62563 c 14.609,0 17.5482,-11.90552 17.5482,-14.75788 0,-4.5266 -3.5716,-7.46575 -8.7307,-7.46575 -13.2573,0 -17.387,10.2437 -17.387,14.84469 0,4.67543 3.7329,7.37894 8.5695,7.37894 m -5.9528,-7.21772 c 0,-4.29095 12.7861,-11.35985 16.9902,-11.35985 1.6618,0 2.6167,0.7937 3.2492,1.90985 0.248,0.47126 0.4837,1.02932 0.4837,1.66181 0,1.74862 -1.8231,3.89409 -8.0239,7.93701 -3.9685,2.70354 -6.7464,3.65847 -8.6439,3.65847 -1.8354,0 -2.9391,-0.95493 -3.4972,-2.07107 -0.3225,-0.47126 -0.5581,-1.10374 -0.5581,-1.73622"
     id="path384"
     inkscape:connector-curvature="0"
     style="stroke-width:0.79370099" />
  <path
     class="Note"
     d="m 1545.9692,319.86563 c 14.609,0 17.5482,-11.90552 17.5482,-14.75788 0,-4.5266 -3.5716,-7.46575 -8.7307,-7.46575 -13.2573,0 -17.387,10.2437 -17.387,14.84469 0,4.67543 3.7329,7.37894 8.5695,7.37894 m -5.9528,-7.21772 c 0,-4.29095 12.7861,-11.35985 16.9902,-11.35985 1.6618,0 2.6167,0.7937 3.2492,1.90985 0.248,0.47126 0.4837,1.02932 0.4837,1.66181 0,1.74862 -1.8231,3.89409 -8.0239,7.93701 -3.9685,2.70354 -6.7464,3.65847 -8.6439,3.65847 -1.8354,0 -2.9391,-0.95493 -3.4972,-2.07107 -0.3225,-0.47126 -0.5581,-1.10374 -0.5581,-1.73622"
     id="path386"
     inkscape:connector-curvature="0"
     style="stroke-width:0.79370099" />
  <path
     class="Note"
     d="m 1545.9692,300.01563 c 14.609,0 17.5482,-11.90552 17.5482,-14.75788 0,-4.5266 -3.5716,-7.46575 -8.7307,-7.46575 -13.2573,0 -17.387,10.2437 -17.387,14.84469 0,4.67543 3.7329,7.37894 8.5695,7.37894 m -5.9528,-7.21772 c 0,-4.29095 12.7861,-11.35985 16.9902,-11.35985 1.6618,0 2.6167,0.7937 3.2492,1.90985 0.248,0.47126 0.4837,1.02932 0.4837,1.66181 0,1.74862 -1.8231,3.89409 -8.0239,7.93701 -3.9685,2.70354 -6.7464,3.65847 -8.6439,3.65847 -1.8354,0 -2.9391,-0.95493 -3.4972,-2.07107 -0.3225,-0.47126 -0.5581,-1.10374 -0.5581,-1.73622"
     id="path388"
     inkscape:connector-curvature="0"
     style="stroke-width:0.79370099" />
  <path
     class="Note"
     d="m 1851.5992,349.62563 c 14.609,0 17.5482,-11.90552 17.5482,-14.75788 0,-4.5266 -3.5716,-7.46575 -8.7307,-7.46575 -13.2573,0 -17.387,10.2437 -17.387,14.84469 0,4.67543 3.7329,7.37894 8.5695,7.37894 m -5.9528,-7.21772 c 0,-4.29095 12.7861,-11.35985 16.9902,-11.35985 1.6618,0 2.6167,0.7937 3.2492,1.90985 0.248,0.47126 0.4837,1.02932 0.4837,1.66181 0,1.74862 -1.8231,3.89409 -8.0239,7.93701 -3.9685,2.70354 -6.7464,3.65847 -8.6439,3.65847 -1.8354,0 -2.9391,-0.95493 -3.4972,-2.07107 -0.3225,-0.47126 -0.5581,-1.10374 -0.5581,-1.73622"
     id="path390"
     inkscape:connector-curvature="0"
     style="stroke-width:0.79370099" />
  <path
     class="Note"
     d="m 1851.5992,329.78563 c 14.609,0 17.5482,-11.90552 17.5482,-14.75788 0,-4.5266 -3.5716,-7.46575 -8.7307,-7.46575 -13.2573,0 -17.387,10.2437 -17.387,14.84469 0,4.67543 3.7329,7.37894 8.5695,7.37894 m -5.9528,-7.21772 c 0,-4.29095 12.7861,-11.35985 16.9902,-11.35985 1.6618,0 2.6167,0.7937 3.2492,1.90985 0.248,0.47126 0.4837,1.02932 0.4837,1.66181 0,1.74862 -1.8231,3.89409 -8.0239,7.93701 -3.9685,2.70354 -6.7464,3.65847 -8.6439,3.65847 -1.8354,0 -2.9391,-0.95493 -3.4972,-2.07107 -0.3225,-0.47126 -0.5581,-1.10374 -0.5581,-1.73622"
     id="path392"
     inkscape:connector-curvature="0"
     style="stroke-width:0.79370099" />
  <path
     class="Note"
     d="m 1851.5992,309.93563 c 14.609,0 17.5482,-11.90552 17.5482,-14.75788 0,-4.5266 -3.5716,-7.46575 -8.7307,-7.46575 -13.2573,0 -17.387,10.2437 -17.387,14.84469 0,4.67543 3.7329,7.37894 8.5695,7.37894 m -5.9528,-7.21772 c 0,-4.29095 12.7861,-11.35985 16.9902,-11.35985 1.6618,0 2.6167,0.7937 3.2492,1.90985 0.248,0.47126 0.4837,1.02932 0.4837,1.66181 0,1.74862 -1.8231,3.89409 -8.0239,7.93701 -3.9685,2.70354 -6.7464,3.65847 -8.6439,3.65847 -1.8354,0 -2.9391,-0.95493 -3.4972,-2.07107 -0.3225,-0.47126 -0.5581,-1.10374 -0.5581,-1.73622"
     id="path394"
     inkscape:connector-curvature="0"
     style="stroke-width:0.79370099" />
  <path
     class="Note"
     d="m 2188.1792,359.54563 c 14.609,0 17.5482,-11.90552 17.5482,-14.75788 0,-4.5266 -3.5716,-7.46575 -8.7307,-7.46575 -13.2573,0 -17.387,10.2437 -17.387,14.84469 0,4.67543 3.7329,7.37894 8.5695,7.37894 m -5.9528,-7.21772 c 0,-4.29095 12.7861,-11.35985 16.9902,-11.35985 1.6618,0 2.6167,0.7937 3.2492,1.90985 0.248,0.47126 0.4837,1.02932 0.4837,1.66181 0,1.74862 -1.8231,3.89409 -8.0239,7.93701 -3.9685,2.70354 -6.7464,3.65847 -8.6439,3.65847 -1.8354,0 -2.9391,-0.95493 -3.4972,-2.07107 -0.3225,-0.47126 -0.5581,-1.10374 -0.5581,-1.73622"
     id="path396"
     inkscape:connector-curvature="0"
     style="stroke-width:0.79370099" />
  <path
     class="Note"
     d="m 2188.1792,339.70563 c 14.609,0 17.5482,-11.90552 17.5482,-14.75788 0,-4.5266 -3.5716,-7.46575 -8.7307,-7.46575 -13.2573,0 -17.387,10.2437 -17.387,14.84469 0,4.67543 3.7329,7.37894 8.5695,7.37894 m -5.9528,-7.21772 c 0,-4.29095 12.7861,-11.35985 16.9902,-11.35985 1.6618,0 2.6167,0.7937 3.2492,1.90985 0.248,0.47126 0.4837,1.02932 0.4837,1.66181 0,1.74862 -1.8231,3.89409 -8.0239,7.93701 -3.9685,2.70354 -6.7464,3.65847 -8.6439,3.65847 -1.8354,0 -2.9391,-0.95493 -3.4972,-2.07107 -0.3225,-0.47126 -0.5581,-1.10374 -0.5581,-1.73622"
     id="path398"
     inkscape:connector-curvature="0"
     style="stroke-width:0.79370099" />
  <path
     class="Note"
     d="m 2188.1792,309.93563 c 14.609,0 17.5482,-11.90552 17.5482,-14.75788 0,-4.5266 -3.5716,-7.46575 -8.7307,-7.46575 -13.2573,0 -17.387,10.2437 -17.387,14.84469 0,4.67543 3.7329,7.37894 8.5695,7.37894 m -5.9528,-7.21772 c 0,-4.29095 12.7861,-11.35985 16.9902,-11.35985 1.6618,0 2.6167,0.7937 3.2492,1.90985 0.248,0.47126 0.4837,1.02932 0.4837,1.66181 0,1.74862 -1.8231,3.89409 -8.0239,7.93701 -3.9685,2.70354 -6.7464,3.65847 -8.6439,3.65847 -1.8354,0 -2.9391,-0.95493 -3.4972,-2.07107 -0.3225,-0.47126 -0.5581,-1.10374 -0.5581,-1.73622"
     id="path400"
     inkscape:connector-curvature="0"
     style="stroke-width:0.79370099" />
  <path
     class="Note"
     d="m 2522.2792,349.62563 c 14.609,0 17.5482,-11.90552 17.5482,-14.75788 0,-4.5266 -3.5716,-7.46575 -8.7307,-7.46575 -13.2573,0 -17.387,10.2437 -17.387,14.84469 0,4.67543 3.7329,7.37894 8.5695,7.37894 m -5.9528,-7.21772 c 0,-4.29095 12.7861,-11.35985 16.9902,-11.35985 1.6618,0 2.6167,0.7937 3.2492,1.90985 0.248,0.47126 0.4837,1.02932 0.4837,1.66181 0,1.74862 -1.8231,3.89409 -8.0239,7.93701 -3.9685,2.70354 -6.7464,3.65847 -8.6439,3.65847 -1.8354,0 -2.9391,-0.95493 -3.4972,-2.07107 -0.3225,-0.47126 -0.5581,-1.10374 -0.5581,-1.73622"
     id="path402"
     inkscape:connector-curvature="0"
     style="stroke-width:0.79370099" />
  <path
     class="Note"
     d="m 2522.2792,329.78563 c 14.609,0 17.5482,-11.90552 17.5482,-14.75788 0,-4.5266 -3.5716,-7.46575 -8.7307,-7.46575 -13.2573,0 -17.387,10.2437 -17.387,14.84469 0,4.67543 3.7329,7.37894 8.5695,7.37894 m -5.9528,-7.21772 c 0,-4.29095 12.7861,-11.35985 16.9902,-11.35985 1.6618,0 2.6167,0.7937 3.2492,1.90985 0.248,0.47126 0.4837,1.02932 0.4837,1.66181 0,1.74862 -1.8231,3.89409 -8.0239,7.93701 -3.9685,2.70354 -6.7464,3.65847 -8.6439,3.65847 -1.8354,0 -2.9391,-0.95493 -3.4972,-2.07107 -0.3225,-0.47126 -0.5581,-1.10374 -0.5581,-1.73622"
     id="path404"
     inkscape:connector-curvature="0"
     style="stroke-width:0.79370099" />
  <path
     class="Note"
     d="m 2522.2792,309.93563 c 14.609,0 17.5482,-11.90552 17.5482,-14.75788 0,-4.5266 -3.5716,-7.46575 -8.7307,-7.46575 -13.2573,0 -17.387,10.2437 -17.387,14.84469 0,4.67543 3.7329,7.37894 8.5695,7.37894 m -5.9528,-7.21772 c 0,-4.29095 12.7861,-11.35985 16.9902,-11.35985 1.6618,0 2.6167,0.7937 3.2492,1.90985 0.248,0.47126 0.4837,1.02932 0.4837,1.66181 0,1.74862 -1.8231,3.89409 -8.0239,7.93701 -3.9685,2.70354 -6.7464,3.65847 -8.6439,3.65847 -1.8354,0 -2.9391,-0.95493 -3.4972,-2.07107 -0.3225,-0.47126 -0.5581,-1.10374 -0.5581,-1.73622"
     id="path406"
     inkscape:connector-curvature="0"
     style="stroke-width:0.79370099" />
  <path
     class="Note"
     d="m 203.39667,60.55659 c 0,5.79154 4.92344,10.95064 17.78391,10.95064 14.12534,0 18.65197,-4.91107 18.65197,-10.95064 0,-6.11397 -9.76006,-10.71494 -17.7839,-10.71494 -11.50867,0 -18.65198,4.849 -18.65198,10.71494 m 9.28877,-3.1748 c 0,-4.43977 3.08805,-5.55589 7.14331,-5.55589 5.87838,0 10.64059,6.34959 10.64059,11.59546 0,4.36535 -2.70358,6.10161 -6.59764,6.10161 -5.71711,0 -11.18626,-6.58527 -11.18626,-12.14118"
     id="path408"
     inkscape:connector-curvature="0"
     style="stroke-width:0.79370099" />
  <path
     class="Note"
     d="m 861.31919,81.75063 c 14.60901,0 17.54825,-11.90552 17.54825,-14.75788 0,-4.5266 -3.57166,-7.46575 -8.73071,-7.46575 -13.25733,0 -17.38706,10.2437 -17.38706,14.84469 0,4.67543 3.73288,7.37894 8.56952,7.37894 m -5.95278,-7.21772 c 0,-4.29095 12.78606,-11.35985 16.99014,-11.35985 1.66185,0 2.61675,0.7937 3.24925,1.90985 0.24803,0.47126 0.48368,1.02932 0.48368,1.66181 0,1.74862 -1.82305,3.89409 -8.02384,7.93701 -3.9685,2.70354 -6.74645,3.65847 -8.64392,3.65847 -1.83543,0 -2.93917,-0.95493 -3.49724,-2.07107 -0.32244,-0.47126 -0.55807,-1.10374 -0.55807,-1.73622"
     id="path410"
     inkscape:connector-curvature="0"
     style="stroke-width:0.79370099" />
  <path
     class="Note"
     d="m 1186.8497,64.45069 c 0,4.60098 3.8073,7.37894 8.5695,7.37894 7.8625,0 17.5482,-7.30453 17.5482,-14.84469 0,-4.43979 -3.5716,-7.37894 -8.6563,-7.37894 -9.6856,0 -17.4614,7.21772 -17.4614,14.84469"
     id="path412"
     inkscape:connector-curvature="0"
     style="stroke-width:0.79370099" />
  <path
     class="Note"
     d="m 514.18367,44.60869 c 0,4.60098 3.80729,7.37894 8.56952,7.37894 7.86256,0 17.54825,-7.30453 17.54825,-14.84469 0,-4.43979 -3.57166,-7.37894 -8.65634,-7.37894 -9.68563,0 -17.46143,7.21772 -17.46143,14.84469"
     id="path414"
     inkscape:connector-curvature="0"
     style="stroke-width:0.79370099" />
  <path
     class="Note"
     d="m 666.99667,24.76569 c 0,4.60098 3.80729,7.37894 8.56952,7.37894 7.86256,0 17.54825,-7.30453 17.54825,-14.84469 0,-4.43979 -3.57166,-7.37894 -8.65634,-7.37894 -9.68563,0 -17.46143,7.21772 -17.46143,14.84469"
     id="path416"
     inkscape:connector-curvature="0"
     style="stroke-width:0.79370099" />
  <path
     class="Note"
     d="m 1545.9692,22.22363 c 14.609,0 17.5482,-11.90552 17.5482,-14.75788 0,-4.5266 -3.5716,-7.46575 -8.7307,-7.46575 -13.2573,0 -17.387,10.2437 -17.387,14.84469 0,4.67543 3.7329,7.37894 8.5695,7.37894 m -5.9528,-7.21772 c 0,-4.29095 12.7861,-11.35985 16.9902,-11.35985 1.6618,0 2.6167,0.7937 3.2492,1.90985 0.248,0.47126 0.4837,1.02932 0.4837,1.66181 0,1.74862 -1.8231,3.89409 -8.0239,7.93701 -3.9685,2.70354 -6.7464,3.65847 -8.6439,3.65847 -1.8354,0 -2.9391,-0.95493 -3.4972,-2.07107 -0.3225,-0.47126 -0.5581,-1.10374 -0.5581,-1.73622"
     id="path418"
     inkscape:connector-curvature="0"
     style="stroke-width:0.79370099" />
  <path
     class="Note"
     d="m 1851.5992,32.14463 c 14.609,0 17.5482,-11.90552 17.5482,-14.75788 0,-4.5266 -3.5716,-7.46575 -8.7307,-7.46575 -13.2573,0 -17.387,10.2437 -17.387,14.84469 0,4.67543 3.7329,7.37894 8.5695,7.37894 m -5.9528,-7.21772 c 0,-4.29095 12.7861,-11.35985 16.9902,-11.35985 1.6618,0 2.6167,0.7937 3.2492,1.90985 0.248,0.47126 0.4837,1.02932 0.4837,1.66181 0,1.74862 -1.8231,3.89409 -8.0239,7.93701 -3.9685,2.70354 -6.7464,3.65847 -8.6439,3.65847 -1.8354,0 -2.9391,-0.95493 -3.4972,-2.07107 -0.3225,-0.47126 -0.5581,-1.10374 -0.5581,-1.73622"
     id="path420"
     inkscape:connector-curvature="0"
     style="stroke-width:0.79370099" />
  <path
     class="Note"
     d="m 2179.6097,24.76569 c 0,4.60098 3.8073,7.37894 8.5695,7.37894 7.8625,0 17.5482,-7.30453 17.5482,-14.84469 0,-4.43979 -3.5716,-7.37894 -8.6563,-7.37894 -9.6856,0 -17.4614,7.21772 -17.4614,14.84469"
     id="path422"
     inkscape:connector-curvature="0"
     style="stroke-width:0.79370099" />
  <path
     class="Note"
     d="m 2336.8397,34.68669 c 0,4.60098 3.8073,7.37894 8.5695,7.37894 7.8625,0 17.5482,-7.30453 17.5482,-14.84469 0,-4.43979 -3.5716,-7.37894 -8.6563,-7.37894 -9.6856,0 -17.4614,7.21772 -17.4614,14.84469"
     id="path424"
     inkscape:connector-curvature="0"
     style="stroke-width:0.79370099" />
  <path
     class="Note"
     d="m 2522.2792,51.98763 c 14.609,0 17.5482,-11.90552 17.5482,-14.75788 0,-4.5266 -3.5716,-7.46575 -8.7307,-7.46575 -13.2573,0 -17.387,10.2437 -17.387,14.84469 0,4.67543 3.7329,7.37894 8.5695,7.37894 m -5.9528,-7.21772 c 0,-4.29095 12.7861,-11.35985 16.9902,-11.35985 1.6618,0 2.6167,0.7937 3.2492,1.90985 0.248,0.47126 0.4837,1.02932 0.4837,1.66181 0,1.74862 -1.8231,3.89409 -8.0239,7.93701 -3.9685,2.70354 -6.7464,3.65847 -8.6439,3.65847 -1.8354,0 -2.9391,-0.95493 -3.4972,-2.07107 -0.3225,-0.47126 -0.5581,-1.10374 -0.5581,-1.73622"
     id="path426"
     inkscape:connector-curvature="0"
     style="stroke-width:0.79370099" />
  <path
     class="Clef"
     d="m 78.314392,646.2375 c 1.822972,0 3.881674,-0.1612 5.469076,-0.4836 0.880532,-0.1488 1.041732,-0.2356 1.190551,0.7193 0.954902,5.3202 2.145453,12.228 2.145453,15.9608 0,11.7444 -7.93701,13.1705 -12.612385,13.1705 -4.290985,0 -6.36199,-1.2649 -6.36199,-2.3067 0,-0.5456 0.719252,-0.7937 2.542304,-1.3393 2.467934,-0.7194 5.320257,-2.8648 5.320257,-7.4658 0,-4.3654 -2.777953,-8.0982 -7.614529,-8.0982 -5.320336,0 -8.49514,4.2041 -8.49514,9.1275 0,5.1591 3.088052,12.9349 15.080319,12.9349 5.320336,0 15.638449,-2.3811 15.638449,-15.874 0,-4.5142 -1.426201,-12.0544 -2.306733,-16.9778 -0.161201,-0.955 -0.07437,-0.8805 1.029351,-1.3518 8.023841,-3.1748 13.344095,-9.9213 13.344095,-18.8876 0,-10.1693 -7.465787,-19.1356 -19.135652,-19.1356 -2.058622,0 -2.058622,0 -2.294272,-1.4262 l -1.984253,-11.5087 c -0.1612,-0.9549 0,-1.0293 0.471221,-1.513 8.56951,-8.0114 15.080319,-18.0939 15.080319,-30.235 0,-6.9077 -1.909804,-13.741 -5.159057,-18.5036 -1.190551,-1.7358 -3.249174,-3.9685 -4.129706,-3.9685 -1.10372,0 -3.571654,2.0716 -5.159056,3.8201 -5.865927,6.4984 -7.775809,16.4197 -7.775809,24.6791 0,4.601 0.55813,9.7601 1.116181,13.0217 0.148819,0.9549 0.23565,1.1037 -0.719331,1.8974 -11.434215,9.4501 -23.57538,20.7975 -23.57538,36.8327 0,13.8154 9.450042,26.9114 28.895717,26.9114 M 55.768283,624.6464 c 0,-4.6878 0.793701,-10.9506 7.378959,-18.4163 4.762206,-5.3203 8.420691,-8.2595 12.153546,-11.2731 0.793701,-0.6324 0.94252,-0.5581 1.103721,0.3225 l 1.674233,10.1569 c 0.23565,1.5129 0.23565,1.4261 -1.190552,1.9098 -6.99449,2.3811 -11.521046,8.6439 -11.521046,15.3904 0,7.1433 3.732855,12.2279 9.139943,14.051 0.632501,0.2356 1.587402,0.4837 2.133072,0.4837 0.644882,0 0.954901,-0.3969 0.954901,-0.8806 0,-0.558 -0.6325,-0.7937 -1.190551,-1.0293 -3.336005,-1.4262 -5.717108,-4.8366 -5.717108,-8.4951 0,-4.5266 3.100355,-7.937 7.93701,-9.2888 1.277383,-0.31 1.438583,-0.2356 1.587402,0.6449 l 3.968505,23.6498 c 0.161201,0.8681 0.08683,0.8681 -1.10372,1.1038 -1.277383,0.248 -2.864785,0.3968 -4.452187,0.3968 -13.889767,0 -22.856128,-7.6889 -22.856128,-18.7264 m 30.954339,-73.2685 c 2.616753,0 4.762206,2.1454 4.762206,6.5108 0,8.8175 -7.54016,15.9608 -13.802937,21.4299 -0.558051,0.4837 -0.880532,0.3969 -1.041732,-0.6325 -0.31002,-2.0586 -0.4713,-4.7622 -0.4713,-7.3045 0,-12.3767 5.717187,-20.0037 10.553763,-20.0037 m -2.294272,65.5672 c 6.423978,0.558 11.744314,5.9527 11.744314,12.9348 0,5.0103 -3.013603,9.0531 -7.46579,11.273 -0.954901,0.4837 -1.10372,0.4837 -1.264921,-0.4713 l -3.894135,-22.6204 c -0.161201,-0.9549 -0.07437,-1.1906 0.880532,-1.1161"
     id="path522"
     inkscape:connector-curvature="0"
     style="stroke-width:0.79370099" />
  <path
     class="Clef"
     d="m 78.314392,318.82754 c 1.822972,0 3.881674,-0.1612 5.469076,-0.4836 0.880532,-0.14882 1.041732,-0.23565 1.190551,0.71925 0.954902,5.32026 2.145453,12.228 2.145453,15.96085 0,11.74431 -7.93701,13.17044 -12.612385,13.17044 -4.290985,0 -6.36199,-1.26492 -6.36199,-2.30666 0,-0.54567 0.719252,-0.7937 2.542304,-1.33937 2.467934,-0.71933 5.320257,-2.86478 5.320257,-7.46579 0,-4.36535 -2.777953,-8.09821 -7.614529,-8.09821 -5.320336,0 -8.49514,4.20416 -8.49514,9.12756 0,5.15906 3.088052,12.93487 15.080319,12.93487 5.320336,0 15.638449,-2.3811 15.638449,-15.87402 0,-4.51418 -1.426201,-12.05433 -2.306733,-16.97774 -0.161201,-0.95498 -0.07437,-0.88053 1.029351,-1.35183 8.023841,-3.17481 13.344095,-9.92127 13.344095,-18.88759 0,-10.16933 -7.465787,-19.13561 -19.135652,-19.13561 -2.058622,0 -2.058622,0 -2.294272,-1.4262 l -1.984253,-11.50867 c -0.1612,-0.9549 0,-1.02935 0.471221,-1.51303 8.56951,-8.01138 15.080319,-18.09384 15.080319,-30.23501 0,-6.90766 -1.909804,-13.74095 -5.159057,-18.50355 -1.190551,-1.73582 -3.249174,-3.9685 -4.129706,-3.9685 -1.10372,0 -3.571654,2.07156 -5.159056,3.82008 -5.865927,6.49843 -7.775809,16.41969 -7.775809,24.6791 0,4.60101 0.55813,9.76006 1.116181,13.0217 0.148819,0.9549 0.23565,1.10372 -0.719331,1.89742 -11.434215,9.45004 -23.57538,20.79742 -23.57538,36.8327 0,13.81537 9.450042,26.91141 28.895717,26.91141 M 55.768283,297.23641 c 0,-4.68779 0.793701,-10.95061 7.378959,-18.41632 4.762206,-5.32034 8.420691,-8.25949 12.153546,-11.2731 0.793701,-0.63242 0.94252,-0.55805 1.103721,0.32249 l 1.674233,10.15691 c 0.23565,1.51295 0.23565,1.42612 -1.190552,1.9098 -6.99449,2.3811 -11.521046,8.64388 -11.521046,15.39038 0,7.14331 3.732855,12.22796 9.139943,14.05101 0.632501,0.23565 1.587402,0.48368 2.133072,0.48368 0.644882,0 0.954901,-0.39685 0.954901,-0.88053 0,-0.55805 -0.6325,-0.7937 -1.190551,-1.02935 -3.336005,-1.42618 -5.717108,-4.83662 -5.717108,-8.49509 0,-4.52657 3.100355,-7.93701 7.93701,-9.28882 1.277383,-0.31002 1.438583,-0.23557 1.587402,0.64488 l 3.968505,23.64983 c 0.161201,0.86815 0.08683,0.86815 -1.10372,1.1038 -1.277383,0.24804 -2.864785,0.39685 -4.452187,0.39685 -13.889767,0 -22.856128,-7.68897 -22.856128,-18.72642 m 30.954339,-73.26852 c 2.616753,0 4.762206,2.14545 4.762206,6.51081 0,8.81754 -7.54016,15.96085 -13.802937,21.42992 -0.558051,0.48369 -0.880532,0.39685 -1.041732,-0.6325 -0.31002,-2.05862 -0.4713,-4.7622 -0.4713,-7.30451 0,-12.37673 5.717187,-20.00372 10.553763,-20.00372 m -2.294272,65.56716 c 6.423978,0.55805 11.744314,5.95274 11.744314,12.93483 0,5.01028 -3.013603,9.05315 -7.46579,11.27305 -0.954901,0.48368 -1.10372,0.48368 -1.264921,-0.4713 l -3.894135,-22.62048 c -0.161201,-0.9549 -0.07437,-1.19055 0.880532,-1.1161"
     id="path524"
     inkscape:connector-curvature="0"
     style="stroke-width:0.79370099" />
  <path
     class="Clef"
     d="m 78.314392,110.48754 c 1.822972,0 3.881674,-0.1612 5.469076,-0.4836 0.880532,-0.14882 1.041732,-0.23565 1.190551,0.71925 0.954902,5.32026 2.145453,12.228 2.145453,15.96085 0,11.74431 -7.93701,13.17044 -12.612385,13.17044 -4.290985,0 -6.36199,-1.26492 -6.36199,-2.30666 0,-0.54567 0.719252,-0.7937 2.542304,-1.33937 2.467934,-0.71933 5.320257,-2.86478 5.320257,-7.46579 0,-4.36535 -2.777953,-8.09821 -7.614529,-8.09821 -5.320336,0 -8.49514,4.20416 -8.49514,9.12756 0,5.15906 3.088052,12.93487 15.080319,12.93487 5.320336,0 15.638449,-2.3811 15.638449,-15.87402 0,-4.51418 -1.426201,-12.05433 -2.306733,-16.97774 -0.161201,-0.95498 -0.07437,-0.88053 1.029351,-1.35183 8.023841,-3.17481 13.344095,-9.92127 13.344095,-18.88759 0,-10.16933 -7.465787,-19.13561 -19.135652,-19.13561 -2.058622,0 -2.058622,0 -2.294272,-1.4262 L 79.269293,57.54522 c -0.1612,-0.9549 0,-1.02935 0.471221,-1.51303 8.56951,-8.01138 15.080319,-18.09384 15.080319,-30.23501 0,-6.90766 -1.909804,-13.74095 -5.159057,-18.50355 -1.190551,-1.73582 -3.249174,-3.9685 -4.129706,-3.9685 -1.10372,0 -3.571654,2.07156 -5.159056,3.82008 -5.865927,6.49843 -7.775809,16.41969 -7.775809,24.6791 0,4.60101 0.55813,9.76006 1.116181,13.0217 0.148819,0.9549 0.23565,1.10372 -0.719331,1.89742 -11.434215,9.45004 -23.57538,20.79742 -23.57538,36.8327 0,13.81537 9.450042,26.91141 28.895717,26.91141 M 55.768283,88.89641 c 0,-4.68779 0.793701,-10.95061 7.378959,-18.41632 4.762206,-5.32034 8.420691,-8.25949 12.153546,-11.2731 0.793701,-0.63242 0.94252,-0.55805 1.103721,0.32249 l 1.674233,10.15691 c 0.23565,1.51295 0.23565,1.42612 -1.190552,1.9098 -6.99449,2.3811 -11.521046,8.64388 -11.521046,15.39038 0,7.14331 3.732855,12.22796 9.139943,14.05101 0.632501,0.23565 1.587402,0.48368 2.133072,0.48368 0.644882,0 0.954901,-0.39685 0.954901,-0.88053 0,-0.55805 -0.6325,-0.7937 -1.190551,-1.02935 -3.336005,-1.42618 -5.717108,-4.83662 -5.717108,-8.49509 0,-4.52657 3.100355,-7.93701 7.93701,-9.28882 1.277383,-0.31002 1.438583,-0.23557 1.587402,0.64488 l 3.968505,23.64983 c 0.161201,0.86815 0.08683,0.86815 -1.10372,1.1038 -1.277383,0.24804 -2.864785,0.39685 -4.452187,0.39685 -13.889767,0 -22.856128,-7.68897 -22.856128,-18.72642 M 86.722622,15.62789 c 2.616753,0 4.762206,2.14545 4.762206,6.51081 0,8.81754 -7.54016,15.96085 -13.802937,21.42992 -0.558051,0.48369 -0.880532,0.39685 -1.041732,-0.6325 -0.31002,-2.05862 -0.4713,-4.7622 -0.4713,-7.30451 0,-12.37673 5.717187,-20.00372 10.553763,-20.00372 M 84.42835,81.19505 c 6.423978,0.55805 11.744314,5.95274 11.744314,12.93483 0,5.01028 -3.013603,9.05315 -7.46579,11.27305 -0.954901,0.48368 -1.10372,0.48368 -1.264921,-0.4713 L 83.547818,82.31115 c -0.161201,-0.9549 -0.07437,-1.19055 0.880532,-1.1161"
     id="path526"
     inkscape:connector-curvature="0"
     style="stroke-width:0.79370099" />
  <path
     class="TimeSig"
     d="m 127.67858,620.8316 c 3.01361,3.6461 7.37896,5.3204 12.14117,5.3204 13.88976,0 15.96085,-12.6249 15.96085,-14.9316 0,-1.7362 -0.88053,-1.7362 -1.19055,-1.7362 -0.6325,0 -1.19056,0.074 -1.19056,1.4262 0,10.2313 -8.73071,12.6124 -11.27309,12.6124 -6.43636,0 -9.84681,-6.2628 -9.84681,-19.3589 0,-13.0961 6.03959,-15.7996 10.31811,-15.7996 4.12971,0 5.80394,1.9098 5.80394,2.7035 0,0.7069 -0.24803,1.7486 -1.43858,1.7486 -3.17481,0 -4.99786,3.4105 -4.99786,5.866 0,4.5266 3.89414,5.9528 6.11396,5.9528 0,0 6.0272,-0.2356 6.0272,-6.8209 0,-10.4049 -11.97996,-11.3475 -13.49291,-11.3475 -11.27306,0 -18.09392,9.9958 -18.09392,20.7107 0,5.1591 1.90984,9.6856 5.15905,13.6541"
     id="path532"
     inkscape:connector-curvature="0"
     style="stroke-width:0.79370099" />
  <path
     class="TimeSig"
     d="m 127.67858,293.43163 c 3.01361,3.64611 7.37896,5.32034 12.14117,5.32034 13.88976,0 15.96085,-12.62485 15.96085,-14.93154 0,-1.73622 -0.88053,-1.73622 -1.19055,-1.73622 -0.6325,0 -1.19056,0.0744 -1.19056,1.42618 0,10.23134 -8.73071,12.61244 -11.27309,12.61244 -6.43636,0 -9.84681,-6.26285 -9.84681,-19.3589 0,-13.09608 6.03959,-15.79959 10.31811,-15.79959 4.12971,0 5.80394,1.9098 5.80394,2.70351 0,0.70687 -0.24803,1.7486 -1.43858,1.7486 -3.17481,0 -4.99786,3.41045 -4.99786,5.86598 0,4.52658 3.89414,5.95276 6.11396,5.95276 0,0 6.0272,-0.23563 6.0272,-6.82089 0,-10.40494 -11.97996,-11.34746 -13.49291,-11.34746 -11.27306,0 -18.09392,9.99571 -18.09392,20.71068 0,5.15905 1.90984,9.68561 5.15905,13.65411"
     id="path534"
     inkscape:connector-curvature="0"
     style="stroke-width:0.79370099" />
  <path
     class="TimeSig"
     d="m 127.67858,85.08663 c 3.01361,3.64611 7.37896,5.32034 12.14117,5.32034 13.88976,0 15.96085,-12.62485 15.96085,-14.93154 0,-1.73622 -0.88053,-1.73622 -1.19055,-1.73622 -0.6325,0 -1.19056,0.0744 -1.19056,1.42618 0,10.23134 -8.73071,12.61244 -11.27309,12.61244 -6.43636,0 -9.84681,-6.26285 -9.84681,-19.3589 0,-13.09608 6.03959,-15.79959 10.31811,-15.79959 4.12971,0 5.80394,1.9098 5.80394,2.70351 0,0.70687 -0.24803,1.7486 -1.43858,1.7486 -3.17481,0 -4.99786,3.41045 -4.99786,5.86598 0,4.52658 3.89414,5.95276 6.11396,5.95276 0,0 6.0272,-0.23563 6.0272,-6.82089 0,-10.40494 -11.97996,-11.34746 -13.49291,-11.34746 -11.27306,0 -18.09392,9.99571 -18.09392,20.71068 0,5.15905 1.90984,9.68561 5.15905,13.65411"
     id="path536"
     inkscape:connector-curvature="0"
     style="stroke-width:0.79370099" />
  <path
     class="Rest"
     d="m 1353.3584,99.69573 c 0.6325,0.47122 1.4262,0.70687 2.0587,0.70687 0.5581,0 1.1161,-0.1612 1.1906,-0.47122 0.087,-0.23565 0.1612,-0.39685 0.1612,-0.55813 0,-0.71925 -0.6325,-1.35175 -1.2649,-1.9098 -1.0418,0 -1.9099,-2.13307 -2.0711,-2.85241 -0.2357,-0.63242 -0.31,-1.35175 -0.31,-2.05862 0,-3.26163 1.6617,-5.80394 4.9977,-5.80394 2.2944,0 4.9235,0.88054 6.1885,1.35176 0.087,0 0.1612,0.0744 0.2356,0.0744 0.248,0.0868 0.3969,0.0868 0.5581,0.0868 0.2356,0 0.3968,-0.0868 0.3968,-0.3224 0,-0.95491 -2.0586,-3.57166 -2.9392,-4.52656 -3.0136,-3.6461 -5.469,-6.58527 -5.469,-11.02504 0,-0.32244 0.074,-0.71929 0.074,-1.02933 0.3225,-4.61339 3.1748,-8.42068 5.2335,-11.66991 0.2481,-0.39685 0.3224,-0.7937 0.3224,-1.19055 0,-0.7937 -0.3224,-1.51295 -0.3224,-1.51295 0,0 -11.7443,-13.96422 -13.0961,-15.31597 -0.3968,-0.39685 -0.9425,-0.6325 -1.4261,-0.6325 -0.7937,0 -1.5874,0.54567 -1.5874,1.66185 0,0.39685 0.087,0.7937 0.3224,1.26492 0.31,0.88053 4.8366,4.92341 4.8366,10.64059 0,2.93916 -1.1905,6.34961 -4.7622,10.08247 -0.7937,0.7937 -1.1037,1.66181 -1.1037,2.30669 0,1.10374 0.7937,1.89744 0.7937,1.89744 l 3.8817,4.76221 c 1.2773,1.5874 2.3811,3.1004 3.4104,4.76221 0.1612,0.32241 0.4836,0.95492 0.4836,1.11612 0,0.0744 0,0.23565 -0.087,0.31009 -0.1488,0.32241 -0.4713,0.39686 -0.8682,0.39686 -0.3224,0 -0.9549,-0.14882 -1.2649,-0.23565 -0.3969,0 -0.8805,-0.23565 -1.2774,-0.23565 -3.4104,0 -6.5108,3.41045 -6.5108,7.6146 0,3.98089 3.4228,7.86257 9.2143,12.31475"
     id="path542"
     inkscape:connector-curvature="0"
     style="stroke-width:0.79370099" />
  <path
     class="Bracket"
     d="m 13.53169,204.44125 c 0,20.14019 -10.0700948,37.98756 -10.0700948,58.98198 0,28.77161 7.7323948,45.45022 14.0711738,53.54226 1.16885,1.43859 1.753261,1.70832 2.292731,1.70832 0.899115,0 1.753289,-0.85416 1.753289,-1.70832 0,-0.89911 -0.314704,-1.75329 -1.438585,-3.19187 -1.438585,-2.29273 -8.047099,-16.67858 -8.047099,-31.91866 0,-15.24008 8.63151,-42.30332 10.609565,-59.29675 0.314704,-1.43859 0.314704,-2.87717 0.314704,-4.58535 0,-16.99343 -9.485684,-37.40321 -17.8474592,-42.57319 8.3617752,-5.21487 17.8474592,-25.62465 17.8474592,-42.61808 0,-1.43859 0,-3.14676 -0.314704,-4.58535 -1.978055,-17.26302 -10.609565,-44.01178 -10.609565,-59.56663 0,-14.9702 6.608514,-29.35605 8.047099,-31.91846 1.123881,-1.16899 1.438585,-2.02293 1.438585,-2.87717 0,-0.58435 -0.314704,-1.16899 -0.584439,-1.16899 -0.269735,-0.26959 -0.584411,-0.85394 -1.16885,-0.85394 -0.53947,0 -1.123881,0.58435 -2.292731,2.02293 -6.338779,7.7324 -14.0711738,24.45595 -14.0711738,53.22765 0,28.45694 10.0700948,39.96562 10.0700948,58.12775 0,13.48674 -5.4846052,20.99442 -13.53169,30.21029 5.1699148,5.75434 13.53169,10.33997 13.53169,29.04158"
     id="path580"
     inkscape:connector-curvature="0"
     style="stroke-width:2.87717009" />
</svg>
