<?xml version="1.0" encoding="UTF-8" standalone="no"?>
<svg
   xmlns:dc="http://purl.org/dc/elements/1.1/"
   xmlns:cc="http://creativecommons.org/ns#"
   xmlns:rdf="http://www.w3.org/1999/02/22-rdf-syntax-ns#"
   xmlns:svg="http://www.w3.org/2000/svg"
   xmlns="http://www.w3.org/2000/svg"
   xmlns:sodipodi="http://sodipodi.sourceforge.net/DTD/sodipodi-0.dtd"
   xmlns:inkscape="http://www.inkscape.org/namespaces/inkscape"
   width="2831.3296"
   height="1602.6257"
   viewBox="0 0 2831.3297 1602.6258"
   version="1.2"
   id="svg1166"
   sodipodi:docname="KV 545-Exposition-2c.svg"
   inkscape:version="0.92.3 (2405546, 2018-03-11)">
  <metadata
     id="metadata1172">
    <rdf:RDF>
      <cc:Work
         rdf:about="">
        <dc:format>image/svg+xml</dc:format>
        <dc:type
           rdf:resource="http://purl.org/dc/dcmitype/StillImage" />
      </cc:Work>
    </rdf:RDF>
  </metadata>
  <defs
     id="defs1170" />
  <sodipodi:namedview
     pagecolor="#ffffff"
     bordercolor="#666666"
     borderopacity="1"
     objecttolerance="10"
     gridtolerance="10"
     guidetolerance="10"
     inkscape:pageopacity="0"
     inkscape:pageshadow="2"
     inkscape:window-width="3840"
     inkscape:window-height="2066"
     id="namedview1168"
     showgrid="false"
     inkscape:zoom="0.44281425"
     inkscape:cx="440.41038"
     inkscape:cy="288.06879"
     inkscape:window-x="-11"
     inkscape:window-y="-11"
     inkscape:window-maximized="1"
     inkscape:current-layer="svg1166" />
  <title
     id="title2">KV 545-Exposition (2)</title>
  <desc
     id="desc4">Generated by MuseScore 3.6.2</desc>
  <polyline
     class="StaffLines"
     points="102.85,958.11 2903.81,958.11"
     id="polyline26"
     style="fill:none;stroke:#000000;stroke-width:2.57999992;stroke-linejoin:bevel"
     transform="translate(-72.480325,-927.15619)" />
  <polyline
     class="StaffLines"
     points="102.85,977.953 2903.81,977.953"
     id="polyline28"
     style="fill:none;stroke:#000000;stroke-width:2.57999992;stroke-linejoin:bevel"
     transform="translate(-72.480325,-927.15619)" />
  <polyline
     class="StaffLines"
     points="102.85,997.795 2903.81,997.795"
     id="polyline30"
     style="fill:none;stroke:#000000;stroke-width:2.57999992;stroke-linejoin:bevel"
     transform="translate(-72.480325,-927.15619)" />
  <polyline
     class="StaffLines"
     points="102.85,1017.64 2903.81,1017.64"
     id="polyline32"
     style="fill:none;stroke:#000000;stroke-width:2.57999992;stroke-linejoin:bevel"
     transform="translate(-72.480325,-927.15619)" />
  <polyline
     class="StaffLines"
     points="102.85,1037.48 2903.81,1037.48"
     id="polyline34"
     style="fill:none;stroke:#000000;stroke-width:2.57999992;stroke-linejoin:bevel"
     transform="translate(-72.480325,-927.15619)" />
  <polyline
     class="StaffLines"
     points="102.85,1166.46 2903.81,1166.46"
     id="polyline36"
     style="fill:none;stroke:#000000;stroke-width:2.57999992;stroke-linejoin:bevel"
     transform="translate(-72.480325,-927.15619)" />
  <polyline
     class="StaffLines"
     points="102.85,1186.3 2903.81,1186.3"
     id="polyline38"
     style="fill:none;stroke:#000000;stroke-width:2.57999992;stroke-linejoin:bevel"
     transform="translate(-72.480325,-927.15619)" />
  <polyline
     class="StaffLines"
     points="102.85,1206.14 2903.81,1206.14"
     id="polyline40"
     style="fill:none;stroke:#000000;stroke-width:2.57999992;stroke-linejoin:bevel"
     transform="translate(-72.480325,-927.15619)" />
  <polyline
     class="StaffLines"
     points="102.85,1225.98 2903.81,1225.98"
     id="polyline42"
     style="fill:none;stroke:#000000;stroke-width:2.57999992;stroke-linejoin:bevel"
     transform="translate(-72.480325,-927.15619)" />
  <polyline
     class="StaffLines"
     points="102.85,1245.83 2903.81,1245.83"
     id="polyline44"
     style="fill:none;stroke:#000000;stroke-width:2.57999992;stroke-linejoin:bevel"
     transform="translate(-72.480325,-927.15619)" />
  <polyline
     class="StaffLines"
     points="102.85,1493.86 2903.81,1493.86"
     id="polyline46"
     style="fill:none;stroke:#000000;stroke-width:2.57999992;stroke-linejoin:bevel"
     transform="translate(-72.480325,-927.15619)" />
  <polyline
     class="StaffLines"
     points="102.85,1513.7 2903.81,1513.7"
     id="polyline48"
     style="fill:none;stroke:#000000;stroke-width:2.57999992;stroke-linejoin:bevel"
     transform="translate(-72.480325,-927.15619)" />
  <polyline
     class="StaffLines"
     points="102.85,1533.54 2903.81,1533.54"
     id="polyline50"
     style="fill:none;stroke:#000000;stroke-width:2.57999992;stroke-linejoin:bevel"
     transform="translate(-72.480325,-927.15619)" />
  <polyline
     class="StaffLines"
     points="102.85,1553.39 2903.81,1553.39"
     id="polyline52"
     style="fill:none;stroke:#000000;stroke-width:2.57999992;stroke-linejoin:bevel"
     transform="translate(-72.480325,-927.15619)" />
  <polyline
     class="StaffLines"
     points="102.85,1573.23 2903.81,1573.23"
     id="polyline54"
     style="fill:none;stroke:#000000;stroke-width:2.57999992;stroke-linejoin:bevel"
     transform="translate(-72.480325,-927.15619)" />
  <polyline
     class="StaffLines"
     points="102.85,2466.14 2903.81,2466.14"
     id="polyline76"
     transform="translate(-72.480325,-1613.6743)"
     style="fill:none;stroke:#000000;stroke-width:2.57999992;stroke-linejoin:bevel" />
  <polyline
     class="StaffLines"
     points="102.85,2485.98 2903.81,2485.98"
     id="polyline78"
     transform="translate(-72.480325,-1613.6743)"
     style="fill:none;stroke:#000000;stroke-width:2.57999992;stroke-linejoin:bevel" />
  <polyline
     class="StaffLines"
     points="102.85,2505.83 2903.81,2505.83"
     id="polyline80"
     transform="translate(-72.480325,-1613.6743)"
     style="fill:none;stroke:#000000;stroke-width:2.57999992;stroke-linejoin:bevel" />
  <polyline
     class="StaffLines"
     points="102.85,2525.67 2903.81,2525.67"
     id="polyline82"
     transform="translate(-72.480325,-1613.6743)"
     style="fill:none;stroke:#000000;stroke-width:2.57999992;stroke-linejoin:bevel" />
  <polyline
     class="StaffLines"
     points="102.85,2545.51 2903.81,2545.51"
     id="polyline84"
     transform="translate(-72.480325,-1613.6743)"
     style="fill:none;stroke:#000000;stroke-width:2.57999992;stroke-linejoin:bevel" />
  <polyline
     class="StaffLines"
     points="102.85,2674.49 2903.81,2674.49"
     id="polyline86"
     transform="translate(-72.480325,-1613.6743)"
     style="fill:none;stroke:#000000;stroke-width:2.57999992;stroke-linejoin:bevel" />
  <polyline
     class="StaffLines"
     points="102.85,2694.33 2903.81,2694.33"
     id="polyline88"
     transform="translate(-72.480325,-1613.6743)"
     style="fill:none;stroke:#000000;stroke-width:2.57999992;stroke-linejoin:bevel" />
  <polyline
     class="StaffLines"
     points="102.85,2714.17 2903.81,2714.17"
     id="polyline90"
     transform="translate(-72.480325,-1613.6743)"
     style="fill:none;stroke:#000000;stroke-width:2.57999992;stroke-linejoin:bevel" />
  <polyline
     class="StaffLines"
     points="102.85,2734.02 2903.81,2734.02"
     id="polyline92"
     transform="translate(-72.480325,-1613.6743)"
     style="fill:none;stroke:#000000;stroke-width:2.57999992;stroke-linejoin:bevel" />
  <polyline
     class="StaffLines"
     points="102.85,2753.86 2903.81,2753.86"
     id="polyline94"
     transform="translate(-72.480325,-1613.6743)"
     style="fill:none;stroke:#000000;stroke-width:2.57999992;stroke-linejoin:bevel" />
  <polyline
     class="StaffLines"
     points="102.85,3001.89 2903.81,3001.89"
     id="polyline96"
     transform="translate(-72.480325,-1613.6743)"
     style="fill:none;stroke:#000000;stroke-width:2.57999992;stroke-linejoin:bevel" />
  <polyline
     class="StaffLines"
     points="102.85,3021.73 2903.81,3021.73"
     id="polyline98"
     transform="translate(-72.480325,-1613.6743)"
     style="fill:none;stroke:#000000;stroke-width:2.57999992;stroke-linejoin:bevel" />
  <polyline
     class="StaffLines"
     points="102.85,3041.57 2903.81,3041.57"
     id="polyline100"
     transform="translate(-72.480325,-1613.6743)"
     style="fill:none;stroke:#000000;stroke-width:2.57999992;stroke-linejoin:bevel" />
  <polyline
     class="StaffLines"
     points="102.85,3061.42 2903.81,3061.42"
     id="polyline102"
     transform="translate(-72.480325,-1613.6743)"
     style="fill:none;stroke:#000000;stroke-width:2.57999992;stroke-linejoin:bevel" />
  <polyline
     class="StaffLines"
     points="102.85,3081.26 2903.81,3081.26"
     id="polyline104"
     transform="translate(-72.480325,-1613.6743)"
     style="fill:none;stroke:#000000;stroke-width:2.57999992;stroke-linejoin:bevel" />
  <polyline
     class="BarLine"
     points="104.438,1492.57 104.438,1574.52"
     id="polyline118"
     style="stroke:#000000;stroke-width:3.17000008;stroke-linejoin:bevel"
     transform="translate(-72.480325,-927.15619)" />
  <polyline
     class="BarLine"
     points="922.331,1492.57 922.331,1574.52"
     id="polyline120"
     style="stroke:#000000;stroke-width:3.17000008;stroke-linejoin:bevel"
     transform="translate(-72.480325,-927.15619)" />
  <polyline
     class="BarLine"
     points="1644.17,1492.57 1644.17,1574.52"
     id="polyline122"
     style="stroke:#000000;stroke-width:3.17000008;stroke-linejoin:bevel"
     transform="translate(-72.480325,-927.15619)" />
  <polyline
     class="BarLine"
     points="2294.67,1492.57 2294.67,1574.52"
     id="polyline124"
     style="stroke:#000000;stroke-width:3.17000008;stroke-linejoin:bevel"
     transform="translate(-72.480325,-927.15619)" />
  <polyline
     class="BarLine"
     points="2902.22,1492.57 2902.22,1574.52"
     id="polyline126"
     style="stroke:#000000;stroke-width:3.17000008;stroke-linejoin:bevel"
     transform="translate(-72.480325,-927.15619)" />
  <polyline
     class="BarLine"
     points="104.438,3000.6 104.438,3082.55"
     id="polyline128"
     transform="translate(-72.480325,-1613.6743)"
     style="stroke:#000000;stroke-width:3.17000008;stroke-linejoin:bevel" />
  <polyline
     class="BarLine"
     points="936.634,3000.6 936.634,3082.55"
     id="polyline130"
     transform="translate(-72.480325,-1613.6743)"
     style="stroke:#000000;stroke-width:3.17000008;stroke-linejoin:bevel" />
  <polyline
     class="BarLine"
     points="1817.21,3000.6 1817.21,3082.55"
     id="polyline132"
     transform="translate(-72.480325,-1613.6743)"
     style="stroke:#000000;stroke-width:3.17000008;stroke-linejoin:bevel" />
  <polyline
     class="BarLine"
     points="2552.7,3000.6 2552.7,3082.55"
     id="polyline134"
     transform="translate(-72.480325,-1613.6743)"
     style="stroke:#000000;stroke-width:3.17000008;stroke-linejoin:bevel" />
  <polyline
     class="BarLine"
     points="2902.22,3000.6 2902.22,3082.55"
     id="polyline136"
     transform="translate(-72.480325,-1613.6743)"
     style="stroke:#000000;stroke-width:3.17000008;stroke-linejoin:bevel" />
  <polyline
     class="BarLine"
     points="104.438,1165.17 104.438,1493.86"
     id="polyline138"
     style="stroke:#000000;stroke-width:3.17000008;stroke-linejoin:bevel"
     transform="translate(-72.480325,-927.15619)" />
  <polyline
     class="BarLine"
     points="922.331,1165.17 922.331,1247.12"
     id="polyline140"
     style="stroke:#000000;stroke-width:3.17000008;stroke-linejoin:bevel"
     transform="translate(-72.480325,-927.15619)" />
  <polyline
     class="BarLine"
     points="1644.17,1165.17 1644.17,1247.12"
     id="polyline142"
     style="stroke:#000000;stroke-width:3.17000008;stroke-linejoin:bevel"
     transform="translate(-72.480325,-927.15619)" />
  <polyline
     class="BarLine"
     points="2294.67,1165.17 2294.67,1247.12"
     id="polyline144"
     style="stroke:#000000;stroke-width:3.17000008;stroke-linejoin:bevel"
     transform="translate(-72.480325,-927.15619)" />
  <polyline
     class="BarLine"
     points="2902.22,1165.17 2902.22,1247.12"
     id="polyline146"
     style="stroke:#000000;stroke-width:3.17000008;stroke-linejoin:bevel"
     transform="translate(-72.480325,-927.15619)" />
  <polyline
     class="BarLine"
     points="104.438,2673.2 104.438,3001.89"
     id="polyline148"
     transform="translate(-72.480325,-1613.6743)"
     style="stroke:#000000;stroke-width:3.17000008;stroke-linejoin:bevel" />
  <polyline
     class="BarLine"
     points="936.634,2673.2 936.634,2755.15"
     id="polyline150"
     transform="translate(-72.480325,-1613.6743)"
     style="stroke:#000000;stroke-width:3.17000008;stroke-linejoin:bevel" />
  <polyline
     class="BarLine"
     points="1817.21,2673.2 1817.21,2755.15"
     id="polyline152"
     transform="translate(-72.480325,-1613.6743)"
     style="stroke:#000000;stroke-width:3.17000008;stroke-linejoin:bevel" />
  <polyline
     class="BarLine"
     points="2552.7,2673.2 2552.7,2755.15"
     id="polyline154"
     transform="translate(-72.480325,-1613.6743)"
     style="stroke:#000000;stroke-width:3.17000008;stroke-linejoin:bevel" />
  <polyline
     class="BarLine"
     points="2902.22,2673.2 2902.22,2755.15"
     id="polyline156"
     transform="translate(-72.480325,-1613.6743)"
     style="stroke:#000000;stroke-width:3.17000008;stroke-linejoin:bevel" />
  <polyline
     class="BarLine"
     points="104.438,956.821 104.438,1166.46"
     id="polyline158"
     style="stroke:#000000;stroke-width:3.17000008;stroke-linejoin:bevel"
     transform="translate(-72.480325,-927.15619)" />
  <polyline
     class="BarLine"
     points="922.331,956.821 922.331,1038.77"
     id="polyline160"
     style="stroke:#000000;stroke-width:3.17000008;stroke-linejoin:bevel"
     transform="translate(-72.480325,-927.15619)" />
  <polyline
     class="BarLine"
     points="1644.17,956.821 1644.17,1038.77"
     id="polyline162"
     style="stroke:#000000;stroke-width:3.17000008;stroke-linejoin:bevel"
     transform="translate(-72.480325,-927.15619)" />
  <polyline
     class="BarLine"
     points="2294.67,956.821 2294.67,1038.77"
     id="polyline164"
     style="stroke:#000000;stroke-width:3.17000008;stroke-linejoin:bevel"
     transform="translate(-72.480325,-927.15619)" />
  <polyline
     class="BarLine"
     points="2902.22,956.821 2902.22,1038.77"
     id="polyline166"
     style="stroke:#000000;stroke-width:3.17000008;stroke-linejoin:bevel"
     transform="translate(-72.480325,-927.15619)" />
  <polyline
     class="BarLine"
     points="104.438,2464.85 104.438,2674.49"
     id="polyline168"
     transform="translate(-72.480325,-1613.6743)"
     style="stroke:#000000;stroke-width:3.17000008;stroke-linejoin:bevel" />
  <polyline
     class="BarLine"
     points="936.634,2464.85 936.634,2546.8"
     id="polyline170"
     transform="translate(-72.480325,-1613.6743)"
     style="stroke:#000000;stroke-width:3.17000008;stroke-linejoin:bevel" />
  <polyline
     class="BarLine"
     points="1817.21,2464.85 1817.21,2546.8"
     id="polyline172"
     transform="translate(-72.480325,-1613.6743)"
     style="stroke:#000000;stroke-width:3.17000008;stroke-linejoin:bevel" />
  <polyline
     class="BarLine"
     points="2552.7,2464.85 2552.7,2546.8"
     id="polyline174"
     transform="translate(-72.480325,-1613.6743)"
     style="stroke:#000000;stroke-width:3.17000008;stroke-linejoin:bevel" />
  <polyline
     class="BarLine"
     points="2902.22,2464.85 2902.22,2546.8"
     id="polyline176"
     transform="translate(-72.480325,-1613.6743)"
     style="stroke:#000000;stroke-width:3.17000008;stroke-linejoin:bevel" />
  <polyline
     class="BarLine"
     points="104.438,629.419 104.438,958.11"
     id="polyline178"
     transform="matrix(1,0,0,0.00392162,-72.480325,27.196474)"
     style="stroke:#000000;stroke-width:3.17000008;stroke-linejoin:bevel" />
  <polyline
     class="BarLine"
     points="104.438,2137.45 104.438,2466.14"
     id="polyline188"
     transform="matrix(1,0,0,0.00392467,-72.480325,842.78265)"
     style="stroke:#000000;stroke-width:3.17000008;stroke-linejoin:bevel" />
  <path
     class="Accidental"
     d="m 1286.9022,1525.052 c 0.3224,0 1.823,-0.7193 2.071,-0.8806 0.074,0 0.1489,-0.074 0.2357,-0.074 0.558,0 1.0293,0.7937 1.0293,1.4262 v 7.8626 c 0,0.8681 -0.3968,1.5874 -0.8681,1.823 -0.4837,0.1613 -2.1455,0.8682 -2.1455,0.8682 -0.558,0.1612 -0.9549,0.7937 -0.9549,1.2774 v 5.6302 c 0,0.4713 0.2356,0.7194 0.6325,0.7194 0.087,0 0.2356,-0.087 0.3224,-0.087 0,0 1.1038,-0.4713 1.8231,-0.7068 0.074,-0.087 0.1612,-0.087 0.2356,-0.087 0.5581,0 0.9549,0.8806 0.9549,1.2774 v 9.76 c 0,0.4713 0.4713,0.8682 1.0293,0.8682 0.7937,0 1.3518,-0.3969 1.3518,-0.8682 v -11.0374 c 0,-1.0293 0.3969,-1.5874 0.7937,-1.7486 l 4.8367,-1.9842 c 0.087,0 0.248,-0.075 0.3224,-0.075 0.6325,0 1.0293,0.9549 1.0293,1.4262 v 9.9213 c 0,0.4837 0.4837,0.8805 1.0294,0.8805 0.8804,0 1.3517,-0.3968 1.3517,-0.8805 v -11.273 c 0,-0.6325 0.3224,-1.5874 0.8806,-1.8231 0.5456,-0.2356 2.2198,-0.8681 2.2198,-0.8681 0.5581,-0.2356 0.955,-0.8805 0.955,-1.3518 v -5.6303 c 0,-0.3968 -0.2481,-0.6449 -0.5582,-0.6449 -0.1612,0 -0.2355,0 -0.3968,0.087 l -2.071,0.7937 c -0.4713,0 -1.0294,-0.4836 -1.0294,-1.4261 v -7.3914 c 0,-0.5457 0.3969,-2.0586 1.0294,-2.2943 l 2.071,-0.7937 c 0.5581,-0.2356 0.955,-0.8805 0.955,-1.3517 v -5.6304 c 0,-0.3969 -0.2481,-0.6449 -0.5582,-0.6449 -0.1612,0 -0.2355,0 -0.3968,0.087 0,0 -1.5874,0.6325 -1.9843,0.7069 -0.558,0 -1.1161,-0.3968 -1.1161,-1.0293 v -9.6856 c 0,-0.4713 -0.4713,-0.8681 -1.1037,-0.8681 -0.7937,0 -1.2774,0.3968 -1.2774,0.8681 v 10.3181 c -0.074,0.7937 -0.31,1.8354 -1.0293,2.3067 -0.9549,0.558 -3.6461,1.6618 -4.9979,1.9843 -0.7193,0 -0.9549,-0.955 -0.9549,-1.5875 v -9.5244 c 0,-0.4836 -0.5581,-0.8805 -1.1161,-0.8805 -0.7937,0 -1.265,0.3969 -1.265,0.8805 v 10.715 c 0,1.1161 -0.4713,1.9098 -0.9549,2.1455 -0.4713,0.2356 -2.0587,0.8681 -2.0587,0.8681 -0.558,0.1612 -0.9549,0.7937 -0.9549,1.2773 v 5.6304 c 0,0.4712 0.2356,0.7193 0.6325,0.7193 m 5.4815,4.4397 c 0,-2.4555 0.074,-5.2334 0.2356,-5.8783 0.1612,-1.3394 3.8073,-3.0136 5.7916,-3.0136 0.558,0 1.0293,0.1612 1.1905,0.4836 0.1612,0.3969 0.3224,2.3812 0.3224,4.5142 0,2.1455 -0.1612,4.3654 -0.3224,5.0847 -0.4713,1.5874 -4.2041,3.1748 -6.0272,3.1748 -0.4836,0 -0.8805,-0.1612 -0.9549,-0.3969 -0.1612,-0.3224 -0.2356,-2.0586 -0.2356,-3.9685"
     id="path218"
     inkscape:connector-curvature="0"
     style="stroke-width:0.79370099" />
  <path
     class="Accidental"
     d="m 1294.8322,1078.592 c 0.3224,0 1.823,-0.7193 2.071,-0.8806 0.075,0 0.1489,-0.074 0.2357,-0.074 0.558,0 1.0293,0.7937 1.0293,1.4262 v 7.8626 c 0,0.8681 -0.3968,1.5874 -0.8681,1.823 -0.4837,0.1613 -2.1455,0.8682 -2.1455,0.8682 -0.558,0.1612 -0.9549,0.7937 -0.9549,1.2774 v 5.6302 c 0,0.4713 0.2356,0.7194 0.6325,0.7194 0.087,0 0.2356,-0.087 0.3224,-0.087 0,0 1.1038,-0.4713 1.8231,-0.7068 0.074,-0.087 0.1612,-0.087 0.2356,-0.087 0.5581,0 0.9549,0.8806 0.9549,1.2774 v 9.76 c 0,0.4713 0.4713,0.8682 1.0293,0.8682 0.7937,0 1.3518,-0.3969 1.3518,-0.8682 v -11.0374 c 0,-1.0293 0.3969,-1.5874 0.7937,-1.7486 l 4.8367,-1.9842 c 0.087,0 0.248,-0.075 0.3224,-0.075 0.6325,0 1.0293,0.9549 1.0293,1.4262 v 9.9213 c 0,0.4837 0.4837,0.8805 1.0294,0.8805 0.8804,0 1.3517,-0.3968 1.3517,-0.8805 v -11.273 c 0,-0.6325 0.3224,-1.5874 0.8806,-1.8231 0.5456,-0.2356 2.2198,-0.8681 2.2198,-0.8681 0.5581,-0.2356 0.955,-0.8805 0.955,-1.3518 v -5.6303 c 0,-0.3968 -0.2481,-0.6449 -0.5582,-0.6449 -0.1612,0 -0.2355,0 -0.3968,0.087 l -2.071,0.7937 c -0.4713,0 -1.0294,-0.4836 -1.0294,-1.4261 v -7.3914 c 0,-0.5457 0.3969,-2.0586 1.0294,-2.2943 l 2.071,-0.7937 c 0.5581,-0.2356 0.955,-0.8805 0.955,-1.3517 v -5.6304 c 0,-0.3969 -0.2481,-0.6449 -0.5582,-0.6449 -0.1612,0 -0.2355,0 -0.3968,0.087 0,0 -1.5874,0.6325 -1.9843,0.7069 -0.558,0 -1.1161,-0.3968 -1.1161,-1.0293 v -9.6856 c 0,-0.4713 -0.4713,-0.8681 -1.1037,-0.8681 -0.7937,0 -1.2774,0.3968 -1.2774,0.8681 v 10.3181 c -0.074,0.7937 -0.31,1.8354 -1.0293,2.3067 -0.9549,0.558 -3.6461,1.6618 -4.9979,1.9843 -0.7193,0 -0.9549,-0.955 -0.9549,-1.5875 v -9.5244 c 0,-0.4836 -0.5581,-0.8805 -1.1161,-0.8805 -0.7937,0 -1.265,0.3969 -1.265,0.8805 v 10.715 c 0,1.1161 -0.4713,1.9098 -0.9549,2.1455 -0.4713,0.2356 -2.0587,0.8681 -2.0587,0.8681 -0.558,0.1612 -0.9549,0.7937 -0.9549,1.2773 v 5.6304 c 0,0.4712 0.2356,0.7193 0.6325,0.7193 m 5.4815,4.4397 c 0,-2.4555 0.074,-5.2334 0.2356,-5.8783 0.1612,-1.3394 3.8073,-3.0136 5.7916,-3.0136 0.558,0 1.0293,0.1612 1.1905,0.4836 0.1612,0.3969 0.3224,2.3812 0.3224,4.5142 0,2.1455 -0.1612,4.3654 -0.3224,5.0847 -0.4713,1.5874 -4.2041,3.1748 -6.0272,3.1748 -0.4836,0 -0.8805,-0.1612 -0.9549,-0.3969 -0.1612,-0.3224 -0.2356,-2.0586 -0.2356,-3.9685"
     id="path220"
     inkscape:connector-curvature="0"
     style="stroke-width:0.79370099" />
  <polyline
     class="LedgerLine"
     points="224.758,1474.02 277.061,1474.02"
     id="polyline226"
     style="stroke:#000000;stroke-width:3.17000008;stroke-linejoin:bevel"
     transform="translate(-72.480325,-927.15619)" />
  <polyline
     class="LedgerLine"
     points="2316.1,1593.07 2368.4,1593.07"
     id="polyline228"
     style="stroke:#000000;stroke-width:3.17000008;stroke-linejoin:bevel"
     transform="translate(-72.480325,-927.15619)" />
  <polyline
     class="LedgerLine"
     points="225.155,3140.79 277.458,3140.79"
     id="polyline230"
     transform="translate(-72.480325,-1613.6743)"
     style="stroke:#000000;stroke-width:3.17000008;stroke-linejoin:bevel" />
  <polyline
     class="LedgerLine"
     points="225.155,3120.95 277.458,3120.95"
     id="polyline232"
     transform="translate(-72.480325,-1613.6743)"
     style="stroke:#000000;stroke-width:3.17000008;stroke-linejoin:bevel" />
  <polyline
     class="LedgerLine"
     points="225.155,3101.1 277.458,3101.1"
     id="polyline234"
     transform="translate(-72.480325,-1613.6743)"
     style="stroke:#000000;stroke-width:3.17000008;stroke-linejoin:bevel" />
  <polyline
     class="LedgerLine"
     points="1382.87,3140.79 1424.86,3140.79"
     id="polyline236"
     transform="translate(-72.480325,-1613.6743)"
     style="stroke:#000000;stroke-width:3.17000008;stroke-linejoin:bevel" />
  <polyline
     class="LedgerLine"
     points="1382.87,3120.95 1424.86,3120.95"
     id="polyline238"
     transform="translate(-72.480325,-1613.6743)"
     style="stroke:#000000;stroke-width:3.17000008;stroke-linejoin:bevel" />
  <polyline
     class="LedgerLine"
     points="1382.87,3101.1 1424.86,3101.1"
     id="polyline240"
     transform="translate(-72.480325,-1613.6743)"
     style="stroke:#000000;stroke-width:3.17000008;stroke-linejoin:bevel" />
  <polyline
     class="LedgerLine"
     points="1838.64,3120.95 1890.94,3120.95"
     id="polyline242"
     transform="translate(-72.480325,-1613.6743)"
     style="stroke:#000000;stroke-width:3.17000008;stroke-linejoin:bevel" />
  <polyline
     class="LedgerLine"
     points="1838.64,3101.1 1890.94,3101.1"
     id="polyline244"
     transform="translate(-72.480325,-1613.6743)"
     style="stroke:#000000;stroke-width:3.17000008;stroke-linejoin:bevel" />
  <polyline
     class="LedgerLine"
     points="562.431,1146.61 604.416,1146.61"
     id="polyline246"
     style="stroke:#000000;stroke-width:3.17000008;stroke-linejoin:bevel"
     transform="translate(-72.480325,-927.15619)" />
  <polyline
     class="LedgerLine"
     points="943.76,1146.61 996.064,1146.61"
     id="polyline248"
     style="stroke:#000000;stroke-width:3.17000008;stroke-linejoin:bevel"
     transform="translate(-72.480325,-927.15619)" />
  <polyline
     class="LedgerLine"
     points="2316.1,1146.61 2368.4,1146.61"
     id="polyline250"
     style="stroke:#000000;stroke-width:3.17000008;stroke-linejoin:bevel"
     transform="translate(-72.480325,-927.15619)" />
  <polyline
     class="LedgerLine"
     points="562.431,938.268 604.416,938.268"
     id="polyline252"
     style="stroke:#000000;stroke-width:3.17000008;stroke-linejoin:bevel"
     transform="translate(-72.480325,-927.15619)" />
  <polyline
     class="Stem"
     points="1392,3143.45 1392,3216.3"
     id="polyline278"
     transform="translate(-72.480325,-1613.6743)"
     style="stroke:#000000;stroke-width:2.38000011;stroke-linejoin:bevel" />
  <polyline
     class="Stem"
     points="263.172,3019.07 263.172,2923.53"
     id="polyline280"
     transform="translate(-72.480325,-1613.6743)"
     style="stroke:#000000;stroke-width:2.38000011;stroke-linejoin:bevel" />
  <polyline
     class="Stem"
     points="1392,3034.32 1392,3062.11"
     id="polyline282"
     transform="translate(-72.480325,-1613.6743)"
     style="stroke:#000000;stroke-width:2.38000011;stroke-linejoin:bevel" />
  <polyline
     class="Stem"
     points="1847.76,3044.24 1847.76,3086.26"
     id="polyline284"
     transform="translate(-72.480325,-1613.6743)"
     style="stroke:#000000;stroke-width:2.38000011;stroke-linejoin:bevel" />
  <polyline
     class="Stem"
     points="2680.67,2989.3 2680.67,2942.36"
     id="polyline286"
     transform="translate(-72.480325,-1613.6743)"
     style="stroke:#000000;stroke-width:2.38000011;stroke-linejoin:bevel" />
  <polyline
     class="Stem"
     points="262.775,1233.24 262.775,1166.46"
     id="polyline288"
     style="stroke:#000000;stroke-width:2.38000011;stroke-linejoin:bevel"
     transform="translate(-72.480325,-927.15619)" />
  <polyline
     class="Stem"
     points="571.558,1149.28 571.558,1253.27"
     id="polyline290"
     style="stroke:#000000;stroke-width:2.38000011;stroke-linejoin:bevel"
     transform="translate(-72.480325,-927.15619)" />
  <polyline
     class="Stem"
     points="967.192,2697 967.192,2761.3"
     id="polyline292"
     transform="translate(-72.480325,-1613.6743)"
     style="stroke:#000000;stroke-width:2.38000011;stroke-linejoin:bevel" />
  <polyline
     class="Stem"
     points="1392,2697 1392,2761.3"
     id="polyline294"
     transform="translate(-72.480325,-1613.6743)"
     style="stroke:#000000;stroke-width:2.38000011;stroke-linejoin:bevel" />
  <polyline
     class="Stem"
     points="1852.92,2687.08 1852.92,2753.86"
     id="polyline296"
     transform="translate(-72.480325,-1613.6743)"
     style="stroke:#000000;stroke-width:2.38000011;stroke-linejoin:bevel" />
  <polyline
     class="Stem"
     points="262.775,1005.05 262.775,943.228"
     id="polyline298"
     style="stroke:#000000;stroke-width:2.38000011;stroke-linejoin:bevel"
     transform="translate(-72.480325,-927.15619)" />
  <polyline
     class="Stem"
     points="571.558,940.935 571.558,1007.72"
     id="polyline300"
     style="stroke:#000000;stroke-width:2.38000011;stroke-linejoin:bevel"
     transform="translate(-72.480325,-927.15619)" />
  <polyline
     class="Stem"
     points="981.778,1014.97 981.778,950.669"
     id="polyline302"
     style="stroke:#000000;stroke-width:2.38000011;stroke-linejoin:bevel"
     transform="translate(-72.480325,-927.15619)" />
  <polyline
     class="Stem"
     points="1291.08,950.856 1291.08,1017.64"
     id="polyline304"
     style="stroke:#000000;stroke-width:2.38000011;stroke-linejoin:bevel"
     transform="translate(-72.480325,-927.15619)" />
  <polyline
     class="Stem"
     points="1700.84,1024.89 1700.84,958.11"
     id="polyline306"
     style="stroke:#000000;stroke-width:2.38000011;stroke-linejoin:bevel"
     transform="translate(-72.480325,-927.15619)" />
  <polyline
     class="Stem"
     points="1974.45,960.777 1974.45,1027.56"
     id="polyline308"
     style="stroke:#000000;stroke-width:2.38000011;stroke-linejoin:bevel"
     transform="translate(-72.480325,-927.15619)" />
  <polyline
     class="Stem"
     points="2354.11,1034.81 2354.11,968.032"
     id="polyline310"
     style="stroke:#000000;stroke-width:2.38000011;stroke-linejoin:bevel"
     transform="translate(-72.480325,-927.15619)" />
  <polyline
     class="Stem"
     points="2603.93,970.698 2603.93,1037.48"
     id="polyline312"
     style="stroke:#000000;stroke-width:2.38000011;stroke-linejoin:bevel"
     transform="translate(-72.480325,-927.15619)" />
  <polyline
     class="Stem"
     points="263.172,2552.77 263.172,2485.98"
     id="polyline314"
     transform="translate(-72.480325,-1613.6743)"
     style="stroke:#000000;stroke-width:2.38000011;stroke-linejoin:bevel" />
  <polyline
     class="Stem"
     points="585.949,2488.65 585.949,2552.95"
     id="polyline316"
     transform="translate(-72.480325,-1613.6743)"
     style="stroke:#000000;stroke-width:2.38000011;stroke-linejoin:bevel" />
  <polyline
     class="Stem"
     points="990.922,2552.77 990.922,2428.94"
     id="polyline318"
     transform="translate(-72.480325,-1613.6743)"
     style="stroke:#000000;stroke-width:2.38000011;stroke-linejoin:bevel" />
  <polyline
     class="Stem"
     points="1415.73,2552.77 1415.73,2436.38"
     id="polyline320"
     transform="translate(-72.480325,-1613.6743)"
     style="stroke:#000000;stroke-width:2.38000011;stroke-linejoin:bevel" />
  <polyline
     class="Stem"
     points="1876.65,2552.77 1876.65,2443.82"
     id="polyline322"
     transform="translate(-72.480325,-1613.6743)"
     style="stroke:#000000;stroke-width:2.38000011;stroke-linejoin:bevel" />
  <polyline
     class="Stem"
     points="2656.94,2458.89 2656.94,2525.67"
     id="polyline324"
     transform="translate(-72.480325,-1613.6743)"
     style="stroke:#000000;stroke-width:2.38000011;stroke-linejoin:bevel" />
  <path
     class="Note"
     d="m 160.61167,1526.9494 c 0,5.7915 4.92343,10.9506 17.7839,10.9506 14.12534,0 18.65198,-4.911 18.65198,-10.9506 0,-6.114 -9.76007,-10.7149 -17.78391,-10.7149 -11.50866,0 -18.65197,4.8489 -18.65197,10.7149 m 9.28876,-3.1748 c 0,-4.4398 3.08805,-5.5559 7.14331,-5.5559 5.87839,0 10.64059,6.3496 10.64059,11.5955 0,4.3653 -2.70358,6.1016 -6.59763,6.1016 -5.71711,0 -11.18627,-6.5853 -11.18627,-12.1412"
     id="path592"
     inkscape:connector-curvature="0"
     style="stroke-width:0.79370099" />
  <path
     class="Note"
     d="m 1318.3297,1530.8435 c 0,4.601 3.8073,7.3789 8.5695,7.3789 7.8626,0 17.5483,-7.3045 17.5483,-14.8447 0,-4.4397 -3.5717,-7.3789 -8.6564,-7.3789 -9.6856,0 -17.4614,7.2177 -17.4614,14.8447"
     id="path594"
     inkscape:connector-curvature="0"
     style="stroke-width:0.79370099" />
  <path
     class="Note"
     d="m 1774.0897,1517.0294 c 0,5.7915 4.9234,10.9506 17.7839,10.9506 14.1253,0 18.652,-4.911 18.652,-10.9506 0,-6.114 -9.7601,-10.7149 -17.7839,-10.7149 -11.5087,0 -18.652,4.8489 -18.652,10.7149 m 9.2888,-3.1748 c 0,-4.4398 3.088,-5.5559 7.1433,-5.5559 5.8784,0 10.6406,6.3496 10.6406,11.5955 0,4.3653 -2.7036,6.1016 -6.5977,6.1016 -5.7171,0 -11.1862,-6.5853 -11.1862,-12.1412"
     id="path596"
     inkscape:connector-curvature="0"
     style="stroke-width:0.79370099" />
  <path
     class="Note"
     d="m 160.21467,635.99259 c 0,5.79154 4.92344,10.95064 17.78391,10.95064 14.12534,0 18.65197,-4.91107 18.65197,-10.95064 0,-6.11397 -9.76006,-10.71494 -17.7839,-10.71494 -11.50867,0 -18.65198,4.849 -18.65198,10.71494 m 9.28877,-3.1748 c 0,-4.43977 3.08805,-5.55589 7.14331,-5.55589 5.87838,0 10.64059,6.34959 10.64059,11.59546 0,4.36535 -2.70358,6.10161 -6.59764,6.10161 -5.71711,0 -11.18626,-6.58527 -11.18626,-12.14118"
     id="path598"
     inkscape:connector-curvature="0"
     style="stroke-width:0.79370099" />
  <path
     class="Note"
     d="m 160.21467,596.30259 c 0,5.79154 4.92344,10.95064 17.78391,10.95064 14.12534,0 18.65197,-4.91107 18.65197,-10.95064 0,-6.11397 -9.76006,-10.71494 -17.7839,-10.71494 -11.50867,0 -18.65198,4.849 -18.65198,10.71494 m 9.28877,-3.1748 c 0,-4.43977 3.08805,-5.55589 7.14331,-5.55589 5.87838,0 10.64059,6.34959 10.64059,11.59546 0,4.36535 -2.70358,6.10161 -6.59764,6.10161 -5.71711,0 -11.18626,-6.58527 -11.18626,-12.14118"
     id="path600"
     inkscape:connector-curvature="0"
     style="stroke-width:0.79370099" />
  <path
     class="Note"
     d="m 160.21467,546.70259 c 0,5.79154 4.92344,10.95064 17.78391,10.95064 14.12534,0 18.65197,-4.91107 18.65197,-10.95064 0,-6.11397 -9.76006,-10.71494 -17.7839,-10.71494 -11.50867,0 -18.65198,4.849 -18.65198,10.71494 m 9.28877,-3.1748 c 0,-4.43977 3.08805,-5.55589 7.14331,-5.55589 5.87838,0 10.64059,6.34959 10.64059,11.59546 0,4.36535 -2.70358,6.10161 -6.59764,6.10161 -5.71711,0 -11.18626,-6.58527 -11.18626,-12.14118"
     id="path602"
     inkscape:connector-curvature="0"
     style="stroke-width:0.79370099" />
  <path
     class="Note"
     d="m 879.21667,645.91259 c 0,5.79154 4.92344,10.95064 17.78391,10.95064 14.12534,0 18.65197,-4.91107 18.65197,-10.95064 0,-6.11397 -9.76006,-10.71494 -17.7839,-10.71494 -11.50867,0 -18.65198,4.849 -18.65198,10.71494 m 9.28877,-3.1748 c 0,-4.43977 3.08805,-5.55589 7.14331,-5.55589 5.87838,0 10.64059,6.34959 10.64059,11.59546 0,4.36535 -2.70358,6.10161 -6.59764,6.10161 -5.71711,0 -11.18626,-6.58527 -11.18626,-12.14118"
     id="path604"
     inkscape:connector-curvature="0"
     style="stroke-width:0.79370099" />
  <path
     class="Note"
     d="m 879.21667,596.30259 c 0,5.79154 4.92344,10.95064 17.78391,10.95064 14.12534,0 18.65197,-4.91107 18.65197,-10.95064 0,-6.11397 -9.76006,-10.71494 -17.7839,-10.71494 -11.50867,0 -18.65198,4.849 -18.65198,10.71494 m 9.28877,-3.1748 c 0,-4.43977 3.08805,-5.55589 7.14331,-5.55589 5.87838,0 10.64059,6.34959 10.64059,11.59546 0,4.36535 -2.70358,6.10161 -6.59764,6.10161 -5.71711,0 -11.18626,-6.58527 -11.18626,-12.14118"
     id="path606"
     inkscape:connector-curvature="0"
     style="stroke-width:0.79370099" />
  <path
     class="Note"
     d="m 879.21667,556.62259 c 0,5.79154 4.92344,10.95064 17.78391,10.95064 14.12534,0 18.65197,-4.91107 18.65197,-10.95064 0,-6.11397 -9.76006,-10.71494 -17.7839,-10.71494 -11.50867,0 -18.65198,4.849 -18.65198,10.71494 m 9.28877,-3.1748 c 0,-4.43977 3.08805,-5.55589 7.14331,-5.55589 5.87838,0 10.64059,6.34959 10.64059,11.59546 0,4.36535 -2.70358,6.10161 -6.59764,6.10161 -5.71711,0 -11.18626,-6.58527 -11.18626,-12.14118"
     id="path608"
     inkscape:connector-curvature="0"
     style="stroke-width:0.79370099" />
  <path
     class="Note"
     d="m 1598.2797,655.83259 c 0,5.79154 4.9234,10.95064 17.7839,10.95064 14.1253,0 18.652,-4.91107 18.652,-10.95064 0,-6.11397 -9.7601,-10.71494 -17.784,-10.71494 -11.5086,0 -18.6519,4.849 -18.6519,10.71494 m 9.2887,-3.1748 c 0,-4.43977 3.0881,-5.55589 7.1433,-5.55589 5.8784,0 10.6406,6.34959 10.6406,11.59546 0,4.36535 -2.7035,6.10161 -6.5976,6.10161 -5.7171,0 -11.1863,-6.58527 -11.1863,-12.14118"
     id="path610"
     inkscape:connector-curvature="0"
     style="stroke-width:0.79370099" />
  <path
     class="Note"
     d="m 1598.2797,606.22259 c 0,5.79154 4.9234,10.95064 17.7839,10.95064 14.1253,0 18.652,-4.91107 18.652,-10.95064 0,-6.11397 -9.7601,-10.71494 -17.784,-10.71494 -11.5086,0 -18.6519,4.849 -18.6519,10.71494 m 9.2887,-3.1748 c 0,-4.43977 3.0881,-5.55589 7.1433,-5.55589 5.8784,0 10.6406,6.34959 10.6406,11.59546 0,4.36535 -2.7035,6.10161 -6.5976,6.10161 -5.7171,0 -11.1863,-6.58527 -11.1863,-12.14118"
     id="path612"
     inkscape:connector-curvature="0"
     style="stroke-width:0.79370099" />
  <path
     class="Note"
     d="m 1598.2797,566.54259 c 0,5.79154 4.9234,10.95064 17.7839,10.95064 14.1253,0 18.652,-4.91107 18.652,-10.95064 0,-6.11397 -9.7601,-10.71494 -17.784,-10.71494 -11.5086,0 -18.6519,4.849 -18.6519,10.71494 m 9.2887,-3.1748 c 0,-4.43977 3.0881,-5.55589 7.1433,-5.55589 5.8784,0 10.6406,6.34959 10.6406,11.59546 0,4.36535 -2.7035,6.10161 -6.5976,6.10161 -5.7171,0 -11.1863,-6.58527 -11.1863,-12.14118"
     id="path614"
     inkscape:connector-curvature="0"
     style="stroke-width:0.79370099" />
  <path
     class="Note"
     d="m 2251.5497,665.75259 c 0,5.79154 4.9234,10.95064 17.7839,10.95064 14.1253,0 18.652,-4.91107 18.652,-10.95064 0,-6.11397 -9.7601,-10.71494 -17.784,-10.71494 -11.5086,0 -18.6519,4.849 -18.6519,10.71494 m 9.2887,-3.1748 c 0,-4.43977 3.0881,-5.55589 7.1433,-5.55589 5.8784,0 10.6406,6.34959 10.6406,11.59546 0,4.36535 -2.7035,6.10161 -6.5976,6.10161 -5.7171,0 -11.1863,-6.58527 -11.1863,-12.14118"
     id="path616"
     inkscape:connector-curvature="0"
     style="stroke-width:0.79370099" />
  <path
     class="Note"
     d="m 2251.5497,596.30259 c 0,5.79154 4.9234,10.95064 17.7839,10.95064 14.1253,0 18.652,-4.91107 18.652,-10.95064 0,-6.11397 -9.7601,-10.71494 -17.784,-10.71494 -11.5086,0 -18.6519,4.849 -18.6519,10.71494 m 9.2887,-3.1748 c 0,-4.43977 3.0881,-5.55589 7.1433,-5.55589 5.8784,0 10.6406,6.34959 10.6406,11.59546 0,4.36535 -2.7035,6.10161 -6.5976,6.10161 -5.7171,0 -11.1863,-6.58527 -11.1863,-12.14118"
     id="path618"
     inkscape:connector-curvature="0"
     style="stroke-width:0.79370099" />
  <path
     class="Note"
     d="m 2251.5497,576.46259 c 0,5.79154 4.9234,10.95064 17.7839,10.95064 14.1253,0 18.652,-4.91107 18.652,-10.95064 0,-6.11397 -9.7601,-10.71494 -17.784,-10.71494 -11.5086,0 -18.6519,4.849 -18.6519,10.71494 m 9.2887,-3.1748 c 0,-4.43977 3.0881,-5.55589 7.1433,-5.55589 5.8784,0 10.6406,6.34959 10.6406,11.59546 0,4.36535 -2.7035,6.10161 -6.5976,6.10161 -5.7171,0 -11.1863,-6.58527 -11.1863,-12.14118"
     id="path620"
     inkscape:connector-curvature="0"
     style="stroke-width:0.79370099" />
  <path
     class="Note"
     d="m 174.34019,1419.1624 c 14.60901,0 17.54825,-11.9055 17.54825,-14.7578 0,-4.5266 -3.57165,-7.4658 -8.73071,-7.4658 -13.25732,0 -17.38705,10.2437 -17.38705,14.8447 0,4.6754 3.73287,7.3789 8.56951,7.3789 m -5.95277,-7.2177 c 0,-4.2909 12.78606,-11.3598 16.99014,-11.3598 1.66185,0 2.61675,0.7937 3.24925,1.9098 0.24803,0.4713 0.48368,1.0293 0.48368,1.6618 0,1.7486 -1.82305,3.8941 -8.02384,7.937 -3.96851,2.7036 -6.74646,3.6585 -8.64392,3.6585 -1.83543,0 -2.93917,-0.9549 -3.49725,-2.0711 -0.32244,-0.4712 -0.55806,-1.1037 -0.55806,-1.7362"
     id="path622"
     inkscape:connector-curvature="0"
     style="stroke-width:0.79370099" />
  <path
     class="Note"
     d="m 1318.3297,1421.7035 c 0,4.601 3.8073,7.3789 8.5695,7.3789 7.8626,0 17.5483,-7.3045 17.5483,-14.8447 0,-4.4397 -3.5717,-7.3789 -8.6564,-7.3789 -9.6856,0 -17.4614,7.2177 -17.4614,14.8447"
     id="path624"
     inkscape:connector-curvature="0"
     style="stroke-width:0.79370099" />
  <path
     class="Note"
     d="m 1774.0897,1431.6235 c 0,4.601 3.8073,7.3789 8.5695,7.3789 7.8626,0 17.5483,-7.3045 17.5483,-14.8447 0,-4.4397 -3.5717,-7.3789 -8.6564,-7.3789 -9.6856,0 -17.4614,7.2177 -17.4614,14.8447"
     id="path626"
     inkscape:connector-curvature="0"
     style="stroke-width:0.79370099" />
  <path
     class="Note"
     d="m 2583.2697,1382.0235 c 0,4.601 3.8073,7.3789 8.5695,7.3789 7.8626,0 17.5483,-7.3045 17.5483,-14.8447 0,-4.4397 -3.5717,-7.3789 -8.6564,-7.3789 -9.6856,0 -17.4614,7.2177 -17.4614,14.8447"
     id="path628"
     inkscape:connector-curvature="0"
     style="stroke-width:0.79370099" />
  <path
     class="Note"
     d="m 173.94319,319.86563 c 14.60901,0 17.54825,-11.90552 17.54825,-14.75788 0,-4.5266 -3.57166,-7.46575 -8.73071,-7.46575 -13.25733,0 -17.38706,10.2437 -17.38706,14.84469 0,4.67543 3.73288,7.37894 8.56952,7.37894 m -5.95278,-7.21772 c 0,-4.29095 12.78606,-11.35985 16.99014,-11.35985 1.66185,0 2.61675,0.7937 3.24925,1.90985 0.24803,0.47126 0.48368,1.02932 0.48368,1.66181 0,1.74862 -1.82305,3.89409 -8.02384,7.93701 -3.9685,2.70354 -6.74645,3.65847 -8.64392,3.65847 -1.83543,0 -2.93917,-0.95493 -3.49724,-2.07107 -0.32244,-0.47126 -0.55807,-1.10374 -0.55807,-1.73622"
     id="path630"
     inkscape:connector-curvature="0"
     style="stroke-width:0.79370099" />
  <path
     class="Note"
     d="m 506.45719,270.25563 c 14.60901,0 17.54825,-11.90552 17.54825,-14.75788 0,-4.5266 -3.57166,-7.46575 -8.73071,-7.46575 -13.25733,0 -17.38705,10.2437 -17.38705,14.84469 0,4.67543 3.73287,7.37894 8.56951,7.37894 m -5.95278,-7.21772 c 0,-4.29095 12.78606,-11.35985 16.99014,-11.35985 1.66185,0 2.61675,0.7937 3.24925,1.90985 0.24803,0.47126 0.48368,1.02932 0.48368,1.66181 0,1.74862 -1.82305,3.89409 -8.02384,7.93701 -3.9685,2.70354 -6.74645,3.65847 -8.64392,3.65847 -1.83543,0 -2.93917,-0.95493 -3.49724,-2.07107 -0.32244,-0.47126 -0.55807,-1.10374 -0.55807,-1.73622"
     id="path632"
     inkscape:connector-curvature="0"
     style="stroke-width:0.79370099" />
  <path
     class="Note"
     d="m 506.45719,230.56563 c 14.60901,0 17.54825,-11.90552 17.54825,-14.75788 0,-4.5266 -3.57166,-7.46575 -8.73071,-7.46575 -13.25733,0 -17.38705,10.2437 -17.38705,14.84469 0,4.67543 3.73287,7.37894 8.56951,7.37894 m -5.95278,-7.21772 c 0,-4.29095 12.78606,-11.35985 16.99014,-11.35985 1.66185,0 2.61675,0.7937 3.24925,1.90985 0.24803,0.47126 0.48368,1.02932 0.48368,1.66181 0,1.74862 -1.82305,3.89409 -8.02384,7.93701 -3.9685,2.70354 -6.74645,3.65847 -8.64392,3.65847 -1.83543,0 -2.93917,-0.95493 -3.49724,-2.07107 -0.32244,-0.47126 -0.55807,-1.10374 -0.55807,-1.73622"
     id="path634"
     inkscape:connector-curvature="0"
     style="stroke-width:0.79370099" />
  <path
     class="Note"
     d="m 879.21667,268.90259 c 0,5.79154 4.92344,10.95064 17.78391,10.95064 14.12534,0 18.65197,-4.91107 18.65197,-10.95064 0,-6.11397 -9.76006,-10.71494 -17.7839,-10.71494 -11.50867,0 -18.65198,4.849 -18.65198,10.71494 m 9.28877,-3.1748 c 0,-4.43977 3.08805,-5.55589 7.14331,-5.55589 5.87838,0 10.64059,6.34959 10.64059,11.59546 0,4.36535 -2.70358,6.10161 -6.59764,6.10161 -5.71711,0 -11.18626,-6.58527 -11.18626,-12.14118"
     id="path636"
     inkscape:connector-curvature="0"
     style="stroke-width:0.79370099" />
  <path
     class="Note"
     d="m 879.21667,219.29259 c 0,5.79154 4.92344,10.95064 17.78391,10.95064 14.12534,0 18.65197,-4.91107 18.65197,-10.95064 0,-6.11397 -9.76006,-10.71494 -17.7839,-10.71494 -11.50867,0 -18.65198,4.849 -18.65198,10.71494 m 9.28877,-3.1748 c 0,-4.43977 3.08805,-5.55589 7.14331,-5.55589 5.87838,0 10.64059,6.34959 10.64059,11.59546 0,4.36535 -2.70358,6.10161 -6.59764,6.10161 -5.71711,0 -11.18626,-6.58527 -11.18626,-12.14118"
     id="path638"
     inkscape:connector-curvature="0"
     style="stroke-width:0.79370099" />
  <path
     class="Note"
     d="m 1598.2797,278.82259 c 0,5.79154 4.9234,10.95064 17.7839,10.95064 14.1253,0 18.652,-4.91107 18.652,-10.95064 0,-6.11397 -9.7601,-10.71494 -17.784,-10.71494 -11.5086,0 -18.6519,4.849 -18.6519,10.71494 m 9.2887,-3.1748 c 0,-4.43977 3.0881,-5.55589 7.1433,-5.55589 5.8784,0 10.6406,6.34959 10.6406,11.59546 0,4.36535 -2.7035,6.10161 -6.5976,6.10161 -5.7171,0 -11.1863,-6.58527 -11.1863,-12.14118"
     id="path640"
     inkscape:connector-curvature="0"
     style="stroke-width:0.79370099" />
  <path
     class="Note"
     d="m 1598.2797,229.22259 c 0,5.79154 4.9234,10.95064 17.7839,10.95064 14.1253,0 18.652,-4.91107 18.652,-10.95064 0,-6.11397 -9.7601,-10.71494 -17.784,-10.71494 -11.5086,0 -18.6519,4.849 -18.6519,10.71494 m 9.2887,-3.1748 c 0,-4.43977 3.0881,-5.55589 7.1433,-5.55589 5.8784,0 10.6406,6.34959 10.6406,11.59546 0,4.36535 -2.7035,6.10161 -6.5976,6.10161 -5.7171,0 -11.1863,-6.58527 -11.1863,-12.14118"
     id="path642"
     inkscape:connector-curvature="0"
     style="stroke-width:0.79370099" />
  <path
     class="Note"
     d="m 2251.5497,288.74259 c 0,5.79154 4.9234,10.95064 17.7839,10.95064 14.1253,0 18.652,-4.91107 18.652,-10.95064 0,-6.11397 -9.7601,-10.71494 -17.784,-10.71494 -11.5086,0 -18.6519,4.849 -18.6519,10.71494 m 9.2887,-3.1748 c 0,-4.43977 3.0881,-5.55589 7.1433,-5.55589 5.8784,0 10.6406,6.34959 10.6406,11.59546 0,4.36535 -2.7035,6.10161 -6.5976,6.10161 -5.7171,0 -11.1863,-6.58527 -11.1863,-12.14118"
     id="path644"
     inkscape:connector-curvature="0"
     style="stroke-width:0.79370099" />
  <path
     class="Note"
     d="m 2251.5497,219.29259 c 0,5.79154 4.9234,10.95064 17.7839,10.95064 14.1253,0 18.652,-4.91107 18.652,-10.95064 0,-6.11397 -9.7601,-10.71494 -17.784,-10.71494 -11.5086,0 -18.6519,4.849 -18.6519,10.71494 m 9.2887,-3.1748 c 0,-4.43977 3.0881,-5.55589 7.1433,-5.55589 5.8784,0 10.6406,6.34959 10.6406,11.59546 0,4.36535 -2.7035,6.10161 -6.5976,6.10161 -5.7171,0 -11.1863,-6.58527 -11.1863,-12.14118"
     id="path646"
     inkscape:connector-curvature="0"
     style="stroke-width:0.79370099" />
  <path
     class="Note"
     d="m 160.61167,1080.4894 c 0,5.7915 4.92343,10.9506 17.7839,10.9506 14.12534,0 18.65198,-4.911 18.65198,-10.9506 0,-6.114 -9.76007,-10.7149 -17.78391,-10.7149 -11.50866,0 -18.65197,4.8489 -18.65197,10.7149 m 9.28876,-3.1748 c 0,-4.4398 3.08805,-5.5559 7.14331,-5.5559 5.87839,0 10.64059,6.3496 10.64059,11.5955 0,4.3653 -2.70358,6.1016 -6.59763,6.1016 -5.71711,0 -11.18627,-6.5853 -11.18627,-12.1412"
     id="path648"
     inkscape:connector-curvature="0"
     style="stroke-width:0.79370099" />
  <path
     class="Note"
     d="m 160.61167,1060.6494 c 0,5.7915 4.92343,10.9506 17.7839,10.9506 14.12534,0 18.65198,-4.911 18.65198,-10.9506 0,-6.114 -9.76007,-10.7149 -17.78391,-10.7149 -11.50866,0 -18.65197,4.8489 -18.65197,10.7149 m 9.28876,-3.1748 c 0,-4.4398 3.08805,-5.5559 7.14331,-5.5559 5.87839,0 10.64059,6.3496 10.64059,11.5955 0,4.3653 -2.70358,6.1016 -6.59763,6.1016 -5.71711,0 -11.18627,-6.5853 -11.18627,-12.1412"
     id="path650"
     inkscape:connector-curvature="0"
     style="stroke-width:0.79370099" />
  <path
     class="Note"
     d="m 902.09019,1091.7624 c 14.60901,0 17.54825,-11.9055 17.54825,-14.7578 0,-4.5266 -3.57165,-7.4658 -8.73071,-7.4658 -13.25733,0 -17.38706,10.2437 -17.38706,14.8447 0,4.6754 3.73288,7.3789 8.56952,7.3789 m -5.95277,-7.2177 c 0,-4.2909 12.78606,-11.3598 16.99014,-11.3598 1.66184,0 2.61675,0.7937 3.24924,1.9098 0.24803,0.4713 0.48369,1.0293 0.48369,1.6618 0,1.7486 -1.82305,3.8941 -8.02384,7.937 -3.96851,2.7036 -6.74646,3.6585 -8.64392,3.6585 -1.83543,0 -2.93917,-0.9549 -3.49725,-2.0711 -0.32244,-0.4712 -0.55806,-1.1037 -0.55806,-1.7362"
     id="path652"
     inkscape:connector-curvature="0"
     style="stroke-width:0.79370099" />
  <path
     class="Note"
     d="m 1326.8992,1091.7624 c 14.609,0 17.5483,-11.9055 17.5483,-14.7578 0,-4.5266 -3.5717,-7.4658 -8.7307,-7.4658 -13.2574,0 -17.3871,10.2437 -17.3871,14.8447 0,4.6754 3.7329,7.3789 8.5695,7.3789 m -5.9528,-7.2177 c 0,-4.2909 12.7861,-11.3598 16.9902,-11.3598 1.6618,0 2.6167,0.7937 3.2492,1.9098 0.2481,0.4713 0.4837,1.0293 0.4837,1.6618 0,1.7486 -1.823,3.8941 -8.0238,7.937 -3.9685,2.7036 -6.7465,3.6585 -8.644,3.6585 -1.8354,0 -2.9391,-0.9549 -3.4972,-2.0711 -0.3224,-0.4712 -0.5581,-1.1037 -0.5581,-1.7362"
     id="path654"
     inkscape:connector-curvature="0"
     style="stroke-width:0.79370099" />
  <path
     class="Note"
     d="m 1787.8192,1081.8424 c 14.609,0 17.5483,-11.9055 17.5483,-14.7578 0,-4.5266 -3.5717,-7.4658 -8.7307,-7.4658 -13.2574,0 -17.3871,10.2437 -17.3871,14.8447 0,4.6754 3.7329,7.3789 8.5695,7.3789 m -5.9528,-7.2177 c 0,-4.2909 12.7861,-11.3598 16.9902,-11.3598 1.6618,0 2.6167,0.7937 3.2492,1.9098 0.2481,0.4713 0.4837,1.0293 0.4837,1.6618 0,1.7486 -1.823,3.8941 -8.0238,7.937 -3.9685,2.7036 -6.7465,3.6585 -8.644,3.6585 -1.8354,0 -2.9391,-0.9549 -3.4972,-2.0711 -0.3224,-0.4712 -0.5581,-1.1037 -0.5581,-1.7362"
     id="path656"
     inkscape:connector-curvature="0"
     style="stroke-width:0.79370099" />
  <path
     class="Note"
     d="m 173.94319,91.675628 c 14.60901,0 17.54825,-11.905515 17.54825,-14.757878 0,-4.526596 -3.57166,-7.46575 -8.73071,-7.46575 -13.25733,0 -17.38706,10.243704 -17.38706,14.844693 0,4.675431 3.73288,7.378935 8.56952,7.378935 m -5.95278,-7.217718 c 0,-4.290946 12.78606,-11.359846 16.99014,-11.359846 1.66185,0 2.61675,0.793701 3.24925,1.909843 0.24803,0.47126 0.48368,1.029327 0.48368,1.661811 0,1.748619 -1.82305,3.894096 -8.02384,7.93701 -3.9685,2.703545 -6.74645,3.65847 -8.64392,3.65847 -1.83543,0 -2.93917,-0.954925 -3.49724,-2.071068 -0.32244,-0.471259 -0.55807,-1.103736 -0.55807,-1.73622"
     id="path658"
     inkscape:connector-curvature="0"
     style="stroke-width:0.79370099" />
  <path
     class="Note"
     d="m 506.45719,22.223628 c 14.60901,0 17.54825,-11.905515 17.54825,-14.757878 C 524.00544,2.9391542 520.43378,0 515.27473,0 502.0174,0 497.88768,10.243704 497.88768,14.844693 c 0,4.675431 3.73287,7.378935 8.56951,7.378935 m -5.95278,-7.217718 c 0,-4.290947 12.78606,-11.359846 16.99014,-11.359846 1.66185,0 2.61675,0.793701 3.24925,1.909843 0.24803,0.47126 0.48368,1.029327 0.48368,1.6618115 0,1.7486185 -1.82305,3.8940955 -8.02384,7.9370095 -3.9685,2.703544 -6.74645,3.65847 -8.64392,3.65847 -1.83543,0 -2.93917,-0.954926 -3.49724,-2.071068 -0.32244,-0.47126 -0.55807,-1.103736 -0.55807,-1.73622"
     id="path660"
     inkscape:connector-curvature="0"
     style="stroke-width:0.79370099" />
  <path
     class="Note"
     d="m 892.94619,101.59563 c 14.60901,0 17.54825,-11.905517 17.54825,-14.75788 0,-4.526596 -3.57166,-7.46575 -8.73071,-7.46575 -13.25733,0 -17.38706,10.243704 -17.38706,14.844693 0,4.675431 3.73288,7.378937 8.56952,7.378937 m -5.95278,-7.21772 c 0,-4.290947 12.78606,-11.359846 16.99014,-11.359846 1.66185,0 2.61675,0.793701 3.24925,1.909843 0.24803,0.47126 0.48368,1.029327 0.48368,1.661811 0,1.748619 -1.82305,3.894096 -8.02384,7.93701 -3.9685,2.703544 -6.74645,3.65847 -8.64392,3.65847 -1.83543,0 -2.93917,-0.954926 -3.49724,-2.071068 -0.32244,-0.47126 -0.55807,-1.103736 -0.55807,-1.73622"
     id="path662"
     inkscape:connector-curvature="0"
     style="stroke-width:0.79370099" />
  <path
     class="Note"
     d="m 1225.9792,32.144628 c 14.609,0 17.5482,-11.905515 17.5482,-14.757878 0,-4.526596 -3.5716,-7.46575 -8.7307,-7.46575 -13.2573,0 -17.387,10.243704 -17.387,14.844693 0,4.675431 3.7329,7.378935 8.5695,7.378935 m -5.9528,-7.217718 c 0,-4.290946 12.7861,-11.359846 16.9902,-11.359846 1.6618,0 2.6167,0.793701 3.2492,1.909843 0.248,0.47126 0.4837,1.029327 0.4837,1.661811 0,1.748619 -1.8231,3.894096 -8.0239,7.93701 -3.9685,2.703545 -6.7464,3.65847 -8.6439,3.65847 -1.8354,0 -2.9391,-0.954925 -3.4972,-2.071068 -0.3225,-0.471259 -0.5581,-1.103736 -0.5581,-1.73622"
     id="path664"
     inkscape:connector-curvature="0"
     style="stroke-width:0.79370099" />
  <path
     class="Note"
     d="m 1612.0092,111.51563 c 14.609,0 17.5482,-11.905517 17.5482,-14.75788 0,-4.526596 -3.5716,-7.46575 -8.7307,-7.46575 -13.2573,0 -17.387,10.243704 -17.387,14.84469 0,4.67543 3.7329,7.37894 8.5695,7.37894 m -5.9528,-7.21772 c 0,-4.29095 12.7861,-11.359846 16.9902,-11.359846 1.6618,0 2.6167,0.793701 3.2492,1.909843 0.248,0.47126 0.4837,1.029327 0.4837,1.661811 0,1.748619 -1.8231,3.894092 -8.0239,7.937012 -3.9685,2.70354 -6.7464,3.65847 -8.6439,3.65847 -1.8354,0 -2.9391,-0.95493 -3.4972,-2.07107 -0.3225,-0.47126 -0.5581,-1.10374 -0.5581,-1.73622"
     id="path666"
     inkscape:connector-curvature="0"
     style="stroke-width:0.79370099" />
  <path
     class="Note"
     d="m 1909.3492,42.065628 c 14.609,0 17.5482,-11.905515 17.5482,-14.757878 0,-4.526596 -3.5716,-7.46575 -8.7307,-7.46575 -13.2573,0 -17.387,10.243704 -17.387,14.844693 0,4.675431 3.7329,7.378935 8.5695,7.378935 m -5.9528,-7.217718 c 0,-4.290946 12.7861,-11.359846 16.9902,-11.359846 1.6618,0 2.6167,0.793701 3.2492,1.909843 0.248,0.47126 0.4837,1.029327 0.4837,1.661811 0,1.748619 -1.8231,3.894096 -8.0239,7.93701 -3.9685,2.703545 -6.7464,3.65847 -8.6439,3.65847 -1.8354,0 -2.9391,-0.954925 -3.4972,-2.071068 -0.3225,-0.471259 -0.5581,-1.103736 -0.5581,-1.73622"
     id="path668"
     inkscape:connector-curvature="0"
     style="stroke-width:0.79370099" />
  <path
     class="Note"
     d="m 2265.2792,121.43563 c 14.609,0 17.5482,-11.90552 17.5482,-14.75788 0,-4.5266 -3.5716,-7.46575 -8.7307,-7.46575 -13.2573,0 -17.387,10.2437 -17.387,14.84469 0,4.67543 3.7329,7.37894 8.5695,7.37894 m -5.9528,-7.21772 c 0,-4.29095 12.7861,-11.35985 16.9902,-11.35985 1.6618,0 2.6167,0.7937 3.2492,1.90985 0.248,0.47126 0.4837,1.02932 0.4837,1.66181 0,1.74862 -1.8231,3.89409 -8.0239,7.93701 -3.9685,2.70354 -6.7464,3.65847 -8.6439,3.65847 -1.8354,0 -2.9391,-0.95493 -3.4972,-2.07107 -0.3225,-0.47126 -0.5581,-1.10374 -0.5581,-1.73622"
     id="path670"
     inkscape:connector-curvature="0"
     style="stroke-width:0.79370099" />
  <path
     class="Note"
     d="m 2538.8292,51.987628 c 14.609,0 17.5482,-11.905515 17.5482,-14.757878 0,-4.526596 -3.5716,-7.46575 -8.7307,-7.46575 -13.2573,0 -17.387,10.243704 -17.387,14.844693 0,4.675431 3.7329,7.378935 8.5695,7.378935 m -5.9528,-7.217718 c 0,-4.290947 12.7861,-11.359846 16.9902,-11.359846 1.6618,0 2.6167,0.793701 3.2492,1.909843 0.248,0.47126 0.4837,1.029327 0.4837,1.661811 0,1.748619 -1.8231,3.894096 -8.0239,7.93701 -3.9685,2.703544 -6.7464,3.65847 -8.6439,3.65847 -1.8354,0 -2.9391,-0.954926 -3.4972,-2.071068 -0.3225,-0.47126 -0.5581,-1.103736 -0.5581,-1.73622"
     id="path672"
     inkscape:connector-curvature="0"
     style="stroke-width:0.79370099" />
  <path
     class="Note"
     d="m 174.34019,952.86282 c 14.60901,0 17.54825,-11.90538 17.54825,-14.75766 0,-4.52656 -3.57165,-7.46574 -8.73071,-7.46574 -13.25732,0 -17.38705,10.24362 -17.38705,14.84458 0,4.67536 3.73287,7.37882 8.56951,7.37882 m -5.95277,-7.21762 c 0,-4.29088 12.78606,-11.3597 16.99014,-11.3597 1.66185,0 2.61675,0.79368 3.24925,1.90978 0.24803,0.4713 0.48368,1.02928 0.48368,1.66178 0,1.74858 -1.82305,3.89406 -8.02384,7.93694 -3.96851,2.70356 -6.74646,3.65846 -8.64392,3.65846 -1.83543,0 -2.93917,-0.9549 -3.49725,-2.07108 -0.32244,-0.4712 -0.55806,-1.1037 -0.55806,-1.73618"
     id="path674"
     inkscape:connector-curvature="0"
     style="stroke-width:0.79370099" />
  <path
     class="Note"
     d="m 520.84819,883.41325 c 14.60902,0 17.54825,-11.9055 17.54825,-14.7578 0,-4.5266 -3.57165,-7.4658 -8.73071,-7.4658 -13.25732,0 -17.38705,10.2437 -17.38705,14.8447 0,4.6754 3.73288,7.3789 8.56951,7.3789 m -5.95277,-7.2177 c 0,-4.2909 12.78606,-11.3598 16.99014,-11.3598 1.66185,0 2.61675,0.7937 3.24925,1.9098 0.24802,0.4713 0.48368,1.0293 0.48368,1.6618 0,1.7486 -1.82305,3.8941 -8.02384,7.937 -3.96851,2.7036 -6.74646,3.6585 -8.64392,3.6585 -1.83543,0 -2.93917,-0.9549 -3.49725,-2.0711 -0.32244,-0.4712 -0.55806,-1.1037 -0.55806,-1.7362"
     id="path676"
     inkscape:connector-curvature="0"
     style="stroke-width:0.79370099" />
  <path
     class="Note"
     d="m 902.09019,952.86282 c 14.60901,0 17.54825,-11.90538 17.54825,-14.75766 0,-4.52656 -3.57165,-7.46574 -8.73071,-7.46574 -13.25733,0 -17.38706,10.24362 -17.38706,14.84458 0,4.67536 3.73288,7.37882 8.56952,7.37882 m -5.95277,-7.21762 c 0,-4.29088 12.78606,-11.3597 16.99014,-11.3597 1.66184,0 2.61675,0.79368 3.24924,1.90978 0.24803,0.4713 0.48369,1.02928 0.48369,1.66178 0,1.74858 -1.82305,3.89406 -8.02384,7.93694 -3.96851,2.70356 -6.74646,3.65846 -8.64392,3.65846 -1.83543,0 -2.93917,-0.9549 -3.49725,-2.07108 -0.32244,-0.4712 -0.55806,-1.1037 -0.55806,-1.73618"
     id="path678"
     inkscape:connector-curvature="0"
     style="stroke-width:0.79370099" />
  <path
     class="Note"
     d="m 902.09019,913.18318 c 14.60901,0 17.54825,-11.90543 17.54825,-14.75773 0,-4.5266 -3.57165,-7.4658 -8.73071,-7.4658 -13.25733,0 -17.38706,10.2437 -17.38706,14.84469 0,4.67536 3.73288,7.37884 8.56952,7.37884 m -5.95277,-7.21764 c 0,-4.29089 12.78606,-11.35979 16.99014,-11.35979 1.66184,0 2.61675,0.7937 3.24924,1.9098 0.24803,0.4713 0.48369,1.0293 0.48369,1.6618 0,1.7486 -1.82305,3.8941 -8.02384,7.93699 -3.96851,2.70358 -6.74646,3.65846 -8.64392,3.65846 -1.83543,0 -2.93917,-0.95488 -3.49725,-2.07108 -0.32244,-0.47118 -0.55806,-1.10368 -0.55806,-1.73618"
     id="path680"
     inkscape:connector-curvature="0"
     style="stroke-width:0.79370099" />
  <path
     class="Note"
     d="m 902.09019,883.41325 c 14.60901,0 17.54825,-11.9055 17.54825,-14.7578 0,-4.5266 -3.57165,-7.4658 -8.73071,-7.4658 -13.25733,0 -17.38706,10.2437 -17.38706,14.8447 0,4.6754 3.73288,7.3789 8.56952,7.3789 m -5.95277,-7.2177 c 0,-4.2909 12.78606,-11.3598 16.99014,-11.3598 1.66184,0 2.61675,0.7937 3.24924,1.9098 0.24803,0.4713 0.48369,1.0293 0.48369,1.6618 0,1.7486 -1.82305,3.8941 -8.02384,7.937 -3.96851,2.7036 -6.74646,3.6585 -8.64392,3.6585 -1.83543,0 -2.93917,-0.9549 -3.49725,-2.0711 -0.32244,-0.4712 -0.55806,-1.1037 -0.55806,-1.7362"
     id="path682"
     inkscape:connector-curvature="0"
     style="stroke-width:0.79370099" />
  <path
     class="Note"
     d="m 1326.8992,952.86282 c 14.609,0 17.5483,-11.90538 17.5483,-14.75766 0,-4.52656 -3.5717,-7.46574 -8.7307,-7.46574 -13.2574,0 -17.3871,10.24362 -17.3871,14.84458 0,4.67536 3.7329,7.37882 8.5695,7.37882 m -5.9528,-7.21762 c 0,-4.29088 12.7861,-11.3597 16.9902,-11.3597 1.6618,0 2.6167,0.79368 3.2492,1.90978 0.2481,0.4713 0.4837,1.02928 0.4837,1.66178 0,1.74858 -1.823,3.89406 -8.0238,7.93694 -3.9685,2.70356 -6.7465,3.65846 -8.644,3.65846 -1.8354,0 -2.9391,-0.9549 -3.4972,-2.07108 -0.3224,-0.4712 -0.5581,-1.1037 -0.5581,-1.73618"
     id="path684"
     inkscape:connector-curvature="0"
     style="stroke-width:0.79370099" />
  <path
     class="Note"
     d="m 1326.8992,913.18318 c 14.609,0 17.5483,-11.90543 17.5483,-14.75773 0,-4.5266 -3.5717,-7.4658 -8.7307,-7.4658 -13.2574,0 -17.3871,10.2437 -17.3871,14.84469 0,4.67536 3.7329,7.37884 8.5695,7.37884 m -5.9528,-7.21764 c 0,-4.29089 12.7861,-11.35979 16.9902,-11.35979 1.6618,0 2.6167,0.7937 3.2492,1.9098 0.2481,0.4713 0.4837,1.0293 0.4837,1.6618 0,1.7486 -1.823,3.8941 -8.0238,7.93699 -3.9685,2.70358 -6.7465,3.65846 -8.644,3.65846 -1.8354,0 -2.9391,-0.95488 -3.4972,-2.07108 -0.3224,-0.47118 -0.5581,-1.10368 -0.5581,-1.73618"
     id="path686"
     inkscape:connector-curvature="0"
     style="stroke-width:0.79370099" />
  <path
     class="Note"
     d="m 1326.8992,893.34325 c 14.609,0 17.5483,-11.9055 17.5483,-14.7578 0,-4.5266 -3.5717,-7.4658 -8.7307,-7.4658 -13.2574,0 -17.3871,10.2437 -17.3871,14.8447 0,4.6754 3.7329,7.3789 8.5695,7.3789 m -5.9528,-7.2177 c 0,-4.2909 12.7861,-11.3598 16.9902,-11.3598 1.6618,0 2.6167,0.7937 3.2492,1.9098 0.2481,0.4713 0.4837,1.0293 0.4837,1.6618 0,1.7486 -1.823,3.8941 -8.0238,7.937 -3.9685,2.7036 -6.7465,3.6585 -8.644,3.6585 -1.8354,0 -2.9391,-0.9549 -3.4972,-2.0711 -0.3224,-0.4712 -0.5581,-1.1037 -0.5581,-1.7362"
     id="path688"
     inkscape:connector-curvature="0"
     style="stroke-width:0.79370099" />
  <path
     class="Note"
     d="m 1787.8192,952.86282 c 14.609,0 17.5483,-11.90538 17.5483,-14.75766 0,-4.52656 -3.5717,-7.46574 -8.7307,-7.46574 -13.2574,0 -17.3871,10.24362 -17.3871,14.84458 0,4.67536 3.7329,7.37882 8.5695,7.37882 m -5.9528,-7.21762 c 0,-4.29088 12.7861,-11.3597 16.9902,-11.3597 1.6618,0 2.6167,0.79368 3.2492,1.90978 0.2481,0.4713 0.4837,1.02928 0.4837,1.66178 0,1.74858 -1.823,3.89406 -8.0238,7.93694 -3.9685,2.70356 -6.7465,3.65846 -8.644,3.65846 -1.8354,0 -2.9391,-0.9549 -3.4972,-2.07108 -0.3224,-0.4712 -0.5581,-1.1037 -0.5581,-1.73618"
     id="path690"
     inkscape:connector-curvature="0"
     style="stroke-width:0.79370099" />
  <path
     class="Note"
     d="m 1787.8192,923.1031 c 14.609,0 17.5483,-11.9054 17.5483,-14.75768 0,-4.52657 -3.5717,-7.46577 -8.7307,-7.46577 -13.2574,0 -17.3871,10.24365 -17.3871,14.84461 0,4.67536 3.7329,7.37884 8.5695,7.37884 m -5.9528,-7.21764 c 0,-4.29086 12.7861,-11.35971 16.9902,-11.35971 1.6618,0 2.6167,0.79369 3.2492,1.90979 0.2481,0.4713 0.4837,1.02928 0.4837,1.66178 0,1.74858 -1.823,3.89406 -8.0238,7.93694 -3.9685,2.70356 -6.7465,3.65846 -8.644,3.65846 -1.8354,0 -2.9391,-0.9549 -3.4972,-2.07108 -0.3224,-0.4712 -0.5581,-1.1037 -0.5581,-1.73618"
     id="path692"
     inkscape:connector-curvature="0"
     style="stroke-width:0.79370099" />
  <path
     class="Note"
     d="m 1787.8192,903.26325 c 14.609,0 17.5483,-11.9055 17.5483,-14.7578 0,-4.5266 -3.5717,-7.4658 -8.7307,-7.4658 -13.2574,0 -17.3871,10.2437 -17.3871,14.8447 0,4.6754 3.7329,7.3789 8.5695,7.3789 m -5.9528,-7.2177 c 0,-4.2909 12.7861,-11.3598 16.9902,-11.3598 1.6618,0 2.6167,0.7937 3.2492,1.9098 0.2481,0.4713 0.4837,1.0293 0.4837,1.6618 0,1.7486 -1.823,3.8941 -8.0238,7.937 -3.9685,2.7036 -6.7465,3.6585 -8.644,3.6585 -1.8354,0 -2.9391,-0.9549 -3.4972,-2.0711 -0.3224,-0.4712 -0.5581,-1.1037 -0.5581,-1.7362"
     id="path694"
     inkscape:connector-curvature="0"
     style="stroke-width:0.79370099" />
  <path
     class="Note"
     d="m 2591.8392,853.65325 c 14.609,0 17.5483,-11.9055 17.5483,-14.7578 0,-4.5266 -3.5717,-7.4658 -8.7307,-7.4658 -13.2574,0 -17.3871,10.2437 -17.3871,14.8447 0,4.6754 3.7329,7.3789 8.5695,7.3789 m -5.9528,-7.2177 c 0,-4.2909 12.7861,-11.3598 16.9902,-11.3598 1.6618,0 2.6167,0.7937 3.2492,1.9098 0.2481,0.4713 0.4837,1.0293 0.4837,1.6618 0,1.7486 -1.823,3.8941 -8.0238,7.937 -3.9685,2.7036 -6.7465,3.6585 -8.644,3.6585 -1.8354,0 -2.9391,-0.9549 -3.4972,-2.0711 -0.3224,-0.4712 -0.5581,-1.1037 -0.5581,-1.7362"
     id="path696"
     inkscape:connector-curvature="0"
     style="stroke-width:0.79370099" />
  <path
     class="Clef"
     d="m 78.314392,646.23754 c 1.822972,0 3.881674,-0.1612 5.469076,-0.4836 0.880532,-0.14882 1.041732,-0.23565 1.190551,0.71925 0.954902,5.32026 2.145453,12.228 2.145453,15.96085 0,11.74431 -7.93701,13.17044 -12.612385,13.17044 -4.290985,0 -6.361989,-1.26492 -6.361989,-2.30666 0,-0.54567 0.719251,-0.7937 2.542303,-1.33937 2.467934,-0.71933 5.320257,-2.86478 5.320257,-7.46579 0,-4.36535 -2.777953,-8.09821 -7.614529,-8.09821 -5.320336,0 -8.49514,4.20416 -8.49514,9.12756 0,5.15906 3.088052,12.93487 15.080319,12.93487 5.320336,0 15.638449,-2.3811 15.638449,-15.87402 0,-4.51418 -1.426201,-12.05433 -2.306733,-16.97774 -0.161201,-0.95498 -0.07437,-0.88053 1.029351,-1.35183 8.023841,-3.17481 13.344095,-9.92127 13.344095,-18.88759 0,-10.16933 -7.465787,-19.13561 -19.135652,-19.13561 -2.058622,0 -2.058622,0 -2.294272,-1.4262 l -1.984253,-11.50867 c -0.1612,-0.9549 0,-1.02935 0.471221,-1.51303 8.56951,-8.01138 15.080319,-18.09384 15.080319,-30.23501 0,-6.90766 -1.909804,-13.74095 -5.159057,-18.50355 -1.190551,-1.73582 -3.249174,-3.9685 -4.129706,-3.9685 -1.10372,0 -3.571654,2.07156 -5.159056,3.82008 -5.865927,6.49843 -7.775809,16.41969 -7.775809,24.6791 0,4.60101 0.55813,9.76006 1.116181,13.0217 0.148819,0.9549 0.23565,1.10372 -0.719331,1.89742 -11.434215,9.45004 -23.57538,20.79742 -23.57538,36.8327 0,13.81537 9.450042,26.91141 28.895717,26.91141 M 55.768283,624.64641 c 0,-4.68779 0.793701,-10.95061 7.378959,-18.41632 4.762206,-5.32034 8.420691,-8.25949 12.153546,-11.2731 0.793701,-0.63242 0.94252,-0.55805 1.103721,0.32249 l 1.674233,10.15691 c 0.23565,1.51295 0.23565,1.42612 -1.190552,1.9098 -6.99449,2.3811 -11.521046,8.64388 -11.521046,15.39038 0,7.14331 3.732855,12.22796 9.139943,14.05101 0.632501,0.23565 1.587402,0.48368 2.133072,0.48368 0.644882,0 0.954901,-0.39685 0.954901,-0.88053 0,-0.55805 -0.6325,-0.7937 -1.190551,-1.02935 -3.336005,-1.42618 -5.717108,-4.83662 -5.717108,-8.49509 0,-4.52657 3.100355,-7.93701 7.93701,-9.28882 1.277383,-0.31002 1.438583,-0.23557 1.587402,0.64488 l 3.968505,23.64983 c 0.161201,0.86815 0.08683,0.86815 -1.10372,1.1038 -1.277383,0.24804 -2.864785,0.39685 -4.452187,0.39685 -13.889767,0 -22.856128,-7.68897 -22.856128,-18.72642 m 30.954339,-73.26852 c 2.616753,0 4.762206,2.14545 4.762206,6.51081 0,8.81754 -7.54016,15.96085 -13.802937,21.42992 -0.558051,0.48369 -0.880532,0.39685 -1.041732,-0.6325 -0.31002,-2.05862 -0.4713,-4.7622 -0.4713,-7.30451 0,-12.37673 5.717187,-20.00372 10.553763,-20.00372 m -2.294272,65.56716 c 6.423978,0.55805 11.744314,5.95274 11.744314,12.93483 0,5.01028 -3.013603,9.05315 -7.46579,11.27305 -0.954901,0.48368 -1.10372,0.48368 -1.264921,-0.4713 l -3.894135,-22.62048 c -0.161201,-0.9549 -0.07437,-1.19055 0.880532,-1.1161"
     id="path986"
     inkscape:connector-curvature="0"
     style="stroke-width:0.79370099" />
  <path
     class="Clef"
     d="m 78.711395,1467.7443 c 1.82297,0 3.88167,-0.1612 5.46907,-0.4836 0.88053,-0.1488 1.04174,-0.2356 1.19055,0.7193 0.95491,5.3202 2.14546,12.228 2.14546,15.9608 0,11.7444 -7.93701,13.1705 -12.61239,13.1705 -4.29098,0 -6.36199,-1.2649 -6.36199,-2.3067 0,-0.5456 0.71925,-0.7937 2.54231,-1.3393 2.46793,-0.7194 5.32025,-2.8648 5.32025,-7.4658 0,-4.3654 -2.77795,-8.0982 -7.61453,-8.0982 -5.32033,0 -8.49514,4.2041 -8.49514,9.1275 0,5.1591 3.08806,12.9349 15.08032,12.9349 5.32034,0 15.63845,-2.3811 15.63845,-15.874 0,-4.5142 -1.4262,-12.0544 -2.30673,-16.9778 -0.1612,-0.955 -0.0744,-0.8805 1.02935,-1.3518 8.02384,-3.1748 13.344095,-9.9213 13.344095,-18.8876 0,-10.1693 -7.465785,-19.1356 -19.135655,-19.1356 -2.05862,0 -2.05862,0 -2.29427,-1.4262 l -1.98425,-11.5087 c -0.1612,-0.9549 0,-1.0293 0.47122,-1.513 8.56951,-8.0114 15.08032,-18.0938 15.08032,-30.235 0,-6.9077 -1.90981,-13.741 -5.15906,-18.5036 -1.19055,-1.7358 -3.24917,-3.9685 -4.1297,-3.9685 -1.10373,0 -3.57166,2.0716 -5.15906,3.8201 -5.86593,6.4984 -7.77581,16.4197 -7.77581,24.6791 0,4.601 0.55813,9.7601 1.11618,13.0217 0.14882,0.9549 0.23565,1.1037 -0.71933,1.8974 -11.43422,9.4501 -23.57538,20.7975 -23.57538,36.8327 0,13.8154 9.45004,26.9114 28.89572,26.9114 m -22.54611,-21.5911 c 0,-4.6878 0.7937,-10.9506 7.37896,-18.4163 4.7622,-5.3203 8.42069,-8.2595 12.15354,-11.2731 0.7937,-0.6324 0.94252,-0.5581 1.10372,0.3225 l 1.67424,10.1569 c 0.23565,1.5129 0.23565,1.4261 -1.19055,1.9098 -6.99449,2.3811 -11.52105,8.6439 -11.52105,15.3904 0,7.1433 3.73285,12.2279 9.13994,14.051 0.6325,0.2356 1.5874,0.4837 2.13307,0.4837 0.64489,0 0.95491,-0.3969 0.95491,-0.8806 0,-0.558 -0.6325,-0.7937 -1.19056,-1.0293 -3.336,-1.4262 -5.7171,-4.8366 -5.7171,-8.4951 0,-4.5266 3.10035,-7.937 7.93701,-9.2888 1.27738,-0.31 1.43858,-0.2356 1.5874,0.6449 l 3.9685,23.6498 c 0.1612,0.8681 0.0868,0.8681 -1.10372,1.1038 -1.27738,0.248 -2.86478,0.3968 -4.45218,0.3968 -13.88977,0 -22.85613,-7.6889 -22.85613,-18.7264 m 30.95434,-73.2685 c 2.61675,0 4.7622,2.1454 4.7622,6.5108 0,8.8175 -7.54016,15.9609 -13.80293,21.4299 -0.55805,0.4837 -0.88054,0.3969 -1.04174,-0.6325 -0.31002,-2.0586 -0.4713,-4.7622 -0.4713,-7.3045 0,-12.3767 5.71719,-20.0037 10.55377,-20.0037 m -2.29428,65.5672 c 6.42398,0.558 11.74432,5.9527 11.74432,12.9348 0,5.0103 -3.0136,9.0531 -7.46579,11.273 -0.9549,0.4837 -1.10372,0.4837 -1.26492,-0.4713 l -3.89414,-22.6204 c -0.1612,-0.9549 -0.0744,-1.1906 0.88053,-1.1161"
     id="path988"
     inkscape:connector-curvature="0"
     style="stroke-width:0.79370099" />
  <path
     class="Clef"
     d="m 78.314392,318.82754 c 1.822972,0 3.881674,-0.1612 5.469076,-0.4836 0.880532,-0.14882 1.041732,-0.23565 1.190551,0.71925 0.954902,5.32026 2.145453,12.228 2.145453,15.96085 0,11.74431 -7.93701,13.17044 -12.612385,13.17044 -4.290985,0 -6.361989,-1.26492 -6.361989,-2.30666 0,-0.54567 0.719251,-0.7937 2.542303,-1.33937 2.467934,-0.71933 5.320257,-2.86478 5.320257,-7.46579 0,-4.36535 -2.777953,-8.09821 -7.614529,-8.09821 -5.320336,0 -8.49514,4.20416 -8.49514,9.12756 0,5.15906 3.088052,12.93487 15.080319,12.93487 5.320336,0 15.638449,-2.3811 15.638449,-15.87402 0,-4.51418 -1.426201,-12.05433 -2.306733,-16.97774 -0.161201,-0.95498 -0.07437,-0.88053 1.029351,-1.35183 8.023841,-3.17481 13.344095,-9.92127 13.344095,-18.88759 0,-10.16933 -7.465787,-19.13561 -19.135652,-19.13561 -2.058622,0 -2.058622,0 -2.294272,-1.4262 l -1.984253,-11.50867 c -0.1612,-0.9549 0,-1.02935 0.471221,-1.51303 8.56951,-8.01138 15.080319,-18.09384 15.080319,-30.23501 0,-6.90766 -1.909804,-13.74095 -5.159057,-18.50355 -1.190551,-1.73582 -3.249174,-3.9685 -4.129706,-3.9685 -1.10372,0 -3.571654,2.07156 -5.159056,3.82008 -5.865927,6.49843 -7.775809,16.41969 -7.775809,24.6791 0,4.60101 0.55813,9.76006 1.116181,13.0217 0.148819,0.9549 0.23565,1.10372 -0.719331,1.89742 -11.434215,9.45004 -23.57538,20.79742 -23.57538,36.8327 0,13.81537 9.450042,26.91141 28.895717,26.91141 M 55.768283,297.23641 c 0,-4.68779 0.793701,-10.95061 7.378959,-18.41632 4.762206,-5.32034 8.420691,-8.25949 12.153546,-11.2731 0.793701,-0.63242 0.94252,-0.55805 1.103721,0.32248 l 1.674233,10.15692 c 0.23565,1.51295 0.23565,1.42612 -1.190552,1.9098 -6.99449,2.3811 -11.521046,8.64388 -11.521046,15.39038 0,7.14331 3.732855,12.22795 9.139943,14.05101 0.632501,0.23565 1.587402,0.48368 2.133072,0.48368 0.644882,0 0.954901,-0.39685 0.954901,-0.88053 0,-0.55805 -0.6325,-0.7937 -1.190551,-1.02935 -3.336005,-1.42618 -5.717108,-4.83662 -5.717108,-8.49509 0,-4.52657 3.100355,-7.93701 7.93701,-9.28882 1.277383,-0.31002 1.438583,-0.23557 1.587402,0.64488 l 3.968505,23.64983 c 0.161201,0.86815 0.08683,0.86815 -1.10372,1.1038 -1.277383,0.24804 -2.864785,0.39685 -4.452187,0.39685 -13.889767,0 -22.856128,-7.68897 -22.856128,-18.72642 m 30.954339,-73.26852 c 2.616753,0 4.762206,2.14545 4.762206,6.51081 0,8.81754 -7.54016,15.96085 -13.802937,21.42992 -0.558051,0.48369 -0.880532,0.39685 -1.041732,-0.6325 -0.31002,-2.05862 -0.4713,-4.7622 -0.4713,-7.30451 0,-12.37673 5.717187,-20.00372 10.553763,-20.00372 m -2.294272,65.56716 c 6.423978,0.55805 11.744314,5.95274 11.744314,12.93483 0,5.01028 -3.013603,9.05315 -7.46579,11.27305 -0.954901,0.48368 -1.10372,0.48368 -1.264921,-0.4713 l -3.894135,-22.62048 c -0.161201,-0.9549 -0.07437,-1.19055 0.880532,-1.1161"
     id="path990"
     inkscape:connector-curvature="0"
     style="stroke-width:0.79370099" />
  <path
     class="Clef"
     d="m 428.01766,299.46384 c 0.31748,0 0.70441,-0.12896 1.08142,-0.31748 15.62601,-7.61953 32.13499,-18.91987 32.13499,-38.22664 0,-11.0424 -6.73655,-18.41385 -17.71941,-18.41385 -11.05227,0 -16.00298,8.06597 -16.00298,14.15763 0,5.07969 2.66882,9.46489 7.80805,9.46489 3.99828,0 6.73655,-2.7978 6.73655,-6.72662 0,-4.06772 -2.98635,-6.60757 -6.10159,-6.60757 -1.71637,0 -2.35136,0.44646 -3.17482,0.44646 -0.82347,0 -1.01197,-0.50602 -1.01197,-1.14098 0,-2.53984 3.80975,-7.18299 10.28838,-7.18299 6.72659,0 9.65338,6.60759 9.65338,16.57847 0,17.71939 -8.7704,27.62078 -23.56302,36.06379 -0.57544,0.31749 -0.95245,0.63497 -0.95245,1.14097 0,0.38694 0.25796,0.76392 0.82347,0.76392 m 39.43706,-44.76475 c 1.96438,0 3.49229,-1.52788 3.49229,-3.49229 0,-1.96444 -1.52791,-3.49228 -3.49229,-3.49228 -1.97435,0 -3.49228,1.52784 -3.49228,3.49228 0,1.96441 1.51793,3.49229 3.49228,3.49229 m 0.0595,15.81453 c 1.97435,0 3.43279,-1.46835 3.43279,-3.43279 0,-1.96441 -1.45844,-3.43276 -3.43279,-3.43276 -1.96438,0 -3.42282,1.46835 -3.42282,3.43276 0,1.96444 1.45844,3.43279 3.42282,3.43279"
     id="path992"
     inkscape:connector-curvature="0"
     style="stroke-width:0.63496101" />
  <path
     class="Clef"
     d="m 50.448155,1131.0506 c 0.39685,0 0.88051,-0.1612 1.35177,-0.3968 19.53251,-9.5244 40.16873,-23.6498 40.16873,-47.7833 0,-13.803 -8.42069,-23.0173 -22.14925,-23.0173 -13.81534,0 -20.00373,10.0825 -20.00373,17.697 0,6.3496 3.33603,11.8311 9.76006,11.8311 4.99786,0 8.42069,-3.4972 8.42069,-8.4082 0,-5.0847 -3.73293,-8.2595 -7.62699,-8.2595 -2.14545,0 -2.93919,0.5581 -3.96852,0.5581 -1.02933,0 -1.26496,-0.6325 -1.26496,-1.4262 0,-3.1748 4.76218,-8.9788 12.86047,-8.9788 8.40823,0 12.06672,8.2595 12.06672,20.7231 0,22.1492 -10.963,34.526 -29.45377,45.0797 -0.71929,0.3969 -1.19055,0.7937 -1.19055,1.4262 0,0.4837 0.32244,0.9549 1.02933,0.9549 m 49.29631,-55.9559 c 2.455475,0 4.365355,-1.9098 4.365355,-4.3653 0,-2.4556 -1.90987,-4.3654 -4.365355,-4.3654 -2.46793,0 -4.36535,1.9098 -4.36535,4.3654 0,2.4555 1.89742,4.3653 4.36535,4.3653 m 0.0744,19.7682 c 2.467935,0 4.290985,-1.8355 4.290985,-4.291 0,-2.4555 -1.82305,-4.291 -4.290985,-4.291 -2.45547,0 -4.27852,1.8355 -4.27852,4.291 0,2.4555 1.82305,4.291 4.27852,4.291"
     id="path994"
     inkscape:connector-curvature="0"
     style="stroke-width:0.79370099" />
  <path
     class="Clef"
     d="m 78.314392,110.48754 c 1.822972,0 3.881674,-0.1612 5.469076,-0.4836 0.880532,-0.14882 1.041732,-0.23565 1.190551,0.71925 0.954902,5.32026 2.145453,12.228 2.145453,15.96085 0,11.74431 -7.93701,13.17044 -12.612385,13.17044 -4.290985,0 -6.361989,-1.26492 -6.361989,-2.30666 0,-0.54567 0.719251,-0.7937 2.542303,-1.33937 2.467934,-0.71933 5.320257,-2.86478 5.320257,-7.46579 0,-4.36535 -2.777953,-8.09821 -7.614529,-8.09821 -5.320336,0 -8.49514,4.20416 -8.49514,9.12756 0,5.15906 3.088052,12.93487 15.080319,12.93487 5.320336,0 15.638449,-2.3811 15.638449,-15.87402 0,-4.51418 -1.426201,-12.05433 -2.306733,-16.97774 -0.161201,-0.95498 -0.07437,-0.88053 1.029351,-1.35183 8.023841,-3.17481 13.344095,-9.921265 13.344095,-18.887586 0,-10.169334 -7.465787,-19.135616 -19.135652,-19.135616 -2.058622,0 -2.058622,0 -2.294272,-1.426201 L 79.269293,57.545222 c -0.1612,-0.954901 0,-1.02935 0.471221,-1.513032 8.56951,-8.01138 15.080319,-18.093843 15.080319,-30.235008 0,-6.907659 -1.909804,-13.740948 -5.159057,-18.5035509 -1.190551,-1.7358241 -3.249174,-3.968505 -4.129706,-3.968505 -1.10372,0 -3.571654,2.0715596 -5.159056,3.8200829 -5.865927,6.498427 -7.775809,16.419689 -7.775809,24.679101 0,4.601005 0.55813,9.760062 1.116181,13.021696 0.148819,0.954902 0.23565,1.103721 -0.719331,1.897422 -11.434215,9.450042 -23.57538,20.797427 -23.57538,36.832703 0,13.815366 9.450042,26.911409 28.895717,26.911409 M 55.768283,88.896412 c 0,-4.687797 0.793701,-10.950613 7.378959,-18.416324 4.762206,-5.320336 8.420691,-8.25949 12.153546,-11.273094 0.793701,-0.632421 0.94252,-0.558051 1.103721,0.322481 l 1.674233,10.156912 c 0.23565,1.512953 0.23565,1.426122 -1.190552,1.909804 -6.99449,2.381103 -11.521046,8.64388 -11.521046,15.390378 0,7.143309 3.732855,12.227956 9.139943,14.051011 0.632501,0.23565 1.587402,0.48368 2.133072,0.48368 0.644882,0 0.954901,-0.39685 0.954901,-0.88053 0,-0.55805 -0.6325,-0.793705 -1.190551,-1.029355 -3.336005,-1.426177 -5.717108,-4.836615 -5.717108,-8.495081 0,-4.526576 3.100355,-7.937013 7.93701,-9.288821 1.277383,-0.31002 1.438583,-0.235571 1.587402,0.644882 l 3.968505,23.649825 c 0.161201,0.86815 0.08683,0.86815 -1.10372,1.1038 -1.277383,0.24804 -2.864785,0.39685 -4.452187,0.39685 -13.889767,0 -22.856128,-7.688974 -22.856128,-18.726418 M 86.722622,15.627888 c 2.616753,0 4.762206,2.145454 4.762206,6.510809 0,8.817542 -7.54016,15.960851 -13.802937,21.429927 -0.558051,0.483681 -0.880532,0.396851 -1.041732,-0.6325 -0.31002,-2.058623 -0.4713,-4.762206 -0.4713,-7.30451 0,-12.376735 5.717187,-20.003726 10.553763,-20.003726 M 84.42835,81.195052 c 6.423978,0.558051 11.744314,5.952734 11.744314,12.934826 0,5.010277 -3.013603,9.053152 -7.46579,11.273052 -0.954901,0.48368 -1.10372,0.48368 -1.264921,-0.4713 L 83.547818,82.311154 c -0.161201,-0.954902 -0.07437,-1.190551 0.880532,-1.116102"
     id="path996"
     inkscape:connector-curvature="0"
     style="stroke-width:0.79370099" />
  <path
     class="Clef"
     d="m 78.711395,931.99492 c 1.82297,0 3.88167,-0.1612 5.46907,-0.4836 0.88053,-0.1488 1.04174,-0.2356 1.19055,0.7193 0.95491,5.32014 2.14546,12.22788 2.14546,15.96064 0,11.7443 -7.93701,13.1704 -12.61239,13.1704 -4.29098,0 -6.36199,-1.2649 -6.36199,-2.30668 0,-0.5456 0.71925,-0.7937 2.54231,-1.3393 2.46793,-0.71938 5.32025,-2.86478 5.32025,-7.46572 0,-4.36538 -2.77795,-8.09814 -7.61453,-8.09814 -5.32033,0 -8.49514,4.20406 -8.49514,9.12742 0,5.15906 3.08806,12.93478 15.08032,12.93478 5.32034,0 15.63845,-2.38108 15.63845,-15.87386 0,-4.51416 -1.4262,-12.05428 -2.30673,-16.97764 -0.1612,-0.955 -0.0744,-0.8805 1.02935,-1.3518 8.02384,-3.17476 13.344095,-9.9212 13.344095,-18.88742 0,-10.16925 -7.465785,-19.13555 -19.135655,-19.13555 -2.05862,0 -2.05862,0 -2.29427,-1.4262 l -1.98425,-11.5087 c -0.1612,-0.9549 0,-1.0293 0.47122,-1.513 8.56951,-8.0114 15.08032,-18.0938 15.08032,-30.235 0,-6.9077 -1.90981,-13.741 -5.15906,-18.5036 -1.19055,-1.7358 -3.24917,-3.9685 -4.1297,-3.9685 -1.10373,0 -3.57166,2.0716 -5.15906,3.8201 -5.86593,6.4984 -7.77581,16.4197 -7.77581,24.6791 0,4.601 0.55813,9.7601 1.11618,13.0217 0.14882,0.9549 0.23565,1.1037 -0.71933,1.8974 -11.43422,9.4501 -23.57538,20.7975 -23.57538,36.8327 0,13.81527 9.45004,26.91117 28.89572,26.91117 M 56.165285,910.404 c 0,-4.68776 0.7937,-10.95055 7.37896,-18.41625 4.7622,-5.3203 8.42069,-8.2595 12.15354,-11.2731 0.7937,-0.6324 0.94252,-0.5581 1.10372,0.3225 l 1.67424,10.1569 c 0.23565,1.5129 0.23565,1.4261 -1.19055,1.9098 -6.99449,2.3811 -11.52105,8.6439 -11.52105,15.39037 0,7.14324 3.73285,12.2278 9.13994,14.05088 0.6325,0.2356 1.5874,0.4837 2.13307,0.4837 0.64489,0 0.95491,-0.3969 0.95491,-0.8806 0,-0.558 -0.6325,-0.7937 -1.19056,-1.0293 -3.336,-1.42618 -5.7171,-4.83654 -5.7171,-8.49502 0,-4.52656 3.10035,-7.93693 7.93701,-9.28873 1.27738,-0.31 1.43858,-0.2356 1.5874,0.6449 l 3.9685,23.64961 c 0.1612,0.86808 0.0868,0.86808 -1.10372,1.10378 -1.27738,0.248 -2.86478,0.3968 -4.45218,0.3968 -13.88977,0 -22.85613,-7.68884 -22.85613,-18.72624 m 30.95434,-73.26845 c 2.61675,0 4.7622,2.1454 4.7622,6.5108 0,8.8175 -7.54016,15.9609 -13.80293,21.4299 -0.55805,0.4837 -0.88054,0.3969 -1.04174,-0.6325 -0.31002,-2.0586 -0.4713,-4.7622 -0.4713,-7.3045 0,-12.3767 5.71719,-20.0037 10.55377,-20.0037 m -2.29428,65.5672 c 6.42398,0.558 11.74432,5.95267 11.74432,12.93471 0,5.01026 -3.0136,9.05302 -7.46579,11.2729 -0.9549,0.4837 -1.10372,0.4837 -1.26492,-0.4713 l -3.89414,-22.62021 c -0.1612,-0.9549 -0.0744,-1.1906 0.88053,-1.1161"
     id="path998"
     inkscape:connector-curvature="0"
     style="stroke-width:0.79370099" />
  <path
     class="Bracket"
     d="m 13.53169,204.44125 c 0,20.14019 -10.0700947,37.98756 -10.0700947,58.98198 0,28.77161 7.7323947,45.45022 14.0711737,53.54226 1.168851,1.43859 1.753261,1.70832 2.292731,1.70832 0.899115,0 1.75329,-0.85416 1.75329,-1.70832 0,-0.89911 -0.314705,-1.75329 -1.438585,-3.19187 -1.438585,-2.29273 -8.0471,-16.67858 -8.0471,-31.91866 0,-15.24008 8.63151,-42.30332 10.609565,-59.29675 0.314705,-1.43859 0.314705,-2.87717 0.314705,-4.58535 0,-16.99343 -9.485685,-37.40321 -17.84746,-42.57319 8.361775,-5.21487 17.84746,-25.62465 17.84746,-42.61808 0,-1.43859 0,-3.14676 -0.314705,-4.58535 -1.978055,-17.26302 -10.609565,-44.011781 -10.609565,-59.566625 0,-14.970203 6.608515,-29.356053 8.0471,-31.918461 1.12388,-1.168994 1.438585,-2.022938 1.438585,-2.87717 0,-0.584353 -0.314705,-1.168994 -0.58444,-1.168994 -0.269735,-0.269591 -0.584411,-0.853944 -1.16885,-0.853944 -0.53947,0 -1.12388,0.584353 -2.292731,2.022938 -6.338779,7.732394 -14.0711737,24.455945 -14.0711737,53.227645 0,28.456941 10.0700947,39.965621 10.0700947,58.127751 0,13.48674 -5.484605,20.99442 -13.53168984375001,30.21029 C 5.169915,181.15401 13.53169,185.73964 13.53169,204.44125"
     id="path1158"
     inkscape:connector-curvature="0"
     style="stroke-width:2.87717009" />
  <path
     class="Bracket"
     d="m 13.53169,1025.948 c 0,20.1402 -10.070095,37.9876 -10.070095,58.982 0,28.7716 7.732395,45.4503 14.071174,53.5423 1.168851,1.4386 1.753261,1.7083 2.292731,1.7083 0.899115,0 1.75329,-0.8541 1.75329,-1.7083 0,-0.8991 -0.314705,-1.7533 -1.438585,-3.1919 -1.438585,-2.2927 -8.0471,-16.6786 -8.0471,-31.9186 0,-15.2401 8.63151,-42.3034 10.609565,-59.2968 0.314705,-1.4386 0.314705,-2.8772 0.314705,-4.5853 0,-16.9935 -9.485685,-37.4032 -17.84746,-42.57316 8.361775,-5.21486 17.84746,-25.62448 17.84746,-42.61772 0,-1.4386 0,-3.14678 -0.314705,-4.58536 -1.978055,-17.26286 -10.609565,-44.01132 -10.609565,-59.56621 0,-14.9702 6.608515,-29.356 8.0471,-31.9184 1.12388,-1.169 1.438585,-2.023 1.438585,-2.8772 0,-0.5844 -0.314705,-1.169 -0.58444,-1.169 -0.269735,-0.2696 -0.584411,-0.854 -1.16885,-0.854 -0.53947,0 -1.12388,0.5844 -2.292731,2.023 -6.338779,7.7324 -14.071174,24.4559 -14.071174,53.22757 0,28.45674 10.070095,39.96524 10.070095,58.12728 0,13.48658 -5.484605,20.99422 -13.53169,30.21004 5.169915,5.75426 13.53169,10.33986 13.53169,29.04146"
     id="path1160"
     inkscape:connector-curvature="0"
     style="stroke-width:2.87717009" />
</svg>
