<?xml version="1.0" encoding="UTF-8" standalone="no"?>
<svg
   xmlns:dc="http://purl.org/dc/elements/1.1/"
   xmlns:cc="http://creativecommons.org/ns#"
   xmlns:rdf="http://www.w3.org/1999/02/22-rdf-syntax-ns#"
   xmlns:svg="http://www.w3.org/2000/svg"
   xmlns="http://www.w3.org/2000/svg"
   xmlns:sodipodi="http://sodipodi.sourceforge.net/DTD/sodipodi-0.dtd"
   xmlns:inkscape="http://www.inkscape.org/namespaces/inkscape"
   width="2800.96"
   height="779.41296"
   viewBox="0 0 2800.96 779.41298"
   version="1.2"
   id="svg1454"
   sodipodi:docname="KV 545-Exposition-4d.svg"
   inkscape:version="0.92.3 (2405546, 2018-03-11)">
  <metadata
     id="metadata1460">
    <rdf:RDF>
      <cc:Work
         rdf:about="">
        <dc:format>image/svg+xml</dc:format>
        <dc:type
           rdf:resource="http://purl.org/dc/dcmitype/StillImage" />
        <dc:title>KV 545-Exposition (4)</dc:title>
      </cc:Work>
    </rdf:RDF>
  </metadata>
  <defs
     id="defs1458">
    <inkscape:perspective
       sodipodi:type="inkscape:persp3d"
       inkscape:vp_x="0 : 2172.9774 : 1"
       inkscape:vp_y="0 : 1000 : 0"
       inkscape:vp_z="2843.2862 : 2172.9774 : 1"
       inkscape:persp3d-origin="1421.6431 : 1448.6516 : 1"
       id="perspective1794" />
  </defs>
  <sodipodi:namedview
     pagecolor="#ffffff"
     bordercolor="#666666"
     borderopacity="1"
     objecttolerance="10"
     gridtolerance="10"
     guidetolerance="10"
     inkscape:pageopacity="0"
     inkscape:pageshadow="2"
     inkscape:window-width="3840"
     inkscape:window-height="2066"
     id="namedview1456"
     showgrid="false"
     fit-margin-top="0"
     fit-margin-left="0"
     fit-margin-right="0"
     fit-margin-bottom="0"
     inkscape:zoom="0.60656273"
     inkscape:cx="1878.3106"
     inkscape:cy="754.01995"
     inkscape:window-x="-11"
     inkscape:window-y="-11"
     inkscape:window-maximized="1"
     inkscape:current-layer="svg1454" />
  <title
     id="title2">KV 545-Exposition (4)</title>
  <desc
     id="desc4">Generated by MuseScore 3.6.2</desc>
  <polyline
     class="StaffLines"
     points="102.85,1500.31 2903.81,1500.31"
     id="polyline46"
     transform="translate(-102.85,-1381.2941)"
     style="fill:none;stroke:#000000;stroke-width:2.57999992;stroke-linejoin:bevel" />
  <polyline
     class="StaffLines"
     points="102.85,1520.15 2903.81,1520.15"
     id="polyline48"
     transform="translate(-102.85,-1381.2941)"
     style="fill:none;stroke:#000000;stroke-width:2.57999992;stroke-linejoin:bevel" />
  <polyline
     class="StaffLines"
     points="102.85,1539.99 2903.81,1539.99"
     id="polyline50"
     transform="translate(-102.85,-1381.2941)"
     style="fill:none;stroke:#000000;stroke-width:2.57999992;stroke-linejoin:bevel" />
  <polyline
     class="StaffLines"
     points="102.85,1559.83 2903.81,1559.83"
     id="polyline52"
     transform="translate(-102.85,-1381.2941)"
     style="fill:none;stroke:#000000;stroke-width:2.57999992;stroke-linejoin:bevel" />
  <polyline
     class="StaffLines"
     points="102.85,1579.68 2903.81,1579.68"
     id="polyline54"
     transform="translate(-102.85,-1381.2941)"
     style="fill:none;stroke:#000000;stroke-width:2.57999992;stroke-linejoin:bevel" />
  <polyline
     class="StaffLines"
     points="102.85,3008.34 2903.81,3008.34"
     id="polyline96"
     transform="translate(-102.85,-2401.2941)"
     style="fill:none;stroke:#000000;stroke-width:2.57999992;stroke-linejoin:bevel" />
  <polyline
     class="StaffLines"
     points="102.85,3028.18 2903.81,3028.18"
     id="polyline98"
     transform="translate(-102.85,-2401.2941)"
     style="fill:none;stroke:#000000;stroke-width:2.57999992;stroke-linejoin:bevel" />
  <polyline
     class="StaffLines"
     points="102.85,3048.02 2903.81,3048.02"
     id="polyline100"
     transform="translate(-102.85,-2401.2941)"
     style="fill:none;stroke:#000000;stroke-width:2.57999992;stroke-linejoin:bevel" />
  <polyline
     class="StaffLines"
     points="102.85,3067.86 2903.81,3067.86"
     id="polyline102"
     transform="translate(-102.85,-2401.2941)"
     style="fill:none;stroke:#000000;stroke-width:2.57999992;stroke-linejoin:bevel" />
  <polyline
     class="StaffLines"
     points="102.85,3087.71 2903.81,3087.71"
     id="polyline104"
     transform="translate(-102.85,-2401.2941)"
     style="fill:none;stroke:#000000;stroke-width:2.57999992;stroke-linejoin:bevel" />
  <path
     class="SlurSegment"
     d="m 150.048,247.25594 c 353.258,69.85 2004.262,82.87 2358.572,18.59 -354.35,69.04 -2005.351,56.02 -2358.572,-18.59"
     id="path110"
     inkscape:connector-curvature="0"
     style="fill-rule:evenodd;stroke:#000000;stroke-width:1.98000002;stroke-linecap:round;stroke-linejoin:round" />
  <path
     class="SlurSegment"
     d="m 462.84,141.14594 c 302.133,33.96 1717.48,51.7 2021.92,25.35 -304.5,31.11 -1719.846,13.37 -2021.92,-25.35"
     id="path112"
     inkscape:connector-curvature="0"
     style="fill-rule:evenodd;stroke:#000000;stroke-width:1.98000002;stroke-linecap:round;stroke-linejoin:round" />
  <path
     class="SlurSegment"
     d="m 181.373,64.625938 c 346.149,-69.27 1959.027,-57.32 2304.117,17.06 -345.12,-69.62 -1958.003,-81.57 -2304.117,-17.06"
     id="path114"
     inkscape:connector-curvature="0"
     style="fill-rule:evenodd;stroke:#000000;stroke-width:1.98000002;stroke-linecap:round;stroke-linejoin:round" />
  <path
     class="SlurSegment"
     d="m 179.318,644.89594 c 61.125,-62.89 379.223,-104.35 454.426,-59.22 -74.588,-40.4 -392.686,1.05 -454.426,59.22"
     id="path116"
     inkscape:connector-curvature="0"
     style="fill-rule:evenodd;stroke:#000000;stroke-width:1.98000002;stroke-linecap:round;stroke-linejoin:round" />
  <path
     class="SlurSegment"
     d="m 698.90161,601.98034 c 294.39095,43.9163 1648.57409,52.9805 1934.54909,12.9457 -286.0117,43.554 -1640.19474,34.4898 -1934.54909,-12.9457"
     id="path118"
     inkscape:connector-curvature="0"
     style="fill-rule:evenodd;stroke:#000000;stroke-width:1.62994003;stroke-linecap:round;stroke-linejoin:round" />
  <polyline
     class="BarLine"
     points="104.438,1499.02 104.438,1580.97"
     id="polyline134"
     transform="translate(-102.85,-1381.2941)"
     style="stroke:#000000;stroke-width:3.17000008;stroke-linejoin:bevel" />
  <polyline
     class="BarLine"
     points="832.81,1499.02 832.81,1580.97"
     id="polyline136"
     transform="translate(-102.85,-1381.2941)"
     style="stroke:#000000;stroke-width:3.17000008;stroke-linejoin:bevel" />
  <polyline
     class="BarLine"
     points="1529.12,1499.02 1529.12,1580.97"
     id="polyline138"
     transform="translate(-102.85,-1381.2941)"
     style="stroke:#000000;stroke-width:3.17000008;stroke-linejoin:bevel" />
  <polyline
     class="BarLine"
     points="2223.2,1499.02 2223.2,1580.97"
     id="polyline140"
     transform="translate(-102.85,-1381.2941)"
     style="stroke:#000000;stroke-width:3.17000008;stroke-linejoin:bevel" />
  <polyline
     class="BarLine"
     points="2902.22,1499.02 2902.22,1580.97"
     id="polyline142"
     transform="translate(-102.85,-1381.2941)"
     style="stroke:#000000;stroke-width:3.17000008;stroke-linejoin:bevel" />
  <polyline
     class="BarLine"
     points="104.438,3007.05 104.438,3089"
     id="polyline144"
     transform="translate(-102.85,-2401.2941)"
     style="stroke:#000000;stroke-width:3.17000008;stroke-linejoin:bevel" />
  <polyline
     class="BarLine"
     points="725.763,3007.05 725.763,3089"
     id="polyline146"
     transform="translate(-102.85,-2401.2941)"
     style="stroke:#000000;stroke-width:3.17000008;stroke-linejoin:bevel" />
  <polyline
     class="BarLine"
     points="1409.22,3007.05 1409.22,3089"
     id="polyline148"
     transform="translate(-102.85,-2401.2941)"
     style="stroke:#000000;stroke-width:3.17000008;stroke-linejoin:bevel" />
  <polyline
     class="BarLine"
     points="2198.26,3007.05 2198.26,3089"
     id="polyline150"
     transform="translate(-102.85,-2401.2941)"
     style="stroke:#000000;stroke-width:3.17000008;stroke-linejoin:bevel" />
  <polyline
     class="BarLine"
     points="2902.22,3007.05 2902.22,3089"
     id="polyline152"
     transform="translate(-298.85,-2401.2941)"
     style="stroke:#000000;stroke-width:3.17000008;stroke-linejoin:bevel" />
  <polyline
     class="BarLine"
     points="104.438,1171.61 104.438,1500.31"
     id="polyline154"
     transform="matrix(1,0,0,0.00392455,-102.85,113.12794)"
     style="stroke:#000000;stroke-width:3.17000008;stroke-linejoin:bevel" />
  <polyline
     class="BarLine"
     points="104.438,2679.65 104.438,3008.34"
     id="polyline164"
     transform="matrix(1,0,0,0.00392467,-102.85,595.23924)"
     style="stroke:#000000;stroke-width:3.17000008;stroke-linejoin:bevel" />
  <path
     class="Accidental"
     d="m 2132.8825,255.84724 c 0.3224,0 1.823,-0.7193 2.071,-0.8805 0.075,0 0.1489,-0.074 0.2357,-0.074 0.558,0 1.0293,0.7937 1.0293,1.4262 v 7.8626 c 0,0.8681 -0.3968,1.5874 -0.8681,1.823 -0.4837,0.1613 -2.1455,0.8682 -2.1455,0.8682 -0.558,0.1612 -0.9549,0.7937 -0.9549,1.2773 v 5.6303 c 0,0.4713 0.2356,0.7194 0.6325,0.7194 0.087,0 0.2356,-0.087 0.3224,-0.087 0,0 1.1038,-0.4713 1.8231,-0.7068 0.074,-0.087 0.1612,-0.087 0.2356,-0.087 0.5581,0 0.9549,0.8806 0.9549,1.2774 v 9.76 c 0,0.4713 0.4713,0.8681 1.0293,0.8681 0.7937,0 1.3518,-0.3968 1.3518,-0.8681 v -11.0374 c 0,-1.0293 0.3969,-1.5874 0.7937,-1.7486 l 4.8367,-1.9842 c 0.087,0 0.248,-0.075 0.3224,-0.075 0.6325,0 1.0293,0.9549 1.0293,1.4262 v 9.9213 c 0,0.4837 0.4837,0.8805 1.0294,0.8805 0.8804,0 1.3517,-0.3968 1.3517,-0.8805 v -11.273 c 0,-0.6325 0.3224,-1.5874 0.8806,-1.8231 0.5456,-0.2356 2.2198,-0.8681 2.2198,-0.8681 0.5581,-0.2356 0.955,-0.8805 0.955,-1.3518 v -5.6303 c 0,-0.3969 -0.2481,-0.6449 -0.5582,-0.6449 -0.1612,0 -0.2355,0 -0.3968,0.087 l -2.071,0.7937 c -0.4713,0 -1.0294,-0.4836 -1.0294,-1.4262 v -7.3913 c 0,-0.5457 0.3969,-2.0587 1.0294,-2.2943 l 2.071,-0.7937 c 0.5581,-0.2357 0.955,-0.8805 0.955,-1.3518 v -5.6303 c 0,-0.3969 -0.2481,-0.6449 -0.5582,-0.6449 -0.1612,0 -0.2355,0 -0.3968,0.087 0,0 -1.5874,0.6325 -1.9843,0.7069 -0.558,0 -1.1161,-0.3969 -1.1161,-1.0293 v -9.6857 c 0,-0.4712 -0.4713,-0.868 -1.1037,-0.868 -0.7937,0 -1.2774,0.3968 -1.2774,0.868 v 10.3181 c -0.074,0.7937 -0.31,1.8355 -1.0293,2.3068 -0.9549,0.558 -3.6461,1.6618 -4.9979,1.9842 -0.7193,0 -0.9549,-0.9549 -0.9549,-1.5874 v -9.5244 c 0,-0.4837 -0.5581,-0.8805 -1.1161,-0.8805 -0.7937,0 -1.265,0.3968 -1.265,0.8805 v 10.715 c 0,1.1161 -0.4713,1.9098 -0.9549,2.1454 -0.4713,0.2357 -2.0587,0.8682 -2.0587,0.8682 -0.558,0.1612 -0.9549,0.7937 -0.9549,1.2773 v 5.6303 c 0,0.4713 0.2356,0.7193 0.6325,0.7193 m 5.4815,4.4398 c 0,-2.4555 0.074,-5.2335 0.2356,-5.8783 0.1612,-1.3394 3.8073,-3.0136 5.7916,-3.0136 0.558,0 1.0293,0.1612 1.1905,0.4836 0.1612,0.3969 0.3224,2.3811 0.3224,4.5142 0,2.1455 -0.1612,4.3654 -0.3224,5.0847 -0.4713,1.5874 -4.2041,3.1748 -6.0272,3.1748 -0.4836,0 -0.8805,-0.1613 -0.9549,-0.3969 -0.1612,-0.3224 -0.2356,-2.0587 -0.2356,-3.9685"
     id="path234"
     inkscape:connector-curvature="0"
     style="stroke-width:0.79370099" />
  <path
     class="Accidental"
     d="m 742.49848,116.95724 c 0.32245,0 1.82303,-0.7193 2.07106,-0.8805 0.0744,0 0.14882,-0.074 0.23564,-0.074 0.55807,0 1.02933,0.7937 1.02933,1.4262 v 7.8626 c 0,0.8681 -0.39686,1.5874 -0.86812,1.823 -0.48365,0.1613 -2.14546,0.8682 -2.14546,0.8682 -0.55808,0.1612 -0.95493,0.7937 -0.95493,1.2773 v 5.6303 c 0,0.4713 0.23563,0.7194 0.63248,0.7194 0.0868,0 0.23563,-0.087 0.32245,-0.087 0,0 1.10373,-0.4713 1.82302,-0.7068 0.0744,-0.087 0.16123,-0.087 0.23564,-0.087 0.55806,0 0.95492,0.8806 0.95492,1.2774 v 9.76 c 0,0.4713 0.47125,0.8681 1.02933,0.8681 0.7937,0 1.35177,-0.3968 1.35177,-0.8681 v -11.0374 c 0,-1.0293 0.39685,-1.5874 0.7937,-1.7486 l 4.83665,-1.9842 c 0.0868,0 0.24804,-0.074 0.32241,-0.074 0.6325,0 1.02935,0.9549 1.02935,1.4262 v 9.9213 c 0,0.4837 0.48368,0.8805 1.02935,0.8805 0.88045,0 1.35175,-0.3968 1.35175,-0.8805 v -11.273 c 0,-0.6325 0.3224,-1.5874 0.88053,-1.8231 0.54567,-0.2356 2.21982,-0.8681 2.21982,-0.8681 0.55813,-0.2356 0.95499,-0.8805 0.95499,-1.3518 v -5.6303 c 0,-0.3969 -0.24804,-0.6449 -0.55814,-0.6449 -0.1612,0 -0.23557,0 -0.39685,0.087 l -2.071,0.7937 c -0.4713,0 -1.02935,-0.4836 -1.02935,-1.4262 v -7.3913 c 0,-0.5457 0.39685,-2.0587 1.02935,-2.2943 l 2.071,-0.7937 c 0.55813,-0.2357 0.95499,-0.8805 0.95499,-1.3518 v -5.6303 c 0,-0.3969 -0.24804,-0.6449 -0.55814,-0.6449 -0.1612,0 -0.23557,0 -0.39685,0.087 0,0 -1.5874,0.6325 -1.98425,0.7069 -0.55805,0 -1.1161,-0.3969 -1.1161,-1.0293 v -9.685702 c 0,-0.4712 -0.4713,-0.868 -1.10372,-0.868 -0.7937,0 -1.27738,0.3968 -1.27738,0.868 v 10.318102 c -0.0745,0.7937 -0.31002,1.8355 -1.02935,2.3068 -0.95491,0.558 -3.64603,1.6618 -4.99784,1.9842 -0.71929,0 -0.95492,-0.9549 -0.95492,-1.5874 v -9.524402 c 0,-0.4837 -0.55807,-0.8805 -1.11614,-0.8805 -0.79371,0 -1.26496,0.3968 -1.26496,0.8805 v 10.715002 c 0,1.1161 -0.47126,1.9098 -0.95492,2.1454 -0.47126,0.2357 -2.05866,0.8682 -2.05866,0.8682 -0.55808,0.1612 -0.95493,0.7937 -0.95493,1.2773 v 5.6303 c 0,0.4713 0.23563,0.7193 0.63248,0.7193 m 5.4815,4.4398 c 0,-2.4555 0.0744,-5.2335 0.23563,-5.8783 0.16122,-1.3394 3.8073,-3.0136 5.79155,-3.0136 0.55806,0 1.02936,0.1612 1.19056,0.4836 0.1612,0.3969 0.3224,2.3811 0.3224,4.5142 0,2.1455 -0.1612,4.3654 -0.3224,5.0847 -0.4713,1.5874 -4.20416,3.1748 -6.02719,3.1748 -0.48366,0 -0.88051,-0.1613 -0.95492,-0.3969 -0.16122,-0.3224 -0.23563,-2.0587 -0.23563,-3.9685"
     id="path236"
     inkscape:connector-curvature="0"
     style="stroke-width:0.79370099" />
  <path
     class="Accidental"
     d="m 2115.7927,605.60484 c 0.2257,0 1.2762,-0.5035 1.4498,-0.6163 0.052,0 0.1042,-0.052 0.1649,-0.052 0.3907,0 0.7206,0.5556 0.7206,0.9983 v 5.5038 c 0,0.6077 -0.2778,1.1112 -0.6077,1.2762 -0.3386,0.1128 -1.5019,0.6077 -1.5019,0.6077 -0.3906,0.1128 -0.6684,0.5555 -0.6684,0.8941 v 3.9412 c 0,0.3299 0.1649,0.5036 0.4427,0.5036 0.061,0 0.165,-0.061 0.2257,-0.061 0,0 0.7727,-0.3299 1.2762,-0.4948 0.052,-0.061 0.1128,-0.061 0.1649,-0.061 0.3907,0 0.6685,0.6164 0.6685,0.8941 v 6.832 c 0,0.3299 0.3298,0.6077 0.7205,0.6077 0.5556,0 0.9462,-0.2778 0.9462,-0.6077 v -7.7261 c 0,-0.7206 0.2778,-1.1112 0.5556,-1.224 l 3.3857,-1.389 c 0.061,0 0.1736,-0.052 0.2257,-0.052 0.4427,0 0.7205,0.6684 0.7205,0.9983 v 6.9449 c 0,0.3386 0.3386,0.6164 0.7206,0.6164 0.6163,0 0.9462,-0.2778 0.9462,-0.6164 v -7.8911 c 0,-0.4428 0.2257,-1.1112 0.6164,-1.2762 0.3819,-0.1649 1.5538,-0.6077 1.5538,-0.6077 0.3907,-0.1649 0.6685,-0.6163 0.6685,-0.9462 v -3.9412 c 0,-0.2778 -0.1736,-0.4514 -0.3907,-0.4514 -0.1128,0 -0.1649,0 -0.2778,0.061 l -1.4497,0.5556 c -0.3299,0 -0.7205,-0.3385 -0.7205,-0.9983 v -5.1739 c 0,-0.382 0.2778,-1.4411 0.7205,-1.6061 l 1.4497,-0.5556 c 0.3907,-0.1649 0.6685,-0.6163 0.6685,-0.9462 v -3.9412 c 0,-0.2778 -0.1736,-0.4514 -0.3907,-0.4514 -0.1128,0 -0.1649,0 -0.2778,0.061 0,0 -1.1112,0.4428 -1.3889,0.4948 -0.3907,0 -0.7813,-0.2778 -0.7813,-0.7204 v -6.78 c 0,-0.3299 -0.3299,-0.6077 -0.7726,-0.6077 -0.5556,0 -0.8942,0.2778 -0.8942,0.6077 v 7.2226 c -0.052,0.5556 -0.217,1.2849 -0.7205,1.6148 -0.6685,0.3906 -2.5523,1.1632 -3.4985,1.3889 -0.5035,0 -0.6685,-0.6684 -0.6685,-1.1111 v -6.6671 c 0,-0.3386 -0.3906,-0.6164 -0.7813,-0.6164 -0.5556,0 -0.8854,0.2778 -0.8854,0.6164 v 7.5004 c 0,0.7813 -0.3299,1.3369 -0.6685,1.5019 -0.3299,0.1649 -1.4411,0.6077 -1.4411,0.6077 -0.3906,0.1128 -0.6684,0.5556 -0.6684,0.8941 v 3.9412 c 0,0.3299 0.1649,0.5035 0.4427,0.5035 m 3.8371,3.1079 c 0,-1.7189 0.052,-3.6635 0.1649,-4.1149 0.1129,-0.9375 2.6651,-2.1095 4.0541,-2.1095 0.3907,0 0.7206,0.1129 0.8334,0.3386 0.1128,0.2778 0.2257,1.6668 0.2257,3.1599 0,1.5018 -0.1129,3.0558 -0.2257,3.5593 -0.3299,1.1111 -2.9429,2.2223 -4.219,2.2223 -0.3386,0 -0.6164,-0.1128 -0.6685,-0.2778 -0.1128,-0.2257 -0.1649,-1.441 -0.1649,-2.7779"
     id="path238"
     inkscape:connector-curvature="0"
     style="stroke-width:0.55559099" />
  <polyline
     class="LedgerLine"
     points="225.155,1480.46 267.14,1480.46"
     id="polyline260"
     transform="translate(-102.85,-1381.2941)"
     style="stroke:#000000;stroke-width:3.17000008;stroke-linejoin:bevel" />
  <polyline
     class="LedgerLine"
     points="225.155,1460.62 267.14,1460.62"
     id="polyline262"
     transform="translate(-102.85,-1381.2941)"
     style="stroke:#000000;stroke-width:3.17000008;stroke-linejoin:bevel" />
  <polyline
     class="LedgerLine"
     points="225.155,1599.52 267.14,1599.52"
     id="polyline264"
     transform="translate(-102.85,-1381.2941)"
     style="stroke:#000000;stroke-width:3.17000008;stroke-linejoin:bevel" />
  <polyline
     class="LedgerLine"
     points="526.909,1599.52 568.894,1599.52"
     id="polyline266"
     transform="translate(-102.85,-1381.2941)"
     style="stroke:#000000;stroke-width:3.17000008;stroke-linejoin:bevel" />
  <polyline
     class="LedgerLine"
     points="673.457,1480.46 715.443,1480.46"
     id="polyline268"
     transform="translate(-102.85,-1381.2941)"
     style="stroke:#000000;stroke-width:3.17000008;stroke-linejoin:bevel" />
  <polyline
     class="LedgerLine"
     points="673.457,1460.62 715.443,1460.62"
     id="polyline270"
     transform="translate(-102.85,-1381.2941)"
     style="stroke:#000000;stroke-width:3.17000008;stroke-linejoin:bevel" />
  <polyline
     class="LedgerLine"
     points="860.906,1619.36 902.892,1619.36"
     id="polyline272"
     transform="translate(-102.85,-1381.2941)"
     style="stroke:#000000;stroke-width:3.17000008;stroke-linejoin:bevel" />
  <polyline
     class="LedgerLine"
     points="860.906,1599.52 902.892,1599.52"
     id="polyline274"
     transform="translate(-102.85,-1381.2941)"
     style="stroke:#000000;stroke-width:3.17000008;stroke-linejoin:bevel" />
  <polyline
     class="LedgerLine"
     points="1221,1599.52 1262.98,1599.52"
     id="polyline276"
     transform="translate(-102.85,-1381.2941)"
     style="stroke:#000000;stroke-width:3.17000008;stroke-linejoin:bevel" />
  <polyline
     class="LedgerLine"
     points="1368.43,1480.46 1410.42,1480.46"
     id="polyline278"
     transform="translate(-102.85,-1381.2941)"
     style="stroke:#000000;stroke-width:3.17000008;stroke-linejoin:bevel" />
  <polyline
     class="LedgerLine"
     points="1550.55,1619.36 1592.53,1619.36"
     id="polyline280"
     transform="translate(-102.85,-1381.2941)"
     style="stroke:#000000;stroke-width:3.17000008;stroke-linejoin:bevel" />
  <polyline
     class="LedgerLine"
     points="1550.55,1599.52 1592.53,1599.52"
     id="polyline282"
     transform="translate(-102.85,-1381.2941)"
     style="stroke:#000000;stroke-width:3.17000008;stroke-linejoin:bevel" />
  <polyline
     class="LedgerLine"
     points="1879.26,1619.36 1921.25,1619.36"
     id="polyline284"
     transform="translate(-102.85,-1381.2941)"
     style="stroke:#000000;stroke-width:3.17000008;stroke-linejoin:bevel" />
  <polyline
     class="LedgerLine"
     points="1879.26,1599.52 1921.25,1599.52"
     id="polyline286"
     transform="translate(-102.85,-1381.2941)"
     style="stroke:#000000;stroke-width:3.17000008;stroke-linejoin:bevel" />
  <polyline
     class="LedgerLine"
     points="2046.96,1480.46 2088.95,1480.46"
     id="polyline288"
     transform="translate(-102.85,-1381.2941)"
     style="stroke:#000000;stroke-width:3.17000008;stroke-linejoin:bevel" />
  <polyline
     class="LedgerLine"
     points="2259.23,1639.2 2301.22,1639.2"
     id="polyline290"
     transform="translate(-102.85,-1381.2941)"
     style="stroke:#000000;stroke-width:3.17000008;stroke-linejoin:bevel" />
  <polyline
     class="LedgerLine"
     points="2259.23,1619.36 2301.22,1619.36"
     id="polyline292"
     transform="translate(-102.85,-1381.2941)"
     style="stroke:#000000;stroke-width:3.17000008;stroke-linejoin:bevel" />
  <polyline
     class="LedgerLine"
     points="2259.23,1599.52 2301.22,1599.52"
     id="polyline294"
     transform="translate(-102.85,-1381.2941)"
     style="stroke:#000000;stroke-width:3.17000008;stroke-linejoin:bevel" />
  <polyline
     class="LedgerLine"
     points="2590.48,1619.36 2632.47,1619.36"
     id="polyline296"
     transform="translate(-102.85,-1381.2941)"
     style="stroke:#000000;stroke-width:3.17000008;stroke-linejoin:bevel" />
  <polyline
     class="LedgerLine"
     points="2590.48,1599.52 2632.47,1599.52"
     id="polyline298"
     transform="translate(-102.85,-1381.2941)"
     style="stroke:#000000;stroke-width:3.17000008;stroke-linejoin:bevel" />
  <polyline
     class="LedgerLine"
     points="229.917,3107.55 271.902,3107.55"
     id="polyline300"
     transform="translate(-102.85,-2401.2941)"
     style="stroke:#000000;stroke-width:3.17000008;stroke-linejoin:bevel" />
  <polyline
     class="LedgerLine"
     points="752.352,2988.49 794.337,2988.49"
     id="polyline302"
     transform="translate(-102.85,-2401.2941)"
     style="stroke:#000000;stroke-width:3.17000008;stroke-linejoin:bevel" />
  <polyline
     class="LedgerLine"
     points="1141.8,2988.49 1183.79,2988.49"
     id="polyline304"
     transform="translate(-102.85,-2401.2941)"
     style="stroke:#000000;stroke-width:3.17000008;stroke-linejoin:bevel" />
  <polyline
     class="LedgerLine"
     points="1141.8,2968.65 1183.79,2968.65"
     id="polyline306"
     transform="translate(-102.85,-2401.2941)"
     style="stroke:#000000;stroke-width:3.17000008;stroke-linejoin:bevel" />
  <polyline
     class="LedgerLine"
     points="1435.81,2988.49 1477.79,2988.49"
     id="polyline308"
     transform="translate(-102.85,-2401.2941)"
     style="stroke:#000000;stroke-width:3.17000008;stroke-linejoin:bevel" />
  <polyline
     class="LedgerLine"
     points="2227.15,2988.49 2269.13,2988.49"
     id="polyline310"
     transform="translate(-102.85,-2401.2941)"
     style="stroke:#000000;stroke-width:3.17000008;stroke-linejoin:bevel" />
  <polyline
     class="Stem"
     points="234.282,1612.11 234.282,1654.09"
     id="polyline484"
     transform="translate(-102.85,-1381.2941)"
     style="stroke:#000000;stroke-width:2.38000011;stroke-linejoin:bevel" />
  <polyline
     class="Stem"
     points="1401.29,1467.87 1401.29,1425.9"
     id="polyline486"
     transform="translate(-102.85,-1381.2941)"
     style="stroke:#000000;stroke-width:2.38000011;stroke-linejoin:bevel" />
  <polyline
     class="Stem"
     points="2079.82,1477.8 2079.82,1433.34"
     id="polyline488"
     transform="translate(-102.85,-1381.2941)"
     style="stroke:#000000;stroke-width:2.38000011;stroke-linejoin:bevel" />
  <polyline
     class="Stem"
     points="239.044,3110.22 239.044,3154.68"
     id="polyline490"
     transform="translate(-102.85,-2401.2941)"
     style="stroke:#000000;stroke-width:2.38000011;stroke-linejoin:bevel" />
  <polyline
     class="Stem"
     points="234.282,1493.05 234.282,1559.83"
     id="polyline492"
     transform="translate(-102.85,-1381.2941)"
     style="stroke:#000000;stroke-width:2.38000011;stroke-linejoin:bevel" />
  <polyline
     class="Stem"
     points="2623.34,1487.72 2623.34,1440.78"
     id="polyline494"
     transform="translate(-102.85,-1381.2941)"
     style="stroke:#000000;stroke-width:2.38000011;stroke-linejoin:bevel" />
  <polyline
     class="Stem"
     points="262.775,3055.28 262.775,2993.46"
     id="polyline496"
     transform="translate(-102.85,-2401.2941)"
     style="stroke:#000000;stroke-width:2.38000011;stroke-linejoin:bevel" />
  <polyline
     class="Stem"
     points="761.479,2991.16 761.479,3057.94"
     id="polyline498"
     transform="translate(-102.85,-2401.2941)"
     style="stroke:#000000;stroke-width:2.38000011;stroke-linejoin:bevel" />
  <polyline
     class="Stem"
     points="1449.34,3000.28 1449.34,3032.67"
     id="polyline500"
     transform="translate(-102.85,-2401.2941)"
     style="stroke:#000000;stroke-width:1.66999996;stroke-linejoin:bevel" />
  <polyline
     class="Stem"
     points="2239.84,3010.2 2239.84,3032.02"
     id="polyline502"
     transform="translate(-102.85,-2401.2941)"
     style="stroke:#000000;stroke-width:1.66999996;stroke-linejoin:bevel" />
  <polyline
     class="Stem"
     points="258.013,1448.03 258.013,1384.23"
     id="polyline504"
     transform="translate(-102.85,-1381.2941)"
     style="stroke:#000000;stroke-width:2.38000011;stroke-linejoin:bevel" />
  <polyline
     class="Stem"
     points="706.315,1457.95 706.315,1415.97"
     id="polyline506"
     transform="translate(-102.85,-1381.2941)"
     style="stroke:#000000;stroke-width:2.38000011;stroke-linejoin:bevel" />
  <polyline
     class="Stem"
     points="1174.66,2965.99 1174.66,2887.34"
     id="polyline508"
     transform="translate(-102.85,-2401.2941)"
     style="stroke:#000000;stroke-width:2.38000011;stroke-linejoin:bevel" />
  <polyline
     class="Stem"
     points="1468.66,2975.91 1468.66,2892.68"
     id="polyline510"
     transform="translate(-102.85,-2401.2941)"
     style="stroke:#000000;stroke-width:2.38000011;stroke-linejoin:bevel" />
  <polyline
     class="Stem"
     points="2260.01,2985.83 2260.01,2906.99"
     id="polyline512"
     transform="translate(-102.85,-2401.2941)"
     style="stroke:#000000;stroke-width:2.38000011;stroke-linejoin:bevel" />
  <path
     class="Note"
     d="m 138.81151,239.25774 c 14.60902,0 17.54825,-11.9055 17.54825,-14.7579 0,-4.5266 -3.57165,-7.4657 -8.73071,-7.4657 -13.25732,0 -17.38705,10.2437 -17.38705,14.8447 0,4.6754 3.73288,7.3789 8.56951,7.3789 m -5.95277,-7.2177 c 0,-4.291 12.78606,-11.3599 16.99014,-11.3599 1.66185,0 2.61675,0.7938 3.24925,1.9099 0.24803,0.4713 0.48368,1.0293 0.48368,1.6618 0,1.7486 -1.82305,3.8941 -8.02384,7.937 -3.96851,2.7036 -6.74646,3.6585 -8.64392,3.6585 -1.83543,0 -2.93917,-0.9549 -3.49725,-2.0711 -0.32244,-0.4712 -0.55806,-1.1037 -0.55806,-1.7362"
     id="path836"
     inkscape:connector-curvature="0"
     style="stroke-width:0.79370099" />
  <path
     class="Note"
     d="m 431.996,221.95884 c 0,4.601 3.80729,7.3789 8.56951,7.3789 7.86256,0 17.54825,-7.3045 17.54825,-14.8447 0,-4.4398 -3.57165,-7.3789 -8.65634,-7.3789 -9.68563,0 -17.46142,7.2177 -17.46142,14.8447"
     id="path838"
     inkscape:connector-curvature="0"
     style="stroke-width:0.79370099" />
  <path
     class="Note"
     d="m 765.993,241.79884 c 0,4.601 3.80729,7.3789 8.56951,7.3789 7.86256,0 17.54825,-7.3045 17.54825,-14.8447 0,-4.4398 -3.57165,-7.3789 -8.65634,-7.3789 -9.68563,0 -17.46142,7.2177 -17.46142,14.8447"
     id="path840"
     inkscape:connector-curvature="0"
     style="stroke-width:0.79370099" />
  <path
     class="Note"
     d="m 1126.08,231.87884 c 0,4.601 3.8073,7.3789 8.5695,7.3789 7.8626,0 17.5483,-7.3045 17.5483,-14.8447 0,-4.4398 -3.5717,-7.3789 -8.6564,-7.3789 -9.6856,0 -17.4614,7.2177 -17.4614,14.8447"
     id="path842"
     inkscape:connector-curvature="0"
     style="stroke-width:0.79370099" />
  <path
     class="Note"
     d="m 1455.64,251.71884 c 0,4.601 3.8073,7.3789 8.5695,7.3789 7.8626,0 17.5483,-7.3045 17.5483,-14.8447 0,-4.4398 -3.5717,-7.3789 -8.6564,-7.3789 -9.6856,0 -17.4614,7.2177 -17.4614,14.8447"
     id="path844"
     inkscape:connector-curvature="0"
     style="stroke-width:0.79370099" />
  <path
     class="Note"
     d="m 1784.35,241.79884 c 0,4.601 3.8073,7.3789 8.5695,7.3789 7.8626,0 17.5483,-7.3045 17.5483,-14.8447 0,-4.4398 -3.5717,-7.3789 -8.6564,-7.3789 -9.6856,0 -17.4614,7.2177 -17.4614,14.8447"
     id="path846"
     inkscape:connector-curvature="0"
     style="stroke-width:0.79370099" />
  <path
     class="Note"
     d="m 2164.32,261.63884 c 0,4.601 3.8073,7.3789 8.5695,7.3789 7.8626,0 17.5483,-7.3045 17.5483,-14.8447 0,-4.4398 -3.5717,-7.3789 -8.6564,-7.3789 -9.6856,0 -17.4614,7.2177 -17.4614,14.8447"
     id="path848"
     inkscape:connector-curvature="0"
     style="stroke-width:0.79370099" />
  <path
     class="Note"
     d="m 2495.57,251.71884 c 0,4.601 3.8073,7.3789 8.5695,7.3789 7.8626,0 17.5483,-7.3045 17.5483,-14.8447 0,-4.4398 -3.5717,-7.3789 -8.6564,-7.3789 -9.6856,0 -17.4614,7.2177 -17.4614,14.8447"
     id="path850"
     inkscape:connector-curvature="0"
     style="stroke-width:0.79370099" />
  <path
     class="Note"
     d="m 431.996,132.66884 c 0,4.601 3.80729,7.3789 8.56951,7.3789 7.86256,0 17.54825,-7.3045 17.54825,-14.8447 0,-4.4398 -3.57165,-7.3789 -8.65634,-7.3789 -9.68563,0 -17.46142,7.2177 -17.46142,14.8447"
     id="path852"
     inkscape:connector-curvature="0"
     style="stroke-width:0.79370099" />
  <path
     class="Note"
     d="m 765.993,122.74884 c 0,4.601 3.80729,7.3789 8.56951,7.3789 7.86256,0 17.54825,-7.3045 17.54825,-14.8447 0,-4.4398 -3.57165,-7.3789 -8.65634,-7.3789 -9.68563,0 -17.46142,7.2177 -17.46142,14.8447"
     id="path854"
     inkscape:connector-curvature="0"
     style="stroke-width:0.79370099" />
  <path
     class="Note"
     d="m 1126.08,142.58884 c 0,4.601 3.8073,7.3789 8.5695,7.3789 7.8626,0 17.5483,-7.3045 17.5483,-14.8447 0,-4.4398 -3.5717,-7.3789 -8.6564,-7.3789 -9.6856,0 -17.4614,7.2177 -17.4614,14.8447"
     id="path856"
     inkscape:connector-curvature="0"
     style="stroke-width:0.79370099" />
  <path
     class="Note"
     d="m 1273.52,92.978838 c 0,4.601 3.8073,7.378902 8.5695,7.378902 7.8626,0 17.5483,-7.304502 17.5483,-14.844702 0,-4.4398 -3.5717,-7.3789 -8.6564,-7.3789 -9.6856,0 -17.4614,7.2177 -17.4614,14.8447"
     id="path858"
     inkscape:connector-curvature="0"
     style="stroke-width:0.79370099" />
  <path
     class="Note"
     d="m 1455.64,132.66884 c 0,4.601 3.8073,7.3789 8.5695,7.3789 7.8626,0 17.5483,-7.3045 17.5483,-14.8447 0,-4.4398 -3.5717,-7.3789 -8.6564,-7.3789 -9.6856,0 -17.4614,7.2177 -17.4614,14.8447"
     id="path860"
     inkscape:connector-curvature="0"
     style="stroke-width:0.79370099" />
  <path
     class="Note"
     d="m 1784.35,152.50884 c 0,4.601 3.8073,7.3789 8.5695,7.3789 7.8626,0 17.5483,-7.3045 17.5483,-14.8447 0,-4.4398 -3.5717,-7.3789 -8.6564,-7.3789 -9.6856,0 -17.4614,7.2177 -17.4614,14.8447"
     id="path862"
     inkscape:connector-curvature="0"
     style="stroke-width:0.79370099" />
  <path
     class="Note"
     d="m 1952.05,102.89884 c 0,4.601 3.8073,7.3789 8.5695,7.3789 7.8626,0 17.5483,-7.3045 17.5483,-14.844702 0,-4.4398 -3.5717,-7.3789 -8.6564,-7.3789 -9.6856,0 -17.4614,7.2177 -17.4614,14.844702"
     id="path864"
     inkscape:connector-curvature="0"
     style="stroke-width:0.79370099" />
  <path
     class="Note"
     d="m 2164.32,142.58884 c 0,4.601 3.8073,7.3789 8.5695,7.3789 7.8626,0 17.5483,-7.3045 17.5483,-14.8447 0,-4.4398 -3.5717,-7.3789 -8.6564,-7.3789 -9.6856,0 -17.4614,7.2177 -17.4614,14.8447"
     id="path866"
     inkscape:connector-curvature="0"
     style="stroke-width:0.79370099" />
  <path
     class="Note"
     d="m 2495.57,162.42884 c 0,4.601 3.8073,7.3789 8.5695,7.3789 7.8626,0 17.5483,-7.3045 17.5483,-14.8447 0,-4.4398 -3.5717,-7.3789 -8.6564,-7.3789 -9.6856,0 -17.4614,7.2177 -17.4614,14.8447"
     id="path868"
     inkscape:connector-curvature="0"
     style="stroke-width:0.79370099" />
  <path
     class="Note"
     d="m 143.57351,717.36774 c 14.60902,0 17.54825,-11.9055 17.54825,-14.7579 0,-4.5266 -3.57165,-7.4657 -8.73071,-7.4657 -13.25732,0 -17.38705,10.2437 -17.38705,14.8447 0,4.6754 3.73288,7.3789 8.56951,7.3789 m -5.95277,-7.2177 c 0,-4.291 12.78606,-11.3599 16.99014,-11.3599 1.66185,0 2.61675,0.7938 3.24925,1.9099 0.24803,0.4713 0.48368,1.0293 0.48368,1.6618 0,1.7486 -1.82305,3.8941 -8.02384,7.937 -3.96851,2.7036 -6.74646,3.6585 -8.64392,3.6585 -1.83543,0 -2.93917,-0.9549 -3.49725,-2.0711 -0.32244,-0.4712 -0.55806,-1.1037 -0.55806,-1.7362"
     id="path870"
     inkscape:connector-curvature="0"
     style="stroke-width:0.79370099" />
  <path
     class="Note"
     d="m 1335.73,696.17474 c 0,5.7915 4.9234,10.9506 17.7839,10.9506 14.1253,0 18.652,-4.9111 18.652,-10.9506 0,-6.114 -9.7601,-10.715 -17.7839,-10.715 -11.5087,0 -18.652,4.849 -18.652,10.715 m 9.2888,-3.1748 c 0,-4.4398 3.088,-5.5559 7.1433,-5.5559 5.8784,0 10.6406,6.3496 10.6406,11.5954 0,4.3654 -2.7036,6.1017 -6.5977,6.1017 -5.7171,0 -11.1862,-6.5853 -11.1862,-12.1412"
     id="path872"
     inkscape:connector-curvature="0"
     style="stroke-width:0.79370099" />
  <path
     class="Note"
     d="m 130.242,112.81884 c 0,4.601 3.80729,7.3789 8.56951,7.3789 7.86256,0 17.54825,-7.3045 17.54825,-14.8447 0,-4.4398 -3.57165,-7.378902 -8.65634,-7.378902 -9.68563,0 -17.46142,7.217702 -17.46142,14.844702"
     id="path874"
     inkscape:connector-curvature="0"
     style="stroke-width:0.79370099" />
  <path
     class="Note"
     d="m 2495.57,112.81884 c 0,4.601 3.8073,7.3789 8.5695,7.3789 7.8626,0 17.5483,-7.3045 17.5483,-14.8447 0,-4.4398 -3.5717,-7.378902 -8.6564,-7.378902 -9.6856,0 -17.4614,7.217702 -17.4614,14.844702"
     id="path876"
     inkscape:connector-curvature="0"
     style="stroke-width:0.79370099" />
  <path
     class="Note"
     d="m 135.004,660.37884 c 0,4.601 3.80729,7.3789 8.56951,7.3789 7.86256,0 17.54825,-7.3045 17.54825,-14.8447 0,-4.4398 -3.57165,-7.3789 -8.65634,-7.3789 -9.68563,0 -17.46142,7.2177 -17.46142,14.8447"
     id="path878"
     inkscape:connector-curvature="0"
     style="stroke-width:0.79370099" />
  <path
     class="Note"
     d="m 657.439,590.92884 c 0,4.601 3.80729,7.3789 8.56951,7.3789 7.86256,0 17.54825,-7.3045 17.54825,-14.8447 0,-4.4398 -3.57165,-7.3789 -8.65634,-7.3789 -9.68563,0 -17.46142,7.2177 -17.46142,14.8447"
     id="path880"
     inkscape:connector-curvature="0"
     style="stroke-width:0.79370099" />
  <path
     class="Note"
     d="m 1345.65,599.73894 c 0,3.2207 2.6651,5.1653 5.9987,5.1653 5.5038,0 12.2837,-5.1132 12.2837,-10.3913 0,-3.1079 -2.5001,-5.1653 -6.0594,-5.1653 -6.7799,0 -12.223,5.0524 -12.223,10.3913"
     id="path882"
     inkscape:connector-curvature="0"
     style="stroke-width:0.55559099" />
  <path
     class="Note"
     d="m 2136.15,609.65894 c 0,3.2207 2.6651,5.1653 5.9987,5.1653 5.5038,0 12.2837,-5.1132 12.2837,-10.3913 0,-3.1079 -2.5001,-5.1653 -6.0594,-5.1653 -6.7799,0 -12.223,5.0524 -12.223,10.3913"
     id="path884"
     inkscape:connector-curvature="0"
     style="stroke-width:0.55559099" />
  <path
     class="Note"
     d="m 138.81151,80.517738 c 14.60902,0 17.54825,-11.9055 17.54825,-14.7579 0,-4.5266 -3.57165,-7.4657 -8.73071,-7.4657 -13.25732,0 -17.38705,10.2437 -17.38705,14.8447 0,4.6754 3.73288,7.3789 8.56951,7.3789 m -5.95277,-7.2177 c 0,-4.291 12.78606,-11.3599 16.99014,-11.3599 1.66185,0 2.61675,0.7938 3.24925,1.9099 0.24803,0.4713 0.48368,1.0293 0.48368,1.6618 0,1.7486 -1.82305,3.8941 -8.02384,7.937 -3.96851,2.7036 -6.74646,3.6585 -8.64392,3.6585 -1.83543,0 -2.93917,-0.9549 -3.49725,-2.0711 -0.32244,-0.4712 -0.55806,-1.1037 -0.55806,-1.7362"
     id="path886"
     inkscape:connector-curvature="0"
     style="stroke-width:0.79370099" />
  <path
     class="Note"
     d="m 578.544,83.058838 c 0,4.601 3.80729,7.3789 8.56951,7.3789 7.86256,0 17.54825,-7.3045 17.54825,-14.8447 0,-4.4398 -3.57165,-7.3789 -8.65634,-7.3789 -9.68563,0 -17.46142,7.2177 -17.46142,14.8447"
     id="path888"
     inkscape:connector-curvature="0"
     style="stroke-width:0.79370099" />
  <path
     class="Note"
     d="m 1055.4595,578.46774 c 14.609,0 17.5483,-11.9055 17.5483,-14.7579 0,-4.5266 -3.5717,-7.4657 -8.7307,-7.4657 -13.2574,0 -17.3871,10.2437 -17.3871,14.8447 0,4.6754 3.7329,7.3789 8.5695,7.3789 m -5.9528,-7.2177 c 0,-4.291 12.7861,-11.3599 16.9902,-11.3599 1.6618,0 2.6167,0.7938 3.2492,1.9099 0.2481,0.4713 0.4837,1.0293 0.4837,1.6618 0,1.7486 -1.823,3.8941 -8.0238,7.937 -3.9685,2.7036 -6.7465,3.6585 -8.644,3.6585 -1.8354,0 -2.9391,-0.9549 -3.4972,-2.0711 -0.3224,-0.4712 -0.5581,-1.1037 -0.5581,-1.7362"
     id="path890"
     inkscape:connector-curvature="0"
     style="stroke-width:0.79370099" />
  <path
     class="Note"
     d="m 1349.4595,588.38774 c 14.609,0 17.5483,-11.9055 17.5483,-14.7579 0,-4.5266 -3.5717,-7.4657 -8.7307,-7.4657 -13.2574,0 -17.3871,10.2437 -17.3871,14.8447 0,4.6754 3.7329,7.3789 8.5695,7.3789 m -5.9528,-7.2177 c 0,-4.291 12.7861,-11.3599 16.9902,-11.3599 1.6618,0 2.6167,0.7938 3.2492,1.9099 0.2481,0.4713 0.4837,1.0293 0.4837,1.6618 0,1.7486 -1.823,3.8941 -8.0238,7.937 -3.9685,2.7036 -6.7465,3.6585 -8.644,3.6585 -1.8354,0 -2.9391,-0.9549 -3.4972,-2.0711 -0.3224,-0.4712 -0.5581,-1.1037 -0.5581,-1.7362"
     id="path892"
     inkscape:connector-curvature="0"
     style="stroke-width:0.79370099" />
  <path
     class="Note"
     d="m 2140.8095,598.30774 c 14.609,0 17.5483,-11.9055 17.5483,-14.7579 0,-4.5266 -3.5717,-7.4657 -8.7307,-7.4657 -13.2574,0 -17.3871,10.2437 -17.3871,14.8447 0,4.6754 3.7329,7.3789 8.5695,7.3789 m -5.9528,-7.2177 c 0,-4.291 12.7861,-11.3599 16.9902,-11.3599 1.6618,0 2.6167,0.7938 3.2492,1.9099 0.2481,0.4713 0.4837,1.0293 0.4837,1.6618 0,1.7486 -1.823,3.8941 -8.0238,7.937 -3.9685,2.7036 -6.7465,3.6585 -8.644,3.6585 -1.8354,0 -2.9391,-0.9549 -3.4972,-2.0711 -0.3224,-0.4712 -0.5581,-1.1037 -0.5581,-1.7362"
     id="path894"
     inkscape:connector-curvature="0"
     style="stroke-width:0.79370099" />
  <path
     class="Clef"
     d="m 48.34172,198.53964 c 1.82297,0 3.88167,-0.1612 5.46907,-0.4836 0.88053,-0.1488 1.04174,-0.2356 1.19055,0.7193 0.95491,5.3202 2.14546,12.228 2.14546,15.9608 0,11.7443 -7.93701,13.1705 -12.61239,13.1705 -4.29098,0 -6.36199,-1.265 -6.36199,-2.3067 0,-0.5457 0.71925,-0.7937 2.54231,-1.3394 2.46793,-0.7193 5.32025,-2.8647 5.32025,-7.4658 0,-4.3653 -2.77795,-8.0982 -7.61453,-8.0982 -5.32033,0 -8.49514,4.2042 -8.49514,9.1276 0,5.1591 3.08806,12.9349 15.08032,12.9349 5.32034,0 15.63845,-2.3811 15.63845,-15.8741 0,-4.5141 -1.4262,-12.0543 -2.30673,-16.9777 -0.1612,-0.955 -0.0744,-0.8805 1.02935,-1.3518 8.02384,-3.1748 13.3441,-9.9213 13.3441,-18.8876 0,-10.1693 -7.46579,-19.1356 -19.13566,-19.1356 -2.05862,0 -2.05862,0 -2.29427,-1.4262 l -1.98425,-11.5087 c -0.1612,-0.9549 0,-1.0293 0.47122,-1.513 8.56951,-8.0114 15.08032,-18.0939 15.08032,-30.235 0,-6.9077 -1.90981,-13.741 -5.15906,-18.503602 -1.19055,-1.7358 -3.24917,-3.9685 -4.1297,-3.9685 -1.10373,0 -3.57166,2.0716 -5.15906,3.8201 -5.86593,6.498402 -7.77581,16.419702 -7.77581,24.679102 0,4.601 0.55813,9.7601 1.11618,13.0217 0.14882,0.9549 0.23565,1.1037 -0.71933,1.8974 -11.43422,9.4501 -23.57538,20.7974 -23.57538,36.8327 0,13.8154 9.45004,26.9114 28.89572,26.9114 m -22.54611,-21.5911 c 0,-4.6878 0.7937,-10.9506 7.37896,-18.4163 4.7622,-5.3204 8.42069,-8.2595 12.15354,-11.2731 0.7937,-0.6324 0.94252,-0.5581 1.10372,0.3225 l 1.67424,10.1569 c 0.23565,1.5129 0.23565,1.4261 -1.19055,1.9098 -6.99449,2.3811 -11.52105,8.6439 -11.52105,15.3904 0,7.1433 3.73285,12.2279 9.13994,14.051 0.6325,0.2356 1.5874,0.4836 2.13307,0.4836 0.64489,0 0.95491,-0.3968 0.95491,-0.8805 0,-0.558 -0.6325,-0.7937 -1.19056,-1.0293 -3.336,-1.4262 -5.7171,-4.8367 -5.7171,-8.4951 0,-4.5266 3.10035,-7.937 7.93701,-9.2888 1.27738,-0.3101 1.43858,-0.2356 1.5874,0.6448 l 3.9685,23.6499 c 0.1612,0.8681 0.0868,0.8681 -1.10372,1.1038 -1.27738,0.248 -2.86478,0.3968 -4.45218,0.3968 -13.88977,0 -22.85613,-7.689 -22.85613,-18.7264 m 30.95434,-73.2685 c 2.61675,0 4.7622,2.1454 4.7622,6.5108 0,8.8175 -7.54016,15.9608 -13.80293,21.4299 -0.55805,0.4837 -0.88054,0.3969 -1.04174,-0.6325 -0.31002,-2.0586 -0.4713,-4.7622 -0.4713,-7.3045 0,-12.3767 5.71719,-20.0037 10.55377,-20.0037 m -2.29428,65.5671 c 6.42398,0.5581 11.74432,5.9528 11.74432,12.9349 0,5.0102 -3.0136,9.0531 -7.46579,11.273 -0.9549,0.4837 -1.10372,0.4837 -1.26492,-0.4713 l -3.89414,-22.6205 c -0.1612,-0.9549 -0.0744,-1.1905 0.88053,-1.1161"
     id="path1280"
     inkscape:connector-curvature="0"
     style="stroke-width:0.79370099" />
  <path
     class="Clef"
     d="m 47.94472,686.56964 c 1.82297,0 3.88167,-0.1612 5.46907,-0.4836 0.88053,-0.1488 1.04174,-0.2356 1.19055,0.7193 0.95491,5.3202 2.14546,12.228 2.14546,15.9608 0,11.7443 -7.93701,13.1705 -12.61239,13.1705 -4.29098,0 -6.36199,-1.265 -6.36199,-2.3067 0,-0.5457 0.71925,-0.7937 2.54231,-1.3394 2.46793,-0.7193 5.32025,-2.8647 5.32025,-7.4658 0,-4.3653 -2.77795,-8.0982 -7.61453,-8.0982 -5.32033,0 -8.49514,4.2042 -8.49514,9.1276 0,5.1591 3.08806,12.9349 15.08032,12.9349 5.32034,0 15.63845,-2.3811 15.63845,-15.8741 0,-4.5141 -1.4262,-12.0543 -2.30673,-16.9777 -0.1612,-0.955 -0.0744,-0.8805 1.02935,-1.3518 8.02384,-3.1748 13.3441,-9.9213 13.3441,-18.8876 0,-10.1693 -7.46579,-19.1356 -19.13566,-19.1356 -2.05862,0 -2.05862,0 -2.29427,-1.4262 l -1.98425,-11.5087 c -0.1612,-0.9549 0,-1.0293 0.47122,-1.513 8.56951,-8.0114 15.08032,-18.0939 15.08032,-30.235 0,-6.9077 -1.90981,-13.741 -5.15906,-18.5036 -1.19055,-1.7358 -3.24917,-3.9685 -4.1297,-3.9685 -1.10373,0 -3.57166,2.0716 -5.15906,3.8201 -5.86593,6.4984 -7.77581,16.4197 -7.77581,24.6791 0,4.601 0.55813,9.7601 1.11618,13.0217 0.14882,0.9549 0.23565,1.1037 -0.71933,1.8974 -11.43422,9.4501 -23.57538,20.7974 -23.57538,36.8327 0,13.8154 9.45004,26.9114 28.89572,26.9114 m -22.54611,-21.5911 c 0,-4.6878 0.7937,-10.9506 7.37896,-18.4163 4.7622,-5.3204 8.42069,-8.2595 12.15354,-11.2731 0.7937,-0.6324 0.94252,-0.5581 1.10372,0.3225 l 1.67424,10.1569 c 0.23565,1.5129 0.23565,1.4261 -1.19055,1.9098 -6.99449,2.3811 -11.52105,8.6439 -11.52105,15.3904 0,7.1433 3.73285,12.2279 9.13994,14.051 0.6325,0.2356 1.5874,0.4836 2.13307,0.4836 0.64489,0 0.95491,-0.3968 0.95491,-0.8805 0,-0.558 -0.6325,-0.7937 -1.19056,-1.0293 -3.336,-1.4262 -5.7171,-4.8367 -5.7171,-8.4951 0,-4.5266 3.10035,-7.937 7.93701,-9.2888 1.27738,-0.3101 1.43858,-0.2356 1.5874,0.6448 l 3.9685,23.6499 c 0.1612,0.8681 0.0868,0.8681 -1.10372,1.1038 -1.27738,0.248 -2.86478,0.3968 -4.45218,0.3968 -13.88977,0 -22.85613,-7.689 -22.85613,-18.7264 m 30.95434,-73.2685 c 2.61675,0 4.7622,2.1454 4.7622,6.5108 0,8.8175 -7.54016,15.9608 -13.80293,21.4299 -0.55805,0.4837 -0.88054,0.3969 -1.04174,-0.6325 -0.31002,-2.0586 -0.4713,-4.7622 -0.4713,-7.3045 0,-12.3767 5.71719,-20.0037 10.55377,-20.0037 m -2.29428,65.5671 c 6.42398,0.5581 11.74432,5.9528 11.74432,12.9349 0,5.0102 -3.0136,9.0531 -7.46579,11.273 -0.9549,0.4837 -1.10372,0.4837 -1.26492,-0.4713 l -3.89414,-22.6205 c -0.1612,-0.9549 -0.0744,-1.1905 0.88053,-1.1161"
     id="path1282"
     inkscape:connector-curvature="0"
     style="stroke-width:0.79370099" />
  <polyline
     class="TextLineSegment"
     points="193.075,1385.86 352.208,1389.5"
     id="polyline1438"
     transform="translate(-102.85,-1381.2941)"
     style="stroke:#000000;stroke-width:8.93000031;stroke-linecap:square;stroke-linejoin:bevel" />
  <polyline
     class="TextLineSegment"
     points="1113.07,2883.07 2415.6,2905.99"
     id="polyline1440"
     transform="matrix(1.2862438,0,0,1.1922375,-420.96852,-2955.0374)"
     style="stroke:#000000;stroke-width:8.93000031;stroke-linecap:square;stroke-linejoin:bevel" />
  <polyline
     transform="translate(2428.4661,-888.06706)"
     style="fill:none;stroke:#000000;stroke-width:3.17000008;stroke-linejoin:bevel"
     class="LedgerLine"
     points="224.758,1612.91 266.743,1612.91"
     id="polyline232-0" />
  <polyline
     transform="translate(2428.4661,-888.06706)"
     style="fill:none;stroke:#000000;stroke-width:3.17000008;stroke-linejoin:bevel"
     class="LedgerLine"
     points="224.758,1593.07 266.743,1593.07"
     id="polyline234" />
  <polyline
     transform="translate(2428.4661,-888.06706)"
     style="fill:none;stroke:#000000;stroke-width:2.38000011;stroke-linejoin:bevel"
     class="Stem"
     points="233.885,1625.5 233.885,1667.48"
     id="polyline258" />
  <polyline
     transform="translate(2428.4661,-888.06706)"
     style="fill:none;stroke:#000000;stroke-width:2.38000011;stroke-linejoin:bevel"
     class="Stem"
     points="257.616,1481.27 257.616,1397.66"
     id="polyline260-6" />
  <path
     style="stroke-width:0.79370099"
     inkscape:connector-curvature="0"
     class="Note"
     d="m 2669.7306,745.87474 c 14.609,0 17.5483,-11.9055 17.5483,-14.7579 0,-4.5266 -3.5717,-7.4657 -8.7307,-7.4657 -13.2574,0 -17.3871,10.2437 -17.3871,14.8447 0,4.6754 3.7329,7.3789 8.5695,7.3789 m -5.9527,-7.2177 c 0,-4.291 12.786,-11.3599 16.9901,-11.3599 1.6618,0 2.6167,0.7938 3.2492,1.9099 0.2481,0.4713 0.4837,1.0293 0.4837,1.6618 0,1.7486 -1.823,3.8941 -8.0238,7.937 -3.9685,2.7036 -6.7465,3.6585 -8.6439,3.6585 -1.8355,0 -2.9392,-0.9549 -3.4973,-2.0711 -0.3224,-0.4712 -0.558,-1.1037 -0.558,-1.7362"
     id="path334" />
  <path
     style="stroke-width:0.79370099"
     inkscape:connector-curvature="0"
     class="Note"
     d="m 2669.7306,606.98474 c 14.609,0 17.5483,-11.9055 17.5483,-14.7579 0,-4.5266 -3.5717,-7.4657 -8.7307,-7.4657 -13.2574,0 -17.3871,10.2437 -17.3871,14.8447 0,4.6754 3.7329,7.3789 8.5695,7.3789 m -5.9527,-7.2177 c 0,-4.291 12.786,-11.3599 16.9901,-11.3599 1.6618,0 2.6167,0.7938 3.2492,1.9099 0.2481,0.4713 0.4837,1.0293 0.4837,1.6618 0,1.7486 -1.823,3.8941 -8.0238,7.937 -3.9685,2.7036 -6.7465,3.6585 -8.6439,3.6585 -1.8355,0 -2.9392,-0.9549 -3.4973,-2.0711 -0.3224,-0.4712 -0.558,-1.1037 -0.558,-1.7362"
     id="path336" />
  <path
     style="fill:none;fill-rule:evenodd;stroke:#000000;stroke-width:3.50500011;stroke-linecap:butt;stroke-linejoin:miter;stroke-miterlimit:4;stroke-dasharray:none;stroke-opacity:1"
     d="m 177.57052,713.41424 c 0,0 102.85285,68.0709 512.6893,3.2945 279.75534,-50.1436 627.35388,-22.0548 626.74778,-19.9509"
     id="path1796"
     inkscape:connector-curvature="0"
     sodipodi:nodetypes="ccc" />
</svg>
