<?xml version="1.0" encoding="UTF-8" standalone="no"?>
<svg
   xmlns:dc="http://purl.org/dc/elements/1.1/"
   xmlns:cc="http://creativecommons.org/ns#"
   xmlns:rdf="http://www.w3.org/1999/02/22-rdf-syntax-ns#"
   xmlns:svg="http://www.w3.org/2000/svg"
   xmlns="http://www.w3.org/2000/svg"
   xmlns:sodipodi="http://sodipodi.sourceforge.net/DTD/sodipodi-0.dtd"
   xmlns:inkscape="http://www.inkscape.org/namespaces/inkscape"
   width="2831.3296"
   height="915.13666"
   viewBox="0 0 2831.3297 915.13667"
   version="1.2"
   id="svg584"
   sodipodi:docname="KV 545-Exposition-1b.svg"
   inkscape:version="0.92.3 (2405546, 2018-03-11)">
  <metadata
     id="metadata590">
    <rdf:RDF>
      <cc:Work
         rdf:about="">
        <dc:format>image/svg+xml</dc:format>
        <dc:type
           rdf:resource="http://purl.org/dc/dcmitype/StillImage" />
      </cc:Work>
    </rdf:RDF>
  </metadata>
  <defs
     id="defs588" />
  <sodipodi:namedview
     pagecolor="#ffffff"
     bordercolor="#666666"
     borderopacity="1"
     objecttolerance="10"
     gridtolerance="10"
     guidetolerance="10"
     inkscape:pageopacity="0"
     inkscape:pageshadow="2"
     inkscape:window-width="3840"
     inkscape:window-height="2066"
     id="namedview586"
     showgrid="false"
     inkscape:zoom="0.44851572"
     inkscape:cx="1019.8044"
     inkscape:cy="-811.71494"
     inkscape:window-x="-11"
     inkscape:window-y="-11"
     inkscape:window-maximized="1"
     inkscape:current-layer="svg584" />
  <title
     id="title2">KV 545-Exposition (1)</title>
  <desc
     id="desc4">Generated by MuseScore 3.6.2</desc>
  <polyline
     class="StaffLines"
     points="102.85,422.362 2903.81,422.362"
     id="polyline6"
     style="fill:none;stroke:#000000;stroke-width:2.57999992;stroke-linejoin:bevel"
     transform="translate(-72.480325,-371.56519)" />
  <polyline
     class="StaffLines"
     points="102.85,442.205 2903.81,442.205"
     id="polyline8"
     style="fill:none;stroke:#000000;stroke-width:2.57999992;stroke-linejoin:bevel"
     transform="translate(-72.480325,-371.56519)" />
  <polyline
     class="StaffLines"
     points="102.85,462.047 2903.81,462.047"
     id="polyline10"
     style="fill:none;stroke:#000000;stroke-width:2.57999992;stroke-linejoin:bevel"
     transform="translate(-72.480325,-371.56519)" />
  <polyline
     class="StaffLines"
     points="102.85,481.89 2903.81,481.89"
     id="polyline12"
     style="fill:none;stroke:#000000;stroke-width:2.57999992;stroke-linejoin:bevel"
     transform="translate(-72.480325,-371.56519)" />
  <polyline
     class="StaffLines"
     points="102.85,501.732 2903.81,501.732"
     id="polyline14"
     style="fill:none;stroke:#000000;stroke-width:2.57999992;stroke-linejoin:bevel"
     transform="translate(-72.480325,-371.56519)" />
  <polyline
     class="StaffLines"
     points="102.85,630.709 2903.81,630.709"
     id="polyline16"
     style="fill:none;stroke:#000000;stroke-width:2.57999992;stroke-linejoin:bevel"
     transform="translate(-72.480325,-371.56519)" />
  <polyline
     class="StaffLines"
     points="102.85,650.551 2903.81,650.551"
     id="polyline18"
     style="fill:none;stroke:#000000;stroke-width:2.57999992;stroke-linejoin:bevel"
     transform="translate(-72.480325,-371.56519)" />
  <polyline
     class="StaffLines"
     points="102.85,670.394 2903.81,670.394"
     id="polyline20"
     style="fill:none;stroke:#000000;stroke-width:2.57999992;stroke-linejoin:bevel"
     transform="translate(-72.480325,-371.56519)" />
  <polyline
     class="StaffLines"
     points="102.85,690.236 2903.81,690.236"
     id="polyline22"
     style="fill:none;stroke:#000000;stroke-width:2.57999992;stroke-linejoin:bevel"
     transform="translate(-72.480325,-371.56519)" />
  <polyline
     class="StaffLines"
     points="102.85,710.079 2903.81,710.079"
     id="polyline24"
     style="fill:none;stroke:#000000;stroke-width:2.57999992;stroke-linejoin:bevel"
     transform="translate(-72.480325,-371.56519)" />
  <polyline
     class="StaffLines"
     points="102.85,958.11 2903.81,958.11"
     id="polyline26"
     style="fill:none;stroke:#000000;stroke-width:2.57999992;stroke-linejoin:bevel"
     transform="translate(-72.480325,-371.56519)" />
  <polyline
     class="StaffLines"
     points="102.85,977.953 2903.81,977.953"
     id="polyline28"
     style="fill:none;stroke:#000000;stroke-width:2.57999992;stroke-linejoin:bevel"
     transform="translate(-72.480325,-371.56519)" />
  <polyline
     class="StaffLines"
     points="102.85,997.795 2903.81,997.795"
     id="polyline30"
     style="fill:none;stroke:#000000;stroke-width:2.57999992;stroke-linejoin:bevel"
     transform="translate(-72.480325,-371.56519)" />
  <polyline
     class="StaffLines"
     points="102.85,1017.64 2903.81,1017.64"
     id="polyline32"
     style="fill:none;stroke:#000000;stroke-width:2.57999992;stroke-linejoin:bevel"
     transform="translate(-72.480325,-371.56519)" />
  <polyline
     class="StaffLines"
     points="102.85,1037.48 2903.81,1037.48"
     id="polyline34"
     style="fill:none;stroke:#000000;stroke-width:2.57999992;stroke-linejoin:bevel"
     transform="translate(-72.480325,-371.56519)" />
  <polyline
     class="StaffLines"
     points="102.85,1166.46 2903.81,1166.46"
     id="polyline36"
     style="fill:none;stroke:#000000;stroke-width:2.57999992;stroke-linejoin:bevel"
     transform="translate(-72.480325,-371.56519)" />
  <polyline
     class="StaffLines"
     points="102.85,1186.3 2903.81,1186.3"
     id="polyline38"
     style="fill:none;stroke:#000000;stroke-width:2.57999992;stroke-linejoin:bevel"
     transform="translate(-72.480325,-371.56519)" />
  <polyline
     class="StaffLines"
     points="102.85,1206.14 2903.81,1206.14"
     id="polyline40"
     style="fill:none;stroke:#000000;stroke-width:2.57999992;stroke-linejoin:bevel"
     transform="translate(-72.480325,-371.56519)" />
  <polyline
     class="StaffLines"
     points="102.85,1225.98 2903.81,1225.98"
     id="polyline42"
     style="fill:none;stroke:#000000;stroke-width:2.57999992;stroke-linejoin:bevel"
     transform="translate(-72.480325,-371.56519)" />
  <polyline
     class="StaffLines"
     points="102.85,1245.83 2903.81,1245.83"
     id="polyline44"
     style="fill:none;stroke:#000000;stroke-width:2.57999992;stroke-linejoin:bevel"
     transform="translate(-72.480325,-371.56519)" />
  <path
     class="SlurSegment"
     d="m 2349.8897,32.938814 c 31.94,-32.451 95.81,-32.451 127.75,0 -31.94,-27.689 -95.81,-27.689 -127.75,0"
     id="path72"
     inkscape:connector-curvature="0"
     style="fill-rule:evenodd;stroke:#000000;stroke-width:1.98000002;stroke-linecap:round;stroke-linejoin:round" />
  <polyline
     class="BarLine"
     points="104.438,1165.17 104.438,1493.86"
     id="polyline84"
     transform="matrix(1,0,0,0.24875443,-72.480325,503.76361)"
     style="stroke:#000000;stroke-width:3.17000008;stroke-linejoin:bevel" />
  <polyline
     class="BarLine"
     points="893.878,1165.17 893.878,1247.12"
     id="polyline86"
     style="stroke:#000000;stroke-width:3.17000008;stroke-linejoin:bevel"
     transform="translate(-72.480325,-371.56519)" />
  <polyline
     class="BarLine"
     points="1575.36,1165.17 1575.36,1247.12"
     id="polyline88"
     style="stroke:#000000;stroke-width:3.17000008;stroke-linejoin:bevel"
     transform="translate(-72.480325,-371.56519)" />
  <polyline
     class="BarLine"
     points="2222.73,1165.17 2222.73,1247.12"
     id="polyline90"
     style="stroke:#000000;stroke-width:3.17000008;stroke-linejoin:bevel"
     transform="translate(-72.480325,-371.56519)" />
  <polyline
     class="BarLine"
     points="2902.22,1165.17 2902.22,1247.12"
     id="polyline92"
     style="stroke:#000000;stroke-width:3.17000008;stroke-linejoin:bevel"
     transform="translate(-72.480325,-371.56519)" />
  <polyline
     class="BarLine"
     points="104.438,956.821 104.438,1166.46"
     id="polyline94"
     style="stroke:#000000;stroke-width:3.17000008;stroke-linejoin:bevel"
     transform="translate(-72.480325,-371.56519)" />
  <polyline
     class="BarLine"
     points="893.878,956.821 893.878,1038.77"
     id="polyline96"
     style="stroke:#000000;stroke-width:3.17000008;stroke-linejoin:bevel"
     transform="translate(-72.480325,-371.56519)" />
  <polyline
     class="BarLine"
     points="1575.36,956.821 1575.36,1038.77"
     id="polyline98"
     style="stroke:#000000;stroke-width:3.17000008;stroke-linejoin:bevel"
     transform="translate(-72.480325,-371.56519)" />
  <polyline
     class="BarLine"
     points="2222.73,956.821 2222.73,1038.77"
     id="polyline100"
     style="stroke:#000000;stroke-width:3.17000008;stroke-linejoin:bevel"
     transform="translate(-72.480325,-371.56519)" />
  <polyline
     class="BarLine"
     points="2902.22,956.821 2902.22,1038.77"
     id="polyline102"
     style="stroke:#000000;stroke-width:3.17000008;stroke-linejoin:bevel"
     transform="translate(-72.480325,-371.56519)" />
  <polyline
     class="BarLine"
     points="104.438,629.419 104.438,958.11"
     id="polyline104"
     style="stroke:#000000;stroke-width:3.17000008;stroke-linejoin:bevel"
     transform="translate(-72.480325,-371.56519)" />
  <polyline
     class="BarLine"
     points="893.878,629.419 893.878,711.369"
     id="polyline106"
     style="stroke:#000000;stroke-width:3.17000008;stroke-linejoin:bevel"
     transform="translate(-72.480325,-371.56519)" />
  <polyline
     class="BarLine"
     points="1575.36,629.419 1575.36,711.369"
     id="polyline108"
     style="stroke:#000000;stroke-width:3.17000008;stroke-linejoin:bevel"
     transform="translate(-72.480325,-371.56519)" />
  <polyline
     class="BarLine"
     points="2222.73,629.419 2222.73,711.369"
     id="polyline110"
     style="stroke:#000000;stroke-width:3.17000008;stroke-linejoin:bevel"
     transform="translate(-72.480325,-371.56519)" />
  <polyline
     class="BarLine"
     points="2902.22,629.419 2902.22,711.369"
     id="polyline112"
     style="stroke:#000000;stroke-width:3.17000008;stroke-linejoin:bevel"
     transform="translate(-72.480325,-371.56519)" />
  <polyline
     class="BarLine"
     points="104.438,421.073 104.438,630.709"
     id="polyline114"
     style="stroke:#000000;stroke-width:3.17000008;stroke-linejoin:bevel"
     transform="translate(-72.480325,-371.56519)" />
  <polyline
     class="BarLine"
     points="893.878,421.073 893.878,503.022"
     id="polyline116"
     style="stroke:#000000;stroke-width:3.17000008;stroke-linejoin:bevel"
     transform="translate(-72.480325,-371.56519)" />
  <polyline
     class="BarLine"
     points="1575.36,421.073 1575.36,503.022"
     id="polyline118"
     style="stroke:#000000;stroke-width:3.17000008;stroke-linejoin:bevel"
     transform="translate(-72.480325,-371.56519)" />
  <polyline
     class="BarLine"
     points="2222.73,421.073 2222.73,503.022"
     id="polyline120"
     style="stroke:#000000;stroke-width:3.17000008;stroke-linejoin:bevel"
     transform="translate(-72.480325,-371.56519)" />
  <polyline
     class="BarLine"
     points="2902.22,421.073 2902.22,503.022"
     id="polyline122"
     style="stroke:#000000;stroke-width:3.17000008;stroke-linejoin:bevel"
     transform="translate(-72.480325,-371.56519)" />
  <polyline
     class="LedgerLine"
     points="267.94,1265.67 320.244,1265.67"
     id="polyline136"
     style="stroke:#000000;stroke-width:3.17000008;stroke-linejoin:bevel"
     transform="translate(-72.480325,-371.56519)" />
  <polyline
     class="LedgerLine"
     points="1251.39,1265.67 1293.38,1265.67"
     id="polyline138"
     style="stroke:#000000;stroke-width:3.17000008;stroke-linejoin:bevel"
     transform="translate(-72.480325,-371.56519)" />
  <polyline
     class="LedgerLine"
     points="1601.95,1265.67 1643.93,1265.67"
     id="polyline140"
     style="stroke:#000000;stroke-width:3.17000008;stroke-linejoin:bevel"
     transform="translate(-72.480325,-371.56519)" />
  <polyline
     class="LedgerLine"
     points="1907.58,1265.67 1949.56,1265.67"
     id="polyline142"
     style="stroke:#000000;stroke-width:3.17000008;stroke-linejoin:bevel"
     transform="translate(-72.480325,-371.56519)" />
  <polyline
     class="LedgerLine"
     points="2244.16,1265.67 2286.14,1265.67"
     id="polyline144"
     style="stroke:#000000;stroke-width:3.17000008;stroke-linejoin:bevel"
     transform="translate(-72.480325,-371.56519)" />
  <polyline
     class="LedgerLine"
     points="2578.25,1265.67 2620.24,1265.67"
     id="polyline146"
     style="stroke:#000000;stroke-width:3.17000008;stroke-linejoin:bevel"
     transform="translate(-72.480325,-371.56519)" />
  <polyline
     class="LedgerLine"
     points="1601.95,938.268 1643.93,938.268"
     id="polyline148"
     style="stroke:#000000;stroke-width:3.17000008;stroke-linejoin:bevel"
     transform="translate(-72.480325,-371.56519)" />
  <polyline
     class="LedgerLine"
     points="273.099,729.921 315.085,729.921"
     id="polyline150"
     style="stroke:#000000;stroke-width:3.17000008;stroke-linejoin:bevel"
     transform="translate(-72.480325,-371.56519)" />
  <polyline
     class="LedgerLine"
     points="578.727,729.921 620.712,729.921"
     id="polyline152"
     style="stroke:#000000;stroke-width:3.17000008;stroke-linejoin:bevel"
     transform="translate(-72.480325,-371.56519)" />
  <polyline
     class="LedgerLine"
     points="1251.39,729.921 1293.38,729.921"
     id="polyline154"
     style="stroke:#000000;stroke-width:3.17000008;stroke-linejoin:bevel"
     transform="translate(-72.480325,-371.56519)" />
  <polyline
     class="LedgerLine"
     points="1601.95,729.921 1643.93,729.921"
     id="polyline156"
     style="stroke:#000000;stroke-width:3.17000008;stroke-linejoin:bevel"
     transform="translate(-72.480325,-371.56519)" />
  <polyline
     class="LedgerLine"
     points="1907.58,729.921 1949.56,729.921"
     id="polyline158"
     style="stroke:#000000;stroke-width:3.17000008;stroke-linejoin:bevel"
     transform="translate(-72.480325,-371.56519)" />
  <polyline
     class="LedgerLine"
     points="2244.16,729.921 2286.14,729.921"
     id="polyline160"
     style="stroke:#000000;stroke-width:3.17000008;stroke-linejoin:bevel"
     transform="translate(-72.480325,-371.56519)" />
  <polyline
     class="LedgerLine"
     points="2578.25,729.921 2620.24,729.921"
     id="polyline162"
     style="stroke:#000000;stroke-width:3.17000008;stroke-linejoin:bevel"
     transform="translate(-72.480325,-371.56519)" />
  <polyline
     class="LedgerLine"
     points="1601.95,402.52 1643.93,402.52"
     id="polyline164"
     style="stroke:#000000;stroke-width:3.17000008;stroke-linejoin:bevel"
     transform="translate(-72.480325,-371.56519)" />
  <polyline
     class="LedgerLine"
     points="2060.39,402.52 2102.37,402.52"
     id="polyline166"
     style="stroke:#000000;stroke-width:3.17000008;stroke-linejoin:bevel"
     transform="translate(-72.480325,-371.56519)" />
  <polyline
     class="LedgerLine"
     points="2060.39,382.677 2102.37,382.677"
     id="polyline168"
     style="stroke:#000000;stroke-width:3.17000008;stroke-linejoin:bevel"
     transform="translate(-72.480325,-371.56519)" />
  <polyline
     class="Stem"
     points="950.151,1253.08 950.151,1159.02"
     id="polyline206"
     style="stroke:#000000;stroke-width:2.38000011;stroke-linejoin:bevel"
     transform="translate(-72.480325,-371.56519)" />
  <polyline
     class="Stem"
     points="1284.25,1263 1284.25,1159.02"
     id="polyline208"
     style="stroke:#000000;stroke-width:2.38000011;stroke-linejoin:bevel"
     transform="translate(-72.480325,-371.56519)" />
  <polyline
     class="Stem"
     points="1634.81,1263 1634.81,1151.57"
     id="polyline210"
     style="stroke:#000000;stroke-width:2.38000011;stroke-linejoin:bevel"
     transform="translate(-72.480325,-371.56519)" />
  <polyline
     class="Stem"
     points="1940.43,1263 1940.43,1159.02"
     id="polyline212"
     style="stroke:#000000;stroke-width:2.38000011;stroke-linejoin:bevel"
     transform="translate(-72.480325,-371.56519)" />
  <polyline
     class="Stem"
     points="2277.01,1272.92 2277.01,1159.02"
     id="polyline214"
     style="stroke:#000000;stroke-width:2.38000011;stroke-linejoin:bevel"
     transform="translate(-72.480325,-371.56519)" />
  <polyline
     class="Stem"
     points="2611.11,1263 2611.11,1159.02"
     id="polyline216"
     style="stroke:#000000;stroke-width:2.38000011;stroke-linejoin:bevel"
     transform="translate(-72.480325,-371.56519)" />
  <polyline
     class="Stem"
     points="926.42,1000.46 926.42,1059.8"
     id="polyline218"
     style="stroke:#000000;stroke-width:2.38000011;stroke-linejoin:bevel"
     transform="translate(-72.480325,-371.56519)" />
  <polyline
     class="Stem"
     points="1260.52,990.541 1260.52,1052.36"
     id="polyline220"
     style="stroke:#000000;stroke-width:2.38000011;stroke-linejoin:bevel"
     transform="translate(-72.480325,-371.56519)" />
  <polyline
     class="Stem"
     points="1611.08,940.935 1611.08,1007.72"
     id="polyline222"
     style="stroke:#000000;stroke-width:2.38000011;stroke-linejoin:bevel"
     transform="translate(-72.480325,-371.56519)" />
  <polyline
     class="Stem"
     points="1916.7,950.856 1916.7,1017.64"
     id="polyline224"
     style="stroke:#000000;stroke-width:2.38000011;stroke-linejoin:bevel"
     transform="translate(-72.480325,-371.56519)" />
  <polyline
     class="Stem"
     points="2253.28,950.856 2253.28,1017.64"
     id="polyline226"
     style="stroke:#000000;stroke-width:2.38000011;stroke-linejoin:bevel"
     transform="translate(-72.480325,-371.56519)" />
  <polyline
     class="Stem"
     points="2410.51,960.777 2410.51,1027.56"
     id="polyline228"
     style="stroke:#000000;stroke-width:2.38000011;stroke-linejoin:bevel"
     transform="translate(-72.480325,-371.56519)" />
  <polyline
     class="Stem"
     points="2587.38,970.698 2587.38,1037.48"
     id="polyline230"
     style="stroke:#000000;stroke-width:2.38000011;stroke-linejoin:bevel"
     transform="translate(-72.480325,-371.56519)" />
  <polyline
     class="Stem"
     points="305.957,727.255 305.957,635.669"
     id="polyline232"
     style="stroke:#000000;stroke-width:2.38000011;stroke-linejoin:bevel"
     transform="translate(-72.480325,-371.56519)" />
  <polyline
     class="Stem"
     points="382.364,687.57 382.364,627.402"
     id="polyline234"
     style="stroke:#000000;stroke-width:2.38000011;stroke-linejoin:bevel"
     transform="translate(-72.480325,-371.56519)" />
  <polyline
     class="Stem"
     points="458.771,707.412 458.771,619.134"
     id="polyline236"
     style="stroke:#000000;stroke-width:2.38000011;stroke-linejoin:bevel"
     transform="translate(-72.480325,-371.56519)" />
  <polyline
     class="Stem"
     points="535.178,687.57 535.178,610.866"
     id="polyline238"
     style="stroke:#000000;stroke-width:2.38000011;stroke-linejoin:bevel"
     transform="translate(-72.480325,-371.56519)" />
  <polyline
     class="Stem"
     points="611.585,727.255 611.585,635.669"
     id="polyline240"
     style="stroke:#000000;stroke-width:2.38000011;stroke-linejoin:bevel"
     transform="translate(-72.480325,-371.56519)" />
  <polyline
     class="Stem"
     points="687.991,687.57 687.991,627.402"
     id="polyline242"
     style="stroke:#000000;stroke-width:2.38000011;stroke-linejoin:bevel"
     transform="translate(-72.480325,-371.56519)" />
  <polyline
     class="Stem"
     points="764.398,707.412 764.398,619.134"
     id="polyline244"
     style="stroke:#000000;stroke-width:2.38000011;stroke-linejoin:bevel"
     transform="translate(-72.480325,-371.56519)" />
  <polyline
     class="Stem"
     points="840.805,687.57 840.805,610.866"
     id="polyline246"
     style="stroke:#000000;stroke-width:2.38000011;stroke-linejoin:bevel"
     transform="translate(-72.480325,-371.56519)" />
  <polyline
     class="Stem"
     points="950.151,717.333 950.151,635.669"
     id="polyline248"
     style="stroke:#000000;stroke-width:2.38000011;stroke-linejoin:bevel"
     transform="translate(-72.480325,-371.56519)" />
  <polyline
     class="Stem"
     points="1028.76,687.57 1028.76,627.402"
     id="polyline250"
     style="stroke:#000000;stroke-width:2.38000011;stroke-linejoin:bevel"
     transform="translate(-72.480325,-371.56519)" />
  <polyline
     class="Stem"
     points="1107.37,697.491 1107.37,619.134"
     id="polyline252"
     style="stroke:#000000;stroke-width:2.38000011;stroke-linejoin:bevel"
     transform="translate(-72.480325,-371.56519)" />
  <polyline
     class="Stem"
     points="1185.98,687.57 1185.98,610.866"
     id="polyline254"
     style="stroke:#000000;stroke-width:2.38000011;stroke-linejoin:bevel"
     transform="translate(-72.480325,-371.56519)" />
  <polyline
     class="Stem"
     points="1284.25,727.255 1284.25,635.669"
     id="polyline256"
     style="stroke:#000000;stroke-width:2.38000011;stroke-linejoin:bevel"
     transform="translate(-72.480325,-371.56519)" />
  <polyline
     class="Stem"
     points="1362.86,687.57 1362.86,627.402"
     id="polyline258"
     style="stroke:#000000;stroke-width:2.38000011;stroke-linejoin:bevel"
     transform="translate(-72.480325,-371.56519)" />
  <polyline
     class="Stem"
     points="1441.47,707.412 1441.47,619.134"
     id="polyline260"
     style="stroke:#000000;stroke-width:2.38000011;stroke-linejoin:bevel"
     transform="translate(-72.480325,-371.56519)" />
  <polyline
     class="Stem"
     points="1520.08,687.57 1520.08,610.866"
     id="polyline262"
     style="stroke:#000000;stroke-width:2.38000011;stroke-linejoin:bevel"
     transform="translate(-72.480325,-371.56519)" />
  <polyline
     class="Stem"
     points="1634.81,727.255 1634.81,630.709"
     id="polyline264"
     style="stroke:#000000;stroke-width:2.38000011;stroke-linejoin:bevel"
     transform="translate(-72.480325,-371.56519)" />
  <polyline
     class="Stem"
     points="1711.21,677.648 1711.21,622.441"
     id="polyline266"
     style="stroke:#000000;stroke-width:2.38000011;stroke-linejoin:bevel"
     transform="translate(-72.480325,-371.56519)" />
  <polyline
     class="Stem"
     points="1787.62,697.491 1787.62,614.173"
     id="polyline268"
     style="stroke:#000000;stroke-width:2.38000011;stroke-linejoin:bevel"
     transform="translate(-72.480325,-371.56519)" />
  <polyline
     class="Stem"
     points="1864.03,677.648 1864.03,605.906"
     id="polyline270"
     style="stroke:#000000;stroke-width:2.38000011;stroke-linejoin:bevel"
     transform="translate(-72.480325,-371.56519)" />
  <polyline
     class="Stem"
     points="1940.43,727.255 1940.43,635.669"
     id="polyline272"
     style="stroke:#000000;stroke-width:2.38000011;stroke-linejoin:bevel"
     transform="translate(-72.480325,-371.56519)" />
  <polyline
     class="Stem"
     points="2016.84,687.57 2016.84,627.402"
     id="polyline274"
     style="stroke:#000000;stroke-width:2.38000011;stroke-linejoin:bevel"
     transform="translate(-72.480325,-371.56519)" />
  <polyline
     class="Stem"
     points="2093.25,707.412 2093.25,619.134"
     id="polyline276"
     style="stroke:#000000;stroke-width:2.38000011;stroke-linejoin:bevel"
     transform="translate(-72.480325,-371.56519)" />
  <polyline
     class="Stem"
     points="2169.65,687.57 2169.65,610.866"
     id="polyline278"
     style="stroke:#000000;stroke-width:2.38000011;stroke-linejoin:bevel"
     transform="translate(-72.480325,-371.56519)" />
  <polyline
     class="Stem"
     points="2277.01,737.176 2277.01,635.669"
     id="polyline280"
     style="stroke:#000000;stroke-width:2.38000011;stroke-linejoin:bevel"
     transform="translate(-72.480325,-371.56519)" />
  <polyline
     class="Stem"
     points="2355.63,687.57 2355.63,629.055"
     id="polyline282"
     style="stroke:#000000;stroke-width:2.38000011;stroke-linejoin:bevel"
     transform="translate(-72.480325,-371.56519)" />
  <polyline
     class="Stem"
     points="2434.24,717.333 2434.24,622.441"
     id="polyline284"
     style="stroke:#000000;stroke-width:2.38000011;stroke-linejoin:bevel"
     transform="translate(-72.480325,-371.56519)" />
  <polyline
     class="Stem"
     points="2512.85,687.57 2512.85,615.827"
     id="polyline286"
     style="stroke:#000000;stroke-width:2.38000011;stroke-linejoin:bevel"
     transform="translate(-72.480325,-371.56519)" />
  <polyline
     class="Stem"
     points="2611.11,727.255 2611.11,635.669"
     id="polyline288"
     style="stroke:#000000;stroke-width:2.38000011;stroke-linejoin:bevel"
     transform="translate(-72.480325,-371.56519)" />
  <polyline
     class="Stem"
     points="2689.72,687.57 2689.72,627.402"
     id="polyline290"
     style="stroke:#000000;stroke-width:2.38000011;stroke-linejoin:bevel"
     transform="translate(-72.480325,-371.56519)" />
  <polyline
     class="Stem"
     points="2768.33,707.412 2768.33,619.134"
     id="polyline292"
     style="stroke:#000000;stroke-width:2.38000011;stroke-linejoin:bevel"
     transform="translate(-72.480325,-371.56519)" />
  <polyline
     class="Stem"
     points="2846.95,687.57 2846.95,610.866"
     id="polyline294"
     style="stroke:#000000;stroke-width:2.38000011;stroke-linejoin:bevel"
     transform="translate(-72.480325,-371.56519)" />
  <polyline
     class="Stem"
     points="282.227,454.793 282.227,516.614"
     id="polyline296"
     style="stroke:#000000;stroke-width:2.38000011;stroke-linejoin:bevel"
     transform="translate(-72.480325,-371.56519)" />
  <polyline
     class="Stem"
     points="587.854,434.95 587.854,501.732"
     id="polyline298"
     style="stroke:#000000;stroke-width:2.38000011;stroke-linejoin:bevel"
     transform="translate(-72.480325,-371.56519)" />
  <polyline
     class="Stem"
     points="740.668,415.108 740.668,481.89"
     id="polyline300"
     style="stroke:#000000;stroke-width:2.38000011;stroke-linejoin:bevel"
     transform="translate(-72.480325,-371.56519)" />
  <polyline
     class="Stem"
     points="926.42,464.714 926.42,524.055"
     id="polyline302"
     style="stroke:#000000;stroke-width:2.38000011;stroke-linejoin:bevel"
     transform="translate(-72.480325,-371.56519)" />
  <polyline
     class="Stem"
     points="1162.25,454.793 1162.25,521.575"
     id="polyline304"
     style="stroke:#000000;stroke-width:2.38000011;stroke-linejoin:bevel"
     transform="translate(-72.480325,-371.56519)" />
  <polyline
     class="Stem"
     points="1211.39,444.872 1211.39,516.614"
     id="polyline306"
     style="stroke:#000000;stroke-width:2.38000011;stroke-linejoin:bevel"
     transform="translate(-72.480325,-371.56519)" />
  <polyline
     class="Stem"
     points="1260.52,454.793 1260.52,516.614"
     id="polyline308"
     style="stroke:#000000;stroke-width:2.38000011;stroke-linejoin:bevel"
     transform="translate(-72.480325,-371.56519)" />
  <polyline
     class="Stem"
     points="1611.08,405.187 1611.08,471.969"
     id="polyline310"
     style="stroke:#000000;stroke-width:2.38000011;stroke-linejoin:bevel"
     transform="translate(-72.480325,-371.56519)" />
  <polyline
     class="Stem"
     points="1916.7,415.108 1916.7,481.89"
     id="polyline312"
     style="stroke:#000000;stroke-width:2.38000011;stroke-linejoin:bevel"
     transform="translate(-72.480325,-371.56519)" />
  <polyline
     class="Stem"
     points="2069.52,385.344 2069.52,462.047"
     id="polyline314"
     style="stroke:#000000;stroke-width:2.38000011;stroke-linejoin:bevel"
     transform="translate(-72.480325,-371.56519)" />
  <polyline
     class="Stem"
     points="2253.28,415.108 2253.28,481.89"
     id="polyline316"
     style="stroke:#000000;stroke-width:2.38000011;stroke-linejoin:bevel"
     transform="translate(-72.480325,-371.56519)" />
  <polyline
     class="Stem"
     points="2410.51,425.029 2410.51,496.772"
     id="polyline318"
     style="stroke:#000000;stroke-width:2.38000011;stroke-linejoin:bevel"
     transform="translate(-72.480325,-371.56519)" />
  <polyline
     class="Stem"
     points="2489.12,434.95 2489.12,496.772"
     id="polyline320"
     style="stroke:#000000;stroke-width:2.38000011;stroke-linejoin:bevel"
     transform="translate(-72.480325,-371.56519)" />
  <polyline
     class="Stem"
     points="2538.25,425.029 2538.25,496.772"
     id="polyline322"
     style="stroke:#000000;stroke-width:2.38000011;stroke-linejoin:bevel"
     transform="translate(-72.480325,-371.56519)" />
  <polyline
     class="Stem"
     points="2587.38,434.95 2587.38,501.732"
     id="polyline324"
     style="stroke:#000000;stroke-width:2.38000011;stroke-linejoin:bevel"
     transform="translate(-72.480325,-371.56519)" />
  <path
     class="Note"
     d="m 203.39667,893.94359 c 0,5.79154 4.92344,10.95064 17.78391,10.95064 14.12534,0 18.65197,-4.91107 18.65197,-10.95064 0,-6.11397 -9.76006,-10.71494 -17.7839,-10.71494 -11.50867,0 -18.65198,4.849 -18.65198,10.71494 m 9.28877,-3.1748 c 0,-4.43977 3.08805,-5.55589 7.14331,-5.55589 5.87838,0 10.64059,6.34959 10.64059,11.59546 0,4.36535 -2.70358,6.10161 -6.59764,6.10161 -5.71711,0 -11.18626,-6.58527 -11.18626,-12.14118"
     id="path366"
     inkscape:connector-curvature="0"
     style="stroke-width:0.79370099" />
  <path
     class="Note"
     d="m 203.39667,874.10359 c 0,5.79154 4.92344,10.95064 17.78391,10.95064 14.12534,0 18.65197,-4.91107 18.65197,-10.95064 0,-6.11397 -9.76006,-10.71494 -17.7839,-10.71494 -11.50867,0 -18.65198,4.849 -18.65198,10.71494 m 9.28877,-3.1748 c 0,-4.43977 3.08805,-5.55589 7.14331,-5.55589 5.87838,0 10.64059,6.34959 10.64059,11.59546 0,4.36535 -2.70358,6.10161 -6.59764,6.10161 -5.71711,0 -11.18626,-6.58527 -11.18626,-12.14118"
     id="path368"
     inkscape:connector-curvature="0"
     style="stroke-width:0.79370099" />
  <path
     class="Note"
     d="m 203.39667,854.25359 c 0,5.79154 4.92344,10.95064 17.78391,10.95064 14.12534,0 18.65197,-4.91107 18.65197,-10.95064 0,-6.11397 -9.76006,-10.71494 -17.7839,-10.71494 -11.50867,0 -18.65198,4.849 -18.65198,10.71494 m 9.28877,-3.1748 c 0,-4.43977 3.08805,-5.55589 7.14331,-5.55589 5.87838,0 10.64059,6.34959 10.64059,11.59546 0,4.36535 -2.70358,6.10161 -6.59764,6.10161 -5.71711,0 -11.18626,-6.58527 -11.18626,-12.14118"
     id="path370"
     inkscape:connector-curvature="0"
     style="stroke-width:0.79370099" />
  <path
     class="Note"
     d="m 861.31919,895.29663 c 14.60901,0 17.54825,-11.90552 17.54825,-14.75788 0,-4.5266 -3.57166,-7.46575 -8.73071,-7.46575 -13.25733,0 -17.38706,10.2437 -17.38706,14.84469 0,4.67543 3.73288,7.37894 8.56952,7.37894 m -5.95278,-7.21772 c 0,-4.29095 12.78606,-11.35985 16.99014,-11.35985 1.66185,0 2.61675,0.7937 3.24925,1.90985 0.24803,0.47126 0.48368,1.02932 0.48368,1.66181 0,1.74862 -1.82305,3.89409 -8.02384,7.93701 -3.9685,2.70354 -6.74645,3.65847 -8.64392,3.65847 -1.83543,0 -2.93917,-0.95493 -3.49724,-2.07107 -0.32244,-0.47126 -0.55807,-1.10374 -0.55807,-1.73622"
     id="path372"
     inkscape:connector-curvature="0"
     style="stroke-width:0.79370099" />
  <path
     class="Note"
     d="m 861.31919,875.45663 c 14.60901,0 17.54825,-11.90552 17.54825,-14.75788 0,-4.5266 -3.57166,-7.46575 -8.73071,-7.46575 -13.25733,0 -17.38706,10.2437 -17.38706,14.84469 0,4.67543 3.73288,7.37894 8.56952,7.37894 m -5.95278,-7.21772 c 0,-4.29095 12.78606,-11.35985 16.99014,-11.35985 1.66185,0 2.61675,0.7937 3.24925,1.90985 0.24803,0.47126 0.48368,1.02932 0.48368,1.66181 0,1.74862 -1.82305,3.89409 -8.02384,7.93701 -3.9685,2.70354 -6.74645,3.65847 -8.64392,3.65847 -1.83543,0 -2.93917,-0.95493 -3.49724,-2.07107 -0.32244,-0.47126 -0.55807,-1.10374 -0.55807,-1.73622"
     id="path374"
     inkscape:connector-curvature="0"
     style="stroke-width:0.79370099" />
  <path
     class="Note"
     d="m 885.04919,865.52663 c 14.60901,0 17.54825,-11.90552 17.54825,-14.75788 0,-4.5266 -3.57166,-7.46575 -8.73071,-7.46575 -13.25733,0 -17.38706,10.2437 -17.38706,14.84469 0,4.67543 3.73288,7.37894 8.56952,7.37894 m -5.95278,-7.21772 c 0,-4.29095 12.78606,-11.35985 16.99014,-11.35985 1.66185,0 2.61675,0.7937 3.24925,1.90985 0.24803,0.47126 0.48368,1.02932 0.48368,1.66181 0,1.74862 -1.82305,3.89409 -8.02384,7.93701 -3.9685,2.70354 -6.74645,3.65847 -8.64392,3.65847 -1.83543,0 -2.93917,-0.95493 -3.49724,-2.07107 -0.32244,-0.47126 -0.55807,-1.10374 -0.55807,-1.73622"
     id="path376"
     inkscape:connector-curvature="0"
     style="stroke-width:0.79370099" />
  <path
     class="Note"
     d="m 1195.4192,905.21663 c 14.609,0 17.5482,-11.90552 17.5482,-14.75788 0,-4.5266 -3.5716,-7.46575 -8.7307,-7.46575 -13.2573,0 -17.387,10.2437 -17.387,14.84469 0,4.67543 3.7329,7.37894 8.5695,7.37894 m -5.9528,-7.21772 c 0,-4.29095 12.7861,-11.35985 16.9902,-11.35985 1.6618,0 2.6167,0.7937 3.2492,1.90985 0.248,0.47126 0.4837,1.02932 0.4837,1.66181 0,1.74862 -1.8231,3.89409 -8.0239,7.93701 -3.9685,2.70354 -6.7464,3.65847 -8.6439,3.65847 -1.8354,0 -2.9391,-0.95493 -3.4972,-2.07107 -0.3225,-0.47126 -0.5581,-1.10374 -0.5581,-1.73622"
     id="path378"
     inkscape:connector-curvature="0"
     style="stroke-width:0.79370099" />
  <path
     class="Note"
     d="m 1195.4192,885.37663 c 14.609,0 17.5482,-11.90552 17.5482,-14.75788 0,-4.5266 -3.5716,-7.46575 -8.7307,-7.46575 -13.2573,0 -17.387,10.2437 -17.387,14.84469 0,4.67543 3.7329,7.37894 8.5695,7.37894 m -5.9528,-7.21772 c 0,-4.29095 12.7861,-11.35985 16.9902,-11.35985 1.6618,0 2.6167,0.7937 3.2492,1.90985 0.248,0.47126 0.4837,1.02932 0.4837,1.66181 0,1.74862 -1.8231,3.89409 -8.0239,7.93701 -3.9685,2.70354 -6.7464,3.65847 -8.6439,3.65847 -1.8354,0 -2.9391,-0.95493 -3.4972,-2.07107 -0.3225,-0.47126 -0.5581,-1.10374 -0.5581,-1.73622"
     id="path380"
     inkscape:connector-curvature="0"
     style="stroke-width:0.79370099" />
  <path
     class="Note"
     d="m 1195.4192,865.52663 c 14.609,0 17.5482,-11.90552 17.5482,-14.75788 0,-4.5266 -3.5716,-7.46575 -8.7307,-7.46575 -13.2573,0 -17.387,10.2437 -17.387,14.84469 0,4.67543 3.7329,7.37894 8.5695,7.37894 m -5.9528,-7.21772 c 0,-4.29095 12.7861,-11.35985 16.9902,-11.35985 1.6618,0 2.6167,0.7937 3.2492,1.90985 0.248,0.47126 0.4837,1.02932 0.4837,1.66181 0,1.74862 -1.8231,3.89409 -8.0239,7.93701 -3.9685,2.70354 -6.7464,3.65847 -8.6439,3.65847 -1.8354,0 -2.9391,-0.95493 -3.4972,-2.07107 -0.3225,-0.47126 -0.5581,-1.10374 -0.5581,-1.73622"
     id="path382"
     inkscape:connector-curvature="0"
     style="stroke-width:0.79370099" />
  <path
     class="Note"
     d="m 1545.9692,905.21663 c 14.609,0 17.5482,-11.90552 17.5482,-14.75788 0,-4.5266 -3.5716,-7.46575 -8.7307,-7.46575 -13.2573,0 -17.387,10.2437 -17.387,14.84469 0,4.67543 3.7329,7.37894 8.5695,7.37894 m -5.9528,-7.21772 c 0,-4.29095 12.7861,-11.35985 16.9902,-11.35985 1.6618,0 2.6167,0.7937 3.2492,1.90985 0.248,0.47126 0.4837,1.02932 0.4837,1.66181 0,1.74862 -1.8231,3.89409 -8.0239,7.93701 -3.9685,2.70354 -6.7464,3.65847 -8.6439,3.65847 -1.8354,0 -2.9391,-0.95493 -3.4972,-2.07107 -0.3225,-0.47126 -0.5581,-1.10374 -0.5581,-1.73622"
     id="path384"
     inkscape:connector-curvature="0"
     style="stroke-width:0.79370099" />
  <path
     class="Note"
     d="m 1545.9692,875.45663 c 14.609,0 17.5482,-11.90552 17.5482,-14.75788 0,-4.5266 -3.5716,-7.46575 -8.7307,-7.46575 -13.2573,0 -17.387,10.2437 -17.387,14.84469 0,4.67543 3.7329,7.37894 8.5695,7.37894 m -5.9528,-7.21772 c 0,-4.29095 12.7861,-11.35985 16.9902,-11.35985 1.6618,0 2.6167,0.7937 3.2492,1.90985 0.248,0.47126 0.4837,1.02932 0.4837,1.66181 0,1.74862 -1.8231,3.89409 -8.0239,7.93701 -3.9685,2.70354 -6.7464,3.65847 -8.6439,3.65847 -1.8354,0 -2.9391,-0.95493 -3.4972,-2.07107 -0.3225,-0.47126 -0.5581,-1.10374 -0.5581,-1.73622"
     id="path386"
     inkscape:connector-curvature="0"
     style="stroke-width:0.79370099" />
  <path
     class="Note"
     d="m 1545.9692,855.60663 c 14.609,0 17.5482,-11.90552 17.5482,-14.75788 0,-4.5266 -3.5716,-7.46575 -8.7307,-7.46575 -13.2573,0 -17.387,10.2437 -17.387,14.84469 0,4.67543 3.7329,7.37894 8.5695,7.37894 m -5.9528,-7.21772 c 0,-4.29095 12.7861,-11.35985 16.9902,-11.35985 1.6618,0 2.6167,0.7937 3.2492,1.90985 0.248,0.47126 0.4837,1.02932 0.4837,1.66181 0,1.74862 -1.8231,3.89409 -8.0239,7.93701 -3.9685,2.70354 -6.7464,3.65847 -8.6439,3.65847 -1.8354,0 -2.9391,-0.95493 -3.4972,-2.07107 -0.3225,-0.47126 -0.5581,-1.10374 -0.5581,-1.73622"
     id="path388"
     inkscape:connector-curvature="0"
     style="stroke-width:0.79370099" />
  <path
     class="Note"
     d="m 1851.5992,905.21663 c 14.609,0 17.5482,-11.90552 17.5482,-14.75788 0,-4.5266 -3.5716,-7.46575 -8.7307,-7.46575 -13.2573,0 -17.387,10.2437 -17.387,14.84469 0,4.67543 3.7329,7.37894 8.5695,7.37894 m -5.9528,-7.21772 c 0,-4.29095 12.7861,-11.35985 16.9902,-11.35985 1.6618,0 2.6167,0.7937 3.2492,1.90985 0.248,0.47126 0.4837,1.02932 0.4837,1.66181 0,1.74862 -1.8231,3.89409 -8.0239,7.93701 -3.9685,2.70354 -6.7464,3.65847 -8.6439,3.65847 -1.8354,0 -2.9391,-0.95493 -3.4972,-2.07107 -0.3225,-0.47126 -0.5581,-1.10374 -0.5581,-1.73622"
     id="path390"
     inkscape:connector-curvature="0"
     style="stroke-width:0.79370099" />
  <path
     class="Note"
     d="m 1851.5992,885.37663 c 14.609,0 17.5482,-11.90552 17.5482,-14.75788 0,-4.5266 -3.5716,-7.46575 -8.7307,-7.46575 -13.2573,0 -17.387,10.2437 -17.387,14.84469 0,4.67543 3.7329,7.37894 8.5695,7.37894 m -5.9528,-7.21772 c 0,-4.29095 12.7861,-11.35985 16.9902,-11.35985 1.6618,0 2.6167,0.7937 3.2492,1.90985 0.248,0.47126 0.4837,1.02932 0.4837,1.66181 0,1.74862 -1.8231,3.89409 -8.0239,7.93701 -3.9685,2.70354 -6.7464,3.65847 -8.6439,3.65847 -1.8354,0 -2.9391,-0.95493 -3.4972,-2.07107 -0.3225,-0.47126 -0.5581,-1.10374 -0.5581,-1.73622"
     id="path392"
     inkscape:connector-curvature="0"
     style="stroke-width:0.79370099" />
  <path
     class="Note"
     d="m 1851.5992,865.52663 c 14.609,0 17.5482,-11.90552 17.5482,-14.75788 0,-4.5266 -3.5716,-7.46575 -8.7307,-7.46575 -13.2573,0 -17.387,10.2437 -17.387,14.84469 0,4.67543 3.7329,7.37894 8.5695,7.37894 m -5.9528,-7.21772 c 0,-4.29095 12.7861,-11.35985 16.9902,-11.35985 1.6618,0 2.6167,0.7937 3.2492,1.90985 0.248,0.47126 0.4837,1.02932 0.4837,1.66181 0,1.74862 -1.8231,3.89409 -8.0239,7.93701 -3.9685,2.70354 -6.7464,3.65847 -8.6439,3.65847 -1.8354,0 -2.9391,-0.95493 -3.4972,-2.07107 -0.3225,-0.47126 -0.5581,-1.10374 -0.5581,-1.73622"
     id="path394"
     inkscape:connector-curvature="0"
     style="stroke-width:0.79370099" />
  <path
     class="Note"
     d="m 2188.1792,915.13663 c 14.609,0 17.5482,-11.90552 17.5482,-14.75788 0,-4.5266 -3.5716,-7.46575 -8.7307,-7.46575 -13.2573,0 -17.387,10.2437 -17.387,14.84469 0,4.67543 3.7329,7.37894 8.5695,7.37894 m -5.9528,-7.21772 c 0,-4.29095 12.7861,-11.35985 16.9902,-11.35985 1.6618,0 2.6167,0.7937 3.2492,1.90985 0.248,0.47126 0.4837,1.02932 0.4837,1.66181 0,1.74862 -1.8231,3.89409 -8.0239,7.93701 -3.9685,2.70354 -6.7464,3.65847 -8.6439,3.65847 -1.8354,0 -2.9391,-0.95493 -3.4972,-2.07107 -0.3225,-0.47126 -0.5581,-1.10374 -0.5581,-1.73622"
     id="path396"
     inkscape:connector-curvature="0"
     style="stroke-width:0.79370099" />
  <path
     class="Note"
     d="m 2188.1792,895.29663 c 14.609,0 17.5482,-11.90552 17.5482,-14.75788 0,-4.5266 -3.5716,-7.46575 -8.7307,-7.46575 -13.2573,0 -17.387,10.2437 -17.387,14.84469 0,4.67543 3.7329,7.37894 8.5695,7.37894 m -5.9528,-7.21772 c 0,-4.29095 12.7861,-11.35985 16.9902,-11.35985 1.6618,0 2.6167,0.7937 3.2492,1.90985 0.248,0.47126 0.4837,1.02932 0.4837,1.66181 0,1.74862 -1.8231,3.89409 -8.0239,7.93701 -3.9685,2.70354 -6.7464,3.65847 -8.6439,3.65847 -1.8354,0 -2.9391,-0.95493 -3.4972,-2.07107 -0.3225,-0.47126 -0.5581,-1.10374 -0.5581,-1.73622"
     id="path398"
     inkscape:connector-curvature="0"
     style="stroke-width:0.79370099" />
  <path
     class="Note"
     d="m 2188.1792,865.52663 c 14.609,0 17.5482,-11.90552 17.5482,-14.75788 0,-4.5266 -3.5716,-7.46575 -8.7307,-7.46575 -13.2573,0 -17.387,10.2437 -17.387,14.84469 0,4.67543 3.7329,7.37894 8.5695,7.37894 m -5.9528,-7.21772 c 0,-4.29095 12.7861,-11.35985 16.9902,-11.35985 1.6618,0 2.6167,0.7937 3.2492,1.90985 0.248,0.47126 0.4837,1.02932 0.4837,1.66181 0,1.74862 -1.8231,3.89409 -8.0239,7.93701 -3.9685,2.70354 -6.7464,3.65847 -8.6439,3.65847 -1.8354,0 -2.9391,-0.95493 -3.4972,-2.07107 -0.3225,-0.47126 -0.5581,-1.10374 -0.5581,-1.73622"
     id="path400"
     inkscape:connector-curvature="0"
     style="stroke-width:0.79370099" />
  <path
     class="Note"
     d="m 2522.2792,905.21663 c 14.609,0 17.5482,-11.90552 17.5482,-14.75788 0,-4.5266 -3.5716,-7.46575 -8.7307,-7.46575 -13.2573,0 -17.387,10.2437 -17.387,14.84469 0,4.67543 3.7329,7.37894 8.5695,7.37894 m -5.9528,-7.21772 c 0,-4.29095 12.7861,-11.35985 16.9902,-11.35985 1.6618,0 2.6167,0.7937 3.2492,1.90985 0.248,0.47126 0.4837,1.02932 0.4837,1.66181 0,1.74862 -1.8231,3.89409 -8.0239,7.93701 -3.9685,2.70354 -6.7464,3.65847 -8.6439,3.65847 -1.8354,0 -2.9391,-0.95493 -3.4972,-2.07107 -0.3225,-0.47126 -0.5581,-1.10374 -0.5581,-1.73622"
     id="path402"
     inkscape:connector-curvature="0"
     style="stroke-width:0.79370099" />
  <path
     class="Note"
     d="m 2522.2792,885.37663 c 14.609,0 17.5482,-11.90552 17.5482,-14.75788 0,-4.5266 -3.5716,-7.46575 -8.7307,-7.46575 -13.2573,0 -17.387,10.2437 -17.387,14.84469 0,4.67543 3.7329,7.37894 8.5695,7.37894 m -5.9528,-7.21772 c 0,-4.29095 12.7861,-11.35985 16.9902,-11.35985 1.6618,0 2.6167,0.7937 3.2492,1.90985 0.248,0.47126 0.4837,1.02932 0.4837,1.66181 0,1.74862 -1.8231,3.89409 -8.0239,7.93701 -3.9685,2.70354 -6.7464,3.65847 -8.6439,3.65847 -1.8354,0 -2.9391,-0.95493 -3.4972,-2.07107 -0.3225,-0.47126 -0.5581,-1.10374 -0.5581,-1.73622"
     id="path404"
     inkscape:connector-curvature="0"
     style="stroke-width:0.79370099" />
  <path
     class="Note"
     d="m 2522.2792,865.52663 c 14.609,0 17.5482,-11.90552 17.5482,-14.75788 0,-4.5266 -3.5716,-7.46575 -8.7307,-7.46575 -13.2573,0 -17.387,10.2437 -17.387,14.84469 0,4.67543 3.7329,7.37894 8.5695,7.37894 m -5.9528,-7.21772 c 0,-4.29095 12.7861,-11.35985 16.9902,-11.35985 1.6618,0 2.6167,0.7937 3.2492,1.90985 0.248,0.47126 0.4837,1.02932 0.4837,1.66181 0,1.74862 -1.8231,3.89409 -8.0239,7.93701 -3.9685,2.70354 -6.7464,3.65847 -8.6439,3.65847 -1.8354,0 -2.9391,-0.95493 -3.4972,-2.07107 -0.3225,-0.47126 -0.5581,-1.10374 -0.5581,-1.73622"
     id="path406"
     inkscape:connector-curvature="0"
     style="stroke-width:0.79370099" />
  <path
     class="Note"
     d="m 203.39667,616.14759 c 0,5.79154 4.92344,10.95064 17.78391,10.95064 14.12534,0 18.65197,-4.91107 18.65197,-10.95064 0,-6.11397 -9.76006,-10.71494 -17.7839,-10.71494 -11.50867,0 -18.65198,4.849 -18.65198,10.71494 m 9.28877,-3.1748 c 0,-4.43977 3.08805,-5.55589 7.14331,-5.55589 5.87838,0 10.64059,6.34959 10.64059,11.59546 0,4.36535 -2.70358,6.10161 -6.59764,6.10161 -5.71711,0 -11.18626,-6.58527 -11.18626,-12.14118"
     id="path408"
     inkscape:connector-curvature="0"
     style="stroke-width:0.79370099" />
  <path
     class="Note"
     d="m 861.31919,637.34163 c 14.60901,0 17.54825,-11.90552 17.54825,-14.75788 0,-4.5266 -3.57166,-7.46575 -8.73071,-7.46575 -13.25733,0 -17.38706,10.2437 -17.38706,14.84469 0,4.67543 3.73288,7.37894 8.56952,7.37894 m -5.95278,-7.21772 c 0,-4.29095 12.78606,-11.35985 16.99014,-11.35985 1.66185,0 2.61675,0.7937 3.24925,1.90985 0.24803,0.47126 0.48368,1.02932 0.48368,1.66181 0,1.74862 -1.82305,3.89409 -8.02384,7.93701 -3.9685,2.70354 -6.74645,3.65847 -8.64392,3.65847 -1.83543,0 -2.93917,-0.95493 -3.49724,-2.07107 -0.32244,-0.47126 -0.55807,-1.10374 -0.55807,-1.73622"
     id="path410"
     inkscape:connector-curvature="0"
     style="stroke-width:0.79370099" />
  <path
     class="Note"
     d="m 1186.8497,620.04169 c 0,4.60098 3.8073,7.37894 8.5695,7.37894 7.8625,0 17.5482,-7.30453 17.5482,-14.84469 0,-4.43979 -3.5716,-7.37894 -8.6563,-7.37894 -9.6856,0 -17.4614,7.21772 -17.4614,14.84469"
     id="path412"
     inkscape:connector-curvature="0"
     style="stroke-width:0.79370099" />
  <path
     class="Note"
     d="m 514.18367,600.19969 c 0,4.60098 3.80729,7.37894 8.56952,7.37894 7.86256,0 17.54825,-7.30453 17.54825,-14.84469 0,-4.43979 -3.57166,-7.37894 -8.65634,-7.37894 -9.68563,0 -17.46143,7.21772 -17.46143,14.84469"
     id="path414"
     inkscape:connector-curvature="0"
     style="stroke-width:0.79370099" />
  <path
     class="Note"
     d="m 666.99667,580.35669 c 0,4.60098 3.80729,7.37894 8.56952,7.37894 7.86256,0 17.54825,-7.30453 17.54825,-14.84469 0,-4.43979 -3.57166,-7.37894 -8.65634,-7.37894 -9.68563,0 -17.46143,7.21772 -17.46143,14.84469"
     id="path416"
     inkscape:connector-curvature="0"
     style="stroke-width:0.79370099" />
  <path
     class="Note"
     d="m 1545.9692,577.81463 c 14.609,0 17.5482,-11.90552 17.5482,-14.75788 0,-4.5266 -3.5716,-7.46575 -8.7307,-7.46575 -13.2573,0 -17.387,10.2437 -17.387,14.84469 0,4.67543 3.7329,7.37894 8.5695,7.37894 m -5.9528,-7.21772 c 0,-4.29095 12.7861,-11.35985 16.9902,-11.35985 1.6618,0 2.6167,0.7937 3.2492,1.90985 0.248,0.47126 0.4837,1.02932 0.4837,1.66181 0,1.74862 -1.8231,3.89409 -8.0239,7.93701 -3.9685,2.70354 -6.7464,3.65847 -8.6439,3.65847 -1.8354,0 -2.9391,-0.95493 -3.4972,-2.07107 -0.3225,-0.47126 -0.5581,-1.10374 -0.5581,-1.73622"
     id="path418"
     inkscape:connector-curvature="0"
     style="stroke-width:0.79370099" />
  <path
     class="Note"
     d="m 1851.5992,587.73563 c 14.609,0 17.5482,-11.90552 17.5482,-14.75788 0,-4.5266 -3.5716,-7.46575 -8.7307,-7.46575 -13.2573,0 -17.387,10.2437 -17.387,14.84469 0,4.67543 3.7329,7.37894 8.5695,7.37894 m -5.9528,-7.21772 c 0,-4.29095 12.7861,-11.35985 16.9902,-11.35985 1.6618,0 2.6167,0.7937 3.2492,1.90985 0.248,0.47126 0.4837,1.02932 0.4837,1.66181 0,1.74862 -1.8231,3.89409 -8.0239,7.93701 -3.9685,2.70354 -6.7464,3.65847 -8.6439,3.65847 -1.8354,0 -2.9391,-0.95493 -3.4972,-2.07107 -0.3225,-0.47126 -0.5581,-1.10374 -0.5581,-1.73622"
     id="path420"
     inkscape:connector-curvature="0"
     style="stroke-width:0.79370099" />
  <path
     class="Note"
     d="m 2179.6097,580.35669 c 0,4.60098 3.8073,7.37894 8.5695,7.37894 7.8625,0 17.5482,-7.30453 17.5482,-14.84469 0,-4.43979 -3.5716,-7.37894 -8.6563,-7.37894 -9.6856,0 -17.4614,7.21772 -17.4614,14.84469"
     id="path422"
     inkscape:connector-curvature="0"
     style="stroke-width:0.79370099" />
  <path
     class="Note"
     d="m 2336.8397,590.27769 c 0,4.60098 3.8073,7.37894 8.5695,7.37894 7.8625,0 17.5482,-7.30453 17.5482,-14.84469 0,-4.43979 -3.5716,-7.37894 -8.6563,-7.37894 -9.6856,0 -17.4614,7.21772 -17.4614,14.84469"
     id="path424"
     inkscape:connector-curvature="0"
     style="stroke-width:0.79370099" />
  <path
     class="Note"
     d="m 2522.2792,607.57863 c 14.609,0 17.5482,-11.90552 17.5482,-14.75788 0,-4.5266 -3.5716,-7.46575 -8.7307,-7.46575 -13.2573,0 -17.387,10.2437 -17.387,14.84469 0,4.67543 3.7329,7.37894 8.5695,7.37894 m -5.9528,-7.21772 c 0,-4.29095 12.7861,-11.35985 16.9902,-11.35985 1.6618,0 2.6167,0.7937 3.2492,1.90985 0.248,0.47126 0.4837,1.02932 0.4837,1.66181 0,1.74862 -1.8231,3.89409 -8.0239,7.93701 -3.9685,2.70354 -6.7464,3.65847 -8.6439,3.65847 -1.8354,0 -2.9391,-0.95493 -3.4972,-2.07107 -0.3225,-0.47126 -0.5581,-1.10374 -0.5581,-1.73622"
     id="path426"
     inkscape:connector-curvature="0"
     style="stroke-width:0.79370099" />
  <path
     class="Note"
     d="m 208.55567,362.08869 c 0,4.60098 3.80729,7.37894 8.56952,7.37894 7.86256,0 17.54825,-7.30453 17.54825,-14.84469 0,-4.43979 -3.57166,-7.37894 -8.65634,-7.37894 -9.68563,0 -17.46143,7.21772 -17.46143,14.84469"
     id="path428"
     inkscape:connector-curvature="0"
     style="stroke-width:0.79370099" />
  <path
     class="Note"
     d="m 284.96267,322.40369 c 0,4.60098 3.80729,7.37894 8.56952,7.37894 7.86256,0 17.54825,-7.30453 17.54825,-14.84469 0,-4.43979 -3.57166,-7.37894 -8.65634,-7.37894 -9.68563,0 -17.46143,7.21772 -17.46143,14.84469"
     id="path430"
     inkscape:connector-curvature="0"
     style="stroke-width:0.79370099" />
  <path
     class="Note"
     d="m 361.36967,342.24669 c 0,4.60098 3.80729,7.37894 8.56952,7.37894 7.86256,0 17.54825,-7.30453 17.54825,-14.84469 0,-4.43979 -3.57166,-7.37894 -8.65634,-7.37894 -9.68563,0 -17.46143,7.21772 -17.46143,14.84469"
     id="path432"
     inkscape:connector-curvature="0"
     style="stroke-width:0.79370099" />
  <path
     class="Note"
     d="m 437.77667,322.40369 c 0,4.60098 3.80729,7.37894 8.56952,7.37894 7.86256,0 17.54825,-7.30453 17.54825,-14.84469 0,-4.43979 -3.57166,-7.37894 -8.65634,-7.37894 -9.68563,0 -17.46143,7.21772 -17.46143,14.84469"
     id="path434"
     inkscape:connector-curvature="0"
     style="stroke-width:0.79370099" />
  <path
     class="Note"
     d="m 514.18367,362.08869 c 0,4.60098 3.80729,7.37894 8.56952,7.37894 7.86256,0 17.54825,-7.30453 17.54825,-14.84469 0,-4.43979 -3.57166,-7.37894 -8.65634,-7.37894 -9.68563,0 -17.46143,7.21772 -17.46143,14.84469"
     id="path436"
     inkscape:connector-curvature="0"
     style="stroke-width:0.79370099" />
  <path
     class="Note"
     d="m 590.58967,322.40369 c 0,4.60098 3.80729,7.37894 8.56952,7.37894 7.86256,0 17.54825,-7.30453 17.54825,-14.84469 0,-4.43979 -3.57166,-7.37894 -8.65634,-7.37894 -9.68563,0 -17.46143,7.21772 -17.46143,14.84469"
     id="path438"
     inkscape:connector-curvature="0"
     style="stroke-width:0.79370099" />
  <path
     class="Note"
     d="m 666.99667,342.24669 c 0,4.60098 3.80729,7.37894 8.56952,7.37894 7.86256,0 17.54825,-7.30453 17.54825,-14.84469 0,-4.43979 -3.57166,-7.37894 -8.65634,-7.37894 -9.68563,0 -17.46143,7.21772 -17.46143,14.84469"
     id="path440"
     inkscape:connector-curvature="0"
     style="stroke-width:0.79370099" />
  <path
     class="Note"
     d="m 743.40367,322.40369 c 0,4.60098 3.80729,7.37894 8.56952,7.37894 7.86256,0 17.54825,-7.30453 17.54825,-14.84469 0,-4.43979 -3.57166,-7.37894 -8.65634,-7.37894 -9.68563,0 -17.46143,7.21772 -17.46143,14.84469"
     id="path442"
     inkscape:connector-curvature="0"
     style="stroke-width:0.79370099" />
  <path
     class="Note"
     d="m 852.74967,352.16769 c 0,4.60098 3.80729,7.37894 8.56952,7.37894 7.86256,0 17.54825,-7.30453 17.54825,-14.84469 0,-4.43979 -3.57166,-7.37894 -8.65634,-7.37894 -9.68563,0 -17.46143,7.21772 -17.46143,14.84469"
     id="path444"
     inkscape:connector-curvature="0"
     style="stroke-width:0.79370099" />
  <path
     class="Note"
     d="m 931.35967,322.40369 c 0,4.60098 3.80729,7.37894 8.56952,7.37894 7.86256,0 17.54825,-7.30453 17.54825,-14.84469 0,-4.43979 -3.57166,-7.37894 -8.65634,-7.37894 -9.68563,0 -17.46143,7.21772 -17.46143,14.84469"
     id="path446"
     inkscape:connector-curvature="0"
     style="stroke-width:0.79370099" />
  <path
     class="Note"
     d="m 1009.9697,332.32569 c 0,4.60098 3.8073,7.37894 8.5695,7.37894 7.8625,0 17.5482,-7.30453 17.5482,-14.84469 0,-4.43979 -3.5716,-7.37894 -8.6563,-7.37894 -9.6856,0 -17.4614,7.21772 -17.4614,14.84469"
     id="path448"
     inkscape:connector-curvature="0"
     style="stroke-width:0.79370099" />
  <path
     class="Note"
     d="m 1088.5797,322.40369 c 0,4.60098 3.8073,7.37894 8.5695,7.37894 7.8625,0 17.5482,-7.30453 17.5482,-14.84469 0,-4.43979 -3.5716,-7.37894 -8.6563,-7.37894 -9.6856,0 -17.4614,7.21772 -17.4614,14.84469"
     id="path450"
     inkscape:connector-curvature="0"
     style="stroke-width:0.79370099" />
  <path
     class="Note"
     d="m 1186.8497,362.08869 c 0,4.60098 3.8073,7.37894 8.5695,7.37894 7.8625,0 17.5482,-7.30453 17.5482,-14.84469 0,-4.43979 -3.5716,-7.37894 -8.6563,-7.37894 -9.6856,0 -17.4614,7.21772 -17.4614,14.84469"
     id="path452"
     inkscape:connector-curvature="0"
     style="stroke-width:0.79370099" />
  <path
     class="Note"
     d="m 1265.4597,322.40369 c 0,4.60098 3.8073,7.37894 8.5695,7.37894 7.8625,0 17.5482,-7.30453 17.5482,-14.84469 0,-4.43979 -3.5716,-7.37894 -8.6563,-7.37894 -9.6856,0 -17.4614,7.21772 -17.4614,14.84469"
     id="path454"
     inkscape:connector-curvature="0"
     style="stroke-width:0.79370099" />
  <path
     class="Note"
     d="m 1344.0697,342.24669 c 0,4.60098 3.8073,7.37894 8.5695,7.37894 7.8625,0 17.5482,-7.30453 17.5482,-14.84469 0,-4.43979 -3.5716,-7.37894 -8.6563,-7.37894 -9.6856,0 -17.4614,7.21772 -17.4614,14.84469"
     id="path456"
     inkscape:connector-curvature="0"
     style="stroke-width:0.79370099" />
  <path
     class="Note"
     d="m 1422.6797,322.40369 c 0,4.60098 3.8073,7.37894 8.5695,7.37894 7.8625,0 17.5482,-7.30453 17.5482,-14.84469 0,-4.43979 -3.5716,-7.37894 -8.6563,-7.37894 -9.6856,0 -17.4614,7.21772 -17.4614,14.84469"
     id="path458"
     inkscape:connector-curvature="0"
     style="stroke-width:0.79370099" />
  <path
     class="Note"
     d="m 1537.3997,362.08869 c 0,4.60098 3.8073,7.37894 8.5695,7.37894 7.8625,0 17.5482,-7.30453 17.5482,-14.84469 0,-4.43979 -3.5716,-7.37894 -8.6563,-7.37894 -9.6856,0 -17.4614,7.21772 -17.4614,14.84469"
     id="path460"
     inkscape:connector-curvature="0"
     style="stroke-width:0.79370099" />
  <path
     class="Note"
     d="m 1613.8097,312.48269 c 0,4.60098 3.8073,7.37894 8.5695,7.37894 7.8625,0 17.5482,-7.30453 17.5482,-14.84469 0,-4.43979 -3.5716,-7.37894 -8.6563,-7.37894 -9.6856,0 -17.4614,7.21772 -17.4614,14.84469"
     id="path462"
     inkscape:connector-curvature="0"
     style="stroke-width:0.79370099" />
  <path
     class="Note"
     d="m 1690.2197,332.32569 c 0,4.60098 3.8073,7.37894 8.5695,7.37894 7.8625,0 17.5482,-7.30453 17.5482,-14.84469 0,-4.43979 -3.5716,-7.37894 -8.6563,-7.37894 -9.6856,0 -17.4614,7.21772 -17.4614,14.84469"
     id="path464"
     inkscape:connector-curvature="0"
     style="stroke-width:0.79370099" />
  <path
     class="Note"
     d="m 1766.6297,312.48269 c 0,4.60098 3.8073,7.37894 8.5695,7.37894 7.8625,0 17.5482,-7.30453 17.5482,-14.84469 0,-4.43979 -3.5716,-7.37894 -8.6563,-7.37894 -9.6856,0 -17.4614,7.21772 -17.4614,14.84469"
     id="path466"
     inkscape:connector-curvature="0"
     style="stroke-width:0.79370099" />
  <path
     class="Note"
     d="m 1843.0297,362.08869 c 0,4.60098 3.8073,7.37894 8.5695,7.37894 7.8625,0 17.5482,-7.30453 17.5482,-14.84469 0,-4.43979 -3.5716,-7.37894 -8.6563,-7.37894 -9.6856,0 -17.4614,7.21772 -17.4614,14.84469"
     id="path468"
     inkscape:connector-curvature="0"
     style="stroke-width:0.79370099" />
  <path
     class="Note"
     d="m 1919.4397,322.40369 c 0,4.60098 3.8073,7.37894 8.5695,7.37894 7.8625,0 17.5482,-7.30453 17.5482,-14.84469 0,-4.43979 -3.5716,-7.37894 -8.6563,-7.37894 -9.6856,0 -17.4614,7.21772 -17.4614,14.84469"
     id="path470"
     inkscape:connector-curvature="0"
     style="stroke-width:0.79370099" />
  <path
     class="Note"
     d="m 1995.8497,342.24669 c 0,4.60098 3.8073,7.37894 8.5695,7.37894 7.8625,0 17.5482,-7.30453 17.5482,-14.84469 0,-4.43979 -3.5716,-7.37894 -8.6563,-7.37894 -9.6856,0 -17.4614,7.21772 -17.4614,14.84469"
     id="path472"
     inkscape:connector-curvature="0"
     style="stroke-width:0.79370099" />
  <path
     class="Note"
     d="m 2072.2497,322.40369 c 0,4.60098 3.8073,7.37894 8.5695,7.37894 7.8625,0 17.5482,-7.30453 17.5482,-14.84469 0,-4.43979 -3.5716,-7.37894 -8.6563,-7.37894 -9.6856,0 -17.4614,7.21772 -17.4614,14.84469"
     id="path474"
     inkscape:connector-curvature="0"
     style="stroke-width:0.79370099" />
  <path
     class="Note"
     d="m 2179.6097,372.01069 c 0,4.60098 3.8073,7.37894 8.5695,7.37894 7.8625,0 17.5482,-7.30453 17.5482,-14.84469 0,-4.43979 -3.5716,-7.37894 -8.6563,-7.37894 -9.6856,0 -17.4614,7.21772 -17.4614,14.84469"
     id="path476"
     inkscape:connector-curvature="0"
     style="stroke-width:0.79370099" />
  <path
     class="Note"
     d="m 2258.2297,322.40369 c 0,4.60098 3.8073,7.37894 8.5695,7.37894 7.8625,0 17.5482,-7.30453 17.5482,-14.84469 0,-4.43979 -3.5716,-7.37894 -8.6563,-7.37894 -9.6856,0 -17.4614,7.21772 -17.4614,14.84469"
     id="path478"
     inkscape:connector-curvature="0"
     style="stroke-width:0.79370099" />
  <path
     class="Note"
     d="m 2336.8397,352.16769 c 0,4.60098 3.8073,7.37894 8.5695,7.37894 7.8625,0 17.5482,-7.30453 17.5482,-14.84469 0,-4.43979 -3.5716,-7.37894 -8.6563,-7.37894 -9.6856,0 -17.4614,7.21772 -17.4614,14.84469"
     id="path480"
     inkscape:connector-curvature="0"
     style="stroke-width:0.79370099" />
  <path
     class="Note"
     d="m 2415.4497,322.40369 c 0,4.60098 3.8073,7.37894 8.5695,7.37894 7.8625,0 17.5482,-7.30453 17.5482,-14.84469 0,-4.43979 -3.5716,-7.37894 -8.6563,-7.37894 -9.6856,0 -17.4614,7.21772 -17.4614,14.84469"
     id="path482"
     inkscape:connector-curvature="0"
     style="stroke-width:0.79370099" />
  <path
     class="Note"
     d="m 2513.7097,362.08869 c 0,4.60098 3.8073,7.37894 8.5695,7.37894 7.8625,0 17.5482,-7.30453 17.5482,-14.84469 0,-4.43979 -3.5716,-7.37894 -8.6563,-7.37894 -9.6856,0 -17.4614,7.21772 -17.4614,14.84469"
     id="path484"
     inkscape:connector-curvature="0"
     style="stroke-width:0.79370099" />
  <path
     class="Note"
     d="m 2592.3197,322.40369 c 0,4.60098 3.8073,7.37894 8.5695,7.37894 7.8625,0 17.5482,-7.30453 17.5482,-14.84469 0,-4.43979 -3.5716,-7.37894 -8.6563,-7.37894 -9.6856,0 -17.4614,7.21772 -17.4614,14.84469"
     id="path486"
     inkscape:connector-curvature="0"
     style="stroke-width:0.79370099" />
  <path
     class="Note"
     d="m 2670.9297,342.24669 c 0,4.60098 3.8073,7.37894 8.5695,7.37894 7.8625,0 17.5482,-7.30453 17.5482,-14.84469 0,-4.43979 -3.5716,-7.37894 -8.6563,-7.37894 -9.6856,0 -17.4614,7.21772 -17.4614,14.84469"
     id="path488"
     inkscape:connector-curvature="0"
     style="stroke-width:0.79370099" />
  <path
     class="Note"
     d="m 2749.5397,322.40369 c 0,4.60098 3.8073,7.37894 8.5695,7.37894 7.8625,0 17.5482,-7.30453 17.5482,-14.84469 0,-4.43979 -3.5716,-7.37894 -8.6563,-7.37894 -9.6856,0 -17.4614,7.21772 -17.4614,14.84469"
     id="path490"
     inkscape:connector-curvature="0"
     style="stroke-width:0.79370099" />
  <path
     class="Note"
     d="m 217.12519,91.672628 c 14.60901,0 17.54825,-11.905515 17.54825,-14.757878 0,-4.526596 -3.57166,-7.46575 -8.73071,-7.46575 -13.25733,0 -17.38706,10.243704 -17.38706,14.844693 0,4.675431 3.73288,7.378935 8.56952,7.378935 m -5.95278,-7.217718 c 0,-4.290946 12.78606,-11.359846 16.99014,-11.359846 1.66185,0 2.61675,0.793701 3.24925,1.909843 0.24803,0.47126 0.48368,1.029327 0.48368,1.661811 0,1.748619 -1.82305,3.894096 -8.02384,7.93701 -3.9685,2.703545 -6.74645,3.65847 -8.64392,3.65847 -1.83543,0 -2.93917,-0.954925 -3.49724,-2.071068 -0.32244,-0.471259 -0.55807,-1.103736 -0.55807,-1.73622"
     id="path492"
     inkscape:connector-curvature="0"
     style="stroke-width:0.79370099" />
  <path
     class="Note"
     d="m 514.18367,64.451693 c 0,4.600981 3.80729,7.378935 8.56952,7.378935 7.86256,0 17.54825,-7.304526 17.54825,-14.844693 0,-4.439781 -3.57166,-7.378935 -8.65634,-7.378935 -9.68563,0 -17.46143,7.217718 -17.46143,14.844693"
     id="path494"
     inkscape:connector-curvature="0"
     style="stroke-width:0.79370099" />
  <path
     class="Note"
     d="m 666.99667,44.608693 c 0,4.600981 3.80729,7.378935 8.56952,7.378935 7.86256,0 17.54825,-7.304526 17.54825,-14.844693 0,-4.439781 -3.57166,-7.378935 -8.65634,-7.378935 -9.68563,0 -17.46143,7.217718 -17.46143,14.844693"
     id="path496"
     inkscape:connector-curvature="0"
     style="stroke-width:0.79370099" />
  <path
     class="Note"
     d="m 852.74967,94.214693 c 0,4.600982 3.80729,7.378937 8.56952,7.378937 7.86256,0 17.54825,-7.304528 17.54825,-14.844695 0,-4.439781 -3.57166,-7.378935 -8.65634,-7.378935 -9.68563,0 -17.46143,7.217718 -17.46143,14.844693"
     id="path498"
     inkscape:connector-curvature="0"
     style="stroke-width:0.79370099" />
  <path
     class="Note"
     d="m 1088.5797,84.293693 c 0,4.600982 3.8073,7.378935 8.5695,7.378935 7.8625,0 17.5482,-7.304526 17.5482,-14.844693 0,-4.439781 -3.5716,-7.378935 -8.6563,-7.378935 -9.6856,0 -17.4614,7.217718 -17.4614,14.844693"
     id="path500"
     inkscape:connector-curvature="0"
     style="stroke-width:0.79370099" />
  <path
     class="Note"
     d="m 1137.7097,74.372693 c 0,4.600982 3.8073,7.378935 8.5695,7.378935 7.8625,0 17.5482,-7.304526 17.5482,-14.844693 0,-4.439781 -3.5716,-7.378935 -8.6563,-7.378935 -9.6856,0 -17.4614,7.217718 -17.4614,14.844693"
     id="path502"
     inkscape:connector-curvature="0"
     style="stroke-width:0.79370099" />
  <path
     class="Note"
     d="m 1186.8497,84.293693 c 0,4.600982 3.8073,7.378935 8.5695,7.378935 7.8625,0 17.5482,-7.304526 17.5482,-14.844693 0,-4.439781 -3.5716,-7.378935 -8.6563,-7.378935 -9.6856,0 -17.4614,7.217718 -17.4614,14.844693"
     id="path504"
     inkscape:connector-curvature="0"
     style="stroke-width:0.79370099" />
  <path
     class="Note"
     d="m 1545.9692,42.066628 c 14.609,0 17.5482,-11.905515 17.5482,-14.757878 0,-4.526596 -3.5716,-7.46575 -8.7307,-7.46575 -13.2573,0 -17.387,10.243704 -17.387,14.844693 0,4.675431 3.7329,7.378935 8.5695,7.378935 m -5.9528,-7.217718 c 0,-4.290946 12.7861,-11.359846 16.9902,-11.359846 1.6618,0 2.6167,0.793701 3.2492,1.909843 0.248,0.47126 0.4837,1.029327 0.4837,1.661811 0,1.748619 -1.8231,3.894096 -8.0239,7.93701 -3.9685,2.703545 -6.7464,3.65847 -8.6439,3.65847 -1.8354,0 -2.9391,-0.954925 -3.4972,-2.071068 -0.3225,-0.471259 -0.5581,-1.103736 -0.5581,-1.73622"
     id="path506"
     inkscape:connector-curvature="0"
     style="stroke-width:0.79370099" />
  <path
     class="Note"
     d="m 1843.0297,44.608693 c 0,4.600981 3.8073,7.378935 8.5695,7.378935 7.8625,0 17.5482,-7.304526 17.5482,-14.844693 0,-4.439781 -3.5716,-7.378935 -8.6563,-7.378935 -9.6856,0 -17.4614,7.217718 -17.4614,14.844693"
     id="path508"
     inkscape:connector-curvature="0"
     style="stroke-width:0.79370099" />
  <path
     class="Note"
     d="m 1995.8497,14.844693 c 0,4.600981 3.8073,7.378935 8.5695,7.378935 7.8625,0 17.5482,-7.304526 17.5482,-14.844693 C 2021.9674,2.9391542 2018.3958,0 2013.3111,0 c -9.6856,0 -17.4614,7.2177185 -17.4614,14.844693"
     id="path510"
     inkscape:connector-curvature="0"
     style="stroke-width:0.79370099" />
  <path
     class="Note"
     d="m 2179.6097,44.608693 c 0,4.600981 3.8073,7.378935 8.5695,7.378935 7.8625,0 17.5482,-7.304526 17.5482,-14.844693 0,-4.439781 -3.5716,-7.378935 -8.6563,-7.378935 -9.6856,0 -17.4614,7.217718 -17.4614,14.844693"
     id="path512"
     inkscape:connector-curvature="0"
     style="stroke-width:0.79370099" />
  <path
     class="Note"
     d="m 2336.8397,54.529693 c 0,4.600982 3.8073,7.378935 8.5695,7.378935 7.8625,0 17.5482,-7.304526 17.5482,-14.844693 0,-4.439781 -3.5716,-7.378935 -8.6563,-7.378935 -9.6856,0 -17.4614,7.217718 -17.4614,14.844693"
     id="path514"
     inkscape:connector-curvature="0"
     style="stroke-width:0.79370099" />
  <path
     class="Note"
     d="m 2415.4497,64.451693 c 0,4.600981 3.8073,7.378935 8.5695,7.378935 7.8625,0 17.5482,-7.304526 17.5482,-14.844693 0,-4.439781 -3.5716,-7.378935 -8.6563,-7.378935 -9.6856,0 -17.4614,7.217718 -17.4614,14.844693"
     id="path516"
     inkscape:connector-curvature="0"
     style="stroke-width:0.79370099" />
  <path
     class="Note"
     d="m 2464.5797,54.529693 c 0,4.600982 3.8073,7.378935 8.5695,7.378935 7.8625,0 17.5482,-7.304526 17.5482,-14.844693 0,-4.439781 -3.5716,-7.378935 -8.6563,-7.378935 -9.6856,0 -17.4614,7.217718 -17.4614,14.844693"
     id="path518"
     inkscape:connector-curvature="0"
     style="stroke-width:0.79370099" />
  <path
     class="Note"
     d="m 2513.7097,64.451693 c 0,4.600981 3.8073,7.378935 8.5695,7.378935 7.8625,0 17.5482,-7.304526 17.5482,-14.844693 0,-4.439781 -3.5716,-7.378935 -8.6563,-7.378935 -9.6856,0 -17.4614,7.217718 -17.4614,14.844693"
     id="path520"
     inkscape:connector-curvature="0"
     style="stroke-width:0.79370099" />
  <path
     class="Clef"
     d="m 78.314392,874.41854 c 1.822972,0 3.881674,-0.1612 5.469076,-0.4836 0.880532,-0.14882 1.041732,-0.23565 1.190551,0.71925 0.954902,5.32026 2.145453,12.228 2.145453,15.96085 0,11.74431 -7.93701,13.17044 -12.612385,13.17044 -4.290985,0 -6.36199,-1.26492 -6.36199,-2.30666 0,-0.54567 0.719252,-0.7937 2.542304,-1.33937 2.467934,-0.71933 5.320257,-2.86478 5.320257,-7.46579 0,-4.36535 -2.777953,-8.09821 -7.614529,-8.09821 -5.320336,0 -8.49514,4.20416 -8.49514,9.12756 0,5.15906 3.088052,12.93487 15.080319,12.93487 5.320336,0 15.638449,-2.3811 15.638449,-15.87402 0,-4.51418 -1.426201,-12.05433 -2.306733,-16.97774 -0.161201,-0.95498 -0.07437,-0.88053 1.029351,-1.35183 8.023841,-3.17481 13.344095,-9.92127 13.344095,-18.88759 0,-10.16933 -7.465787,-19.13561 -19.135652,-19.13561 -2.058622,0 -2.058622,0 -2.294272,-1.4262 l -1.984253,-11.50867 c -0.1612,-0.9549 0,-1.02935 0.471221,-1.51303 8.56951,-8.01138 15.080319,-18.09384 15.080319,-30.23501 0,-6.90766 -1.909804,-13.74095 -5.159057,-18.50355 -1.190551,-1.73582 -3.249174,-3.9685 -4.129706,-3.9685 -1.10372,0 -3.571654,2.07156 -5.159056,3.82008 -5.865927,6.49843 -7.775809,16.41969 -7.775809,24.6791 0,4.60101 0.55813,9.76006 1.116181,13.0217 0.148819,0.9549 0.23565,1.10372 -0.719331,1.89742 -11.434215,9.45004 -23.57538,20.79742 -23.57538,36.8327 0,13.81537 9.450042,26.91141 28.895717,26.91141 M 55.768283,852.82741 c 0,-4.68779 0.793701,-10.95061 7.378959,-18.41632 4.762206,-5.32034 8.420691,-8.25949 12.153546,-11.2731 0.793701,-0.63242 0.94252,-0.55805 1.103721,0.32249 l 1.674233,10.15691 c 0.23565,1.51295 0.23565,1.42612 -1.190552,1.9098 -6.99449,2.3811 -11.521046,8.64388 -11.521046,15.39038 0,7.14331 3.732855,12.22796 9.139943,14.05101 0.632501,0.23565 1.587402,0.48368 2.133072,0.48368 0.644882,0 0.954901,-0.39685 0.954901,-0.88053 0,-0.55805 -0.6325,-0.7937 -1.190551,-1.02935 -3.336005,-1.42618 -5.717108,-4.83662 -5.717108,-8.49509 0,-4.52657 3.100355,-7.93701 7.93701,-9.28882 1.277383,-0.31002 1.438583,-0.23557 1.587402,0.64488 l 3.968505,23.64983 c 0.161201,0.86815 0.08683,0.86815 -1.10372,1.1038 -1.277383,0.24804 -2.864785,0.39685 -4.452187,0.39685 -13.889767,0 -22.856128,-7.68897 -22.856128,-18.72642 m 30.954339,-73.26852 c 2.616753,0 4.762206,2.14545 4.762206,6.51081 0,8.81754 -7.54016,15.96085 -13.802937,21.42992 -0.558051,0.48369 -0.880532,0.39685 -1.041732,-0.6325 -0.31002,-2.05862 -0.4713,-4.7622 -0.4713,-7.30451 0,-12.37673 5.717187,-20.00372 10.553763,-20.00372 m -2.294272,65.56716 c 6.423978,0.55805 11.744314,5.95274 11.744314,12.93483 0,5.01028 -3.013603,9.05315 -7.46579,11.27305 -0.954901,0.48368 -1.10372,0.48368 -1.264921,-0.4713 l -3.894135,-22.62048 c -0.161201,-0.9549 -0.07437,-1.19055 0.880532,-1.1161"
     id="path524"
     inkscape:connector-curvature="0"
     style="stroke-width:0.79370099" />
  <path
     class="Clef"
     d="m 78.314392,666.07854 c 1.822972,0 3.881674,-0.1612 5.469076,-0.4836 0.880532,-0.14882 1.041732,-0.23565 1.190551,0.71925 0.954902,5.32026 2.145453,12.228 2.145453,15.96085 0,11.74431 -7.93701,13.17044 -12.612385,13.17044 -4.290985,0 -6.36199,-1.26492 -6.36199,-2.30666 0,-0.54567 0.719252,-0.7937 2.542304,-1.33937 2.467934,-0.71933 5.320257,-2.86478 5.320257,-7.46579 0,-4.36535 -2.777953,-8.09821 -7.614529,-8.09821 -5.320336,0 -8.49514,4.20416 -8.49514,9.12756 0,5.15906 3.088052,12.93487 15.080319,12.93487 5.320336,0 15.638449,-2.3811 15.638449,-15.87402 0,-4.51418 -1.426201,-12.05433 -2.306733,-16.97774 -0.161201,-0.95498 -0.07437,-0.88053 1.029351,-1.35183 8.023841,-3.17481 13.344095,-9.92127 13.344095,-18.88759 0,-10.16933 -7.465787,-19.13561 -19.135652,-19.13561 -2.058622,0 -2.058622,0 -2.294272,-1.4262 l -1.984253,-11.50867 c -0.1612,-0.9549 0,-1.02935 0.471221,-1.51303 8.56951,-8.01138 15.080319,-18.09384 15.080319,-30.23501 0,-6.90766 -1.909804,-13.74095 -5.159057,-18.50355 -1.190551,-1.73582 -3.249174,-3.9685 -4.129706,-3.9685 -1.10372,0 -3.571654,2.07156 -5.159056,3.82008 -5.865927,6.49843 -7.775809,16.41969 -7.775809,24.6791 0,4.60101 0.55813,9.76006 1.116181,13.0217 0.148819,0.9549 0.23565,1.10372 -0.719331,1.89742 -11.434215,9.45004 -23.57538,20.79742 -23.57538,36.8327 0,13.81537 9.450042,26.91141 28.895717,26.91141 M 55.768283,644.48741 c 0,-4.68779 0.793701,-10.95061 7.378959,-18.41632 4.762206,-5.32034 8.420691,-8.25949 12.153546,-11.2731 0.793701,-0.63242 0.94252,-0.55805 1.103721,0.32249 l 1.674233,10.15691 c 0.23565,1.51295 0.23565,1.42612 -1.190552,1.9098 -6.99449,2.3811 -11.521046,8.64388 -11.521046,15.39038 0,7.14331 3.732855,12.22796 9.139943,14.05101 0.632501,0.23565 1.587402,0.48368 2.133072,0.48368 0.644882,0 0.954901,-0.39685 0.954901,-0.88053 0,-0.55805 -0.6325,-0.7937 -1.190551,-1.02935 -3.336005,-1.42618 -5.717108,-4.83662 -5.717108,-8.49509 0,-4.52657 3.100355,-7.93701 7.93701,-9.28882 1.277383,-0.31002 1.438583,-0.23557 1.587402,0.64488 l 3.968505,23.64983 c 0.161201,0.86815 0.08683,0.86815 -1.10372,1.1038 -1.277383,0.24804 -2.864785,0.39685 -4.452187,0.39685 -13.889767,0 -22.856128,-7.68897 -22.856128,-18.72642 m 30.954339,-73.26852 c 2.616753,0 4.762206,2.14545 4.762206,6.51081 0,8.81754 -7.54016,15.96085 -13.802937,21.42992 -0.558051,0.48369 -0.880532,0.39685 -1.041732,-0.6325 -0.31002,-2.05862 -0.4713,-4.7622 -0.4713,-7.30451 0,-12.37673 5.717187,-20.00372 10.553763,-20.00372 m -2.294272,65.56716 c 6.423978,0.55805 11.744314,5.95274 11.744314,12.93483 0,5.01028 -3.013603,9.05315 -7.46579,11.27305 -0.954901,0.48368 -1.10372,0.48368 -1.264921,-0.4713 l -3.894135,-22.62048 c -0.161201,-0.9549 -0.07437,-1.19055 0.880532,-1.1161"
     id="path526"
     inkscape:connector-curvature="0"
     style="stroke-width:0.79370099" />
  <path
     class="Clef"
     d="m 78.314392,338.67454 c 1.822972,0 3.881674,-0.1612 5.469076,-0.4836 0.880532,-0.14882 1.041732,-0.23565 1.190551,0.71925 0.954902,5.32026 2.145453,12.228 2.145453,15.96085 0,11.74431 -7.93701,13.17044 -12.612385,13.17044 -4.290985,0 -6.36199,-1.26492 -6.36199,-2.30666 0,-0.54567 0.719252,-0.7937 2.542304,-1.33937 2.467934,-0.71933 5.320257,-2.86478 5.320257,-7.46579 0,-4.36535 -2.777953,-8.09821 -7.614529,-8.09821 -5.320336,0 -8.49514,4.20416 -8.49514,9.12756 0,5.15906 3.088052,12.93487 15.080319,12.93487 5.320336,0 15.638449,-2.3811 15.638449,-15.87402 0,-4.51418 -1.426201,-12.05433 -2.306733,-16.97774 -0.161201,-0.95498 -0.07437,-0.88053 1.029351,-1.35183 8.023841,-3.17481 13.344095,-9.92127 13.344095,-18.88759 0,-10.16933 -7.465787,-19.13561 -19.135652,-19.13561 -2.058622,0 -2.058622,0 -2.294272,-1.4262 l -1.984253,-11.50867 c -0.1612,-0.9549 0,-1.02935 0.471221,-1.51303 8.56951,-8.01138 15.080319,-18.09384 15.080319,-30.23501 0,-6.90766 -1.909804,-13.74095 -5.159057,-18.50355 -1.190551,-1.73582 -3.249174,-3.9685 -4.129706,-3.9685 -1.10372,0 -3.571654,2.07156 -5.159056,3.82008 -5.865927,6.49843 -7.775809,16.41969 -7.775809,24.6791 0,4.60101 0.55813,9.76006 1.116181,13.0217 0.148819,0.9549 0.23565,1.10372 -0.719331,1.89742 -11.434215,9.45004 -23.57538,20.79742 -23.57538,36.8327 0,13.81537 9.450042,26.91141 28.895717,26.91141 M 55.768283,317.08341 c 0,-4.68779 0.793701,-10.95061 7.378959,-18.41632 4.762206,-5.32034 8.420691,-8.25949 12.153546,-11.2731 0.793701,-0.63242 0.94252,-0.55805 1.103721,0.32249 l 1.674233,10.15691 c 0.23565,1.51295 0.23565,1.42612 -1.190552,1.9098 -6.99449,2.3811 -11.521046,8.64388 -11.521046,15.39038 0,7.14331 3.732855,12.22796 9.139943,14.05101 0.632501,0.23565 1.587402,0.48368 2.133072,0.48368 0.644882,0 0.954901,-0.39685 0.954901,-0.88053 0,-0.55805 -0.6325,-0.7937 -1.190551,-1.02935 -3.336005,-1.42618 -5.717108,-4.83662 -5.717108,-8.49509 0,-4.52657 3.100355,-7.93701 7.93701,-9.28882 1.277383,-0.31002 1.438583,-0.23557 1.587402,0.64488 l 3.968505,23.64983 c 0.161201,0.86815 0.08683,0.86815 -1.10372,1.1038 -1.277383,0.24804 -2.864785,0.39685 -4.452187,0.39685 -13.889767,0 -22.856128,-7.68897 -22.856128,-18.72642 m 30.954339,-73.26852 c 2.616753,0 4.762206,2.14545 4.762206,6.51081 0,8.81754 -7.54016,15.96085 -13.802937,21.42992 -0.558051,0.48369 -0.880532,0.39685 -1.041732,-0.6325 -0.31002,-2.05862 -0.4713,-4.7622 -0.4713,-7.30451 0,-12.37673 5.717187,-20.00372 10.553763,-20.00372 m -2.294272,65.56716 c 6.423978,0.55805 11.744314,5.95274 11.744314,12.93483 0,5.01028 -3.013603,9.05315 -7.46579,11.27305 -0.954901,0.48368 -1.10372,0.48368 -1.264921,-0.4713 l -3.894135,-22.62048 c -0.161201,-0.9549 -0.07437,-1.19055 0.880532,-1.1161"
     id="path528"
     inkscape:connector-curvature="0"
     style="stroke-width:0.79370099" />
  <path
     class="Clef"
     d="m 78.314392,130.32854 c 1.822972,0 3.881674,-0.1612 5.469076,-0.4836 0.880532,-0.14882 1.041732,-0.23565 1.190551,0.71925 0.954902,5.32026 2.145453,12.228 2.145453,15.96085 0,11.74431 -7.93701,13.17044 -12.612385,13.17044 -4.290985,0 -6.36199,-1.26492 -6.36199,-2.30666 0,-0.54567 0.719252,-0.7937 2.542304,-1.33937 2.467934,-0.71933 5.320257,-2.86478 5.320257,-7.46579 0,-4.36535 -2.777953,-8.09821 -7.614529,-8.09821 -5.320336,0 -8.49514,4.20416 -8.49514,9.12756 0,5.15906 3.088052,12.93487 15.080319,12.93487 5.320336,0 15.638449,-2.3811 15.638449,-15.87402 0,-4.51418 -1.426201,-12.05433 -2.306733,-16.97774 -0.161201,-0.95498 -0.07437,-0.88053 1.029351,-1.35183 8.023841,-3.17481 13.344095,-9.92127 13.344095,-18.88759 0,-10.16933 -7.465787,-19.135612 -19.135652,-19.135612 -2.058622,0 -2.058622,0 -2.294272,-1.426201 L 79.269293,77.386222 c -0.1612,-0.954901 0,-1.02935 0.471221,-1.513032 8.56951,-8.01138 15.080319,-18.093843 15.080319,-30.235008 0,-6.907659 -1.909804,-13.740948 -5.159057,-18.503551 -1.190551,-1.735824 -3.249174,-3.968505 -4.129706,-3.968505 -1.10372,0 -3.571654,2.07156 -5.159056,3.820083 -5.865927,6.498427 -7.775809,16.419689 -7.775809,24.679101 0,4.601005 0.55813,9.760062 1.116181,13.021696 0.148819,0.954902 0.23565,1.103721 -0.719331,1.897422 -11.434215,9.450042 -23.57538,20.797427 -23.57538,36.832702 0,13.81537 9.450042,26.91141 28.895717,26.91141 M 55.768283,108.73741 c 0,-4.68779 0.793701,-10.950611 7.378959,-18.416322 4.762206,-5.320336 8.420691,-8.25949 12.153546,-11.273094 0.793701,-0.632421 0.94252,-0.558051 1.103721,0.322481 l 1.674233,10.156912 c 0.23565,1.512953 0.23565,1.426122 -1.190552,1.909804 -6.99449,2.381103 -11.521046,8.643879 -11.521046,15.390379 0,7.14331 3.732855,12.22795 9.139943,14.05101 0.632501,0.23565 1.587402,0.48368 2.133072,0.48368 0.644882,0 0.954901,-0.39685 0.954901,-0.88053 0,-0.55805 -0.6325,-0.7937 -1.190551,-1.02935 -3.336005,-1.42618 -5.717108,-4.83662 -5.717108,-8.49509 0,-4.52657 3.100355,-7.93701 7.93701,-9.28882 1.277383,-0.31002 1.438583,-0.23557 1.587402,0.64488 l 3.968505,23.64983 c 0.161201,0.86815 0.08683,0.86815 -1.10372,1.1038 -1.277383,0.24804 -2.864785,0.39685 -4.452187,0.39685 -13.889767,0 -22.856128,-7.68897 -22.856128,-18.72642 M 86.722622,35.468888 c 2.616753,0 4.762206,2.145454 4.762206,6.510809 0,8.817542 -7.54016,15.960851 -13.802937,21.429927 -0.558051,0.483681 -0.880532,0.396851 -1.041732,-0.6325 -0.31002,-2.058623 -0.4713,-4.762206 -0.4713,-7.30451 0,-12.376735 5.717187,-20.003726 10.553763,-20.003726 M 84.42835,101.03605 c 6.423978,0.55805 11.744314,5.95274 11.744314,12.93483 0,5.01028 -3.013603,9.05315 -7.46579,11.27305 -0.954901,0.48368 -1.10372,0.48368 -1.264921,-0.4713 l -3.894135,-22.62048 c -0.161201,-0.9549 -0.07437,-1.19055 0.880532,-1.1161"
     id="path530"
     inkscape:connector-curvature="0"
     style="stroke-width:0.79370099" />
  <path
     class="TimeSig"
     d="m 127.67858,849.02263 c 3.01361,3.64611 7.37896,5.32034 12.14117,5.32034 13.88976,0 15.96085,-12.62485 15.96085,-14.93154 0,-1.73622 -0.88053,-1.73622 -1.19055,-1.73622 -0.6325,0 -1.19056,0.0744 -1.19056,1.42618 0,10.23134 -8.73071,12.61244 -11.27309,12.61244 -6.43636,0 -9.84681,-6.26285 -9.84681,-19.3589 0,-13.09608 6.03959,-15.79959 10.31811,-15.79959 4.12971,0 5.80394,1.9098 5.80394,2.70351 0,0.70687 -0.24803,1.7486 -1.43858,1.7486 -3.17481,0 -4.99786,3.41045 -4.99786,5.86598 0,4.52658 3.89414,5.95276 6.11396,5.95276 0,0 6.0272,-0.23563 6.0272,-6.82089 0,-10.40494 -11.97996,-11.34746 -13.49291,-11.34746 -11.27306,0 -18.09392,9.99571 -18.09392,20.71068 0,5.15905 1.90984,9.68561 5.15905,13.65411"
     id="path534"
     inkscape:connector-curvature="0"
     style="stroke-width:0.79370099" />
  <path
     class="TimeSig"
     d="m 127.67858,640.67763 c 3.01361,3.64611 7.37896,5.32034 12.14117,5.32034 13.88976,0 15.96085,-12.62485 15.96085,-14.93154 0,-1.73622 -0.88053,-1.73622 -1.19055,-1.73622 -0.6325,0 -1.19056,0.0744 -1.19056,1.42618 0,10.23134 -8.73071,12.61244 -11.27309,12.61244 -6.43636,0 -9.84681,-6.26285 -9.84681,-19.3589 0,-13.09608 6.03959,-15.79959 10.31811,-15.79959 4.12971,0 5.80394,1.9098 5.80394,2.70351 0,0.70687 -0.24803,1.7486 -1.43858,1.7486 -3.17481,0 -4.99786,3.41045 -4.99786,5.86598 0,4.52658 3.89414,5.95276 6.11396,5.95276 0,0 6.0272,-0.23563 6.0272,-6.82089 0,-10.40494 -11.97996,-11.34746 -13.49291,-11.34746 -11.27306,0 -18.09392,9.99571 -18.09392,20.71068 0,5.15905 1.90984,9.68561 5.15905,13.65411"
     id="path536"
     inkscape:connector-curvature="0"
     style="stroke-width:0.79370099" />
  <path
     class="TimeSig"
     d="m 127.67858,313.27663 c 3.01361,3.64611 7.37896,5.32034 12.14117,5.32034 13.88976,0 15.96085,-12.62485 15.96085,-14.93154 0,-1.73622 -0.88053,-1.73622 -1.19055,-1.73622 -0.6325,0 -1.19056,0.0744 -1.19056,1.42618 0,10.23134 -8.73071,12.61244 -11.27309,12.61244 -6.43636,0 -9.84681,-6.26285 -9.84681,-19.3589 0,-13.09608 6.03959,-15.79959 10.31811,-15.79959 4.12971,0 5.80394,1.9098 5.80394,2.70351 0,0.70687 -0.24803,1.7486 -1.43858,1.7486 -3.17481,0 -4.99786,3.41045 -4.99786,5.86598 0,4.52658 3.89414,5.95276 6.11396,5.95276 0,0 6.0272,-0.23563 6.0272,-6.82089 0,-10.40494 -11.97996,-11.34746 -13.49291,-11.34746 -11.27306,0 -18.09392,9.99571 -18.09392,20.71068 0,5.15905 1.90984,9.68561 5.15905,13.65411"
     id="path538"
     inkscape:connector-curvature="0"
     style="stroke-width:0.79370099" />
  <path
     class="TimeSig"
     d="m 127.67858,104.92963 c 3.01361,3.64611 7.37896,5.32034 12.14117,5.32034 13.88976,0 15.96085,-12.624847 15.96085,-14.931541 0,-1.73622 -0.88053,-1.73622 -1.19055,-1.73622 -0.6325,0 -1.19056,0.07441 -1.19056,1.426185 0,10.231336 -8.73071,12.612436 -11.27309,12.612436 -6.43636,0 -9.84681,-6.26285 -9.84681,-19.358902 0,-13.096083 6.03959,-15.799587 10.31811,-15.799587 4.12971,0 5.80394,1.909803 5.80394,2.703504 0,0.70687 -0.24803,1.748603 -1.43858,1.748603 -3.17481,0 -4.99786,3.410454 -4.99786,5.865982 0,4.52658 3.89414,5.952758 6.11396,5.952758 0,0 6.0272,-0.235626 6.0272,-6.820884 0,-10.404944 -11.97996,-11.347464 -13.49291,-11.347464 -11.27306,0 -18.09392,9.995712 -18.09392,20.710675 0,5.159057 1.90984,9.685615 5.15905,13.654115"
     id="path540"
     inkscape:connector-curvature="0"
     style="stroke-width:0.79370099" />
  <path
     class="Rest"
     d="m 1353.3584,655.28673 c 0.6325,0.47122 1.4262,0.70687 2.0587,0.70687 0.5581,0 1.1161,-0.1612 1.1906,-0.47122 0.087,-0.23565 0.1612,-0.39685 0.1612,-0.55813 0,-0.71925 -0.6325,-1.35175 -1.2649,-1.9098 -1.0418,0 -1.9099,-2.13307 -2.0711,-2.85241 -0.2357,-0.63242 -0.31,-1.35175 -0.31,-2.05862 0,-3.26163 1.6617,-5.80394 4.9977,-5.80394 2.2944,0 4.9235,0.88054 6.1885,1.35176 0.087,0 0.1612,0.0744 0.2356,0.0744 0.248,0.0868 0.3969,0.0868 0.5581,0.0868 0.2356,0 0.3968,-0.0868 0.3968,-0.3224 0,-0.95491 -2.0586,-3.57166 -2.9392,-4.52656 -3.0136,-3.6461 -5.469,-6.58527 -5.469,-11.02504 0,-0.32244 0.074,-0.71929 0.074,-1.02933 0.3225,-4.61339 3.1748,-8.42068 5.2335,-11.66991 0.2481,-0.39685 0.3224,-0.7937 0.3224,-1.19055 0,-0.7937 -0.3224,-1.51295 -0.3224,-1.51295 0,0 -11.7443,-13.96422 -13.0961,-15.31597 -0.3968,-0.39685 -0.9425,-0.6325 -1.4261,-0.6325 -0.7937,0 -1.5874,0.54567 -1.5874,1.66185 0,0.39685 0.087,0.7937 0.3224,1.26492 0.31,0.88053 4.8366,4.92341 4.8366,10.64059 0,2.93916 -1.1905,6.34961 -4.7622,10.08247 -0.7937,0.7937 -1.1037,1.66181 -1.1037,2.30669 0,1.10374 0.7937,1.89744 0.7937,1.89744 l 3.8817,4.76221 c 1.2773,1.5874 2.3811,3.1004 3.4104,4.76221 0.1612,0.32241 0.4836,0.95492 0.4836,1.11612 0,0.0744 0,0.23565 -0.087,0.31009 -0.1488,0.32241 -0.4713,0.39686 -0.8682,0.39686 -0.3224,0 -0.9549,-0.14882 -1.2649,-0.23565 -0.3969,0 -0.8805,-0.23565 -1.2774,-0.23565 -3.4104,0 -6.5108,3.41045 -6.5108,7.6146 0,3.98089 3.4228,7.86257 9.2143,12.31475"
     id="path542"
     inkscape:connector-curvature="0"
     style="stroke-width:0.79370099" />
  <path
     class="Rest"
     d="m 1353.3584,119.53873 c 0.6325,0.47122 1.4262,0.70687 2.0587,0.70687 0.5581,0 1.1161,-0.1612 1.1906,-0.47122 0.087,-0.23565 0.1612,-0.39685 0.1612,-0.55813 0,-0.71925 -0.6325,-1.35175 -1.2649,-1.9098 -1.0418,0 -1.9099,-2.13307 -2.0711,-2.85241 -0.2357,-0.63242 -0.31,-1.35175 -0.31,-2.05862 0,-3.26163 1.6617,-5.80394 4.9977,-5.80394 2.2944,0 4.9235,0.88054 6.1885,1.35176 0.087,0 0.1612,0.0744 0.2356,0.0744 0.248,0.0867 0.3969,0.0867 0.5581,0.0867 0.2356,0 0.3968,-0.0867 0.3968,-0.3224 0,-0.95491 -2.0586,-3.57166 -2.9392,-4.52656 -3.0136,-3.646104 -5.469,-6.585275 -5.469,-11.02504 0,-0.322441 0.074,-0.719291 0.074,-1.029334 0.3225,-4.613388 3.1748,-8.420676 5.2335,-11.669905 0.2481,-0.396851 0.3224,-0.793701 0.3224,-1.190552 0,-0.793701 -0.3224,-1.512953 -0.3224,-1.512953 0,0 -11.7443,-13.964216 -13.0961,-15.315968 -0.3968,-0.396851 -0.9425,-0.632501 -1.4261,-0.632501 -0.7937,0 -1.5874,0.54567 -1.5874,1.661851 0,0.396851 0.087,0.793701 0.3224,1.264922 0.31,0.880532 4.8366,4.923406 4.8366,10.640593 0,2.939155 -1.1905,6.349608 -4.7622,10.082464 -0.7937,0.793701 -1.1037,1.661811 -1.1037,2.306693 0,1.103737 0.7937,1.897438 0.7937,1.897438 l 3.8817,4.762213 c 1.2773,1.587402 2.3811,3.100395 3.4104,4.762206 0.1612,0.322418 0.4836,0.954918 0.4836,1.116119 0,0.07445 0,0.23565 -0.087,0.310099 -0.1488,0.322405 -0.4713,0.396855 -0.8682,0.396855 -0.3224,0 -0.9549,-0.148824 -1.2649,-0.235655 -0.3969,0 -0.8805,-0.235649 -1.2774,-0.235649 -3.4104,0 -6.5108,3.410454 -6.5108,7.614604 0,3.98089 3.4228,7.86257 9.2143,12.31475"
     id="path544"
     inkscape:connector-curvature="0"
     style="stroke-width:0.79370099" />
  <path
     class="Rest"
     d="m 2680.2184,119.53873 c 0.6325,0.47122 1.4262,0.70687 2.0587,0.70687 0.5581,0 1.1161,-0.1612 1.1906,-0.47122 0.087,-0.23565 0.1612,-0.39685 0.1612,-0.55813 0,-0.71925 -0.6325,-1.35175 -1.2649,-1.9098 -1.0418,0 -1.9099,-2.13307 -2.0711,-2.85241 -0.2357,-0.63242 -0.31,-1.35175 -0.31,-2.05862 0,-3.26163 1.6617,-5.80394 4.9977,-5.80394 2.2944,0 4.9235,0.88054 6.1885,1.35176 0.087,0 0.1612,0.0744 0.2356,0.0744 0.248,0.0867 0.3969,0.0867 0.5581,0.0867 0.2356,0 0.3968,-0.0867 0.3968,-0.3224 0,-0.95491 -2.0586,-3.57166 -2.9392,-4.52656 -3.0136,-3.646104 -5.469,-6.585275 -5.469,-11.02504 0,-0.322441 0.074,-0.719291 0.074,-1.029334 0.3225,-4.613388 3.1748,-8.420676 5.2335,-11.669905 0.2481,-0.396851 0.3224,-0.793701 0.3224,-1.190552 0,-0.793701 -0.3224,-1.512953 -0.3224,-1.512953 0,0 -11.7443,-13.964216 -13.0961,-15.315968 -0.3968,-0.396851 -0.9425,-0.632501 -1.4261,-0.632501 -0.7937,0 -1.5874,0.54567 -1.5874,1.661851 0,0.396851 0.087,0.793701 0.3224,1.264922 0.31,0.880532 4.8366,4.923406 4.8366,10.640593 0,2.939155 -1.1905,6.349608 -4.7622,10.082464 -0.7937,0.793701 -1.1037,1.661811 -1.1037,2.306693 0,1.103737 0.7937,1.897438 0.7937,1.897438 l 3.8817,4.762213 c 1.2773,1.587402 2.3811,3.100395 3.4104,4.762206 0.1612,0.322418 0.4836,0.954918 0.4836,1.116119 0,0.07445 0,0.23565 -0.087,0.310099 -0.1488,0.322405 -0.4713,0.396855 -0.8682,0.396855 -0.3224,0 -0.9549,-0.148824 -1.2649,-0.235655 -0.3969,0 -0.8805,-0.235649 -1.2774,-0.235649 -3.4104,0 -6.5108,3.410454 -6.5108,7.614604 0,3.98089 3.4228,7.86257 9.2143,12.31475"
     id="path546"
     inkscape:connector-curvature="0"
     style="stroke-width:0.79370099" />
  <path
     class="Beam"
     d="m 232.28567,259.37281 231.602,-25.061 v 9.979 l -231.602,25.061 v -9.979"
     id="path548"
     inkscape:connector-curvature="0"
     style="fill-rule:evenodd" />
  <path
     class="Beam"
     d="m 537.91367,259.37281 231.602,-25.061 v 9.979 l -231.602,25.061 v -9.979"
     id="path550"
     inkscape:connector-curvature="0"
     style="fill-rule:evenodd" />
  <path
     class="Beam"
     d="m 876.47967,259.36681 238.21003,-25.054 v 9.976 l -238.21003,25.054 v -9.976"
     id="path552"
     inkscape:connector-curvature="0"
     style="fill-rule:evenodd" />
  <path
     class="Beam"
     d="m 1210.5797,259.36681 238.21,-25.054 v 9.976 l -238.21,25.054 v -9.976"
     id="path554"
     inkscape:connector-curvature="0"
     style="fill-rule:evenodd" />
  <path
     class="Beam"
     d="m 1561.1397,254.41181 231.6,-25.061 v 9.979 l -231.6,25.061 v -9.979"
     id="path556"
     inkscape:connector-curvature="0"
     style="fill-rule:evenodd" />
  <path
     class="Beam"
     d="m 1866.7597,259.37281 231.6,-25.061 v 9.979 l -231.6,25.061 v -9.979"
     id="path558"
     inkscape:connector-curvature="0"
     style="fill-rule:evenodd" />
  <path
     class="Beam"
     d="m 2203.3397,259.32681 238.22,-20.043 v 9.956 l -238.22,20.043 v -9.956"
     id="path560"
     inkscape:connector-curvature="0"
     style="fill-rule:evenodd" />
  <path
     class="Beam"
     d="m 2537.4397,259.36681 238.22,-25.054 v 9.976 l -238.22,25.054 v -9.976"
     id="path562"
     inkscape:connector-curvature="0"
     style="fill-rule:evenodd" />
  <path
     class="Beam"
     d="m 1088.5797,145.02381 51.52,-5.201 v 9.972 l -51.52,5.201 v -9.972"
     id="path564"
     inkscape:connector-curvature="0"
     style="fill-rule:evenodd" />
  <path
     class="Beam"
     d="m 1088.5797,132.62281 51.52,-5.202 v 9.972 l -51.52,5.201 v -9.971"
     id="path566"
     inkscape:connector-curvature="0"
     style="fill-rule:evenodd" />
  <path
     class="Beam"
     d="m 2336.8397,120.24581 h 130.12 v 9.921 h -130.12 v -9.921"
     id="path568"
     inkscape:connector-curvature="0"
     style="fill-rule:evenodd" />
  <path
     class="Beam"
     d="m 2415.4497,107.84481 h 51.51 v 9.921 h -51.51 v -9.921"
     id="path570"
     inkscape:connector-curvature="0"
     style="fill-rule:evenodd" />
  <path
     class="NoteDot"
     d="m 889.77418,84.529319 c 2.21989,0 3.9685,-1.748619 3.9685,-3.968505 0,-2.219886 -1.74861,-3.968505 -3.9685,-3.968505 -2.21988,0 -3.96851,1.748619 -3.96851,3.968505 0,2.219886 1.74863,3.968505 3.96851,3.968505"
     id="path578"
     inkscape:connector-curvature="0"
     style="stroke-width:0.79370099" />
  <path
     class="Bracket"
     d="m 13.53169,760.03225 c 0,20.14019 -10.0700948,37.98756 -10.0700948,58.98198 0,28.77161 7.7323948,45.45022 14.0711738,53.54226 1.16885,1.43859 1.753261,1.70832 2.292731,1.70832 0.899115,0 1.753289,-0.85416 1.753289,-1.70832 0,-0.89911 -0.314704,-1.75329 -1.438585,-3.19187 -1.438585,-2.29273 -8.047099,-16.67858 -8.047099,-31.91866 0,-15.24008 8.63151,-42.30332 10.609565,-59.29675 0.314704,-1.43859 0.314704,-2.87717 0.314704,-4.58535 0,-16.99343 -9.485684,-37.40321 -17.8474592,-42.57319 8.3617752,-5.21487 17.8474592,-25.62465 17.8474592,-42.61808 0,-1.43859 0,-3.14676 -0.314704,-4.58535 -1.978055,-17.26302 -10.609565,-44.01178 -10.609565,-59.56663 0,-14.9702 6.608514,-29.35605 8.047099,-31.91846 1.123881,-1.16899 1.438585,-2.02293 1.438585,-2.87717 0,-0.58435 -0.314704,-1.16899 -0.584439,-1.16899 -0.269735,-0.26959 -0.584411,-0.85394 -1.16885,-0.85394 -0.53947,0 -1.123881,0.58435 -2.292731,2.02293 -6.338779,7.7324 -14.0711738,24.45595 -14.0711738,53.22765 0,28.45694 10.0700948,39.96562 10.0700948,58.12775 0,13.48674 -5.4846052,20.99442 -13.53169,30.21029 5.1699148,5.75434 13.53169,10.33997 13.53169,29.04158"
     id="path580"
     inkscape:connector-curvature="0"
     style="stroke-width:2.87717009" />
  <path
     class="Bracket"
     d="m 13.53169,224.28125 c 0,20.14019 -10.0700948,37.98756 -10.0700948,58.98198 0,28.77161 7.7323948,45.45022 14.0711738,53.54226 1.16885,1.43859 1.753261,1.70832 2.292731,1.70832 0.899115,0 1.753289,-0.85416 1.753289,-1.70832 0,-0.89911 -0.314704,-1.75329 -1.438585,-3.19187 -1.438585,-2.29273 -8.047099,-16.67858 -8.047099,-31.91866 0,-15.24008 8.63151,-42.30332 10.609565,-59.29675 0.314704,-1.43859 0.314704,-2.87717 0.314704,-4.58535 0,-16.99343 -9.485684,-37.40321 -17.8474592,-42.57319 8.3617752,-5.21487 17.8474592,-25.62465 17.8474592,-42.61808 0,-1.43859 0,-3.14676 -0.314704,-4.58535 -1.978055,-17.26302 -10.609565,-44.01178 -10.609565,-59.566625 0,-14.970203 6.608514,-29.356053 8.047099,-31.918461 1.123881,-1.168994 1.438585,-2.022938 1.438585,-2.87717 0,-0.584353 -0.314704,-1.168994 -0.584439,-1.168994 -0.269735,-0.269591 -0.584411,-0.853944 -1.16885,-0.853944 -0.53947,0 -1.123881,0.584353 -2.292731,2.022938 -6.338779,7.732394 -14.0711738,24.455945 -14.0711738,53.227646 0,28.45694 10.0700948,39.96562 10.0700948,58.12775 0,13.48674 -5.4846052,20.99442 -13.53169,30.21029 5.1699148,5.75434 13.53169,10.33997 13.53169,29.04158"
     id="path582"
     inkscape:connector-curvature="0"
     style="stroke-width:2.87717009" />
</svg>
