<?xml version="1.0" encoding="UTF-8" standalone="no"?>
<svg
   xmlns:dc="http://purl.org/dc/elements/1.1/"
   xmlns:cc="http://creativecommons.org/ns#"
   xmlns:rdf="http://www.w3.org/1999/02/22-rdf-syntax-ns#"
   xmlns:svg="http://www.w3.org/2000/svg"
   xmlns="http://www.w3.org/2000/svg"
   xmlns:sodipodi="http://sodipodi.sourceforge.net/DTD/sodipodi-0.dtd"
   xmlns:inkscape="http://www.inkscape.org/namespaces/inkscape"
   width="2800.96"
   height="280.67905"
   viewBox="0 0 2800.96 280.67905"
   version="1.2"
   id="svg876"
   sodipodi:docname="KV 545-Exposition-3d.svg"
   inkscape:version="0.92.3 (2405546, 2018-03-11)">
  <metadata
     id="metadata882">
    <rdf:RDF>
      <cc:Work
         rdf:about="">
        <dc:format>image/svg+xml</dc:format>
        <dc:type
           rdf:resource="http://purl.org/dc/dcmitype/StillImage" />
      </cc:Work>
    </rdf:RDF>
  </metadata>
  <defs
     id="defs880" />
  <sodipodi:namedview
     pagecolor="#ffffff"
     bordercolor="#666666"
     borderopacity="1"
     objecttolerance="10"
     gridtolerance="10"
     guidetolerance="10"
     inkscape:pageopacity="0"
     inkscape:pageshadow="2"
     inkscape:window-width="3840"
     inkscape:window-height="2066"
     id="namedview878"
     showgrid="false"
     inkscape:zoom="0.44281425"
     inkscape:cx="1384.49"
     inkscape:cy="-824.89763"
     inkscape:window-x="-11"
     inkscape:window-y="-11"
     inkscape:window-maximized="1"
     inkscape:current-layer="svg876" />
  <title
     id="title2">KV 545-Exposition (3)</title>
  <desc
     id="desc4">Generated by MuseScore 3.6.2</desc>
  <polyline
     class="StaffLines"
     points="102.85,1493.86 2903.81,1493.86"
     id="polyline46"
     style="fill:none;stroke:#000000;stroke-width:2.57999992;stroke-linejoin:bevel"
     transform="translate(-102.85,-1366.961)" />
  <polyline
     class="StaffLines"
     points="102.85,1513.7 2903.81,1513.7"
     id="polyline48"
     style="fill:none;stroke:#000000;stroke-width:2.57999992;stroke-linejoin:bevel"
     transform="translate(-102.85,-1366.961)" />
  <polyline
     class="StaffLines"
     points="102.85,1533.54 2903.81,1533.54"
     id="polyline50"
     style="fill:none;stroke:#000000;stroke-width:2.57999992;stroke-linejoin:bevel"
     transform="translate(-102.85,-1366.961)" />
  <polyline
     class="StaffLines"
     points="102.85,1553.39 2903.81,1553.39"
     id="polyline52"
     style="fill:none;stroke:#000000;stroke-width:2.57999992;stroke-linejoin:bevel"
     transform="translate(-102.85,-1366.961)" />
  <polyline
     class="StaffLines"
     points="102.85,1573.23 2903.81,1573.23"
     id="polyline54"
     style="fill:none;stroke:#000000;stroke-width:2.57999992;stroke-linejoin:bevel"
     transform="translate(-102.85,-1366.961)" />
  <path
     class="SlurSegment"
     d="m 300.706,257.52903 c 103.708,26.04 556.599,3.09 657.384,-17.2 -100.661,25.05 -553.552,48.01 -657.384,17.2"
     id="path58"
     inkscape:connector-curvature="0"
     style="fill-rule:evenodd;stroke:#000000;stroke-width:1.98000002;stroke-linecap:round;stroke-linejoin:round" />
  <path
     class="SlurSegment"
     d="m 996.28,238.50903 c 55.17,26.93 326.85,44.64 388.12,25.3 -61.58,24.09 -333.26,6.38 -388.12,-25.3"
     id="path60"
     inkscape:connector-curvature="0"
     style="fill-rule:evenodd;stroke:#000000;stroke-width:1.98000002;stroke-linecap:round;stroke-linejoin:round" />
  <path
     class="SlurSegment"
     d="m 1649.96,257.52903 c 103.7,26.04 556.59,3.09 657.38,-17.2 -100.66,25.05 -553.55,48.01 -657.38,17.2"
     id="path62"
     inkscape:connector-curvature="0"
     style="fill-rule:evenodd;stroke:#000000;stroke-width:1.98000002;stroke-linecap:round;stroke-linejoin:round" />
  <path
     class="SlurSegment"
     d="m 2345.53,238.50903 c 55.17,26.93 326.85,44.64 388.12,25.3 -61.58,24.09 -333.26,6.38 -388.12,-25.3"
     id="path64"
     inkscape:connector-curvature="0"
     style="fill-rule:evenodd;stroke:#000000;stroke-width:1.98000002;stroke-linecap:round;stroke-linejoin:round" />
  <path
     class="SlurSegment"
     d="m 304.344,116.14903 c 85.689,23.27 526.757,35.66 630.096,17.69 -103.473,22.73 -544.54,10.34 -630.096,-17.69"
     id="path66"
     inkscape:connector-curvature="0"
     style="fill-rule:evenodd;stroke:#000000;stroke-width:1.98000002;stroke-linecap:round;stroke-linejoin:round" />
  <path
     class="SlurSegment"
     d="m 1653.59,116.14903 c 85.69,23.27 526.76,35.66 630.1,17.69 -103.47,22.73 -544.54,10.34 -630.1,-17.69"
     id="path68"
     inkscape:connector-curvature="0"
     style="fill-rule:evenodd;stroke:#000000;stroke-width:1.98000002;stroke-linecap:round;stroke-linejoin:round" />
  <polyline
     class="BarLine"
     points="104.438,1492.57 104.438,1574.52"
     id="polyline82"
     style="stroke:#000000;stroke-width:3.17000008;stroke-linejoin:bevel"
     transform="translate(-102.85,-1366.961)" />
  <polyline
     class="BarLine"
     points="882.318,1492.57 882.318,1574.52"
     id="polyline84"
     style="stroke:#000000;stroke-width:3.17000008;stroke-linejoin:bevel"
     transform="translate(-102.85,-1366.961)" />
  <polyline
     class="BarLine"
     points="1552.97,1492.57 1552.97,1574.52"
     id="polyline86"
     style="stroke:#000000;stroke-width:3.17000008;stroke-linejoin:bevel"
     transform="translate(-102.85,-1366.961)" />
  <polyline
     class="BarLine"
     points="2231.57,1492.57 2231.57,1574.52"
     id="polyline88"
     style="stroke:#000000;stroke-width:3.17000008;stroke-linejoin:bevel"
     transform="translate(-102.85,-1366.961)" />
  <polyline
     class="BarLine"
     points="2902.22,1492.57 2902.22,1574.52"
     id="polyline90"
     style="stroke:#000000;stroke-width:3.17000008;stroke-linejoin:bevel"
     transform="translate(-102.85,-1366.961)" />
  <polyline
     class="BarLine"
     points="104.438,1165.17 104.438,1493.86"
     id="polyline92"
     transform="matrix(1,0,0,0.00392467,-102.85,121.03613)"
     style="stroke:#000000;stroke-width:3.17000008;stroke-linejoin:bevel" />
  <path
     class="Accidental"
     d="m 941.54248,124.84037 c 0.32245,0 1.82303,-0.71929 2.07106,-0.88051 0.0744,0 0.14882,-0.0744 0.23564,-0.0744 0.55807,0 1.02933,0.7937 1.02933,1.42618 v 7.8626 c 0,0.86811 -0.39686,1.5874 -0.86812,1.82301 -0.48365,0.16128 -2.14546,0.86815 -2.14546,0.86815 -0.55808,0.16121 -0.95493,0.79371 -0.95493,1.27739 v 5.63027 c 0,0.4713 0.23563,0.71933 0.63248,0.71933 0.0868,0 0.23563,-0.0868 0.32245,-0.0868 0,0 1.10373,-0.4713 1.82302,-0.70687 0.0744,-0.0868 0.16123,-0.0868 0.23564,-0.0868 0.55806,0 0.95492,0.88053 0.95492,1.27739 v 9.75998 c 0,0.4713 0.47125,0.86815 1.02933,0.86815 0.7937,0 1.35177,-0.39685 1.35177,-0.86815 v -11.03737 c 0,-1.02935 0.39685,-1.5874 0.7937,-1.7486 l 4.83665,-1.98425 c 0.0868,0 0.24804,-0.0744 0.32241,-0.0744 0.6325,0 1.02935,0.9549 1.02935,1.4262 v 9.92126 c 0,0.48368 0.48368,0.88053 1.02935,0.88053 0.88045,0 1.35175,-0.39685 1.35175,-0.88053 V 138.879 c 0,-0.6325 0.3224,-1.5874 0.88053,-1.82305 0.54567,-0.23565 2.21982,-0.86815 2.21982,-0.86815 0.55813,-0.23557 0.95499,-0.88046 0.95499,-1.35176 v -5.63031 c 0,-0.39685 -0.24804,-0.64488 -0.55814,-0.64488 -0.1612,0 -0.23557,0 -0.39685,0.0868 l -2.071,0.7937 c -0.4713,0 -1.02935,-0.48366 -1.02935,-1.42618 v -7.39134 c 0,-0.54567 0.39685,-2.05867 1.02935,-2.29432 l 2.071,-0.7937 c 0.55813,-0.23565 0.95499,-0.88053 0.95499,-1.35175 v -5.63036 c 0,-0.39685 -0.24804,-0.64488 -0.55814,-0.64488 -0.1612,0 -0.23557,0 -0.39685,0.0868 0,0 -1.5874,0.6325 -1.98425,0.70687 -0.55805,0 -1.1161,-0.39685 -1.1161,-1.02927 v -9.685691 c 0,-0.47122 -0.4713,-0.86807 -1.10372,-0.86807 -0.7937,0 -1.27738,0.39685 -1.27738,0.86807 v 10.318111 c -0.0744,0.7937 -0.31002,1.83544 -1.02935,2.30674 -0.95491,0.55805 -3.64603,1.66177 -4.99784,1.98425 -0.71929,0 -0.95492,-0.9549 -0.95492,-1.5874 v -9.52442 c 0,-0.48368 -0.55807,-0.88053 -1.11614,-0.88053 -0.79371,0 -1.26496,0.39685 -1.26496,0.88053 v 10.71497 c 0,1.1161 -0.47126,1.9098 -0.95492,2.14545 -0.47126,0.23565 -2.05866,0.86815 -2.05866,0.86815 -0.55808,0.1612 -0.95493,0.7937 -0.95493,1.2773 v 5.63036 c 0,0.47126 0.23563,0.71929 0.63248,0.71929 m 5.4815,4.43977 c 0,-2.45552 0.0744,-5.23347 0.23563,-5.87835 0.16122,-1.33937 3.8073,-3.01359 5.79155,-3.01359 0.55806,0 1.02936,0.16123 1.19056,0.48367 0.1612,0.39685 0.3224,2.3811 0.3224,4.51417 0,2.14547 -0.1612,4.36536 -0.3224,5.08465 -0.4713,1.5874 -4.20416,3.1748 -6.02719,3.1748 -0.48366,0 -0.88051,-0.16121 -0.95492,-0.39685 -0.16122,-0.32244 -0.23563,-2.05866 -0.23563,-3.9685"
     id="path132"
     inkscape:connector-curvature="0"
     style="stroke-width:0.79370099" />
  <path
     class="Accidental"
     d="m 2290.7925,124.84037 c 0.3224,0 1.823,-0.71929 2.071,-0.88051 0.075,0 0.1489,-0.0744 0.2357,-0.0744 0.558,0 1.0293,0.7937 1.0293,1.42618 v 7.8626 c 0,0.86811 -0.3968,1.5874 -0.8681,1.82301 -0.4837,0.16128 -2.1455,0.86815 -2.1455,0.86815 -0.558,0.16121 -0.9549,0.79371 -0.9549,1.27739 v 5.63027 c 0,0.4713 0.2356,0.71933 0.6325,0.71933 0.087,0 0.2356,-0.0868 0.3224,-0.0868 0,0 1.1038,-0.4713 1.8231,-0.70687 0.074,-0.0868 0.1612,-0.0868 0.2356,-0.0868 0.5581,0 0.9549,0.88053 0.9549,1.27739 v 9.75998 c 0,0.4713 0.4713,0.86815 1.0293,0.86815 0.7937,0 1.3518,-0.39685 1.3518,-0.86815 v -11.03737 c 0,-1.02935 0.3969,-1.5874 0.7937,-1.7486 l 4.8367,-1.98425 c 0.087,0 0.248,-0.0744 0.3224,-0.0744 0.6325,0 1.0293,0.9549 1.0293,1.4262 v 9.92126 c 0,0.48368 0.4837,0.88053 1.0294,0.88053 0.8804,0 1.3517,-0.39685 1.3517,-0.88053 V 138.879 c 0,-0.6325 0.3224,-1.5874 0.8806,-1.82305 0.5456,-0.23565 2.2198,-0.86815 2.2198,-0.86815 0.5581,-0.23557 0.955,-0.88046 0.955,-1.35176 v -5.63031 c 0,-0.39685 -0.2481,-0.64488 -0.5582,-0.64488 -0.1612,0 -0.2355,0 -0.3968,0.0868 l -2.071,0.7937 c -0.4713,0 -1.0294,-0.48366 -1.0294,-1.42618 v -7.39134 c 0,-0.54567 0.3969,-2.05867 1.0294,-2.29432 l 2.071,-0.7937 c 0.5581,-0.23565 0.955,-0.88053 0.955,-1.35175 v -5.63036 c 0,-0.39685 -0.2481,-0.64488 -0.5582,-0.64488 -0.1612,0 -0.2355,0 -0.3968,0.0868 0,0 -1.5874,0.6325 -1.9843,0.70687 -0.558,0 -1.1161,-0.39685 -1.1161,-1.02927 v -9.685691 c 0,-0.47122 -0.4713,-0.86807 -1.1037,-0.86807 -0.7937,0 -1.2774,0.39685 -1.2774,0.86807 v 10.318111 c -0.074,0.7937 -0.31,1.83544 -1.0293,2.30674 -0.9549,0.55805 -3.6461,1.66177 -4.9979,1.98425 -0.7193,0 -0.9549,-0.9549 -0.9549,-1.5874 v -9.52442 c 0,-0.48368 -0.5581,-0.88053 -1.1161,-0.88053 -0.7937,0 -1.265,0.39685 -1.265,0.88053 v 10.71497 c 0,1.1161 -0.4713,1.9098 -0.9549,2.14545 -0.4713,0.23565 -2.0587,0.86815 -2.0587,0.86815 -0.558,0.1612 -0.9549,0.7937 -0.9549,1.2773 v 5.63036 c 0,0.47126 0.2356,0.71929 0.6325,0.71929 m 5.4815,4.43977 c 0,-2.45552 0.074,-5.23347 0.2356,-5.87835 0.1612,-1.33937 3.8073,-3.01359 5.7916,-3.01359 0.558,0 1.0293,0.16123 1.1905,0.48367 0.1612,0.39685 0.3224,2.3811 0.3224,4.51417 0,2.14547 -0.1612,4.36536 -0.3224,5.08465 -0.4713,1.5874 -4.2041,3.1748 -6.0272,3.1748 -0.4836,0 -0.8805,-0.16121 -0.9549,-0.39685 -0.1612,-0.32244 -0.2356,-2.05866 -0.2356,-3.9685"
     id="path134"
     inkscape:connector-curvature="0"
     style="stroke-width:0.79370099" />
  <polyline
     class="LedgerLine"
     points="381.398,1474.02 423.384,1474.02"
     id="polyline144"
     style="stroke:#000000;stroke-width:3.17000008;stroke-linejoin:bevel"
     transform="translate(-102.85,-1366.961)" />
  <polyline
     class="LedgerLine"
     points="381.398,1454.17 423.384,1454.17"
     id="polyline146"
     style="stroke:#000000;stroke-width:3.17000008;stroke-linejoin:bevel"
     transform="translate(-102.85,-1366.961)" />
  <polyline
     class="LedgerLine"
     points="381.398,1474.02 423.384,1474.02"
     id="polyline148"
     style="stroke:#000000;stroke-width:3.17000008;stroke-linejoin:bevel"
     transform="translate(-102.85,-1366.961)" />
  <polyline
     class="LedgerLine"
     points="381.398,1593.07 423.384,1593.07"
     id="polyline150"
     style="stroke:#000000;stroke-width:3.17000008;stroke-linejoin:bevel"
     transform="translate(-102.85,-1366.961)" />
  <polyline
     class="LedgerLine"
     points="709.656,1474.02 751.642,1474.02"
     id="polyline152"
     style="stroke:#000000;stroke-width:3.17000008;stroke-linejoin:bevel"
     transform="translate(-102.85,-1366.961)" />
  <polyline
     class="LedgerLine"
     points="1059.95,1593.07 1101.94,1593.07"
     id="polyline154"
     style="stroke:#000000;stroke-width:3.17000008;stroke-linejoin:bevel"
     transform="translate(-102.85,-1366.961)" />
  <polyline
     class="LedgerLine"
     points="1388.07,1593.07 1430.05,1593.07"
     id="polyline156"
     style="stroke:#000000;stroke-width:3.17000008;stroke-linejoin:bevel"
     transform="translate(-102.85,-1366.961)" />
  <polyline
     class="LedgerLine"
     points="1466.25,1612.91 1508.24,1612.91"
     id="polyline158"
     style="stroke:#000000;stroke-width:3.17000008;stroke-linejoin:bevel"
     transform="translate(-102.85,-1366.961)" />
  <polyline
     class="LedgerLine"
     points="1466.25,1593.07 1508.24,1593.07"
     id="polyline160"
     style="stroke:#000000;stroke-width:3.17000008;stroke-linejoin:bevel"
     transform="translate(-102.85,-1366.961)" />
  <polyline
     class="LedgerLine"
     points="1730.65,1474.02 1772.63,1474.02"
     id="polyline162"
     style="stroke:#000000;stroke-width:3.17000008;stroke-linejoin:bevel"
     transform="translate(-102.85,-1366.961)" />
  <polyline
     class="LedgerLine"
     points="1730.65,1454.17 1772.63,1454.17"
     id="polyline164"
     style="stroke:#000000;stroke-width:3.17000008;stroke-linejoin:bevel"
     transform="translate(-102.85,-1366.961)" />
  <polyline
     class="LedgerLine"
     points="1730.65,1474.02 1772.63,1474.02"
     id="polyline166"
     style="stroke:#000000;stroke-width:3.17000008;stroke-linejoin:bevel"
     transform="translate(-102.85,-1366.961)" />
  <polyline
     class="LedgerLine"
     points="1730.65,1593.07 1772.63,1593.07"
     id="polyline168"
     style="stroke:#000000;stroke-width:3.17000008;stroke-linejoin:bevel"
     transform="translate(-102.85,-1366.961)" />
  <polyline
     class="LedgerLine"
     points="2058.91,1474.02 2100.89,1474.02"
     id="polyline170"
     style="stroke:#000000;stroke-width:3.17000008;stroke-linejoin:bevel"
     transform="translate(-102.85,-1366.961)" />
  <polyline
     class="LedgerLine"
     points="2409.2,1593.07 2451.19,1593.07"
     id="polyline172"
     style="stroke:#000000;stroke-width:3.17000008;stroke-linejoin:bevel"
     transform="translate(-102.85,-1366.961)" />
  <polyline
     class="LedgerLine"
     points="2737.32,1593.07 2779.3,1593.07"
     id="polyline174"
     style="stroke:#000000;stroke-width:3.17000008;stroke-linejoin:bevel"
     transform="translate(-102.85,-1366.961)" />
  <polyline
     class="LedgerLine"
     points="2815.5,1612.91 2857.49,1612.91"
     id="polyline176"
     style="stroke:#000000;stroke-width:3.17000008;stroke-linejoin:bevel"
     transform="translate(-102.85,-1366.961)" />
  <polyline
     class="LedgerLine"
     points="2815.5,1593.07 2857.49,1593.07"
     id="polyline178"
     style="stroke:#000000;stroke-width:3.17000008;stroke-linejoin:bevel"
     transform="translate(-102.85,-1366.961)" />
  <polyline
     class="Stem"
     points="390.526,1605.66 390.526,1647.64"
     id="polyline308"
     style="stroke:#000000;stroke-width:2.38000011;stroke-linejoin:bevel"
     transform="translate(-102.85,-1366.961)" />
  <polyline
     class="Stem"
     points="1739.78,1605.66 1739.78,1647.64"
     id="polyline310"
     style="stroke:#000000;stroke-width:2.38000011;stroke-linejoin:bevel"
     transform="translate(-102.85,-1366.961)" />
  <polyline
     class="Stem"
     points="390.526,1466.76 390.526,1533.54"
     id="polyline312"
     style="stroke:#000000;stroke-width:2.38000011;stroke-linejoin:bevel"
     transform="translate(-102.85,-1366.961)" />
  <polyline
     class="Stem"
     points="1739.78,1466.76 1739.78,1533.54"
     id="polyline314"
     style="stroke:#000000;stroke-width:2.38000011;stroke-linejoin:bevel"
     transform="translate(-102.85,-1366.961)" />
  <polyline
     class="Stem"
     points="414.256,1441.59 414.256,1370.73"
     id="polyline316"
     style="stroke:#000000;stroke-width:2.38000011;stroke-linejoin:bevel"
     transform="translate(-102.85,-1366.961)" />
  <polyline
     class="Stem"
     points="1763.51,1441.59 1763.51,1379.39"
     id="polyline318"
     style="stroke:#000000;stroke-width:2.38000011;stroke-linejoin:bevel"
     transform="translate(-102.85,-1366.961)" />
  <path
     class="Note"
     d="m 295.05451,247.14085 c 14.60902,0 17.54825,-11.90552 17.54825,-14.75788 0,-4.5266 -3.57165,-7.46575 -8.73071,-7.46575 -13.25732,0 -17.38705,10.2437 -17.38705,14.84469 0,4.67543 3.73288,7.37894 8.56951,7.37894 m -5.95277,-7.21772 c 0,-4.29095 12.78606,-11.35985 16.99014,-11.35985 1.66185,0 2.61675,0.7937 3.24925,1.90985 0.24803,0.47126 0.48368,1.02932 0.48368,1.66181 0,1.74862 -1.82305,3.89409 -8.02384,7.93701 -3.96851,2.70354 -6.74646,3.65847 -8.64392,3.65847 -1.83543,0 -2.93917,-0.95493 -3.49725,-2.07107 -0.32244,-0.47126 -0.55806,-1.10374 -0.55806,-1.73622"
     id="path512"
     inkscape:connector-curvature="0"
     style="stroke-width:0.79370099" />
  <path
     class="Note"
     d="m 973.60951,237.22085 c 14.60902,0 17.54825,-11.90552 17.54825,-14.75788 0,-4.5266 -3.57165,-7.46575 -8.73071,-7.46575 -13.25732,0 -17.38705,10.2437 -17.38705,14.84469 0,4.67543 3.73288,7.37894 8.56951,7.37894 m -5.95277,-7.21772 c 0,-4.29095 12.78606,-11.35985 16.99014,-11.35985 1.66185,0 2.61675,0.7937 3.24925,1.90985 0.24803,0.47126 0.48368,1.02932 0.48368,1.66181 0,1.74862 -1.82305,3.89409 -8.02384,7.93701 -3.96851,2.70354 -6.74646,3.65847 -8.64392,3.65847 -1.83543,0 -2.93917,-0.95493 -3.49725,-2.07107 -0.32244,-0.47126 -0.55806,-1.10374 -0.55806,-1.73622"
     id="path514"
     inkscape:connector-curvature="0"
     style="stroke-width:0.79370099" />
  <path
     class="Note"
     d="m 1293.16,239.76191 c 0,4.60098 3.8073,7.37894 8.5695,7.37894 7.8626,0 17.5483,-7.30453 17.5483,-14.8447 0,-4.43978 -3.5717,-7.37893 -8.6564,-7.37893 -9.6856,0 -17.4614,7.21772 -17.4614,14.84469"
     id="path516"
     inkscape:connector-curvature="0"
     style="stroke-width:0.79370099" />
  <path
     class="Note"
     d="m 1371.34,249.68191 c 0,4.60098 3.8073,7.37894 8.5695,7.37894 7.8626,0 17.5483,-7.30453 17.5483,-14.8447 0,-4.43978 -3.5717,-7.37893 -8.6564,-7.37893 -9.6856,0 -17.4614,7.21772 -17.4614,14.84469"
     id="path518"
     inkscape:connector-curvature="0"
     style="stroke-width:0.79370099" />
  <path
     class="Note"
     d="m 1644.2995,247.14085 c 14.609,0 17.5483,-11.90552 17.5483,-14.75788 0,-4.5266 -3.5717,-7.46575 -8.7307,-7.46575 -13.2574,0 -17.3871,10.2437 -17.3871,14.84469 0,4.67543 3.7329,7.37894 8.5695,7.37894 m -5.9528,-7.21772 c 0,-4.29095 12.7861,-11.35985 16.9902,-11.35985 1.6618,0 2.6167,0.7937 3.2492,1.90985 0.2481,0.47126 0.4837,1.02932 0.4837,1.66181 0,1.74862 -1.823,3.89409 -8.0238,7.93701 -3.9685,2.70354 -6.7465,3.65847 -8.644,3.65847 -1.8354,0 -2.9391,-0.95493 -3.4972,-2.07107 -0.3224,-0.47126 -0.5581,-1.10374 -0.5581,-1.73622"
     id="path520"
     inkscape:connector-curvature="0"
     style="stroke-width:0.79370099" />
  <path
     class="Note"
     d="m 2322.8595,237.22085 c 14.609,0 17.5483,-11.90552 17.5483,-14.75788 0,-4.5266 -3.5717,-7.46575 -8.7307,-7.46575 -13.2574,0 -17.3871,10.2437 -17.3871,14.84469 0,4.67543 3.7329,7.37894 8.5695,7.37894 m -5.9528,-7.21772 c 0,-4.29095 12.7861,-11.35985 16.9902,-11.35985 1.6618,0 2.6167,0.7937 3.2492,1.90985 0.2481,0.47126 0.4837,1.02932 0.4837,1.66181 0,1.74862 -1.823,3.89409 -8.0238,7.93701 -3.9685,2.70354 -6.7465,3.65847 -8.644,3.65847 -1.8354,0 -2.9391,-0.95493 -3.4972,-2.07107 -0.3224,-0.47126 -0.5581,-1.10374 -0.5581,-1.73622"
     id="path522"
     inkscape:connector-curvature="0"
     style="stroke-width:0.79370099" />
  <path
     class="Note"
     d="m 2642.4,239.76191 c 0,4.60098 3.8073,7.37894 8.5695,7.37894 7.8626,0 17.5483,-7.30453 17.5483,-14.8447 0,-4.43978 -3.5717,-7.37893 -8.6564,-7.37893 -9.6856,0 -17.4614,7.21772 -17.4614,14.84469"
     id="path524"
     inkscape:connector-curvature="0"
     style="stroke-width:0.79370099" />
  <path
     class="Note"
     d="m 2720.59,249.68191 c 0,4.60098 3.8073,7.37894 8.5695,7.37894 7.8626,0 17.5483,-7.30453 17.5483,-14.8447 0,-4.43978 -3.5717,-7.37893 -8.6564,-7.37893 -9.6856,0 -17.4614,7.21772 -17.4614,14.84469"
     id="path526"
     inkscape:connector-curvature="0"
     style="stroke-width:0.79370099" />
  <path
     class="Note"
     d="m 295.05451,108.24085 c 14.60902,0 17.54825,-11.905517 17.54825,-14.75788 0,-4.526596 -3.57165,-7.46575 -8.73071,-7.46575 -13.25732,0 -17.38705,10.243703 -17.38705,14.84469 0,4.67543 3.73288,7.37894 8.56951,7.37894 m -5.95277,-7.21772 c 0,-4.290947 12.78606,-11.359846 16.99014,-11.359846 1.66185,0 2.61675,0.793701 3.24925,1.909843 0.24803,0.47126 0.48368,1.029327 0.48368,1.661811 0,1.748619 -1.82305,3.894096 -8.02384,7.937012 -3.96851,2.70354 -6.74646,3.65847 -8.64392,3.65847 -1.83543,0 -2.93917,-0.95493 -3.49725,-2.07107 -0.32244,-0.47126 -0.55806,-1.10374 -0.55806,-1.73622"
     id="path528"
     inkscape:connector-curvature="0"
     style="stroke-width:0.79370099" />
  <path
     class="Note"
     d="m 614.743,110.79191 c 0,4.60098 3.80729,7.37894 8.56951,7.37894 7.86256,0 17.54825,-7.30453 17.54825,-14.8447 0,-4.439776 -3.57165,-7.37893 -8.65634,-7.37893 -9.68563,0 -17.46142,7.21772 -17.46142,14.84469"
     id="path530"
     inkscape:connector-curvature="0"
     style="stroke-width:0.79370099" />
  <path
     class="Note"
     d="m 692.865,120.71191 c 0,4.60098 3.80729,7.37894 8.56951,7.37894 7.86256,0 17.54825,-7.30453 17.54825,-14.8447 0,-4.43978 -3.57165,-7.37893 -8.65634,-7.37893 -9.68563,0 -17.46142,7.21772 -17.46142,14.84469"
     id="path532"
     inkscape:connector-curvature="0"
     style="stroke-width:0.79370099" />
  <path
     class="Note"
     d="m 973.60951,138.01085 c 14.60902,0 17.54825,-11.90552 17.54825,-14.75788 0,-4.5266 -3.57165,-7.46575 -8.73071,-7.46575 -13.25732,0 -17.38705,10.2437 -17.38705,14.84469 0,4.67543 3.73288,7.37894 8.56951,7.37894 m -5.95277,-7.21772 c 0,-4.29095 12.78606,-11.35985 16.99014,-11.35985 1.66185,0 2.61675,0.7937 3.24925,1.90985 0.24803,0.47126 0.48368,1.02932 0.48368,1.66181 0,1.74862 -1.82305,3.89409 -8.02384,7.93701 -3.96851,2.70354 -6.74646,3.65847 -8.64392,3.65847 -1.83543,0 -2.93917,-0.95493 -3.49725,-2.07107 -0.32244,-0.47126 -0.55806,-1.10374 -0.55806,-1.73622"
     id="path534"
     inkscape:connector-curvature="0"
     style="stroke-width:0.79370099" />
  <path
     class="Note"
     d="m 1644.2995,108.24085 c 14.609,0 17.5483,-11.905517 17.5483,-14.75788 0,-4.526596 -3.5717,-7.46575 -8.7307,-7.46575 -13.2574,0 -17.3871,10.243703 -17.3871,14.84469 0,4.67543 3.7329,7.37894 8.5695,7.37894 m -5.9528,-7.21772 c 0,-4.290947 12.7861,-11.359846 16.9902,-11.359846 1.6618,0 2.6167,0.793701 3.2492,1.909843 0.2481,0.47126 0.4837,1.029327 0.4837,1.661811 0,1.748619 -1.823,3.894096 -8.0238,7.937012 -3.9685,2.70354 -6.7465,3.65847 -8.644,3.65847 -1.8354,0 -2.9391,-0.95493 -3.4972,-2.07107 -0.3224,-0.47126 -0.5581,-1.10374 -0.5581,-1.73622"
     id="path536"
     inkscape:connector-curvature="0"
     style="stroke-width:0.79370099" />
  <path
     class="Note"
     d="m 1963.99,110.79191 c 0,4.60098 3.8073,7.37894 8.5695,7.37894 7.8626,0 17.5483,-7.30453 17.5483,-14.8447 0,-4.439776 -3.5717,-7.37893 -8.6564,-7.37893 -9.6856,0 -17.4614,7.21772 -17.4614,14.84469"
     id="path538"
     inkscape:connector-curvature="0"
     style="stroke-width:0.79370099" />
  <path
     class="Note"
     d="m 2042.11,120.71191 c 0,4.60098 3.8073,7.37894 8.5695,7.37894 7.8626,0 17.5483,-7.30453 17.5483,-14.8447 0,-4.43978 -3.5717,-7.37893 -8.6564,-7.37893 -9.6856,0 -17.4614,7.21772 -17.4614,14.84469"
     id="path540"
     inkscape:connector-curvature="0"
     style="stroke-width:0.79370099" />
  <path
     class="Note"
     d="m 2322.8595,138.01085 c 14.609,0 17.5483,-11.90552 17.5483,-14.75788 0,-4.5266 -3.5717,-7.46575 -8.7307,-7.46575 -13.2574,0 -17.3871,10.2437 -17.3871,14.84469 0,4.67543 3.7329,7.37894 8.5695,7.37894 m -5.9528,-7.21772 c 0,-4.29095 12.7861,-11.35985 16.9902,-11.35985 1.6618,0 2.6167,0.7937 3.2492,1.90985 0.2481,0.47126 0.4837,1.02932 0.4837,1.66181 0,1.74862 -1.823,3.89409 -8.0238,7.93701 -3.9685,2.70354 -6.7465,3.65847 -8.644,3.65847 -1.8354,0 -2.9391,-0.95493 -3.4972,-2.07107 -0.3224,-0.47126 -0.5581,-1.10374 -0.5581,-1.73622"
     id="path542"
     inkscape:connector-curvature="0"
     style="stroke-width:0.79370099" />
  <path
     class="Note"
     d="m 295.05451,88.400848 c 14.60902,0 17.54825,-11.905515 17.54825,-14.757878 0,-4.526596 -3.57165,-7.46575 -8.73071,-7.46575 -13.25732,0 -17.38705,10.243703 -17.38705,14.844693 0,4.67543 3.73288,7.378935 8.56951,7.378935 m -5.95277,-7.217719 c 0,-4.290946 12.78606,-11.359845 16.99014,-11.359845 1.66185,0 2.61675,0.793701 3.24925,1.909843 0.24803,0.47126 0.48368,1.029327 0.48368,1.661811 0,1.748619 -1.82305,3.894096 -8.02384,7.93701 -3.96851,2.703544 -6.74646,3.65847 -8.64392,3.65847 -1.83543,0 -2.93917,-0.954926 -3.49725,-2.071068 -0.32244,-0.47126 -0.55806,-1.103736 -0.55806,-1.736221"
     id="path544"
     inkscape:connector-curvature="0"
     style="stroke-width:0.79370099" />
  <path
     class="Note"
     d="m 1644.2995,88.400848 c 14.609,0 17.5483,-11.905515 17.5483,-14.757878 0,-4.526596 -3.5717,-7.46575 -8.7307,-7.46575 -13.2574,0 -17.3871,10.243703 -17.3871,14.844693 0,4.67543 3.7329,7.378935 8.5695,7.378935 m -5.9528,-7.217719 c 0,-4.290946 12.7861,-11.359845 16.9902,-11.359845 1.6618,0 2.6167,0.793701 3.2492,1.909843 0.2481,0.47126 0.4837,1.029327 0.4837,1.661811 0,1.748619 -1.823,3.894096 -8.0238,7.93701 -3.9685,2.703544 -6.7465,3.65847 -8.644,3.65847 -1.8354,0 -2.9391,-0.954926 -3.4972,-2.071068 -0.3224,-0.47126 -0.5581,-1.103736 -0.5581,-1.736221"
     id="path546"
     inkscape:connector-curvature="0"
     style="stroke-width:0.79370099" />
  <path
     class="Clef"
     d="m 48.341717,206.43276 c 1.822972,0 3.881674,-0.1612 5.469076,-0.4836 0.880532,-0.14882 1.041732,-0.23565 1.190551,0.71925 0.954902,5.32026 2.145454,12.22799 2.145454,15.96085 0,11.74431 -7.93701,13.17044 -12.612386,13.17044 -4.290985,0 -6.361989,-1.26493 -6.361989,-2.30666 0,-0.54567 0.719252,-0.7937 2.542303,-1.33937 2.467934,-0.71933 5.320258,-2.86478 5.320258,-7.46579 0,-4.36535 -2.777954,-8.09821 -7.61453,-8.09821 -5.320336,0 -8.49514,4.20416 -8.49514,9.12756 0,5.15906 3.088052,12.93487 15.080319,12.93487 5.320336,0 15.638449,-2.3811 15.638449,-15.87402 0,-4.51418 -1.426201,-12.05434 -2.306733,-16.97774 -0.161201,-0.95498 -0.07437,-0.88053 1.029351,-1.35183 8.023841,-3.17481 13.344098,-9.92127 13.344098,-18.88759 0,-10.16933 -7.46579,-19.13561 -19.135655,-19.13561 -2.058622,0 -2.058622,0 -2.294272,-1.4262 l -1.984253,-11.50867 c -0.1612,-0.9549 0,-1.02935 0.471221,-1.51303 8.56951,-8.01138 15.080319,-18.09384 15.080319,-30.23501 0,-6.90766 -1.909804,-13.74095 -5.159057,-18.50355 -1.190551,-1.73582 -3.249174,-3.968504 -4.129705,-3.968504 -1.103721,0 -3.571655,2.071564 -5.159057,3.820084 -5.865927,6.49843 -7.775809,16.41969 -7.775809,24.6791 0,4.601 0.55813,9.76006 1.116181,13.0217 0.148819,0.9549 0.23565,1.10372 -0.719331,1.89742 -11.434215,9.45004 -23.57538,20.79742 -23.57538,36.8327 0,13.81537 9.450042,26.91141 28.895717,26.91141 M 25.795608,184.84163 c 0,-4.68779 0.793701,-10.95061 7.378959,-18.41632 4.762206,-5.32034 8.420691,-8.25949 12.153546,-11.2731 0.793701,-0.63242 0.94252,-0.55805 1.103721,0.32248 l 1.674233,10.15692 c 0.23565,1.51295 0.23565,1.42612 -1.190552,1.9098 -6.99449,2.3811 -11.521046,8.64388 -11.521046,15.39038 0,7.14331 3.732855,12.22795 9.139943,14.05101 0.632501,0.23565 1.587402,0.48368 2.133072,0.48368 0.644882,0 0.954902,-0.39685 0.954902,-0.88053 0,-0.55806 -0.632501,-0.79371 -1.190552,-1.02935 -3.336005,-1.42618 -5.717108,-4.83662 -5.717108,-8.49509 0,-4.52657 3.100355,-7.93701 7.93701,-9.28882 1.277383,-0.31002 1.438583,-0.23557 1.587402,0.64488 l 3.968505,23.64983 c 0.161201,0.86815 0.08683,0.86815 -1.10372,1.1038 -1.277383,0.24804 -2.864785,0.39685 -4.452187,0.39685 -13.889767,0 -22.856128,-7.68897 -22.856128,-18.72642 m 30.954339,-73.26852 c 2.616753,0 4.762206,2.14545 4.762206,6.51081 0,8.81754 -7.540159,15.96085 -13.802937,21.42992 -0.558051,0.48369 -0.880531,0.39685 -1.041732,-0.6325 -0.31002,-2.05862 -0.4713,-4.7622 -0.4713,-7.30451 0,-12.37673 5.717187,-20.00372 10.553763,-20.00372 m -2.294272,65.56716 c 6.423978,0.55805 11.744314,5.95274 11.744314,12.93483 0,5.01027 -3.013603,9.05315 -7.465789,11.27305 -0.954902,0.48368 -1.103721,0.48368 -1.264922,-0.4713 l -3.894135,-22.62048 c -0.161201,-0.9549 -0.07437,-1.19055 0.880532,-1.1161"
     id="path748"
     inkscape:connector-curvature="0"
     style="stroke-width:0.79370099" />
  <polyline
     class="TextLineSegment"
     points="418.209,1371.5 628.698,1375.02"
     id="polyline858"
     style="stroke:#000000;stroke-width:8.93000031;stroke-linecap:square;stroke-linejoin:bevel"
     transform="translate(-102.85,-1366.961)" />
  <polyline
     class="TextLineSegment"
     points="1676.74,1377.39 1868.17,1381.03"
     id="polyline860"
     style="stroke:#000000;stroke-width:8.93000031;stroke-linecap:square;stroke-linejoin:bevel"
     transform="translate(-102.85,-1366.961)" />
</svg>
