<?xml version="1.0" encoding="UTF-8" standalone="no"?>
<svg
   xmlns:dc="http://purl.org/dc/elements/1.1/"
   xmlns:cc="http://creativecommons.org/ns#"
   xmlns:rdf="http://www.w3.org/1999/02/22-rdf-syntax-ns#"
   xmlns:svg="http://www.w3.org/2000/svg"
   xmlns="http://www.w3.org/2000/svg"
   xmlns:sodipodi="http://sodipodi.sourceforge.net/DTD/sodipodi-0.dtd"
   xmlns:inkscape="http://www.inkscape.org/namespaces/inkscape"
   width="2800.96"
   height="300"
   viewBox="0 0 2800.9601 300.00001"
   version="1.2"
   id="svg584"
   sodipodi:docname="KV 545-Exposition-1e.svg"
   inkscape:version="0.92.3 (2405546, 2018-03-11)">
  <metadata
     id="metadata590">
    <rdf:RDF>
      <cc:Work
         rdf:about="">
        <dc:format>image/svg+xml</dc:format>
        <dc:type
           rdf:resource="http://purl.org/dc/dcmitype/StillImage" />
        <dc:title>KV 545-Exposition (1)</dc:title>
      </cc:Work>
    </rdf:RDF>
  </metadata>
  <defs
     id="defs588" />
  <sodipodi:namedview
     pagecolor="#ffffff"
     bordercolor="#666666"
     borderopacity="1"
     objecttolerance="10"
     gridtolerance="10"
     guidetolerance="10"
     inkscape:pageopacity="0"
     inkscape:pageshadow="2"
     inkscape:window-width="3840"
     inkscape:window-height="2066"
     id="namedview586"
     showgrid="false"
     inkscape:zoom="4.342836"
     inkscape:cx="2260.1847"
     inkscape:cy="225.93284"
     inkscape:window-x="-11"
     inkscape:window-y="-11"
     inkscape:window-maximized="1"
     inkscape:current-layer="svg584" />
  <title
     id="title2">KV 545-Exposition (1)</title>
  <desc
     id="desc4">Generated by MuseScore 3.6.2</desc>
  <polyline
     class="StaffLines"
     points="102.85,1493.86 2903.81,1493.86"
     id="polyline46"
     style="fill:none;stroke:#000000;stroke-width:2.57999992;stroke-linejoin:bevel"
     transform="translate(-102.85,-1362.2)" />
  <polyline
     class="StaffLines"
     points="102.85,1513.7 2903.81,1513.7"
     id="polyline48"
     style="fill:none;stroke:#000000;stroke-width:2.57999992;stroke-linejoin:bevel"
     transform="translate(-102.85,-1362.2)" />
  <polyline
     class="StaffLines"
     points="102.85,1533.54 2903.81,1533.54"
     id="polyline50"
     style="fill:none;stroke:#000000;stroke-width:2.57999992;stroke-linejoin:bevel"
     transform="translate(-102.85,-1362.2)" />
  <polyline
     class="StaffLines"
     points="102.85,1553.39 2903.81,1553.39"
     id="polyline52"
     style="fill:none;stroke:#000000;stroke-width:2.57999992;stroke-linejoin:bevel"
     transform="translate(-102.85,-1362.2)" />
  <polyline
     class="StaffLines"
     points="102.85,1573.23 2903.81,1573.23"
     id="polyline54"
     style="fill:none;stroke:#000000;stroke-width:2.57999992;stroke-linejoin:bevel"
     transform="translate(-102.85,-1362.2)" />
  <path
     class="SlurSegment"
     d="m 221.03399,168.52 c 267.37,37.87 642.698,41.34 909.40601,-4.86 -266.682,50.96 -642.01101,47.49 -909.406,4.86"
     id="path56"
     inkscape:connector-curvature="0"
     style="fill-rule:evenodd;stroke:#000000;stroke-width:1.98000002;stroke-linecap:round;stroke-linejoin:round" />
  <path
     class="SlurSegment"
     d="m 191.24199,248.73 c 142.607,62.28 808.10804,62.28 950.70801,0 -142.59997,67.04 -808.10101,67.04 -950.70801,0"
     id="path58"
     inkscape:connector-curvature="0"
     style="fill-rule:evenodd;stroke:#000000;stroke-width:1.98000002;stroke-linecap:round;stroke-linejoin:round" />
  <path
     class="SlurSegment"
     d="m 1549.88,234.98 c 224.03,75.84 874.19,76.81 928.81,1.39 -54.63,80.18 -704.79,79.21 -928.81,-1.39"
     id="path60"
     inkscape:connector-curvature="0"
     style="fill-rule:evenodd;stroke:#000000;stroke-width:1.98000002;stroke-linecap:round;stroke-linejoin:round" />
  <path
     class="SlurSegment"
     d="m 1539.35,194.58 c 138.18,-30.37 798.34,-12.39 943.09,25.68 -144.88,-33.31 -805.04,-51.29 -943.09,-25.68"
     id="path62"
     inkscape:connector-curvature="0"
     style="fill-rule:evenodd;stroke:#000000;stroke-width:1.98000002;stroke-linecap:round;stroke-linejoin:round" />
  <path
     class="SlurSegment"
     d="M 214.48299,135.97 C 322.00599,35.499997 2133.11,13.129996 2479.99,117.9 2133.15,17.889997 322.04399,40.259997 214.48299,135.97"
     id="path64"
     inkscape:connector-curvature="0"
     style="fill-rule:evenodd;stroke:#000000;stroke-width:1.98000002;stroke-linecap:round;stroke-linejoin:round" />
  <path
     class="SlurSegment"
     d="m 211.63599,155.5 c 56.212,-50.38 350.967,-76.340003 421.078,-37.09 -69.693,-34.510003 -364.448,-8.55 -421.078,37.09"
     id="path66"
     inkscape:connector-curvature="0"
     style="fill-rule:evenodd;stroke:#000000;stroke-width:1.98000002;stroke-linecap:round;stroke-linejoin:round" />
  <path
     class="SlurSegment"
     d="M 669.70599,115.2 C 790.91199,77.079997 1362.84,65.089997 1486.75,98.069997 1362.94,69.849997 791.01199,81.839997 669.70599,115.2"
     id="path68"
     inkscape:connector-curvature="0"
     style="fill-rule:evenodd;stroke:#000000;stroke-width:1.98000002;stroke-linecap:round;stroke-linejoin:round" />
  <path
     class="SlurSegment"
     d="m 1849.36,118.93 c 56.49,-30.410003 239.56,-33.830003 305.1,-5.71 -65.46,-23.360003 -248.52,-19.930003 -305.1,5.71"
     id="path70"
     inkscape:connector-curvature="0"
     style="fill-rule:evenodd;stroke:#000000;stroke-width:1.98000002;stroke-linecap:round;stroke-linejoin:round" />
  <polyline
     class="BarLine"
     points="104.438,1492.57 104.438,1574.52"
     id="polyline74"
     style="stroke:#000000;stroke-width:3.17000008;stroke-linejoin:bevel"
     transform="translate(-102.85,-1362.2)" />
  <polyline
     class="BarLine"
     points="893.878,1492.57 893.878,1574.52"
     id="polyline76"
     style="stroke:#000000;stroke-width:3.17000008;stroke-linejoin:bevel"
     transform="translate(-102.85,-1362.2)" />
  <polyline
     class="BarLine"
     points="1575.36,1492.57 1575.36,1574.52"
     id="polyline78"
     style="stroke:#000000;stroke-width:3.17000008;stroke-linejoin:bevel"
     transform="translate(-102.85,-1362.2)" />
  <polyline
     class="BarLine"
     points="2222.73,1492.57 2222.73,1574.52"
     id="polyline80"
     style="stroke:#000000;stroke-width:3.17000008;stroke-linejoin:bevel"
     transform="translate(-102.85,-1362.2)" />
  <polyline
     class="BarLine"
     points="2902.22,1492.57 2902.22,1574.52"
     id="polyline82"
     style="stroke:#000000;stroke-width:3.17000008;stroke-linejoin:bevel"
     transform="translate(-102.85,-1362.2)" />
  <polyline
     class="BarLine"
     points="104.438,1165.17 104.438,1493.86"
     id="polyline84"
     style="stroke:#000000;stroke-width:3.17000008;stroke-linejoin:bevel"
     transform="matrix(1,0,0,0.00392467,-102.85,125.7971)" />
  <polyline
     class="LedgerLine"
     points="267.94,1593.07 320.244,1593.07"
     id="polyline124"
     style="stroke:#000000;stroke-width:3.17000008;stroke-linejoin:bevel"
     transform="translate(-102.85,-1362.2)" />
  <polyline
     class="LedgerLine"
     points="1251.39,1593.07 1293.38,1593.07"
     id="polyline126"
     style="stroke:#000000;stroke-width:3.17000008;stroke-linejoin:bevel"
     transform="translate(-102.85,-1362.2)" />
  <polyline
     class="LedgerLine"
     points="1601.95,1474.02 1643.93,1474.02"
     id="polyline128"
     style="stroke:#000000;stroke-width:3.17000008;stroke-linejoin:bevel"
     transform="translate(-102.85,-1362.2)" />
  <polyline
     class="LedgerLine"
     points="1596.79,1593.07 1649.09,1593.07"
     id="polyline130"
     style="stroke:#000000;stroke-width:3.17000008;stroke-linejoin:bevel"
     transform="translate(-102.85,-1362.2)" />
  <polyline
     class="LedgerLine"
     points="2244.16,1593.07 2286.14,1593.07"
     id="polyline132"
     style="stroke:#000000;stroke-width:3.17000008;stroke-linejoin:bevel"
     transform="translate(-102.85,-1362.2)" />
  <polyline
     class="LedgerLine"
     points="2578.25,1593.07 2620.24,1593.07"
     id="polyline134"
     style="stroke:#000000;stroke-width:3.17000008;stroke-linejoin:bevel"
     transform="translate(-102.85,-1362.2)" />
  <polyline
     class="Stem"
     points="926.42,1585.82 926.42,1632.76"
     id="polyline170"
     style="stroke:#000000;stroke-width:2.38000011;stroke-linejoin:bevel"
     transform="translate(-102.85,-1362.2)" />
  <polyline
     class="Stem"
     points="1260.52,1595.74 1260.52,1640.2"
     id="polyline172"
     style="stroke:#000000;stroke-width:2.38000011;stroke-linejoin:bevel"
     transform="translate(-102.85,-1362.2)" />
  <polyline
     class="Stem"
     points="2253.28,1605.66 2253.28,1647.64"
     id="polyline174"
     style="stroke:#000000;stroke-width:2.38000011;stroke-linejoin:bevel"
     transform="translate(-102.85,-1362.2)" />
  <polyline
     class="Stem"
     points="2587.38,1595.74 2587.38,1640.2"
     id="polyline176"
     style="stroke:#000000;stroke-width:2.38000011;stroke-linejoin:bevel"
     transform="translate(-102.85,-1362.2)" />
  <polyline
     class="Stem"
     points="282.028,1526.29 282.028,1568.1"
     id="polyline178"
     style="stroke:#000000;stroke-width:2.38000011;stroke-linejoin:bevel"
     transform="translate(-102.85,-1362.2)" />
  <polyline
     class="Stem"
     points="916.499,1536.21 916.499,1595.55"
     id="polyline180"
     style="stroke:#000000;stroke-width:2.38000011;stroke-linejoin:bevel"
     transform="translate(-102.85,-1362.2)" />
  <polyline
     class="Stem"
     points="1250.6,1526.29 1250.6,1588.11"
     id="polyline182"
     style="stroke:#000000;stroke-width:2.38000011;stroke-linejoin:bevel"
     transform="translate(-102.85,-1362.2)" />
  <polyline
     class="Stem"
     points="1634.81,1560.64 1634.81,1526.93"
     id="polyline184"
     style="stroke:#000000;stroke-width:2.38000011;stroke-linejoin:bevel"
     transform="translate(-102.85,-1362.2)" />
  <polyline
     class="Stem"
     points="1940.43,1570.56 1940.43,1537.47"
     id="polyline186"
     style="stroke:#000000;stroke-width:2.38000011;stroke-linejoin:bevel"
     transform="translate(-102.85,-1362.2)" />
  <polyline
     class="Stem"
     points="2277.01,1580.48 2277.01,1558.96"
     id="polyline188"
     style="stroke:#000000;stroke-width:2.38000011;stroke-linejoin:bevel"
     transform="translate(-102.85,-1362.2)" />
  <polyline
     class="Stem"
     points="2587.38,1506.45 2587.38,1564.48"
     id="polyline190"
     style="stroke:#000000;stroke-width:2.38000011;stroke-linejoin:bevel"
     transform="translate(-102.85,-1362.2)" />
  <polyline
     class="Stem"
     points="305.957,1520.96 305.957,1402.46"
     id="polyline192"
     style="stroke:#000000;stroke-width:2.38000011;stroke-linejoin:bevel"
     transform="translate(-102.85,-1362.2)" />
  <polyline
     class="Stem"
     points="611.585,1501.11 611.585,1449.21"
     id="polyline194"
     style="stroke:#000000;stroke-width:2.38000011;stroke-linejoin:bevel"
     transform="translate(-102.85,-1362.2)" />
  <polyline
     class="Stem"
     points="764.398,1481.27 764.398,1447.51"
     id="polyline196"
     style="stroke:#000000;stroke-width:2.38000011;stroke-linejoin:bevel"
     transform="translate(-102.85,-1362.2)" />
  <polyline
     class="Stem"
     points="1634.81,1471.35 1634.81,1426.89"
     id="polyline198"
     style="stroke:#000000;stroke-width:2.38000011;stroke-linejoin:bevel"
     transform="translate(-102.85,-1362.2)" />
  <polyline
     class="Stem"
     points="1940.43,1481.27 1940.43,1434.33"
     id="polyline200"
     style="stroke:#000000;stroke-width:2.38000011;stroke-linejoin:bevel"
     transform="translate(-102.85,-1362.2)" />
  <polyline
     class="Stem"
     points="2434.24,1491.19 2434.24,1441.77"
     id="polyline202"
     style="stroke:#000000;stroke-width:2.38000011;stroke-linejoin:bevel"
     transform="translate(-102.85,-1362.2)" />
  <polyline
     class="Stem"
     points="2611.11,1501.11 2611.11,1423.23"
     id="polyline204"
     style="stroke:#000000;stroke-width:2.38000011;stroke-linejoin:bevel"
     transform="translate(-102.85,-1362.2)" />
  <path
     class="Note"
     d="m 173.02699,230.7088 c 0,5.7915 4.92344,10.9506 17.78391,10.9506 14.12534,0 18.65197,-4.911 18.65197,-10.9506 0,-6.114 -9.76006,-10.715 -17.7839,-10.715 -11.50866,0 -18.65198,4.849 -18.65198,10.715 m 9.28877,-3.1748 c 0,-4.4398 3.08805,-5.5559 7.14332,-5.5559 5.87837,0 10.64059,6.3496 10.64059,11.5955 0,4.3653 -2.70358,6.1016 -6.59765,6.1016 -5.71711,0 -11.18626,-6.5853 -11.18626,-12.1412"
     id="path326"
     inkscape:connector-curvature="0"
     style="stroke-width:0.79370099" />
  <path
     class="Note"
     d="m 1501.88,230.7088 c 0,5.7915 4.9234,10.9506 17.7839,10.9506 14.1253,0 18.652,-4.911 18.652,-10.9506 0,-6.114 -9.7601,-10.715 -17.784,-10.715 -11.5086,0 -18.6519,4.849 -18.6519,10.715 m 9.2887,-3.1748 c 0,-4.4398 3.0881,-5.5559 7.1433,-5.5559 5.8784,0 10.6406,6.3496 10.6406,11.5955 0,4.3653 -2.7035,6.1016 -6.5976,6.1016 -5.7171,0 -11.1863,-6.5853 -11.1863,-12.1412"
     id="path328"
     inkscape:connector-curvature="0"
     style="stroke-width:0.79370099" />
  <path
     class="Note"
     d="m 830.94952,232.0618 c 14.60901,0 17.54825,-11.9055 17.54825,-14.7578 0,-4.5266 -3.57166,-7.4658 -8.73071,-7.4658 -13.25734,0 -17.38707,10.2437 -17.38707,14.8447 0,4.6754 3.73289,7.3789 8.56953,7.3789 m -5.95278,-7.2177 c 0,-4.2909 12.78606,-11.3598 16.99014,-11.3598 1.66185,0 2.61675,0.7937 3.24925,1.9098 0.24802,0.4713 0.48368,1.0293 0.48368,1.6618 0,1.7486 -1.82305,3.8941 -8.02384,7.937 -3.9685,2.7036 -6.74645,3.6585 -8.64392,3.6585 -1.83543,0 -2.93917,-0.9549 -3.49724,-2.0711 -0.32244,-0.4712 -0.55807,-1.1037 -0.55807,-1.7362"
     id="path330"
     inkscape:connector-curvature="0"
     style="stroke-width:0.79370099" />
  <path
     class="Note"
     d="m 1165.0495,241.9818 c 14.609,0 17.5482,-11.9055 17.5482,-14.7578 0,-4.5266 -3.5716,-7.4658 -8.7307,-7.4658 -13.2573,0 -17.387,10.2437 -17.387,14.8447 0,4.6754 3.7329,7.3789 8.5695,7.3789 m -5.9528,-7.2177 c 0,-4.2909 12.7861,-11.3598 16.9902,-11.3598 1.6618,0 2.6167,0.7937 3.2492,1.9098 0.248,0.4713 0.4837,1.0293 0.4837,1.6618 0,1.7486 -1.8231,3.8941 -8.0239,7.937 -3.9685,2.7036 -6.7464,3.6585 -8.6439,3.6585 -1.8354,0 -2.9391,-0.9549 -3.4972,-2.0711 -0.3225,-0.4712 -0.5581,-1.1037 -0.5581,-1.7362"
     id="path332"
     inkscape:connector-curvature="0"
     style="stroke-width:0.79370099" />
  <path
     class="Note"
     d="m 2157.8095,251.9018 c 14.609,0 17.5482,-11.9055 17.5482,-14.7578 0,-4.5266 -3.5716,-7.4658 -8.7307,-7.4658 -13.2573,0 -17.387,10.2437 -17.387,14.8447 0,4.6754 3.7329,7.3789 8.5695,7.3789 m -5.9528,-7.2177 c 0,-4.2909 12.7861,-11.3598 16.9902,-11.3598 1.6618,0 2.6167,0.7937 3.2492,1.9098 0.248,0.4713 0.4837,1.0293 0.4837,1.6618 0,1.7486 -1.8231,3.8941 -8.0239,7.937 -3.9685,2.7036 -6.7464,3.6585 -8.6439,3.6585 -1.8354,0 -2.9391,-0.9549 -3.4972,-2.0711 -0.3225,-0.4712 -0.5581,-1.1037 -0.5581,-1.7362"
     id="path334"
     inkscape:connector-curvature="0"
     style="stroke-width:0.79370099" />
  <path
     class="Note"
     d="m 2491.9095,241.9818 c 14.609,0 17.5482,-11.9055 17.5482,-14.7578 0,-4.5266 -3.5716,-7.4658 -8.7307,-7.4658 -13.2573,0 -17.387,10.2437 -17.387,14.8447 0,4.6754 3.7329,7.3789 8.5695,7.3789 m -5.9528,-7.2177 c 0,-4.2909 12.7861,-11.3598 16.9902,-11.3598 1.6618,0 2.6167,0.7937 3.2492,1.9098 0.248,0.4713 0.4837,1.0293 0.4837,1.6618 0,1.7486 -1.8231,3.8941 -8.0239,7.937 -3.9685,2.7036 -6.7464,3.6585 -8.6439,3.6585 -1.8354,0 -2.9391,-0.9549 -3.4972,-2.0711 -0.3225,-0.4712 -0.5581,-1.1037 -0.5581,-1.7362"
     id="path336"
     inkscape:connector-curvature="0"
     style="stroke-width:0.79370099" />
  <path
     class="Note"
     d="m 186.55751,172.5318 c 14.60901,0 17.54825,-11.9055 17.54825,-14.7578 0,-4.5266 -3.57166,-7.4658 -8.73071,-7.4658 -13.25733,0 -17.38706,10.2437 -17.38706,14.8447 0,4.6754 3.73288,7.3789 8.56953,7.3789 m -5.95278,-7.2177 c 0,-4.2909 12.78606,-11.3598 16.99014,-11.3598 1.66185,0 2.61675,0.7937 3.24925,1.9098 0.24803,0.4713 0.48367,1.0293 0.48367,1.6618 0,1.7486 -1.82304,3.8941 -8.02384,7.937 -3.9685,2.7036 -6.74645,3.6585 -8.64392,3.6585 -1.83543,0 -2.93917,-0.9549 -3.49724,-2.0711 -0.32244,-0.4712 -0.55807,-1.1037 -0.55807,-1.7362"
     id="path338"
     inkscape:connector-curvature="0"
     style="stroke-width:0.79370099" />
  <path
     class="Note"
     d="m 821.02751,182.4518 c 14.60901,0 17.54826,-11.9055 17.54826,-14.7578 0,-4.5266 -3.57166,-7.4658 -8.73072,-7.4658 -13.25733,0 -17.38706,10.2437 -17.38706,14.8447 0,4.6754 3.73288,7.3789 8.56952,7.3789 m -5.95277,-7.2177 c 0,-4.2909 12.78606,-11.3598 16.99014,-11.3598 1.66184,0 2.61675,0.7937 3.24924,1.9098 0.24803,0.4713 0.48369,1.0293 0.48369,1.6618 0,1.7486 -1.82305,3.8941 -8.02384,7.937 -3.9685,2.7036 -6.74645,3.6585 -8.64392,3.6585 -1.83543,0 -2.93917,-0.9549 -3.49724,-2.0711 -0.32244,-0.4712 -0.55807,-1.1037 -0.55807,-1.7362"
     id="path340"
     inkscape:connector-curvature="0"
     style="stroke-width:0.79370099" />
  <path
     class="Note"
     d="m 1146.56,165.1529 c 0,4.601 3.8073,7.3789 8.5695,7.3789 7.8625,0 17.5482,-7.3045 17.5482,-14.8447 0,-4.4397 -3.5716,-7.3789 -8.6563,-7.3789 -9.6856,0 -17.4614,7.2177 -17.4614,14.8447"
     id="path342"
     inkscape:connector-curvature="0"
     style="stroke-width:0.79370099" />
  <path
     class="Note"
     d="m 1515.5995,212.2218 c 14.609,0 17.5482,-11.9055 17.5482,-14.7578 0,-4.5266 -3.5716,-7.4658 -8.7307,-7.4658 -13.2573,0 -17.387,10.2437 -17.387,14.8447 0,4.6754 3.7329,7.3789 8.5695,7.3789 m -5.9528,-7.2177 c 0,-4.2909 12.7861,-11.3598 16.9902,-11.3598 1.6618,0 2.6167,0.7937 3.2492,1.9098 0.248,0.4713 0.4837,1.0293 0.4837,1.6618 0,1.7486 -1.8231,3.8941 -8.0239,7.937 -3.9685,2.7036 -6.7464,3.6585 -8.6439,3.6585 -1.8354,0 -2.9391,-0.9549 -3.4972,-2.0711 -0.3225,-0.4712 -0.5581,-1.1037 -0.5581,-1.7362"
     id="path344"
     inkscape:connector-curvature="0"
     style="stroke-width:0.79370099" />
  <path
     class="Note"
     d="m 1821.2295,222.1418 c 14.609,0 17.5482,-11.9055 17.5482,-14.7578 0,-4.5266 -3.5716,-7.4658 -8.7307,-7.4658 -13.2573,0 -17.387,10.2437 -17.387,14.8447 0,4.6754 3.7329,7.3789 8.5695,7.3789 m -5.9528,-7.2177 c 0,-4.2909 12.7861,-11.3598 16.9902,-11.3598 1.6618,0 2.6167,0.7937 3.2492,1.9098 0.248,0.4713 0.4837,1.0293 0.4837,1.6618 0,1.7486 -1.8231,3.8941 -8.0239,7.937 -3.9685,2.7036 -6.7464,3.6585 -8.6439,3.6585 -1.8354,0 -2.9391,-0.9549 -3.4972,-2.0711 -0.3225,-0.4712 -0.5581,-1.1037 -0.5581,-1.7362"
     id="path346"
     inkscape:connector-curvature="0"
     style="stroke-width:0.79370099" />
  <path
     class="Note"
     d="m 2157.8095,232.0618 c 14.609,0 17.5482,-11.9055 17.5482,-14.7578 0,-4.5266 -3.5716,-7.4658 -8.7307,-7.4658 -13.2573,0 -17.387,10.2437 -17.387,14.8447 0,4.6754 3.7329,7.3789 8.5695,7.3789 m -5.9528,-7.2177 c 0,-4.2909 12.7861,-11.3598 16.9902,-11.3598 1.6618,0 2.6167,0.7937 3.2492,1.9098 0.248,0.4713 0.4837,1.0293 0.4837,1.6618 0,1.7486 -1.8231,3.8941 -8.0239,7.937 -3.9685,2.7036 -6.7464,3.6585 -8.6439,3.6585 -1.8354,0 -2.9391,-0.9549 -3.4972,-2.0711 -0.3225,-0.4712 -0.5581,-1.1037 -0.5581,-1.7362"
     id="path348"
     inkscape:connector-curvature="0"
     style="stroke-width:0.79370099" />
  <path
     class="Note"
     d="m 2491.9095,152.6918 c 14.609,0 17.5482,-11.9055 17.5482,-14.7578 0,-4.5266 -3.5716,-7.4658 -8.7307,-7.4658 -13.2573,0 -17.387,10.2437 -17.387,14.8447 0,4.6754 3.7329,7.3789 8.5695,7.3789 m -5.9528,-7.2177 c 0,-4.2909 12.7861,-11.3598 16.9902,-11.3598 1.6618,0 2.6167,0.7937 3.2492,1.9098 0.248,0.4713 0.4837,1.0293 0.4837,1.6618 0,1.7486 -1.8231,3.8941 -8.0239,7.937 -3.9685,2.7036 -6.7464,3.6585 -8.6439,3.6585 -1.8354,0 -2.9391,-0.9549 -3.4972,-2.0711 -0.3225,-0.4712 -0.5581,-1.1037 -0.5581,-1.7362"
     id="path350"
     inkscape:connector-curvature="0"
     style="stroke-width:0.79370099" />
  <path
     class="Note"
     d="m 186.75551,172.5318 c 14.60902,0 17.54825,-11.9055 17.54825,-14.7578 0,-4.5266 -3.57166,-7.4658 -8.73071,-7.4658 -13.25732,0 -17.38705,10.2437 -17.38705,14.8447 0,4.6754 3.73288,7.3789 8.56952,7.3789 m -5.95278,-7.2177 c 0,-4.2909 12.78606,-11.3598 16.99014,-11.3598 1.66185,0 2.61675,0.7937 3.24925,1.9098 0.24803,0.4713 0.48368,1.0293 0.48368,1.6618 0,1.7486 -1.82305,3.8941 -8.02384,7.937 -3.96851,2.7036 -6.74646,3.6585 -8.64393,3.6585 -1.83543,0 -2.93916,-0.9549 -3.49724,-2.0711 -0.32244,-0.4712 -0.55806,-1.1037 -0.55806,-1.7362"
     id="path352"
     inkscape:connector-curvature="0"
     style="stroke-width:0.79370099" />
  <path
     class="Note"
     d="m 483.81399,145.3129 c 0,4.601 3.80729,7.3789 8.56952,7.3789 7.86257,0 17.54826,-7.3045 17.54826,-14.8447 0,-4.4397 -3.57166,-7.3789 -8.65634,-7.3789 -9.68563,0 -17.46143,7.2177 -17.46143,14.8447"
     id="path354"
     inkscape:connector-curvature="0"
     style="stroke-width:0.79370099" />
  <path
     class="Note"
     d="m 636.62699,125.4729 c 0,4.601 3.80729,7.3789 8.56952,7.3789 7.86256,0 17.54826,-7.3045 17.54826,-14.8447 0,-4.4397 -3.57166,-7.3789 -8.65634,-7.3789 -9.68563,0 -17.46143,7.2177 -17.46143,14.8447"
     id="path356"
     inkscape:connector-curvature="0"
     style="stroke-width:0.79370099" />
  <path
     class="Note"
     d="m 1515.5995,122.9318 c 14.609,0 17.5482,-11.9055 17.5482,-14.7578 0,-4.5266 -3.5716,-7.4658 -8.7307,-7.4658 -13.2573,0 -17.387,10.2437 -17.387,14.8447 0,4.6754 3.7329,7.3789 8.5695,7.3789 m -5.9528,-7.2177 c 0,-4.2909 12.7861,-11.3598 16.9902,-11.3598 1.6618,0 2.6167,0.7937 3.2492,1.9098 0.248,0.4713 0.4837,1.0293 0.4837,1.6618 0,1.7486 -1.8231,3.8941 -8.0239,7.937 -3.9685,2.7036 -6.7464,3.6585 -8.6439,3.6585 -1.8354,0 -2.9391,-0.9549 -3.4972,-2.0711 -0.3225,-0.4712 -0.5581,-1.1037 -0.5581,-1.7362"
     id="path358"
     inkscape:connector-curvature="0"
     style="stroke-width:0.79370099" />
  <path
     class="Note"
     d="m 1821.2295,132.8518 c 14.609,0 17.5482,-11.9055 17.5482,-14.7578 0,-4.5266 -3.5716,-7.4658 -8.7307,-7.4658 -13.2573,0 -17.387,10.2437 -17.387,14.8447 0,4.6754 3.7329,7.3789 8.5695,7.3789 m -5.9528,-7.2177 c 0,-4.2909 12.7861,-11.3598 16.9902,-11.3598 1.6618,0 2.6167,0.7937 3.2492,1.9098 0.248,0.4713 0.4837,1.0293 0.4837,1.6618 0,1.7486 -1.8231,3.8941 -8.0239,7.937 -3.9685,2.7036 -6.7464,3.6585 -8.6439,3.6585 -1.8354,0 -2.9391,-0.9549 -3.4972,-2.0711 -0.3225,-0.4712 -0.5581,-1.1037 -0.5581,-1.7362"
     id="path360"
     inkscape:connector-curvature="0"
     style="stroke-width:0.79370099" />
  <path
     class="Note"
     d="m 2306.47,135.3929 c 0,4.601 3.8073,7.3789 8.5695,7.3789 7.8625,0 17.5482,-7.3045 17.5482,-14.8447 0,-4.4397 -3.5716,-7.3789 -8.6563,-7.3789 -9.6856,0 -17.4614,7.2177 -17.4614,14.8447"
     id="path362"
     inkscape:connector-curvature="0"
     style="stroke-width:0.79370099" />
  <path
     class="Note"
     d="m 2491.9095,152.6918 c 14.609,0 17.5482,-11.9055 17.5482,-14.7578 0,-4.5266 -3.5716,-7.4658 -8.7307,-7.4658 -13.2573,0 -17.387,10.2437 -17.387,14.8447 0,4.6754 3.7329,7.3789 8.5695,7.3789 m -5.9528,-7.2177 c 0,-4.2909 12.7861,-11.3598 16.9902,-11.3598 1.6618,0 2.6167,0.7937 3.2492,1.9098 0.248,0.4713 0.4837,1.0293 0.4837,1.6618 0,1.7486 -1.8231,3.8941 -8.0239,7.937 -3.9685,2.7036 -6.7464,3.6585 -8.6439,3.6585 -1.8354,0 -2.9391,-0.9549 -3.4972,-2.0711 -0.3225,-0.4712 -0.5581,-1.1037 -0.5581,-1.7362"
     id="path364"
     inkscape:connector-curvature="0"
     style="stroke-width:0.79370099" />
  <path
     class="Clef"
     d="m 47.944717,211.1937 c 1.822972,0 3.881674,-0.1612 5.469076,-0.4836 0.880532,-0.1488 1.041732,-0.2356 1.190551,0.7193 0.954902,5.3202 2.145453,12.228 2.145453,15.9608 0,11.7444 -7.93701,13.1705 -12.612385,13.1705 -4.290985,0 -6.36199,-1.2649 -6.36199,-2.3067 0,-0.5456 0.719252,-0.7937 2.542304,-1.3393 2.467934,-0.7194 5.320257,-2.8648 5.320257,-7.4658 0,-4.3654 -2.777953,-8.0982 -7.614529,-8.0982 -5.320336,0 -8.49514,4.2041 -8.49514,9.1275 0,5.1591 3.088052,12.9349 15.080319,12.9349 5.320336,0 15.638449,-2.3811 15.638449,-15.874 0,-4.5142 -1.426201,-12.0544 -2.306733,-16.9778 -0.161201,-0.955 -0.07437,-0.8805 1.029351,-1.3518 8.023841,-3.1748 13.344095,-9.9213 13.344095,-18.8876 0,-10.1693 -7.465787,-19.1356 -19.135652,-19.1356 -2.058622,0 -2.058622,0 -2.294272,-1.4262 l -1.984253,-11.5087 c -0.1612,-0.9549 0,-1.0293 0.471221,-1.513 8.56951,-8.0114 15.080319,-18.0939 15.080319,-30.235 0,-6.9077 -1.909804,-13.741 -5.159057,-18.5036 -1.190551,-1.7358 -3.249174,-3.9685 -4.129706,-3.9685 -1.10372,0 -3.571654,2.0716 -5.159056,3.8201 -5.865927,6.4984 -7.775809,16.4197 -7.775809,24.6791 0,4.601 0.55813,9.7601 1.116181,13.0217 0.148819,0.9549 0.23565,1.1037 -0.719331,1.8974 -11.434215,9.4501 -23.57538,20.7975 -23.57538,36.8327 0,13.8154 9.450042,26.9114 28.895717,26.9114 M 25.398608,189.6026 c 0,-4.6878 0.793701,-10.9506 7.378959,-18.4163 4.762206,-5.3203 8.420691,-8.2595 12.153546,-11.2731 0.793701,-0.6324 0.94252,-0.5581 1.103721,0.3225 l 1.674233,10.1569 c 0.23565,1.5129 0.23565,1.4261 -1.190552,1.9098 -6.99449,2.3811 -11.521046,8.6439 -11.521046,15.3904 0,7.1433 3.732855,12.2279 9.139943,14.051 0.632501,0.2356 1.587402,0.4837 2.133072,0.4837 0.644882,0 0.954901,-0.3969 0.954901,-0.8806 0,-0.558 -0.6325,-0.7937 -1.190551,-1.0293 -3.336005,-1.4262 -5.717108,-4.8366 -5.717108,-8.4951 0,-4.5266 3.100355,-7.937 7.93701,-9.2888 1.277383,-0.31 1.438583,-0.2356 1.587402,0.6449 l 3.968505,23.6498 c 0.161201,0.8681 0.08683,0.8681 -1.10372,1.1038 -1.277383,0.248 -2.864785,0.3968 -4.452187,0.3968 -13.889767,0 -22.856128,-7.6889 -22.856128,-18.7264 m 30.954339,-73.2685 c 2.616753,0 4.762206,2.1454 4.762206,6.5108 0,8.8175 -7.54016,15.9608 -13.802937,21.4299 -0.558051,0.4837 -0.880532,0.3969 -1.041732,-0.6325 -0.31002,-2.0586 -0.4713,-4.7622 -0.4713,-7.3045 0,-12.3767 5.717187,-20.0037 10.553763,-20.0037 m -2.294272,65.5672 c 6.423978,0.558 11.744314,5.9527 11.744314,12.9348 0,5.0103 -3.013603,9.0531 -7.46579,11.273 -0.954901,0.4837 -1.10372,0.4837 -1.264921,-0.4713 l -3.894135,-22.6204 c -0.161201,-0.9549 -0.07437,-1.1906 0.880532,-1.1161"
     id="path522"
     inkscape:connector-curvature="0"
     style="stroke-width:0.79370099" />
  <path
     class="TimeSig"
     d="m 97.308905,185.7878 c 3.013605,3.6461 7.378955,5.3204 12.141165,5.3204 13.88976,0 15.96085,-12.6249 15.96085,-14.9316 0,-1.7362 -0.88052,-1.7362 -1.19055,-1.7362 -0.6325,0 -1.19056,0.074 -1.19056,1.4262 0,10.2313 -8.73071,12.6124 -11.27309,12.6124 -6.43636,0 -9.84681,-6.2628 -9.84681,-19.3589 0,-13.0961 6.03959,-15.7996 10.31811,-15.7996 4.12971,0 5.80394,1.9098 5.80394,2.7035 0,0.7069 -0.24803,1.7486 -1.43858,1.7486 -3.17481,0 -4.99786,3.4105 -4.99786,5.866 0,4.5266 3.89414,5.9528 6.11396,5.9528 0,0 6.0272,-0.2356 6.0272,-6.8209 0,-10.4049 -11.97996,-11.3475 -13.49291,-11.3475 -11.273055,0 -18.093915,9.9958 -18.093915,20.7107 0,5.1591 1.90984,9.6856 5.15905,13.6541"
     id="path532"
     inkscape:connector-curvature="0"
     style="stroke-width:0.79370099" />
  <polyline
     class="TextLineSegment"
     points="307.023,1406.11 2585.87,1561.94"
     id="polyline572"
     style="stroke:#000000;stroke-width:8.93000031;stroke-linecap:square;stroke-linejoin:bevel"
     transform="translate(-102.85,-1362.2)" />
  <polyline
     class="TextLineSegment"
     points="2435.91,1440.7 2608.55,1452.04"
     id="polyline574"
     style="stroke:#000000;stroke-width:6.94000006;stroke-linecap:square;stroke-linejoin:bevel"
     transform="translate(-102.85,-1362.2)" />
  <polyline
     class="TextLineSegment"
     points="2614.84,1427.3 2707.77,1428.44"
     id="polyline576"
     style="stroke:#000000;stroke-width:8.93000031;stroke-linecap:square;stroke-linejoin:bevel"
     transform="translate(-102.85,-1362.2)" />
  <text
     xml:space="preserve"
     style="font-style:normal;font-variant:normal;font-weight:normal;font-stretch:normal;font-size:40px;line-height:125%;font-family:'Opus Figured Bass Std';-inkscape-font-specification:'Opus Figured Bass Std';letter-spacing:0px;word-spacing:0px;fill:#000000;fill-opacity:1;stroke:none;stroke-width:1px;stroke-linecap:butt;stroke-linejoin:miter;stroke-opacity:1"
     x="2497.217"
     y="49.679417"
     id="text883"><tspan
       sodipodi:role="line"
       id="tspan881"
       x="2497.217"
       y="49.679417">3</tspan></text>
  <path
     style="fill:none;fill-rule:evenodd;stroke:#000000;stroke-width:3.4;stroke-linecap:butt;stroke-linejoin:miter;stroke-opacity:1;stroke-miterlimit:4;stroke-dasharray:none"
     d="M 2496.0648,18.847315 2508.4991,4.8011946 2519.782,18.156523"
     id="path894"
     inkscape:connector-curvature="0" />
</svg>
