<?xml version="1.0" encoding="UTF-8" standalone="no"?>
<svg
   xmlns:dc="http://purl.org/dc/elements/1.1/"
   xmlns:cc="http://creativecommons.org/ns#"
   xmlns:rdf="http://www.w3.org/1999/02/22-rdf-syntax-ns#"
   xmlns:svg="http://www.w3.org/2000/svg"
   xmlns="http://www.w3.org/2000/svg"
   xmlns:sodipodi="http://sodipodi.sourceforge.net/DTD/sodipodi-0.dtd"
   xmlns:inkscape="http://www.inkscape.org/namespaces/inkscape"
   width="2831.3296"
   height="783.78198"
   viewBox="0 0 2831.3297 783.78199"
   version="1.2"
   id="svg876"
   sodipodi:docname="KV 545-Exposition-3c.svg"
   inkscape:version="0.92.3 (2405546, 2018-03-11)">
  <metadata
     id="metadata882">
    <rdf:RDF>
      <cc:Work
         rdf:about="">
        <dc:format>image/svg+xml</dc:format>
        <dc:type
           rdf:resource="http://purl.org/dc/dcmitype/StillImage" />
      </cc:Work>
    </rdf:RDF>
  </metadata>
  <defs
     id="defs880" />
  <sodipodi:namedview
     pagecolor="#ffffff"
     bordercolor="#666666"
     borderopacity="1"
     objecttolerance="10"
     gridtolerance="10"
     guidetolerance="10"
     inkscape:pageopacity="0"
     inkscape:pageshadow="2"
     inkscape:window-width="3840"
     inkscape:window-height="2066"
     id="namedview878"
     showgrid="false"
     inkscape:zoom="0.44281425"
     inkscape:cx="1414.8596"
     inkscape:cy="-818.40529"
     inkscape:window-x="-11"
     inkscape:window-y="-11"
     inkscape:window-maximized="1"
     inkscape:current-layer="svg876" />
  <title
     id="title2">KV 545-Exposition (3)</title>
  <desc
     id="desc4">Generated by MuseScore 3.6.2</desc>
  <polyline
     class="StaffLines"
     points="102.85,958.11 2903.81,958.11"
     id="polyline26"
     style="fill:none;stroke:#000000;stroke-width:2.57999992;stroke-linejoin:bevel"
     transform="translate(-72.480325,-863.858)" />
  <polyline
     class="StaffLines"
     points="102.85,977.953 2903.81,977.953"
     id="polyline28"
     style="fill:none;stroke:#000000;stroke-width:2.57999992;stroke-linejoin:bevel"
     transform="translate(-72.480325,-863.858)" />
  <polyline
     class="StaffLines"
     points="102.85,997.795 2903.81,997.795"
     id="polyline30"
     style="fill:none;stroke:#000000;stroke-width:2.57999992;stroke-linejoin:bevel"
     transform="translate(-72.480325,-863.858)" />
  <polyline
     class="StaffLines"
     points="102.85,1017.64 2903.81,1017.64"
     id="polyline32"
     style="fill:none;stroke:#000000;stroke-width:2.57999992;stroke-linejoin:bevel"
     transform="translate(-72.480325,-863.858)" />
  <polyline
     class="StaffLines"
     points="102.85,1037.48 2903.81,1037.48"
     id="polyline34"
     style="fill:none;stroke:#000000;stroke-width:2.57999992;stroke-linejoin:bevel"
     transform="translate(-72.480325,-863.858)" />
  <polyline
     class="StaffLines"
     points="102.85,1166.46 2903.81,1166.46"
     id="polyline36"
     style="fill:none;stroke:#000000;stroke-width:2.57999992;stroke-linejoin:bevel"
     transform="translate(-72.480325,-863.858)" />
  <polyline
     class="StaffLines"
     points="102.85,1186.3 2903.81,1186.3"
     id="polyline38"
     style="fill:none;stroke:#000000;stroke-width:2.57999992;stroke-linejoin:bevel"
     transform="translate(-72.480325,-863.858)" />
  <polyline
     class="StaffLines"
     points="102.85,1206.14 2903.81,1206.14"
     id="polyline40"
     style="fill:none;stroke:#000000;stroke-width:2.57999992;stroke-linejoin:bevel"
     transform="translate(-72.480325,-863.858)" />
  <polyline
     class="StaffLines"
     points="102.85,1225.98 2903.81,1225.98"
     id="polyline42"
     style="fill:none;stroke:#000000;stroke-width:2.57999992;stroke-linejoin:bevel"
     transform="translate(-72.480325,-863.858)" />
  <polyline
     class="StaffLines"
     points="102.85,1245.83 2903.81,1245.83"
     id="polyline44"
     style="fill:none;stroke:#000000;stroke-width:2.57999992;stroke-linejoin:bevel"
     transform="translate(-72.480325,-863.858)" />
  <polyline
     class="StaffLines"
     points="102.85,1493.86 2903.81,1493.86"
     id="polyline46"
     style="fill:none;stroke:#000000;stroke-width:2.57999992;stroke-linejoin:bevel"
     transform="translate(-72.480325,-863.858)" />
  <polyline
     class="StaffLines"
     points="102.85,1513.7 2903.81,1513.7"
     id="polyline48"
     style="fill:none;stroke:#000000;stroke-width:2.57999992;stroke-linejoin:bevel"
     transform="translate(-72.480325,-863.858)" />
  <polyline
     class="StaffLines"
     points="102.85,1533.54 2903.81,1533.54"
     id="polyline50"
     style="fill:none;stroke:#000000;stroke-width:2.57999992;stroke-linejoin:bevel"
     transform="translate(-72.480325,-863.858)" />
  <polyline
     class="StaffLines"
     points="102.85,1553.39 2903.81,1553.39"
     id="polyline52"
     style="fill:none;stroke:#000000;stroke-width:2.57999992;stroke-linejoin:bevel"
     transform="translate(-72.480325,-863.858)" />
  <polyline
     class="StaffLines"
     points="102.85,1573.23 2903.81,1573.23"
     id="polyline54"
     style="fill:none;stroke:#000000;stroke-width:2.57999992;stroke-linejoin:bevel"
     transform="translate(-72.480325,-863.858)" />
  <polyline
     class="BarLine"
     points="104.438,1492.57 104.438,1574.52"
     id="polyline82"
     style="stroke:#000000;stroke-width:3.17000008;stroke-linejoin:bevel"
     transform="translate(-72.480325,-863.858)" />
  <polyline
     class="BarLine"
     points="882.318,1492.57 882.318,1574.52"
     id="polyline84"
     style="stroke:#000000;stroke-width:3.17000008;stroke-linejoin:bevel"
     transform="translate(-72.480325,-863.858)" />
  <polyline
     class="BarLine"
     points="1552.97,1492.57 1552.97,1574.52"
     id="polyline86"
     style="stroke:#000000;stroke-width:3.17000008;stroke-linejoin:bevel"
     transform="translate(-72.480325,-863.858)" />
  <polyline
     class="BarLine"
     points="2231.57,1492.57 2231.57,1574.52"
     id="polyline88"
     style="stroke:#000000;stroke-width:3.17000008;stroke-linejoin:bevel"
     transform="translate(-72.480325,-863.858)" />
  <polyline
     class="BarLine"
     points="2902.22,1492.57 2902.22,1574.52"
     id="polyline90"
     style="stroke:#000000;stroke-width:3.17000008;stroke-linejoin:bevel"
     transform="translate(-72.480325,-863.858)" />
  <polyline
     class="BarLine"
     points="104.438,1165.17 104.438,1493.86"
     id="polyline92"
     style="stroke:#000000;stroke-width:3.17000008;stroke-linejoin:bevel"
     transform="translate(-72.480325,-863.858)" />
  <polyline
     class="BarLine"
     points="882.318,1165.17 882.318,1247.12"
     id="polyline94"
     style="stroke:#000000;stroke-width:3.17000008;stroke-linejoin:bevel"
     transform="translate(-72.480325,-863.858)" />
  <polyline
     class="BarLine"
     points="1552.97,1165.17 1552.97,1247.12"
     id="polyline96"
     style="stroke:#000000;stroke-width:3.17000008;stroke-linejoin:bevel"
     transform="translate(-72.480325,-863.858)" />
  <polyline
     class="BarLine"
     points="2231.57,1165.17 2231.57,1247.12"
     id="polyline98"
     style="stroke:#000000;stroke-width:3.17000008;stroke-linejoin:bevel"
     transform="translate(-72.480325,-863.858)" />
  <polyline
     class="BarLine"
     points="2902.22,1165.17 2902.22,1247.12"
     id="polyline100"
     style="stroke:#000000;stroke-width:3.17000008;stroke-linejoin:bevel"
     transform="translate(-72.480325,-863.858)" />
  <polyline
     class="BarLine"
     points="104.438,956.821 104.438,1166.46"
     id="polyline102"
     style="stroke:#000000;stroke-width:3.17000008;stroke-linejoin:bevel"
     transform="translate(-72.480325,-863.858)" />
  <polyline
     class="BarLine"
     points="882.318,956.821 882.318,1038.77"
     id="polyline104"
     style="stroke:#000000;stroke-width:3.17000008;stroke-linejoin:bevel"
     transform="translate(-72.480325,-863.858)" />
  <polyline
     class="BarLine"
     points="1552.97,956.821 1552.97,1038.77"
     id="polyline106"
     style="stroke:#000000;stroke-width:3.17000008;stroke-linejoin:bevel"
     transform="translate(-72.480325,-863.858)" />
  <polyline
     class="BarLine"
     points="2231.57,956.821 2231.57,1038.77"
     id="polyline108"
     style="stroke:#000000;stroke-width:3.17000008;stroke-linejoin:bevel"
     transform="translate(-72.480325,-863.858)" />
  <polyline
     class="BarLine"
     points="2902.22,956.821 2902.22,1038.77"
     id="polyline110"
     style="stroke:#000000;stroke-width:3.17000008;stroke-linejoin:bevel"
     transform="translate(-72.480325,-863.858)" />
  <polyline
     class="BarLine"
     points="104.438,629.419 104.438,958.11"
     id="polyline112"
     transform="matrix(1,0,0,0.00392162,-72.480325,90.49466)"
     style="stroke:#000000;stroke-width:3.17000008;stroke-linejoin:bevel" />
  <path
     class="Accidental"
     d="m 971.91216,627.94334 c 0.32244,0 1.82303,-0.71929 2.07106,-0.88052 0.0744,0 0.14882,-0.0744 0.23563,-0.0744 0.55807,0 1.02933,0.7937 1.02933,1.42619 v 7.8626 c 0,0.86811 -0.39685,1.5874 -0.86811,1.82301 -0.48366,0.16128 -2.14547,0.86815 -2.14547,0.86815 -0.55807,0.1612 -0.95493,0.7937 -0.95493,1.27738 v 5.63028 c 0,0.4713 0.23563,0.71933 0.63249,0.71933 0.0868,0 0.23563,-0.0868 0.32244,-0.0868 0,0 1.10374,-0.4713 1.82303,-0.70687 0.0744,-0.0868 0.16122,-0.0868 0.23563,-0.0868 0.55807,0 0.95492,0.88053 0.95492,1.27738 v 9.75998 c 0,0.4713 0.47126,0.86815 1.02933,0.86815 0.79371,0 1.35177,-0.39685 1.35177,-0.86815 v -11.03736 c 0,-1.02935 0.39685,-1.5874 0.7937,-1.7486 l 4.83666,-1.98426 c 0.0868,0 0.24803,-0.0744 0.3224,-0.0744 0.6325,0 1.02935,0.95491 1.02935,1.42621 v 9.92126 c 0,0.48368 0.48368,0.88053 1.02935,0.88053 0.88045,0 1.35175,-0.39685 1.35175,-0.88053 v -11.27302 c 0,-0.6325 0.32241,-1.5874 0.88054,-1.82305 0.54567,-0.23565 2.21982,-0.86815 2.21982,-0.86815 0.55813,-0.23557 0.95498,-0.88045 0.95498,-1.35175 v -5.63032 c 0,-0.39685 -0.24803,-0.64488 -0.55813,-0.64488 -0.1612,0 -0.23557,0 -0.39685,0.0868 l -2.07101,0.7937 c -0.47129,0 -1.02935,-0.48367 -1.02935,-1.42619 v -7.39134 c 0,-0.54567 0.39685,-2.05866 1.02935,-2.29431 l 2.07101,-0.7937 c 0.55813,-0.23565 0.95498,-0.88053 0.95498,-1.35175 v -5.63036 c 0,-0.39685 -0.24803,-0.64488 -0.55813,-0.64488 -0.1612,0 -0.23557,0 -0.39685,0.0868 0,0 -1.5874,0.6325 -1.98425,0.70687 -0.55805,0 -1.11611,-0.39685 -1.11611,-1.02927 v -9.68569 c 0,-0.47122 -0.4713,-0.86808 -1.10372,-0.86808 -0.7937,0 -1.27738,0.39686 -1.27738,0.86808 v 10.31811 c -0.0745,0.7937 -0.31002,1.83543 -1.02935,2.30673 -0.9549,0.55805 -3.64602,1.66177 -4.99783,1.98425 -0.71929,0 -0.95493,-0.9549 -0.95493,-1.5874 v -9.52441 c 0,-0.48368 -0.55806,-0.88053 -1.11614,-0.88053 -0.7937,0 -1.26496,0.39685 -1.26496,0.88053 v 10.71496 c 0,1.11611 -0.47126,1.90981 -0.95492,2.14546 -0.47126,0.23565 -2.05866,0.86815 -2.05866,0.86815 -0.55807,0.1612 -0.95493,0.7937 -0.95493,1.2773 v 5.63036 c 0,0.47126 0.23563,0.71929 0.63249,0.71929 m 5.4815,4.43976 c 0,-2.45551 0.0744,-5.23346 0.23562,-5.87835 0.16123,-1.33937 3.80731,-3.01358 5.79156,-3.01358 0.55805,0 1.02935,0.16122 1.19055,0.48366 0.1612,0.39685 0.3224,2.38111 0.3224,4.51418 0,2.14547 -0.1612,4.36535 -0.3224,5.08464 -0.4713,1.58741 -4.20415,3.17481 -6.02718,3.17481 -0.48367,0 -0.88052,-0.16122 -0.95493,-0.39685 -0.16121,-0.32244 -0.23562,-2.05866 -0.23562,-3.96851"
     id="path132"
     inkscape:connector-curvature="0"
     style="stroke-width:0.79370099" />
  <path
     class="Accidental"
     d="m 2321.1622,627.94334 c 0.3224,0 1.823,-0.71929 2.071,-0.88052 0.074,0 0.1488,-0.0744 0.2357,-0.0744 0.558,0 1.0293,0.7937 1.0293,1.42619 v 7.8626 c 0,0.86811 -0.3969,1.5874 -0.8681,1.82301 -0.4837,0.16128 -2.1455,0.86815 -2.1455,0.86815 -0.5581,0.1612 -0.9549,0.7937 -0.9549,1.27738 v 5.63028 c 0,0.4713 0.2356,0.71933 0.6325,0.71933 0.087,0 0.2356,-0.0868 0.3224,-0.0868 0,0 1.1037,-0.4713 1.823,-0.70687 0.074,-0.0868 0.1613,-0.0868 0.2357,-0.0868 0.558,0 0.9549,0.88053 0.9549,1.27738 v 9.75998 c 0,0.4713 0.4712,0.86815 1.0293,0.86815 0.7937,0 1.3518,-0.39685 1.3518,-0.86815 v -11.03736 c 0,-1.02935 0.3968,-1.5874 0.7937,-1.7486 l 4.8366,-1.98426 c 0.087,0 0.2481,-0.0744 0.3224,-0.0744 0.6325,0 1.0294,0.95491 1.0294,1.42621 v 9.92126 c 0,0.48368 0.4837,0.88053 1.0293,0.88053 0.8805,0 1.3518,-0.39685 1.3518,-0.88053 v -11.27302 c 0,-0.6325 0.3224,-1.5874 0.8805,-1.82305 0.5457,-0.23565 2.2198,-0.86815 2.2198,-0.86815 0.5582,-0.23557 0.955,-0.88045 0.955,-1.35175 v -5.63032 c 0,-0.39685 -0.248,-0.64488 -0.5581,-0.64488 -0.1612,0 -0.2356,0 -0.3969,0.0868 l -2.071,0.7937 c -0.4713,0 -1.0293,-0.48367 -1.0293,-1.42619 v -7.39134 c 0,-0.54567 0.3968,-2.05866 1.0293,-2.29431 l 2.071,-0.7937 c 0.5582,-0.23565 0.955,-0.88053 0.955,-1.35175 v -5.63036 c 0,-0.39685 -0.248,-0.64488 -0.5581,-0.64488 -0.1612,0 -0.2356,0 -0.3969,0.0868 0,0 -1.5874,0.6325 -1.9842,0.70687 -0.5581,0 -1.1161,-0.39685 -1.1161,-1.02927 v -9.68569 c 0,-0.47122 -0.4713,-0.86808 -1.1037,-0.86808 -0.7937,0 -1.2774,0.39686 -1.2774,0.86808 v 10.31811 c -0.074,0.7937 -0.31,1.83543 -1.0294,2.30673 -0.9549,0.55805 -3.646,1.66177 -4.9978,1.98425 -0.7193,0 -0.9549,-0.9549 -0.9549,-1.5874 v -9.52441 c 0,-0.48368 -0.5581,-0.88053 -1.1162,-0.88053 -0.7937,0 -1.2649,0.39685 -1.2649,0.88053 v 10.71496 c 0,1.11611 -0.4713,1.90981 -0.9549,2.14546 -0.4713,0.23565 -2.0587,0.86815 -2.0587,0.86815 -0.5581,0.1612 -0.9549,0.7937 -0.9549,1.2773 v 5.63036 c 0,0.47126 0.2356,0.71929 0.6325,0.71929 m 5.4815,4.43976 c 0,-2.45551 0.074,-5.23346 0.2356,-5.87835 0.1612,-1.33937 3.8073,-3.01358 5.7915,-3.01358 0.5581,0 1.0294,0.16122 1.1906,0.48366 0.1612,0.39685 0.3224,2.38111 0.3224,4.51418 0,2.14547 -0.1612,4.36535 -0.3224,5.08464 -0.4713,1.58741 -4.2042,3.17481 -6.0272,3.17481 -0.4837,0 -0.8805,-0.16122 -0.9549,-0.39685 -0.1612,-0.32244 -0.2356,-2.05866 -0.2356,-3.96851"
     id="path134"
     inkscape:connector-curvature="0"
     style="stroke-width:0.79370099" />
  <path
     class="Accidental"
     d="m 963.98216,92.193338 c 0.32244,0 1.82303,-0.719291 2.07106,-0.880516 0.0744,0 0.14882,-0.07441 0.23563,-0.07441 0.55807,0 1.02933,0.793701 1.02933,1.426185 v 7.862603 c 0,0.86811 -0.39685,1.5874 -0.86811,1.82301 -0.48366,0.16128 -2.14547,0.86815 -2.14547,0.86815 -0.55807,0.1612 -0.95493,0.7937 -0.95493,1.27738 v 5.63028 c 0,0.4713 0.23563,0.71933 0.63249,0.71933 0.0868,0 0.23563,-0.0868 0.32244,-0.0868 0,0 1.10374,-0.4713 1.82303,-0.70687 0.0744,-0.0868 0.16122,-0.0868 0.23563,-0.0868 0.55807,0 0.95492,0.88053 0.95492,1.27738 v 9.75998 c 0,0.4713 0.47126,0.86815 1.02933,0.86815 0.79371,0 1.35177,-0.39685 1.35177,-0.86815 v -11.03736 c 0,-1.02935 0.39685,-1.5874 0.7937,-1.7486 l 4.83666,-1.98426 c 0.0867,0 0.24803,-0.0744 0.3224,-0.0744 0.6325,0 1.02935,0.9549 1.02935,1.4262 v 9.92126 c 0,0.48368 0.48368,0.88053 1.02935,0.88053 0.88045,0 1.35175,-0.39685 1.35175,-0.88053 v -11.27302 c 0,-0.6325 0.32241,-1.5874 0.88054,-1.82305 0.54567,-0.23565 2.21982,-0.86815 2.21982,-0.86815 0.55813,-0.23557 0.95498,-0.88045 0.95498,-1.35175 v -5.630317 c 0,-0.396851 -0.24803,-0.644883 -0.55813,-0.644883 -0.1612,0 -0.23557,0 -0.39685,0.08682 l -2.07101,0.793701 c -0.47129,0 -1.02935,-0.483665 -1.02935,-1.426185 v -7.391341 c 0,-0.545669 0.39685,-2.058661 1.02935,-2.294311 l 2.07101,-0.793701 c 0.55813,-0.23565 0.95498,-0.880532 0.95498,-1.351752 V 77.90668 c 0,-0.39685 -0.24803,-0.644882 -0.55813,-0.644882 -0.1612,0 -0.23557,0 -0.39685,0.08683 0,0 -1.5874,0.632501 -1.98425,0.70687 -0.55805,0 -1.11611,-0.39685 -1.11611,-1.029271 v -9.685692 c 0,-0.47122 -0.4713,-0.868071 -1.10372,-0.868071 -0.7937,0 -1.27738,0.396851 -1.27738,0.868071 v 10.318113 c -0.0744,0.793701 -0.31002,1.835433 -1.02935,2.306733 -0.9549,0.558051 -3.64602,1.661772 -4.99783,1.984253 -0.71929,0 -0.95493,-0.954902 -0.95493,-1.587402 V 70.83782 c 0,-0.483682 -0.55806,-0.880532 -1.11614,-0.880532 -0.7937,0 -1.26496,0.39685 -1.26496,0.880532 v 10.714963 c 0,1.116102 -0.47126,1.909803 -0.95492,2.145453 -0.47126,0.23565 -2.05866,0.86815 -2.05866,0.86815 -0.55807,0.161201 -0.95493,0.793701 -0.95493,1.277303 v 5.630357 c 0,0.471259 0.23563,0.719291 0.63249,0.719291 m 5.4815,4.439765 c 0,-2.455512 0.0744,-5.233466 0.23562,-5.878348 0.16123,-1.33937 3.80731,-3.013587 5.79156,-3.013587 0.55805,0 1.02935,0.161224 1.19055,0.483665 0.1612,0.396851 0.3224,2.381103 0.3224,4.514174 0,2.145473 -0.1612,4.365356 -0.3224,5.084648 -0.4713,1.587402 -4.20415,3.174806 -6.02718,3.174806 -0.48367,0 -0.88052,-0.16122 -0.95493,-0.39685 -0.16121,-0.32244 -0.23562,-2.058665 -0.23562,-3.968508"
     id="path136"
     inkscape:connector-curvature="0"
     style="stroke-width:0.79370099" />
  <path
     class="Accidental"
     d="m 2313.2222,92.193338 c 0.3224,0 1.823,-0.719291 2.071,-0.880516 0.074,0 0.1488,-0.07441 0.2357,-0.07441 0.558,0 1.0293,0.793701 1.0293,1.426185 v 7.862603 c 0,0.86811 -0.3969,1.5874 -0.8681,1.82301 -0.4837,0.16128 -2.1455,0.86815 -2.1455,0.86815 -0.5581,0.1612 -0.9549,0.7937 -0.9549,1.27738 v 5.63028 c 0,0.4713 0.2356,0.71933 0.6325,0.71933 0.087,0 0.2356,-0.0868 0.3224,-0.0868 0,0 1.1037,-0.4713 1.823,-0.70687 0.074,-0.0868 0.1613,-0.0868 0.2357,-0.0868 0.558,0 0.9549,0.88053 0.9549,1.27738 v 9.75998 c 0,0.4713 0.4712,0.86815 1.0293,0.86815 0.7937,0 1.3518,-0.39685 1.3518,-0.86815 v -11.03736 c 0,-1.02935 0.3968,-1.5874 0.7937,-1.7486 l 4.8366,-1.98426 c 0.087,0 0.2481,-0.0744 0.3224,-0.0744 0.6325,0 1.0294,0.9549 1.0294,1.4262 v 9.92126 c 0,0.48368 0.4837,0.88053 1.0293,0.88053 0.8805,0 1.3518,-0.39685 1.3518,-0.88053 v -11.27302 c 0,-0.6325 0.3224,-1.5874 0.8805,-1.82305 0.5457,-0.23565 2.2198,-0.86815 2.2198,-0.86815 0.5582,-0.23557 0.955,-0.88045 0.955,-1.35175 v -5.630317 c 0,-0.396851 -0.248,-0.644883 -0.5581,-0.644883 -0.1612,0 -0.2356,0 -0.3969,0.08682 l -2.071,0.793701 c -0.4713,0 -1.0293,-0.483665 -1.0293,-1.426185 v -7.391341 c 0,-0.545669 0.3968,-2.058661 1.0293,-2.294311 l 2.071,-0.793701 c 0.5582,-0.23565 0.955,-0.880532 0.955,-1.351752 V 77.90668 c 0,-0.39685 -0.248,-0.644882 -0.5581,-0.644882 -0.1612,0 -0.2356,0 -0.3969,0.08683 0,0 -1.5874,0.632501 -1.9842,0.70687 -0.5581,0 -1.1161,-0.39685 -1.1161,-1.029271 v -9.685692 c 0,-0.47122 -0.4713,-0.868071 -1.1037,-0.868071 -0.7937,0 -1.2774,0.396851 -1.2774,0.868071 v 10.318113 c -0.075,0.793701 -0.31,1.835433 -1.0294,2.306733 -0.9549,0.558051 -3.646,1.661772 -4.9978,1.984253 -0.7193,0 -0.9549,-0.954902 -0.9549,-1.587402 V 70.83782 c 0,-0.483682 -0.5581,-0.880532 -1.1162,-0.880532 -0.7937,0 -1.2649,0.39685 -1.2649,0.880532 v 10.714963 c 0,1.116102 -0.4713,1.909803 -0.9549,2.145453 -0.4713,0.23565 -2.0587,0.86815 -2.0587,0.86815 -0.5581,0.161201 -0.9549,0.793701 -0.9549,1.277303 v 5.630357 c 0,0.471259 0.2356,0.719291 0.6325,0.719291 m 5.4815,4.439765 c 0,-2.455512 0.074,-5.233466 0.2356,-5.878348 0.1612,-1.33937 3.8073,-3.013587 5.7915,-3.013587 0.5581,0 1.0294,0.161224 1.1906,0.483665 0.1612,0.396851 0.3224,2.381103 0.3224,4.514174 0,2.145473 -0.1612,4.365356 -0.3224,5.084648 -0.4713,1.587402 -4.2042,3.174806 -6.0272,3.174806 -0.4837,0 -0.8805,-0.16122 -0.9549,-0.39685 -0.1612,-0.32244 -0.2356,-2.058665 -0.2356,-3.968508"
     id="path138"
     inkscape:connector-curvature="0"
     style="stroke-width:0.79370099" />
  <polyline
     class="LedgerLine"
     points="381.398,1474.02 423.384,1474.02"
     id="polyline144"
     style="stroke:#000000;stroke-width:3.17000008;stroke-linejoin:bevel"
     transform="translate(-72.480325,-863.858)" />
  <polyline
     class="LedgerLine"
     points="381.398,1454.17 423.384,1454.17"
     id="polyline146"
     style="stroke:#000000;stroke-width:3.17000008;stroke-linejoin:bevel"
     transform="translate(-72.480325,-863.858)" />
  <polyline
     class="LedgerLine"
     points="381.398,1474.02 423.384,1474.02"
     id="polyline148"
     style="stroke:#000000;stroke-width:3.17000008;stroke-linejoin:bevel"
     transform="translate(-72.480325,-863.858)" />
  <polyline
     class="LedgerLine"
     points="381.398,1593.07 423.384,1593.07"
     id="polyline150"
     style="stroke:#000000;stroke-width:3.17000008;stroke-linejoin:bevel"
     transform="translate(-72.480325,-863.858)" />
  <polyline
     class="LedgerLine"
     points="709.656,1474.02 751.642,1474.02"
     id="polyline152"
     style="stroke:#000000;stroke-width:3.17000008;stroke-linejoin:bevel"
     transform="translate(-72.480325,-863.858)" />
  <polyline
     class="LedgerLine"
     points="1059.95,1593.07 1101.94,1593.07"
     id="polyline154"
     style="stroke:#000000;stroke-width:3.17000008;stroke-linejoin:bevel"
     transform="translate(-72.480325,-863.858)" />
  <polyline
     class="LedgerLine"
     points="1388.07,1593.07 1430.05,1593.07"
     id="polyline156"
     style="stroke:#000000;stroke-width:3.17000008;stroke-linejoin:bevel"
     transform="translate(-72.480325,-863.858)" />
  <polyline
     class="LedgerLine"
     points="1466.25,1612.91 1508.24,1612.91"
     id="polyline158"
     style="stroke:#000000;stroke-width:3.17000008;stroke-linejoin:bevel"
     transform="translate(-72.480325,-863.858)" />
  <polyline
     class="LedgerLine"
     points="1466.25,1593.07 1508.24,1593.07"
     id="polyline160"
     style="stroke:#000000;stroke-width:3.17000008;stroke-linejoin:bevel"
     transform="translate(-72.480325,-863.858)" />
  <polyline
     class="LedgerLine"
     points="1730.65,1474.02 1772.63,1474.02"
     id="polyline162"
     style="stroke:#000000;stroke-width:3.17000008;stroke-linejoin:bevel"
     transform="translate(-72.480325,-863.858)" />
  <polyline
     class="LedgerLine"
     points="1730.65,1454.17 1772.63,1454.17"
     id="polyline164"
     style="stroke:#000000;stroke-width:3.17000008;stroke-linejoin:bevel"
     transform="translate(-72.480325,-863.858)" />
  <polyline
     class="LedgerLine"
     points="1730.65,1474.02 1772.63,1474.02"
     id="polyline166"
     style="stroke:#000000;stroke-width:3.17000008;stroke-linejoin:bevel"
     transform="translate(-72.480325,-863.858)" />
  <polyline
     class="LedgerLine"
     points="1730.65,1593.07 1772.63,1593.07"
     id="polyline168"
     style="stroke:#000000;stroke-width:3.17000008;stroke-linejoin:bevel"
     transform="translate(-72.480325,-863.858)" />
  <polyline
     class="LedgerLine"
     points="2058.91,1474.02 2100.89,1474.02"
     id="polyline170"
     style="stroke:#000000;stroke-width:3.17000008;stroke-linejoin:bevel"
     transform="translate(-72.480325,-863.858)" />
  <polyline
     class="LedgerLine"
     points="2409.2,1593.07 2451.19,1593.07"
     id="polyline172"
     style="stroke:#000000;stroke-width:3.17000008;stroke-linejoin:bevel"
     transform="translate(-72.480325,-863.858)" />
  <polyline
     class="LedgerLine"
     points="2737.32,1593.07 2779.3,1593.07"
     id="polyline174"
     style="stroke:#000000;stroke-width:3.17000008;stroke-linejoin:bevel"
     transform="translate(-72.480325,-863.858)" />
  <polyline
     class="LedgerLine"
     points="2815.5,1612.91 2857.49,1612.91"
     id="polyline176"
     style="stroke:#000000;stroke-width:3.17000008;stroke-linejoin:bevel"
     transform="translate(-72.480325,-863.858)" />
  <polyline
     class="LedgerLine"
     points="2815.5,1593.07 2857.49,1593.07"
     id="polyline178"
     style="stroke:#000000;stroke-width:3.17000008;stroke-linejoin:bevel"
     transform="translate(-72.480325,-863.858)" />
  <polyline
     class="LedgerLine"
     points="1059.95,1146.61 1101.94,1146.61"
     id="polyline180"
     style="stroke:#000000;stroke-width:3.17000008;stroke-linejoin:bevel"
     transform="translate(-72.480325,-863.858)" />
  <polyline
     class="LedgerLine"
     points="2409.2,1146.61 2451.19,1146.61"
     id="polyline182"
     style="stroke:#000000;stroke-width:3.17000008;stroke-linejoin:bevel"
     transform="translate(-72.480325,-863.858)" />
  <polyline
     class="LedgerLine"
     points="381.398,938.268 423.384,938.268"
     id="polyline184"
     style="stroke:#000000;stroke-width:3.17000008;stroke-linejoin:bevel"
     transform="translate(-72.480325,-863.858)" />
  <polyline
     class="LedgerLine"
     points="381.398,918.425 423.384,918.425"
     id="polyline186"
     style="stroke:#000000;stroke-width:3.17000008;stroke-linejoin:bevel"
     transform="translate(-72.480325,-863.858)" />
  <polyline
     class="LedgerLine"
     points="381.398,938.268 423.384,938.268"
     id="polyline188"
     style="stroke:#000000;stroke-width:3.17000008;stroke-linejoin:bevel"
     transform="translate(-72.480325,-863.858)" />
  <polyline
     class="LedgerLine"
     points="1059.95,938.268 1101.94,938.268"
     id="polyline190"
     style="stroke:#000000;stroke-width:3.17000008;stroke-linejoin:bevel"
     transform="translate(-72.480325,-863.858)" />
  <polyline
     class="LedgerLine"
     points="1059.95,918.425 1101.94,918.425"
     id="polyline192"
     style="stroke:#000000;stroke-width:3.17000008;stroke-linejoin:bevel"
     transform="translate(-72.480325,-863.858)" />
  <polyline
     class="LedgerLine"
     points="1059.95,938.268 1101.94,938.268"
     id="polyline194"
     style="stroke:#000000;stroke-width:3.17000008;stroke-linejoin:bevel"
     transform="translate(-72.480325,-863.858)" />
  <polyline
     class="LedgerLine"
     points="1730.65,938.268 1772.63,938.268"
     id="polyline196"
     style="stroke:#000000;stroke-width:3.17000008;stroke-linejoin:bevel"
     transform="translate(-72.480325,-863.858)" />
  <polyline
     class="LedgerLine"
     points="1730.65,918.425 1772.63,918.425"
     id="polyline198"
     style="stroke:#000000;stroke-width:3.17000008;stroke-linejoin:bevel"
     transform="translate(-72.480325,-863.858)" />
  <polyline
     class="LedgerLine"
     points="1730.65,938.268 1772.63,938.268"
     id="polyline200"
     style="stroke:#000000;stroke-width:3.17000008;stroke-linejoin:bevel"
     transform="translate(-72.480325,-863.858)" />
  <polyline
     class="LedgerLine"
     points="2409.2,938.268 2451.19,938.268"
     id="polyline202"
     style="stroke:#000000;stroke-width:3.17000008;stroke-linejoin:bevel"
     transform="translate(-72.480325,-863.858)" />
  <polyline
     class="LedgerLine"
     points="2409.2,918.425 2451.19,918.425"
     id="polyline204"
     style="stroke:#000000;stroke-width:3.17000008;stroke-linejoin:bevel"
     transform="translate(-72.480325,-863.858)" />
  <polyline
     class="LedgerLine"
     points="2409.2,938.268 2451.19,938.268"
     id="polyline206"
     style="stroke:#000000;stroke-width:3.17000008;stroke-linejoin:bevel"
     transform="translate(-72.480325,-863.858)" />
  <polyline
     class="Stem"
     points="390.526,1605.66 390.526,1647.64"
     id="polyline308"
     style="stroke:#000000;stroke-width:2.38000011;stroke-linejoin:bevel"
     transform="translate(-72.480325,-863.858)" />
  <polyline
     class="Stem"
     points="1739.78,1605.66 1739.78,1647.64"
     id="polyline310"
     style="stroke:#000000;stroke-width:2.38000011;stroke-linejoin:bevel"
     transform="translate(-72.480325,-863.858)" />
  <polyline
     class="Stem"
     points="390.526,1466.76 390.526,1533.54"
     id="polyline312"
     style="stroke:#000000;stroke-width:2.38000011;stroke-linejoin:bevel"
     transform="translate(-72.480325,-863.858)" />
  <polyline
     class="Stem"
     points="1739.78,1466.76 1739.78,1533.54"
     id="polyline314"
     style="stroke:#000000;stroke-width:2.38000011;stroke-linejoin:bevel"
     transform="translate(-72.480325,-863.858)" />
  <polyline
     class="Stem"
     points="414.256,1441.59 414.256,1370.73"
     id="polyline316"
     style="stroke:#000000;stroke-width:2.38000011;stroke-linejoin:bevel"
     transform="translate(-72.480325,-863.858)" />
  <polyline
     class="Stem"
     points="1763.51,1441.59 1763.51,1379.39"
     id="polyline318"
     style="stroke:#000000;stroke-width:2.38000011;stroke-linejoin:bevel"
     transform="translate(-72.480325,-863.858)" />
  <polyline
     class="Stem"
     points="390.526,1159.2 390.526,1225.98"
     id="polyline320"
     style="stroke:#000000;stroke-width:2.38000011;stroke-linejoin:bevel"
     transform="translate(-72.480325,-863.858)" />
  <polyline
     class="Stem"
     points="1069.08,1149.28 1069.08,1216.06"
     id="polyline322"
     style="stroke:#000000;stroke-width:2.38000011;stroke-linejoin:bevel"
     transform="translate(-72.480325,-863.858)" />
  <polyline
     class="Stem"
     points="1739.78,1159.2 1739.78,1225.98"
     id="polyline324"
     style="stroke:#000000;stroke-width:2.38000011;stroke-linejoin:bevel"
     transform="translate(-72.480325,-863.858)" />
  <polyline
     class="Stem"
     points="2418.33,1149.28 2418.33,1216.06"
     id="polyline326"
     style="stroke:#000000;stroke-width:2.38000011;stroke-linejoin:bevel"
     transform="translate(-72.480325,-863.858)" />
  <polyline
     class="Stem"
     points="390.526,931.013 390.526,1017.64"
     id="polyline328"
     style="stroke:#000000;stroke-width:2.38000011;stroke-linejoin:bevel"
     transform="translate(-72.480325,-863.858)" />
  <polyline
     class="Stem"
     points="1069.08,940.935 1069.08,1027.56"
     id="polyline330"
     style="stroke:#000000;stroke-width:2.38000011;stroke-linejoin:bevel"
     transform="translate(-72.480325,-863.858)" />
  <polyline
     class="Stem"
     points="1739.78,931.013 1739.78,1017.64"
     id="polyline332"
     style="stroke:#000000;stroke-width:2.38000011;stroke-linejoin:bevel"
     transform="translate(-72.480325,-863.858)" />
  <polyline
     class="Stem"
     points="2418.33,940.935 2418.33,1027.56"
     id="polyline334"
     style="stroke:#000000;stroke-width:2.38000011;stroke-linejoin:bevel"
     transform="translate(-72.480325,-863.858)" />
  <polyline
     class="Stem"
     points="414.256,905.837 414.256,863.858"
     id="polyline336"
     style="stroke:#000000;stroke-width:2.38000011;stroke-linejoin:bevel"
     transform="translate(-72.480325,-863.858)" />
  <polyline
     class="Stem"
     points="1092.81,905.837 1092.81,863.858"
     id="polyline338"
     style="stroke:#000000;stroke-width:2.38000011;stroke-linejoin:bevel"
     transform="translate(-72.480325,-863.858)" />
  <polyline
     class="Stem"
     points="1763.51,905.837 1763.51,863.858"
     id="polyline340"
     style="stroke:#000000;stroke-width:2.38000011;stroke-linejoin:bevel"
     transform="translate(-72.480325,-863.858)" />
  <polyline
     class="Stem"
     points="2442.06,905.837 2442.06,863.858"
     id="polyline342"
     style="stroke:#000000;stroke-width:2.38000011;stroke-linejoin:bevel"
     transform="translate(-72.480325,-863.858)" />
  <path
     class="Note"
     d="m 325.42419,750.24381 c 14.60901,0 17.54825,-11.90551 17.54825,-14.75787 0,-4.5266 -3.57166,-7.46575 -8.73071,-7.46575 -13.25733,0 -17.38706,10.2437 -17.38706,14.84469 0,4.67543 3.73288,7.37893 8.56952,7.37893 m -5.95278,-7.21771 c 0,-4.29095 12.78606,-11.35985 16.99014,-11.35985 1.66185,0 2.61675,0.7937 3.24925,1.90984 0.24803,0.47126 0.48368,1.02933 0.48368,1.66181 0,1.74862 -1.82305,3.8941 -8.02384,7.93701 -3.9685,2.70355 -6.74645,3.65847 -8.64392,3.65847 -1.83543,0 -2.93917,-0.95492 -3.49724,-2.07106 -0.32244,-0.47126 -0.55807,-1.10374 -0.55807,-1.73622"
     id="path512"
     inkscape:connector-curvature="0"
     style="stroke-width:0.79370099" />
  <path
     class="Note"
     d="m 1003.9792,740.32381 c 14.609,0 17.5482,-11.90551 17.5482,-14.75787 0,-4.5266 -3.5716,-7.46575 -8.7307,-7.46575 -13.2573,0 -17.38703,10.2437 -17.38703,14.84469 0,4.67543 3.73288,7.37893 8.56953,7.37893 m -5.95279,-7.21771 c 0,-4.29095 12.78609,-11.35985 16.99019,-11.35985 1.6618,0 2.6167,0.7937 3.2492,1.90984 0.248,0.47126 0.4837,1.02933 0.4837,1.66181 0,1.74862 -1.8231,3.8941 -8.0239,7.93701 -3.9685,2.70355 -6.7464,3.65847 -8.6439,3.65847 -1.8354,0 -2.93915,-0.95492 -3.49722,-2.07106 -0.32244,-0.47126 -0.55807,-1.10374 -0.55807,-1.73622"
     id="path514"
     inkscape:connector-curvature="0"
     style="stroke-width:0.79370099" />
  <path
     class="Note"
     d="m 1323.5297,742.86488 c 0,4.60098 3.8073,7.37893 8.5695,7.37893 7.8625,0 17.5482,-7.30452 17.5482,-14.84469 0,-4.43978 -3.5716,-7.37893 -8.6563,-7.37893 -9.6856,0 -17.4614,7.21771 -17.4614,14.84469"
     id="path516"
     inkscape:connector-curvature="0"
     style="stroke-width:0.79370099" />
  <path
     class="Note"
     d="m 1401.7097,752.78488 c 0,4.60098 3.8073,7.37893 8.5695,7.37893 7.8625,0 17.5482,-7.30452 17.5482,-14.84469 0,-4.43978 -3.5716,-7.37893 -8.6563,-7.37893 -9.6856,0 -17.4614,7.21771 -17.4614,14.84469"
     id="path518"
     inkscape:connector-curvature="0"
     style="stroke-width:0.79370099" />
  <path
     class="Note"
     d="m 1674.6692,750.24381 c 14.609,0 17.5482,-11.90551 17.5482,-14.75787 0,-4.5266 -3.5716,-7.46575 -8.7307,-7.46575 -13.2573,0 -17.387,10.2437 -17.387,14.84469 0,4.67543 3.7329,7.37893 8.5695,7.37893 m -5.9528,-7.21771 c 0,-4.29095 12.7861,-11.35985 16.9902,-11.35985 1.6618,0 2.6167,0.7937 3.2492,1.90984 0.248,0.47126 0.4837,1.02933 0.4837,1.66181 0,1.74862 -1.8231,3.8941 -8.0239,7.93701 -3.9685,2.70355 -6.7464,3.65847 -8.6439,3.65847 -1.8354,0 -2.9391,-0.95492 -3.4972,-2.07106 -0.3225,-0.47126 -0.5581,-1.10374 -0.5581,-1.73622"
     id="path520"
     inkscape:connector-curvature="0"
     style="stroke-width:0.79370099" />
  <path
     class="Note"
     d="m 2353.2292,740.32381 c 14.609,0 17.5482,-11.90551 17.5482,-14.75787 0,-4.5266 -3.5716,-7.46575 -8.7307,-7.46575 -13.2573,0 -17.387,10.2437 -17.387,14.84469 0,4.67543 3.7329,7.37893 8.5695,7.37893 m -5.9528,-7.21771 c 0,-4.29095 12.7861,-11.35985 16.9902,-11.35985 1.6618,0 2.6167,0.7937 3.2492,1.90984 0.248,0.47126 0.4837,1.02933 0.4837,1.66181 0,1.74862 -1.8231,3.8941 -8.0239,7.93701 -3.9685,2.70355 -6.7464,3.65847 -8.6439,3.65847 -1.8354,0 -2.9391,-0.95492 -3.4972,-2.07106 -0.3225,-0.47126 -0.5581,-1.10374 -0.5581,-1.73622"
     id="path522"
     inkscape:connector-curvature="0"
     style="stroke-width:0.79370099" />
  <path
     class="Note"
     d="m 2672.7697,742.86488 c 0,4.60098 3.8073,7.37893 8.5695,7.37893 7.8625,0 17.5482,-7.30452 17.5482,-14.84469 0,-4.43978 -3.5716,-7.37893 -8.6563,-7.37893 -9.6856,0 -17.4614,7.21771 -17.4614,14.84469"
     id="path524"
     inkscape:connector-curvature="0"
     style="stroke-width:0.79370099" />
  <path
     class="Note"
     d="m 2750.9597,752.78488 c 0,4.60098 3.8073,7.37893 8.5695,7.37893 7.8625,0 17.5482,-7.30452 17.5482,-14.84469 0,-4.43978 -3.5716,-7.37893 -8.6563,-7.37893 -9.6856,0 -17.4614,7.21771 -17.4614,14.84469"
     id="path526"
     inkscape:connector-curvature="0"
     style="stroke-width:0.79370099" />
  <path
     class="Note"
     d="m 325.42419,611.34381 c 14.60901,0 17.54825,-11.90551 17.54825,-14.75787 0,-4.5266 -3.57166,-7.46575 -8.73071,-7.46575 -13.25733,0 -17.38706,10.2437 -17.38706,14.84469 0,4.67543 3.73288,7.37893 8.56952,7.37893 m -5.95278,-7.21771 c 0,-4.29095 12.78606,-11.35985 16.99014,-11.35985 1.66185,0 2.61675,0.7937 3.24925,1.90984 0.24803,0.47126 0.48368,1.02933 0.48368,1.66181 0,1.74862 -1.82305,3.8941 -8.02384,7.93701 -3.9685,2.70355 -6.74645,3.65847 -8.64392,3.65847 -1.83543,0 -2.93917,-0.95492 -3.49724,-2.07106 -0.32244,-0.47126 -0.55807,-1.10374 -0.55807,-1.73622"
     id="path528"
     inkscape:connector-curvature="0"
     style="stroke-width:0.79370099" />
  <path
     class="Note"
     d="m 645.11267,613.89488 c 0,4.60098 3.80729,7.37893 8.56952,7.37893 7.86256,0 17.54825,-7.30452 17.54825,-14.84469 0,-4.43978 -3.57166,-7.37893 -8.65634,-7.37893 -9.68563,0 -17.46143,7.21771 -17.46143,14.84469"
     id="path530"
     inkscape:connector-curvature="0"
     style="stroke-width:0.79370099" />
  <path
     class="Note"
     d="m 723.23467,623.81488 c 0,4.60098 3.80729,7.37893 8.56952,7.37893 7.86256,0 17.54825,-7.30452 17.54825,-14.84469 0,-4.43978 -3.57166,-7.37893 -8.65634,-7.37893 -9.68563,0 -17.46143,7.21771 -17.46143,14.84469"
     id="path532"
     inkscape:connector-curvature="0"
     style="stroke-width:0.79370099" />
  <path
     class="Note"
     d="m 1003.9792,641.11381 c 14.609,0 17.5482,-11.90551 17.5482,-14.75787 0,-4.5266 -3.5716,-7.46575 -8.7307,-7.46575 -13.2573,0 -17.38703,10.2437 -17.38703,14.84469 0,4.67543 3.73288,7.37893 8.56953,7.37893 m -5.95279,-7.21771 c 0,-4.29095 12.78609,-11.35985 16.99019,-11.35985 1.6618,0 2.6167,0.7937 3.2492,1.90984 0.248,0.47126 0.4837,1.02933 0.4837,1.66181 0,1.74862 -1.8231,3.8941 -8.0239,7.93701 -3.9685,2.70355 -6.7464,3.65847 -8.6439,3.65847 -1.8354,0 -2.93915,-0.95492 -3.49722,-2.07106 -0.32244,-0.47126 -0.55807,-1.10374 -0.55807,-1.73622"
     id="path534"
     inkscape:connector-curvature="0"
     style="stroke-width:0.79370099" />
  <path
     class="Note"
     d="m 1674.6692,611.34381 c 14.609,0 17.5482,-11.90551 17.5482,-14.75787 0,-4.5266 -3.5716,-7.46575 -8.7307,-7.46575 -13.2573,0 -17.387,10.2437 -17.387,14.84469 0,4.67543 3.7329,7.37893 8.5695,7.37893 m -5.9528,-7.21771 c 0,-4.29095 12.7861,-11.35985 16.9902,-11.35985 1.6618,0 2.6167,0.7937 3.2492,1.90984 0.248,0.47126 0.4837,1.02933 0.4837,1.66181 0,1.74862 -1.8231,3.8941 -8.0239,7.93701 -3.9685,2.70355 -6.7464,3.65847 -8.6439,3.65847 -1.8354,0 -2.9391,-0.95492 -3.4972,-2.07106 -0.3225,-0.47126 -0.5581,-1.10374 -0.5581,-1.73622"
     id="path536"
     inkscape:connector-curvature="0"
     style="stroke-width:0.79370099" />
  <path
     class="Note"
     d="m 1994.3597,613.89488 c 0,4.60098 3.8073,7.37893 8.5695,7.37893 7.8625,0 17.5482,-7.30452 17.5482,-14.84469 0,-4.43978 -3.5716,-7.37893 -8.6563,-7.37893 -9.6856,0 -17.4614,7.21771 -17.4614,14.84469"
     id="path538"
     inkscape:connector-curvature="0"
     style="stroke-width:0.79370099" />
  <path
     class="Note"
     d="m 2072.4797,623.81488 c 0,4.60098 3.8073,7.37893 8.5695,7.37893 7.8625,0 17.5482,-7.30452 17.5482,-14.84469 0,-4.43978 -3.5716,-7.37893 -8.6563,-7.37893 -9.6856,0 -17.4614,7.21771 -17.4614,14.84469"
     id="path540"
     inkscape:connector-curvature="0"
     style="stroke-width:0.79370099" />
  <path
     class="Note"
     d="m 2353.2292,641.11381 c 14.609,0 17.5482,-11.90551 17.5482,-14.75787 0,-4.5266 -3.5716,-7.46575 -8.7307,-7.46575 -13.2573,0 -17.387,10.2437 -17.387,14.84469 0,4.67543 3.7329,7.37893 8.5695,7.37893 m -5.9528,-7.21771 c 0,-4.29095 12.7861,-11.35985 16.9902,-11.35985 1.6618,0 2.6167,0.7937 3.2492,1.90984 0.248,0.47126 0.4837,1.02933 0.4837,1.66181 0,1.74862 -1.8231,3.8941 -8.0239,7.93701 -3.9685,2.70355 -6.7464,3.65847 -8.6439,3.65847 -1.8354,0 -2.9391,-0.95492 -3.4972,-2.07106 -0.3225,-0.47126 -0.5581,-1.10374 -0.5581,-1.73622"
     id="path542"
     inkscape:connector-curvature="0"
     style="stroke-width:0.79370099" />
  <path
     class="Note"
     d="m 325.42419,591.50381 c 14.60901,0 17.54825,-11.90551 17.54825,-14.75787 0,-4.5266 -3.57166,-7.46575 -8.73071,-7.46575 -13.25733,0 -17.38706,10.2437 -17.38706,14.84469 0,4.67543 3.73288,7.37893 8.56952,7.37893 m -5.95278,-7.21771 c 0,-4.29095 12.78606,-11.35985 16.99014,-11.35985 1.66185,0 2.61675,0.7937 3.24925,1.90984 0.24803,0.47126 0.48368,1.02933 0.48368,1.66181 0,1.74862 -1.82305,3.8941 -8.02384,7.93701 -3.9685,2.70355 -6.74645,3.65847 -8.64392,3.65847 -1.83543,0 -2.93917,-0.95492 -3.49724,-2.07106 -0.32244,-0.47126 -0.55807,-1.10374 -0.55807,-1.73622"
     id="path544"
     inkscape:connector-curvature="0"
     style="stroke-width:0.79370099" />
  <path
     class="Note"
     d="m 1674.6692,591.50381 c 14.609,0 17.5482,-11.90551 17.5482,-14.75787 0,-4.5266 -3.5716,-7.46575 -8.7307,-7.46575 -13.2573,0 -17.387,10.2437 -17.387,14.84469 0,4.67543 3.7329,7.37893 8.5695,7.37893 m -5.9528,-7.21771 c 0,-4.29095 12.7861,-11.35985 16.9902,-11.35985 1.6618,0 2.6167,0.7937 3.2492,1.90984 0.248,0.47126 0.4837,1.02933 0.4837,1.66181 0,1.74862 -1.8231,3.8941 -8.0239,7.93701 -3.9685,2.70355 -6.7464,3.65847 -8.6439,3.65847 -1.8354,0 -2.9391,-0.95492 -3.4972,-2.07106 -0.3225,-0.47126 -0.5581,-1.10374 -0.5581,-1.73622"
     id="path546"
     inkscape:connector-curvature="0"
     style="stroke-width:0.79370099" />
  <path
     class="Note"
     d="m 325.42419,303.79381 c 14.60901,0 17.54825,-11.90551 17.54825,-14.75787 0,-4.5266 -3.57166,-7.46575 -8.73071,-7.46575 -13.25733,0 -17.38706,10.2437 -17.38706,14.84469 0,4.67543 3.73288,7.37893 8.56952,7.37893 m -5.95278,-7.21771 c 0,-4.29095 12.78606,-11.35985 16.99014,-11.35985 1.66185,0 2.61675,0.7937 3.24925,1.90984 0.24803,0.47126 0.48368,1.02933 0.48368,1.66181 0,1.74862 -1.82305,3.8941 -8.02384,7.93701 -3.9685,2.70355 -6.74645,3.65847 -8.64392,3.65847 -1.83543,0 -2.93917,-0.95492 -3.49724,-2.07106 -0.32244,-0.47126 -0.55807,-1.10374 -0.55807,-1.73622"
     id="path548"
     inkscape:connector-curvature="0"
     style="stroke-width:0.79370099" />
  <path
     class="Note"
     d="m 1003.9792,293.86381 c 14.609,0 17.5482,-11.90551 17.5482,-14.75787 0,-4.5266 -3.5716,-7.46575 -8.7307,-7.46575 -13.2573,0 -17.38703,10.2437 -17.38703,14.84469 0,4.67543 3.73288,7.37893 8.56953,7.37893 m -5.95279,-7.21771 c 0,-4.29095 12.78609,-11.35985 16.99019,-11.35985 1.6618,0 2.6167,0.7937 3.2492,1.90984 0.248,0.47126 0.4837,1.02933 0.4837,1.66181 0,1.74862 -1.8231,3.8941 -8.0239,7.93701 -3.9685,2.70355 -6.7464,3.65847 -8.6439,3.65847 -1.8354,0 -2.93915,-0.95492 -3.49722,-2.07106 -0.32244,-0.47126 -0.55807,-1.10374 -0.55807,-1.73622"
     id="path550"
     inkscape:connector-curvature="0"
     style="stroke-width:0.79370099" />
  <path
     class="Note"
     d="m 1674.6692,303.79381 c 14.609,0 17.5482,-11.90551 17.5482,-14.75787 0,-4.5266 -3.5716,-7.46575 -8.7307,-7.46575 -13.2573,0 -17.387,10.2437 -17.387,14.84469 0,4.67543 3.7329,7.37893 8.5695,7.37893 m -5.9528,-7.21771 c 0,-4.29095 12.7861,-11.35985 16.9902,-11.35985 1.6618,0 2.6167,0.7937 3.2492,1.90984 0.248,0.47126 0.4837,1.02933 0.4837,1.66181 0,1.74862 -1.8231,3.8941 -8.0239,7.93701 -3.9685,2.70355 -6.7464,3.65847 -8.6439,3.65847 -1.8354,0 -2.9391,-0.95492 -3.4972,-2.07106 -0.3225,-0.47126 -0.5581,-1.10374 -0.5581,-1.73622"
     id="path552"
     inkscape:connector-curvature="0"
     style="stroke-width:0.79370099" />
  <path
     class="Note"
     d="m 2353.2292,293.86381 c 14.609,0 17.5482,-11.90551 17.5482,-14.75787 0,-4.5266 -3.5716,-7.46575 -8.7307,-7.46575 -13.2573,0 -17.387,10.2437 -17.387,14.84469 0,4.67543 3.7329,7.37893 8.5695,7.37893 m -5.9528,-7.21771 c 0,-4.29095 12.7861,-11.35985 16.9902,-11.35985 1.6618,0 2.6167,0.7937 3.2492,1.90984 0.248,0.47126 0.4837,1.02933 0.4837,1.66181 0,1.74862 -1.8231,3.8941 -8.0239,7.93701 -3.9685,2.70355 -6.7464,3.65847 -8.6439,3.65847 -1.8354,0 -2.9391,-0.95492 -3.4972,-2.07106 -0.3225,-0.47126 -0.5581,-1.10374 -0.5581,-1.73622"
     id="path554"
     inkscape:connector-curvature="0"
     style="stroke-width:0.79370099" />
  <path
     class="Note"
     d="m 325.42419,95.442814 c 14.60901,0 17.54825,-11.905515 17.54825,-14.757878 0,-4.526596 -3.57166,-7.46575 -8.73071,-7.46575 -13.25733,0 -17.38706,10.243704 -17.38706,14.844693 0,4.675431 3.73288,7.378935 8.56952,7.378935 m -5.95278,-7.217718 c 0,-4.290946 12.78606,-11.359846 16.99014,-11.359846 1.66185,0 2.61675,0.793701 3.24925,1.909843 0.24803,0.47126 0.48368,1.029327 0.48368,1.661811 0,1.748619 -1.82305,3.894096 -8.02384,7.93701 -3.9685,2.703545 -6.74645,3.65847 -8.64392,3.65847 -1.83543,0 -2.93917,-0.954925 -3.49724,-2.071068 -0.32244,-0.471259 -0.55807,-1.103736 -0.55807,-1.73622"
     id="path556"
     inkscape:connector-curvature="0"
     style="stroke-width:0.79370099" />
  <path
     class="Note"
     d="m 325.42419,75.600814 c 14.60901,0 17.54825,-11.905515 17.54825,-14.757878 0,-4.526596 -3.57166,-7.46575 -8.73071,-7.46575 -13.25733,0 -17.38706,10.243704 -17.38706,14.844693 0,4.675431 3.73288,7.378935 8.56952,7.378935 m -5.95278,-7.217718 c 0,-4.290947 12.78606,-11.359846 16.99014,-11.359846 1.66185,0 2.61675,0.793701 3.24925,1.909843 0.24803,0.47126 0.48368,1.029327 0.48368,1.661811 0,1.748619 -1.82305,3.894096 -8.02384,7.93701 -3.9685,2.703544 -6.74645,3.65847 -8.64392,3.65847 -1.83543,0 -2.93917,-0.954926 -3.49724,-2.071068 -0.32244,-0.47126 -0.55807,-1.103736 -0.55807,-1.73622"
     id="path558"
     inkscape:connector-curvature="0"
     style="stroke-width:0.79370099" />
  <path
     class="Note"
     d="m 1003.9792,105.36381 c 14.609,0 17.5482,-11.905511 17.5482,-14.757874 0,-4.526596 -3.5716,-7.46575 -8.7307,-7.46575 -13.2573,0 -17.38703,10.243704 -17.38703,14.844693 0,4.675431 3.73288,7.378931 8.56953,7.378931 m -5.95279,-7.217714 c 0,-4.290946 12.78609,-11.359846 16.99019,-11.359846 1.6618,0 2.6167,0.793701 3.2492,1.909843 0.248,0.47126 0.4837,1.029327 0.4837,1.661811 0,1.748619 -1.8231,3.894096 -8.0239,7.93701 -3.9685,2.703546 -6.7464,3.658466 -8.6439,3.658466 -1.8354,0 -2.93915,-0.95492 -3.49722,-2.071064 -0.32244,-0.471259 -0.55807,-1.103736 -0.55807,-1.73622"
     id="path560"
     inkscape:connector-curvature="0"
     style="stroke-width:0.79370099" />
  <path
     class="Note"
     d="m 1003.9792,85.521814 c 14.609,0 17.5482,-11.905515 17.5482,-14.757878 0,-4.526596 -3.5716,-7.46575 -8.7307,-7.46575 -13.2573,0 -17.38703,10.243704 -17.38703,14.844693 0,4.675431 3.73288,7.378935 8.56953,7.378935 m -5.95279,-7.217718 c 0,-4.290947 12.78609,-11.359846 16.99019,-11.359846 1.6618,0 2.6167,0.793701 3.2492,1.909843 0.248,0.47126 0.4837,1.029327 0.4837,1.661811 0,1.748619 -1.8231,3.894096 -8.0239,7.93701 -3.9685,2.703544 -6.7464,3.65847 -8.6439,3.65847 -1.8354,0 -2.93915,-0.954926 -3.49722,-2.071068 -0.32244,-0.47126 -0.55807,-1.103736 -0.55807,-1.73622"
     id="path562"
     inkscape:connector-curvature="0"
     style="stroke-width:0.79370099" />
  <path
     class="Note"
     d="m 1674.6692,95.442814 c 14.609,0 17.5482,-11.905515 17.5482,-14.757878 0,-4.526596 -3.5716,-7.46575 -8.7307,-7.46575 -13.2573,0 -17.387,10.243704 -17.387,14.844693 0,4.675431 3.7329,7.378935 8.5695,7.378935 m -5.9528,-7.217718 c 0,-4.290946 12.7861,-11.359846 16.9902,-11.359846 1.6618,0 2.6167,0.793701 3.2492,1.909843 0.248,0.47126 0.4837,1.029327 0.4837,1.661811 0,1.748619 -1.8231,3.894096 -8.0239,7.93701 -3.9685,2.703545 -6.7464,3.65847 -8.6439,3.65847 -1.8354,0 -2.9391,-0.954925 -3.4972,-2.071068 -0.3225,-0.471259 -0.5581,-1.103736 -0.5581,-1.73622"
     id="path564"
     inkscape:connector-curvature="0"
     style="stroke-width:0.79370099" />
  <path
     class="Note"
     d="m 1674.6692,75.600814 c 14.609,0 17.5482,-11.905515 17.5482,-14.757878 0,-4.526596 -3.5716,-7.46575 -8.7307,-7.46575 -13.2573,0 -17.387,10.243704 -17.387,14.844693 0,4.675431 3.7329,7.378935 8.5695,7.378935 m -5.9528,-7.217718 c 0,-4.290947 12.7861,-11.359846 16.9902,-11.359846 1.6618,0 2.6167,0.793701 3.2492,1.909843 0.248,0.47126 0.4837,1.029327 0.4837,1.661811 0,1.748619 -1.8231,3.894096 -8.0239,7.93701 -3.9685,2.703544 -6.7464,3.65847 -8.6439,3.65847 -1.8354,0 -2.9391,-0.954926 -3.4972,-2.071068 -0.3225,-0.47126 -0.5581,-1.103736 -0.5581,-1.73622"
     id="path566"
     inkscape:connector-curvature="0"
     style="stroke-width:0.79370099" />
  <path
     class="Note"
     d="m 2353.2292,105.36381 c 14.609,0 17.5482,-11.905511 17.5482,-14.757874 0,-4.526596 -3.5716,-7.46575 -8.7307,-7.46575 -13.2573,0 -17.387,10.243704 -17.387,14.844693 0,4.675431 3.7329,7.378931 8.5695,7.378931 m -5.9528,-7.217714 c 0,-4.290946 12.7861,-11.359846 16.9902,-11.359846 1.6618,0 2.6167,0.793701 3.2492,1.909843 0.248,0.47126 0.4837,1.029327 0.4837,1.661811 0,1.748619 -1.8231,3.894096 -8.0239,7.93701 -3.9685,2.703546 -6.7464,3.658466 -8.6439,3.658466 -1.8354,0 -2.9391,-0.95492 -3.4972,-2.071064 -0.3225,-0.471259 -0.5581,-1.103736 -0.5581,-1.73622"
     id="path568"
     inkscape:connector-curvature="0"
     style="stroke-width:0.79370099" />
  <path
     class="Note"
     d="m 2353.2292,85.521814 c 14.609,0 17.5482,-11.905515 17.5482,-14.757878 0,-4.526596 -3.5716,-7.46575 -8.7307,-7.46575 -13.2573,0 -17.387,10.243704 -17.387,14.844693 0,4.675431 3.7329,7.378935 8.5695,7.378935 m -5.9528,-7.217718 c 0,-4.290947 12.7861,-11.359846 16.9902,-11.359846 1.6618,0 2.6167,0.793701 3.2492,1.909843 0.248,0.47126 0.4837,1.029327 0.4837,1.661811 0,1.748619 -1.8231,3.894096 -8.0239,7.93701 -3.9685,2.703544 -6.7464,3.65847 -8.6439,3.65847 -1.8354,0 -2.9391,-0.954926 -3.4972,-2.071068 -0.3225,-0.47126 -0.5581,-1.103736 -0.5581,-1.73622"
     id="path570"
     inkscape:connector-curvature="0"
     style="stroke-width:0.79370099" />
  <path
     class="Note"
     d="m 325.42419,55.757814 c 14.60901,0 17.54825,-11.905515 17.54825,-14.757878 0,-4.526596 -3.57166,-7.46575 -8.73071,-7.46575 -13.25733,0 -17.38706,10.243704 -17.38706,14.844693 0,4.675431 3.73288,7.378935 8.56952,7.378935 m -5.95278,-7.217718 c 0,-4.290947 12.78606,-11.359846 16.99014,-11.359846 1.66185,0 2.61675,0.793701 3.24925,1.909843 0.24803,0.47126 0.48368,1.029327 0.48368,1.661811 0,1.748619 -1.82305,3.894096 -8.02384,7.93701 -3.9685,2.703544 -6.74645,3.65847 -8.64392,3.65847 -1.83543,0 -2.93917,-0.954926 -3.49724,-2.071068 -0.32244,-0.47126 -0.55807,-1.103736 -0.55807,-1.73622"
     id="path572"
     inkscape:connector-curvature="0"
     style="stroke-width:0.79370099" />
  <path
     class="Note"
     d="m 1003.9792,55.757814 c 14.609,0 17.5482,-11.905515 17.5482,-14.757878 0,-4.526596 -3.5716,-7.46575 -8.7307,-7.46575 -13.2573,0 -17.38703,10.243704 -17.38703,14.844693 0,4.675431 3.73288,7.378935 8.56953,7.378935 m -5.95279,-7.217718 c 0,-4.290947 12.78609,-11.359846 16.99019,-11.359846 1.6618,0 2.6167,0.793701 3.2492,1.909843 0.248,0.47126 0.4837,1.029327 0.4837,1.661811 0,1.748619 -1.8231,3.894096 -8.0239,7.93701 -3.9685,2.703544 -6.7464,3.65847 -8.6439,3.65847 -1.8354,0 -2.93915,-0.954926 -3.49722,-2.071068 -0.32244,-0.47126 -0.55807,-1.103736 -0.55807,-1.73622"
     id="path574"
     inkscape:connector-curvature="0"
     style="stroke-width:0.79370099" />
  <path
     class="Note"
     d="m 1674.6692,55.757814 c 14.609,0 17.5482,-11.905515 17.5482,-14.757878 0,-4.526596 -3.5716,-7.46575 -8.7307,-7.46575 -13.2573,0 -17.387,10.243704 -17.387,14.844693 0,4.675431 3.7329,7.378935 8.5695,7.378935 m -5.9528,-7.217718 c 0,-4.290947 12.7861,-11.359846 16.9902,-11.359846 1.6618,0 2.6167,0.793701 3.2492,1.909843 0.248,0.47126 0.4837,1.029327 0.4837,1.661811 0,1.748619 -1.8231,3.894096 -8.0239,7.93701 -3.9685,2.703544 -6.7464,3.65847 -8.6439,3.65847 -1.8354,0 -2.9391,-0.954926 -3.4972,-2.071068 -0.3225,-0.47126 -0.5581,-1.103736 -0.5581,-1.73622"
     id="path576"
     inkscape:connector-curvature="0"
     style="stroke-width:0.79370099" />
  <path
     class="Note"
     d="m 2353.2292,55.757814 c 14.609,0 17.5482,-11.905515 17.5482,-14.757878 0,-4.526596 -3.5716,-7.46575 -8.7307,-7.46575 -13.2573,0 -17.387,10.243704 -17.387,14.844693 0,4.675431 3.7329,7.378935 8.5695,7.378935 m -5.9528,-7.217718 c 0,-4.290947 12.7861,-11.359846 16.9902,-11.359846 1.6618,0 2.6167,0.793701 3.2492,1.909843 0.248,0.47126 0.4837,1.029327 0.4837,1.661811 0,1.748619 -1.8231,3.894096 -8.0239,7.93701 -3.9685,2.703544 -6.7464,3.65847 -8.6439,3.65847 -1.8354,0 -2.9391,-0.954926 -3.4972,-2.071068 -0.3225,-0.47126 -0.5581,-1.103736 -0.5581,-1.73622"
     id="path578"
     inkscape:connector-curvature="0"
     style="stroke-width:0.79370099" />
  <path
     class="Clef"
     d="m 78.711392,709.53573 c 1.822972,0 3.881674,-0.1612 5.469076,-0.48361 0.880532,-0.14882 1.041732,-0.23565 1.190551,0.71926 0.954902,5.32025 2.145453,12.22799 2.145453,15.96085 0,11.74431 -7.93701,13.17043 -12.612385,13.17043 -4.290985,0 -6.36199,-1.26492 -6.36199,-2.30665 0,-0.54567 0.719252,-0.7937 2.542304,-1.33937 2.467934,-0.71933 5.320257,-2.86479 5.320257,-7.46579 0,-4.36536 -2.777953,-8.09821 -7.614529,-8.09821 -5.320336,0 -8.49514,4.20415 -8.49514,9.12756 0,5.15906 3.088052,12.93487 15.080319,12.93487 5.320336,0 15.638449,-2.38111 15.638449,-15.87402 0,-4.51418 -1.426201,-12.05434 -2.306733,-16.97775 -0.161201,-0.95498 -0.07437,-0.88053 1.029351,-1.35183 8.023841,-3.1748 13.344095,-9.92126 13.344095,-18.88758 0,-10.16933 -7.465787,-19.13562 -19.135652,-19.13562 -2.058622,0 -2.058622,0 -2.294272,-1.4262 l -1.984253,-11.50866 c -0.1612,-0.9549 0,-1.02935 0.471221,-1.51303 8.56951,-8.01138 15.080319,-18.09385 15.080319,-30.23501 0,-6.90766 -1.909804,-13.74095 -5.159057,-18.50355 -1.190551,-1.73583 -3.249174,-3.96851 -4.129706,-3.96851 -1.10372,0 -3.571654,2.07156 -5.159056,3.82009 -5.865927,6.49842 -7.775809,16.41968 -7.775809,24.6791 0,4.601 0.55813,9.76006 1.116181,13.02169 0.148819,0.9549 0.23565,1.10372 -0.719331,1.89742 -11.434215,9.45005 -23.57538,20.79743 -23.57538,36.83271 0,13.81536 9.450042,26.91141 28.895717,26.91141 M 56.165283,687.9446 c 0,-4.6878 0.793701,-10.95062 7.378959,-18.41633 4.762206,-5.32033 8.420691,-8.25949 12.153546,-11.27309 0.793701,-0.63242 0.94252,-0.55805 1.103721,0.32248 l 1.674233,10.15691 c 0.23565,1.51296 0.23565,1.42613 -1.190552,1.90981 -6.99449,2.3811 -11.521046,8.64388 -11.521046,15.39037 0,7.14331 3.732855,12.22796 9.139943,14.05101 0.632501,0.23565 1.587402,0.48368 2.133072,0.48368 0.644882,0 0.954901,-0.39685 0.954901,-0.88053 0,-0.55805 -0.6325,-0.7937 -1.190551,-1.02935 -3.336005,-1.42618 -5.717108,-4.83661 -5.717108,-8.49508 0,-4.52658 3.100355,-7.93701 7.93701,-9.28882 1.277383,-0.31002 1.438583,-0.23557 1.587402,0.64488 l 3.968505,23.64983 c 0.161201,0.86815 0.08683,0.86815 -1.10372,1.1038 -1.277383,0.24803 -2.864785,0.39685 -4.452187,0.39685 -13.889767,0 -22.856128,-7.68898 -22.856128,-18.72642 m 30.954339,-73.26853 c 2.616753,0 4.762206,2.14546 4.762206,6.51081 0,8.81755 -7.54016,15.96085 -13.802937,21.42993 -0.558051,0.48368 -0.880532,0.39685 -1.041732,-0.6325 -0.31002,-2.05862 -0.4713,-4.76221 -0.4713,-7.30451 0,-12.37674 5.717187,-20.00373 10.553763,-20.00373 m -2.294272,65.56717 c 6.423978,0.55805 11.744314,5.95273 11.744314,12.93482 0,5.01028 -3.013603,9.05316 -7.46579,11.27306 -0.954901,0.48368 -1.10372,0.48368 -1.264921,-0.4713 l -3.894135,-22.62048 c -0.161201,-0.9549 -0.07437,-1.19055 0.880532,-1.1161"
     id="path748"
     inkscape:connector-curvature="0"
     style="stroke-width:0.79370099" />
  <path
     class="Clef"
     d="m 50.448155,372.84201 c 0.396855,0 0.880512,-0.1612 1.351772,-0.39685 19.532506,-9.52441 40.168732,-23.64983 40.168732,-47.78327 0,-13.803 -8.420692,-23.01732 -22.149258,-23.01732 -13.815335,0 -20.003726,10.08247 -20.003726,17.69704 0,6.3496 3.336028,11.8311 9.760062,11.8311 4.997855,0 8.420691,-3.49724 8.420691,-8.40827 0,-5.08465 -3.732934,-8.25945 -7.62699,-8.25945 -2.145454,0 -2.939194,0.55807 -3.968521,0.55807 -1.029335,0 -1.264961,-0.63252 -1.264961,-1.42622 0,-3.1748 4.762182,-8.97874 12.860472,-8.97874 8.40823,0 12.066716,8.25949 12.066716,20.72308 0,22.14923 -10.962995,34.52597 -29.453768,45.07973 -0.719292,0.39685 -1.190552,0.7937 -1.190552,1.4262 0,0.48368 0.322441,0.9549 1.029331,0.9549 m 49.296313,-55.95592 c 2.455472,0 4.365352,-1.90984 4.365352,-4.36535 0,-2.45555 -1.90988,-4.36536 -4.365352,-4.36536 -2.467934,0 -4.365355,1.90981 -4.365355,4.36536 0,2.45551 1.897421,4.36535 4.365355,4.36535 m 0.07437,19.76816 c 2.467932,0 4.290982,-1.83544 4.290982,-4.29099 0,-2.45551 -1.82305,-4.29094 -4.290982,-4.29094 -2.455473,0 -4.278525,1.83543 -4.278525,4.29094 0,2.45555 1.823052,4.29099 4.278525,4.29099"
     id="path750"
     inkscape:connector-curvature="0"
     style="stroke-width:0.79370099" />
  <path
     class="Clef"
     d="m 78.711392,173.78573 c 1.822972,0 3.881674,-0.16121 5.469076,-0.48361 0.880532,-0.14882 1.041732,-0.23565 1.190551,0.71926 0.954902,5.32025 2.145453,12.22799 2.145453,15.96085 0,11.74431 -7.93701,13.17043 -12.612385,13.17043 -4.290985,0 -6.36199,-1.26492 -6.36199,-2.30665 0,-0.54567 0.719252,-0.7937 2.542304,-1.33937 2.467934,-0.71933 5.320257,-2.86479 5.320257,-7.46579 0,-4.36536 -2.777953,-8.09821 -7.614529,-8.09821 -5.320336,0 -8.49514,4.20415 -8.49514,9.12756 0,5.15906 3.088052,12.93487 15.080319,12.93487 5.320336,0 15.638449,-2.38111 15.638449,-15.87402 0,-4.51418 -1.426201,-12.05434 -2.306733,-16.97775 -0.161201,-0.95498 -0.07437,-0.88053 1.029351,-1.35183 8.023841,-3.1748 13.344095,-9.92126 13.344095,-18.88758 0,-10.16933 -7.465787,-19.13562 -19.135652,-19.13562 -2.058622,0 -2.058622,0 -2.294272,-1.4262 l -1.984253,-11.50866 c -0.1612,-0.9549 0,-1.02935 0.471221,-1.51303 8.56951,-8.01138 15.080319,-18.09385 15.080319,-30.235012 0,-6.907659 -1.909804,-13.740948 -5.159057,-18.503551 -1.190551,-1.735824 -3.249174,-3.968505 -4.129706,-3.968505 -1.10372,0 -3.571654,2.07156 -5.159056,3.820083 -5.865927,6.498427 -7.775809,16.419689 -7.775809,24.679101 0,4.601005 0.55813,9.760064 1.116181,13.021694 0.148819,0.9549 0.23565,1.10372 -0.719331,1.89742 -11.434215,9.45005 -23.57538,20.79743 -23.57538,36.83271 0,13.81536 9.450042,26.91141 28.895717,26.91141 M 56.165283,152.1946 c 0,-4.6878 0.793701,-10.95062 7.378959,-18.41633 4.762206,-5.32033 8.420691,-8.25949 12.153546,-11.27309 0.793701,-0.63242 0.94252,-0.55805 1.103721,0.32248 l 1.674233,10.15691 c 0.23565,1.51296 0.23565,1.42613 -1.190552,1.90981 -6.99449,2.3811 -11.521046,8.64388 -11.521046,15.39037 0,7.14331 3.732855,12.22796 9.139943,14.05101 0.632501,0.23565 1.587402,0.48368 2.133072,0.48368 0.644882,0 0.954901,-0.39685 0.954901,-0.88053 0,-0.55805 -0.6325,-0.7937 -1.190551,-1.02935 -3.336005,-1.42618 -5.717108,-4.83661 -5.717108,-8.49508 0,-4.52658 3.100355,-7.93701 7.93701,-9.28882 1.277383,-0.31002 1.438583,-0.23557 1.587402,0.64488 l 3.968505,23.64983 c 0.161201,0.86815 0.08683,0.86815 -1.10372,1.1038 -1.277383,0.24803 -2.864785,0.39685 -4.452187,0.39685 -13.889767,0 -22.856128,-7.68898 -22.856128,-18.72642 M 87.119622,78.926074 c 2.616753,0 4.762206,2.145454 4.762206,6.510809 0,8.817542 -7.54016,15.960847 -13.802937,21.429927 -0.558051,0.48368 -0.880532,0.39685 -1.041732,-0.6325 -0.31002,-2.05862 -0.4713,-4.76221 -0.4713,-7.30451 0,-12.376735 5.717187,-20.003726 10.553763,-20.003726 M 84.82535,144.49324 c 6.423978,0.55805 11.744314,5.95273 11.744314,12.93482 0,5.01028 -3.013603,9.05316 -7.46579,11.27306 -0.954901,0.48368 -1.10372,0.48368 -1.264921,-0.4713 l -3.894135,-22.62048 c -0.161201,-0.9549 -0.07437,-1.19055 0.880532,-1.1161"
     id="path752"
     inkscape:connector-curvature="0"
     style="stroke-width:0.79370099" />
  <path
     class="Bracket"
     d="m 13.53169,267.73943 c 0,20.14019 -10.0700948,37.98756 -10.0700948,58.98199 0,28.77161 7.7323948,45.45022 14.0711738,53.54226 1.16885,1.43859 1.753261,1.70832 2.292731,1.70832 0.899115,0 1.753289,-0.85416 1.753289,-1.70832 0,-0.89912 -0.314704,-1.75329 -1.438585,-3.19187 -1.438585,-2.29274 -8.047099,-16.67859 -8.047099,-31.91867 0,-15.24008 8.63151,-42.30332 10.609565,-59.29674 0.314704,-1.43859 0.314704,-2.87717 0.314704,-4.58535 0,-16.99343 -9.485684,-37.40321 -17.8474592,-42.5732 8.3617752,-5.21487 17.8474592,-25.62465 17.8474592,-42.61808 0,-1.43858 0,-3.14676 -0.314704,-4.58534 -1.978055,-17.26302 -10.609565,-44.01179 -10.609565,-59.56663 0,-14.9702 6.608514,-29.35605 8.047099,-31.91846 1.123881,-1.168994 1.438585,-2.022938 1.438585,-2.87717 0,-0.584353 -0.314704,-1.168994 -0.584439,-1.168994 -0.269735,-0.269591 -0.584411,-0.853944 -1.16885,-0.853944 -0.53947,0 -1.123881,0.584353 -2.292731,2.022938 -6.338779,7.73239 -14.0711738,24.45594 -14.0711738,53.22764 0,28.45694 10.0700948,39.96562 10.0700948,58.12776 0,13.48673 -5.4846052,20.99442 -13.53169,30.21028 5.1699148,5.75434 13.53169,10.33998 13.53169,29.04158"
     id="path872"
     inkscape:connector-curvature="0"
     style="stroke-width:2.87717009" />
</svg>
