<?xml version="1.0" encoding="UTF-8" standalone="no"?>
<svg width="2974.68px" height="4209.44px" viewBox="0 0 2974.68 4209.44"
 xmlns="http://www.w3.org/2000/svg" xmlns:xlink="http://www.w3.org/1999/xlink" version="1.2" baseProfile="tiny">
<title>KV 545-Exposition (5)</title>
<desc>Generated by MuseScore 3.6.2</desc>
<polyline class="StaffLines" fill="none" stroke="#000000" stroke-width="2.58" stroke-linejoin="bevel" points="102.85,422.362 1041.95,422.362"/>
<polyline class="StaffLines" fill="none" stroke="#000000" stroke-width="2.58" stroke-linejoin="bevel" points="102.85,442.205 1041.95,442.205"/>
<polyline class="StaffLines" fill="none" stroke="#000000" stroke-width="2.58" stroke-linejoin="bevel" points="102.85,462.047 1041.95,462.047"/>
<polyline class="StaffLines" fill="none" stroke="#000000" stroke-width="2.58" stroke-linejoin="bevel" points="102.85,481.89 1041.95,481.89"/>
<polyline class="StaffLines" fill="none" stroke="#000000" stroke-width="2.58" stroke-linejoin="bevel" points="102.85,501.732 1041.95,501.732"/>
<polyline class="StaffLines" fill="none" stroke="#000000" stroke-width="2.58" stroke-linejoin="bevel" points="1041.95,422.362 1760.55,422.362"/>
<polyline class="StaffLines" fill="none" stroke="#000000" stroke-width="2.58" stroke-linejoin="bevel" points="1041.95,442.205 1760.55,442.205"/>
<polyline class="StaffLines" fill="none" stroke="#000000" stroke-width="2.58" stroke-linejoin="bevel" points="1041.95,462.047 1760.55,462.047"/>
<polyline class="StaffLines" fill="none" stroke="#000000" stroke-width="2.58" stroke-linejoin="bevel" points="1041.95,481.89 1760.55,481.89"/>
<polyline class="StaffLines" fill="none" stroke="#000000" stroke-width="2.58" stroke-linejoin="bevel" points="1041.95,501.732 1760.55,501.732"/>
<polyline class="StaffLines" fill="none" stroke="#000000" stroke-width="2.58" stroke-linejoin="bevel" points="1760.55,422.362 2233.18,422.362"/>
<polyline class="StaffLines" fill="none" stroke="#000000" stroke-width="2.58" stroke-linejoin="bevel" points="1760.55,442.205 2233.18,442.205"/>
<polyline class="StaffLines" fill="none" stroke="#000000" stroke-width="2.58" stroke-linejoin="bevel" points="1760.55,462.047 2233.18,462.047"/>
<polyline class="StaffLines" fill="none" stroke="#000000" stroke-width="2.58" stroke-linejoin="bevel" points="1760.55,481.89 2233.18,481.89"/>
<polyline class="StaffLines" fill="none" stroke="#000000" stroke-width="2.58" stroke-linejoin="bevel" points="1760.55,501.732 2233.18,501.732"/>
<polyline class="StaffLines" fill="none" stroke="#000000" stroke-width="2.58" stroke-linejoin="bevel" points="102.85,630.709 1041.95,630.709"/>
<polyline class="StaffLines" fill="none" stroke="#000000" stroke-width="2.58" stroke-linejoin="bevel" points="102.85,650.551 1041.95,650.551"/>
<polyline class="StaffLines" fill="none" stroke="#000000" stroke-width="2.58" stroke-linejoin="bevel" points="102.85,670.394 1041.95,670.394"/>
<polyline class="StaffLines" fill="none" stroke="#000000" stroke-width="2.58" stroke-linejoin="bevel" points="102.85,690.236 1041.95,690.236"/>
<polyline class="StaffLines" fill="none" stroke="#000000" stroke-width="2.58" stroke-linejoin="bevel" points="102.85,710.079 1041.95,710.079"/>
<polyline class="StaffLines" fill="none" stroke="#000000" stroke-width="2.58" stroke-linejoin="bevel" points="1041.95,630.709 1760.55,630.709"/>
<polyline class="StaffLines" fill="none" stroke="#000000" stroke-width="2.58" stroke-linejoin="bevel" points="1041.95,650.551 1760.55,650.551"/>
<polyline class="StaffLines" fill="none" stroke="#000000" stroke-width="2.58" stroke-linejoin="bevel" points="1041.95,670.394 1760.55,670.394"/>
<polyline class="StaffLines" fill="none" stroke="#000000" stroke-width="2.58" stroke-linejoin="bevel" points="1041.95,690.236 1760.55,690.236"/>
<polyline class="StaffLines" fill="none" stroke="#000000" stroke-width="2.58" stroke-linejoin="bevel" points="1041.95,710.079 1760.55,710.079"/>
<polyline class="StaffLines" fill="none" stroke="#000000" stroke-width="2.58" stroke-linejoin="bevel" points="1760.55,630.709 2233.18,630.709"/>
<polyline class="StaffLines" fill="none" stroke="#000000" stroke-width="2.58" stroke-linejoin="bevel" points="1760.55,650.551 2233.18,650.551"/>
<polyline class="StaffLines" fill="none" stroke="#000000" stroke-width="2.58" stroke-linejoin="bevel" points="1760.55,670.394 2233.18,670.394"/>
<polyline class="StaffLines" fill="none" stroke="#000000" stroke-width="2.58" stroke-linejoin="bevel" points="1760.55,690.236 2233.18,690.236"/>
<polyline class="StaffLines" fill="none" stroke="#000000" stroke-width="2.58" stroke-linejoin="bevel" points="1760.55,710.079 2233.18,710.079"/>
<polyline class="StaffLines" fill="none" stroke="#000000" stroke-width="2.58" stroke-linejoin="bevel" points="102.85,958.11 1041.95,958.11"/>
<polyline class="StaffLines" fill="none" stroke="#000000" stroke-width="2.58" stroke-linejoin="bevel" points="102.85,977.953 1041.95,977.953"/>
<polyline class="StaffLines" fill="none" stroke="#000000" stroke-width="2.58" stroke-linejoin="bevel" points="102.85,997.795 1041.95,997.795"/>
<polyline class="StaffLines" fill="none" stroke="#000000" stroke-width="2.58" stroke-linejoin="bevel" points="102.85,1017.64 1041.95,1017.64"/>
<polyline class="StaffLines" fill="none" stroke="#000000" stroke-width="2.58" stroke-linejoin="bevel" points="102.85,1037.48 1041.95,1037.48"/>
<polyline class="StaffLines" fill="none" stroke="#000000" stroke-width="2.58" stroke-linejoin="bevel" points="1041.95,958.11 1760.55,958.11"/>
<polyline class="StaffLines" fill="none" stroke="#000000" stroke-width="2.58" stroke-linejoin="bevel" points="1041.95,977.953 1760.55,977.953"/>
<polyline class="StaffLines" fill="none" stroke="#000000" stroke-width="2.58" stroke-linejoin="bevel" points="1041.95,997.795 1760.55,997.795"/>
<polyline class="StaffLines" fill="none" stroke="#000000" stroke-width="2.58" stroke-linejoin="bevel" points="1041.95,1017.64 1760.55,1017.64"/>
<polyline class="StaffLines" fill="none" stroke="#000000" stroke-width="2.58" stroke-linejoin="bevel" points="1041.95,1037.48 1760.55,1037.48"/>
<polyline class="StaffLines" fill="none" stroke="#000000" stroke-width="2.58" stroke-linejoin="bevel" points="1760.55,958.11 2233.18,958.11"/>
<polyline class="StaffLines" fill="none" stroke="#000000" stroke-width="2.58" stroke-linejoin="bevel" points="1760.55,977.953 2233.18,977.953"/>
<polyline class="StaffLines" fill="none" stroke="#000000" stroke-width="2.58" stroke-linejoin="bevel" points="1760.55,997.795 2233.18,997.795"/>
<polyline class="StaffLines" fill="none" stroke="#000000" stroke-width="2.58" stroke-linejoin="bevel" points="1760.55,1017.64 2233.18,1017.64"/>
<polyline class="StaffLines" fill="none" stroke="#000000" stroke-width="2.58" stroke-linejoin="bevel" points="1760.55,1037.48 2233.18,1037.48"/>
<polyline class="StaffLines" fill="none" stroke="#000000" stroke-width="2.58" stroke-linejoin="bevel" points="102.85,1166.46 1041.95,1166.46"/>
<polyline class="StaffLines" fill="none" stroke="#000000" stroke-width="2.58" stroke-linejoin="bevel" points="102.85,1186.3 1041.95,1186.3"/>
<polyline class="StaffLines" fill="none" stroke="#000000" stroke-width="2.58" stroke-linejoin="bevel" points="102.85,1206.14 1041.95,1206.14"/>
<polyline class="StaffLines" fill="none" stroke="#000000" stroke-width="2.58" stroke-linejoin="bevel" points="102.85,1225.98 1041.95,1225.98"/>
<polyline class="StaffLines" fill="none" stroke="#000000" stroke-width="2.58" stroke-linejoin="bevel" points="102.85,1245.83 1041.95,1245.83"/>
<polyline class="StaffLines" fill="none" stroke="#000000" stroke-width="2.58" stroke-linejoin="bevel" points="1041.95,1166.46 1760.55,1166.46"/>
<polyline class="StaffLines" fill="none" stroke="#000000" stroke-width="2.58" stroke-linejoin="bevel" points="1041.95,1186.3 1760.55,1186.3"/>
<polyline class="StaffLines" fill="none" stroke="#000000" stroke-width="2.58" stroke-linejoin="bevel" points="1041.95,1206.14 1760.55,1206.14"/>
<polyline class="StaffLines" fill="none" stroke="#000000" stroke-width="2.58" stroke-linejoin="bevel" points="1041.95,1225.98 1760.55,1225.98"/>
<polyline class="StaffLines" fill="none" stroke="#000000" stroke-width="2.58" stroke-linejoin="bevel" points="1041.95,1245.83 1760.55,1245.83"/>
<polyline class="StaffLines" fill="none" stroke="#000000" stroke-width="2.58" stroke-linejoin="bevel" points="1760.55,1166.46 2233.18,1166.46"/>
<polyline class="StaffLines" fill="none" stroke="#000000" stroke-width="2.58" stroke-linejoin="bevel" points="1760.55,1186.3 2233.18,1186.3"/>
<polyline class="StaffLines" fill="none" stroke="#000000" stroke-width="2.58" stroke-linejoin="bevel" points="1760.55,1206.14 2233.18,1206.14"/>
<polyline class="StaffLines" fill="none" stroke="#000000" stroke-width="2.58" stroke-linejoin="bevel" points="1760.55,1225.98 2233.18,1225.98"/>
<polyline class="StaffLines" fill="none" stroke="#000000" stroke-width="2.58" stroke-linejoin="bevel" points="1760.55,1245.83 2233.18,1245.83"/>
<polyline class="StaffLines" fill="none" stroke="#000000" stroke-width="2.58" stroke-linejoin="bevel" points="102.85,1493.86 1041.95,1493.86"/>
<polyline class="StaffLines" fill="none" stroke="#000000" stroke-width="2.58" stroke-linejoin="bevel" points="102.85,1513.7 1041.95,1513.7"/>
<polyline class="StaffLines" fill="none" stroke="#000000" stroke-width="2.58" stroke-linejoin="bevel" points="102.85,1533.54 1041.95,1533.54"/>
<polyline class="StaffLines" fill="none" stroke="#000000" stroke-width="2.58" stroke-linejoin="bevel" points="102.85,1553.39 1041.95,1553.39"/>
<polyline class="StaffLines" fill="none" stroke="#000000" stroke-width="2.58" stroke-linejoin="bevel" points="102.85,1573.23 1041.95,1573.23"/>
<polyline class="StaffLines" fill="none" stroke="#000000" stroke-width="2.58" stroke-linejoin="bevel" points="1041.95,1493.86 1760.55,1493.86"/>
<polyline class="StaffLines" fill="none" stroke="#000000" stroke-width="2.58" stroke-linejoin="bevel" points="1041.95,1513.7 1760.55,1513.7"/>
<polyline class="StaffLines" fill="none" stroke="#000000" stroke-width="2.58" stroke-linejoin="bevel" points="1041.95,1533.54 1760.55,1533.54"/>
<polyline class="StaffLines" fill="none" stroke="#000000" stroke-width="2.58" stroke-linejoin="bevel" points="1041.95,1553.39 1760.55,1553.39"/>
<polyline class="StaffLines" fill="none" stroke="#000000" stroke-width="2.58" stroke-linejoin="bevel" points="1041.95,1573.23 1760.55,1573.23"/>
<polyline class="StaffLines" fill="none" stroke="#000000" stroke-width="2.58" stroke-linejoin="bevel" points="1760.55,1493.86 2233.18,1493.86"/>
<polyline class="StaffLines" fill="none" stroke="#000000" stroke-width="2.58" stroke-linejoin="bevel" points="1760.55,1513.7 2233.18,1513.7"/>
<polyline class="StaffLines" fill="none" stroke="#000000" stroke-width="2.58" stroke-linejoin="bevel" points="1760.55,1533.54 2233.18,1533.54"/>
<polyline class="StaffLines" fill="none" stroke="#000000" stroke-width="2.58" stroke-linejoin="bevel" points="1760.55,1553.39 2233.18,1553.39"/>
<polyline class="StaffLines" fill="none" stroke="#000000" stroke-width="2.58" stroke-linejoin="bevel" points="1760.55,1573.23 2233.18,1573.23"/>
<path class="MeasureNumber" d="M88.3346,367.412 C88.4492,366.922 88.5586,366.498 88.6628,366.138 C88.7669,365.779 88.9961,365.255 89.3503,364.568 C89.7044,363.88 90.1003,363.308 90.5378,362.849 C90.9753,362.391 91.582,361.982 92.3581,361.623 C93.1341,361.263 94.0117,361.084 94.9909,361.084 C96.6575,361.084 98.0612,361.623 99.2018,362.701 C100.342,363.779 100.913,365.115 100.913,366.709 C100.913,369.125 99.5482,371.761 96.819,374.615 L91.444,380.24 L99.1003,380.24 C99.819,380.24 100.355,380.117 100.71,379.873 C101.064,379.628 101.538,379.047 102.132,378.13 L102.553,378.287 L100.788,382.677 L88.3034,382.677 L88.3034,382.287 L94.0065,376.24 C96.7773,373.302 98.1628,370.531 98.1628,367.927 C98.1628,366.584 97.7461,365.495 96.9128,364.662 C96.0794,363.828 94.9909,363.412 93.6471,363.412 C92.543,363.412 91.6549,363.716 90.9831,364.326 C90.3112,364.935 89.6523,366.016 89.0065,367.568 L88.3346,367.412 M114.772,376.443 C114.772,375.318 114.522,374.318 114.022,373.443 C113.522,372.568 112.915,371.891 112.202,371.412 C111.488,370.933 110.689,370.539 109.803,370.232 C108.918,369.925 108.15,369.724 107.499,369.63 C106.848,369.537 106.277,369.49 105.788,369.49 C105.527,369.49 105.397,369.401 105.397,369.224 C105.397,369.162 105.408,369.11 105.428,369.068 L108.913,361.49 L115.6,361.49 C115.944,361.49 116.217,361.438 116.421,361.334 C116.624,361.229 116.845,361.005 117.085,360.662 L117.366,360.88 L116.147,363.74 C116.064,363.927 115.819,364.021 115.413,364.021 L109.147,364.021 L107.803,366.74 C110.918,367.292 113.23,368.19 114.741,369.435 C116.251,370.68 117.007,372.505 117.007,374.912 C117.007,376.172 116.811,377.295 116.421,378.279 C116.03,379.263 115.53,380.055 114.921,380.654 C114.311,381.253 113.605,381.745 112.803,382.13 C112.001,382.516 111.233,382.779 110.499,382.92 C109.764,383.06 109.022,383.13 108.272,383.13 C107.085,383.13 106.139,382.953 105.436,382.599 C104.733,382.245 104.382,381.761 104.382,381.146 C104.382,380.354 104.84,379.959 105.757,379.959 C106.35,379.959 107.121,380.284 108.069,380.935 C109.017,381.586 109.767,381.912 110.319,381.912 C111.579,381.912 112.637,381.383 113.491,380.326 C114.345,379.268 114.772,377.974 114.772,376.443"/>
<polyline class="BarLine" fill="none" stroke="#000000" stroke-width="3.17" stroke-linejoin="bevel" points="104.438,1492.57 104.438,1574.52"/>
<polyline class="BarLine" fill="none" stroke="#000000" stroke-width="3.17" stroke-linejoin="bevel" points="1040.36,1492.57 1040.36,1574.52"/>
<polyline class="BarLine" fill="none" stroke="#000000" stroke-width="3.17" stroke-linejoin="bevel" points="1758.96,1492.57 1758.96,1574.52"/>
<path class="BarLine" transform="matrix(0.793701,0,0,0.793701,2201,1523.62)" d="M0,0 C0,2.79688 2.20313,5 5,5 C7.70313,5 10,2.79688 10,0 C10,-2.79688 7.70313,-5 5,-5 C2.20313,-5 0,-2.79688 0,0"/>
<path class="BarLine" transform="matrix(0.793701,0,0,0.793701,2201,1543.46)" d="M0,0 C0,2.79688 2.20313,5 5,5 C7.70313,5 10,2.79688 10,0 C10,-2.79688 7.70313,-5 5,-5 C2.20313,-5 0,-2.79688 0,0"/>
<polyline class="BarLine" fill="none" stroke="#000000" stroke-width="3.17" stroke-linejoin="bevel" points="2212.71,1492.57 2212.71,1574.52"/>
<polyline class="BarLine" fill="none" stroke="#000000" stroke-width="9.92" stroke-linejoin="bevel" points="2227.19,1492.57 2227.19,1574.52"/>
<polyline class="BarLine" fill="none" stroke="#000000" stroke-width="3.17" stroke-linejoin="bevel" points="104.438,1165.17 104.438,1493.86"/>
<polyline class="BarLine" fill="none" stroke="#000000" stroke-width="3.17" stroke-linejoin="bevel" points="1040.36,1165.17 1040.36,1247.12"/>
<polyline class="BarLine" fill="none" stroke="#000000" stroke-width="3.17" stroke-linejoin="bevel" points="1758.96,1165.17 1758.96,1247.12"/>
<path class="BarLine" transform="matrix(0.793701,0,0,0.793701,2201,1196.22)" d="M0,0 C0,2.79688 2.20313,5 5,5 C7.70313,5 10,2.79688 10,0 C10,-2.79688 7.70313,-5 5,-5 C2.20313,-5 0,-2.79688 0,0"/>
<path class="BarLine" transform="matrix(0.793701,0,0,0.793701,2201,1216.06)" d="M0,0 C0,2.79688 2.20313,5 5,5 C7.70313,5 10,2.79688 10,0 C10,-2.79688 7.70313,-5 5,-5 C2.20313,-5 0,-2.79688 0,0"/>
<polyline class="BarLine" fill="none" stroke="#000000" stroke-width="3.17" stroke-linejoin="bevel" points="2212.71,1165.17 2212.71,1247.12"/>
<polyline class="BarLine" fill="none" stroke="#000000" stroke-width="9.92" stroke-linejoin="bevel" points="2227.19,1165.17 2227.19,1247.12"/>
<polyline class="BarLine" fill="none" stroke="#000000" stroke-width="3.17" stroke-linejoin="bevel" points="104.438,956.821 104.438,1166.46"/>
<polyline class="BarLine" fill="none" stroke="#000000" stroke-width="3.17" stroke-linejoin="bevel" points="1040.36,956.821 1040.36,1038.77"/>
<polyline class="BarLine" fill="none" stroke="#000000" stroke-width="3.17" stroke-linejoin="bevel" points="1758.96,956.821 1758.96,1038.77"/>
<path class="BarLine" transform="matrix(0.793701,0,0,0.793701,2201,987.874)" d="M0,0 C0,2.79688 2.20313,5 5,5 C7.70313,5 10,2.79688 10,0 C10,-2.79688 7.70313,-5 5,-5 C2.20313,-5 0,-2.79688 0,0"/>
<path class="BarLine" transform="matrix(0.793701,0,0,0.793701,2201,1007.72)" d="M0,0 C0,2.79688 2.20313,5 5,5 C7.70313,5 10,2.79688 10,0 C10,-2.79688 7.70313,-5 5,-5 C2.20313,-5 0,-2.79688 0,0"/>
<polyline class="BarLine" fill="none" stroke="#000000" stroke-width="3.17" stroke-linejoin="bevel" points="2212.71,956.821 2212.71,1038.77"/>
<polyline class="BarLine" fill="none" stroke="#000000" stroke-width="9.92" stroke-linejoin="bevel" points="2227.19,956.821 2227.19,1038.77"/>
<polyline class="BarLine" fill="none" stroke="#000000" stroke-width="3.17" stroke-linejoin="bevel" points="104.438,629.419 104.438,958.11"/>
<polyline class="BarLine" fill="none" stroke="#000000" stroke-width="3.17" stroke-linejoin="bevel" points="1040.36,629.419 1040.36,711.369"/>
<polyline class="BarLine" fill="none" stroke="#000000" stroke-width="3.17" stroke-linejoin="bevel" points="1758.96,629.419 1758.96,711.369"/>
<path class="BarLine" transform="matrix(0.793701,0,0,0.793701,2201,660.473)" d="M0,0 C0,2.79688 2.20313,5 5,5 C7.70313,5 10,2.79688 10,0 C10,-2.79688 7.70313,-5 5,-5 C2.20313,-5 0,-2.79688 0,0"/>
<path class="BarLine" transform="matrix(0.793701,0,0,0.793701,2201,680.315)" d="M0,0 C0,2.79688 2.20313,5 5,5 C7.70313,5 10,2.79688 10,0 C10,-2.79688 7.70313,-5 5,-5 C2.20313,-5 0,-2.79688 0,0"/>
<polyline class="BarLine" fill="none" stroke="#000000" stroke-width="3.17" stroke-linejoin="bevel" points="2212.71,629.419 2212.71,711.369"/>
<polyline class="BarLine" fill="none" stroke="#000000" stroke-width="9.92" stroke-linejoin="bevel" points="2227.19,629.419 2227.19,711.369"/>
<polyline class="BarLine" fill="none" stroke="#000000" stroke-width="3.17" stroke-linejoin="bevel" points="104.438,421.073 104.438,630.709"/>
<polyline class="BarLine" fill="none" stroke="#000000" stroke-width="3.17" stroke-linejoin="bevel" points="1040.36,421.073 1040.36,503.022"/>
<polyline class="BarLine" fill="none" stroke="#000000" stroke-width="3.17" stroke-linejoin="bevel" points="1758.96,421.073 1758.96,503.022"/>
<path class="BarLine" transform="matrix(0.793701,0,0,0.793701,2201,452.126)" d="M0,0 C0,2.79688 2.20313,5 5,5 C7.70313,5 10,2.79688 10,0 C10,-2.79688 7.70313,-5 5,-5 C2.20313,-5 0,-2.79688 0,0"/>
<path class="BarLine" transform="matrix(0.793701,0,0,0.793701,2201,471.969)" d="M0,0 C0,2.79688 2.20313,5 5,5 C7.70313,5 10,2.79688 10,0 C10,-2.79688 7.70313,-5 5,-5 C2.20313,-5 0,-2.79688 0,0"/>
<polyline class="BarLine" fill="none" stroke="#000000" stroke-width="3.17" stroke-linejoin="bevel" points="2212.71,421.073 2212.71,503.022"/>
<polyline class="BarLine" fill="none" stroke="#000000" stroke-width="9.92" stroke-linejoin="bevel" points="2227.19,421.073 2227.19,503.022"/>
<path class="Accidental" transform="matrix(0.793701,0,0,0.793701,902.864,422.362)" d="M0.796875,-2.59375 C1.20313,-2.59375 3.09375,-3.5 3.40625,-3.70313 C3.5,-3.70313 3.59375,-3.79688 3.70313,-3.79688 C4.40625,-3.79688 5,-2.79688 5,-2 L5,7.90625 C5,9 4.5,9.90625 3.90625,10.2031 C3.29688,10.4063 1.20313,11.2969 1.20313,11.2969 C0.5,11.5 0,12.2969 0,12.9063 L0,20 C0,20.5938 0.296875,20.9063 0.796875,20.9063 C0.90625,20.9063 1.09375,20.7969 1.20313,20.7969 C1.20313,20.7969 2.59375,20.2031 3.5,19.9063 C3.59375,19.7969 3.70313,19.7969 3.79688,19.7969 C4.5,19.7969 5,20.9063 5,21.4063 L5,33.7031 C5,34.2969 5.59375,34.7969 6.29688,34.7969 C7.29688,34.7969 8,34.2969 8,33.7031 L8,19.7969 C8,18.5 8.5,17.7969 9,17.5938 L15.0938,15.0938 C15.2031,15.0938 15.4063,15 15.5,15 C16.2969,15 16.7969,16.2031 16.7969,16.7969 L16.7969,29.2969 C16.7969,29.9063 17.4063,30.4063 18.0938,30.4063 C19.2031,30.4063 19.7969,29.9063 19.7969,29.2969 L19.7969,15.0938 C19.7969,14.2969 20.2031,13.0938 20.9063,12.7969 C21.5938,12.5 23.7031,11.7031 23.7031,11.7031 C24.4063,11.4063 24.9063,10.5938 24.9063,10 L24.9063,2.90625 C24.9063,2.40625 24.5938,2.09375 24.2031,2.09375 C24,2.09375 23.9063,2.09375 23.7031,2.20313 L21.0938,3.20313 C20.5,3.20313 19.7969,2.59375 19.7969,1.40625 L19.7969,-7.90625 C19.7969,-8.59375 20.2969,-10.5 21.0938,-10.7969 L23.7031,-11.7969 C24.4063,-12.0938 24.9063,-12.9063 24.9063,-13.5 L24.9063,-20.5938 C24.9063,-21.0938 24.5938,-21.4063 24.2031,-21.4063 C24,-21.4063 23.9063,-21.4063 23.7031,-21.2969 C23.7031,-21.2969 21.7031,-20.5 21.2031,-20.4063 C20.5,-20.4063 19.7969,-20.9063 19.7969,-21.7031 L19.7969,-33.9063 C19.7969,-34.5 19.2031,-35 18.4063,-35 C17.4063,-35 16.7969,-34.5 16.7969,-33.9063 L16.7969,-20.9063 C16.7031,-19.9063 16.4063,-18.5938 15.5,-18 C14.2969,-17.2969 10.9063,-15.9063 9.20313,-15.5 C8.29688,-15.5 8,-16.7031 8,-17.5 L8,-29.5 C8,-30.1094 7.29688,-30.6094 6.59375,-30.6094 C5.59375,-30.6094 5,-30.1094 5,-29.5 L5,-16 C5,-14.5938 4.40625,-13.5938 3.79688,-13.2969 C3.20313,-13 1.20313,-12.2031 1.20313,-12.2031 C0.5,-12 0,-11.2031 0,-10.5938 L0,-3.5 C0,-2.90625 0.296875,-2.59375 0.796875,-2.59375 M7.70313,3 C7.70313,-0.09375 7.79688,-3.59375 8,-4.40625 C8.20313,-6.09375 12.7969,-8.20313 15.2969,-8.20313 C16,-8.20313 16.5938,-8 16.7969,-7.59375 C17,-7.09375 17.2031,-4.59375 17.2031,-1.90625 C17.2031,0.796875 17,3.59375 16.7969,4.5 C16.2031,6.5 11.5,8.5 9.20313,8.5 C8.59375,8.5 8.09375,8.29688 8,8 C7.79688,7.59375 7.70313,5.40625 7.70313,3"/>
<path class="Accidental" transform="matrix(0.793701,0,0,0.793701,1640.36,491.811)" d="M0.796875,-2.59375 C1.20313,-2.59375 3.09375,-3.5 3.40625,-3.70313 C3.5,-3.70313 3.59375,-3.79688 3.70313,-3.79688 C4.40625,-3.79688 5,-2.79688 5,-2 L5,7.90625 C5,9 4.5,9.90625 3.90625,10.2031 C3.29688,10.4063 1.20313,11.2969 1.20313,11.2969 C0.5,11.5 0,12.2969 0,12.9063 L0,20 C0,20.5938 0.296875,20.9063 0.796875,20.9063 C0.90625,20.9063 1.09375,20.7969 1.20313,20.7969 C1.20313,20.7969 2.59375,20.2031 3.5,19.9063 C3.59375,19.7969 3.70313,19.7969 3.79688,19.7969 C4.5,19.7969 5,20.9063 5,21.4063 L5,33.7031 C5,34.2969 5.59375,34.7969 6.29688,34.7969 C7.29688,34.7969 8,34.2969 8,33.7031 L8,19.7969 C8,18.5 8.5,17.7969 9,17.5938 L15.0938,15.0938 C15.2031,15.0938 15.4063,15 15.5,15 C16.2969,15 16.7969,16.2031 16.7969,16.7969 L16.7969,29.2969 C16.7969,29.9063 17.4063,30.4063 18.0938,30.4063 C19.2031,30.4063 19.7969,29.9063 19.7969,29.2969 L19.7969,15.0938 C19.7969,14.2969 20.2031,13.0938 20.9063,12.7969 C21.5938,12.5 23.7031,11.7031 23.7031,11.7031 C24.4063,11.4063 24.9063,10.5938 24.9063,10 L24.9063,2.90625 C24.9063,2.40625 24.5938,2.09375 24.2031,2.09375 C24,2.09375 23.9063,2.09375 23.7031,2.20313 L21.0938,3.20313 C20.5,3.20313 19.7969,2.59375 19.7969,1.40625 L19.7969,-7.90625 C19.7969,-8.59375 20.2969,-10.5 21.0938,-10.7969 L23.7031,-11.7969 C24.4063,-12.0938 24.9063,-12.9063 24.9063,-13.5 L24.9063,-20.5938 C24.9063,-21.0938 24.5938,-21.4063 24.2031,-21.4063 C24,-21.4063 23.9063,-21.4063 23.7031,-21.2969 C23.7031,-21.2969 21.7031,-20.5 21.2031,-20.4063 C20.5,-20.4063 19.7969,-20.9063 19.7969,-21.7031 L19.7969,-33.9063 C19.7969,-34.5 19.2031,-35 18.4063,-35 C17.4063,-35 16.7969,-34.5 16.7969,-33.9063 L16.7969,-20.9063 C16.7031,-19.9063 16.4063,-18.5938 15.5,-18 C14.2969,-17.2969 10.9063,-15.9063 9.20313,-15.5 C8.29688,-15.5 8,-16.7031 8,-17.5 L8,-29.5 C8,-30.1094 7.29688,-30.6094 6.59375,-30.6094 C5.59375,-30.6094 5,-30.1094 5,-29.5 L5,-16 C5,-14.5938 4.40625,-13.5938 3.79688,-13.2969 C3.20313,-13 1.20313,-12.2031 1.20313,-12.2031 C0.5,-12 0,-11.2031 0,-10.5938 L0,-3.5 C0,-2.90625 0.296875,-2.59375 0.796875,-2.59375 M7.70313,3 C7.70313,-0.09375 7.79688,-3.59375 8,-4.40625 C8.20313,-6.09375 12.7969,-8.20313 15.2969,-8.20313 C16,-8.20313 16.5938,-8 16.7969,-7.59375 C17,-7.09375 17.2031,-4.59375 17.2031,-1.90625 C17.2031,0.796875 17,3.59375 16.7969,4.5 C16.2031,6.5 11.5,8.5 9.20313,8.5 C8.59375,8.5 8.09375,8.29688 8,8 C7.79688,7.59375 7.70313,5.40625 7.70313,3"/>
<polyline class="LedgerLine" fill="none" stroke="#000000" stroke-width="3.17" stroke-linejoin="bevel" points="224.758,1285.51 277.061,1285.51"/>
<polyline class="LedgerLine" fill="none" stroke="#000000" stroke-width="3.17" stroke-linejoin="bevel" points="224.758,1265.67 277.061,1265.67"/>
<polyline class="LedgerLine" fill="none" stroke="#000000" stroke-width="3.17" stroke-linejoin="bevel" points="1550.54,610.866 1592.53,610.866"/>
<polyline class="LedgerLine" fill="none" stroke="#000000" stroke-width="3.17" stroke-linejoin="bevel" points="520.56,402.52 562.546,402.52"/>
<polyline class="LedgerLine" fill="none" stroke="#000000" stroke-width="3.17" stroke-linejoin="bevel" points="576.453,402.52 618.439,402.52"/>
<polyline class="LedgerLine" fill="none" stroke="#000000" stroke-width="3.17" stroke-linejoin="bevel" points="576.453,382.677 618.439,382.677"/>
<polyline class="LedgerLine" fill="none" stroke="#000000" stroke-width="3.17" stroke-linejoin="bevel" points="632.346,402.52 674.331,402.52"/>
<polyline class="LedgerLine" fill="none" stroke="#000000" stroke-width="3.17" stroke-linejoin="bevel" points="744.132,402.52 786.117,402.52"/>
<polyline class="LedgerLine" fill="none" stroke="#000000" stroke-width="3.17" stroke-linejoin="bevel" points="800.025,402.52 842.01,402.52"/>
<polyline class="LedgerLine" fill="none" stroke="#000000" stroke-width="3.17" stroke-linejoin="bevel" points="800.025,382.677 842.01,382.677"/>
<polyline class="LedgerLine" fill="none" stroke="#000000" stroke-width="3.17" stroke-linejoin="bevel" points="855.918,402.52 897.903,402.52"/>
<polyline class="LedgerLine" fill="none" stroke="#000000" stroke-width="3.17" stroke-linejoin="bevel" points="974.947,402.52 1016.93,402.52"/>
<polyline class="LedgerLine" fill="none" stroke="#000000" stroke-width="3.17" stroke-linejoin="bevel" points="1877.61,402.52 1919.59,402.52"/>
<polyline class="Stem" fill="none" stroke="#000000" stroke-width="2.38" stroke-linejoin="bevel" points="262.775,945.522 262.775,861.915"/>
<polyline class="Stem" fill="none" stroke="#000000" stroke-width="2.38" stroke-linejoin="bevel" points="262.775,687.57 262.775,608.386"/>
<polyline class="Stem" fill="none" stroke="#000000" stroke-width="2.38" stroke-linejoin="bevel" points="832.883,717.333 832.883,600.945"/>
<polyline class="Stem" fill="none" stroke="#000000" stroke-width="2.38" stroke-linejoin="bevel" points="1086.72,687.57 1086.72,608.386"/>
<polyline class="Stem" fill="none" stroke="#000000" stroke-width="2.38" stroke-linejoin="bevel" points="1559.67,613.533 1559.67,732.402"/>
<polyline class="Stem" fill="none" stroke="#000000" stroke-width="2.38" stroke-linejoin="bevel" points="1781.58,623.454 1781.58,710.079"/>
<polyline class="Stem" fill="none" stroke="#000000" stroke-width="2.38" stroke-linejoin="bevel" points="1910.46,707.412 1910.46,586.063"/>
<polyline class="Stem" fill="none" stroke="#000000" stroke-width="2.38" stroke-linejoin="bevel" points="2015.62,707.412 2015.62,586.063"/>
<polyline class="Stem" fill="none" stroke="#000000" stroke-width="2.38" stroke-linejoin="bevel" points="239.044,415.108 239.044,481.89"/>
<polyline class="Stem" fill="none" stroke="#000000" stroke-width="2.38" stroke-linejoin="bevel" points="362.009,415.108 362.009,501.732"/>
<polyline class="Stem" fill="none" stroke="#000000" stroke-width="2.38" stroke-linejoin="bevel" points="417.902,444.872 417.902,501.732"/>
<polyline class="Stem" fill="none" stroke="#000000" stroke-width="2.38" stroke-linejoin="bevel" points="473.795,415.108 473.795,501.732"/>
<polyline class="Stem" fill="none" stroke="#000000" stroke-width="2.38" stroke-linejoin="bevel" points="529.688,395.265 529.688,501.732"/>
<polyline class="Stem" fill="none" stroke="#000000" stroke-width="2.38" stroke-linejoin="bevel" points="585.581,375.423 585.581,476.929"/>
<polyline class="Stem" fill="none" stroke="#000000" stroke-width="2.38" stroke-linejoin="bevel" points="641.474,395.265 641.474,476.929"/>
<polyline class="Stem" fill="none" stroke="#000000" stroke-width="2.38" stroke-linejoin="bevel" points="697.366,415.108 697.366,476.929"/>
<polyline class="Stem" fill="none" stroke="#000000" stroke-width="2.38" stroke-linejoin="bevel" points="753.259,395.265 753.259,476.929"/>
<polyline class="Stem" fill="none" stroke="#000000" stroke-width="2.38" stroke-linejoin="bevel" points="809.152,385.344 809.152,481.89"/>
<polyline class="Stem" fill="none" stroke="#000000" stroke-width="2.38" stroke-linejoin="bevel" points="865.045,405.187 865.045,481.89"/>
<polyline class="Stem" fill="none" stroke="#000000" stroke-width="2.38" stroke-linejoin="bevel" points="928.182,425.029 928.182,481.89"/>
<polyline class="Stem" fill="none" stroke="#000000" stroke-width="2.38" stroke-linejoin="bevel" points="984.075,405.187 984.075,481.89"/>
<polyline class="Stem" fill="none" stroke="#000000" stroke-width="2.38" stroke-linejoin="bevel" points="1062.98,415.108 1062.98,481.89"/>
<polyline class="Stem" fill="none" stroke="#000000" stroke-width="2.38" stroke-linejoin="bevel" points="1188.89,479.223 1188.89,422.362"/>
<polyline class="Stem" fill="none" stroke="#000000" stroke-width="2.38" stroke-linejoin="bevel" points="1235.33,508.987 1235.33,415.748"/>
<polyline class="Stem" fill="none" stroke="#000000" stroke-width="2.38" stroke-linejoin="bevel" points="1281.77,479.223 1281.77,409.134"/>
<polyline class="Stem" fill="none" stroke="#000000" stroke-width="2.38" stroke-linejoin="bevel" points="1328.21,459.381 1328.21,402.52"/>
<polyline class="Stem" fill="none" stroke="#000000" stroke-width="2.38" stroke-linejoin="bevel" points="1350.93,444.872 1350.93,541.417"/>
<polyline class="Stem" fill="none" stroke="#000000" stroke-width="2.38" stroke-linejoin="bevel" points="1397.37,464.714 1397.37,541.417"/>
<polyline class="Stem" fill="none" stroke="#000000" stroke-width="2.38" stroke-linejoin="bevel" points="1443.81,484.557 1443.81,541.417"/>
<polyline class="Stem" fill="none" stroke="#000000" stroke-width="2.38" stroke-linejoin="bevel" points="1490.25,464.714 1490.25,541.417"/>
<polyline class="Stem" fill="none" stroke="#000000" stroke-width="2.38" stroke-linejoin="bevel" points="1583.4,449.459 1583.4,387.638"/>
<polyline class="Stem" fill="none" stroke="#000000" stroke-width="2.38" stroke-linejoin="bevel" points="1629.84,469.302 1629.84,392.172"/>
<polyline class="Stem" fill="none" stroke="#000000" stroke-width="2.38" stroke-linejoin="bevel" points="1689.41,489.144 1689.41,397.986"/>
<polyline class="Stem" fill="none" stroke="#000000" stroke-width="2.38" stroke-linejoin="bevel" points="1735.85,469.302 1735.85,402.52"/>
<polyline class="Stem" fill="none" stroke="#000000" stroke-width="2.38" stroke-linejoin="bevel" points="1805.31,479.223 1805.31,414.921"/>
<polyline class="Stem" fill="none" stroke="#000000" stroke-width="2.38" stroke-linejoin="bevel" points="1886.73,395.265 1886.73,509.173"/>
<polyline class="Stem" fill="none" stroke="#000000" stroke-width="2.38" stroke-linejoin="bevel" points="1991.89,415.108 1991.89,524.055"/>
<path class="Note" transform="matrix(0.793701,0,0,0.793701,232.695,1295.43)" d="M0,-0.203125 C0,7.09375 6.20313,13.5938 22.4063,13.5938 C40.2031,13.5938 45.9063,7.40625 45.9063,-0.203125 C45.9063,-7.90625 33.6094,-13.7031 23.5,-13.7031 C9,-13.7031 0,-7.59375 0,-0.203125 M11.7031,-4.20313 C11.7031,-9.79688 15.5938,-11.2031 20.7031,-11.2031 C28.1094,-11.2031 34.1094,-3.20313 34.1094,3.40625 C34.1094,8.90625 30.7031,11.0938 25.7969,11.0938 C18.5938,11.0938 11.7031,2.79688 11.7031,-4.20313"/>
<path class="Note" transform="matrix(0.793701,0,0,0.793701,237.854,948.189)" d="M10.7969,14 C29.2031,14 32.9063,-1 32.9063,-4.59375 C32.9063,-10.2969 28.4063,-14 21.9063,-14 C5.20313,-14 0,-1.09375 0,4.70313 C0,10.5938 4.70313,14 10.7969,14 M3.29688,4.90625 C3.29688,-0.5 19.4063,-9.40625 24.7031,-9.40625 C26.7969,-9.40625 28,-8.40625 28.7969,-7 C29.1094,-6.40625 29.4063,-5.70313 29.4063,-4.90625 C29.4063,-2.70313 27.1094,0 19.2969,5.09375 C14.2969,8.5 10.7969,9.70313 8.40625,9.70313 C6.09375,9.70313 4.70313,8.5 4,7.09375 C3.59375,6.5 3.29688,5.70313 3.29688,4.90625"/>
<path class="Note" transform="matrix(0.793701,0,0,0.793701,237.854,690.236)" d="M0,4.70313 C0,10.5 4.79688,14 10.7969,14 C20.7031,14 32.9063,4.79688 32.9063,-4.70313 C32.9063,-10.2969 28.4063,-14 22,-14 C9.79688,-14 0,-4.90625 0,4.70313"/>
<path class="Note" transform="matrix(0.793701,0,0,0.793701,237.854,670.394)" d="M0,4.70313 C0,10.5 4.79688,14 10.7969,14 C20.7031,14 32.9063,4.79688 32.9063,-4.70313 C32.9063,-10.2969 28.4063,-14 22,-14 C9.79688,-14 0,-4.90625 0,4.70313"/>
<path class="Note" transform="matrix(0.793701,0,0,0.793701,807.962,720)" d="M0,4.70313 C0,10.5 4.79688,14 10.7969,14 C20.7031,14 32.9063,4.79688 32.9063,-4.70313 C32.9063,-10.2969 28.4063,-14 22,-14 C9.79688,-14 0,-4.90625 0,4.70313"/>
<path class="Note" transform="matrix(0.793701,0,0,0.793701,807.962,680.315)" d="M0,4.70313 C0,10.5 4.79688,14 10.7969,14 C20.7031,14 32.9063,4.79688 32.9063,-4.70313 C32.9063,-10.2969 28.4063,-14 22,-14 C9.79688,-14 0,-4.90625 0,4.70313"/>
<path class="Note" transform="matrix(0.793701,0,0,0.793701,807.962,660.473)" d="M0,4.70313 C0,10.5 4.79688,14 10.7969,14 C20.7031,14 32.9063,4.79688 32.9063,-4.70313 C32.9063,-10.2969 28.4063,-14 22,-14 C9.79688,-14 0,-4.90625 0,4.70313"/>
<path class="Note" transform="matrix(0.793701,0,0,0.793701,1061.79,690.236)" d="M0,4.70313 C0,10.5 4.79688,14 10.7969,14 C20.7031,14 32.9063,4.79688 32.9063,-4.70313 C32.9063,-10.2969 28.4063,-14 22,-14 C9.79688,-14 0,-4.90625 0,4.70313"/>
<path class="Note" transform="matrix(0.793701,0,0,0.793701,1061.79,670.394)" d="M0,4.70313 C0,10.5 4.79688,14 10.7969,14 C20.7031,14 32.9063,4.79688 32.9063,-4.70313 C32.9063,-10.2969 28.4063,-14 22,-14 C9.79688,-14 0,-4.90625 0,4.70313"/>
<path class="Note" transform="matrix(0.793701,0,0,0.793701,1558.48,670.394)" d="M0,4.70313 C0,10.5 4.79688,14 10.7969,14 C20.7031,14 32.9063,4.79688 32.9063,-4.70313 C32.9063,-10.2969 28.4063,-14 22,-14 C9.79688,-14 0,-4.90625 0,4.70313"/>
<path class="Note" transform="matrix(0.793701,0,0,0.793701,1558.48,630.709)" d="M0,4.70313 C0,10.5 4.79688,14 10.7969,14 C20.7031,14 32.9063,4.79688 32.9063,-4.70313 C32.9063,-10.2969 28.4063,-14 22,-14 C9.79688,-14 0,-4.90625 0,4.70313"/>
<path class="Note" transform="matrix(0.793701,0,0,0.793701,1558.48,610.866)" d="M0,4.70313 C0,10.5 4.79688,14 10.7969,14 C20.7031,14 32.9063,4.79688 32.9063,-4.70313 C32.9063,-10.2969 28.4063,-14 22,-14 C9.79688,-14 0,-4.90625 0,4.70313"/>
<path class="Note" transform="matrix(0.793701,0,0,0.793701,1780.39,640.63)" d="M0,4.70313 C0,10.5 4.79688,14 10.7969,14 C20.7031,14 32.9063,4.79688 32.9063,-4.70313 C32.9063,-10.2969 28.4063,-14 22,-14 C9.79688,-14 0,-4.90625 0,4.70313"/>
<path class="Note" transform="matrix(0.793701,0,0,0.793701,1780.39,620.788)" d="M0,4.70313 C0,10.5 4.79688,14 10.7969,14 C20.7031,14 32.9063,4.79688 32.9063,-4.70313 C32.9063,-10.2969 28.4063,-14 22,-14 C9.79688,-14 0,-4.90625 0,4.70313"/>
<path class="Note" transform="matrix(0.793701,0,0,0.793701,1885.54,710.079)" d="M0,4.70313 C0,10.5 4.79688,14 10.7969,14 C20.7031,14 32.9063,4.79688 32.9063,-4.70313 C32.9063,-10.2969 28.4063,-14 22,-14 C9.79688,-14 0,-4.90625 0,4.70313"/>
<path class="Note" transform="matrix(0.793701,0,0,0.793701,1885.54,640.63)" d="M0,4.70313 C0,10.5 4.79688,14 10.7969,14 C20.7031,14 32.9063,4.79688 32.9063,-4.70313 C32.9063,-10.2969 28.4063,-14 22,-14 C9.79688,-14 0,-4.90625 0,4.70313"/>
<path class="Note" transform="matrix(0.793701,0,0,0.793701,1990.7,710.079)" d="M0,4.70313 C0,10.5 4.79688,14 10.7969,14 C20.7031,14 32.9063,4.79688 32.9063,-4.70313 C32.9063,-10.2969 28.4063,-14 22,-14 C9.79688,-14 0,-4.90625 0,4.70313"/>
<path class="Note" transform="matrix(0.793701,0,0,0.793701,1990.7,640.63)" d="M0,4.70313 C0,10.5 4.79688,14 10.7969,14 C20.7031,14 32.9063,4.79688 32.9063,-4.70313 C32.9063,-10.2969 28.4063,-14 22,-14 C9.79688,-14 0,-4.90625 0,4.70313"/>
<path class="Note" transform="matrix(0.793701,0,0,0.793701,237.854,412.441)" d="M0,4.70313 C0,10.5 4.79688,14 10.7969,14 C20.7031,14 32.9063,4.79688 32.9063,-4.70313 C32.9063,-10.2969 28.4063,-14 22,-14 C9.79688,-14 0,-4.90625 0,4.70313"/>
<path class="Note" transform="matrix(0.793701,0,0,0.793701,360.818,412.441)" d="M0,4.70313 C0,10.5 4.79688,14 10.7969,14 C20.7031,14 32.9063,4.79688 32.9063,-4.70313 C32.9063,-10.2969 28.4063,-14 22,-14 C9.79688,-14 0,-4.90625 0,4.70313"/>
<path class="Note" transform="matrix(0.793701,0,0,0.793701,416.711,442.205)" d="M0,4.70313 C0,10.5 4.79688,14 10.7969,14 C20.7031,14 32.9063,4.79688 32.9063,-4.70313 C32.9063,-10.2969 28.4063,-14 22,-14 C9.79688,-14 0,-4.90625 0,4.70313"/>
<path class="Note" transform="matrix(0.793701,0,0,0.793701,472.604,412.441)" d="M0,4.70313 C0,10.5 4.79688,14 10.7969,14 C20.7031,14 32.9063,4.79688 32.9063,-4.70313 C32.9063,-10.2969 28.4063,-14 22,-14 C9.79688,-14 0,-4.90625 0,4.70313"/>
<path class="Note" transform="matrix(0.793701,0,0,0.793701,528.497,392.599)" d="M0,4.70313 C0,10.5 4.79688,14 10.7969,14 C20.7031,14 32.9063,4.79688 32.9063,-4.70313 C32.9063,-10.2969 28.4063,-14 22,-14 C9.79688,-14 0,-4.90625 0,4.70313"/>
<path class="Note" transform="matrix(0.793701,0,0,0.793701,584.39,372.756)" d="M0,4.70313 C0,10.5 4.79688,14 10.7969,14 C20.7031,14 32.9063,4.79688 32.9063,-4.70313 C32.9063,-10.2969 28.4063,-14 22,-14 C9.79688,-14 0,-4.90625 0,4.70313"/>
<path class="Note" transform="matrix(0.793701,0,0,0.793701,640.283,392.599)" d="M0,4.70313 C0,10.5 4.79688,14 10.7969,14 C20.7031,14 32.9063,4.79688 32.9063,-4.70313 C32.9063,-10.2969 28.4063,-14 22,-14 C9.79688,-14 0,-4.90625 0,4.70313"/>
<path class="Note" transform="matrix(0.793701,0,0,0.793701,696.176,412.441)" d="M0,4.70313 C0,10.5 4.79688,14 10.7969,14 C20.7031,14 32.9063,4.79688 32.9063,-4.70313 C32.9063,-10.2969 28.4063,-14 22,-14 C9.79688,-14 0,-4.90625 0,4.70313"/>
<path class="Note" transform="matrix(0.793701,0,0,0.793701,752.069,392.599)" d="M0,4.70313 C0,10.5 4.79688,14 10.7969,14 C20.7031,14 32.9063,4.79688 32.9063,-4.70313 C32.9063,-10.2969 28.4063,-14 22,-14 C9.79688,-14 0,-4.90625 0,4.70313"/>
<path class="Note" transform="matrix(0.793701,0,0,0.793701,807.962,382.677)" d="M0,4.70313 C0,10.5 4.79688,14 10.7969,14 C20.7031,14 32.9063,4.79688 32.9063,-4.70313 C32.9063,-10.2969 28.4063,-14 22,-14 C9.79688,-14 0,-4.90625 0,4.70313"/>
<path class="Note" transform="matrix(0.793701,0,0,0.793701,863.855,402.52)" d="M0,4.70313 C0,10.5 4.79688,14 10.7969,14 C20.7031,14 32.9063,4.79688 32.9063,-4.70313 C32.9063,-10.2969 28.4063,-14 22,-14 C9.79688,-14 0,-4.90625 0,4.70313"/>
<path class="Note" transform="matrix(0.793701,0,0,0.793701,926.991,422.362)" d="M0,4.70313 C0,10.5 4.79688,14 10.7969,14 C20.7031,14 32.9063,4.79688 32.9063,-4.70313 C32.9063,-10.2969 28.4063,-14 22,-14 C9.79688,-14 0,-4.90625 0,4.70313"/>
<path class="Note" transform="matrix(0.793701,0,0,0.793701,982.884,402.52)" d="M0,4.70313 C0,10.5 4.79688,14 10.7969,14 C20.7031,14 32.9063,4.79688 32.9063,-4.70313 C32.9063,-10.2969 28.4063,-14 22,-14 C9.79688,-14 0,-4.90625 0,4.70313"/>
<path class="Note" transform="matrix(0.793701,0,0,0.793701,1061.79,412.441)" d="M0,4.70313 C0,10.5 4.79688,14 10.7969,14 C20.7031,14 32.9063,4.79688 32.9063,-4.70313 C32.9063,-10.2969 28.4063,-14 22,-14 C9.79688,-14 0,-4.90625 0,4.70313"/>
<path class="Note" transform="matrix(0.793701,0,0,0.793701,1163.97,481.89)" d="M0,4.70313 C0,10.5 4.79688,14 10.7969,14 C20.7031,14 32.9063,4.79688 32.9063,-4.70313 C32.9063,-10.2969 28.4063,-14 22,-14 C9.79688,-14 0,-4.90625 0,4.70313"/>
<path class="Note" transform="matrix(0.793701,0,0,0.793701,1210.41,511.654)" d="M0,4.70313 C0,10.5 4.79688,14 10.7969,14 C20.7031,14 32.9063,4.79688 32.9063,-4.70313 C32.9063,-10.2969 28.4063,-14 22,-14 C9.79688,-14 0,-4.90625 0,4.70313"/>
<path class="Note" transform="matrix(0.793701,0,0,0.793701,1256.85,481.89)" d="M0,4.70313 C0,10.5 4.79688,14 10.7969,14 C20.7031,14 32.9063,4.79688 32.9063,-4.70313 C32.9063,-10.2969 28.4063,-14 22,-14 C9.79688,-14 0,-4.90625 0,4.70313"/>
<path class="Note" transform="matrix(0.793701,0,0,0.793701,1303.29,462.047)" d="M0,4.70313 C0,10.5 4.79688,14 10.7969,14 C20.7031,14 32.9063,4.79688 32.9063,-4.70313 C32.9063,-10.2969 28.4063,-14 22,-14 C9.79688,-14 0,-4.90625 0,4.70313"/>
<path class="Note" transform="matrix(0.793701,0,0,0.793701,1349.74,442.205)" d="M0,4.70313 C0,10.5 4.79688,14 10.7969,14 C20.7031,14 32.9063,4.79688 32.9063,-4.70313 C32.9063,-10.2969 28.4063,-14 22,-14 C9.79688,-14 0,-4.90625 0,4.70313"/>
<path class="Note" transform="matrix(0.793701,0,0,0.793701,1396.18,462.047)" d="M0,4.70313 C0,10.5 4.79688,14 10.7969,14 C20.7031,14 32.9063,4.79688 32.9063,-4.70313 C32.9063,-10.2969 28.4063,-14 22,-14 C9.79688,-14 0,-4.90625 0,4.70313"/>
<path class="Note" transform="matrix(0.793701,0,0,0.793701,1442.62,481.89)" d="M0,4.70313 C0,10.5 4.79688,14 10.7969,14 C20.7031,14 32.9063,4.79688 32.9063,-4.70313 C32.9063,-10.2969 28.4063,-14 22,-14 C9.79688,-14 0,-4.90625 0,4.70313"/>
<path class="Note" transform="matrix(0.793701,0,0,0.793701,1489.06,462.047)" d="M0,4.70313 C0,10.5 4.79688,14 10.7969,14 C20.7031,14 32.9063,4.79688 32.9063,-4.70313 C32.9063,-10.2969 28.4063,-14 22,-14 C9.79688,-14 0,-4.90625 0,4.70313"/>
<path class="Note" transform="matrix(0.793701,0,0,0.793701,1558.48,452.126)" d="M0,4.70313 C0,10.5 4.79688,14 10.7969,14 C20.7031,14 32.9063,4.79688 32.9063,-4.70313 C32.9063,-10.2969 28.4063,-14 22,-14 C9.79688,-14 0,-4.90625 0,4.70313"/>
<path class="Note" transform="matrix(0.793701,0,0,0.793701,1604.92,471.969)" d="M0,4.70313 C0,10.5 4.79688,14 10.7969,14 C20.7031,14 32.9063,4.79688 32.9063,-4.70313 C32.9063,-10.2969 28.4063,-14 22,-14 C9.79688,-14 0,-4.90625 0,4.70313"/>
<path class="Note" transform="matrix(0.793701,0,0,0.793701,1664.49,491.811)" d="M0,4.70313 C0,10.5 4.79688,14 10.7969,14 C20.7031,14 32.9063,4.79688 32.9063,-4.70313 C32.9063,-10.2969 28.4063,-14 22,-14 C9.79688,-14 0,-4.90625 0,4.70313"/>
<path class="Note" transform="matrix(0.793701,0,0,0.793701,1710.93,471.969)" d="M0,4.70313 C0,10.5 4.79688,14 10.7969,14 C20.7031,14 32.9063,4.79688 32.9063,-4.70313 C32.9063,-10.2969 28.4063,-14 22,-14 C9.79688,-14 0,-4.90625 0,4.70313"/>
<path class="Note" transform="matrix(0.793701,0,0,0.793701,1780.39,481.89)" d="M0,4.70313 C0,10.5 4.79688,14 10.7969,14 C20.7031,14 32.9063,4.79688 32.9063,-4.70313 C32.9063,-10.2969 28.4063,-14 22,-14 C9.79688,-14 0,-4.90625 0,4.70313"/>
<path class="Note" transform="matrix(0.793701,0,0,0.793701,1885.54,442.205)" d="M0,4.70313 C0,10.5 4.79688,14 10.7969,14 C20.7031,14 32.9063,4.79688 32.9063,-4.70313 C32.9063,-10.2969 28.4063,-14 22,-14 C9.79688,-14 0,-4.90625 0,4.70313"/>
<path class="Note" transform="matrix(0.793701,0,0,0.793701,1885.54,392.599)" d="M0,4.70313 C0,10.5 4.79688,14 10.7969,14 C20.7031,14 32.9063,4.79688 32.9063,-4.70313 C32.9063,-10.2969 28.4063,-14 22,-14 C9.79688,-14 0,-4.90625 0,4.70313"/>
<path class="Note" transform="matrix(0.793701,0,0,0.793701,1990.7,462.047)" d="M0,4.70313 C0,10.5 4.79688,14 10.7969,14 C20.7031,14 32.9063,4.79688 32.9063,-4.70313 C32.9063,-10.2969 28.4063,-14 22,-14 C9.79688,-14 0,-4.90625 0,4.70313"/>
<path class="Note" transform="matrix(0.793701,0,0,0.793701,1990.7,412.441)" d="M0,4.70313 C0,10.5 4.79688,14 10.7969,14 C20.7031,14 32.9063,4.79688 32.9063,-4.70313 C32.9063,-10.2969 28.4063,-14 22,-14 C9.79688,-14 0,-4.90625 0,4.70313"/>
<path class="Clef" transform="matrix(0.793701,0,0,0.793701,121.899,1553.39)" d="M36.4063,25.2031 C38.7031,25.2031 41.2969,25 43.2969,24.5938 C44.4063,24.4063 44.6094,24.2969 44.7969,25.5 C46,32.2031 47.5,40.9063 47.5,45.6094 C47.5,60.4063 37.5,62.2031 31.6094,62.2031 C26.2031,62.2031 23.5938,60.6094 23.5938,59.2969 C23.5938,58.6094 24.5,58.2969 26.7969,57.6094 C29.9063,56.7031 33.5,54 33.5,48.2031 C33.5,42.7031 30,38 23.9063,38 C17.2031,38 13.2031,43.2969 13.2031,49.5 C13.2031,56 17.0938,65.7969 32.2031,65.7969 C38.9063,65.7969 51.9063,62.7969 51.9063,45.7969 C51.9063,40.1094 50.1094,30.6094 49,24.4063 C48.7969,23.2031 48.9063,23.2969 50.2969,22.7031 C60.4063,18.7031 67.1094,10.2031 67.1094,-1.09375 C67.1094,-13.9063 57.7031,-25.2031 43,-25.2031 C40.4063,-25.2031 40.4063,-25.2031 40.1094,-27 L37.6094,-41.5 C37.4063,-42.7031 37.6094,-42.7969 38.2031,-43.4063 C49,-53.5 57.2031,-66.2031 57.2031,-81.5 C57.2031,-90.2031 54.7969,-98.8125 50.7031,-104.813 C49.2031,-107 46.6094,-109.813 45.5,-109.813 C44.1094,-109.813 41,-107.203 39,-105 C31.6094,-96.8125 29.2031,-84.3125 29.2031,-73.9063 C29.2031,-68.1094 29.9063,-61.6094 30.6094,-57.5 C30.7969,-56.2969 30.9063,-56.1094 29.7031,-55.1094 C15.2969,-43.2031 0,-28.9063 0,-8.70313 C0,8.70313 11.9063,25.2031 36.4063,25.2031 M8,-2 C8,-7.90625 9,-15.7969 17.2969,-25.2031 C23.2969,-31.9063 27.9063,-35.6094 32.6094,-39.4063 C33.6094,-40.2031 33.7969,-40.1094 34,-39 L36.1094,-26.2031 C36.4063,-24.2969 36.4063,-24.4063 34.6094,-23.7969 C25.7969,-20.7969 20.0938,-12.9063 20.0938,-4.40625 C20.0938,4.59375 24.7969,11 31.6094,13.2969 C32.4063,13.5938 33.6094,13.9063 34.2969,13.9063 C35.1094,13.9063 35.5,13.4063 35.5,12.7969 C35.5,12.0938 34.7031,11.7969 34,11.5 C29.7969,9.70313 26.7969,5.40625 26.7969,0.796875 C26.7969,-4.90625 30.7031,-9.20313 36.7969,-10.9063 C38.4063,-11.2969 38.6094,-11.2031 38.7969,-10.0938 L43.7969,19.7031 C44,20.7969 43.9063,20.7969 42.4063,21.0938 C40.7969,21.4063 38.7969,21.5938 36.7969,21.5938 C19.2969,21.5938 8,11.9063 8,-2 M47,-94.3125 C50.2969,-94.3125 53,-91.6094 53,-86.1094 C53,-75 43.5,-66 35.6094,-59.1094 C34.9063,-58.5 34.5,-58.6094 34.2969,-59.9063 C33.9063,-62.5 33.7031,-65.9063 33.7031,-69.1094 C33.7031,-84.7031 40.9063,-94.3125 47,-94.3125 M44.1094,-11.7031 C52.2031,-11 58.9063,-4.20313 58.9063,4.59375 C58.9063,10.9063 55.1094,16 49.5,18.7969 C48.2969,19.4063 48.1094,19.4063 47.9063,18.2031 L43,-10.2969 C42.7969,-11.5 42.9063,-11.7969 44.1094,-11.7031"/>
<path class="Clef" transform="matrix(0.793701,0,0,0.793701,121.899,1225.98)" d="M36.4063,25.2031 C38.7031,25.2031 41.2969,25 43.2969,24.5938 C44.4063,24.4063 44.6094,24.2969 44.7969,25.5 C46,32.2031 47.5,40.9063 47.5,45.6094 C47.5,60.4063 37.5,62.2031 31.6094,62.2031 C26.2031,62.2031 23.5938,60.6094 23.5938,59.2969 C23.5938,58.6094 24.5,58.2969 26.7969,57.6094 C29.9063,56.7031 33.5,54 33.5,48.2031 C33.5,42.7031 30,38 23.9063,38 C17.2031,38 13.2031,43.2969 13.2031,49.5 C13.2031,56 17.0938,65.7969 32.2031,65.7969 C38.9063,65.7969 51.9063,62.7969 51.9063,45.7969 C51.9063,40.1094 50.1094,30.6094 49,24.4063 C48.7969,23.2031 48.9063,23.2969 50.2969,22.7031 C60.4063,18.7031 67.1094,10.2031 67.1094,-1.09375 C67.1094,-13.9063 57.7031,-25.2031 43,-25.2031 C40.4063,-25.2031 40.4063,-25.2031 40.1094,-27 L37.6094,-41.5 C37.4063,-42.7031 37.6094,-42.7969 38.2031,-43.4063 C49,-53.5 57.2031,-66.2031 57.2031,-81.5 C57.2031,-90.2031 54.7969,-98.8125 50.7031,-104.813 C49.2031,-107 46.6094,-109.813 45.5,-109.813 C44.1094,-109.813 41,-107.203 39,-105 C31.6094,-96.8125 29.2031,-84.3125 29.2031,-73.9063 C29.2031,-68.1094 29.9063,-61.6094 30.6094,-57.5 C30.7969,-56.2969 30.9063,-56.1094 29.7031,-55.1094 C15.2969,-43.2031 0,-28.9063 0,-8.70313 C0,8.70313 11.9063,25.2031 36.4063,25.2031 M8,-2 C8,-7.90625 9,-15.7969 17.2969,-25.2031 C23.2969,-31.9063 27.9063,-35.6094 32.6094,-39.4063 C33.6094,-40.2031 33.7969,-40.1094 34,-39 L36.1094,-26.2031 C36.4063,-24.2969 36.4063,-24.4063 34.6094,-23.7969 C25.7969,-20.7969 20.0938,-12.9063 20.0938,-4.40625 C20.0938,4.59375 24.7969,11 31.6094,13.2969 C32.4063,13.5938 33.6094,13.9063 34.2969,13.9063 C35.1094,13.9063 35.5,13.4063 35.5,12.7969 C35.5,12.0938 34.7031,11.7969 34,11.5 C29.7969,9.70313 26.7969,5.40625 26.7969,0.796875 C26.7969,-4.90625 30.7031,-9.20313 36.7969,-10.9063 C38.4063,-11.2969 38.6094,-11.2031 38.7969,-10.0938 L43.7969,19.7031 C44,20.7969 43.9063,20.7969 42.4063,21.0938 C40.7969,21.4063 38.7969,21.5938 36.7969,21.5938 C19.2969,21.5938 8,11.9063 8,-2 M47,-94.3125 C50.2969,-94.3125 53,-91.6094 53,-86.1094 C53,-75 43.5,-66 35.6094,-59.1094 C34.9063,-58.5 34.5,-58.6094 34.2969,-59.9063 C33.9063,-62.5 33.7031,-65.9063 33.7031,-69.1094 C33.7031,-84.7031 40.9063,-94.3125 47,-94.3125 M44.1094,-11.7031 C52.2031,-11 58.9063,-4.20313 58.9063,4.59375 C58.9063,10.9063 55.1094,16 49.5,18.7969 C48.2969,19.4063 48.1094,19.4063 47.9063,18.2031 L43,-10.2969 C42.7969,-11.5 42.9063,-11.7969 44.1094,-11.7031"/>
<path class="Clef" transform="matrix(0.793701,0,0,0.793701,121.899,1017.64)" d="M36.4063,25.2031 C38.7031,25.2031 41.2969,25 43.2969,24.5938 C44.4063,24.4063 44.6094,24.2969 44.7969,25.5 C46,32.2031 47.5,40.9063 47.5,45.6094 C47.5,60.4063 37.5,62.2031 31.6094,62.2031 C26.2031,62.2031 23.5938,60.6094 23.5938,59.2969 C23.5938,58.6094 24.5,58.2969 26.7969,57.6094 C29.9063,56.7031 33.5,54 33.5,48.2031 C33.5,42.7031 30,38 23.9063,38 C17.2031,38 13.2031,43.2969 13.2031,49.5 C13.2031,56 17.0938,65.7969 32.2031,65.7969 C38.9063,65.7969 51.9063,62.7969 51.9063,45.7969 C51.9063,40.1094 50.1094,30.6094 49,24.4063 C48.7969,23.2031 48.9063,23.2969 50.2969,22.7031 C60.4063,18.7031 67.1094,10.2031 67.1094,-1.09375 C67.1094,-13.9063 57.7031,-25.2031 43,-25.2031 C40.4063,-25.2031 40.4063,-25.2031 40.1094,-27 L37.6094,-41.5 C37.4063,-42.7031 37.6094,-42.7969 38.2031,-43.4063 C49,-53.5 57.2031,-66.2031 57.2031,-81.5 C57.2031,-90.2031 54.7969,-98.8125 50.7031,-104.813 C49.2031,-107 46.6094,-109.813 45.5,-109.813 C44.1094,-109.813 41,-107.203 39,-105 C31.6094,-96.8125 29.2031,-84.3125 29.2031,-73.9063 C29.2031,-68.1094 29.9063,-61.6094 30.6094,-57.5 C30.7969,-56.2969 30.9063,-56.1094 29.7031,-55.1094 C15.2969,-43.2031 0,-28.9063 0,-8.70313 C0,8.70313 11.9063,25.2031 36.4063,25.2031 M8,-2 C8,-7.90625 9,-15.7969 17.2969,-25.2031 C23.2969,-31.9063 27.9063,-35.6094 32.6094,-39.4063 C33.6094,-40.2031 33.7969,-40.1094 34,-39 L36.1094,-26.2031 C36.4063,-24.2969 36.4063,-24.4063 34.6094,-23.7969 C25.7969,-20.7969 20.0938,-12.9063 20.0938,-4.40625 C20.0938,4.59375 24.7969,11 31.6094,13.2969 C32.4063,13.5938 33.6094,13.9063 34.2969,13.9063 C35.1094,13.9063 35.5,13.4063 35.5,12.7969 C35.5,12.0938 34.7031,11.7969 34,11.5 C29.7969,9.70313 26.7969,5.40625 26.7969,0.796875 C26.7969,-4.90625 30.7031,-9.20313 36.7969,-10.9063 C38.4063,-11.2969 38.6094,-11.2031 38.7969,-10.0938 L43.7969,19.7031 C44,20.7969 43.9063,20.7969 42.4063,21.0938 C40.7969,21.4063 38.7969,21.5938 36.7969,21.5938 C19.2969,21.5938 8,11.9063 8,-2 M47,-94.3125 C50.2969,-94.3125 53,-91.6094 53,-86.1094 C53,-75 43.5,-66 35.6094,-59.1094 C34.9063,-58.5 34.5,-58.6094 34.2969,-59.9063 C33.9063,-62.5 33.7031,-65.9063 33.7031,-69.1094 C33.7031,-84.7031 40.9063,-94.3125 47,-94.3125 M44.1094,-11.7031 C52.2031,-11 58.9063,-4.20313 58.9063,4.59375 C58.9063,10.9063 55.1094,16 49.5,18.7969 C48.2969,19.4063 48.1094,19.4063 47.9063,18.2031 L43,-10.2969 C42.7969,-11.5 42.9063,-11.7969 44.1094,-11.7031"/>
<path class="Clef" transform="matrix(0.793701,0,0,0.793701,121.899,690.236)" d="M36.4063,25.2031 C38.7031,25.2031 41.2969,25 43.2969,24.5938 C44.4063,24.4063 44.6094,24.2969 44.7969,25.5 C46,32.2031 47.5,40.9063 47.5,45.6094 C47.5,60.4063 37.5,62.2031 31.6094,62.2031 C26.2031,62.2031 23.5938,60.6094 23.5938,59.2969 C23.5938,58.6094 24.5,58.2969 26.7969,57.6094 C29.9063,56.7031 33.5,54 33.5,48.2031 C33.5,42.7031 30,38 23.9063,38 C17.2031,38 13.2031,43.2969 13.2031,49.5 C13.2031,56 17.0938,65.7969 32.2031,65.7969 C38.9063,65.7969 51.9063,62.7969 51.9063,45.7969 C51.9063,40.1094 50.1094,30.6094 49,24.4063 C48.7969,23.2031 48.9063,23.2969 50.2969,22.7031 C60.4063,18.7031 67.1094,10.2031 67.1094,-1.09375 C67.1094,-13.9063 57.7031,-25.2031 43,-25.2031 C40.4063,-25.2031 40.4063,-25.2031 40.1094,-27 L37.6094,-41.5 C37.4063,-42.7031 37.6094,-42.7969 38.2031,-43.4063 C49,-53.5 57.2031,-66.2031 57.2031,-81.5 C57.2031,-90.2031 54.7969,-98.8125 50.7031,-104.813 C49.2031,-107 46.6094,-109.813 45.5,-109.813 C44.1094,-109.813 41,-107.203 39,-105 C31.6094,-96.8125 29.2031,-84.3125 29.2031,-73.9063 C29.2031,-68.1094 29.9063,-61.6094 30.6094,-57.5 C30.7969,-56.2969 30.9063,-56.1094 29.7031,-55.1094 C15.2969,-43.2031 0,-28.9063 0,-8.70313 C0,8.70313 11.9063,25.2031 36.4063,25.2031 M8,-2 C8,-7.90625 9,-15.7969 17.2969,-25.2031 C23.2969,-31.9063 27.9063,-35.6094 32.6094,-39.4063 C33.6094,-40.2031 33.7969,-40.1094 34,-39 L36.1094,-26.2031 C36.4063,-24.2969 36.4063,-24.4063 34.6094,-23.7969 C25.7969,-20.7969 20.0938,-12.9063 20.0938,-4.40625 C20.0938,4.59375 24.7969,11 31.6094,13.2969 C32.4063,13.5938 33.6094,13.9063 34.2969,13.9063 C35.1094,13.9063 35.5,13.4063 35.5,12.7969 C35.5,12.0938 34.7031,11.7969 34,11.5 C29.7969,9.70313 26.7969,5.40625 26.7969,0.796875 C26.7969,-4.90625 30.7031,-9.20313 36.7969,-10.9063 C38.4063,-11.2969 38.6094,-11.2031 38.7969,-10.0938 L43.7969,19.7031 C44,20.7969 43.9063,20.7969 42.4063,21.0938 C40.7969,21.4063 38.7969,21.5938 36.7969,21.5938 C19.2969,21.5938 8,11.9063 8,-2 M47,-94.3125 C50.2969,-94.3125 53,-91.6094 53,-86.1094 C53,-75 43.5,-66 35.6094,-59.1094 C34.9063,-58.5 34.5,-58.6094 34.2969,-59.9063 C33.9063,-62.5 33.7031,-65.9063 33.7031,-69.1094 C33.7031,-84.7031 40.9063,-94.3125 47,-94.3125 M44.1094,-11.7031 C52.2031,-11 58.9063,-4.20313 58.9063,4.59375 C58.9063,10.9063 55.1094,16 49.5,18.7969 C48.2969,19.4063 48.1094,19.4063 47.9063,18.2031 L43,-10.2969 C42.7969,-11.5 42.9063,-11.7969 44.1094,-11.7031"/>
<path class="Clef" transform="matrix(0.634961,0,0,0.634961,1492.07,650.551)" d="M0.796875,63.5 C1.29688,63.5 1.90625,63.2969 2.5,63 C27.1094,51 53.1094,33.2031 53.1094,2.79688 C53.1094,-14.5938 42.5,-26.2031 25.2031,-26.2031 C7.79688,-26.2031 0,-13.5 0,-3.90625 C0,4.09375 4.20313,11 12.2969,11 C18.5938,11 22.9063,6.59375 22.9063,0.40625 C22.9063,-6 18.2031,-10 13.2969,-10 C10.5938,-10 9.59375,-9.29688 8.29688,-9.29688 C7,-9.29688 6.70313,-10.0938 6.70313,-11.0938 C6.70313,-15.0938 12.7031,-22.4063 22.9063,-22.4063 C33.5,-22.4063 38.1094,-12 38.1094,3.70313 C38.1094,31.6094 24.2969,47.2031 1,60.5 C0.09375,61 -0.5,61.5 -0.5,62.2969 C-0.5,62.9063 -0.09375,63.5 0.796875,63.5 M62.9063,-7 C66,-7 68.4063,-9.40625 68.4063,-12.5 C68.4063,-15.5938 66,-18 62.9063,-18 C59.7969,-18 57.4063,-15.5938 57.4063,-12.5 C57.4063,-9.40625 59.7969,-7 62.9063,-7 M63,17.9063 C66.1094,17.9063 68.4063,15.5938 68.4063,12.5 C68.4063,9.40625 66.1094,7.09375 63,7.09375 C59.9063,7.09375 57.6094,9.40625 57.6094,12.5 C57.6094,15.5938 59.9063,17.9063 63,17.9063"/>
<path class="Clef" transform="matrix(0.793701,0,0,0.793701,121.899,481.89)" d="M36.4063,25.2031 C38.7031,25.2031 41.2969,25 43.2969,24.5938 C44.4063,24.4063 44.6094,24.2969 44.7969,25.5 C46,32.2031 47.5,40.9063 47.5,45.6094 C47.5,60.4063 37.5,62.2031 31.6094,62.2031 C26.2031,62.2031 23.5938,60.6094 23.5938,59.2969 C23.5938,58.6094 24.5,58.2969 26.7969,57.6094 C29.9063,56.7031 33.5,54 33.5,48.2031 C33.5,42.7031 30,38 23.9063,38 C17.2031,38 13.2031,43.2969 13.2031,49.5 C13.2031,56 17.0938,65.7969 32.2031,65.7969 C38.9063,65.7969 51.9063,62.7969 51.9063,45.7969 C51.9063,40.1094 50.1094,30.6094 49,24.4063 C48.7969,23.2031 48.9063,23.2969 50.2969,22.7031 C60.4063,18.7031 67.1094,10.2031 67.1094,-1.09375 C67.1094,-13.9063 57.7031,-25.2031 43,-25.2031 C40.4063,-25.2031 40.4063,-25.2031 40.1094,-27 L37.6094,-41.5 C37.4063,-42.7031 37.6094,-42.7969 38.2031,-43.4063 C49,-53.5 57.2031,-66.2031 57.2031,-81.5 C57.2031,-90.2031 54.7969,-98.8125 50.7031,-104.813 C49.2031,-107 46.6094,-109.813 45.5,-109.813 C44.1094,-109.813 41,-107.203 39,-105 C31.6094,-96.8125 29.2031,-84.3125 29.2031,-73.9063 C29.2031,-68.1094 29.9063,-61.6094 30.6094,-57.5 C30.7969,-56.2969 30.9063,-56.1094 29.7031,-55.1094 C15.2969,-43.2031 0,-28.9063 0,-8.70313 C0,8.70313 11.9063,25.2031 36.4063,25.2031 M8,-2 C8,-7.90625 9,-15.7969 17.2969,-25.2031 C23.2969,-31.9063 27.9063,-35.6094 32.6094,-39.4063 C33.6094,-40.2031 33.7969,-40.1094 34,-39 L36.1094,-26.2031 C36.4063,-24.2969 36.4063,-24.4063 34.6094,-23.7969 C25.7969,-20.7969 20.0938,-12.9063 20.0938,-4.40625 C20.0938,4.59375 24.7969,11 31.6094,13.2969 C32.4063,13.5938 33.6094,13.9063 34.2969,13.9063 C35.1094,13.9063 35.5,13.4063 35.5,12.7969 C35.5,12.0938 34.7031,11.7969 34,11.5 C29.7969,9.70313 26.7969,5.40625 26.7969,0.796875 C26.7969,-4.90625 30.7031,-9.20313 36.7969,-10.9063 C38.4063,-11.2969 38.6094,-11.2031 38.7969,-10.0938 L43.7969,19.7031 C44,20.7969 43.9063,20.7969 42.4063,21.0938 C40.7969,21.4063 38.7969,21.5938 36.7969,21.5938 C19.2969,21.5938 8,11.9063 8,-2 M47,-94.3125 C50.2969,-94.3125 53,-91.6094 53,-86.1094 C53,-75 43.5,-66 35.6094,-59.1094 C34.9063,-58.5 34.5,-58.6094 34.2969,-59.9063 C33.9063,-62.5 33.7031,-65.9063 33.7031,-69.1094 C33.7031,-84.7031 40.9063,-94.3125 47,-94.3125 M44.1094,-11.7031 C52.2031,-11 58.9063,-4.20313 58.9063,4.59375 C58.9063,10.9063 55.1094,16 49.5,18.7969 C48.2969,19.4063 48.1094,19.4063 47.9063,18.2031 L43,-10.2969 C42.7969,-11.5 42.9063,-11.7969 44.1094,-11.7031"/>
<path class="Rest" transform="matrix(0.793701,0,0,0.793701,360.818,670.394)" d="M11.7031,36.6094 C12.5,37.2031 13.5,37.5 14.2969,37.5 C15,37.5 15.7031,37.2969 15.7969,36.9063 C15.9063,36.6094 16,36.4063 16,36.2031 C16,35.2969 15.2031,34.5 14.4063,33.7969 C13.0938,33.7969 12,31.1094 11.7969,30.2031 C11.5,29.4063 11.4063,28.5 11.4063,27.6094 C11.4063,23.5 13.5,20.2969 17.7031,20.2969 C20.5938,20.2969 23.9063,21.4063 25.5,22 C25.6094,22 25.7031,22.0938 25.7969,22.0938 C26.1094,22.2031 26.2969,22.2031 26.5,22.2031 C26.7969,22.2031 27,22.0938 27,21.7969 C27,20.5938 24.4063,17.2969 23.2969,16.0938 C19.5,11.5 16.4063,7.79688 16.4063,2.20313 C16.4063,1.79688 16.5,1.29688 16.5,0.90625 C16.9063,-4.90625 20.5,-9.70313 23.0938,-13.7969 C23.4063,-14.2969 23.5,-14.7969 23.5,-15.2969 C23.5,-16.2969 23.0938,-17.2031 23.0938,-17.2031 C23.0938,-17.2031 8.29688,-34.7969 6.59375,-36.5 C6.09375,-37 5.40625,-37.2969 4.79688,-37.2969 C3.79688,-37.2969 2.79688,-36.6094 2.79688,-35.2031 C2.79688,-34.7031 2.90625,-34.2031 3.20313,-33.6094 C3.59375,-32.5 9.29688,-27.4063 9.29688,-20.2031 C9.29688,-16.5 7.79688,-12.2031 3.29688,-7.5 C2.29688,-6.5 1.90625,-5.40625 1.90625,-4.59375 C1.90625,-3.20313 2.90625,-2.20313 2.90625,-2.20313 L7.79688,3.79688 C9.40625,5.79688 10.7969,7.70313 12.0938,9.79688 C12.2969,10.2031 12.7031,11 12.7031,11.2031 C12.7031,11.2969 12.7031,11.5 12.5938,11.5938 C12.4063,12 12,12.0938 11.5,12.0938 C11.0938,12.0938 10.2969,11.9063 9.90625,11.7969 C9.40625,11.7969 8.79688,11.5 8.29688,11.5 C4,11.5 0.09375,15.7969 0.09375,21.0938 C0.09375,26.1094 4.40625,31 11.7031,36.6094"/>
<path class="Rest" transform="matrix(0.793701,0,0,0.793701,584.39,670.394)" d="M11.7031,36.6094 C12.5,37.2031 13.5,37.5 14.2969,37.5 C15,37.5 15.7031,37.2969 15.7969,36.9063 C15.9063,36.6094 16,36.4063 16,36.2031 C16,35.2969 15.2031,34.5 14.4063,33.7969 C13.0938,33.7969 12,31.1094 11.7969,30.2031 C11.5,29.4063 11.4063,28.5 11.4063,27.6094 C11.4063,23.5 13.5,20.2969 17.7031,20.2969 C20.5938,20.2969 23.9063,21.4063 25.5,22 C25.6094,22 25.7031,22.0938 25.7969,22.0938 C26.1094,22.2031 26.2969,22.2031 26.5,22.2031 C26.7969,22.2031 27,22.0938 27,21.7969 C27,20.5938 24.4063,17.2969 23.2969,16.0938 C19.5,11.5 16.4063,7.79688 16.4063,2.20313 C16.4063,1.79688 16.5,1.29688 16.5,0.90625 C16.9063,-4.90625 20.5,-9.70313 23.0938,-13.7969 C23.4063,-14.2969 23.5,-14.7969 23.5,-15.2969 C23.5,-16.2969 23.0938,-17.2031 23.0938,-17.2031 C23.0938,-17.2031 8.29688,-34.7969 6.59375,-36.5 C6.09375,-37 5.40625,-37.2969 4.79688,-37.2969 C3.79688,-37.2969 2.79688,-36.6094 2.79688,-35.2031 C2.79688,-34.7031 2.90625,-34.2031 3.20313,-33.6094 C3.59375,-32.5 9.29688,-27.4063 9.29688,-20.2031 C9.29688,-16.5 7.79688,-12.2031 3.29688,-7.5 C2.29688,-6.5 1.90625,-5.40625 1.90625,-4.59375 C1.90625,-3.20313 2.90625,-2.20313 2.90625,-2.20313 L7.79688,3.79688 C9.40625,5.79688 10.7969,7.70313 12.0938,9.79688 C12.2969,10.2031 12.7031,11 12.7031,11.2031 C12.7031,11.2969 12.7031,11.5 12.5938,11.5938 C12.4063,12 12,12.0938 11.5,12.0938 C11.0938,12.0938 10.2969,11.9063 9.90625,11.7969 C9.40625,11.7969 8.79688,11.5 8.29688,11.5 C4,11.5 0.09375,15.7969 0.09375,21.0938 C0.09375,26.1094 4.40625,31 11.7031,36.6094"/>
<path class="Rest" transform="matrix(0.793701,0,0,0.793701,1163.97,670.394)" d="M11.7031,36.6094 C12.5,37.2031 13.5,37.5 14.2969,37.5 C15,37.5 15.7031,37.2969 15.7969,36.9063 C15.9063,36.6094 16,36.4063 16,36.2031 C16,35.2969 15.2031,34.5 14.4063,33.7969 C13.0938,33.7969 12,31.1094 11.7969,30.2031 C11.5,29.4063 11.4063,28.5 11.4063,27.6094 C11.4063,23.5 13.5,20.2969 17.7031,20.2969 C20.5938,20.2969 23.9063,21.4063 25.5,22 C25.6094,22 25.7031,22.0938 25.7969,22.0938 C26.1094,22.2031 26.2969,22.2031 26.5,22.2031 C26.7969,22.2031 27,22.0938 27,21.7969 C27,20.5938 24.4063,17.2969 23.2969,16.0938 C19.5,11.5 16.4063,7.79688 16.4063,2.20313 C16.4063,1.79688 16.5,1.29688 16.5,0.90625 C16.9063,-4.90625 20.5,-9.70313 23.0938,-13.7969 C23.4063,-14.2969 23.5,-14.7969 23.5,-15.2969 C23.5,-16.2969 23.0938,-17.2031 23.0938,-17.2031 C23.0938,-17.2031 8.29688,-34.7969 6.59375,-36.5 C6.09375,-37 5.40625,-37.2969 4.79688,-37.2969 C3.79688,-37.2969 2.79688,-36.6094 2.79688,-35.2031 C2.79688,-34.7031 2.90625,-34.2031 3.20313,-33.6094 C3.59375,-32.5 9.29688,-27.4063 9.29688,-20.2031 C9.29688,-16.5 7.79688,-12.2031 3.29688,-7.5 C2.29688,-6.5 1.90625,-5.40625 1.90625,-4.59375 C1.90625,-3.20313 2.90625,-2.20313 2.90625,-2.20313 L7.79688,3.79688 C9.40625,5.79688 10.7969,7.70313 12.0938,9.79688 C12.2969,10.2031 12.7031,11 12.7031,11.2031 C12.7031,11.2969 12.7031,11.5 12.5938,11.5938 C12.4063,12 12,12.0938 11.5,12.0938 C11.0938,12.0938 10.2969,11.9063 9.90625,11.7969 C9.40625,11.7969 8.79688,11.5 8.29688,11.5 C4,11.5 0.09375,15.7969 0.09375,21.0938 C0.09375,26.1094 4.40625,31 11.7031,36.6094"/>
<path class="Rest" transform="matrix(0.793701,0,0,0.793701,1349.74,670.394)" d="M11.7031,36.6094 C12.5,37.2031 13.5,37.5 14.2969,37.5 C15,37.5 15.7031,37.2969 15.7969,36.9063 C15.9063,36.6094 16,36.4063 16,36.2031 C16,35.2969 15.2031,34.5 14.4063,33.7969 C13.0938,33.7969 12,31.1094 11.7969,30.2031 C11.5,29.4063 11.4063,28.5 11.4063,27.6094 C11.4063,23.5 13.5,20.2969 17.7031,20.2969 C20.5938,20.2969 23.9063,21.4063 25.5,22 C25.6094,22 25.7031,22.0938 25.7969,22.0938 C26.1094,22.2031 26.2969,22.2031 26.5,22.2031 C26.7969,22.2031 27,22.0938 27,21.7969 C27,20.5938 24.4063,17.2969 23.2969,16.0938 C19.5,11.5 16.4063,7.79688 16.4063,2.20313 C16.4063,1.79688 16.5,1.29688 16.5,0.90625 C16.9063,-4.90625 20.5,-9.70313 23.0938,-13.7969 C23.4063,-14.2969 23.5,-14.7969 23.5,-15.2969 C23.5,-16.2969 23.0938,-17.2031 23.0938,-17.2031 C23.0938,-17.2031 8.29688,-34.7969 6.59375,-36.5 C6.09375,-37 5.40625,-37.2969 4.79688,-37.2969 C3.79688,-37.2969 2.79688,-36.6094 2.79688,-35.2031 C2.79688,-34.7031 2.90625,-34.2031 3.20313,-33.6094 C3.59375,-32.5 9.29688,-27.4063 9.29688,-20.2031 C9.29688,-16.5 7.79688,-12.2031 3.29688,-7.5 C2.29688,-6.5 1.90625,-5.40625 1.90625,-4.59375 C1.90625,-3.20313 2.90625,-2.20313 2.90625,-2.20313 L7.79688,3.79688 C9.40625,5.79688 10.7969,7.70313 12.0938,9.79688 C12.2969,10.2031 12.7031,11 12.7031,11.2031 C12.7031,11.2969 12.7031,11.5 12.5938,11.5938 C12.4063,12 12,12.0938 11.5,12.0938 C11.0938,12.0938 10.2969,11.9063 9.90625,11.7969 C9.40625,11.7969 8.79688,11.5 8.29688,11.5 C4,11.5 0.09375,15.7969 0.09375,21.0938 C0.09375,26.1094 4.40625,31 11.7031,36.6094"/>
<path class="Rest" transform="matrix(0.793701,0,0,0.793701,2095.85,670.394)" d="M11.7031,36.6094 C12.5,37.2031 13.5,37.5 14.2969,37.5 C15,37.5 15.7031,37.2969 15.7969,36.9063 C15.9063,36.6094 16,36.4063 16,36.2031 C16,35.2969 15.2031,34.5 14.4063,33.7969 C13.0938,33.7969 12,31.1094 11.7969,30.2031 C11.5,29.4063 11.4063,28.5 11.4063,27.6094 C11.4063,23.5 13.5,20.2969 17.7031,20.2969 C20.5938,20.2969 23.9063,21.4063 25.5,22 C25.6094,22 25.7031,22.0938 25.7969,22.0938 C26.1094,22.2031 26.2969,22.2031 26.5,22.2031 C26.7969,22.2031 27,22.0938 27,21.7969 C27,20.5938 24.4063,17.2969 23.2969,16.0938 C19.5,11.5 16.4063,7.79688 16.4063,2.20313 C16.4063,1.79688 16.5,1.29688 16.5,0.90625 C16.9063,-4.90625 20.5,-9.70313 23.0938,-13.7969 C23.4063,-14.2969 23.5,-14.7969 23.5,-15.2969 C23.5,-16.2969 23.0938,-17.2031 23.0938,-17.2031 C23.0938,-17.2031 8.29688,-34.7969 6.59375,-36.5 C6.09375,-37 5.40625,-37.2969 4.79688,-37.2969 C3.79688,-37.2969 2.79688,-36.6094 2.79688,-35.2031 C2.79688,-34.7031 2.90625,-34.2031 3.20313,-33.6094 C3.59375,-32.5 9.29688,-27.4063 9.29688,-20.2031 C9.29688,-16.5 7.79688,-12.2031 3.29688,-7.5 C2.29688,-6.5 1.90625,-5.40625 1.90625,-4.59375 C1.90625,-3.20313 2.90625,-2.20313 2.90625,-2.20313 L7.79688,3.79688 C9.40625,5.79688 10.7969,7.70313 12.0938,9.79688 C12.2969,10.2031 12.7031,11 12.7031,11.2031 C12.7031,11.2969 12.7031,11.5 12.5938,11.5938 C12.4063,12 12,12.0938 11.5,12.0938 C11.0938,12.0938 10.2969,11.9063 9.90625,11.7969 C9.40625,11.7969 8.79688,11.5 8.29688,11.5 C4,11.5 0.09375,15.7969 0.09375,21.0938 C0.09375,26.1094 4.40625,31 11.7031,36.6094"/>
<path class="Rest" transform="matrix(0.793701,0,0,0.793701,2095.85,462.047)" d="M11.7031,36.6094 C12.5,37.2031 13.5,37.5 14.2969,37.5 C15,37.5 15.7031,37.2969 15.7969,36.9063 C15.9063,36.6094 16,36.4063 16,36.2031 C16,35.2969 15.2031,34.5 14.4063,33.7969 C13.0938,33.7969 12,31.1094 11.7969,30.2031 C11.5,29.4063 11.4063,28.5 11.4063,27.6094 C11.4063,23.5 13.5,20.2969 17.7031,20.2969 C20.5938,20.2969 23.9063,21.4063 25.5,22 C25.6094,22 25.7031,22.0938 25.7969,22.0938 C26.1094,22.2031 26.2969,22.2031 26.5,22.2031 C26.7969,22.2031 27,22.0938 27,21.7969 C27,20.5938 24.4063,17.2969 23.2969,16.0938 C19.5,11.5 16.4063,7.79688 16.4063,2.20313 C16.4063,1.79688 16.5,1.29688 16.5,0.90625 C16.9063,-4.90625 20.5,-9.70313 23.0938,-13.7969 C23.4063,-14.2969 23.5,-14.7969 23.5,-15.2969 C23.5,-16.2969 23.0938,-17.2031 23.0938,-17.2031 C23.0938,-17.2031 8.29688,-34.7969 6.59375,-36.5 C6.09375,-37 5.40625,-37.2969 4.79688,-37.2969 C3.79688,-37.2969 2.79688,-36.6094 2.79688,-35.2031 C2.79688,-34.7031 2.90625,-34.2031 3.20313,-33.6094 C3.59375,-32.5 9.29688,-27.4063 9.29688,-20.2031 C9.29688,-16.5 7.79688,-12.2031 3.29688,-7.5 C2.29688,-6.5 1.90625,-5.40625 1.90625,-4.59375 C1.90625,-3.20313 2.90625,-2.20313 2.90625,-2.20313 L7.79688,3.79688 C9.40625,5.79688 10.7969,7.70313 12.0938,9.79688 C12.2969,10.2031 12.7031,11 12.7031,11.2031 C12.7031,11.2969 12.7031,11.5 12.5938,11.5938 C12.4063,12 12,12.0938 11.5,12.0938 C11.0938,12.0938 10.2969,11.9063 9.90625,11.7969 C9.40625,11.7969 8.79688,11.5 8.29688,11.5 C4,11.5 0.09375,15.7969 0.09375,21.0938 C0.09375,26.1094 4.40625,31 11.7031,36.6094"/>
<path class="Beam" fill-rule="evenodd" d="M360.818,496.772 L530.878,496.772 L530.878,506.693 L360.818,506.693 L360.818,496.772 "/>
<path class="Beam" fill-rule="evenodd" d="M360.818,484.37 L530.878,484.37 L530.878,494.291 L360.818,494.291 L360.818,484.37 "/>
<path class="Beam" fill-rule="evenodd" d="M584.39,471.969 L754.45,471.969 L754.45,481.89 L584.39,481.89 L584.39,471.969 "/>
<path class="Beam" fill-rule="evenodd" d="M584.39,459.567 L754.45,459.567 L754.45,469.488 L584.39,469.488 L584.39,459.567 "/>
<path class="Beam" fill-rule="evenodd" d="M807.962,476.929 L985.265,476.929 L985.265,486.851 L807.962,486.851 L807.962,476.929 "/>
<path class="Beam" fill-rule="evenodd" d="M807.962,464.528 L985.265,464.528 L985.265,474.449 L807.962,474.449 L807.962,464.528 "/>
<path class="Beam" fill-rule="evenodd" d="M1187.7,417.691 L1329.41,397.509 L1329.41,407.531 L1187.7,427.712 L1187.7,417.691 "/>
<path class="Beam" fill-rule="evenodd" d="M1187.7,430.092 L1329.41,409.911 L1329.41,419.932 L1187.7,440.114 L1187.7,430.092 "/>
<path class="Beam" fill-rule="evenodd" d="M1349.74,536.457 L1491.44,536.457 L1491.44,546.378 L1349.74,546.378 L1349.74,536.457 "/>
<path class="Beam" fill-rule="evenodd" d="M1349.74,524.055 L1491.44,524.055 L1491.44,533.977 L1349.74,533.977 L1349.74,524.055 "/>
<path class="Beam" fill-rule="evenodd" d="M1582.21,382.421 L1737.04,397.536 L1737.04,407.504 L1582.21,392.39 L1582.21,382.421 "/>
<path class="Beam" fill-rule="evenodd" d="M1582.21,394.823 L1737.04,409.937 L1737.04,419.906 L1582.21,404.791 L1582.21,394.823 "/>
<polyline class="TextLineSegment" stroke="#000000" stroke-width="8.93" stroke-linecap="square" stroke-linejoin="bevel" points="165.71,863.692 260.028,867.084"/>
<path class="Page" d="M2900.08,4272.53 C2900.08,4271.11 2899.76,4269.86 2899.13,4268.77 C2898.5,4267.68 2897.74,4266.84 2896.85,4266.24 C2895.96,4265.64 2894.96,4265.15 2893.86,4264.76 C2892.76,4264.38 2891.79,4264.13 2890.98,4264.01 C2890.16,4263.89 2889.45,4263.83 2888.84,4263.83 C2888.52,4263.83 2888.36,4263.72 2888.36,4263.5 C2888.36,4263.42 2888.37,4263.36 2888.39,4263.29 L2892.75,4253.84 L2901.11,4253.84 C2901.54,4253.84 2901.88,4253.77 2902.13,4253.64 C2902.39,4253.5 2902.66,4253.22 2902.95,4252.79 L2903.31,4253.08 L2901.8,4256.64 C2901.69,4256.88 2901.39,4257 2900.88,4257 L2893.03,4257 L2891.36,4260.39 C2895.24,4261.08 2898.14,4262.2 2900.03,4263.76 C2901.93,4265.31 2902.88,4267.6 2902.88,4270.61 C2902.88,4272.18 2902.63,4273.58 2902.13,4274.81 C2901.64,4276.04 2901.01,4277.03 2900.25,4277.78 C2899.49,4278.53 2898.61,4279.14 2897.61,4279.62 C2896.61,4280.1 2895.65,4280.43 2894.73,4280.61 C2893.82,4280.78 2892.89,4280.87 2891.95,4280.87 C2890.46,4280.87 2889.28,4280.65 2888.4,4280.21 C2887.52,4279.77 2887.08,4279.16 2887.08,4278.39 C2887.08,4277.4 2887.65,4276.9 2888.8,4276.9 C2889.55,4276.9 2890.51,4277.31 2891.7,4278.13 C2892.88,4278.95 2893.82,4279.36 2894.52,4279.36 C2896.09,4279.36 2897.41,4278.7 2898.48,4277.38 C2899.54,4276.06 2900.08,4274.45 2900.08,4272.53"/>
<path class="Bracket" transform="matrix(2.87717,0,0,2.87717,71.8959,1245.83)" d="M4.90625,-39.7031 C4.90625,-32.7031 1.40625,-26.5 1.40625,-19.2031 C1.40625,-9.20313 4.09375,-3.40625 6.29688,-0.59375 C6.70313,-0.09375 6.90625,0 7.09375,0 C7.40625,0 7.70313,-0.296875 7.70313,-0.59375 C7.70313,-0.90625 7.59375,-1.20313 7.20313,-1.70313 C6.70313,-2.5 4.40625,-7.5 4.40625,-12.7969 C4.40625,-18.0938 7.40625,-27.5 8.09375,-33.4063 C8.20313,-33.9063 8.20313,-34.4063 8.20313,-35 C8.20313,-40.9063 4.90625,-48 2,-49.7969 C4.90625,-51.6094 8.20313,-58.7031 8.20313,-64.6094 C8.20313,-65.1094 8.20313,-65.7031 8.09375,-66.2031 C7.40625,-72.2031 4.40625,-81.5 4.40625,-86.9063 C4.40625,-92.1094 6.70313,-97.1094 7.20313,-98 C7.59375,-98.4063 7.70313,-98.7031 7.70313,-99 C7.70313,-99.2031 7.59375,-99.4063 7.5,-99.4063 C7.40625,-99.5 7.29688,-99.7031 7.09375,-99.7031 C6.90625,-99.7031 6.70313,-99.5 6.29688,-99 C4.09375,-96.3125 1.40625,-90.5 1.40625,-80.5 C1.40625,-70.6094 4.90625,-66.6094 4.90625,-60.2969 C4.90625,-55.6094 3,-53 0.203125,-49.7969 C2,-47.7969 4.90625,-46.2031 4.90625,-39.7031"/>
<path class="Bracket" transform="matrix(2.87717,0,0,2.87717,71.8959,710.079)" d="M4.90625,-39.7031 C4.90625,-32.7031 1.40625,-26.5 1.40625,-19.2031 C1.40625,-9.20313 4.09375,-3.40625 6.29688,-0.59375 C6.70313,-0.09375 6.90625,0 7.09375,0 C7.40625,0 7.70313,-0.296875 7.70313,-0.59375 C7.70313,-0.90625 7.59375,-1.20313 7.20313,-1.70313 C6.70313,-2.5 4.40625,-7.5 4.40625,-12.7969 C4.40625,-18.0938 7.40625,-27.5 8.09375,-33.4063 C8.20313,-33.9063 8.20313,-34.4063 8.20313,-35 C8.20313,-40.9063 4.90625,-48 2,-49.7969 C4.90625,-51.6094 8.20313,-58.7031 8.20313,-64.6094 C8.20313,-65.1094 8.20313,-65.7031 8.09375,-66.2031 C7.40625,-72.2031 4.40625,-81.5 4.40625,-86.9063 C4.40625,-92.1094 6.70313,-97.1094 7.20313,-98 C7.59375,-98.4063 7.70313,-98.7031 7.70313,-99 C7.70313,-99.2031 7.59375,-99.4063 7.5,-99.4063 C7.40625,-99.5 7.29688,-99.7031 7.09375,-99.7031 C6.90625,-99.7031 6.70313,-99.5 6.29688,-99 C4.09375,-96.3125 1.40625,-90.5 1.40625,-80.5 C1.40625,-70.6094 4.90625,-66.6094 4.90625,-60.2969 C4.90625,-55.6094 3,-53 0.203125,-49.7969 C2,-47.7969 4.90625,-46.2031 4.90625,-39.7031"/>
</svg>
