<?xml version="1.0" encoding="UTF-8" standalone="no"?>
<svg
   xmlns:dc="http://purl.org/dc/elements/1.1/"
   xmlns:cc="http://creativecommons.org/ns#"
   xmlns:rdf="http://www.w3.org/1999/02/22-rdf-syntax-ns#"
   xmlns:svg="http://www.w3.org/2000/svg"
   xmlns="http://www.w3.org/2000/svg"
   xmlns:sodipodi="http://sodipodi.sourceforge.net/DTD/sodipodi-0.dtd"
   xmlns:inkscape="http://www.inkscape.org/namespaces/inkscape"
   width="2869.8308"
   height="616.67902"
   viewBox="0 0 2869.8309 616.67902"
   version="1.2"
   id="svg1166"
   sodipodi:docname="KV 545-Exposition-2d.svg"
   inkscape:version="0.92.3 (2405546, 2018-03-11)">
  <metadata
     id="metadata1172">
    <rdf:RDF>
      <cc:Work
         rdf:about="">
        <dc:format>image/svg+xml</dc:format>
        <dc:type
           rdf:resource="http://purl.org/dc/dcmitype/StillImage" />
      </cc:Work>
    </rdf:RDF>
  </metadata>
  <defs
     id="defs1170" />
  <sodipodi:namedview
     pagecolor="#ffffff"
     bordercolor="#666666"
     borderopacity="1"
     objecttolerance="10"
     gridtolerance="10"
     guidetolerance="10"
     inkscape:pageopacity="0"
     inkscape:pageshadow="2"
     inkscape:window-width="3840"
     inkscape:window-height="2066"
     id="namedview1168"
     showgrid="false"
     inkscape:zoom="0.31311696"
     inkscape:cx="225.65318"
     inkscape:cy="-406.16326"
     inkscape:window-x="-11"
     inkscape:window-y="-11"
     inkscape:window-maximized="1"
     inkscape:current-layer="svg1166" />
  <title
     id="title2">KV 545-Exposition (2)</title>
  <desc
     id="desc4">Generated by MuseScore 3.6.2</desc>
  <polyline
     class="StaffLines"
     points="102.85,1493.86 2903.81,1493.86"
     id="polyline46"
     style="fill:none;stroke:#000000;stroke-width:2.57999992;stroke-linejoin:bevel"
     transform="translate(-102.85,-1425.3137)" />
  <polyline
     class="StaffLines"
     points="102.85,1513.7 2903.81,1513.7"
     id="polyline48"
     style="fill:none;stroke:#000000;stroke-width:2.57999992;stroke-linejoin:bevel"
     transform="translate(-102.85,-1425.3137)" />
  <polyline
     class="StaffLines"
     points="102.85,1533.54 2903.81,1533.54"
     id="polyline50"
     style="fill:none;stroke:#000000;stroke-width:2.57999992;stroke-linejoin:bevel"
     transform="translate(-102.85,-1425.3137)" />
  <polyline
     class="StaffLines"
     points="102.85,1553.39 2903.81,1553.39"
     id="polyline52"
     style="fill:none;stroke:#000000;stroke-width:2.57999992;stroke-linejoin:bevel"
     transform="translate(-102.85,-1425.3137)" />
  <polyline
     class="StaffLines"
     points="102.85,1573.23 2903.81,1573.23"
     id="polyline54"
     style="fill:none;stroke:#000000;stroke-width:2.57999992;stroke-linejoin:bevel"
     transform="translate(-102.85,-1425.3137)" />
  <polyline
     class="StaffLines"
     points="102.85,3001.89 2903.81,3001.89"
     id="polyline96"
     transform="translate(-102.85,-2599.621)"
     style="fill:none;stroke:#000000;stroke-width:2.57999992;stroke-linejoin:bevel" />
  <polyline
     class="StaffLines"
     points="102.85,3021.73 2903.81,3021.73"
     id="polyline98"
     transform="translate(-102.85,-2599.621)"
     style="fill:none;stroke:#000000;stroke-width:2.57999992;stroke-linejoin:bevel" />
  <polyline
     class="StaffLines"
     points="102.85,3041.57 2903.81,3041.57"
     id="polyline100"
     transform="translate(-102.85,-2599.621)"
     style="fill:none;stroke:#000000;stroke-width:2.57999992;stroke-linejoin:bevel" />
  <polyline
     class="StaffLines"
     points="102.85,3061.42 2903.81,3061.42"
     id="polyline102"
     transform="translate(-102.85,-2599.621)"
     style="fill:none;stroke:#000000;stroke-width:2.57999992;stroke-linejoin:bevel" />
  <polyline
     class="StaffLines"
     points="102.85,3081.26 2903.81,3081.26"
     id="polyline104"
     transform="translate(-102.85,-2599.621)"
     style="fill:none;stroke:#000000;stroke-width:2.57999992;stroke-linejoin:bevel" />
  <path
     class="SlurSegment"
     d="m 182.708,106.76629 c 95.081,13.18 553.917,16.09 655.48,4.15 -101.593,16.7 -560.429,13.8 -655.48,-4.15"
     id="path110"
     inkscape:connector-curvature="0"
     style="fill-rule:evenodd;stroke:#000000;stroke-width:1.98000002;stroke-linecap:round;stroke-linejoin:round" />
  <path
     class="SlurSegment"
     d="m 148.06,30.846287 c 407.913,-35.4599998 2312.47,-40.9 2720.79,-7.77 -408.31,-28.3699998 -2312.863,-22.92999977 -2720.79,7.77"
     id="path112"
     inkscape:connector-curvature="0"
     style="fill-rule:evenodd;stroke:#000000;stroke-width:1.98000002;stroke-linecap:round;stroke-linejoin:round" />
  <path
     class="SlurSegment"
     d="m 148.06,155.85629 c 315.634,28.21 1779.57,49.04 2091.34,29.76 -311.84,24.05 -1775.774,3.21 -2091.34,-29.76"
     id="path114"
     inkscape:connector-curvature="0"
     style="fill-rule:evenodd;stroke:#000000;stroke-width:1.98000002;stroke-linecap:round;stroke-linejoin:round" />
  <path
     class="SlurSegment"
     d="m 173.666,426.21029 c 225.551,45.68 1307.594,62.78 1545.774,24.43 -238.26,43.11 -1320.298,26.01 -1545.774,-24.43"
     id="path116"
     inkscape:connector-curvature="0"
     style="fill-rule:evenodd;stroke:#000000;stroke-width:1.98000002;stroke-linecap:round;stroke-linejoin:round" />
  <polyline
     class="BarLine"
     points="104.438,1492.57 104.438,1574.52"
     id="polyline118"
     style="stroke:#000000;stroke-width:3.17000008;stroke-linejoin:bevel"
     transform="translate(-102.85,-1425.3137)" />
  <polyline
     class="BarLine"
     points="922.331,1492.57 922.331,1574.52"
     id="polyline120"
     style="stroke:#000000;stroke-width:3.17000008;stroke-linejoin:bevel"
     transform="translate(-102.85,-1425.3137)" />
  <polyline
     class="BarLine"
     points="1644.17,1492.57 1644.17,1574.52"
     id="polyline122"
     style="stroke:#000000;stroke-width:3.17000008;stroke-linejoin:bevel"
     transform="translate(-102.85,-1425.3137)" />
  <polyline
     class="BarLine"
     points="2294.67,1492.57 2294.67,1574.52"
     id="polyline124"
     style="stroke:#000000;stroke-width:3.17000008;stroke-linejoin:bevel"
     transform="translate(-102.85,-1425.3137)" />
  <polyline
     class="BarLine"
     points="2902.22,1492.57 2902.22,1574.52"
     id="polyline126"
     style="stroke:#000000;stroke-width:3.17000008;stroke-linejoin:bevel"
     transform="translate(-102.85,-1425.3137)" />
  <polyline
     class="BarLine"
     points="104.438,3000.6 104.438,3082.55"
     id="polyline128"
     transform="translate(-102.85,-2599.621)"
     style="stroke:#000000;stroke-width:3.17000008;stroke-linejoin:bevel" />
  <polyline
     class="BarLine"
     points="936.634,3000.6 936.634,3082.55"
     id="polyline130"
     transform="translate(-102.85,-2599.621)"
     style="stroke:#000000;stroke-width:3.17000008;stroke-linejoin:bevel" />
  <polyline
     class="BarLine"
     points="1817.21,3000.6 1817.21,3082.55"
     id="polyline132"
     transform="translate(-102.85,-2599.621)"
     style="stroke:#000000;stroke-width:3.17000008;stroke-linejoin:bevel" />
  <polyline
     class="BarLine"
     points="2552.7,3000.6 2552.7,3082.55"
     id="polyline134"
     transform="translate(-102.85,-2599.621)"
     style="stroke:#000000;stroke-width:3.17000008;stroke-linejoin:bevel" />
  <polyline
     class="BarLine"
     points="2902.22,3000.6 2902.22,3082.55"
     id="polyline136"
     transform="translate(-102.85,-2599.621)"
     style="stroke:#000000;stroke-width:3.17000008;stroke-linejoin:bevel" />
  <polyline
     class="BarLine"
     points="104.438,1165.17 104.438,1493.86"
     id="polyline138"
     transform="matrix(1,0,0,0.00392467,-102.85,62.683387)"
     style="stroke:#000000;stroke-width:3.17000008;stroke-linejoin:bevel" />
  <polyline
     class="BarLine"
     points="104.438,2673.2 104.438,3001.89"
     id="polyline148"
     transform="matrix(1,0,0,0.00392467,-102.85,390.47889)"
     style="stroke:#000000;stroke-width:3.17000008;stroke-linejoin:bevel" />
  <path
     class="Accidental"
     d="m 1256.5325,539.10169 c 0.3224,0 1.823,-0.7193 2.071,-0.8806 0.074,0 0.1489,-0.074 0.2357,-0.074 0.558,0 1.0293,0.7937 1.0293,1.4262 v 7.8626 c 0,0.8681 -0.3968,1.5874 -0.8681,1.823 -0.4837,0.1613 -2.1455,0.8682 -2.1455,0.8682 -0.558,0.1612 -0.9549,0.7937 -0.9549,1.2774 v 5.6302 c 0,0.4713 0.2356,0.7194 0.6325,0.7194 0.087,0 0.2356,-0.087 0.3224,-0.087 0,0 1.1038,-0.4713 1.8231,-0.7068 0.074,-0.087 0.1612,-0.087 0.2356,-0.087 0.5581,0 0.9549,0.8806 0.9549,1.2774 v 9.76 c 0,0.4713 0.4713,0.8682 1.0293,0.8682 0.7937,0 1.3518,-0.3969 1.3518,-0.8682 v -11.0374 c 0,-1.0293 0.3969,-1.5874 0.7937,-1.7486 l 4.8367,-1.9842 c 0.087,0 0.248,-0.075 0.3224,-0.075 0.6325,0 1.0293,0.9549 1.0293,1.4262 v 9.9213 c 0,0.4837 0.4837,0.8805 1.0294,0.8805 0.8804,0 1.3517,-0.3968 1.3517,-0.8805 v -11.273 c 0,-0.6325 0.3224,-1.5874 0.8806,-1.8231 0.5456,-0.2356 2.2198,-0.8681 2.2198,-0.8681 0.5581,-0.2356 0.955,-0.8805 0.955,-1.3518 v -5.6303 c 0,-0.3968 -0.2481,-0.6449 -0.5582,-0.6449 -0.1612,0 -0.2355,0 -0.3968,0.087 l -2.071,0.7937 c -0.4713,0 -1.0294,-0.4836 -1.0294,-1.4261 v -7.3914 c 0,-0.5457 0.3969,-2.0586 1.0294,-2.2943 l 2.071,-0.7937 c 0.5581,-0.2356 0.955,-0.8805 0.955,-1.3517 v -5.6304 c 0,-0.3969 -0.2481,-0.6449 -0.5582,-0.6449 -0.1612,0 -0.2355,0 -0.3968,0.087 0,0 -1.5874,0.6325 -1.9843,0.7069 -0.558,0 -1.1161,-0.3968 -1.1161,-1.0293 v -9.6856 c 0,-0.4713 -0.4713,-0.8681 -1.1037,-0.8681 -0.7937,0 -1.2774,0.3968 -1.2774,0.8681 v 10.3181 c -0.074,0.7937 -0.31,1.8354 -1.0293,2.3067 -0.9549,0.558 -3.6461,1.6618 -4.9979,1.9843 -0.7193,0 -0.9549,-0.955 -0.9549,-1.5875 v -9.5244 c 0,-0.4836 -0.5581,-0.8805 -1.1161,-0.8805 -0.7937,0 -1.265,0.3969 -1.265,0.8805 v 10.715 c 0,1.1161 -0.4713,1.9098 -0.9549,2.1455 -0.4713,0.2356 -2.0587,0.8681 -2.0587,0.8681 -0.558,0.1612 -0.9549,0.7937 -0.9549,1.2773 v 5.6304 c 0,0.4712 0.2356,0.7193 0.6325,0.7193 m 5.4815,4.4397 c 0,-2.4555 0.074,-5.2334 0.2356,-5.8783 0.1612,-1.3394 3.8073,-3.0136 5.7916,-3.0136 0.558,0 1.0293,0.1612 1.1905,0.4836 0.1612,0.3969 0.3224,2.3812 0.3224,4.5142 0,2.1455 -0.1612,4.3654 -0.3224,5.0847 -0.4713,1.5874 -4.2041,3.1748 -6.0272,3.1748 -0.4836,0 -0.8805,-0.1612 -0.9549,-0.3969 -0.1612,-0.3224 -0.2356,-2.0586 -0.2356,-3.9685"
     id="path218"
     inkscape:connector-curvature="0"
     style="stroke-width:0.79370099" />
  <polyline
     class="LedgerLine"
     points="224.758,1474.02 277.061,1474.02"
     id="polyline226"
     style="stroke:#000000;stroke-width:3.17000008;stroke-linejoin:bevel"
     transform="translate(-102.85,-1425.3137)" />
  <polyline
     class="LedgerLine"
     points="2316.1,1593.07 2368.4,1593.07"
     id="polyline228"
     style="stroke:#000000;stroke-width:3.17000008;stroke-linejoin:bevel"
     transform="translate(-102.85,-1425.3137)" />
  <polyline
     class="LedgerLine"
     points="225.155,3140.79 277.458,3140.79"
     id="polyline230"
     transform="translate(-102.85,-2599.621)"
     style="stroke:#000000;stroke-width:3.17000008;stroke-linejoin:bevel" />
  <polyline
     class="LedgerLine"
     points="225.155,3120.95 277.458,3120.95"
     id="polyline232"
     transform="translate(-102.85,-2599.621)"
     style="stroke:#000000;stroke-width:3.17000008;stroke-linejoin:bevel" />
  <polyline
     class="LedgerLine"
     points="225.155,3101.1 277.458,3101.1"
     id="polyline234"
     transform="translate(-102.85,-2599.621)"
     style="stroke:#000000;stroke-width:3.17000008;stroke-linejoin:bevel" />
  <polyline
     class="LedgerLine"
     points="1382.87,3140.79 1424.86,3140.79"
     id="polyline236"
     transform="translate(-102.85,-2599.621)"
     style="stroke:#000000;stroke-width:3.17000008;stroke-linejoin:bevel" />
  <polyline
     class="LedgerLine"
     points="1382.87,3120.95 1424.86,3120.95"
     id="polyline238"
     transform="translate(-102.85,-2599.621)"
     style="stroke:#000000;stroke-width:3.17000008;stroke-linejoin:bevel" />
  <polyline
     class="LedgerLine"
     points="1382.87,3101.1 1424.86,3101.1"
     id="polyline240"
     transform="translate(-102.85,-2599.621)"
     style="stroke:#000000;stroke-width:3.17000008;stroke-linejoin:bevel" />
  <polyline
     class="LedgerLine"
     points="1838.64,3120.95 1890.94,3120.95"
     id="polyline242"
     transform="translate(-102.85,-2599.621)"
     style="stroke:#000000;stroke-width:3.17000008;stroke-linejoin:bevel" />
  <polyline
     class="LedgerLine"
     points="1838.64,3101.1 1890.94,3101.1"
     id="polyline244"
     transform="translate(-102.85,-2599.621)"
     style="stroke:#000000;stroke-width:3.17000008;stroke-linejoin:bevel" />
  <polyline
     class="Stem"
     points="1392,3143.45 1392,3216.3"
     id="polyline278"
     transform="translate(-102.85,-2599.621)"
     style="stroke:#000000;stroke-width:2.38000011;stroke-linejoin:bevel" />
  <polyline
     class="Stem"
     points="263.172,3019.07 263.172,2923.53"
     id="polyline280"
     transform="translate(-102.85,-2599.621)"
     style="stroke:#000000;stroke-width:2.38000011;stroke-linejoin:bevel" />
  <polyline
     class="Stem"
     points="1392,3034.32 1392,3062.11"
     id="polyline282"
     transform="translate(-102.85,-2599.621)"
     style="stroke:#000000;stroke-width:2.38000011;stroke-linejoin:bevel" />
  <polyline
     class="Stem"
     points="1847.76,3044.24 1847.76,3086.26"
     id="polyline284"
     transform="translate(-102.85,-2599.621)"
     style="stroke:#000000;stroke-width:2.38000011;stroke-linejoin:bevel" />
  <polyline
     class="Stem"
     points="2680.67,2989.3 2680.67,2942.36"
     id="polyline286"
     transform="translate(-102.85,-2599.621)"
     style="stroke:#000000;stroke-width:2.38000011;stroke-linejoin:bevel" />
  <path
     class="Note"
     d="m 130.242,540.99909 c 0,5.7915 4.92343,10.9506 17.7839,10.9506 14.12534,0 18.65198,-4.911 18.65198,-10.9506 0,-6.114 -9.76007,-10.7149 -17.78391,-10.7149 -11.50866,0 -18.65197,4.8489 -18.65197,10.7149 m 9.28876,-3.1748 c 0,-4.4398 3.08805,-5.5559 7.14331,-5.5559 5.87839,0 10.64059,6.3496 10.64059,11.5955 0,4.3653 -2.70358,6.1016 -6.59763,6.1016 -5.71711,0 -11.18627,-6.5853 -11.18627,-12.1412"
     id="path592"
     inkscape:connector-curvature="0"
     style="stroke-width:0.79370099" />
  <path
     class="Note"
     d="m 1287.96,544.89319 c 0,4.601 3.8073,7.3789 8.5695,7.3789 7.8626,0 17.5483,-7.3045 17.5483,-14.8447 0,-4.4397 -3.5717,-7.3789 -8.6564,-7.3789 -9.6856,0 -17.4614,7.2177 -17.4614,14.8447"
     id="path594"
     inkscape:connector-curvature="0"
     style="stroke-width:0.79370099" />
  <path
     class="Note"
     d="m 1743.72,531.07909 c 0,5.7915 4.9234,10.9506 17.7839,10.9506 14.1253,0 18.652,-4.911 18.652,-10.9506 0,-6.114 -9.7601,-10.7149 -17.7839,-10.7149 -11.5087,0 -18.652,4.8489 -18.652,10.7149 m 9.2888,-3.1748 c 0,-4.4398 3.088,-5.5559 7.1433,-5.5559 5.8784,0 10.6406,6.3496 10.6406,11.5955 0,4.3653 -2.7036,6.1016 -6.5977,6.1016 -5.7171,0 -11.1862,-6.5853 -11.1862,-12.1412"
     id="path596"
     inkscape:connector-curvature="0"
     style="stroke-width:0.79370099" />
  <path
     class="Note"
     d="m 129.845,137.83507 c 0,5.79153 4.92343,10.95063 17.7839,10.95063 14.12534,0 18.65198,-4.91106 18.65198,-10.95063 0,-6.11398 -9.76007,-10.71495 -17.78391,-10.71495 -11.50866,0 -18.65197,4.849 -18.65197,10.71495 m 9.28876,-3.17481 c 0,-4.43977 3.08805,-5.55588 7.14331,-5.55588 5.87839,0 10.64059,6.34958 10.64059,11.59545 0,4.36536 -2.70358,6.10162 -6.59763,6.10162 -5.71711,0 -11.18627,-6.58528 -11.18627,-12.14119"
     id="path598"
     inkscape:connector-curvature="0"
     style="stroke-width:0.79370099" />
  <path
     class="Note"
     d="m 129.845,98.145067 c 0,5.791533 4.92343,10.950633 17.7839,10.950633 14.12534,0 18.65198,-4.91106 18.65198,-10.950633 0,-6.113978 -9.76007,-10.714944 -17.78391,-10.714944 -11.50866,0 -18.65197,4.848997 -18.65197,10.714944 m 9.28876,-3.174808 c 0,-4.439765 3.08805,-5.555883 7.14331,-5.555883 5.87839,0 10.64059,6.349584 10.64059,11.595454 0,4.36536 -2.70358,6.10162 -6.59763,6.10162 -5.71711,0 -11.18627,-6.58528 -11.18627,-12.141191"
     id="path600"
     inkscape:connector-curvature="0"
     style="stroke-width:0.79370099" />
  <path
     class="Note"
     d="m 129.845,48.545067 c 0,5.791537 4.92343,10.950633 17.7839,10.950633 14.12534,0 18.65198,-4.911065 18.65198,-10.950633 0,-6.113978 -9.76007,-10.714944 -17.78391,-10.714944 -11.50866,0 -18.65197,4.848997 -18.65197,10.714944 m 9.28876,-3.174808 c 0,-4.439765 3.08805,-5.555883 7.14331,-5.555883 5.87839,0 10.64059,6.349584 10.64059,11.595455 0,4.365356 -2.70358,6.101616 -6.59763,6.101616 -5.71711,0 -11.18627,-6.585273 -11.18627,-12.141188"
     id="path602"
     inkscape:connector-curvature="0"
     style="stroke-width:0.79370099" />
  <path
     class="Note"
     d="m 848.847,147.75507 c 0,5.79153 4.92343,10.95063 17.7839,10.95063 14.12534,0 18.65198,-4.91106 18.65198,-10.95063 0,-6.11398 -9.76007,-10.71495 -17.78391,-10.71495 -11.50866,0 -18.65197,4.849 -18.65197,10.71495 m 9.28876,-3.17481 c 0,-4.43977 3.08805,-5.55588 7.14331,-5.55588 5.87839,0 10.64059,6.34958 10.64059,11.59545 0,4.36536 -2.70358,6.10162 -6.59763,6.10162 -5.71711,0 -11.18627,-6.58528 -11.18627,-12.14119"
     id="path604"
     inkscape:connector-curvature="0"
     style="stroke-width:0.79370099" />
  <path
     class="Note"
     d="m 848.847,98.145067 c 0,5.791533 4.92343,10.950633 17.7839,10.950633 14.12534,0 18.65198,-4.91106 18.65198,-10.950633 0,-6.113978 -9.76007,-10.714944 -17.78391,-10.714944 -11.50866,0 -18.65197,4.848997 -18.65197,10.714944 m 9.28876,-3.174808 c 0,-4.439765 3.08805,-5.555883 7.14331,-5.555883 5.87839,0 10.64059,6.349584 10.64059,11.595454 0,4.36536 -2.70358,6.10162 -6.59763,6.10162 -5.71711,0 -11.18627,-6.58528 -11.18627,-12.141191"
     id="path606"
     inkscape:connector-curvature="0"
     style="stroke-width:0.79370099" />
  <path
     class="Note"
     d="m 848.847,58.465067 c 0,5.791537 4.92343,10.950633 17.7839,10.950633 14.12534,0 18.65198,-4.911065 18.65198,-10.950633 0,-6.113978 -9.76007,-10.714944 -17.78391,-10.714944 -11.50866,0 -18.65197,4.848997 -18.65197,10.714944 m 9.28876,-3.174808 c 0,-4.439765 3.08805,-5.555883 7.14331,-5.555883 5.87839,0 10.64059,6.349584 10.64059,11.595455 0,4.365356 -2.70358,6.101616 -6.59763,6.101616 -5.71711,0 -11.18627,-6.585273 -11.18627,-12.141188"
     id="path608"
     inkscape:connector-curvature="0"
     style="stroke-width:0.79370099" />
  <path
     class="Note"
     d="m 1567.91,157.67507 c 0,5.79153 4.9234,10.95063 17.7839,10.95063 14.1253,0 18.652,-4.91106 18.652,-10.95063 0,-6.11398 -9.7601,-10.71495 -17.7839,-10.71495 -11.5087,0 -18.652,4.849 -18.652,10.71495 m 9.2888,-3.17481 c 0,-4.43977 3.088,-5.55588 7.1433,-5.55588 5.8784,0 10.6406,6.34958 10.6406,11.59545 0,4.36536 -2.7036,6.10162 -6.5977,6.10162 -5.7171,0 -11.1862,-6.58528 -11.1862,-12.14119"
     id="path610"
     inkscape:connector-curvature="0"
     style="stroke-width:0.79370099" />
  <path
     class="Note"
     d="m 1567.91,108.06507 c 0,5.79153 4.9234,10.95063 17.7839,10.95063 14.1253,0 18.652,-4.91106 18.652,-10.95063 0,-6.11398 -9.7601,-10.714947 -17.7839,-10.714947 -11.5087,0 -18.652,4.848997 -18.652,10.714947 m 9.2888,-3.17481 c 0,-4.43977 3.088,-5.555884 7.1433,-5.555884 5.8784,0 10.6406,6.349584 10.6406,11.595454 0,4.36536 -2.7036,6.10162 -6.5977,6.10162 -5.7171,0 -11.1862,-6.58528 -11.1862,-12.14119"
     id="path612"
     inkscape:connector-curvature="0"
     style="stroke-width:0.79370099" />
  <path
     class="Note"
     d="m 1567.91,68.385067 c 0,5.791537 4.9234,10.950633 17.7839,10.950633 14.1253,0 18.652,-4.911065 18.652,-10.950633 0,-6.113978 -9.7601,-10.714944 -17.7839,-10.714944 -11.5087,0 -18.652,4.848997 -18.652,10.714944 m 9.2888,-3.174808 c 0,-4.439765 3.088,-5.555883 7.1433,-5.555883 5.8784,0 10.6406,6.349584 10.6406,11.595455 0,4.365356 -2.7036,6.101616 -6.5977,6.101616 -5.7171,0 -11.1862,-6.585273 -11.1862,-12.141188"
     id="path614"
     inkscape:connector-curvature="0"
     style="stroke-width:0.79370099" />
  <path
     class="Note"
     d="m 2221.18,167.59507 c 0,5.79153 4.9234,10.95063 17.7839,10.95063 14.1253,0 18.652,-4.91106 18.652,-10.95063 0,-6.11398 -9.7601,-10.71495 -17.7839,-10.71495 -11.5087,0 -18.652,4.849 -18.652,10.71495 m 9.2888,-3.17481 c 0,-4.43977 3.088,-5.55588 7.1433,-5.55588 5.8784,0 10.6406,6.34958 10.6406,11.59545 0,4.36536 -2.7036,6.10162 -6.5977,6.10162 -5.7171,0 -11.1862,-6.58528 -11.1862,-12.14119"
     id="path616"
     inkscape:connector-curvature="0"
     style="stroke-width:0.79370099" />
  <path
     class="Note"
     d="m 2221.18,98.145067 c 0,5.791533 4.9234,10.950633 17.7839,10.950633 14.1253,0 18.652,-4.91106 18.652,-10.950633 0,-6.113978 -9.7601,-10.714944 -17.7839,-10.714944 -11.5087,0 -18.652,4.848997 -18.652,10.714944 m 9.2888,-3.174808 c 0,-4.439765 3.088,-5.555883 7.1433,-5.555883 5.8784,0 10.6406,6.349584 10.6406,11.595454 0,4.36536 -2.7036,6.10162 -6.5977,6.10162 -5.7171,0 -11.1862,-6.58528 -11.1862,-12.141191"
     id="path618"
     inkscape:connector-curvature="0"
     style="stroke-width:0.79370099" />
  <path
     class="Note"
     d="m 2221.18,78.305067 c 0,5.791537 4.9234,10.950633 17.7839,10.950633 14.1253,0 18.652,-4.911065 18.652,-10.950633 0,-6.113978 -9.7601,-10.714944 -17.7839,-10.714944 -11.5087,0 -18.652,4.848997 -18.652,10.714944 m 9.2888,-3.174808 c 0,-4.439765 3.088,-5.555883 7.1433,-5.555883 5.8784,0 10.6406,6.349584 10.6406,11.595455 0,4.365356 -2.7036,6.101616 -6.5977,6.101616 -5.7171,0 -11.1862,-6.585273 -11.1862,-12.141188"
     id="path620"
     inkscape:connector-curvature="0"
     style="stroke-width:0.79370099" />
  <path
     class="Note"
     d="m 143.97051,433.21209 c 14.60902,0 17.54825,-11.9055 17.54825,-14.7578 0,-4.5266 -3.57165,-7.4658 -8.73071,-7.4658 -13.25732,0 -17.38705,10.2437 -17.38705,14.8447 0,4.6754 3.73288,7.3789 8.56951,7.3789 m -5.95277,-7.2177 c 0,-4.2909 12.78606,-11.3598 16.99014,-11.3598 1.66185,0 2.61675,0.7937 3.24925,1.9098 0.24803,0.4713 0.48368,1.0293 0.48368,1.6618 0,1.7486 -1.82305,3.8941 -8.02384,7.937 -3.96851,2.7036 -6.74646,3.6585 -8.64392,3.6585 -1.83543,0 -2.93917,-0.9549 -3.49725,-2.0711 -0.32244,-0.4712 -0.55806,-1.1037 -0.55806,-1.7362"
     id="path622"
     inkscape:connector-curvature="0"
     style="stroke-width:0.79370099" />
  <path
     class="Note"
     d="m 1287.96,435.75319 c 0,4.601 3.8073,7.3789 8.5695,7.3789 7.8626,0 17.5483,-7.3045 17.5483,-14.8447 0,-4.4397 -3.5717,-7.3789 -8.6564,-7.3789 -9.6856,0 -17.4614,7.2177 -17.4614,14.8447"
     id="path624"
     inkscape:connector-curvature="0"
     style="stroke-width:0.79370099" />
  <path
     class="Note"
     d="m 1743.72,445.67319 c 0,4.601 3.8073,7.3789 8.5695,7.3789 7.8626,0 17.5483,-7.3045 17.5483,-14.8447 0,-4.4397 -3.5717,-7.3789 -8.6564,-7.3789 -9.6856,0 -17.4614,7.2177 -17.4614,14.8447"
     id="path626"
     inkscape:connector-curvature="0"
     style="stroke-width:0.79370099" />
  <path
     class="Note"
     d="m 2552.9,396.07319 c 0,4.601 3.8073,7.3789 8.5695,7.3789 7.8626,0 17.5483,-7.3045 17.5483,-14.8447 0,-4.4397 -3.5717,-7.3789 -8.6564,-7.3789 -9.6856,0 -17.4614,7.2177 -17.4614,14.8447"
     id="path628"
     inkscape:connector-curvature="0"
     style="stroke-width:0.79370099" />
  <path
     class="Clef"
     d="m 47.944717,148.08001 c 1.822972,0 3.881674,-0.1612 5.469076,-0.4836 0.880532,-0.14882 1.041732,-0.23565 1.190551,0.71925 0.954902,5.32026 2.145454,12.228 2.145454,15.96085 0,11.74432 -7.93701,13.17044 -12.612386,13.17044 -4.290985,0 -6.361989,-1.26492 -6.361989,-2.30665 0,-0.54567 0.719252,-0.7937 2.542303,-1.33937 2.467934,-0.71934 5.320258,-2.86479 5.320258,-7.46579 0,-4.36536 -2.777954,-8.09821 -7.61453,-8.09821 -5.320336,0 -8.49514,4.20415 -8.49514,9.12756 0,5.15905 3.088052,12.93486 15.080319,12.93486 5.320336,0 15.638449,-2.3811 15.638449,-15.87402 0,-4.51417 -1.426201,-12.05433 -2.306733,-16.97774 -0.161201,-0.95498 -0.07437,-0.88053 1.029351,-1.35183 8.023841,-3.1748 13.344098,-9.92126 13.344098,-18.88758 0,-10.16934 -7.46579,-19.13562 -19.135655,-19.13562 -2.058622,0 -2.058622,0 -2.294272,-1.4262 L 48.899618,95.137696 c -0.1612,-0.954902 0,-1.029351 0.471221,-1.513032 8.56951,-8.01138 15.080319,-18.093843 15.080319,-30.235008 0,-6.907659 -1.909804,-13.740949 -5.159057,-18.503552 -1.190551,-1.735824 -3.249174,-3.968505 -4.129705,-3.968505 -1.103721,0 -3.571655,2.07156 -5.159057,3.820083 -5.865927,6.498427 -7.775809,16.41969 -7.775809,24.679101 0,4.601005 0.55813,9.760062 1.116181,13.021697 0.148819,0.954901 0.23565,1.10372 -0.719331,1.897421 C 31.190165,93.785944 19.049,105.13333 19.049,121.1686 c 0,13.81537 9.450042,26.91141 28.895717,26.91141 M 25.398608,126.48889 c 0,-4.6878 0.793701,-10.95062 7.378959,-18.41633 4.762206,-5.32033 8.420691,-8.259489 12.153546,-11.273092 0.793701,-0.632421 0.94252,-0.558052 1.103721,0.32248 l 1.674233,10.156912 c 0.23565,1.51295 0.23565,1.42612 -1.190552,1.9098 -6.99449,2.38111 -11.521046,8.64388 -11.521046,15.39038 0,7.14331 3.732855,12.22796 9.139943,14.05101 0.632501,0.23565 1.587402,0.48368 2.133072,0.48368 0.644882,0 0.954902,-0.39685 0.954902,-0.88053 0,-0.55805 -0.632501,-0.7937 -1.190552,-1.02935 -3.336005,-1.42618 -5.717108,-4.83662 -5.717108,-8.49508 0,-4.52658 3.100355,-7.93702 7.93701,-9.28882 1.277383,-0.31002 1.438583,-0.23557 1.587402,0.64488 l 3.968505,23.64983 c 0.161201,0.86815 0.08683,0.86815 -1.10372,1.1038 -1.277383,0.24803 -2.864785,0.39685 -4.452187,0.39685 -13.889767,0 -22.856128,-7.68898 -22.856128,-18.72642 M 56.352947,53.220362 c 2.616753,0 4.762206,2.145453 4.762206,6.510808 0,8.817542 -7.540159,15.960851 -13.802937,21.429927 -0.558051,0.483682 -0.880531,0.396851 -1.041732,-0.6325 -0.31002,-2.058622 -0.4713,-4.762206 -0.4713,-7.30451 0,-12.376735 5.717187,-20.003725 10.553763,-20.003725 m -2.294272,65.567168 c 6.423978,0.55805 11.744314,5.95273 11.744314,12.93482 0,5.01028 -3.013603,9.05315 -7.465789,11.27306 -0.954902,0.48368 -1.103721,0.48368 -1.264922,-0.4713 l -3.894135,-22.62048 c -0.161201,-0.9549 -0.07437,-1.19055 0.880532,-1.1161"
     id="path986"
     inkscape:connector-curvature="0"
     style="stroke-width:0.79370099" />
  <path
     class="Clef"
     d="m 48.34172,481.79399 c 1.82297,0 3.88167,-0.1612 5.46907,-0.4836 0.88053,-0.1488 1.04174,-0.2356 1.19055,0.7193 0.95491,5.3202 2.14546,12.228 2.14546,15.9608 0,11.7444 -7.93701,13.1705 -12.61239,13.1705 -4.29098,0 -6.36199,-1.2649 -6.36199,-2.3067 0,-0.5456 0.71925,-0.7937 2.54231,-1.3393 2.46793,-0.7194 5.32025,-2.8648 5.32025,-7.4658 0,-4.3654 -2.77795,-8.0982 -7.61453,-8.0982 -5.32033,0 -8.49514,4.2041 -8.49514,9.1275 0,5.1591 3.08806,12.9349 15.08032,12.9349 5.32034,0 15.63845,-2.3811 15.63845,-15.874 0,-4.5142 -1.4262,-12.0544 -2.30673,-16.9778 -0.1612,-0.955 -0.0744,-0.8805 1.02935,-1.3518 8.02384,-3.1748 13.3441,-9.9213 13.3441,-18.8876 0,-10.1693 -7.46579,-19.1356 -19.13566,-19.1356 -2.05862,0 -2.05862,0 -2.29427,-1.4262 l -1.98425,-11.5087 c -0.1612,-0.9549 0,-1.0293 0.47122,-1.513 8.56951,-8.0114 15.08032,-18.0938 15.08032,-30.235 0,-6.9077 -1.90981,-13.741 -5.15906,-18.5036 -1.19055,-1.7358 -3.24917,-3.9685 -4.1297,-3.9685 -1.10373,0 -3.57166,2.0716 -5.15906,3.8201 -5.86593,6.4984 -7.77581,16.4197 -7.77581,24.6791 0,4.601 0.55813,9.7601 1.11618,13.0217 0.14882,0.9549 0.23565,1.1037 -0.71933,1.8974 -11.43422,9.4501 -23.57538,20.7975 -23.57538,36.8327 0,13.8154 9.45004,26.9114 28.89572,26.9114 m -22.54611,-21.5911 c 0,-4.6878 0.7937,-10.9506 7.37896,-18.4163 4.7622,-5.3203 8.42069,-8.2595 12.15354,-11.2731 0.7937,-0.6324 0.94252,-0.5581 1.10372,0.3225 l 1.67424,10.1569 c 0.23565,1.5129 0.23565,1.4261 -1.19055,1.9098 -6.99449,2.3811 -11.52105,8.6439 -11.52105,15.3904 0,7.1433 3.73285,12.2279 9.13994,14.051 0.6325,0.2356 1.5874,0.4837 2.13307,0.4837 0.64489,0 0.95491,-0.3969 0.95491,-0.8806 0,-0.558 -0.6325,-0.7937 -1.19056,-1.0293 -3.336,-1.4262 -5.7171,-4.8366 -5.7171,-8.4951 0,-4.5266 3.10035,-7.937 7.93701,-9.2888 1.27738,-0.31 1.43858,-0.2356 1.5874,0.6449 l 3.9685,23.6498 c 0.1612,0.8681 0.0868,0.8681 -1.10372,1.1038 -1.27738,0.248 -2.86478,0.3968 -4.45218,0.3968 -13.88977,0 -22.85613,-7.6889 -22.85613,-18.7264 m 30.95434,-73.2685 c 2.61675,0 4.7622,2.1454 4.7622,6.5108 0,8.8175 -7.54016,15.9609 -13.80293,21.4299 -0.55805,0.4837 -0.88054,0.3969 -1.04174,-0.6325 -0.31002,-2.0586 -0.4713,-4.7622 -0.4713,-7.3045 0,-12.3767 5.71719,-20.0037 10.55377,-20.0037 m -2.29428,65.5672 c 6.42398,0.558 11.74432,5.9527 11.74432,12.9348 0,5.0103 -3.0136,9.0531 -7.46579,11.273 -0.9549,0.4837 -1.10372,0.4837 -1.26492,-0.4713 l -3.89414,-22.6204 c -0.1612,-0.9549 -0.0744,-1.1906 0.88053,-1.1161"
     id="path988"
     inkscape:connector-curvature="0"
     style="stroke-width:0.79370099" />
  <polyline
     class="TextLineSegment"
     points="160.099,2921.37 260.84,2926.52"
     id="polyline1150"
     transform="translate(-102.85,-2599.621)"
     style="stroke:#000000;stroke-width:8.93000031;stroke-linecap:square;stroke-linejoin:bevel" />
  <path
     class="SlurSegment"
     d="M 17.662955,367.41519 C 45.09216,351.80448 136.14268,377.21832 147.2216,390.49049 125.36438,375.16637 53.076997,363.92453 33.631429,366.01795"
     id="path112-9"
     inkscape:connector-curvature="0"
     style="fill-rule:evenodd;stroke:#000000;stroke-width:0.31061658;stroke-linecap:round;stroke-linejoin:round"
     sodipodi:nodetypes="ccc" />
</svg>
