<?xml version="1.0" encoding="UTF-8" standalone="no"?>
<svg
   xmlns:dc="http://purl.org/dc/elements/1.1/"
   xmlns:cc="http://creativecommons.org/ns#"
   xmlns:rdf="http://www.w3.org/1999/02/22-rdf-syntax-ns#"
   xmlns:svg="http://www.w3.org/2000/svg"
   xmlns="http://www.w3.org/2000/svg"
   xmlns:sodipodi="http://sodipodi.sourceforge.net/DTD/sodipodi-0.dtd"
   xmlns:inkscape="http://www.inkscape.org/namespaces/inkscape"
   width="1530.817"
   height="1081.769"
   viewBox="0 0 1530.8171 1081.769"
   version="1.2"
   id="svg1504"
   sodipodi:docname="Popsong - Bass, Drums-1-2.svg"
   inkscape:version="0.92.3 (2405546, 2018-03-11)">
  <metadata
     id="metadata1510">
    <rdf:RDF>
      <cc:Work
         rdf:about="">
        <dc:format>image/svg+xml</dc:format>
        <dc:type
           rdf:resource="http://purl.org/dc/dcmitype/StillImage" />
        <dc:title>Popsong - Bass, Drums</dc:title>
      </cc:Work>
    </rdf:RDF>
  </metadata>
  <defs
     id="defs1508" />
  <sodipodi:namedview
     pagecolor="#ffffff"
     bordercolor="#666666"
     borderopacity="1"
     objecttolerance="10"
     gridtolerance="10"
     guidetolerance="10"
     inkscape:pageopacity="0"
     inkscape:pageshadow="2"
     inkscape:window-width="3840"
     inkscape:window-height="2066"
     id="namedview1506"
     showgrid="false"
     inkscape:zoom="0.44281317"
     inkscape:cx="1193.9335"
     inkscape:cy="-56.165098"
     inkscape:window-x="-11"
     inkscape:window-y="-11"
     inkscape:window-maximized="1"
     inkscape:current-layer="svg1504" />
  <title
     id="title2">Popsong - Bass, Drums</title>
  <desc
     id="desc4">Generated by MuseScore 3.6.2</desc>
  <polyline
     class="StaffLines"
     points="324.984,984.331 2763.78,984.331"
     id="polyline26"
     transform="matrix(0.56478701,0,0,1,-71.52074,-966.791)"
     style="fill:none;stroke:#000000;stroke-width:2.56999993;stroke-linejoin:bevel" />
  <polyline
     class="StaffLines"
     points="324.984,1007.72 2763.78,1007.72"
     id="polyline28"
     transform="matrix(0.56478701,0,0,1,-71.52074,-966.791)"
     style="fill:none;stroke:#000000;stroke-width:2.56999993;stroke-linejoin:bevel" />
  <polyline
     class="StaffLines"
     points="324.984,1031.1 2763.78,1031.1"
     id="polyline30"
     transform="matrix(0.56478701,0,0,1,-71.52074,-966.791)"
     style="fill:none;stroke:#000000;stroke-width:2.56999993;stroke-linejoin:bevel" />
  <polyline
     class="StaffLines"
     points="324.984,1054.49 2763.78,1054.49"
     id="polyline32"
     transform="matrix(0.56478701,0,0,1,-71.52074,-966.791)"
     style="fill:none;stroke:#000000;stroke-width:2.56999993;stroke-linejoin:bevel" />
  <polyline
     class="StaffLines"
     points="324.984,1077.87 2763.78,1077.87"
     id="polyline34"
     transform="matrix(0.56478701,0,0,1,-71.52074,-966.791)"
     style="fill:none;stroke:#000000;stroke-width:2.56999993;stroke-linejoin:bevel" />
  <polyline
     class="StaffLines"
     points="324.984,1264.96 2763.78,1264.96"
     id="polyline36"
     transform="matrix(0.56478701,0,0,1,-71.52074,-966.791)"
     style="fill:none;stroke:#000000;stroke-width:2.56999993;stroke-linejoin:bevel" />
  <polyline
     class="StaffLines"
     points="324.984,1288.35 2763.78,1288.35"
     id="polyline38"
     transform="matrix(0.56478701,0,0,1,-71.52074,-966.791)"
     style="fill:none;stroke:#000000;stroke-width:2.56999993;stroke-linejoin:bevel" />
  <polyline
     class="StaffLines"
     points="324.984,1311.73 2763.78,1311.73"
     id="polyline40"
     transform="matrix(0.56478701,0,0,1,-71.52074,-966.791)"
     style="fill:none;stroke:#000000;stroke-width:2.56999993;stroke-linejoin:bevel" />
  <polyline
     class="StaffLines"
     points="324.984,1335.12 2763.78,1335.12"
     id="polyline42"
     transform="matrix(0.56478701,0,0,1,-71.52074,-966.791)"
     style="fill:none;stroke:#000000;stroke-width:2.56999993;stroke-linejoin:bevel" />
  <polyline
     class="StaffLines"
     points="324.984,1358.5 2763.78,1358.5"
     id="polyline44"
     transform="matrix(0.56478701,0,0,1,-71.52074,-966.791)"
     style="fill:none;stroke:#000000;stroke-width:2.56999993;stroke-linejoin:bevel" />
  <polyline
     class="StaffLines"
     points="324.984,2200.39 2763.78,2200.39"
     id="polyline66"
     transform="matrix(0.57867678,0,0,1,-76.0347,-1546.791)"
     style="fill:none;stroke:#000000;stroke-width:2.56999993;stroke-linejoin:bevel" />
  <polyline
     class="StaffLines"
     points="324.984,2223.78 2763.78,2223.78"
     id="polyline68"
     transform="matrix(0.57867678,0,0,1,-76.0347,-1546.791)"
     style="fill:none;stroke:#000000;stroke-width:2.56999993;stroke-linejoin:bevel" />
  <polyline
     class="StaffLines"
     points="324.984,2247.17 2763.78,2247.17"
     id="polyline70"
     transform="matrix(0.57867678,0,0,1,-76.0347,-1546.791)"
     style="fill:none;stroke:#000000;stroke-width:2.56999993;stroke-linejoin:bevel" />
  <polyline
     class="StaffLines"
     points="324.984,2270.55 2763.78,2270.55"
     id="polyline72"
     transform="matrix(0.57867678,0,0,1,-76.0347,-1546.791)"
     style="fill:none;stroke:#000000;stroke-width:2.56999993;stroke-linejoin:bevel" />
  <polyline
     class="StaffLines"
     points="324.984,2293.94 2763.78,2293.94"
     id="polyline74"
     transform="matrix(0.57867678,0,0,1,-76.0347,-1546.791)"
     style="fill:none;stroke:#000000;stroke-width:2.56999993;stroke-linejoin:bevel" />
  <polyline
     class="StaffLines"
     points="324.984,2481.02 2763.78,2481.02"
     id="polyline76"
     transform="matrix(0.57867678,0,0,1,-76.0347,-1546.791)"
     style="fill:none;stroke:#000000;stroke-width:2.56999993;stroke-linejoin:bevel" />
  <polyline
     class="StaffLines"
     points="324.984,2504.41 2763.78,2504.41"
     id="polyline78"
     transform="matrix(0.57867678,0,0,1,-76.0347,-1546.791)"
     style="fill:none;stroke:#000000;stroke-width:2.56999993;stroke-linejoin:bevel" />
  <polyline
     class="StaffLines"
     points="324.984,2527.8 2763.78,2527.8"
     id="polyline80"
     transform="matrix(0.57867678,0,0,1,-76.0347,-1546.791)"
     style="fill:none;stroke:#000000;stroke-width:2.56999993;stroke-linejoin:bevel" />
  <polyline
     class="StaffLines"
     points="324.984,2551.18 2763.78,2551.18"
     id="polyline82"
     transform="matrix(0.57867678,0,0,1,-76.0347,-1546.791)"
     style="fill:none;stroke:#000000;stroke-width:2.56999993;stroke-linejoin:bevel" />
  <polyline
     class="StaffLines"
     points="324.984,2574.57 2763.78,2574.57"
     id="polyline84"
     transform="matrix(0.57867678,0,0,1,-76.0347,-1546.791)"
     style="fill:none;stroke:#000000;stroke-width:2.56999993;stroke-linejoin:bevel" />
  <path
     class="InstrumentName"
     d="m 0,361.439 h 15.797 c 4.187,0 7.375,-0.65 9.859,-2.06 4.75,-2.69 7.391,-8.05 7.391,-15.09 0,-6.49 -2.36,-11.57 -6.672,-14.38 -2.594,-1.66 -6.063,-2.41 -11.422,-2.41 H 0 v 2.22 h 0.89 c 2.641,0.05 3.532,0.19 3.907,0.66 0.281,0.42 0.281,0.52 0.281,2.91 v 22.37 c 0,2.39 0,2.49 -0.281,2.92 -0.375,0.47 -1.266,0.61 -3.907,0.66 H 0 v 2.2 m 13.015,-2.2 c -2.39,0 -2.671,-0.28 -2.671,-2.59 v -24.3 c 0,-2.3 0.328,-2.63 2.671,-2.63 h 2.454 c 8.031,0 11.375,4.36 11.375,14.75 0,10.53 -3.016,14.77 -10.625,14.77 h -3.204 m 31.938,-19.7 -8.328,0.51 v 2.03 h 1.922 c 1.797,0.05 2.031,0.33 2.031,2.35 v 11.23 2.2 c -0.047,0.72 -0.094,1 -0.281,1.24 -0.328,0.42 -1.266,0.61 -3.297,0.65 h -0.188 v 1.69 h 12.547 v -1.69 h -0.844 c -3.14,-0.09 -3.562,-0.32 -3.562,-2.03 v -2.06 -0.47 c 0.047,-7.89 2.859,-13.9 6.531,-14.09 -0.656,0.75 -0.859,1.22 -0.859,2.11 0,1.5 1.094,2.58 2.594,2.58 1.734,0 2.859,-1.27 2.859,-3.14 0,-2.32 -1.594,-3.82 -4.078,-3.82 -2.969,0 -5.5,2.36 -7.047,6.53 v -5.82 m 30.016,-0.52 h -1.641 l -1.359,1.7 c -1.704,-1.32 -3.391,-1.89 -5.735,-1.89 -4.14,0 -6.875,2.69 -6.875,6.82 0,1.84 0.625,3.39 1.656,4.32 1.079,0.99 2.157,1.46 4.985,2.11 l 2.484,0.58 c 3.719,0.89 5.031,1.83 5.031,3.7 0,2.22 -1.937,3.77 -4.656,3.77 -4,0 -6.812,-2.55 -7.937,-7.23 h -1.891 v 8.87 h 1.656 l 1.641,-1.92 c 1.922,1.55 4.047,2.3 6.437,2.3 4.61,0 7.657,-2.86 7.657,-7.24 0,-2.06 -0.657,-3.67 -1.969,-4.75 -1.125,-0.98 -2.063,-1.36 -4.938,-1.97 l -2.343,-0.51 c -2.594,-0.57 -2.594,-0.57 -3.438,-1.03 -1.031,-0.49 -1.64,-1.47 -1.64,-2.5 0,-1.93 1.781,-3.24 4.375,-3.24 1.781,0 3.234,0.61 4.546,1.88 1.047,1.03 1.563,1.96 2.313,4.14 h 1.641 v -7.91 m 10.109,17.2 c -1.641,0 -2.953,1.32 -2.953,2.93 0,1.64 1.312,2.95 2.906,2.95 1.641,0 2.969,-1.31 2.969,-2.95 0,-1.61 -1.328,-2.93 -2.922,-2.93"
     id="path94"
     inkscape:connector-curvature="0" />
  <path
     class="InstrumentName"
     d="m 0,997.509 h 15.797 c 4.187,0 7.375,-0.66 9.859,-2.07 4.75,-2.68 7.391,-8.04 7.391,-15.09 0,-6.49 -2.36,-11.56 -6.672,-14.38 -2.594,-1.65 -6.063,-2.4 -11.422,-2.4 H 0 v 2.22 h 0.89 c 2.641,0.04 3.532,0.18 3.907,0.65 0.281,0.42 0.281,0.52 0.281,2.91 v 22.37 c 0,2.39 0,2.49 -0.281,2.93 -0.375,0.46 -1.266,0.61 -3.907,0.65 H 0 v 2.21 m 13.015,-2.21 c -2.39,0 -2.671,-0.28 -2.671,-2.59 v -24.3 c 0,-2.3 0.328,-2.62 2.671,-2.62 h 2.454 c 8.031,0 11.375,4.36 11.375,14.75 0,10.53 -3.016,14.76 -10.625,14.76 h -3.204 m 31.938,-19.7 -8.328,0.51 v 2.04 h 1.922 c 1.797,0.04 2.031,0.32 2.031,2.34 v 11.23 2.21 c -0.047,0.72 -0.094,1 -0.281,1.23 -0.328,0.42 -1.266,0.61 -3.297,0.66 h -0.188 v 1.69 h 12.547 v -1.69 h -0.844 c -3.14,-0.1 -3.562,-0.33 -3.562,-2.03 v -2.07 -0.46 c 0.047,-7.9 2.859,-13.91 6.531,-14.1 -0.656,0.75 -0.859,1.22 -0.859,2.11 0,1.5 1.094,2.58 2.594,2.58 1.734,0 2.859,-1.27 2.859,-3.14 0,-2.31 -1.594,-3.81 -4.078,-3.81 -2.969,0 -5.5,2.36 -7.047,6.53 v -5.83 m 30.016,-0.52 h -1.641 l -1.359,1.71 c -1.704,-1.33 -3.391,-1.89 -5.735,-1.89 -4.14,0 -6.875,2.68 -6.875,6.81 0,1.84 0.625,3.39 1.656,4.33 1.079,0.98 2.157,1.45 4.985,2.11 l 2.484,0.57 c 3.719,0.89 5.031,1.83 5.031,3.71 0,2.22 -1.937,3.76 -4.656,3.76 -4,0 -6.812,-2.54 -7.937,-7.23 h -1.891 v 8.87 h 1.656 l 1.641,-1.92 c 1.922,1.55 4.047,2.3 6.437,2.3 4.61,0 7.657,-2.86 7.657,-7.24 0,-2.06 -0.657,-3.67 -1.969,-4.75 -1.125,-0.98 -2.063,-1.36 -4.938,-1.96 l -2.343,-0.52 c -2.594,-0.56 -2.594,-0.56 -3.438,-1.03 -1.031,-0.49 -1.64,-1.47 -1.64,-2.5 0,-1.92 1.781,-3.24 4.375,-3.24 1.781,0 3.234,0.61 4.546,1.88 1.047,1.03 1.563,1.97 2.313,4.14 h 1.641 v -7.91 m 10.109,17.21 c -1.641,0 -2.953,1.31 -2.953,2.92 0,1.64 1.312,2.95 2.906,2.95 1.641,0 2.969,-1.31 2.969,-2.95 0,-1.61 -1.328,-2.92 -2.922,-2.92"
     id="path98"
     inkscape:connector-curvature="0" />
  <path
     class="InstrumentName"
     d="m 46.047,46.869 v 2.22 h 0.843 c 2.688,0.05 3.579,0.19 3.954,0.66 0.281,0.42 0.281,0.52 0.281,2.91 v 22.37 c 0,2.39 0,2.49 -0.281,2.92 -0.375,0.47 -1.266,0.66 -3.954,0.66 h -0.843 v 2.2 h 17.062 c 8.125,0 13.016,-3.44 13.016,-9.22 0,-4.68 -2.953,-7.37 -9.391,-8.5 2.25,-0.47 3.281,-0.89 4.5,-1.78 1.938,-1.45 3.11,-3.76 3.11,-6.11 0,-3.06 -1.875,-6.01 -4.61,-7.18 -1.687,-0.77 -4.031,-1.15 -6.812,-1.15 H 46.047 m 10.343,15.29 v -10.72 c 0,-1.83 0.61,-2.3 3.094,-2.35 h 1.891 c 2.156,0 3.937,0.38 4.937,0.99 1.688,1.03 2.578,3 2.578,5.64 0,4.65 -2.25,6.44 -8.312,6.44 H 56.39 m 0,2.2 h 4.141 c 7.188,0 9.813,1.94 9.813,7.09 0,3.02 -1.032,5.17 -2.86,6.07 -1.453,0.76 -3.437,1.09 -6.39,1.09 h -1.985 c -2.344,0 -2.812,-0.47 -2.719,-2.97 v -11.28 m 28.688,11.23 c -1.641,0 -2.953,1.32 -2.953,2.93 0,1.64 1.312,2.95 2.906,2.95 1.641,0 2.969,-1.31 2.969,-2.95 0,-1.61 -1.328,-2.93 -2.922,-2.93"
     id="path102"
     inkscape:connector-curvature="0" />
  <path
     class="InstrumentName"
     d="m 46.047,682.939 v 2.22 h 0.843 c 2.688,0.04 3.579,0.18 3.954,0.65 0.281,0.42 0.281,0.52 0.281,2.91 v 22.37 c 0,2.39 0,2.49 -0.281,2.93 -0.375,0.46 -1.266,0.65 -3.954,0.65 h -0.843 v 2.21 h 17.062 c 8.125,0 13.016,-3.44 13.016,-9.22 0,-4.69 -2.953,-7.38 -9.391,-8.5 2.25,-0.47 3.281,-0.89 4.5,-1.78 1.938,-1.46 3.11,-3.77 3.11,-6.11 0,-3.07 -1.875,-6.02 -4.61,-7.19 -1.687,-0.77 -4.031,-1.14 -6.812,-1.14 H 46.047 m 10.343,15.28 v -10.72 c 0,-1.83 0.61,-2.3 3.094,-2.34 h 1.891 c 2.156,0 3.937,0.37 4.937,0.98 1.688,1.03 2.578,3 2.578,5.64 0,4.66 -2.25,6.44 -8.312,6.44 H 56.39 m 0,2.2 h 4.141 c 7.188,0 9.813,1.94 9.813,7.1 0,3.01 -1.032,5.17 -2.86,6.06 -1.453,0.76 -3.437,1.09 -6.39,1.09 h -1.985 c -2.344,0 -2.812,-0.47 -2.719,-2.97 v -11.28 m 28.688,11.24 c -1.641,0 -2.953,1.31 -2.953,2.92 0,1.64 1.312,2.95 2.906,2.95 1.641,0 2.969,-1.31 2.969,-2.95 0,-1.61 -1.328,-2.92 -2.922,-2.92"
     id="path106"
     inkscape:connector-curvature="0" />
  <path
     class="TieSegment"
     d="m 482.792,11.693 c 10.28,-12.628 41.13,-12.628 51.41,0 -10.28,-6.08 -41.13,-6.08 -51.41,0"
     id="path118"
     inkscape:connector-curvature="0"
     style="fill-rule:evenodd;stroke:#000000;stroke-width:1.63999999;stroke-linecap:round;stroke-linejoin:round" />
  <path
     class="TieSegment"
     d="m 478.562,764.689 c 11.02,6.08 44.08,6.08 55.1,0 -11.02,12.62 -44.08,12.62 -55.1,0"
     id="path130"
     inkscape:connector-curvature="0"
     style="fill-rule:evenodd;stroke:#000000;stroke-width:1.63999999;stroke-linecap:round;stroke-linejoin:round" />
  <polyline
     class="BarLine"
     points="327.089,1263.67 327.089,1359.79"
     id="polyline142"
     style="stroke:#000000;stroke-width:4.21000004;stroke-linejoin:bevel"
     transform="translate(-212.958,-966.791)" />
  <polyline
     class="BarLine"
     points="2039.67,1263.67 2039.67,1359.79"
     id="polyline148"
     transform="translate(-1266.958,-966.791)"
     style="stroke:#000000;stroke-width:4.21000004;stroke-linejoin:bevel" />
  <polyline
     class="BarLine"
     points="2761.67,1263.67 2761.67,1359.79"
     id="polyline150"
     transform="translate(-1266.958,-966.791)"
     style="stroke:#000000;stroke-width:4.21000004;stroke-linejoin:bevel" />
  <polyline
     class="BarLine"
     points="327.089,2479.74 327.089,2575.85"
     id="polyline162"
     transform="translate(-212.958,-1546.791)"
     style="stroke:#000000;stroke-width:4.21000004;stroke-linejoin:bevel" />
  <polyline
     class="BarLine"
     points="2008.98,2479.74 2008.98,2575.85"
     id="polyline168"
     transform="translate(-1232.958,-1546.791)"
     style="stroke:#000000;stroke-width:4.21000004;stroke-linejoin:bevel" />
  <polyline
     class="BarLine"
     points="2761.67,2479.74 2761.67,2575.85"
     id="polyline170"
     transform="translate(-1232.958,-1546.791)"
     style="stroke:#000000;stroke-width:4.21000004;stroke-linejoin:bevel" />
  <polyline
     class="BarLine"
     points="327.089,983.044 327.089,1264.96"
     id="polyline182"
     style="stroke:#000000;stroke-width:4.21000004;stroke-linejoin:bevel"
     transform="translate(-212.958,-966.791)" />
  <polyline
     class="BarLine"
     points="2039.67,983.044 2039.67,1079.16"
     id="polyline188"
     transform="translate(-1266.958,-966.791)"
     style="stroke:#000000;stroke-width:4.21000004;stroke-linejoin:bevel" />
  <polyline
     class="BarLine"
     points="2761.67,983.044 2761.67,1079.16"
     id="polyline190"
     transform="translate(-1266.958,-966.791)"
     style="stroke:#000000;stroke-width:4.21000004;stroke-linejoin:bevel" />
  <polyline
     class="BarLine"
     points="327.089,2199.11 327.089,2481.02"
     id="polyline202"
     transform="translate(-212.958,-1546.791)"
     style="stroke:#000000;stroke-width:4.21000004;stroke-linejoin:bevel" />
  <polyline
     class="BarLine"
     points="2008.98,2199.11 2008.98,2295.22"
     id="polyline208"
     transform="translate(-1232.958,-1546.791)"
     style="stroke:#000000;stroke-width:4.21000004;stroke-linejoin:bevel" />
  <polyline
     class="BarLine"
     points="2761.67,2199.11 2761.67,2295.22"
     id="polyline210"
     transform="translate(-1232.958,-1546.791)"
     style="stroke:#000000;stroke-width:4.21000004;stroke-linejoin:bevel" />
  <polyline
     class="Stem"
     points="1549.71,1349.95 1549.71,1411.12"
     id="polyline274"
     transform="translate(-1266.958,-966.791)"
     style="stroke:#000000;stroke-width:2.56999993;stroke-linejoin:bevel" />
  <polyline
     class="Stem"
     points="1670.76,1303.18 1670.76,1381.89"
     id="polyline276"
     transform="translate(-1266.958,-966.791)"
     style="stroke:#000000;stroke-width:2.56999993;stroke-linejoin:bevel" />
  <polyline
     class="Stem"
     points="1731.28,1349.95 1731.28,1405.28"
     id="polyline278"
     transform="translate(-1266.958,-966.791)"
     style="stroke:#000000;stroke-width:2.56999993;stroke-linejoin:bevel" />
  <polyline
     class="Stem"
     points="1791.81,1349.95 1791.81,1411.12"
     id="polyline280"
     transform="translate(-1266.958,-966.791)"
     style="stroke:#000000;stroke-width:2.56999993;stroke-linejoin:bevel" />
  <polyline
     class="Stem"
     points="1912.86,1303.18 1912.86,1376.04"
     id="polyline282"
     transform="translate(-1266.958,-966.791)"
     style="stroke:#000000;stroke-width:2.56999993;stroke-linejoin:bevel" />
  <polyline
     class="Stem"
     points="2073.46,1349.95 2073.46,1411.12"
     id="polyline284"
     transform="translate(-1266.958,-966.791)"
     style="stroke:#000000;stroke-width:2.56999993;stroke-linejoin:bevel" />
  <polyline
     class="Stem"
     points="2217.93,1303.18 2217.93,1376.04"
     id="polyline286"
     transform="translate(-1266.958,-966.791)"
     style="stroke:#000000;stroke-width:2.56999993;stroke-linejoin:bevel" />
  <polyline
     class="Stem"
     points="2424.5,1303.18 2424.5,1376.04"
     id="polyline288"
     transform="translate(-1266.958,-966.791)"
     style="stroke:#000000;stroke-width:2.56999993;stroke-linejoin:bevel" />
  <polyline
     class="Stem"
     points="2469.65,1303.18 2469.65,1376.04"
     id="polyline290"
     transform="translate(-1266.958,-966.791)"
     style="stroke:#000000;stroke-width:2.56999993;stroke-linejoin:bevel" />
  <polyline
     class="Stem"
     points="2514.8,1303.18 2514.8,1376.04"
     id="polyline292"
     transform="translate(-1266.958,-966.791)"
     style="stroke:#000000;stroke-width:2.56999993;stroke-linejoin:bevel" />
  <polyline
     class="Stem"
     points="2559.94,1303.18 2559.94,1381.89"
     id="polyline294"
     transform="translate(-1266.958,-966.791)"
     style="stroke:#000000;stroke-width:2.56999993;stroke-linejoin:bevel" />
  <polyline
     class="Stem"
     points="2605.09,1279.8 2605.09,1379.94"
     id="polyline296"
     transform="translate(-1266.958,-966.791)"
     style="stroke:#000000;stroke-width:2.56999993;stroke-linejoin:bevel" />
  <polyline
     class="Stem"
     points="2650.24,1291.49 2650.24,1377.99"
     id="polyline298"
     transform="translate(-1266.958,-966.791)"
     style="stroke:#000000;stroke-width:2.56999993;stroke-linejoin:bevel" />
  <polyline
     class="Stem"
     points="2695.38,1291.49 2695.38,1376.04"
     id="polyline300"
     transform="translate(-1266.958,-966.791)"
     style="stroke:#000000;stroke-width:2.56999993;stroke-linejoin:bevel" />
  <polyline
     class="Stem"
     points="1507.62,2566.02 1507.62,2627.19"
     id="polyline362"
     transform="translate(-1232.958,-1546.791)"
     style="stroke:#000000;stroke-width:2.56999993;stroke-linejoin:bevel" />
  <polyline
     class="Stem"
     points="1631.24,2519.25 1631.24,2597.95"
     id="polyline364"
     transform="translate(-1232.958,-1546.791)"
     style="stroke:#000000;stroke-width:2.56999993;stroke-linejoin:bevel" />
  <polyline
     class="Stem"
     points="1693.05,2566.02 1693.05,2621.34"
     id="polyline366"
     transform="translate(-1232.958,-1546.791)"
     style="stroke:#000000;stroke-width:2.56999993;stroke-linejoin:bevel" />
  <polyline
     class="Stem"
     points="1757.26,2566.02 1757.26,2627.19"
     id="polyline368"
     transform="translate(-1232.958,-1546.791)"
     style="stroke:#000000;stroke-width:2.56999993;stroke-linejoin:bevel" />
  <polyline
     class="Stem"
     points="1880.88,2519.25 1880.88,2592.11"
     id="polyline370"
     transform="translate(-1232.958,-1546.791)"
     style="stroke:#000000;stroke-width:2.56999993;stroke-linejoin:bevel" />
  <polyline
     class="Stem"
     points="2042.77,2566.02 2042.77,2627.19"
     id="polyline372"
     transform="translate(-1232.958,-1546.791)"
     style="stroke:#000000;stroke-width:2.56999993;stroke-linejoin:bevel" />
  <polyline
     class="Stem"
     points="2189.84,2519.25 2189.84,2592.11"
     id="polyline374"
     transform="translate(-1232.958,-1546.791)"
     style="stroke:#000000;stroke-width:2.56999993;stroke-linejoin:bevel" />
  <polyline
     class="Stem"
     points="2235.8,2519.25 2235.8,2592.11"
     id="polyline376"
     transform="translate(-1232.958,-1546.791)"
     style="stroke:#000000;stroke-width:2.56999993;stroke-linejoin:bevel" />
  <polyline
     class="Stem"
     points="2281.76,2507.55 2281.76,2592.11"
     id="polyline378"
     transform="translate(-1232.958,-1546.791)"
     style="stroke:#000000;stroke-width:2.56999993;stroke-linejoin:bevel" />
  <polyline
     class="Stem"
     points="2327.72,2519.25 2327.72,2592.11"
     id="polyline380"
     transform="translate(-1232.958,-1546.791)"
     style="stroke:#000000;stroke-width:2.56999993;stroke-linejoin:bevel" />
  <polyline
     class="Stem"
     points="2373.67,2542.63 2373.67,2621.34"
     id="polyline382"
     transform="translate(-1232.958,-1546.791)"
     style="stroke:#000000;stroke-width:2.56999993;stroke-linejoin:bevel" />
  <polyline
     class="Stem"
     points="2419.63,2519.25 2419.63,2611.59"
     id="polyline384"
     transform="translate(-1232.958,-1546.791)"
     style="stroke:#000000;stroke-width:2.56999993;stroke-linejoin:bevel" />
  <polyline
     class="Stem"
     points="2465.59,2519.25 2465.59,2601.85"
     id="polyline386"
     transform="translate(-1232.958,-1546.791)"
     style="stroke:#000000;stroke-width:2.56999993;stroke-linejoin:bevel" />
  <polyline
     class="Stem"
     points="2511.55,2495.86 2511.55,2592.11"
     id="polyline388"
     transform="translate(-1232.958,-1546.791)"
     style="stroke:#000000;stroke-width:2.56999993;stroke-linejoin:bevel" />
  <polyline
     class="Stem"
     points="2557.51,2519.25 2557.51,2597.95"
     id="polyline390"
     transform="translate(-1232.958,-1546.791)"
     style="stroke:#000000;stroke-width:2.56999993;stroke-linejoin:bevel" />
  <polyline
     class="Stem"
     points="2603.47,2507.55 2603.47,2603.8"
     id="polyline392"
     transform="translate(-1232.958,-1546.791)"
     style="stroke:#000000;stroke-width:2.56999993;stroke-linejoin:bevel" />
  <polyline
     class="Stem"
     points="2649.42,2542.63 2649.42,2609.65"
     id="polyline394"
     transform="translate(-1232.958,-1546.791)"
     style="stroke:#000000;stroke-width:2.56999993;stroke-linejoin:bevel" />
  <polyline
     class="Stem"
     points="2695.38,2542.63 2695.38,2615.49"
     id="polyline396"
     transform="translate(-1232.958,-1546.791)"
     style="stroke:#000000;stroke-width:2.56999993;stroke-linejoin:bevel" />
  <polyline
     class="Stem"
     points="1577.53,1245.34 1577.53,1188.96"
     id="polyline494"
     transform="translate(-1266.958,-966.791)"
     style="stroke:#000000;stroke-width:2.56999993;stroke-linejoin:bevel" />
  <polyline
     class="Stem"
     points="1638.06,1245.34 1638.06,1188.96"
     id="polyline496"
     transform="translate(-1266.958,-966.791)"
     style="stroke:#000000;stroke-width:2.56999993;stroke-linejoin:bevel" />
  <polyline
     class="Stem"
     points="1698.58,1245.34 1698.58,1188.96"
     id="polyline498"
     transform="translate(-1266.958,-966.791)"
     style="stroke:#000000;stroke-width:2.56999993;stroke-linejoin:bevel" />
  <polyline
     class="Stem"
     points="1759.1,1245.34 1759.1,1188.96"
     id="polyline500"
     transform="translate(-1266.958,-966.791)"
     style="stroke:#000000;stroke-width:2.56999993;stroke-linejoin:bevel" />
  <polyline
     class="Stem"
     points="1819.63,1245.34 1819.63,1188.96"
     id="polyline502"
     transform="translate(-1266.958,-966.791)"
     style="stroke:#000000;stroke-width:2.56999993;stroke-linejoin:bevel" />
  <polyline
     class="Stem"
     points="1880.15,1245.34 1880.15,1188.96"
     id="polyline504"
     transform="translate(-1266.958,-966.791)"
     style="stroke:#000000;stroke-width:2.56999993;stroke-linejoin:bevel" />
  <polyline
     class="Stem"
     points="1940.68,1245.34 1940.68,1188.96"
     id="polyline506"
     transform="translate(-1266.958,-966.791)"
     style="stroke:#000000;stroke-width:2.56999993;stroke-linejoin:bevel" />
  <polyline
     class="Stem"
     points="2001.2,1245.34 2001.2,1188.96"
     id="polyline508"
     transform="translate(-1266.958,-966.791)"
     style="stroke:#000000;stroke-width:2.56999993;stroke-linejoin:bevel" />
  <polyline
     class="Stem"
     points="2101.29,1245.34 2101.29,1188.96"
     id="polyline510"
     transform="translate(-1266.958,-966.791)"
     style="stroke:#000000;stroke-width:2.56999993;stroke-linejoin:bevel" />
  <polyline
     class="Stem"
     points="2173.52,1245.34 2173.52,1188.96"
     id="polyline512"
     transform="translate(-1266.958,-966.791)"
     style="stroke:#000000;stroke-width:2.56999993;stroke-linejoin:bevel" />
  <polyline
     class="Stem"
     points="2245.75,1245.34 2245.75,1188.96"
     id="polyline514"
     transform="translate(-1266.958,-966.791)"
     style="stroke:#000000;stroke-width:2.56999993;stroke-linejoin:bevel" />
  <polyline
     class="Stem"
     points="2317.99,1245.34 2317.99,1188.96"
     id="polyline516"
     transform="translate(-1266.958,-966.791)"
     style="stroke:#000000;stroke-width:2.56999993;stroke-linejoin:bevel" />
  <polyline
     class="Stem"
     points="2390.22,1245.34 2390.22,1183.11"
     id="polyline518"
     transform="translate(-1266.958,-966.791)"
     style="stroke:#000000;stroke-width:2.56999993;stroke-linejoin:bevel" />
  <polyline
     class="Stem"
     points="1535.45,2461.4 1535.45,2405.02"
     id="polyline616"
     transform="translate(-1232.958,-1546.791)"
     style="stroke:#000000;stroke-width:2.56999993;stroke-linejoin:bevel" />
  <polyline
     class="Stem"
     points="1597.26,2461.4 1597.26,2405.02"
     id="polyline618"
     transform="translate(-1232.958,-1546.791)"
     style="stroke:#000000;stroke-width:2.56999993;stroke-linejoin:bevel" />
  <polyline
     class="Stem"
     points="1659.06,2461.4 1659.06,2405.02"
     id="polyline620"
     transform="translate(-1232.958,-1546.791)"
     style="stroke:#000000;stroke-width:2.56999993;stroke-linejoin:bevel" />
  <polyline
     class="Stem"
     points="1720.87,2461.4 1720.87,2405.02"
     id="polyline622"
     transform="translate(-1232.958,-1546.791)"
     style="stroke:#000000;stroke-width:2.56999993;stroke-linejoin:bevel" />
  <polyline
     class="Stem"
     points="1785.09,2461.4 1785.09,2405.02"
     id="polyline624"
     transform="translate(-1232.958,-1546.791)"
     style="stroke:#000000;stroke-width:2.56999993;stroke-linejoin:bevel" />
  <polyline
     class="Stem"
     points="1846.89,2461.4 1846.89,2405.02"
     id="polyline626"
     transform="translate(-1232.958,-1546.791)"
     style="stroke:#000000;stroke-width:2.56999993;stroke-linejoin:bevel" />
  <polyline
     class="Stem"
     points="1908.7,2461.4 1908.7,2405.02"
     id="polyline628"
     transform="translate(-1232.958,-1546.791)"
     style="stroke:#000000;stroke-width:2.56999993;stroke-linejoin:bevel" />
  <polyline
     class="Stem"
     points="1970.51,2461.4 1970.51,2405.02"
     id="polyline630"
     transform="translate(-1232.958,-1546.791)"
     style="stroke:#000000;stroke-width:2.56999993;stroke-linejoin:bevel" />
  <polyline
     class="Stem"
     points="2070.6,2461.4 2070.6,2405.02"
     id="polyline632"
     transform="translate(-1232.958,-1546.791)"
     style="stroke:#000000;stroke-width:2.56999993;stroke-linejoin:bevel" />
  <polyline
     class="Stem"
     points="2144.13,2461.4 2144.13,2405.02"
     id="polyline634"
     transform="translate(-1232.958,-1546.791)"
     style="stroke:#000000;stroke-width:2.56999993;stroke-linejoin:bevel" />
  <polyline
     class="Stem"
     points="1549.71,999.167 1549.71,1077.87"
     id="polyline684"
     transform="translate(-1266.958,-966.791)"
     style="stroke:#000000;stroke-width:2.56999993;stroke-linejoin:bevel" />
  <polyline
     class="Stem"
     points="1731.28,999.167 1731.28,1077.87"
     id="polyline686"
     transform="translate(-1266.958,-966.791)"
     style="stroke:#000000;stroke-width:2.56999993;stroke-linejoin:bevel" />
  <polyline
     class="Stem"
     points="1791.81,999.167 1791.81,1072.03"
     id="polyline688"
     transform="translate(-1266.958,-966.791)"
     style="stroke:#000000;stroke-width:2.56999993;stroke-linejoin:bevel" />
  <polyline
     class="Stem"
     points="1852.33,1010.86 1852.33,1081.77"
     id="polyline690"
     transform="translate(-1266.958,-966.791)"
     style="stroke:#000000;stroke-width:2.56999993;stroke-linejoin:bevel" />
  <polyline
     class="Stem"
     points="1912.86,1022.55 1912.86,1091.52"
     id="polyline692"
     transform="translate(-1266.958,-966.791)"
     style="stroke:#000000;stroke-width:2.56999993;stroke-linejoin:bevel" />
  <polyline
     class="Stem"
     points="1973.38,1034.25 1973.38,1101.26"
     id="polyline694"
     transform="translate(-1266.958,-966.791)"
     style="stroke:#000000;stroke-width:2.56999993;stroke-linejoin:bevel" />
  <polyline
     class="Stem"
     points="2101.29,1039.8 2101.29,966.791"
     id="polyline696"
     transform="translate(-1266.958,-966.791)"
     style="stroke:#000000;stroke-width:2.56999993;stroke-linejoin:bevel" />
  <polyline
     class="Stem"
     points="1507.62,2215.23 1507.62,2293.94"
     id="polyline746"
     transform="translate(-1232.958,-1546.791)"
     style="stroke:#000000;stroke-width:2.56999993;stroke-linejoin:bevel" />
  <polyline
     class="Stem"
     points="1720.87,2290.94 1720.87,2212.09"
     id="polyline748"
     transform="translate(-1232.958,-1546.791)"
     style="stroke:#000000;stroke-width:2.56999993;stroke-linejoin:bevel" />
  <polyline
     class="Stem"
     points="1785.09,2290.94 1785.09,2212.09"
     id="polyline750"
     transform="translate(-1232.958,-1546.791)"
     style="stroke:#000000;stroke-width:2.56999993;stroke-linejoin:bevel" />
  <polyline
     class="Stem"
     points="1908.7,2279.25 1908.7,2206.24"
     id="polyline752"
     transform="translate(-1232.958,-1546.791)"
     style="stroke:#000000;stroke-width:2.56999993;stroke-linejoin:bevel" />
  <polyline
     class="Stem"
     points="1970.51,2267.56 1970.51,2200.39"
     id="polyline754"
     transform="translate(-1232.958,-1546.791)"
     style="stroke:#000000;stroke-width:2.56999993;stroke-linejoin:bevel" />
  <polyline
     class="Stem"
     points="2070.6,2255.86 2070.6,2182.85"
     id="polyline756"
     transform="translate(-1232.958,-1546.791)"
     style="stroke:#000000;stroke-width:2.56999993;stroke-linejoin:bevel" />
  <path
     class="Note"
     d="m 310.9281,372.4478 c -1.6808,-3.0986 -5.2325,-4.7794 -9.5443,-4.7794 -3.1717,0 -6.6358,0.9354 -10.012,2.7185 -6.1681,3.2741 -9.9098,8.7844 -9.9098,13.5638 0,1.3009 0.2777,2.6163 0.9354,3.8295 1.6809,3.084 5.2326,4.6772 9.5443,4.6772 3.1718,0 6.6358,-0.8331 10.0122,-2.6164 6.1679,-3.274 9.9097,-8.7989 9.9097,-13.5637 0,-1.3155 -0.2778,-2.6163 -0.9355,-3.8295"
     id="path816"
     inkscape:connector-curvature="0"
     style="stroke-width:0.93543297" />
  <path
     class="Note"
     d="m 431.9781,325.6778 c -1.6808,-3.0986 -5.2325,-4.7794 -9.5443,-4.7794 -3.1717,0 -6.6358,0.9354 -10.012,2.7185 -6.1681,3.2741 -9.9098,8.7844 -9.9098,13.5638 0,1.3009 0.2777,2.6163 0.9354,3.8295 1.6809,3.084 5.2326,4.6772 9.5443,4.6772 3.1718,0 6.6358,-0.8331 10.0122,-2.6164 6.1679,-3.274 9.9097,-8.7989 9.9097,-13.5637 0,-1.3155 -0.2778,-2.6163 -0.9355,-3.8295"
     id="path818"
     inkscape:connector-curvature="0"
     style="stroke-width:0.93543297" />
  <path
     class="Note"
     d="m 492.5081,372.4478 c -1.6808,-3.0986 -5.2325,-4.7794 -9.5443,-4.7794 -3.1717,0 -6.6358,0.9354 -10.012,2.7185 -6.1681,3.2741 -9.9098,8.7844 -9.9098,13.5638 0,1.3009 0.2777,2.6163 0.9354,3.8295 1.6809,3.084 5.2326,4.6772 9.5443,4.6772 3.1718,0 6.6358,-0.8331 10.0122,-2.6164 6.1679,-3.274 9.9097,-8.7989 9.9097,-13.5637 0,-1.3155 -0.2778,-2.6163 -0.9355,-3.8295"
     id="path820"
     inkscape:connector-curvature="0"
     style="stroke-width:0.93543297" />
  <path
     class="Note"
     d="m 553.0281,372.4478 c -1.6808,-3.0986 -5.2325,-4.7794 -9.5443,-4.7794 -3.1717,0 -6.6358,0.9354 -10.012,2.7185 -6.1681,3.2741 -9.9098,8.7844 -9.9098,13.5638 0,1.3009 0.2777,2.6163 0.9354,3.8295 1.6809,3.084 5.2326,4.6772 9.5443,4.6772 3.1718,0 6.6358,-0.8331 10.0122,-2.6164 6.1679,-3.274 9.9097,-8.7989 9.9097,-13.5637 0,-1.3155 -0.2778,-2.6163 -0.9355,-3.8295"
     id="path822"
     inkscape:connector-curvature="0"
     style="stroke-width:0.93543297" />
  <path
     class="Note"
     d="m 674.0781,325.6778 c -1.6808,-3.0986 -5.2325,-4.7794 -9.5443,-4.7794 -3.1717,0 -6.6358,0.9354 -10.012,2.7185 -6.1681,3.2741 -9.9098,8.7844 -9.9098,13.5638 0,1.3009 0.2777,2.6163 0.9354,3.8295 1.6809,3.084 5.2326,4.6772 9.5443,4.6772 3.1718,0 6.6358,-0.8331 10.0122,-2.6164 6.1679,-3.274 9.9097,-8.7989 9.9097,-13.5637 0,-1.3155 -0.2778,-2.6163 -0.9355,-3.8295"
     id="path824"
     inkscape:connector-curvature="0"
     style="stroke-width:0.93543297" />
  <path
     class="Note"
     d="m 834.6881,372.4478 c -1.6808,-3.0986 -5.2325,-4.7794 -9.5443,-4.7794 -3.1717,0 -6.6358,0.9354 -10.012,2.7185 -6.1681,3.2741 -9.9098,8.7844 -9.9098,13.5638 0,1.3009 0.2777,2.6163 0.9354,3.8295 1.6809,3.084 5.2326,4.6772 9.5443,4.6772 3.1718,0 6.6358,-0.8331 10.0122,-2.6164 6.1679,-3.274 9.9097,-8.7989 9.9097,-13.5637 0,-1.3155 -0.2778,-2.6163 -0.9355,-3.8295"
     id="path826"
     inkscape:connector-curvature="0"
     style="stroke-width:0.93543297" />
  <path
     class="Note"
     d="m 979.1581,325.6778 c -1.6808,-3.0986 -5.2325,-4.7794 -9.5443,-4.7794 -3.1717,0 -6.6358,0.9354 -10.012,2.7185 -6.1681,3.2741 -9.9098,8.7844 -9.9098,13.5638 0,1.3009 0.2777,2.6163 0.9354,3.8295 1.6809,3.084 5.2326,4.6772 9.5443,4.6772 3.1718,0 6.6358,-0.8331 10.0122,-2.6164 6.1679,-3.274 9.9097,-8.7989 9.9097,-13.5637 0,-1.3155 -0.2778,-2.6163 -0.9355,-3.8295"
     id="path828"
     inkscape:connector-curvature="0"
     style="stroke-width:0.93543297" />
  <path
     class="Note"
     d="m 1185.7281,325.6778 c -1.6808,-3.0986 -5.2325,-4.7794 -9.5443,-4.7794 -3.1717,0 -6.6358,0.9354 -10.012,2.7185 -6.1681,3.2741 -9.9098,8.7844 -9.9098,13.5638 0,1.3009 0.2777,2.6163 0.9354,3.8295 1.6809,3.084 5.2326,4.6772 9.5443,4.6772 3.1718,0 6.6358,-0.8331 10.0122,-2.6164 6.1679,-3.274 9.9097,-8.7989 9.9097,-13.5637 0,-1.3155 -0.2778,-2.6163 -0.9355,-3.8295"
     id="path830"
     inkscape:connector-curvature="0"
     style="stroke-width:0.93543297" />
  <path
     class="Note"
     d="m 1230.8781,325.6778 c -1.6808,-3.0986 -5.2325,-4.7794 -9.5443,-4.7794 -3.1717,0 -6.6358,0.9354 -10.012,2.7185 -6.1681,3.2741 -9.9098,8.7844 -9.9098,13.5638 0,1.3009 0.2777,2.6163 0.9354,3.8295 1.6809,3.084 5.2326,4.6772 9.5443,4.6772 3.1718,0 6.6358,-0.8331 10.0122,-2.6164 6.1679,-3.274 9.9097,-8.7989 9.9097,-13.5637 0,-1.3155 -0.2778,-2.6163 -0.9355,-3.8295"
     id="path832"
     inkscape:connector-curvature="0"
     style="stroke-width:0.93543297" />
  <path
     class="Note"
     d="m 1276.0181,325.6778 c -1.6808,-3.0986 -5.2325,-4.7794 -9.5443,-4.7794 -3.1717,0 -6.6358,0.9354 -10.012,2.7185 -6.1681,3.2741 -9.9098,8.7844 -9.9098,13.5638 0,1.3009 0.2777,2.6163 0.9354,3.8295 1.6809,3.084 5.2326,4.6772 9.5443,4.6772 3.1718,0 6.6358,-0.8331 10.0122,-2.6164 6.1679,-3.274 9.9097,-8.7989 9.9097,-13.5637 0,-1.3155 -0.2778,-2.6163 -0.9355,-3.8295"
     id="path834"
     inkscape:connector-curvature="0"
     style="stroke-width:0.93543297" />
  <path
     class="Note"
     d="m 1321.1681,325.6778 c -1.6808,-3.0986 -5.2325,-4.7794 -9.5443,-4.7794 -3.1717,0 -6.6358,0.9354 -10.012,2.7185 -6.1681,3.2741 -9.9098,8.7844 -9.9098,13.5638 0,1.3009 0.2777,2.6163 0.9354,3.8295 1.6809,3.084 5.2326,4.6772 9.5443,4.6772 3.1718,0 6.6358,-0.8331 10.0122,-2.6164 6.1679,-3.274 9.9097,-8.7989 9.9097,-13.5637 0,-1.3155 -0.2778,-2.6163 -0.9355,-3.8295"
     id="path836"
     inkscape:connector-curvature="0"
     style="stroke-width:0.93543297" />
  <path
     class="Note"
     d="m 1366.3081,302.2878 c -1.6808,-3.0986 -5.2325,-4.7794 -9.5443,-4.7794 -3.1717,0 -6.6358,0.9354 -10.012,2.7185 -6.1681,3.2741 -9.9098,8.7844 -9.9098,13.5638 0,1.3009 0.2777,2.6163 0.9354,3.8295 1.6809,3.084 5.2326,4.6772 9.5443,4.6772 3.1718,0 6.6358,-0.8331 10.0122,-2.6164 6.1679,-3.274 9.9097,-8.7989 9.9097,-13.5637 0,-1.3155 -0.2778,-2.6163 -0.9355,-3.8295"
     id="path838"
     inkscape:connector-curvature="0"
     style="stroke-width:0.93543297" />
  <path
     class="Note"
     d="m 1411.4581,313.9878 c -1.6808,-3.0986 -5.2325,-4.7794 -9.5443,-4.7794 -3.1717,0 -6.6358,0.9354 -10.012,2.7185 -6.1681,3.2741 -9.9098,8.7844 -9.9098,13.5638 0,1.3009 0.2777,2.6163 0.9354,3.8295 1.6809,3.084 5.2326,4.6772 9.5443,4.6772 3.1718,0 6.6358,-0.8331 10.0122,-2.6164 6.1679,-3.274 9.9097,-8.7989 9.9097,-13.5637 0,-1.3155 -0.2778,-2.6163 -0.9355,-3.8295"
     id="path840"
     inkscape:connector-curvature="0"
     style="stroke-width:0.93543297" />
  <path
     class="Note"
     d="m 1456.6081,313.9878 c -1.6808,-3.0986 -5.2325,-4.7794 -9.5443,-4.7794 -3.1717,0 -6.6358,0.9354 -10.012,2.7185 -6.1681,3.2741 -9.9098,8.7844 -9.9098,13.5638 0,1.3009 0.2777,2.6163 0.9354,3.8295 1.6809,3.084 5.2326,4.6772 9.5443,4.6772 3.1718,0 6.6358,-0.8331 10.0122,-2.6164 6.1679,-3.274 9.9097,-8.7989 9.9097,-13.5637 0,-1.3155 -0.2778,-2.6163 -0.9355,-3.8295"
     id="path842"
     inkscape:connector-curvature="0"
     style="stroke-width:0.93543297" />
  <path
     class="Note"
     d="m 302.8481,1008.5078 c -1.6808,-3.0986 -5.2325,-4.7794 -9.5443,-4.7794 -3.1717,0 -6.6358,0.9354 -10.012,2.7185 -6.1681,3.2741 -9.9098,8.7844 -9.9098,13.5638 0,1.3009 0.2777,2.6163 0.9354,3.8295 1.6809,3.084 5.2326,4.6772 9.5443,4.6772 3.1718,0 6.6358,-0.8331 10.0122,-2.6164 6.1679,-3.274 9.9097,-8.7989 9.9097,-13.5637 0,-1.3155 -0.2778,-2.6163 -0.9355,-3.8295"
     id="path904"
     inkscape:connector-curvature="0"
     style="stroke-width:0.93543297" />
  <path
     class="Note"
     d="m 426.4681,961.7378 c -1.6808,-3.0986 -5.2325,-4.7794 -9.5443,-4.7794 -3.1717,0 -6.6358,0.9354 -10.012,2.7185 -6.1681,3.2741 -9.9098,8.7844 -9.9098,13.5638 0,1.3009 0.2777,2.6163 0.9354,3.8295 1.6809,3.084 5.2326,4.6772 9.5443,4.6772 3.1718,0 6.6358,-0.8331 10.0122,-2.6164 6.1679,-3.274 9.9097,-8.7989 9.9097,-13.5637 0,-1.3155 -0.2778,-2.6163 -0.9355,-3.8295"
     id="path906"
     inkscape:connector-curvature="0"
     style="stroke-width:0.93543297" />
  <path
     class="Note"
     d="m 488.2681,1008.5078 c -1.6808,-3.0986 -5.2325,-4.7794 -9.5443,-4.7794 -3.1717,0 -6.6358,0.9354 -10.012,2.7185 -6.1681,3.2741 -9.9098,8.7844 -9.9098,13.5638 0,1.3009 0.2777,2.6163 0.9354,3.8295 1.6809,3.084 5.2326,4.6772 9.5443,4.6772 3.1718,0 6.6358,-0.8331 10.0122,-2.6164 6.1679,-3.274 9.9097,-8.7989 9.9097,-13.5637 0,-1.3155 -0.2778,-2.6163 -0.9355,-3.8295"
     id="path908"
     inkscape:connector-curvature="0"
     style="stroke-width:0.93543297" />
  <path
     class="Note"
     d="m 552.4881,1008.5078 c -1.6808,-3.0986 -5.2325,-4.7794 -9.5443,-4.7794 -3.1717,0 -6.6358,0.9354 -10.012,2.7185 -6.1681,3.2741 -9.9098,8.7844 -9.9098,13.5638 0,1.3009 0.2777,2.6163 0.9354,3.8295 1.6809,3.084 5.2326,4.6772 9.5443,4.6772 3.1718,0 6.6358,-0.8331 10.0122,-2.6164 6.1679,-3.274 9.9097,-8.7989 9.9097,-13.5637 0,-1.3155 -0.2778,-2.6163 -0.9355,-3.8295"
     id="path910"
     inkscape:connector-curvature="0"
     style="stroke-width:0.93543297" />
  <path
     class="Note"
     d="m 676.1081,961.7378 c -1.6808,-3.0986 -5.2325,-4.7794 -9.5443,-4.7794 -3.1717,0 -6.6358,0.9354 -10.012,2.7185 -6.1681,3.2741 -9.9098,8.7844 -9.9098,13.5638 0,1.3009 0.2777,2.6163 0.9354,3.8295 1.6809,3.084 5.2326,4.6772 9.5443,4.6772 3.1718,0 6.6358,-0.8331 10.0122,-2.6164 6.1679,-3.274 9.9097,-8.7989 9.9097,-13.5637 0,-1.3155 -0.2778,-2.6163 -0.9355,-3.8295"
     id="path912"
     inkscape:connector-curvature="0"
     style="stroke-width:0.93543297" />
  <path
     class="Note"
     d="m 837.9981,1008.5078 c -1.6808,-3.0986 -5.2325,-4.7794 -9.5443,-4.7794 -3.1717,0 -6.6358,0.9354 -10.012,2.7185 -6.1681,3.2741 -9.9098,8.7844 -9.9098,13.5638 0,1.3009 0.2777,2.6163 0.9354,3.8295 1.6809,3.084 5.2326,4.6772 9.5443,4.6772 3.1718,0 6.6358,-0.8331 10.0122,-2.6164 6.1679,-3.274 9.9097,-8.7989 9.9097,-13.5637 0,-1.3155 -0.2778,-2.6163 -0.9355,-3.8295"
     id="path914"
     inkscape:connector-curvature="0"
     style="stroke-width:0.93543297" />
  <path
     class="Note"
     d="m 985.0581,961.7378 c -1.6808,-3.0986 -5.2325,-4.7794 -9.5443,-4.7794 -3.1717,0 -6.6358,0.9354 -10.012,2.7185 -6.1681,3.2741 -9.9098,8.7844 -9.9098,13.5638 0,1.3009 0.2777,2.6163 0.9354,3.8295 1.6809,3.084 5.2326,4.6772 9.5443,4.6772 3.1718,0 6.6358,-0.8331 10.0122,-2.6164 6.1679,-3.274 9.9097,-8.7989 9.9097,-13.5637 0,-1.3155 -0.2778,-2.6163 -0.9355,-3.8295"
     id="path916"
     inkscape:connector-curvature="0"
     style="stroke-width:0.93543297" />
  <path
     class="Note"
     d="m 1031.0181,961.7378 c -1.6808,-3.0986 -5.2325,-4.7794 -9.5443,-4.7794 -3.1717,0 -6.6358,0.9354 -10.012,2.7185 -6.1681,3.2741 -9.9098,8.7844 -9.9098,13.5638 0,1.3009 0.2777,2.6163 0.9354,3.8295 1.6809,3.084 5.2326,4.6772 9.5443,4.6772 3.1718,0 6.6358,-0.8331 10.0122,-2.6164 6.1679,-3.274 9.9097,-8.7989 9.9097,-13.5637 0,-1.3155 -0.2778,-2.6163 -0.9355,-3.8295"
     id="path918"
     inkscape:connector-curvature="0"
     style="stroke-width:0.93543297" />
  <path
     class="Note"
     d="m 1076.9781,950.0478 c -1.6808,-3.0986 -5.2325,-4.7794 -9.5443,-4.7794 -3.1717,0 -6.6358,0.9354 -10.012,2.7185 -6.1681,3.2741 -9.9098,8.7844 -9.9098,13.5638 0,1.3009 0.2777,2.6163 0.9354,3.8295 1.6809,3.084 5.2326,4.6772 9.5443,4.6772 3.1718,0 6.6358,-0.8331 10.0122,-2.6164 6.1679,-3.274 9.9097,-8.7989 9.9097,-13.5637 0,-1.3155 -0.2778,-2.6163 -0.9355,-3.8295"
     id="path920"
     inkscape:connector-curvature="0"
     style="stroke-width:0.93543297" />
  <path
     class="Note"
     d="m 1122.9381,961.7378 c -1.6808,-3.0986 -5.2325,-4.7794 -9.5443,-4.7794 -3.1717,0 -6.6358,0.9354 -10.012,2.7185 -6.1681,3.2741 -9.9098,8.7844 -9.9098,13.5638 0,1.3009 0.2777,2.6163 0.9354,3.8295 1.6809,3.084 5.2326,4.6772 9.5443,4.6772 3.1718,0 6.6358,-0.8331 10.0122,-2.6164 6.1679,-3.274 9.9097,-8.7989 9.9097,-13.5637 0,-1.3155 -0.2778,-2.6163 -0.9355,-3.8295"
     id="path922"
     inkscape:connector-curvature="0"
     style="stroke-width:0.93543297" />
  <path
     class="Note"
     d="m 1168.8981,985.1278 c -1.6808,-3.0986 -5.2325,-4.7794 -9.5443,-4.7794 -3.1717,0 -6.6358,0.9354 -10.012,2.7185 -6.1681,3.2741 -9.9098,8.7844 -9.9098,13.5638 0,1.3009 0.2777,2.6163 0.9354,3.8295 1.6809,3.084 5.2326,4.6772 9.5443,4.6772 3.1718,0 6.6358,-0.8331 10.0122,-2.6164 6.1679,-3.274 9.9097,-8.7989 9.9097,-13.5637 0,-1.3155 -0.2778,-2.6163 -0.9355,-3.8295"
     id="path924"
     inkscape:connector-curvature="0"
     style="stroke-width:0.93543297" />
  <path
     class="Note"
     d="m 1214.8581,961.7378 c -1.6808,-3.0986 -5.2325,-4.7794 -9.5443,-4.7794 -3.1717,0 -6.6358,0.9354 -10.012,2.7185 -6.1681,3.2741 -9.9098,8.7844 -9.9098,13.5638 0,1.3009 0.2777,2.6163 0.9354,3.8295 1.6809,3.084 5.2326,4.6772 9.5443,4.6772 3.1718,0 6.6358,-0.8331 10.0122,-2.6164 6.1679,-3.274 9.9097,-8.7989 9.9097,-13.5637 0,-1.3155 -0.2778,-2.6163 -0.9355,-3.8295"
     id="path926"
     inkscape:connector-curvature="0"
     style="stroke-width:0.93543297" />
  <path
     class="Note"
     d="m 1260.8181,961.7378 c -1.6808,-3.0986 -5.2325,-4.7794 -9.5443,-4.7794 -3.1717,0 -6.6358,0.9354 -10.012,2.7185 -6.1681,3.2741 -9.9098,8.7844 -9.9098,13.5638 0,1.3009 0.2777,2.6163 0.9354,3.8295 1.6809,3.084 5.2326,4.6772 9.5443,4.6772 3.1718,0 6.6358,-0.8331 10.0122,-2.6164 6.1679,-3.274 9.9097,-8.7989 9.9097,-13.5637 0,-1.3155 -0.2778,-2.6163 -0.9355,-3.8295"
     id="path928"
     inkscape:connector-curvature="0"
     style="stroke-width:0.93543297" />
  <path
     class="Note"
     d="m 1306.7681,938.3578 c -1.6808,-3.0986 -5.2325,-4.7794 -9.5443,-4.7794 -3.1717,0 -6.6358,0.9354 -10.012,2.7185 -6.1681,3.2741 -9.9098,8.7844 -9.9098,13.5638 0,1.3009 0.2777,2.6163 0.9354,3.8295 1.6809,3.084 5.2326,4.6772 9.5443,4.6772 3.1718,0 6.6358,-0.8331 10.0122,-2.6164 6.1679,-3.274 9.9097,-8.7989 9.9097,-13.5637 0,-1.3155 -0.2778,-2.6163 -0.9355,-3.8295"
     id="path930"
     inkscape:connector-curvature="0"
     style="stroke-width:0.93543297" />
  <path
     class="Note"
     d="m 1352.7281,961.7378 c -1.6808,-3.0986 -5.2325,-4.7794 -9.5443,-4.7794 -3.1717,0 -6.6358,0.9354 -10.012,2.7185 -6.1681,3.2741 -9.9098,8.7844 -9.9098,13.5638 0,1.3009 0.2777,2.6163 0.9354,3.8295 1.6809,3.084 5.2326,4.6772 9.5443,4.6772 3.1718,0 6.6358,-0.8331 10.0122,-2.6164 6.1679,-3.274 9.9097,-8.7989 9.9097,-13.5637 0,-1.3155 -0.2778,-2.6163 -0.9355,-3.8295"
     id="path932"
     inkscape:connector-curvature="0"
     style="stroke-width:0.93543297" />
  <path
     class="Note"
     d="m 1398.6881,950.0478 c -1.6808,-3.0986 -5.2325,-4.7794 -9.5443,-4.7794 -3.1717,0 -6.6358,0.9354 -10.012,2.7185 -6.1681,3.2741 -9.9098,8.7844 -9.9098,13.5638 0,1.3009 0.2777,2.6163 0.9354,3.8295 1.6809,3.084 5.2326,4.6772 9.5443,4.6772 3.1718,0 6.6358,-0.8331 10.0122,-2.6164 6.1679,-3.274 9.9097,-8.7989 9.9097,-13.5637 0,-1.3155 -0.2778,-2.6163 -0.9355,-3.8295"
     id="path934"
     inkscape:connector-curvature="0"
     style="stroke-width:0.93543297" />
  <path
     class="Note"
     d="m 1444.6481,985.1278 c -1.6808,-3.0986 -5.2325,-4.7794 -9.5443,-4.7794 -3.1717,0 -6.6358,0.9354 -10.012,2.7185 -6.1681,3.2741 -9.9098,8.7844 -9.9098,13.5638 0,1.3009 0.2777,2.6163 0.9354,3.8295 1.6809,3.084 5.2326,4.6772 9.5443,4.6772 3.1718,0 6.6358,-0.8331 10.0122,-2.6164 6.1679,-3.274 9.9097,-8.7989 9.9097,-13.5637 0,-1.3155 -0.2778,-2.6163 -0.9355,-3.8295"
     id="path936"
     inkscape:connector-curvature="0"
     style="stroke-width:0.93543297" />
  <path
     class="Note"
     d="m 1490.6081,985.1278 c -1.6808,-3.0986 -5.2325,-4.7794 -9.5443,-4.7794 -3.1717,0 -6.6358,0.9354 -10.012,2.7185 -6.1681,3.2741 -9.9098,8.7844 -9.9098,13.5638 0,1.3009 0.2777,2.6163 0.9354,3.8295 1.6809,3.084 5.2326,4.6772 9.5443,4.6772 3.1718,0 6.6358,-0.8331 10.0122,-2.6164 6.1679,-3.274 9.9097,-8.7989 9.9097,-13.5637 0,-1.3155 -0.2778,-2.6163 -0.9355,-3.8295"
     id="path938"
     inkscape:connector-curvature="0"
     style="stroke-width:0.93543297" />
  <path
     class="Note"
     d="m 299.9807,286.479 11.4152,-8.9743 c 0.2777,-0.19 0.4677,-0.57 0.4677,-0.9355 v -0.1022 c 0,-0.3655 -0.19,-0.6578 -0.3654,-0.8332 l -1.1254,-1.1254 c -0.2778,-0.19 -0.5701,-0.38 -0.9355,-0.38 -0.2777,0 -0.6578,0.1022 -0.8477,0.2776 l -11.8829,9.4567 -11.9707,-9.4567 c -0.19,-0.1754 -0.5554,-0.2776 -0.8477,-0.2776 -0.3654,0 -0.5554,0.19 -0.8331,0.38 l -1.2132,1.1254 c -0.19,0.1754 -0.38,0.5554 -0.38,0.9354 0,0.3655 0.19,0.7455 0.4677,0.9355 l 11.4152,8.9743 -11.4152,8.9743 c -0.2777,0.19 -0.4677,0.57 -0.4677,0.9355 0,0.2923 0.19,0.6577 0.38,0.8477 l 1.1108,1.2131 c 0.1901,0.2778 0.5701,0.38 0.9355,0.38 0.2923,0 0.6577,-0.1022 0.8477,-0.2776 l 11.9707,-9.4567 11.8829,9.4567 c 0.1899,0.1754 0.57,0.2776 0.8477,0.2776 0.3654,0 0.7454,-0.1022 0.9355,-0.38 l 1.1254,-1.2131 c 0.1754,-0.19 0.3654,-0.5554 0.3654,-0.8477 0,-0.3655 -0.19,-0.7455 -0.4677,-0.9355 l -11.4152,-8.9743"
     id="path1036"
     inkscape:connector-curvature="0"
     style="stroke-width:0.93543297" />
  <path
     class="Note"
     d="m 360.5107,286.479 11.4152,-8.9743 c 0.2777,-0.19 0.4677,-0.57 0.4677,-0.9355 v -0.1022 c 0,-0.3655 -0.19,-0.6578 -0.3654,-0.8332 l -1.1254,-1.1254 c -0.2778,-0.19 -0.5701,-0.38 -0.9355,-0.38 -0.2777,0 -0.6578,0.1022 -0.8477,0.2776 l -11.8829,9.4567 -11.9707,-9.4567 c -0.19,-0.1754 -0.5554,-0.2776 -0.8477,-0.2776 -0.3654,0 -0.5554,0.19 -0.8331,0.38 l -1.2132,1.1254 c -0.19,0.1754 -0.38,0.5554 -0.38,0.9354 0,0.3655 0.19,0.7455 0.4677,0.9355 l 11.4152,8.9743 -11.4152,8.9743 c -0.2777,0.19 -0.4677,0.57 -0.4677,0.9355 0,0.2923 0.19,0.6577 0.38,0.8477 l 1.1108,1.2131 c 0.1901,0.2778 0.5701,0.38 0.9355,0.38 0.2923,0 0.6577,-0.1022 0.8477,-0.2776 l 11.9707,-9.4567 11.8829,9.4567 c 0.1899,0.1754 0.57,0.2776 0.8477,0.2776 0.3654,0 0.7454,-0.1022 0.9355,-0.38 l 1.1254,-1.2131 c 0.1754,-0.19 0.3654,-0.5554 0.3654,-0.8477 0,-0.3655 -0.19,-0.7455 -0.4677,-0.9355 l -11.4152,-8.9743"
     id="path1038"
     inkscape:connector-curvature="0"
     style="stroke-width:0.93543297" />
  <path
     class="Note"
     d="m 421.0307,286.479 11.4152,-8.9743 c 0.2777,-0.19 0.4677,-0.57 0.4677,-0.9355 v -0.1022 c 0,-0.3655 -0.19,-0.6578 -0.3654,-0.8332 l -1.1254,-1.1254 c -0.2778,-0.19 -0.5701,-0.38 -0.9355,-0.38 -0.2777,0 -0.6578,0.1022 -0.8477,0.2776 l -11.8829,9.4567 -11.9707,-9.4567 c -0.19,-0.1754 -0.5554,-0.2776 -0.8477,-0.2776 -0.3654,0 -0.5554,0.19 -0.8331,0.38 l -1.2132,1.1254 c -0.19,0.1754 -0.38,0.5554 -0.38,0.9354 0,0.3655 0.19,0.7455 0.4677,0.9355 l 11.4152,8.9743 -11.4152,8.9743 c -0.2777,0.19 -0.4677,0.57 -0.4677,0.9355 0,0.2923 0.19,0.6577 0.38,0.8477 l 1.1108,1.2131 c 0.1901,0.2778 0.5701,0.38 0.9355,0.38 0.2923,0 0.6577,-0.1022 0.8477,-0.2776 l 11.9707,-9.4567 11.8829,9.4567 c 0.1899,0.1754 0.57,0.2776 0.8477,0.2776 0.3654,0 0.7454,-0.1022 0.9355,-0.38 l 1.1254,-1.2131 c 0.1754,-0.19 0.3654,-0.5554 0.3654,-0.8477 0,-0.3655 -0.19,-0.7455 -0.4677,-0.9355 l -11.4152,-8.9743"
     id="path1040"
     inkscape:connector-curvature="0"
     style="stroke-width:0.93543297" />
  <path
     class="Note"
     d="m 481.5607,286.479 11.4152,-8.9743 c 0.2777,-0.19 0.4677,-0.57 0.4677,-0.9355 v -0.1022 c 0,-0.3655 -0.19,-0.6578 -0.3654,-0.8332 l -1.1254,-1.1254 c -0.2778,-0.19 -0.5701,-0.38 -0.9355,-0.38 -0.2777,0 -0.6578,0.1022 -0.8477,0.2776 l -11.8829,9.4567 -11.9707,-9.4567 c -0.19,-0.1754 -0.5554,-0.2776 -0.8477,-0.2776 -0.3654,0 -0.5554,0.19 -0.8331,0.38 l -1.2132,1.1254 c -0.19,0.1754 -0.38,0.5554 -0.38,0.9354 0,0.3655 0.19,0.7455 0.4677,0.9355 l 11.4152,8.9743 -11.4152,8.9743 c -0.2777,0.19 -0.4677,0.57 -0.4677,0.9355 0,0.2923 0.19,0.6577 0.38,0.8477 l 1.1108,1.2131 c 0.1901,0.2778 0.5701,0.38 0.9355,0.38 0.2923,0 0.6577,-0.1022 0.8477,-0.2776 l 11.9707,-9.4567 11.8829,9.4567 c 0.1899,0.1754 0.57,0.2776 0.8477,0.2776 0.3654,0 0.7454,-0.1022 0.9355,-0.38 l 1.1254,-1.2131 c 0.1754,-0.19 0.3654,-0.5554 0.3654,-0.8477 0,-0.3655 -0.19,-0.7455 -0.4677,-0.9355 l -11.4152,-8.9743"
     id="path1042"
     inkscape:connector-curvature="0"
     style="stroke-width:0.93543297" />
  <path
     class="Note"
     d="m 542.0807,286.479 11.4152,-8.9743 c 0.2777,-0.19 0.4677,-0.57 0.4677,-0.9355 v -0.1022 c 0,-0.3655 -0.19,-0.6578 -0.3654,-0.8332 l -1.1254,-1.1254 c -0.2778,-0.19 -0.5701,-0.38 -0.9355,-0.38 -0.2777,0 -0.6578,0.1022 -0.8477,0.2776 l -11.8829,9.4567 -11.9707,-9.4567 c -0.19,-0.1754 -0.5554,-0.2776 -0.8477,-0.2776 -0.3654,0 -0.5554,0.19 -0.8331,0.38 l -1.2132,1.1254 c -0.19,0.1754 -0.38,0.5554 -0.38,0.9354 0,0.3655 0.19,0.7455 0.4677,0.9355 l 11.4152,8.9743 -11.4152,8.9743 c -0.2777,0.19 -0.4677,0.57 -0.4677,0.9355 0,0.2923 0.19,0.6577 0.38,0.8477 l 1.1108,1.2131 c 0.1901,0.2778 0.5701,0.38 0.9355,0.38 0.2923,0 0.6577,-0.1022 0.8477,-0.2776 l 11.9707,-9.4567 11.8829,9.4567 c 0.1899,0.1754 0.57,0.2776 0.8477,0.2776 0.3654,0 0.7454,-0.1022 0.9355,-0.38 l 1.1254,-1.2131 c 0.1754,-0.19 0.3654,-0.5554 0.3654,-0.8477 0,-0.3655 -0.19,-0.7455 -0.4677,-0.9355 l -11.4152,-8.9743"
     id="path1044"
     inkscape:connector-curvature="0"
     style="stroke-width:0.93543297" />
  <path
     class="Note"
     d="m 602.6107,286.479 11.4152,-8.9743 c 0.2777,-0.19 0.4677,-0.57 0.4677,-0.9355 v -0.1022 c 0,-0.3655 -0.19,-0.6578 -0.3654,-0.8332 l -1.1254,-1.1254 c -0.2778,-0.19 -0.5701,-0.38 -0.9355,-0.38 -0.2777,0 -0.6578,0.1022 -0.8477,0.2776 l -11.8829,9.4567 -11.9707,-9.4567 c -0.19,-0.1754 -0.5554,-0.2776 -0.8477,-0.2776 -0.3654,0 -0.5554,0.19 -0.8331,0.38 l -1.2132,1.1254 c -0.19,0.1754 -0.38,0.5554 -0.38,0.9354 0,0.3655 0.19,0.7455 0.4677,0.9355 l 11.4152,8.9743 -11.4152,8.9743 c -0.2777,0.19 -0.4677,0.57 -0.4677,0.9355 0,0.2923 0.19,0.6577 0.38,0.8477 l 1.1108,1.2131 c 0.1901,0.2778 0.5701,0.38 0.9355,0.38 0.2923,0 0.6577,-0.1022 0.8477,-0.2776 l 11.9707,-9.4567 11.8829,9.4567 c 0.1899,0.1754 0.57,0.2776 0.8477,0.2776 0.3654,0 0.7454,-0.1022 0.9355,-0.38 l 1.1254,-1.2131 c 0.1754,-0.19 0.3654,-0.5554 0.3654,-0.8477 0,-0.3655 -0.19,-0.7455 -0.4677,-0.9355 l -11.4152,-8.9743"
     id="path1046"
     inkscape:connector-curvature="0"
     style="stroke-width:0.93543297" />
  <path
     class="Note"
     d="m 663.1307,286.479 11.4152,-8.9743 c 0.2777,-0.19 0.4677,-0.57 0.4677,-0.9355 v -0.1022 c 0,-0.3655 -0.19,-0.6578 -0.3654,-0.8332 l -1.1254,-1.1254 c -0.2778,-0.19 -0.5701,-0.38 -0.9355,-0.38 -0.2777,0 -0.6578,0.1022 -0.8477,0.2776 l -11.8829,9.4567 -11.9707,-9.4567 c -0.19,-0.1754 -0.5554,-0.2776 -0.8477,-0.2776 -0.3654,0 -0.5554,0.19 -0.8331,0.38 l -1.2132,1.1254 c -0.19,0.1754 -0.38,0.5554 -0.38,0.9354 0,0.3655 0.19,0.7455 0.4677,0.9355 l 11.4152,8.9743 -11.4152,8.9743 c -0.2777,0.19 -0.4677,0.57 -0.4677,0.9355 0,0.2923 0.19,0.6577 0.38,0.8477 l 1.1108,1.2131 c 0.1901,0.2778 0.5701,0.38 0.9355,0.38 0.2923,0 0.6577,-0.1022 0.8477,-0.2776 l 11.9707,-9.4567 11.8829,9.4567 c 0.1899,0.1754 0.57,0.2776 0.8477,0.2776 0.3654,0 0.7454,-0.1022 0.9355,-0.38 l 1.1254,-1.2131 c 0.1754,-0.19 0.3654,-0.5554 0.3654,-0.8477 0,-0.3655 -0.19,-0.7455 -0.4677,-0.9355 l -11.4152,-8.9743"
     id="path1048"
     inkscape:connector-curvature="0"
     style="stroke-width:0.93543297" />
  <path
     class="Note"
     d="m 723.6507,286.479 11.4152,-8.9743 c 0.2777,-0.19 0.4677,-0.57 0.4677,-0.9355 v -0.1022 c 0,-0.3655 -0.19,-0.6578 -0.3654,-0.8332 l -1.1254,-1.1254 c -0.2778,-0.19 -0.5701,-0.38 -0.9355,-0.38 -0.2777,0 -0.6578,0.1022 -0.8477,0.2776 l -11.8829,9.4567 -11.9707,-9.4567 c -0.19,-0.1754 -0.5554,-0.2776 -0.8477,-0.2776 -0.3654,0 -0.5554,0.19 -0.8331,0.38 l -1.2132,1.1254 c -0.19,0.1754 -0.38,0.5554 -0.38,0.9354 0,0.3655 0.19,0.7455 0.4677,0.9355 l 11.4152,8.9743 -11.4152,8.9743 c -0.2777,0.19 -0.4677,0.57 -0.4677,0.9355 0,0.2923 0.19,0.6577 0.38,0.8477 l 1.1108,1.2131 c 0.1901,0.2778 0.5701,0.38 0.9355,0.38 0.2923,0 0.6577,-0.1022 0.8477,-0.2776 l 11.9707,-9.4567 11.8829,9.4567 c 0.1899,0.1754 0.57,0.2776 0.8477,0.2776 0.3654,0 0.7454,-0.1022 0.9355,-0.38 l 1.1254,-1.2131 c 0.1754,-0.19 0.3654,-0.5554 0.3654,-0.8477 0,-0.3655 -0.19,-0.7455 -0.4677,-0.9355 l -11.4152,-8.9743"
     id="path1050"
     inkscape:connector-curvature="0"
     style="stroke-width:0.93543297" />
  <path
     class="Note"
     d="m 823.7407,286.479 11.4152,-8.9743 c 0.2777,-0.19 0.4677,-0.57 0.4677,-0.9355 v -0.1022 c 0,-0.3655 -0.19,-0.6578 -0.3654,-0.8332 l -1.1254,-1.1254 c -0.2778,-0.19 -0.5701,-0.38 -0.9355,-0.38 -0.2777,0 -0.6578,0.1022 -0.8477,0.2776 l -11.8829,9.4567 -11.9707,-9.4567 c -0.19,-0.1754 -0.5554,-0.2776 -0.8477,-0.2776 -0.3654,0 -0.5554,0.19 -0.8331,0.38 l -1.2132,1.1254 c -0.19,0.1754 -0.38,0.5554 -0.38,0.9354 0,0.3655 0.19,0.7455 0.4677,0.9355 l 11.4152,8.9743 -11.4152,8.9743 c -0.2777,0.19 -0.4677,0.57 -0.4677,0.9355 0,0.2923 0.19,0.6577 0.38,0.8477 l 1.1108,1.2131 c 0.1901,0.2778 0.5701,0.38 0.9355,0.38 0.2923,0 0.6577,-0.1022 0.8477,-0.2776 l 11.9707,-9.4567 11.8829,9.4567 c 0.1899,0.1754 0.57,0.2776 0.8477,0.2776 0.3654,0 0.7454,-0.1022 0.9355,-0.38 l 1.1254,-1.2131 c 0.1754,-0.19 0.3654,-0.5554 0.3654,-0.8477 0,-0.3655 -0.19,-0.7455 -0.4677,-0.9355 l -11.4152,-8.9743"
     id="path1052"
     inkscape:connector-curvature="0"
     style="stroke-width:0.93543297" />
  <path
     class="Note"
     d="m 895.9707,286.479 11.4152,-8.9743 c 0.2777,-0.19 0.4677,-0.57 0.4677,-0.9355 v -0.1022 c 0,-0.3655 -0.19,-0.6578 -0.3654,-0.8332 l -1.1254,-1.1254 c -0.2778,-0.19 -0.5701,-0.38 -0.9355,-0.38 -0.2777,0 -0.6578,0.1022 -0.8477,0.2776 l -11.8829,9.4567 -11.9707,-9.4567 c -0.19,-0.1754 -0.5554,-0.2776 -0.8477,-0.2776 -0.3654,0 -0.5554,0.19 -0.8331,0.38 l -1.2132,1.1254 c -0.19,0.1754 -0.38,0.5554 -0.38,0.9354 0,0.3655 0.19,0.7455 0.4677,0.9355 l 11.4152,8.9743 -11.4152,8.9743 c -0.2777,0.19 -0.4677,0.57 -0.4677,0.9355 0,0.2923 0.19,0.6577 0.38,0.8477 l 1.1108,1.2131 c 0.1901,0.2778 0.5701,0.38 0.9355,0.38 0.2923,0 0.6577,-0.1022 0.8477,-0.2776 l 11.9707,-9.4567 11.8829,9.4567 c 0.1899,0.1754 0.57,0.2776 0.8477,0.2776 0.3654,0 0.7454,-0.1022 0.9355,-0.38 l 1.1254,-1.2131 c 0.1754,-0.19 0.3654,-0.5554 0.3654,-0.8477 0,-0.3655 -0.19,-0.7455 -0.4677,-0.9355 l -11.4152,-8.9743"
     id="path1054"
     inkscape:connector-curvature="0"
     style="stroke-width:0.93543297" />
  <path
     class="Note"
     d="m 968.2107,286.479 11.4152,-8.9743 c 0.2777,-0.19 0.4677,-0.57 0.4677,-0.9355 v -0.1022 c 0,-0.3655 -0.19,-0.6578 -0.3654,-0.8332 l -1.1254,-1.1254 c -0.2778,-0.19 -0.5701,-0.38 -0.9355,-0.38 -0.2777,0 -0.6578,0.1022 -0.8477,0.2776 l -11.8829,9.4567 -11.9707,-9.4567 c -0.19,-0.1754 -0.5554,-0.2776 -0.8477,-0.2776 -0.3654,0 -0.5554,0.19 -0.8331,0.38 l -1.2132,1.1254 c -0.19,0.1754 -0.38,0.5554 -0.38,0.9354 0,0.3655 0.19,0.7455 0.4677,0.9355 l 11.4152,8.9743 -11.4152,8.9743 c -0.2777,0.19 -0.4677,0.57 -0.4677,0.9355 0,0.2923 0.19,0.6577 0.38,0.8477 l 1.1108,1.2131 c 0.1901,0.2778 0.5701,0.38 0.9355,0.38 0.2923,0 0.6577,-0.1022 0.8477,-0.2776 l 11.9707,-9.4567 11.8829,9.4567 c 0.1899,0.1754 0.57,0.2776 0.8477,0.2776 0.3654,0 0.7454,-0.1022 0.9355,-0.38 l 1.1254,-1.2131 c 0.1754,-0.19 0.3654,-0.5554 0.3654,-0.8477 0,-0.3655 -0.19,-0.7455 -0.4677,-0.9355 l -11.4152,-8.9743"
     id="path1056"
     inkscape:connector-curvature="0"
     style="stroke-width:0.93543297" />
  <path
     class="Note"
     d="m 1040.4407,286.479 11.4152,-8.9743 c 0.2777,-0.19 0.4677,-0.57 0.4677,-0.9355 v -0.1022 c 0,-0.3655 -0.19,-0.6578 -0.3654,-0.8332 l -1.1254,-1.1254 c -0.2778,-0.19 -0.5701,-0.38 -0.9355,-0.38 -0.2777,0 -0.6578,0.1022 -0.8477,0.2776 l -11.8829,9.4567 -11.9707,-9.4567 c -0.19,-0.1754 -0.5554,-0.2776 -0.8477,-0.2776 -0.3654,0 -0.5554,0.19 -0.8331,0.38 l -1.2132,1.1254 c -0.19,0.1754 -0.38,0.5554 -0.38,0.9354 0,0.3655 0.19,0.7455 0.4677,0.9355 l 11.4152,8.9743 -11.4152,8.9743 c -0.2777,0.19 -0.4677,0.57 -0.4677,0.9355 0,0.2923 0.19,0.6577 0.38,0.8477 l 1.1108,1.2131 c 0.1901,0.2778 0.5701,0.38 0.9355,0.38 0.2923,0 0.6577,-0.1022 0.8477,-0.2776 l 11.9707,-9.4567 11.8829,9.4567 c 0.1899,0.1754 0.57,0.2776 0.8477,0.2776 0.3654,0 0.7454,-0.1022 0.9355,-0.38 l 1.1254,-1.2131 c 0.1754,-0.19 0.3654,-0.5554 0.3654,-0.8477 0,-0.3655 -0.19,-0.7455 -0.4677,-0.9355 l -11.4152,-8.9743"
     id="path1058"
     inkscape:connector-curvature="0"
     style="stroke-width:0.93543297" />
  <path
     class="Note"
     d="m 1112.6707,286.479 11.4152,-8.9743 c 0.2777,-0.19 0.4677,-0.57 0.4677,-0.9355 v -0.1022 c 0,-0.3655 -0.19,-0.6578 -0.3654,-0.8332 l -1.1254,-1.1254 c -0.2778,-0.19 -0.5701,-0.38 -0.9355,-0.38 -0.2777,0 -0.6578,0.1022 -0.8477,0.2776 l -11.8829,9.4567 -11.9707,-9.4567 c -0.19,-0.1754 -0.5554,-0.2776 -0.8477,-0.2776 -0.3654,0 -0.5554,0.19 -0.8331,0.38 l -1.2132,1.1254 c -0.19,0.1754 -0.38,0.5554 -0.38,0.9354 0,0.3655 0.19,0.7455 0.4677,0.9355 l 11.4152,8.9743 -11.4152,8.9743 c -0.2777,0.19 -0.4677,0.57 -0.4677,0.9355 0,0.2923 0.19,0.6577 0.38,0.8477 l 1.1108,1.2131 c 0.1901,0.2778 0.5701,0.38 0.9355,0.38 0.2923,0 0.6577,-0.1022 0.8477,-0.2776 l 11.9707,-9.4567 11.8829,9.4567 c 0.1899,0.1754 0.57,0.2776 0.8477,0.2776 0.3654,0 0.7454,-0.1022 0.9355,-0.38 l 1.1254,-1.2131 c 0.1754,-0.19 0.3654,-0.5554 0.3654,-0.8477 0,-0.3655 -0.19,-0.7455 -0.4677,-0.9355 l -11.4152,-8.9743"
     id="path1060"
     inkscape:connector-curvature="0"
     style="stroke-width:0.93543297" />
  <path
     class="Note"
     d="m 291.9007,922.539 11.4152,-8.9743 c 0.2777,-0.19 0.4677,-0.57 0.4677,-0.9355 v -0.1022 c 0,-0.3655 -0.19,-0.6578 -0.3654,-0.8332 l -1.1254,-1.1254 c -0.2778,-0.19 -0.5701,-0.38 -0.9355,-0.38 -0.2777,0 -0.6578,0.1022 -0.8477,0.2776 l -11.8829,9.4567 -11.9707,-9.4567 c -0.19,-0.1754 -0.5554,-0.2776 -0.8477,-0.2776 -0.3654,0 -0.5554,0.19 -0.8331,0.38 l -1.2132,1.1254 c -0.19,0.1754 -0.38,0.5554 -0.38,0.9354 0,0.3655 0.19,0.7455 0.4677,0.9355 l 11.4152,8.9743 -11.4152,8.9743 c -0.2777,0.19 -0.4677,0.57 -0.4677,0.9355 0,0.2923 0.19,0.6577 0.38,0.8477 l 1.1108,1.2131 c 0.1901,0.2778 0.5701,0.38 0.9355,0.38 0.2923,0 0.6577,-0.1022 0.8477,-0.2776 l 11.9707,-9.4567 11.8829,9.4567 c 0.1899,0.1754 0.57,0.2776 0.8477,0.2776 0.3654,0 0.7454,-0.1022 0.9355,-0.38 l 1.1254,-1.2131 c 0.1754,-0.19 0.3654,-0.5554 0.3654,-0.8477 0,-0.3655 -0.19,-0.7455 -0.4677,-0.9355 l -11.4152,-8.9743"
     id="path1158"
     inkscape:connector-curvature="0"
     style="stroke-width:0.93543297" />
  <path
     class="Note"
     d="m 353.7107,922.539 11.4152,-8.9743 c 0.2777,-0.19 0.4677,-0.57 0.4677,-0.9355 v -0.1022 c 0,-0.3655 -0.19,-0.6578 -0.3654,-0.8332 l -1.1254,-1.1254 c -0.2778,-0.19 -0.5701,-0.38 -0.9355,-0.38 -0.2777,0 -0.6578,0.1022 -0.8477,0.2776 l -11.8829,9.4567 -11.9707,-9.4567 c -0.19,-0.1754 -0.5554,-0.2776 -0.8477,-0.2776 -0.3654,0 -0.5554,0.19 -0.8331,0.38 l -1.2132,1.1254 c -0.19,0.1754 -0.38,0.5554 -0.38,0.9354 0,0.3655 0.19,0.7455 0.4677,0.9355 l 11.4152,8.9743 -11.4152,8.9743 c -0.2777,0.19 -0.4677,0.57 -0.4677,0.9355 0,0.2923 0.19,0.6577 0.38,0.8477 l 1.1108,1.2131 c 0.1901,0.2778 0.5701,0.38 0.9355,0.38 0.2923,0 0.6577,-0.1022 0.8477,-0.2776 l 11.9707,-9.4567 11.8829,9.4567 c 0.1899,0.1754 0.57,0.2776 0.8477,0.2776 0.3654,0 0.7454,-0.1022 0.9355,-0.38 l 1.1254,-1.2131 c 0.1754,-0.19 0.3654,-0.5554 0.3654,-0.8477 0,-0.3655 -0.19,-0.7455 -0.4677,-0.9355 l -11.4152,-8.9743"
     id="path1160"
     inkscape:connector-curvature="0"
     style="stroke-width:0.93543297" />
  <path
     class="Note"
     d="m 415.5207,922.539 11.4152,-8.9743 c 0.2777,-0.19 0.4677,-0.57 0.4677,-0.9355 v -0.1022 c 0,-0.3655 -0.19,-0.6578 -0.3654,-0.8332 l -1.1254,-1.1254 c -0.2778,-0.19 -0.5701,-0.38 -0.9355,-0.38 -0.2777,0 -0.6578,0.1022 -0.8477,0.2776 l -11.8829,9.4567 -11.9707,-9.4567 c -0.19,-0.1754 -0.5554,-0.2776 -0.8477,-0.2776 -0.3654,0 -0.5554,0.19 -0.8331,0.38 l -1.2132,1.1254 c -0.19,0.1754 -0.38,0.5554 -0.38,0.9354 0,0.3655 0.19,0.7455 0.4677,0.9355 l 11.4152,8.9743 -11.4152,8.9743 c -0.2777,0.19 -0.4677,0.57 -0.4677,0.9355 0,0.2923 0.19,0.6577 0.38,0.8477 l 1.1108,1.2131 c 0.1901,0.2778 0.5701,0.38 0.9355,0.38 0.2923,0 0.6577,-0.1022 0.8477,-0.2776 l 11.9707,-9.4567 11.8829,9.4567 c 0.1899,0.1754 0.57,0.2776 0.8477,0.2776 0.3654,0 0.7454,-0.1022 0.9355,-0.38 l 1.1254,-1.2131 c 0.1754,-0.19 0.3654,-0.5554 0.3654,-0.8477 0,-0.3655 -0.19,-0.7455 -0.4677,-0.9355 l -11.4152,-8.9743"
     id="path1162"
     inkscape:connector-curvature="0"
     style="stroke-width:0.93543297" />
  <path
     class="Note"
     d="m 477.3207,922.539 11.4152,-8.9743 c 0.2777,-0.19 0.4677,-0.57 0.4677,-0.9355 v -0.1022 c 0,-0.3655 -0.19,-0.6578 -0.3654,-0.8332 l -1.1254,-1.1254 c -0.2778,-0.19 -0.5701,-0.38 -0.9355,-0.38 -0.2777,0 -0.6578,0.1022 -0.8477,0.2776 l -11.8829,9.4567 -11.9707,-9.4567 c -0.19,-0.1754 -0.5554,-0.2776 -0.8477,-0.2776 -0.3654,0 -0.5554,0.19 -0.8331,0.38 l -1.2132,1.1254 c -0.19,0.1754 -0.38,0.5554 -0.38,0.9354 0,0.3655 0.19,0.7455 0.4677,0.9355 l 11.4152,8.9743 -11.4152,8.9743 c -0.2777,0.19 -0.4677,0.57 -0.4677,0.9355 0,0.2923 0.19,0.6577 0.38,0.8477 l 1.1108,1.2131 c 0.1901,0.2778 0.5701,0.38 0.9355,0.38 0.2923,0 0.6577,-0.1022 0.8477,-0.2776 l 11.9707,-9.4567 11.8829,9.4567 c 0.1899,0.1754 0.57,0.2776 0.8477,0.2776 0.3654,0 0.7454,-0.1022 0.9355,-0.38 l 1.1254,-1.2131 c 0.1754,-0.19 0.3654,-0.5554 0.3654,-0.8477 0,-0.3655 -0.19,-0.7455 -0.4677,-0.9355 l -11.4152,-8.9743"
     id="path1164"
     inkscape:connector-curvature="0"
     style="stroke-width:0.93543297" />
  <path
     class="Note"
     d="m 541.5407,922.539 11.4152,-8.9743 c 0.2777,-0.19 0.4677,-0.57 0.4677,-0.9355 v -0.1022 c 0,-0.3655 -0.19,-0.6578 -0.3654,-0.8332 l -1.1254,-1.1254 c -0.2778,-0.19 -0.5701,-0.38 -0.9355,-0.38 -0.2777,0 -0.6578,0.1022 -0.8477,0.2776 l -11.8829,9.4567 -11.9707,-9.4567 c -0.19,-0.1754 -0.5554,-0.2776 -0.8477,-0.2776 -0.3654,0 -0.5554,0.19 -0.8331,0.38 l -1.2132,1.1254 c -0.19,0.1754 -0.38,0.5554 -0.38,0.9354 0,0.3655 0.19,0.7455 0.4677,0.9355 l 11.4152,8.9743 -11.4152,8.9743 c -0.2777,0.19 -0.4677,0.57 -0.4677,0.9355 0,0.2923 0.19,0.6577 0.38,0.8477 l 1.1108,1.2131 c 0.1901,0.2778 0.5701,0.38 0.9355,0.38 0.2923,0 0.6577,-0.1022 0.8477,-0.2776 l 11.9707,-9.4567 11.8829,9.4567 c 0.1899,0.1754 0.57,0.2776 0.8477,0.2776 0.3654,0 0.7454,-0.1022 0.9355,-0.38 l 1.1254,-1.2131 c 0.1754,-0.19 0.3654,-0.5554 0.3654,-0.8477 0,-0.3655 -0.19,-0.7455 -0.4677,-0.9355 l -11.4152,-8.9743"
     id="path1166"
     inkscape:connector-curvature="0"
     style="stroke-width:0.93543297" />
  <path
     class="Note"
     d="m 603.3507,922.539 11.4152,-8.9743 c 0.2777,-0.19 0.4677,-0.57 0.4677,-0.9355 v -0.1022 c 0,-0.3655 -0.19,-0.6578 -0.3654,-0.8332 l -1.1254,-1.1254 c -0.2778,-0.19 -0.5701,-0.38 -0.9355,-0.38 -0.2777,0 -0.6578,0.1022 -0.8477,0.2776 l -11.8829,9.4567 -11.9707,-9.4567 c -0.19,-0.1754 -0.5554,-0.2776 -0.8477,-0.2776 -0.3654,0 -0.5554,0.19 -0.8331,0.38 l -1.2132,1.1254 c -0.19,0.1754 -0.38,0.5554 -0.38,0.9354 0,0.3655 0.19,0.7455 0.4677,0.9355 l 11.4152,8.9743 -11.4152,8.9743 c -0.2777,0.19 -0.4677,0.57 -0.4677,0.9355 0,0.2923 0.19,0.6577 0.38,0.8477 l 1.1108,1.2131 c 0.1901,0.2778 0.5701,0.38 0.9355,0.38 0.2923,0 0.6577,-0.1022 0.8477,-0.2776 l 11.9707,-9.4567 11.8829,9.4567 c 0.1899,0.1754 0.57,0.2776 0.8477,0.2776 0.3654,0 0.7454,-0.1022 0.9355,-0.38 l 1.1254,-1.2131 c 0.1754,-0.19 0.3654,-0.5554 0.3654,-0.8477 0,-0.3655 -0.19,-0.7455 -0.4677,-0.9355 l -11.4152,-8.9743"
     id="path1168"
     inkscape:connector-curvature="0"
     style="stroke-width:0.93543297" />
  <path
     class="Note"
     d="m 665.1607,922.539 11.4152,-8.9743 c 0.2777,-0.19 0.4677,-0.57 0.4677,-0.9355 v -0.1022 c 0,-0.3655 -0.19,-0.6578 -0.3654,-0.8332 l -1.1254,-1.1254 c -0.2778,-0.19 -0.5701,-0.38 -0.9355,-0.38 -0.2777,0 -0.6578,0.1022 -0.8477,0.2776 l -11.8829,9.4567 -11.9707,-9.4567 c -0.19,-0.1754 -0.5554,-0.2776 -0.8477,-0.2776 -0.3654,0 -0.5554,0.19 -0.8331,0.38 l -1.2132,1.1254 c -0.19,0.1754 -0.38,0.5554 -0.38,0.9354 0,0.3655 0.19,0.7455 0.4677,0.9355 l 11.4152,8.9743 -11.4152,8.9743 c -0.2777,0.19 -0.4677,0.57 -0.4677,0.9355 0,0.2923 0.19,0.6577 0.38,0.8477 l 1.1108,1.2131 c 0.1901,0.2778 0.5701,0.38 0.9355,0.38 0.2923,0 0.6577,-0.1022 0.8477,-0.2776 l 11.9707,-9.4567 11.8829,9.4567 c 0.1899,0.1754 0.57,0.2776 0.8477,0.2776 0.3654,0 0.7454,-0.1022 0.9355,-0.38 l 1.1254,-1.2131 c 0.1754,-0.19 0.3654,-0.5554 0.3654,-0.8477 0,-0.3655 -0.19,-0.7455 -0.4677,-0.9355 l -11.4152,-8.9743"
     id="path1170"
     inkscape:connector-curvature="0"
     style="stroke-width:0.93543297" />
  <path
     class="Note"
     d="m 726.9607,922.539 11.4152,-8.9743 c 0.2777,-0.19 0.4677,-0.57 0.4677,-0.9355 v -0.1022 c 0,-0.3655 -0.19,-0.6578 -0.3654,-0.8332 l -1.1254,-1.1254 c -0.2778,-0.19 -0.5701,-0.38 -0.9355,-0.38 -0.2777,0 -0.6578,0.1022 -0.8477,0.2776 l -11.8829,9.4567 -11.9707,-9.4567 c -0.19,-0.1754 -0.5554,-0.2776 -0.8477,-0.2776 -0.3654,0 -0.5554,0.19 -0.8331,0.38 l -1.2132,1.1254 c -0.19,0.1754 -0.38,0.5554 -0.38,0.9354 0,0.3655 0.19,0.7455 0.4677,0.9355 l 11.4152,8.9743 -11.4152,8.9743 c -0.2777,0.19 -0.4677,0.57 -0.4677,0.9355 0,0.2923 0.19,0.6577 0.38,0.8477 l 1.1108,1.2131 c 0.1901,0.2778 0.5701,0.38 0.9355,0.38 0.2923,0 0.6577,-0.1022 0.8477,-0.2776 l 11.9707,-9.4567 11.8829,9.4567 c 0.1899,0.1754 0.57,0.2776 0.8477,0.2776 0.3654,0 0.7454,-0.1022 0.9355,-0.38 l 1.1254,-1.2131 c 0.1754,-0.19 0.3654,-0.5554 0.3654,-0.8477 0,-0.3655 -0.19,-0.7455 -0.4677,-0.9355 l -11.4152,-8.9743"
     id="path1172"
     inkscape:connector-curvature="0"
     style="stroke-width:0.93543297" />
  <path
     class="Note"
     d="m 827.0507,922.539 11.4152,-8.9743 c 0.2777,-0.19 0.4677,-0.57 0.4677,-0.9355 v -0.1022 c 0,-0.3655 -0.19,-0.6578 -0.3654,-0.8332 l -1.1254,-1.1254 c -0.2778,-0.19 -0.5701,-0.38 -0.9355,-0.38 -0.2777,0 -0.6578,0.1022 -0.8477,0.2776 l -11.8829,9.4567 -11.9707,-9.4567 c -0.19,-0.1754 -0.5554,-0.2776 -0.8477,-0.2776 -0.3654,0 -0.5554,0.19 -0.8331,0.38 l -1.2132,1.1254 c -0.19,0.1754 -0.38,0.5554 -0.38,0.9354 0,0.3655 0.19,0.7455 0.4677,0.9355 l 11.4152,8.9743 -11.4152,8.9743 c -0.2777,0.19 -0.4677,0.57 -0.4677,0.9355 0,0.2923 0.19,0.6577 0.38,0.8477 l 1.1108,1.2131 c 0.1901,0.2778 0.5701,0.38 0.9355,0.38 0.2923,0 0.6577,-0.1022 0.8477,-0.2776 l 11.9707,-9.4567 11.8829,9.4567 c 0.1899,0.1754 0.57,0.2776 0.8477,0.2776 0.3654,0 0.7454,-0.1022 0.9355,-0.38 l 1.1254,-1.2131 c 0.1754,-0.19 0.3654,-0.5554 0.3654,-0.8477 0,-0.3655 -0.19,-0.7455 -0.4677,-0.9355 l -11.4152,-8.9743"
     id="path1174"
     inkscape:connector-curvature="0"
     style="stroke-width:0.93543297" />
  <path
     class="Note"
     d="m 900.5807,922.539 11.4152,-8.9743 c 0.2777,-0.19 0.4677,-0.57 0.4677,-0.9355 v -0.1022 c 0,-0.3655 -0.19,-0.6578 -0.3654,-0.8332 l -1.1254,-1.1254 c -0.2778,-0.19 -0.5701,-0.38 -0.9355,-0.38 -0.2777,0 -0.6578,0.1022 -0.8477,0.2776 l -11.8829,9.4567 -11.9707,-9.4567 c -0.19,-0.1754 -0.5554,-0.2776 -0.8477,-0.2776 -0.3654,0 -0.5554,0.19 -0.8331,0.38 l -1.2132,1.1254 c -0.19,0.1754 -0.38,0.5554 -0.38,0.9354 0,0.3655 0.19,0.7455 0.4677,0.9355 l 11.4152,8.9743 -11.4152,8.9743 c -0.2777,0.19 -0.4677,0.57 -0.4677,0.9355 0,0.2923 0.19,0.6577 0.38,0.8477 l 1.1108,1.2131 c 0.1901,0.2778 0.5701,0.38 0.9355,0.38 0.2923,0 0.6577,-0.1022 0.8477,-0.2776 l 11.9707,-9.4567 11.8829,9.4567 c 0.1899,0.1754 0.57,0.2776 0.8477,0.2776 0.3654,0 0.7454,-0.1022 0.9355,-0.38 l 1.1254,-1.2131 c 0.1754,-0.19 0.3654,-0.5554 0.3654,-0.8477 0,-0.3655 -0.19,-0.7455 -0.4677,-0.9355 l -11.4152,-8.9743"
     id="path1176"
     inkscape:connector-curvature="0"
     style="stroke-width:0.93543297" />
  <path
     class="Note"
     d="m 310.9281,21.66184 c -1.6808,-3.09867 -5.2325,-4.77946 -9.5443,-4.77946 -3.1717,0 -6.6358,0.93544 -10.012,2.71856 -6.1681,3.27403 -9.9098,8.78432 -9.9098,13.56381 0,1.30085 0.2777,2.61625 0.9354,3.82945 1.6809,3.084 5.2326,4.6772 9.5443,4.6772 3.1718,0 6.6358,-0.8331 10.0122,-2.6164 6.1679,-3.274 9.9097,-8.79887 9.9097,-13.56373 0,-1.31545 -0.2778,-2.6163 -0.9355,-3.82943"
     id="path1226"
     inkscape:connector-curvature="0"
     style="stroke-width:0.93543297" />
  <path
     class="Note"
     d="m 492.5081,21.66184 c -1.6808,-3.09867 -5.2325,-4.77946 -9.5443,-4.77946 -3.1717,0 -6.6358,0.93544 -10.012,2.71856 -6.1681,3.27403 -9.9098,8.78432 -9.9098,13.56381 0,1.30085 0.2777,2.61625 0.9354,3.82945 1.6809,3.084 5.2326,4.6772 9.5443,4.6772 3.1718,0 6.6358,-0.8331 10.0122,-2.6164 6.1679,-3.274 9.9097,-8.79887 9.9097,-13.56373 0,-1.31545 -0.2778,-2.6163 -0.9355,-3.82943"
     id="path1228"
     inkscape:connector-curvature="0"
     style="stroke-width:0.93543297" />
  <path
     class="Note"
     d="m 553.0281,21.66184 c -1.6808,-3.09867 -5.2325,-4.77946 -9.5443,-4.77946 -3.1717,0 -6.6358,0.93544 -10.012,2.71856 -6.1681,3.27403 -9.9098,8.78432 -9.9098,13.56381 0,1.30085 0.2777,2.61625 0.9354,3.82945 1.6809,3.084 5.2326,4.6772 9.5443,4.6772 3.1718,0 6.6358,-0.8331 10.0122,-2.6164 6.1679,-3.274 9.9097,-8.79887 9.9097,-13.56373 0,-1.31545 -0.2778,-2.6163 -0.9355,-3.82943"
     id="path1230"
     inkscape:connector-curvature="0"
     style="stroke-width:0.93543297" />
  <path
     class="Note"
     d="m 613.5581,33.3578 c -1.6808,-3.09863 -5.2325,-4.77942 -9.5443,-4.77942 -3.1717,0 -6.6358,0.93544 -10.012,2.71856 -6.1681,3.27406 -9.9098,8.78436 -9.9098,13.56376 0,1.3009 0.2777,2.6163 0.9354,3.8295 1.6809,3.084 5.2326,4.6772 9.5443,4.6772 3.1718,0 6.6358,-0.8331 10.0122,-2.6164 6.1679,-3.274 9.9097,-8.7989 9.9097,-13.5637 0,-1.3155 -0.2778,-2.6163 -0.9355,-3.8295"
     id="path1232"
     inkscape:connector-curvature="0"
     style="stroke-width:0.93543297" />
  <path
     class="Note"
     d="m 674.0781,45.0478 c -1.6808,-3.0986 -5.2325,-4.7794 -9.5443,-4.7794 -3.1717,0 -6.6358,0.9354 -10.012,2.7185 -6.1681,3.2741 -9.9098,8.7844 -9.9098,13.5638 0,1.3009 0.2777,2.6163 0.9354,3.8295 1.6809,3.084 5.2326,4.6772 9.5443,4.6772 3.1718,0 6.6358,-0.8331 10.0122,-2.6164 6.1679,-3.274 9.9097,-8.7989 9.9097,-13.5637 0,-1.3155 -0.2778,-2.6163 -0.9355,-3.8295"
     id="path1234"
     inkscape:connector-curvature="0"
     style="stroke-width:0.93543297" />
  <path
     class="Note"
     d="m 734.5981,56.7378 c -1.6808,-3.0986 -5.2325,-4.7794 -9.5443,-4.7794 -3.1717,0 -6.6358,0.9354 -10.012,2.7185 -6.1681,3.2741 -9.9098,8.7844 -9.9098,13.5638 0,1.3009 0.2777,2.6163 0.9354,3.8295 1.6809,3.084 5.2326,4.6772 9.5443,4.6772 3.1718,0 6.6358,-0.8331 10.0122,-2.6164 6.1679,-3.274 9.9097,-8.7989 9.9097,-13.5637 0,-1.3155 -0.2778,-2.6163 -0.9355,-3.8295"
     id="path1236"
     inkscape:connector-curvature="0"
     style="stroke-width:0.93543297" />
  <path
     class="Note"
     d="m 834.6881,68.394 c -1.6808,-3.084 -5.2325,-4.7649 -9.5443,-4.7649 -3.1717,0 -6.6358,0.9354 -10.012,2.704 -6.1681,3.274 -9.9098,8.7989 -9.9098,13.5638 0,1.3154 0.2777,2.6309 0.9354,3.844 1.6809,3.0986 5.2326,4.6919 9.5443,4.6919 3.1718,0 6.6358,-0.8478 10.0122,-2.6163 6.1679,-3.2887 9.9097,-8.8136 9.9097,-13.5931 0,-1.3008 -0.2778,-2.6163 -0.9355,-3.8294 m -4.0194,6.358 c -1.5932,1.5932 -4.7794,3.5517 -8.1412,5.4372 -3.3617,1.8709 -6.738,3.274 -8.9743,3.7417 -0.4677,0.1024 -0.9354,0.1901 -1.4031,0.1901 -1.5055,0 -2.631,-0.5555 -3.2741,-1.7832 -0.2923,-0.4677 -0.4677,-1.0231 -0.4677,-1.5932 0,-1.0231 0.6431,-2.2509 1.6809,-3.274 1.5931,-1.5931 4.6771,-3.5517 8.0389,-5.4226 3.3763,-1.8708 6.738,-3.274 8.9889,-3.7417 0.4677,-0.1023 0.9355,-0.19 1.4032,-0.19 1.4908,0 2.7039,0.5554 3.3616,1.7685 0.2778,0.4677 0.3801,1.0378 0.3801,1.5932 0,1.0377 -0.57,2.1486 -1.5932,3.274"
     id="path1238"
     inkscape:connector-curvature="0"
     style="stroke-width:0.93543297" />
  <path
     class="Note"
     d="m 302.8481,657.7278 c -1.6808,-3.0986 -5.2325,-4.7794 -9.5443,-4.7794 -3.1717,0 -6.6358,0.9354 -10.012,2.7185 -6.1681,3.2741 -9.9098,8.7844 -9.9098,13.5638 0,1.3009 0.2777,2.6163 0.9354,3.8295 1.6809,3.084 5.2326,4.6772 9.5443,4.6772 3.1718,0 6.6358,-0.8331 10.0122,-2.6164 6.1679,-3.274 9.9097,-8.7989 9.9097,-13.5637 0,-1.3155 -0.2778,-2.6163 -0.9355,-3.8295"
     id="path1288"
     inkscape:connector-curvature="0"
     style="stroke-width:0.93543297" />
  <path
     class="Note"
     d="m 488.2681,739.5778 c -1.6808,-3.0986 -5.2325,-4.7794 -9.5443,-4.7794 -3.1717,0 -6.6358,0.9354 -10.012,2.7185 -6.1681,3.2741 -9.9098,8.7844 -9.9098,13.5638 0,1.3009 0.2777,2.6163 0.9354,3.8295 1.6809,3.084 5.2326,4.6772 9.5443,4.6772 3.1718,0 6.6358,-0.8331 10.0122,-2.6164 6.1679,-3.274 9.9097,-8.7989 9.9097,-13.5637 0,-1.3155 -0.2778,-2.6163 -0.9355,-3.8295"
     id="path1290"
     inkscape:connector-curvature="0"
     style="stroke-width:0.93543297" />
  <path
     class="Note"
     d="m 552.4881,739.5778 c -1.6808,-3.0986 -5.2325,-4.7794 -9.5443,-4.7794 -3.1717,0 -6.6358,0.9354 -10.012,2.7185 -6.1681,3.2741 -9.9098,8.7844 -9.9098,13.5638 0,1.3009 0.2777,2.6163 0.9354,3.8295 1.6809,3.084 5.2326,4.6772 9.5443,4.6772 3.1718,0 6.6358,-0.8331 10.0122,-2.6164 6.1679,-3.274 9.9097,-8.7989 9.9097,-13.5637 0,-1.3155 -0.2778,-2.6163 -0.9355,-3.8295"
     id="path1292"
     inkscape:connector-curvature="0"
     style="stroke-width:0.93543297" />
  <path
     class="Note"
     d="m 676.1081,727.8778 c -1.6808,-3.0986 -5.2325,-4.7794 -9.5443,-4.7794 -3.1717,0 -6.6358,0.9354 -10.012,2.7185 -6.1681,3.2741 -9.9098,8.7844 -9.9098,13.5638 0,1.3009 0.2777,2.6163 0.9354,3.8295 1.6809,3.084 5.2326,4.6772 9.5443,4.6772 3.1718,0 6.6358,-0.8331 10.0122,-2.6164 6.1679,-3.274 9.9097,-8.7989 9.9097,-13.5637 0,-1.3155 -0.2778,-2.6163 -0.9355,-3.8295"
     id="path1294"
     inkscape:connector-curvature="0"
     style="stroke-width:0.93543297" />
  <path
     class="Note"
     d="m 737.9081,716.1878 c -1.6808,-3.0986 -5.2325,-4.7794 -9.5443,-4.7794 -3.1717,0 -6.6358,0.9354 -10.012,2.7185 -6.1681,3.2741 -9.9098,8.7844 -9.9098,13.5638 0,1.3009 0.2777,2.6163 0.9354,3.8295 1.6809,3.084 5.2326,4.6772 9.5443,4.6772 3.1718,0 6.6358,-0.8331 10.0122,-2.6164 6.1679,-3.274 9.9097,-8.7989 9.9097,-13.5637 0,-1.3155 -0.2778,-2.6163 -0.9355,-3.8295"
     id="path1296"
     inkscape:connector-curvature="0"
     style="stroke-width:0.93543297" />
  <path
     class="Note"
     d="m 837.9981,704.454 c -1.6808,-3.084 -5.2325,-4.7649 -9.5443,-4.7649 -3.1717,0 -6.6358,0.9354 -10.012,2.704 -6.1681,3.274 -9.9098,8.7989 -9.9098,13.5638 0,1.3154 0.2777,2.6309 0.9354,3.844 1.6809,3.0986 5.2326,4.6919 9.5443,4.6919 3.1718,0 6.6358,-0.8478 10.0122,-2.6163 6.1679,-3.2887 9.9097,-8.8136 9.9097,-13.5931 0,-1.3008 -0.2778,-2.6163 -0.9355,-3.8294 m -4.0194,6.358 c -1.5932,1.5932 -4.7794,3.5517 -8.1412,5.4372 -3.3617,1.8709 -6.738,3.274 -8.9743,3.7417 -0.4677,0.1024 -0.9354,0.1901 -1.4031,0.1901 -1.5055,0 -2.631,-0.5555 -3.2741,-1.7832 -0.2923,-0.4677 -0.4677,-1.0231 -0.4677,-1.5932 0,-1.0231 0.6431,-2.2509 1.6809,-3.274 1.5931,-1.5931 4.6771,-3.5517 8.0389,-5.4226 3.3763,-1.8708 6.738,-3.274 8.9889,-3.7417 0.4677,-0.1023 0.9355,-0.19 1.4032,-0.19 1.4908,0 2.7039,0.5554 3.3616,1.7685 0.2778,0.4677 0.3801,1.0378 0.3801,1.5932 0,1.0377 -0.57,2.1486 -1.5932,3.274"
     id="path1298"
     inkscape:connector-curvature="0"
     style="stroke-width:0.93543297" />
  <path
     class="Clef"
     d="m 146.44693,321.36319 h -10.28979 c -0.65773,0 -1.21314,0.56996 -1.21314,1.21307 v 44.72548 c 0,0.64311 0.55541,1.21307 1.21314,1.21307 h 10.28979 c 0.6577,0 1.21316,-0.56996 1.21316,-1.21307 v -44.72548 c 0,-0.64311 -0.55546,-1.21307 -1.21316,-1.21307 m 20.21414,0 h -10.28976 c -0.6578,0 -1.22776,0.56996 -1.22776,1.21307 v 44.72548 c 0,0.64311 0.56996,1.21307 1.22776,1.21307 h 10.28976 c 0.6577,0 1.21307,-0.56996 1.21307,-1.21307 v -44.72548 c 0,-0.64311 -0.55537,-1.21307 -1.21307,-1.21307"
     id="path1302"
     inkscape:connector-curvature="0"
     style="stroke-width:0.93543297" />
  <path
     class="Clef"
     d="m 146.44693,957.4332 h -10.28979 c -0.65773,0 -1.21314,0.5699 -1.21314,1.2131 v 44.7254 c 0,0.6432 0.55541,1.2131 1.21314,1.2131 h 10.28979 c 0.6577,0 1.21316,-0.5699 1.21316,-1.2131 v -44.7254 c 0,-0.6432 -0.55546,-1.2131 -1.21316,-1.2131 m 20.21414,0 h -10.28976 c -0.6578,0 -1.22776,0.5699 -1.22776,1.2131 v 44.7254 c 0,0.6432 0.56996,1.2131 1.22776,1.2131 h 10.28976 c 0.6577,0 1.21307,-0.5699 1.21307,-1.2131 v -44.7254 c 0,-0.6432 -0.55537,-1.2131 -1.21307,-1.2131"
     id="path1306"
     inkscape:connector-curvature="0"
     style="stroke-width:0.93543297" />
  <path
     class="Clef"
     d="m 158.70989,17.455431 c -7.11808,0 -12.81842,4.107206 -12.92067,4.107206 -5.42263,4.019369 -7.5712,8.79887 -8.41894,12.072904 -0.46772,1.680861 -0.64311,3.361712 -0.64311,4.954877 0,2.250885 0.36541,4.297145 1.21314,6.080314 1.12544,2.528597 3.27402,4.297145 6.08032,5.232578 1.12548,0.38002 2.33855,0.570006 3.55172,0.570006 2.06085,0 4.20944,-0.570006 5.99266,-1.593135 2.89395,-1.593155 4.67716,-4.954867 4.67716,-8.608907 0,-3.274021 -1.69547,-6.270325 -4.50177,-8.038882 -1.95861,-1.315425 -3.82947,-1.680899 -5.42261,-1.680899 -1.12542,0 -2.14859,0.175394 -2.99628,0.467717 -0.93544,0.365474 -2.51403,1.300878 -3.27407,1.95861 0.29233,-1.783216 1.40315,-4.487179 2.44088,-5.992665 1.02317,-1.490799 3.08403,-3.361665 4.67716,-4.209448 2.33858,-1.300814 5.33496,-1.870866 8.60898,-1.870866 9.54431,0 14.22148,7.673544 14.22148,23.385871 0,8.711267 -3.27402,17.027828 -6.08031,22.552682 -3.09863,6.168058 -7.20574,12.072979 -10.85982,15.346994 -9.7343,8.886614 -18.89867,13.096062 -18.98636,13.096062 0,0 -1.40316,0.833097 -1.03775,2.236247 0.29232,0.935433 1.12544,1.125419 1.69547,1.125419 0.0877,0 0.36541,-0.08765 0.46772,-0.08765 0.0877,0 10.75752,-4.399435 19.26407,-11.049802 4.7795,-3.44941 9.0766,-7.191142 12.81833,-11.225196 3.36176,-3.639396 6.2704,-7.571208 8.60898,-11.502926 4.10711,-7.015748 6.44569,-14.309226 6.44569,-20.579526 0,-7.761176 -2.04626,-14.221482 -5.89033,-18.796404 -4.39943,-5.247124 -11.03521,-7.951181 -19.73174,-7.951181 m 29.3638,11.868307 c 0,2.630952 2.06086,4.677211 4.50178,4.677211 2.42623,0 4.48717,-2.046259 4.48717,-4.677211 0,-2.616219 -2.06094,-4.764815 -4.48717,-4.764815 -2.44092,0 -4.50178,2.148596 -4.50178,4.764815 m 0,23.108188 c 0,2.616313 2.06086,4.779501 4.50178,4.779501 2.42623,0 4.48717,-2.163188 4.48717,-4.779501 0,-2.616312 -2.06094,-4.76488 -4.48717,-4.76488 -2.44092,0 -4.50178,2.148568 -4.50178,4.76488"
     id="path1310"
     inkscape:connector-curvature="0"
     style="stroke-width:0.93543297" />
  <path
     class="Clef"
     d="m 158.70989,653.5154 c -7.11808,0 -12.81842,4.1072 -12.92067,4.1072 -5.42263,4.0194 -7.5712,8.7989 -8.41894,12.0729 -0.46772,1.6809 -0.64311,3.3618 -0.64311,4.9549 0,2.2509 0.36541,4.2972 1.21314,6.0803 1.12544,2.5286 3.27402,4.2972 6.08032,5.2326 1.12548,0.38 2.33855,0.57 3.55172,0.57 2.06085,0 4.20944,-0.57 5.99266,-1.5931 2.89395,-1.5932 4.67716,-4.9549 4.67716,-8.6089 0,-3.274 -1.69547,-6.2704 -4.50177,-8.0389 -1.95861,-1.3154 -3.82947,-1.6809 -5.42261,-1.6809 -1.12542,0 -2.14859,0.1754 -2.99628,0.4677 -0.93544,0.3655 -2.51403,1.3009 -3.27407,1.9586 0.29233,-1.7832 1.40315,-4.4872 2.44088,-5.9926 1.02317,-1.4908 3.08403,-3.3617 4.67716,-4.2095 2.33858,-1.3008 5.33496,-1.8709 8.60898,-1.8709 9.54431,0 14.22148,7.6736 14.22148,23.3859 0,8.7113 -3.27402,17.0278 -6.08031,22.5527 -3.09863,6.1681 -7.20574,12.073 -10.85982,15.347 -9.7343,8.8866 -18.89867,13.0961 -18.98636,13.0961 0,0 -1.40316,0.833 -1.03775,2.2362 0.29232,0.9354 1.12544,1.1254 1.69547,1.1254 0.0877,0 0.36541,-0.088 0.46772,-0.088 0.0877,0 10.75752,-4.3995 19.26407,-11.0498 4.7795,-3.4494 9.0766,-7.1912 12.81833,-11.2252 3.36176,-3.6394 6.2704,-7.5712 8.60898,-11.503 4.10711,-7.0157 6.44569,-14.3092 6.44569,-20.5795 0,-7.7612 -2.04626,-14.2215 -5.89033,-18.7964 -4.39943,-5.2471 -11.03521,-7.9512 -19.73174,-7.9512 m 29.3638,11.8683 c 0,2.631 2.06086,4.6772 4.50178,4.6772 2.42623,0 4.48717,-2.0462 4.48717,-4.6772 0,-2.6162 -2.06094,-4.7648 -4.48717,-4.7648 -2.44092,0 -4.50178,2.1486 -4.50178,4.7648 m 0,23.1082 c 0,2.6163 2.06086,4.7795 4.50178,4.7795 2.42623,0 4.48717,-2.1632 4.48717,-4.7795 0,-2.6163 -2.06094,-4.7649 -4.48717,-4.7649 -2.44092,0 -4.50178,2.1486 -4.50178,4.7649"
     id="path1314"
     inkscape:connector-curvature="0"
     style="stroke-width:0.93543297" />
  <path
     class="Rest"
     d="m 1125.4598,372.7519 c -0.7016,-0.2486 -1.3301,0.088 -1.6224,0.6723 -0.2777,0.57 -2.9232,5.6565 -6.9573,8.8427 -1.257,0.994 -2.7186,1.6371 -4.1802,2.0025 1.0085,-1.2278 1.5932,-2.7917 1.5347,-4.4872 -0.1316,-3.6832 -3.2155,-6.5626 -6.8988,-6.4311 -3.6833,0.1315 -6.5773,3.2156 -6.4458,6.8988 0.1024,2.821 1.9294,5.1595 4.4287,6.0511 1.4616,0.6431 3.2449,0.9793 5.1595,0.9208 2.6602,-0.1023 5.5395,-0.9792 8.0097,-2.9232 1.1546,-0.9062 2.2363,-2.0609 3.2009,-3.274 v 0.015 l -4.2094,14.8792 c 0,0 0,0.015 -0.015,0.015 v 0.015 c -0.4386,0.8916 -3.4787,6.665 -7.235,9.632 -1.257,1.0086 -2.7186,1.6517 -4.1802,2.0025 1.0085,-1.2132 1.5931,-2.7771 1.5347,-4.4726 -0.1316,-3.6979 -3.2156,-6.5773 -6.8989,-6.4457 -3.6832,0.1315 -6.5772,3.2155 -6.4457,6.9134 0.1023,2.8063 1.9293,5.1449 4.4287,6.0511 1.4616,0.6285 3.2448,0.9792 5.1595,0.9062 2.6601,-0.088 5.5395,-0.9646 8.0097,-2.9086 1.14,-0.9062 2.2216,-2.0463 3.1862,-3.2741 l -9.5443,34.1142 2.4994,0.7015 17.4662,-61.9286 0.8185,-2.9233 c 0.1901,-0.6868 -0.1022,-1.33 -0.8038,-1.5638"
     id="path1320"
     inkscape:connector-curvature="0"
     style="stroke-width:0.93543297" />
  <path
     class="Rest"
     d="m 1313.4069,80.1237 -0.1899,-0.2923 c -0.088,-0.088 -0.2778,-0.2777 -0.5554,-0.6431 l -10.7575,-13.2861 c -0.2923,-0.2777 -0.1901,-1.0378 0,-1.4032 l 9.5297,-14.4115 c 0.1023,-0.1901 0.19,-0.4677 0.19,-0.6578 v -0.8331 c 0,-0.2777 -0.088,-0.57 -0.2777,-0.7454 l -15.1569,-20.4918 c 0,0 -0.7455,-1.12542 -1.6809,-0.27773 -0.9354,0.74544 -0.19,1.95861 -0.19,1.95861 l 7.1181,9.73432 c 0.3654,0.5554 0.3654,1.6809 0,2.2362 l -9.4567,14.4116 c -0.088,0.19 -0.19,0.5554 -0.19,0.7454 v 0.8477 c 0,0.2778 0.1023,0.5555 0.2923,0.7455 l 10.4652,13.0083 c -0.3655,-0.1023 -1.2131,-0.2923 -2.3386,-0.2923 -1.5785,0 -3.6394,0.38 -5.3203,1.8709 -2.0609,1.8709 -3.1863,4.5018 -3.1863,6.8404 0,1.3008 0.2777,2.6162 1.0231,3.6394 1.9732,2.9963 8.9889,11.8829 8.9889,11.8829 0,0 0.8332,1.0377 1.6809,0.38 0.8478,-0.6578 0.6577,-1.5054 0.3801,-1.9732 -0.2923,-0.4677 -3.2741,-5.8903 -3.2741,-5.8903 0,0 -0.6577,-1.3154 -0.6577,-2.9963 0,-1.2131 0.3654,-2.7039 1.5932,-3.9317 1.1108,-1.1108 2.4262,-1.4909 3.6394,-1.4909 1.2132,0 2.2508,0.3801 2.9963,0.8478 l 3.6541,2.3386 c 0,0 1.1108,0.5553 1.6807,-0.2923 0.4678,-0.7455 0.2778,-1.1109 0,-1.5786"
     id="path1322"
     inkscape:connector-curvature="0"
     style="stroke-width:0.93543297" />
  <path
     class="Rest"
     d="m 1344.9669,716.1937 -0.1899,-0.2923 c -0.088,-0.088 -0.2778,-0.2777 -0.5554,-0.6431 l -10.7575,-13.2861 c -0.2923,-0.2777 -0.1901,-1.0378 0,-1.4032 l 9.5297,-14.4115 c 0.1023,-0.1901 0.19,-0.4677 0.19,-0.6578 v -0.8331 c 0,-0.2777 -0.088,-0.57 -0.2777,-0.7454 l -15.1569,-20.4918 c 0,0 -0.7455,-1.1254 -1.6809,-0.2777 -0.9354,0.7454 -0.19,1.9586 -0.19,1.9586 l 7.1181,9.7343 c 0.3654,0.5554 0.3654,1.6809 0,2.2362 l -9.4567,14.4116 c -0.088,0.19 -0.19,0.5554 -0.19,0.7454 v 0.8477 c 0,0.2778 0.1023,0.5555 0.2923,0.7455 l 10.4652,13.0083 c -0.3655,-0.1023 -1.2131,-0.2923 -2.3386,-0.2923 -1.5785,0 -3.6394,0.38 -5.3203,1.8709 -2.0609,1.8709 -3.1863,4.5018 -3.1863,6.8404 0,1.3008 0.2777,2.6162 1.0231,3.6394 1.9732,2.9963 8.9889,11.8829 8.9889,11.8829 0,0 0.8332,1.0377 1.6809,0.38 0.8478,-0.6578 0.6577,-1.5054 0.3801,-1.9732 -0.2923,-0.4677 -3.2741,-5.8903 -3.2741,-5.8903 0,0 -0.6577,-1.3154 -0.6577,-2.9963 0,-1.2131 0.3654,-2.7039 1.5932,-3.9317 1.1108,-1.1108 2.4262,-1.4909 3.6394,-1.4909 1.2132,0 2.2508,0.3801 2.9963,0.8478 l 3.6541,2.3386 c 0,0 1.1108,0.5553 1.6807,-0.2923 0.4678,-0.7455 0.2778,-1.1109 0,-1.5786"
     id="path1324"
     inkscape:connector-curvature="0"
     style="stroke-width:0.93543297" />
  <path
     class="Beam"
     d="m 402.512,408.829 63.1,24.38 v 12.54 l -63.1,-24.38 v -12.54"
     id="path1338"
     inkscape:connector-curvature="0"
     style="fill-rule:evenodd" />
  <path
     class="Beam"
     d="m 1156.262,403.409 h 92.86 v 11.69 h -92.86 v -11.69"
     id="path1340"
     inkscape:connector-curvature="0"
     style="fill-rule:evenodd" />
  <path
     class="Beam"
     d="m 1156.262,385.869 h 92.86 v 11.69 h -92.86 v -11.69"
     id="path1342"
     inkscape:connector-curvature="0"
     style="fill-rule:evenodd" />
  <path
     class="Beam"
     d="m 1291.702,409.249 138.01,-5.96 v 11.7 l -138.01,5.96 v -11.7"
     id="path1344"
     inkscape:connector-curvature="0"
     style="fill-rule:evenodd" />
  <path
     class="Beam"
     d="m 1291.702,391.709 138.01,-5.96 v 11.7 l -138.01,5.96 v -11.7"
     id="path1346"
     inkscape:connector-curvature="0"
     style="fill-rule:evenodd" />
  <path
     class="Beam"
     d="m 397.002,1044.909 64.38,24.36 v 12.5 l -64.38,-24.36 v -12.5"
     id="path1360"
     inkscape:connector-curvature="0"
     style="fill-rule:evenodd" />
  <path
     class="Beam"
     d="m 955.592,1039.469 h 140.45 v 11.69 h -140.45 v -11.69"
     id="path1362"
     inkscape:connector-curvature="0"
     style="fill-rule:evenodd" />
  <path
     class="Beam"
     d="m 955.592,1021.929 h 140.45 v 11.69 h -140.45 v -11.69"
     id="path1364"
     inkscape:connector-curvature="0"
     style="fill-rule:evenodd" />
  <path
     class="Beam"
     d="m 1139.432,1068.569 140.45,-29.78 v 11.96 l -140.45,29.78 v -11.96"
     id="path1366"
     inkscape:connector-curvature="0"
     style="fill-rule:evenodd" />
  <path
     class="Beam"
     d="m 1139.432,1051.029 140.45,-29.77 v 11.95 l -140.45,29.78 v -11.96"
     id="path1368"
     inkscape:connector-curvature="0"
     style="fill-rule:evenodd" />
  <path
     class="Beam"
     d="m 1323.262,1045.269 140.45,17.87 v 11.78 l -140.45,-17.86 v -11.79"
     id="path1370"
     inkscape:connector-curvature="0"
     style="fill-rule:evenodd" />
  <path
     class="Beam"
     d="m 1323.262,1027.729 140.45,17.87 v 11.78 l -140.45,-17.86 v -11.79"
     id="path1372"
     inkscape:connector-curvature="0"
     style="fill-rule:evenodd" />
  <path
     class="Beam"
     d="m 309.292,216.319 h 184.14 v 11.69 h -184.14 v -11.69"
     id="path1398"
     inkscape:connector-curvature="0"
     style="fill-rule:evenodd" />
  <path
     class="Beam"
     d="m 551.382,216.319 h 184.15 v 11.69 h -184.15 v -11.69"
     id="path1400"
     inkscape:connector-curvature="0"
     style="fill-rule:evenodd" />
  <path
     class="Beam"
     d="m 833.042,216.319 h 219.27 v 11.69 h -219.27 v -11.69"
     id="path1402"
     inkscape:connector-curvature="0"
     style="fill-rule:evenodd" />
  <path
     class="Beam"
     d="m 301.202,852.379 h 188 v 11.7 h -188 v -11.7"
     id="path1428"
     inkscape:connector-curvature="0"
     style="fill-rule:evenodd" />
  <path
     class="Beam"
     d="m 550.842,852.379 h 188 v 11.7 h -188 v -11.7"
     id="path1430"
     inkscape:connector-curvature="0"
     style="fill-rule:evenodd" />
  <path
     class="Beam"
     d="m 836.352,852.379 h 76.11 v 11.7 h -76.11 v -11.7"
     id="path1432"
     inkscape:connector-curvature="0"
     style="fill-rule:evenodd" />
  <path
     class="Beam"
     d="m 523.562,99.319 184.15,29.64 v 11.85 l -184.15,-29.65 v -11.84"
     id="path1438"
     inkscape:connector-curvature="0"
     style="fill-rule:evenodd" />
  <path
     class="Beam"
     d="m 674.462,653.819 64.38,-6.09 v 11.75 l -64.38,6.09 v -11.75"
     id="path1444"
     inkscape:connector-curvature="0"
     style="fill-rule:evenodd" />
  <path
     class="Hook"
     d="m 1125.256,219.593 c -0.088,-0.2777 -0.9354,-3.5517 -0.9354,-3.7417 -0.088,-0.38 -0.6577,-0.6577 -1.1255,-0.6577 -0.6577,0 -1.2131,0.57 -1.2131,1.2131 v 15.3469 5.8026 c 0,0.4677 0.38,0.8332 0.7454,1.0232 3.9318,1.2132 12.0729,6.3726 18.1532,16.7501 1.6809,2.894 4.3996,6.8257 4.3996,14.6892 0,6.7381 -1.0378,13.8415 -2.7187,20.3895 -0.2777,1.0378 -0.5553,1.9732 0.4677,2.3386 1.0232,0.38 1.4032,-0.3654 1.7833,-1.3008 3.3616,-8.2435 4.2094,-16.8524 4.2094,-22.6404 v -1.7832 c -0.4677,-12.0729 -7.3958,-20.9595 -7.3958,-20.9595 0.2777,0 -8.6089,-11.503 -11.1375,-15.4347 -3.4494,-5.3349 -5.1449,-10.6552 -5.2326,-11.0352"
     id="path1446"
     inkscape:connector-curvature="0"
     style="stroke-width:0.93543297" />
  <path
     class="Hook"
     d="m 465.3806,111.459 c 0,-0.19 0.8477,-3.3763 0.9354,-3.654 0.088,-0.38 1.7832,-5.7003 5.2326,-11.0352 2.5286,-3.9317 11.4152,-15.4347 11.1375,-15.4347 0,0 6.9281,-8.8866 7.3958,-20.9595 V 58.227 c 0,-5.7149 -0.7454,-13.7537 -4.034,-21.895 -0.3655,-0.9354 -0.7455,-1.8709 -1.7687,-1.4908 -1.0376,0.3654 -0.7453,1.4908 -0.4677,2.514 1.6809,6.5626 2.6163,13.286 2.6163,20.0241 0,7.8635 -2.8063,11.7952 -4.4872,14.6892 -6.1825,10.3775 -14.2214,15.4347 -18.1532,16.7501 -0.4677,0.19 -0.7454,0.5555 -0.7454,1.0232 v 5.8026 15.3469 c 0,0.6431 0.5554,1.2131 1.2131,1.2131 0.4678,0 1.0378,-0.38 1.1255,-0.7454"
     id="path1458"
     inkscape:connector-curvature="0"
     style="stroke-width:0.93543297" />
  <path
     class="Hook"
     d="m 489.906,668.573 c -0.088,-0.2777 -0.9354,-3.5517 -0.9354,-3.7417 -0.088,-0.38 -0.6577,-0.6577 -1.1255,-0.6577 -0.6577,0 -1.2131,0.57 -1.2131,1.2131 v 15.3469 5.8026 c 0,0.4677 0.38,0.8332 0.7454,1.0232 3.9318,1.2132 12.0729,6.3726 18.1532,16.7501 1.6809,2.894 4.3996,6.8257 4.3996,14.6892 0,6.7381 -1.0378,13.8415 -2.7187,20.3895 -0.2777,1.0378 -0.5553,1.9732 0.4677,2.3386 1.0232,0.38 1.4032,-0.3654 1.7833,-1.3008 3.3616,-8.2435 4.2094,-16.8524 4.2094,-22.6404 v -1.7832 c -0.4677,-12.0729 -7.3958,-20.9595 -7.3958,-20.9595 0.2777,0 -8.6089,-11.503 -11.1375,-15.4347 -3.4494,-5.3349 -5.1449,-10.6552 -5.2326,-11.0352"
     id="path1470"
     inkscape:connector-curvature="0"
     style="stroke-width:0.93543297" />
  <path
     class="NoteDot"
     d="m 323.552,29.233 c 0,2.58706 2.0901,4.6772 4.6772,4.6772 2.587,0 4.6771,-2.09014 4.6771,-4.6772 0,-2.58706 -2.0901,-4.67717 -4.6771,-4.67717 -2.5871,0 -4.6772,2.09011 -4.6772,4.67717"
     id="path1484"
     inkscape:connector-curvature="0"
     style="stroke-width:0.93543297" />
  <path
     class="NoteDot"
     d="m 847.302,76.009 c 0,2.5871 2.0901,4.6772 4.6772,4.6772 2.587,0 4.6771,-2.0901 4.6771,-4.6772 0,-2.5871 -2.0901,-4.6772 -4.6771,-4.6772 -2.5871,0 -4.6772,2.0901 -4.6772,4.6772"
     id="path1486"
     inkscape:connector-curvature="0"
     style="stroke-width:0.93543297" />
  <path
     class="NoteDot"
     d="m 315.472,665.299 c 0,2.5871 2.0901,4.6772 4.6772,4.6772 2.587,0 4.6771,-2.0901 4.6771,-4.6772 0,-2.5871 -2.0901,-4.6772 -4.6771,-4.6772 -2.5871,0 -4.6772,2.0901 -4.6772,4.6772"
     id="path1500"
     inkscape:connector-curvature="0"
     style="stroke-width:0.93543297" />
  <path
     class="NoteDot"
     d="m 850.622,712.069 c 0,2.5871 2.0901,4.6772 4.6772,4.6772 2.587,0 4.6771,-2.0901 4.6771,-4.6772 0,-2.5871 -2.0901,-4.6772 -4.6771,-4.6772 -2.5871,0 -4.6772,2.0901 -4.6772,4.6772"
     id="path1502"
     inkscape:connector-curvature="0"
     style="stroke-width:0.93543297" />
</svg>
