<?xml version="1.0" encoding="UTF-8" standalone="no"?>
<svg
   xmlns:dc="http://purl.org/dc/elements/1.1/"
   xmlns:cc="http://creativecommons.org/ns#"
   xmlns:rdf="http://www.w3.org/1999/02/22-rdf-syntax-ns#"
   xmlns:svg="http://www.w3.org/2000/svg"
   xmlns="http://www.w3.org/2000/svg"
   xmlns:sodipodi="http://sodipodi.sourceforge.net/DTD/sodipodi-0.dtd"
   xmlns:inkscape="http://www.inkscape.org/namespaces/inkscape"
   width="2551.1819"
   height="508.88141"
   viewBox="0 0 2551.182 508.88139"
   version="1.2"
   id="svg212"
   sodipodi:docname="Popsong - Streicher-1.svg"
   inkscape:version="0.92.3 (2405546, 2018-03-11)">
  <metadata
     id="metadata218">
    <rdf:RDF>
      <cc:Work
         rdf:about="">
        <dc:format>image/svg+xml</dc:format>
        <dc:type
           rdf:resource="http://purl.org/dc/dcmitype/StillImage" />
      </cc:Work>
    </rdf:RDF>
  </metadata>
  <defs
     id="defs216" />
  <sodipodi:namedview
     pagecolor="#ffffff"
     bordercolor="#666666"
     borderopacity="1"
     objecttolerance="10"
     gridtolerance="10"
     guidetolerance="10"
     inkscape:pageopacity="0"
     inkscape:pageshadow="2"
     inkscape:window-width="3840"
     inkscape:window-height="2066"
     id="namedview214"
     showgrid="false"
     inkscape:zoom="0.44281317"
     inkscape:cx="1275.5919"
     inkscape:cy="-1264.031"
     inkscape:window-x="-11"
     inkscape:window-y="-11"
     inkscape:window-maximized="1"
     inkscape:current-layer="svg212" />
  <title
     id="title2">Popsong - Streicher</title>
  <desc
     id="desc4">Generated by MuseScore 3.6.2</desc>
  <polyline
     class="StaffLines"
     points="212.598,361.417 2763.78,361.417"
     id="polyline6"
     style="fill:none;stroke:#000000;stroke-width:2.75999999;stroke-linejoin:bevel"
     transform="translate(-212.598,-331.81268)" />
  <polyline
     class="StaffLines"
     points="212.598,382.677 2763.78,382.677"
     id="polyline8"
     style="fill:none;stroke:#000000;stroke-width:2.75999999;stroke-linejoin:bevel"
     transform="translate(-212.598,-331.81268)" />
  <polyline
     class="StaffLines"
     points="212.598,403.937 2763.78,403.937"
     id="polyline10"
     style="fill:none;stroke:#000000;stroke-width:2.75999999;stroke-linejoin:bevel"
     transform="translate(-212.598,-331.81268)" />
  <polyline
     class="StaffLines"
     points="212.598,425.197 2763.78,425.197"
     id="polyline12"
     style="fill:none;stroke:#000000;stroke-width:2.75999999;stroke-linejoin:bevel"
     transform="translate(-212.598,-331.81268)" />
  <polyline
     class="StaffLines"
     points="212.598,446.457 2763.78,446.457"
     id="polyline14"
     style="fill:none;stroke:#000000;stroke-width:2.75999999;stroke-linejoin:bevel"
     transform="translate(-212.598,-331.81268)" />
  <polyline
     class="StaffLines"
     points="212.598,669.685 2763.78,669.685"
     id="polyline16"
     style="fill:none;stroke:#000000;stroke-width:2.75999999;stroke-linejoin:bevel"
     transform="translate(-212.598,-331.81268)" />
  <polyline
     class="StaffLines"
     points="212.598,690.945 2763.78,690.945"
     id="polyline18"
     style="fill:none;stroke:#000000;stroke-width:2.75999999;stroke-linejoin:bevel"
     transform="translate(-212.598,-331.81268)" />
  <polyline
     class="StaffLines"
     points="212.598,712.205 2763.78,712.205"
     id="polyline20"
     style="fill:none;stroke:#000000;stroke-width:2.75999999;stroke-linejoin:bevel"
     transform="translate(-212.598,-331.81268)" />
  <polyline
     class="StaffLines"
     points="212.598,733.465 2763.78,733.465"
     id="polyline22"
     style="fill:none;stroke:#000000;stroke-width:2.75999999;stroke-linejoin:bevel"
     transform="translate(-212.598,-331.81268)" />
  <polyline
     class="StaffLines"
     points="212.598,754.724 2763.78,754.724"
     id="polyline24"
     style="fill:none;stroke:#000000;stroke-width:2.75999999;stroke-linejoin:bevel"
     transform="translate(-212.598,-331.81268)" />
  <path
     class="MeasureNumber"
     d="m 15.719,281.68032 c -0.687,3.157 -1.406,5.079 -2.562,7.313 -1.953,3.641 -4.032,5.281 -6.844,5.281 -1.156,0 -1.906,-0.484 -1.906,-1.203 0,-0.281 0.078,-0.391 0.39,-0.875 0.407,-0.516 0.61,-1 0.61,-1.562 0,-1.313 -1.047,-2.313 -2.407,-2.313 -1.593,0 -2.718,1.188 -2.718,2.953 0,2.719 2.562,4.672 6.125,4.672 3.187,0 6.156,-1.391 8.593,-4.187 3.485,-3.891 5.75,-9.688 5.75,-14.61 0,-6.234 -3,-9.953 -7.953,-9.953 -2.953,0 -5.718,1.328 -7.562,3.594 -1.797,2.203 -2.828,5 -2.828,7.609 0,3.797 2.906,6.672 6.797,6.672 2.64,0 4.671,-1.078 6.515,-3.391 m -2.953,-12.796 c 2.547,0 4.188,2.031 4.188,5.234 0,4.953 -2.719,8.594 -6.391,8.594 -2.531,0 -3.922,-1.719 -3.922,-4.719 0,-2.359 0.563,-4.484 1.641,-6.281 1.203,-1.922 2.64,-2.828 4.484,-2.828"
     id="path26"
     inkscape:connector-curvature="0" />
  <polyline
     class="BarLine"
     points="673.777,360.035 673.777,447.839"
     id="polyline28"
     style="fill:none;stroke:#000000;stroke-width:3.4000001;stroke-linejoin:bevel"
     transform="translate(-212.598,-331.81268)" />
  <polyline
     class="BarLine"
     points="972.106,360.035 972.106,447.839"
     id="polyline30"
     style="fill:none;stroke:#000000;stroke-width:3.4000001;stroke-linejoin:bevel"
     transform="translate(-212.598,-331.81268)" />
  <polyline
     class="BarLine"
     points="1270.43,360.035 1270.43,447.839"
     id="polyline32"
     style="fill:none;stroke:#000000;stroke-width:3.4000001;stroke-linejoin:bevel"
     transform="translate(-212.598,-331.81268)" />
  <polyline
     class="BarLine"
     points="1568.76,360.035 1568.76,447.839"
     id="polyline34"
     style="fill:none;stroke:#000000;stroke-width:3.4000001;stroke-linejoin:bevel"
     transform="translate(-212.598,-331.81268)" />
  <polyline
     class="BarLine"
     points="1867.09,360.035 1867.09,447.839"
     id="polyline36"
     style="fill:none;stroke:#000000;stroke-width:3.4000001;stroke-linejoin:bevel"
     transform="translate(-212.598,-331.81268)" />
  <polyline
     class="BarLine"
     points="2165.42,360.035 2165.42,447.839"
     id="polyline38"
     style="fill:none;stroke:#000000;stroke-width:3.4000001;stroke-linejoin:bevel"
     transform="translate(-212.598,-331.81268)" />
  <polyline
     class="BarLine"
     points="2463.75,360.035 2463.75,447.839"
     id="polyline40"
     style="fill:none;stroke:#000000;stroke-width:3.4000001;stroke-linejoin:bevel"
     transform="translate(-212.598,-331.81268)" />
  <polyline
     class="BarLine"
     points="2762.08,360.035 2762.08,447.839"
     id="polyline42"
     style="fill:none;stroke:#000000;stroke-width:3.4000001;stroke-linejoin:bevel"
     transform="translate(-212.598,-331.81268)" />
  <polyline
     class="BarLine"
     points="616.924,668.303 616.924,756.106"
     id="polyline44"
     style="fill:none;stroke:#000000;stroke-width:3.4000001;stroke-linejoin:bevel"
     transform="translate(-212.598,-331.81268)" />
  <polyline
     class="BarLine"
     points="923.375,668.303 923.375,756.106"
     id="polyline46"
     style="fill:none;stroke:#000000;stroke-width:3.4000001;stroke-linejoin:bevel"
     transform="translate(-212.598,-331.81268)" />
  <polyline
     class="BarLine"
     points="1229.83,668.303 1229.83,756.106"
     id="polyline48"
     style="fill:none;stroke:#000000;stroke-width:3.4000001;stroke-linejoin:bevel"
     transform="translate(-212.598,-331.81268)" />
  <polyline
     class="BarLine"
     points="1536.28,668.303 1536.28,756.106"
     id="polyline50"
     style="fill:none;stroke:#000000;stroke-width:3.4000001;stroke-linejoin:bevel"
     transform="translate(-212.598,-331.81268)" />
  <polyline
     class="BarLine"
     points="1842.73,668.303 1842.73,756.106"
     id="polyline52"
     style="fill:none;stroke:#000000;stroke-width:3.4000001;stroke-linejoin:bevel"
     transform="translate(-212.598,-331.81268)" />
  <polyline
     class="BarLine"
     points="2149.18,668.303 2149.18,756.106"
     id="polyline54"
     style="fill:none;stroke:#000000;stroke-width:3.4000001;stroke-linejoin:bevel"
     transform="translate(-212.598,-331.81268)" />
  <polyline
     class="BarLine"
     points="2455.63,668.303 2455.63,756.106"
     id="polyline56"
     style="fill:none;stroke:#000000;stroke-width:3.4000001;stroke-linejoin:bevel"
     transform="translate(-212.598,-331.81268)" />
  <polyline
     class="BarLine"
     points="2762.08,668.303 2762.08,756.106"
     id="polyline58"
     style="fill:none;stroke:#000000;stroke-width:3.4000001;stroke-linejoin:bevel"
     transform="translate(-212.598,-331.81268)" />
  <polyline
     class="LedgerLine"
     points="404.787,467.717 460.827,467.717"
     id="polyline60"
     style="fill:none;stroke:#000000;stroke-width:3.4000001;stroke-linejoin:bevel"
     transform="translate(-212.598,-331.81268)" />
  <polyline
     class="LedgerLine"
     points="703.116,467.717 759.155,467.717"
     id="polyline62"
     style="fill:none;stroke:#000000;stroke-width:3.4000001;stroke-linejoin:bevel"
     transform="translate(-212.598,-331.81268)" />
  <polyline
     class="LedgerLine"
     points="1001.44,467.717 1057.48,467.717"
     id="polyline64"
     style="fill:none;stroke:#000000;stroke-width:3.4000001;stroke-linejoin:bevel"
     transform="translate(-212.598,-331.81268)" />
  <polyline
     class="LedgerLine"
     points="1299.77,467.717 1355.81,467.717"
     id="polyline66"
     style="fill:none;stroke:#000000;stroke-width:3.4000001;stroke-linejoin:bevel"
     transform="translate(-212.598,-331.81268)" />
  <polyline
     class="LedgerLine"
     points="1598.1,488.976 1654.14,488.976"
     id="polyline68"
     style="fill:none;stroke:#000000;stroke-width:3.4000001;stroke-linejoin:bevel"
     transform="translate(-212.598,-331.81268)" />
  <polyline
     class="LedgerLine"
     points="1598.1,467.717 1654.14,467.717"
     id="polyline70"
     style="fill:none;stroke:#000000;stroke-width:3.4000001;stroke-linejoin:bevel"
     transform="translate(-212.598,-331.81268)" />
  <polyline
     class="LedgerLine"
     points="1896.43,488.976 1952.47,488.976"
     id="polyline72"
     style="fill:none;stroke:#000000;stroke-width:3.4000001;stroke-linejoin:bevel"
     transform="translate(-212.598,-331.81268)" />
  <polyline
     class="LedgerLine"
     points="1896.43,467.717 1952.47,467.717"
     id="polyline74"
     style="fill:none;stroke:#000000;stroke-width:3.4000001;stroke-linejoin:bevel"
     transform="translate(-212.598,-331.81268)" />
  <polyline
     class="LedgerLine"
     points="2194.76,488.976 2250.8,488.976"
     id="polyline76"
     style="fill:none;stroke:#000000;stroke-width:3.4000001;stroke-linejoin:bevel"
     transform="translate(-212.598,-331.81268)" />
  <polyline
     class="LedgerLine"
     points="2194.76,467.717 2250.8,467.717"
     id="polyline78"
     style="fill:none;stroke:#000000;stroke-width:3.4000001;stroke-linejoin:bevel"
     transform="translate(-212.598,-331.81268)" />
  <polyline
     class="LedgerLine"
     points="2493.09,488.976 2549.13,488.976"
     id="polyline80"
     style="fill:none;stroke:#000000;stroke-width:3.4000001;stroke-linejoin:bevel"
     transform="translate(-212.598,-331.81268)" />
  <polyline
     class="LedgerLine"
     points="2493.09,467.717 2549.13,467.717"
     id="polyline82"
     style="fill:none;stroke:#000000;stroke-width:3.4000001;stroke-linejoin:bevel"
     transform="translate(-212.598,-331.81268)" />
  <polyline
     class="LedgerLine"
     points="339.812,775.984 395.852,775.984"
     id="polyline84"
     style="fill:none;stroke:#000000;stroke-width:3.4000001;stroke-linejoin:bevel"
     transform="translate(-212.598,-331.81268)" />
  <polyline
     class="LedgerLine"
     points="646.263,775.984 702.302,775.984"
     id="polyline86"
     style="fill:none;stroke:#000000;stroke-width:3.4000001;stroke-linejoin:bevel"
     transform="translate(-212.598,-331.81268)" />
  <polyline
     class="LedgerLine"
     points="952.713,775.984 1008.75,775.984"
     id="polyline88"
     style="fill:none;stroke:#000000;stroke-width:3.4000001;stroke-linejoin:bevel"
     transform="translate(-212.598,-331.81268)" />
  <polyline
     class="LedgerLine"
     points="1259.16,775.984 1315.2,775.984"
     id="polyline90"
     style="fill:none;stroke:#000000;stroke-width:3.4000001;stroke-linejoin:bevel"
     transform="translate(-212.598,-331.81268)" />
  <polyline
     class="LedgerLine"
     points="1565.61,797.244 1621.65,797.244"
     id="polyline92"
     style="fill:none;stroke:#000000;stroke-width:3.4000001;stroke-linejoin:bevel"
     transform="translate(-212.598,-331.81268)" />
  <polyline
     class="LedgerLine"
     points="1565.61,775.984 1621.65,775.984"
     id="polyline94"
     style="fill:none;stroke:#000000;stroke-width:3.4000001;stroke-linejoin:bevel"
     transform="translate(-212.598,-331.81268)" />
  <polyline
     class="LedgerLine"
     points="1872.07,797.244 1928.1,797.244"
     id="polyline96"
     style="fill:none;stroke:#000000;stroke-width:3.4000001;stroke-linejoin:bevel"
     transform="translate(-212.598,-331.81268)" />
  <polyline
     class="LedgerLine"
     points="1872.07,775.984 1928.1,775.984"
     id="polyline98"
     style="fill:none;stroke:#000000;stroke-width:3.4000001;stroke-linejoin:bevel"
     transform="translate(-212.598,-331.81268)" />
  <polyline
     class="LedgerLine"
     points="2178.52,797.244 2234.56,797.244"
     id="polyline100"
     style="fill:none;stroke:#000000;stroke-width:3.4000001;stroke-linejoin:bevel"
     transform="translate(-212.598,-331.81268)" />
  <polyline
     class="LedgerLine"
     points="2178.52,775.984 2234.56,775.984"
     id="polyline102"
     style="fill:none;stroke:#000000;stroke-width:3.4000001;stroke-linejoin:bevel"
     transform="translate(-212.598,-331.81268)" />
  <polyline
     class="LedgerLine"
     points="2484.97,818.504 2541.01,818.504"
     id="polyline104"
     style="fill:none;stroke:#000000;stroke-width:3.4000001;stroke-linejoin:bevel"
     transform="translate(-212.598,-331.81268)" />
  <polyline
     class="LedgerLine"
     points="2484.97,797.244 2541.01,797.244"
     id="polyline106"
     style="fill:none;stroke:#000000;stroke-width:3.4000001;stroke-linejoin:bevel"
     transform="translate(-212.598,-331.81268)" />
  <polyline
     class="LedgerLine"
     points="2484.97,775.984 2541.01,775.984"
     id="polyline108"
     style="fill:none;stroke:#000000;stroke-width:3.4000001;stroke-linejoin:bevel"
     transform="translate(-212.598,-331.81268)" />
  <path
     class="Note"
     d="m 200.693,135.73158 c 0,6.20522 5.2751,11.73282 19.05418,11.73282 15.1343,0 19.98426,-5.26185 19.98426,-11.73282 0,-6.55069 -10.45721,-11.4803 -19.05418,-11.4803 -12.33071,0 -19.98426,5.19536 -19.98426,11.4803 m 9.95225,-3.40158 c 0,-4.75689 3.30862,-5.95273 7.65354,-5.95273 6.29828,0 11.40064,6.80312 11.40064,12.4237 0,4.67717 -2.8967,6.53745 -7.0689,6.53745 -6.12547,0 -11.98528,-7.05565 -11.98528,-13.00842"
     id="path110"
     inkscape:connector-curvature="0"
     style="stroke-width:0.85039401" />
  <path
     class="Note"
     d="m 200.693,114.47158 c 0,6.20522 5.2751,11.73282 19.05418,11.73282 15.1343,0 19.98426,-5.26185 19.98426,-11.73282 0,-6.55069 -10.45721,-11.4803 -19.05418,-11.4803 -12.33071,0 -19.98426,5.19536 -19.98426,11.4803 m 9.95225,-3.40158 c 0,-4.75689 3.30862,-5.95273 7.65354,-5.95273 6.29828,0 11.40064,6.80312 11.40064,12.4237 0,4.67717 -2.8967,6.53745 -7.0689,6.53745 -6.12547,0 -11.98528,-7.05565 -11.98528,-13.00842"
     id="path112"
     inkscape:connector-curvature="0"
     style="stroke-width:0.85039401" />
  <path
     class="Note"
     d="m 200.693,93.21158 c 0,6.205219 5.2751,11.73282 19.05418,11.73282 15.1343,0 19.98426,-5.261853 19.98426,-11.73282 0,-6.550691 -10.45721,-11.480298 -19.05418,-11.480298 -12.33071,0 -19.98426,5.195355 -19.98426,11.480298 M 210.64525,89.81 c 0,-4.756892 3.30862,-5.952733 7.65354,-5.952733 6.29828,0 11.40064,6.803127 11.40064,12.423704 0,4.677169 -2.8967,6.537449 -7.0689,6.537449 -6.12547,0 -11.98528,-7.055654 -11.98528,-13.00842"
     id="path114"
     inkscape:connector-curvature="0"
     style="stroke-width:0.85039401" />
  <path
     class="Note"
     d="m 499.022,146.36058 c 0,6.20522 5.2751,11.73282 19.05418,11.73282 15.1343,0 19.98426,-5.26185 19.98426,-11.73282 0,-6.55069 -10.45721,-11.4803 -19.05418,-11.4803 -12.33071,0 -19.98426,5.19536 -19.98426,11.4803 m 9.95225,-3.40158 c 0,-4.75689 3.30862,-5.95273 7.65354,-5.95273 6.29828,0 11.40064,6.80312 11.40064,12.4237 0,4.67717 -2.8967,6.53745 -7.0689,6.53745 -6.12547,0 -11.98528,-7.05565 -11.98528,-13.00842"
     id="path116"
     inkscape:connector-curvature="0"
     style="stroke-width:0.85039401" />
  <path
     class="Note"
     d="m 499.022,125.10158 c 0,6.20522 5.2751,11.73282 19.05418,11.73282 15.1343,0 19.98426,-5.26185 19.98426,-11.73282 0,-6.55069 -10.45721,-11.4803 -19.05418,-11.4803 -12.33071,0 -19.98426,5.19536 -19.98426,11.4803 M 508.97425,121.7 c 0,-4.75689 3.30862,-5.95273 7.65354,-5.95273 6.29828,0 11.40064,6.80312 11.40064,12.4237 0,4.67717 -2.8967,6.53745 -7.0689,6.53745 -6.12547,0 -11.98528,-7.05565 -11.98528,-13.00842"
     id="path118"
     inkscape:connector-curvature="0"
     style="stroke-width:0.85039401" />
  <path
     class="Note"
     d="m 499.022,93.21158 c 0,6.205219 5.2751,11.73282 19.05418,11.73282 15.1343,0 19.98426,-5.261853 19.98426,-11.73282 0,-6.550691 -10.45721,-11.480298 -19.05418,-11.480298 -12.33071,0 -19.98426,5.195355 -19.98426,11.480298 M 508.97425,89.81 c 0,-4.756892 3.30862,-5.952733 7.65354,-5.952733 6.29828,0 11.40064,6.803127 11.40064,12.423704 0,4.677169 -2.8967,6.537449 -7.0689,6.537449 -6.12547,0 -11.98528,-7.055654 -11.98528,-13.00842"
     id="path120"
     inkscape:connector-curvature="0"
     style="stroke-width:0.85039401" />
  <path
     class="Note"
     d="m 797.352,146.36058 c 0,6.20522 5.2751,11.73282 19.05418,11.73282 15.1343,0 19.98426,-5.26185 19.98426,-11.73282 0,-6.55069 -10.45721,-11.4803 -19.05418,-11.4803 -12.33071,0 -19.98426,5.19536 -19.98426,11.4803 m 9.95225,-3.40158 c 0,-4.75689 3.30862,-5.95273 7.65354,-5.95273 6.29828,0 11.40064,6.80312 11.40064,12.4237 0,4.67717 -2.8967,6.53745 -7.0689,6.53745 -6.12547,0 -11.98528,-7.05565 -11.98528,-13.00842"
     id="path122"
     inkscape:connector-curvature="0"
     style="stroke-width:0.85039401" />
  <path
     class="Note"
     d="m 797.352,125.10158 c 0,6.20522 5.2751,11.73282 19.05418,11.73282 15.1343,0 19.98426,-5.26185 19.98426,-11.73282 0,-6.55069 -10.45721,-11.4803 -19.05418,-11.4803 -12.33071,0 -19.98426,5.19536 -19.98426,11.4803 M 807.30425,121.7 c 0,-4.75689 3.30862,-5.95273 7.65354,-5.95273 6.29828,0 11.40064,6.80312 11.40064,12.4237 0,4.67717 -2.8967,6.53745 -7.0689,6.53745 -6.12547,0 -11.98528,-7.05565 -11.98528,-13.00842"
     id="path124"
     inkscape:connector-curvature="0"
     style="stroke-width:0.85039401" />
  <path
     class="Note"
     d="m 797.352,93.21158 c 0,6.205219 5.2751,11.73282 19.05418,11.73282 15.1343,0 19.98426,-5.261853 19.98426,-11.73282 0,-6.550691 -10.45721,-11.480298 -19.05418,-11.480298 -12.33071,0 -19.98426,5.195355 -19.98426,11.480298 M 807.30425,89.81 c 0,-4.756892 3.30862,-5.952733 7.65354,-5.952733 6.29828,0 11.40064,6.803127 11.40064,12.423704 0,4.677169 -2.8967,6.537449 -7.0689,6.537449 -6.12547,0 -11.98528,-7.055654 -11.98528,-13.00842"
     id="path126"
     inkscape:connector-curvature="0"
     style="stroke-width:0.85039401" />
  <path
     class="Note"
     d="m 1095.682,135.73158 c 0,6.20522 5.2751,11.73282 19.0542,11.73282 15.1343,0 19.9842,-5.26185 19.9842,-11.73282 0,-6.55069 -10.4572,-11.4803 -19.0541,-11.4803 -12.3308,0 -19.9843,5.19536 -19.9843,11.4803 m 9.9522,-3.40158 c 0,-4.75689 3.3087,-5.95273 7.6536,-5.95273 6.2983,0 11.4006,6.80312 11.4006,12.4237 0,4.67717 -2.8967,6.53745 -7.0689,6.53745 -6.1254,0 -11.9853,-7.05565 -11.9853,-13.00842"
     id="path128"
     inkscape:connector-curvature="0"
     style="stroke-width:0.85039401" />
  <path
     class="Note"
     d="m 1095.682,114.47158 c 0,6.20522 5.2751,11.73282 19.0542,11.73282 15.1343,0 19.9842,-5.26185 19.9842,-11.73282 0,-6.55069 -10.4572,-11.4803 -19.0541,-11.4803 -12.3308,0 -19.9843,5.19536 -19.9843,11.4803 m 9.9522,-3.40158 c 0,-4.75689 3.3087,-5.95273 7.6536,-5.95273 6.2983,0 11.4006,6.80312 11.4006,12.4237 0,4.67717 -2.8967,6.53745 -7.0689,6.53745 -6.1254,0 -11.9853,-7.05565 -11.9853,-13.00842"
     id="path130"
     inkscape:connector-curvature="0"
     style="stroke-width:0.85039401" />
  <path
     class="Note"
     d="m 1095.682,93.21158 c 0,6.205219 5.2751,11.73282 19.0542,11.73282 15.1343,0 19.9842,-5.261853 19.9842,-11.73282 0,-6.550691 -10.4572,-11.480298 -19.0541,-11.480298 -12.3308,0 -19.9843,5.195355 -19.9843,11.480298 m 9.9522,-3.40158 c 0,-4.756892 3.3087,-5.952733 7.6536,-5.952733 6.2983,0 11.4006,6.803127 11.4006,12.423704 0,4.677169 -2.8967,6.537449 -7.0689,6.537449 -6.1254,0 -11.9853,-7.055654 -11.9853,-13.00842"
     id="path132"
     inkscape:connector-curvature="0"
     style="stroke-width:0.85039401" />
  <path
     class="Note"
     d="m 1394.012,156.99058 c 0,6.20522 5.2751,11.73282 19.0542,11.73282 15.1343,0 19.9842,-5.26185 19.9842,-11.73282 0,-6.55069 -10.4572,-11.4803 -19.0541,-11.4803 -12.3308,0 -19.9843,5.19536 -19.9843,11.4803 m 9.9522,-3.40158 c 0,-4.75689 3.3087,-5.95273 7.6536,-5.95273 6.2983,0 11.4006,6.80312 11.4006,12.4237 0,4.67717 -2.8967,6.53745 -7.0689,6.53745 -6.1254,0 -11.9853,-7.05565 -11.9853,-13.00842"
     id="path134"
     inkscape:connector-curvature="0"
     style="stroke-width:0.85039401" />
  <path
     class="Note"
     d="m 1394.012,135.73158 c 0,6.20522 5.2751,11.73282 19.0542,11.73282 15.1343,0 19.9842,-5.26185 19.9842,-11.73282 0,-6.55069 -10.4572,-11.4803 -19.0541,-11.4803 -12.3308,0 -19.9843,5.19536 -19.9843,11.4803 m 9.9522,-3.40158 c 0,-4.75689 3.3087,-5.95273 7.6536,-5.95273 6.2983,0 11.4006,6.80312 11.4006,12.4237 0,4.67717 -2.8967,6.53745 -7.0689,6.53745 -6.1254,0 -11.9853,-7.05565 -11.9853,-13.00842"
     id="path136"
     inkscape:connector-curvature="0"
     style="stroke-width:0.85039401" />
  <path
     class="Note"
     d="m 1394.012,103.84158 c 0,6.20522 5.2751,11.73282 19.0542,11.73282 15.1343,0 19.9842,-5.26185 19.9842,-11.73282 0,-6.550691 -10.4572,-11.480298 -19.0541,-11.480298 -12.3308,0 -19.9843,5.195355 -19.9843,11.480298 m 9.9522,-3.40158 c 0,-4.756892 3.3087,-5.952733 7.6536,-5.952733 6.2983,0 11.4006,6.803123 11.4006,12.423703 0,4.67717 -2.8967,6.53745 -7.0689,6.53745 -6.1254,0 -11.9853,-7.05565 -11.9853,-13.00842"
     id="path138"
     inkscape:connector-curvature="0"
     style="stroke-width:0.85039401" />
  <path
     class="Note"
     d="m 1692.332,167.62058 c 0,6.20522 5.2751,11.73282 19.0542,11.73282 15.1343,0 19.9842,-5.26185 19.9842,-11.73282 0,-6.55069 -10.4572,-11.4803 -19.0541,-11.4803 -12.3308,0 -19.9843,5.19536 -19.9843,11.4803 m 9.9522,-3.40158 c 0,-4.75689 3.3087,-5.95273 7.6536,-5.95273 6.2983,0 11.4006,6.80312 11.4006,12.4237 0,4.67717 -2.8967,6.53745 -7.0689,6.53745 -6.1254,0 -11.9853,-7.05565 -11.9853,-13.00842"
     id="path140"
     inkscape:connector-curvature="0"
     style="stroke-width:0.85039401" />
  <path
     class="Note"
     d="m 1692.332,135.73158 c 0,6.20522 5.2751,11.73282 19.0542,11.73282 15.1343,0 19.9842,-5.26185 19.9842,-11.73282 0,-6.55069 -10.4572,-11.4803 -19.0541,-11.4803 -12.3308,0 -19.9843,5.19536 -19.9843,11.4803 m 9.9522,-3.40158 c 0,-4.75689 3.3087,-5.95273 7.6536,-5.95273 6.2983,0 11.4006,6.80312 11.4006,12.4237 0,4.67717 -2.8967,6.53745 -7.0689,6.53745 -6.1254,0 -11.9853,-7.05565 -11.9853,-13.00842"
     id="path142"
     inkscape:connector-curvature="0"
     style="stroke-width:0.85039401" />
  <path
     class="Note"
     d="m 1692.332,114.47158 c 0,6.20522 5.2751,11.73282 19.0542,11.73282 15.1343,0 19.9842,-5.26185 19.9842,-11.73282 0,-6.55069 -10.4572,-11.4803 -19.0541,-11.4803 -12.3308,0 -19.9843,5.19536 -19.9843,11.4803 m 9.9522,-3.40158 c 0,-4.75689 3.3087,-5.95273 7.6536,-5.95273 6.2983,0 11.4006,6.80312 11.4006,12.4237 0,4.67717 -2.8967,6.53745 -7.0689,6.53745 -6.1254,0 -11.9853,-7.05565 -11.9853,-13.00842"
     id="path144"
     inkscape:connector-curvature="0"
     style="stroke-width:0.85039401" />
  <path
     class="Note"
     d="m 1990.662,167.62058 c 0,6.20522 5.2751,11.73282 19.0542,11.73282 15.1343,0 19.9842,-5.26185 19.9842,-11.73282 0,-6.55069 -10.4572,-11.4803 -19.0541,-11.4803 -12.3308,0 -19.9843,5.19536 -19.9843,11.4803 m 9.9522,-3.40158 c 0,-4.75689 3.3087,-5.95273 7.6536,-5.95273 6.2983,0 11.4006,6.80312 11.4006,12.4237 0,4.67717 -2.8967,6.53745 -7.0689,6.53745 -6.1254,0 -11.9853,-7.05565 -11.9853,-13.00842"
     id="path146"
     inkscape:connector-curvature="0"
     style="stroke-width:0.85039401" />
  <path
     class="Note"
     d="m 1990.662,146.36058 c 0,6.20522 5.2751,11.73282 19.0542,11.73282 15.1343,0 19.9842,-5.26185 19.9842,-11.73282 0,-6.55069 -10.4572,-11.4803 -19.0541,-11.4803 -12.3308,0 -19.9843,5.19536 -19.9843,11.4803 m 9.9522,-3.40158 c 0,-4.75689 3.3087,-5.95273 7.6536,-5.95273 6.2983,0 11.4006,6.80312 11.4006,12.4237 0,4.67717 -2.8967,6.53745 -7.0689,6.53745 -6.1254,0 -11.9853,-7.05565 -11.9853,-13.00842"
     id="path148"
     inkscape:connector-curvature="0"
     style="stroke-width:0.85039401" />
  <path
     class="Note"
     d="m 1990.662,125.10158 c 0,6.20522 5.2751,11.73282 19.0542,11.73282 15.1343,0 19.9842,-5.26185 19.9842,-11.73282 0,-6.55069 -10.4572,-11.4803 -19.0541,-11.4803 -12.3308,0 -19.9843,5.19536 -19.9843,11.4803 m 9.9522,-3.40158 c 0,-4.75689 3.3087,-5.95273 7.6536,-5.95273 6.2983,0 11.4006,6.80312 11.4006,12.4237 0,4.67717 -2.8967,6.53745 -7.0689,6.53745 -6.1254,0 -11.9853,-7.05565 -11.9853,-13.00842"
     id="path150"
     inkscape:connector-curvature="0"
     style="stroke-width:0.85039401" />
  <path
     class="Note"
     d="m 2288.992,167.62058 c 0,6.20522 5.2751,11.73282 19.0542,11.73282 15.1343,0 19.9842,-5.26185 19.9842,-11.73282 0,-6.55069 -10.4572,-11.4803 -19.0541,-11.4803 -12.3308,0 -19.9843,5.19536 -19.9843,11.4803 m 9.9522,-3.40158 c 0,-4.75689 3.3087,-5.95273 7.6536,-5.95273 6.2983,0 11.4006,6.80312 11.4006,12.4237 0,4.67717 -2.8967,6.53745 -7.0689,6.53745 -6.1254,0 -11.9853,-7.05565 -11.9853,-13.00842"
     id="path152"
     inkscape:connector-curvature="0"
     style="stroke-width:0.85039401" />
  <path
     class="Note"
     d="m 2288.992,135.73158 c 0,6.20522 5.2751,11.73282 19.0542,11.73282 15.1343,0 19.9842,-5.26185 19.9842,-11.73282 0,-6.55069 -10.4572,-11.4803 -19.0541,-11.4803 -12.3308,0 -19.9843,5.19536 -19.9843,11.4803 m 9.9522,-3.40158 c 0,-4.75689 3.3087,-5.95273 7.6536,-5.95273 6.2983,0 11.4006,6.80312 11.4006,12.4237 0,4.67717 -2.8967,6.53745 -7.0689,6.53745 -6.1254,0 -11.9853,-7.05565 -11.9853,-13.00842"
     id="path154"
     inkscape:connector-curvature="0"
     style="stroke-width:0.85039401" />
  <path
     class="Note"
     d="m 2288.992,114.47158 c 0,6.20522 5.2751,11.73282 19.0542,11.73282 15.1343,0 19.9842,-5.26185 19.9842,-11.73282 0,-6.55069 -10.4572,-11.4803 -19.0541,-11.4803 -12.3308,0 -19.9843,5.19536 -19.9843,11.4803 m 9.9522,-3.40158 c 0,-4.75689 3.3087,-5.95273 7.6536,-5.95273 6.2983,0 11.4006,6.80312 11.4006,12.4237 0,4.67717 -2.8967,6.53745 -7.0689,6.53745 -6.1254,0 -11.9853,-7.05565 -11.9853,-13.00842"
     id="path156"
     inkscape:connector-curvature="0"
     style="stroke-width:0.85039401" />
  <path
     class="Note"
     d="m 135.718,443.99858 c 0,6.20522 5.2751,11.73282 19.05418,11.73282 15.1343,0 19.98426,-5.26185 19.98426,-11.73282 0,-6.55069 -10.45721,-11.4803 -19.05418,-11.4803 -12.33071,0 -19.98426,5.19536 -19.98426,11.4803 m 9.95225,-3.40158 c 0,-4.75689 3.30862,-5.95273 7.65354,-5.95273 6.29828,0 11.40064,6.80312 11.40064,12.4237 0,4.67717 -2.8967,6.53745 -7.0689,6.53745 -6.12547,0 -11.98528,-7.05565 -11.98528,-13.00842"
     id="path158"
     inkscape:connector-curvature="0"
     style="stroke-width:0.85039401" />
  <path
     class="Note"
     d="m 135.718,422.73858 c 0,6.20522 5.2751,11.73282 19.05418,11.73282 15.1343,0 19.98426,-5.26185 19.98426,-11.73282 0,-6.55069 -10.45721,-11.4803 -19.05418,-11.4803 -12.33071,0 -19.98426,5.19536 -19.98426,11.4803 m 9.95225,-3.40158 c 0,-4.75689 3.30862,-5.95273 7.65354,-5.95273 6.29828,0 11.40064,6.80312 11.40064,12.4237 0,4.67717 -2.8967,6.53745 -7.0689,6.53745 -6.12547,0 -11.98528,-7.05565 -11.98528,-13.00842"
     id="path160"
     inkscape:connector-curvature="0"
     style="stroke-width:0.85039401" />
  <path
     class="Note"
     d="m 135.718,401.47958 c 0,6.20522 5.2751,11.73282 19.05418,11.73282 15.1343,0 19.98426,-5.26185 19.98426,-11.73282 0,-6.55069 -10.45721,-11.4803 -19.05418,-11.4803 -12.33071,0 -19.98426,5.19536 -19.98426,11.4803 m 9.95225,-3.40158 c 0,-4.75689 3.30862,-5.95273 7.65354,-5.95273 6.29828,0 11.40064,6.80312 11.40064,12.4237 0,4.67717 -2.8967,6.53745 -7.0689,6.53745 -6.12547,0 -11.98528,-7.05565 -11.98528,-13.00842"
     id="path162"
     inkscape:connector-curvature="0"
     style="stroke-width:0.85039401" />
  <path
     class="Note"
     d="m 442.169,454.62858 c 0,6.20522 5.2751,11.73282 19.05418,11.73282 15.1343,0 19.98426,-5.26185 19.98426,-11.73282 0,-6.55069 -10.45721,-11.4803 -19.05418,-11.4803 -12.33071,0 -19.98426,5.19536 -19.98426,11.4803 m 9.95225,-3.40158 c 0,-4.75689 3.30862,-5.95273 7.65354,-5.95273 6.29828,0 11.40064,6.80312 11.40064,12.4237 0,4.67717 -2.8967,6.53745 -7.0689,6.53745 -6.12547,0 -11.98528,-7.05565 -11.98528,-13.00842"
     id="path164"
     inkscape:connector-curvature="0"
     style="stroke-width:0.85039401" />
  <path
     class="Note"
     d="m 442.169,433.36858 c 0,6.20522 5.2751,11.73282 19.05418,11.73282 15.1343,0 19.98426,-5.26185 19.98426,-11.73282 0,-6.55069 -10.45721,-11.4803 -19.05418,-11.4803 -12.33071,0 -19.98426,5.19536 -19.98426,11.4803 m 9.95225,-3.40158 c 0,-4.75689 3.30862,-5.95273 7.65354,-5.95273 6.29828,0 11.40064,6.80312 11.40064,12.4237 0,4.67717 -2.8967,6.53745 -7.0689,6.53745 -6.12547,0 -11.98528,-7.05565 -11.98528,-13.00842"
     id="path166"
     inkscape:connector-curvature="0"
     style="stroke-width:0.85039401" />
  <path
     class="Note"
     d="m 442.169,401.47958 c 0,6.20522 5.2751,11.73282 19.05418,11.73282 15.1343,0 19.98426,-5.26185 19.98426,-11.73282 0,-6.55069 -10.45721,-11.4803 -19.05418,-11.4803 -12.33071,0 -19.98426,5.19536 -19.98426,11.4803 m 9.95225,-3.40158 c 0,-4.75689 3.30862,-5.95273 7.65354,-5.95273 6.29828,0 11.40064,6.80312 11.40064,12.4237 0,4.67717 -2.8967,6.53745 -7.0689,6.53745 -6.12547,0 -11.98528,-7.05565 -11.98528,-13.00842"
     id="path168"
     inkscape:connector-curvature="0"
     style="stroke-width:0.85039401" />
  <path
     class="Note"
     d="m 748.619,454.62858 c 0,6.20522 5.2751,11.73282 19.05418,11.73282 15.1343,0 19.98426,-5.26185 19.98426,-11.73282 0,-6.55069 -10.45721,-11.4803 -19.05418,-11.4803 -12.33071,0 -19.98426,5.19536 -19.98426,11.4803 m 9.95225,-3.40158 c 0,-4.75689 3.30862,-5.95273 7.65354,-5.95273 6.29828,0 11.40064,6.80312 11.40064,12.4237 0,4.67717 -2.8967,6.53745 -7.0689,6.53745 -6.12547,0 -11.98528,-7.05565 -11.98528,-13.00842"
     id="path170"
     inkscape:connector-curvature="0"
     style="stroke-width:0.85039401" />
  <path
     class="Note"
     d="m 748.619,433.36858 c 0,6.20522 5.2751,11.73282 19.05418,11.73282 15.1343,0 19.98426,-5.26185 19.98426,-11.73282 0,-6.55069 -10.45721,-11.4803 -19.05418,-11.4803 -12.33071,0 -19.98426,5.19536 -19.98426,11.4803 m 9.95225,-3.40158 c 0,-4.75689 3.30862,-5.95273 7.65354,-5.95273 6.29828,0 11.40064,6.80312 11.40064,12.4237 0,4.67717 -2.8967,6.53745 -7.0689,6.53745 -6.12547,0 -11.98528,-7.05565 -11.98528,-13.00842"
     id="path172"
     inkscape:connector-curvature="0"
     style="stroke-width:0.85039401" />
  <path
     class="Note"
     d="m 748.619,401.47958 c 0,6.20522 5.2751,11.73282 19.05418,11.73282 15.1343,0 19.98426,-5.26185 19.98426,-11.73282 0,-6.55069 -10.45721,-11.4803 -19.05418,-11.4803 -12.33071,0 -19.98426,5.19536 -19.98426,11.4803 m 9.95225,-3.40158 c 0,-4.75689 3.30862,-5.95273 7.65354,-5.95273 6.29828,0 11.40064,6.80312 11.40064,12.4237 0,4.67717 -2.8967,6.53745 -7.0689,6.53745 -6.12547,0 -11.98528,-7.05565 -11.98528,-13.00842"
     id="path174"
     inkscape:connector-curvature="0"
     style="stroke-width:0.85039401" />
  <path
     class="Note"
     d="m 1055.072,443.99858 c 0,6.20522 5.2751,11.73282 19.0542,11.73282 15.1343,0 19.9842,-5.26185 19.9842,-11.73282 0,-6.55069 -10.4572,-11.4803 -19.0541,-11.4803 -12.3308,0 -19.9843,5.19536 -19.9843,11.4803 m 9.9522,-3.40158 c 0,-4.75689 3.3087,-5.95273 7.6536,-5.95273 6.2983,0 11.4006,6.80312 11.4006,12.4237 0,4.67717 -2.8967,6.53745 -7.0689,6.53745 -6.1254,0 -11.9853,-7.05565 -11.9853,-13.00842"
     id="path176"
     inkscape:connector-curvature="0"
     style="stroke-width:0.85039401" />
  <path
     class="Note"
     d="m 1055.072,422.73858 c 0,6.20522 5.2751,11.73282 19.0542,11.73282 15.1343,0 19.9842,-5.26185 19.9842,-11.73282 0,-6.55069 -10.4572,-11.4803 -19.0541,-11.4803 -12.3308,0 -19.9843,5.19536 -19.9843,11.4803 m 9.9522,-3.40158 c 0,-4.75689 3.3087,-5.95273 7.6536,-5.95273 6.2983,0 11.4006,6.80312 11.4006,12.4237 0,4.67717 -2.8967,6.53745 -7.0689,6.53745 -6.1254,0 -11.9853,-7.05565 -11.9853,-13.00842"
     id="path178"
     inkscape:connector-curvature="0"
     style="stroke-width:0.85039401" />
  <path
     class="Note"
     d="m 1055.072,401.47958 c 0,6.20522 5.2751,11.73282 19.0542,11.73282 15.1343,0 19.9842,-5.26185 19.9842,-11.73282 0,-6.55069 -10.4572,-11.4803 -19.0541,-11.4803 -12.3308,0 -19.9843,5.19536 -19.9843,11.4803 m 9.9522,-3.40158 c 0,-4.75689 3.3087,-5.95273 7.6536,-5.95273 6.2983,0 11.4006,6.80312 11.4006,12.4237 0,4.67717 -2.8967,6.53745 -7.0689,6.53745 -6.1254,0 -11.9853,-7.05565 -11.9853,-13.00842"
     id="path180"
     inkscape:connector-curvature="0"
     style="stroke-width:0.85039401" />
  <path
     class="Note"
     d="m 1361.522,465.25858 c 0,6.20522 5.2751,11.73282 19.0542,11.73282 15.1343,0 19.9842,-5.26185 19.9842,-11.73282 0,-6.55069 -10.4572,-11.4803 -19.0541,-11.4803 -12.3308,0 -19.9843,5.19536 -19.9843,11.4803 m 9.9522,-3.40158 c 0,-4.75689 3.3087,-5.95273 7.6536,-5.95273 6.2983,0 11.4006,6.80312 11.4006,12.4237 0,4.67717 -2.8967,6.53745 -7.0689,6.53745 -6.1254,0 -11.9853,-7.05565 -11.9853,-13.00842"
     id="path182"
     inkscape:connector-curvature="0"
     style="stroke-width:0.85039401" />
  <path
     class="Note"
     d="m 1361.522,443.99858 c 0,6.20522 5.2751,11.73282 19.0542,11.73282 15.1343,0 19.9842,-5.26185 19.9842,-11.73282 0,-6.55069 -10.4572,-11.4803 -19.0541,-11.4803 -12.3308,0 -19.9843,5.19536 -19.9843,11.4803 m 9.9522,-3.40158 c 0,-4.75689 3.3087,-5.95273 7.6536,-5.95273 6.2983,0 11.4006,6.80312 11.4006,12.4237 0,4.67717 -2.8967,6.53745 -7.0689,6.53745 -6.1254,0 -11.9853,-7.05565 -11.9853,-13.00842"
     id="path184"
     inkscape:connector-curvature="0"
     style="stroke-width:0.85039401" />
  <path
     class="Note"
     d="m 1361.522,412.10858 c 0,6.20522 5.2751,11.73282 19.0542,11.73282 15.1343,0 19.9842,-5.26185 19.9842,-11.73282 0,-6.55069 -10.4572,-11.4803 -19.0541,-11.4803 -12.3308,0 -19.9843,5.19536 -19.9843,11.4803 m 9.9522,-3.40158 c 0,-4.75689 3.3087,-5.95273 7.6536,-5.95273 6.2983,0 11.4006,6.80312 11.4006,12.4237 0,4.67717 -2.8967,6.53745 -7.0689,6.53745 -6.1254,0 -11.9853,-7.05565 -11.9853,-13.00842"
     id="path186"
     inkscape:connector-curvature="0"
     style="stroke-width:0.85039401" />
  <path
     class="Note"
     d="m 1667.972,475.88858 c 0,6.20522 5.2751,11.73282 19.0542,11.73282 15.1343,0 19.9842,-5.26185 19.9842,-11.73282 0,-6.55069 -10.4572,-11.4803 -19.0541,-11.4803 -12.3308,0 -19.9843,5.19536 -19.9843,11.4803 m 9.9522,-3.40158 c 0,-4.75689 3.3087,-5.95273 7.6536,-5.95273 6.2983,0 11.4006,6.80312 11.4006,12.4237 0,4.67717 -2.8967,6.53745 -7.0689,6.53745 -6.1254,0 -11.9853,-7.05565 -11.9853,-13.00842"
     id="path188"
     inkscape:connector-curvature="0"
     style="stroke-width:0.85039401" />
  <path
     class="Note"
     d="m 1667.972,443.99858 c 0,6.20522 5.2751,11.73282 19.0542,11.73282 15.1343,0 19.9842,-5.26185 19.9842,-11.73282 0,-6.55069 -10.4572,-11.4803 -19.0541,-11.4803 -12.3308,0 -19.9843,5.19536 -19.9843,11.4803 m 9.9522,-3.40158 c 0,-4.75689 3.3087,-5.95273 7.6536,-5.95273 6.2983,0 11.4006,6.80312 11.4006,12.4237 0,4.67717 -2.8967,6.53745 -7.0689,6.53745 -6.1254,0 -11.9853,-7.05565 -11.9853,-13.00842"
     id="path190"
     inkscape:connector-curvature="0"
     style="stroke-width:0.85039401" />
  <path
     class="Note"
     d="m 1667.972,422.73858 c 0,6.20522 5.2751,11.73282 19.0542,11.73282 15.1343,0 19.9842,-5.26185 19.9842,-11.73282 0,-6.55069 -10.4572,-11.4803 -19.0541,-11.4803 -12.3308,0 -19.9843,5.19536 -19.9843,11.4803 m 9.9522,-3.40158 c 0,-4.75689 3.3087,-5.95273 7.6536,-5.95273 6.2983,0 11.4006,6.80312 11.4006,12.4237 0,4.67717 -2.8967,6.53745 -7.0689,6.53745 -6.1254,0 -11.9853,-7.05565 -11.9853,-13.00842"
     id="path192"
     inkscape:connector-curvature="0"
     style="stroke-width:0.85039401" />
  <path
     class="Note"
     d="m 1974.422,475.88858 c 0,6.20522 5.2751,11.73282 19.0542,11.73282 15.1343,0 19.9842,-5.26185 19.9842,-11.73282 0,-6.55069 -10.4572,-11.4803 -19.0541,-11.4803 -12.3308,0 -19.9843,5.19536 -19.9843,11.4803 m 9.9522,-3.40158 c 0,-4.75689 3.3087,-5.95273 7.6536,-5.95273 6.2983,0 11.4006,6.80312 11.4006,12.4237 0,4.67717 -2.8967,6.53745 -7.0689,6.53745 -6.1254,0 -11.9853,-7.05565 -11.9853,-13.00842"
     id="path194"
     inkscape:connector-curvature="0"
     style="stroke-width:0.85039401" />
  <path
     class="Note"
     d="m 1974.422,454.62858 c 0,6.20522 5.2751,11.73282 19.0542,11.73282 15.1343,0 19.9842,-5.26185 19.9842,-11.73282 0,-6.55069 -10.4572,-11.4803 -19.0541,-11.4803 -12.3308,0 -19.9843,5.19536 -19.9843,11.4803 m 9.9522,-3.40158 c 0,-4.75689 3.3087,-5.95273 7.6536,-5.95273 6.2983,0 11.4006,6.80312 11.4006,12.4237 0,4.67717 -2.8967,6.53745 -7.0689,6.53745 -6.1254,0 -11.9853,-7.05565 -11.9853,-13.00842"
     id="path196"
     inkscape:connector-curvature="0"
     style="stroke-width:0.85039401" />
  <path
     class="Note"
     d="m 1974.422,433.36858 c 0,6.20522 5.2751,11.73282 19.0542,11.73282 15.1343,0 19.9842,-5.26185 19.9842,-11.73282 0,-6.55069 -10.4572,-11.4803 -19.0541,-11.4803 -12.3308,0 -19.9843,5.19536 -19.9843,11.4803 m 9.9522,-3.40158 c 0,-4.75689 3.3087,-5.95273 7.6536,-5.95273 6.2983,0 11.4006,6.80312 11.4006,12.4237 0,4.67717 -2.8967,6.53745 -7.0689,6.53745 -6.1254,0 -11.9853,-7.05565 -11.9853,-13.00842"
     id="path198"
     inkscape:connector-curvature="0"
     style="stroke-width:0.85039401" />
  <path
     class="Note"
     d="m 2280.872,497.14858 c 0,6.20522 5.2751,11.73282 19.0542,11.73282 15.1343,0 19.9842,-5.26185 19.9842,-11.73282 0,-6.55069 -10.4572,-11.4803 -19.0541,-11.4803 -12.3308,0 -19.9843,5.19536 -19.9843,11.4803 m 9.9522,-3.40158 c 0,-4.75689 3.3087,-5.95273 7.6536,-5.95273 6.2983,0 11.4006,6.80312 11.4006,12.4237 0,4.67717 -2.8967,6.53745 -7.0689,6.53745 -6.1254,0 -11.9853,-7.05565 -11.9853,-13.00842"
     id="path200"
     inkscape:connector-curvature="0"
     style="stroke-width:0.85039401" />
  <path
     class="Note"
     d="m 2280.872,475.88858 c 0,6.20522 5.2751,11.73282 19.0542,11.73282 15.1343,0 19.9842,-5.26185 19.9842,-11.73282 0,-6.55069 -10.4572,-11.4803 -19.0541,-11.4803 -12.3308,0 -19.9843,5.19536 -19.9843,11.4803 m 9.9522,-3.40158 c 0,-4.75689 3.3087,-5.95273 7.6536,-5.95273 6.2983,0 11.4006,6.80312 11.4006,12.4237 0,4.67717 -2.8967,6.53745 -7.0689,6.53745 -6.1254,0 -11.9853,-7.05565 -11.9853,-13.00842"
     id="path202"
     inkscape:connector-curvature="0"
     style="stroke-width:0.85039401" />
  <path
     class="Note"
     d="m 2280.872,443.99858 c 0,6.20522 5.2751,11.73282 19.0542,11.73282 15.1343,0 19.9842,-5.26185 19.9842,-11.73282 0,-6.55069 -10.4572,-11.4803 -19.0541,-11.4803 -12.3308,0 -19.9843,5.19536 -19.9843,11.4803 m 9.9522,-3.40158 c 0,-4.75689 3.3087,-5.95273 7.6536,-5.95273 6.2983,0 11.4006,6.80312 11.4006,12.4237 0,4.67717 -2.8967,6.53745 -7.0689,6.53745 -6.1254,0 -11.9853,-7.05565 -11.9853,-13.00842"
     id="path204"
     inkscape:connector-curvature="0"
     style="stroke-width:0.85039401" />
  <path
     class="Clef"
     d="m 47.967699,114.81688 c 1.953185,0 4.158937,-0.17271 5.859725,-0.51814 0.943427,-0.15945 1.116142,-0.25249 1.275591,0.77062 1.023109,5.70028 2.2987,13.10143 2.2987,17.10092 0,12.58319 -8.50394,14.11118 -13.513271,14.11118 -4.597485,0 -6.816418,-1.35527 -6.816418,-2.47142 0,-0.58464 0.770627,-0.85039 2.723897,-1.43504 2.644215,-0.77071 5.700276,-3.06941 5.700276,-7.99906 0,-4.67716 -2.976379,-8.67665 -8.158425,-8.67665 -5.700361,0 -9.101937,4.50445 -9.101937,9.77953 0,5.52756 3.308628,13.85879 16.157486,13.85879 5.700361,0 16.755483,-2.55119 16.755483,-17.00788 0,-4.83662 -1.528073,-12.91536 -2.4715,-18.19044 -0.172715,-1.0232 -0.07968,-0.94343 1.102876,-1.44839 8.596973,-3.40158 14.297249,-10.62993 14.297249,-20.236702 0,-10.895716 -7.999061,-20.502447 -20.502489,-20.502447 -2.205667,0 -2.205667,0 -2.458149,-1.528073 L 48.990808,58.092965 c -0.172715,-1.023109 0,-1.102876 0.504879,-1.621106 9.181619,-8.583622 16.157486,-19.386262 16.157486,-32.394654 0,-7.401064 -2.046218,-14.7224458 -5.527561,-19.825235 C 58.850021,2.3921583 56.644354,0 55.700927,0 54.518369,0 51.874154,2.2195283 50.173366,4.0929463 43.888444,11.055547 41.842141,21.685472 41.842141,30.534842 c 0,4.929649 0.597997,10.45721 1.195909,13.951819 0.159449,1.023109 0.252482,1.182558 -0.770712,2.032952 C 30.016392,56.644659 17.008,68.802572 17.008,85.983227 c 0,14.802183 10.125046,28.833653 30.959699,28.833653 M 23.811152,91.683528 c 0,-5.022639 0.850394,-11.732801 7.906028,-19.731777 5.102364,-5.700361 9.02217,-8.849455 13.021658,-12.078316 0.850394,-0.677594 1.009843,-0.597912 1.182558,0.345515 l 1.793821,10.882407 c 0.252482,1.621021 0.252482,1.527988 -1.275591,2.046218 -7.494097,2.551182 -12.343979,9.261301 -12.343979,16.489693 0,7.653546 3.999488,13.101382 9.792797,15.054652 0.677679,0.25248 1.700788,0.51823 2.285434,0.51823 0.690945,0 1.023109,-0.4252 1.023109,-0.94343 0,-0.59791 -0.677679,-0.85039 -1.275591,-1.10287 -3.574291,-1.52805 -6.125473,-5.182091 -6.125473,-9.101876 0,-4.849903 3.321809,-8.503944 8.50394,-9.95231 1.368624,-0.332164 1.541339,-0.252397 1.700788,0.690945 l 4.25197,25.339101 c 0.172715,0.93017 0.09303,0.93017 -1.182558,1.18265 -1.368624,0.26575 -3.069412,0.42519 -4.7702,0.42519 -14.881895,0 -24.488711,-8.23819 -24.488711,-20.064022 M 56.976518,13.181532 c 2.803664,0 5.102364,2.2987 5.102364,6.975867 0,9.447367 -8.078743,17.100913 -14.788862,22.960638 -0.597912,0.51823 -0.943427,0.425197 -1.116142,-0.677679 -0.332164,-2.205667 -0.504964,-5.102364 -0.504964,-7.826261 0,-13.260789 6.125558,-21.432565 11.307604,-21.432565 M 54.518369,83.43207 c 6.882834,0.597912 12.583195,6.37793 12.583195,13.858744 0,5.368156 -3.228861,9.699806 -7.999061,12.078276 -1.023109,0.51823 -1.182558,0.51823 -1.355273,-0.50497 L 53.574942,84.627894 c -0.172715,-1.023109 -0.07968,-1.275591 0.943427,-1.195824"
     id="path206"
     inkscape:connector-curvature="0"
     style="stroke-width:0.85039401" />
  <path
     class="Clef"
     d="m 47.967699,423.08488 c 1.953185,0 4.158937,-0.17271 5.859725,-0.51814 0.943427,-0.15945 1.116142,-0.25249 1.275591,0.77062 1.023109,5.70028 2.2987,13.10143 2.2987,17.10092 0,12.58319 -8.50394,14.11118 -13.513271,14.11118 -4.597485,0 -6.816418,-1.35527 -6.816418,-2.47142 0,-0.58464 0.770627,-0.85039 2.723897,-1.43504 2.644215,-0.77071 5.700276,-3.06941 5.700276,-7.99906 0,-4.67716 -2.976379,-8.67665 -8.158425,-8.67665 -5.700361,0 -9.101937,4.50445 -9.101937,9.77953 0,5.52756 3.308628,13.85879 16.157486,13.85879 5.700361,0 16.755483,-2.55119 16.755483,-17.00788 0,-4.83662 -1.528073,-12.91536 -2.4715,-18.19044 -0.172715,-1.0232 -0.07968,-0.94343 1.102876,-1.44839 8.596973,-3.40158 14.297249,-10.62993 14.297249,-20.2367 0,-10.89572 -7.999061,-20.50245 -20.502489,-20.50245 -2.205667,0 -2.205667,0 -2.458149,-1.52807 l -2.125985,-12.33071 c -0.172715,-1.02311 0,-1.10288 0.504879,-1.62111 9.181619,-8.58362 16.157486,-19.38626 16.157486,-32.39465 0,-7.40107 -2.046218,-14.72245 -5.527561,-19.82524 -1.275591,-1.85981 -3.481258,-4.25197 -4.424685,-4.25197 -1.182558,0 -3.826773,2.21953 -5.527561,4.09295 -6.284922,6.9626 -8.331225,17.59252 -8.331225,26.44189 0,4.92965 0.597997,10.45721 1.195909,13.95182 0.159449,1.02311 0.252482,1.18256 -0.770712,2.03295 C 30.016392,364.91266 17.008,377.07057 17.008,394.25123 c 0,14.80218 10.125046,28.83365 30.959699,28.83365 M 23.811152,399.95153 c 0,-5.02264 0.850394,-11.7328 7.906028,-19.73178 5.102364,-5.70036 9.02217,-8.84945 13.021658,-12.07831 0.850394,-0.6776 1.009843,-0.59792 1.182558,0.34551 l 1.793821,10.88241 c 0.252482,1.62102 0.252482,1.52799 -1.275591,2.04622 -7.494097,2.55118 -12.343979,9.2613 -12.343979,16.48969 0,7.65354 3.999488,13.10138 9.792797,15.05465 0.677679,0.25248 1.700788,0.51823 2.285434,0.51823 0.690945,0 1.023109,-0.4252 1.023109,-0.94343 0,-0.59791 -0.677679,-0.85039 -1.275591,-1.10287 -3.574291,-1.52805 -6.125473,-5.18209 -6.125473,-9.10188 0,-4.8499 3.321809,-8.50394 8.50394,-9.95231 1.368624,-0.33216 1.541339,-0.25239 1.700788,0.69095 l 4.25197,25.3391 c 0.172715,0.93017 0.09303,0.93017 -1.182558,1.18265 -1.368624,0.26575 -3.069412,0.42519 -4.7702,0.42519 -14.881895,0 -24.488711,-8.23819 -24.488711,-20.06402 m 33.165366,-78.502 c 2.803664,0 5.102364,2.2987 5.102364,6.97587 0,9.44737 -8.078743,17.10091 -14.788862,22.96064 -0.597912,0.51823 -0.943427,0.42519 -1.116142,-0.67768 -0.332164,-2.20567 -0.504964,-5.10237 -0.504964,-7.82626 0,-13.26079 6.125558,-21.43257 11.307604,-21.43257 m -2.458149,70.25054 c 6.882834,0.59791 12.583195,6.37793 12.583195,13.85874 0,5.36816 -3.228861,9.69981 -7.999061,12.07828 -1.023109,0.51823 -1.182558,0.51823 -1.355273,-0.50497 l -4.172288,-24.23623 c -0.172715,-1.0231 -0.07968,-1.27559 0.943427,-1.19582"
     id="path208"
     inkscape:connector-curvature="0"
     style="stroke-width:0.85039401" />
  <path
     class="TimeSig"
     d="m 100.85876,87.604123 c 3.22886,3.90654 7.90603,5.700361 13.00839,5.700361 14.88189,0 17.10091,-13.526622 17.10091,-15.998079 0,-1.860237 -0.94342,-1.860237 -1.27559,-1.860237 -0.67768,0 -1.27559,0.07972 -1.27559,1.528056 0,10.962148 -9.35433,13.51333 -12.07831,13.51333 -6.89611,0 -10.55016,-6.710204 -10.55016,-20.741688 0,-14.031518 6.47099,-16.92813 11.05512,-16.92813 4.42468,0 6.21851,2.046218 6.21851,2.896612 0,0.757361 -0.26575,1.873503 -1.54134,1.873503 -3.40158,0 -5.35485,3.654058 -5.35485,6.284982 0,4.849907 4.17229,6.377955 6.55067,6.377955 0,0 6.45772,-0.252457 6.45772,-7.308091 0,-11.148155 -12.83567,-12.157998 -14.4567,-12.157998 -12.07827,0 -19.386343,10.709692 -19.386343,22.190011 0,5.527561 2.046261,10.377443 5.527563,14.629413"
     id="path210"
     inkscape:connector-curvature="0"
     style="stroke-width:0.85039401" />
</svg>
