<?xml version="1.0" encoding="UTF-8" standalone="no"?>
<svg
   xmlns:dc="http://purl.org/dc/elements/1.1/"
   xmlns:cc="http://creativecommons.org/ns#"
   xmlns:rdf="http://www.w3.org/1999/02/22-rdf-syntax-ns#"
   xmlns:svg="http://www.w3.org/2000/svg"
   xmlns="http://www.w3.org/2000/svg"
   xmlns:sodipodi="http://sodipodi.sourceforge.net/DTD/sodipodi-0.dtd"
   xmlns:inkscape="http://www.inkscape.org/namespaces/inkscape"
   width="2550.822"
   height="463.90961"
   viewBox="0 0 2550.8221 463.90959"
   version="1.2"
   id="svg1504"
   sodipodi:docname="Popsong - Bass, Drums-1-1.svg"
   inkscape:version="0.92.3 (2405546, 2018-03-11)">
  <metadata
     id="metadata1510">
    <rdf:RDF>
      <cc:Work
         rdf:about="">
        <dc:format>image/svg+xml</dc:format>
        <dc:type
           rdf:resource="http://purl.org/dc/dcmitype/StillImage" />
        <dc:title>Popsong - Bass, Drums</dc:title>
      </cc:Work>
    </rdf:RDF>
  </metadata>
  <defs
     id="defs1508" />
  <sodipodi:namedview
     pagecolor="#ffffff"
     bordercolor="#666666"
     borderopacity="1"
     objecttolerance="10"
     gridtolerance="10"
     guidetolerance="10"
     inkscape:pageopacity="0"
     inkscape:pageshadow="2"
     inkscape:window-width="3840"
     inkscape:window-height="2066"
     id="namedview1506"
     showgrid="false"
     inkscape:zoom="0.44281317"
     inkscape:cx="1275.2319"
     inkscape:cy="-1300.2531"
     inkscape:window-x="-11"
     inkscape:window-y="-11"
     inkscape:window-maximized="1"
     inkscape:current-layer="svg1504" />
  <title
     id="title2">Popsong - Bass, Drums</title>
  <desc
     id="desc4">Generated by MuseScore 3.6.2</desc>
  <polyline
     class="StaffLines"
     points="427.984,376.299 2763.78,376.299"
     id="polyline6"
     style="fill:none;stroke:#000000;stroke-width:2.56999993;stroke-linejoin:bevel"
     transform="translate(-212.958,-340.56238)" />
  <polyline
     class="StaffLines"
     points="427.984,399.685 2763.78,399.685"
     id="polyline8"
     style="fill:none;stroke:#000000;stroke-width:2.56999993;stroke-linejoin:bevel"
     transform="translate(-212.958,-340.56238)" />
  <polyline
     class="StaffLines"
     points="427.984,423.071 2763.78,423.071"
     id="polyline10"
     style="fill:none;stroke:#000000;stroke-width:2.56999993;stroke-linejoin:bevel"
     transform="translate(-212.958,-340.56238)" />
  <polyline
     class="StaffLines"
     points="427.984,446.457 2763.78,446.457"
     id="polyline12"
     style="fill:none;stroke:#000000;stroke-width:2.56999993;stroke-linejoin:bevel"
     transform="translate(-212.958,-340.56238)" />
  <polyline
     class="StaffLines"
     points="427.984,469.843 2763.78,469.843"
     id="polyline14"
     style="fill:none;stroke:#000000;stroke-width:2.56999993;stroke-linejoin:bevel"
     transform="translate(-212.958,-340.56238)" />
  <polyline
     class="StaffLines"
     points="427.984,656.929 2763.78,656.929"
     id="polyline16"
     style="fill:none;stroke:#000000;stroke-width:2.56999993;stroke-linejoin:bevel"
     transform="translate(-212.958,-340.56238)" />
  <polyline
     class="StaffLines"
     points="427.984,680.315 2763.78,680.315"
     id="polyline18"
     style="fill:none;stroke:#000000;stroke-width:2.56999993;stroke-linejoin:bevel"
     transform="translate(-212.958,-340.56238)" />
  <polyline
     class="StaffLines"
     points="427.984,703.701 2763.78,703.701"
     id="polyline20"
     style="fill:none;stroke:#000000;stroke-width:2.56999993;stroke-linejoin:bevel"
     transform="translate(-212.958,-340.56238)" />
  <polyline
     class="StaffLines"
     points="427.984,727.087 2763.78,727.087"
     id="polyline22"
     style="fill:none;stroke:#000000;stroke-width:2.56999993;stroke-linejoin:bevel"
     transform="translate(-212.958,-340.56238)" />
  <polyline
     class="StaffLines"
     points="427.984,750.472 2763.78,750.472"
     id="polyline24"
     style="fill:none;stroke:#000000;stroke-width:2.56999993;stroke-linejoin:bevel"
     transform="translate(-212.958,-340.56238)" />
  <path
     class="InstrumentName"
     d="m 0,379.63862 h 15.797 c 4.187,0 7.375,-0.656 9.859,-2.063 4.75,-2.687 7.391,-8.047 7.391,-15.093 0,-6.485 -2.36,-11.563 -6.672,-14.375 -2.594,-1.657 -6.063,-2.407 -11.422,-2.407 H 0 v 2.219 h 0.89 c 2.641,0.047 3.532,0.188 3.907,0.656 0.281,0.422 0.281,0.516 0.281,2.907 v 22.375 c 0,2.39 0,2.484 -0.281,2.921 -0.375,0.469 -1.266,0.61 -3.907,0.657 H 0 v 2.203 m 13.015,-2.203 c -2.39,0 -2.671,-0.282 -2.671,-2.594 v -24.297 c 0,-2.297 0.328,-2.625 2.671,-2.625 h 2.454 c 8.031,0 11.375,4.359 11.375,14.75 0,10.531 -3.016,14.766 -10.625,14.766 h -3.204 m 31.938,-19.703 -8.328,0.515 v 2.031 h 1.922 c 1.797,0.047 2.031,0.329 2.031,2.344 v 11.235 2.203 c -0.047,0.718 -0.094,1 -0.281,1.234 -0.328,0.422 -1.266,0.609 -3.297,0.656 h -0.188 v 1.688 h 12.547 v -1.688 h -0.844 c -3.14,-0.093 -3.562,-0.328 -3.562,-2.031 v -2.062 -0.469 c 0.047,-7.891 2.859,-13.906 6.531,-14.094 -0.656,0.75 -0.859,1.219 -0.859,2.109 0,1.5 1.094,2.579 2.594,2.579 1.734,0 2.859,-1.266 2.859,-3.141 0,-2.313 -1.594,-3.813 -4.078,-3.813 -2.969,0 -5.5,2.36 -7.047,6.532 v -5.828 m 32.047,22.234 8.562,-0.328 v -2.016 h -1.187 c -2.719,-0.094 -2.953,-0.375 -2.953,-3.437 v -16.453 l -8.844,0.515 v 2.031 h 2.406 c 1.781,0.047 2.016,0.329 2.016,2.344 v 5.781 c 0,2.688 -0.281,4.282 -0.985,5.782 -0.984,2.109 -2.859,3.297 -5.171,3.297 -1.454,0 -2.672,-0.516 -3.282,-1.469 -0.609,-0.891 -0.703,-1.36 -0.703,-3.938 v -14.343 l -8.234,0.515 v 2.031 h 1.781 c 1.797,0.047 2.031,0.329 2.031,2.344 v 10.156 c 0,2.391 0.188,3.469 0.891,4.563 1.266,1.922 3.531,3 6.344,3 3.109,0 5.265,-1.266 7.328,-4.281 v 3.906 m 19.094,-22.234 -8.375,0.515 v 2.031 h 1.937 c 1.781,0.047 2.016,0.329 2.016,2.344 v 11.235 1.828 0.375 c -0.047,0.718 -0.094,1 -0.282,1.234 -0.328,0.422 -1.218,0.609 -3.25,0.656 h -0.187 v 1.688 h 11.844 v -1.688 h -0.188 c -3.094,-0.093 -3.515,-0.328 -3.515,-2.078 v -2.015 -6.672 c 0,-4.188 2.296,-7.282 5.343,-7.282 2.688,0 4.047,1.922 4.047,5.735 v 8.219 2.25 c -0.047,0.625 -0.094,0.953 -0.328,1.187 -0.281,0.422 -1.219,0.609 -3.234,0.656 h -0.188 v 1.688 h 11.875 v -1.688 h -0.187 c -3.094,-0.093 -3.516,-0.328 -3.516,-2.031 v -2.062 -6.25 c 0,-4.704 2.109,-7.704 5.406,-7.704 2.672,0 3.985,2.016 3.985,6.25 v 7.704 2.203 c -0.047,0.672 -0.094,1 -0.328,1.234 -0.282,0.422 -1.219,0.609 -3.235,0.656 h -0.187 v 1.688 h 11.89 v -1.688 h -0.187 c -3.11,-0.093 -3.531,-0.328 -3.531,-2.078 v -2.015 -8.641 c 0,-2.922 -0.282,-3.906 -1.5,-5.5 -1.36,-1.75 -3.297,-2.688 -5.547,-2.688 -3.063,0 -5.313,1.454 -7.328,4.704 -0.797,-2.813 -3.344,-4.704 -6.485,-4.704 -2.875,0 -4.937,1.36 -6.765,4.329 v -3.625 m 50.875,-0.516 h -1.641 l -1.359,1.703 c -1.704,-1.328 -3.391,-1.891 -5.735,-1.891 -4.14,0 -6.875,2.688 -6.875,6.813 0,1.844 0.625,3.391 1.656,4.328 1.079,0.984 2.157,1.453 4.985,2.109 l 2.484,0.579 c 3.719,0.89 5.031,1.828 5.031,3.703 0,2.218 -1.937,3.765 -4.656,3.765 -4,0 -6.812,-2.547 -7.937,-7.234 h -1.891 v 8.875 h 1.656 l 1.641,-1.922 c 1.922,1.547 4.047,2.297 6.437,2.297 4.61,0 7.657,-2.859 7.657,-7.234 0,-2.063 -0.657,-3.672 -1.969,-4.75 -1.125,-0.985 -2.063,-1.36 -4.938,-1.969 l -2.343,-0.516 c -2.594,-0.562 -2.594,-0.562 -3.438,-1.031 -1.031,-0.484 -1.64,-1.469 -1.64,-2.5 0,-1.922 1.781,-3.234 4.375,-3.234 1.781,0 3.234,0.609 4.546,1.875 1.047,1.031 1.563,1.968 2.313,4.14 h 1.641 v -7.906 m 25.531,11.844 c 0.047,-7.047 -3.953,-12.032 -9.688,-12.032 -6.015,0 -10.531,5.219 -10.531,12.266 0,6.625 4.281,11.047 10.625,11.047 4.516,0 7.656,-2.203 9.594,-6.672 l -1.656,-0.891 c -1.922,3.61 -3.891,5.032 -7.047,5.032 -2.391,0 -4.125,-0.985 -5.36,-3.11 -0.843,-1.406 -1.218,-3.047 -1.172,-5.64 H 172.5 m -15.188,-2.016 c 0,-1.453 0.188,-2.5 0.657,-3.812 0.984,-2.813 2.5,-4.172 4.796,-4.172 2.813,0 4.704,2.484 4.704,6.297 0,1.312 -0.422,1.687 -1.938,1.687 h -8.219 m 25.453,-9.312 v -9.297 h -1.937 c -0.469,6.109 -2.531,9.203 -6.344,9.484 v 1.844 h 3.86 v 11.984 c 0,3.281 0.093,4.453 0.562,5.547 0.75,1.969 2.625,3.047 5.359,3.047 4.219,0 6.954,-3.188 6.954,-8.172 0,-0.281 0,-0.609 -0.047,-1.078 h -1.969 c -0.141,4.219 -1.375,6.391 -3.672,6.391 -1.078,0 -2.016,-0.563 -2.344,-1.375 -0.281,-0.657 -0.422,-1.829 -0.422,-3.516 v -12.828 h 6.907 v -2.031 h -6.907"
     id="path92"
     inkscape:connector-curvature="0" />
  <path
     class="InstrumentName"
     d="m 91.047,65.070615 v 2.219 h 0.843 c 2.688,0.047 3.579,0.188 3.954,0.656 0.281,0.422 0.281,0.516 0.281,2.907 v 22.375 c 0,2.39 0,2.484 -0.281,2.921 -0.375,0.469 -1.266,0.657 -3.954,0.657 h -0.843 v 2.203 h 17.062 c 8.125,0 13.016,-3.438 13.016,-9.219 0,-4.687 -2.953,-7.375 -9.391,-8.5 2.25,-0.469 3.281,-0.891 4.5,-1.781 1.938,-1.453 3.11,-3.766 3.11,-6.11 0,-3.062 -1.875,-6.015 -4.61,-7.187 -1.687,-0.766 -4.031,-1.141 -6.812,-1.141 H 91.047 m 10.343,15.282 v -10.719 c 0,-1.828 0.61,-2.297 3.094,-2.344 h 1.891 c 2.156,0 3.937,0.375 4.937,0.984 1.688,1.032 2.578,3 2.578,5.641 0,4.656 -2.25,6.438 -8.312,6.438 h -4.188 m 0,2.203 h 4.141 c 7.188,0 9.813,1.937 9.813,7.093 0,3.016 -1.032,5.172 -2.86,6.063 -1.453,0.766 -3.437,1.094 -6.39,1.094 h -1.985 c -2.344,0 -2.812,-0.469 -2.719,-2.969 v -11.281 m 43.5,1.312 c 0,-2.953 -0.531,-4.453 -1.89,-5.578 -1.547,-1.281 -3.844,-1.891 -6.86,-1.891 -5.312,0 -9.156,2.5 -9.156,5.922 0,1.75 1.078,2.875 2.719,2.875 1.5,0 2.531,-0.984 2.531,-2.406 0,-0.609 -0.234,-1.266 -0.703,-1.922 -0.281,-0.328 -0.328,-0.422 -0.328,-0.656 0,-0.938 1.891,-1.781 4.141,-1.781 1.5,0 3.14,0.468 3.906,1.172 0.89,0.75 1.219,1.875 1.219,3.984 v 1.844 c -4.891,0.843 -6.438,1.218 -8.75,2.109 -4.079,1.5 -6.016,3.672 -6.016,6.672 0,3.391 2.641,5.5 6.812,5.5 3.25,0 6.172,-1.313 8.188,-3.719 0.75,2.406 1.922,3.344 4.141,3.344 2.109,0 4.312,-1.359 4.312,-2.719 0,-0.328 -0.187,-0.562 -0.469,-0.562 -0.187,0 -0.375,0.047 -0.703,0.187 -0.656,0.281 -0.937,0.328 -1.312,0.328 -1.313,0 -1.782,-0.859 -1.782,-3.25 v -9.453 m -4.421,5.735 c 0,2.828 -0.141,3.484 -0.938,4.703 -1.187,1.75 -3.297,2.922 -5.359,2.922 -2.172,0 -3.719,-1.563 -3.719,-3.672 0,-1.969 0.984,-3.375 3.062,-4.375 1.454,-0.657 3.282,-1.125 6.954,-1.735 v 2.157 m 27.5,-13.016 h -1.641 l -1.359,1.703 c -1.704,-1.328 -3.391,-1.891 -5.735,-1.891 -4.14,0 -6.875,2.688 -6.875,6.813 0,1.844 0.625,3.391 1.656,4.328 1.079,0.984 2.157,1.453 4.985,2.109 l 2.484,0.579 c 3.719,0.89 5.031,1.828 5.031,3.703 0,2.218 -1.937,3.765 -4.656,3.765 -4,0 -6.812,-2.547 -7.937,-7.234 h -1.891 v 8.875 h 1.656 l 1.641,-1.922 c 1.922,1.547 4.047,2.297 6.437,2.297 4.61,0 7.657,-2.859 7.657,-7.234 0,-2.063 -0.657,-3.672 -1.969,-4.75 -1.125,-0.985 -2.063,-1.36 -4.938,-1.969 l -2.343,-0.516 c -2.594,-0.562 -2.594,-0.562 -3.438,-1.031 -1.031,-0.484 -1.64,-1.469 -1.64,-2.5 0,-1.922 1.781,-3.234 4.375,-3.234 1.781,0 3.234,0.609 4.546,1.875 1.047,1.031 1.563,1.968 2.313,4.14 h 1.641 v -7.906 m 22,0 h -1.641 l -1.359,1.703 c -1.704,-1.328 -3.391,-1.891 -5.735,-1.891 -4.14,0 -6.875,2.688 -6.875,6.813 0,1.844 0.625,3.391 1.656,4.328 1.079,0.984 2.157,1.453 4.985,2.109 l 2.484,0.579 c 3.719,0.89 5.031,1.828 5.031,3.703 0,2.218 -1.937,3.765 -4.656,3.765 -4,0 -6.812,-2.547 -7.937,-7.234 h -1.891 v 8.875 h 1.656 l 1.641,-1.922 c 1.922,1.547 4.047,2.297 6.437,2.297 4.61,0 7.657,-2.859 7.657,-7.234 0,-2.063 -0.657,-3.672 -1.969,-4.75 -1.125,-0.985 -2.063,-1.36 -4.938,-1.969 l -2.343,-0.516 c -2.594,-0.562 -2.594,-0.562 -3.438,-1.031 -1.031,-0.484 -1.64,-1.469 -1.64,-2.5 0,-1.922 1.781,-3.234 4.375,-3.234 1.781,0 3.234,0.609 4.546,1.875 1.047,1.031 1.563,1.968 2.313,4.14 h 1.641 v -7.906"
     id="path100"
     inkscape:connector-curvature="0" />
  <path
     class="TieSegment"
     d="m 632.881,111.74062 c 11.483,6.08 45.933,6.08 57.416,0 -11.483,12.628 -45.933,12.628 -57.416,0"
     id="path108"
     inkscape:connector-curvature="0"
     style="fill-rule:evenodd;stroke:#000000;stroke-width:1.63999999;stroke-linecap:round;stroke-linejoin:round" />
  <path
     class="TieSegment"
     d="m 1186.322,29.890615 c 10.59,-12.629 42.35,-12.629 52.93,0 -10.58,-6.081 -42.34,-6.081 -52.93,0"
     id="path110"
     inkscape:connector-curvature="0"
     style="fill-rule:evenodd;stroke:#000000;stroke-width:1.63999999;stroke-linecap:round;stroke-linejoin:round" />
  <path
     class="TieSegment"
     d="m 1720.772,29.890615 c 10.58,-12.629 42.35,-12.629 52.93,0 -10.58,-6.081 -42.35,-6.081 -52.93,0"
     id="path112"
     inkscape:connector-curvature="0"
     style="fill-rule:evenodd;stroke:#000000;stroke-width:1.63999999;stroke-linecap:round;stroke-linejoin:round" />
  <polyline
     class="BarLine"
     points="430.089,655.643 430.089,751.759"
     id="polyline132"
     style="stroke:#000000;stroke-width:4.21000004;stroke-linejoin:bevel"
     transform="translate(-212.958,-340.56238)" />
  <polyline
     class="BarLine"
     points="1160.86,655.643 1160.86,751.759"
     id="polyline134"
     style="stroke:#000000;stroke-width:4.21000004;stroke-linejoin:bevel"
     transform="translate(-212.958,-340.56238)" />
  <polyline
     class="BarLine"
     points="1695.31,655.643 1695.31,751.759"
     id="polyline136"
     style="stroke:#000000;stroke-width:4.21000004;stroke-linejoin:bevel"
     transform="translate(-212.958,-340.56238)" />
  <polyline
     class="BarLine"
     points="2229.76,655.643 2229.76,751.759"
     id="polyline138"
     style="stroke:#000000;stroke-width:4.21000004;stroke-linejoin:bevel"
     transform="translate(-212.958,-340.56238)" />
  <polyline
     class="BarLine"
     points="2761.67,655.643 2761.67,751.759"
     id="polyline140"
     style="stroke:#000000;stroke-width:4.21000004;stroke-linejoin:bevel"
     transform="translate(-212.958,-340.56238)" />
  <polyline
     class="BarLine"
     points="430.089,375.013 430.089,656.929"
     id="polyline172"
     style="stroke:#000000;stroke-width:4.21000004;stroke-linejoin:bevel"
     transform="translate(-212.958,-340.56238)" />
  <polyline
     class="BarLine"
     points="1160.86,375.013 1160.86,471.129"
     id="polyline174"
     style="stroke:#000000;stroke-width:4.21000004;stroke-linejoin:bevel"
     transform="translate(-212.958,-340.56238)" />
  <polyline
     class="BarLine"
     points="1695.31,375.013 1695.31,471.129"
     id="polyline176"
     style="stroke:#000000;stroke-width:4.21000004;stroke-linejoin:bevel"
     transform="translate(-212.958,-340.56238)" />
  <polyline
     class="BarLine"
     points="2229.76,375.013 2229.76,471.129"
     id="polyline178"
     style="stroke:#000000;stroke-width:4.21000004;stroke-linejoin:bevel"
     transform="translate(-212.958,-340.56238)" />
  <polyline
     class="BarLine"
     points="2761.67,375.013 2761.67,471.129"
     id="polyline180"
     style="stroke:#000000;stroke-width:4.21000004;stroke-linejoin:bevel"
     transform="translate(-212.958,-340.56238)" />
  <polyline
     class="LedgerLine"
     points="1017.5,352.913 1064.27,352.913"
     id="polyline212"
     style="stroke:#000000;stroke-width:3.74000001;stroke-linejoin:bevel"
     transform="translate(-212.958,-340.56238)" />
  <polyline
     class="Stem"
     points="627.765,741.923 627.765,803.091"
     id="polyline216"
     style="stroke:#000000;stroke-width:2.56999993;stroke-linejoin:bevel"
     transform="translate(-212.958,-340.56238)" />
  <polyline
     class="Stem"
     points="760.834,695.151 760.834,773.858"
     id="polyline218"
     style="stroke:#000000;stroke-width:2.56999993;stroke-linejoin:bevel"
     transform="translate(-212.958,-340.56238)" />
  <polyline
     class="Stem"
     points="827.369,741.923 827.369,797.244"
     id="polyline220"
     style="stroke:#000000;stroke-width:2.56999993;stroke-linejoin:bevel"
     transform="translate(-212.958,-340.56238)" />
  <polyline
     class="Stem"
     points="893.903,741.923 893.903,803.091"
     id="polyline222"
     style="stroke:#000000;stroke-width:2.56999993;stroke-linejoin:bevel"
     transform="translate(-212.958,-340.56238)" />
  <polyline
     class="Stem"
     points="1026.97,695.151 1026.97,768.012"
     id="polyline224"
     style="stroke:#000000;stroke-width:2.56999993;stroke-linejoin:bevel"
     transform="translate(-212.958,-340.56238)" />
  <polyline
     class="Stem"
     points="1194.65,741.923 1194.65,803.091"
     id="polyline226"
     style="stroke:#000000;stroke-width:2.56999993;stroke-linejoin:bevel"
     transform="translate(-212.958,-340.56238)" />
  <polyline
     class="Stem"
     points="1318.76,695.151 1318.76,773.858"
     id="polyline228"
     style="stroke:#000000;stroke-width:2.56999993;stroke-linejoin:bevel"
     transform="translate(-212.958,-340.56238)" />
  <polyline
     class="Stem"
     points="1380.81,741.923 1380.81,797.244"
     id="polyline230"
     style="stroke:#000000;stroke-width:2.56999993;stroke-linejoin:bevel"
     transform="translate(-212.958,-340.56238)" />
  <polyline
     class="Stem"
     points="1442.86,741.923 1442.86,803.091"
     id="polyline232"
     style="stroke:#000000;stroke-width:2.56999993;stroke-linejoin:bevel"
     transform="translate(-212.958,-340.56238)" />
  <polyline
     class="Stem"
     points="1566.97,695.151 1566.97,768.012"
     id="polyline234"
     style="stroke:#000000;stroke-width:2.56999993;stroke-linejoin:bevel"
     transform="translate(-212.958,-340.56238)" />
  <polyline
     class="Stem"
     points="1729.1,741.923 1729.1,803.091"
     id="polyline236"
     style="stroke:#000000;stroke-width:2.56999993;stroke-linejoin:bevel"
     transform="translate(-212.958,-340.56238)" />
  <polyline
     class="Stem"
     points="1853.21,695.151 1853.21,773.858"
     id="polyline238"
     style="stroke:#000000;stroke-width:2.56999993;stroke-linejoin:bevel"
     transform="translate(-212.958,-340.56238)" />
  <polyline
     class="Stem"
     points="1915.26,741.923 1915.26,797.244"
     id="polyline240"
     style="stroke:#000000;stroke-width:2.56999993;stroke-linejoin:bevel"
     transform="translate(-212.958,-340.56238)" />
  <polyline
     class="Stem"
     points="1977.31,741.923 1977.31,803.091"
     id="polyline242"
     style="stroke:#000000;stroke-width:2.56999993;stroke-linejoin:bevel"
     transform="translate(-212.958,-340.56238)" />
  <polyline
     class="Stem"
     points="2101.41,695.151 2101.41,768.012"
     id="polyline244"
     style="stroke:#000000;stroke-width:2.56999993;stroke-linejoin:bevel"
     transform="translate(-212.958,-340.56238)" />
  <polyline
     class="Stem"
     points="2263.55,741.923 2263.55,803.091"
     id="polyline246"
     style="stroke:#000000;stroke-width:2.56999993;stroke-linejoin:bevel"
     transform="translate(-212.958,-340.56238)" />
  <polyline
     class="Stem"
     points="2386.93,695.151 2386.93,773.858"
     id="polyline248"
     style="stroke:#000000;stroke-width:2.56999993;stroke-linejoin:bevel"
     transform="translate(-212.958,-340.56238)" />
  <polyline
     class="Stem"
     points="2448.62,741.923 2448.62,797.244"
     id="polyline250"
     style="stroke:#000000;stroke-width:2.56999993;stroke-linejoin:bevel"
     transform="translate(-212.958,-340.56238)" />
  <polyline
     class="Stem"
     points="2510.31,741.923 2510.31,803.091"
     id="polyline252"
     style="stroke:#000000;stroke-width:2.56999993;stroke-linejoin:bevel"
     transform="translate(-212.958,-340.56238)" />
  <polyline
     class="Stem"
     points="2633.69,695.151 2633.69,768.012"
     id="polyline254"
     style="stroke:#000000;stroke-width:2.56999993;stroke-linejoin:bevel"
     transform="translate(-212.958,-340.56238)" />
  <polyline
     class="Stem"
     points="655.587,637.304 655.587,580.925"
     id="polyline398"
     style="stroke:#000000;stroke-width:2.56999993;stroke-linejoin:bevel"
     transform="translate(-212.958,-340.56238)" />
  <polyline
     class="Stem"
     points="722.121,637.304 722.121,580.925"
     id="polyline400"
     style="stroke:#000000;stroke-width:2.56999993;stroke-linejoin:bevel"
     transform="translate(-212.958,-340.56238)" />
  <polyline
     class="Stem"
     points="788.656,637.304 788.656,580.925"
     id="polyline402"
     style="stroke:#000000;stroke-width:2.56999993;stroke-linejoin:bevel"
     transform="translate(-212.958,-340.56238)" />
  <polyline
     class="Stem"
     points="855.191,637.304 855.191,580.925"
     id="polyline404"
     style="stroke:#000000;stroke-width:2.56999993;stroke-linejoin:bevel"
     transform="translate(-212.958,-340.56238)" />
  <polyline
     class="Stem"
     points="921.725,637.304 921.725,580.925"
     id="polyline406"
     style="stroke:#000000;stroke-width:2.56999993;stroke-linejoin:bevel"
     transform="translate(-212.958,-340.56238)" />
  <polyline
     class="Stem"
     points="988.26,637.304 988.26,580.925"
     id="polyline408"
     style="stroke:#000000;stroke-width:2.56999993;stroke-linejoin:bevel"
     transform="translate(-212.958,-340.56238)" />
  <polyline
     class="Stem"
     points="1054.79,637.304 1054.79,580.925"
     id="polyline410"
     style="stroke:#000000;stroke-width:2.56999993;stroke-linejoin:bevel"
     transform="translate(-212.958,-340.56238)" />
  <polyline
     class="Stem"
     points="1121.33,637.304 1121.33,580.925"
     id="polyline412"
     style="stroke:#000000;stroke-width:2.56999993;stroke-linejoin:bevel"
     transform="translate(-212.958,-340.56238)" />
  <polyline
     class="Stem"
     points="1222.47,637.304 1222.47,580.925"
     id="polyline414"
     style="stroke:#000000;stroke-width:2.56999993;stroke-linejoin:bevel"
     transform="translate(-212.958,-340.56238)" />
  <polyline
     class="Stem"
     points="1284.53,637.304 1284.53,580.925"
     id="polyline416"
     style="stroke:#000000;stroke-width:2.56999993;stroke-linejoin:bevel"
     transform="translate(-212.958,-340.56238)" />
  <polyline
     class="Stem"
     points="1346.58,637.304 1346.58,580.925"
     id="polyline418"
     style="stroke:#000000;stroke-width:2.56999993;stroke-linejoin:bevel"
     transform="translate(-212.958,-340.56238)" />
  <polyline
     class="Stem"
     points="1408.63,637.304 1408.63,580.925"
     id="polyline420"
     style="stroke:#000000;stroke-width:2.56999993;stroke-linejoin:bevel"
     transform="translate(-212.958,-340.56238)" />
  <polyline
     class="Stem"
     points="1470.68,637.304 1470.68,580.925"
     id="polyline422"
     style="stroke:#000000;stroke-width:2.56999993;stroke-linejoin:bevel"
     transform="translate(-212.958,-340.56238)" />
  <polyline
     class="Stem"
     points="1532.74,637.304 1532.74,580.925"
     id="polyline424"
     style="stroke:#000000;stroke-width:2.56999993;stroke-linejoin:bevel"
     transform="translate(-212.958,-340.56238)" />
  <polyline
     class="Stem"
     points="1594.79,637.304 1594.79,580.925"
     id="polyline426"
     style="stroke:#000000;stroke-width:2.56999993;stroke-linejoin:bevel"
     transform="translate(-212.958,-340.56238)" />
  <polyline
     class="Stem"
     points="1656.84,637.304 1656.84,580.925"
     id="polyline428"
     style="stroke:#000000;stroke-width:2.56999993;stroke-linejoin:bevel"
     transform="translate(-212.958,-340.56238)" />
  <polyline
     class="Stem"
     points="1756.92,637.304 1756.92,580.925"
     id="polyline430"
     style="stroke:#000000;stroke-width:2.56999993;stroke-linejoin:bevel"
     transform="translate(-212.958,-340.56238)" />
  <polyline
     class="Stem"
     points="1818.98,637.304 1818.98,580.925"
     id="polyline432"
     style="stroke:#000000;stroke-width:2.56999993;stroke-linejoin:bevel"
     transform="translate(-212.958,-340.56238)" />
  <polyline
     class="Stem"
     points="1881.03,637.304 1881.03,580.925"
     id="polyline434"
     style="stroke:#000000;stroke-width:2.56999993;stroke-linejoin:bevel"
     transform="translate(-212.958,-340.56238)" />
  <polyline
     class="Stem"
     points="1943.08,637.304 1943.08,580.925"
     id="polyline436"
     style="stroke:#000000;stroke-width:2.56999993;stroke-linejoin:bevel"
     transform="translate(-212.958,-340.56238)" />
  <polyline
     class="Stem"
     points="2005.13,637.304 2005.13,580.925"
     id="polyline438"
     style="stroke:#000000;stroke-width:2.56999993;stroke-linejoin:bevel"
     transform="translate(-212.958,-340.56238)" />
  <polyline
     class="Stem"
     points="2067.18,637.304 2067.18,580.925"
     id="polyline440"
     style="stroke:#000000;stroke-width:2.56999993;stroke-linejoin:bevel"
     transform="translate(-212.958,-340.56238)" />
  <polyline
     class="Stem"
     points="2129.24,637.304 2129.24,580.925"
     id="polyline442"
     style="stroke:#000000;stroke-width:2.56999993;stroke-linejoin:bevel"
     transform="translate(-212.958,-340.56238)" />
  <polyline
     class="Stem"
     points="2191.29,637.304 2191.29,580.925"
     id="polyline444"
     style="stroke:#000000;stroke-width:2.56999993;stroke-linejoin:bevel"
     transform="translate(-212.958,-340.56238)" />
  <polyline
     class="Stem"
     points="2291.37,637.304 2291.37,580.925"
     id="polyline446"
     style="stroke:#000000;stroke-width:2.56999993;stroke-linejoin:bevel"
     transform="translate(-212.958,-340.56238)" />
  <polyline
     class="Stem"
     points="2353.06,637.304 2353.06,580.925"
     id="polyline448"
     style="stroke:#000000;stroke-width:2.56999993;stroke-linejoin:bevel"
     transform="translate(-212.958,-340.56238)" />
  <polyline
     class="Stem"
     points="2414.75,637.304 2414.75,580.925"
     id="polyline450"
     style="stroke:#000000;stroke-width:2.56999993;stroke-linejoin:bevel"
     transform="translate(-212.958,-340.56238)" />
  <polyline
     class="Stem"
     points="2476.44,637.304 2476.44,580.925"
     id="polyline452"
     style="stroke:#000000;stroke-width:2.56999993;stroke-linejoin:bevel"
     transform="translate(-212.958,-340.56238)" />
  <polyline
     class="Stem"
     points="2538.13,637.304 2538.13,580.925"
     id="polyline454"
     style="stroke:#000000;stroke-width:2.56999993;stroke-linejoin:bevel"
     transform="translate(-212.958,-340.56238)" />
  <polyline
     class="Stem"
     points="2599.82,637.304 2599.82,580.925"
     id="polyline456"
     style="stroke:#000000;stroke-width:2.56999993;stroke-linejoin:bevel"
     transform="translate(-212.958,-340.56238)" />
  <polyline
     class="Stem"
     points="2661.51,637.304 2661.51,580.925"
     id="polyline458"
     style="stroke:#000000;stroke-width:2.56999993;stroke-linejoin:bevel"
     transform="translate(-212.958,-340.56238)" />
  <polyline
     class="Stem"
     points="2723.21,637.304 2723.21,580.925"
     id="polyline460"
     style="stroke:#000000;stroke-width:2.56999993;stroke-linejoin:bevel"
     transform="translate(-212.958,-340.56238)" />
  <polyline
     class="Stem"
     points="655.587,431.77 655.587,358.76"
     id="polyline636"
     style="stroke:#000000;stroke-width:2.56999993;stroke-linejoin:bevel"
     transform="translate(-212.958,-340.56238)" />
  <polyline
     class="Stem"
     points="855.191,431.77 855.191,358.76"
     id="polyline638"
     style="stroke:#000000;stroke-width:2.56999993;stroke-linejoin:bevel"
     transform="translate(-212.958,-340.56238)" />
  <polyline
     class="Stem"
     points="921.725,431.77 921.725,358.76"
     id="polyline640"
     style="stroke:#000000;stroke-width:2.56999993;stroke-linejoin:bevel"
     transform="translate(-212.958,-340.56238)" />
  <polyline
     class="Stem"
     points="1026.97,356.056 1026.97,434.764"
     id="polyline642"
     style="stroke:#000000;stroke-width:2.56999993;stroke-linejoin:bevel"
     transform="translate(-212.958,-340.56238)" />
  <polyline
     class="Stem"
     points="1194.65,391.135 1194.65,469.843"
     id="polyline644"
     style="stroke:#000000;stroke-width:2.56999993;stroke-linejoin:bevel"
     transform="translate(-212.958,-340.56238)" />
  <polyline
     class="Stem"
     points="1380.81,391.135 1380.81,469.843"
     id="polyline646"
     style="stroke:#000000;stroke-width:2.56999993;stroke-linejoin:bevel"
     transform="translate(-212.958,-340.56238)" />
  <polyline
     class="Stem"
     points="1442.86,391.135 1442.86,469.843"
     id="polyline648"
     style="stroke:#000000;stroke-width:2.56999993;stroke-linejoin:bevel"
     transform="translate(-212.958,-340.56238)" />
  <polyline
     class="Stem"
     points="1566.97,391.135 1566.97,469.843"
     id="polyline650"
     style="stroke:#000000;stroke-width:2.56999993;stroke-linejoin:bevel"
     transform="translate(-212.958,-340.56238)" />
  <polyline
     class="Stem"
     points="1729.1,391.135 1729.1,469.843"
     id="polyline652"
     style="stroke:#000000;stroke-width:2.56999993;stroke-linejoin:bevel"
     transform="translate(-212.958,-340.56238)" />
  <polyline
     class="Stem"
     points="1915.26,391.135 1915.26,469.843"
     id="polyline654"
     style="stroke:#000000;stroke-width:2.56999993;stroke-linejoin:bevel"
     transform="translate(-212.958,-340.56238)" />
  <polyline
     class="Stem"
     points="1977.31,391.135 1977.31,469.843"
     id="polyline656"
     style="stroke:#000000;stroke-width:2.56999993;stroke-linejoin:bevel"
     transform="translate(-212.958,-340.56238)" />
  <polyline
     class="Stem"
     points="2129.24,466.849 2129.24,387.992"
     id="polyline658"
     style="stroke:#000000;stroke-width:2.56999993;stroke-linejoin:bevel"
     transform="translate(-212.958,-340.56238)" />
  <polyline
     class="Stem"
     points="2291.37,431.77 2291.37,358.76"
     id="polyline660"
     style="stroke:#000000;stroke-width:2.56999993;stroke-linejoin:bevel"
     transform="translate(-212.958,-340.56238)" />
  <polyline
     class="Stem"
     points="2633.69,426.214 2633.69,493.228"
     id="polyline662"
     style="stroke:#000000;stroke-width:2.56999993;stroke-linejoin:bevel"
     transform="translate(-212.958,-340.56238)" />
  <polyline
     class="Stem"
     points="2695.38,414.521 2695.38,487.382"
     id="polyline664"
     style="stroke:#000000;stroke-width:2.56999993;stroke-linejoin:bevel"
     transform="translate(-212.958,-340.56238)" />
  <path
     class="Note"
     d="m 442.98714,390.64645 c -1.68088,-3.09866 -5.23253,-4.77945 -9.54432,-4.77945 -3.17168,0 -6.63577,0.93543 -10.01203,2.71856 -6.16806,3.27403 -9.90979,8.78432 -9.90979,13.5638 0,1.30083 0.27771,2.61629 0.93543,3.82943 1.68086,3.08405 5.23258,4.67718 9.54432,4.67718 3.17177,0 6.63577,-0.83309 10.01213,-2.61631 6.16796,-3.27401 9.90969,-8.79891 9.90969,-13.56378 0,-1.31545 -0.27773,-2.61629 -0.93543,-3.82943"
     id="path758"
     inkscape:connector-curvature="0"
     style="stroke-width:0.93543297" />
  <path
     class="Note"
     d="m 576.05614,343.87445 c -1.68088,-3.09866 -5.23253,-4.77945 -9.54432,-4.77945 -3.17168,0 -6.63577,0.93543 -10.01203,2.71856 -6.16806,3.27403 -9.90979,8.78432 -9.90979,13.5638 0,1.30083 0.27771,2.61629 0.93543,3.82943 1.68086,3.08405 5.23258,4.67718 9.54432,4.67718 3.17177,0 6.63577,-0.83309 10.01213,-2.61631 6.16796,-3.27401 9.90969,-8.79891 9.90969,-13.56378 0,-1.31545 -0.27773,-2.61629 -0.93543,-3.82943"
     id="path760"
     inkscape:connector-curvature="0"
     style="stroke-width:0.93543297" />
  <path
     class="Note"
     d="m 642.59114,390.64645 c -1.68088,-3.09866 -5.23253,-4.77945 -9.54432,-4.77945 -3.17168,0 -6.63577,0.93543 -10.01203,2.71856 -6.16806,3.27403 -9.90979,8.78432 -9.90979,13.5638 0,1.30083 0.27771,2.61629 0.93543,3.82943 1.68086,3.08405 5.23258,4.67718 9.54432,4.67718 3.17177,0 6.63577,-0.83309 10.01213,-2.61631 6.16796,-3.27401 9.90969,-8.79891 9.90969,-13.56378 0,-1.31545 -0.27773,-2.61629 -0.93543,-3.82943"
     id="path762"
     inkscape:connector-curvature="0"
     style="stroke-width:0.93543297" />
  <path
     class="Note"
     d="m 709.12514,390.64645 c -1.68088,-3.09866 -5.23253,-4.77945 -9.54432,-4.77945 -3.17168,0 -6.63577,0.93543 -10.01203,2.71856 -6.16806,3.27403 -9.90979,8.78432 -9.90979,13.5638 0,1.30083 0.27771,2.61629 0.93543,3.82943 1.68086,3.08405 5.23258,4.67718 9.54432,4.67718 3.17177,0 6.63577,-0.83309 10.01213,-2.61631 6.16796,-3.27401 9.90969,-8.79891 9.90969,-13.56378 0,-1.31545 -0.27773,-2.61629 -0.93543,-3.82943"
     id="path764"
     inkscape:connector-curvature="0"
     style="stroke-width:0.93543297" />
  <path
     class="Note"
     d="m 842.19814,343.87445 c -1.68088,-3.09866 -5.23253,-4.77945 -9.54432,-4.77945 -3.17168,0 -6.63577,0.93543 -10.01203,2.71856 -6.16806,3.27403 -9.90979,8.78432 -9.90979,13.5638 0,1.30083 0.27771,2.61629 0.93543,3.82943 1.68086,3.08405 5.23258,4.67718 9.54432,4.67718 3.17177,0 6.63577,-0.83309 10.01213,-2.61631 6.16796,-3.27401 9.90969,-8.79891 9.90969,-13.56378 0,-1.31545 -0.27773,-2.61629 -0.93543,-3.82943"
     id="path766"
     inkscape:connector-curvature="0"
     style="stroke-width:0.93543297" />
  <path
     class="Note"
     d="m 1009.8781,390.64645 c -1.6808,-3.09866 -5.2325,-4.77945 -9.5443,-4.77945 -3.17166,0 -6.63575,0.93543 -10.01201,2.71856 -6.16806,3.27403 -9.90979,8.78432 -9.90979,13.5638 0,1.30083 0.27771,2.61629 0.93543,3.82943 1.68086,3.08405 5.23258,4.67718 9.54432,4.67718 3.17177,0 6.63577,-0.83309 10.01215,-2.61631 6.1679,-3.27401 9.9097,-8.79891 9.9097,-13.56378 0,-1.31545 -0.2778,-2.61629 -0.9355,-3.82943"
     id="path768"
     inkscape:connector-curvature="0"
     style="stroke-width:0.93543297" />
  <path
     class="Note"
     d="m 1133.9781,343.87445 c -1.6808,-3.09866 -5.2325,-4.77945 -9.5443,-4.77945 -3.1717,0 -6.6358,0.93543 -10.012,2.71856 -6.1681,3.27403 -9.9098,8.78432 -9.9098,13.5638 0,1.30083 0.2777,2.61629 0.9354,3.82943 1.6809,3.08405 5.2326,4.67718 9.5443,4.67718 3.1718,0 6.6358,-0.83309 10.0122,-2.61631 6.1679,-3.27401 9.9097,-8.79891 9.9097,-13.56378 0,-1.31545 -0.2778,-2.61629 -0.9355,-3.82943"
     id="path770"
     inkscape:connector-curvature="0"
     style="stroke-width:0.93543297" />
  <path
     class="Note"
     d="m 1196.0281,390.64645 c -1.6808,-3.09866 -5.2325,-4.77945 -9.5443,-4.77945 -3.1717,0 -6.6358,0.93543 -10.012,2.71856 -6.1681,3.27403 -9.9098,8.78432 -9.9098,13.5638 0,1.30083 0.2777,2.61629 0.9354,3.82943 1.6809,3.08405 5.2326,4.67718 9.5443,4.67718 3.1718,0 6.6358,-0.83309 10.0122,-2.61631 6.1679,-3.27401 9.9097,-8.79891 9.9097,-13.56378 0,-1.31545 -0.2778,-2.61629 -0.9355,-3.82943"
     id="path772"
     inkscape:connector-curvature="0"
     style="stroke-width:0.93543297" />
  <path
     class="Note"
     d="m 1258.0881,390.64645 c -1.6808,-3.09866 -5.2325,-4.77945 -9.5443,-4.77945 -3.1717,0 -6.6358,0.93543 -10.012,2.71856 -6.1681,3.27403 -9.9098,8.78432 -9.9098,13.5638 0,1.30083 0.2777,2.61629 0.9354,3.82943 1.6809,3.08405 5.2326,4.67718 9.5443,4.67718 3.1718,0 6.6358,-0.83309 10.0122,-2.61631 6.1679,-3.27401 9.9097,-8.79891 9.9097,-13.56378 0,-1.31545 -0.2778,-2.61629 -0.9355,-3.82943"
     id="path774"
     inkscape:connector-curvature="0"
     style="stroke-width:0.93543297" />
  <path
     class="Note"
     d="m 1382.1881,343.87445 c -1.6808,-3.09866 -5.2325,-4.77945 -9.5443,-4.77945 -3.1717,0 -6.6358,0.93543 -10.012,2.71856 -6.1681,3.27403 -9.9098,8.78432 -9.9098,13.5638 0,1.30083 0.2777,2.61629 0.9354,3.82943 1.6809,3.08405 5.2326,4.67718 9.5443,4.67718 3.1718,0 6.6358,-0.83309 10.0122,-2.61631 6.1679,-3.27401 9.9097,-8.79891 9.9097,-13.56378 0,-1.31545 -0.2778,-2.61629 -0.9355,-3.82943"
     id="path776"
     inkscape:connector-curvature="0"
     style="stroke-width:0.93543297" />
  <path
     class="Note"
     d="m 1544.3281,390.64645 c -1.6808,-3.09866 -5.2325,-4.77945 -9.5443,-4.77945 -3.1717,0 -6.6358,0.93543 -10.012,2.71856 -6.1681,3.27403 -9.9098,8.78432 -9.9098,13.5638 0,1.30083 0.2777,2.61629 0.9354,3.82943 1.6809,3.08405 5.2326,4.67718 9.5443,4.67718 3.1718,0 6.6358,-0.83309 10.0122,-2.61631 6.1679,-3.27401 9.9097,-8.79891 9.9097,-13.56378 0,-1.31545 -0.2778,-2.61629 -0.9355,-3.82943"
     id="path778"
     inkscape:connector-curvature="0"
     style="stroke-width:0.93543297" />
  <path
     class="Note"
     d="m 1668.4281,343.87445 c -1.6808,-3.09866 -5.2325,-4.77945 -9.5443,-4.77945 -3.1717,0 -6.6358,0.93543 -10.012,2.71856 -6.1681,3.27403 -9.9098,8.78432 -9.9098,13.5638 0,1.30083 0.2777,2.61629 0.9354,3.82943 1.6809,3.08405 5.2326,4.67718 9.5443,4.67718 3.1718,0 6.6358,-0.83309 10.0122,-2.61631 6.1679,-3.27401 9.9097,-8.79891 9.9097,-13.56378 0,-1.31545 -0.2778,-2.61629 -0.9355,-3.82943"
     id="path780"
     inkscape:connector-curvature="0"
     style="stroke-width:0.93543297" />
  <path
     class="Note"
     d="m 1730.4781,390.64645 c -1.6808,-3.09866 -5.2325,-4.77945 -9.5443,-4.77945 -3.1717,0 -6.6358,0.93543 -10.012,2.71856 -6.1681,3.27403 -9.9098,8.78432 -9.9098,13.5638 0,1.30083 0.2777,2.61629 0.9354,3.82943 1.6809,3.08405 5.2326,4.67718 9.5443,4.67718 3.1718,0 6.6358,-0.83309 10.0122,-2.61631 6.1679,-3.27401 9.9097,-8.79891 9.9097,-13.56378 0,-1.31545 -0.2778,-2.61629 -0.9355,-3.82943"
     id="path782"
     inkscape:connector-curvature="0"
     style="stroke-width:0.93543297" />
  <path
     class="Note"
     d="m 1792.5281,390.64645 c -1.6808,-3.09866 -5.2325,-4.77945 -9.5443,-4.77945 -3.1717,0 -6.6358,0.93543 -10.012,2.71856 -6.1681,3.27403 -9.9098,8.78432 -9.9098,13.5638 0,1.30083 0.2777,2.61629 0.9354,3.82943 1.6809,3.08405 5.2326,4.67718 9.5443,4.67718 3.1718,0 6.6358,-0.83309 10.0122,-2.61631 6.1679,-3.27401 9.9097,-8.79891 9.9097,-13.56378 0,-1.31545 -0.2778,-2.61629 -0.9355,-3.82943"
     id="path784"
     inkscape:connector-curvature="0"
     style="stroke-width:0.93543297" />
  <path
     class="Note"
     d="m 1916.6381,343.87445 c -1.6808,-3.09866 -5.2325,-4.77945 -9.5443,-4.77945 -3.1717,0 -6.6358,0.93543 -10.012,2.71856 -6.1681,3.27403 -9.9098,8.78432 -9.9098,13.5638 0,1.30083 0.2777,2.61629 0.9354,3.82943 1.6809,3.08405 5.2326,4.67718 9.5443,4.67718 3.1718,0 6.6358,-0.83309 10.0122,-2.61631 6.1679,-3.27401 9.9097,-8.79891 9.9097,-13.56378 0,-1.31545 -0.2778,-2.61629 -0.9355,-3.82943"
     id="path786"
     inkscape:connector-curvature="0"
     style="stroke-width:0.93543297" />
  <path
     class="Note"
     d="m 2078.7681,390.64645 c -1.6808,-3.09866 -5.2325,-4.77945 -9.5443,-4.77945 -3.1717,0 -6.6358,0.93543 -10.012,2.71856 -6.1681,3.27403 -9.9098,8.78432 -9.9098,13.5638 0,1.30083 0.2777,2.61629 0.9354,3.82943 1.6809,3.08405 5.2326,4.67718 9.5443,4.67718 3.1718,0 6.6358,-0.83309 10.0122,-2.61631 6.1679,-3.27401 9.9097,-8.79891 9.9097,-13.56378 0,-1.31545 -0.2778,-2.61629 -0.9355,-3.82943"
     id="path788"
     inkscape:connector-curvature="0"
     style="stroke-width:0.93543297" />
  <path
     class="Note"
     d="m 2202.1481,343.87445 c -1.6808,-3.09866 -5.2325,-4.77945 -9.5443,-4.77945 -3.1717,0 -6.6358,0.93543 -10.012,2.71856 -6.1681,3.27403 -9.9098,8.78432 -9.9098,13.5638 0,1.30083 0.2777,2.61629 0.9354,3.82943 1.6809,3.08405 5.2326,4.67718 9.5443,4.67718 3.1718,0 6.6358,-0.83309 10.0122,-2.61631 6.1679,-3.27401 9.9097,-8.79891 9.9097,-13.56378 0,-1.31545 -0.2778,-2.61629 -0.9355,-3.82943"
     id="path790"
     inkscape:connector-curvature="0"
     style="stroke-width:0.93543297" />
  <path
     class="Note"
     d="m 2263.8481,390.64645 c -1.6808,-3.09866 -5.2325,-4.77945 -9.5443,-4.77945 -3.1717,0 -6.6358,0.93543 -10.012,2.71856 -6.1681,3.27403 -9.9098,8.78432 -9.9098,13.5638 0,1.30083 0.2777,2.61629 0.9354,3.82943 1.6809,3.08405 5.2326,4.67718 9.5443,4.67718 3.1718,0 6.6358,-0.83309 10.0122,-2.61631 6.1679,-3.27401 9.9097,-8.79891 9.9097,-13.56378 0,-1.31545 -0.2778,-2.61629 -0.9355,-3.82943"
     id="path792"
     inkscape:connector-curvature="0"
     style="stroke-width:0.93543297" />
  <path
     class="Note"
     d="m 2325.5381,390.64645 c -1.6808,-3.09866 -5.2325,-4.77945 -9.5443,-4.77945 -3.1717,0 -6.6358,0.93543 -10.012,2.71856 -6.1681,3.27403 -9.9098,8.78432 -9.9098,13.5638 0,1.30083 0.2777,2.61629 0.9354,3.82943 1.6809,3.08405 5.2326,4.67718 9.5443,4.67718 3.1718,0 6.6358,-0.83309 10.0122,-2.61631 6.1679,-3.27401 9.9097,-8.79891 9.9097,-13.56378 0,-1.31545 -0.2778,-2.61629 -0.9355,-3.82943"
     id="path794"
     inkscape:connector-curvature="0"
     style="stroke-width:0.93543297" />
  <path
     class="Note"
     d="m 2448.9181,343.87445 c -1.6808,-3.09866 -5.2325,-4.77945 -9.5443,-4.77945 -3.1717,0 -6.6358,0.93543 -10.012,2.71856 -6.1681,3.27403 -9.9098,8.78432 -9.9098,13.5638 0,1.30083 0.2777,2.61629 0.9354,3.82943 1.6809,3.08405 5.2326,4.67718 9.5443,4.67718 3.1718,0 6.6358,-0.83309 10.0122,-2.61631 6.1679,-3.27401 9.9097,-8.79891 9.9097,-13.56378 0,-1.31545 -0.2778,-2.61629 -0.9355,-3.82943"
     id="path796"
     inkscape:connector-curvature="0"
     style="stroke-width:0.93543297" />
  <path
     class="Note"
     d="m 432.03967,304.67362 11.41519,-8.97431 c 0.27773,-0.19002 0.46771,-0.57001 0.46771,-0.93548 v -0.10225 c 0,-0.36547 -0.18998,-0.65779 -0.36538,-0.83319 l -1.12542,-1.12542 c -0.27773,-0.18998 -0.57005,-0.37997 -0.93543,-0.37997 -0.27773,0 -0.6578,0.10224 -0.84778,0.27764 l -11.8829,9.45668 -11.97064,-9.45668 c -0.19001,-0.1754 -0.55542,-0.27764 -0.84774,-0.27764 -0.3654,0 -0.55541,0.18999 -0.83312,0.37997 l -1.21314,1.12542 c -0.19001,0.1754 -0.38002,0.55546 -0.38002,0.93544 0,0.36547 0.19001,0.74546 0.46772,0.93548 l 11.41518,8.97431 -11.41518,8.97431 c -0.27771,0.19001 -0.46772,0.57 -0.46772,0.93548 0,0.29232 0.19001,0.6577 0.38002,0.84768 l 1.11083,1.21317 c 0.19001,0.27773 0.57003,0.37997 0.93543,0.37997 0.29232,0 0.65773,-0.10224 0.84774,-0.27764 l 11.97064,-9.45668 11.8829,9.45668 c 0.18998,0.1754 0.57005,0.27764 0.84778,0.27764 0.36538,0 0.74535,-0.10224 0.93543,-0.37997 l 1.12542,-1.21317 c 0.1754,-0.18998 0.36538,-0.55536 0.36538,-0.84768 0,-0.36548 -0.18998,-0.74547 -0.46771,-0.93548 l -11.41519,-8.97431"
     id="path940"
     inkscape:connector-curvature="0"
     style="stroke-width:0.93543297" />
  <path
     class="Note"
     d="m 498.57367,304.67362 11.41519,-8.97431 c 0.27773,-0.19002 0.46771,-0.57001 0.46771,-0.93548 v -0.10225 c 0,-0.36547 -0.18998,-0.65779 -0.36538,-0.83319 l -1.12542,-1.12542 c -0.27773,-0.18998 -0.57005,-0.37997 -0.93543,-0.37997 -0.27773,0 -0.6578,0.10224 -0.84778,0.27764 l -11.8829,9.45668 -11.97064,-9.45668 c -0.19001,-0.1754 -0.55542,-0.27764 -0.84774,-0.27764 -0.3654,0 -0.55541,0.18999 -0.83312,0.37997 l -1.21314,1.12542 c -0.19001,0.1754 -0.38002,0.55546 -0.38002,0.93544 0,0.36547 0.19001,0.74546 0.46772,0.93548 l 11.41518,8.97431 -11.41518,8.97431 c -0.27771,0.19001 -0.46772,0.57 -0.46772,0.93548 0,0.29232 0.19001,0.6577 0.38002,0.84768 l 1.11083,1.21317 c 0.19001,0.27773 0.57003,0.37997 0.93543,0.37997 0.29232,0 0.65773,-0.10224 0.84774,-0.27764 l 11.97064,-9.45668 11.8829,9.45668 c 0.18998,0.1754 0.57005,0.27764 0.84778,0.27764 0.36538,0 0.74535,-0.10224 0.93543,-0.37997 l 1.12542,-1.21317 c 0.1754,-0.18998 0.36538,-0.55536 0.36538,-0.84768 0,-0.36548 -0.18998,-0.74547 -0.46771,-0.93548 l -11.41519,-8.97431"
     id="path942"
     inkscape:connector-curvature="0"
     style="stroke-width:0.93543297" />
  <path
     class="Note"
     d="m 565.10867,304.67362 11.41519,-8.97431 c 0.27773,-0.19002 0.46771,-0.57001 0.46771,-0.93548 v -0.10225 c 0,-0.36547 -0.18998,-0.65779 -0.36538,-0.83319 l -1.12542,-1.12542 c -0.27773,-0.18998 -0.57005,-0.37997 -0.93543,-0.37997 -0.27773,0 -0.6578,0.10224 -0.84778,0.27764 l -11.8829,9.45668 -11.97064,-9.45668 c -0.19001,-0.1754 -0.55542,-0.27764 -0.84774,-0.27764 -0.3654,0 -0.55541,0.18999 -0.83312,0.37997 l -1.21314,1.12542 c -0.19001,0.1754 -0.38002,0.55546 -0.38002,0.93544 0,0.36547 0.19001,0.74546 0.46772,0.93548 l 11.41518,8.97431 -11.41518,8.97431 c -0.27771,0.19001 -0.46772,0.57 -0.46772,0.93548 0,0.29232 0.19001,0.6577 0.38002,0.84768 l 1.11083,1.21317 c 0.19001,0.27773 0.57003,0.37997 0.93543,0.37997 0.29232,0 0.65773,-0.10224 0.84774,-0.27764 l 11.97064,-9.45668 11.8829,9.45668 c 0.18998,0.1754 0.57005,0.27764 0.84778,0.27764 0.36538,0 0.74535,-0.10224 0.93543,-0.37997 l 1.12542,-1.21317 c 0.1754,-0.18998 0.36538,-0.55536 0.36538,-0.84768 0,-0.36548 -0.18998,-0.74547 -0.46771,-0.93548 l -11.41519,-8.97431"
     id="path944"
     inkscape:connector-curvature="0"
     style="stroke-width:0.93543297" />
  <path
     class="Note"
     d="m 631.64367,304.67362 11.41519,-8.97431 c 0.27773,-0.19002 0.46771,-0.57001 0.46771,-0.93548 v -0.10225 c 0,-0.36547 -0.18998,-0.65779 -0.36538,-0.83319 l -1.12542,-1.12542 c -0.27773,-0.18998 -0.57005,-0.37997 -0.93543,-0.37997 -0.27773,0 -0.6578,0.10224 -0.84778,0.27764 l -11.8829,9.45668 -11.97064,-9.45668 c -0.19001,-0.1754 -0.55542,-0.27764 -0.84774,-0.27764 -0.3654,0 -0.55541,0.18999 -0.83312,0.37997 l -1.21314,1.12542 c -0.19001,0.1754 -0.38002,0.55546 -0.38002,0.93544 0,0.36547 0.19001,0.74546 0.46772,0.93548 l 11.41518,8.97431 -11.41518,8.97431 c -0.27771,0.19001 -0.46772,0.57 -0.46772,0.93548 0,0.29232 0.19001,0.6577 0.38002,0.84768 l 1.11083,1.21317 c 0.19001,0.27773 0.57003,0.37997 0.93543,0.37997 0.29232,0 0.65773,-0.10224 0.84774,-0.27764 l 11.97064,-9.45668 11.8829,9.45668 c 0.18998,0.1754 0.57005,0.27764 0.84778,0.27764 0.36538,0 0.74535,-0.10224 0.93543,-0.37997 l 1.12542,-1.21317 c 0.1754,-0.18998 0.36538,-0.55536 0.36538,-0.84768 0,-0.36548 -0.18998,-0.74547 -0.46771,-0.93548 l -11.41519,-8.97431"
     id="path946"
     inkscape:connector-curvature="0"
     style="stroke-width:0.93543297" />
  <path
     class="Note"
     d="m 698.17767,304.67362 11.41519,-8.97431 c 0.27773,-0.19002 0.46771,-0.57001 0.46771,-0.93548 v -0.10225 c 0,-0.36547 -0.18998,-0.65779 -0.36538,-0.83319 l -1.12542,-1.12542 c -0.27773,-0.18998 -0.57005,-0.37997 -0.93543,-0.37997 -0.27773,0 -0.6578,0.10224 -0.84778,0.27764 l -11.8829,9.45668 -11.97064,-9.45668 c -0.19001,-0.1754 -0.55542,-0.27764 -0.84774,-0.27764 -0.3654,0 -0.55541,0.18999 -0.83312,0.37997 l -1.21314,1.12542 c -0.19001,0.1754 -0.38002,0.55546 -0.38002,0.93544 0,0.36547 0.19001,0.74546 0.46772,0.93548 l 11.41518,8.97431 -11.41518,8.97431 c -0.27771,0.19001 -0.46772,0.57 -0.46772,0.93548 0,0.29232 0.19001,0.6577 0.38002,0.84768 l 1.11083,1.21317 c 0.19001,0.27773 0.57003,0.37997 0.93543,0.37997 0.29232,0 0.65773,-0.10224 0.84774,-0.27764 l 11.97064,-9.45668 11.8829,9.45668 c 0.18998,0.1754 0.57005,0.27764 0.84778,0.27764 0.36538,0 0.74535,-0.10224 0.93543,-0.37997 l 1.12542,-1.21317 c 0.1754,-0.18998 0.36538,-0.55536 0.36538,-0.84768 0,-0.36548 -0.18998,-0.74547 -0.46771,-0.93548 l -11.41519,-8.97431"
     id="path948"
     inkscape:connector-curvature="0"
     style="stroke-width:0.93543297" />
  <path
     class="Note"
     d="m 764.71267,304.67362 11.41519,-8.97431 c 0.27773,-0.19002 0.46771,-0.57001 0.46771,-0.93548 v -0.10225 c 0,-0.36547 -0.18998,-0.65779 -0.36538,-0.83319 l -1.12542,-1.12542 c -0.27773,-0.18998 -0.57005,-0.37997 -0.93543,-0.37997 -0.27773,0 -0.6578,0.10224 -0.84778,0.27764 l -11.8829,9.45668 -11.97064,-9.45668 c -0.19001,-0.1754 -0.55542,-0.27764 -0.84774,-0.27764 -0.3654,0 -0.55541,0.18999 -0.83312,0.37997 l -1.21314,1.12542 c -0.19001,0.1754 -0.38002,0.55546 -0.38002,0.93544 0,0.36547 0.19001,0.74546 0.46772,0.93548 l 11.41518,8.97431 -11.41518,8.97431 c -0.27771,0.19001 -0.46772,0.57 -0.46772,0.93548 0,0.29232 0.19001,0.6577 0.38002,0.84768 l 1.11083,1.21317 c 0.19001,0.27773 0.57003,0.37997 0.93543,0.37997 0.29232,0 0.65773,-0.10224 0.84774,-0.27764 l 11.97064,-9.45668 11.8829,9.45668 c 0.18998,0.1754 0.57005,0.27764 0.84778,0.27764 0.36538,0 0.74535,-0.10224 0.93543,-0.37997 l 1.12542,-1.21317 c 0.1754,-0.18998 0.36538,-0.55536 0.36538,-0.84768 0,-0.36548 -0.18998,-0.74547 -0.46771,-0.93548 l -11.41519,-8.97431"
     id="path950"
     inkscape:connector-curvature="0"
     style="stroke-width:0.93543297" />
  <path
     class="Note"
     d="m 831.25067,304.67362 11.41519,-8.97431 c 0.27773,-0.19002 0.46771,-0.57001 0.46771,-0.93548 v -0.10225 c 0,-0.36547 -0.18998,-0.65779 -0.36538,-0.83319 l -1.12542,-1.12542 c -0.27773,-0.18998 -0.57005,-0.37997 -0.93543,-0.37997 -0.27773,0 -0.6578,0.10224 -0.84778,0.27764 l -11.8829,9.45668 -11.97064,-9.45668 c -0.19001,-0.1754 -0.55542,-0.27764 -0.84774,-0.27764 -0.3654,0 -0.55541,0.18999 -0.83312,0.37997 l -1.21314,1.12542 c -0.19001,0.1754 -0.38002,0.55546 -0.38002,0.93544 0,0.36547 0.19001,0.74546 0.46772,0.93548 l 11.41518,8.97431 -11.41518,8.97431 c -0.27771,0.19001 -0.46772,0.57 -0.46772,0.93548 0,0.29232 0.19001,0.6577 0.38002,0.84768 l 1.11083,1.21317 c 0.19001,0.27773 0.57003,0.37997 0.93543,0.37997 0.29232,0 0.65773,-0.10224 0.84774,-0.27764 l 11.97064,-9.45668 11.8829,9.45668 c 0.18998,0.1754 0.57005,0.27764 0.84778,0.27764 0.36538,0 0.74535,-0.10224 0.93543,-0.37997 l 1.12542,-1.21317 c 0.1754,-0.18998 0.36538,-0.55536 0.36538,-0.84768 0,-0.36548 -0.18998,-0.74547 -0.46771,-0.93548 l -11.41519,-8.97431"
     id="path952"
     inkscape:connector-curvature="0"
     style="stroke-width:0.93543297" />
  <path
     class="Note"
     d="m 897.78067,304.67362 11.41519,-8.97431 c 0.27773,-0.19002 0.46771,-0.57001 0.46771,-0.93548 v -0.10225 c 0,-0.36547 -0.18998,-0.65779 -0.36538,-0.83319 l -1.12542,-1.12542 c -0.27773,-0.18998 -0.57005,-0.37997 -0.93543,-0.37997 -0.27773,0 -0.6578,0.10224 -0.84778,0.27764 l -11.8829,9.45668 -11.97064,-9.45668 c -0.19001,-0.1754 -0.55542,-0.27764 -0.84774,-0.27764 -0.3654,0 -0.55541,0.18999 -0.83312,0.37997 l -1.21314,1.12542 c -0.19001,0.1754 -0.38002,0.55546 -0.38002,0.93544 0,0.36547 0.19001,0.74546 0.46772,0.93548 l 11.41518,8.97431 -11.41518,8.97431 c -0.27771,0.19001 -0.46772,0.57 -0.46772,0.93548 0,0.29232 0.19001,0.6577 0.38002,0.84768 l 1.11083,1.21317 c 0.19001,0.27773 0.57003,0.37997 0.93543,0.37997 0.29232,0 0.65773,-0.10224 0.84774,-0.27764 l 11.97064,-9.45668 11.8829,9.45668 c 0.18998,0.1754 0.57005,0.27764 0.84778,0.27764 0.36538,0 0.74535,-0.10224 0.93543,-0.37997 l 1.12542,-1.21317 c 0.1754,-0.18998 0.36538,-0.55536 0.36538,-0.84768 0,-0.36548 -0.18998,-0.74547 -0.46771,-0.93548 l -11.41519,-8.97431"
     id="path954"
     inkscape:connector-curvature="0"
     style="stroke-width:0.93543297" />
  <path
     class="Note"
     d="m 998.93067,304.67362 11.41523,-8.97431 c 0.2777,-0.19002 0.4677,-0.57001 0.4677,-0.93548 v -0.10225 c 0,-0.36547 -0.19,-0.65779 -0.3654,-0.83319 l -1.1254,-1.12542 c -0.2778,-0.18998 -0.5701,-0.37997 -0.9355,-0.37997 -0.2777,0 -0.6578,0.10224 -0.8477,0.27764 l -11.88294,9.45668 -11.97064,-9.45668 c -0.19001,-0.1754 -0.55542,-0.27764 -0.84774,-0.27764 -0.3654,0 -0.55541,0.18999 -0.83312,0.37997 l -1.21314,1.12542 c -0.19001,0.1754 -0.38002,0.55546 -0.38002,0.93544 0,0.36547 0.19001,0.74546 0.46772,0.93548 l 11.41518,8.97431 -11.41518,8.97431 c -0.27771,0.19001 -0.46772,0.57 -0.46772,0.93548 0,0.29232 0.19001,0.6577 0.38002,0.84768 l 1.11083,1.21317 c 0.19001,0.27773 0.57003,0.37997 0.93543,0.37997 0.29232,0 0.65773,-0.10224 0.84774,-0.27764 l 11.97064,-9.45668 11.88294,9.45668 c 0.1899,0.1754 0.57,0.27764 0.8477,0.27764 0.3654,0 0.7454,-0.10224 0.9355,-0.37997 l 1.1254,-1.21317 c 0.1754,-0.18998 0.3654,-0.55536 0.3654,-0.84768 0,-0.36548 -0.19,-0.74547 -0.4677,-0.93548 l -11.41523,-8.97431"
     id="path956"
     inkscape:connector-curvature="0"
     style="stroke-width:0.93543297" />
  <path
     class="Note"
     d="m 1060.9807,304.67362 11.4152,-8.97431 c 0.2777,-0.19002 0.4677,-0.57001 0.4677,-0.93548 v -0.10225 c 0,-0.36547 -0.19,-0.65779 -0.3654,-0.83319 l -1.1254,-1.12542 c -0.2778,-0.18998 -0.5701,-0.37997 -0.9355,-0.37997 -0.2777,0 -0.6578,0.10224 -0.8477,0.27764 l -11.8829,9.45668 -11.9707,-9.45668 c -0.19,-0.1754 -0.5554,-0.27764 -0.8477,-0.27764 -0.3654,0 -0.5554,0.18999 -0.8331,0.37997 l -1.2132,1.12542 c -0.19,0.1754 -0.38,0.55546 -0.38,0.93544 0,0.36547 0.19,0.74546 0.4677,0.93548 l 11.4152,8.97431 -11.4152,8.97431 c -0.2777,0.19001 -0.4677,0.57 -0.4677,0.93548 0,0.29232 0.19,0.6577 0.38,0.84768 l 1.1108,1.21317 c 0.1901,0.27773 0.5701,0.37997 0.9355,0.37997 0.2923,0 0.6577,-0.10224 0.8477,-0.27764 l 11.9707,-9.45668 11.8829,9.45668 c 0.1899,0.1754 0.57,0.27764 0.8477,0.27764 0.3654,0 0.7454,-0.10224 0.9355,-0.37997 l 1.1254,-1.21317 c 0.1754,-0.18998 0.3654,-0.55536 0.3654,-0.84768 0,-0.36548 -0.19,-0.74547 -0.4677,-0.93548 l -11.4152,-8.97431"
     id="path958"
     inkscape:connector-curvature="0"
     style="stroke-width:0.93543297" />
  <path
     class="Note"
     d="m 1123.0307,304.67362 11.4152,-8.97431 c 0.2777,-0.19002 0.4677,-0.57001 0.4677,-0.93548 v -0.10225 c 0,-0.36547 -0.19,-0.65779 -0.3654,-0.83319 l -1.1254,-1.12542 c -0.2778,-0.18998 -0.5701,-0.37997 -0.9355,-0.37997 -0.2777,0 -0.6578,0.10224 -0.8477,0.27764 l -11.8829,9.45668 -11.9707,-9.45668 c -0.19,-0.1754 -0.5554,-0.27764 -0.8477,-0.27764 -0.3654,0 -0.5554,0.18999 -0.8331,0.37997 l -1.2132,1.12542 c -0.19,0.1754 -0.38,0.55546 -0.38,0.93544 0,0.36547 0.19,0.74546 0.4677,0.93548 l 11.4152,8.97431 -11.4152,8.97431 c -0.2777,0.19001 -0.4677,0.57 -0.4677,0.93548 0,0.29232 0.19,0.6577 0.38,0.84768 l 1.1108,1.21317 c 0.1901,0.27773 0.5701,0.37997 0.9355,0.37997 0.2923,0 0.6577,-0.10224 0.8477,-0.27764 l 11.9707,-9.45668 11.8829,9.45668 c 0.1899,0.1754 0.57,0.27764 0.8477,0.27764 0.3654,0 0.7454,-0.10224 0.9355,-0.37997 l 1.1254,-1.21317 c 0.1754,-0.18998 0.3654,-0.55536 0.3654,-0.84768 0,-0.36548 -0.19,-0.74547 -0.4677,-0.93548 l -11.4152,-8.97431"
     id="path960"
     inkscape:connector-curvature="0"
     style="stroke-width:0.93543297" />
  <path
     class="Note"
     d="m 1185.0807,304.67362 11.4152,-8.97431 c 0.2777,-0.19002 0.4677,-0.57001 0.4677,-0.93548 v -0.10225 c 0,-0.36547 -0.19,-0.65779 -0.3654,-0.83319 l -1.1254,-1.12542 c -0.2778,-0.18998 -0.5701,-0.37997 -0.9355,-0.37997 -0.2777,0 -0.6578,0.10224 -0.8477,0.27764 l -11.8829,9.45668 -11.9707,-9.45668 c -0.19,-0.1754 -0.5554,-0.27764 -0.8477,-0.27764 -0.3654,0 -0.5554,0.18999 -0.8331,0.37997 l -1.2132,1.12542 c -0.19,0.1754 -0.38,0.55546 -0.38,0.93544 0,0.36547 0.19,0.74546 0.4677,0.93548 l 11.4152,8.97431 -11.4152,8.97431 c -0.2777,0.19001 -0.4677,0.57 -0.4677,0.93548 0,0.29232 0.19,0.6577 0.38,0.84768 l 1.1108,1.21317 c 0.1901,0.27773 0.5701,0.37997 0.9355,0.37997 0.2923,0 0.6577,-0.10224 0.8477,-0.27764 l 11.9707,-9.45668 11.8829,9.45668 c 0.1899,0.1754 0.57,0.27764 0.8477,0.27764 0.3654,0 0.7454,-0.10224 0.9355,-0.37997 l 1.1254,-1.21317 c 0.1754,-0.18998 0.3654,-0.55536 0.3654,-0.84768 0,-0.36548 -0.19,-0.74547 -0.4677,-0.93548 l -11.4152,-8.97431"
     id="path962"
     inkscape:connector-curvature="0"
     style="stroke-width:0.93543297" />
  <path
     class="Note"
     d="m 1247.1407,304.67362 11.4152,-8.97431 c 0.2777,-0.19002 0.4677,-0.57001 0.4677,-0.93548 v -0.10225 c 0,-0.36547 -0.19,-0.65779 -0.3654,-0.83319 l -1.1254,-1.12542 c -0.2778,-0.18998 -0.5701,-0.37997 -0.9355,-0.37997 -0.2777,0 -0.6578,0.10224 -0.8477,0.27764 l -11.8829,9.45668 -11.9707,-9.45668 c -0.19,-0.1754 -0.5554,-0.27764 -0.8477,-0.27764 -0.3654,0 -0.5554,0.18999 -0.8331,0.37997 l -1.2132,1.12542 c -0.19,0.1754 -0.38,0.55546 -0.38,0.93544 0,0.36547 0.19,0.74546 0.4677,0.93548 l 11.4152,8.97431 -11.4152,8.97431 c -0.2777,0.19001 -0.4677,0.57 -0.4677,0.93548 0,0.29232 0.19,0.6577 0.38,0.84768 l 1.1108,1.21317 c 0.1901,0.27773 0.5701,0.37997 0.9355,0.37997 0.2923,0 0.6577,-0.10224 0.8477,-0.27764 l 11.9707,-9.45668 11.8829,9.45668 c 0.1899,0.1754 0.57,0.27764 0.8477,0.27764 0.3654,0 0.7454,-0.10224 0.9355,-0.37997 l 1.1254,-1.21317 c 0.1754,-0.18998 0.3654,-0.55536 0.3654,-0.84768 0,-0.36548 -0.19,-0.74547 -0.4677,-0.93548 l -11.4152,-8.97431"
     id="path964"
     inkscape:connector-curvature="0"
     style="stroke-width:0.93543297" />
  <path
     class="Note"
     d="m 1309.1907,304.67362 11.4152,-8.97431 c 0.2777,-0.19002 0.4677,-0.57001 0.4677,-0.93548 v -0.10225 c 0,-0.36547 -0.19,-0.65779 -0.3654,-0.83319 l -1.1254,-1.12542 c -0.2778,-0.18998 -0.5701,-0.37997 -0.9355,-0.37997 -0.2777,0 -0.6578,0.10224 -0.8477,0.27764 l -11.8829,9.45668 -11.9707,-9.45668 c -0.19,-0.1754 -0.5554,-0.27764 -0.8477,-0.27764 -0.3654,0 -0.5554,0.18999 -0.8331,0.37997 l -1.2132,1.12542 c -0.19,0.1754 -0.38,0.55546 -0.38,0.93544 0,0.36547 0.19,0.74546 0.4677,0.93548 l 11.4152,8.97431 -11.4152,8.97431 c -0.2777,0.19001 -0.4677,0.57 -0.4677,0.93548 0,0.29232 0.19,0.6577 0.38,0.84768 l 1.1108,1.21317 c 0.1901,0.27773 0.5701,0.37997 0.9355,0.37997 0.2923,0 0.6577,-0.10224 0.8477,-0.27764 l 11.9707,-9.45668 11.8829,9.45668 c 0.1899,0.1754 0.57,0.27764 0.8477,0.27764 0.3654,0 0.7454,-0.10224 0.9355,-0.37997 l 1.1254,-1.21317 c 0.1754,-0.18998 0.3654,-0.55536 0.3654,-0.84768 0,-0.36548 -0.19,-0.74547 -0.4677,-0.93548 l -11.4152,-8.97431"
     id="path966"
     inkscape:connector-curvature="0"
     style="stroke-width:0.93543297" />
  <path
     class="Note"
     d="m 1371.2407,304.67362 11.4152,-8.97431 c 0.2777,-0.19002 0.4677,-0.57001 0.4677,-0.93548 v -0.10225 c 0,-0.36547 -0.19,-0.65779 -0.3654,-0.83319 l -1.1254,-1.12542 c -0.2778,-0.18998 -0.5701,-0.37997 -0.9355,-0.37997 -0.2777,0 -0.6578,0.10224 -0.8477,0.27764 l -11.8829,9.45668 -11.9707,-9.45668 c -0.19,-0.1754 -0.5554,-0.27764 -0.8477,-0.27764 -0.3654,0 -0.5554,0.18999 -0.8331,0.37997 l -1.2132,1.12542 c -0.19,0.1754 -0.38,0.55546 -0.38,0.93544 0,0.36547 0.19,0.74546 0.4677,0.93548 l 11.4152,8.97431 -11.4152,8.97431 c -0.2777,0.19001 -0.4677,0.57 -0.4677,0.93548 0,0.29232 0.19,0.6577 0.38,0.84768 l 1.1108,1.21317 c 0.1901,0.27773 0.5701,0.37997 0.9355,0.37997 0.2923,0 0.6577,-0.10224 0.8477,-0.27764 l 11.9707,-9.45668 11.8829,9.45668 c 0.1899,0.1754 0.57,0.27764 0.8477,0.27764 0.3654,0 0.7454,-0.10224 0.9355,-0.37997 l 1.1254,-1.21317 c 0.1754,-0.18998 0.3654,-0.55536 0.3654,-0.84768 0,-0.36548 -0.19,-0.74547 -0.4677,-0.93548 l -11.4152,-8.97431"
     id="path968"
     inkscape:connector-curvature="0"
     style="stroke-width:0.93543297" />
  <path
     class="Note"
     d="m 1433.2907,304.67362 11.4152,-8.97431 c 0.2777,-0.19002 0.4677,-0.57001 0.4677,-0.93548 v -0.10225 c 0,-0.36547 -0.19,-0.65779 -0.3654,-0.83319 l -1.1254,-1.12542 c -0.2778,-0.18998 -0.5701,-0.37997 -0.9355,-0.37997 -0.2777,0 -0.6578,0.10224 -0.8477,0.27764 l -11.8829,9.45668 -11.9707,-9.45668 c -0.19,-0.1754 -0.5554,-0.27764 -0.8477,-0.27764 -0.3654,0 -0.5554,0.18999 -0.8331,0.37997 l -1.2132,1.12542 c -0.19,0.1754 -0.38,0.55546 -0.38,0.93544 0,0.36547 0.19,0.74546 0.4677,0.93548 l 11.4152,8.97431 -11.4152,8.97431 c -0.2777,0.19001 -0.4677,0.57 -0.4677,0.93548 0,0.29232 0.19,0.6577 0.38,0.84768 l 1.1108,1.21317 c 0.1901,0.27773 0.5701,0.37997 0.9355,0.37997 0.2923,0 0.6577,-0.10224 0.8477,-0.27764 l 11.9707,-9.45668 11.8829,9.45668 c 0.1899,0.1754 0.57,0.27764 0.8477,0.27764 0.3654,0 0.7454,-0.10224 0.9355,-0.37997 l 1.1254,-1.21317 c 0.1754,-0.18998 0.3654,-0.55536 0.3654,-0.84768 0,-0.36548 -0.19,-0.74547 -0.4677,-0.93548 l -11.4152,-8.97431"
     id="path970"
     inkscape:connector-curvature="0"
     style="stroke-width:0.93543297" />
  <path
     class="Note"
     d="m 1533.3807,304.67362 11.4152,-8.97431 c 0.2777,-0.19002 0.4677,-0.57001 0.4677,-0.93548 v -0.10225 c 0,-0.36547 -0.19,-0.65779 -0.3654,-0.83319 l -1.1254,-1.12542 c -0.2778,-0.18998 -0.5701,-0.37997 -0.9355,-0.37997 -0.2777,0 -0.6578,0.10224 -0.8477,0.27764 l -11.8829,9.45668 -11.9707,-9.45668 c -0.19,-0.1754 -0.5554,-0.27764 -0.8477,-0.27764 -0.3654,0 -0.5554,0.18999 -0.8331,0.37997 l -1.2132,1.12542 c -0.19,0.1754 -0.38,0.55546 -0.38,0.93544 0,0.36547 0.19,0.74546 0.4677,0.93548 l 11.4152,8.97431 -11.4152,8.97431 c -0.2777,0.19001 -0.4677,0.57 -0.4677,0.93548 0,0.29232 0.19,0.6577 0.38,0.84768 l 1.1108,1.21317 c 0.1901,0.27773 0.5701,0.37997 0.9355,0.37997 0.2923,0 0.6577,-0.10224 0.8477,-0.27764 l 11.9707,-9.45668 11.8829,9.45668 c 0.1899,0.1754 0.57,0.27764 0.8477,0.27764 0.3654,0 0.7454,-0.10224 0.9355,-0.37997 l 1.1254,-1.21317 c 0.1754,-0.18998 0.3654,-0.55536 0.3654,-0.84768 0,-0.36548 -0.19,-0.74547 -0.4677,-0.93548 l -11.4152,-8.97431"
     id="path972"
     inkscape:connector-curvature="0"
     style="stroke-width:0.93543297" />
  <path
     class="Note"
     d="m 1595.4307,304.67362 11.4152,-8.97431 c 0.2777,-0.19002 0.4677,-0.57001 0.4677,-0.93548 v -0.10225 c 0,-0.36547 -0.19,-0.65779 -0.3654,-0.83319 l -1.1254,-1.12542 c -0.2778,-0.18998 -0.5701,-0.37997 -0.9355,-0.37997 -0.2777,0 -0.6578,0.10224 -0.8477,0.27764 l -11.8829,9.45668 -11.9707,-9.45668 c -0.19,-0.1754 -0.5554,-0.27764 -0.8477,-0.27764 -0.3654,0 -0.5554,0.18999 -0.8331,0.37997 l -1.2132,1.12542 c -0.19,0.1754 -0.38,0.55546 -0.38,0.93544 0,0.36547 0.19,0.74546 0.4677,0.93548 l 11.4152,8.97431 -11.4152,8.97431 c -0.2777,0.19001 -0.4677,0.57 -0.4677,0.93548 0,0.29232 0.19,0.6577 0.38,0.84768 l 1.1108,1.21317 c 0.1901,0.27773 0.5701,0.37997 0.9355,0.37997 0.2923,0 0.6577,-0.10224 0.8477,-0.27764 l 11.9707,-9.45668 11.8829,9.45668 c 0.1899,0.1754 0.57,0.27764 0.8477,0.27764 0.3654,0 0.7454,-0.10224 0.9355,-0.37997 l 1.1254,-1.21317 c 0.1754,-0.18998 0.3654,-0.55536 0.3654,-0.84768 0,-0.36548 -0.19,-0.74547 -0.4677,-0.93548 l -11.4152,-8.97431"
     id="path974"
     inkscape:connector-curvature="0"
     style="stroke-width:0.93543297" />
  <path
     class="Note"
     d="m 1657.4807,304.67362 11.4152,-8.97431 c 0.2777,-0.19002 0.4677,-0.57001 0.4677,-0.93548 v -0.10225 c 0,-0.36547 -0.19,-0.65779 -0.3654,-0.83319 l -1.1254,-1.12542 c -0.2778,-0.18998 -0.5701,-0.37997 -0.9355,-0.37997 -0.2777,0 -0.6578,0.10224 -0.8477,0.27764 l -11.8829,9.45668 -11.9707,-9.45668 c -0.19,-0.1754 -0.5554,-0.27764 -0.8477,-0.27764 -0.3654,0 -0.5554,0.18999 -0.8331,0.37997 l -1.2132,1.12542 c -0.19,0.1754 -0.38,0.55546 -0.38,0.93544 0,0.36547 0.19,0.74546 0.4677,0.93548 l 11.4152,8.97431 -11.4152,8.97431 c -0.2777,0.19001 -0.4677,0.57 -0.4677,0.93548 0,0.29232 0.19,0.6577 0.38,0.84768 l 1.1108,1.21317 c 0.1901,0.27773 0.5701,0.37997 0.9355,0.37997 0.2923,0 0.6577,-0.10224 0.8477,-0.27764 l 11.9707,-9.45668 11.8829,9.45668 c 0.1899,0.1754 0.57,0.27764 0.8477,0.27764 0.3654,0 0.7454,-0.10224 0.9355,-0.37997 l 1.1254,-1.21317 c 0.1754,-0.18998 0.3654,-0.55536 0.3654,-0.84768 0,-0.36548 -0.19,-0.74547 -0.4677,-0.93548 l -11.4152,-8.97431"
     id="path976"
     inkscape:connector-curvature="0"
     style="stroke-width:0.93543297" />
  <path
     class="Note"
     d="m 1719.5307,304.67362 11.4152,-8.97431 c 0.2777,-0.19002 0.4677,-0.57001 0.4677,-0.93548 v -0.10225 c 0,-0.36547 -0.19,-0.65779 -0.3654,-0.83319 l -1.1254,-1.12542 c -0.2778,-0.18998 -0.5701,-0.37997 -0.9355,-0.37997 -0.2777,0 -0.6578,0.10224 -0.8477,0.27764 l -11.8829,9.45668 -11.9707,-9.45668 c -0.19,-0.1754 -0.5554,-0.27764 -0.8477,-0.27764 -0.3654,0 -0.5554,0.18999 -0.8331,0.37997 l -1.2132,1.12542 c -0.19,0.1754 -0.38,0.55546 -0.38,0.93544 0,0.36547 0.19,0.74546 0.4677,0.93548 l 11.4152,8.97431 -11.4152,8.97431 c -0.2777,0.19001 -0.4677,0.57 -0.4677,0.93548 0,0.29232 0.19,0.6577 0.38,0.84768 l 1.1108,1.21317 c 0.1901,0.27773 0.5701,0.37997 0.9355,0.37997 0.2923,0 0.6577,-0.10224 0.8477,-0.27764 l 11.9707,-9.45668 11.8829,9.45668 c 0.1899,0.1754 0.57,0.27764 0.8477,0.27764 0.3654,0 0.7454,-0.10224 0.9355,-0.37997 l 1.1254,-1.21317 c 0.1754,-0.18998 0.3654,-0.55536 0.3654,-0.84768 0,-0.36548 -0.19,-0.74547 -0.4677,-0.93548 l -11.4152,-8.97431"
     id="path978"
     inkscape:connector-curvature="0"
     style="stroke-width:0.93543297" />
  <path
     class="Note"
     d="m 1781.5807,304.67362 11.4152,-8.97431 c 0.2777,-0.19002 0.4677,-0.57001 0.4677,-0.93548 v -0.10225 c 0,-0.36547 -0.19,-0.65779 -0.3654,-0.83319 l -1.1254,-1.12542 c -0.2778,-0.18998 -0.5701,-0.37997 -0.9355,-0.37997 -0.2777,0 -0.6578,0.10224 -0.8477,0.27764 l -11.8829,9.45668 -11.9707,-9.45668 c -0.19,-0.1754 -0.5554,-0.27764 -0.8477,-0.27764 -0.3654,0 -0.5554,0.18999 -0.8331,0.37997 l -1.2132,1.12542 c -0.19,0.1754 -0.38,0.55546 -0.38,0.93544 0,0.36547 0.19,0.74546 0.4677,0.93548 l 11.4152,8.97431 -11.4152,8.97431 c -0.2777,0.19001 -0.4677,0.57 -0.4677,0.93548 0,0.29232 0.19,0.6577 0.38,0.84768 l 1.1108,1.21317 c 0.1901,0.27773 0.5701,0.37997 0.9355,0.37997 0.2923,0 0.6577,-0.10224 0.8477,-0.27764 l 11.9707,-9.45668 11.8829,9.45668 c 0.1899,0.1754 0.57,0.27764 0.8477,0.27764 0.3654,0 0.7454,-0.10224 0.9355,-0.37997 l 1.1254,-1.21317 c 0.1754,-0.18998 0.3654,-0.55536 0.3654,-0.84768 0,-0.36548 -0.19,-0.74547 -0.4677,-0.93548 l -11.4152,-8.97431"
     id="path980"
     inkscape:connector-curvature="0"
     style="stroke-width:0.93543297" />
  <path
     class="Note"
     d="m 1843.6407,304.67362 11.4152,-8.97431 c 0.2777,-0.19002 0.4677,-0.57001 0.4677,-0.93548 v -0.10225 c 0,-0.36547 -0.19,-0.65779 -0.3654,-0.83319 l -1.1254,-1.12542 c -0.2778,-0.18998 -0.5701,-0.37997 -0.9355,-0.37997 -0.2777,0 -0.6578,0.10224 -0.8477,0.27764 l -11.8829,9.45668 -11.9707,-9.45668 c -0.19,-0.1754 -0.5554,-0.27764 -0.8477,-0.27764 -0.3654,0 -0.5554,0.18999 -0.8331,0.37997 l -1.2132,1.12542 c -0.19,0.1754 -0.38,0.55546 -0.38,0.93544 0,0.36547 0.19,0.74546 0.4677,0.93548 l 11.4152,8.97431 -11.4152,8.97431 c -0.2777,0.19001 -0.4677,0.57 -0.4677,0.93548 0,0.29232 0.19,0.6577 0.38,0.84768 l 1.1108,1.21317 c 0.1901,0.27773 0.5701,0.37997 0.9355,0.37997 0.2923,0 0.6577,-0.10224 0.8477,-0.27764 l 11.9707,-9.45668 11.8829,9.45668 c 0.1899,0.1754 0.57,0.27764 0.8477,0.27764 0.3654,0 0.7454,-0.10224 0.9355,-0.37997 l 1.1254,-1.21317 c 0.1754,-0.18998 0.3654,-0.55536 0.3654,-0.84768 0,-0.36548 -0.19,-0.74547 -0.4677,-0.93548 l -11.4152,-8.97431"
     id="path982"
     inkscape:connector-curvature="0"
     style="stroke-width:0.93543297" />
  <path
     class="Note"
     d="m 1905.6907,304.67362 11.4152,-8.97431 c 0.2777,-0.19002 0.4677,-0.57001 0.4677,-0.93548 v -0.10225 c 0,-0.36547 -0.19,-0.65779 -0.3654,-0.83319 l -1.1254,-1.12542 c -0.2778,-0.18998 -0.5701,-0.37997 -0.9355,-0.37997 -0.2777,0 -0.6578,0.10224 -0.8477,0.27764 l -11.8829,9.45668 -11.9707,-9.45668 c -0.19,-0.1754 -0.5554,-0.27764 -0.8477,-0.27764 -0.3654,0 -0.5554,0.18999 -0.8331,0.37997 l -1.2132,1.12542 c -0.19,0.1754 -0.38,0.55546 -0.38,0.93544 0,0.36547 0.19,0.74546 0.4677,0.93548 l 11.4152,8.97431 -11.4152,8.97431 c -0.2777,0.19001 -0.4677,0.57 -0.4677,0.93548 0,0.29232 0.19,0.6577 0.38,0.84768 l 1.1108,1.21317 c 0.1901,0.27773 0.5701,0.37997 0.9355,0.37997 0.2923,0 0.6577,-0.10224 0.8477,-0.27764 l 11.9707,-9.45668 11.8829,9.45668 c 0.1899,0.1754 0.57,0.27764 0.8477,0.27764 0.3654,0 0.7454,-0.10224 0.9355,-0.37997 l 1.1254,-1.21317 c 0.1754,-0.18998 0.3654,-0.55536 0.3654,-0.84768 0,-0.36548 -0.19,-0.74547 -0.4677,-0.93548 l -11.4152,-8.97431"
     id="path984"
     inkscape:connector-curvature="0"
     style="stroke-width:0.93543297" />
  <path
     class="Note"
     d="m 1967.7407,304.67362 11.4152,-8.97431 c 0.2777,-0.19002 0.4677,-0.57001 0.4677,-0.93548 v -0.10225 c 0,-0.36547 -0.19,-0.65779 -0.3654,-0.83319 l -1.1254,-1.12542 c -0.2778,-0.18998 -0.5701,-0.37997 -0.9355,-0.37997 -0.2777,0 -0.6578,0.10224 -0.8477,0.27764 l -11.8829,9.45668 -11.9707,-9.45668 c -0.19,-0.1754 -0.5554,-0.27764 -0.8477,-0.27764 -0.3654,0 -0.5554,0.18999 -0.8331,0.37997 l -1.2132,1.12542 c -0.19,0.1754 -0.38,0.55546 -0.38,0.93544 0,0.36547 0.19,0.74546 0.4677,0.93548 l 11.4152,8.97431 -11.4152,8.97431 c -0.2777,0.19001 -0.4677,0.57 -0.4677,0.93548 0,0.29232 0.19,0.6577 0.38,0.84768 l 1.1108,1.21317 c 0.1901,0.27773 0.5701,0.37997 0.9355,0.37997 0.2923,0 0.6577,-0.10224 0.8477,-0.27764 l 11.9707,-9.45668 11.8829,9.45668 c 0.1899,0.1754 0.57,0.27764 0.8477,0.27764 0.3654,0 0.7454,-0.10224 0.9355,-0.37997 l 1.1254,-1.21317 c 0.1754,-0.18998 0.3654,-0.55536 0.3654,-0.84768 0,-0.36548 -0.19,-0.74547 -0.4677,-0.93548 l -11.4152,-8.97431"
     id="path986"
     inkscape:connector-curvature="0"
     style="stroke-width:0.93543297" />
  <path
     class="Note"
     d="m 2067.8207,304.67362 11.4152,-8.97431 c 0.2777,-0.19002 0.4677,-0.57001 0.4677,-0.93548 v -0.10225 c 0,-0.36547 -0.19,-0.65779 -0.3654,-0.83319 l -1.1254,-1.12542 c -0.2778,-0.18998 -0.5701,-0.37997 -0.9355,-0.37997 -0.2777,0 -0.6578,0.10224 -0.8477,0.27764 l -11.8829,9.45668 -11.9707,-9.45668 c -0.19,-0.1754 -0.5554,-0.27764 -0.8477,-0.27764 -0.3654,0 -0.5554,0.18999 -0.8331,0.37997 l -1.2132,1.12542 c -0.19,0.1754 -0.38,0.55546 -0.38,0.93544 0,0.36547 0.19,0.74546 0.4677,0.93548 l 11.4152,8.97431 -11.4152,8.97431 c -0.2777,0.19001 -0.4677,0.57 -0.4677,0.93548 0,0.29232 0.19,0.6577 0.38,0.84768 l 1.1108,1.21317 c 0.1901,0.27773 0.5701,0.37997 0.9355,0.37997 0.2923,0 0.6577,-0.10224 0.8477,-0.27764 l 11.9707,-9.45668 11.8829,9.45668 c 0.1899,0.1754 0.57,0.27764 0.8477,0.27764 0.3654,0 0.7454,-0.10224 0.9355,-0.37997 l 1.1254,-1.21317 c 0.1754,-0.18998 0.3654,-0.55536 0.3654,-0.84768 0,-0.36548 -0.19,-0.74547 -0.4677,-0.93548 l -11.4152,-8.97431"
     id="path988"
     inkscape:connector-curvature="0"
     style="stroke-width:0.93543297" />
  <path
     class="Note"
     d="m 2129.5107,304.67362 11.4152,-8.97431 c 0.2777,-0.19002 0.4677,-0.57001 0.4677,-0.93548 v -0.10225 c 0,-0.36547 -0.19,-0.65779 -0.3654,-0.83319 l -1.1254,-1.12542 c -0.2778,-0.18998 -0.5701,-0.37997 -0.9355,-0.37997 -0.2777,0 -0.6578,0.10224 -0.8477,0.27764 l -11.8829,9.45668 -11.9707,-9.45668 c -0.19,-0.1754 -0.5554,-0.27764 -0.8477,-0.27764 -0.3654,0 -0.5554,0.18999 -0.8331,0.37997 l -1.2132,1.12542 c -0.19,0.1754 -0.38,0.55546 -0.38,0.93544 0,0.36547 0.19,0.74546 0.4677,0.93548 l 11.4152,8.97431 -11.4152,8.97431 c -0.2777,0.19001 -0.4677,0.57 -0.4677,0.93548 0,0.29232 0.19,0.6577 0.38,0.84768 l 1.1108,1.21317 c 0.1901,0.27773 0.5701,0.37997 0.9355,0.37997 0.2923,0 0.6577,-0.10224 0.8477,-0.27764 l 11.9707,-9.45668 11.8829,9.45668 c 0.1899,0.1754 0.57,0.27764 0.8477,0.27764 0.3654,0 0.7454,-0.10224 0.9355,-0.37997 l 1.1254,-1.21317 c 0.1754,-0.18998 0.3654,-0.55536 0.3654,-0.84768 0,-0.36548 -0.19,-0.74547 -0.4677,-0.93548 l -11.4152,-8.97431"
     id="path990"
     inkscape:connector-curvature="0"
     style="stroke-width:0.93543297" />
  <path
     class="Note"
     d="m 2191.2007,304.67362 11.4152,-8.97431 c 0.2777,-0.19002 0.4677,-0.57001 0.4677,-0.93548 v -0.10225 c 0,-0.36547 -0.19,-0.65779 -0.3654,-0.83319 l -1.1254,-1.12542 c -0.2778,-0.18998 -0.5701,-0.37997 -0.9355,-0.37997 -0.2777,0 -0.6578,0.10224 -0.8477,0.27764 l -11.8829,9.45668 -11.9707,-9.45668 c -0.19,-0.1754 -0.5554,-0.27764 -0.8477,-0.27764 -0.3654,0 -0.5554,0.18999 -0.8331,0.37997 l -1.2132,1.12542 c -0.19,0.1754 -0.38,0.55546 -0.38,0.93544 0,0.36547 0.19,0.74546 0.4677,0.93548 l 11.4152,8.97431 -11.4152,8.97431 c -0.2777,0.19001 -0.4677,0.57 -0.4677,0.93548 0,0.29232 0.19,0.6577 0.38,0.84768 l 1.1108,1.21317 c 0.1901,0.27773 0.5701,0.37997 0.9355,0.37997 0.2923,0 0.6577,-0.10224 0.8477,-0.27764 l 11.9707,-9.45668 11.8829,9.45668 c 0.1899,0.1754 0.57,0.27764 0.8477,0.27764 0.3654,0 0.7454,-0.10224 0.9355,-0.37997 l 1.1254,-1.21317 c 0.1754,-0.18998 0.3654,-0.55536 0.3654,-0.84768 0,-0.36548 -0.19,-0.74547 -0.4677,-0.93548 l -11.4152,-8.97431"
     id="path992"
     inkscape:connector-curvature="0"
     style="stroke-width:0.93543297" />
  <path
     class="Note"
     d="m 2252.9007,304.67362 11.4152,-8.97431 c 0.2777,-0.19002 0.4677,-0.57001 0.4677,-0.93548 v -0.10225 c 0,-0.36547 -0.19,-0.65779 -0.3654,-0.83319 l -1.1254,-1.12542 c -0.2778,-0.18998 -0.5701,-0.37997 -0.9355,-0.37997 -0.2777,0 -0.6578,0.10224 -0.8477,0.27764 l -11.8829,9.45668 -11.9707,-9.45668 c -0.19,-0.1754 -0.5554,-0.27764 -0.8477,-0.27764 -0.3654,0 -0.5554,0.18999 -0.8331,0.37997 l -1.2132,1.12542 c -0.19,0.1754 -0.38,0.55546 -0.38,0.93544 0,0.36547 0.19,0.74546 0.4677,0.93548 l 11.4152,8.97431 -11.4152,8.97431 c -0.2777,0.19001 -0.4677,0.57 -0.4677,0.93548 0,0.29232 0.19,0.6577 0.38,0.84768 l 1.1108,1.21317 c 0.1901,0.27773 0.5701,0.37997 0.9355,0.37997 0.2923,0 0.6577,-0.10224 0.8477,-0.27764 l 11.9707,-9.45668 11.8829,9.45668 c 0.1899,0.1754 0.57,0.27764 0.8477,0.27764 0.3654,0 0.7454,-0.10224 0.9355,-0.37997 l 1.1254,-1.21317 c 0.1754,-0.18998 0.3654,-0.55536 0.3654,-0.84768 0,-0.36548 -0.19,-0.74547 -0.4677,-0.93548 l -11.4152,-8.97431"
     id="path994"
     inkscape:connector-curvature="0"
     style="stroke-width:0.93543297" />
  <path
     class="Note"
     d="m 2314.5907,304.67362 11.4152,-8.97431 c 0.2777,-0.19002 0.4677,-0.57001 0.4677,-0.93548 v -0.10225 c 0,-0.36547 -0.19,-0.65779 -0.3654,-0.83319 l -1.1254,-1.12542 c -0.2778,-0.18998 -0.5701,-0.37997 -0.9355,-0.37997 -0.2777,0 -0.6578,0.10224 -0.8477,0.27764 l -11.8829,9.45668 -11.9707,-9.45668 c -0.19,-0.1754 -0.5554,-0.27764 -0.8477,-0.27764 -0.3654,0 -0.5554,0.18999 -0.8331,0.37997 l -1.2132,1.12542 c -0.19,0.1754 -0.38,0.55546 -0.38,0.93544 0,0.36547 0.19,0.74546 0.4677,0.93548 l 11.4152,8.97431 -11.4152,8.97431 c -0.2777,0.19001 -0.4677,0.57 -0.4677,0.93548 0,0.29232 0.19,0.6577 0.38,0.84768 l 1.1108,1.21317 c 0.1901,0.27773 0.5701,0.37997 0.9355,0.37997 0.2923,0 0.6577,-0.10224 0.8477,-0.27764 l 11.9707,-9.45668 11.8829,9.45668 c 0.1899,0.1754 0.57,0.27764 0.8477,0.27764 0.3654,0 0.7454,-0.10224 0.9355,-0.37997 l 1.1254,-1.21317 c 0.1754,-0.18998 0.3654,-0.55536 0.3654,-0.84768 0,-0.36548 -0.19,-0.74547 -0.4677,-0.93548 l -11.4152,-8.97431"
     id="path996"
     inkscape:connector-curvature="0"
     style="stroke-width:0.93543297" />
  <path
     class="Note"
     d="m 2376.2807,304.67362 11.4152,-8.97431 c 0.2777,-0.19002 0.4677,-0.57001 0.4677,-0.93548 v -0.10225 c 0,-0.36547 -0.19,-0.65779 -0.3654,-0.83319 l -1.1254,-1.12542 c -0.2778,-0.18998 -0.5701,-0.37997 -0.9355,-0.37997 -0.2777,0 -0.6578,0.10224 -0.8477,0.27764 l -11.8829,9.45668 -11.9707,-9.45668 c -0.19,-0.1754 -0.5554,-0.27764 -0.8477,-0.27764 -0.3654,0 -0.5554,0.18999 -0.8331,0.37997 l -1.2132,1.12542 c -0.19,0.1754 -0.38,0.55546 -0.38,0.93544 0,0.36547 0.19,0.74546 0.4677,0.93548 l 11.4152,8.97431 -11.4152,8.97431 c -0.2777,0.19001 -0.4677,0.57 -0.4677,0.93548 0,0.29232 0.19,0.6577 0.38,0.84768 l 1.1108,1.21317 c 0.1901,0.27773 0.5701,0.37997 0.9355,0.37997 0.2923,0 0.6577,-0.10224 0.8477,-0.27764 l 11.9707,-9.45668 11.8829,9.45668 c 0.1899,0.1754 0.57,0.27764 0.8477,0.27764 0.3654,0 0.7454,-0.10224 0.9355,-0.37997 l 1.1254,-1.21317 c 0.1754,-0.18998 0.3654,-0.55536 0.3654,-0.84768 0,-0.36548 -0.19,-0.74547 -0.4677,-0.93548 l -11.4152,-8.97431"
     id="path998"
     inkscape:connector-curvature="0"
     style="stroke-width:0.93543297" />
  <path
     class="Note"
     d="m 2437.9707,304.67362 11.4152,-8.97431 c 0.2777,-0.19002 0.4677,-0.57001 0.4677,-0.93548 v -0.10225 c 0,-0.36547 -0.19,-0.65779 -0.3654,-0.83319 l -1.1254,-1.12542 c -0.2778,-0.18998 -0.5701,-0.37997 -0.9355,-0.37997 -0.2777,0 -0.6578,0.10224 -0.8477,0.27764 l -11.8829,9.45668 -11.9707,-9.45668 c -0.19,-0.1754 -0.5554,-0.27764 -0.8477,-0.27764 -0.3654,0 -0.5554,0.18999 -0.8331,0.37997 l -1.2132,1.12542 c -0.19,0.1754 -0.38,0.55546 -0.38,0.93544 0,0.36547 0.19,0.74546 0.4677,0.93548 l 11.4152,8.97431 -11.4152,8.97431 c -0.2777,0.19001 -0.4677,0.57 -0.4677,0.93548 0,0.29232 0.19,0.6577 0.38,0.84768 l 1.1108,1.21317 c 0.1901,0.27773 0.5701,0.37997 0.9355,0.37997 0.2923,0 0.6577,-0.10224 0.8477,-0.27764 l 11.9707,-9.45668 11.8829,9.45668 c 0.1899,0.1754 0.57,0.27764 0.8477,0.27764 0.3654,0 0.7454,-0.10224 0.9355,-0.37997 l 1.1254,-1.21317 c 0.1754,-0.18998 0.3654,-0.55536 0.3654,-0.84768 0,-0.36548 -0.19,-0.74547 -0.4677,-0.93548 l -11.4152,-8.97431"
     id="path1000"
     inkscape:connector-curvature="0"
     style="stroke-width:0.93543297" />
  <path
     class="Note"
     d="m 2499.6607,304.67362 11.4152,-8.97431 c 0.2777,-0.19002 0.4677,-0.57001 0.4677,-0.93548 v -0.10225 c 0,-0.36547 -0.19,-0.65779 -0.3654,-0.83319 l -1.1254,-1.12542 c -0.2778,-0.18998 -0.5701,-0.37997 -0.9355,-0.37997 -0.2777,0 -0.6578,0.10224 -0.8477,0.27764 l -11.8829,9.45668 -11.9707,-9.45668 c -0.19,-0.1754 -0.5554,-0.27764 -0.8477,-0.27764 -0.3654,0 -0.5554,0.18999 -0.8331,0.37997 l -1.2132,1.12542 c -0.19,0.1754 -0.38,0.55546 -0.38,0.93544 0,0.36547 0.19,0.74546 0.4677,0.93548 l 11.4152,8.97431 -11.4152,8.97431 c -0.2777,0.19001 -0.4677,0.57 -0.4677,0.93548 0,0.29232 0.19,0.6577 0.38,0.84768 l 1.1108,1.21317 c 0.1901,0.27773 0.5701,0.37997 0.9355,0.37997 0.2923,0 0.6577,-0.10224 0.8477,-0.27764 l 11.9707,-9.45668 11.8829,9.45668 c 0.1899,0.1754 0.57,0.27764 0.8477,0.27764 0.3654,0 0.7454,-0.10224 0.9355,-0.37997 l 1.1254,-1.21317 c 0.1754,-0.18998 0.3654,-0.55536 0.3654,-0.84768 0,-0.36548 -0.19,-0.74547 -0.4677,-0.93548 l -11.4152,-8.97431"
     id="path1002"
     inkscape:connector-curvature="0"
     style="stroke-width:0.93543297" />
  <path
     class="Note"
     d="M 442.98714,86.630455 C 441.30626,83.531786 437.75461,81.851 433.44282,81.851 c -3.17168,0 -6.63577,0.935433 -10.01203,2.718555 -6.16806,3.274035 -9.90979,8.784324 -9.90979,13.563807 0,1.300832 0.27771,2.616288 0.93543,3.829428 1.68086,3.08405 5.23258,4.67718 9.54432,4.67718 3.17177,0 6.63577,-0.83309 10.01213,-2.61631 6.16796,-3.27401 9.90969,-8.798915 9.90969,-13.563777 0,-1.315452 -0.27773,-2.616293 -0.93543,-3.829428"
     id="path1178"
     inkscape:connector-curvature="0"
     style="stroke-width:0.93543297" />
  <path
     class="Note"
     d="M 642.59114,86.630455 C 640.91026,83.531786 637.35861,81.851 633.04682,81.851 c -3.17168,0 -6.63577,0.935433 -10.01203,2.718555 -6.16806,3.274035 -9.90979,8.784324 -9.90979,13.563807 0,1.300832 0.27771,2.616288 0.93543,3.829428 1.68086,3.08405 5.23258,4.67718 9.54432,4.67718 3.17177,0 6.63577,-0.83309 10.01213,-2.61631 6.16796,-3.27401 9.90969,-8.798915 9.90969,-13.563777 0,-1.315452 -0.27773,-2.616293 -0.93543,-3.829428"
     id="path1180"
     inkscape:connector-curvature="0"
     style="stroke-width:0.93543297" />
  <path
     class="Note"
     d="M 709.12514,86.630455 C 707.44426,83.531786 703.89261,81.851 699.58082,81.851 c -3.17168,0 -6.63577,0.935433 -10.01203,2.718555 -6.16806,3.274035 -9.90979,8.784324 -9.90979,13.563807 0,1.300832 0.27771,2.616288 0.93543,3.829428 1.68086,3.08405 5.23258,4.67718 9.54432,4.67718 3.17177,0 6.63577,-0.83309 10.01213,-2.61631 6.16796,-3.27401 9.90969,-8.798915 9.90969,-13.563777 0,-1.315452 -0.27773,-2.616293 -0.93543,-3.829428"
     id="path1182"
     inkscape:connector-curvature="0"
     style="stroke-width:0.93543297" />
  <path
     class="Note"
     d="M 842.19814,4.7794546 C 840.51726,1.680786 836.96561,0 832.65382,0 c -3.17168,0 -6.63577,0.935433 -10.01203,2.7185554 -6.16806,3.2740342 -9.90979,8.7843236 -9.90979,13.5638066 0,1.300832 0.27771,2.616284 0.93543,3.829429 1.68086,3.084048 5.23258,4.677183 9.54432,4.677183 3.17177,0 6.63577,-0.833096 10.01213,-2.616312 6.16796,-3.274016 9.90969,-8.798917 9.90969,-13.5637786 0,-1.3154526 -0.27773,-2.6162938 -0.93543,-3.8294288"
     id="path1184"
     inkscape:connector-curvature="0"
     style="stroke-width:0.93543297" />
  <path
     class="Note"
     d="m 1009.8781,39.858455 c -1.6808,-3.098669 -5.2325,-4.779455 -9.5443,-4.779455 -3.17166,0 -6.63575,0.935433 -10.01201,2.718555 -6.16806,3.274035 -9.90979,8.784324 -9.90979,13.563807 0,1.300832 0.27771,2.616284 0.93543,3.829429 1.68086,3.084048 5.23258,4.677184 9.54432,4.677184 3.17177,0 6.63577,-0.833097 10.01215,-2.616313 6.1679,-3.274016 9.9097,-8.798917 9.9097,-13.563779 0,-1.315452 -0.2778,-2.616293 -0.9355,-3.829428"
     id="path1186"
     inkscape:connector-curvature="0"
     style="stroke-width:0.93543297" />
  <path
     class="Note"
     d="m 1196.0281,39.858455 c -1.6808,-3.098669 -5.2325,-4.779455 -9.5443,-4.779455 -3.1717,0 -6.6358,0.935433 -10.012,2.718555 -6.1681,3.274035 -9.9098,8.784324 -9.9098,13.563807 0,1.300832 0.2777,2.616284 0.9354,3.829429 1.6809,3.084048 5.2326,4.677184 9.5443,4.677184 3.1718,0 6.6358,-0.833097 10.0122,-2.616313 6.1679,-3.274016 9.9097,-8.798917 9.9097,-13.563779 0,-1.315452 -0.2778,-2.616293 -0.9355,-3.829428"
     id="path1188"
     inkscape:connector-curvature="0"
     style="stroke-width:0.93543297" />
  <path
     class="Note"
     d="m 1258.0881,39.858455 c -1.6808,-3.098669 -5.2325,-4.779455 -9.5443,-4.779455 -3.1717,0 -6.6358,0.935433 -10.012,2.718555 -6.1681,3.274035 -9.9098,8.784324 -9.9098,13.563807 0,1.300832 0.2777,2.616284 0.9354,3.829429 1.6809,3.084048 5.2326,4.677184 9.5443,4.677184 3.1718,0 6.6358,-0.833097 10.0122,-2.616313 6.1679,-3.274016 9.9097,-8.798917 9.9097,-13.563779 0,-1.315452 -0.2778,-2.616293 -0.9355,-3.829428"
     id="path1190"
     inkscape:connector-curvature="0"
     style="stroke-width:0.93543297" />
  <path
     class="Note"
     d="m 1382.1881,39.858455 c -1.6808,-3.098669 -5.2325,-4.779455 -9.5443,-4.779455 -3.1717,0 -6.6358,0.935433 -10.012,2.718555 -6.1681,3.274035 -9.9098,8.784324 -9.9098,13.563807 0,1.300832 0.2777,2.616284 0.9354,3.829429 1.6809,3.084048 5.2326,4.677184 9.5443,4.677184 3.1718,0 6.6358,-0.833097 10.0122,-2.616313 6.1679,-3.274016 9.9097,-8.798917 9.9097,-13.563779 0,-1.315452 -0.2778,-2.616293 -0.9355,-3.829428"
     id="path1192"
     inkscape:connector-curvature="0"
     style="stroke-width:0.93543297" />
  <path
     class="Note"
     d="m 1544.3281,39.858455 c -1.6808,-3.098669 -5.2325,-4.779455 -9.5443,-4.779455 -3.1717,0 -6.6358,0.935433 -10.012,2.718555 -6.1681,3.274035 -9.9098,8.784324 -9.9098,13.563807 0,1.300832 0.2777,2.616284 0.9354,3.829429 1.6809,3.084048 5.2326,4.677184 9.5443,4.677184 3.1718,0 6.6358,-0.833097 10.0122,-2.616313 6.1679,-3.274016 9.9097,-8.798917 9.9097,-13.563779 0,-1.315452 -0.2778,-2.616293 -0.9355,-3.829428"
     id="path1194"
     inkscape:connector-curvature="0"
     style="stroke-width:0.93543297" />
  <path
     class="Note"
     d="m 1730.4781,39.858455 c -1.6808,-3.098669 -5.2325,-4.779455 -9.5443,-4.779455 -3.1717,0 -6.6358,0.935433 -10.012,2.718555 -6.1681,3.274035 -9.9098,8.784324 -9.9098,13.563807 0,1.300832 0.2777,2.616284 0.9354,3.829429 1.6809,3.084048 5.2326,4.677184 9.5443,4.677184 3.1718,0 6.6358,-0.833097 10.0122,-2.616313 6.1679,-3.274016 9.9097,-8.798917 9.9097,-13.563779 0,-1.315452 -0.2778,-2.616293 -0.9355,-3.829428"
     id="path1196"
     inkscape:connector-curvature="0"
     style="stroke-width:0.93543297" />
  <path
     class="Note"
     d="m 1792.5281,39.858455 c -1.6808,-3.098669 -5.2325,-4.779455 -9.5443,-4.779455 -3.1717,0 -6.6358,0.935433 -10.012,2.718555 -6.1681,3.274035 -9.9098,8.784324 -9.9098,13.563807 0,1.300832 0.2777,2.616284 0.9354,3.829429 1.6809,3.084048 5.2326,4.677184 9.5443,4.677184 3.1718,0 6.6358,-0.833097 10.0122,-2.616313 6.1679,-3.274016 9.9097,-8.798917 9.9097,-13.563779 0,-1.315452 -0.2778,-2.616293 -0.9355,-3.829428"
     id="path1198"
     inkscape:connector-curvature="0"
     style="stroke-width:0.93543297" />
  <path
     class="Note"
     d="m 1916.6381,121.70945 c -1.6808,-3.09866 -5.2325,-4.77945 -9.5443,-4.77945 -3.1717,0 -6.6358,0.93543 -10.012,2.71856 -6.1681,3.27403 -9.9098,8.78432 -9.9098,13.5638 0,1.30083 0.2777,2.61629 0.9354,3.82943 1.6809,3.08405 5.2326,4.67718 9.5443,4.67718 3.1718,0 6.6358,-0.83309 10.0122,-2.61631 6.1679,-3.27401 9.9097,-8.79891 9.9097,-13.56378 0,-1.31545 -0.2778,-2.61629 -0.9355,-3.82943"
     id="path1200"
     inkscape:connector-curvature="0"
     style="stroke-width:0.93543297" />
  <path
     class="Note"
     d="m 2078.7681,86.586601 c -1.6808,-3.084 -5.2325,-4.76488 -9.5443,-4.76488 -3.1717,0 -6.6358,0.935433 -10.012,2.703963 -6.1681,3.274062 -9.9098,8.798963 -9.9098,13.563825 0,1.315453 0.2777,2.630901 0.9354,3.844051 1.6809,3.09859 5.2326,4.69182 9.5443,4.69182 3.1718,0 6.6358,-0.84778 10.0122,-2.61631 6.1679,-3.28866 9.9097,-8.813557 9.9097,-13.59304 0,-1.300831 -0.2778,-2.616284 -0.9355,-3.829429 m -4.0194,6.358026 c -1.5932,1.59316 -4.7794,3.551727 -8.1412,5.437205 -3.3617,1.870868 -6.738,3.274018 -8.9743,3.741728 -0.4677,0.10232 -0.9354,0.19002 -1.4031,0.19002 -1.5055,0 -2.631,-0.55542 -3.2741,-1.78317 -0.2923,-0.46772 -0.4677,-1.023131 -0.4677,-1.593165 0,-1.02313 0.6431,-2.250886 1.6809,-3.274015 1.5931,-1.59316 4.6771,-3.551727 8.0389,-5.422593 3.3763,-1.870866 6.738,-3.274016 8.9889,-3.741732 0.4677,-0.102309 0.9355,-0.190005 1.4032,-0.190005 1.4908,0 2.7039,0.555413 3.3616,1.768548 0.2778,0.467716 0.3801,1.037751 0.3801,1.593164 0,1.037741 -0.57,2.148568 -1.5932,3.274015"
     id="path1202"
     inkscape:connector-curvature="0"
     style="stroke-width:0.93543297" />
  <path
     class="Note"
     d="m 2448.9181,74.937455 c -1.6808,-3.098669 -5.2325,-4.779455 -9.5443,-4.779455 -3.1717,0 -6.6358,0.935433 -10.012,2.718555 -6.1681,3.274035 -9.9098,8.784324 -9.9098,13.563807 0,1.300832 0.2777,2.616284 0.9354,3.829429 1.6809,3.084048 5.2326,4.677183 9.5443,4.677183 3.1718,0 6.6358,-0.833096 10.0122,-2.616312 6.1679,-3.274016 9.9097,-8.798917 9.9097,-13.563779 0,-1.315452 -0.2778,-2.616293 -0.9355,-3.829428"
     id="path1204"
     inkscape:connector-curvature="0"
     style="stroke-width:0.93543297" />
  <path
     class="Note"
     d="m 2510.6081,63.244455 c -1.6808,-3.098669 -5.2325,-4.779455 -9.5443,-4.779455 -3.1717,0 -6.6358,0.935433 -10.012,2.718555 -6.1681,3.274035 -9.9098,8.784324 -9.9098,13.563807 0,1.300832 0.2777,2.616284 0.9354,3.829429 1.6809,3.084048 5.2326,4.677183 9.5443,4.677183 3.1718,0 6.6358,-0.833096 10.0122,-2.616312 6.1679,-3.274016 9.9097,-8.798917 9.9097,-13.563779 0,-1.315452 -0.2778,-2.616293 -0.9355,-3.829428"
     id="path1206"
     inkscape:connector-curvature="0"
     style="stroke-width:0.93543297" />
  <path
     class="Clef"
     d="m 249.44693,339.5628 h -10.28979 c -0.65773,0 -1.21314,0.56996 -1.21314,1.21307 v 44.72549 c 0,0.64311 0.55541,1.21307 1.21314,1.21307 h 10.28979 c 0.6577,0 1.21316,-0.56996 1.21316,-1.21307 v -44.72549 c 0,-0.64311 -0.55546,-1.21307 -1.21316,-1.21307 m 20.21414,0 h -10.28976 c -0.6578,0 -1.22776,0.56996 -1.22776,1.21307 v 44.72549 c 0,0.64311 0.56996,1.21307 1.22776,1.21307 h 10.28976 c 0.6577,0 1.21307,-0.56996 1.21307,-1.21307 v -44.72549 c 0,-0.64311 -0.55537,-1.21307 -1.21307,-1.21307"
     id="path1300"
     inkscape:connector-curvature="0"
     style="stroke-width:0.93543297" />
  <path
     class="Clef"
     d="m 261.70989,35.649047 c -7.11808,0 -12.81842,4.107206 -12.92067,4.107206 -5.42263,4.019368 -7.5712,8.798869 -8.41894,12.072904 -0.46772,1.68086 -0.64311,3.361712 -0.64311,4.954876 0,2.250886 0.36541,4.297145 1.21314,6.080314 1.12544,2.528597 3.27402,4.297146 6.08032,5.232579 1.12548,0.380019 2.33855,0.570006 3.55172,0.570006 2.06085,0 4.20944,-0.570006 5.99266,-1.593136 2.89395,-1.593155 4.67716,-4.954867 4.67716,-8.608907 0,-3.27402 -1.69547,-6.270324 -4.50177,-8.038882 -1.95861,-1.315424 -3.82947,-1.680898 -5.42261,-1.680898 -1.12542,0 -2.14859,0.175394 -2.99628,0.467716 -0.93544,0.365474 -2.51403,1.300879 -3.27407,1.95861 0.29233,-1.783216 1.40315,-4.487179 2.44088,-5.992664 1.02317,-1.4908 3.08403,-3.361666 4.67716,-4.209449 2.33858,-1.300813 5.33496,-1.870866 8.60898,-1.870866 9.54431,0 14.22148,7.673544 14.22148,23.385872 0,8.711266 -3.27402,17.027827 -6.08031,22.552681 -3.09863,6.168059 -7.20574,12.072979 -10.85982,15.346991 -9.7343,8.88662 -18.89867,13.09607 -18.98636,13.09607 0,0 -1.40316,0.83309 -1.03775,2.23624 0.29232,0.93543 1.12544,1.12542 1.69547,1.12542 0.0877,0 0.36541,-0.0876 0.46772,-0.0876 0.0877,0 10.75752,-4.39943 19.26407,-11.0498 4.7795,-3.44941 9.0766,-7.191142 12.81833,-11.225197 3.36176,-3.639396 6.2704,-7.571208 8.60898,-11.502926 4.10711,-7.015748 6.44569,-14.309225 6.44569,-20.579526 0,-7.761175 -2.04626,-14.221481 -5.89033,-18.796404 -4.39943,-5.247124 -11.03521,-7.95118 -19.73174,-7.95118 m 29.3638,11.868306 c 0,2.630952 2.06086,4.677212 4.50178,4.677212 2.42623,0 4.48717,-2.04626 4.48717,-4.677212 0,-2.616219 -2.06094,-4.764815 -4.48717,-4.764815 -2.44092,0 -4.50178,2.148596 -4.50178,4.764815 m 0,23.108189 c 0,2.616312 2.06086,4.779501 4.50178,4.779501 2.42623,0 4.48717,-2.163189 4.48717,-4.779501 0,-2.616313 -2.06094,-4.764881 -4.48717,-4.764881 -2.44092,0 -4.50178,2.148568 -4.50178,4.764881"
     id="path1308"
     inkscape:connector-curvature="0"
     style="stroke-width:0.93543297" />
  <path
     class="TimeSig"
     d="m 353.84257,346.38847 c -2.33858,1.50549 -4.01946,4.20945 -4.01946,7.20583 0,0.37999 0,0.7454 0.0877,1.12542 0.46772,3.82943 3.56634,6.82573 7.39572,7.29345 h 1.02318 c 4.67717,0 8.4189,-3.74173 8.4189,-8.41887 v -0.55546 c 0,-0.37997 -0.0877,-1.03777 -0.1754,-1.40315 -0.84778,-4.01946 -4.50177,-12.62835 -20.40413,-12.62835 -20.38954,0 -22.72812,16.92551 -22.72812,23.00583 0,11.13748 1.40315,25.08132 24.78897,25.08132 9.26668,0 16.47242,-5.4372 16.8378,-15.44928 0,-0.46772 -0.27773,-0.74542 -0.74545,-0.74542 h -1.21307 c -0.38006,0 -0.74544,0.38002 -0.74544,0.74542 -0.38007,7.77583 -5.90492,12.453 -14.13384,12.453 -8.14116,0 -12.07288,-4.39953 -12.07288,-12.62839 V 353.5943 c 0,-5.23263 2.06085,-11.2252 10.392,-11.2252 4.39953,0 6.35805,1.59314 7.39582,3.18627 0.17539,0.36539 0.17539,0.65771 -0.10234,0.8331"
     id="path1316"
     inkscape:connector-curvature="0"
     style="stroke-width:0.93543297" />
  <path
     class="TimeSig"
     d="m 353.84257,65.758472 c -2.33858,1.505485 -4.01946,4.209448 -4.01946,7.205827 0,0.379992 0,0.7454 0.0877,1.125419 0.46772,3.829429 3.56634,6.825733 7.39572,7.29345 h 1.02318 c 4.67717,0 8.4189,-3.741732 8.4189,-8.418869 v -0.55546 c 0,-0.379973 -0.0877,-1.037769 -0.1754,-1.40315 -0.84778,-4.019462 -4.50177,-12.628345 -20.40413,-12.628345 -20.38954,0 -22.72812,16.925509 -22.72812,23.005824 0,11.13748 1.40315,25.081322 24.78897,25.081322 9.26668,0 16.47242,-5.4372 16.8378,-15.449281 0,-0.467716 -0.27773,-0.745418 -0.74545,-0.745418 h -1.21307 c -0.38006,0 -0.74544,0.380019 -0.74544,0.745418 -0.38007,7.775834 -5.90492,12.453001 -14.13384,12.453001 -8.14116,0 -12.07288,-4.399531 -12.07288,-12.628394 V 72.964299 c 0,-5.232625 2.06085,-11.225196 10.392,-11.225196 4.39953,0 6.35805,1.593136 7.39582,3.186272 0.17539,0.36538 0.17539,0.657703 -0.10234,0.833097"
     id="path1318"
     inkscape:connector-curvature="0"
     style="stroke-width:0.93543297" />
  <path
     class="Beam"
     d="m 546.59,427.09862 69.107,24.29 v 12.394 l -69.107,-24.29 v -12.394"
     id="path1326"
     inkscape:connector-curvature="0"
     style="fill-rule:evenodd" />
  <path
     class="Beam"
     d="m 1104.512,427.04762 64.63,24.356 v 12.495 l -64.63,-24.355 v -12.496"
     id="path1328"
     inkscape:connector-curvature="0"
     style="fill-rule:evenodd" />
  <path
     class="Beam"
     d="m 1638.962,427.04762 64.62,24.356 v 12.495 l -64.62,-24.355 v -12.496"
     id="path1330"
     inkscape:connector-curvature="0"
     style="fill-rule:evenodd" />
  <path
     class="Beam"
     d="m 2172.682,427.04362 64.27,24.361 v 12.505 l -64.27,-24.361 v -12.505"
     id="path1332"
     inkscape:connector-curvature="0"
     style="fill-rule:evenodd" />
  <path
     class="Beam"
     d="m 441.343,234.51662 h 202.176 v 11.693 H 441.343 v -11.693"
     id="path1374"
     inkscape:connector-curvature="0"
     style="fill-rule:evenodd" />
  <path
     class="Beam"
     d="m 707.481,234.51662 h 202.181 v 11.693 H 707.481 v -11.693"
     id="path1376"
     inkscape:connector-curvature="0"
     style="fill-rule:evenodd" />
  <path
     class="Beam"
     d="m 1008.232,234.51662 h 188.73 v 11.693 h -188.73 v -11.693"
     id="path1378"
     inkscape:connector-curvature="0"
     style="fill-rule:evenodd" />
  <path
     class="Beam"
     d="m 1256.442,234.51662 h 188.73 v 11.693 h -188.73 v -11.693"
     id="path1380"
     inkscape:connector-curvature="0"
     style="fill-rule:evenodd" />
  <path
     class="Beam"
     d="m 1542.682,234.51662 h 188.73 v 11.693 h -188.73 v -11.693"
     id="path1382"
     inkscape:connector-curvature="0"
     style="fill-rule:evenodd" />
  <path
     class="Beam"
     d="m 1790.892,234.51662 h 188.72 v 11.693 h -188.72 v -11.693"
     id="path1384"
     inkscape:connector-curvature="0"
     style="fill-rule:evenodd" />
  <path
     class="Beam"
     d="m 2077.132,234.51662 h 187.64 v 11.693 h -187.64 v -11.693"
     id="path1386"
     inkscape:connector-curvature="0"
     style="fill-rule:evenodd" />
  <path
     class="Beam"
     d="m 2323.892,234.51662 h 187.64 v 11.693 h -187.64 v -11.693"
     id="path1388"
     inkscape:connector-curvature="0"
     style="fill-rule:evenodd" />
  <path
     class="Beam"
     d="m 2419.452,146.79362 64.26,-6.091 v 11.746 l -64.26,6.09 v -11.745"
     id="path1434"
     inkscape:connector-curvature="0"
     style="fill-rule:evenodd" />
  <path
     class="Hook"
     d="m 644.22002,21.471631 c -0.0877,-0.277702 -0.93544,-3.551722 -0.93544,-3.741732 -0.0877,-0.38002 -0.65772,-0.657731 -1.12544,-0.657731 -0.65773,0 -1.21314,0.570034 -1.21314,1.213144 v 15.346948 5.802584 c 0,0.467717 0.38002,0.833191 0.74542,1.023177 3.93174,1.213163 12.07291,6.372637 18.15323,16.75005 1.68088,2.894043 4.39952,6.825761 4.39952,14.689292 0,6.738017 -1.03776,13.841415 -2.71864,20.389446 -0.27773,1.037769 -0.55537,1.973202 0.46771,2.338582 1.02318,0.380067 1.40315,-0.36538 1.78322,-1.300813 3.36166,-8.243503 4.20945,-16.852386 4.20945,-22.640378 v -1.783216 c -0.46772,-12.072885 -7.39582,-20.959499 -7.39582,-20.959499 0.27773,0 -8.60888,-11.502926 -11.1375,-15.434644 -3.44941,-5.334915 -5.14488,-10.65519 -5.23257,-11.03521"
     id="path1448"
     inkscape:connector-curvature="0"
     style="stroke-width:0.93543297" />
  <path
     class="Hook"
     d="m 1168.9006,129.66064 c 0,-0.19001 0.8477,-3.37634 0.9354,-3.65404 0.088,-0.38002 1.7832,-5.70029 5.2326,-11.03521 2.5286,-3.93172 11.4152,-15.434644 11.1375,-15.434644 0,0 6.9281,-8.886614 7.3958,-20.959499 v -2.148596 c 0,-5.714934 -0.7454,-13.753765 -4.034,-21.895025 -0.3655,-0.935433 -0.7455,-1.870866 -1.7687,-1.4908 -1.0376,0.36538 -0.7453,1.4908 -0.4677,2.513976 1.6809,6.562624 2.6163,13.286049 2.6163,20.024066 0,7.86353 -2.8063,11.795249 -4.4872,14.689291 -6.1825,10.377411 -14.2214,15.434641 -18.1532,16.750051 -0.4677,0.18999 -0.7454,0.55546 -0.7454,1.02318 v 5.80258 15.34695 c 0,0.64311 0.5554,1.21314 1.2131,1.21314 0.4678,0 1.0378,-0.38002 1.1255,-0.74542"
     id="path1450"
     inkscape:connector-curvature="0"
     style="stroke-width:0.93543297" />
  <path
     class="Hook"
     d="m 1703.3506,129.66064 c 0,-0.19001 0.8477,-3.37634 0.9354,-3.65404 0.088,-0.38002 1.7832,-5.70029 5.2326,-11.03521 2.5286,-3.93172 11.4152,-15.434644 11.1375,-15.434644 0,0 6.9281,-8.886614 7.3958,-20.959499 v -2.148596 c 0,-5.714934 -0.7454,-13.753765 -4.034,-21.895025 -0.3655,-0.935433 -0.7455,-1.870866 -1.7687,-1.4908 -1.0376,0.36538 -0.7453,1.4908 -0.4677,2.513976 1.6809,6.562624 2.6163,13.286049 2.6163,20.024066 0,7.86353 -2.8063,11.795249 -4.4872,14.689291 -6.1825,10.377411 -14.2214,15.434641 -18.1532,16.750051 -0.4677,0.18999 -0.7454,0.55546 -0.7454,1.02318 v 5.80258 15.34695 c 0,0.64311 0.5554,1.21314 1.2131,1.21314 0.4678,0 1.0378,-0.38002 1.1255,-0.74542"
     id="path1452"
     inkscape:connector-curvature="0"
     style="stroke-width:0.93543297" />
  <path
     class="NoteDot"
     d="m 455.608,94.201615 c 0,2.587062 2.09011,4.677165 4.67717,4.677165 2.58706,0 4.67716,-2.090103 4.67716,-4.677165 0,-2.587061 -2.0901,-4.677165 -4.67716,-4.677165 -2.58706,0 -4.67717,2.090104 -4.67717,4.677165"
     id="path1472"
     inkscape:connector-curvature="0"
     style="stroke-width:0.93543297" />
  <path
     class="NoteDot"
     d="m 1022.492,47.429615 c 0,2.587062 2.0901,4.677165 4.6772,4.677165 2.587,0 4.6771,-2.090103 4.6771,-4.677165 0,-2.587061 -2.0901,-4.677165 -4.6771,-4.677165 -2.5871,0 -4.6772,2.090104 -4.6772,4.677165"
     id="path1474"
     inkscape:connector-curvature="0"
     style="stroke-width:0.93543297" />
  <path
     class="NoteDot"
     d="m 1556.942,47.429615 c 0,2.587062 2.0901,4.677165 4.6772,4.677165 2.587,0 4.6771,-2.090103 4.6771,-4.677165 0,-2.587061 -2.0901,-4.677165 -4.6771,-4.677165 -2.5871,0 -4.6772,2.090104 -4.6772,4.677165"
     id="path1476"
     inkscape:connector-curvature="0"
     style="stroke-width:0.93543297" />
  <path
     class="NoteDot"
     d="m 2091.392,94.201615 c 0,2.587062 2.0901,4.677165 4.6772,4.677165 2.587,0 4.6771,-2.090103 4.6771,-4.677165 0,-2.587061 -2.0901,-4.677165 -4.6771,-4.677165 -2.5871,0 -4.6772,2.090104 -4.6772,4.677165"
     id="path1478"
     inkscape:connector-curvature="0"
     style="stroke-width:0.93543297" />
</svg>
