<?xml version="1.0" encoding="UTF-8" standalone="no"?>
<svg
   xmlns:dc="http://purl.org/dc/elements/1.1/"
   xmlns:cc="http://creativecommons.org/ns#"
   xmlns:rdf="http://www.w3.org/1999/02/22-rdf-syntax-ns#"
   xmlns:svg="http://www.w3.org/2000/svg"
   xmlns="http://www.w3.org/2000/svg"
   xmlns:sodipodi="http://sodipodi.sourceforge.net/DTD/sodipodi-0.dtd"
   xmlns:inkscape="http://www.inkscape.org/namespaces/inkscape"
   width="2551.1819"
   height="458.80118"
   viewBox="0 0 2551.182 458.80116"
   version="1.2"
   id="svg392"
   sodipodi:docname="Popsong - Lead-V-1.svg"
   inkscape:version="0.92.3 (2405546, 2018-03-11)">
  <metadata
     id="metadata398">
    <rdf:RDF>
      <cc:Work
         rdf:about="">
        <dc:format>image/svg+xml</dc:format>
        <dc:type
           rdf:resource="http://purl.org/dc/dcmitype/StillImage" />
      </cc:Work>
    </rdf:RDF>
  </metadata>
  <defs
     id="defs396" />
  <sodipodi:namedview
     pagecolor="#ffffff"
     bordercolor="#666666"
     borderopacity="1"
     objecttolerance="10"
     gridtolerance="10"
     guidetolerance="10"
     inkscape:pageopacity="0"
     inkscape:pageshadow="2"
     inkscape:window-width="3840"
     inkscape:window-height="2066"
     id="namedview394"
     showgrid="false"
     inkscape:zoom="0.44281317"
     inkscape:cx="1275.5919"
     inkscape:cy="-1303.5488"
     inkscape:window-x="-11"
     inkscape:window-y="-11"
     inkscape:window-maximized="1"
     inkscape:current-layer="svg392" />
  <title
     id="title2">Popsong - Lead-V</title>
  <desc
     id="desc4">Generated by MuseScore 3.6.2</desc>
  <polyline
     class="StaffLines"
     points="212.598,376.299 2763.78,376.299"
     id="polyline6"
     style="fill:none;stroke:#000000;stroke-width:2.56999993;stroke-linejoin:bevel"
     transform="translate(-212.598,-342.37511)" />
  <polyline
     class="StaffLines"
     points="212.598,399.685 2763.78,399.685"
     id="polyline8"
     style="fill:none;stroke:#000000;stroke-width:2.56999993;stroke-linejoin:bevel"
     transform="translate(-212.598,-342.37511)" />
  <polyline
     class="StaffLines"
     points="212.598,423.071 2763.78,423.071"
     id="polyline10"
     style="fill:none;stroke:#000000;stroke-width:2.56999993;stroke-linejoin:bevel"
     transform="translate(-212.598,-342.37511)" />
  <polyline
     class="StaffLines"
     points="212.598,446.457 2763.78,446.457"
     id="polyline12"
     style="fill:none;stroke:#000000;stroke-width:2.56999993;stroke-linejoin:bevel"
     transform="translate(-212.598,-342.37511)" />
  <polyline
     class="StaffLines"
     points="212.598,469.843 2763.78,469.843"
     id="polyline14"
     style="fill:none;stroke:#000000;stroke-width:2.56999993;stroke-linejoin:bevel"
     transform="translate(-212.598,-342.37511)" />
  <polyline
     class="StaffLines"
     points="212.598,668.622 2763.78,668.622"
     id="polyline16"
     style="fill:none;stroke:#000000;stroke-width:2.56999993;stroke-linejoin:bevel"
     transform="translate(-212.598,-342.37511)" />
  <polyline
     class="StaffLines"
     points="212.598,692.008 2763.78,692.008"
     id="polyline18"
     style="fill:none;stroke:#000000;stroke-width:2.56999993;stroke-linejoin:bevel"
     transform="translate(-212.598,-342.37511)" />
  <polyline
     class="StaffLines"
     points="212.598,715.394 2763.78,715.394"
     id="polyline20"
     style="fill:none;stroke:#000000;stroke-width:2.56999993;stroke-linejoin:bevel"
     transform="translate(-212.598,-342.37511)" />
  <polyline
     class="StaffLines"
     points="212.598,738.78 2763.78,738.78"
     id="polyline22"
     style="fill:none;stroke:#000000;stroke-width:2.56999993;stroke-linejoin:bevel"
     transform="translate(-212.598,-342.37511)" />
  <polyline
     class="StaffLines"
     points="212.598,762.165 2763.78,762.165"
     id="polyline24"
     style="fill:none;stroke:#000000;stroke-width:2.56999993;stroke-linejoin:bevel"
     transform="translate(-212.598,-342.37511)" />
  <path
     class="MeasureNumber"
     d="m 15.719,265.80389 c -0.687,3.156 -1.406,5.078 -2.562,7.312 -1.953,3.641 -4.032,5.281 -6.844,5.281 -1.156,0 -1.906,-0.484 -1.906,-1.203 0,-0.281 0.078,-0.39 0.39,-0.875 0.407,-0.515 0.61,-1 0.61,-1.562 0,-1.313 -1.047,-2.313 -2.407,-2.313 -1.593,0 -2.718,1.188 -2.718,2.953 0,2.719 2.562,4.672 6.125,4.672 3.187,0 6.156,-1.39 8.593,-4.187 3.485,-3.891 5.75,-9.688 5.75,-14.61 0,-6.234 -3,-9.953 -7.953,-9.953 -2.953,0 -5.718,1.328 -7.562,3.594 -1.797,2.203 -2.828,5 -2.828,7.609 0,3.797 2.906,6.672 6.797,6.672 2.64,0 4.671,-1.078 6.515,-3.39 m -2.953,-12.797 c 2.547,0 4.188,2.031 4.188,5.234 0,4.953 -2.719,8.594 -6.391,8.594 -2.531,0 -3.922,-1.719 -3.922,-4.719 0,-2.359 0.563,-4.484 1.641,-6.281 1.203,-1.922 2.64,-2.828 4.484,-2.828"
     id="path26"
     inkscape:connector-curvature="0" />
  <polyline
     class="BarLine"
     points="777.364,375.013 777.364,471.129"
     id="polyline28"
     style="fill:none;stroke:#000000;stroke-width:4.21000004;stroke-linejoin:bevel"
     transform="translate(-212.598,-342.37511)" />
  <polyline
     class="BarLine"
     points="981.827,375.013 981.827,471.129"
     id="polyline30"
     style="fill:none;stroke:#000000;stroke-width:4.21000004;stroke-linejoin:bevel"
     transform="translate(-212.598,-342.37511)" />
  <polyline
     class="BarLine"
     points="1387.07,375.013 1387.07,471.129"
     id="polyline32"
     style="fill:none;stroke:#000000;stroke-width:4.21000004;stroke-linejoin:bevel"
     transform="translate(-212.598,-342.37511)" />
  <polyline
     class="BarLine"
     points="1675.71,375.013 1675.71,471.129"
     id="polyline34"
     style="fill:none;stroke:#000000;stroke-width:4.21000004;stroke-linejoin:bevel"
     transform="translate(-212.598,-342.37511)" />
  <polyline
     class="BarLine"
     points="1964.34,375.013 1964.34,471.129"
     id="polyline36"
     style="fill:none;stroke:#000000;stroke-width:4.21000004;stroke-linejoin:bevel"
     transform="translate(-212.598,-342.37511)" />
  <polyline
     class="BarLine"
     points="2285.41,375.013 2285.41,471.129"
     id="polyline38"
     style="fill:none;stroke:#000000;stroke-width:4.21000004;stroke-linejoin:bevel"
     transform="translate(-212.598,-342.37511)" />
  <polyline
     class="BarLine"
     points="2557.21,375.013 2557.21,471.129"
     id="polyline40"
     style="fill:none;stroke:#000000;stroke-width:4.21000004;stroke-linejoin:bevel"
     transform="translate(-212.598,-342.37511)" />
  <polyline
     class="BarLine"
     points="2761.67,375.013 2761.67,471.129"
     id="polyline42"
     style="fill:none;stroke:#000000;stroke-width:4.21000004;stroke-linejoin:bevel"
     transform="translate(-212.598,-342.37511)" />
  <polyline
     class="BarLine"
     points="723.956,667.336 723.956,763.452"
     id="polyline44"
     style="fill:none;stroke:#000000;stroke-width:4.21000004;stroke-linejoin:bevel"
     transform="translate(-212.598,-342.37511)" />
  <polyline
     class="BarLine"
     points="930.011,667.336 930.011,763.452"
     id="polyline46"
     style="fill:none;stroke:#000000;stroke-width:4.21000004;stroke-linejoin:bevel"
     transform="translate(-212.598,-342.37511)" />
  <polyline
     class="BarLine"
     points="1336.85,667.336 1336.85,763.452"
     id="polyline48"
     style="fill:none;stroke:#000000;stroke-width:4.21000004;stroke-linejoin:bevel"
     transform="translate(-212.598,-342.37511)" />
  <polyline
     class="BarLine"
     points="1627.08,667.336 1627.08,763.452"
     id="polyline50"
     style="fill:none;stroke:#000000;stroke-width:4.21000004;stroke-linejoin:bevel"
     transform="translate(-212.598,-342.37511)" />
  <polyline
     class="BarLine"
     points="1917.3,667.336 1917.3,763.452"
     id="polyline52"
     style="fill:none;stroke:#000000;stroke-width:4.21000004;stroke-linejoin:bevel"
     transform="translate(-212.598,-342.37511)" />
  <polyline
     class="BarLine"
     points="2239.97,667.336 2239.97,763.452"
     id="polyline54"
     style="fill:none;stroke:#000000;stroke-width:4.21000004;stroke-linejoin:bevel"
     transform="translate(-212.598,-342.37511)" />
  <polyline
     class="BarLine"
     points="2545.8,667.336 2545.8,763.452"
     id="polyline56"
     style="fill:none;stroke:#000000;stroke-width:4.21000004;stroke-linejoin:bevel"
     transform="translate(-212.598,-342.37511)" />
  <polyline
     class="BarLine"
     points="2761.67,667.336 2761.67,763.452"
     id="polyline58"
     style="fill:none;stroke:#000000;stroke-width:4.21000004;stroke-linejoin:bevel"
     transform="translate(-212.598,-342.37511)" />
  <polyline
     class="LedgerLine"
     points="614.795,493.228 661.56,493.228"
     id="polyline60"
     style="fill:none;stroke:#000000;stroke-width:3.74000001;stroke-linejoin:bevel"
     transform="translate(-212.598,-342.37511)" />
  <polyline
     class="LedgerLine"
     points="560.818,785.551 607.583,785.551"
     id="polyline62"
     style="fill:none;stroke:#000000;stroke-width:3.74000001;stroke-linejoin:bevel"
     transform="translate(-212.598,-342.37511)" />
  <polyline
     class="LedgerLine"
     points="2620.47,785.551 2667.23,785.551"
     id="polyline64"
     style="fill:none;stroke:#000000;stroke-width:3.74000001;stroke-linejoin:bevel"
     transform="translate(-212.598,-342.37511)" />
  <polyline
     class="Stem"
     points="477.136,466.849 477.136,387.992"
     id="polyline66"
     style="fill:none;stroke:#000000;stroke-width:2.56999993;stroke-linejoin:bevel"
     transform="translate(-212.598,-342.37511)" />
  <polyline
     class="Stem"
     points="546.581,466.849 546.581,387.992"
     id="polyline68"
     style="fill:none;stroke:#000000;stroke-width:2.56999993;stroke-linejoin:bevel"
     transform="translate(-212.598,-342.37511)" />
  <polyline
     class="Stem"
     points="608.685,466.849 608.685,399.685"
     id="polyline70"
     style="fill:none;stroke:#000000;stroke-width:2.56999993;stroke-linejoin:bevel"
     transform="translate(-212.598,-342.37511)" />
  <polyline
     class="Stem"
     points="652.088,490.235 652.088,397.736"
     id="polyline72"
     style="fill:none;stroke:#000000;stroke-width:2.56999993;stroke-linejoin:bevel"
     transform="translate(-212.598,-342.37511)" />
  <polyline
     class="Stem"
     points="695.491,466.849 695.491,395.787"
     id="polyline74"
     style="fill:none;stroke:#000000;stroke-width:2.56999993;stroke-linejoin:bevel"
     transform="translate(-212.598,-342.37511)" />
  <polyline
     class="Stem"
     points="738.894,455.156 738.894,393.839"
     id="polyline76"
     style="fill:none;stroke:#000000;stroke-width:2.56999993;stroke-linejoin:bevel"
     transform="translate(-212.598,-342.37511)" />
  <polyline
     class="Stem"
     points="838.978,466.849 838.978,387.992"
     id="polyline78"
     style="fill:none;stroke:#000000;stroke-width:2.56999993;stroke-linejoin:bevel"
     transform="translate(-212.598,-342.37511)" />
  <polyline
     class="Stem"
     points="886.16,478.542 886.16,399.685"
     id="polyline80"
     style="fill:none;stroke:#000000;stroke-width:2.56999993;stroke-linejoin:bevel"
     transform="translate(-212.598,-342.37511)" />
  <polyline
     class="Stem"
     points="1086.84,443.463 1086.84,367.53"
     id="polyline82"
     style="fill:none;stroke:#000000;stroke-width:2.56999993;stroke-linejoin:bevel"
     transform="translate(-212.598,-342.37511)" />
  <polyline
     class="Stem"
     points="1156.29,443.463 1156.29,367.53"
     id="polyline84"
     style="fill:none;stroke:#000000;stroke-width:2.56999993;stroke-linejoin:bevel"
     transform="translate(-212.598,-342.37511)" />
  <polyline
     class="Stem"
     points="1218.39,443.463 1218.39,370.453"
     id="polyline86"
     style="fill:none;stroke:#000000;stroke-width:2.56999993;stroke-linejoin:bevel"
     transform="translate(-212.598,-342.37511)" />
  <polyline
     class="Stem"
     points="1261.8,478.542 1261.8,372.402"
     id="polyline88"
     style="fill:none;stroke:#000000;stroke-width:2.56999993;stroke-linejoin:bevel"
     transform="translate(-212.598,-342.37511)" />
  <polyline
     class="Stem"
     points="1305.2,443.463 1305.2,374.35"
     id="polyline90"
     style="fill:none;stroke:#000000;stroke-width:2.56999993;stroke-linejoin:bevel"
     transform="translate(-212.598,-342.37511)" />
  <polyline
     class="Stem"
     points="1348.6,455.156 1348.6,376.299"
     id="polyline92"
     style="fill:none;stroke:#000000;stroke-width:2.56999993;stroke-linejoin:bevel"
     transform="translate(-212.598,-342.37511)" />
  <polyline
     class="Stem"
     points="1448.69,478.542 1448.69,399.685"
     id="polyline94"
     style="fill:none;stroke:#000000;stroke-width:2.56999993;stroke-linejoin:bevel"
     transform="translate(-212.598,-342.37511)" />
  <polyline
     class="Stem"
     points="1499.85,466.849 1499.85,387.992"
     id="polyline96"
     style="fill:none;stroke:#000000;stroke-width:2.56999993;stroke-linejoin:bevel"
     transform="translate(-212.598,-342.37511)" />
  <polyline
     class="Stem"
     points="1558.26,414.521 1558.26,487.382"
     id="polyline98"
     style="fill:none;stroke:#000000;stroke-width:2.56999993;stroke-linejoin:bevel"
     transform="translate(-212.598,-342.37511)" />
  <polyline
     class="Stem"
     points="1609.42,426.214 1609.42,504.921"
     id="polyline100"
     style="fill:none;stroke:#000000;stroke-width:2.56999993;stroke-linejoin:bevel"
     transform="translate(-212.598,-342.37511)" />
  <polyline
     class="Stem"
     points="1737.32,431.77 1737.32,358.76"
     id="polyline102"
     style="fill:none;stroke:#000000;stroke-width:2.56999993;stroke-linejoin:bevel"
     transform="translate(-212.598,-342.37511)" />
  <polyline
     class="Stem"
     points="1825.53,402.828 1825.53,469.843"
     id="polyline104"
     style="fill:none;stroke:#000000;stroke-width:2.56999993;stroke-linejoin:bevel"
     transform="translate(-212.598,-342.37511)" />
  <polyline
     class="Stem"
     points="1861.79,414.521 1861.79,481.535"
     id="polyline106"
     style="fill:none;stroke:#000000;stroke-width:2.56999993;stroke-linejoin:bevel"
     transform="translate(-212.598,-342.37511)" />
  <polyline
     class="Stem"
     points="1898.05,426.214 1898.05,493.228"
     id="polyline108"
     style="fill:none;stroke:#000000;stroke-width:2.56999993;stroke-linejoin:bevel"
     transform="translate(-212.598,-342.37511)" />
  <polyline
     class="Stem"
     points="1998.13,391.135 1998.13,469.843"
     id="polyline110"
     style="fill:none;stroke:#000000;stroke-width:2.56999993;stroke-linejoin:bevel"
     transform="translate(-212.598,-342.37511)" />
  <polyline
     class="Stem"
     points="2051.1,414.521 2051.1,487.382"
     id="polyline112"
     style="fill:none;stroke:#000000;stroke-width:2.56999993;stroke-linejoin:bevel"
     transform="translate(-212.598,-342.37511)" />
  <polyline
     class="Stem"
     points="2166.95,443.463 2166.95,367.53"
     id="polyline114"
     style="fill:none;stroke:#000000;stroke-width:2.56999993;stroke-linejoin:bevel"
     transform="translate(-212.598,-342.37511)" />
  <polyline
     class="Stem"
     points="2219.91,443.463 2219.91,367.53"
     id="polyline116"
     style="fill:none;stroke:#000000;stroke-width:2.56999993;stroke-linejoin:bevel"
     transform="translate(-212.598,-342.37511)" />
  <polyline
     class="Stem"
     points="2347.03,455.156 2347.03,376.299"
     id="polyline118"
     style="fill:none;stroke:#000000;stroke-width:2.56999993;stroke-linejoin:bevel"
     transform="translate(-212.598,-342.37511)" />
  <polyline
     class="Stem"
     points="2400.37,478.542 2400.37,399.685"
     id="polyline120"
     style="fill:none;stroke:#000000;stroke-width:2.56999993;stroke-linejoin:bevel"
     transform="translate(-212.598,-342.37511)" />
  <polyline
     class="Stem"
     points="2453.7,443.463 2453.7,367.53"
     id="polyline122"
     style="fill:none;stroke:#000000;stroke-width:2.56999993;stroke-linejoin:bevel"
     transform="translate(-212.598,-342.37511)" />
  <polyline
     class="Stem"
     points="2490.92,379.442 2490.92,458.15"
     id="polyline124"
     style="fill:none;stroke:#000000;stroke-width:2.56999993;stroke-linejoin:bevel"
     transform="translate(-212.598,-342.37511)" />
  <polyline
     class="Stem"
     points="2591,379.442 2591,458.15"
     id="polyline126"
     style="fill:none;stroke:#000000;stroke-width:2.56999993;stroke-linejoin:bevel"
     transform="translate(-212.598,-342.37511)" />
  <polyline
     class="Stem"
     points="2638.19,391.135 2638.19,469.843"
     id="polyline128"
     style="fill:none;stroke:#000000;stroke-width:2.56999993;stroke-linejoin:bevel"
     transform="translate(-212.598,-342.37511)" />
  <polyline
     class="Stem"
     points="422.42,759.172 422.42,680.315"
     id="polyline130"
     style="fill:none;stroke:#000000;stroke-width:2.56999993;stroke-linejoin:bevel"
     transform="translate(-212.598,-342.37511)" />
  <polyline
     class="Stem"
     points="492.32,759.172 492.32,680.315"
     id="polyline132"
     style="fill:none;stroke:#000000;stroke-width:2.56999993;stroke-linejoin:bevel"
     transform="translate(-212.598,-342.37511)" />
  <polyline
     class="Stem"
     points="554.424,759.172 554.424,692.008"
     id="polyline134"
     style="fill:none;stroke:#000000;stroke-width:2.56999993;stroke-linejoin:bevel"
     transform="translate(-212.598,-342.37511)" />
  <polyline
     class="Stem"
     points="598.111,782.558 598.111,690.059"
     id="polyline136"
     style="fill:none;stroke:#000000;stroke-width:2.56999993;stroke-linejoin:bevel"
     transform="translate(-212.598,-342.37511)" />
  <polyline
     class="Stem"
     points="641.799,759.172 641.799,688.11"
     id="polyline138"
     style="fill:none;stroke:#000000;stroke-width:2.56999993;stroke-linejoin:bevel"
     transform="translate(-212.598,-342.37511)" />
  <polyline
     class="Stem"
     points="685.486,747.479 685.486,686.161"
     id="polyline140"
     style="fill:none;stroke:#000000;stroke-width:2.56999993;stroke-linejoin:bevel"
     transform="translate(-212.598,-342.37511)" />
  <polyline
     class="Stem"
     points="785.57,759.172 785.57,680.315"
     id="polyline142"
     style="fill:none;stroke:#000000;stroke-width:2.56999993;stroke-linejoin:bevel"
     transform="translate(-212.598,-342.37511)" />
  <polyline
     class="Stem"
     points="833.194,770.865 833.194,692.008"
     id="polyline144"
     style="fill:none;stroke:#000000;stroke-width:2.56999993;stroke-linejoin:bevel"
     transform="translate(-212.598,-342.37511)" />
  <polyline
     class="Stem"
     points="1035.31,735.786 1035.31,659.852"
     id="polyline146"
     style="fill:none;stroke:#000000;stroke-width:2.56999993;stroke-linejoin:bevel"
     transform="translate(-212.598,-342.37511)" />
  <polyline
     class="Stem"
     points="1105.21,735.786 1105.21,659.852"
     id="polyline148"
     style="fill:none;stroke:#000000;stroke-width:2.56999993;stroke-linejoin:bevel"
     transform="translate(-212.598,-342.37511)" />
  <polyline
     class="Stem"
     points="1167.32,735.786 1167.32,662.776"
     id="polyline150"
     style="fill:none;stroke:#000000;stroke-width:2.56999993;stroke-linejoin:bevel"
     transform="translate(-212.598,-342.37511)" />
  <polyline
     class="Stem"
     points="1211,770.865 1211,664.724"
     id="polyline152"
     style="fill:none;stroke:#000000;stroke-width:2.56999993;stroke-linejoin:bevel"
     transform="translate(-212.598,-342.37511)" />
  <polyline
     class="Stem"
     points="1254.69,735.786 1254.69,666.673"
     id="polyline154"
     style="fill:none;stroke:#000000;stroke-width:2.56999993;stroke-linejoin:bevel"
     transform="translate(-212.598,-342.37511)" />
  <polyline
     class="Stem"
     points="1298.38,747.479 1298.38,668.622"
     id="polyline156"
     style="fill:none;stroke:#000000;stroke-width:2.56999993;stroke-linejoin:bevel"
     transform="translate(-212.598,-342.37511)" />
  <polyline
     class="Stem"
     points="1398.46,770.865 1398.46,692.008"
     id="polyline158"
     style="fill:none;stroke:#000000;stroke-width:2.56999993;stroke-linejoin:bevel"
     transform="translate(-212.598,-342.37511)" />
  <polyline
     class="Stem"
     points="1450.15,759.172 1450.15,680.315"
     id="polyline160"
     style="fill:none;stroke:#000000;stroke-width:2.56999993;stroke-linejoin:bevel"
     transform="translate(-212.598,-342.37511)" />
  <polyline
     class="Stem"
     points="1509.09,706.844 1509.09,779.705"
     id="polyline162"
     style="fill:none;stroke:#000000;stroke-width:2.56999993;stroke-linejoin:bevel"
     transform="translate(-212.598,-342.37511)" />
  <polyline
     class="Stem"
     points="1560.78,718.537 1560.78,797.244"
     id="polyline164"
     style="fill:none;stroke:#000000;stroke-width:2.56999993;stroke-linejoin:bevel"
     transform="translate(-212.598,-342.37511)" />
  <polyline
     class="Stem"
     points="1688.69,724.093 1688.69,651.083"
     id="polyline166"
     style="fill:none;stroke:#000000;stroke-width:2.56999993;stroke-linejoin:bevel"
     transform="translate(-212.598,-342.37511)" />
  <polyline
     class="Stem"
     points="1777.88,695.151 1777.88,762.165"
     id="polyline168"
     style="fill:none;stroke:#000000;stroke-width:2.56999993;stroke-linejoin:bevel"
     transform="translate(-212.598,-342.37511)" />
  <polyline
     class="Stem"
     points="1814.45,706.844 1814.45,773.858"
     id="polyline170"
     style="fill:none;stroke:#000000;stroke-width:2.56999993;stroke-linejoin:bevel"
     transform="translate(-212.598,-342.37511)" />
  <polyline
     class="Stem"
     points="1851.01,718.537 1851.01,785.551"
     id="polyline172"
     style="fill:none;stroke:#000000;stroke-width:2.56999993;stroke-linejoin:bevel"
     transform="translate(-212.598,-342.37511)" />
  <polyline
     class="Stem"
     points="1951.1,683.458 1951.1,762.165"
     id="polyline174"
     style="fill:none;stroke:#000000;stroke-width:2.56999993;stroke-linejoin:bevel"
     transform="translate(-212.598,-342.37511)" />
  <polyline
     class="Stem"
     points="2004.59,706.844 2004.59,779.705"
     id="polyline176"
     style="fill:none;stroke:#000000;stroke-width:2.56999993;stroke-linejoin:bevel"
     transform="translate(-212.598,-342.37511)" />
  <polyline
     class="Stem"
     points="2120.97,735.786 2120.97,659.852"
     id="polyline178"
     style="fill:none;stroke:#000000;stroke-width:2.56999993;stroke-linejoin:bevel"
     transform="translate(-212.598,-342.37511)" />
  <polyline
     class="Stem"
     points="2174.47,735.786 2174.47,659.852"
     id="polyline180"
     style="fill:none;stroke:#000000;stroke-width:2.56999993;stroke-linejoin:bevel"
     transform="translate(-212.598,-342.37511)" />
  <polyline
     class="Stem"
     points="2301.58,747.479 2301.58,668.622"
     id="polyline182"
     style="fill:none;stroke:#000000;stroke-width:2.56999993;stroke-linejoin:bevel"
     transform="translate(-212.598,-342.37511)" />
  <polyline
     class="Stem"
     points="2357.09,770.865 2357.09,692.008"
     id="polyline184"
     style="fill:none;stroke:#000000;stroke-width:2.56999993;stroke-linejoin:bevel"
     transform="translate(-212.598,-342.37511)" />
  <polyline
     class="Stem"
     points="2412.61,759.172 2412.61,680.315"
     id="polyline186"
     style="fill:none;stroke:#000000;stroke-width:2.56999993;stroke-linejoin:bevel"
     transform="translate(-212.598,-342.37511)" />
  <polyline
     class="Stem"
     points="2480.29,770.865 2480.29,692.008"
     id="polyline188"
     style="fill:none;stroke:#000000;stroke-width:2.56999993;stroke-linejoin:bevel"
     transform="translate(-212.598,-342.37511)" />
  <polyline
     class="Stem"
     points="2607.41,770.865 2607.41,692.008"
     id="polyline190"
     style="fill:none;stroke:#000000;stroke-width:2.56999993;stroke-linejoin:bevel"
     transform="translate(-212.598,-342.37511)" />
  <polyline
     class="Stem"
     points="2657.76,782.558 2657.76,703.701"
     id="polyline192"
     style="fill:none;stroke:#000000;stroke-width:2.56999993;stroke-linejoin:bevel"
     transform="translate(-212.598,-342.37511)" />
  <path
     class="Note"
     d="m 264.89614,119.89673 c -1.68088,-3.09867 -5.23253,-4.77946 -9.54432,-4.77946 -3.17168,0 -6.63577,0.93544 -10.01203,2.71856 -6.16806,3.27403 -9.90979,8.78432 -9.90979,13.5638 0,1.30084 0.27771,2.61629 0.93543,3.82943 1.68086,3.08405 5.23258,4.67719 9.54432,4.67719 3.17177,0 6.63577,-0.8331 10.01213,-2.61632 6.16796,-3.27401 9.90969,-8.79891 9.90969,-13.56377 0,-1.31546 -0.27773,-2.6163 -0.93543,-3.82943"
     id="path194"
     inkscape:connector-curvature="0"
     style="stroke-width:0.93543297" />
  <path
     class="Note"
     d="m 334.34114,119.89673 c -1.68088,-3.09867 -5.23253,-4.77946 -9.54432,-4.77946 -3.17168,0 -6.63577,0.93544 -10.01203,2.71856 -6.16806,3.27403 -9.90979,8.78432 -9.90979,13.5638 0,1.30084 0.27771,2.61629 0.93543,3.82943 1.68086,3.08405 5.23258,4.67719 9.54432,4.67719 3.17177,0 6.63577,-0.8331 10.01213,-2.61632 6.16796,-3.27401 9.90969,-8.79891 9.90969,-13.56377 0,-1.31546 -0.27773,-2.6163 -0.93543,-3.82943"
     id="path196"
     inkscape:connector-curvature="0"
     style="stroke-width:0.93543297" />
  <path
     class="Note"
     d="m 396.44514,119.89673 c -1.68088,-3.09867 -5.23253,-4.77946 -9.54432,-4.77946 -3.17168,0 -6.63577,0.93544 -10.01203,2.71856 -6.16806,3.27403 -9.90979,8.78432 -9.90979,13.5638 0,1.30084 0.27771,2.61629 0.93543,3.82943 1.68086,3.08405 5.23258,4.67719 9.54432,4.67719 3.17177,0 6.63577,-0.8331 10.01213,-2.61632 6.16796,-3.27401 9.90969,-8.79891 9.90969,-13.56377 0,-1.31546 -0.27773,-2.6163 -0.93543,-3.82943"
     id="path198"
     inkscape:connector-curvature="0"
     style="stroke-width:0.93543297" />
  <path
     class="Note"
     d="m 439.84814,143.28173 c -1.68088,-3.09867 -5.23253,-4.77946 -9.54432,-4.77946 -3.17168,0 -6.63577,0.93544 -10.01203,2.71856 -6.16806,3.27403 -9.90979,8.78432 -9.90979,13.5638 0,1.30084 0.27771,2.61629 0.93543,3.82943 1.68086,3.08405 5.23258,4.67719 9.54432,4.67719 3.17177,0 6.63577,-0.8331 10.01213,-2.61632 6.16796,-3.27401 9.90969,-8.79891 9.90969,-13.56377 0,-1.31546 -0.27773,-2.6163 -0.93543,-3.82943"
     id="path200"
     inkscape:connector-curvature="0"
     style="stroke-width:0.93543297" />
  <path
     class="Note"
     d="m 483.25114,119.89673 c -1.68088,-3.09867 -5.23253,-4.77946 -9.54432,-4.77946 -3.17168,0 -6.63577,0.93544 -10.01203,2.71856 -6.16806,3.27403 -9.90979,8.78432 -9.90979,13.5638 0,1.30084 0.27771,2.61629 0.93543,3.82943 1.68086,3.08405 5.23258,4.67719 9.54432,4.67719 3.17177,0 6.63577,-0.8331 10.01213,-2.61632 6.16796,-3.27401 9.90969,-8.79891 9.90969,-13.56377 0,-1.31546 -0.27773,-2.6163 -0.93543,-3.82943"
     id="path202"
     inkscape:connector-curvature="0"
     style="stroke-width:0.93543297" />
  <path
     class="Note"
     d="m 526.65414,108.20373 c -1.68088,-3.09867 -5.23253,-4.77946 -9.54432,-4.77946 -3.17168,0 -6.63577,0.93544 -10.01203,2.71856 -6.16806,3.27403 -9.90979,8.78432 -9.90979,13.5638 0,1.30084 0.27771,2.61629 0.93543,3.82943 1.68086,3.08405 5.23258,4.67719 9.54432,4.67719 3.17177,0 6.63577,-0.8331 10.01213,-2.61632 6.16796,-3.27401 9.90969,-8.79891 9.90969,-13.56377 0,-1.31546 -0.27773,-2.6163 -0.93543,-3.82943"
     id="path204"
     inkscape:connector-curvature="0"
     style="stroke-width:0.93543297" />
  <path
     class="Note"
     d="m 626.73814,119.89673 c -1.68088,-3.09867 -5.23253,-4.77946 -9.54432,-4.77946 -3.17168,0 -6.63577,0.93544 -10.01203,2.71856 -6.16806,3.27403 -9.90979,8.78432 -9.90979,13.5638 0,1.30084 0.27771,2.61629 0.93543,3.82943 1.68086,3.08405 5.23258,4.67719 9.54432,4.67719 3.17177,0 6.63577,-0.8331 10.01213,-2.61632 6.16796,-3.27401 9.90969,-8.79891 9.90969,-13.56377 0,-1.31546 -0.27773,-2.6163 -0.93543,-3.82943"
     id="path206"
     inkscape:connector-curvature="0"
     style="stroke-width:0.93543297" />
  <path
     class="Note"
     d="m 673.91914,131.58873 c -1.68088,-3.09867 -5.23253,-4.77946 -9.54432,-4.77946 -3.17168,0 -6.63577,0.93544 -10.01203,2.71856 -6.16806,3.27403 -9.90979,8.78432 -9.90979,13.5638 0,1.30084 0.27771,2.61629 0.93543,3.82943 1.68086,3.08405 5.23258,4.67719 9.54432,4.67719 3.17177,0 6.63577,-0.8331 10.01213,-2.61632 6.16796,-3.27401 9.90969,-8.79891 9.90969,-13.56377 0,-1.31546 -0.27773,-2.6163 -0.93543,-3.82943"
     id="path208"
     inkscape:connector-curvature="0"
     style="stroke-width:0.93543297" />
  <path
     class="Note"
     d="m 874.60814,96.510727 c -1.68088,-3.098668 -5.23253,-4.779454 -9.54432,-4.779454 -3.17168,0 -6.63577,0.935433 -10.01203,2.718555 -6.16806,3.274034 -9.90979,8.784322 -9.90979,13.563802 0,1.30084 0.27771,2.61629 0.93543,3.82943 1.68086,3.08405 5.23258,4.67719 9.54432,4.67719 3.17177,0 6.63577,-0.8331 10.01213,-2.61632 6.16796,-3.27401 9.90969,-8.79891 9.90969,-13.56377 0,-1.315456 -0.27773,-2.616298 -0.93543,-3.829433"
     id="path210"
     inkscape:connector-curvature="0"
     style="stroke-width:0.93543297" />
  <path
     class="Note"
     d="m 944.04814,96.510727 c -1.68088,-3.098668 -5.23253,-4.779454 -9.54432,-4.779454 -3.17168,0 -6.63577,0.935433 -10.01203,2.718555 -6.16806,3.274034 -9.90979,8.784322 -9.90979,13.563802 0,1.30084 0.27771,2.61629 0.93543,3.82943 1.68086,3.08405 5.23258,4.67719 9.54432,4.67719 3.17177,0 6.63577,-0.8331 10.01213,-2.61632 6.16796,-3.27401 9.90969,-8.79891 9.90969,-13.56377 0,-1.315456 -0.27773,-2.616298 -0.93543,-3.829433"
     id="path212"
     inkscape:connector-curvature="0"
     style="stroke-width:0.93543297" />
  <path
     class="Note"
     d="m 1006.1581,96.510727 c -1.6808,-3.098668 -5.2325,-4.779454 -9.54428,-4.779454 -3.17168,0 -6.63577,0.935433 -10.01203,2.718555 -6.16806,3.274034 -9.90979,8.784322 -9.90979,13.563802 0,1.30084 0.27771,2.61629 0.93543,3.82943 1.68086,3.08405 5.23258,4.67719 9.54432,4.67719 3.17177,0 6.63577,-0.8331 10.01213,-2.61632 6.16792,-3.27401 9.90972,-8.79891 9.90972,-13.56377 0,-1.315456 -0.2778,-2.616298 -0.9355,-3.829433"
     id="path214"
     inkscape:connector-curvature="0"
     style="stroke-width:0.93543297" />
  <path
     class="Note"
     d="m 1049.5581,131.58873 c -1.6808,-3.09867 -5.2325,-4.77946 -9.5443,-4.77946 -3.1717,0 -6.6358,0.93544 -10.012,2.71856 -6.1681,3.27403 -9.9098,8.78432 -9.9098,13.5638 0,1.30084 0.2777,2.61629 0.9354,3.82943 1.6809,3.08405 5.2326,4.67719 9.5443,4.67719 3.1718,0 6.6358,-0.8331 10.0122,-2.61632 6.1679,-3.27401 9.9097,-8.79891 9.9097,-13.56377 0,-1.31546 -0.2778,-2.6163 -0.9355,-3.82943"
     id="path216"
     inkscape:connector-curvature="0"
     style="stroke-width:0.93543297" />
  <path
     class="Note"
     d="m 1092.9581,96.510727 c -1.6808,-3.098668 -5.2325,-4.779454 -9.5443,-4.779454 -3.1717,0 -6.6358,0.935433 -10.012,2.718555 -6.1681,3.274034 -9.9098,8.784322 -9.9098,13.563802 0,1.30084 0.2777,2.61629 0.9354,3.82943 1.6809,3.08405 5.2326,4.67719 9.5443,4.67719 3.1718,0 6.6358,-0.8331 10.0122,-2.61632 6.1679,-3.27401 9.9097,-8.79891 9.9097,-13.56377 0,-1.315456 -0.2778,-2.616298 -0.9355,-3.829433"
     id="path218"
     inkscape:connector-curvature="0"
     style="stroke-width:0.93543297" />
  <path
     class="Note"
     d="m 1136.3581,108.20373 c -1.6808,-3.09867 -5.2325,-4.77946 -9.5443,-4.77946 -3.1717,0 -6.6358,0.93544 -10.012,2.71856 -6.1681,3.27403 -9.9098,8.78432 -9.9098,13.5638 0,1.30084 0.2777,2.61629 0.9354,3.82943 1.6809,3.08405 5.2326,4.67719 9.5443,4.67719 3.1718,0 6.6358,-0.8331 10.0122,-2.61632 6.1679,-3.27401 9.9097,-8.79891 9.9097,-13.56377 0,-1.31546 -0.2778,-2.6163 -0.9355,-3.82943"
     id="path220"
     inkscape:connector-curvature="0"
     style="stroke-width:0.93543297" />
  <path
     class="Note"
     d="m 1236.4481,131.58873 c -1.6808,-3.09867 -5.2325,-4.77946 -9.5443,-4.77946 -3.1717,0 -6.6358,0.93544 -10.012,2.71856 -6.1681,3.27403 -9.9098,8.78432 -9.9098,13.5638 0,1.30084 0.2777,2.61629 0.9354,3.82943 1.6809,3.08405 5.2326,4.67719 9.5443,4.67719 3.1718,0 6.6358,-0.8331 10.0122,-2.61632 6.1679,-3.27401 9.9097,-8.79891 9.9097,-13.56377 0,-1.31546 -0.2778,-2.6163 -0.9355,-3.82943"
     id="path222"
     inkscape:connector-curvature="0"
     style="stroke-width:0.93543297" />
  <path
     class="Note"
     d="m 1287.6081,119.89673 c -1.6808,-3.09867 -5.2325,-4.77946 -9.5443,-4.77946 -3.1717,0 -6.6358,0.93544 -10.012,2.71856 -6.1681,3.27403 -9.9098,8.78432 -9.9098,13.5638 0,1.30084 0.2777,2.61629 0.9354,3.82943 1.6809,3.08405 5.2326,4.67719 9.5443,4.67719 3.1718,0 6.6358,-0.8331 10.0122,-2.61632 6.1679,-3.27401 9.9097,-8.79891 9.9097,-13.56377 0,-1.31546 -0.2778,-2.6163 -0.9355,-3.82943"
     id="path224"
     inkscape:connector-curvature="0"
     style="stroke-width:0.93543297" />
  <path
     class="Note"
     d="m 1373.8381,61.431727 c -1.6808,-3.098668 -5.2325,-4.779454 -9.5443,-4.779454 -3.1717,0 -6.6358,0.935433 -10.012,2.718555 -6.1681,3.274034 -9.9098,8.784324 -9.9098,13.563807 0,1.300832 0.2777,2.616284 0.9354,3.829429 1.6809,3.084047 5.2326,4.677183 9.5443,4.677183 3.1718,0 6.6358,-0.833096 10.0122,-2.616312 6.1679,-3.274016 9.9097,-8.798917 9.9097,-13.563779 0,-1.315452 -0.2778,-2.616294 -0.9355,-3.829429"
     id="path226"
     inkscape:connector-curvature="0"
     style="stroke-width:0.93543297" />
  <path
     class="Note"
     d="m 1424.9981,73.124727 c -1.6808,-3.098668 -5.2325,-4.779454 -9.5443,-4.779454 -3.1717,0 -6.6358,0.935433 -10.012,2.718555 -6.1681,3.274034 -9.9098,8.784324 -9.9098,13.563807 0,1.300832 0.2777,2.616284 0.9354,3.829429 1.6809,3.084047 5.2326,4.677183 9.5443,4.677183 3.1718,0 6.6358,-0.833096 10.0122,-2.616312 6.1679,-3.274016 9.9097,-8.798917 9.9097,-13.563779 0,-1.315452 -0.2778,-2.616294 -0.9355,-3.829429"
     id="path228"
     inkscape:connector-curvature="0"
     style="stroke-width:0.93543297" />
  <path
     class="Note"
     d="m 1525.0781,84.773874 c -1.6808,-3.084001 -5.2325,-4.76488 -9.5443,-4.76488 -3.1717,0 -6.6358,0.935433 -10.012,2.703962 -6.1681,3.274063 -9.9098,8.798964 -9.9098,13.563826 0,1.315452 0.2777,2.630905 0.9354,3.844048 1.6809,3.09859 5.2326,4.69182 9.5443,4.69182 3.1718,0 6.6358,-0.84778 10.0122,-2.61631 6.1679,-3.288653 9.9097,-8.813554 9.9097,-13.593037 0,-1.300832 -0.2778,-2.616284 -0.9355,-3.829429 m -4.0194,6.358026 c -1.5932,1.593159 -4.7794,3.551727 -8.1412,5.437204 -3.3617,1.870866 -6.738,3.274016 -8.9743,3.741736 -0.4677,0.10231 -0.9354,0.19001 -1.4031,0.19001 -1.5055,0 -2.631,-0.555412 -3.2741,-1.783168 -0.2923,-0.467717 -0.4677,-1.02313 -0.4677,-1.593164 0,-1.02313 0.6431,-2.250886 1.6809,-3.274016 1.5931,-1.593159 4.6771,-3.551727 8.0389,-5.422593 3.3763,-1.870866 6.738,-3.274015 8.9889,-3.741732 0.4677,-0.102308 0.9355,-0.190005 1.4032,-0.190005 1.4908,0 2.7039,0.555414 3.3616,1.768549 0.2778,0.467716 0.3801,1.03775 0.3801,1.593164 0,1.037741 -0.57,2.148568 -1.5932,3.274015"
     id="path230"
     inkscape:connector-curvature="0"
     style="stroke-width:0.93543297" />
  <path
     class="Note"
     d="m 1641.1081,49.738727 c -1.6808,-3.098668 -5.2325,-4.779454 -9.5443,-4.779454 -3.1717,0 -6.6358,0.935433 -10.012,2.718555 -6.1681,3.274034 -9.9098,8.784324 -9.9098,13.563807 0,1.300832 0.2777,2.616284 0.9354,3.829429 1.6809,3.084047 5.2326,4.677183 9.5443,4.677183 3.1718,0 6.6358,-0.833096 10.0122,-2.616312 6.1679,-3.274016 9.9097,-8.798917 9.9097,-13.563779 0,-1.315452 -0.2778,-2.616294 -0.9355,-3.829429"
     id="path232"
     inkscape:connector-curvature="0"
     style="stroke-width:0.93543297" />
  <path
     class="Note"
     d="m 1677.3681,61.431727 c -1.6808,-3.098668 -5.2325,-4.779454 -9.5443,-4.779454 -3.1717,0 -6.6358,0.935433 -10.012,2.718555 -6.1681,3.274034 -9.9098,8.784324 -9.9098,13.563807 0,1.300832 0.2777,2.616284 0.9354,3.829429 1.6809,3.084047 5.2326,4.677183 9.5443,4.677183 3.1718,0 6.6358,-0.833096 10.0122,-2.616312 6.1679,-3.274016 9.9097,-8.798917 9.9097,-13.563779 0,-1.315452 -0.2778,-2.616294 -0.9355,-3.829429"
     id="path234"
     inkscape:connector-curvature="0"
     style="stroke-width:0.93543297" />
  <path
     class="Note"
     d="m 1713.6281,73.124727 c -1.6808,-3.098668 -5.2325,-4.779454 -9.5443,-4.779454 -3.1717,0 -6.6358,0.935433 -10.012,2.718555 -6.1681,3.274034 -9.9098,8.784324 -9.9098,13.563807 0,1.300832 0.2777,2.616284 0.9354,3.829429 1.6809,3.084047 5.2326,4.677183 9.5443,4.677183 3.1718,0 6.6358,-0.833096 10.0122,-2.616312 6.1679,-3.274016 9.9097,-8.798917 9.9097,-13.563779 0,-1.315452 -0.2778,-2.616294 -0.9355,-3.829429"
     id="path236"
     inkscape:connector-curvature="0"
     style="stroke-width:0.93543297" />
  <path
     class="Note"
     d="m 1813.7181,38.045727 c -1.6808,-3.098668 -5.2325,-4.779454 -9.5443,-4.779454 -3.1717,0 -6.6358,0.935433 -10.012,2.718555 -6.1681,3.274034 -9.9098,8.784324 -9.9098,13.563807 0,1.300832 0.2777,2.616284 0.9354,3.829429 1.6809,3.084047 5.2326,4.677183 9.5443,4.677183 3.1718,0 6.6358,-0.833096 10.0122,-2.616312 6.1679,-3.274016 9.9097,-8.798917 9.9097,-13.563779 0,-1.315452 -0.2778,-2.616294 -0.9355,-3.829429"
     id="path238"
     inkscape:connector-curvature="0"
     style="stroke-width:0.93543297" />
  <path
     class="Note"
     d="m 1866.6781,61.431727 c -1.6808,-3.098668 -5.2325,-4.779454 -9.5443,-4.779454 -3.1717,0 -6.6358,0.935433 -10.012,2.718555 -6.1681,3.274034 -9.9098,8.784324 -9.9098,13.563807 0,1.300832 0.2777,2.616284 0.9354,3.829429 1.6809,3.084047 5.2326,4.677183 9.5443,4.677183 3.1718,0 6.6358,-0.833096 10.0122,-2.616312 6.1679,-3.274016 9.9097,-8.798917 9.9097,-13.563779 0,-1.315452 -0.2778,-2.616294 -0.9355,-3.829429"
     id="path240"
     inkscape:connector-curvature="0"
     style="stroke-width:0.93543297" />
  <path
     class="Note"
     d="m 1954.7081,96.510727 c -1.6808,-3.098668 -5.2325,-4.779454 -9.5443,-4.779454 -3.1717,0 -6.6358,0.935433 -10.012,2.718555 -6.1681,3.274034 -9.9098,8.784322 -9.9098,13.563802 0,1.30084 0.2777,2.61629 0.9354,3.82943 1.6809,3.08405 5.2326,4.67719 9.5443,4.67719 3.1718,0 6.6358,-0.8331 10.0122,-2.61632 6.1679,-3.27401 9.9097,-8.79891 9.9097,-13.56377 0,-1.315456 -0.2778,-2.616298 -0.9355,-3.829433"
     id="path242"
     inkscape:connector-curvature="0"
     style="stroke-width:0.93543297" />
  <path
     class="Note"
     d="m 2007.6681,96.510727 c -1.6808,-3.098668 -5.2325,-4.779454 -9.5443,-4.779454 -3.1717,0 -6.6358,0.935433 -10.012,2.718555 -6.1681,3.274034 -9.9098,8.784322 -9.9098,13.563802 0,1.30084 0.2777,2.61629 0.9354,3.82943 1.6809,3.08405 5.2326,4.67719 9.5443,4.67719 3.1718,0 6.6358,-0.8331 10.0122,-2.61632 6.1679,-3.27401 9.9097,-8.79891 9.9097,-13.56377 0,-1.315456 -0.2778,-2.616298 -0.9355,-3.829433"
     id="path244"
     inkscape:connector-curvature="0"
     style="stroke-width:0.93543297" />
  <path
     class="Note"
     d="m 2134.7881,108.20373 c -1.6808,-3.09867 -5.2325,-4.77946 -9.5443,-4.77946 -3.1717,0 -6.6358,0.93544 -10.012,2.71856 -6.1681,3.27403 -9.9098,8.78432 -9.9098,13.5638 0,1.30084 0.2777,2.61629 0.9354,3.82943 1.6809,3.08405 5.2326,4.67719 9.5443,4.67719 3.1718,0 6.6358,-0.8331 10.0122,-2.61632 6.1679,-3.27401 9.9097,-8.79891 9.9097,-13.56377 0,-1.31546 -0.2778,-2.6163 -0.9355,-3.82943"
     id="path246"
     inkscape:connector-curvature="0"
     style="stroke-width:0.93543297" />
  <path
     class="Note"
     d="m 2188.1281,131.58873 c -1.6808,-3.09867 -5.2325,-4.77946 -9.5443,-4.77946 -3.1717,0 -6.6358,0.93544 -10.012,2.71856 -6.1681,3.27403 -9.9098,8.78432 -9.9098,13.5638 0,1.30084 0.2777,2.61629 0.9354,3.82943 1.6809,3.08405 5.2326,4.67719 9.5443,4.67719 3.1718,0 6.6358,-0.8331 10.0122,-2.61632 6.1679,-3.27401 9.9097,-8.79891 9.9097,-13.56377 0,-1.31546 -0.2778,-2.6163 -0.9355,-3.82943"
     id="path248"
     inkscape:connector-curvature="0"
     style="stroke-width:0.93543297" />
  <path
     class="Note"
     d="m 2241.4681,96.510727 c -1.6808,-3.098668 -5.2325,-4.779454 -9.5443,-4.779454 -3.1717,0 -6.6358,0.935433 -10.012,2.718555 -6.1681,3.274034 -9.9098,8.784322 -9.9098,13.563802 0,1.30084 0.2777,2.61629 0.9354,3.82943 1.6809,3.08405 5.2326,4.67719 9.5443,4.67719 3.1718,0 6.6358,-0.8331 10.0122,-2.61632 6.1679,-3.27401 9.9097,-8.79891 9.9097,-13.56377 0,-1.315456 -0.2778,-2.616298 -0.9355,-3.829433"
     id="path250"
     inkscape:connector-curvature="0"
     style="stroke-width:0.93543297" />
  <path
     class="Note"
     d="m 2306.4981,26.352727 c -1.6808,-3.098668 -5.2325,-4.779454 -9.5443,-4.779454 -3.1717,0 -6.6358,0.935433 -10.012,2.718555 -6.1681,3.274034 -9.9098,8.784324 -9.9098,13.563807 0,1.300832 0.2777,2.616284 0.9354,3.829429 1.6809,3.084047 5.2326,4.677183 9.5443,4.677183 3.1718,0 6.6358,-0.833096 10.0122,-2.616312 6.1679,-3.274016 9.9097,-8.798917 9.9097,-13.563779 0,-1.315452 -0.2778,-2.616294 -0.9355,-3.829429"
     id="path252"
     inkscape:connector-curvature="0"
     style="stroke-width:0.93543297" />
  <path
     class="Note"
     d="m 2406.5881,26.352727 c -1.6808,-3.098668 -5.2325,-4.779454 -9.5443,-4.779454 -3.1717,0 -6.6358,0.935433 -10.012,2.718555 -6.1681,3.274034 -9.9098,8.784324 -9.9098,13.563807 0,1.300832 0.2777,2.616284 0.9354,3.829429 1.6809,3.084047 5.2326,4.677183 9.5443,4.677183 3.1718,0 6.6358,-0.833096 10.0122,-2.616312 6.1679,-3.274016 9.9097,-8.798917 9.9097,-13.563779 0,-1.315452 -0.2778,-2.616294 -0.9355,-3.829429"
     id="path254"
     inkscape:connector-curvature="0"
     style="stroke-width:0.93543297" />
  <path
     class="Note"
     d="m 2453.7681,38.045727 c -1.6808,-3.098668 -5.2325,-4.779454 -9.5443,-4.779454 -3.1717,0 -6.6358,0.935433 -10.012,2.718555 -6.1681,3.274034 -9.9098,8.784324 -9.9098,13.563807 0,1.300832 0.2777,2.616284 0.9354,3.829429 1.6809,3.084047 5.2326,4.677183 9.5443,4.677183 3.1718,0 6.6358,-0.833096 10.0122,-2.616312 6.1679,-3.274016 9.9097,-8.798917 9.9097,-13.563779 0,-1.315452 -0.2778,-2.616294 -0.9355,-3.829429"
     id="path256"
     inkscape:connector-curvature="0"
     style="stroke-width:0.93543297" />
  <path
     class="Note"
     d="m 210.18014,412.21873 c -1.68088,-3.09867 -5.23253,-4.77946 -9.54432,-4.77946 -3.17168,0 -6.63577,0.93544 -10.01203,2.71856 -6.16806,3.27403 -9.90979,8.78432 -9.90979,13.5638 0,1.30084 0.27771,2.61629 0.93543,3.82943 1.68086,3.08405 5.23258,4.67719 9.54432,4.67719 3.17177,0 6.63577,-0.8331 10.01213,-2.61632 6.16796,-3.27401 9.90969,-8.79891 9.90969,-13.56377 0,-1.31546 -0.27773,-2.6163 -0.93543,-3.82943"
     id="path258"
     inkscape:connector-curvature="0"
     style="stroke-width:0.93543297" />
  <path
     class="Note"
     d="m 280.08014,412.21873 c -1.68088,-3.09867 -5.23253,-4.77946 -9.54432,-4.77946 -3.17168,0 -6.63577,0.93544 -10.01203,2.71856 -6.16806,3.27403 -9.90979,8.78432 -9.90979,13.5638 0,1.30084 0.27771,2.61629 0.93543,3.82943 1.68086,3.08405 5.23258,4.67719 9.54432,4.67719 3.17177,0 6.63577,-0.8331 10.01213,-2.61632 6.16796,-3.27401 9.90969,-8.79891 9.90969,-13.56377 0,-1.31546 -0.27773,-2.6163 -0.93543,-3.82943"
     id="path260"
     inkscape:connector-curvature="0"
     style="stroke-width:0.93543297" />
  <path
     class="Note"
     d="m 342.18414,412.21873 c -1.68088,-3.09867 -5.23253,-4.77946 -9.54432,-4.77946 -3.17168,0 -6.63577,0.93544 -10.01203,2.71856 -6.16806,3.27403 -9.90979,8.78432 -9.90979,13.5638 0,1.30084 0.27771,2.61629 0.93543,3.82943 1.68086,3.08405 5.23258,4.67719 9.54432,4.67719 3.17177,0 6.63577,-0.8331 10.01213,-2.61632 6.16796,-3.27401 9.90969,-8.79891 9.90969,-13.56377 0,-1.31546 -0.27773,-2.6163 -0.93543,-3.82943"
     id="path262"
     inkscape:connector-curvature="0"
     style="stroke-width:0.93543297" />
  <path
     class="Note"
     d="m 385.87114,435.60473 c -1.68088,-3.09867 -5.23253,-4.77946 -9.54432,-4.77946 -3.17168,0 -6.63577,0.93544 -10.01203,2.71856 -6.16806,3.27403 -9.90979,8.78432 -9.90979,13.5638 0,1.30084 0.27771,2.61629 0.93543,3.82943 1.68086,3.08405 5.23258,4.67719 9.54432,4.67719 3.17177,0 6.63577,-0.8331 10.01213,-2.61632 6.16796,-3.27401 9.90969,-8.79891 9.90969,-13.56377 0,-1.31546 -0.27773,-2.6163 -0.93543,-3.82943"
     id="path264"
     inkscape:connector-curvature="0"
     style="stroke-width:0.93543297" />
  <path
     class="Note"
     d="m 429.55914,412.21873 c -1.68088,-3.09867 -5.23253,-4.77946 -9.54432,-4.77946 -3.17168,0 -6.63577,0.93544 -10.01203,2.71856 -6.16806,3.27403 -9.90979,8.78432 -9.90979,13.5638 0,1.30084 0.27771,2.61629 0.93543,3.82943 1.68086,3.08405 5.23258,4.67719 9.54432,4.67719 3.17177,0 6.63577,-0.8331 10.01213,-2.61632 6.16796,-3.27401 9.90969,-8.79891 9.90969,-13.56377 0,-1.31546 -0.27773,-2.6163 -0.93543,-3.82943"
     id="path266"
     inkscape:connector-curvature="0"
     style="stroke-width:0.93543297" />
  <path
     class="Note"
     d="m 473.24614,400.52573 c -1.68088,-3.09867 -5.23253,-4.77946 -9.54432,-4.77946 -3.17168,0 -6.63577,0.93544 -10.01203,2.71856 -6.16806,3.27403 -9.90979,8.78432 -9.90979,13.5638 0,1.30084 0.27771,2.61629 0.93543,3.82943 1.68086,3.08405 5.23258,4.67719 9.54432,4.67719 3.17177,0 6.63577,-0.8331 10.01213,-2.61632 6.16796,-3.27401 9.90969,-8.79891 9.90969,-13.56377 0,-1.31546 -0.27773,-2.6163 -0.93543,-3.82943"
     id="path268"
     inkscape:connector-curvature="0"
     style="stroke-width:0.93543297" />
  <path
     class="Note"
     d="m 573.33014,412.21873 c -1.68088,-3.09867 -5.23253,-4.77946 -9.54432,-4.77946 -3.17168,0 -6.63577,0.93544 -10.01203,2.71856 -6.16806,3.27403 -9.90979,8.78432 -9.90979,13.5638 0,1.30084 0.27771,2.61629 0.93543,3.82943 1.68086,3.08405 5.23258,4.67719 9.54432,4.67719 3.17177,0 6.63577,-0.8331 10.01213,-2.61632 6.16796,-3.27401 9.90969,-8.79891 9.90969,-13.56377 0,-1.31546 -0.27773,-2.6163 -0.93543,-3.82943"
     id="path270"
     inkscape:connector-curvature="0"
     style="stroke-width:0.93543297" />
  <path
     class="Note"
     d="m 620.95414,423.91173 c -1.68088,-3.09867 -5.23253,-4.77946 -9.54432,-4.77946 -3.17168,0 -6.63577,0.93544 -10.01203,2.71856 -6.16806,3.27403 -9.90979,8.78432 -9.90979,13.5638 0,1.30084 0.27771,2.61629 0.93543,3.82943 1.68086,3.08405 5.23258,4.67719 9.54432,4.67719 3.17177,0 6.63577,-0.8331 10.01213,-2.61632 6.16796,-3.27401 9.90969,-8.79891 9.90969,-13.56377 0,-1.31546 -0.27773,-2.6163 -0.93543,-3.82943"
     id="path272"
     inkscape:connector-curvature="0"
     style="stroke-width:0.93543297" />
  <path
     class="Note"
     d="m 823.07814,388.83373 c -1.68088,-3.09867 -5.23253,-4.77946 -9.54432,-4.77946 -3.17168,0 -6.63577,0.93544 -10.01203,2.71856 -6.16806,3.27403 -9.90979,8.78432 -9.90979,13.5638 0,1.30084 0.27771,2.61629 0.93543,3.82943 1.68086,3.08405 5.23258,4.67719 9.54432,4.67719 3.17177,0 6.63577,-0.8331 10.01213,-2.61632 6.16796,-3.27401 9.90969,-8.79891 9.90969,-13.56377 0,-1.31546 -0.27773,-2.6163 -0.93543,-3.82943"
     id="path274"
     inkscape:connector-curvature="0"
     style="stroke-width:0.93543297" />
  <path
     class="Note"
     d="m 892.97814,388.83373 c -1.68088,-3.09867 -5.23253,-4.77946 -9.54432,-4.77946 -3.17168,0 -6.63577,0.93544 -10.01203,2.71856 -6.16806,3.27403 -9.90979,8.78432 -9.90979,13.5638 0,1.30084 0.27771,2.61629 0.93543,3.82943 1.68086,3.08405 5.23258,4.67719 9.54432,4.67719 3.17177,0 6.63577,-0.8331 10.01213,-2.61632 6.16796,-3.27401 9.90969,-8.79891 9.90969,-13.56377 0,-1.31546 -0.27773,-2.6163 -0.93543,-3.82943"
     id="path276"
     inkscape:connector-curvature="0"
     style="stroke-width:0.93543297" />
  <path
     class="Note"
     d="m 955.07814,388.83373 c -1.68088,-3.09867 -5.23253,-4.77946 -9.54432,-4.77946 -3.17168,0 -6.63577,0.93544 -10.01203,2.71856 -6.16806,3.27403 -9.90979,8.78432 -9.90979,13.5638 0,1.30084 0.27771,2.61629 0.93543,3.82943 1.68086,3.08405 5.23258,4.67719 9.54432,4.67719 3.17177,0 6.63577,-0.8331 10.01213,-2.61632 6.16796,-3.27401 9.90969,-8.79891 9.90969,-13.56377 0,-1.31546 -0.27773,-2.6163 -0.93543,-3.82943"
     id="path278"
     inkscape:connector-curvature="0"
     style="stroke-width:0.93543297" />
  <path
     class="Note"
     d="m 998.76814,423.91173 c -1.68088,-3.09867 -5.23253,-4.77946 -9.54432,-4.77946 -3.17168,0 -6.63577,0.93544 -10.01203,2.71856 -6.16806,3.27403 -9.90979,8.78432 -9.90979,13.5638 0,1.30084 0.27771,2.61629 0.93543,3.82943 1.68086,3.08405 5.23258,4.67719 9.54432,4.67719 3.17177,0 6.63577,-0.8331 10.01213,-2.61632 6.16796,-3.27401 9.90969,-8.79891 9.90969,-13.56377 0,-1.31546 -0.27773,-2.6163 -0.93543,-3.82943"
     id="path280"
     inkscape:connector-curvature="0"
     style="stroke-width:0.93543297" />
  <path
     class="Note"
     d="m 1042.4481,388.83373 c -1.6808,-3.09867 -5.2325,-4.77946 -9.5443,-4.77946 -3.1717,0 -6.6358,0.93544 -10.012,2.71856 -6.1681,3.27403 -9.9098,8.78432 -9.9098,13.5638 0,1.30084 0.2777,2.61629 0.9354,3.82943 1.6809,3.08405 5.2326,4.67719 9.5443,4.67719 3.1718,0 6.6358,-0.8331 10.0122,-2.61632 6.1679,-3.27401 9.9097,-8.79891 9.9097,-13.56377 0,-1.31546 -0.2778,-2.6163 -0.9355,-3.82943"
     id="path282"
     inkscape:connector-curvature="0"
     style="stroke-width:0.93543297" />
  <path
     class="Note"
     d="m 1086.1381,400.52573 c -1.6808,-3.09867 -5.2325,-4.77946 -9.5443,-4.77946 -3.1717,0 -6.6358,0.93544 -10.012,2.71856 -6.1681,3.27403 -9.9098,8.78432 -9.9098,13.5638 0,1.30084 0.2777,2.61629 0.9354,3.82943 1.6809,3.08405 5.2326,4.67719 9.5443,4.67719 3.1718,0 6.6358,-0.8331 10.0122,-2.61632 6.1679,-3.27401 9.9097,-8.79891 9.9097,-13.56377 0,-1.31546 -0.2778,-2.6163 -0.9355,-3.82943"
     id="path284"
     inkscape:connector-curvature="0"
     style="stroke-width:0.93543297" />
  <path
     class="Note"
     d="m 1186.2281,423.91173 c -1.6808,-3.09867 -5.2325,-4.77946 -9.5443,-4.77946 -3.1717,0 -6.6358,0.93544 -10.012,2.71856 -6.1681,3.27403 -9.9098,8.78432 -9.9098,13.5638 0,1.30084 0.2777,2.61629 0.9354,3.82943 1.6809,3.08405 5.2326,4.67719 9.5443,4.67719 3.1718,0 6.6358,-0.8331 10.0122,-2.61632 6.1679,-3.27401 9.9097,-8.79891 9.9097,-13.56377 0,-1.31546 -0.2778,-2.6163 -0.9355,-3.82943"
     id="path286"
     inkscape:connector-curvature="0"
     style="stroke-width:0.93543297" />
  <path
     class="Note"
     d="m 1237.9181,412.21873 c -1.6808,-3.09867 -5.2325,-4.77946 -9.5443,-4.77946 -3.1717,0 -6.6358,0.93544 -10.012,2.71856 -6.1681,3.27403 -9.9098,8.78432 -9.9098,13.5638 0,1.30084 0.2777,2.61629 0.9354,3.82943 1.6809,3.08405 5.2326,4.67719 9.5443,4.67719 3.1718,0 6.6358,-0.8331 10.0122,-2.61632 6.1679,-3.27401 9.9097,-8.79891 9.9097,-13.56377 0,-1.31546 -0.2778,-2.6163 -0.9355,-3.82943"
     id="path288"
     inkscape:connector-curvature="0"
     style="stroke-width:0.93543297" />
  <path
     class="Note"
     d="m 1324.6781,353.75473 c -1.6808,-3.09867 -5.2325,-4.77946 -9.5443,-4.77946 -3.1717,0 -6.6358,0.93544 -10.012,2.71856 -6.1681,3.27403 -9.9098,8.78432 -9.9098,13.5638 0,1.30084 0.2777,2.61629 0.9354,3.82943 1.6809,3.08405 5.2326,4.67719 9.5443,4.67719 3.1718,0 6.6358,-0.8331 10.0122,-2.61632 6.1679,-3.27401 9.9097,-8.79891 9.9097,-13.56377 0,-1.31546 -0.2778,-2.6163 -0.9355,-3.82943"
     id="path290"
     inkscape:connector-curvature="0"
     style="stroke-width:0.93543297" />
  <path
     class="Note"
     d="m 1376.3681,365.44773 c -1.6808,-3.09867 -5.2325,-4.77946 -9.5443,-4.77946 -3.1717,0 -6.6358,0.93544 -10.012,2.71856 -6.1681,3.27403 -9.9098,8.78432 -9.9098,13.5638 0,1.30084 0.2777,2.61629 0.9354,3.82943 1.6809,3.08405 5.2326,4.67719 9.5443,4.67719 3.1718,0 6.6358,-0.8331 10.0122,-2.61632 6.1679,-3.27401 9.9097,-8.79891 9.9097,-13.56377 0,-1.31546 -0.2778,-2.6163 -0.9355,-3.82943"
     id="path292"
     inkscape:connector-curvature="0"
     style="stroke-width:0.93543297" />
  <path
     class="Note"
     d="m 1476.4481,377.09687 c -1.6808,-3.084 -5.2325,-4.76488 -9.5443,-4.76488 -3.1717,0 -6.6358,0.93544 -10.012,2.70397 -6.1681,3.27406 -9.9098,8.79896 -9.9098,13.56382 0,1.31545 0.2777,2.63091 0.9354,3.84405 1.6809,3.09859 5.2326,4.69182 9.5443,4.69182 3.1718,0 6.6358,-0.84778 10.0122,-2.61631 6.1679,-3.28865 9.9097,-8.81355 9.9097,-13.59304 0,-1.30083 -0.2778,-2.61628 -0.9355,-3.82943 m -4.0194,6.35803 c -1.5932,1.59316 -4.7794,3.55173 -8.1412,5.4372 -3.3617,1.87087 -6.738,3.27402 -8.9743,3.74174 -0.4677,0.10231 -0.9354,0.19001 -1.4031,0.19001 -1.5055,0 -2.631,-0.55541 -3.2741,-1.78317 -0.2923,-0.46771 -0.4677,-1.02313 -0.4677,-1.59316 0,-1.02313 0.6431,-2.25089 1.6809,-3.27402 1.5931,-1.59316 4.6771,-3.55172 8.0389,-5.42259 3.3763,-1.87087 6.738,-3.27402 8.9889,-3.74173 0.4677,-0.10231 0.9355,-0.19001 1.4032,-0.19001 1.4908,0 2.7039,0.55542 3.3616,1.76855 0.2778,0.46772 0.3801,1.03775 0.3801,1.59316 0,1.03775 -0.57,2.14857 -1.5932,3.27402"
     id="path294"
     inkscape:connector-curvature="0"
     style="stroke-width:0.93543297" />
  <path
     class="Note"
     d="m 1593.4581,342.06173 c -1.6808,-3.09867 -5.2325,-4.77946 -9.5443,-4.77946 -3.1717,0 -6.6358,0.93544 -10.012,2.71856 -6.1681,3.27403 -9.9098,8.78432 -9.9098,13.5638 0,1.30084 0.2777,2.61629 0.9354,3.82943 1.6809,3.08405 5.2326,4.67719 9.5443,4.67719 3.1718,0 6.6358,-0.8331 10.0122,-2.61632 6.1679,-3.27401 9.9097,-8.79891 9.9097,-13.56377 0,-1.31546 -0.2778,-2.6163 -0.9355,-3.82943"
     id="path296"
     inkscape:connector-curvature="0"
     style="stroke-width:0.93543297" />
  <path
     class="Note"
     d="m 1630.0281,353.75473 c -1.6808,-3.09867 -5.2325,-4.77946 -9.5443,-4.77946 -3.1717,0 -6.6358,0.93544 -10.012,2.71856 -6.1681,3.27403 -9.9098,8.78432 -9.9098,13.5638 0,1.30084 0.2777,2.61629 0.9354,3.82943 1.6809,3.08405 5.2326,4.67719 9.5443,4.67719 3.1718,0 6.6358,-0.8331 10.0122,-2.61632 6.1679,-3.27401 9.9097,-8.79891 9.9097,-13.56377 0,-1.31546 -0.2778,-2.6163 -0.9355,-3.82943"
     id="path298"
     inkscape:connector-curvature="0"
     style="stroke-width:0.93543297" />
  <path
     class="Note"
     d="m 1666.5981,365.44773 c -1.6808,-3.09867 -5.2325,-4.77946 -9.5443,-4.77946 -3.1717,0 -6.6358,0.93544 -10.012,2.71856 -6.1681,3.27403 -9.9098,8.78432 -9.9098,13.5638 0,1.30084 0.2777,2.61629 0.9354,3.82943 1.6809,3.08405 5.2326,4.67719 9.5443,4.67719 3.1718,0 6.6358,-0.8331 10.0122,-2.61632 6.1679,-3.27401 9.9097,-8.79891 9.9097,-13.56377 0,-1.31546 -0.2778,-2.6163 -0.9355,-3.82943"
     id="path300"
     inkscape:connector-curvature="0"
     style="stroke-width:0.93543297" />
  <path
     class="Note"
     d="m 1766.6781,330.36873 c -1.6808,-3.09867 -5.2325,-4.77946 -9.5443,-4.77946 -3.1717,0 -6.6358,0.93544 -10.012,2.71856 -6.1681,3.27403 -9.9098,8.78432 -9.9098,13.5638 0,1.30084 0.2777,2.61629 0.9354,3.82943 1.6809,3.08405 5.2326,4.67719 9.5443,4.67719 3.1718,0 6.6358,-0.8331 10.0122,-2.61632 6.1679,-3.27401 9.9097,-8.79891 9.9097,-13.56377 0,-1.31546 -0.2778,-2.6163 -0.9355,-3.82943"
     id="path302"
     inkscape:connector-curvature="0"
     style="stroke-width:0.93543297" />
  <path
     class="Note"
     d="m 1820.1681,353.75473 c -1.6808,-3.09867 -5.2325,-4.77946 -9.5443,-4.77946 -3.1717,0 -6.6358,0.93544 -10.012,2.71856 -6.1681,3.27403 -9.9098,8.78432 -9.9098,13.5638 0,1.30084 0.2777,2.61629 0.9354,3.82943 1.6809,3.08405 5.2326,4.67719 9.5443,4.67719 3.1718,0 6.6358,-0.8331 10.0122,-2.61632 6.1679,-3.27401 9.9097,-8.79891 9.9097,-13.56377 0,-1.31546 -0.2778,-2.6163 -0.9355,-3.82943"
     id="path304"
     inkscape:connector-curvature="0"
     style="stroke-width:0.93543297" />
  <path
     class="Note"
     d="m 1908.7381,388.83373 c -1.6808,-3.09867 -5.2325,-4.77946 -9.5443,-4.77946 -3.1717,0 -6.6358,0.93544 -10.012,2.71856 -6.1681,3.27403 -9.9098,8.78432 -9.9098,13.5638 0,1.30084 0.2777,2.61629 0.9354,3.82943 1.6809,3.08405 5.2326,4.67719 9.5443,4.67719 3.1718,0 6.6358,-0.8331 10.0122,-2.61632 6.1679,-3.27401 9.9097,-8.79891 9.9097,-13.56377 0,-1.31546 -0.2778,-2.6163 -0.9355,-3.82943"
     id="path306"
     inkscape:connector-curvature="0"
     style="stroke-width:0.93543297" />
  <path
     class="Note"
     d="m 1962.2281,388.83373 c -1.6808,-3.09867 -5.2325,-4.77946 -9.5443,-4.77946 -3.1717,0 -6.6358,0.93544 -10.012,2.71856 -6.1681,3.27403 -9.9098,8.78432 -9.9098,13.5638 0,1.30084 0.2777,2.61629 0.9354,3.82943 1.6809,3.08405 5.2326,4.67719 9.5443,4.67719 3.1718,0 6.6358,-0.8331 10.0122,-2.61632 6.1679,-3.27401 9.9097,-8.79891 9.9097,-13.56377 0,-1.31546 -0.2778,-2.6163 -0.9355,-3.82943"
     id="path308"
     inkscape:connector-curvature="0"
     style="stroke-width:0.93543297" />
  <path
     class="Note"
     d="m 2089.3481,400.52573 c -1.6808,-3.09867 -5.2325,-4.77946 -9.5443,-4.77946 -3.1717,0 -6.6358,0.93544 -10.012,2.71856 -6.1681,3.27403 -9.9098,8.78432 -9.9098,13.5638 0,1.30084 0.2777,2.61629 0.9354,3.82943 1.6809,3.08405 5.2326,4.67719 9.5443,4.67719 3.1718,0 6.6358,-0.8331 10.0122,-2.61632 6.1679,-3.27401 9.9097,-8.79891 9.9097,-13.56377 0,-1.31546 -0.2778,-2.6163 -0.9355,-3.82943"
     id="path310"
     inkscape:connector-curvature="0"
     style="stroke-width:0.93543297" />
  <path
     class="Note"
     d="m 2144.8581,423.91173 c -1.6808,-3.09867 -5.2325,-4.77946 -9.5443,-4.77946 -3.1717,0 -6.6358,0.93544 -10.012,2.71856 -6.1681,3.27403 -9.9098,8.78432 -9.9098,13.5638 0,1.30084 0.2777,2.61629 0.9354,3.82943 1.6809,3.08405 5.2326,4.67719 9.5443,4.67719 3.1718,0 6.6358,-0.8331 10.0122,-2.61632 6.1679,-3.27401 9.9097,-8.79891 9.9097,-13.56377 0,-1.31546 -0.2778,-2.6163 -0.9355,-3.82943"
     id="path312"
     inkscape:connector-curvature="0"
     style="stroke-width:0.93543297" />
  <path
     class="Note"
     d="m 2200.3681,412.21873 c -1.6808,-3.09867 -5.2325,-4.77946 -9.5443,-4.77946 -3.1717,0 -6.6358,0.93544 -10.012,2.71856 -6.1681,3.27403 -9.9098,8.78432 -9.9098,13.5638 0,1.30084 0.2777,2.61629 0.9354,3.82943 1.6809,3.08405 5.2326,4.67719 9.5443,4.67719 3.1718,0 6.6358,-0.8331 10.0122,-2.61632 6.1679,-3.27401 9.9097,-8.79891 9.9097,-13.56377 0,-1.31546 -0.2778,-2.6163 -0.9355,-3.82943"
     id="path314"
     inkscape:connector-curvature="0"
     style="stroke-width:0.93543297" />
  <path
     class="Note"
     d="m 2268.0581,423.91173 c -1.6808,-3.09867 -5.2325,-4.77946 -9.5443,-4.77946 -3.1717,0 -6.6358,0.93544 -10.012,2.71856 -6.1681,3.27403 -9.9098,8.78432 -9.9098,13.5638 0,1.30084 0.2777,2.61629 0.9354,3.82943 1.6809,3.08405 5.2326,4.67719 9.5443,4.67719 3.1718,0 6.6358,-0.8331 10.0122,-2.61632 6.1679,-3.27401 9.9097,-8.79891 9.9097,-13.56377 0,-1.31546 -0.2778,-2.6163 -0.9355,-3.82943"
     id="path316"
     inkscape:connector-curvature="0"
     style="stroke-width:0.93543297" />
  <path
     class="Note"
     d="m 2395.1681,423.91173 c -1.6808,-3.09867 -5.2325,-4.77946 -9.5443,-4.77946 -3.1717,0 -6.6358,0.93544 -10.012,2.71856 -6.1681,3.27403 -9.9098,8.78432 -9.9098,13.5638 0,1.30084 0.2777,2.61629 0.9354,3.82943 1.6809,3.08405 5.2326,4.67719 9.5443,4.67719 3.1718,0 6.6358,-0.8331 10.0122,-2.61632 6.1679,-3.27401 9.9097,-8.79891 9.9097,-13.56377 0,-1.31546 -0.2778,-2.6163 -0.9355,-3.82943"
     id="path318"
     inkscape:connector-curvature="0"
     style="stroke-width:0.93543297" />
  <path
     class="Note"
     d="m 2445.5281,435.60473 c -1.6808,-3.09867 -5.2325,-4.77946 -9.5443,-4.77946 -3.1717,0 -6.6358,0.93544 -10.012,2.71856 -6.1681,3.27403 -9.9098,8.78432 -9.9098,13.5638 0,1.30084 0.2777,2.61629 0.9354,3.82943 1.6809,3.08405 5.2326,4.67719 9.5443,4.67719 3.1718,0 6.6358,-0.8331 10.0122,-2.61632 6.1679,-3.27401 9.9097,-8.79891 9.9097,-13.56377 0,-1.31546 -0.2778,-2.6163 -0.9355,-3.82943"
     id="path320"
     inkscape:connector-curvature="0"
     style="stroke-width:0.93543297" />
  <path
     class="Clef"
     d="m 77.977474,98.542366 c -1.154699,-5.071843 -3.624803,-8.652774 -4.355657,-9.617392 -2.981693,-4.00487 -6.738018,-6.66496 -11.12286,-7.936588 -2.908635,-0.818504 -5.714934,-0.935433 -7.980366,-0.760039 -0.979305,-5.627191 -1.914738,-11.12286 -2.76252,-16.223963 5.101103,-5.773306 8.492047,-11.195917 10.625957,-15.215379 3.24483,-6.153372 4.311785,-10.435878 4.37025,-10.625958 1.607728,-4.881744 1.943923,-12.087478 0.906154,-19.761022 C 66.722999,11.342499 64.764482,5.0578862 62.557422,2.017729 61.607396,0.68754325 60.613499,0 59.648787,0 58.508774,0 56.155599,1.1552598 53.451543,3.7566989 51.30304,5.8024909 48.248197,9.4422607 45.85115,15.069545 c -2.806299,6.606496 -3.010878,15.478516 -2.674684,21.763504 0.350788,6.811074 1.388463,12.131349 1.40315,12.175221 0.01459,0.08765 0.263043,1.4908 0.672295,3.887847 -0.204579,0.219265 -0.438437,0.423938 -0.672295,0.657796 -0.964712,0.935433 -2.075539,1.987796 -3.376352,3.288609 -0.803911,0.803911 -1.695473,1.6516 -2.630906,2.557848 C 30.679643,67.015356 18.709,78.547467 18.709,96.466874 c 0,4.399466 0.847736,8.535836 2.513976,12.292176 1.476235,3.36172 3.624803,6.43111 6.372637,9.12047 7.235013,7.07422 17.14471,10.0705 23.736613,9.92439 2.762427,-0.0731 5.232625,-0.29233 7.468871,-0.71617 1.710065,8.98886 2.77702,15.56617 2.806299,20.56484 0.04387,6.095 -1.505486,9.82205 -5.144881,12.40917 -2.280118,1.62232 -4.911024,2.51398 -7.805066,2.6455 -2.426233,0.11693 -4.54555,-0.3216 -5.875642,-0.70157 h -0.01459 c 0,0 -0.263137,-0.0877 -0.27773,-0.26314 -0.01459,-0.17539 0.321509,-0.21917 0.321509,-0.21917 h 0.02928 c 1.797808,-0.40925 5.130288,-1.56395 7.337255,-4.64798 1.68088,-2.36777 2.499384,-6.69415 0.774726,-10.37741 -1.037769,-2.23634 -3.376352,-4.99877 -8.638163,-5.42262 -2.338582,-0.18998 -4.457899,0.29233 -6.328765,1.41775 -1.695472,1.00849 -3.098622,2.54325 -4.077927,4.41412 -2.29471,4.39943 -1.870866,9.76358 1.052362,13.3591 2.77702,3.39095 7.088805,5.55414 12.175222,6.09491 0.803911,0.0877 1.593136,0.11693 2.382455,0.11693 4.150983,0 8.258096,-1.12542 11.605168,-3.18627 3.420224,-2.41164 5.408019,-6.13878 6.036537,-11.40059 0.526181,-4.34097 0.160707,-9.88051 -1.140106,-17.43703 -0.336195,-1.95861 -0.847689,-4.7941 -1.461614,-8.30197 5.37874,-1.79781 9.26668,-5.14488 12.789146,-10.62596 3.084029,-5.36415 3.960998,-11.07906 2.630906,-16.983984 M 45.968079,123.06828 c -4.340971,-1.14011 -8.491954,-3.47869 -11.999828,-6.7673 -1.227756,-1.14001 -2.981693,-3.1717 -4.355563,-6.3434 -1.271628,-2.96708 -1.900145,-6.18263 -1.841681,-9.52973 0.05846,-4.39946 1.286221,-8.915843 3.624803,-13.388429 2.733242,-5.217938 7.001155,-10.392005 12.672217,-15.376179 1.359278,-1.198477 2.645498,-2.397048 3.844069,-3.595524 0.716167,3.990183 1.490799,8.375025 2.309303,12.935261 -3.595524,1.183884 -8.03883,4.136391 -10.947466,9.427387 -3.317887,6.138826 -3.186365,11.312944 -2.499383,14.572344 0.876968,4.1656 3.24483,7.68809 6.474973,9.64667 0.876969,0.52618 4.73563,2.51398 6.460288,1.9732 0.350787,-0.10233 0.599332,-0.3216 0.730854,-0.62851 0.482309,-1.09624 -0.48231,-1.69548 -1.929331,-2.58708 -0.570053,-0.35079 -1.19857,-0.74542 -1.870866,-1.24237 -3.113214,-2.32397 -4.472586,-6.48957 -3.464002,-10.59671 0.540774,-2.236272 1.739251,-4.267911 3.464002,-5.861075 1.549264,-1.446993 3.464002,-2.47017 5.685655,-3.069408 1.914738,10.523643 3.844069,20.959593 5.37874,28.779253 0.116929,0.64311 0.248451,1.27153 0.36538,1.90005 -4.092519,0.87697 -8.155759,0.78932 -12.102164,-0.24845 M 56.564851,92.008909 c 9.675838,-0.438437 13.666021,6.518846 14.499211,11.035231 0.438438,2.38243 0.438438,6.53342 -1.008583,10.47982 -1.096141,2.96701 -3.390945,6.78189 -8.199632,8.71122 -0.05846,-0.39466 -0.131522,-0.80391 -0.204579,-1.19857 -1.447021,-8.21427 -3.259423,-18.50403 -5.086417,-29.027701 m -6.85504,-66.371871 c 1.666287,-5.364147 4.224135,-8.404304 6.095001,-10.026626 1.637007,-1.417835 3.171679,-2.090131 4.034054,-2.090131 0.131522,0 0.248451,0.02919 0.336102,0.05846 0.438531,0.131522 0.935433,0.657703 1.373964,1.476207 2.163188,4.00487 1.461614,10.289763 0.204579,14.440747 C 60.233432,34.552927 57.500284,39.800051 49.271373,48.789001 49.110572,47.751231 48.964458,46.77202 48.81825,45.85118 47.648958,38.104579 47.955874,31.293504 49.709811,25.637034"
     id="path322"
     inkscape:connector-curvature="0"
     style="stroke-width:0.93543297" />
  <path
     class="Clef"
     d="m 77.977474,390.86537 c -1.154699,-5.07185 -3.624803,-8.65278 -4.355657,-9.6174 -2.981693,-4.00487 -6.738018,-6.66496 -11.12286,-7.93658 -2.908635,-0.81851 -5.714934,-0.93544 -7.980366,-0.76004 -0.979305,-5.62719 -1.914738,-11.12286 -2.76252,-16.22397 5.101103,-5.7733 8.492047,-11.19591 10.625957,-15.21538 3.24483,-6.15337 4.311785,-10.43587 4.37025,-10.62595 1.607728,-4.88175 1.943923,-12.08748 0.906154,-19.76102 -0.935433,-7.05953 -2.89395,-13.34414 -5.10101,-16.3843 -0.950026,-1.33019 -1.943923,-2.01773 -2.908635,-2.01773 -1.140013,0 -3.493188,1.15526 -6.197244,3.7567 -2.148503,2.04579 -5.203346,5.68556 -7.600393,11.31285 -2.806299,6.60649 -3.010878,15.47851 -2.674684,21.7635 0.350788,6.81107 1.388463,12.13135 1.40315,12.17522 0.01459,0.0876 0.263043,1.4908 0.672295,3.88785 -0.204579,0.21926 -0.438437,0.42394 -0.672295,0.65779 -0.964712,0.93544 -2.075539,1.9878 -3.376352,3.28861 -0.803911,0.80391 -1.695473,1.6516 -2.630906,2.55785 -7.892715,7.61499 -19.863358,19.1471 -19.863358,37.0665 0,4.39947 0.847736,8.53584 2.513976,12.29218 1.476235,3.36172 3.624803,6.43111 6.372637,9.12047 7.235013,7.07422 17.14471,10.0705 23.736613,9.92439 2.762427,-0.0731 5.232625,-0.29233 7.468871,-0.71617 1.710065,8.98886 2.77702,15.56617 2.806299,20.56484 0.04387,6.095 -1.505486,9.82205 -5.144881,12.40917 -2.280118,1.62232 -4.911024,2.51398 -7.805066,2.6455 -2.426233,0.11693 -4.54555,-0.3216 -5.875642,-0.70157 h -0.01459 c 0,0 -0.263137,-0.0878 -0.27773,-0.26314 -0.01459,-0.17539 0.321509,-0.21917 0.321509,-0.21917 h 0.02928 c 1.797808,-0.40925 5.130288,-1.56395 7.337255,-4.64798 1.68088,-2.36777 2.499384,-6.69415 0.774726,-10.37741 -1.037769,-2.23634 -3.376352,-4.99877 -8.638163,-5.42262 -2.338582,-0.18998 -4.457899,0.29233 -6.328765,1.41775 -1.695472,1.00849 -3.098622,2.54325 -4.077927,4.41412 -2.29471,4.39943 -1.870866,9.76358 1.052362,13.3591 2.77702,3.39095 7.088805,5.55414 12.175222,6.09491 0.803911,0.0877 1.593136,0.11693 2.382455,0.11693 4.150983,0 8.258096,-1.12542 11.605168,-3.18627 3.420224,-2.41164 5.408019,-6.13878 6.036537,-11.40059 0.526181,-4.34097 0.160707,-9.88051 -1.140106,-17.43703 -0.336195,-1.95861 -0.847689,-4.7941 -1.461614,-8.30197 5.37874,-1.79781 9.26668,-5.14488 12.789146,-10.62596 3.084029,-5.36415 3.960998,-11.07906 2.630906,-16.98398 m -32.009395,24.52591 c -4.340971,-1.14011 -8.491954,-3.47869 -11.999828,-6.7673 -1.227756,-1.14001 -2.981693,-3.1717 -4.355563,-6.3434 -1.271628,-2.96708 -1.900145,-6.18263 -1.841681,-9.52973 0.05846,-4.39946 1.286221,-8.91584 3.624803,-13.38843 2.733242,-5.21794 7.001155,-10.392 12.672217,-15.37618 1.359278,-1.19848 2.645498,-2.39705 3.844069,-3.59552 0.716167,3.99018 1.490799,8.37502 2.309303,12.93526 -3.595524,1.18388 -8.03883,4.13639 -10.947466,9.42739 -3.317887,6.13882 -3.186365,11.31294 -2.499383,14.57234 0.876968,4.1656 3.24483,7.68809 6.474973,9.64667 0.876969,0.52618 4.73563,2.51398 6.460288,1.9732 0.350787,-0.10233 0.599332,-0.3216 0.730854,-0.62851 0.482309,-1.09624 -0.48231,-1.69548 -1.929331,-2.58708 -0.570053,-0.35079 -1.19857,-0.74542 -1.870866,-1.24237 -3.113214,-2.32397 -4.472586,-6.48957 -3.464002,-10.59671 0.540774,-2.23627 1.739251,-4.26791 3.464002,-5.86108 1.549264,-1.44699 3.464002,-2.47016 5.685655,-3.0694 1.914738,10.52364 3.844069,20.95959 5.37874,28.77925 0.116929,0.64311 0.248451,1.27153 0.36538,1.90005 -4.092519,0.87697 -8.155759,0.78932 -12.102164,-0.24845 m 10.596772,-31.05937 c 9.675838,-0.43844 13.666021,6.51884 14.499211,11.03523 0.438438,2.38243 0.438438,6.53342 -1.008583,10.47982 -1.096141,2.96701 -3.390945,6.78189 -8.199632,8.71122 -0.05846,-0.39466 -0.131522,-0.80391 -0.204579,-1.19857 -1.447021,-8.21427 -3.259423,-18.50403 -5.086417,-29.0277 m -6.85504,-66.37187 c 1.666287,-5.36415 4.224135,-8.40431 6.095001,-10.02663 1.637007,-1.41783 3.171679,-2.09013 4.034054,-2.09013 0.131522,0 0.248451,0.0292 0.336102,0.0585 0.438531,0.13152 0.935433,0.6577 1.373964,1.4762 2.163188,4.00487 1.461614,10.28977 0.204579,14.44075 -1.520079,5.05723 -4.253227,10.30435 -12.482138,19.2933 -0.160801,-1.03776 -0.306915,-2.01698 -0.453123,-2.93782 -1.169292,-7.7466 -0.862376,-14.55767 0.891561,-20.21414"
     id="path324"
     inkscape:connector-curvature="0"
     style="stroke-width:0.93543297" />
  <path
     class="TimeSig"
     d="m 132.34957,63.945744 c -2.33858,1.505486 -4.01946,4.209449 -4.01946,7.205828 0,0.379991 0,0.7454 0.0877,1.125419 0.46772,3.829429 3.56634,6.825733 7.39572,7.29345 h 1.02318 c 4.67717,0 8.4189,-3.741732 8.4189,-8.418869 v -0.55546 c 0,-0.379973 -0.0877,-1.03777 -0.1754,-1.40315 -0.84778,-4.019462 -4.50177,-12.628345 -20.40413,-12.628345 -20.38954,0 -22.72812,16.925509 -22.72812,23.005824 0,11.13748 1.40315,25.081329 24.78897,25.081329 9.26668,0 16.47242,-5.437208 16.8378,-15.449288 0,-0.467716 -0.27773,-0.745418 -0.74545,-0.745418 h -1.21307 c -0.38006,0 -0.74544,0.380019 -0.74544,0.745418 -0.38007,7.775834 -5.90492,12.452998 -14.13384,12.452998 -8.14116,0 -12.07288,-4.399528 -12.07288,-12.628392 V 71.151572 c 0,-5.232625 2.06085,-11.225196 10.392,-11.225196 4.39953,0 6.35805,1.593136 7.39582,3.186272 0.17539,0.36538 0.17539,0.657703 -0.10234,0.833096"
     id="path326"
     inkscape:connector-curvature="0"
     style="stroke-width:0.93543297" />
  <path
     class="Rest"
     d="m 217.03524,61.738777 c -0.70157,-0.263137 -1.33009,0.05846 -1.63701,0.628424 -0.30691,0.570053 -3.28861,6.109594 -7.425,9.164362 -1.30081,0.950054 -2.7917,1.549311 -4.25332,1.856255 1.05236,-1.169291 1.68088,-2.733242 1.68088,-4.428714 0,-3.69786 -2.99628,-6.694146 -6.6796,-6.694146 -3.69788,0 -6.69419,2.996286 -6.69419,6.694146 0,2.806318 1.75394,5.232597 4.22407,6.211883 1.43238,0.672342 3.21555,1.096206 5.13026,1.096206 2.66018,0 5.56873,-0.774651 8.11198,-2.645517 1.18389,-0.862357 2.29471,-1.987795 3.3032,-3.157086 l -10.65514,33.3248 2.4701,0.80391 13.16922,-41.246794 c 0.21917,-0.686982 -0.0585,-1.330092 -0.74545,-1.607729"
     id="path328"
     inkscape:connector-curvature="0"
     style="stroke-width:0.93543297" />
  <path
     class="Rest"
     d="m 691.635,69.660679 v 10.099776 c 0,1.315453 0,1.315453 1.31545,1.315453 h 27.78531 c 1.30081,0 1.30081,0 1.30081,-1.315453 V 69.660679 c 0,-1.315406 0,-1.315406 -1.30081,-1.315406 h -27.78531 c -1.31545,0 -1.31545,0 -1.31545,1.315406"
     id="path330"
     inkscape:connector-curvature="0"
     style="stroke-width:0.93543297" />
  <path
     class="Rest"
     d="m 826.74024,61.738777 c -0.70157,-0.263137 -1.33009,0.05846 -1.63701,0.628424 -0.30691,0.570053 -3.28861,6.109594 -7.425,9.164362 -1.30081,0.950054 -2.7917,1.549311 -4.25332,1.856255 1.05236,-1.169291 1.68088,-2.733242 1.68088,-4.428714 0,-3.69786 -2.99628,-6.694146 -6.6796,-6.694146 -3.69788,0 -6.69419,2.996286 -6.69419,6.694146 0,2.806318 1.75394,5.232597 4.22407,6.211883 1.43238,0.672342 3.21555,1.096206 5.13026,1.096206 2.66018,0 5.56873,-0.774651 8.11198,-2.645517 1.18389,-0.862357 2.29471,-1.987795 3.3032,-3.157086 l -10.65514,33.3248 2.4701,0.80391 13.16922,-41.246794 c 0.21917,-0.686982 -0.0585,-1.330092 -0.74545,-1.607729"
     id="path332"
     inkscape:connector-curvature="0"
     style="stroke-width:0.93543297" />
  <path
     class="Rest"
     d="m 1334.3102,61.738777 c -0.7015,-0.263137 -1.3301,0.05846 -1.637,0.628424 -0.3069,0.570053 -3.2886,6.109594 -7.425,9.164362 -1.3008,0.950054 -2.7917,1.549311 -4.2533,1.856255 1.0524,-1.169291 1.6809,-2.733242 1.6809,-4.428714 0,-3.69786 -2.9963,-6.694146 -6.6796,-6.694146 -3.6979,0 -6.6942,2.996286 -6.6942,6.694146 0,2.806318 1.7539,5.232597 4.2241,6.211883 1.4324,0.672342 3.2155,1.096206 5.1302,1.096206 2.6602,0 5.5688,-0.774651 8.112,-2.645517 1.1839,-0.862357 2.2947,-1.987795 3.3032,-3.157086 l -10.6551,33.3248 2.4701,0.80391 13.1692,-41.246794 c 0.2192,-0.686982 -0.058,-1.330092 -0.7455,-1.607729"
     id="path334"
     inkscape:connector-curvature="0"
     style="stroke-width:0.93543297" />
  <path
     class="Rest"
     d="m 1600.3902,61.738777 c -0.7015,-0.263137 -1.3301,0.05846 -1.637,0.628424 -0.3069,0.570053 -3.2886,6.109594 -7.425,9.164362 -1.3008,0.950054 -2.7917,1.549311 -4.2533,1.856255 1.0524,-1.169291 1.6809,-2.733242 1.6809,-4.428714 0,-3.69786 -2.9963,-6.694146 -6.6796,-6.694146 -3.6979,0 -6.6942,2.996286 -6.6942,6.694146 0,2.806318 1.7539,5.232597 4.2241,6.211883 1.4324,0.672342 3.2155,1.096206 5.1302,1.096206 2.6602,0 5.5688,-0.774651 8.112,-2.645517 1.1839,-0.862357 2.2947,-1.987795 3.3032,-3.157086 l -10.6551,33.3248 2.4701,0.80391 13.1692,-41.246794 c 0.2192,-0.686982 -0.059,-1.330092 -0.7455,-1.607729"
     id="path336"
     inkscape:connector-curvature="0"
     style="stroke-width:0.93543297" />
  <path
     class="Rest"
     d="m 1915.1802,61.738777 c -0.7015,-0.263137 -1.3301,0.05846 -1.637,0.628424 -0.3069,0.570053 -3.2886,6.109594 -7.425,9.164362 -1.3008,0.950054 -2.7917,1.549311 -4.2533,1.856255 1.0524,-1.169291 1.6809,-2.733242 1.6809,-4.428714 0,-3.69786 -2.9963,-6.694146 -6.6796,-6.694146 -3.6979,0 -6.6942,2.996286 -6.6942,6.694146 0,2.806318 1.7539,5.232597 4.2241,6.211883 1.4324,0.672342 3.2155,1.096206 5.1302,1.096206 2.6602,0 5.5688,-0.774651 8.112,-2.645517 1.1839,-0.862357 2.2947,-1.987795 3.3032,-3.157086 l -10.6551,33.3248 2.4701,0.80391 13.1692,-41.246794 c 0.2192,-0.686982 -0.059,-1.330092 -0.7455,-1.607729"
     id="path338"
     inkscape:connector-curvature="0"
     style="stroke-width:0.93543297" />
  <path
     class="Rest"
     d="m 2471.482,69.660679 v 10.099776 c 0,1.315453 0,1.315453 1.3155,1.315453 h 27.7853 c 1.3008,0 1.3008,0 1.3008,-1.315453 V 69.660679 c 0,-1.315406 0,-1.315406 -1.3008,-1.315406 h -27.7853 c -1.3155,0 -1.3155,0 -1.3155,1.315406"
     id="path340"
     inkscape:connector-curvature="0"
     style="stroke-width:0.93543297" />
  <path
     class="Rest"
     d="m 162.03524,354.06178 c -0.70157,-0.26314 -1.33009,0.0585 -1.63701,0.62842 -0.30691,0.57005 -3.28861,6.10959 -7.425,9.16436 -1.30081,0.95006 -2.7917,1.54931 -4.25332,1.85626 1.05236,-1.16929 1.68088,-2.73324 1.68088,-4.42872 0,-3.69786 -2.99628,-6.69414 -6.6796,-6.69414 -3.69788,0 -6.69419,2.99628 -6.69419,6.69414 0,2.80632 1.75394,5.2326 4.22407,6.21189 1.43238,0.67234 3.21555,1.0962 5.13026,1.0962 2.66018,0 5.56873,-0.77465 8.11198,-2.64551 1.18389,-0.86236 2.29471,-1.9878 3.3032,-3.15709 l -10.65514,33.3248 2.4701,0.80391 13.16922,-41.24679 c 0.21917,-0.68699 -0.0585,-1.3301 -0.74545,-1.60773"
     id="path342"
     inkscape:connector-curvature="0"
     style="stroke-width:0.93543297" />
  <path
     class="Rest"
     d="m 639.111,361.98368 v 10.09978 c 0,1.31545 0,1.31545 1.31545,1.31545 h 27.78531 c 1.30081,0 1.30081,0 1.30081,-1.31545 v -10.09978 c 0,-1.31541 0,-1.31541 -1.30081,-1.31541 h -27.78531 c -1.31545,0 -1.31545,0 -1.31545,1.31541"
     id="path344"
     inkscape:connector-curvature="0"
     style="stroke-width:0.93543297" />
  <path
     class="Rest"
     d="m 774.92824,354.06178 c -0.70157,-0.26314 -1.33009,0.0585 -1.63701,0.62842 -0.30691,0.57005 -3.28861,6.10959 -7.425,9.16436 -1.30081,0.95006 -2.7917,1.54931 -4.25332,1.85626 1.05236,-1.16929 1.68088,-2.73324 1.68088,-4.42872 0,-3.69786 -2.99628,-6.69414 -6.6796,-6.69414 -3.69788,0 -6.69419,2.99628 -6.69419,6.69414 0,2.80632 1.75394,5.2326 4.22407,6.21189 1.43238,0.67234 3.21555,1.0962 5.13026,1.0962 2.66018,0 5.56873,-0.77465 8.11198,-2.64551 1.18389,-0.86236 2.29471,-1.9878 3.3032,-3.15709 l -10.65514,33.3248 2.4701,0.80391 13.16922,-41.24679 c 0.21917,-0.68699 -0.0585,-1.3301 -0.74545,-1.60773"
     id="path346"
     inkscape:connector-curvature="0"
     style="stroke-width:0.93543297" />
  <path
     class="Rest"
     d="m 1285.1502,354.06178 c -0.7015,-0.26314 -1.3301,0.0585 -1.637,0.62842 -0.3069,0.57005 -3.2886,6.10959 -7.425,9.16436 -1.3008,0.95006 -2.7917,1.54931 -4.2533,1.85626 1.0524,-1.16929 1.6809,-2.73324 1.6809,-4.42872 0,-3.69786 -2.9963,-6.69414 -6.6796,-6.69414 -3.6979,0 -6.6942,2.99628 -6.6942,6.69414 0,2.80632 1.7539,5.2326 4.2241,6.21189 1.4324,0.67234 3.2155,1.0962 5.1302,1.0962 2.6602,0 5.5688,-0.77465 8.112,-2.64551 1.1839,-0.86236 2.2947,-1.9878 3.3032,-3.15709 l -10.6551,33.3248 2.4701,0.80391 13.1692,-41.24679 c 0.2192,-0.68699 -0.059,-1.3301 -0.7455,-1.60773"
     id="path348"
     inkscape:connector-curvature="0"
     style="stroke-width:0.93543297" />
  <path
     class="Rest"
     d="m 1552.4402,354.06178 c -0.7015,-0.26314 -1.3301,0.0585 -1.637,0.62842 -0.3069,0.57005 -3.2886,6.10959 -7.425,9.16436 -1.3008,0.95006 -2.7917,1.54931 -4.2533,1.85626 1.0524,-1.16929 1.6809,-2.73324 1.6809,-4.42872 0,-3.69786 -2.9963,-6.69414 -6.6796,-6.69414 -3.6979,0 -6.6942,2.99628 -6.6942,6.69414 0,2.80632 1.7539,5.2326 4.2241,6.21189 1.4324,0.67234 3.2155,1.0962 5.1302,1.0962 2.6602,0 5.5688,-0.77465 8.112,-2.64551 1.1839,-0.86236 2.2947,-1.9878 3.3032,-3.15709 l -10.6551,33.3248 2.4701,0.80391 13.1692,-41.24679 c 0.2192,-0.68699 -0.059,-1.3301 -0.7455,-1.60773"
     id="path350"
     inkscape:connector-curvature="0"
     style="stroke-width:0.93543297" />
  <path
     class="Rest"
     d="m 1869.2002,354.06178 c -0.7015,-0.26314 -1.3301,0.0585 -1.637,0.62842 -0.3069,0.57005 -3.2886,6.10959 -7.425,9.16436 -1.3008,0.95006 -2.7917,1.54931 -4.2533,1.85626 1.0524,-1.16929 1.6809,-2.73324 1.6809,-4.42872 0,-3.69786 -2.9963,-6.69414 -6.6796,-6.69414 -3.6979,0 -6.6942,2.99628 -6.6942,6.69414 0,2.80632 1.7539,5.2326 4.2241,6.21189 1.4324,0.67234 3.2155,1.0962 5.1302,1.0962 2.6602,0 5.5688,-0.77465 8.112,-2.64551 1.1839,-0.86236 2.2947,-1.9878 3.3032,-3.15709 l -10.6551,33.3248 2.4701,0.80391 13.1692,-41.24679 c 0.2192,-0.68699 -0.059,-1.3301 -0.7455,-1.60773"
     id="path352"
     inkscape:connector-curvature="0"
     style="stroke-width:0.93543297" />
  <path
     class="Rest"
     d="m 2466.412,361.98368 v 10.09978 c 0,1.31545 0,1.31545 1.3155,1.31545 h 27.7853 c 1.3008,0 1.3008,0 1.3008,-1.31545 v -10.09978 c 0,-1.31541 0,-1.31541 -1.3008,-1.31541 h -27.7853 c -1.3155,0 -1.3155,0 -1.3155,1.31541"
     id="path354"
     inkscape:connector-curvature="0"
     style="stroke-width:0.93543297" />
  <path
     class="Beam"
     d="m 394.801,51.572888 132.782,-5.962 v 11.705 l -132.782,5.962 v -11.705"
     id="path356"
     inkscape:connector-curvature="0"
     style="fill-rule:evenodd" />
  <path
     class="Beam"
     d="m 1004.512,22.109888 132.78,5.962 v 11.705 l -132.78,-5.962 v -11.705"
     id="path358"
     inkscape:connector-curvature="0"
     style="fill-rule:evenodd" />
  <path
     class="Beam"
     d="m 1611.642,121.32489 75.1,24.215 v 12.286 l -75.1,-24.216 v -12.285"
     id="path360"
     inkscape:connector-curvature="0"
     style="fill-rule:evenodd" />
  <path
     class="Beam"
     d="m 340.54,343.89489 133.634,-5.961 v 11.705 l -133.634,5.961 v -11.705"
     id="path362"
     inkscape:connector-curvature="0"
     style="fill-rule:evenodd" />
  <path
     class="Beam"
     d="m 953.432,314.43389 133.64,5.961 v 11.704 l -133.64,-5.961 v -11.704"
     id="path364"
     inkscape:connector-curvature="0"
     style="fill-rule:evenodd" />
  <path
     class="Beam"
     d="m 1563.992,413.65189 75.71,24.209 v 12.276 l -75.71,-24.209 v -12.276"
     id="path366"
     inkscape:connector-curvature="0"
     style="fill-rule:evenodd" />
  <path
     class="Hook"
     d="m 335.97102,48.890904 c -0.0877,-0.277702 -0.93544,-3.551722 -0.93544,-3.741732 -0.0877,-0.38002 -0.65772,-0.657731 -1.12544,-0.657731 -0.65773,0 -1.21314,0.570034 -1.21314,1.213144 v 15.346948 5.802584 c 0,0.467717 0.38002,0.83319 0.74542,1.023177 3.93174,1.213163 12.07291,6.372637 18.15323,16.75005 1.68088,2.894043 4.39952,6.825761 4.39952,14.689292 0,6.738014 -1.03776,13.841414 -2.71864,20.389444 -0.27773,1.03777 -0.55537,1.9732 0.46771,2.33858 1.02318,0.38007 1.40315,-0.36538 1.78322,-1.30081 3.36166,-8.2435 4.20945,-16.85239 4.20945,-22.640377 v -1.783216 c -0.46772,-12.072886 -7.39582,-20.959499 -7.39582,-20.959499 0.27773,0 -8.60888,-11.502926 -11.1375,-15.434645 -3.44941,-5.334914 -5.14488,-10.65519 -5.23257,-11.035209"
     id="path368"
     inkscape:connector-curvature="0"
     style="stroke-width:0.93543297" />
  <path
     class="Hook"
     d="m 945.67602,28.428904 c -0.0877,-0.277702 -0.93544,-3.551722 -0.93544,-3.741732 -0.0877,-0.38002 -0.65772,-0.657731 -1.12544,-0.657731 -0.65773,0 -1.21314,0.570034 -1.21314,1.213144 v 15.346948 5.802584 c 0,0.467717 0.38002,0.83319 0.74542,1.023177 3.93174,1.213163 12.07291,6.372637 18.15323,16.75005 1.68088,2.894043 4.39952,6.825761 4.39952,14.689292 0,6.738017 -1.03776,13.841415 -2.71864,20.389446 -0.27773,1.037768 -0.55537,1.973198 0.46771,2.338578 1.02318,0.38007 1.40315,-0.36538 1.78322,-1.30081 3.36166,-8.243502 4.20945,-16.852386 4.20945,-22.640377 v -1.783216 c -0.46772,-12.072886 -7.39582,-20.959499 -7.39582,-20.959499 0.27773,0 -8.60888,-11.502926 -11.1375,-15.434645 -3.44941,-5.334914 -5.14488,-10.65519 -5.23257,-11.035209"
     id="path370"
     inkscape:connector-curvature="0"
     style="stroke-width:0.93543297" />
  <path
     class="Hook"
     d="m 1397.8706,162.92591 c 0,-0.19001 0.8477,-3.37634 0.9354,-3.65404 0.088,-0.38002 1.7832,-5.70029 5.2326,-11.03521 2.5286,-3.93172 11.4152,-15.43464 11.1375,-15.43464 0,0 6.9281,-8.88661 7.3958,-20.9595 v -2.1486 c 0,-5.71493 -0.7454,-13.753761 -4.034,-21.895022 -0.3655,-0.935433 -0.7455,-1.870866 -1.7687,-1.490799 -1.0376,0.36538 -0.7453,1.490799 -0.4677,2.513976 1.6809,6.562624 2.6163,13.286045 2.6163,20.024065 0,7.86353 -2.8063,11.79525 -4.4872,14.68929 -6.1825,10.37742 -14.2214,15.43465 -18.1532,16.75005 -0.4677,0.18999 -0.7454,0.55546 -0.7454,1.02318 v 5.80258 15.34695 c 0,0.64311 0.5554,1.21315 1.2131,1.21315 0.4678,0 1.0378,-0.38003 1.1255,-0.74543"
     id="path372"
     inkscape:connector-curvature="0"
     style="stroke-width:0.93543297" />
  <path
     class="Hook"
     d="m 2009.306,28.428904 c -0.088,-0.277702 -0.9354,-3.551722 -0.9354,-3.741732 -0.088,-0.38002 -0.6577,-0.657731 -1.1255,-0.657731 -0.6577,0 -1.2131,0.570034 -1.2131,1.213144 v 15.346948 5.802584 c 0,0.467717 0.38,0.83319 0.7454,1.023177 3.9318,1.213163 12.0729,6.372637 18.1532,16.75005 1.6809,2.894043 4.3996,6.825761 4.3996,14.689292 0,6.738017 -1.0378,13.841415 -2.7187,20.389446 -0.2777,1.037768 -0.5553,1.973198 0.4677,2.338578 1.0232,0.38007 1.4032,-0.36538 1.7833,-1.30081 3.3616,-8.243502 4.2094,-16.852386 4.2094,-22.640377 v -1.783216 c -0.4677,-12.072886 -7.3958,-20.959499 -7.3958,-20.959499 0.2777,0 -8.6089,-11.502926 -11.1375,-15.434645 -3.4494,-5.334914 -5.1449,-10.65519 -5.2326,-11.035209"
     id="path374"
     inkscape:connector-curvature="0"
     style="stroke-width:0.93543297" />
  <path
     class="Hook"
     d="m 2279.3706,116.15491 c 0,-0.19001 0.8477,-3.37634 0.9354,-3.65404 0.088,-0.38002 1.7832,-5.70029 5.2326,-11.03521 2.5286,-3.931715 11.4152,-15.434641 11.1375,-15.434641 0,0 6.9281,-8.886614 7.3958,-20.959499 v -2.148596 c 0,-5.714935 -0.7454,-13.753765 -4.034,-21.895026 -0.3655,-0.935433 -0.7455,-1.870866 -1.7687,-1.490799 -1.0376,0.36538 -0.7453,1.490799 -0.4677,2.513976 1.6809,6.562624 2.6163,13.286048 2.6163,20.024066 0,7.86353 -2.8063,11.795249 -4.4872,14.689291 -6.1825,10.377413 -14.2214,15.434645 -18.1532,16.750051 -0.4677,0.189986 -0.7454,0.55546 -0.7454,1.023176 v 5.802581 15.34695 c 0,0.64311 0.5554,1.21315 1.2131,1.21315 0.4678,0 1.0378,-0.38003 1.1255,-0.74543"
     id="path376"
     inkscape:connector-curvature="0"
     style="stroke-width:0.93543297" />
  <path
     class="Hook"
     d="m 281.71002,341.2139 c -0.0877,-0.2777 -0.93544,-3.55172 -0.93544,-3.74173 -0.0877,-0.38002 -0.65772,-0.65773 -1.12544,-0.65773 -0.65773,0 -1.21314,0.57003 -1.21314,1.21315 v 15.34694 5.80259 c 0,0.46771 0.38002,0.83319 0.74542,1.02317 3.93174,1.21317 12.07291,6.37264 18.15323,16.75005 1.68088,2.89405 4.39952,6.82577 4.39952,14.6893 0,6.73801 -1.03776,13.84141 -2.71864,20.38944 -0.27773,1.03777 -0.55537,1.9732 0.46771,2.33858 1.02318,0.38007 1.40315,-0.36538 1.78322,-1.30081 3.36166,-8.2435 4.20945,-16.85239 4.20945,-22.64038 v -1.78321 c -0.46772,-12.07289 -7.39582,-20.9595 -7.39582,-20.9595 0.27773,0 -8.60888,-11.50293 -11.1375,-15.43465 -3.44941,-5.33491 -5.14488,-10.65519 -5.23257,-11.03521"
     id="path378"
     inkscape:connector-curvature="0"
     style="stroke-width:0.93543297" />
  <path
     class="Hook"
     d="m 894.60602,320.7509 c -0.0877,-0.2777 -0.93544,-3.55172 -0.93544,-3.74173 -0.0877,-0.38002 -0.65772,-0.65773 -1.12544,-0.65773 -0.65773,0 -1.21314,0.57003 -1.21314,1.21315 v 15.34694 5.80259 c 0,0.46771 0.38002,0.83319 0.74542,1.02317 3.93175,1.21317 12.07291,6.37264 18.15323,16.75005 1.68088,2.89405 4.39952,6.82577 4.39952,14.6893 0,6.73801 -1.03776,13.84141 -2.71864,20.38944 -0.27773,1.03777 -0.55537,1.9732 0.46771,2.33858 1.02318,0.38007 1.40315,-0.36538 1.78322,-1.30081 3.36166,-8.2435 4.20945,-16.85239 4.20945,-22.64038 v -1.78321 c -0.46772,-12.07289 -7.39582,-20.9595 -7.39582,-20.9595 0.27773,0 -8.60888,-11.50293 -11.1375,-15.43465 -3.44941,-5.33491 -5.14488,-10.65519 -5.23257,-11.03521"
     id="path380"
     inkscape:connector-curvature="0"
     style="stroke-width:0.93543297" />
  <path
     class="Hook"
     d="m 1349.2406,455.24891 c 0,-0.19001 0.8477,-3.37634 0.9354,-3.65404 0.088,-0.38002 1.7832,-5.70029 5.2326,-11.03521 2.5286,-3.93172 11.4152,-15.43464 11.1375,-15.43464 0,0 6.9281,-8.88661 7.3958,-20.9595 v -2.1486 c 0,-5.71493 -0.7454,-13.75376 -4.034,-21.89502 -0.3655,-0.93543 -0.7455,-1.87087 -1.7687,-1.4908 -1.0376,0.36538 -0.7453,1.4908 -0.4677,2.51397 1.6809,6.56263 2.6163,13.28605 2.6163,20.02407 0,7.86353 -2.8063,11.79525 -4.4872,14.68929 -6.1825,10.37742 -14.2214,15.43465 -18.1532,16.75005 -0.4677,0.18999 -0.7454,0.55546 -0.7454,1.02318 v 5.80258 15.34695 c 0,0.64311 0.5554,1.21315 1.2131,1.21315 0.4678,0 1.0378,-0.38003 1.1255,-0.74543"
     id="path382"
     inkscape:connector-curvature="0"
     style="stroke-width:0.93543297" />
  <path
     class="Hook"
     d="m 1963.856,320.7509 c -0.088,-0.2777 -0.9354,-3.55172 -0.9354,-3.74173 -0.088,-0.38002 -0.6577,-0.65773 -1.1255,-0.65773 -0.6577,0 -1.2131,0.57003 -1.2131,1.21315 v 15.34694 5.80259 c 0,0.46771 0.38,0.83319 0.7454,1.02317 3.9318,1.21317 12.0729,6.37264 18.1532,16.75005 1.6809,2.89405 4.3996,6.82577 4.3996,14.6893 0,6.73801 -1.0378,13.84141 -2.7187,20.38944 -0.2777,1.03777 -0.5553,1.9732 0.4677,2.33858 1.0232,0.38007 1.4032,-0.36538 1.7833,-1.30081 3.3616,-8.2435 4.2094,-16.85239 4.2094,-22.64038 v -1.78321 c -0.4677,-12.07289 -7.3958,-20.9595 -7.3958,-20.9595 0.2777,0 -8.6089,-11.50293 -11.1375,-15.43465 -3.4494,-5.33491 -5.1449,-10.65519 -5.2326,-11.03521"
     id="path384"
     inkscape:connector-curvature="0"
     style="stroke-width:0.93543297" />
  <path
     class="Hook"
     d="m 2269.686,352.9069 c -0.088,-0.2777 -0.9354,-3.55172 -0.9354,-3.74173 -0.088,-0.38002 -0.6577,-0.65773 -1.1255,-0.65773 -0.6577,0 -1.2131,0.57003 -1.2131,1.21315 v 15.34694 5.80259 c 0,0.46771 0.38,0.83319 0.7454,1.02317 3.9318,1.21317 12.0729,6.37264 18.1532,16.75005 1.6809,2.89405 4.3996,6.82577 4.3996,14.6893 0,6.73801 -1.0378,13.84141 -2.7187,20.38944 -0.2777,1.03777 -0.5553,1.9732 0.4677,2.33858 1.0232,0.38007 1.4032,-0.36538 1.7833,-1.30081 3.3616,-8.2435 4.2094,-16.85239 4.2094,-22.64038 v -1.78321 c -0.4677,-12.07289 -7.3958,-20.9595 -7.3958,-20.9595 0.2777,0 -8.6089,-11.50293 -11.1375,-15.43465 -3.4494,-5.33491 -5.1449,-10.65519 -5.2326,-11.03521"
     id="path386"
     inkscape:connector-curvature="0"
     style="stroke-width:0.93543297" />
  <path
     class="NoteDot"
     d="m 2254.082,92.388888 c 0,2.587062 2.0901,4.677165 4.6772,4.677165 2.587,0 4.6771,-2.090103 4.6771,-4.677165 0,-2.587061 -2.0901,-4.677165 -4.6771,-4.677165 -2.5871,0 -4.6772,2.090104 -4.6772,4.677165"
     id="path388"
     inkscape:connector-curvature="0"
     style="stroke-width:0.93543297" />
  <path
     class="NoteDot"
     d="m 2212.992,408.09689 c 0,2.58706 2.0901,4.67716 4.6772,4.67716 2.587,0 4.6771,-2.0901 4.6771,-4.67716 0,-2.58706 -2.0901,-4.67717 -4.6771,-4.67717 -2.5871,0 -4.6772,2.09011 -4.6772,4.67717"
     id="path390"
     inkscape:connector-curvature="0"
     style="stroke-width:0.93543297" />
</svg>
