<?xml version="1.0" encoding="UTF-8" standalone="no"?>
<svg
   xmlns:dc="http://purl.org/dc/elements/1.1/"
   xmlns:cc="http://creativecommons.org/ns#"
   xmlns:rdf="http://www.w3.org/1999/02/22-rdf-syntax-ns#"
   xmlns:svg="http://www.w3.org/2000/svg"
   xmlns="http://www.w3.org/2000/svg"
   xmlns:sodipodi="http://sodipodi.sourceforge.net/DTD/sodipodi-0.dtd"
   xmlns:inkscape="http://www.inkscape.org/namespaces/inkscape"
   width="2549.5535"
   height="553.6629"
   viewBox="0 0 2549.5536 553.66288"
   version="1.2"
   id="svg304"
   sodipodi:docname="Score-Ausenstimmen-1.svg"
   inkscape:version="0.92.3 (2405546, 2018-03-11)">
  <metadata
     id="metadata310">
    <rdf:RDF>
      <cc:Work
         rdf:about="">
        <dc:format>image/svg+xml</dc:format>
        <dc:type
           rdf:resource="http://purl.org/dc/dcmitype/StillImage" />
      </cc:Work>
    </rdf:RDF>
  </metadata>
  <defs
     id="defs308" />
  <sodipodi:namedview
     pagecolor="#ffffff"
     bordercolor="#666666"
     borderopacity="1"
     objecttolerance="10"
     gridtolerance="10"
     guidetolerance="10"
     inkscape:pageopacity="0"
     inkscape:pageshadow="2"
     inkscape:window-width="3840"
     inkscape:window-height="2066"
     id="namedview306"
     showgrid="false"
     inkscape:zoom="0.44281317"
     inkscape:cx="1273.9634"
     inkscape:cy="-1231.171"
     inkscape:window-x="-11"
     inkscape:window-y="-11"
     inkscape:window-maximized="1"
     inkscape:current-layer="svg304" />
  <title
     id="title2">Score-Ausenstimmen</title>
  <desc
     id="desc4">Generated by MuseScore 3.6.2</desc>
  <polyline
     class="StaffLines"
     points="243.512,346.535 2763.78,346.535"
     id="polyline6"
     style="fill:none;stroke:#000000;stroke-width:2.49000001;stroke-linejoin:bevel"
     transform="translate(-214.22655,-319.89118)" />
  <polyline
     class="StaffLines"
     points="243.512,365.669 2763.78,365.669"
     id="polyline8"
     style="fill:none;stroke:#000000;stroke-width:2.49000001;stroke-linejoin:bevel"
     transform="translate(-214.22655,-319.89118)" />
  <polyline
     class="StaffLines"
     points="243.512,384.803 2763.78,384.803"
     id="polyline10"
     style="fill:none;stroke:#000000;stroke-width:2.49000001;stroke-linejoin:bevel"
     transform="translate(-214.22655,-319.89118)" />
  <polyline
     class="StaffLines"
     points="243.512,403.937 2763.78,403.937"
     id="polyline12"
     style="fill:none;stroke:#000000;stroke-width:2.49000001;stroke-linejoin:bevel"
     transform="translate(-214.22655,-319.89118)" />
  <polyline
     class="StaffLines"
     points="243.512,423.071 2763.78,423.071"
     id="polyline14"
     style="fill:none;stroke:#000000;stroke-width:2.49000001;stroke-linejoin:bevel"
     transform="translate(-214.22655,-319.89118)" />
  <polyline
     class="StaffLines"
     points="243.512,547.441 2763.78,547.441"
     id="polyline16"
     style="fill:none;stroke:#000000;stroke-width:2.49000001;stroke-linejoin:bevel"
     transform="translate(-214.22655,-319.89118)" />
  <polyline
     class="StaffLines"
     points="243.512,566.575 2763.78,566.575"
     id="polyline18"
     style="fill:none;stroke:#000000;stroke-width:2.49000001;stroke-linejoin:bevel"
     transform="translate(-214.22655,-319.89118)" />
  <polyline
     class="StaffLines"
     points="243.512,585.709 2763.78,585.709"
     id="polyline20"
     style="fill:none;stroke:#000000;stroke-width:2.49000001;stroke-linejoin:bevel"
     transform="translate(-214.22655,-319.89118)" />
  <polyline
     class="StaffLines"
     points="243.512,604.843 2763.78,604.843"
     id="polyline22"
     style="fill:none;stroke:#000000;stroke-width:2.49000001;stroke-linejoin:bevel"
     transform="translate(-214.22655,-319.89118)" />
  <polyline
     class="StaffLines"
     points="243.512,623.976 2763.78,623.976"
     id="polyline24"
     style="fill:none;stroke:#000000;stroke-width:2.49000001;stroke-linejoin:bevel"
     transform="translate(-214.22655,-319.89118)" />
  <polyline
     class="StaffLines"
     points="243.512,748.346 2763.78,748.346"
     id="polyline26"
     style="fill:none;stroke:#000000;stroke-width:2.49000001;stroke-linejoin:bevel"
     transform="translate(-214.22655,-319.89118)" />
  <polyline
     class="StaffLines"
     points="243.512,767.48 2763.78,767.48"
     id="polyline28"
     style="fill:none;stroke:#000000;stroke-width:2.49000001;stroke-linejoin:bevel"
     transform="translate(-214.22655,-319.89118)" />
  <polyline
     class="StaffLines"
     points="243.512,786.614 2763.78,786.614"
     id="polyline30"
     style="fill:none;stroke:#000000;stroke-width:2.49000001;stroke-linejoin:bevel"
     transform="translate(-214.22655,-319.89118)" />
  <polyline
     class="StaffLines"
     points="243.512,805.748 2763.78,805.748"
     id="polyline32"
     style="fill:none;stroke:#000000;stroke-width:2.49000001;stroke-linejoin:bevel"
     transform="translate(-214.22655,-319.89118)" />
  <polyline
     class="StaffLines"
     points="243.512,824.882 2763.78,824.882"
     id="polyline34"
     style="fill:none;stroke:#000000;stroke-width:2.49000001;stroke-linejoin:bevel"
     transform="translate(-214.22655,-319.89118)" />
  <polyline
     class="BarLine"
     points="245.043,747.103 245.043,826.126"
     id="polyline36"
     style="fill:none;stroke:#000000;stroke-width:3.05999994;stroke-linejoin:bevel"
     transform="translate(-214.22655,-319.89118)" />
  <polyline
     class="BarLine"
     points="476.361,747.103 476.361,826.126"
     id="polyline38"
     style="fill:none;stroke:#000000;stroke-width:3.05999994;stroke-linejoin:bevel"
     transform="translate(-214.22655,-319.89118)" />
  <polyline
     class="BarLine"
     points="830.271,747.103 830.271,826.126"
     id="polyline40"
     style="fill:none;stroke:#000000;stroke-width:3.05999994;stroke-linejoin:bevel"
     transform="translate(-214.22655,-319.89118)" />
  <polyline
     class="BarLine"
     points="1184.18,747.103 1184.18,826.126"
     id="polyline42"
     style="fill:none;stroke:#000000;stroke-width:3.05999994;stroke-linejoin:bevel"
     transform="translate(-214.22655,-319.89118)" />
  <polyline
     class="BarLine"
     points="1533.12,747.103 1533.12,826.126"
     id="polyline44"
     style="fill:none;stroke:#000000;stroke-width:3.05999994;stroke-linejoin:bevel"
     transform="translate(-214.22655,-319.89118)" />
  <polyline
     class="BarLine"
     points="1884.73,747.103 1884.73,826.126"
     id="polyline46"
     style="fill:none;stroke:#000000;stroke-width:3.05999994;stroke-linejoin:bevel"
     transform="translate(-214.22655,-319.89118)" />
  <polyline
     class="BarLine"
     points="2134.22,747.103 2134.22,826.126"
     id="polyline48"
     style="fill:none;stroke:#000000;stroke-width:3.05999994;stroke-linejoin:bevel"
     transform="translate(-214.22655,-319.89118)" />
  <polyline
     class="BarLine"
     points="2485.84,747.103 2485.84,826.126"
     id="polyline50"
     style="fill:none;stroke:#000000;stroke-width:3.05999994;stroke-linejoin:bevel"
     transform="translate(-214.22655,-319.89118)" />
  <polyline
     class="BarLine"
     points="2762.25,747.103 2762.25,826.126"
     id="polyline52"
     style="fill:none;stroke:#000000;stroke-width:3.05999994;stroke-linejoin:bevel"
     transform="translate(-214.22655,-319.89118)" />
  <polyline
     class="BarLine"
     points="245.043,546.197 245.043,748.346"
     id="polyline54"
     style="fill:none;stroke:#000000;stroke-width:3.05999994;stroke-linejoin:bevel"
     transform="translate(-214.22655,-319.89118)" />
  <polyline
     class="BarLine"
     points="476.361,546.197 476.361,748.346"
     id="polyline56"
     style="fill:none;stroke:#000000;stroke-width:3.05999994;stroke-linejoin:bevel"
     transform="translate(-214.22655,-319.89118)" />
  <polyline
     class="BarLine"
     points="830.271,546.197 830.271,748.346"
     id="polyline58"
     style="fill:none;stroke:#000000;stroke-width:3.05999994;stroke-linejoin:bevel"
     transform="translate(-214.22655,-319.89118)" />
  <polyline
     class="BarLine"
     points="1184.18,546.197 1184.18,748.346"
     id="polyline60"
     style="fill:none;stroke:#000000;stroke-width:3.05999994;stroke-linejoin:bevel"
     transform="translate(-214.22655,-319.89118)" />
  <polyline
     class="BarLine"
     points="1533.12,546.197 1533.12,748.346"
     id="polyline62"
     style="fill:none;stroke:#000000;stroke-width:3.05999994;stroke-linejoin:bevel"
     transform="translate(-214.22655,-319.89118)" />
  <polyline
     class="BarLine"
     points="1884.73,546.197 1884.73,748.346"
     id="polyline64"
     style="fill:none;stroke:#000000;stroke-width:3.05999994;stroke-linejoin:bevel"
     transform="translate(-214.22655,-319.89118)" />
  <polyline
     class="BarLine"
     points="2134.22,546.197 2134.22,748.346"
     id="polyline66"
     style="fill:none;stroke:#000000;stroke-width:3.05999994;stroke-linejoin:bevel"
     transform="translate(-214.22655,-319.89118)" />
  <polyline
     class="BarLine"
     points="2485.84,546.197 2485.84,748.346"
     id="polyline68"
     style="fill:none;stroke:#000000;stroke-width:3.05999994;stroke-linejoin:bevel"
     transform="translate(-214.22655,-319.89118)" />
  <polyline
     class="BarLine"
     points="2762.25,546.197 2762.25,748.346"
     id="polyline70"
     style="fill:none;stroke:#000000;stroke-width:3.05999994;stroke-linejoin:bevel"
     transform="translate(-214.22655,-319.89118)" />
  <polyline
     class="BarLine"
     points="245.043,345.292 245.043,547.441"
     id="polyline72"
     style="fill:none;stroke:#000000;stroke-width:3.05999994;stroke-linejoin:bevel"
     transform="translate(-214.22655,-319.89118)" />
  <polyline
     class="BarLine"
     points="476.361,345.292 476.361,547.441"
     id="polyline74"
     style="fill:none;stroke:#000000;stroke-width:3.05999994;stroke-linejoin:bevel"
     transform="translate(-214.22655,-319.89118)" />
  <polyline
     class="BarLine"
     points="830.271,345.292 830.271,547.441"
     id="polyline76"
     style="fill:none;stroke:#000000;stroke-width:3.05999994;stroke-linejoin:bevel"
     transform="translate(-214.22655,-319.89118)" />
  <polyline
     class="BarLine"
     points="1184.18,345.292 1184.18,547.441"
     id="polyline78"
     style="fill:none;stroke:#000000;stroke-width:3.05999994;stroke-linejoin:bevel"
     transform="translate(-214.22655,-319.89118)" />
  <polyline
     class="BarLine"
     points="1533.12,345.292 1533.12,547.441"
     id="polyline80"
     style="fill:none;stroke:#000000;stroke-width:3.05999994;stroke-linejoin:bevel"
     transform="translate(-214.22655,-319.89118)" />
  <polyline
     class="BarLine"
     points="1884.73,345.292 1884.73,547.441"
     id="polyline82"
     style="fill:none;stroke:#000000;stroke-width:3.05999994;stroke-linejoin:bevel"
     transform="translate(-214.22655,-319.89118)" />
  <polyline
     class="BarLine"
     points="2134.22,345.292 2134.22,547.441"
     id="polyline84"
     style="fill:none;stroke:#000000;stroke-width:3.05999994;stroke-linejoin:bevel"
     transform="translate(-214.22655,-319.89118)" />
  <polyline
     class="BarLine"
     points="2485.84,345.292 2485.84,547.441"
     id="polyline86"
     style="fill:none;stroke:#000000;stroke-width:3.05999994;stroke-linejoin:bevel"
     transform="translate(-214.22655,-319.89118)" />
  <polyline
     class="BarLine"
     points="2762.25,345.292 2762.25,547.441"
     id="polyline88"
     style="fill:none;stroke:#000000;stroke-width:3.05999994;stroke-linejoin:bevel"
     transform="translate(-214.22655,-319.89118)" />
  <polyline
     class="LedgerLine"
     points="1559.52,844.016 1600.01,844.016"
     id="polyline90"
     style="fill:none;stroke:#000000;stroke-width:3.05999994;stroke-linejoin:bevel"
     transform="translate(-214.22655,-319.89118)" />
  <polyline
     class="LedgerLine"
     points="1645.46,844.016 1685.95,844.016"
     id="polyline92"
     style="fill:none;stroke:#000000;stroke-width:3.05999994;stroke-linejoin:bevel"
     transform="translate(-214.22655,-319.89118)" />
  <polyline
     class="LedgerLine"
     points="2160.63,844.016 2201.11,844.016"
     id="polyline94"
     style="fill:none;stroke:#000000;stroke-width:3.05999994;stroke-linejoin:bevel"
     transform="translate(-214.22655,-319.89118)" />
  <polyline
     class="LedgerLine"
     points="2246.57,844.016 2287.05,844.016"
     id="polyline96"
     style="fill:none;stroke:#000000;stroke-width:3.05999994;stroke-linejoin:bevel"
     transform="translate(-214.22655,-319.89118)" />
  <polyline
     class="LedgerLine"
     points="2512.24,863.15 2562.68,863.15"
     id="polyline98"
     style="fill:none;stroke:#000000;stroke-width:3.05999994;stroke-linejoin:bevel"
     transform="translate(-214.22655,-319.89118)" />
  <polyline
     class="LedgerLine"
     points="2512.24,844.016 2562.68,844.016"
     id="polyline100"
     style="fill:none;stroke:#000000;stroke-width:3.05999994;stroke-linejoin:bevel"
     transform="translate(-214.22655,-319.89118)" />
  <polyline
     class="LedgerLine"
     points="1559.52,643.11 1600.01,643.11"
     id="polyline102"
     style="fill:none;stroke:#000000;stroke-width:3.05999994;stroke-linejoin:bevel"
     transform="translate(-214.22655,-319.89118)" />
  <polyline
     class="LedgerLine"
     points="1645.46,643.11 1685.95,643.11"
     id="polyline104"
     style="fill:none;stroke:#000000;stroke-width:3.05999994;stroke-linejoin:bevel"
     transform="translate(-214.22655,-319.89118)" />
  <polyline
     class="LedgerLine"
     points="2160.63,643.11 2201.11,643.11"
     id="polyline106"
     style="fill:none;stroke:#000000;stroke-width:3.05999994;stroke-linejoin:bevel"
     transform="translate(-214.22655,-319.89118)" />
  <polyline
     class="LedgerLine"
     points="2246.57,643.11 2287.05,643.11"
     id="polyline108"
     style="fill:none;stroke:#000000;stroke-width:3.05999994;stroke-linejoin:bevel"
     transform="translate(-214.22655,-319.89118)" />
  <polyline
     class="Stem"
     points="536.746,793.61 536.746,733.996"
     id="polyline110"
     style="fill:none;stroke:#000000;stroke-width:2.29999995;stroke-linejoin:bevel"
     transform="translate(-214.22655,-319.89118)" />
  <polyline
     class="Stem"
     points="622.688,793.61 622.688,733.996"
     id="polyline112"
     style="fill:none;stroke:#000000;stroke-width:2.29999995;stroke-linejoin:bevel"
     transform="translate(-214.22655,-319.89118)" />
  <polyline
     class="Stem"
     points="890.656,812.743 890.656,748.346"
     id="polyline114"
     style="fill:none;stroke:#000000;stroke-width:2.29999995;stroke-linejoin:bevel"
     transform="translate(-214.22655,-319.89118)" />
  <polyline
     class="Stem"
     points="976.598,812.743 976.598,748.346"
     id="polyline116"
     style="fill:none;stroke:#000000;stroke-width:2.29999995;stroke-linejoin:bevel"
     transform="translate(-214.22655,-319.89118)" />
  <polyline
     class="Stem"
     points="1239.59,831.877 1239.59,767.48"
     id="polyline118"
     style="fill:none;stroke:#000000;stroke-width:2.29999995;stroke-linejoin:bevel"
     transform="translate(-214.22655,-319.89118)" />
  <polyline
     class="Stem"
     points="1325.53,831.877 1325.53,767.48"
     id="polyline120"
     style="fill:none;stroke:#000000;stroke-width:2.29999995;stroke-linejoin:bevel"
     transform="translate(-214.22655,-319.89118)" />
  <polyline
     class="Stem"
     points="1591.21,851.011 1591.21,786.614"
     id="polyline122"
     style="fill:none;stroke:#000000;stroke-width:2.29999995;stroke-linejoin:bevel"
     transform="translate(-214.22655,-319.89118)" />
  <polyline
     class="Stem"
     points="1677.15,851.011 1677.15,786.614"
     id="polyline124"
     style="fill:none;stroke:#000000;stroke-width:2.29999995;stroke-linejoin:bevel"
     transform="translate(-214.22655,-319.89118)" />
  <polyline
     class="Stem"
     points="1945.12,822.31 1945.12,757.913"
     id="polyline126"
     style="fill:none;stroke:#000000;stroke-width:2.29999995;stroke-linejoin:bevel"
     transform="translate(-214.22655,-319.89118)" />
  <polyline
     class="Stem"
     points="2025.26,822.31 2025.26,757.913"
     id="polyline128"
     style="fill:none;stroke:#000000;stroke-width:2.29999995;stroke-linejoin:bevel"
     transform="translate(-214.22655,-319.89118)" />
  <polyline
     class="Stem"
     points="2192.31,841.444 2192.31,777.047"
     id="polyline130"
     style="fill:none;stroke:#000000;stroke-width:2.29999995;stroke-linejoin:bevel"
     transform="translate(-214.22655,-319.89118)" />
  <polyline
     class="Stem"
     points="2278.25,841.444 2278.25,777.047"
     id="polyline132"
     style="fill:none;stroke:#000000;stroke-width:2.29999995;stroke-linejoin:bevel"
     transform="translate(-214.22655,-319.89118)" />
  <polyline
     class="Stem"
     points="536.746,592.704 536.746,533.091"
     id="polyline134"
     style="fill:none;stroke:#000000;stroke-width:2.29999995;stroke-linejoin:bevel"
     transform="translate(-214.22655,-319.89118)" />
  <polyline
     class="Stem"
     points="622.688,592.704 622.688,533.091"
     id="polyline136"
     style="fill:none;stroke:#000000;stroke-width:2.29999995;stroke-linejoin:bevel"
     transform="translate(-214.22655,-319.89118)" />
  <polyline
     class="Stem"
     points="890.656,611.838 890.656,547.441"
     id="polyline138"
     style="fill:none;stroke:#000000;stroke-width:2.29999995;stroke-linejoin:bevel"
     transform="translate(-214.22655,-319.89118)" />
  <polyline
     class="Stem"
     points="976.598,611.838 976.598,547.441"
     id="polyline140"
     style="fill:none;stroke:#000000;stroke-width:2.29999995;stroke-linejoin:bevel"
     transform="translate(-214.22655,-319.89118)" />
  <polyline
     class="Stem"
     points="1239.59,630.972 1239.59,566.575"
     id="polyline142"
     style="fill:none;stroke:#000000;stroke-width:2.29999995;stroke-linejoin:bevel"
     transform="translate(-214.22655,-319.89118)" />
  <polyline
     class="Stem"
     points="1325.53,630.972 1325.53,566.575"
     id="polyline144"
     style="fill:none;stroke:#000000;stroke-width:2.29999995;stroke-linejoin:bevel"
     transform="translate(-214.22655,-319.89118)" />
  <polyline
     class="Stem"
     points="1591.21,650.106 1591.21,585.709"
     id="polyline146"
     style="fill:none;stroke:#000000;stroke-width:2.29999995;stroke-linejoin:bevel"
     transform="translate(-214.22655,-319.89118)" />
  <polyline
     class="Stem"
     points="1677.15,650.106 1677.15,585.709"
     id="polyline148"
     style="fill:none;stroke:#000000;stroke-width:2.29999995;stroke-linejoin:bevel"
     transform="translate(-214.22655,-319.89118)" />
  <polyline
     class="Stem"
     points="1945.12,621.405 1945.12,557.008"
     id="polyline150"
     style="fill:none;stroke:#000000;stroke-width:2.29999995;stroke-linejoin:bevel"
     transform="translate(-214.22655,-319.89118)" />
  <polyline
     class="Stem"
     points="2025.26,621.405 2025.26,557.008"
     id="polyline152"
     style="fill:none;stroke:#000000;stroke-width:2.29999995;stroke-linejoin:bevel"
     transform="translate(-214.22655,-319.89118)" />
  <polyline
     class="Stem"
     points="2192.31,640.539 2192.31,576.142"
     id="polyline154"
     style="fill:none;stroke:#000000;stroke-width:2.29999995;stroke-linejoin:bevel"
     transform="translate(-214.22655,-319.89118)" />
  <polyline
     class="Stem"
     points="2278.25,640.539 2278.25,576.142"
     id="polyline156"
     style="fill:none;stroke:#000000;stroke-width:2.29999995;stroke-linejoin:bevel"
     transform="translate(-214.22655,-319.89118)" />
  <polyline
     class="Stem"
     points="2548.9,592.704 2548.9,533.091"
     id="polyline158"
     style="fill:none;stroke:#000000;stroke-width:2.29999995;stroke-linejoin:bevel"
     transform="translate(-214.22655,-319.89118)" />
  <polyline
     class="Stem"
     points="2636.62,592.704 2636.62,533.091"
     id="polyline160"
     style="fill:none;stroke:#000000;stroke-width:2.29999995;stroke-linejoin:bevel"
     transform="translate(-214.22655,-319.89118)" />
  <polyline
     class="Stem"
     points="2685.83,592.704 2685.83,533.091"
     id="polyline162"
     style="fill:none;stroke:#000000;stroke-width:2.29999995;stroke-linejoin:bevel"
     transform="translate(-214.22655,-319.89118)" />
  <path
     class="Note"
     d="m 298.48845,479.88938 c 0,4.43666 3.67131,7.11539 8.26345,7.11539 7.58175,0 16.92152,-7.04364 16.92152,-14.31451 0,-4.28121 -3.4441,-7.1154 -8.34718,-7.1154 -9.33971,0 -16.83779,6.95994 -16.83779,14.31452"
     id="path164"
     inkscape:connector-curvature="0"
     style="stroke-width:0.76535398" />
  <path
     class="Note"
     d="m 384.43045,479.88938 c 0,4.43666 3.67131,7.11539 8.26345,7.11539 7.58175,0 16.92152,-7.04364 16.92152,-14.31451 0,-4.28121 -3.4441,-7.1154 -8.34718,-7.1154 -9.33971,0 -16.83779,6.95994 -16.83779,14.31452"
     id="path166"
     inkscape:connector-curvature="0"
     style="stroke-width:0.76535398" />
  <path
     class="Note"
     d="m 652.39845,499.02338 c 0,4.43666 3.67131,7.11539 8.26345,7.11539 7.58175,0 16.92152,-7.04364 16.92152,-14.31451 0,-4.28121 -3.4441,-7.1154 -8.34718,-7.1154 -9.33971,0 -16.83779,6.95994 -16.83779,14.31452"
     id="path168"
     inkscape:connector-curvature="0"
     style="stroke-width:0.76535398" />
  <path
     class="Note"
     d="m 738.34145,499.02338 c 0,4.43666 3.67131,7.11539 8.26345,7.11539 7.58175,0 16.92152,-7.04364 16.92152,-14.31451 0,-4.28121 -3.4441,-7.1154 -8.34718,-7.1154 -9.33971,0 -16.83779,6.95994 -16.83779,14.31452"
     id="path170"
     inkscape:connector-curvature="0"
     style="stroke-width:0.76535398" />
  <path
     class="Note"
     d="m 1001.3334,518.15738 c 0,4.43666 3.6714,7.11539 8.2635,7.11539 7.5817,0 16.9215,-7.04364 16.9215,-14.31451 0,-4.28121 -3.4441,-7.1154 -8.3472,-7.1154 -9.3397,0 -16.8378,6.95994 -16.8378,14.31452"
     id="path172"
     inkscape:connector-curvature="0"
     style="stroke-width:0.76535398" />
  <path
     class="Note"
     d="m 1087.2734,518.15738 c 0,4.43666 3.6714,7.11539 8.2635,7.11539 7.5817,0 16.9215,-7.04364 16.9215,-14.31451 0,-4.28121 -3.4441,-7.1154 -8.3472,-7.1154 -9.3397,0 -16.8378,6.95994 -16.8378,14.31452"
     id="path174"
     inkscape:connector-curvature="0"
     style="stroke-width:0.76535398" />
  <path
     class="Note"
     d="m 1352.9534,537.29138 c 0,4.43666 3.6714,7.11539 8.2635,7.11539 7.5817,0 16.9215,-7.04364 16.9215,-14.31451 0,-4.28121 -3.4441,-7.1154 -8.3472,-7.1154 -9.3397,0 -16.8378,6.95994 -16.8378,14.31452"
     id="path176"
     inkscape:connector-curvature="0"
     style="stroke-width:0.76535398" />
  <path
     class="Note"
     d="m 1438.8934,537.29138 c 0,4.43666 3.6714,7.11539 8.2635,7.11539 7.5817,0 16.9215,-7.04364 16.9215,-14.31451 0,-4.28121 -3.4441,-7.1154 -8.3472,-7.1154 -9.3397,0 -16.8378,6.95994 -16.8378,14.31452"
     id="path178"
     inkscape:connector-curvature="0"
     style="stroke-width:0.76535398" />
  <path
     class="Note"
     d="m 1706.8634,508.59038 c 0,4.43666 3.6714,7.11539 8.2635,7.11539 7.5817,0 16.9215,-7.04364 16.9215,-14.31451 0,-4.28121 -3.4441,-7.1154 -8.3472,-7.1154 -9.3397,0 -16.8378,6.95994 -16.8378,14.31452"
     id="path180"
     inkscape:connector-curvature="0"
     style="stroke-width:0.76535398" />
  <path
     class="Note"
     d="m 1787.0034,508.59038 c 0,4.43666 3.6714,7.11539 8.2635,7.11539 7.5817,0 16.9215,-7.04364 16.9215,-14.31451 0,-4.28121 -3.4441,-7.1154 -8.3472,-7.1154 -9.3397,0 -16.8378,6.95994 -16.8378,14.31452"
     id="path182"
     inkscape:connector-curvature="0"
     style="stroke-width:0.76535398" />
  <path
     class="Note"
     d="m 1954.0534,527.72438 c 0,4.43666 3.6714,7.11539 8.2635,7.11539 7.5817,0 16.9215,-7.04364 16.9215,-14.31451 0,-4.28121 -3.4441,-7.1154 -8.3472,-7.1154 -9.3397,0 -16.8378,6.95994 -16.8378,14.31452"
     id="path184"
     inkscape:connector-curvature="0"
     style="stroke-width:0.76535398" />
  <path
     class="Note"
     d="m 2039.9934,527.72438 c 0,4.43666 3.6714,7.11539 8.2635,7.11539 7.5817,0 16.9215,-7.04364 16.9215,-14.31451 0,-4.28121 -3.4441,-7.1154 -8.3472,-7.1154 -9.3397,0 -16.8378,6.95994 -16.8378,14.31452"
     id="path186"
     inkscape:connector-curvature="0"
     style="stroke-width:0.76535398" />
  <path
     class="Note"
     d="m 2305.6634,543.10336 c 0,5.58469 4.7476,10.55953 17.1488,10.55953 13.6209,0 17.9858,-4.73567 17.9858,-10.55953 0,-5.89562 -9.4115,-10.33226 -17.1487,-10.33226 -11.0977,0 -17.9859,4.67581 -17.9859,10.33226 m 8.9571,-3.06142 c 0,-4.2812 2.9777,-5.35746 6.8881,-5.35746 5.6685,0 10.2606,6.12281 10.2606,11.18133 0,4.20944 -2.607,5.88369 -6.362,5.88369 -5.5129,0 -10.7867,-6.35008 -10.7867,-11.70756"
     id="path188"
     inkscape:connector-curvature="0"
     style="stroke-width:0.76535398" />
  <path
     class="Note"
     d="m 298.48845,278.98438 c 0,4.43666 3.67131,7.11539 8.26345,7.11539 7.58175,0 16.92152,-7.04364 16.92152,-14.31451 0,-4.28121 -3.4441,-7.1154 -8.34718,-7.1154 -9.33971,0 -16.83779,6.95994 -16.83779,14.31452"
     id="path190"
     inkscape:connector-curvature="0"
     style="stroke-width:0.76535398" />
  <path
     class="Note"
     d="m 384.43045,278.98438 c 0,4.43666 3.67131,7.11539 8.26345,7.11539 7.58175,0 16.92152,-7.04364 16.92152,-14.31451 0,-4.28121 -3.4441,-7.1154 -8.34718,-7.1154 -9.33971,0 -16.83779,6.95994 -16.83779,14.31452"
     id="path192"
     inkscape:connector-curvature="0"
     style="stroke-width:0.76535398" />
  <path
     class="Note"
     d="m 652.39845,298.11738 c 0,4.43666 3.67131,7.11539 8.26345,7.11539 7.58175,0 16.92152,-7.04364 16.92152,-14.31451 0,-4.28121 -3.4441,-7.1154 -8.34718,-7.1154 -9.33971,0 -16.83779,6.95994 -16.83779,14.31452"
     id="path194"
     inkscape:connector-curvature="0"
     style="stroke-width:0.76535398" />
  <path
     class="Note"
     d="m 738.34145,298.11738 c 0,4.43666 3.67131,7.11539 8.26345,7.11539 7.58175,0 16.92152,-7.04364 16.92152,-14.31451 0,-4.28121 -3.4441,-7.1154 -8.34718,-7.1154 -9.33971,0 -16.83779,6.95994 -16.83779,14.31452"
     id="path196"
     inkscape:connector-curvature="0"
     style="stroke-width:0.76535398" />
  <path
     class="Note"
     d="m 1001.3334,317.25138 c 0,4.43666 3.6714,7.11539 8.2635,7.11539 7.5817,0 16.9215,-7.04364 16.9215,-14.31451 0,-4.28121 -3.4441,-7.1154 -8.3472,-7.1154 -9.3397,0 -16.8378,6.95994 -16.8378,14.31452"
     id="path198"
     inkscape:connector-curvature="0"
     style="stroke-width:0.76535398" />
  <path
     class="Note"
     d="m 1087.2734,317.25138 c 0,4.43666 3.6714,7.11539 8.2635,7.11539 7.5817,0 16.9215,-7.04364 16.9215,-14.31451 0,-4.28121 -3.4441,-7.1154 -8.3472,-7.1154 -9.3397,0 -16.8378,6.95994 -16.8378,14.31452"
     id="path200"
     inkscape:connector-curvature="0"
     style="stroke-width:0.76535398" />
  <path
     class="Note"
     d="m 1352.9534,336.38538 c 0,4.43666 3.6714,7.11539 8.2635,7.11539 7.5817,0 16.9215,-7.04364 16.9215,-14.31451 0,-4.28121 -3.4441,-7.1154 -8.3472,-7.1154 -9.3397,0 -16.8378,6.95994 -16.8378,14.31452"
     id="path202"
     inkscape:connector-curvature="0"
     style="stroke-width:0.76535398" />
  <path
     class="Note"
     d="m 1438.8934,336.38538 c 0,4.43666 3.6714,7.11539 8.2635,7.11539 7.5817,0 16.9215,-7.04364 16.9215,-14.31451 0,-4.28121 -3.4441,-7.1154 -8.3472,-7.1154 -9.3397,0 -16.8378,6.95994 -16.8378,14.31452"
     id="path204"
     inkscape:connector-curvature="0"
     style="stroke-width:0.76535398" />
  <path
     class="Note"
     d="m 1706.8634,307.68438 c 0,4.43666 3.6714,7.11539 8.2635,7.11539 7.5817,0 16.9215,-7.04364 16.9215,-14.31451 0,-4.28121 -3.4441,-7.1154 -8.3472,-7.1154 -9.3397,0 -16.8378,6.95994 -16.8378,14.31452"
     id="path206"
     inkscape:connector-curvature="0"
     style="stroke-width:0.76535398" />
  <path
     class="Note"
     d="m 1787.0034,307.68438 c 0,4.43666 3.6714,7.11539 8.2635,7.11539 7.5817,0 16.9215,-7.04364 16.9215,-14.31451 0,-4.28121 -3.4441,-7.1154 -8.3472,-7.1154 -9.3397,0 -16.8378,6.95994 -16.8378,14.31452"
     id="path208"
     inkscape:connector-curvature="0"
     style="stroke-width:0.76535398" />
  <path
     class="Note"
     d="m 1954.0534,326.81838 c 0,4.43666 3.6714,7.11539 8.2635,7.11539 7.5817,0 16.9215,-7.04364 16.9215,-14.31451 0,-4.28121 -3.4441,-7.1154 -8.3472,-7.1154 -9.3397,0 -16.8378,6.95994 -16.8378,14.31452"
     id="path210"
     inkscape:connector-curvature="0"
     style="stroke-width:0.76535398" />
  <path
     class="Note"
     d="m 2039.9934,326.81838 c 0,4.43666 3.6714,7.11539 8.2635,7.11539 7.5817,0 16.9215,-7.04364 16.9215,-14.31451 0,-4.28121 -3.4441,-7.1154 -8.3472,-7.1154 -9.3397,0 -16.8378,6.95994 -16.8378,14.31452"
     id="path212"
     inkscape:connector-curvature="0"
     style="stroke-width:0.76535398" />
  <path
     class="Note"
     d="m 2310.6434,278.98438 c 0,4.43666 3.6714,7.11539 8.2635,7.11539 7.5817,0 16.9215,-7.04364 16.9215,-14.31451 0,-4.28121 -3.4441,-7.1154 -8.3472,-7.1154 -9.3397,0 -16.8378,6.95994 -16.8378,14.31452"
     id="path214"
     inkscape:connector-curvature="0"
     style="stroke-width:0.76535398" />
  <path
     class="Note"
     d="m 2398.3634,278.98438 c 0,4.43666 3.6714,7.11539 8.2635,7.11539 7.5817,0 16.9215,-7.04364 16.9215,-14.31451 0,-4.28121 -3.4441,-7.1154 -8.3472,-7.1154 -9.3397,0 -16.8378,6.95994 -16.8378,14.31452"
     id="path216"
     inkscape:connector-curvature="0"
     style="stroke-width:0.76535398" />
  <path
     class="Note"
     d="m 2455.8369,286.09977 c 14.0873,0 16.9215,-11.48031 16.9215,-14.2308 0,-4.36492 -3.4441,-7.19911 -8.4189,-7.19911 -12.7838,0 -16.7661,9.87785 -16.7661,14.31452 0,4.50845 3.5996,7.11539 8.2635,7.11539 m -5.7402,-6.95993 c 0,-4.1377 12.3294,-10.95413 16.3834,-10.95413 1.6025,0 2.5233,0.76535 3.1332,1.84163 0.2391,0.45443 0.4664,0.99257 0.4664,1.60246 0,1.68617 -1.758,3.75502 -7.7373,7.65354 -3.8268,2.60699 -6.5055,3.52781 -8.3352,3.52781 -1.7699,0 -2.8342,-0.92082 -3.3723,-1.9971 -0.311,-0.45443 -0.5382,-1.06432 -0.5382,-1.67421"
     id="path218"
     inkscape:connector-curvature="0"
     style="stroke-width:0.76535398" />
  <path
     class="Note"
     d="m 293.51345,36.055356 c 0,5.584693 4.74759,10.559532 17.14875,10.559532 13.62085,0 17.98582,-4.735666 17.98582,-10.559532 0,-5.895617 -9.41148,-10.33226 -17.14875,-10.33226 -11.09764,0 -17.98582,4.675816 -17.98582,10.33226 m 8.95701,-3.06142 c 0,-4.281198 2.97777,-5.357455 6.88819,-5.357455 5.66844,0 10.26056,6.122809 10.26056,11.181325 0,4.209447 -2.60702,5.883697 -6.362,5.883697 -5.51292,0 -10.78675,-6.350081 -10.78675,-11.707567"
     id="path220"
     inkscape:connector-curvature="0"
     style="stroke-width:0.76535398" />
  <path
     class="Note"
     d="m 647.42445,55.189356 c 0,5.584693 4.74759,10.559532 17.14875,10.559532 13.62085,0 17.98582,-4.735666 17.98582,-10.559532 0,-5.895617 -9.41148,-10.33226 -17.14875,-10.33226 -11.09764,0 -17.98582,4.675816 -17.98582,10.33226 m 8.95701,-3.06142 c 0,-4.281198 2.97777,-5.357455 6.88819,-5.357455 5.66844,0 10.26056,6.122809 10.26056,11.181325 0,4.209447 -2.60702,5.883697 -6.362,5.883697 -5.51292,0 -10.78675,-6.350081 -10.78675,-11.707567"
     id="path222"
     inkscape:connector-curvature="0"
     style="stroke-width:0.76535398" />
  <path
     class="Note"
     d="m 996.36345,74.323356 c 0,5.584693 4.74755,10.559532 17.14875,10.559532 13.6209,0 17.9858,-4.735666 17.9858,-10.559532 0,-5.895617 -9.4115,-10.33226 -17.1487,-10.33226 -11.0977,0 -17.98585,4.675816 -17.98585,10.33226 m 8.95705,-3.06142 c 0,-4.281198 2.9777,-5.357455 6.8881,-5.357455 5.6685,0 10.2606,6.122809 10.2606,11.181325 0,4.209447 -2.607,5.883697 -6.362,5.883697 -5.5129,0 -10.7867,-6.350081 -10.7867,-11.707567"
     id="path224"
     inkscape:connector-curvature="0"
     style="stroke-width:0.76535398" />
  <path
     class="Note"
     d="m 1347.9734,93.457356 c 0,5.584693 4.7476,10.559534 17.1488,10.559534 13.6209,0 17.9858,-4.735668 17.9858,-10.559534 0,-5.895617 -9.4115,-10.33226 -17.1487,-10.33226 -11.0977,0 -17.9859,4.675816 -17.9859,10.33226 m 8.9571,-3.06142 c 0,-4.281198 2.9777,-5.357455 6.8881,-5.357455 5.6685,0 10.2606,6.122809 10.2606,11.181325 0,4.209444 -2.607,5.883694 -6.362,5.883694 -5.5129,0 -10.7867,-6.350078 -10.7867,-11.707564"
     id="path226"
     inkscape:connector-curvature="0"
     style="stroke-width:0.76535398" />
  <path
     class="Note"
     d="m 1701.8834,64.756356 c 0,5.584693 4.7476,10.559532 17.1488,10.559532 13.6209,0 17.9858,-4.735666 17.9858,-10.559532 0,-5.895617 -9.4115,-10.33226 -17.1487,-10.33226 -11.0977,0 -17.9859,4.675816 -17.9859,10.33226 m 8.9571,-3.06142 c 0,-4.281198 2.9777,-5.357455 6.8881,-5.357455 5.6685,0 10.2606,6.122809 10.2606,11.181325 0,4.209447 -2.607,5.883697 -6.362,5.883697 -5.5129,0 -10.7867,-6.350081 -10.7867,-11.707567"
     id="path228"
     inkscape:connector-curvature="0"
     style="stroke-width:0.76535398" />
  <path
     class="Note"
     d="m 1949.0734,83.890356 c 0,5.584693 4.7476,10.559532 17.1488,10.559532 13.6209,0 17.9858,-4.735666 17.9858,-10.559532 0,-5.895617 -9.4115,-10.33226 -17.1487,-10.33226 -11.0977,0 -17.9859,4.675816 -17.9859,10.33226 m 8.9571,-3.06142 c 0,-4.281198 2.9777,-5.357455 6.8881,-5.357455 5.6685,0 10.2606,6.122809 10.2606,11.181325 0,4.209447 -2.607,5.883697 -6.362,5.883697 -5.5129,0 -10.7867,-6.350081 -10.7867,-11.707567"
     id="path230"
     inkscape:connector-curvature="0"
     style="stroke-width:0.76535398" />
  <path
     class="Note"
     d="m 2305.6634,103.02436 c 0,5.58469 4.7476,10.55953 17.1488,10.55953 13.6209,0 17.9858,-4.73567 17.9858,-10.55953 0,-5.895621 -9.4115,-10.332264 -17.1487,-10.332264 -11.0977,0 -17.9859,4.675816 -17.9859,10.332264 m 8.9571,-3.061424 c 0,-4.281198 2.9777,-5.357455 6.8881,-5.357455 5.6685,0 10.2606,6.122809 10.2606,11.181329 0,4.20944 -2.607,5.88369 -6.362,5.88369 -5.5129,0 -10.7867,-6.35008 -10.7867,-11.707564"
     id="path232"
     inkscape:connector-curvature="0"
     style="stroke-width:0.76535398" />
  <path
     class="Clef"
     d="m 48.646339,496.1888 c 0.382681,0 0.849065,-0.15545 1.303494,-0.38268 18.834903,-9.18425 38.734107,-22.80518 38.734107,-46.0767 0,-13.31002 -8.119947,-22.19525 -21.358199,-22.19525 -13.32192,0 -19.289293,9.72237 -19.289293,17.06498 0,6.12284 3.216882,11.40856 9.411482,11.40856 4.819357,0 8.119946,-3.37234 8.119946,-8.10797 0,-4.90305 -3.599613,-7.96446 -7.354592,-7.96446 -2.068829,0 -2.834221,0.53813 -3.826786,0.53813 -0.992572,0 -1.219783,-0.60992 -1.219783,-1.37528 0,-3.06141 4.592101,-8.65806 12.401161,-8.65806 8.107931,0 11.635754,7.9645 11.635754,19.98295 0,21.35818 -10.571452,33.29288 -28.401828,43.46972 -0.693602,0.38267 -1.148031,0.76535 -1.148031,1.37526 0,0.46641 0.310925,0.9208 0.992568,0.9208 m 47.535697,-53.95746 c 2.367776,0 4.209444,-1.84163 4.209444,-4.20945 0,-2.36785 -1.841668,-4.20944 -4.209444,-4.20944 -2.379791,0 -4.209447,1.84159 -4.209447,4.20944 0,2.36782 1.829656,4.20945 4.209447,4.20945 m 0.07171,19.06214 c 2.379792,0 4.137734,-1.76988 4.137734,-4.13774 0,-2.36781 -1.757942,-4.13769 -4.137734,-4.13769 -2.367776,0 -4.125717,1.76988 -4.125717,4.13769 0,2.36786 1.757941,4.13774 4.125717,4.13774"
     id="path234"
     inkscape:connector-curvature="0"
     style="stroke-width:0.76535398" />
  <path
     class="Clef"
     d="m 48.646339,295.2838 c 0.382681,0 0.849065,-0.15545 1.303494,-0.38268 18.834903,-9.18425 38.734107,-22.80518 38.734107,-46.0767 0,-13.31002 -8.119947,-22.19525 -21.358199,-22.19525 -13.32192,0 -19.289293,9.72237 -19.289293,17.06498 0,6.12284 3.216882,11.40856 9.411482,11.40856 4.819357,0 8.119946,-3.37234 8.119946,-8.10797 0,-4.90305 -3.599613,-7.96446 -7.354592,-7.96446 -2.068829,0 -2.834221,0.53813 -3.826786,0.53813 -0.992572,0 -1.219783,-0.60992 -1.219783,-1.37528 0,-3.06141 4.592101,-8.65806 12.401161,-8.65806 8.107931,0 11.635754,7.9645 11.635754,19.98295 0,21.35818 -10.571452,33.29288 -28.401828,43.46972 -0.693602,0.38267 -1.148031,0.76535 -1.148031,1.37526 0,0.46641 0.310925,0.9208 0.992568,0.9208 m 47.535697,-53.95746 c 2.367776,0 4.209444,-1.84163 4.209444,-4.20945 0,-2.36785 -1.841668,-4.20944 -4.209444,-4.20944 -2.379791,0 -4.209447,1.84159 -4.209447,4.20944 0,2.36782 1.829656,4.20945 4.209447,4.20945 m 0.07171,19.06214 c 2.379792,0 4.137734,-1.76988 4.137734,-4.13774 0,-2.36781 -1.757942,-4.13769 -4.137734,-4.13769 -2.367776,0 -4.125717,1.76988 -4.125717,4.13769 0,2.36786 1.757941,4.13774 4.125717,4.13774"
     id="path236"
     inkscape:connector-curvature="0"
     style="stroke-width:0.76535398" />
  <path
     class="Clef"
     d="m 75.900155,103.33511 c 1.757865,0 3.743041,-0.15544 5.273749,-0.46633 0.849083,-0.1435 1.004527,-0.22723 1.148031,0.69357 0.920797,5.13024 2.068828,11.79127 2.068828,15.39081 0,11.32486 -7.65354,12.70005 -12.161934,12.70005 -4.137734,0 -6.134772,-1.21974 -6.134772,-2.22427 0,-0.52618 0.693564,-0.76536 2.451506,-1.29154 2.379791,-0.69364 5.130244,-2.76247 5.130244,-7.19915 0,-4.20944 -2.678739,-7.80898 -7.342577,-7.80898 -5.130321,0 -8.191737,4.054 -8.191737,8.80157 0,4.9748 2.977763,12.4729 14.541726,12.4729 5.130321,0 15.079923,-2.29606 15.079923,-15.30708 0,-4.35295 -1.375264,-11.62381 -2.224348,-16.37138 -0.155443,-0.92088 -0.07171,-0.84909 0.992588,-1.30355 7.737269,-3.061419 12.867514,-9.566928 12.867514,-18.213017 0,-9.806137 -7.19915,-18.452188 -18.452226,-18.452188 -1.985099,0 -1.985099,0 -2.212332,-1.375264 L 76.820953,52.283628 c -0.155444,-0.920798 0,-0.992588 0.45439,-1.458995 8.263451,-7.725253 14.541726,-17.447622 14.541726,-29.155165 0,-6.660953 -1.841594,-13.2501913 -4.974801,-17.842698 C 85.694237,2.1529408 83.709139,0 82.860055,0 81.795754,0 79.415962,1.9975739 77.885254,3.6836488 72.228829,9.9499847 70.387157,19.51691 70.387157,27.481336 c 0,4.436681 0.538197,9.411482 1.076318,12.556628 0.143504,0.920797 0.227233,1.064301 -0.693641,1.829655 -11.025842,9.112534 -22.733386,20.054647 -22.733386,35.517224 0,13.321951 9.112534,25.950267 27.863707,25.950267 M 54.15928,82.515111 c 0,-4.520372 0.765354,-10.559513 7.11542,-17.758586 4.592124,-5.130321 8.119946,-7.964503 11.719483,-10.870476 0.765354,-0.609834 0.908858,-0.53812 1.064301,0.310964 l 1.614438,9.794158 c 0.227233,1.458918 0.227233,1.375188 -1.148031,1.841595 -6.744682,2.296062 -11.109573,8.335164 -11.109573,14.840712 0,6.888186 3.599537,11.791235 8.813511,13.549176 0.60991,0.227234 1.530708,0.466407 2.056889,0.466407 0.62185,0 0.920797,-0.382677 0.920797,-0.849084 0,-0.53812 -0.609911,-0.765354 -1.148031,-0.992587 -3.216859,-1.375242 -5.512921,-4.663876 -5.512921,-8.19168 0,-4.364909 2.989625,-7.653544 7.65354,-8.957072 1.23176,-0.298947 1.387204,-0.227157 1.530708,0.621851 l 3.82677,22.805176 c 0.155443,0.837144 0.08373,0.837144 -1.064302,1.064375 -1.23176,0.23918 -2.762468,0.38268 -4.293176,0.38268 -13.393695,0 -22.039823,-7.414367 -22.039823,-18.057609 M 84.008086,11.86337 c 2.523296,0 4.592124,2.068828 4.592124,6.278275 0,8.502624 -7.270863,15.39081 -13.309965,20.664558 -0.538121,0.466407 -0.849084,0.382677 -1.004527,-0.609911 -0.298948,-1.985098 -0.454468,-4.592124 -0.454468,-7.043629 0,-11.934701 5.512998,-19.289293 10.176836,-19.289293 m -2.212332,63.225434 c 6.194545,0.538121 11.324866,5.740132 11.324866,12.47286 0,4.831335 -2.905972,8.729819 -7.199149,10.870437 -0.920797,0.466407 -1.064301,0.466407 -1.219745,-0.454467 L 80.94667,76.165045 c -0.155443,-0.920797 -0.07171,-1.148031 0.849084,-1.076241"
     id="path238"
     inkscape:connector-curvature="0"
     style="stroke-width:0.76535398" />
  <path
     class="TimeSig"
     d="m 124.49993,480.65463 c 2.90597,3.51589 7.11542,5.13033 11.70754,5.13033 13.39369,0 15.39081,-12.17396 15.39081,-14.39827 0,-1.67421 -0.84908,-1.67421 -1.14803,-1.67421 -0.60991,0 -1.14803,0.0717 -1.14803,1.37525 0,9.86593 -8.4189,12.16199 -10.87048,12.16199 -6.20648,0 -9.49513,-6.03918 -9.49513,-18.6675 0,-12.62836 5.82388,-15.23531 9.9496,-15.23531 3.98221,0 5.59665,1.8416 5.59665,2.60695 0,0.68162 -0.23917,1.68615 -1.3872,1.68615 -3.06142,0 -4.81936,3.28865 -4.81936,5.65648 0,4.36491 3.75505,5.74015 5.8956,5.74015 0,0 5.81194,-0.22721 5.81194,-6.57727 0,-10.03333 -11.5521,-10.94219 -13.01102,-10.94219 -10.87043,0 -17.4477,9.63871 -17.4477,19.97099 0,4.9748 1.84164,9.33969 4.97481,13.16646"
     id="path240"
     inkscape:connector-curvature="0"
     style="stroke-width:0.76535398" />
  <path
     class="TimeSig"
     d="m 124.49993,279.74963 c 2.90597,3.51589 7.11542,5.13033 11.70754,5.13033 13.39369,0 15.39081,-12.17396 15.39081,-14.39827 0,-1.67421 -0.84908,-1.67421 -1.14803,-1.67421 -0.60991,0 -1.14803,0.0718 -1.14803,1.37525 0,9.86593 -8.4189,12.16199 -10.87048,12.16199 -6.20648,0 -9.49513,-6.03918 -9.49513,-18.6675 0,-12.62836 5.82388,-15.23531 9.9496,-15.23531 3.98221,0 5.59665,1.8416 5.59665,2.60695 0,0.68162 -0.23917,1.68615 -1.3872,1.68615 -3.06142,0 -4.81936,3.28865 -4.81936,5.65648 0,4.36491 3.75505,5.74015 5.8956,5.74015 0,0 5.81194,-0.22721 5.81194,-6.57727 0,-10.03333 -11.5521,-10.94219 -13.01102,-10.94219 -10.87043,0 -17.4477,9.63871 -17.4477,19.97099 0,4.9748 1.84164,9.33969 4.97481,13.16646"
     id="path242"
     inkscape:connector-curvature="0"
     style="stroke-width:0.76535398" />
  <path
     class="TimeSig"
     d="m 124.49993,78.843634 c 2.90597,3.515883 7.11542,5.130321 11.70754,5.130321 13.39369,0 15.39081,-12.17395 15.39081,-14.39826 0,-1.674212 -0.84908,-1.674212 -1.14803,-1.674212 -0.60991,0 -1.14803,0.07175 -1.14803,1.375249 0,9.865926 -8.4189,12.161988 -10.87048,12.161988 -6.20648,0 -9.49513,-6.039179 -9.49513,-18.667504 0,-12.628357 5.82388,-15.235306 9.9496,-15.235306 3.98221,0 5.59665,1.841595 5.59665,2.606949 0,0.681624 -0.23917,1.686152 -1.3872,1.686152 -3.06142,0 -4.81936,3.288649 -4.81936,5.656478 0,4.364914 3.75505,5.740155 5.8956,5.740155 0,0 5.81194,-0.22721 5.81194,-6.577276 0,-10.033332 -11.5521,-10.942189 -13.01102,-10.942189 -10.87043,0 -17.4477,9.638715 -17.4477,19.970994 0,4.974801 1.84164,9.339691 4.97481,13.166461"
     id="path244"
     inkscape:connector-curvature="0"
     style="stroke-width:0.76535398" />
  <path
     class="Rest"
     d="m 198.81746,494.74197 c 0.60991,0.45439 1.37527,0.68162 1.98518,0.68162 0.53812,0 1.07624,-0.15544 1.14803,-0.45439 0.0837,-0.22723 0.15544,-0.38267 0.15544,-0.53819 0,-0.69357 -0.60991,-1.30348 -1.21974,-1.8416 -1.00453,0 -1.84167,-2.05689 -1.99712,-2.75053 -0.22723,-0.60983 -0.29894,-1.30347 -0.29894,-1.9851 0,-3.14514 1.60242,-5.59665 4.81928,-5.59665 2.21241,0 4.74764,0.84909 5.96738,1.30348 0.0837,0 0.15545,0.0718 0.22724,0.0718 0.23917,0.0836 0.38268,0.0836 0.53812,0.0836 0.22723,0 0.38268,-0.0836 0.38268,-0.31089 0,-0.92079 -1.9851,-3.44409 -2.83419,-4.36489 -2.90597,-3.51588 -5.27374,-6.35008 -5.27374,-10.63128 0,-0.31092 0.0717,-0.6936 0.0717,-0.99257 0.31096,-4.44862 3.06141,-8.11993 5.04659,-11.25311 0.23917,-0.38268 0.31089,-0.76536 0.31089,-1.14803 0,-0.76536 -0.31089,-1.45892 -0.31089,-1.45892 0,0 -11.32488,-13.46549 -12.62838,-14.76896 -0.38268,-0.38268 -0.90886,-0.60991 -1.37524,-0.60991 -0.76535,0 -1.53071,0.52618 -1.53071,1.6025 0,0.38267 0.0837,0.76535 0.31093,1.21974 0.29896,0.84908 4.66387,4.74757 4.66387,10.26057 0,2.83418 -1.14803,6.12283 -4.59212,9.72236 -0.76536,0.76536 -1.06433,1.60246 -1.06433,2.22431 0,1.06432 0.76536,1.82967 0.76536,1.82967 l 3.74306,4.59214 c 1.23174,1.5307 2.29608,2.98966 3.28867,4.59212 0.15544,0.3109 0.46633,0.92081 0.46633,1.07626 0,0.0718 0,0.22723 -0.0837,0.29902 -0.1435,0.31089 -0.45446,0.38268 -0.83714,0.38268 -0.31089,0 -0.9208,-0.14351 -1.21978,-0.22724 -0.38268,0 -0.84906,-0.22723 -1.23174,-0.22723 -3.28864,0 -6.2783,3.28865 -6.2783,7.34265 0,3.83871 3.30059,7.58175 8.88526,11.87493"
     id="path246"
     inkscape:connector-curvature="0"
     style="stroke-width:0.76535398" />
  <path
     class="Rest"
     d="m 198.81746,293.83697 c 0.60991,0.45439 1.37527,0.68162 1.98518,0.68162 0.53812,0 1.07624,-0.15544 1.14803,-0.45439 0.0837,-0.22723 0.15544,-0.38267 0.15544,-0.53819 0,-0.69357 -0.60991,-1.30348 -1.21974,-1.8416 -1.00453,0 -1.84167,-2.05689 -1.99712,-2.75053 -0.22723,-0.60983 -0.29894,-1.30347 -0.29894,-1.9851 0,-3.14514 1.60242,-5.59665 4.81928,-5.59665 2.21241,0 4.74764,0.84909 5.96738,1.30348 0.0837,0 0.15545,0.0718 0.22724,0.0718 0.23917,0.0837 0.38268,0.0837 0.53812,0.0837 0.22723,0 0.38268,-0.0837 0.38268,-0.31089 0,-0.92079 -1.9851,-3.44409 -2.83419,-4.36489 -2.90597,-3.51588 -5.27374,-6.35008 -5.27374,-10.63128 0,-0.31092 0.0717,-0.6936 0.0717,-0.99257 0.31096,-4.44862 3.06141,-8.11993 5.04659,-11.25311 0.23917,-0.38268 0.31089,-0.76536 0.31089,-1.14803 0,-0.76536 -0.31089,-1.45892 -0.31089,-1.45892 0,0 -11.32488,-13.46549 -12.62838,-14.76896 -0.38268,-0.38268 -0.90886,-0.60991 -1.37524,-0.60991 -0.76535,0 -1.53071,0.52618 -1.53071,1.6025 0,0.38267 0.0837,0.76535 0.31093,1.21974 0.29896,0.84908 4.66387,4.74757 4.66387,10.26057 0,2.83418 -1.14803,6.12283 -4.59212,9.72236 -0.76536,0.76536 -1.06433,1.60246 -1.06433,2.22431 0,1.06432 0.76536,1.82967 0.76536,1.82967 l 3.74306,4.59214 c 1.23174,1.5307 2.29608,2.98966 3.28867,4.59212 0.15544,0.3109 0.46633,0.92081 0.46633,1.07626 0,0.0718 0,0.22723 -0.0837,0.29902 -0.1435,0.31089 -0.45446,0.38268 -0.83714,0.38268 -0.31089,0 -0.9208,-0.14351 -1.21978,-0.22724 -0.38268,0 -0.84906,-0.22723 -1.23174,-0.22723 -3.28864,0 -6.2783,3.28865 -6.2783,7.34265 0,3.83871 3.30059,7.58175 8.88526,11.87493"
     id="path248"
     inkscape:connector-curvature="0"
     style="stroke-width:0.76535398" />
  <path
     class="Hook"
     d="m 422.39329,450.68637 c 1.14804,2.60695 1.82974,6.97191 1.82974,11.48031 0,3.44409 -0.52618,7.04363 -1.82974,10.48772 -0.15544,0.46641 -0.22715,0.84908 -0.22715,1.14803 0,1.23176 0.76535,1.91339 1.21974,2.22435 0.45447,0.31089 1.75794,-0.15552 2.14062,-1.459 0,0 1.99712,-7.27086 1.99712,-13.23825 0,-9.56692 -3.98229,-18.59565 -8.80158,-26.24919 -3.91051,-6.05112 -7.12739,-12.62834 -8.34718,-19.98295 -0.22721,-1.21979 -0.8371,-1.68617 -1.60246,-1.68617 -0.84906,0 -1.45895,0.23917 -1.45895,1.14803 v 18.29674 c 5.04655,0.9208 12.31745,11.32487 15.07984,17.83038"
     id="path250"
     inkscape:connector-curvature="0"
     style="stroke-width:0.76535398" />
  <path
     class="Hook"
     d="m 776.30329,465.03637 c 1.14804,2.60695 1.82974,6.97191 1.82974,11.48031 0,3.44409 -0.52618,7.04363 -1.82974,10.48772 -0.15544,0.46641 -0.22715,0.84908 -0.22715,1.14803 0,1.23176 0.76535,1.91339 1.21974,2.22435 0.45447,0.31089 1.75794,-0.15552 2.14062,-1.459 0,0 1.99712,-7.27086 1.99712,-13.23825 0,-9.56692 -3.98229,-18.59565 -8.80158,-26.24919 -3.91051,-6.05112 -7.12739,-12.62834 -8.34718,-19.98295 -0.22721,-1.21979 -0.8371,-1.68617 -1.60246,-1.68617 -0.84906,0 -1.45895,0.23917 -1.45895,1.14803 v 18.29674 c 5.04655,0.9208 12.31745,11.32487 15.07984,17.83038"
     id="path252"
     inkscape:connector-curvature="0"
     style="stroke-width:0.76535398" />
  <path
     class="Hook"
     d="m 1125.2433,484.17037 c 1.148,2.60695 1.8297,6.97191 1.8297,11.48031 0,3.44409 -0.5262,7.04363 -1.8297,10.48772 -0.1554,0.46641 -0.2272,0.84908 -0.2272,1.14803 0,1.23176 0.7654,1.91339 1.2198,2.22435 0.4544,0.31089 1.7579,-0.15552 2.1406,-1.459 0,0 1.9971,-7.27086 1.9971,-13.23825 0,-9.56692 -3.9823,-18.59565 -8.8016,-26.24919 -3.9105,-6.05112 -7.1274,-12.62834 -8.3471,-19.98295 -0.2272,-1.21979 -0.8371,-1.68617 -1.6025,-1.68617 -0.8491,0 -1.459,0.23917 -1.459,1.14803 v 18.29674 c 5.0466,0.9208 12.3175,11.32487 15.0799,17.83038"
     id="path254"
     inkscape:connector-curvature="0"
     style="stroke-width:0.76535398" />
  <path
     class="Hook"
     d="m 1476.8533,503.30437 c 1.148,2.60695 1.8297,6.97191 1.8297,11.48031 0,3.44409 -0.5262,7.04363 -1.8297,10.48772 -0.1554,0.46641 -0.2272,0.84908 -0.2272,1.14803 0,1.23176 0.7654,1.91339 1.2198,2.22435 0.4544,0.31089 1.7579,-0.15552 2.1406,-1.459 0,0 1.9971,-7.27086 1.9971,-13.23825 0,-9.56692 -3.9823,-18.59565 -8.8016,-26.24919 -3.9105,-6.05112 -7.1274,-12.62834 -8.3471,-19.98295 -0.2272,-1.21979 -0.8371,-1.68617 -1.6025,-1.68617 -0.8491,0 -1.459,0.23917 -1.459,1.14803 v 18.29674 c 5.0466,0.9208 12.3175,11.32487 15.0799,17.83038"
     id="path256"
     inkscape:connector-curvature="0"
     style="stroke-width:0.76535398" />
  <path
     class="Hook"
     d="m 1824.9733,474.60337 c 1.148,2.60695 1.8297,6.97191 1.8297,11.48031 0,3.44409 -0.5262,7.04363 -1.8297,10.48772 -0.1554,0.46641 -0.2272,0.84908 -0.2272,1.14803 0,1.23176 0.7654,1.91339 1.2198,2.22435 0.4544,0.31089 1.7579,-0.15552 2.1406,-1.459 0,0 1.9971,-7.27086 1.9971,-13.23825 0,-9.56692 -3.9823,-18.59565 -8.8016,-26.24919 -3.9105,-6.05112 -7.1274,-12.62834 -8.3471,-19.98295 -0.2272,-1.21979 -0.8371,-1.68617 -1.6025,-1.68617 -0.8491,0 -1.459,0.23917 -1.459,1.14803 v 18.29674 c 5.0466,0.9208 12.3175,11.32487 15.0799,17.83038"
     id="path258"
     inkscape:connector-curvature="0"
     style="stroke-width:0.76535398" />
  <path
     class="Hook"
     d="m 2077.9533,493.73737 c 1.148,2.60695 1.8297,6.97191 1.8297,11.48031 0,3.44409 -0.5262,7.04363 -1.8297,10.48772 -0.1554,0.46641 -0.2272,0.84908 -0.2272,1.14803 0,1.23176 0.7654,1.91339 1.2198,2.22435 0.4544,0.31089 1.7579,-0.15552 2.1406,-1.459 0,0 1.9971,-7.27086 1.9971,-13.23825 0,-9.56692 -3.9823,-18.59565 -8.8016,-26.24919 -3.9105,-6.05112 -7.1274,-12.62834 -8.3471,-19.98295 -0.2272,-1.21979 -0.8371,-1.68617 -1.6025,-1.68617 -0.8491,0 -1.459,0.23917 -1.459,1.14803 v 18.29674 c 5.0466,0.9208 12.3175,11.32487 15.0799,17.83038"
     id="path260"
     inkscape:connector-curvature="0"
     style="stroke-width:0.76535398" />
  <path
     class="Hook"
     d="m 422.39329,249.78137 c 1.14804,2.60695 1.82974,6.97191 1.82974,11.48031 0,3.44409 -0.52618,7.04363 -1.82974,10.48772 -0.15544,0.46641 -0.22715,0.84908 -0.22715,1.14803 0,1.23176 0.76535,1.91339 1.21974,2.22435 0.45447,0.31089 1.75794,-0.15552 2.14062,-1.459 0,0 1.99712,-7.27086 1.99712,-13.23825 0,-9.56692 -3.98229,-18.59565 -8.80158,-26.24919 -3.91051,-6.05112 -7.12739,-12.62834 -8.34718,-19.98295 -0.22721,-1.21979 -0.8371,-1.68617 -1.60246,-1.68617 -0.84906,0 -1.45895,0.23917 -1.45895,1.14803 v 18.29674 c 5.04655,0.9208 12.31745,11.32487 15.07984,17.83038"
     id="path262"
     inkscape:connector-curvature="0"
     style="stroke-width:0.76535398" />
  <path
     class="Hook"
     d="m 776.30329,264.13137 c 1.14804,2.60695 1.82974,6.97191 1.82974,11.48031 0,3.44409 -0.52618,7.04363 -1.82974,10.48772 -0.15544,0.46641 -0.22715,0.84908 -0.22715,1.14803 0,1.23176 0.76535,1.91339 1.21974,2.22435 0.45447,0.31089 1.75794,-0.15552 2.14062,-1.459 0,0 1.99712,-7.27086 1.99712,-13.23825 0,-9.56692 -3.98229,-18.59565 -8.80158,-26.24919 -3.91051,-6.05112 -7.12739,-12.62834 -8.34718,-19.98295 -0.22721,-1.21979 -0.8371,-1.68617 -1.60246,-1.68617 -0.84906,0 -1.45895,0.23917 -1.45895,1.14803 v 18.29674 c 5.04655,0.9208 12.31745,11.32487 15.07984,17.83038"
     id="path264"
     inkscape:connector-curvature="0"
     style="stroke-width:0.76535398" />
  <path
     class="Hook"
     d="m 1125.2433,283.26537 c 1.148,2.60695 1.8297,6.97191 1.8297,11.48031 0,3.44409 -0.5262,7.04363 -1.8297,10.48772 -0.1554,0.46641 -0.2272,0.84908 -0.2272,1.14803 0,1.23176 0.7654,1.91339 1.2198,2.22435 0.4544,0.31089 1.7579,-0.15552 2.1406,-1.459 0,0 1.9971,-7.27086 1.9971,-13.23825 0,-9.56692 -3.9823,-18.59565 -8.8016,-26.24919 -3.9105,-6.05112 -7.1274,-12.62834 -8.3471,-19.98295 -0.2272,-1.21979 -0.8371,-1.68617 -1.6025,-1.68617 -0.8491,0 -1.459,0.23917 -1.459,1.14803 v 18.29674 c 5.0466,0.9208 12.3175,11.32487 15.0799,17.83038"
     id="path266"
     inkscape:connector-curvature="0"
     style="stroke-width:0.76535398" />
  <path
     class="Hook"
     d="m 1476.8533,302.39937 c 1.148,2.60695 1.8297,6.97191 1.8297,11.48031 0,3.44409 -0.5262,7.04363 -1.8297,10.48772 -0.1554,0.46641 -0.2272,0.84908 -0.2272,1.14803 0,1.23176 0.7654,1.91339 1.2198,2.22435 0.4544,0.31089 1.7579,-0.15552 2.1406,-1.459 0,0 1.9971,-7.27086 1.9971,-13.23825 0,-9.56692 -3.9823,-18.59565 -8.8016,-26.24919 -3.9105,-6.05112 -7.1274,-12.62834 -8.3471,-19.98295 -0.2272,-1.21979 -0.8371,-1.68617 -1.6025,-1.68617 -0.8491,0 -1.459,0.23917 -1.459,1.14803 v 18.29674 c 5.0466,0.9208 12.3175,11.32487 15.0799,17.83038"
     id="path268"
     inkscape:connector-curvature="0"
     style="stroke-width:0.76535398" />
  <path
     class="Hook"
     d="m 1824.9733,273.69837 c 1.148,2.60695 1.8297,6.97191 1.8297,11.48031 0,3.44409 -0.5262,7.04363 -1.8297,10.48772 -0.1554,0.46641 -0.2272,0.84908 -0.2272,1.14803 0,1.23176 0.7654,1.91339 1.2198,2.22435 0.4544,0.31089 1.7579,-0.15552 2.1406,-1.459 0,0 1.9971,-7.27086 1.9971,-13.23825 0,-9.56692 -3.9823,-18.59565 -8.8016,-26.24919 -3.9105,-6.05112 -7.1274,-12.62834 -8.3471,-19.98295 -0.2272,-1.21979 -0.8371,-1.68617 -1.6025,-1.68617 -0.8491,0 -1.459,0.23917 -1.459,1.14803 v 18.29674 c 5.0466,0.9208 12.3175,11.32487 15.0799,17.83038"
     id="path270"
     inkscape:connector-curvature="0"
     style="stroke-width:0.76535398" />
  <path
     class="Hook"
     d="m 2077.9533,292.83237 c 1.148,2.60695 1.8297,6.97191 1.8297,11.48031 0,3.44409 -0.5262,7.04363 -1.8297,10.48772 -0.1554,0.46641 -0.2272,0.84908 -0.2272,1.14803 0,1.23176 0.7654,1.91339 1.2198,2.22435 0.4544,0.31089 1.7579,-0.15552 2.1406,-1.459 0,0 1.9971,-7.27086 1.9971,-13.23825 0,-9.56692 -3.9823,-18.59565 -8.8016,-26.24919 -3.9105,-6.05112 -7.1274,-12.62834 -8.3471,-19.98295 -0.2272,-1.21979 -0.8371,-1.68617 -1.6025,-1.68617 -0.8491,0 -1.459,0.23917 -1.459,1.14803 v 18.29674 c 5.0466,0.9208 12.3175,11.32487 15.0799,17.83038"
     id="path272"
     inkscape:connector-curvature="0"
     style="stroke-width:0.76535398" />
  <path
     class="Hook"
     d="m 2436.3233,249.78137 c 1.148,2.60695 1.8297,6.97191 1.8297,11.48031 0,3.44409 -0.5262,7.04363 -1.8297,10.48772 -0.1554,0.46641 -0.2272,0.84908 -0.2272,1.14803 0,1.23176 0.7654,1.91339 1.2198,2.22435 0.4544,0.31089 1.7579,-0.15552 2.1406,-1.459 0,0 1.9971,-7.27086 1.9971,-13.23825 0,-9.56692 -3.9823,-18.59565 -8.8016,-26.24919 -3.9105,-6.05112 -7.1274,-12.62834 -8.3471,-19.98295 -0.2272,-1.21979 -0.8371,-1.68617 -1.6025,-1.68617 -0.8491,0 -1.459,0.23917 -1.459,1.14803 v 18.29674 c 5.0466,0.9208 12.3175,11.32487 15.0799,17.83038"
     id="path274"
     inkscape:connector-curvature="0"
     style="stroke-width:0.76535398" />
  <path
     class="NoteDot"
     d="m 337.06122,480.11659 c 2.1406,0 3.82677,-1.68617 3.82677,-3.82677 0,-2.1406 -1.68617,-3.82677 -3.82677,-3.82677 -2.1406,0 -3.82677,1.68617 -3.82677,3.82677 0,2.1406 1.68617,3.82677 3.82677,3.82677"
     id="path276"
     inkscape:connector-curvature="0"
     style="stroke-width:0.76535398" />
  <path
     class="NoteDot"
     d="m 690.97122,499.25059 c 2.1406,0 3.82677,-1.68617 3.82677,-3.82677 0,-2.1406 -1.68617,-3.82677 -3.82677,-3.82677 -2.1406,0 -3.82677,1.68617 -3.82677,3.82677 0,2.1406 1.68617,3.82677 3.82677,3.82677"
     id="path278"
     inkscape:connector-curvature="0"
     style="stroke-width:0.76535398" />
  <path
     class="NoteDot"
     d="m 1039.9102,518.38459 c 2.1406,0 3.8268,-1.68617 3.8268,-3.82677 0,-2.1406 -1.6862,-3.82677 -3.8268,-3.82677 -2.1406,0 -3.8268,1.68617 -3.8268,3.82677 0,2.1406 1.6862,3.82677 3.8268,3.82677"
     id="path280"
     inkscape:connector-curvature="0"
     style="stroke-width:0.76535398" />
  <path
     class="NoteDot"
     d="m 1391.5202,537.51859 c 2.1406,0 3.8268,-1.68617 3.8268,-3.82677 0,-2.1406 -1.6862,-3.82677 -3.8268,-3.82677 -2.1406,0 -3.8268,1.68617 -3.8268,3.82677 0,2.1406 1.6862,3.82677 3.8268,3.82677"
     id="path282"
     inkscape:connector-curvature="0"
     style="stroke-width:0.76535398" />
  <path
     class="NoteDot"
     d="m 1745.4302,499.25059 c 2.1406,0 3.8268,-1.68617 3.8268,-3.82677 0,-2.1406 -1.6862,-3.82677 -3.8268,-3.82677 -2.1406,0 -3.8268,1.68617 -3.8268,3.82677 0,2.1406 1.6862,3.82677 3.8268,3.82677"
     id="path284"
     inkscape:connector-curvature="0"
     style="stroke-width:0.76535398" />
  <path
     class="NoteDot"
     d="m 1992.6302,518.38459 c 2.1406,0 3.8268,-1.68617 3.8268,-3.82677 0,-2.1406 -1.6862,-3.82677 -3.8268,-3.82677 -2.1406,0 -3.8268,1.68617 -3.8268,3.82677 0,2.1406 1.6862,3.82677 3.8268,3.82677"
     id="path286"
     inkscape:connector-curvature="0"
     style="stroke-width:0.76535398" />
  <path
     class="NoteDot"
     d="m 337.06122,279.21159 c 2.1406,0 3.82677,-1.68617 3.82677,-3.82677 0,-2.1406 -1.68617,-3.82677 -3.82677,-3.82677 -2.1406,0 -3.82677,1.68617 -3.82677,3.82677 0,2.1406 1.68617,3.82677 3.82677,3.82677"
     id="path288"
     inkscape:connector-curvature="0"
     style="stroke-width:0.76535398" />
  <path
     class="NoteDot"
     d="m 690.97122,298.34459 c 2.1406,0 3.82677,-1.68617 3.82677,-3.82677 0,-2.1406 -1.68617,-3.82677 -3.82677,-3.82677 -2.1406,0 -3.82677,1.68617 -3.82677,3.82677 0,2.1406 1.68617,3.82677 3.82677,3.82677"
     id="path290"
     inkscape:connector-curvature="0"
     style="stroke-width:0.76535398" />
  <path
     class="NoteDot"
     d="m 1039.9102,317.47859 c 2.1406,0 3.8268,-1.68617 3.8268,-3.82677 0,-2.1406 -1.6862,-3.82677 -3.8268,-3.82677 -2.1406,0 -3.8268,1.68617 -3.8268,3.82677 0,2.1406 1.6862,3.82677 3.8268,3.82677"
     id="path292"
     inkscape:connector-curvature="0"
     style="stroke-width:0.76535398" />
  <path
     class="NoteDot"
     d="m 1391.5202,336.61259 c 2.1406,0 3.8268,-1.68617 3.8268,-3.82677 0,-2.1406 -1.6862,-3.82677 -3.8268,-3.82677 -2.1406,0 -3.8268,1.68617 -3.8268,3.82677 0,2.1406 1.6862,3.82677 3.8268,3.82677"
     id="path294"
     inkscape:connector-curvature="0"
     style="stroke-width:0.76535398" />
  <path
     class="NoteDot"
     d="m 1745.4302,298.34459 c 2.1406,0 3.8268,-1.68617 3.8268,-3.82677 0,-2.1406 -1.6862,-3.82677 -3.8268,-3.82677 -2.1406,0 -3.8268,1.68617 -3.8268,3.82677 0,2.1406 1.6862,3.82677 3.8268,3.82677"
     id="path296"
     inkscape:connector-curvature="0"
     style="stroke-width:0.76535398" />
  <path
     class="NoteDot"
     d="m 1992.6302,317.47859 c 2.1406,0 3.8268,-1.68617 3.8268,-3.82677 0,-2.1406 -1.6862,-3.82677 -3.8268,-3.82677 -2.1406,0 -3.8268,1.68617 -3.8268,3.82677 0,2.1406 1.6862,3.82677 3.8268,3.82677"
     id="path298"
     inkscape:connector-curvature="0"
     style="stroke-width:0.76535398" />
  <path
     class="NoteDot"
     d="m 2349.2102,279.21159 c 2.1406,0 3.8268,-1.68617 3.8268,-3.82677 0,-2.1406 -1.6862,-3.82677 -3.8268,-3.82677 -2.1406,0 -3.8268,1.68617 -3.8268,3.82677 0,2.1406 1.6862,3.82677 3.8268,3.82677"
     id="path300"
     inkscape:connector-curvature="0"
     style="stroke-width:0.76535398" />
  <path
     class="Bracket"
     d="m 13.048397,394.83814 c 0,19.42087 -9.710435,36.63081 -9.710435,56.87541 0,27.74401 7.456227,43.82693 13.568613,51.62996 1.127104,1.38721 1.690642,1.64731 2.210844,1.64731 0.867003,0 1.69067,-0.82365 1.69067,-1.64731 0,-0.867 -0.303465,-1.69067 -1.387205,-3.07787 -1.387205,-2.21085 -7.759692,-16.0829 -7.759692,-30.77867 0,-14.69577 8.32323,-40.79243 10.230637,-57.17892 0.303465,-1.38721 0.303465,-2.77441 0.303465,-4.42158 0,-16.3865 -9.146897,-36.06733 -17.210026,-41.05267 8.063129,-5.02862 17.210026,-24.70945 17.210026,-41.09595 0,-1.3872 0,-3.03437 -0.303465,-4.42157 -1.907407,-16.64646 -10.230637,-42.43988 -10.230637,-57.43917 0,-14.43553 6.372487,-28.30758 7.759692,-30.77847 1.08374,-1.12724 1.387205,-1.95069 1.387205,-2.77441 0,-0.56348 -0.303465,-1.12724 -0.563566,-1.12724 -0.260101,-0.25997 -0.563538,-0.82345 -1.127104,-0.82345 -0.520202,0 -1.08374,0.56348 -2.210844,1.95069 -6.112386,7.45623 -13.568613,23.58248 -13.568613,51.32658 0,27.44058 9.710435,38.53822 9.710435,56.05169 0,13.00504 -5.288719,20.24459 -13.048397,29.1313 4.985268,5.54882 13.048397,9.97068 13.048397,28.00434"
     id="path302"
     inkscape:connector-curvature="0"
     style="stroke-width:2.77441001" />
</svg>
