<?xml version="1.0" encoding="UTF-8" standalone="no"?>
<svg
   xmlns:dc="http://purl.org/dc/elements/1.1/"
   xmlns:cc="http://creativecommons.org/ns#"
   xmlns:rdf="http://www.w3.org/1999/02/22-rdf-syntax-ns#"
   xmlns:svg="http://www.w3.org/2000/svg"
   xmlns="http://www.w3.org/2000/svg"
   xmlns:sodipodi="http://sodipodi.sourceforge.net/DTD/sodipodi-0.dtd"
   xmlns:inkscape="http://www.inkscape.org/namespaces/inkscape"
   version="1.1"
   id="Layer_1"
   x="0px"
   y="0px"
   viewBox="828 26.3 264 1868"
   enable-background="new 828 26.3 264 1868"
   xml:space="preserve"
   inkscape:version="0.91 r13725"
   sodipodi:docname="Big-Ben-Tower-Illustration.svg"><metadata
     id="metadata291"><rdf:RDF><cc:Work
         rdf:about=""><dc:format>image/svg+xml</dc:format><dc:type
           rdf:resource="http://purl.org/dc/dcmitype/StillImage" /><dc:title></dc:title></cc:Work></rdf:RDF></metadata><defs
     id="defs289" /><sodipodi:namedview
     pagecolor="#ffffff"
     bordercolor="#666666"
     borderopacity="1"
     objecttolerance="10"
     gridtolerance="10"
     guidetolerance="10"
     inkscape:pageopacity="0"
     inkscape:pageshadow="2"
     inkscape:window-width="1920"
     inkscape:window-height="1137"
     id="namedview287"
     showgrid="false"
     inkscape:zoom="0.35733876"
     inkscape:cx="-113.9531"
     inkscape:cy="1255.836"
     inkscape:window-x="1912"
     inkscape:window-y="-8"
     inkscape:window-maximized="1"
     inkscape:current-layer="Layer_1" /><rect
     style="fill:#eec784;stroke:#7e7d7e"
     id="rect5"
     height="73"
     width="152.8"
     y="680.29999"
     x="882.5" /><path
     style="fill:#3b3221;stroke:#3b3221;stroke-width:0.09375"
     inkscape:connector-curvature="0"
     id="path9"
     d="m 939.2,521 c 7.9,-24.7 15.5,-49.6 21.5,-74.8 0.8,1.6 1.6,3.2 2.4,4.7 0,-0.5 0.1,-1.5 0.1,-2 7.4,31.3 16.4,62.2 25.9,93 8.3,27 17,54 26.3,80.6 5.5,15.6 11,31.3 18,46.3 -4.8,1 -9.6,0.6 -14.4,0.6 -44.7,0 -89.3,0 -134,0 6.9,-13.8 12.2,-28.3 17.7,-42.7 13,-34.9 25.1,-70.2 36.5,-105.7 z" /><path
     style="stroke:#000000;stroke-width:0.09375"
     inkscape:connector-curvature="0"
     id="path11"
     d="m 1043.2,669.8 c -3,-0.5 -6.2,-0.2 -9.2,-0.2 l 0.7,-1.3 -0.7,0.4 -0.5,0.2 c -4.8,1 -9.6,0.6 -14.4,0.6 -44.7,0 -89.3,0 -134,0 -0.4,0 -1.1,0.1 -1.5,0.1 0,0 0,-0.1 0,-0.1 -0.1,0 -0.2,0 -0.2,0 0,0 0,0.1 0,0.1 -2.9,0 -6,-0.4 -8.8,0.7 53.1,-0.2 106.3,0 159.5,-0.1 3.4,0 6.8,-0.3 10.1,0.5 1.3,2.1 1.5,4.6 2.1,6.9 0,-2.8 0.2,-6.7 -3.1,-7.8 z" /><path
     style="fill:#2d2d2d;stroke:#2d2d2d;stroke-width:0.09375"
     inkscape:connector-curvature="0"
     id="path13"
     d="m 1034.3,608.5 c 0.2,0 0.5,0 0.6,0 l -0.6,0 z" /><path
     style="fill:#776443;stroke:#776443;stroke-width:0.09375"
     inkscape:connector-curvature="0"
     id="path15"
     d="m 874.3,670.3 0.2,0 c 53.1,-0.2 106.3,0 159.5,-0.1 3.4,0 6.8,-0.3 10.1,0.5 1.3,2.1 1.5,4.5 2.1,6.9 -0.8,0.7 -1.6,1.5 -2.5,2 -15.2,-1.2 -30.4,-0.4 -45.6,-0.7 -27,0 -54.1,0 -81.1,0 -13.9,0.1 -27.8,-0.4 -41.6,0.6 -0.9,-0.6 -1.7,-1.3 -2.5,-1.9 l 0.5,-0.7 c 1,-1.1 1,-2.9 0,-4.1 l -0.5,-0.7 c 0.3,-0.3 1.1,-1.3 1.4,-1.8 z" /><path
     style="fill:#352d1f;stroke:#352d1f;stroke-width:0.09375"
     inkscape:connector-curvature="0"
     id="path17"
     d="m 873.3,673 c 1.1,1.1 1.1,2.9 0,4.1 -0.9,-1.4 -0.9,-2.8 0,-4.1 z" /><path
     style="fill:#412c0e;stroke:#412c0e;stroke-width:0.09375"
     inkscape:connector-curvature="0"
     id="path19"
     d="m 875.4,679.6 c 13.8,-1.1 27.7,-0.5 41.6,-0.6 27,0 54.1,0 81.1,0 15.2,0.2 30.4,-0.6 45.6,0.7 -3.2,0.6 -6.5,0.4 -9.7,0.4 l -1.2,0 c -48.8,0 -97.6,0 -146.4,0 -0.3,0 -0.9,0 -1.2,0 -3.3,-0.1 -6.6,0.2 -9.8,-0.5 z" /><path
     style="fill:#8a7a62;stroke:#8a7a62;stroke-width:0.09375"
     inkscape:connector-curvature="0"
     id="path21"
     d="m 1032.8,680.1 1.2,0" /><path
     style="fill:#3b3221;stroke:#3b3221;stroke-width:0.09375"
     inkscape:connector-curvature="0"
     id="path23"
     d="m 1075.8,831 c -0.4,-0.3 -0.7,-0.5 -0.9,-0.9 0,0.1 0,0.2 0,0.4 -14.6,-25.7 -28.9,-51.6 -43.3,-77.4 l -0.2,0 c -7.8,0.9 -15.6,0.2 -23.4,0.3 -19,-0.1 -38,0.2 -57,-0.1 l 0,-0.7 c -0.5,0.1 -1.1,0.1 -1.6,0 -0.1,0.1 -0.1,0.2 -0.2,0.3 -4.4,0.9 -8.8,0.4 -13.3,0.5 -16.2,0.1 -32.5,-0.1 -48.7,0.1 l -1,0 c -14.1,26.5 -29.2,52.6 -43.1,79.2 0.2,1.9 2.2,1.6 3.6,1.8 74.7,0 149.4,0 224.1,0 1.8,-0.1 3.6,-0.7 5.3,-1.2 0,-0.7 -0.1,-1.5 -0.3,-2.3 0.1,0 0.1,0 0,0 z" /><path
     style="fill:#eec784;stroke:#eec784;stroke-width:0.09375"
     inkscape:connector-curvature="0"
     id="path53"
     d="m 844.1,833.1 c 77,0.1 153.9,0 230.9,0 0.1,342.4 0,684.8 0.1,1027.2 -76.9,-0.2 -153.9,0.1 -230.8,-0.2 0,-235.4 0,-470.8 0,-706.1 -0.2,-106.9 0.1,-213.9 -0.2,-320.9 m 20.2,19.8 c 0.2,75.8 0,151.5 0.1,227.3 -5.7,0 -11.4,-0.1 -17.2,0.1 -0.1,11.8 -0.1,23.7 0,35.6 5.7,0.2 11.5,0.1 17.2,0 0,72.1 0,144.1 0,216.2 -5.7,0 -11.5,-0.2 -17.2,0.1 -0.1,11.8 -0.1,23.7 0,35.5 5.7,0.1 11.4,-0.1 17.2,0.1 0,72 0,144.1 0,216.1 -5.7,-0.2 -11.5,-0.3 -17.2,0.1 -0.1,11.8 -0.3,23.7 0.1,35.5 5.7,0 11.4,0.4 17.1,-0.4 -0.1,74.6 0.1,149.1 -0.1,223.7 2.5,0 5.1,0.1 7.7,0.1 0.2,-74.6 0,-149.2 0.1,-223.8 7.6,0.1 15.3,0.2 22.9,0 0.1,74.6 -0.2,149.2 0.1,223.8 2.5,0 5,0 7.6,-0.1 0,-74.6 0,-149.2 0,-223.7 7.6,0.2 15.3,0.1 22.9,0.1 0.1,74.6 -0.1,149.2 0.1,223.8 2.5,-0.1 5,-0.1 7.5,-0.1 0,-74.6 0,-149.2 0,-223.7 7.6,0.1 15.3,0.2 22.9,0 0,74.6 0,149.2 0,223.8 2.5,0 5.1,0 7.6,-0.1 0,-74.6 0,-149.2 0,-223.8 7.6,0.2 15.3,0.1 22.9,0.1 0,74.6 0,149.1 0,223.7 2.5,0 5.1,0.1 7.6,0.1 0.1,-74.6 0,-149.3 0,-223.9 7.6,0.4 15.3,0.2 22.9,0 0,74.6 0,149.2 0,223.8 2.5,0 5.1,0 7.6,0 0.1,-74.6 0,-149.3 0.1,-223.9 7.6,0.4 15.3,0.2 22.9,0.1 0,74.6 -0.1,149.2 0,223.8 2.5,0 5.1,0 7.6,0 0,-74.6 0,-149.2 0,-223.8 5.5,0.2 11,0.1 16.5,-0.1 0.3,-11.7 0.2,-23.4 0,-35.1 -5.5,-0.3 -11,-0.2 -16.5,-0.1 0,-72 0,-144 0,-216 5.5,-0.2 10.9,-0.1 16.4,-0.2 0.5,-11.9 0.2,-23.8 0.1,-35.6 -5.5,-0.2 -11,-0.2 -16.5,-0.1 0,-72 0,-144.1 0,-216.1 5.5,-0.1 11,0 16.4,-0.1 0.3,-11.9 0.3,-23.8 0,-35.6 -5.5,-0.1 -11,0 -16.5,-0.2 0,-75.8 0.1,-151.6 0,-227.4 -2.5,0 -5.1,0 -7.6,0 0,75.8 0,151.6 0,227.4 -7.6,0.2 -15.3,0.1 -22.9,0 0,-75.8 0,-151.6 0,-227.4 -2.6,-0.1 -5.2,0 -7.7,0 0,75.8 0,151.6 0,227.3 -7.6,0.2 -15.3,0.1 -22.9,-0.1 0,-75.8 0,-151.5 0,-227.3 -2.5,0 -5.1,0 -7.6,0 0,75.8 0,151.6 0,227.4 -7.6,0.2 -15.3,0.1 -22.9,0 0,-75.8 0,-151.5 0,-227.3 -2.6,-0.1 -5.1,-0.1 -7.6,0 0,75.8 0,151.6 0,227.3 -7.7,0.1 -15.3,0.1 -23,0 0,-75.8 0,-151.6 0,-227.4 -2.5,0 -5,0 -7.6,0 -0.1,75.8 0,151.5 0,227.3 -7.6,0.2 -15.3,0.2 -22.9,0.1 -0.1,-75.8 0.2,-151.7 -0.1,-227.5 -2.5,0 -5,0 -7.5,0 -0.3,75.8 0,151.6 -0.1,227.4 -7.6,0.2 -15.3,0.2 -22.9,0.1 0,-75.8 0,-151.6 0,-227.4 -2.5,0.3 -5,0.3 -7.6,0.5 z" /><path
     style="fill:#77643f;stroke:#77643f;stroke-width:0.09375"
     inkscape:connector-curvature="0"
     id="path55"
     d="m 864.3,852.9 c 2.5,-0.2 5.1,-0.2 7.7,-0.2 0.1,75.8 0,151.6 0,227.4 0,11.9 0,23.9 0,35.8 0,72 0,144.1 0,216.1 0,11.9 0,23.9 0,35.8 0,72 0,144.1 0,216.1 0,11.7 0,23.5 0,35.2 0,74.6 0.1,149.2 -0.1,223.8 -2.6,0 -5.1,-0.1 -7.7,-0.1 0.2,-74.5 0,-149.1 0.1,-223.7 0,-11.8 0,-23.5 0,-35.3 0,-72 0,-144.1 0,-216.1 0,-11.9 0,-23.9 0,-35.8 0,-72.1 0,-144.1 0,-216.2 0,-11.9 0,-23.8 0,-35.7 0,-75.6 0.2,-151.4 0,-227.1 z" /><path
     style="fill:#786442;stroke:#786442;stroke-width:0.09375"
     inkscape:connector-curvature="0"
     id="path57"
     d="m 895,852.7 c 2.5,0 5,0 7.5,0 0.3,75.8 0.1,151.7 0.1,227.5 0,11.9 0,23.8 0,35.8 0,72 0,144 0,216 0,12 0,23.9 0,35.9 0,72.1 0,144.1 0,216.1 0,11.7 0,23.4 0,35.2 0,74.6 0,149.2 0,223.7 -2.5,0 -5,0.1 -7.6,0.1 -0.3,-74.6 0,-149.2 -0.1,-223.8 0,-11.7 0,-23.4 0,-35.2 0,-72 0,-144.1 0,-216.1 0,-11.9 0,-23.8 0,-35.8 0,-72 0,-144.1 0,-216.1 0,-12 0,-23.9 0,-35.9 0.1,-75.8 -0.1,-151.6 0.1,-227.4 z" /><path
     style="fill:#756541;stroke:#756541;stroke-width:0.09375"
     inkscape:connector-curvature="0"
     id="path59"
     d="m 925.6,852.7 c 2.5,0 5,0 7.6,0 0,75.8 0,151.6 0,227.4 0,12 0,23.9 0,35.9 0,72 0,144 0,216 0,12 0,23.9 0,35.9 0,72 0,144 0,216 0,11.8 0,23.5 0,35.3 0,74.6 0,149.2 0,223.7 -2.5,0 -5,0.1 -7.5,0.1 -0.2,-74.6 0,-149.2 -0.1,-223.8 0,-11.8 0,-23.5 0,-35.3 0,-72 0,-144 0,-216 0,-12 0,-23.9 0,-35.9 0,-72 0,-144 0,-216 0,-12 0,-24 0,-36 0,-75.8 -0.1,-151.5 0,-227.3 z" /><path
     style="fill:#776441;stroke:#776441;stroke-width:0.09375"
     inkscape:connector-curvature="0"
     id="path61"
     d="m 956.1,852.8 c 2.5,0 5.1,0 7.6,0 -0.1,75.8 0,151.5 0,227.3 0,11.9 0,23.9 0,35.8 0,72.1 0,144.1 0,216.2 0,11.9 0,23.8 0,35.7 0,72.1 0,144.1 0,216.2 0,11.7 0,23.4 0,35.1 0,74.6 0,149.2 0,223.8 -2.6,0 -5.1,0 -7.6,0.1 0,-74.6 0,-149.2 0,-223.8 0,-11.7 0,-23.4 0,-35.2 0,-72 0,-144.1 0,-216.1 0,-11.9 0,-23.9 0,-35.8 0,-72 0,-144 0,-216 0,-11.9 0,-23.9 0,-35.8 0.1,-76 0,-151.8 0,-227.5 z" /><path
     style="fill:#766543;stroke:#766543;stroke-width:0.09375"
     inkscape:connector-curvature="0"
     id="path63"
     d="m 986.7,852.7 c 2.5,0 5.1,0 7.6,0 0,75.8 0,151.5 0,227.3 0,12 0,23.9 0,35.9 0,72 0,144.1 0,216.1 0,11.9 0,23.8 0,35.6 0,72.1 0,144.2 0,216.2 0,11.7 0,23.4 0,35.1 0,74.6 0,149.3 0,223.9 -2.5,0 -5.1,-0.1 -7.6,-0.1 0,-74.6 0,-149.1 0,-223.7 0,-11.8 0,-23.5 0,-35.2 0,-72 0,-144 0,-216 0,-12 0,-24 0,-36 0,-72 0,-143.9 0,-215.9 0,-12 0,-24 0,-36 0,-75.6 0,-151.4 0,-227.2 z" /><path
     style="fill:#786342;stroke:#786342;stroke-width:0.09375"
     inkscape:connector-curvature="0"
     id="path65"
     d="m 1017.2,852.8 c 2.6,-0.1 5.1,-0.1 7.7,0 0,75.8 0,151.6 0,227.4 0,11.9 0,23.9 0,35.8 0,72 0,144.1 0,216.1 0,11.9 0,23.9 0,35.8 0,72 0,144 0,216.1 0,11.7 0,23.4 0,35.1 -0.1,74.6 0.1,149.3 -0.1,223.9 -2.5,0 -5.1,0 -7.6,0 0,-74.6 0,-149.2 0,-223.8 0,-11.7 0,-23.4 0,-35.1 0,-72 0,-144.1 0,-216.2 0,-11.9 0,-23.9 0,-35.8 0,-72 0,-144.1 0,-216.1 0,-11.9 0,-23.9 0,-35.8 0,-75.9 0.1,-151.7 0,-227.4 z" /><path
     style="fill:#786541;stroke:#786541;stroke-width:0.09375"
     inkscape:connector-curvature="0"
     id="path67"
     d="m 1047.8,852.7 c 2.5,0 5.1,0 7.6,0 0.1,75.8 0,151.6 0,227.4 0,11.9 0,23.9 0,35.9 0,72 0,144.1 0,216.1 0,12 0,23.9 0,35.9 0,72 0,144 0,216 0,11.7 0,23.5 0,35.3 0,74.6 0,149.2 0,223.8 -2.5,0 -5.1,-0.1 -7.6,0 -0.1,-74.6 0,-149.2 0,-223.8 0,-11.7 0,-23.4 0,-35.2 0,-72 0,-144.1 0,-216.1 0,-11.9 0,-23.9 0,-35.8 0,-72 0,-144.1 0,-216.1 0,-11.9 0,-23.9 0,-35.8 0,-76 0,-151.8 0,-227.6 z" /><path
     style="fill:#d7b578;stroke:#d7b578;stroke-width:0.09375"
     inkscape:connector-curvature="0"
     id="path69"
     d="m 847.2,1080.3 c 5.7,-0.1 11.4,-0.1 17.2,-0.1 0,11.9 0,23.8 0,35.7 -5.7,0 -11.5,0.1 -17.2,0 0,-12 0,-23.8 0,-35.6 z" /><path
     style="fill:#d7b578;stroke:#d7b578;stroke-width:0.09375"
     inkscape:connector-curvature="0"
     id="path71"
     d="m 872,1080.1 c 7.6,0.1 15.3,0.2 22.9,-0.1 0,12 0,23.9 0,35.9 -7.6,-0.2 -15.3,-0.2 -22.9,-0.1 0,-11.8 0,-23.8 0,-35.7 z" /><path
     style="fill:#d7b578;stroke:#d7b578;stroke-width:0.09375"
     inkscape:connector-curvature="0"
     id="path73"
     d="m 902.6,1080.2 c 7.6,0.1 15.3,0.1 22.9,-0.1 0,12 0,24 0,36 -7.6,-0.2 -15.3,-0.1 -22.9,-0.1 0,-12 0,-23.9 0,-35.8 z" /><path
     style="fill:#d7b578;stroke:#d7b578;stroke-width:0.09375"
     inkscape:connector-curvature="0"
     id="path75"
     d="m 933.2,1080.1 c 7.7,0.1 15.3,0.2 23,0 0,11.9 0,23.9 0,35.8 -7.7,-0.1 -15.3,-0.1 -22.9,0 -0.1,-11.9 -0.1,-23.9 -0.1,-35.8 z" /><path
     style="fill:#d7b578;stroke:#d7b578;stroke-width:0.09375"
     inkscape:connector-curvature="0"
     id="path77"
     d="m 963.8,1080.1 c 7.6,0.1 15.3,0.2 22.9,0 0,12 0,24 0,36 -7.6,-0.2 -15.3,-0.2 -22.9,-0.1 0,-12 0,-24 0,-35.9 z" /><path
     style="fill:#d7b578;stroke:#d7b578;stroke-width:0.09375"
     inkscape:connector-curvature="0"
     id="path79"
     d="m 994.3,1080 c 7.6,0.2 15.3,0.3 22.9,0.1 0,11.9 0,23.9 0,35.8 -7.6,-0.1 -15.3,-0.1 -22.9,0 0,-11.9 0,-23.9 0,-35.9 z" /><path
     style="fill:#d7b578;stroke:#d7b578;stroke-width:0.09375"
     inkscape:connector-curvature="0"
     id="path81"
     d="m 1024.9,1080.1 c 7.6,0 15.3,0.2 22.9,0 0,11.9 0,23.9 0,35.8 -7.6,-0.1 -15.3,0 -22.9,0 0,-11.9 0,-23.9 0,-35.8 z" /><path
     style="fill:#d7b578;stroke:#d7b578;stroke-width:0.09375"
     inkscape:connector-curvature="0"
     id="path83"
     d="m 1055.5,1080.1 c 5.5,0.2 11,0 16.5,0.2 0.2,11.9 0.3,23.8 0,35.6 -5.5,0 -11,0 -16.4,0.1 -0.2,-12 -0.2,-24 -0.1,-35.9 z" /><path
     style="fill:#eec784;stroke:#eec784;stroke-width:0.09375"
     inkscape:connector-curvature="0"
     id="path85"
     d="m 872,1115.9 c 7.6,-0.1 15.3,-0.1 22.9,0.1 0,72 0,144.1 0,216.1 -7.6,-0.1 -15.3,-0.1 -22.9,0 0,-72.1 0.1,-144.2 0,-216.2 z" /><path
     style="fill:#eec784;stroke:#eec784;stroke-width:0.09375"
     inkscape:connector-curvature="0"
     id="path87"
     d="m 902.6,1115.9 c 7.6,0 15.3,-0.1 22.9,0.1 0,72 0,144 0,216 -7.6,0 -15.3,0 -22.9,0 0.1,-72.1 0.1,-144.1 0,-216.1 z" /><path
     style="fill:#eec784;stroke:#eec784;stroke-width:0.09375"
     inkscape:connector-curvature="0"
     id="path89"
     d="m 933.2,1115.9 c 7.7,-0.1 15.3,-0.1 22.9,0 0,72 0,144 0,216 -7.7,0.1 -15.3,0 -22.9,0 0,-72 0,-144 0,-216 z" /><path
     style="fill:#eec784;stroke:#eec784;stroke-width:0.09375"
     inkscape:connector-curvature="0"
     id="path91"
     d="m 963.8,1115.9 c 7.6,-0.1 15.3,-0.1 22.9,0.1 0,72 0,143.9 0,215.9 -7.6,0 -15.3,0 -22.9,0.1 -0.1,-72 -0.1,-144 0,-216.1 z" /><path
     style="fill:#eec784;stroke:#eec784;stroke-width:0.09375"
     inkscape:connector-curvature="0"
     id="path93"
     d="m 994.3,1115.9 c 7.6,-0.1 15.3,-0.1 22.9,0 0,72 0,144.1 0,216.1 -7.6,-0.1 -15.3,-0.1 -22.9,0 0,-72 0,-144 0,-216.1 z" /><path
     style="fill:#eec784;stroke:#eec784;stroke-width:0.09375"
     inkscape:connector-curvature="0"
     id="path95"
     d="m 1024.9,1115.9 c 7.6,0 15.3,-0.1 22.9,0 0,72 0,144.1 0,216.1 -7.6,-0.1 -15.3,-0.1 -22.9,0 0,-72 0,-144.1 0,-216.1 z" /><path
     style="fill:#d7b578;stroke:#d7b578;stroke-width:0.09375"
     inkscape:connector-curvature="0"
     id="path97"
     d="m 847.2,1332.1 c 5.7,-0.3 11.4,-0.2 17.2,-0.1 0,11.9 0,23.9 0,35.8 -5.7,-0.2 -11.4,-0.1 -17.2,-0.1 -0.1,-11.9 -0.1,-23.7 0,-35.6 z" /><path
     style="fill:#d7b578;stroke:#d7b578;stroke-width:0.09375"
     inkscape:connector-curvature="0"
     id="path99"
     d="m 872,1332 c 7.6,-0.1 15.3,0 22.9,0 0,11.9 0,23.8 0,35.8 -7.6,-0.4 -15.3,0 -22.9,0 0,-11.9 0,-23.9 0,-35.8 z" /><path
     style="fill:#d7b578;stroke:#d7b578;stroke-width:0.09375"
     inkscape:connector-curvature="0"
     id="path101"
     d="m 902.6,1331.9 c 7.6,0 15.3,0 22.9,0 0,12 0,23.9 0,35.9 -7.6,-0.3 -15.3,-0.2 -22.9,0 0,-11.9 0,-23.9 0,-35.9 z" /><path
     style="fill:#d7b578;stroke:#d7b578;stroke-width:0.09375"
     inkscape:connector-curvature="0"
     id="path103"
     d="m 933.2,1331.9 c 7.6,0 15.3,0.1 22.9,0 0,12 0,23.9 0,35.8 -7.7,-0.3 -15.3,-0.1 -23,0 0.1,-11.8 0.1,-23.8 0.1,-35.8 z" /><path
     style="fill:#d7b578;stroke:#d7b578;stroke-width:0.09375"
     inkscape:connector-curvature="0"
     id="path105"
     d="m 963.8,1332.1 c 7.6,-0.1 15.3,-0.1 22.9,-0.1 0,12 0,24 0,36 -7.6,-0.2 -15.3,-0.4 -22.9,-0.2 0,-12 0,-23.8 0,-35.7 z" /><path
     style="fill:#d7b578;stroke:#d7b578;stroke-width:0.09375"
     inkscape:connector-curvature="0"
     id="path107"
     d="m 994.3,1332 c 7.6,-0.1 15.3,-0.1 22.9,0 0,11.9 0,23.9 0,35.8 -7.6,-0.2 -15.3,-0.1 -22.9,-0.1 0,-11.9 0,-23.8 0,-35.7 z" /><path
     style="fill:#d7b578;stroke:#d7b578;stroke-width:0.09375"
     inkscape:connector-curvature="0"
     id="path109"
     d="m 1024.9,1332 c 7.6,-0.1 15.3,-0.1 22.9,0 0,11.9 0,23.9 0,35.8 -7.6,-0.2 -15.3,-0.2 -22.9,0 0,-11.9 0,-23.9 0,-35.8 z" /><path
     style="fill:#d7b578;stroke:#d7b578;stroke-width:0.09375"
     inkscape:connector-curvature="0"
     id="path111"
     d="m 1055.5,1332 c 5.5,-0.1 11,-0.1 16.5,0.1 0.1,11.9 0.4,23.8 -0.1,35.6 -5.5,0.1 -10.9,0 -16.4,0.2 0,-12 -0.1,-23.9 0,-35.9 z" /><path
     style="fill:#eec784;stroke:#eec784;stroke-width:0.09375"
     inkscape:connector-curvature="0"
     id="path113"
     d="m 872,1367.8 c 7.6,-0.1 15.3,-0.4 22.9,0 0,72 0,144.1 0,216.1 -7.6,-0.1 -15.3,-0.2 -22.9,0 0,-72 0.1,-144.1 0,-216.1 z" /><path
     style="fill:#eec784;stroke:#eec784;stroke-width:0.09375"
     inkscape:connector-curvature="0"
     id="path115"
     d="m 933.2,1367.8 c 7.7,-0.1 15.3,-0.3 23,0 0,72 0,144.1 0,216.1 -7.6,-0.2 -15.3,-0.1 -22.9,-0.1 -0.1,-72 -0.1,-144 -0.1,-216 z" /><path
     style="fill:#eec784;stroke:#eec784;stroke-width:0.09375"
     inkscape:connector-curvature="0"
     id="path117"
     d="m 963.8,1367.8 c 7.6,-0.2 15.3,-0.1 22.9,0.2 0,72 0,144 0,216 -7.6,-0.1 -15.3,-0.2 -22.9,0 -0.1,-72.1 0,-144.2 0,-216.2 z" /><path
     style="fill:#eec784;stroke:#eec784;stroke-width:0.09375"
     inkscape:connector-curvature="0"
     id="path119"
     d="m 994.3,1367.7 c 7.6,0 15.3,0 22.9,0.1 0,72.1 0,144.1 0,216.2 -7.6,-0.3 -15.3,-0.2 -22.9,0 0,-72.2 0,-144.2 0,-216.3 z" /><path
     style="fill:#eec784;stroke:#eec784;stroke-width:0.09375"
     inkscape:connector-curvature="0"
     id="path121"
     d="m 902.6,1367.8 c 7.6,-0.2 15.3,-0.2 22.9,0 0,72 0,144 0,216 -7.6,-0.2 -15.3,-0.1 -22.9,0.1 0.1,-72 0.1,-144 0,-216.1 z" /><path
     style="fill:#eec784;stroke:#eec784;stroke-width:0.09375"
     inkscape:connector-curvature="0"
     id="path123"
     d="m 1024.9,1367.8 c 7.6,-0.1 15.3,-0.2 22.9,0 0,72 0,144.1 0,216.1 -7.6,-0.1 -15.3,-0.2 -22.9,0 0,-72 0,-144.1 0,-216.1 z" /><path
     style="fill:#d7b578;stroke:#d7b578;stroke-width:0.09375"
     inkscape:connector-curvature="0"
     id="path125"
     d="m 847.3,1584.1 c 5.7,-0.4 11.4,-0.3 17.2,-0.1 0,11.8 0,23.5 0,35.3 -5.7,0.8 -11.4,0.4 -17.1,0.4 -0.4,-11.9 -0.2,-23.8 -0.1,-35.6 z" /><path
     style="fill:#d7b578;stroke:#d7b578;stroke-width:0.09375"
     inkscape:connector-curvature="0"
     id="path127"
     d="m 872.1,1583.9 c 7.6,-0.1 15.2,-0.1 22.9,0 0,11.7 0,23.4 0,35.2 -7.6,0.2 -15.3,0.2 -22.9,0 -0.1,-11.7 -0.1,-23.5 0,-35.2 z" /><path
     style="fill:#d7b579;stroke:#d7b579;stroke-width:0.09375"
     inkscape:connector-curvature="0"
     id="path129"
     d="m 902.6,1584 c 7.6,-0.1 15.3,-0.2 22.9,-0.1 0,11.8 0,23.5 0,35.3 -7.6,0.1 -15.3,0.1 -22.9,-0.1 0,-11.7 0,-23.4 0,-35.1 z" /><path
     style="fill:#d7b578;stroke:#d7b578;stroke-width:0.09375"
     inkscape:connector-curvature="0"
     id="path131"
     d="m 933.2,1583.9 c 7.6,-0.1 15.3,-0.1 22.9,0.1 0,11.7 0,23.4 0,35.2 -7.6,0.2 -15.3,0.1 -22.9,0 0,-11.8 0,-23.6 0,-35.3 z" /><path
     style="fill:#d7b578;stroke:#d7b578;stroke-width:0.09375"
     inkscape:connector-curvature="0"
     id="path133"
     d="m 963.8,1583.9 c 7.6,-0.2 15.3,-0.1 22.9,0 0,11.7 0,23.5 0,35.2 -7.6,0 -15.3,0.1 -22.9,-0.1 0,-11.6 0,-23.4 0,-35.1 z" /><path
     style="fill:#d7b578;stroke:#d7b578;stroke-width:0.09375"
     inkscape:connector-curvature="0"
     id="path135"
     d="m 994.3,1583.9 c 7.6,-0.2 15.3,-0.2 22.9,0 0,11.7 0,23.4 0,35.1 -7.6,0.2 -15.3,0.3 -22.9,0 0,-11.7 0,-23.4 0,-35.1 z" /><path
     style="fill:#d7b578;stroke:#d7b578;stroke-width:0.09375"
     inkscape:connector-curvature="0"
     id="path137"
     d="m 1024.9,1583.9 c 7.6,-0.1 15.3,-0.1 22.9,0 0,11.7 0,23.4 0,35.2 -7.6,0.1 -15.3,0.4 -22.9,-0.1 0,-11.7 0,-23.4 0,-35.1 z" /><path
     style="fill:#d7b578;stroke:#d7b578;stroke-width:0.09375"
     inkscape:connector-curvature="0"
     id="path139"
     d="m 1055.5,1583.9 c 5.5,-0.1 11,-0.2 16.5,0.1 0.1,11.7 0.3,23.4 0,35.1 -5.5,0.2 -11,0.2 -16.5,0.1 -0.1,-11.8 -0.1,-23.6 0,-35.3 z" /><g
     id="g157"
     transform="translate(0,306)"><g
       id="g159"><path
         style="fill:#776444;stroke:#000000;stroke-width:0.89289999"
         inkscape:connector-curvature="0"
         id="path161"
         d="m 899.7,446.4 c -1.4,-24.2 1.5,-41.6 8.6,-52.1 6.7,10.9 10.4,26.8 8.3,52.1 l -16.9,0 z" /></g><g
       id="g163"><path
         style="fill:#776444;stroke:#000000;stroke-width:0.89289999"
         inkscape:connector-curvature="0"
         id="path165"
         d="m 925.5,446.4 c -1.4,-24.2 1.5,-41.6 8.6,-52.1 6.7,10.9 10.4,26.8 8.3,52.1 l -16.9,0 z" /></g><g
       id="g167"><path
         style="fill:#776444;stroke:#000000;stroke-width:0.89289999"
         inkscape:connector-curvature="0"
         id="path169"
         d="m 951.4,446.4 c -1.4,-24.2 1.5,-41.6 8.6,-52.1 6.7,10.9 10.4,26.8 8.3,52.1 l -16.9,0 z" /></g><g
       id="g171"><path
         style="fill:#776444;stroke:#000000;stroke-width:0.89289999"
         inkscape:connector-curvature="0"
         id="path173"
         d="m 977.3,446.4 c -1.4,-24.2 1.5,-41.6 8.6,-52.1 6.7,10.9 10.4,26.8 8.3,52.1 l -16.9,0 z" /></g><g
       id="g175"><path
         style="fill:#776444;stroke:#000000;stroke-width:0.89289999"
         inkscape:connector-curvature="0"
         id="path177"
         d="m 1003.2,446.4 c -1.4,-24.2 1.5,-41.6 8.6,-52.1 6.7,10.9 10.4,26.8 8.3,52.1 l -16.9,0 z" /></g></g><path
     style="fill:#d7b578;stroke:#d7b578;stroke-width:0.09375"
     inkscape:connector-curvature="0"
     id="path69-9"
     d="m 848.0352,945.5886 c 5.7,-0.1 11.4,-0.1 17.2,-0.1 0,11.9 0,23.8 0,35.7 -5.7,0 -11.5,0.1 -17.2,0 0,-12 0,-23.8 0,-35.6 z" /><path
     style="fill:#d7b578;stroke:#d7b578;stroke-width:0.09375"
     inkscape:connector-curvature="0"
     id="path71-7"
     d="m 872.8352,945.3886 c 7.6,0.1 15.3,0.2 22.9,-0.1 0,12 0,23.9 0,35.9 -7.6,-0.2 -15.3,-0.2 -22.9,-0.1 0,-11.8 0,-23.8 0,-35.7 z" /><path
     style="fill:#d7b578;stroke:#d7b578;stroke-width:0.09375"
     inkscape:connector-curvature="0"
     id="path73-0"
     d="m 903.4352,945.4886 c 7.6,0.1 15.3,0.1 22.9,-0.1 0,12 0,24 0,36 -7.6,-0.2 -15.3,-0.1 -22.9,-0.1 0,-12 0,-23.9 0,-35.8 z" /><path
     style="fill:#d7b578;stroke:#d7b578;stroke-width:0.09375"
     inkscape:connector-curvature="0"
     id="path75-1"
     d="m 934.0352,945.3886 c 7.7,0.1 15.3,0.2 23,0 0,11.9 0,23.9 0,35.8 -7.7,-0.1 -15.3,-0.1 -22.9,0 -0.1,-11.9 -0.1,-23.9 -0.1,-35.8 z" /><path
     style="fill:#d7b578;stroke:#d7b578;stroke-width:0.09375"
     inkscape:connector-curvature="0"
     id="path77-1"
     d="m 964.6352,945.3886 c 7.6,0.1 15.3,0.2 22.9,0 0,12 0,24 0,36 -7.6,-0.2 -15.3,-0.2 -22.9,-0.1 0,-12 0,-24 0,-35.9 z" /><path
     style="fill:#d7b578;stroke:#d7b578;stroke-width:0.09375"
     inkscape:connector-curvature="0"
     id="path79-3"
     d="m 995.1352,945.2886 c 7.6,0.2 15.3,0.3 22.9,0.1 0,11.9 0,23.9 0,35.8 -7.6,-0.1 -15.3,-0.1 -22.9,0 0,-11.9 0,-23.9 0,-35.9 z" /><path
     style="fill:#d7b578;stroke:#d7b578;stroke-width:0.09375"
     inkscape:connector-curvature="0"
     id="path81-0"
     d="m 1025.7352,945.3886 c 7.6,0 15.3,0.2 22.9,0 0,11.9 0,23.9 0,35.8 -7.6,-0.1 -15.3,0 -22.9,0 0,-11.9 0,-23.9 0,-35.8 z" /><path
     style="fill:#d7b578;stroke:#d7b578;stroke-width:0.09375"
     inkscape:connector-curvature="0"
     id="path83-1"
     d="m 1056.3352,945.3886 c 5.5,0.2 11,0 16.5,0.2 0.2,11.9 0.3,23.8 0,35.6 -5.5,0 -11,0 -16.4,0.1 -0.2,-12 -0.2,-24 -0.1,-35.9 z" /><path
     style="fill:#d7b578;stroke:#d7b578;stroke-width:0.09375"
     inkscape:connector-curvature="0"
     id="path69-9-2"
     d="m 846.5053,1198.7346 c 5.7,-0.1 11.4,-0.1 17.2,-0.1 0,11.9 0,23.8 0,35.7 -5.7,0 -11.5,0.1 -17.2,0 0,-12 0,-23.8 0,-35.6 z" /><path
     style="fill:#d7b578;stroke:#d7b578;stroke-width:0.09375"
     inkscape:connector-curvature="0"
     id="path71-7-7"
     d="m 871.3053,1198.5346 c 7.6,0.1 15.3,0.2 22.9,-0.1 0,12 0,23.9 0,35.9 -7.6,-0.2 -15.3,-0.2 -22.9,-0.1 0,-11.8 0,-23.8 0,-35.7 z" /><path
     style="fill:#d7b578;stroke:#d7b578;stroke-width:0.09375"
     inkscape:connector-curvature="0"
     id="path73-0-9"
     d="m 901.9053,1198.6346 c 7.6,0.1 15.3,0.1 22.9,-0.1 0,12 0,24 0,36 -7.6,-0.2 -15.3,-0.1 -22.9,-0.1 0,-12 0,-23.9 0,-35.8 z" /><path
     style="fill:#d7b578;stroke:#d7b578;stroke-width:0.09375"
     inkscape:connector-curvature="0"
     id="path75-1-9"
     d="m 932.5053,1198.5346 c 7.7,0.1 15.3,0.2 23,0 0,11.9 0,23.9 0,35.8 -7.7,-0.1 -15.3,-0.1 -22.9,0 -0.1,-11.9 -0.1,-23.9 -0.1,-35.8 z" /><path
     style="fill:#d7b578;stroke:#d7b578;stroke-width:0.09375"
     inkscape:connector-curvature="0"
     id="path77-1-3"
     d="m 963.1053,1198.5346 c 7.6,0.1 15.3,0.2 22.9,0 0,12 0,24 0,36 -7.6,-0.2 -15.3,-0.2 -22.9,-0.1 0,-12 0,-24 0,-35.9 z" /><path
     style="fill:#d7b578;stroke:#d7b578;stroke-width:0.09375"
     inkscape:connector-curvature="0"
     id="path79-3-3"
     d="m 993.6053,1198.4346 c 7.6,0.2 15.3,0.3 22.9,0.1 0,11.9 0,23.9 0,35.8 -7.6,-0.1 -15.3,-0.1 -22.9,0 0,-11.9 0,-23.9 0,-35.9 z" /><path
     style="fill:#d7b578;stroke:#d7b578;stroke-width:0.09375"
     inkscape:connector-curvature="0"
     id="path81-0-5"
     d="m 1024.2053,1198.5346 c 7.6,0 15.3,0.2 22.9,0 0,11.9 0,23.9 0,35.8 -7.6,-0.1 -15.3,0 -22.9,0 0,-11.9 0,-23.9 0,-35.8 z" /><path
     style="fill:#d7b578;stroke:#d7b578;stroke-width:0.09375"
     inkscape:connector-curvature="0"
     id="path83-1-0"
     d="m 1054.8053,1198.5346 c 5.5,0.2 11,0 16.5,0.2 0.2,11.9 0.3,23.8 0,35.6 -5.5,0 -11,0 -16.4,0.1 -0.2,-12 -0.2,-24 -0.1,-35.9 z" /><path
     style="fill:#d7b578;stroke:#d7b578;stroke-width:0.09375"
     inkscape:connector-curvature="0"
     id="path69-9-2-8"
     d="m 846.5053,1456.7346 c 5.7,-0.1 11.4,-0.1 17.2,-0.1 0,11.9 0,23.8 0,35.7 -5.7,0 -11.5,0.1 -17.2,0 0,-12 0,-23.8 0,-35.6 z" /><path
     style="fill:#d7b578;stroke:#d7b578;stroke-width:0.09375"
     inkscape:connector-curvature="0"
     id="path71-7-7-6"
     d="m 871.3053,1456.5346 c 7.6,0.1 15.3,0.2 22.9,-0.1 0,12 0,23.9 0,35.9 -7.6,-0.2 -15.3,-0.2 -22.9,-0.1 0,-11.8 0,-23.8 0,-35.7 z" /><path
     style="fill:#d7b578;stroke:#d7b578;stroke-width:0.09375"
     inkscape:connector-curvature="0"
     id="path73-0-9-5"
     d="m 901.9053,1456.6346 c 7.6,0.1 15.3,0.1 22.9,-0.1 0,12 0,24 0,36 -7.6,-0.2 -15.3,-0.1 -22.9,-0.1 0,-12 0,-23.9 0,-35.8 z" /><path
     style="fill:#d7b578;stroke:#d7b578;stroke-width:0.09375"
     inkscape:connector-curvature="0"
     id="path75-1-9-6"
     d="m 932.5053,1456.5346 c 7.7,0.1 15.3,0.2 23,0 0,11.9 0,23.9 0,35.8 -7.7,-0.1 -15.3,-0.1 -22.9,0 -0.1,-11.9 -0.1,-23.9 -0.1,-35.8 z" /><path
     style="fill:#d7b578;stroke:#d7b578;stroke-width:0.09375"
     inkscape:connector-curvature="0"
     id="path77-1-3-0"
     d="m 963.1053,1456.5346 c 7.6,0.1 15.3,0.2 22.9,0 0,12 0,24 0,36 -7.6,-0.2 -15.3,-0.2 -22.9,-0.1 0,-12 0,-24 0,-35.9 z" /><path
     style="fill:#d7b578;stroke:#d7b578;stroke-width:0.09375"
     inkscape:connector-curvature="0"
     id="path79-3-3-0"
     d="m 993.6053,1456.4346 c 7.6,0.2 15.3,0.3 22.9,0.1 0,11.9 0,23.9 0,35.8 -7.6,-0.1 -15.3,-0.1 -22.9,0 0,-11.9 0,-23.9 0,-35.9 z" /><path
     style="fill:#d7b578;stroke:#d7b578;stroke-width:0.09375"
     inkscape:connector-curvature="0"
     id="path81-0-5-8"
     d="m 1024.2053,1456.5346 c 7.6,0 15.3,0.2 22.9,0 0,11.9 0,23.9 0,35.8 -7.6,-0.1 -15.3,0 -22.9,0 0,-11.9 0,-23.9 0,-35.8 z" /><path
     style="fill:#d7b578;stroke:#d7b578;stroke-width:0.09375"
     inkscape:connector-curvature="0"
     id="path83-1-0-4"
     d="m 1054.8053,1456.5346 c 5.5,0.2 11,0 16.5,0.2 0.2,11.9 0.3,23.8 0,35.6 -5.5,0 -11,0 -16.4,0.1 -0.2,-12 -0.2,-24 -0.1,-35.9 z" /><path
     style="fill:#d7b578;stroke:#d7b578;stroke-width:0.09375"
     inkscape:connector-curvature="0"
     id="path69-9-2-8-1"
     d="m 846.5053,1716.7346 c 5.7,-0.1 11.4,-0.1 17.2,-0.1 0,11.9 0,23.8 0,35.7 -5.7,0 -11.5,0.1 -17.2,0 0,-12 0,-23.8 0,-35.6 z" /><path
     style="fill:#d7b578;stroke:#d7b578;stroke-width:0.09375"
     inkscape:connector-curvature="0"
     id="path71-7-7-6-8"
     d="m 871.3053,1716.5346 c 7.6,0.1 15.3,0.2 22.9,-0.1 0,12 0,23.9 0,35.9 -7.6,-0.2 -15.3,-0.2 -22.9,-0.1 0,-11.8 0,-23.8 0,-35.7 z" /><path
     style="fill:#d7b578;stroke:#d7b578;stroke-width:0.09375"
     inkscape:connector-curvature="0"
     id="path73-0-9-5-8"
     d="m 901.9053,1716.6346 c 7.6,0.1 15.3,0.1 22.9,-0.1 0,12 0,24 0,36 -7.6,-0.2 -15.3,-0.1 -22.9,-0.1 0,-12 0,-23.9 0,-35.8 z" /><path
     style="fill:#d7b578;stroke:#d7b578;stroke-width:0.09375"
     inkscape:connector-curvature="0"
     id="path75-1-9-6-4"
     d="m 932.5053,1716.5346 c 7.7,0.1 15.3,0.2 23,0 0,11.9 0,23.9 0,35.8 -7.7,-0.1 -15.3,-0.1 -22.9,0 -0.1,-11.9 -0.1,-23.9 -0.1,-35.8 z" /><path
     style="fill:#d7b578;stroke:#d7b578;stroke-width:0.09375"
     inkscape:connector-curvature="0"
     id="path77-1-3-0-7"
     d="m 963.1053,1716.5346 c 7.6,0.1 15.3,0.2 22.9,0 0,12 0,24 0,36 -7.6,-0.2 -15.3,-0.2 -22.9,-0.1 0,-12 0,-24 0,-35.9 z" /><path
     style="fill:#d7b578;stroke:#d7b578;stroke-width:0.09375"
     inkscape:connector-curvature="0"
     id="path79-3-3-0-6"
     d="m 993.6053,1716.4346 c 7.6,0.2 15.3,0.3 22.9,0.1 0,11.9 0,23.9 0,35.8 -7.6,-0.1 -15.3,-0.1 -22.9,0 0,-11.9 0,-23.9 0,-35.9 z" /><path
     style="fill:#d7b578;stroke:#d7b578;stroke-width:0.09375"
     inkscape:connector-curvature="0"
     id="path81-0-5-8-3"
     d="m 1024.2053,1716.5346 c 7.6,0 15.3,0.2 22.9,0 0,11.9 0,23.9 0,35.8 -7.6,-0.1 -15.3,0 -22.9,0 0,-11.9 0,-23.9 0,-35.8 z" /><path
     style="fill:#d7b578;stroke:#d7b578;stroke-width:0.09375"
     inkscape:connector-curvature="0"
     id="path83-1-0-4-9"
     d="m 1054.8053,1716.5346 c 5.5,0.2 11,0 16.5,0.2 0.2,11.9 0.3,23.8 0,35.6 -5.5,0 -11,0 -16.4,0.1 -0.2,-12 -0.2,-24 -0.1,-35.9 z" /></svg>