<?xml version="1.0" encoding="UTF-8" standalone="no"?>
<svg width="2977.23px" height="198.425px" viewBox="0 0 2977.23 198.425"
 xmlns="http://www.w3.org/2000/svg" xmlns:xlink="http://www.w3.org/1999/xlink" version="1.2" baseProfile="tiny">
<title>Beethoven-Parallelismus</title>
<desc>Generated by MuseScore 3.5.2</desc>
<polyline class="StaffLines" fill="none" stroke="#000000" stroke-width="3.25" stroke-linejoin="bevel" points="0,34.9944 2977.23,34.9944"/>
<polyline class="StaffLines" fill="none" stroke="#000000" stroke-width="3.25" stroke-linejoin="bevel" points="0,59.996 2977.23,59.996"/>
<polyline class="StaffLines" fill="none" stroke="#000000" stroke-width="3.25" stroke-linejoin="bevel" points="0,84.9975 2977.23,84.9975"/>
<polyline class="StaffLines" fill="none" stroke="#000000" stroke-width="3.25" stroke-linejoin="bevel" points="0,109.999 2977.23,109.999"/>
<polyline class="StaffLines" fill="none" stroke="#000000" stroke-width="3.25" stroke-linejoin="bevel" points="0,135.001 2977.23,135.001"/>
<polyline class="BarLine" fill="none" stroke="#000000" stroke-width="4.00" stroke-linejoin="bevel" points="2975.23,33.3693 2975.23,136.626"/>
<path class="Accidental" d="M1042.39,104.498 C1042.5,104.498 1043,104.404 1043.09,104.294 C1044.5,103.701 1050.09,101.294 1053,101.294 C1054,101.294 1054.69,101.591 1054.69,102.404 L1054.69,117.294 C1054.69,117.998 1055.19,118.498 1055.89,118.498 L1057.19,118.498 C1057.8,118.498 1058.39,117.998 1058.39,117.294 L1058.39,67.0913 C1058.39,66.5913 1058,66.2944 1057.59,66.2944 C1057.5,66.2944 1057.3,66.2944 1057.19,66.4038 L1055.69,66.9038 C1055.5,66.9038 1055.39,66.9975 1055.3,66.9975 C1055.3,66.9975 1048.89,69.2944 1046.3,69.2944 C1045.69,69.2944 1045.3,69.2007 1045.3,68.7944 L1045.3,52.0913 C1045.3,51.3882 1044.69,50.8882 1044.09,50.8882 L1042.8,50.8882 C1042.09,50.8882 1041.59,51.3882 1041.59,52.0913 L1041.59,103.591 C1041.59,104.201 1041.89,104.498 1042.39,104.498 M1045.3,81.0913 C1045.3,79.7007 1051.39,77.0913 1053.8,77.0913 C1054.39,77.0913 1054.69,77.2007 1054.69,77.5913 L1054.69,87.9038 C1054.69,89.7007 1049,91.9975 1046.5,91.9975 C1045.8,91.9975 1045.3,91.7944 1045.3,91.4038 L1045.3,81.0913 "/>
<path class="Accidental" d="M1557.61,68.0897 C1557.61,68.0897 1557.31,62.0897 1557.31,58.0897 C1557.31,56.496 1557.41,55.2928 1557.5,54.9022 C1558.21,52.9022 1562.21,49.996 1564.5,49.996 C1567.41,49.996 1568.61,53.2928 1568.61,55.7928 C1568.61,61.1991 1564,66.5897 1559.71,69.2928 C1559.31,69.496 1559,69.5897 1558.71,69.5897 C1557.81,69.5897 1557.61,68.5897 1557.61,68.0897 M1554.11,76.996 C1554.41,77.4022 1554.71,77.496 1555,77.496 C1555.31,77.496 1555.61,77.2928 1555.61,77.2928 C1558.61,75.5897 1561,72.9022 1563.5,71.1991 C1572.41,64.996 1575.5,58.9022 1575.5,54.2928 C1575.5,48.5897 1571.11,44.996 1566.5,44.6991 C1564.81,44.6991 1562.41,45.496 1561,46.4022 C1560.41,46.9022 1559.31,47.7928 1558.81,47.7928 C1558.61,47.7928 1558.5,47.7928 1558.31,47.6991 C1557.61,47.4022 1557.21,46.6991 1557.21,45.996 C1557.31,43.7928 1557.91,19.7928 1557.91,17.7928 C1557.91,16.6991 1557,16.0897 1556,16.0897 C1554.61,16.0897 1553,17.0897 1552.91,18.8866 C1552.91,18.8866 1553.31,75.996 1554.11,76.996"/>
<path class="Accidental" d="M2059.96,118.093 C2059.96,118.093 2059.67,112.093 2059.67,108.093 C2059.67,106.499 2059.76,105.296 2059.85,104.905 C2060.56,102.905 2064.56,99.9991 2066.85,99.9991 C2069.76,99.9991 2070.96,103.296 2070.96,105.796 C2070.96,111.202 2066.35,116.593 2062.06,119.296 C2061.67,119.499 2061.35,119.593 2061.06,119.593 C2060.17,119.593 2059.96,118.593 2059.96,118.093 M2056.46,126.999 C2056.76,127.405 2057.06,127.499 2057.35,127.499 C2057.67,127.499 2057.96,127.296 2057.96,127.296 C2060.96,125.593 2063.35,122.905 2065.85,121.202 C2074.76,114.999 2077.85,108.905 2077.85,104.296 C2077.85,98.5929 2073.46,94.9991 2068.85,94.7022 C2067.17,94.7022 2064.76,95.4991 2063.35,96.4054 C2062.76,96.9054 2061.67,97.796 2061.17,97.796 C2060.96,97.796 2060.85,97.796 2060.67,97.7022 C2059.96,97.4054 2059.56,96.7022 2059.56,95.9991 C2059.67,93.796 2060.26,69.796 2060.26,67.796 C2060.26,66.7022 2059.35,66.0929 2058.35,66.0929 C2056.96,66.0929 2055.35,67.0929 2055.26,68.8897 C2055.26,68.8897 2055.67,125.999 2056.46,126.999"/>
<path class="Accidental" d="M2070.11,66.9952 C2070.22,66.9952 2070.72,66.9014 2070.82,66.7921 C2072.22,66.1983 2077.82,63.7921 2080.72,63.7921 C2081.72,63.7921 2082.41,64.0889 2082.41,64.9014 L2082.41,79.7921 C2082.41,80.4952 2082.91,80.9952 2083.61,80.9952 L2084.91,80.9952 C2085.52,80.9952 2086.11,80.4952 2086.11,79.7921 L2086.11,29.5889 C2086.11,29.0889 2085.72,28.7921 2085.32,28.7921 C2085.22,28.7921 2085.02,28.7921 2084.91,28.9014 L2083.41,29.4014 C2083.22,29.4014 2083.11,29.4952 2083.02,29.4952 C2083.02,29.4952 2076.61,31.7921 2074.02,31.7921 C2073.41,31.7921 2073.02,31.6983 2073.02,31.2921 L2073.02,14.5889 C2073.02,13.8858 2072.41,13.3858 2071.82,13.3858 L2070.52,13.3858 C2069.82,13.3858 2069.32,13.8858 2069.32,14.5889 L2069.32,66.0889 C2069.32,66.6983 2069.61,66.9952 2070.11,66.9952 M2073.02,43.5889 C2073.02,42.1983 2079.11,39.5889 2081.52,39.5889 C2082.11,39.5889 2082.41,39.6983 2082.41,40.0889 L2082.41,50.4014 C2082.41,52.1983 2076.72,54.4952 2074.22,54.4952 C2073.52,54.4952 2073.02,54.2921 2073.02,53.9014 L2073.02,43.5889 "/>
<path class="Note" d="M325.113,121.298 C310.613,121.298 301.613,127.407 301.613,134.798 C301.613,142.094 307.816,148.594 324.019,148.594 C341.816,148.594 347.519,142.407 347.519,134.798 C347.519,127.094 335.222,121.298 325.113,121.298 M322.316,123.798 C329.722,123.798 335.722,131.798 335.722,138.407 C335.722,143.798 332.316,146.094 327.41,146.094 C320.206,146.094 313.316,137.798 313.316,130.798 C313.316,125.204 317.206,123.798 322.316,123.798"/>
<path class="Note" d="M325.113,8.79048 C310.613,8.79048 301.613,14.8999 301.613,22.2905 C301.613,29.5874 307.816,36.0874 324.019,36.0874 C341.816,36.0874 347.519,29.8999 347.519,22.2905 C347.519,14.5874 335.222,8.79048 325.113,8.79048 M322.316,11.2905 C329.722,11.2905 335.722,19.2905 335.722,25.8999 C335.722,31.2905 332.316,33.5874 327.41,33.5874 C320.206,33.5874 313.316,25.2905 313.316,18.2905 C313.316,12.6967 317.206,11.2905 322.316,11.2905"/>
<path class="Note" d="M756.466,61.4952 C774.872,61.4952 778.576,46.4952 778.576,42.9014 C778.576,37.1983 774.076,33.4952 767.576,33.4952 C750.872,33.4952 745.669,46.4014 745.669,52.1983 C745.669,58.0889 750.372,61.4952 756.466,61.4952 M764.966,52.5889 C759.966,55.9952 756.466,57.1983 754.076,57.1983 C751.763,57.1983 750.372,55.9952 749.669,54.5889 C749.263,53.9952 748.966,53.1983 748.966,52.4014 C748.966,46.9952 765.076,38.0889 770.372,38.0889 C772.466,38.0889 773.669,39.0889 774.466,40.4952 C774.779,41.0889 775.076,41.7921 775.076,42.5889 C775.076,44.7921 772.779,47.4952 764.966,52.5889"/>
<path class="Note" d="M756.466,36.4936 C774.872,36.4936 778.576,21.4936 778.576,17.8999 C778.576,12.1967 774.076,8.4936 767.576,8.4936 C750.872,8.4936 745.669,21.3999 745.669,27.1967 C745.669,33.0874 750.372,36.4936 756.466,36.4936 M764.966,27.5874 C759.966,30.9936 756.466,32.1967 754.076,32.1967 C751.763,32.1967 750.372,30.9936 749.669,29.5874 C749.263,28.9936 748.966,28.1967 748.966,27.3999 C748.966,21.9936 765.076,13.0874 770.372,13.0874 C772.466,13.0874 773.669,14.0874 774.466,15.4936 C774.779,16.0874 775.076,16.7905 775.076,17.5874 C775.076,19.7905 772.779,22.4936 764.966,27.5874"/>
<path class="Note" d="M1074.69,98.9975 C1084.6,98.9975 1096.8,89.7944 1096.8,80.2944 C1096.8,74.7007 1092.3,70.9975 1085.89,70.9975 C1073.69,70.9975 1063.89,80.0913 1063.89,89.7007 C1063.89,95.4975 1068.69,98.9975 1074.69,98.9975"/>
<path class="Note" d="M1074.69,48.9944 C1084.6,48.9944 1096.8,39.7913 1096.8,30.2913 C1096.8,24.6975 1092.3,20.9944 1085.89,20.9944 C1073.69,20.9944 1063.89,30.0881 1063.89,39.6975 C1063.89,45.4944 1068.69,48.9944 1074.69,48.9944"/>
<path class="Note" d="M1273.58,86.4968 C1291.98,86.4968 1295.69,71.4968 1295.69,67.903 C1295.69,62.1999 1291.19,58.4968 1284.69,58.4968 C1267.98,58.4968 1262.78,71.403 1262.78,77.1999 C1262.78,83.0905 1267.48,86.4968 1273.58,86.4968 M1282.08,77.5905 C1277.08,80.9968 1273.58,82.1999 1271.19,82.1999 C1268.87,82.1999 1267.48,80.9968 1266.78,79.5905 C1266.37,78.9968 1266.08,78.1999 1266.08,77.403 C1266.08,71.9968 1282.19,63.0905 1287.48,63.0905 C1289.58,63.0905 1290.78,64.0905 1291.58,65.4968 C1291.89,66.0905 1292.19,66.7936 1292.19,67.5905 C1292.19,69.7936 1289.89,72.4968 1282.08,77.5905"/>
<path class="Note" d="M1273.58,61.4952 C1291.98,61.4952 1295.69,46.4952 1295.69,42.9014 C1295.69,37.1983 1291.19,33.4952 1284.69,33.4952 C1267.98,33.4952 1262.78,46.4014 1262.78,52.1983 C1262.78,58.0889 1267.48,61.4952 1273.58,61.4952 M1282.08,52.5889 C1277.08,55.9952 1273.58,57.1983 1271.19,57.1983 C1268.87,57.1983 1267.48,55.9952 1266.78,54.5889 C1266.37,53.9952 1266.08,53.1983 1266.08,52.4014 C1266.08,46.9952 1282.19,38.0889 1287.48,38.0889 C1289.58,38.0889 1290.78,39.0889 1291.58,40.4952 C1291.89,41.0889 1292.19,41.7921 1292.19,42.5889 C1292.19,44.7921 1289.89,47.4952 1282.08,52.5889"/>
<path class="Note" d="M1591.8,123.999 C1601.71,123.999 1613.91,114.796 1613.91,105.296 C1613.91,99.7022 1609.41,95.9991 1603,95.9991 C1590.8,95.9991 1581,105.093 1581,114.702 C1581,120.499 1585.8,123.999 1591.8,123.999"/>
<path class="Note" d="M1591.8,73.996 C1601.71,73.996 1613.91,64.7928 1613.91,55.2928 C1613.91,49.6991 1609.41,45.996 1603,45.996 C1590.8,45.996 1581,55.0897 1581,64.6991 C1581,70.496 1585.8,73.996 1591.8,73.996"/>
<path class="Note" d="M1790.69,111.498 C1809.1,111.498 1812.8,96.4983 1812.8,92.9046 C1812.8,87.2015 1808.3,83.4983 1801.8,83.4983 C1785.1,83.4983 1779.89,96.4046 1779.89,102.201 C1779.89,108.092 1784.6,111.498 1790.69,111.498 M1799.19,102.592 C1794.19,105.998 1790.69,107.201 1788.3,107.201 C1785.99,107.201 1784.6,105.998 1783.89,104.592 C1783.49,103.998 1783.19,103.201 1783.19,102.405 C1783.19,96.9983 1799.3,88.0921 1804.6,88.0921 C1806.69,88.0921 1807.89,89.0921 1808.69,90.4983 C1809,91.0921 1809.3,91.7952 1809.3,92.5921 C1809.3,94.7952 1807,97.4983 1799.19,102.592"/>
<path class="Note" d="M1790.69,86.4968 C1809.1,86.4968 1812.8,71.4968 1812.8,67.903 C1812.8,62.1999 1808.3,58.4968 1801.8,58.4968 C1785.1,58.4968 1779.89,71.403 1779.89,77.1999 C1779.89,83.0905 1784.6,86.4968 1790.69,86.4968 M1799.19,77.5905 C1794.19,80.9968 1790.69,82.1999 1788.3,82.1999 C1785.99,82.1999 1784.6,80.9968 1783.89,79.5905 C1783.49,78.9968 1783.19,78.1999 1783.19,77.403 C1783.19,71.9968 1799.3,63.0905 1804.6,63.0905 C1806.69,63.0905 1807.89,64.0905 1808.69,65.4968 C1809,66.0905 1809.3,66.7936 1809.3,67.5905 C1809.3,69.7936 1807,72.4968 1799.19,77.5905"/>
<path class="Note" d="M2115.12,96.296 C2100.62,96.296 2091.62,102.405 2091.62,109.796 C2091.62,117.093 2097.82,123.593 2114.02,123.593 C2131.82,123.593 2137.52,117.405 2137.52,109.796 C2137.52,102.093 2125.22,96.296 2115.12,96.296 M2112.32,98.796 C2119.72,98.796 2125.72,106.796 2125.72,113.405 C2125.72,118.796 2122.32,121.093 2117.41,121.093 C2110.21,121.093 2103.32,112.796 2103.32,105.796 C2103.32,100.202 2107.21,98.796 2112.32,98.796"/>
<path class="Note" d="M2115.12,33.7921 C2100.62,33.7921 2091.62,39.9014 2091.62,47.2921 C2091.62,54.5889 2097.82,61.0889 2114.02,61.0889 C2131.82,61.0889 2137.52,54.9014 2137.52,47.2921 C2137.52,39.5889 2125.22,33.7921 2115.12,33.7921 M2112.32,36.2921 C2119.72,36.2921 2125.72,44.2921 2125.72,50.9014 C2125.72,56.2921 2122.32,58.5889 2117.41,58.5889 C2110.21,58.5889 2103.32,50.2921 2103.32,43.2921 C2103.32,37.6983 2107.21,36.2921 2112.32,36.2921"/>
<path class="Note" d="M2552.67,108.797 C2538.17,108.797 2529.17,114.906 2529.17,122.297 C2529.17,129.594 2535.37,136.094 2551.58,136.094 C2569.37,136.094 2575.08,129.906 2575.08,122.297 C2575.08,114.594 2562.78,108.797 2552.67,108.797 M2549.87,111.297 C2557.28,111.297 2563.28,119.297 2563.28,125.906 C2563.28,131.297 2559.87,133.594 2554.97,133.594 C2547.77,133.594 2540.87,125.297 2540.87,118.297 C2540.87,112.703 2544.77,111.297 2549.87,111.297"/>
<path class="Note" d="M2552.67,21.2913 C2538.17,21.2913 2529.17,27.4006 2529.17,34.7913 C2529.17,42.0881 2535.37,48.5881 2551.58,48.5881 C2569.37,48.5881 2575.08,42.4006 2575.08,34.7913 C2575.08,27.0881 2562.78,21.2913 2552.67,21.2913 M2549.87,23.7913 C2557.28,23.7913 2563.28,31.7913 2563.28,38.4006 C2563.28,43.7913 2559.87,46.0881 2554.97,46.0881 C2547.77,46.0881 2540.87,37.7913 2540.87,30.7913 C2540.87,25.1975 2544.77,23.7913 2549.87,23.7913"/>
<path class="Clef" d="M67.0013,15.6866 C70.2981,15.6866 73.0013,18.3897 73.0013,23.8897 C73.0013,34.9991 63.5013,43.9991 55.6106,50.8897 C55.2981,51.0929 55.1106,51.296 54.9075,51.296 C54.6106,51.296 54.4075,50.8897 54.2981,50.0929 C53.9075,47.4991 53.7044,44.0929 53.7044,40.8897 C53.7044,25.296 60.9075,15.6866 67.0013,15.6866 M63.0013,99.7022 C62.7981,98.5929 62.9075,98.296 63.7044,98.296 C63.7981,98.296 64.0013,98.296 64.1106,98.296 C72.2044,98.9991 78.9075,105.796 78.9075,114.593 C78.9075,120.905 75.1106,125.999 69.5013,128.796 C69.0013,128.999 68.7044,129.202 68.5013,129.202 C68.1106,129.202 68.0013,128.905 67.9075,128.202 L63.0013,99.7022 M56.1106,83.796 C56.4075,85.7022 56.4075,85.5929 54.6106,86.2022 C45.7981,89.2022 40.095,97.0929 40.095,105.593 C40.095,114.593 44.7981,120.999 51.6106,123.296 C52.4075,123.593 53.6106,123.905 54.2981,123.905 C55.1106,123.905 55.5013,123.405 55.5013,122.796 C55.5013,122.093 54.7044,121.796 54.0013,121.499 C49.7981,119.702 46.7981,115.405 46.7981,110.796 C46.7981,105.093 50.7044,100.796 56.7981,99.0929 C57.2981,98.9991 57.7044,98.9054 58.0013,98.9054 C58.5013,98.9054 58.7044,99.2022 58.7981,99.9054 L63.7981,129.702 C64.0013,130.796 63.9075,130.796 62.4075,131.093 C60.7981,131.405 58.7981,131.593 56.7981,131.593 C39.2981,131.593 28.0013,121.905 28.0013,107.999 C28.0013,90.9991 40.5013,80.3897 52.6106,70.5929 C53.0013,70.296 53.2981,70.0929 53.5013,70.0929 C53.7981,70.0929 53.9075,70.3897 54.0013,70.9991 L56.1106,83.796 M57.6106,68.4991 C57.4075,67.296 57.6106,67.2022 58.2044,66.5929 C69.0013,56.4991 77.2044,43.796 77.2044,28.4991 C77.2044,19.796 74.7981,11.1866 70.7044,5.18662 C69.2044,2.99912 66.6106,0.186616 65.5013,0.186616 C64.1106,0.186616 61.0013,2.79599 59.0013,4.99912 C51.6106,13.1866 49.2044,25.6866 49.2044,36.0929 C49.2044,41.8897 49.9075,48.3897 50.6106,52.4991 C50.7981,53.7022 50.9075,53.8897 49.7044,54.8897 C35.2981,66.796 20.0013,81.0929 20.0013,101.296 C20.0013,118.702 31.9075,135.202 56.4075,135.202 C58.7044,135.202 61.2981,134.999 63.2981,134.593 C63.7044,134.499 63.9075,134.499 64.1106,134.499 C64.5013,134.499 64.7044,134.702 64.7981,135.499 C66.0013,142.202 67.5013,150.905 67.5013,155.608 C67.5013,170.405 57.5013,172.202 51.6106,172.202 C46.2044,172.202 43.595,170.608 43.595,169.296 C43.595,168.608 44.5013,168.296 46.7981,167.608 C49.9075,166.702 53.5013,163.999 53.5013,158.202 C53.5013,152.702 50.0013,147.999 43.9075,147.999 C37.2044,147.999 33.2044,153.296 33.2044,159.499 C33.2044,165.999 37.095,175.796 52.2044,175.796 C58.9075,175.796 71.9075,172.796 71.9075,155.796 C71.9075,150.108 70.1106,140.608 69.0013,134.405 C68.7981,133.202 68.9075,133.296 70.2981,132.702 C80.4075,128.702 87.1106,120.202 87.1106,108.905 C87.1106,96.0929 77.7044,84.796 63.0013,84.796 C60.4075,84.796 60.4075,84.796 60.1106,82.9991 L57.6106,68.4991 "/>
<path class="KeySig" d="M166.807,105.592 C166.807,105.592 166.51,99.5921 166.51,95.5921 C166.51,93.9983 166.604,92.7952 166.698,92.4046 C167.401,90.4046 171.401,87.4983 173.698,87.4983 C176.604,87.4983 177.807,90.7952 177.807,93.2952 C177.807,98.7015 173.198,104.092 168.901,106.795 C168.51,106.998 168.198,107.092 167.901,107.092 C167.01,107.092 166.807,106.092 166.807,105.592 M163.307,114.498 C163.604,114.905 163.901,114.998 164.198,114.998 C164.51,114.998 164.807,114.795 164.807,114.795 C167.807,113.092 170.198,110.405 172.698,108.701 C181.604,102.498 184.698,96.4046 184.698,91.7952 C184.698,86.0921 180.307,82.4983 175.698,82.2015 C174.01,82.2015 171.604,82.9983 170.198,83.9046 C169.604,84.4046 168.51,85.2952 168.01,85.2952 C167.807,85.2952 167.698,85.2952 167.51,85.2015 C166.807,84.9046 166.401,84.2015 166.401,83.4983 C166.51,81.2952 167.104,57.2952 167.104,55.2952 C167.104,54.2015 166.198,53.5921 165.198,53.5921 C163.807,53.5921 162.198,54.5921 162.104,56.389 C162.104,56.389 162.51,113.498 163.307,114.498"/>
<path class="KeySig" d="M141.806,55.5889 C141.806,55.5889 141.509,49.5889 141.509,45.5889 C141.509,43.9952 141.602,42.7921 141.696,42.4014 C142.399,40.4014 146.399,37.4952 148.696,37.4952 C151.602,37.4952 152.806,40.7921 152.806,43.2921 C152.806,48.6983 148.196,54.0889 143.899,56.7921 C143.509,56.9952 143.196,57.0889 142.899,57.0889 C142.009,57.0889 141.806,56.0889 141.806,55.5889 M138.306,64.4952 C138.602,64.9014 138.899,64.9952 139.196,64.9952 C139.509,64.9952 139.806,64.7921 139.806,64.7921 C142.806,63.0889 145.196,60.4014 147.696,58.6983 C156.602,52.4952 159.696,46.4014 159.696,41.7921 C159.696,36.0889 155.306,32.4952 150.696,32.1983 C149.009,32.1983 146.602,32.9952 145.196,33.9014 C144.602,34.4014 143.509,35.2921 143.009,35.2921 C142.806,35.2921 142.696,35.2921 142.509,35.1983 C141.806,34.9014 141.399,34.1983 141.399,33.4952 C141.509,31.2921 142.102,7.29205 142.102,5.29205 C142.102,4.1983 141.196,3.58893 140.196,3.58893 C138.806,3.58893 137.196,4.58893 137.102,6.3858 C137.102,6.3858 137.509,63.4952 138.306,64.4952"/>
<path class="KeySig" d="M116.804,93.0913 C116.804,93.0913 116.507,87.0913 116.507,83.0913 C116.507,81.4975 116.601,80.2944 116.695,79.9038 C117.398,77.9038 121.398,74.9975 123.695,74.9975 C126.601,74.9975 127.804,78.2944 127.804,80.7944 C127.804,86.2007 123.195,91.5913 118.898,94.2944 C118.507,94.4975 118.195,94.5913 117.898,94.5913 C117.007,94.5913 116.804,93.5913 116.804,93.0913 M113.304,101.998 C113.601,102.404 113.898,102.498 114.195,102.498 C114.507,102.498 114.804,102.294 114.804,102.294 C117.804,100.591 120.195,97.9038 122.695,96.2007 C131.601,89.9975 134.695,83.9038 134.695,79.2944 C134.695,73.5913 130.304,69.9975 125.695,69.7007 C124.007,69.7007 121.601,70.4975 120.195,71.4038 C119.601,71.9038 118.507,72.7944 118.007,72.7944 C117.804,72.7944 117.695,72.7944 117.507,72.7007 C116.804,72.4038 116.398,71.7007 116.398,70.9975 C116.507,68.7944 117.101,44.7944 117.101,42.7944 C117.101,41.7007 116.195,41.0913 115.195,41.0913 C113.804,41.0913 112.195,42.0913 112.101,43.8882 C112.101,43.8882 112.507,100.998 113.304,101.998"/>
<path class="TimeSig" d="M232.505,59.9038 C218.302,59.9038 209.708,72.4975 209.708,85.9975 C209.708,92.4975 212.115,98.2007 216.208,103.201 C220.005,107.794 225.505,109.904 231.505,109.904 C249.005,109.904 251.615,93.9975 251.615,91.0913 C251.615,88.9038 250.505,88.9038 250.115,88.9038 C249.318,88.9038 248.615,88.9975 248.615,90.7007 C248.615,103.591 237.615,106.591 234.412,106.591 C226.302,106.591 222.005,98.7007 222.005,82.2007 C222.005,65.7007 229.615,62.2944 235.005,62.2944 C240.208,62.2944 242.318,64.7007 242.318,65.7007 C242.318,66.5913 242.005,67.9038 240.505,67.9038 C236.505,67.9038 234.208,72.2007 234.208,75.2944 C234.208,80.9975 239.115,82.7944 241.912,82.7944 C241.912,82.7944 249.505,82.4975 249.505,74.2007 C249.505,61.0913 234.412,59.9038 232.505,59.9038"/>
</svg>
