<?xml version="1.0" encoding="UTF-8" standalone="no"?>
<svg width="2977.23px" height="425.196px" viewBox="0 0 2977.23 425.196"
 xmlns="http://www.w3.org/2000/svg" xmlns:xlink="http://www.w3.org/1999/xlink" version="1.2" baseProfile="tiny">
<title>Beethoven</title>
<desc>Generated by MuseScore 3.5.2</desc>
<polyline class="StaffLines" fill="none" stroke="#000000" stroke-width="3.25" stroke-linejoin="bevel" points="0,175.011 2977.23,175.011"/>
<polyline class="StaffLines" fill="none" stroke="#000000" stroke-width="3.25" stroke-linejoin="bevel" points="0,200.013 2977.23,200.013"/>
<polyline class="StaffLines" fill="none" stroke="#000000" stroke-width="3.25" stroke-linejoin="bevel" points="0,225.014 2977.23,225.014"/>
<polyline class="StaffLines" fill="none" stroke="#000000" stroke-width="3.25" stroke-linejoin="bevel" points="0,250.016 2977.23,250.016"/>
<polyline class="StaffLines" fill="none" stroke="#000000" stroke-width="3.25" stroke-linejoin="bevel" points="0,275.017 2977.23,275.017"/>
<polyline class="BarLine" fill="none" stroke="#000000" stroke-width="4.00" stroke-linejoin="bevel" points="2975.23,173.386 2975.23,276.642"/>
<path class="Note" d="M227.513,198.81 C213.013,198.81 204.013,204.92 204.013,212.31 C204.013,219.607 210.216,226.107 226.419,226.107 C244.216,226.107 249.919,219.92 249.919,212.31 C249.919,204.607 237.622,198.81 227.513,198.81 M224.716,201.31 C232.122,201.31 238.122,209.31 238.122,215.92 C238.122,221.31 234.716,223.607 229.81,223.607 C222.607,223.607 215.716,215.31 215.716,208.31 C215.716,202.717 219.607,201.31 224.716,201.31"/>
<path class="Note" d="M227.513,148.807 C213.013,148.807 204.013,154.916 204.013,162.307 C204.013,169.604 210.216,176.104 226.419,176.104 C244.216,176.104 249.919,169.916 249.919,162.307 C249.919,154.604 237.622,148.807 227.513,148.807 M224.716,151.307 C232.122,151.307 238.122,159.307 238.122,165.916 C238.122,171.307 234.716,173.604 229.81,173.604 C222.607,173.604 215.716,165.307 215.716,158.307 C215.716,152.713 219.607,151.307 224.716,151.307"/>
<path class="Clef" d="M67.0013,155.703 C70.2981,155.703 73.0013,158.406 73.0013,163.906 C73.0013,175.016 63.5013,184.016 55.6106,190.906 C55.2981,191.109 55.1106,191.313 54.9075,191.313 C54.6106,191.313 54.4075,190.906 54.2981,190.109 C53.9075,187.516 53.7044,184.109 53.7044,180.906 C53.7044,165.313 60.9075,155.703 67.0013,155.703 M63.0013,239.719 C62.7981,238.609 62.9075,238.313 63.7044,238.313 C63.7981,238.313 64.0013,238.313 64.1106,238.313 C72.2044,239.016 78.9075,245.813 78.9075,254.609 C78.9075,260.922 75.1106,266.016 69.5013,268.813 C69.0013,269.016 68.7044,269.219 68.5013,269.219 C68.1106,269.219 68.0013,268.922 67.9075,268.219 L63.0013,239.719 M56.1106,223.813 C56.4075,225.719 56.4075,225.609 54.6106,226.219 C45.7981,229.219 40.095,237.109 40.095,245.609 C40.095,254.609 44.7981,261.016 51.6106,263.313 C52.4075,263.609 53.6106,263.922 54.2981,263.922 C55.1106,263.922 55.5013,263.422 55.5013,262.813 C55.5013,262.109 54.7044,261.813 54.0013,261.516 C49.7981,259.719 46.7981,255.422 46.7981,250.813 C46.7981,245.109 50.7044,240.813 56.7981,239.109 C57.2981,239.016 57.7044,238.922 58.0013,238.922 C58.5013,238.922 58.7044,239.219 58.7981,239.922 L63.7981,269.719 C64.0013,270.813 63.9075,270.813 62.4075,271.109 C60.7981,271.422 58.7981,271.609 56.7981,271.609 C39.2981,271.609 28.0013,261.922 28.0013,248.016 C28.0013,231.016 40.5013,220.406 52.6106,210.609 C53.0013,210.313 53.2981,210.109 53.5013,210.109 C53.7981,210.109 53.9075,210.406 54.0013,211.016 L56.1106,223.813 M57.6106,208.516 C57.4075,207.313 57.6106,207.219 58.2044,206.609 C69.0013,196.516 77.2044,183.813 77.2044,168.516 C77.2044,159.813 74.7981,151.203 70.7044,145.203 C69.2044,143.016 66.6106,140.203 65.5013,140.203 C64.1106,140.203 61.0013,142.813 59.0013,145.016 C51.6106,153.203 49.2044,165.703 49.2044,176.109 C49.2044,181.906 49.9075,188.406 50.6106,192.516 C50.7981,193.719 50.9075,193.906 49.7044,194.906 C35.2981,206.813 20.0013,221.109 20.0013,241.313 C20.0013,258.719 31.9075,275.219 56.4075,275.219 C58.7044,275.219 61.2981,275.016 63.2981,274.609 C63.7044,274.516 63.9075,274.516 64.1106,274.516 C64.5013,274.516 64.7044,274.719 64.7981,275.516 C66.0013,282.219 67.5013,290.922 67.5013,295.625 C67.5013,310.422 57.5013,312.219 51.6106,312.219 C46.2044,312.219 43.595,310.625 43.595,309.313 C43.595,308.625 44.5013,308.313 46.7981,307.625 C49.9075,306.719 53.5013,304.016 53.5013,298.219 C53.5013,292.719 50.0013,288.016 43.9075,288.016 C37.2044,288.016 33.2044,293.313 33.2044,299.516 C33.2044,306.016 37.095,315.813 52.2044,315.813 C58.9075,315.813 71.9075,312.813 71.9075,295.813 C71.9075,290.125 70.1106,280.625 69.0013,274.422 C68.7981,273.219 68.9075,273.313 70.2981,272.719 C80.4075,268.719 87.1106,260.219 87.1106,248.922 C87.1106,236.109 77.7044,224.813 63.0013,224.813 C60.4075,224.813 60.4075,224.813 60.1106,223.016 L57.6106,208.516 "/>
<path class="TimeSig" d="M134.905,199.92 C120.702,199.92 112.109,212.514 112.109,226.014 C112.109,232.514 114.515,238.217 118.609,243.217 C122.405,247.811 127.905,249.92 133.905,249.92 C151.405,249.92 154.015,234.014 154.015,231.108 C154.015,228.92 152.905,228.92 152.515,228.92 C151.718,228.92 151.015,229.014 151.015,230.717 C151.015,243.608 140.015,246.608 136.812,246.608 C128.702,246.608 124.405,238.717 124.405,222.217 C124.405,205.717 132.015,202.311 137.405,202.311 C142.609,202.311 144.718,204.717 144.718,205.717 C144.718,206.608 144.405,207.92 142.905,207.92 C138.905,207.92 136.609,212.217 136.609,215.311 C136.609,221.014 141.515,222.811 144.312,222.811 C144.312,222.811 151.905,222.514 151.905,214.217 C151.905,201.108 136.812,199.92 134.905,199.92"/>
</svg>
