<?xml version="1.0" encoding="UTF-8" standalone="no"?>
<svg
   width="2588.7246"
   height="801.64801"
   viewBox="0 0 2588.7247 801.64803"
   version="1.2"
   id="svg300"
   sodipodi:docname="Anfang-2.svg"
   inkscape:version="1.2.1 (9c6d41e410, 2022-07-14)"
   xmlns:inkscape="http://www.inkscape.org/namespaces/inkscape"
   xmlns:sodipodi="http://sodipodi.sourceforge.net/DTD/sodipodi-0.dtd"
   xmlns="http://www.w3.org/2000/svg"
   xmlns:svg="http://www.w3.org/2000/svg">
  <defs
     id="defs304" />
  <sodipodi:namedview
     id="namedview302"
     pagecolor="#505050"
     bordercolor="#eeeeee"
     borderopacity="1"
     inkscape:showpageshadow="0"
     inkscape:pageopacity="0"
     inkscape:pagecheckerboard="0"
     inkscape:deskcolor="#505050"
     showgrid="false"
     inkscape:zoom="0.25021386"
     inkscape:cx="891.23759"
     inkscape:cy="1878.3931"
     inkscape:current-layer="svg300" />
  <title
     id="title2">Anfang (2)</title>
  <desc
     id="desc4">Generated by MuseScore 4.0.0</desc>
  <polyline
     class="StaffLines"
     fill="none"
     stroke="#000000"
     stroke-width="3.22"
     stroke-linejoin="bevel"
     points="212.598,386.199 2764.6,386.199"
     id="polyline8"
     transform="translate(-175.88044,-227.402)" />
  <polyline
     class="StaffLines"
     fill="none"
     stroke="#000000"
     stroke-width="3.22"
     stroke-linejoin="bevel"
     points="212.598,410.999 2764.6,410.999"
     id="polyline10"
     transform="translate(-175.88044,-227.402)" />
  <polyline
     class="StaffLines"
     fill="none"
     stroke="#000000"
     stroke-width="3.22"
     stroke-linejoin="bevel"
     points="212.598,435.799 2764.6,435.799"
     id="polyline12"
     transform="translate(-175.88044,-227.402)" />
  <polyline
     class="StaffLines"
     fill="none"
     stroke="#000000"
     stroke-width="3.22"
     stroke-linejoin="bevel"
     points="212.598,460.599 2764.6,460.599"
     id="polyline14"
     transform="translate(-175.88044,-227.402)" />
  <polyline
     class="StaffLines"
     fill="none"
     stroke="#000000"
     stroke-width="3.22"
     stroke-linejoin="bevel"
     points="212.598,485.399 2764.6,485.399"
     id="polyline16"
     transform="translate(-175.88044,-227.402)" />
  <polyline
     class="StaffLines"
     fill="none"
     stroke="#000000"
     stroke-width="3.22"
     stroke-linejoin="bevel"
     points="212.598,825.741 2764.6,825.741"
     id="polyline18"
     transform="translate(-175.88044,-227.402)" />
  <polyline
     class="StaffLines"
     fill="none"
     stroke="#000000"
     stroke-width="3.22"
     stroke-linejoin="bevel"
     points="212.598,850.541 2764.6,850.541"
     id="polyline20"
     transform="translate(-175.88044,-227.402)" />
  <polyline
     class="StaffLines"
     fill="none"
     stroke="#000000"
     stroke-width="3.22"
     stroke-linejoin="bevel"
     points="212.598,875.341 2764.6,875.341"
     id="polyline22"
     transform="translate(-175.88044,-227.402)" />
  <polyline
     class="StaffLines"
     fill="none"
     stroke="#000000"
     stroke-width="3.22"
     stroke-linejoin="bevel"
     points="212.598,900.141 2764.6,900.141"
     id="polyline24"
     transform="translate(-175.88044,-227.402)" />
  <polyline
     class="StaffLines"
     fill="none"
     stroke="#000000"
     stroke-width="3.22"
     stroke-linejoin="bevel"
     points="212.598,924.941 2764.6,924.941"
     id="polyline26"
     transform="translate(-175.88044,-227.402)" />
  <path
     class="TieSegment"
     stroke="#000000"
     stroke-width="2.48"
     stroke-linecap="round"
     stroke-linejoin="round"
     fill-rule="evenodd"
     d="m 1265.3896,214.721 c 60.65,-35.216 242.6,-35.216 303.25,0 -60.65,-29.264 -242.6,-29.264 -303.25,0"
     id="path28" />
  <polyline
     class="BarLine"
     stroke="#000000"
     stroke-width="3.97"
     stroke-linejoin="bevel"
     points="214.582,384.587 214.582,825.741"
     id="polyline30"
     transform="translate(-175.88044,-227.402)" />
  <polyline
     class="BarLine"
     stroke="#000000"
     stroke-width="3.97"
     stroke-linejoin="bevel"
     points="2762.62,384.587 2762.62,825.741"
     id="polyline32"
     transform="translate(-175.88044,-227.402)" />
  <polyline
     class="BarLine"
     stroke="#000000"
     stroke-width="3.97"
     stroke-linejoin="bevel"
     points="2585.02,384.587 2585.02,825.741"
     id="polyline34"
     transform="translate(-175.88044,-227.402)" />
  <polyline
     class="BarLine"
     stroke="#000000"
     stroke-width="3.97"
     stroke-linejoin="bevel"
     points="917.436,384.587 917.436,825.741"
     id="polyline36"
     transform="translate(-175.88044,-227.402)" />
  <polyline
     class="BarLine"
     stroke="#000000"
     stroke-width="3.97"
     stroke-linejoin="bevel"
     points="2063.21,384.587 2063.21,825.741"
     id="polyline38"
     transform="translate(-175.88044,-227.402)" />
  <polyline
     class="BarLine"
     stroke="#000000"
     stroke-width="3.97"
     stroke-linejoin="bevel"
     points="1384.28,384.587 1384.28,825.741"
     id="polyline40"
     transform="translate(-175.88044,-227.402)" />
  <polyline
     class="BarLine"
     stroke="#000000"
     stroke-width="3.97"
     stroke-linejoin="bevel"
     points="214.582,824.129 214.582,926.553"
     id="polyline42"
     transform="translate(-175.88044,-227.402)" />
  <polyline
     class="BarLine"
     stroke="#000000"
     stroke-width="3.97"
     stroke-linejoin="bevel"
     points="2063.21,824.129 2063.21,926.553"
     id="polyline44"
     transform="translate(-175.88044,-227.402)" />
  <polyline
     class="BarLine"
     stroke="#000000"
     stroke-width="3.97"
     stroke-linejoin="bevel"
     points="917.436,824.129 917.436,926.553"
     id="polyline46"
     transform="translate(-175.88044,-227.402)" />
  <polyline
     class="BarLine"
     stroke="#000000"
     stroke-width="3.97"
     stroke-linejoin="bevel"
     points="2762.62,824.129 2762.62,926.553"
     id="polyline48"
     transform="translate(-175.88044,-227.402)" />
  <polyline
     class="BarLine"
     stroke="#000000"
     stroke-width="3.97"
     stroke-linejoin="bevel"
     points="2585.02,824.129 2585.02,926.553"
     id="polyline50"
     transform="translate(-175.88044,-227.402)" />
  <polyline
     class="BarLine"
     stroke="#000000"
     stroke-width="3.97"
     stroke-linejoin="bevel"
     points="1384.28,824.129 1384.28,926.553"
     id="polyline52"
     transform="translate(-175.88044,-227.402)" />
  <polyline
     class="LedgerLine"
     stroke="#000000"
     stroke-width="3.97"
     stroke-linejoin="bevel"
     points="2609.32,510.199 2661.79,510.199"
     id="polyline54"
     transform="translate(-175.88044,-227.402)" />
  <polyline
     class="LedgerLine"
     stroke="#000000"
     stroke-width="3.97"
     stroke-linejoin="bevel"
     points="2266.76,510.199 2319.23,510.199"
     id="polyline56"
     transform="translate(-175.88044,-227.402)" />
  <polyline
     class="LedgerLine"
     stroke="#000000"
     stroke-width="3.97"
     stroke-linejoin="bevel"
     points="941.74,800.941 1007.11,800.941"
     id="polyline58"
     transform="translate(-175.88044,-227.402)" />
  <polyline
     class="LedgerLine"
     stroke="#000000"
     stroke-width="3.97"
     stroke-linejoin="bevel"
     points="686.992,800.941 752.363,800.941"
     id="polyline60"
     transform="translate(-175.88044,-227.402)" />
  <polyline
     class="LedgerLine"
     stroke="#000000"
     stroke-width="3.97"
     stroke-linejoin="bevel"
     points="1153.83,800.941 1219.2,800.941"
     id="polyline62"
     transform="translate(-175.88044,-227.402)" />
  <polyline
     class="LedgerLine"
     stroke="#000000"
     stroke-width="3.97"
     stroke-linejoin="bevel"
     points="1415.03,800.941 1467.5,800.941"
     id="polyline64"
     transform="translate(-175.88044,-227.402)" />
  <polyline
     class="LedgerLine"
     stroke="#000000"
     stroke-width="3.97"
     stroke-linejoin="bevel"
     points="1721.38,800.941 1773.86,800.941"
     id="polyline66"
     transform="translate(-175.88044,-227.402)" />
  <polyline
     class="Stem"
     stroke="#000000"
     stroke-width="2.98"
     stroke-linejoin="bevel"
     points="2650.39,506.032 2650.39,423.399"
     id="polyline68"
     transform="translate(-175.88044,-227.402)" />
  <polyline
     class="Stem"
     stroke="#000000"
     stroke-width="2.98"
     stroke-linejoin="bevel"
     points="2128.58,493.632 2128.58,410.999"
     id="polyline70"
     transform="translate(-175.88044,-227.402)" />
  <polyline
     class="Stem"
     stroke="#000000"
     stroke-width="2.98"
     stroke-linejoin="bevel"
     points="2307.82,506.032 2307.82,423.399"
     id="polyline72"
     transform="translate(-175.88044,-227.402)" />
  <polyline
     class="Stem"
     stroke="#000000"
     stroke-width="2.98"
     stroke-linejoin="bevel"
     points="1903.85,468.832 1903.85,386.199"
     id="polyline74"
     transform="translate(-175.88044,-227.402)" />
  <polyline
     class="Stem"
     stroke="#000000"
     stroke-width="2.98"
     stroke-linejoin="bevel"
     points="1762.45,456.432 1762.45,373.799"
     id="polyline76"
     transform="translate(-175.88044,-227.402)" />
  <polyline
     class="Stem"
     stroke="#000000"
     stroke-width="2.98"
     stroke-linejoin="bevel"
     points="1998.11,481.232 1998.11,398.599"
     id="polyline78"
     transform="translate(-175.88044,-227.402)" />
  <polyline
     class="Stem"
     stroke="#000000"
     stroke-width="2.98"
     stroke-linejoin="bevel"
     points="2098.92,501.965 2098.92,559.799"
     id="polyline80"
     transform="translate(-175.88044,-227.402)" />
  <polyline
     class="Stem"
     stroke="#000000"
     stroke-width="2.98"
     stroke-linejoin="bevel"
     points="1732.79,489.565 1732.79,547.399"
     id="polyline82"
     transform="translate(-175.88044,-227.402)" />
  <polyline
     class="Stem"
     stroke="#000000"
     stroke-width="2.98"
     stroke-linejoin="bevel"
     points="1567.83,501.965 1567.83,559.799"
     id="polyline84"
     transform="translate(-175.88044,-227.402)" />
  <polyline
     class="Stem"
     stroke="#000000"
     stroke-width="2.98"
     stroke-linejoin="bevel"
     points="1874.19,501.965 1874.19,559.799"
     id="polyline86"
     transform="translate(-175.88044,-227.402)" />
  <polyline
     class="Stem"
     stroke="#000000"
     stroke-width="2.98"
     stroke-linejoin="bevel"
     points="1426.44,489.565 1426.44,547.399"
     id="polyline88"
     transform="translate(-175.88044,-227.402)" />
  <polyline
     class="Stem"
     stroke="#000000"
     stroke-width="2.98"
     stroke-linejoin="bevel"
     points="2128.58,821.574 2128.58,763.741"
     id="polyline90"
     transform="translate(-175.88044,-227.402)" />
  <polyline
     class="Stem"
     stroke="#000000"
     stroke-width="2.98"
     stroke-linejoin="bevel"
     points="1903.85,821.574 1903.85,763.741"
     id="polyline92"
     transform="translate(-175.88044,-227.402)" />
  <polyline
     class="Stem"
     stroke="#000000"
     stroke-width="2.98"
     stroke-linejoin="bevel"
     points="1668.19,809.174 1668.19,751.341"
     id="polyline94"
     transform="translate(-175.88044,-227.402)" />
  <polyline
     class="Stem"
     stroke="#000000"
     stroke-width="2.98"
     stroke-linejoin="bevel"
     points="1762.45,796.774 1762.45,738.941"
     id="polyline96"
     transform="translate(-175.88044,-227.402)" />
  <polyline
     class="Stem"
     stroke="#000000"
     stroke-width="2.98"
     stroke-linejoin="bevel"
     points="1456.1,796.774 1456.1,738.941"
     id="polyline98"
     transform="translate(-175.88044,-227.402)" />
  <polyline
     class="Stem"
     stroke="#000000"
     stroke-width="2.98"
     stroke-linejoin="bevel"
     points="1968.45,867.107 1968.45,943.541"
     id="polyline100"
     transform="translate(-175.88044,-227.402)" />
  <polyline
     class="Stem"
     stroke="#000000"
     stroke-width="2.98"
     stroke-linejoin="bevel"
     points="1732.79,891.907 1732.79,955.941"
     id="polyline102"
     transform="translate(-175.88044,-227.402)" />
  <polyline
     class="Stem"
     stroke="#000000"
     stroke-width="2.98"
     stroke-linejoin="bevel"
     points="2098.92,854.707 2098.92,937.341"
     id="polyline104"
     transform="translate(-175.88044,-227.402)" />
  <polyline
     class="Stem"
     stroke="#000000"
     stroke-width="2.98"
     stroke-linejoin="bevel"
     points="1426.44,891.907 1426.44,955.941"
     id="polyline106"
     transform="translate(-175.88044,-227.402)" />
  <polyline
     class="Stem"
     stroke="#000000"
     stroke-width="2.98"
     stroke-linejoin="bevel"
     points="1567.83,842.307 1567.83,924.941"
     id="polyline108"
     transform="translate(-175.88044,-227.402)" />
  <polyline
     class="Stem"
     stroke="#000000"
     stroke-width="2.98"
     stroke-linejoin="bevel"
     points="1874.19,879.507 1874.19,949.741"
     id="polyline110"
     transform="translate(-175.88044,-227.402)" />
  <path
     class="Note"
     d="m 1801.7901,271.88501 c 9.827,0 21.9325,-9.1295 21.9325,-18.55352 0,-5.54903 -4.464,-9.2225 -10.819,-9.2225 -12.1055,0 -21.824,9.02101 -21.824,18.55352 0,5.7505 4.7585,9.2225 10.7105,9.2225"
     id="path112"
     style="stroke-width:0.992001" />
  <path
     class="Note"
     d="m 1932.2601,284.28501 c 18.259,0 21.9325,-14.88001 21.9325,-18.44501 0,-5.65754 -4.464,-9.33101 -10.912,-9.33101 -16.5695,0 -21.731,12.80301 -21.731,18.55352 0,5.84355 4.6655,9.2225 10.7105,9.2225 m 8.432,-8.835 c -4.96,3.379 -8.432,4.5725 -10.8035,4.5725 -2.294,0 -3.6735,-1.1935 -4.371,-2.5885 -0.403,-0.589 -0.6975,-1.3795 -0.6975,-2.17001 0,-5.363 15.9805,-14.19801 21.235,-14.19801 2.077,0 3.2705,0.992 4.061,2.387 0.31,0.589 0.6045,1.2865 0.6045,2.07701 0,2.18549 -2.2785,4.867 -10.0285,9.92001"
     id="path114"
     style="stroke-width:0.992001" />
  <path
     class="Note"
     d="m 2111.5101,296.68501 c 9.827,0 21.9325,-9.1295 21.9325,-18.55352 0,-5.54903 -4.464,-9.2225 -10.819,-9.2225 -12.1055,0 -21.824,9.02101 -21.824,18.55352 0,5.7505 4.7585,9.2225 10.7105,9.2225"
     id="path116"
     style="stroke-width:0.992001" />
  <path
     class="Note"
     d="m 2211.9216,256.80351 c -14.384,0 -23.312,6.06048 -23.312,13.39199 0,7.23851 6.1535,13.68656 22.227,13.68656 17.6545,0 23.3121,-6.13805 23.3121,-13.68656 0,-7.64151 -12.1986,-13.39199 -22.2271,-13.39199 m -2.7745,2.48 c 7.347,0 13.299,7.93598 13.299,14.49249 0,5.45601 -3.379,7.62606 -8.246,7.62606 -7.1455,0 -13.9811,-8.23055 -13.9811,-15.17457 0,-5.549 3.8596,-6.94398 8.9281,-6.94398"
     id="path118"
     style="stroke-width:0.992001" />
  <path
     class="Note"
     d="m 2454.0701,296.68501 c 18.259,0 21.9325,-14.88001 21.9325,-18.44501 0,-5.65754 -4.464,-9.33101 -10.912,-9.33101 -16.5695,0 -21.731,12.80301 -21.731,18.55352 0,5.84355 4.6655,9.2225 10.7105,9.2225 m 8.432,-8.835 c -4.96,3.379 -8.432,4.5725 -10.8035,4.5725 -2.294,0 -3.6735,-1.1935 -4.371,-2.5885 -0.403,-0.589 -0.6975,-1.3795 -0.6975,-2.17001 0,-5.363 15.9805,-14.19801 21.235,-14.19801 2.077,0 3.2705,0.992 4.061,2.387 0.31,0.589 0.6045,1.2865 0.6045,2.07701 0,2.18549 -2.2785,4.867 -10.0285,9.92001"
     id="path120"
     style="stroke-width:0.992001" />
  <path
     class="Note"
     d="m 799.09159,207.20351 c -14.38402,0 -23.31203,6.06048 -23.31203,13.39199 0,7.23851 6.15351,13.68656 22.22707,13.68656 17.65445,0 23.31203,-6.13805 23.31203,-13.68656 0,-7.64151 -12.19854,-13.39199 -22.22707,-13.39199 m -2.77453,2.48 c 7.34706,0 13.29906,7.93598 13.29906,14.49249 0,5.45601 -3.37905,7.62606 -8.24601,7.62606 -7.14548,0 -13.98106,-8.23055 -13.98106,-15.17457 0,-5.549 3.85958,-6.94398 8.92801,-6.94398"
     id="path122"
     style="stroke-width:0.992001" />
  <path
     class="Note"
     d="m 1011.1816,207.20351 c -14.38403,0 -23.31204,6.06048 -23.31204,13.39199 0,7.23851 6.15351,13.68656 22.22704,13.68656 17.6545,0 23.3121,-6.13805 23.3121,-13.68656 0,-7.64151 -12.1986,-13.39199 -22.2271,-13.39199 m -2.7745,2.48 c 7.347,0 13.299,7.93598 13.299,14.49249 0,5.45601 -3.379,7.62606 -8.246,7.62606 -7.1455,0 -13.98105,-8.23055 -13.98105,-15.17457 0,-5.549 3.85955,-6.94398 8.92805,-6.94398"
     id="path124"
     style="stroke-width:0.992001" />
  <path
     class="Note"
     d="m 1265.9316,219.60351 c -14.384,0 -23.312,6.06048 -23.312,13.39199 0,7.23851 6.1535,13.68656 22.227,13.68656 17.6545,0 23.3121,-6.13805 23.3121,-13.68656 0,-7.64151 -12.1986,-13.39199 -22.2271,-13.39199 m -2.7745,2.48 c 7.347,0 13.299,7.93598 13.299,14.49249 0,5.45601 -3.379,7.62606 -8.246,7.62606 -7.1455,0 -13.9811,-8.23055 -13.9811,-15.17457 0,-5.549 3.8596,-6.94398 8.9281,-6.94398"
     id="path126"
     style="stroke-width:0.992001" />
  <path
     class="Note"
     d="m 1566.1301,247.08501 c 18.259,0 21.9325,-14.88001 21.9325,-18.44501 0,-5.65754 -4.464,-9.33101 -10.912,-9.33101 -16.5695,0 -21.731,12.80301 -21.731,18.55352 0,5.84355 4.6655,9.2225 10.7105,9.2225 m 8.432,-8.835 c -4.96,3.379 -8.432,4.5725 -10.8035,4.5725 -2.294,0 -3.6735,-1.1935 -4.371,-2.5885 -0.403,-0.589 -0.6975,-1.3795 -0.6975,-2.17001 0,-5.363 15.9805,-14.19801 21.235,-14.19801 2.077,0 3.2705,0.992 4.061,2.387 0.31,0.589 0.6045,1.2865 0.6045,2.07701 0,2.18549 -2.2785,4.867 -10.0285,9.92001"
     id="path128"
     style="stroke-width:0.992001" />
  <path
     class="Note"
     d="m 1707.5301,259.48501 c 9.827,0 21.9325,-9.1295 21.9325,-18.55352 0,-5.54903 -4.464,-9.2225 -10.819,-9.2225 -12.1055,0 -21.824,9.02101 -21.824,18.55352 0,5.7505 4.7585,9.2225 10.7105,9.2225"
     id="path130"
     style="stroke-width:0.992001" />
  <path
     class="Note"
     d="m 1932.2601,284.28501 c 18.259,0 21.9325,-14.88001 21.9325,-18.44501 0,-5.65754 -4.464,-9.33101 -10.912,-9.33101 -16.5695,0 -21.731,12.80301 -21.731,18.55352 0,5.84355 4.6655,9.2225 10.7105,9.2225 m 8.432,-8.835 c -4.96,3.379 -8.432,4.5725 -10.8035,4.5725 -2.294,0 -3.6735,-1.1935 -4.371,-2.5885 -0.403,-0.589 -0.6975,-1.3795 -0.6975,-2.17001 0,-5.363 15.9805,-14.19801 21.235,-14.19801 2.077,0 3.2705,0.992 4.061,2.387 0.31,0.589 0.6045,1.2865 0.6045,2.07701 0,2.18549 -2.2785,4.867 -10.0285,9.92001"
     id="path132"
     style="stroke-width:0.992001" />
  <path
     class="Note"
     d="m 1011.1816,232.00351 c -14.38403,0 -23.31204,6.06048 -23.31204,13.39199 0,7.23851 6.15351,13.68656 22.22704,13.68656 17.6545,0 23.3121,-6.13805 23.3121,-13.68656 0,-7.64151 -12.1986,-13.39199 -22.2271,-13.39199 m -2.7745,2.48 c 7.347,0 13.299,7.93598 13.299,14.49249 0,5.45601 -3.379,7.62606 -8.246,7.62606 -7.1455,0 -13.98105,-8.23055 -13.98105,-15.17457 0,-5.549 3.85955,-6.94398 8.92805,-6.94398"
     id="path134"
     style="stroke-width:0.992001" />
  <path
     class="Note"
     d="m 1401.1701,284.28501 c 18.259,0 21.9325,-14.88001 21.9325,-18.44501 0,-5.65754 -4.464,-9.33101 -10.912,-9.33101 -16.5695,0 -21.731,12.80301 -21.731,18.55352 0,5.84355 4.6655,9.2225 10.7105,9.2225 m 8.432,-8.835 c -4.96,3.379 -8.432,4.5725 -10.8035,4.5725 -2.294,0 -3.6735,-1.1935 -4.371,-2.5885 -0.403,-0.589 -0.6975,-1.3795 -0.6975,-2.17001 0,-5.363 15.9805,-14.19801 21.235,-14.19801 2.077,0 3.2705,0.992 4.061,2.387 0.31,0.589 0.6045,1.2865 0.6045,2.07701 0,2.18549 -2.2785,4.867 -10.0285,9.92001"
     id="path136"
     style="stroke-width:0.992001" />
  <path
     class="Note"
     d="m 1566.1301,271.88501 c 18.259,0 21.9325,-14.88001 21.9325,-18.44501 0,-5.65754 -4.464,-9.33101 -10.912,-9.33101 -16.5695,0 -21.731,12.80301 -21.731,18.55352 0,5.84355 4.6655,9.2225 10.7105,9.2225 m 8.432,-8.835 c -4.96,3.379 -8.432,4.5725 -10.8035,4.5725 -2.294,0 -3.6735,-1.1935 -4.371,-2.5885 -0.403,-0.589 -0.6975,-1.3795 -0.6975,-2.17001 0,-5.363 15.9805,-14.19801 21.235,-14.19801 2.077,0 3.2705,0.992 4.061,2.387 0.31,0.589 0.6045,1.2865 0.6045,2.07701 0,2.18549 -2.2785,4.867 -10.0285,9.92001"
     id="path138"
     style="stroke-width:0.992001" />
  <path
     class="Note"
     d="m 1259.7801,271.88501 c 18.259,0 21.9325,-14.88001 21.9325,-18.44501 0,-5.65754 -4.464,-9.33101 -10.912,-9.33101 -16.5695,0 -21.731,12.80301 -21.731,18.55352 0,5.84355 4.6655,9.2225 10.7105,9.2225 m 8.432,-8.835 c -4.96,3.379 -8.432,4.5725 -10.8035,4.5725 -2.294,0 -3.6735,-1.1935 -4.371,-2.5885 -0.403,-0.589 -0.6975,-1.3795 -0.6975,-2.17001 0,-5.363 15.9805,-14.19801 21.235,-14.19801 2.077,0 3.2705,0.992 4.061,2.387 0.31,0.589 0.6045,1.2865 0.6045,2.07701 0,2.18549 -2.2785,4.867 -10.0285,9.92001"
     id="path140"
     style="stroke-width:0.992001" />
  <path
     class="Note"
     d="m 544.34359,244.40351 c -14.38402,0 -23.31203,6.06048 -23.31203,13.39199 0,7.23851 6.15351,13.68656 22.22707,13.68656 17.65445,0 23.31203,-6.13805 23.31203,-13.68656 0,-7.64151 -12.19854,-13.39199 -22.22707,-13.39199 m -2.77453,2.48 c 7.34706,0 13.29906,7.93598 13.29906,14.49249 0,5.45601 -3.37905,7.62606 -8.24601,7.62606 -7.14548,0 -13.98106,-8.23055 -13.98106,-15.17457 0,-5.549 3.85958,-6.94398 8.92801,-6.94398"
     id="path142"
     style="stroke-width:0.992001" />
  <path
     class="Note"
     d="m 1707.5301,284.28501 c 18.259,0 21.9325,-14.88001 21.9325,-18.44501 0,-5.65754 -4.464,-9.33101 -10.912,-9.33101 -16.5695,0 -21.731,12.80301 -21.731,18.55352 0,5.84355 4.6655,9.2225 10.7105,9.2225 m 8.432,-8.835 c -4.96,3.379 -8.432,4.5725 -10.8035,4.5725 -2.294,0 -3.6735,-1.1935 -4.371,-2.5885 -0.403,-0.589 -0.6975,-1.3795 -0.6975,-2.17001 0,-5.363 15.9805,-14.19801 21.235,-14.19801 2.077,0 3.2705,0.992 4.061,2.387 0.31,0.589 0.6045,1.2865 0.6045,2.07701 0,2.18549 -2.2785,4.867 -10.0285,9.92001"
     id="path144"
     style="stroke-width:0.992001" />
  <path
     class="Note"
     d="m 799.09159,232.00351 c -14.38402,0 -23.31203,6.06048 -23.31203,13.39199 0,7.23851 6.15351,13.68656 22.22707,13.68656 17.65445,0 23.31203,-6.13805 23.31203,-13.68656 0,-7.64151 -12.19854,-13.39199 -22.22707,-13.39199 m -2.77453,2.48 c 7.34706,0 13.29906,7.93598 13.29906,14.49249 0,5.45601 -3.37905,7.62606 -8.24601,7.62606 -7.14548,0 -13.98106,-8.23055 -13.98106,-15.17457 0,-5.549 3.85958,-6.94398 8.92801,-6.94398"
     id="path146"
     style="stroke-width:0.992001" />
  <path
     class="Note"
     d="m 1259.7801,587.42701 c 18.259,0 21.9325,-14.88001 21.9325,-18.44501 0,-5.65754 -4.464,-9.33101 -10.912,-9.33101 -16.5695,0 -21.731,12.80301 -21.731,18.55352 0,5.84355 4.6655,9.2225 10.7105,9.2225 m 8.432,-8.835 c -4.96,3.379 -8.432,4.5725 -10.8035,4.5725 -2.294,0 -3.6735,-1.1935 -4.371,-2.5885 -0.403,-0.589 -0.6975,-1.3795 -0.6975,-2.17001 0,-5.363 15.9805,-14.19801 21.235,-14.19801 2.077,0 3.2705,0.992 4.061,2.387 0.31,0.589 0.6045,1.2865 0.6045,2.07701 0,2.18549 -2.2785,4.867 -10.0285,9.92001"
     id="path148"
     style="stroke-width:0.992001" />
  <path
     class="Note"
     d="m 1471.8701,599.82701 c 9.827,0 21.9325,-9.1295 21.9325,-18.55352 0,-5.54903 -4.464,-9.2225 -10.819,-9.2225 -12.1055,0 -21.824,9.02101 -21.824,18.55352 0,5.7505 4.7585,9.2225 10.7105,9.2225"
     id="path150"
     style="stroke-width:0.992001" />
  <path
     class="Note"
     d="m 544.34359,559.94551 c -14.38402,0 -23.31203,6.06048 -23.31203,13.39199 0,7.23851 6.15351,13.68656 22.22707,13.68656 17.65445,0 23.31203,-6.13805 23.31203,-13.68656 0,-7.64151 -12.19854,-13.39199 -22.22707,-13.39199 m -2.77453,2.48 c 7.34706,0 13.29906,7.93598 13.29906,14.49249 0,5.45601 -3.37905,7.62606 -8.24601,7.62606 -7.14548,0 -13.98106,-8.23055 -13.98106,-15.17457 0,-5.549 3.85958,-6.94398 8.92801,-6.94398"
     id="path152"
     style="stroke-width:0.992001" />
  <path
     class="Note"
     d="m 799.09159,547.54551 c -14.38402,0 -23.31203,6.06048 -23.31203,13.39199 0,7.23851 6.15351,13.68656 22.22707,13.68656 17.65445,0 23.31203,-6.13805 23.31203,-13.68656 0,-7.64151 -12.19854,-13.39199 -22.22707,-13.39199 m -2.77453,2.48 c 7.34706,0 13.29906,7.93598 13.29906,14.49249 0,5.45601 -3.37905,7.62606 -8.24601,7.62606 -7.14548,0 -13.98106,-8.23055 -13.98106,-15.17457 0,-5.549 3.85958,-6.94398 8.92801,-6.94398"
     id="path154"
     style="stroke-width:0.992001" />
  <path
     class="Note"
     d="m 1707.5301,612.22701 c 18.259,0 21.9325,-14.88001 21.9325,-18.44501 0,-5.65754 -4.464,-9.33101 -10.912,-9.33101 -16.5695,0 -21.731,12.80301 -21.731,18.55352 0,5.84355 4.6655,9.2225 10.7105,9.2225 m 8.432,-8.835 c -4.96,3.379 -8.432,4.5725 -10.8035,4.5725 -2.294,0 -3.6735,-1.1935 -4.371,-2.5885 -0.403,-0.589 -0.6975,-1.3795 -0.6975,-2.17001 0,-5.363 15.9805,-14.19801 21.235,-14.19801 2.077,0 3.2705,0.992 4.061,2.387 0.31,0.589 0.6045,1.2865 0.6045,2.07701 0,2.18549 -2.2785,4.867 -10.0285,9.92001"
     id="path156"
     style="stroke-width:0.992001" />
  <path
     class="Note"
     d="m 1566.1301,587.42701 c 18.259,0 21.9325,-14.88001 21.9325,-18.44501 0,-5.65754 -4.464,-9.33101 -10.912,-9.33101 -16.5695,0 -21.731,12.80301 -21.731,18.55352 0,5.84355 4.6655,9.2225 10.7105,9.2225 m 8.432,-8.835 c -4.96,3.379 -8.432,4.5725 -10.8035,4.5725 -2.294,0 -3.6735,-1.1935 -4.371,-2.5885 -0.403,-0.589 -0.6975,-1.3795 -0.6975,-2.17001 0,-5.363 15.9805,-14.19801 21.235,-14.19801 2.077,0 3.2705,0.992 4.061,2.387 0.31,0.589 0.6045,1.2865 0.6045,2.07701 0,2.18549 -2.2785,4.867 -10.0285,9.92001"
     id="path158"
     style="stroke-width:0.992001" />
  <path
     class="Note"
     d="m 1932.2601,612.22701 c 18.259,0 21.9325,-14.88001 21.9325,-18.44501 0,-5.65754 -4.464,-9.33101 -10.912,-9.33101 -16.5695,0 -21.731,12.80301 -21.731,18.55352 0,5.84355 4.6655,9.2225 10.7105,9.2225 m 8.432,-8.835 c -4.96,3.379 -8.432,4.5725 -10.8035,4.5725 -2.294,0 -3.6735,-1.1935 -4.371,-2.5885 -0.403,-0.589 -0.6975,-1.3795 -0.6975,-2.17001 0,-5.363 15.9805,-14.19801 21.235,-14.19801 2.077,0 3.2705,0.992 4.061,2.387 0.31,0.589 0.6045,1.2865 0.6045,2.07701 0,2.18549 -2.2785,4.867 -10.0285,9.92001"
     id="path160"
     style="stroke-width:0.992001" />
  <path
     class="Note"
     d="m 1011.1816,559.94551 c -14.38403,0 -23.31204,6.06048 -23.31204,13.39199 0,7.23851 6.15351,13.68656 22.22704,13.68656 17.6545,0 23.3121,-6.13805 23.3121,-13.68656 0,-7.64151 -12.1986,-13.39199 -22.2271,-13.39199 m -2.7745,2.48 c 7.347,0 13.299,7.93598 13.299,14.49249 0,5.45601 -3.379,7.62606 -8.246,7.62606 -7.1455,0 -13.98105,-8.23055 -13.98105,-15.17457 0,-5.549 3.85955,-6.94398 8.92805,-6.94398"
     id="path162"
     style="stroke-width:0.992001" />
  <path
     class="Note"
     d="m 799.09159,634.34551 c -14.38402,0 -23.31203,6.06048 -23.31203,13.39199 0,7.23851 6.15351,13.68656 22.22707,13.68656 17.65445,0 23.31203,-6.13805 23.31203,-13.68656 0,-7.64151 -12.19854,-13.39199 -22.22707,-13.39199 m -2.77453,2.48 c 7.34706,0 13.29906,7.93598 13.29906,14.49249 0,5.45601 -3.37905,7.62606 -8.24601,7.62606 -7.14548,0 -13.98106,-8.23055 -13.98106,-15.17457 0,-5.549 3.85958,-6.94398 8.92801,-6.94398"
     id="path164"
     style="stroke-width:0.992001" />
  <path
     class="Note"
     d="m 544.34359,584.74551 c -14.38402,0 -23.31203,6.06048 -23.31203,13.39199 0,7.23851 6.15351,13.68656 22.22707,13.68656 17.65445,0 23.31203,-6.13805 23.31203,-13.68656 0,-7.64151 -12.19854,-13.39199 -22.22707,-13.39199 m -2.77453,2.48 c 7.34706,0 13.29906,7.93598 13.29906,14.49249 0,5.45601 -3.37905,7.62606 -8.24601,7.62606 -7.14548,0 -13.98106,-8.23055 -13.98106,-15.17457 0,-5.549 3.85958,-6.94398 8.92801,-6.94398"
     id="path166"
     style="stroke-width:0.992001" />
  <path
     class="Note"
     d="m 1259.7801,674.22701 c 18.259,0 21.9325,-14.88001 21.9325,-18.44501 0,-5.65754 -4.464,-9.33101 -10.912,-9.33101 -16.5695,0 -21.731,12.80301 -21.731,18.55352 0,5.84355 4.6655,9.2225 10.7105,9.2225 m 8.432,-8.835 c -4.96,3.379 -8.432,4.5725 -10.8035,4.5725 -2.294,0 -3.6735,-1.1935 -4.371,-2.5885 -0.403,-0.589 -0.6975,-1.3795 -0.6975,-2.17001 0,-5.363 15.9805,-14.19801 21.235,-14.19801 2.077,0 3.2705,0.992 4.061,2.387 0.31,0.589 0.6045,1.2865 0.6045,2.07701 0,2.18549 -2.2785,4.867 -10.0285,9.92001"
     id="path168"
     style="stroke-width:0.992001" />
  <path
     class="Note"
     d="m 1011.1816,609.54551 c -14.38403,0 -23.31204,6.06048 -23.31204,13.39199 0,7.23851 6.15351,13.68656 22.22704,13.68656 17.6545,0 23.3121,-6.13805 23.3121,-13.68656 0,-7.64151 -12.1986,-13.39199 -22.2271,-13.39199 m -2.7745,2.48 c 7.347,0 13.299,7.93598 13.299,14.49249 0,5.45601 -3.379,7.62606 -8.246,7.62606 -7.1455,0 -13.98105,-8.23055 -13.98105,-15.17457 0,-5.549 3.85955,-6.94398 8.92805,-6.94398"
     id="path170"
     style="stroke-width:0.992001" />
  <path
     class="Note"
     d="m 1566.1301,674.22701 c 18.259,0 21.9325,-14.88001 21.9325,-18.44501 0,-5.65754 -4.464,-9.33101 -10.912,-9.33101 -16.5695,0 -21.731,12.80301 -21.731,18.55352 0,5.84355 4.6655,9.2225 10.7105,9.2225 m 8.432,-8.835 c -4.96,3.379 -8.432,4.5725 -10.8035,4.5725 -2.294,0 -3.6735,-1.1935 -4.371,-2.5885 -0.403,-0.589 -0.6975,-1.3795 -0.6975,-2.17001 0,-5.363 15.9805,-14.19801 21.235,-14.19801 2.077,0 3.2705,0.992 4.061,2.387 0.31,0.589 0.6045,1.2865 0.6045,2.07701 0,2.18549 -2.2785,4.867 -10.0285,9.92001"
     id="path172"
     style="stroke-width:0.992001" />
  <path
     class="Note"
     d="m 1932.2601,637.02701 c 18.259,0 21.9325,-14.88001 21.9325,-18.44501 0,-5.65754 -4.464,-9.33101 -10.912,-9.33101 -16.5695,0 -21.731,12.80301 -21.731,18.55352 0,5.84355 4.6655,9.2225 10.7105,9.2225 m 8.432,-8.835 c -4.96,3.379 -8.432,4.5725 -10.8035,4.5725 -2.294,0 -3.6735,-1.1935 -4.371,-2.5885 -0.403,-0.589 -0.6975,-1.3795 -0.6975,-2.17001 0,-5.363 15.9805,-14.19801 21.235,-14.19801 2.077,0 3.2705,0.992 4.061,2.387 0.31,0.589 0.6045,1.2865 0.6045,2.07701 0,2.18549 -2.2785,4.867 -10.0285,9.92001"
     id="path174"
     style="stroke-width:0.992001" />
  <path
     class="Note"
     d="m 1707.5301,661.82701 c 9.827,0 21.9325,-9.1295 21.9325,-18.55352 0,-5.54903 -4.464,-9.2225 -10.819,-9.2225 -12.1055,0 -21.824,9.02101 -21.824,18.55352 0,5.7505 4.7585,9.2225 10.7105,9.2225"
     id="path176"
     style="stroke-width:0.992001" />
  <path
     class="Note"
     d="m 1401.1701,624.62701 c 18.259,0 21.9325,-14.88001 21.9325,-18.44501 0,-5.65754 -4.464,-9.33101 -10.912,-9.33101 -16.5695,0 -21.731,12.80301 -21.731,18.55352 0,5.84355 4.6655,9.2225 10.7105,9.2225 m 8.432,-8.835 c -4.96,3.379 -8.432,4.5725 -10.8035,4.5725 -2.294,0 -3.6735,-1.1935 -4.371,-2.5885 -0.403,-0.589 -0.6975,-1.3795 -0.6975,-2.17001 0,-5.363 15.9805,-14.19801 21.235,-14.19801 2.077,0 3.2705,0.992 4.061,2.387 0.31,0.589 0.6045,1.2865 0.6045,2.07701 0,2.18549 -2.2785,4.867 -10.0285,9.92001"
     id="path178"
     style="stroke-width:0.992001" />
  <path
     class="Note"
     d="m 1801.7901,649.42701 c 9.827,0 21.9325,-9.1295 21.9325,-18.55352 0,-5.54903 -4.464,-9.2225 -10.819,-9.2225 -12.1055,0 -21.824,9.02101 -21.824,18.55352 0,5.7505 4.7585,9.2225 10.7105,9.2225"
     id="path180"
     style="stroke-width:0.992001" />
  <path
     class="Clef"
     d="m 97.090125,192.02896 c -0.201475,-1.19348 0,-1.28653 0.588951,-1.89105 10.710534,-10.01296 18.848014,-22.61445 18.848014,-37.78899 0,-8.63349 -2.38695,-17.17402 -6.448,-23.12652 -1.488,-2.16951 -4.06096,-4.96001 -5.16148,-4.96001 -1.37948,0 -4.46401,2.58913 -6.448008,4.77451 -7.331483,8.122 -9.718535,20.52202 -9.718535,30.84498 0,5.75053 0.697575,12.19853 1.395051,16.27506 0.186,1.19348 0.294525,1.37948 -0.899051,2.37148 -14.290964,11.81106 -29.465504,25.9935 -29.465504,46.03507 0,17.26702 11.811061,33.63501 36.115086,33.63501 2.278427,0 4.851481,-0.20148 6.835481,-0.60443 1.10053,-0.186 1.302,-0.29452 1.488,0.89896 1.19348,6.64948 2.68148,15.28306 2.68148,19.94854 0,14.67854 -9.92001,16.46097 -15.763491,16.46097 -5.363055,0 -7.951483,-1.58095 -7.951483,-2.88296 0,-0.682 0.898951,-0.992 3.177478,-1.674 3.084528,-0.89905 6.649482,-3.58053 6.649482,-9.33106 0,-5.456 -3.472003,-10.12148 -9.51696,-10.12148 -6.649581,0 -10.617585,5.25453 -10.617585,11.40801 0,6.44801 3.859578,16.16654 18.848019,16.16654 6.649581,0 19.54559,-2.976 19.54559,-19.84002 0,-5.64201 -1.78252,-15.06601 -2.88305,-21.2195 -0.20147,-1.19357 -0.093,-1.10052 1.28653,-1.68957 10.02853,-3.96801 16.67801,-12.40001 16.67801,-23.6065 0,-12.71006 -9.33105,-23.9165 -23.91654,-23.9165 -2.572957,0 -2.572957,0 -2.867483,-1.78253 l -2.480002,-14.38401 m 9.315485,-52.39005 c 3.27053,0 5.95201,2.68147 5.95201,8.13748 0,11.02053 -9.42401,19.94854 -17.251497,26.78403 -0.697476,0.60452 -1.100526,0.496 -1.302001,-0.79053 -0.387476,-2.57295 -0.589051,-5.95201 -0.589051,-9.12948 0,-15.46897 7.145579,-25.0015 13.190539,-25.0015 M 95.602123,207.2035 c 0.294526,1.89095 0.294526,1.78243 -1.488001,2.38695 -8.742009,2.976 -14.39949,10.80349 -14.39949,19.23555 0,8.928 4.66548,15.28301 11.423487,17.56154 0.790526,0.29452 1.984002,0.60452 2.666003,0.60452 0.806,0 1.193476,-0.496 1.193476,-1.10052 0,-0.69748 -0.790526,-0.992 -1.488001,-1.28653 -4.16948,-1.7825 -7.145483,-6.045 -7.145483,-10.61751 0,-5.6575 3.874954,-9.92001 9.92001,-11.60956 1.596527,-0.38748 1.798002,-0.29443 1.984002,0.806 l 4.960004,29.55855 c 0.20148,1.08506 0.10853,1.08506 -1.37948,1.37958 -1.59652,0.31 -3.580524,0.496 -5.564526,0.496 -17.360017,0 -28.566553,-9.61001 -28.566553,-23.40507 0,-5.85901 0.992001,-13.68654 9.222534,-23.0175 5.952006,-6.64958 10.524535,-10.32306 15.190015,-14.08959 0.992001,-0.79043 1.178001,-0.69747 1.379477,0.40305 l 2.092526,12.69454 m 6.835487,15.77896 c -0.20148,-1.19347 -0.093,-1.488 1.10052,-1.39495 8.02896,0.69748 14.67854,7.43998 14.67854,16.16649 0,6.26206 -3.76653,11.31502 -9.33106,14.08954 -1.19347,0.60453 -1.37947,0.60453 -1.58095,-0.58905 l -4.86705,-28.27203"
     id="path182"
     style="stroke-width:0.992001" />
  <path
     class="Clef"
     d="m 84.783063,597.1455 c -17.266988,0 -25.0015,12.60149 -25.0015,22.1185 0,7.936 4.169509,14.78701 12.198537,14.78701 6.246531,0 10.524535,-4.371 10.524535,-10.50901 0,-6.35501 -4.665579,-10.32301 -9.532534,-10.32301 -2.681478,0 -3.673529,0.6975 -4.960025,0.6975 -1.286506,0 -1.581002,-0.79055 -1.581002,-1.78255 0,-3.968 5.951976,-11.22201 16.073561,-11.22201 10.508961,0 15.08149,10.32306 15.08149,25.90058 0,27.68305 -13.702013,43.15201 -36.812561,56.34255 -0.899001,0.496 -1.488002,0.992 -1.488002,1.78253 0,0.60452 0.403,1.19347 1.286501,1.19347 0.496006,0 1.100501,-0.20147 1.689502,-0.496 24.412549,-11.90401 50.204575,-29.55855 50.204575,-59.72155 0,-17.25157 -10.52453,-28.76801 -27.683077,-28.76801 m 37.401617,8.13748 c -3.08453,0 -5.45601,2.38695 -5.45601,5.45601 0,3.069 2.37148,5.456 5.45601,5.456 3.06895,0 5.456,-2.387 5.456,-5.456 0,-3.06906 -2.38705,-5.45601 -5.456,-5.45601 m 0.093,24.89303 c -3.06896,0 -5.34749,2.294 -5.34749,5.363 0,3.06906 2.27853,5.36306 5.34749,5.36306 3.08452,0 5.36305,-2.294 5.36305,-5.36306 0,-3.069 -2.27853,-5.363 -5.36305,-5.363"
     id="path184"
     style="stroke-width:0.992001" />
  <path
     class="TimeSig"
     d="m 186.37107,190.94701 v -21.23502 c 0,-0.79053 -0.093,-1.68948 -1.19347,-1.68948 -0.88348,0 -1.37948,0.20147 -1.984,0.89895 l -9.42401,11.40803 c -0.40295,0.496 -0.89896,1.085 -0.89896,2.27851 v 8.33901 h -13.39206 c 7.93606,-6.75801 23.82355,-29.26408 24.11808,-30.45756 l 0.093,-0.29452 c 0,-0.89895 -0.69748,-1.488 -1.48801,-1.488 -0.88347,0 -4.96,0.186 -6.74253,0.186 -1.78242,0 -6.24643,-0.186 -7.05243,-0.186 -0.88358,0 -2.27853,0.29452 -2.27853,1.87557 0,12.30696 -9.71853,26.0865 -12.69453,30.25601 l -0.58901,0.7905 c 0,0 0,0.1085 0,0.1085 l -0.10849,0.093 c -0.20151,0.496 -0.29451,0.899 -0.29451,1.1935 0,0.992 0.79051,1.68948 1.98401,1.68948 h 18.44506 v 6.24653 c 0,2.68148 -2.17,3.472 -3.968,3.472 -1.58105,0 -2.27853,0.89905 -2.27853,1.89105 0,0.992 0.40295,2.07696 1.89096,2.07696 h 21.12654 c 0.992,0 1.984,-0.69748 1.984,-2.07696 0,-1.39505 -1.19347,-1.984 -2.18547,-1.984 -0.992,0 -3.06906,-0.60452 -3.06906,-3.782 v -5.84358 h 7.23854 c 0.992,0 1.488,-0.69748 1.488,-1.89098 0,-1.1935 -0.38748,-1.8755 -1.488,-1.8755 h -7.23854"
     id="path186"
     style="stroke-width:0.992001" />
  <path
     class="TimeSig"
     d="m 193.40813,242.81101 c 0,-1.178 -0.496,-1.3795 -1.19348,-1.3795 -0.79052,0 -1.10052,0.3875 -1.28652,1.085 l -0.10853,0.1085 c -0.992,2.48005 -1.78252,4.35553 -3.85948,4.35553 -0.496,0 -0.992,-0.093 -1.68947,-0.29453 -1.28653,-0.496 -1.98401,-0.58895 -2.97601,-1.08495 -1.984,-0.806 -6.64958,-2.38705 -10.72601,-2.38705 -1.28652,0 -2.57305,0.2015 -3.658,0.58905 2.17,-3.56505 10.61748,-6.54106 12.78749,-7.13006 6.944,-1.891 13.20601,-4.774 13.20601,-13.00449 0,-10.50906 -10.32306,-15.08159 -19.54549,-15.08159 -6.94401,0 -13.09756,0.60453 -17.96457,6.26201 -1.6895,2.07705 -2.77451,4.55706 -2.77451,7.23853 0,1.37948 0.29451,2.77453 0.89901,4.26253 1.488,3.06901 4.557,5.45601 8.12205,5.45601 6.06043,0 6.94401,-6.24651 6.94401,-8.72654 0,-5.952 -6.83558,-6.24653 -6.83558,-8.23053 0.20157,-1.39495 1.984,-3.782 7.82758,-3.782 8.83496,0 8.94349,6.64958 8.94349,9.53253 0,9.02103 -7.45549,15.87205 -14.58549,20.22755 -5.45606,3.47205 -9.33106,8.33901 -11.02056,14.78701 l -0.093,0.29453 c 0,1.28652 1.085,3.37895 2.573,3.37895 2.1855,0 3.37901,-6.06043 9.22256,-6.06043 3.968,0 5.456,5.36296 14.29096,5.36296 4.26253,0 11.90401,-0.40296 13.50054,-15.77902"
     id="path188"
     style="stroke-width:0.992001" />
  <path
     class="TimeSig"
     d="m 186.37107,630.49001 v -21.23502 c 0,-0.79053 -0.093,-1.68948 -1.19347,-1.68948 -0.88348,0 -1.37948,0.20147 -1.984,0.89895 l -9.42401,11.40803 c -0.40295,0.496 -0.89896,1.085 -0.89896,2.27851 v 8.33901 h -13.39206 c 7.93606,-6.75801 23.82355,-29.26408 24.11808,-30.45756 l 0.093,-0.29452 c 0,-0.89895 -0.69748,-1.488 -1.48801,-1.488 -0.88347,0 -4.96,0.186 -6.74253,0.186 -1.78242,0 -6.24643,-0.186 -7.05243,-0.186 -0.88358,0 -2.27853,0.29452 -2.27853,1.87557 0,12.30696 -9.71853,26.0865 -12.69453,30.25601 l -0.58901,0.7905 c 0,0 0,0.1085 0,0.1085 l -0.10849,0.093 c -0.20151,0.496 -0.29451,0.899 -0.29451,1.1935 0,0.992 0.79051,1.68948 1.98401,1.68948 h 18.44506 v 6.24653 c 0,2.68148 -2.17,3.472 -3.968,3.472 -1.58105,0 -2.27853,0.89905 -2.27853,1.89105 0,0.992 0.40295,2.07696 1.89096,2.07696 h 21.12654 c 0.992,0 1.984,-0.69748 1.984,-2.07696 0,-1.39505 -1.19347,-1.984 -2.18547,-1.984 -0.992,0 -3.06906,-0.60452 -3.06906,-3.782 v -5.84358 h 7.23854 c 0.992,0 1.488,-0.69748 1.488,-1.89098 0,-1.1935 -0.38748,-1.8755 -1.488,-1.8755 h -7.23854"
     id="path190"
     style="stroke-width:0.992001" />
  <path
     class="TimeSig"
     d="m 193.40813,682.35301 c 0,-1.178 -0.496,-1.3795 -1.19348,-1.3795 -0.79052,0 -1.10052,0.3875 -1.28652,1.085 l -0.10853,0.1085 c -0.992,2.48005 -1.78252,4.35553 -3.85948,4.35553 -0.496,0 -0.992,-0.0931 -1.68947,-0.29453 -1.28653,-0.496 -1.98401,-0.58895 -2.97601,-1.08495 -1.984,-0.806 -6.64958,-2.38705 -10.72601,-2.38705 -1.28652,0 -2.57305,0.2015 -3.658,0.58905 2.17,-3.56505 10.61748,-6.54106 12.78749,-7.13006 6.944,-1.891 13.20601,-4.774 13.20601,-13.00449 0,-10.50906 -10.32306,-15.08159 -19.54549,-15.08159 -6.94401,0 -13.09756,0.60453 -17.96457,6.26201 -1.6895,2.07705 -2.77451,4.55706 -2.77451,7.23853 0,1.37948 0.29451,2.77453 0.89901,4.26253 1.488,3.06901 4.557,5.45601 8.12205,5.45601 6.06043,0 6.94401,-6.24651 6.94401,-8.72654 0,-5.952 -6.83558,-6.24653 -6.83558,-8.23053 0.20157,-1.39495 1.984,-3.782 7.82758,-3.782 8.83496,0 8.94349,6.64958 8.94349,9.53253 0,9.02103 -7.45549,15.87205 -14.58549,20.22755 -5.45606,3.47205 -9.33106,8.33901 -11.02056,14.78701 l -0.093,0.29453 c 0,1.28652 1.085,3.37895 2.573,3.37895 2.1855,0 3.37901,-6.06043 9.22256,-6.06043 3.968,0 5.456,5.36296 14.29096,5.36296 4.26253,0 11.90401,-0.40296 13.50054,-15.77902"
     id="path192"
     style="stroke-width:0.992001" />
  <path
     class="Rest"
     d="m 272.66707,206.01 v -9.11406 c 0,-1.488 -1.19348,-2.58843 -2.57296,-2.58843 h -22.83154 c -1.48801,0 -2.57301,1.10043 -2.57301,2.58843 V 206.01 c 0,1.395 1.085,2.5885 2.57301,2.5885 h 22.83154 c 1.37948,0 2.57296,-1.1935 2.57296,-2.5885"
     id="path194"
     style="stroke-width:0.992001" />
  <path
     class="Rest"
     d="m 272.66707,268.81606 v -9.12955 c 0,-1.48801 -1.19348,-2.58851 -2.57296,-2.58851 h -22.83154 c -1.48801,0 -2.57301,1.1005 -2.57301,2.58851 v 9.12955 c 0,1.37948 1.085,2.57295 2.57301,2.57295 h 22.83154 c 1.37948,0 2.57296,-1.19347 2.57296,-2.57295"
     id="path196"
     style="stroke-width:0.992001" />
  <path
     class="Rest"
     d="m 234.86255,571.555 c -0.99205,0 -1.78247,0.79049 -1.78247,1.7825 0,0.992 0.79042,1.7825 1.78247,1.7825 h 9.82701 v 9.23806 c 0,1.37948 1.085,2.57295 2.57301,2.57295 h 22.83154 c 1.37948,0 2.57296,-1.19347 2.57296,-2.57295 v -9.12955 c 0,-0.10851 0,-0.10851 9.82706,-0.10851 0.992,0 1.78252,-0.7905 1.78252,-1.7825 0,-0.99201 -0.79052,-1.7825 -1.78252,-1.7825 h -47.63158"
     id="path198"
     style="stroke-width:0.992001" />
  <path
     class="Rest"
     d="m 272.66707,658.75806 v -9.12955 c 0,-1.48801 -1.19348,-2.58851 -2.57296,-2.58851 h -22.83154 c -1.48801,0 -2.57301,1.1005 -2.57301,2.58851 v 9.12955 c 0,1.37948 1.085,2.57295 2.57301,2.57295 h 22.83154 c 1.37948,0 2.57296,-1.19347 2.57296,-2.57295"
     id="path200"
     style="stroke-width:0.992001" />
  <path
     class="Lyrics"
     d="m 1973.7696,116.065 c 0,-3.844 -3.01,-9.937 -9.98,-9.937 -6.38,0 -11.28,5.609 -11.28,13.015 0,7.235 4.68,12.469 11.22,12.469 4.11,0 7.73,-2.109 10.04,-5.891 l -1.12,-1.015 c -2.06,1.781 -4.22,2.594 -6.75,2.594 -5.03,0 -9.61,-4 -9.35,-11.235 h 17.22 m -16.89,-1.953 c 0.49,-3.672 2.75,-5.984 5.88,-5.984 2.97,0 4.92,2.156 5.34,5.984 h -11.22"
     id="path202" />
  <path
     class="Lyrics"
     d="m 984.47956,114.393 c 2.16,-3.078 3.14,-4 4.42,-4 1.8,0 2.22,2.532 4.07,2.532 1.67,0 2.2,-3.235 2.2,-3.5 0,-1.094 -1.61,-3.079 -3.99,-3.079 -2.81,0 -4.15,1.125 -6.59,5.125 h -0.11 v -5.343 h -1.34 l -7.19,2.906 v 1.25 l 4,2 v 12.625 c 0,3.078 -1.84,4.172 -4,4.172 v 1.937 h 14.05 v -1.937 c -4.77,0 -5.52,-1.141 -5.52,-5.188 v -9.5 m 16.80004,10.735 c 0,2.703 -1.85004,3.953 -3.89004,3.953 v 1.937 h 11.76004 v -1.937 c -1.93,-0.063 -3.34,-1.36 -3.34,-4.328 v -18.625 h -1.36 l -7.28004,2.64 v 1.25 l 4.11004,2.047 v 13.063 m -0.88,-28.719 c 0,1.609 1.3,2.906 2.93,2.906 1.62,0 2.9,-1.297 2.9,-2.906 0,-1.625 -1.28,-2.922 -2.9,-2.922 -1.63,0 -2.93,1.297 -2.93,2.922"
     id="path204" />
  <path
     class="Lyrics"
     d="m 1307.7396,116.065 c 0,-3.844 -3.02,-9.937 -9.99,-9.937 -6.37,0 -11.28,5.609 -11.28,13.015 0,7.235 4.69,12.469 11.22,12.469 4.11,0 7.73,-2.109 10.05,-5.891 l -1.13,-1.015 c -2.06,1.781 -4.22,2.594 -6.75,2.594 -5.03,0 -9.61,-4 -9.34,-11.235 h 17.22 m -16.89,-1.953 c 0.48,-3.672 2.75,-5.984 5.87,-5.984 2.97,0 4.92,2.156 5.34,5.984 h -11.21"
     id="path206" />
  <path
     class="Lyrics"
     d="m 2240.9096,93.487 h -1.36 l -6.9,2.484 v 1.25 l 3.72,2.047 v 25.703 c 0,2.329 -1.02,3.938 -3.72,4.11 v 1.937 h 11.61 v -1.937 c -2.44,-0.172 -3.35,-1.781 -3.35,-4.485 V 93.487 m 28.82,22.578 c 0,-3.844 -3.02,-9.937 -9.99,-9.937 -6.37,0 -11.28,5.609 -11.28,13.015 0,7.235 4.69,12.469 11.22,12.469 4.11,0 7.73,-2.109 10.05,-5.891 l -1.13,-1.015 c -2.06,1.781 -4.22,2.594 -6.75,2.594 -5.03,0 -9.61,-4 -9.34,-11.235 h 17.22 m -16.89,-1.953 c 0.48,-3.672 2.75,-5.984 5.87,-5.984 2.97,0 4.92,2.156 5.34,5.984 h -11.21 m 23.81,11.016 c 0,2.703 -1.85,3.953 -3.89,3.953 v 1.937 h 11.76 v -1.937 c -1.93,-0.063 -3.34,-1.36 -3.34,-4.328 v -18.625 h -1.36 l -7.28,2.64 v 1.25 l 4.11,2.047 v 13.063 m -0.88,-28.719 c 0,1.609 1.3,2.906 2.93,2.906 1.62,0 2.9,-1.297 2.9,-2.906 0,-1.625 -1.28,-2.922 -2.9,-2.922 -1.63,0 -2.93,1.297 -2.93,2.922"
     id="path208" />
  <path
     class="Lyrics"
     d="m 1002.8596,378.572 c 2.15,-3.078 3.14,-4 4.42,-4 1.8,0 2.22,2.531 4.06,2.531 1.67,0 2.2,-3.234 2.2,-3.5 0,-1.094 -1.61,-3.078 -3.98,-3.078 -2.81,0 -4.16,1.125 -6.59,5.125 h -0.11 v -5.344 h -1.35 l -7.18004,2.906 v 1.25 l 4,2 v 12.625 c 0,3.079 -1.85,4.172 -4,4.172 v 1.938 h 14.04004 v -1.938 c -4.76,0 -5.51,-1.14 -5.51,-5.187 v -9.5 m 16.79,10.734 c 0,2.703 -1.84,3.953 -3.89,3.953 v 1.938 h 11.77 v -1.938 c -1.94,-0.062 -3.35,-1.359 -3.35,-4.328 v -18.625 h -1.35 l -7.29,2.641 v 1.25 l 4.11,2.047 v 13.062 m -0.87,-28.719 c 0,1.61 1.3,2.907 2.92,2.907 1.63,0 2.91,-1.297 2.91,-2.907 0,-1.625 -1.28,-2.921 -2.91,-2.921 -1.62,0 -2.92,1.296 -2.92,2.921"
     id="path210" />
  <path
     class="Lyrics"
     d="m 1930.3296,357.666 h -1.35 l -6.91,2.484 v 1.25 l 3.72,2.047 v 25.703 c 0,2.328 -1.02,3.937 -3.72,4.109 v 1.938 h 11.61 v -1.938 c -2.44,-0.172 -3.35,-1.781 -3.35,-4.484 v -31.109 m 28.82,22.578 c 0,-3.844 -3.02,-9.938 -9.99,-9.938 -6.37,0 -11.28,5.61 -11.28,13.016 0,7.234 4.69,12.469 11.22,12.469 4.11,0 7.73,-2.11 10.05,-5.891 l -1.13,-1.016 c -2.06,1.782 -4.22,2.594 -6.75,2.594 -5.03,0 -9.61,-4 -9.34,-11.234 h 17.22 m -16.89,-1.953 c 0.48,-3.672 2.75,-5.985 5.87,-5.985 2.97,0 4.92,2.156 5.35,5.985 h -11.22 m 23.81,11.015 c 0,2.703 -1.84,3.953 -3.89,3.953 v 1.938 h 11.76 v -1.938 c -1.93,-0.062 -3.34,-1.359 -3.34,-4.328 v -18.625 h -1.36 l -7.28,2.641 v 1.25 l 4.11,2.047 v 13.062 m -0.88,-28.719 c 0,1.61 1.3,2.907 2.93,2.907 1.62,0 2.9,-1.297 2.9,-2.907 0,-1.625 -1.28,-2.921 -2.9,-2.921 -1.63,0 -2.93,1.296 -2.93,2.921"
     id="path212" />
  <path
     class="Lyrics"
     d="m 521.70256,358.369 v 2.047 c 4.75,0 5.719,2.109 5.719,6 v 20.953 c 0,4.156 -1.453,5.781 -5.719,5.781 v 2.047 h 17.438 v -2.047 c -4.797,0 -6.047,-1.953 -6.047,-5.297 v -22.359 c 0,-3.672 1.891,-5.078 5.734,-5.078 v -2.047 h -17.125 m 23.172,0 v 2.047 c 2.266,0 3.297,0.812 3.297,2.218 0,2.157 -4.219,6.422 -14.64,13.61 l 0.703,0.64 c 9.172,7.735 15.875,14.688 20.406,18.313 h 9.516 v -2.156 c -2.282,-0.438 -4.172,-1.188 -7.188,-3.454 -5.453,-4.171 -12.203,-11.187 -17.234,-15.015 7.562,-5.563 10.375,-9.078 13.781,-11.61 2.156,-1.625 4,-2.265 6.641,-2.546 v -2.047 h -15.282 m 28.735,37.093 c -1.407,4.657 -2.703,6.485 -4.75,6.485 -1.938,0 -1.938,-1.735 -3.828,-1.735 -1.297,0 -2.329,0.985 -2.329,2.219 0,1.844 1.782,3.078 4.329,3.078 3.234,0 5.5,-1.828 7.062,-5.781 l 8.969,-22.781 c 1.078,-2.75 1.734,-3.672 3.781,-4.11 V 370.9 h -9.344 v 1.937 c 3.297,0.172 4.047,2.219 2.969,5.032 l -4.641,11.812 -5.562,-12.734 c -1.25,-2.813 -0.547,-4 2.641,-4.11 V 370.9 h -11.766 v 1.937 c 1.734,0 2.484,0 3.891,3.188 l 8.578,19.437"
     id="path214" />
  <path
     class="Lyrics"
     d="m 1723.7296,380.244 c 0,-3.844 -3.02,-9.938 -9.98,-9.938 -6.38,0 -11.29,5.61 -11.29,13.016 0,7.234 4.69,12.469 11.22,12.469 4.11,0 7.74,-2.11 10.05,-5.891 l -1.12,-1.016 c -2.07,1.782 -4.22,2.594 -6.75,2.594 -5.04,0 -9.61,-4 -9.35,-11.234 h 17.22 m -16.89,-1.953 c 0.48,-3.672 2.75,-5.985 5.87,-5.985 2.97,0 4.93,2.156 5.35,5.985 h -11.22"
     id="path216" />
  <path
     class="Lyrics"
     d="m 1270.6596,380.244 c 0,-3.844 -3.01,-9.938 -9.98,-9.938 -6.38,0 -11.28,5.61 -11.28,13.016 0,7.234 4.68,12.469 11.22,12.469 4.1,0 7.73,-2.11 10.04,-5.891 l -1.12,-1.016 c -2.07,1.782 -4.22,2.594 -6.75,2.594 -5.03,0 -9.61,-4 -9.35,-11.234 h 17.22 m -16.89,-1.953 c 0.49,-3.672 2.75,-5.985 5.88,-5.985 2.97,0 4.92,2.156 5.34,5.985 h -11.22"
     id="path218" />
  <path
     class="Lyrics"
     d="m 990.60956,475.172 c 2.15,-3.078 3.14,-4 4.42,-4 1.8,0 2.22,2.531 4.06,2.531 1.67004,0 2.20004,-3.234 2.20004,-3.5 0,-1.094 -1.61004,-3.078 -3.98004,-3.078 -2.81,0 -4.16,1.125 -6.59,5.125 h -0.11 v -5.344 h -1.35 l -7.18,2.907 v 1.25 l 4,2 v 12.625 c 0,3.078 -1.85,4.171 -4,4.171 v 1.938 h 14.04 v -1.938 c -4.76,0 -5.51,-1.14 -5.51,-5.187 v -9.5 m 16.79004,10.734 c 0,2.703 -1.84,3.953 -3.89,3.953 v 1.938 h 11.77 v -1.938 c -1.94,-0.062 -3.35,-1.359 -3.35,-4.328 v -18.625 h -1.35 l -7.29,2.641 v 1.25 l 4.11,2.047 v 13.062 m -0.87,-28.718 c 0,1.609 1.3,2.906 2.92,2.906 1.63,0 2.91,-1.297 2.91,-2.906 0,-1.625 -1.28,-2.922 -2.91,-2.922 -1.62,0 -2.92,1.297 -2.92,2.922"
     id="path220" />
  <path
     class="Lyrics"
     d="m 1711.4796,476.844 c 0,-3.844 -3.02,-9.938 -9.98,-9.938 -6.38,0 -11.29,5.61 -11.29,13.016 0,7.234 4.69,12.469 11.22,12.469 4.11,0 7.74,-2.11 10.05,-5.891 l -1.12,-1.016 c -2.07,1.782 -4.22,2.594 -6.75,2.594 -5.04,0 -9.61,-4 -9.35,-11.234 h 17.22 m -16.89,-1.953 c 0.48,-3.672 2.75,-5.985 5.87,-5.985 2.97,0 4.93,2.157 5.35,5.985 h -11.22"
     id="path222" />
  <path
     class="Lyrics"
     d="m 522.34856,454.969 v 2.047 c 4.75,0 5.719,2.109 5.719,6 v 20.953 c 0,4.156 -1.453,5.781 -5.719,5.781 v 2.047 h 17.438 v -2.047 c -4.797,0 -6.047,-1.953 -6.047,-5.297 v -22.359 c 0,-3.672 1.891,-5.078 5.734,-5.078 v -2.047 h -17.125 m 23.172,0 v 2.047 c 2.266,0 3.297,0.812 3.297,2.218 0,2.157 -4.219,6.422 -14.641,13.61 l 0.704,0.64 c 9.171,7.735 15.875,14.688 20.406,18.313 h 9.515 v -2.156 c -2.281,-0.438 -4.171,-1.188 -7.187,-3.453 -5.453,-4.172 -12.203,-11.188 -17.234,-15.016 7.562,-5.563 10.375,-9.078 13.781,-11.609 2.156,-1.625 4,-2.266 6.64,-2.547 v -2.047 h -15.281 m 28.735,37.094 c -1.407,4.656 -2.704,6.484 -4.75,6.484 -1.938,0 -1.938,-1.734 -3.829,-1.734 -1.296,0 -2.328,0.984 -2.328,2.218 0,1.844 1.782,3.078 4.328,3.078 3.235,0 5.5,-1.828 7.063,-5.781 l 8.969,-22.781 c 1.078,-2.75 1.734,-3.672 3.781,-4.109 V 467.5 h -9.344 v 1.938 c 3.297,0.171 4.047,2.218 2.969,5.031 l -4.641,11.812 -5.562,-12.734 c -1.25,-2.813 -0.547,-4 2.64,-4.109 V 467.5 h -11.765 v 1.938 c 1.734,0 2.484,0 3.89,3.187 l 8.579,19.438"
     id="path224" />
  <path
     class="Lyrics"
     d="m 1258.4096,476.844 c 0,-3.844 -3.01,-9.938 -9.98,-9.938 -6.38,0 -11.28,5.61 -11.28,13.016 0,7.234 4.68,12.469 11.22,12.469 4.1,0 7.73,-2.11 10.04,-5.891 l -1.12,-1.016 c -2.07,1.782 -4.22,2.594 -6.75,2.594 -5.03,0 -9.61,-4 -9.35,-11.234 h 17.22 m -16.89,-1.953 c 0.49,-3.672 2.75,-5.985 5.88,-5.985 2.97,0 4.92,2.157 5.34,5.985 h -11.22"
     id="path226" />
  <path
     class="Lyrics"
     d="m 1918.0796,454.266 h -1.35 l -6.91,2.484 V 458 l 3.72,2.047 v 25.703 c 0,2.328 -1.02,3.938 -3.72,4.109 v 1.938 h 11.61 v -1.938 c -2.44,-0.171 -3.35,-1.781 -3.35,-4.484 v -31.109 m 28.82,22.578 c 0,-3.844 -3.02,-9.938 -9.99,-9.938 -6.37,0 -11.28,5.61 -11.28,13.016 0,7.234 4.69,12.469 11.22,12.469 4.11,0 7.73,-2.11 10.05,-5.891 l -1.13,-1.016 c -2.06,1.782 -4.22,2.594 -6.75,2.594 -5.03,0 -9.61,-4 -9.34,-11.234 h 17.22 m -16.89,-1.953 c 0.48,-3.672 2.75,-5.985 5.87,-5.985 2.97,0 4.92,2.157 5.35,5.985 h -11.22 m 23.81,11.015 c 0,2.703 -1.84,3.953 -3.89,3.953 v 1.938 h 11.76 v -1.938 c -1.93,-0.062 -3.34,-1.359 -3.34,-4.328 v -18.625 h -1.36 l -7.28,2.641 v 1.25 l 4.11,2.047 v 13.062 m -0.88,-28.718 c 0,1.609 1.3,2.906 2.93,2.906 1.62,0 2.9,-1.297 2.9,-2.906 0,-1.625 -1.28,-2.922 -2.9,-2.922 -1.63,0 -2.93,1.297 -2.93,2.922"
     id="path228" />
  <path
     class="Lyrics"
     d="m 1417.3696,776.388 c 0,-3.846 -3.01,-9.94 -9.98,-9.94 -6.37,0 -11.28,5.61 -11.28,13.02 0,7.23 4.69,12.46 11.22,12.46 4.11,0 7.73,-2.1 10.04,-5.89 l -1.12,-1.01 c -2.06,1.78 -4.22,2.59 -6.75,2.59 -5.03,0 -9.61,-4 -9.34,-11.23 h 17.21 m -16.89,-1.96 c 0.49,-3.667 2.75,-5.98 5.88,-5.98 2.97,0 4.92,2.156 5.34,5.98 h -11.22"
     id="path230" />
  <path
     class="Lyrics"
     d="m 521.70256,754.511 v 2.047 c 4.75,0 5.719,2.109 5.719,6 v 20.95 c 0,4.16 -1.453,5.78 -5.719,5.78 v 2.05 h 17.438 v -2.05 c -4.797,0 -6.047,-1.95 -6.047,-5.29 v -22.362 c 0,-3.672 1.891,-5.078 5.734,-5.078 v -2.047 h -17.125 m 23.172,0 v 2.047 c 2.266,0 3.297,0.812 3.297,2.218 0,2.157 -4.219,6.422 -14.64,13.61 l 0.703,0.642 c 9.172,7.73 15.875,14.69 20.406,18.31 h 9.516 v -2.16 c -2.282,-0.43 -4.172,-1.18 -7.188,-3.45 -5.453,-4.17 -12.203,-11.19 -17.234,-15.014 7.562,-5.563 10.375,-9.078 13.781,-11.61 2.156,-1.625 4,-2.265 6.641,-2.546 v -2.047 h -15.282 m 28.735,37.097 c -1.407,4.65 -2.703,6.48 -4.75,6.48 -1.938,0 -1.938,-1.73 -3.828,-1.73 -1.297,0 -2.329,0.98 -2.329,2.22 0,1.84 1.782,3.07 4.329,3.07 3.234,0 5.5,-1.82 7.062,-5.78 l 8.969,-22.78 c 1.078,-2.749 1.734,-3.671 3.781,-4.109 v -1.937 h -9.344 v 1.937 c 3.297,0.172 4.047,2.219 2.969,5.029 l -4.641,11.82 -5.562,-12.74 c -1.25,-2.812 -0.547,-3.999 2.641,-4.109 v -1.937 h -11.766 v 1.937 c 1.734,0 2.484,0 3.891,3.188 l 8.578,19.441"
     id="path232" />
  <path
     class="Lyrics"
     d="m 1002.8596,774.718 c 2.15,-3.082 3.14,-4.004 4.42,-4.004 1.8,0 2.22,2.534 4.06,2.534 1.67,0 2.2,-3.237 2.2,-3.503 0,-1.094 -1.61,-3.078 -3.98,-3.078 -2.81,0 -4.16,1.125 -6.59,5.125 h -0.11 v -5.344 h -1.35 l -7.18004,2.906 v 1.25 l 4,2.004 v 12.62 c 0,3.08 -1.85,4.17 -4,4.17 v 1.94 h 14.04004 v -1.94 c -4.76,0 -5.51,-1.14 -5.51,-5.18 v -9.5 m 16.79,10.73 c 0,2.7 -1.84,3.95 -3.89,3.95 v 1.94 h 11.77 v -1.94 c -1.94,-0.06 -3.35,-1.36 -3.35,-4.32 v -18.63 h -1.35 l -7.29,2.641 v 1.25 l 4.11,2.047 v 13.062 m -0.87,-28.719 c 0,1.61 1.3,2.907 2.92,2.907 1.63,0 2.91,-1.297 2.91,-2.907 0,-1.625 -1.28,-2.921 -2.91,-2.921 -1.62,0 -2.92,1.296 -2.92,2.921"
     id="path234" />
  <path
     class="Lyrics"
     d="m 1564.2096,753.808 h -1.36 l -6.91,2.484 v 1.25 l 3.72,2.047 v 25.699 c 0,2.33 -1.02,3.94 -3.72,4.11 v 1.94 h 11.61 v -1.94 c -2.44,-0.17 -3.34,-1.78 -3.34,-4.48 v -31.11 m 28.81,22.58 c 0,-3.846 -3.02,-9.94 -9.99,-9.94 -6.37,0 -11.28,5.61 -11.28,13.02 0,7.23 4.69,12.46 11.22,12.46 4.11,0 7.74,-2.1 10.05,-5.89 l -1.13,-1.01 c -2.06,1.78 -4.22,2.59 -6.75,2.59 -5.03,0 -9.61,-4 -9.34,-11.23 h 17.22 m -16.89,-1.96 c 0.48,-3.667 2.75,-5.98 5.87,-5.98 2.97,0 4.92,2.156 5.35,5.98 h -11.22 m 23.81,11.02 c 0,2.7 -1.84,3.95 -3.89,3.95 v 1.94 h 11.76 v -1.94 c -1.93,-0.06 -3.34,-1.36 -3.34,-4.32 v -18.63 h -1.36 l -7.28,2.641 v 1.25 l 4.11,2.047 v 13.062 m -0.88,-28.719 c 0,1.61 1.3,2.907 2.93,2.907 1.62,0 2.9,-1.297 2.9,-2.907 0,-1.625 -1.28,-2.921 -2.9,-2.921 -1.63,0 -2.93,1.296 -2.93,2.921"
     id="path236" />
  <path
     class="Lyrics"
     d="m 1275.9796,776.388 c 0,-3.846 -3.02,-9.94 -9.98,-9.94 -6.38,0 -11.29,5.61 -11.29,13.02 0,7.23 4.69,12.46 11.22,12.46 4.11,0 7.74,-2.1 10.05,-5.89 l -1.12,-1.01 c -2.07,1.78 -4.22,2.59 -6.75,2.59 -5.04,0 -9.61,-4 -9.35,-11.23 h 17.22 m -16.89,-1.96 c 0.48,-3.667 2.75,-5.98 5.87,-5.98 2.97,0 4.93,2.156 5.35,5.98 h -11.22"
     id="path238" />
  <path
     class="StaffText"
     fill="#00aa00"
     d="m 1281.1196,23.64 c -1.69,6.203 -5.65,9.453 -10.55,9.453 -6.95,0 -11.55,-6.453 -11.55,-16.203 0,-9 4,-14.547 10.45,-14.547 5.4,0 9.25,4.047 11.3,8.657 h 3.7 l -1,-7.954 c -4.25,-2 -8.85,-3.046 -13.7,-3.046 -13.4,0 -20.25,9 -20.25,18.343 0,11.61 9.85,17.11 20.7,17.11 5.4,0 10.71,-1.25 14.65,-3.453 v -8.36 h -3.75"
     id="path240" />
  <path
     class="StaffText"
     fill="#00aa00"
     d="m 1587.4696,23.64 c -1.69,6.203 -5.64,9.453 -10.55,9.453 -6.95,0 -11.54,-6.453 -11.54,-16.203 0,-9 4,-14.547 10.45,-14.547 5.39,0 9.25,4.047 11.3,8.657 h 3.7 l -1,-7.954 c -4.25,-2 -8.86,-3.046 -13.7,-3.046 -13.41,0 -20.25,9 -20.25,18.343 0,11.61 9.84,17.11 20.7,17.11 5.39,0 10.7,-1.25 14.64,-3.453 v -8.36 h -3.75"
     id="path242" />
  <path
     class="StaffText"
     fill="#00aa00"
     d="m 553.47956,29.546 c -1.704,0.954 -3.094,0.907 -3.094,-1.296 V 17.843 c 0,-4.093 -2.406,-6.14 -9.5,-6.14 -7.906,0 -11.953,2.25 -11.953,6.297 0,1.046 0.25,2.14 0.703,3.296 l 6.64,-2.093 c -1.203,-3.36 0.75,-5.157 3.36,-5.157 2.187,0 3.547,1.297 3.547,3.297 v 3.703 c -5.453,1.344 -15.11,2.844 -15.11,9.157 0,3.047 2.907,5.14 7.157,5.14 3.156,0 5.203,-0.843 7.953,-3.343 0.89,2.296 2.5,3.343 5,3.343 2.14,0 4.297,-1.25 5.703,-3.343 l -0.406,-2.454 m -10.297,0 c -1.907,1.5 -3.203,2.157 -4.453,2.157 -1.594,0 -2.844,-1.453 -2.844,-3.313 0,-2.75 2.687,-3.75 7.297,-5.047 v 6.203"
     id="path244" />
  <path
     class="StaffText"
     fill="#00aa00"
     d="m 811.52456,31.5 c -2.391,0.343 -3.75,-0.5 -3.75,-2.5 V 0.14 h -1.594 l -9.547,2.36 v 1.593 l 3.938,2.047 v 6.703 c -2.188,-0.89 -3.5,-1.14 -5.438,-1.14 -7.062,0 -12.312,5.343 -12.312,12.547 0,6.203 4.25,11.093 9.609,11.093 2.75,0 5.453,-1.25 8.141,-3.843 v 3.75 h 2.25 l 8.703,-1.047 V 31.5 m -10.953,-2.407 c -1.5,1.157 -2.75,1.657 -4,1.657 -3.391,0 -5.938,-3.61 -5.938,-8.407 0,-4.843 2.297,-8.297 5.5,-8.297 2.891,0 4.438,2.657 4.438,6.204 v 8.843"
     id="path246" />
  <path
     class="StaffText"
     fill="#00aa00"
     d="m 1022.5696,11.843 h -3.34 c -0.41,3.297 -2.46,4.36 -6.82,4.36 h -4.5 V 3.046 h 6.16 c 4.86,0 6.66,0.954 9.25,4.797 h 3.25 V 0.687 h -31.70004 v 2.359 c 3.4,0 4.25,1.391 4.25,4.5 v 20.5 c 0,3 -1.14,4.407 -4.25,4.407 v 2.343 h 18.11004 v -2.343 c -4.66,0 -5.07,-1.563 -5.07,-5.407 v -8.5 h 4.91 c 4,0 5.59,1.454 6.41,4.657 h 3.34 v -11.36"
     id="path248" />
  <path
     class="StaffText"
     fill="#00aa00"
     d="m 1425.6196,10.796 -0.61,-7.75 c -3,-1.906 -8.59,-3.046 -13.95,-3.046 -13.1,0 -20.19,8.687 -20.19,18.343 0,10.657 7.55,17.11 19.89,17.11 5,0 12.56,-1.313 15.11,-2.657 V 24.39 c 0,-2.75 0.95,-4.25 3.84,-4.25 v -2.344 h -17.09 v 2.344 c 3.59,0 4.45,1.453 4.45,4.5 v 7.11 c -1.56,0.89 -3.06,1.343 -5.01,1.343 -7.25,0 -11.55,-5.843 -11.55,-15.797 0,-9.656 3.66,-14.953 10.25,-14.953 4.91,0 9.45,3.297 11.61,8.453 h 3.25"
     id="path250" />
  <path
     class="StaffText"
     fill="#00aa00"
     d="m 2227.1096,23.64 c -1.69,6.203 -5.64,9.453 -10.55,9.453 -6.95,0 -11.55,-6.453 -11.55,-16.203 0,-9 4,-14.547 10.46,-14.547 5.39,0 9.25,4.047 11.29,8.657 h 3.71 l -1,-7.954 c -4.25,-2 -8.86,-3.046 -13.71,-3.046 -13.4,0 -20.25,9 -20.25,18.343 0,11.61 9.85,17.11 20.71,17.11 5.39,0 10.7,-1.25 14.64,-3.453 v -8.36 h -3.75 m 8.7,1.86 h 17.45 v -6.454 h -17.45 V 25.5 m 43.7,-22.454 c 1.85,0 2.96,0.5 2.96,1.891 0,1.203 -2,3.453 -4.36,5.406 l -7.35,6.047 V 7.64 c 0,-3.047 0.8,-4.594 4.3,-4.594 V 0.687 h -17.59 v 2.359 c 3.5,0 4.5,1.344 4.5,4.204 v 21 c 0,2.796 -1.07,4.203 -4.5,4.203 v 2.343 h 17.59 v -2.343 c -3.59,0 -4.3,-1.75 -4.3,-4.657 V 18.89 l 10.3,12.156 c 0.91,1.094 2.3,2.407 4,3.75 h 10.61 v -2.343 c -1.86,-0.203 -3.95,-2.063 -6.45,-4.907 l -11.82,-13.453 9.02,-7.547 c 2.8,-2.359 3.69,-2.906 6.94,-3.5 V 0.687 h -13.85 v 2.359 m 42.55,26.5 c -1.7,0.954 -3.09,0.907 -3.09,-1.296 V 17.843 c 0,-4.093 -2.41,-6.14 -9.5,-6.14 -7.91,0 -11.96,2.25 -11.96,6.297 0,1.046 0.25,2.14 0.71,3.296 l 6.64,-2.093 c -1.21,-3.36 0.75,-5.157 3.36,-5.157 2.18,0 3.54,1.297 3.54,3.297 v 3.703 c -5.45,1.344 -15.11,2.844 -15.11,9.157 0,3.047 2.91,5.14 7.16,5.14 3.16,0 5.2,-0.843 7.95,-3.343 0.89,2.296 2.5,3.343 5,3.343 2.14,0 4.3,-1.25 5.71,-3.343 l -0.41,-2.454 m -10.3,0 c -1.9,1.5 -3.2,2.157 -4.45,2.157 -1.59,0 -2.84,-1.453 -2.84,-3.313 0,-2.75 2.68,-3.75 7.29,-5.047 v 6.203 m 41.6,1.954 c -2.39,0.343 -3.75,-0.5 -3.75,-2.5 V 0.14 h -1.6 l -9.54,2.36 v 1.593 l 3.93,2.047 v 6.703 c -2.18,-0.89 -3.5,-1.14 -5.43,-1.14 -7.07,0 -12.32,5.343 -12.32,12.547 0,6.203 4.25,11.093 9.61,11.093 2.75,0 5.46,-1.25 8.14,-3.843 v 3.75 h 2.25 l 8.71,-1.047 V 31.5 m -10.96,-2.407 c -1.5,1.157 -2.75,1.657 -4,1.657 -3.39,0 -5.93,-3.61 -5.93,-8.407 0,-4.843 2.29,-8.297 5.5,-8.297 2.89,0 4.43,2.657 4.43,6.204 v 8.843 m 34.25,-1.453 c -2.43,1.813 -4,2.453 -5.89,2.453 -4.11,0 -7.65,-3.593 -8,-8.093 h 15.85 c -0.14,-6.36 -4.21,-10.297 -10.64,-10.297 -7.21,0 -12.11,5 -12.11,12.343 0,6.797 4.36,11.297 10.9,11.297 4.75,0 8.6,-2.047 11.85,-6.25 l -1.96,-1.453 m -14.04,-8 c 0,-3.39 1.7,-5.594 4.25,-5.594 2.54,0 4,2 4,5.594 h -8.25 m 29.11,-1.64 c 1.39,-1 3.09,-1.75 4.64,-1.75 2.4,0 3.61,1.75 3.61,4.203 v 7.75 c 0,2.5 -0.82,3.89 -3,4.25 v 2.343 h 13.45 v -2.343 c -2.66,-0.5 -3.25,-1.453 -3.25,-5.157 v -8.25 c 0,-4.906 -2.86,-7.343 -7.31,-7.343 -3.05,0 -5.64,1.437 -8.14,4.14 v -4 h -2.5 l -8.21,2.657 v 1.343 l 3.5,2.61 v 9.89 c 0,2.703 -1.11,4 -3.5,4.11 v 2.343 h 13.85 v -2.343 c -2.55,-0.407 -3.14,-1.953 -3.14,-4.313 V 18 m 43.43,9.593 h -2.64 c -3.11,3.75 -4.95,4.86 -9.11,4.86 h -2.18 l 13.34,-18.11 v -2.047 h -15.3 c -1.15,0 -1.95,-0.046 -2.54,-0.203 -0.61,-0.14 -1,-0.39 -1.46,-0.797 h -1.95 l -0.55,8.407 h 2.46 c 2.5,-4.157 3.5,-5.063 7.89,-5.063 h 2.9 l -13.75,17.813 -0.25,2.343 h 22.14 l 1,-7.203"
     id="path252" />
  <path
     class="StaffText"
     fill="#00aa00"
     d="m 1950.8496,31.5 c -2.39,0.343 -3.75,-0.5 -3.75,-2.5 V 0.14 h -1.59 l -9.55,2.36 v 1.593 l 3.94,2.047 v 6.703 c -2.19,-0.89 -3.5,-1.14 -5.44,-1.14 -7.06,0 -12.31,5.343 -12.31,12.547 0,6.203 4.25,11.093 9.61,11.093 2.75,0 5.45,-1.25 8.14,-3.843 v 3.75 h 2.25 l 8.7,-1.047 V 31.5 m -10.95,-2.407 c -1.5,1.157 -2.75,1.657 -4,1.657 -3.39,0 -5.94,-3.61 -5.94,-8.407 0,-4.843 2.3,-8.297 5.5,-8.297 2.89,0 4.44,2.657 4.44,6.204 v 8.843"
     id="path254" />
  <path
     class="StaffText"
     fill="#00aa00"
     d="m 1726.1196,31.5 c -2.39,0.343 -3.75,-0.5 -3.75,-2.5 V 0.14 h -1.6 l -9.54,2.36 v 1.593 l 3.93,2.047 v 6.703 c -2.18,-0.89 -3.5,-1.14 -5.43,-1.14 -7.07,0 -12.32,5.343 -12.32,12.547 0,6.203 4.25,11.093 9.61,11.093 2.75,0 5.46,-1.25 8.14,-3.843 v 3.75 h 2.25 l 8.71,-1.047 V 31.5 m -10.96,-2.407 c -1.5,1.157 -2.75,1.657 -4,1.657 -3.39,0 -5.93,-3.61 -5.93,-8.407 0,-4.843 2.29,-8.297 5.5,-8.297 2.89,0 4.43,2.657 4.43,6.204 v 8.843"
     id="path256" />
  <polyline
     class="LyricsLineSegment"
     fill="none"
     stroke="#000000"
     stroke-width="2.48"
     stroke-linejoin="bevel"
     points="1313.41,343.842 1333.25,343.842"
     id="polyline258"
     transform="translate(-175.88044,-227.402)" />
  <polyline
     class="LyricsLineSegment"
     fill="none"
     stroke="#000000"
     stroke-width="2.48"
     stroke-linejoin="bevel"
     points="574.508,343.842 594.348,343.842"
     id="polyline260"
     transform="translate(-175.88044,-227.402)" />
  <polyline
     class="LyricsLineSegment"
     fill="none"
     stroke="#000000"
     stroke-width="2.48"
     stroke-linejoin="bevel"
     points="951.824,343.842 971.664,343.842"
     id="polyline262"
     transform="translate(-175.88044,-227.402)" />
  <polyline
     class="LyricsLineSegment"
     fill="none"
     stroke="#000000"
     stroke-width="2.48"
     stroke-linejoin="bevel"
     points="2269.12,343.842 2288.96,343.842"
     id="polyline264"
     transform="translate(-175.88044,-227.402)" />
  <polyline
     class="LyricsLineSegment"
     fill="none"
     stroke="#000000"
     stroke-width="3.97"
     stroke-linejoin="bevel"
     points="1486.5,356.436 1999.6,356.436"
     id="polyline266"
     transform="translate(-175.88044,-227.402)" />
  <polyline
     class="LyricsLineSegment"
     fill="none"
     stroke="#000000"
     stroke-width="2.48"
     stroke-linejoin="bevel"
     points="957.545,608.021 977.385,608.021"
     id="polyline268"
     transform="translate(-175.88044,-227.402)" />
  <polyline
     class="LyricsLineSegment"
     fill="none"
     stroke="#000000"
     stroke-width="2.48"
     stroke-linejoin="bevel"
     points="1304.06,608.021 1323.9,608.021"
     id="polyline270"
     transform="translate(-175.88044,-227.402)" />
  <polyline
     class="LyricsLineSegment"
     fill="none"
     stroke="#000000"
     stroke-width="3.97"
     stroke-linejoin="bevel"
     points="1449.43,620.615 1763.94,620.615"
     id="polyline272"
     transform="translate(-175.88044,-227.402)" />
  <polyline
     class="LyricsLineSegment"
     fill="none"
     stroke="#000000"
     stroke-width="2.48"
     stroke-linejoin="bevel"
     points="1988.81,608.021 2008.65,608.021"
     id="polyline274"
     transform="translate(-175.88044,-227.402)" />
  <polyline
     class="LyricsLineSegment"
     fill="none"
     stroke="#000000"
     stroke-width="2.48"
     stroke-linejoin="bevel"
     points="951.743,704.621 971.583,704.621"
     id="polyline276"
     transform="translate(-175.88044,-227.402)" />
  <polyline
     class="LyricsLineSegment"
     fill="none"
     stroke="#000000"
     stroke-width="2.48"
     stroke-linejoin="bevel"
     points="1291.81,704.621 1311.65,704.621"
     id="polyline278"
     transform="translate(-175.88044,-227.402)" />
  <polyline
     class="LyricsLineSegment"
     fill="none"
     stroke="#000000"
     stroke-width="2.48"
     stroke-linejoin="bevel"
     points="1976.55,704.621 1996.39,704.621"
     id="polyline280"
     transform="translate(-175.88044,-227.402)" />
  <polyline
     class="LyricsLineSegment"
     fill="none"
     stroke="#000000"
     stroke-width="3.97"
     stroke-linejoin="bevel"
     points="1437.18,717.215 1763.94,717.215"
     id="polyline282"
     transform="translate(-175.88044,-227.402)" />
  <polyline
     class="LyricsLineSegment"
     fill="none"
     stroke="#000000"
     stroke-width="2.48"
     stroke-linejoin="bevel"
     points="957.545,1004.16 977.385,1004.16"
     id="polyline284"
     transform="translate(-175.88044,-227.402)" />
  <polyline
     class="LyricsLineSegment"
     fill="none"
     stroke="#000000"
     stroke-width="2.48"
     stroke-linejoin="bevel"
     points="1306.72,1004.16 1326.56,1004.16"
     id="polyline286"
     transform="translate(-175.88044,-227.402)" />
  <polyline
     class="LyricsLineSegment"
     fill="none"
     stroke="#000000"
     stroke-width="2.48"
     stroke-linejoin="bevel"
     points="1652.56,1004.16 1672.4,1004.16"
     id="polyline288"
     transform="translate(-175.88044,-227.402)" />
  <path
     class="NoteDot"
     d="m 1976.5096,270.397 c 0,-2.77451 -2.1855,-4.96001 -4.96,-4.96001 -2.7745,0 -4.96,2.1855 -4.96,4.96001 0,2.77451 2.1855,4.96001 4.96,4.96001 2.7745,0 4.96,-2.1855 4.96,-4.96001"
     id="path290"
     style="stroke-width:0.992001" />
  <path
     class="NoteDot"
     d="m 1304.0196,561.139 c 0,-2.77451 -2.1855,-4.96 -4.96,-4.96 -2.7745,0 -4.96,2.18549 -4.96,4.96 0,2.77451 2.1855,4.96001 4.96,4.96001 2.7745,0 4.96,-2.1855 4.96,-4.96001"
     id="path292"
     style="stroke-width:0.992001" />
  <path
     class="NoteDot"
     d="m 1976.5096,585.939 c 0,-2.77451 -2.1855,-4.96 -4.96,-4.96 -2.7745,0 -4.96,2.18549 -4.96,4.96 0,2.77451 2.1855,4.96001 4.96,4.96001 2.7745,0 4.96,-2.1855 4.96,-4.96001"
     id="path294"
     style="stroke-width:0.992001" />
  <path
     class="NoteDot"
     d="m 1976.5096,635.539 c 0,-2.77451 -2.1855,-4.96001 -4.96,-4.96001 -2.7745,0 -4.96,2.1855 -4.96,4.96001 0,2.77451 2.1855,4.96 4.96,4.96 2.7745,0 4.96,-2.18549 4.96,-4.96"
     id="path296"
     style="stroke-width:0.992001" />
  <path
     class="Bracket"
     d="m 6.4615625,429.26219 c 10.4508755,-9.7647 22.3064555,-47.98145 22.3064555,-79.80116 0,-2.69371 0,-5.89223 -0.39333,-8.58594 -2.47225,-32.32452 -13.26025,-82.41082 -13.26025,-111.53683 0,-28.03128 8.25958,-54.96838 10.05758,-59.76642 1.067545,-3.28309 1.798,-3.7879 1.798,-5.38742 0,-1.68357 -1.06758,-3.7879 -2.19133,-3.7879 -0.67425,0 -1.40467,1.09419 -2.865545,3.7879 -7.922455,14.47869 -17.5867055,45.79307 -17.5867055,99.66727 0,53.28482 12.5860005,74.8345 12.5860005,108.84259 0,25.25353 -6.854875,39.31146 -16.912438,56.56791 6.4615625,10.77484 16.912438,19.3613 16.912438,54.37953 0,37.71194 -12.5860005,71.13065 -12.5860005,110.44211 0,53.87404 9.6642505,85.10427 17.5867055,100.25639 1.460875,2.69371 2.191295,3.19878 2.865545,3.19878 1.12375,0 2.19133,-1.59939 2.19133,-3.19878 0,-1.68357 -0.39333,-2.69371 -1.798,-5.9767 -1.798,-4.29307 -10.05758,-31.23017 -10.05758,-59.76679 0,-28.53663 10.788,-79.21178 13.26025,-111.0315 0.39333,-2.69371 0.39333,-5.38742 0.39333,-8.58593 0,-31.81972 -11.85558,-70.03646 -22.3064555,-79.71711"
     id="path298"
     style="stroke-width:4.4015" />
</svg>
