<?xml version="1.0" encoding="UTF-8" standalone="no"?>
<svg
   width="2428.001"
   height="362.52658"
   viewBox="0 0 2428.001 362.52659"
   version="1.2"
   id="svg124"
   sodipodi:docname="Anfang-1.svg"
   inkscape:version="1.2.1 (9c6d41e410, 2022-07-14)"
   xmlns:inkscape="http://www.inkscape.org/namespaces/inkscape"
   xmlns:sodipodi="http://sodipodi.sourceforge.net/DTD/sodipodi-0.dtd"
   xmlns="http://www.w3.org/2000/svg"
   xmlns:svg="http://www.w3.org/2000/svg">
  <defs
     id="defs128" />
  <sodipodi:namedview
     id="namedview126"
     pagecolor="#505050"
     bordercolor="#eeeeee"
     borderopacity="1"
     inkscape:showpageshadow="0"
     inkscape:pageopacity="0"
     inkscape:pagecheckerboard="0"
     inkscape:deskcolor="#505050"
     showgrid="false"
     inkscape:zoom="0.25021386"
     inkscape:cx="311.73333"
     inkscape:cy="1894.3795"
     inkscape:current-layer="svg124" />
  <title
     id="title2">Anfang (1)</title>
  <desc
     id="desc4">Generated by MuseScore 4.0.0</desc>
  <polyline
     class="StaffLines"
     fill="none"
     stroke="#000000"
     stroke-width="3.22"
     stroke-linejoin="bevel"
     points="336.599,435.595 2764.6,435.595"
     id="polyline8"
     transform="translate(-336.599,-212.739)" />
  <polyline
     class="StaffLines"
     fill="none"
     stroke="#000000"
     stroke-width="3.22"
     stroke-linejoin="bevel"
     points="336.599,460.395 2764.6,460.395"
     id="polyline10"
     transform="translate(-336.599,-212.739)" />
  <polyline
     class="StaffLines"
     fill="none"
     stroke="#000000"
     stroke-width="3.22"
     stroke-linejoin="bevel"
     points="336.599,485.195 2764.6,485.195"
     id="polyline12"
     transform="translate(-336.599,-212.739)" />
  <polyline
     class="StaffLines"
     fill="none"
     stroke="#000000"
     stroke-width="3.22"
     stroke-linejoin="bevel"
     points="336.599,509.995 2764.6,509.995"
     id="polyline14"
     transform="translate(-336.599,-212.739)" />
  <polyline
     class="StaffLines"
     fill="none"
     stroke="#000000"
     stroke-width="3.22"
     stroke-linejoin="bevel"
     points="336.599,534.795 2764.6,534.795"
     id="polyline16"
     transform="translate(-336.599,-212.739)" />
  <path
     class="TieSegment"
     stroke="#000000"
     stroke-width="2.48"
     stroke-linecap="round"
     stroke-linejoin="round"
     fill-rule="evenodd"
     d="m 1024.081,315.732 c 39.87,27.327 159.49,27.327 199.36,0 -39.87,33.279 -159.49,33.279 -199.36,0"
     id="path18" />
  <polyline
     class="BarLine"
     stroke="#000000"
     stroke-width="3.97"
     stroke-linejoin="bevel"
     points="2381.12,433.983 2381.12,536.407"
     id="polyline20"
     transform="translate(-336.599,-212.739)" />
  <polyline
     class="BarLine"
     stroke="#000000"
     stroke-width="3.97"
     stroke-linejoin="bevel"
     points="1873.35,433.983 1873.35,536.407"
     id="polyline22"
     transform="translate(-336.599,-212.739)" />
  <polyline
     class="BarLine"
     stroke="#000000"
     stroke-width="3.97"
     stroke-linejoin="bevel"
     points="849.781,433.983 849.781,536.407"
     id="polyline24"
     transform="translate(-336.599,-212.739)" />
  <polyline
     class="BarLine"
     stroke="#000000"
     stroke-width="3.97"
     stroke-linejoin="bevel"
     points="1304.36,433.983 1304.36,536.407"
     id="polyline26"
     transform="translate(-336.599,-212.739)" />
  <polyline
     class="LedgerLine"
     stroke="#000000"
     stroke-width="3.97"
     stroke-linejoin="bevel"
     points="2071.72,559.595 2124.19,559.595"
     id="polyline30"
     transform="translate(-336.599,-212.739)" />
  <polyline
     class="LedgerLine"
     stroke="#000000"
     stroke-width="3.97"
     stroke-linejoin="bevel"
     points="2405.42,559.595 2457.9,559.595"
     id="polyline32"
     transform="translate(-336.599,-212.739)" />
  <polyline
     class="Stem"
     stroke="#000000"
     stroke-width="2.98"
     stroke-linejoin="bevel"
     points="2446.49,555.429 2446.49,472.795"
     id="polyline34"
     transform="translate(-336.599,-212.739)" />
  <polyline
     class="Stem"
     stroke="#000000"
     stroke-width="2.98"
     stroke-linejoin="bevel"
     points="1582.14,505.829 1582.14,423.195"
     id="polyline36"
     transform="translate(-336.599,-212.739)" />
  <polyline
     class="Stem"
     stroke="#000000"
     stroke-width="2.98"
     stroke-linejoin="bevel"
     points="1719.44,518.229 1719.44,435.595"
     id="polyline38"
     transform="translate(-336.599,-212.739)" />
  <polyline
     class="Stem"
     stroke="#000000"
     stroke-width="2.98"
     stroke-linejoin="bevel"
     points="2112.78,555.429 2112.78,472.795"
     id="polyline40"
     transform="translate(-336.599,-212.739)" />
  <polyline
     class="Stem"
     stroke="#000000"
     stroke-width="2.98"
     stroke-linejoin="bevel"
     points="1938.72,543.029 1938.72,460.395"
     id="polyline42"
     transform="translate(-336.599,-212.739)" />
  <polyline
     class="Stem"
     stroke="#000000"
     stroke-width="2.98"
     stroke-linejoin="bevel"
     points="1810.98,530.629 1810.98,447.995"
     id="polyline44"
     transform="translate(-336.599,-212.739)" />
  <path
     class="Note"
     d="m 1025.293,283.66251 c -14.384,0 -23.312,6.06048 -23.312,13.39199 0,7.23851 6.1535,13.68656 22.2271,13.68656 17.6544,0 23.312,-6.13805 23.312,-13.68656 0,-7.64151 -12.1985,-13.39199 -22.2271,-13.39199 m -2.7745,2.48 c 7.3471,0 13.2991,7.93598 13.2991,14.49249 0,5.45601 -3.3791,7.62606 -8.246,7.62606 -7.1455,0 -13.9811,-8.23055 -13.9811,-15.17457 0,-5.549 3.8596,-6.94398 8.928,-6.94398"
     id="path46"
     style="stroke-width:0.992001" />
  <path
     class="Note"
     d="m 1362.4015,323.54401 c 9.827,0 21.9326,-9.1295 21.9326,-18.55352 0,-5.54903 -4.464,-9.2225 -10.8191,-9.2225 -12.1055,0 -21.824,9.02101 -21.824,18.55352 0,5.7505 4.7585,9.2225 10.7105,9.2225"
     id="path48"
     style="stroke-width:0.992001" />
  <path
     class="Note"
     d="m 1453.9415,335.94401 c 9.827,0 21.9326,-9.1295 21.9326,-18.55352 0,-5.54903 -4.464,-9.2225 -10.8191,-9.2225 -12.1055,0 -21.824,9.02101 -21.824,18.55352 0,5.7505 4.7585,9.2225 10.7105,9.2225"
     id="path50"
     style="stroke-width:0.992001" />
  <path
     class="Note"
     d="m 1225.1015,311.14401 c 18.259,0 21.9326,-14.88001 21.9326,-18.44501 0,-5.65754 -4.464,-9.33101 -10.912,-9.33101 -16.5696,0 -21.7311,12.80301 -21.7311,18.55352 0,5.84355 4.6655,9.2225 10.7105,9.2225 m 8.432,-8.835 c -4.96,3.379 -8.432,4.5725 -10.8035,4.5725 -2.294,0 -3.6735,-1.1935 -4.371,-2.5885 -0.403,-0.589 -0.6975,-1.3795 -0.6975,-2.17001 0,-5.363 15.9806,-14.19801 21.235,-14.19801 2.0771,0 3.2705,0.992 4.0611,2.387 0.31,0.589 0.6045,1.2865 0.6045,2.07701 0,2.18549 -2.2785,4.867 -10.0286,9.92001"
     id="path52"
     style="stroke-width:0.992001" />
  <path
     class="Note"
     d="m 1581.6915,348.34401 c 18.259,0 21.9326,-14.88001 21.9326,-18.44501 0,-5.65754 -4.464,-9.33101 -10.912,-9.33101 -16.5696,0 -21.7311,12.80301 -21.7311,18.55352 0,5.84355 4.6655,9.2225 10.7105,9.2225 m 8.432,-8.835 c -4.96,3.379 -8.432,4.5725 -10.8035,4.5725 -2.294,0 -3.6735,-1.1935 -4.371,-2.5885 -0.403,-0.589 -0.6975,-1.3795 -0.6975,-2.17001 0,-5.363 15.9806,-14.19801 21.235,-14.19801 2.0771,0 3.2705,0.992 4.0611,2.387 0.31,0.589 0.6045,1.2865 0.6045,2.07701 0,2.18549 -2.2785,4.867 -10.0286,9.92001"
     id="path54"
     style="stroke-width:0.992001" />
  <path
     class="Note"
     d="m 1755.7515,360.74401 c 9.827,0 21.9326,-9.1295 21.9326,-18.55352 0,-5.54903 -4.464,-9.2225 -10.8191,-9.2225 -12.1055,0 -21.824,9.02101 -21.824,18.55352 0,5.7505 4.7585,9.2225 10.7105,9.2225"
     id="path56"
     style="stroke-width:0.992001" />
  <path
     class="Note"
     d="m 1853.443,320.86251 c -14.384,0 -23.312,6.06048 -23.312,13.39199 0,7.23851 6.1535,13.68656 22.2271,13.68656 17.6544,0 23.312,-6.13805 23.312,-13.68656 0,-7.64151 -12.1985,-13.39199 -22.2271,-13.39199 m -2.7745,2.48 c 7.3471,0 13.2991,7.93598 13.2991,14.49249 0,5.45601 -3.3791,7.62606 -8.246,7.62606 -7.1455,0 -13.9811,-8.23055 -13.9811,-15.17457 0,-5.549 3.8596,-6.94398 8.928,-6.94398"
     id="path58"
     style="stroke-width:0.992001" />
  <path
     class="Note"
     d="m 189.472,338.33107 v -32.05414 c 0,-0.38747 -0.403,-0.79042 -0.992,-0.79042 h -1.395 c -0.589,0 -0.992,0.40295 -0.992,0.79042 v 32.05414 c 0,0.38747 0.403,0.682 0.992,0.682 h 1.395 c 0.589,0 0.992,-0.29453 0.992,-0.682 m 6.24651,0 v -32.05414 c 0,-0.38747 -0.496,-0.79042 -0.992,-0.79042 h -1.395 c -0.589,0 -0.992,0.40295 -0.992,0.79042 v 32.05414 c 0,0.38747 0.403,0.682 0.992,0.682 h 1.395 c 0.496,0 0.992,-0.29453 0.992,-0.682 m 49.10402,0 v -32.05414 c 0,-0.38747 -0.496,-0.79042 -0.992,-0.79042 h -1.488 c -0.496,0 -0.992,0.40295 -0.992,0.79042 v 32.05414 c 0,0.38747 0.496,0.682 0.992,0.682 h 1.488 c 0.496,0 0.992,-0.29453 0.992,-0.682 m 6.24654,0 v -32.05414 c 0,-0.38747 -0.496,-0.79042 -1.08496,-0.79042 h -1.39505 c -0.496,0 -1.08495,0.40295 -1.08495,0.79042 v 32.05414 c 0,0.38747 0.58895,0.682 1.08495,0.682 h 1.39505 c 0.58896,0 1.08496,-0.29453 1.08496,-0.682 m -32.03856,-29.57413 c -14.29097,0 -23.219,6.06055 -23.219,13.50056 0,7.03701 6.15351,13.59356 22.13405,13.59356 17.65454,0 23.31202,-6.15355 23.31202,-13.59356 0,-7.73451 -12.10549,-13.50056 -22.22707,-13.50056 m -11.31496,6.75805 c 1.19347,-3.67353 5.16148,-4.16953 8.54053,-4.16953 7.33148,0 13.28349,7.82754 13.28349,14.38405 0,5.3475 -3.27053,7.64155 -8.12201,7.64155 -4.37105,0 -7.64148,-2.58855 -10.32306,-5.65755 -1.984,-2.58851 -3.67348,-6.24651 -3.67348,-9.71851 0,-0.89901 0.0931,-1.68951 0.29453,-2.48001"
     id="path60"
     style="stroke-width:0.992001" />
  <path
     class="Note"
     d="m 2089.4515,360.74401 c 18.259,0 21.9326,-14.88001 21.9326,-18.44501 0,-5.65754 -4.464,-9.33101 -10.912,-9.33101 -16.5696,0 -21.7311,12.80301 -21.7311,18.55352 0,5.84355 4.6655,9.2225 10.7105,9.2225 m 8.432,-8.835 c -4.96,3.379 -8.432,4.5725 -10.8035,4.5725 -2.294,0 -3.6735,-1.1935 -4.371,-2.5885 -0.403,-0.589 -0.6975,-1.3795 -0.6975,-2.17001 0,-5.363 15.9806,-14.19801 21.235,-14.19801 2.0771,0 3.2705,0.992 4.0611,2.387 0.31,0.589 0.6045,1.2865 0.6045,2.07701 0,2.18549 -2.2785,4.867 -10.0286,9.92001"
     id="path62"
     style="stroke-width:0.992001" />
  <path
     class="Note"
     d="m 776.67302,271.26251 c -14.38401,0 -23.31202,6.06048 -23.31202,13.39199 0,7.23851 6.15351,13.68656 22.22707,13.68656 17.65445,0 23.31203,-6.13805 23.31203,-13.68656 0,-7.64151 -12.19854,-13.39199 -22.22708,-13.39199 m -2.77452,2.48 c 7.34705,0 13.29906,7.93598 13.29906,14.49249 0,5.45601 -3.37905,7.62606 -8.24601,7.62606 -7.14548,0 -13.98106,-8.23055 -13.98106,-15.17457 0,-5.549 3.85958,-6.94398 8.92801,-6.94398"
     id="path64"
     style="stroke-width:0.992001" />
  <path
     class="Note"
     d="m 570.71802,271.26251 c -14.38401,0 -23.31202,6.06048 -23.31202,13.39199 0,7.23851 6.15351,13.68656 22.22707,13.68656 17.65445,0 23.31203,-6.13805 23.31203,-13.68656 0,-7.64151 -12.19854,-13.39199 -22.22708,-13.39199 m -2.77452,2.48 c 7.34705,0 13.29906,7.93598 13.29906,14.49249 0,5.45601 -3.37905,7.62606 -8.24601,7.62606 -7.14548,0 -13.98106,-8.23055 -13.98106,-15.17457 0,-5.549 3.85958,-6.94398 8.92801,-6.94398"
     id="path66"
     style="stroke-width:0.992001" />
  <path
     class="Clef"
     d="m 55.908562,256.08796 c -0.201475,-1.19348 0,-1.28653 0.588951,-1.89105 10.710536,-10.01296 18.848019,-22.61445 18.848019,-37.78899 0,-8.63349 -2.386952,-17.17402 -6.448006,-23.12652 -1.488002,-2.16951 -4.060955,-4.96001 -5.16148,-4.96001 -1.379477,0 -4.464005,2.58913 -6.448007,4.7745 -7.331483,8.12201 -9.718535,20.52203 -9.718535,30.84499 0,5.75053 0.697576,12.19853 1.395051,16.27506 0.186001,1.19348 0.294526,1.37948 -0.89905,2.37148 C 33.77454,254.39848 18.6,268.58092 18.6,288.62249 c 0,17.26702 11.811062,33.63501 36.115086,33.63501 2.278428,0 4.85148,-0.20148 6.835482,-0.60443 1.100526,-0.186 1.302001,-0.29452 1.488002,0.89896 1.193476,6.64948 2.681478,15.28306 2.681478,19.94854 0,14.67854 -9.92001,16.46097 -15.763492,16.46097 -5.363055,0 -7.951483,-1.58095 -7.951483,-2.88296 0,-0.682 0.898952,-0.992 3.177479,-1.674 3.084528,-0.89905 6.649482,-3.58053 6.649482,-9.33106 0,-5.456 -3.472004,-10.12148 -9.51696,-10.12148 -6.649582,0 -10.617586,5.25453 -10.617586,11.40801 0,6.44801 3.859579,16.16654 18.848019,16.16654 6.649582,0 19.545595,-2.976 19.545595,-19.84002 0,-5.64201 -1.782527,-15.06601 -2.883053,-21.2195 -0.201475,-1.19357 -0.09295,-1.10052 1.286526,-1.68957 10.028535,-3.96801 16.678017,-12.40001 16.678017,-23.6065 0,-12.71006 -9.331059,-23.9165 -23.916549,-23.9165 -2.572953,0 -2.572953,0 -2.867478,-1.78253 l -2.480003,-14.38401 m 9.315485,-52.39005 c 3.270528,0 5.952006,2.68147 5.952006,8.13748 0,11.02053 -9.424009,19.94854 -17.251493,26.78403 -0.697475,0.60452 -1.100525,0.496 -1.302001,-0.79053 -0.387475,-2.57295 -0.58905,-5.95201 -0.58905,-9.12948 0,-15.46897 7.145582,-25.0015 13.190538,-25.0015 M 54.420561,271.2625 c 0.294525,1.89095 0.294525,1.78243 -1.488002,2.38695 -8.742008,2.976 -14.399489,10.80349 -14.399489,19.23555 0,8.928 4.66548,15.28301 11.423486,17.56154 0.790526,0.29452 1.984002,0.60452 2.666003,0.60452 0.806001,0 1.193477,-0.496 1.193477,-1.10052 0,-0.69748 -0.790526,-0.992 -1.488002,-1.28653 -4.169479,-1.7825 -7.145482,-6.045 -7.145482,-10.61751 0,-5.6575 3.874954,-9.92001 9.92001,-11.60956 1.596526,-0.38748 1.798001,-0.29443 1.984002,0.806 l 4.960005,29.55855 c 0.201475,1.08506 0.108525,1.08506 -1.379477,1.37958 -1.596526,0.31 -3.580528,0.496 -5.56453,0.496 -17.360018,0 -28.566554,-9.61001 -28.566554,-23.40507 0,-5.85901 0.992001,-13.68654 9.222534,-23.0175 5.952006,-6.64958 10.524536,-10.32306 15.190015,-14.08959 0.992001,-0.79043 1.178002,-0.69747 1.379477,0.40305 l 2.092527,12.69454 m 6.835482,15.77896 c -0.201475,-1.19347 -0.09295,-1.488 1.100526,-1.39495 8.028958,0.69748 14.67854,7.43998 14.67854,16.16649 0,6.26206 -3.766529,11.31502 -9.331059,14.08954 -1.193477,0.60453 -1.379477,0.60453 -1.580952,-0.58905 l -4.867055,-28.27203"
     id="path68"
     style="stroke-width:0.992001" />
  <path
     class="TimeSig"
     d="m 143.89351,255.00701 v -21.23502 c 0,-0.79053 -0.093,-1.68948 -1.19347,-1.68948 -0.88348,0 -1.37948,0.20147 -1.98401,0.89895 l -9.42401,11.40803 c -0.40295,0.496 -0.89895,1.085 -0.89895,2.27851 v 8.33901 h -13.39206 c 7.93606,-6.75801 23.82355,-29.26408 24.11807,-30.45756 l 0.093,-0.29452 c 0,-0.89895 -0.69747,-1.488 -1.488,-1.488 -0.88347,0 -4.96,0.186 -6.74253,0.186 -1.78243,0 -6.24643,-0.186 -7.05243,-0.186 -0.88358,0 -2.27853,0.29452 -2.27853,1.87557 0,12.30696 -9.71853,26.0865 -12.69454,30.25601 l -0.589,0.7905 c 0,0 0,0.1085 0,0.1085 l -0.10849,0.093 c -0.20151,0.496 -0.29451,0.899 -0.29451,1.1935 0,0.992 0.79051,1.68948 1.984,1.68948 h 18.44507 v 6.24653 c 0,2.68148 -2.17,3.472 -3.968,3.472 -1.58105,0 -2.27853,0.89905 -2.27853,1.89105 0,0.992 0.40295,2.07695 1.89095,2.07695 h 21.12655 c 0.992,0 1.984,-0.69747 1.984,-2.07695 0,-1.39505 -1.19347,-1.984 -2.18548,-1.984 -0.992,0 -3.06905,-0.60452 -3.06905,-3.782 v -5.84358 h 7.23853 c 0.992,0 1.488,-0.69748 1.488,-1.89098 0,-1.1935 -0.38747,-1.8755 -1.488,-1.8755 h -7.23853"
     id="path70"
     style="stroke-width:0.992001" />
  <path
     class="TimeSig"
     d="m 150.93057,306.87001 c 0,-1.178 -0.496,-1.3795 -1.19348,-1.3795 -0.79053,0 -1.10053,0.3875 -1.28653,1.085 l -0.10852,0.1085 c -0.992,2.48005 -1.78253,4.35553 -3.85948,4.35553 -0.496,0 -0.992,-0.0931 -1.68948,-0.29453 -1.28652,-0.496 -1.984,-0.58895 -2.976,-1.08495 -1.984,-0.806 -6.64958,-2.38705 -10.72601,-2.38705 -1.28653,0 -2.57305,0.2015 -3.658,0.58905 2.17,-3.56505 10.61748,-6.54106 12.78748,-7.13006 6.94401,-1.891 13.20602,-4.774 13.20602,-13.00449 0,-10.50906 -10.32306,-15.08159 -19.5455,-15.08159 -6.944,0 -13.09756,0.60453 -17.96456,6.26201 -1.68951,2.07705 -2.77451,4.55706 -2.77451,7.23853 0,1.37948 0.29451,2.77453 0.899,4.26253 1.488,3.06901 4.55701,5.45601 8.12206,5.45601 6.06043,0 6.94401,-6.24651 6.94401,-8.72654 0,-5.952 -6.83558,-6.24653 -6.83558,-8.23053 0.20157,-1.39495 1.984,-3.782 7.82758,-3.782 8.83496,0 8.94348,6.64958 8.94348,9.53253 0,9.02103 -7.45548,15.87205 -14.58549,20.22755 -5.45605,3.47205 -9.33106,8.33901 -11.02055,14.78701 l -0.093,0.29453 c 0,1.28652 1.085,3.37895 2.573,3.37895 2.1855,0 3.379,-6.06043 9.22255,-6.06043 3.96801,0 5.45601,5.36296 14.29097,5.36296 4.26253,0 11.90401,-0.40296 13.50054,-15.77902"
     id="path72"
     style="stroke-width:0.992001" />
  <path
     class="StaffText"
     fill="#00aa00"
     d="m 784.611,20.953 c 0,-3.25 -0.59,-4.797 -2.34,-6.25 -1.86,-1.437 -4.96,-2.25 -8.91,-2.25 -6.89,0 -11.39,2.563 -11.39,6.453 0,2.156 1.69,3.75 4.05,3.75 2.34,0 4.09,-1.39 4.09,-3.25 0,-0.594 -0.25,-1.297 -0.7,-1.89 -0.44,-0.61 -0.44,-0.61 -0.44,-0.86 0,-0.844 1.64,-1.594 3.64,-1.594 3.05,0 4.16,1.25 4.16,4.75 v 2.594 c -3.21,0.656 -6.46,1.36 -9.5,2.406 -4.66,1.547 -6.66,3.641 -6.66,6.954 0,3.687 2.8,5.843 7.7,5.843 4.3,0 6.91,-0.953 9.55,-3.547 0.86,2.25 2.75,3.547 5.3,3.547 2.86,0 5.51,-2 5.51,-4.156 0,-0.5 -0.25,-0.797 -0.75,-0.797 -0.31,0 -0.61,0.11 -1,0.36 -0.45,0.296 -0.61,0.343 -0.95,0.343 -1.11,0 -1.36,-0.656 -1.36,-3.593 v -8.813 m -7.84,4.156 v 2.797 c 0,3.86 -1.75,6.297 -4.61,6.297 -1.94,0 -3.19,-1.344 -3.19,-3.437 0,-2.704 1.55,-4.204 5.14,-5.063 l 2.66,-0.594"
     id="path78" />
  <path
     class="StaffText"
     fill="#00aa00"
     d="m 793.021,60.75 h -33.11 v 2.703 h 0.75 c 2.65,0 3.65,0.203 4.11,0.75 0.34,0.5 0.34,0.656 0.34,3.75 v 21.703 c 0,3.11 0,3.25 -0.34,3.75 -0.46,0.547 -1.46,0.75 -4.11,0.75 h -0.75 v 2.703 h 20 v -2.703 h -1.3 c -2.7,0 -3.7,-0.203 -4.14,-0.75 -0.36,-0.5 -0.36,-0.64 -0.36,-3.75 V 79.562 h 0.86 c 3.94,0.047 6.34,2.5 6.89,7.094 h 2.7 V 69.703 h -2.7 c -0.55,4.656 -2.95,7.109 -6.89,7.109 h -0.86 V 67.75 c -0.09,-3.5 0.61,-4.25 4.3,-4.297 h 0.95 c 6.25,0.109 9.25,2.859 11.36,10.313 h 2.59 l -0.29,-13.016"
     id="path80" />
  <path
     class="StaffText"
     fill="#00aa00"
     d="m 787.221,120 -12.66,0.75 v 2.562 h 1.6 c 3.11,0 3.2,0.188 3.2,4.641 v 7.859 c -1.89,-2.296 -4.14,-3.359 -7.25,-3.359 -6.5,0 -11.45,5.656 -11.45,12.953 0,7.25 4.45,12.203 10.95,12.203 3.61,0 6.16,-1.343 8.2,-4.343 v 3.593 l 11.71,-0.547 v -2.703 h -1.35 c -2.56,0.094 -2.95,-0.25 -2.95,-2.843 V 120 m -12.86,15.859 c 3.11,0 5.11,3.547 5.11,9.157 0,5.437 -2.11,9.187 -5.2,9.187 -3.21,0 -4.96,-3.141 -4.96,-8.891 0,-6 1.85,-9.453 5.05,-9.453"
     id="path82" />
  <path
     class="StaffText"
     fill="#00aa00"
     d="m 1043.381,0.203 h -2.2 l -2.95,2.5 c -3.5,-2 -5.9,-2.703 -9.55,-2.703 -5.75,0 -10.66,2.062 -14.41,6.062 -3.34,3.594 -4.89,7.797 -4.89,13.297 0,10.844 7.1,18.25 17.45,18.25 5,0 8.46,-1.5 11.9,-4.953 l 2.45,4.906 h 2.65 v -10.25 c 0,-3.156 0,-3.359 0.35,-3.796 0.55,-0.563 1.3,-0.704 4.11,-0.75 v -2.704 h -17.77 v 2.704 h 0.56 c 4.46,0.046 4.5,0.093 4.55,3.796 v 0.75 c 0,4.641 -2.95,7.704 -7.4,7.704 -8,0 -8.85,-10 -8.85,-15.954 0,-6.5 1.45,-16.453 9.89,-16.453 5.91,0 10.27,4.344 11.91,11.953 h 2.65 l -0.45,-14.359"
     id="path84" />
  <path
     class="StaffText"
     fill="#00aa00"
     d="m 1034.431,85.453 v -0.797 c 0,-7.453 -4.6,-12.203 -11.95,-12.203 -4.05,0 -7.35,1.313 -9.85,3.859 -2.25,2.344 -3.61,5.641 -3.61,8.954 0,3.593 1.56,7.14 4.06,9.296 2.3,1.954 5.65,3.047 9.44,3.047 5.86,0 9.71,-2.593 11.91,-7.953 l -2.45,-1 c -2,3.906 -4.21,5.547 -7.5,5.547 -2.3,0 -4.3,-1.094 -5.55,-3 -0.85,-1.344 -1.2,-2.891 -1.25,-5.75 h 16.75 m -16.7,-2.75 c 0,-4.75 1.9,-7.641 4.9,-7.641 2.6,0 3.95,2.094 3.95,6.047 0,1.203 -0.35,1.594 -1.35,1.594 h -7.5"
     id="path86" />
  <path
     class="StaffText"
     fill="#00aa00"
     d="m 1041.331,120.203 h -2.15 l -2.7,2.453 c -3.3,-2 -5.55,-2.656 -9.15,-2.656 -11.2,0 -18.9,8.203 -18.9,19.266 0,5.187 1.5,9.296 4.75,12.843 3.45,3.797 7.65,5.5 13.55,5.5 8.85,0 13.9,-4.25 15.85,-13.25 l -3.1,-0.75 c -1.35,6.953 -5.35,10.907 -11.1,10.907 -6.8,0 -10,-5.157 -10,-16.157 0,-10.406 3.2,-15.75 9.35,-15.75 5.56,0 9.2,3.844 11.45,12.203 l 2.65,-0.296 -0.5,-14.313"
     id="path88" />
  <path
     class="StaffText"
     fill="#00aa00"
     d="m 1844.981,51.148 h -2.16 l -2.7,2.453 c -3.3,-2 -5.55,-2.657 -9.14,-2.657 -11.2,0 -18.91,8.204 -18.91,19.266 0,5.188 1.5,9.297 4.75,12.844 3.46,3.797 7.66,5.5 13.55,5.5 8.86,0 13.91,-4.25 15.86,-13.25 l -3.11,-0.75 c -1.34,6.953 -5.34,10.906 -11.09,10.906 -6.8,0 -10,-5.156 -10,-16.156 0,-10.406 3.2,-15.75 9.34,-15.75 5.56,0 9.2,3.844 11.45,12.203 l 2.66,-0.297 -0.5,-14.312 m 7.19,21.156 v 6.5 h 12.45 v -6.5 h -12.45 m 34.06,-1.406 7,11.453 c 0.39,0.703 0.59,1.156 0.59,1.609 0,0.75 -1.09,1.141 -3.4,1.141 h -0.64 v 2.703 h 18.2 v -2.703 c -2.75,-0.141 -2.95,-0.25 -5.25,-3.844 l -10.41,-16.609 4.16,-4.344 c 4.34,-4.25 6.84,-5.703 10.14,-5.906 v -2.704 h -16.84 v 2.704 h 1.2 c 2.45,0 3.75,0.609 3.75,1.75 0,0.546 -0.75,1.75 -1.66,2.75 l -11.04,11.703 V 58.898 c 0,-3.094 0,-3.25 0.34,-3.75 0.45,-0.547 1.45,-0.75 4.16,-0.75 h 0.75 v -2.704 h -19.46 v 2.704 h 0.75 c 2.66,0 3.66,0.203 4.1,0.75 0.36,0.5 0.36,0.656 0.36,3.75 v 21.703 c 0,3.109 0,3.25 -0.36,3.75 -0.44,0.547 -1.44,0.75 -4.1,0.75 h -0.75 v 2.703 h 19.46 v -2.703 h -0.75 c -2.71,0 -3.71,-0.203 -4.16,-0.75 -0.34,-0.5 -0.34,-0.641 -0.34,-3.75 v -5.297 l 4.2,-4.406 m 48.64,1 c 0,-3.25 -0.59,-4.797 -2.34,-6.25 -1.86,-1.438 -4.96,-2.25 -8.91,-2.25 -6.89,0 -11.39,2.562 -11.39,6.453 0,2.156 1.69,3.75 4.05,3.75 2.34,0 4.09,-1.391 4.09,-3.25 0,-0.594 -0.25,-1.297 -0.7,-1.891 -0.44,-0.609 -0.44,-0.609 -0.44,-0.859 0,-0.844 1.64,-1.594 3.64,-1.594 3.05,0 4.16,1.25 4.16,4.75 v 2.594 c -3.21,0.656 -6.46,1.359 -9.5,2.406 -4.66,1.547 -6.66,3.641 -6.66,6.953 0,3.688 2.8,5.844 7.7,5.844 4.3,0 6.91,-0.953 9.55,-3.547 0.86,2.25 2.75,3.547 5.3,3.547 2.86,0 5.51,-2 5.51,-4.156 0,-0.5 -0.25,-0.797 -0.75,-0.797 -0.31,0 -0.61,0.109 -1,0.359 -0.45,0.297 -0.61,0.344 -0.95,0.344 -1.11,0 -1.36,-0.656 -1.36,-3.594 v -8.812 m -7.84,4.156 v 2.797 c 0,3.859 -1.75,6.297 -4.61,6.297 -1.94,0 -3.19,-1.344 -3.19,-3.438 0,-2.703 1.55,-4.203 5.14,-5.062 l 2.66,-0.594 m 41.45,-25.11 -12.66,0.75 v 2.563 h 1.6 c 3.11,0 3.2,0.187 3.2,4.641 v 7.859 c -1.89,-2.297 -4.14,-3.359 -7.25,-3.359 -6.5,0 -11.45,5.656 -11.45,12.953 0,7.25 4.45,12.203 10.95,12.203 3.61,0 6.16,-1.344 8.2,-4.344 v 3.594 l 11.71,-0.547 v -2.703 h -1.35 c -2.56,0.094 -2.95,-0.25 -2.95,-2.844 V 50.944 m -12.86,15.86 c 3.11,0 5.11,3.547 5.11,9.156 0,5.438 -2.11,9.188 -5.2,9.188 -3.21,0 -4.96,-3.141 -4.96,-8.891 0,-6 1.85,-9.453 5.05,-9.453 m 44.45,9.594 v -0.797 c 0,-7.453 -4.59,-12.203 -11.95,-12.203 -4.05,0 -7.34,1.312 -9.84,3.859 -2.25,2.344 -3.61,5.641 -3.61,8.953 0,3.594 1.56,7.141 4.06,9.297 2.3,1.953 5.64,3.047 9.44,3.047 5.86,0 9.7,-2.594 11.9,-7.953 l -2.45,-1 c -2,3.906 -4.2,5.547 -7.5,5.547 -2.3,0 -4.3,-1.094 -5.55,-3 -0.84,-1.344 -1.2,-2.891 -1.25,-5.75 h 16.75 m -16.7,-2.75 c 0,-4.75 1.91,-7.641 4.91,-7.641 2.59,0 3.95,2.094 3.95,6.047 0,1.203 -0.36,1.594 -1.36,1.594 h -7.5 m 31.16,-9.5 -11.46,0.359 v 2.547 h 0.75 c 3.1,0.047 3.25,0.25 3.21,4.844 v 11.406 c -0.05,0.703 -0.11,1 -0.3,1.297 -0.36,0.453 -1.31,0.656 -3.45,0.656 h -0.21 v 2.547 h 15.25 v -2.547 c -2.84,0 -3.5,-0.406 -3.45,-2.156 v -7.344 c 0,-2.25 0.2,-3.547 0.8,-4.75 0.81,-1.797 2.56,-2.953 4.36,-2.953 2.34,0 3.64,1.703 3.64,4.906 v 10.344 c -0.05,0.703 -0.1,1 -0.3,1.297 -0.5,0.5 -1.45,0.703 -3.14,0.656 v 2.547 h 15.25 v -2.547 h -0.2 c -3.35,-0.047 -3.75,-0.297 -3.75,-2.156 V 72.257 c 0,-3.109 -0.55,-5 -1.91,-6.453 -1.34,-1.547 -3.55,-2.406 -6.2,-2.406 -3.94,0 -6.44,1.453 -8.89,5.156 v -4.406 m 46.29,0 h -21.59 l -0.61,9 h 2.55 c 1.65,-5.797 2.65,-6.594 7.7,-6.5 h 2.55 l -13.6,18.953 v 2.203 h 22.5 l 0.5,-9.5 h -2.45 c -0.64,2.25 -1.34,3.656 -2.45,5.094 -1.3,1.609 -2.19,1.906 -5.5,1.906 h -3.1 l 13.5,-18.75 v -2.406"
     id="path90" />
  <path
     class="StaffText"
     fill="#00aa00"
     d="m 234.384,25.453 v -0.797 c 0,-7.453 -4.593,-12.203 -11.953,-12.203 -4.047,0 -7.343,1.313 -9.843,3.859 -2.25,2.344 -3.61,5.641 -3.61,8.954 0,3.593 1.563,7.14 4.063,9.296 2.297,1.954 5.64,3.047 9.437,3.047 5.86,0 9.703,-2.593 11.906,-7.953 l -2.453,-1 c -2,3.906 -4.203,5.547 -7.5,5.547 -2.297,0 -4.297,-1.094 -5.547,-3 -0.843,-1.344 -1.203,-2.891 -1.25,-5.75 h 16.75 m -16.703,-2.75 c 0,-4.75 1.907,-7.641 4.907,-7.641 2.593,0 3.953,2.094 3.953,6.047 0,1.203 -0.36,1.594 -1.36,1.594 h -7.5"
     id="path92" />
  <path
     class="StaffText"
     fill="#00aa00"
     d="m 241.291,60.203 h -2.157 l -2.703,2.453 c -3.297,-2 -5.547,-2.656 -9.14,-2.656 -11.203,0 -18.907,8.203 -18.907,19.266 0,5.187 1.5,9.296 4.75,12.843 3.454,3.797 7.657,5.5 13.547,5.5 8.86,0 13.907,-4.25 15.86,-13.25 l -3.11,-0.75 c -1.343,6.953 -5.343,10.907 -11.093,10.907 -6.797,0 -10,-5.157 -10,-16.157 0,-10.406 3.203,-15.75 9.343,-15.75 5.563,0 9.203,3.844 11.453,12.203 l 2.657,-0.296 -0.5,-14.313"
     id="path94" />
  <path
     class="StaffText"
     fill="#00aa00"
     d="m 233.181,140.953 c 0,-3.25 -0.593,-4.797 -2.343,-6.25 -1.86,-1.437 -4.954,-2.25 -8.907,-2.25 -6.89,0 -11.39,2.563 -11.39,6.453 0,2.156 1.687,3.75 4.047,3.75 2.343,0 4.093,-1.39 4.093,-3.25 0,-0.594 -0.25,-1.297 -0.703,-1.89 -0.437,-0.61 -0.437,-0.61 -0.437,-0.86 0,-0.844 1.64,-1.594 3.64,-1.594 3.047,0 4.157,1.25 4.157,4.75 v 2.594 c -3.204,0.656 -6.454,1.36 -9.5,2.406 -4.657,1.547 -6.657,3.641 -6.657,6.954 0,3.687 2.797,5.843 7.703,5.843 4.297,0 6.907,-0.953 9.547,-3.547 0.86,2.25 2.75,3.547 5.297,3.547 2.86,0 5.516,-2 5.516,-4.156 0,-0.5 -0.25,-0.797 -0.75,-0.797 -0.313,0 -0.61,0.11 -1,0.36 -0.453,0.296 -0.61,0.343 -0.953,0.343 -1.11,0 -1.36,-0.656 -1.36,-3.593 v -8.813 m -7.843,4.156 v 2.797 c 0,3.86 -1.75,6.297 -4.61,6.297 -1.937,0 -3.187,-1.344 -3.187,-3.437 0,-2.704 1.547,-4.204 5.14,-5.063 l 2.657,-0.594"
     id="path96" />
  <path
     class="StaffText"
     fill="#00aa00"
     d="m 1604.511,14.234 -12.66,0.75 v 2.562 h 1.6 c 3.11,0 3.2,0.188 3.2,4.641 v 7.859 c -1.89,-2.297 -4.14,-3.359 -7.25,-3.359 -6.5,0 -11.45,5.656 -11.45,12.953 0,7.25 4.45,12.203 10.95,12.203 3.61,0 6.16,-1.344 8.2,-4.344 v 3.594 l 11.71,-0.547 v -2.703 h -1.35 c -2.56,0.094 -2.95,-0.25 -2.95,-2.844 V 14.234 m -12.86,15.859 c 3.11,0 5.11,3.547 5.11,9.156 0,5.438 -2.11,9.188 -5.2,9.188 -3.21,0 -4.96,-3.141 -4.96,-8.891 0,-6 1.85,-9.453 5.05,-9.453"
     id="path98" />
  <path
     class="StaffText"
     fill="#00aa00"
     d="m 1612.061,74.437 h -2.21 l -2.95,2.5 c -3.5,-2 -5.89,-2.703 -9.55,-2.703 -5.75,0 -10.65,2.062 -14.4,6.062 -3.35,3.594 -4.89,7.797 -4.89,13.297 0,10.844 7.09,18.25 17.45,18.25 5,0 8.45,-1.5 11.89,-4.953 l 2.45,4.906 h 2.66 v -10.25 c 0,-3.156 0,-3.359 0.34,-3.797 0.55,-0.562 1.3,-0.703 4.11,-0.75 v -2.703 h -17.76 v 2.703 h 0.56 c 4.45,0.047 4.5,0.094 4.55,3.797 v 0.75 c 0,4.641 -2.96,7.703 -7.41,7.703 -8,0 -8.84,-10 -8.84,-15.953 0,-6.5 1.45,-16.453 9.89,-16.453 5.9,0 10.26,4.344 11.9,11.953 h 2.66 l -0.45,-14.359"
     id="path100" />
  <path
     class="StaffText"
     fill="#00aa00"
     d="m 584.776,20.953 c 0,-3.25 -0.593,-4.797 -2.343,-6.25 -1.86,-1.437 -4.953,-2.25 -8.907,-2.25 -6.89,0 -11.39,2.563 -11.39,6.453 0,2.156 1.687,3.75 4.047,3.75 2.343,0 4.093,-1.39 4.093,-3.25 0,-0.594 -0.25,-1.297 -0.703,-1.89 -0.437,-0.61 -0.437,-0.61 -0.437,-0.86 0,-0.844 1.64,-1.594 3.64,-1.594 3.047,0 4.157,1.25 4.157,4.75 v 2.594 c -3.203,0.656 -6.453,1.36 -9.5,2.406 -4.657,1.547 -6.657,3.641 -6.657,6.954 0,3.687 2.797,5.843 7.704,5.843 4.296,0 6.906,-0.953 9.546,-3.547 0.86,2.25 2.75,3.547 5.297,3.547 2.86,0 5.516,-2 5.516,-4.156 0,-0.5 -0.25,-0.797 -0.75,-0.797 -0.313,0 -0.609,0.11 -1,0.36 -0.453,0.296 -0.609,0.343 -0.953,0.343 -1.11,0 -1.36,-0.656 -1.36,-3.593 v -8.813 m -7.843,4.156 v 2.797 c 0,3.86 -1.75,6.297 -4.61,6.297 -1.937,0 -3.187,-1.344 -3.187,-3.437 0,-2.704 1.547,-4.204 5.14,-5.063 l 2.657,-0.594"
     id="path102" />
  <path
     class="StaffText"
     fill="#00aa00"
     d="m 593.183,60.75 h -33.11 v 2.703 h 0.75 c 2.657,0 3.657,0.203 4.11,0.75 0.343,0.5 0.343,0.656 0.343,3.75 v 21.703 c 0,3.11 0,3.25 -0.343,3.75 -0.453,0.547 -1.453,0.75 -4.11,0.75 h -0.75 v 2.703 h 20 v -2.703 h -1.297 c -2.703,0 -3.703,-0.203 -4.14,-0.75 -0.36,-0.5 -0.36,-0.64 -0.36,-3.75 V 79.562 h 0.86 c 3.937,0.047 6.344,2.5 6.89,7.094 h 2.704 V 69.703 h -2.704 c -0.546,4.656 -2.953,7.109 -6.89,7.109 h -0.86 V 67.75 c -0.093,-3.5 0.61,-4.25 4.297,-4.297 h 0.953 c 6.25,0.109 9.25,2.859 11.36,10.313 h 2.594 L 593.183,60.75"
     id="path104" />
  <path
     class="StaffText"
     fill="#00aa00"
     d="m 587.386,120 -12.656,0.75 v 2.562 h 1.593 c 3.11,0 3.203,0.188 3.203,4.641 v 7.859 c -1.89,-2.296 -4.14,-3.359 -7.25,-3.359 -6.5,0 -11.453,5.656 -11.453,12.953 0,7.25 4.453,12.203 10.953,12.203 3.61,0 6.157,-1.343 8.204,-4.343 v 3.593 l 11.703,-0.547 v -2.703 h -1.344 c -2.563,0.094 -2.953,-0.25 -2.953,-2.843 V 120 m -12.86,15.859 c 3.11,0 5.11,3.547 5.11,9.157 0,5.437 -2.11,9.187 -5.203,9.187 -3.203,0 -4.953,-3.141 -4.953,-8.891 0,-6 1.843,-9.453 5.046,-9.453"
     id="path106" />
  <polyline
     class="LyricsLineSegment"
     fill="none"
     stroke="#000000"
     stroke-width="2.48"
     stroke-linejoin="bevel"
     points="705.611,384.238 725.451,384.238"
     id="polyline108"
     transform="translate(-336.599,-212.739)" />
  <polyline
     class="LyricsLineSegment"
     fill="none"
     stroke="#000000"
     stroke-width="2.48"
     stroke-linejoin="bevel"
     points="1063.47,384.238 1083.31,384.238"
     id="polyline110"
     transform="translate(-336.599,-212.739)" />
  <polyline
     class="LyricsLineSegment"
     fill="none"
     stroke="#000000"
     stroke-width="2.48"
     stroke-linejoin="bevel"
     points="1421.33,384.238 1441.17,384.238"
     id="polyline112"
     transform="translate(-336.599,-212.739)" />
  <polyline
     class="LyricsLineSegment"
     fill="none"
     stroke="#000000"
     stroke-width="2.48"
     stroke-linejoin="bevel"
     points="1779.19,384.238 1799.03,384.238"
     id="polyline114"
     transform="translate(-336.599,-212.739)" />
  <polyline
     class="LyricsLineSegment"
     fill="none"
     stroke="#000000"
     stroke-width="2.48"
     stroke-linejoin="bevel"
     points="2137.05,384.238 2156.89,384.238"
     id="polyline116"
     transform="translate(-336.599,-212.739)" />
  <polyline
     class="LyricsLineSegment"
     fill="none"
     stroke="#000000"
     stroke-width="2.48"
     stroke-linejoin="bevel"
     points="2494.9,384.238 2514.74,384.238"
     id="polyline118"
     transform="translate(-336.599,-212.739)" />
  <path
     class="NoteDot"
     d="m 1625.931,334.456 c 0,-2.77451 -2.1855,-4.96001 -4.96,-4.96001 -2.7745,0 -4.96,2.1855 -4.96,4.96001 0,2.77451 2.1855,4.96001 4.96,4.96001 2.7745,0 4.96,-2.1855 4.96,-4.96001"
     id="path120"
     style="stroke-width:0.992001" />
</svg>
