<?xml version="1.0" encoding="UTF-8" standalone="no"?>
<svg
   width="2552.0071"
   height="370.224"
   viewBox="0 0 2552.0071 370.22401"
   version="1.2"
   id="svg188"
   sodipodi:docname="Imitationen-1.svg"
   inkscape:version="1.2.1 (9c6d41e410, 2022-07-14)"
   xmlns:inkscape="http://www.inkscape.org/namespaces/inkscape"
   xmlns:sodipodi="http://sodipodi.sourceforge.net/DTD/sodipodi-0.dtd"
   xmlns="http://www.w3.org/2000/svg"
   xmlns:svg="http://www.w3.org/2000/svg">
  <defs
     id="defs192" />
  <sodipodi:namedview
     id="namedview190"
     pagecolor="#505050"
     bordercolor="#eeeeee"
     borderopacity="1"
     inkscape:showpageshadow="0"
     inkscape:pageopacity="0"
     inkscape:pagecheckerboard="0"
     inkscape:deskcolor="#505050"
     showgrid="false"
     inkscape:zoom="0.25021386"
     inkscape:cx="855.26836"
     inkscape:cy="1838.4273"
     inkscape:current-layer="svg188" />
  <title
     id="title2">Imitationen</title>
  <desc
     id="desc4">Generated by MuseScore 4.0.0</desc>
  <polyline
     class="StaffLines"
     fill="none"
     stroke="#000000"
     stroke-width="3.22"
     stroke-linejoin="bevel"
     points="212.598,386.198 2764.6,386.198"
     id="polyline8"
     transform="translate(-212.598,-266.462)" />
  <polyline
     class="StaffLines"
     fill="none"
     stroke="#000000"
     stroke-width="3.22"
     stroke-linejoin="bevel"
     points="212.598,410.998 2764.6,410.998"
     id="polyline10"
     transform="translate(-212.598,-266.462)" />
  <polyline
     class="StaffLines"
     fill="none"
     stroke="#000000"
     stroke-width="3.22"
     stroke-linejoin="bevel"
     points="212.598,435.798 2764.6,435.798"
     id="polyline12"
     transform="translate(-212.598,-266.462)" />
  <polyline
     class="StaffLines"
     fill="none"
     stroke="#000000"
     stroke-width="3.22"
     stroke-linejoin="bevel"
     points="212.598,460.598 2764.6,460.598"
     id="polyline14"
     transform="translate(-212.598,-266.462)" />
  <polyline
     class="StaffLines"
     fill="none"
     stroke="#000000"
     stroke-width="3.22"
     stroke-linejoin="bevel"
     points="212.598,485.398 2764.6,485.398"
     id="polyline16"
     transform="translate(-212.598,-266.462)" />
  <path
     class="TieSegment"
     stroke="#000000"
     stroke-width="2.48"
     stroke-linecap="round"
     stroke-linejoin="round"
     fill-rule="evenodd"
     d="m 2215.072,126.288 c 25.52,-22.367 102.06,-22.367 127.58,0 -25.52,-16.415 -102.06,-16.415 -127.58,0"
     id="path18" />
  <path
     class="TieSegment"
     stroke="#000000"
     stroke-width="2.48"
     stroke-linecap="round"
     stroke-linejoin="round"
     fill-rule="evenodd"
     d="m 931.512,262.212 c 25.73,16.577 102.91,16.577 128.64,0 -25.73,22.529 -102.91,22.529 -128.64,0"
     id="path20" />
  <polyline
     class="BarLine"
     stroke="#000000"
     stroke-width="3.97"
     stroke-linejoin="bevel"
     points="2507.8,384.586 2507.8,487.01"
     id="polyline22"
     transform="translate(-212.598,-266.462)" />
  <polyline
     class="BarLine"
     stroke="#000000"
     stroke-width="3.97"
     stroke-linejoin="bevel"
     points="2003.67,384.586 2003.67,487.01"
     id="polyline24"
     transform="translate(-212.598,-266.462)" />
  <polyline
     class="BarLine"
     stroke="#000000"
     stroke-width="3.97"
     stroke-linejoin="bevel"
     points="1244.72,384.586 1244.72,487.01"
     id="polyline26"
     transform="translate(-212.598,-266.462)" />
  <polyline
     class="BarLine"
     stroke="#000000"
     stroke-width="3.97"
     stroke-linejoin="bevel"
     points="1485.65,384.586 1485.65,487.01"
     id="polyline28"
     transform="translate(-212.598,-266.462)" />
  <polyline
     class="BarLine"
     stroke="#000000"
     stroke-width="3.97"
     stroke-linejoin="bevel"
     points="1499.54,384.586 1499.54,487.01"
     id="polyline30"
     transform="translate(-212.598,-266.462)" />
  <polyline
     class="BarLine"
     stroke="#000000"
     stroke-width="3.97"
     stroke-linejoin="bevel"
     points="740.588,384.586 740.588,487.01"
     id="polyline32"
     transform="translate(-212.598,-266.462)" />
  <polyline
     class="BarLine"
     stroke="#000000"
     stroke-width="3.97"
     stroke-linejoin="bevel"
     points="2748.73,384.586 2748.73,487.01"
     id="polyline34"
     transform="translate(-212.598,-266.462)" />
  <polyline
     class="BarLine"
     stroke="#000000"
     stroke-width="3.97"
     stroke-linejoin="bevel"
     points="2762.62,384.586 2762.62,487.01"
     id="polyline36"
     transform="translate(-212.598,-266.462)" />
  <polyline
     class="LedgerLine"
     stroke="#000000"
     stroke-width="3.97"
     stroke-linejoin="bevel"
     points="1115.84,510.198 1168.31,510.198"
     id="polyline38"
     transform="translate(-212.598,-266.462)" />
  <polyline
     class="LedgerLine"
     stroke="#000000"
     stroke-width="3.97"
     stroke-linejoin="bevel"
     points="1269.03,510.198 1321.5,510.198"
     id="polyline40"
     transform="translate(-212.598,-266.462)" />
  <polyline
     class="Stem"
     stroke="#000000"
     stroke-width="2.98"
     stroke-linejoin="bevel"
     points="1798.87,394.432 1798.87,336.598"
     id="polyline42"
     transform="translate(-212.598,-266.462)" />
  <polyline
     class="Stem"
     stroke="#000000"
     stroke-width="2.98"
     stroke-linejoin="bevel"
     points="2419.99,419.232 2419.99,355.198"
     id="polyline44"
     transform="translate(-212.598,-266.462)" />
  <polyline
     class="Stem"
     stroke="#000000"
     stroke-width="2.98"
     stroke-linejoin="bevel"
     points="2303,406.832 2303,348.998"
     id="polyline46"
     transform="translate(-212.598,-266.462)" />
  <polyline
     class="Stem"
     stroke="#000000"
     stroke-width="2.98"
     stroke-linejoin="bevel"
     points="1681.89,394.432 1681.89,336.598"
     id="polyline48"
     transform="translate(-212.598,-266.462)" />
  <polyline
     class="Stem"
     stroke="#000000"
     stroke-width="2.98"
     stroke-linejoin="bevel"
     points="418.807,419.232 418.807,355.198"
     id="polyline50"
     transform="translate(-212.598,-266.462)" />
  <polyline
     class="Stem"
     stroke="#000000"
     stroke-width="2.98"
     stroke-linejoin="bevel"
     points="2186.02,406.832 2186.02,348.998"
     id="polyline52"
     transform="translate(-212.598,-266.462)" />
  <polyline
     class="Stem"
     stroke="#000000"
     stroke-width="2.98"
     stroke-linejoin="bevel"
     points="2069.04,394.432 2069.04,336.598"
     id="polyline54"
     transform="translate(-212.598,-266.462)" />
  <polyline
     class="Stem"
     stroke="#000000"
     stroke-width="2.98"
     stroke-linejoin="bevel"
     points="535.788,419.232 535.788,355.198"
     id="polyline56"
     transform="translate(-212.598,-266.462)" />
  <polyline
     class="Stem"
     stroke="#000000"
     stroke-width="2.98"
     stroke-linejoin="bevel"
     points="652.77,419.232 652.77,355.198"
     id="polyline58"
     transform="translate(-212.598,-266.462)" />
  <polyline
     class="Stem"
     stroke="#000000"
     stroke-width="2.98"
     stroke-linejoin="bevel"
     points="1915.85,394.432 1915.85,336.598"
     id="polyline60"
     transform="translate(-212.598,-266.462)" />
  <polyline
     class="Stem"
     stroke="#000000"
     stroke-width="2.98"
     stroke-linejoin="bevel"
     points="805.959,431.632 805.959,361.398"
     id="polyline62"
     transform="translate(-212.598,-266.462)" />
  <polyline
     class="Stem"
     stroke="#000000"
     stroke-width="2.98"
     stroke-linejoin="bevel"
     points="2573.18,419.232 2573.18,355.198"
     id="polyline64"
     transform="translate(-212.598,-266.462)" />
  <polyline
     class="Stem"
     stroke="#000000"
     stroke-width="2.98"
     stroke-linejoin="bevel"
     points="922.941,431.632 922.941,361.398"
     id="polyline66"
     transform="translate(-212.598,-266.462)" />
  <polyline
     class="Stem"
     stroke="#000000"
     stroke-width="2.98"
     stroke-linejoin="bevel"
     points="623.111,489.565 623.111,547.398"
     id="polyline68"
     transform="translate(-212.598,-266.462)" />
  <polyline
     class="Stem"
     stroke="#000000"
     stroke-width="2.98"
     stroke-linejoin="bevel"
     points="2156.36,464.765 2156.36,522.598"
     id="polyline70"
     transform="translate(-212.598,-266.462)" />
  <polyline
     class="Stem"
     stroke="#000000"
     stroke-width="2.98"
     stroke-linejoin="bevel"
     points="776.3,489.565 776.3,547.398"
     id="polyline72"
     transform="translate(-212.598,-266.462)" />
  <polyline
     class="Stem"
     stroke="#000000"
     stroke-width="2.98"
     stroke-linejoin="bevel"
     points="893.282,501.965 893.282,559.798"
     id="polyline74"
     transform="translate(-212.598,-266.462)" />
  <polyline
     class="Stem"
     stroke="#000000"
     stroke-width="2.98"
     stroke-linejoin="bevel"
     points="1010.26,501.965 1010.26,559.798"
     id="polyline76"
     transform="translate(-212.598,-266.462)" />
  <polyline
     class="Stem"
     stroke="#000000"
     stroke-width="2.98"
     stroke-linejoin="bevel"
     points="1280.43,514.365 1280.43,572.198"
     id="polyline78"
     transform="translate(-212.598,-266.462)" />
  <polyline
     class="Stem"
     stroke="#000000"
     stroke-width="2.98"
     stroke-linejoin="bevel"
     points="1127.24,514.365 1127.24,572.198"
     id="polyline80"
     transform="translate(-212.598,-266.462)" />
  <polyline
     class="Stem"
     stroke="#000000"
     stroke-width="2.98"
     stroke-linejoin="bevel"
     points="1535.25,452.365 1535.25,516.398"
     id="polyline82"
     transform="translate(-212.598,-266.462)" />
  <polyline
     class="Stem"
     stroke="#000000"
     stroke-width="2.98"
     stroke-linejoin="bevel"
     points="1652.23,452.365 1652.23,516.398"
     id="polyline84"
     transform="translate(-212.598,-266.462)" />
  <polyline
     class="Stem"
     stroke="#000000"
     stroke-width="2.98"
     stroke-linejoin="bevel"
     points="506.129,489.565 506.129,547.398"
     id="polyline86"
     transform="translate(-212.598,-266.462)" />
  <polyline
     class="Stem"
     stroke="#000000"
     stroke-width="2.98"
     stroke-linejoin="bevel"
     points="1769.21,452.365 1769.21,516.398"
     id="polyline88"
     transform="translate(-212.598,-266.462)" />
  <polyline
     class="Stem"
     stroke="#000000"
     stroke-width="2.98"
     stroke-linejoin="bevel"
     points="1886.19,452.365 1886.19,516.398"
     id="polyline90"
     transform="translate(-212.598,-266.462)" />
  <polyline
     class="Stem"
     stroke="#000000"
     stroke-width="2.98"
     stroke-linejoin="bevel"
     points="2039.38,464.765 2039.38,522.598"
     id="polyline92"
     transform="translate(-212.598,-266.462)" />
  <path
     class="Note"
     d="m 2340.1425,170.824 c 18.259,0 21.9325,-14.88 21.9325,-18.445 0,-5.65752 -4.464,-9.331 -10.912,-9.331 -16.5695,0 -21.731,12.803 -21.731,18.5535 0,5.84355 4.6655,9.2225 10.7105,9.2225 m 8.432,-8.835 c -4.96,3.379 -8.432,4.5725 -10.8035,4.5725 -2.294,0 -3.6735,-1.1935 -4.371,-2.5885 -0.403,-0.589 -0.6975,-1.3795 -0.6975,-2.17 0,-5.363 15.9805,-14.198 21.235,-14.198 2.077,0 3.2705,0.992 4.061,2.387 0.31,0.589 0.6045,1.2865 0.6045,2.077 0,2.1855 -2.2785,4.867 -10.0285,9.92"
     id="path94"
     style="stroke-width:0.992" />
  <path
     class="Note"
     d="m 689.90652,183.224 c 18.25896,0 21.93253,-14.88 21.93253,-18.445 0,-5.65752 -4.464,-9.331 -10.912,-9.331 -16.56955,0 -21.73105,12.803 -21.73105,18.5535 0,5.84355 4.6655,9.2225 10.71052,9.2225 m 8.432,-8.835 c -4.96,3.379 -8.432,4.5725 -10.80352,4.5725 -2.294,0 -3.6735,-1.1935 -4.371,-2.5885 -0.403,-0.589 -0.6975,-1.3795 -0.6975,-2.17 0,-5.363 15.98055,-14.198 21.23498,-14.198 2.07704,0 3.27052,0.992 4.06104,2.387 0.31,0.589 0.60453,1.2865 0.60453,2.077 0,2.1855 -2.27853,4.867 -10.02853,9.92"
     id="path96"
     style="stroke-width:0.992" />
  <path
     class="Note"
     d="m 185.77252,170.824 c 18.25896,0 21.93253,-14.88 21.93253,-18.445 0,-5.65752 -4.464,-9.331 -10.912,-9.331 -16.56955,0 -21.73105,12.803 -21.73105,18.5535 0,5.84355 4.6655,9.2225 10.71052,9.2225 m 8.432,-8.835 c -4.96,3.379 -8.432,4.5725 -10.80352,4.5725 -2.294,0 -3.6735,-1.1935 -4.371,-2.5885 -0.403,-0.589 -0.6975,-1.3795 -0.6975,-2.17 0,-5.363 15.98055,-14.198 21.23498,-14.198 2.07704,0 3.27052,0.992 4.06104,2.387 0.31,0.589 0.60453,1.2865 0.60453,2.077 0,2.1855 -2.27853,4.867 -10.02853,9.92"
     id="path98"
     style="stroke-width:0.992" />
  <path
     class="Note"
     d="m 2186.9525,170.824 c 18.259,0 21.9325,-14.88 21.9325,-18.445 0,-5.65752 -4.464,-9.331 -10.912,-9.331 -16.5695,0 -21.731,12.803 -21.731,18.5535 0,5.84355 4.6655,9.2225 10.7105,9.2225 m 8.432,-8.835 c -4.96,3.379 -8.432,4.5725 -10.8035,4.5725 -2.294,0 -3.6735,-1.1935 -4.371,-2.5885 -0.403,-0.589 -0.6975,-1.3795 -0.6975,-2.17 0,-5.363 15.9805,-14.198 21.235,-14.198 2.077,0 3.2705,0.992 4.061,2.387 0.31,0.589 0.6045,1.2865 0.6045,2.077 0,2.1855 -2.2785,4.867 -10.0285,9.92"
     id="path100"
     style="stroke-width:0.992" />
  <path
     class="Note"
     d="m 302.75352,170.824 c 18.25896,0 21.93253,-14.88 21.93253,-18.445 0,-5.65752 -4.464,-9.331 -10.912,-9.331 -16.56955,0 -21.73105,12.803 -21.73105,18.5535 0,5.84355 4.6655,9.2225 10.71052,9.2225 m 8.432,-8.835 c -4.96,3.379 -8.432,4.5725 -10.80352,4.5725 -2.294,0 -3.6735,-1.1935 -4.371,-2.5885 -0.403,-0.589 -0.6975,-1.3795 -0.6975,-2.17 0,-5.363 15.98055,-14.198 21.23498,-14.198 2.07704,0 3.27052,0.992 4.06104,2.387 0.31,0.589 0.60453,1.2865 0.60453,2.077 0,2.1855 -2.27853,4.867 -10.02853,9.92"
     id="path102"
     style="stroke-width:0.992" />
  <path
     class="Note"
     d="m 419.73552,170.824 c 18.25896,0 21.93253,-14.88 21.93253,-18.445 0,-5.65752 -4.464,-9.331 -10.912,-9.331 -16.56955,0 -21.73105,12.803 -21.73105,18.5535 0,5.84355 4.6655,9.2225 10.71052,9.2225 m 8.432,-8.835 c -4.96,3.379 -8.432,4.5725 -10.80352,4.5725 -2.294,0 -3.6735,-1.1935 -4.371,-2.5885 -0.403,-0.589 -0.6975,-1.3795 -0.6975,-2.17 0,-5.363 15.98055,-14.198 21.23498,-14.198 2.07704,0 3.27052,0.992 4.06104,2.387 0.31,0.589 0.60453,1.2865 0.60453,2.077 0,2.1855 -2.27853,4.867 -10.02853,9.92"
     id="path104"
     style="stroke-width:0.992" />
  <path
     class="Note"
     d="m 2069.9725,158.424 c 18.259,0 21.9325,-14.88 21.9325,-18.445 0,-5.65752 -4.464,-9.331 -10.912,-9.331 -16.5695,0 -21.731,12.803 -21.731,18.5535 0,5.84355 4.6655,9.2225 10.7105,9.2225 m 8.432,-8.835 c -4.96,3.379 -8.432,4.5725 -10.8035,4.5725 -2.294,0 -3.6735,-1.1935 -4.371,-2.5885 -0.403,-0.589 -0.6975,-1.3795 -0.6975,-2.17 0,-5.363 15.9805,-14.198 21.235,-14.198 2.077,0 3.2705,0.992 4.061,2.387 0.31,0.589 0.6045,1.2865 0.6045,2.077 0,2.1855 -2.2785,4.867 -10.0285,9.92"
     id="path106"
     style="stroke-width:0.992" />
  <path
     class="Note"
     d="m 813.044,168.14252 c -14.384,0 -23.312,6.06048 -23.312,13.39198 0,7.2385 6.1535,13.68655 22.22705,13.68655 17.65443,0 23.312,-6.13805 23.312,-13.68655 0,-7.6415 -12.19853,-13.39198 -22.22705,-13.39198 m -2.77452,2.48 c 7.34704,0 13.29904,7.93598 13.29904,14.49248 0,5.456 -3.37904,7.62605 -8.246,7.62605 -7.14547,0 -13.98104,-8.23055 -13.98104,-15.17455 0,-5.549 3.85957,-6.94398 8.928,-6.94398"
     id="path108"
     style="stroke-width:0.992" />
  <path
     class="Note"
     d="m 1565.8325,146.024 c 18.259,0 21.9325,-14.88 21.9325,-18.445 0,-5.65752 -4.464,-9.331 -10.912,-9.331 -16.5695,0 -21.731,12.803 -21.731,18.5535 0,5.84355 4.6655,9.2225 10.7105,9.2225 m 8.432,-8.835 c -4.96,3.379 -8.432,4.5725 -10.8035,4.5725 -2.294,0 -3.6735,-1.1935 -4.371,-2.5885 -0.403,-0.589 -0.6975,-1.3795 -0.6975,-2.17 0,-5.363 15.9805,-14.198 21.235,-14.198 2.077,0 3.2705,0.992 4.061,2.387 0.31,0.589 0.6045,1.2865 0.6045,2.077 0,2.1855 -2.2785,4.867 -10.0285,9.92"
     id="path110"
     style="stroke-width:0.992" />
  <path
     class="Note"
     d="m 1448.8525,146.024 c 18.259,0 21.9325,-14.88 21.9325,-18.445 0,-5.65752 -4.464,-9.331 -10.912,-9.331 -16.5695,0 -21.731,12.803 -21.731,18.5535 0,5.84355 4.6655,9.2225 10.7105,9.2225 m 8.432,-8.835 c -4.96,3.379 -8.432,4.5725 -10.8035,4.5725 -2.294,0 -3.6735,-1.1935 -4.371,-2.5885 -0.403,-0.589 -0.6975,-1.3795 -0.6975,-2.17 0,-5.363 15.9805,-14.198 21.235,-14.198 2.077,0 3.2705,0.992 4.061,2.387 0.31,0.589 0.6045,1.2865 0.6045,2.077 0,2.1855 -2.2785,4.867 -10.0285,9.92"
     id="path112"
     style="stroke-width:0.992" />
  <path
     class="Note"
     d="m 1682.8125,146.024 c 18.259,0 21.9325,-14.88 21.9325,-18.445 0,-5.65752 -4.464,-9.331 -10.912,-9.331 -16.5695,0 -21.731,12.803 -21.731,18.5535 0,5.84355 4.6655,9.2225 10.7105,9.2225 m 8.432,-8.835 c -4.96,3.379 -8.432,4.5725 -10.8035,4.5725 -2.294,0 -3.6735,-1.1935 -4.371,-2.5885 -0.403,-0.589 -0.6975,-1.3795 -0.6975,-2.17 0,-5.363 15.9805,-14.198 21.235,-14.198 2.077,0 3.2705,0.992 4.061,2.387 0.31,0.589 0.6045,1.2865 0.6045,2.077 0,2.1855 -2.2785,4.867 -10.0285,9.92"
     id="path114"
     style="stroke-width:0.992" />
  <path
     class="Note"
     d="m 1952.9925,158.424 c 18.259,0 21.9325,-14.88 21.9325,-18.445 0,-5.65752 -4.464,-9.331 -10.912,-9.331 -16.5695,0 -21.731,12.803 -21.731,18.5535 0,5.84355 4.6655,9.2225 10.7105,9.2225 m 8.432,-8.835 c -4.96,3.379 -8.432,4.5725 -10.8035,4.5725 -2.294,0 -3.6735,-1.1935 -4.371,-2.5885 -0.403,-0.589 -0.6975,-1.3795 -0.6975,-2.17 0,-5.363 15.9805,-14.198 21.235,-14.198 2.077,0 3.2705,0.992 4.061,2.387 0.31,0.589 0.6045,1.2865 0.6045,2.077 0,2.1855 -2.2785,4.867 -10.0285,9.92"
     id="path116"
     style="stroke-width:0.992" />
  <path
     class="Note"
     d="m 1836.0025,146.024 c 18.259,0 21.9325,-14.88 21.9325,-18.445 0,-5.65752 -4.464,-9.331 -10.912,-9.331 -16.5695,0 -21.731,12.803 -21.731,18.5535 0,5.84355 4.6655,9.2225 10.7105,9.2225 m 8.432,-8.835 c -4.96,3.379 -8.432,4.5725 -10.8035,4.5725 -2.294,0 -3.6735,-1.1935 -4.371,-2.5885 -0.403,-0.589 -0.6975,-1.3795 -0.6975,-2.17 0,-5.363 15.9805,-14.198 21.235,-14.198 2.077,0 3.2705,0.992 4.061,2.387 0.31,0.589 0.6045,1.2865 0.6045,2.077 0,2.1855 -2.2785,4.867 -10.0285,9.92"
     id="path118"
     style="stroke-width:0.992" />
  <path
     class="Note"
     d="m 572.92452,183.224 c 18.25896,0 21.93253,-14.88 21.93253,-18.445 0,-5.65752 -4.464,-9.331 -10.912,-9.331 -16.56955,0 -21.73105,12.803 -21.73105,18.5535 0,5.84355 4.6655,9.2225 10.71052,9.2225 m 8.432,-8.835 c -4.96,3.379 -8.432,4.5725 -10.80352,4.5725 -2.294,0 -3.6735,-1.1935 -4.371,-2.5885 -0.403,-0.589 -0.6975,-1.3795 -0.6975,-2.17 0,-5.363 15.98055,-14.198 21.23498,-14.198 2.07704,0 3.27052,0.992 4.06104,2.387 0.31,0.589 0.60453,1.2865 0.60453,2.077 0,2.1855 -2.27853,4.867 -10.02853,9.92"
     id="path120"
     style="stroke-width:0.992" />
  <path
     class="Note"
     d="m 419.73552,232.824 c 18.25896,0 21.93253,-14.88 21.93253,-18.445 0,-5.65752 -4.464,-9.331 -10.912,-9.331 -16.56955,0 -21.73105,12.803 -21.73105,18.5535 0,5.84355 4.6655,9.2225 10.71052,9.2225 m 8.432,-8.835 c -4.96,3.379 -8.432,4.5725 -10.80352,4.5725 -2.294,0 -3.6735,-1.1935 -4.371,-2.5885 -0.403,-0.589 -0.6975,-1.3795 -0.6975,-2.17 0,-5.363 15.98055,-14.198 21.23498,-14.198 2.07704,0 3.27052,0.992 4.06104,2.387 0.31,0.589 0.60453,1.2865 0.60453,2.077 0,2.1855 -2.27853,4.867 -10.02853,9.92"
     id="path122"
     style="stroke-width:0.992" />
  <path
     class="Note"
     d="m 572.92452,232.824 c 18.25896,0 21.93253,-14.88 21.93253,-18.445 0,-5.65752 -4.464,-9.331 -10.912,-9.331 -16.56955,0 -21.73105,12.803 -21.73105,18.5535 0,5.84355 4.6655,9.2225 10.71052,9.2225 m 8.432,-8.835 c -4.96,3.379 -8.432,4.5725 -10.80352,4.5725 -2.294,0 -3.6735,-1.1935 -4.371,-2.5885 -0.403,-0.589 -0.6975,-1.3795 -0.6975,-2.17 0,-5.363 15.98055,-14.198 21.23498,-14.198 2.07704,0 3.27052,0.992 4.06104,2.387 0.31,0.589 0.60453,1.2865 0.60453,2.077 0,2.1855 -2.27853,4.867 -10.02853,9.92"
     id="path124"
     style="stroke-width:0.992" />
  <path
     class="Note"
     d="m 689.90652,245.224 c 18.25896,0 21.93253,-14.88 21.93253,-18.445 0,-5.65752 -4.464,-9.331 -10.912,-9.331 -16.56955,0 -21.73105,12.803 -21.73105,18.5535 0,5.84355 4.6655,9.2225 10.71052,9.2225 m 8.432,-8.835 c -4.96,3.379 -8.432,4.5725 -10.80352,4.5725 -2.294,0 -3.6735,-1.1935 -4.371,-2.5885 -0.403,-0.589 -0.6975,-1.3795 -0.6975,-2.17 0,-5.363 15.98055,-14.198 21.23498,-14.198 2.07704,0 3.27052,0.992 4.06104,2.387 0.31,0.589 0.60453,1.2865 0.60453,2.077 0,2.1855 -2.27853,4.867 -10.02853,9.92"
     id="path126"
     style="stroke-width:0.992" />
  <path
     class="Note"
     d="m 806.89252,245.224 c 18.25896,0 21.93253,-14.88 21.93253,-18.445 0,-5.65752 -4.464,-9.331 -10.912,-9.331 -16.56955,0 -21.73105,12.803 -21.73105,18.5535 0,5.84355 4.6655,9.2225 10.71052,9.2225 m 8.432,-8.835 c -4.96,3.379 -8.432,4.5725 -10.80352,4.5725 -2.294,0 -3.6735,-1.1935 -4.371,-2.5885 -0.403,-0.589 -0.6975,-1.3795 -0.6975,-2.17 0,-5.363 15.98055,-14.198 21.23498,-14.198 2.07704,0 3.27052,0.992 4.06104,2.387 0.31,0.589 0.60453,1.2865 0.60453,2.077 0,2.1855 -2.27853,4.867 -10.02853,9.92"
     id="path128"
     style="stroke-width:0.992" />
  <path
     class="Note"
     d="m 302.75352,232.824 c 18.25896,0 21.93253,-14.88 21.93253,-18.445 0,-5.65752 -4.464,-9.331 -10.912,-9.331 -16.56955,0 -21.73105,12.803 -21.73105,18.5535 0,5.84355 4.6655,9.2225 10.71052,9.2225 m 8.432,-8.835 c -4.96,3.379 -8.432,4.5725 -10.80352,4.5725 -2.294,0 -3.6735,-1.1935 -4.371,-2.5885 -0.403,-0.589 -0.6975,-1.3795 -0.6975,-2.17 0,-5.363 15.98055,-14.198 21.23498,-14.198 2.07704,0 3.27052,0.992 4.06104,2.387 0.31,0.589 0.60453,1.2865 0.60453,2.077 0,2.1855 -2.27853,4.867 -10.02853,9.92"
     id="path130"
     style="stroke-width:0.992" />
  <path
     class="Note"
     d="m 2076.124,192.94252 c -14.384,0 -23.312,6.06048 -23.312,13.39198 0,7.2385 6.1535,13.68655 22.227,13.68655 17.6545,0 23.312,-6.13805 23.312,-13.68655 0,-7.6415 -12.1985,-13.39198 -22.227,-13.39198 m -2.7745,2.48 c 7.347,0 13.299,7.93598 13.299,14.49248 0,5.456 -3.379,7.62605 -8.246,7.62605 -7.1455,0 -13.981,-8.23055 -13.981,-15.17455 0,-5.549 3.8595,-6.94398 8.928,-6.94398"
     id="path132"
     style="stroke-width:0.992" />
  <path
     class="Note"
     d="m 1448.8525,195.624 c 18.259,0 21.9325,-14.88 21.9325,-18.445 0,-5.65752 -4.464,-9.331 -10.912,-9.331 -16.5695,0 -21.731,12.803 -21.731,18.5535 0,5.84355 4.6655,9.2225 10.7105,9.2225 m 8.432,-8.835 c -4.96,3.379 -8.432,4.5725 -10.8035,4.5725 -2.294,0 -3.6735,-1.1935 -4.371,-2.5885 -0.403,-0.589 -0.6975,-1.3795 -0.6975,-2.17 0,-5.363 15.9805,-14.198 21.235,-14.198 2.077,0 3.2705,0.992 4.061,2.387 0.31,0.589 0.6045,1.2865 0.6045,2.077 0,2.1855 -2.2785,4.867 -10.0285,9.92"
     id="path134"
     style="stroke-width:0.992" />
  <path
     class="Note"
     d="m 1952.9925,208.024 c 18.259,0 21.9325,-14.88 21.9325,-18.445 0,-5.65752 -4.464,-9.331 -10.912,-9.331 -16.5695,0 -21.731,12.803 -21.731,18.5535 0,5.84355 4.6655,9.2225 10.7105,9.2225 m 8.432,-8.835 c -4.96,3.379 -8.432,4.5725 -10.8035,4.5725 -2.294,0 -3.6735,-1.1935 -4.371,-2.5885 -0.403,-0.589 -0.6975,-1.3795 -0.6975,-2.17 0,-5.363 15.9805,-14.198 21.235,-14.198 2.077,0 3.2705,0.992 4.061,2.387 0.31,0.589 0.6045,1.2865 0.6045,2.077 0,2.1855 -2.2785,4.867 -10.0285,9.92"
     id="path136"
     style="stroke-width:0.992" />
  <path
     class="Note"
     d="m 1077.0625,257.624 c 18.259,0 21.9325,-14.88 21.9325,-18.445 0,-5.65752 -4.464,-9.331 -10.912,-9.331 -16.5695,0 -21.731,12.803 -21.731,18.5535 0,5.84355 4.6655,9.2225 10.7105,9.2225 m 8.432,-8.835 c -4.96,3.379 -8.432,4.5725 -10.8035,4.5725 -2.294,0 -3.6735,-1.1935 -4.371,-2.5885 -0.403,-0.589 -0.6975,-1.3795 -0.6975,-2.17 0,-5.363 15.9805,-14.198 21.235,-14.198 2.077,0 3.2705,0.992 4.061,2.387 0.31,0.589 0.6045,1.2865 0.6045,2.077 0,2.1855 -2.2785,4.867 -10.0285,9.92"
     id="path138"
     style="stroke-width:0.992" />
  <path
     class="Note"
     d="m 1331.8725,195.624 c 18.259,0 21.9325,-14.88 21.9325,-18.445 0,-5.65752 -4.464,-9.331 -10.912,-9.331 -16.5695,0 -21.731,12.803 -21.731,18.5535 0,5.84355 4.6655,9.2225 10.7105,9.2225 m 8.432,-8.835 c -4.96,3.379 -8.432,4.5725 -10.8035,4.5725 -2.294,0 -3.6735,-1.1935 -4.371,-2.5885 -0.403,-0.589 -0.6975,-1.3795 -0.6975,-2.17 0,-5.363 15.9805,-14.198 21.235,-14.198 2.077,0 3.2705,0.992 4.061,2.387 0.31,0.589 0.6045,1.2865 0.6045,2.077 0,2.1855 -2.2785,4.867 -10.0285,9.92"
     id="path140"
     style="stroke-width:0.992" />
  <path
     class="Note"
     d="m 1565.8325,195.624 c 18.259,0 21.9325,-14.88 21.9325,-18.445 0,-5.65752 -4.464,-9.331 -10.912,-9.331 -16.5695,0 -21.731,12.803 -21.731,18.5535 0,5.84355 4.6655,9.2225 10.7105,9.2225 m 8.432,-8.835 c -4.96,3.379 -8.432,4.5725 -10.8035,4.5725 -2.294,0 -3.6735,-1.1935 -4.371,-2.5885 -0.403,-0.589 -0.6975,-1.3795 -0.6975,-2.17 0,-5.363 15.9805,-14.198 21.235,-14.198 2.077,0 3.2705,0.992 4.061,2.387 0.31,0.589 0.6045,1.2865 0.6045,2.077 0,2.1855 -2.2785,4.867 -10.0285,9.92"
     id="path142"
     style="stroke-width:0.992" />
  <path
     class="Note"
     d="m 923.87252,257.624 c 18.25896,0 21.93253,-14.88 21.93253,-18.445 0,-5.65752 -4.464,-9.331 -10.912,-9.331 -16.56955,0 -21.73105,12.803 -21.73105,18.5535 0,5.84355 4.6655,9.2225 10.71052,9.2225 m 8.432,-8.835 c -4.96,3.379 -8.432,4.5725 -10.80352,4.5725 -2.294,0 -3.6735,-1.1935 -4.371,-2.5885 -0.403,-0.589 -0.6975,-1.3795 -0.6975,-2.17 0,-5.363 15.98055,-14.198 21.23498,-14.198 2.07704,0 3.27052,0.992 4.06104,2.387 0.31,0.589 0.60453,1.2865 0.60453,2.077 0,2.1855 -2.27853,4.867 -10.02853,9.92"
     id="path144"
     style="stroke-width:0.992" />
  <path
     class="Note"
     d="m 1682.8125,195.624 c 18.259,0 21.9325,-14.88 21.9325,-18.445 0,-5.65752 -4.464,-9.331 -10.912,-9.331 -16.5695,0 -21.731,12.803 -21.731,18.5535 0,5.84355 4.6655,9.2225 10.7105,9.2225 m 8.432,-8.835 c -4.96,3.379 -8.432,4.5725 -10.8035,4.5725 -2.294,0 -3.6735,-1.1935 -4.371,-2.5885 -0.403,-0.589 -0.6975,-1.3795 -0.6975,-2.17 0,-5.363 15.9805,-14.198 21.235,-14.198 2.077,0 3.2705,0.992 4.061,2.387 0.31,0.589 0.6045,1.2865 0.6045,2.077 0,2.1855 -2.2785,4.867 -10.0285,9.92"
     id="path146"
     style="stroke-width:0.992" />
  <path
     class="Note"
     d="m 1836.0025,208.024 c 18.259,0 21.9325,-14.88 21.9325,-18.445 0,-5.65752 -4.464,-9.331 -10.912,-9.331 -16.5695,0 -21.731,12.803 -21.731,18.5535 0,5.84355 4.6655,9.2225 10.7105,9.2225 m 8.432,-8.835 c -4.96,3.379 -8.432,4.5725 -10.8035,4.5725 -2.294,0 -3.6735,-1.1935 -4.371,-2.5885 -0.403,-0.589 -0.6975,-1.3795 -0.6975,-2.17 0,-5.363 15.9805,-14.198 21.235,-14.198 2.077,0 3.2705,0.992 4.061,2.387 0.31,0.589 0.6045,1.2865 0.6045,2.077 0,2.1855 -2.2785,4.867 -10.0285,9.92"
     id="path148"
     style="stroke-width:0.992" />
  <path
     class="Clef"
     d="m 55.908525,152.968 c -0.201475,-1.19348 0,-1.28652 0.58895,-1.89105 10.710525,-10.01295 18.848,-22.61443 18.848,-37.78895 0,-8.63348 -2.38695,-17.174 -6.448,-23.126496 -1.488,-2.169504 -4.06095,-4.96 -5.161475,-4.96 -1.379475,0 -4.464,2.58912 -6.448,4.774496 -7.331475,8.122 -9.718525,20.522 -9.718525,30.84495 0,5.75053 0.697575,12.19853 1.39505,16.27505 0.186,1.19348 0.294525,1.37948 -0.89905,2.37148 C 33.774525,151.27852 18.6,165.46095 18.6,185.5025 c 0,17.267 11.81105,33.63498 36.11505,33.63498 2.278425,0 4.851475,-0.20148 6.835475,-0.60443 1.100525,-0.186 1.302,-0.29453 1.488,0.89895 1.193475,6.64948 2.681475,15.28305 2.681475,19.94852 0,14.67853 -9.92,16.46096 -15.763475,16.46096 -5.36305,0 -7.951475,-1.58096 -7.951475,-2.88296 0,-0.682 0.89895,-0.992 3.177475,-1.674 3.084525,-0.89904 6.649475,-3.58052 6.649475,-9.33104 0,-5.456 -3.472,-10.12148 -9.51695,-10.12148 -6.649575,0 -10.617575,5.25452 -10.617575,11.408 0,6.448 3.859575,16.16652 18.848,16.16652 6.649575,0 19.545575,-2.976 19.545575,-19.84 0,-5.642 -1.782525,-15.066 -2.88305,-21.21947 -0.201475,-1.19357 -0.09295,-1.10053 1.286525,-1.68957 10.028525,-3.968 16.678,-12.4 16.678,-23.60648 0,-12.71005 -9.33105,-23.91648 -23.916525,-23.91648 -2.57295,0 -2.57295,0 -2.867475,-1.78252 l -2.48,-14.384 M 65.224,100.578 c 3.270525,0 5.952,2.68148 5.952,8.13748 0,11.02052 -9.424,19.94852 -17.251475,26.784 -0.697475,0.60452 -1.100525,0.496 -1.302,-0.79053 -0.387475,-2.57295 -0.58905,-5.952 -0.58905,-9.12947 0,-15.46896 7.145575,-25.00148 13.190525,-25.00148 m -10.803475,67.56452 c 0.294525,1.89096 0.294525,1.78243 -1.488,2.38696 -8.742,2.976 -14.399475,10.80347 -14.399475,19.23552 0,8.928 4.665475,15.283 11.423475,17.56152 0.790525,0.29453 1.984,0.60453 2.666,0.60453 0.806,0 1.193475,-0.496 1.193475,-1.10053 0,-0.69747 -0.790525,-0.992 -1.488,-1.28652 -4.169475,-1.7825 -7.145475,-6.045 -7.145475,-10.6175 0,-5.6575 3.87495,-9.92 9.92,-11.60955 1.596525,-0.38747 1.798,-0.29443 1.984,0.806 l 4.96,29.55853 c 0.201475,1.08504 0.108525,1.08504 -1.379475,1.37957 -1.596525,0.31 -3.580525,0.496 -5.564525,0.496 -17.36,0 -28.566525,-9.61 -28.566525,-23.40505 0,-5.859 0.992,-13.68652 9.222525,-23.01748 5.952,-6.64957 10.524525,-10.32304 15.19,-14.08957 0.992,-0.79043 1.178,-0.69747 1.379475,0.40305 l 2.092525,12.69452 M 61.256,183.92148 c -0.201475,-1.19348 -0.09295,-1.488 1.100525,-1.39496 8.02895,0.69748 14.678525,7.43998 14.678525,16.16648 0,6.26205 -3.766525,11.315 -9.33105,14.08952 -1.193475,0.60453 -1.379475,0.60453 -1.58095,-0.58904 l -4.86705,-28.272"
     id="path150"
     style="stroke-width:0.992" />
  <path
     class="TimeSig"
     d="m 143.89448,151.887 v -21.235 c 0,-0.79052 -0.093,-1.68948 -1.19348,-1.68948 -0.88348,0 -1.37948,0.20148 -1.984,0.89896 l -9.424,11.40802 c -0.40295,0.496 -0.89895,1.085 -0.89895,2.2785 v 8.339 H 117.002 c 7.93605,-6.758 23.82352,-29.26405 24.11805,-30.45752 l 0.093,-0.29453 c 0,-0.89895 -0.69748,-1.488 -1.488,-1.488 -0.88348,0 -4.96,0.186 -6.74252,0.186 -1.78243,0 -6.24643,-0.186 -7.05243,-0.186 -0.88357,0 -2.27853,0.29453 -2.27853,1.87557 0,12.30696 -9.71852,26.08648 -12.69452,30.25598 l -0.589,0.7905 c 0,0 0,0.1085 0,0.1085 l -0.1085,0.093 c -0.2015,0.496 -0.2945,0.899 -0.2945,1.1935 0,0.992 0.7905,1.68948 1.984,1.68948 H 130.3941 V 161.9 c 0,2.68148 -2.17,3.472 -3.968,3.472 -1.58105,0 -2.27853,0.89905 -2.27853,1.89105 0,0.992 0.40296,2.07695 1.89096,2.07695 H 147.165 c 0.992,0 1.984,-0.69748 1.984,-2.07695 0,-1.39505 -1.19348,-1.984 -2.18548,-1.984 -0.992,0 -3.06904,-0.60453 -3.06904,-3.782 v -5.84357 h 7.23852 c 0.992,0 1.488,-0.69748 1.488,-1.89098 0,-1.1935 -0.38748,-1.8755 -1.488,-1.8755 h -7.23852"
     id="path152"
     style="stroke-width:0.992" />
  <path
     class="TimeSig"
     d="m 150.93152,203.75 c 0,-1.178 -0.496,-1.3795 -1.19347,-1.3795 -0.79053,0 -1.10053,0.3875 -1.28653,1.085 l -0.10852,0.1085 c -0.992,2.48005 -1.78252,4.35552 -3.85948,4.35552 -0.496,0 -0.992,-0.093 -1.68947,-0.29452 -1.28653,-0.496 -1.984,-0.58895 -2.976,-1.08495 -1.984,-0.806 -6.64957,-2.38705 -10.726,-2.38705 -1.28653,0 -2.57305,0.2015 -3.658,0.58905 2.17,-3.56505 10.61747,-6.54105 12.78747,-7.13005 6.944,-1.891 13.206,-4.774 13.206,-13.00448 0,-10.50904 -10.32304,-15.08157 -19.54547,-15.08157 -6.944,0 -13.09755,0.60453 -17.96455,6.262 -1.6895,2.07705 -2.7745,4.55705 -2.7745,7.23853 0,1.37947 0.2945,2.77452 0.899,4.26252 1.488,3.069 4.557,5.456 8.12205,5.456 6.06043,0 6.944,-6.2465 6.944,-8.72652 0,-5.952 -6.83557,-6.24653 -6.83557,-8.23053 0.20157,-1.39495 1.984,-3.782 7.82757,-3.782 8.83495,0 8.94347,6.64957 8.94347,9.53253 0,9.02102 -7.45547,15.87202 -14.58547,20.22752 -5.45605,3.47205 -9.33105,8.339 -11.02055,14.787 l -0.093,0.29452 c 0,1.28653 1.085,3.37896 2.573,3.37896 2.1855,0 3.379,-6.06043 9.22255,-6.06043 3.968,0 5.456,5.36295 14.29095,5.36295 4.26252,0 11.904,-0.40295 13.50052,-15.779"
     id="path154"
     style="stroke-width:0.992" />
  <path
     class="Lyrics"
     d="m 2185.042,319.965 -4.05,17.453 1.32,0.343 c 2.21,-1.781 4.32,-2.515 7,-2.515 5.42,0 9.36,3.812 9.36,9.234 0,6.047 -5.36,10.891 -11.97,10.891 -1.61,0 -3.25,-0.235 -5.43,-0.688 l -0.85,1.938 c 2.39,0.797 5.01,1.203 7.59,1.203 9.28,0 16.19,-5.984 16.19,-14.141 0,-7.359 -5.77,-13.062 -13.18,-13.062 -2.17,0 -4,0.469 -6.6,1.547 l 1.7,-7.578 h 17.11 l 1.08,-5.313 h -1.94 c -0.45,0.578 -1.03,0.688 -3.31,0.688 h -14.02"
     id="path156" />
  <path
     class="Lyrics"
     d="m 938.512,331.677 c -10.96,-0.219 -21.38,9.188 -21.38,21.953 0,11.235 7.23,16.594 13.22,16.594 6.33,0 11.58,-6.281 11.58,-13.906 0,-6.844 -4.28,-11.985 -10.16,-11.985 -3.08,0 -5.81,1.032 -8.61,4.047 l -0.11,-0.109 c 1.25,-9.172 7.64,-14.313 15.46,-14.594 v -2 m -15.8,20.594 c 2.51,-3.656 4.5,-5.078 7.3,-5.078 3.87,0 6.56,4.156 6.56,10.375 0,6.718 -2.86,10.203 -6.28,10.203 -4.85,0 -8.21,-6.844 -7.58,-15.5"
     id="path158" />
  <path
     class="Lyrics"
     d="m 1680.912,319.965 -4.05,17.453 1.31,0.343 c 2.22,-1.781 4.33,-2.515 7,-2.515 5.42,0 9.36,3.812 9.36,9.234 0,6.047 -5.36,10.891 -11.97,10.891 -1.61,0 -3.25,-0.235 -5.42,-0.688 l -0.86,1.938 c 2.39,0.797 5.02,1.203 7.6,1.203 9.28,0 16.18,-5.984 16.18,-14.141 0,-7.359 -5.76,-13.062 -13.17,-13.062 -2.17,0 -4,0.469 -6.61,1.547 l 1.7,-7.578 h 17.11 l 1.08,-5.313 h -1.94 c -0.45,0.578 -1.03,0.688 -3.31,0.688 h -14.01"
     id="path160" />
  <path
     class="Lyrics"
     d="m 1850.642,319.277 c -10.95,-0.219 -21.37,9.188 -21.37,21.953 0,11.235 7.23,16.594 13.22,16.594 6.32,0 11.57,-6.281 11.57,-13.906 0,-6.844 -4.28,-11.985 -10.15,-11.985 -3.08,0 -5.81,1.032 -8.61,4.047 l -0.11,-0.109 c 1.25,-9.172 7.64,-14.313 15.45,-14.594 v -2 m -15.79,20.594 c 2.51,-3.656 4.5,-5.078 7.29,-5.078 3.88,0 6.57,4.156 6.57,10.375 0,6.718 -2.86,10.203 -6.29,10.203 -4.84,0 -8.2,-6.844 -7.57,-15.5"
     id="path162" />
  <path
     class="Lyrics"
     d="m 1563.922,319.965 -4.04,17.453 1.31,0.343 c 2.22,-1.781 4.33,-2.515 7,-2.515 5.42,0 9.36,3.812 9.36,9.234 0,6.047 -5.36,10.891 -11.97,10.891 -1.61,0 -3.25,-0.235 -5.42,-0.688 l -0.86,1.938 c 2.39,0.797 5.02,1.203 7.59,1.203 9.28,0 16.19,-5.984 16.19,-14.141 0,-7.359 -5.76,-13.062 -13.17,-13.062 -2.17,0 -4,0.469 -6.61,1.547 l 1.7,-7.578 h 17.11 l 1.08,-5.313 h -1.94 c -0.45,0.578 -1.03,0.688 -3.31,0.688 h -14.02"
     id="path164" />
  <path
     class="Lyrics"
     d="m 1446.942,319.965 -4.04,17.453 1.31,0.343 c 2.22,-1.781 4.33,-2.515 7,-2.515 5.42,0 9.36,3.812 9.36,9.234 0,6.047 -5.36,10.891 -11.97,10.891 -1.61,0 -3.25,-0.235 -5.42,-0.688 l -0.86,1.938 c 2.39,0.797 5.01,1.203 7.59,1.203 9.28,0 16.19,-5.984 16.19,-14.141 0,-7.359 -5.77,-13.062 -13.17,-13.062 -2.17,0 -4,0.469 -6.61,1.547 l 1.7,-7.578 h 17.11 l 1.08,-5.313 h -1.94 c -0.45,0.578 -1.03,0.688 -3.31,0.688 h -14.02"
     id="path166" />
  <path
     class="Lyrics"
     d="m 1951.082,319.965 -4.05,17.453 1.31,0.343 c 2.22,-1.781 4.33,-2.515 7,-2.515 5.42,0 9.36,3.812 9.36,9.234 0,6.047 -5.36,10.891 -11.97,10.891 -1.61,0 -3.25,-0.235 -5.42,-0.688 l -0.86,1.938 c 2.39,0.797 5.02,1.203 7.6,1.203 9.28,0 16.18,-5.984 16.18,-14.141 0,-7.359 -5.76,-13.062 -13.17,-13.062 -2.17,0 -4,0.469 -6.61,1.547 l 1.71,-7.578 h 17.1 l 1.08,-5.313 h -1.93 c -0.46,0.578 -1.04,0.688 -3.32,0.688 h -14.01"
     id="path168" />
  <path
     class="Lyrics"
     d="m 317.392,331.677 c -10.953,-0.219 -21.375,9.188 -21.375,21.953 0,11.235 7.234,16.594 13.219,16.594 6.328,0 11.578,-6.281 11.578,-13.906 0,-6.844 -4.281,-11.985 -10.156,-11.985 -3.078,0 -5.813,1.032 -8.61,4.047 l -0.109,-0.109 c 1.25,-9.172 7.641,-14.313 15.453,-14.594 v -2 m -15.797,20.594 c 2.516,-3.656 4.5,-5.078 7.297,-5.078 3.875,0 6.563,4.156 6.563,10.375 0,6.718 -2.86,10.203 -6.282,10.203 -4.843,0 -8.203,-6.844 -7.578,-15.5"
     id="path170" />
  <path
     class="Lyrics"
     d="m 2084.612,319.277 c -10.96,-0.219 -21.38,9.188 -21.38,21.953 0,11.235 7.24,16.594 13.22,16.594 6.33,0 11.58,-6.281 11.58,-13.906 0,-6.844 -4.28,-11.985 -10.16,-11.985 -3.08,0 -5.81,1.032 -8.61,4.047 l -0.11,-0.109 c 1.25,-9.172 7.64,-14.313 15.46,-14.594 v -2 m -15.8,20.594 c 2.51,-3.656 4.5,-5.078 7.3,-5.078 3.87,0 6.56,4.156 6.56,10.375 0,6.718 -2.86,10.203 -6.28,10.203 -4.85,0 -8.21,-6.844 -7.58,-15.5"
     id="path172" />
  <path
     class="Lyrics"
     d="m 687.681,330.933 c -10.954,-0.219 -21.375,9.188 -21.375,21.953 0,11.235 7.234,16.594 13.218,16.594 6.328,0 11.578,-6.281 11.578,-13.906 0,-6.844 -4.281,-11.985 -10.156,-11.985 -3.078,0 -5.812,1.032 -8.609,4.047 l -0.11,-0.109 c 1.25,-9.172 7.641,-14.313 15.454,-14.594 v -2 m -15.797,20.594 c 2.515,-3.656 4.5,-5.078 7.297,-5.078 3.875,0 6.562,4.156 6.562,10.375 0,6.718 -2.859,10.203 -6.281,10.203 -4.844,0 -8.203,-6.844 -7.578,-15.5"
     id="path174" />
  <path
     class="Lyrics"
     d="m 554.152,331.621 -4.047,17.453 1.313,0.343 c 2.219,-1.781 4.328,-2.515 7,-2.515 5.422,0 9.359,3.812 9.359,9.234 0,6.047 -5.359,10.891 -11.969,10.891 -1.609,0 -3.25,-0.235 -5.421,-0.688 l -0.86,1.938 c 2.391,0.797 5.016,1.203 7.594,1.203 9.281,0 16.187,-5.984 16.187,-14.141 0,-7.359 -5.765,-13.062 -13.171,-13.062 -2.172,0 -4,0.469 -6.61,1.547 l 1.703,-7.578 h 17.11 l 1.078,-5.313 h -1.938 c -0.453,0.578 -1.031,0.688 -3.312,0.688 h -14.016"
     id="path176" />
  <path
     class="Lyrics"
     d="m 788.112,331.621 -4.044,17.453 1.313,0.343 c 2.221,-1.781 4.331,-2.515 7.001,-2.515 5.42,0 9.36,3.812 9.36,9.234 0,6.047 -5.36,10.891 -11.97,10.891 -1.61,0 -3.251,-0.235 -5.422,-0.688 l -0.86,1.938 c 2.391,0.797 5.012,1.203 7.592,1.203 9.28,0 16.19,-5.984 16.19,-14.141 0,-7.359 -5.77,-13.062 -13.17,-13.062 -2.17,0 -4,0.469 -6.61,1.547 l 1.7,-7.578 h 17.11 l 1.08,-5.313 h -1.94 c -0.45,0.578 -1.03,0.688 -3.31,0.688 h -14.02"
     id="path178" />
  <path
     class="Lyrics"
     d="m 417.51,330.933 c -10.954,-0.219 -21.375,9.188 -21.375,21.953 0,11.235 7.234,16.594 13.218,16.594 6.328,0 11.578,-6.281 11.578,-13.906 0,-6.844 -4.281,-11.985 -10.156,-11.985 -3.078,0 -5.812,1.032 -8.609,4.047 l -0.11,-0.109 c 1.25,-9.172 7.641,-14.313 15.454,-14.594 v -2 m -15.797,20.594 c 2.515,-3.656 4.5,-5.078 7.297,-5.078 3.875,0 6.562,4.156 6.562,10.375 0,6.718 -2.859,10.203 -6.281,10.203 -4.844,0 -8.203,-6.844 -7.578,-15.5"
     id="path180" />
  <path
     class="StaffText"
     d="m 1314.412,27.906 c 0,3.547 -1.31,5.141 -5.4,5.141 v 1.906 h 16.05 v -1.906 c -4.21,0 -5.4,-1.687 -5.4,-4.844 V 3 h 5.4 c 4.4,0 5.7,0.906 8.6,5.953 h 1.71 l -0.56,-8.109 h -35.6 l -0.5,8.109 h 1.7 c 2.75,-5 4.15,-5.953 8.6,-5.953 h 5.4 v 24.906 m 22.85,1.454 c -1.7,0 -3.05,1.343 -3.05,3.046 0,1.704 1.35,3.094 3.05,3.094 1.7,0 3.09,-1.39 3.09,-3.094 0,-1.703 -1.39,-3.046 -3.09,-3.046 m 36.09,-27.61 h -1.44 c -2.45,1.906 -4.5,2.547 -8.06,2.547 v 1.797 h 0.86 c 2.89,0 3.95,1.406 3.95,4.109 V 28.61 c 0,3.046 -1.31,4.546 -4.15,4.546 h -0.8 v 1.797 h 14.2 v -1.797 h -0.5 c -2.95,0 -4.06,-1.656 -4.06,-4.703 V 1.75 m 20.46,17.953 c 1.85,-1.25 3.6,-1.906 5.15,-1.906 3.25,0 5.75,2.656 5.75,6.359 0,5.25 -4.7,9.25 -10.4,9.25 -2.1,0 -3.75,-0.406 -6.15,-1.546 l -1,1.437 c 1.8,1.359 5,2.25 7.94,2.25 7.75,0 14.31,-5.891 14.31,-12.547 0,-4.297 -3.4,-8.547 -8.2,-7.844 l -0.11,-0.109 c 4.25,-2.797 5.91,-4.797 5.91,-7.344 0,-3.5 -3.2,-5.953 -7.6,-5.953 -4.45,0 -8.06,2.453 -11.5,7.094 l 1.4,1.109 c 2.95,-3.297 5.95,-5.047 8.65,-5.047 2.5,0 4.35,1.844 4.35,4.141 0,3.25 -3.05,5.5 -9.3,9 l 0.8,1.656 M 1426.912,0 h -2.2 l -11.7,35.547 h 2.2 L 1426.912,0 m 16.44,1.75 h -1.44 c -2.45,1.906 -4.5,2.547 -8.06,2.547 v 1.797 h 0.86 c 2.89,0 3.95,1.406 3.95,4.109 V 28.61 c 0,3.046 -1.31,4.546 -4.15,4.546 h -0.8 v 1.797 h 14.2 v -1.797 h -0.5 c -2.95,0 -4.06,-1.656 -4.06,-4.703 V 1.75 m 31.96,23.86 h 4.4 l 0.75,-5.657 h -1.7 c -0.75,2.453 -1.45,3.203 -3.45,3.203 V 1.75 h -4 l -14.4,20.953 v 2.907 h 13.69 v 3.5 c 0,2.843 -1.09,4.046 -4.5,4.046 v 1.797 h 13.61 v -1.797 c -3.15,0 -4.4,-1.046 -4.4,-3.953 V 25.61 m -4.71,-2.454 h -11.64 l 11.55,-17.062 h 0.09 v 17.062"
     id="path182" />
  <path
     class="StaffText"
     d="m 168.316,39.614 c 0,3.546 -1.312,5.14 -5.406,5.14 v 1.906 h 16.047 v -1.906 c -4.203,0 -5.391,-1.687 -5.391,-4.844 V 14.707 h 5.391 c 4.406,0 5.703,0.907 8.609,5.953 h 1.704 l -0.563,-8.109 h -35.594 l -0.5,8.109 h 1.703 c 2.75,-5 4.141,-5.953 8.594,-5.953 h 5.406 v 24.907 m 22.844,1.453 c -1.703,0 -3.047,1.343 -3.047,3.047 0,1.703 1.344,3.093 3.047,3.093 1.703,0 3.094,-1.39 3.094,-3.093 0,-1.704 -1.391,-3.047 -3.094,-3.047 m 26.75,-27.016 -3.547,15.313 1.141,0.296 c 1.953,-1.546 3.812,-2.203 6.156,-2.203 4.75,0 8.203,3.36 8.203,8.11 0,5.297 -4.703,9.547 -10.5,9.547 -1.406,0 -2.859,-0.204 -4.75,-0.61 l -0.75,1.703 c 2.094,0.703 4.391,1.047 6.641,1.047 8.156,0 14.203,-5.25 14.203,-12.39 0,-6.454 -5.047,-11.454 -11.547,-11.454 -1.906,0 -3.5,0.407 -5.797,1.344 l 1.5,-6.64 h 15 l 0.953,-4.657 h -1.703 c -0.406,0.5 -0.906,0.594 -2.906,0.594 H 217.91 m 34.906,-2.344 h -2.203 L 238.91,47.254 h 2.203 l 11.703,-35.547 m 22.047,1.75 c -9.609,-0.203 -18.75,8.047 -18.75,19.25 0,9.86 6.344,14.547 11.594,14.547 5.547,0 10.156,-5.5 10.156,-12.187 0,-6 -3.75,-10.5 -8.906,-10.5 -2.703,0 -5.094,0.89 -7.547,3.547 l -0.094,-0.11 c 1.094,-8.047 6.688,-12.547 13.547,-12.797 v -1.75 m -13.859,18.047 c 2.203,-3.187 3.953,-4.437 6.406,-4.437 3.406,0 5.75,3.64 5.75,9.093 0,5.907 -2.5,8.954 -5.5,8.954 -4.25,0 -7.203,-6 -6.656,-13.61"
     id="path184" />
</svg>
