<?xml version="1.0" encoding="UTF-8" standalone="no"?>
<svg
   width="2552.0071"
   height="310.784"
   viewBox="0 0 2552.0071 310.784"
   version="1.2"
   id="svg439"
   sodipodi:docname="Kadenzen-1.svg"
   inkscape:version="1.2.1 (9c6d41e410, 2022-07-14)"
   xmlns:inkscape="http://www.inkscape.org/namespaces/inkscape"
   xmlns:sodipodi="http://sodipodi.sourceforge.net/DTD/sodipodi-0.dtd"
   xmlns="http://www.w3.org/2000/svg"
   xmlns:svg="http://www.w3.org/2000/svg">
  <defs
     id="defs443" />
  <sodipodi:namedview
     id="namedview441"
     pagecolor="#505050"
     bordercolor="#eeeeee"
     borderopacity="1"
     inkscape:showpageshadow="0"
     inkscape:pageopacity="0"
     inkscape:pagecheckerboard="0"
     inkscape:deskcolor="#505050"
     showgrid="false"
     inkscape:zoom="0.056078321"
     inkscape:cx="1275.0025"
     inkscape:cy="1836.7169"
     inkscape:window-width="3840"
     inkscape:window-height="2066"
     inkscape:window-x="-11"
     inkscape:window-y="-11"
     inkscape:window-maximized="1"
     inkscape:current-layer="svg439" />
  <title
     id="title285">Kadenzen</title>
  <desc
     id="desc287">Generated by MuseScore 4.0.1</desc>
  <polyline
     class="StaffLines"
     fill="none"
     stroke="#000000"
     stroke-width="3.22"
     stroke-linejoin="bevel"
     points="212.598,386.198 2764.6,386.198"
     id="polyline291"
     transform="translate(-212.598,-261.414)" />
  <polyline
     class="StaffLines"
     fill="none"
     stroke="#000000"
     stroke-width="3.22"
     stroke-linejoin="bevel"
     points="212.598,410.998 2764.6,410.998"
     id="polyline293"
     transform="translate(-212.598,-261.414)" />
  <polyline
     class="StaffLines"
     fill="none"
     stroke="#000000"
     stroke-width="3.22"
     stroke-linejoin="bevel"
     points="212.598,435.798 2764.6,435.798"
     id="polyline295"
     transform="translate(-212.598,-261.414)" />
  <polyline
     class="StaffLines"
     fill="none"
     stroke="#000000"
     stroke-width="3.22"
     stroke-linejoin="bevel"
     points="212.598,460.598 2764.6,460.598"
     id="polyline297"
     transform="translate(-212.598,-261.414)" />
  <polyline
     class="StaffLines"
     fill="none"
     stroke="#000000"
     stroke-width="3.22"
     stroke-linejoin="bevel"
     points="212.598,485.398 2764.6,485.398"
     id="polyline299"
     transform="translate(-212.598,-261.414)" />
  <path
     class="TieSegment"
     stroke="#000000"
     stroke-width="2.48"
     stroke-linecap="round"
     stroke-linejoin="round"
     fill-rule="evenodd"
     d="m 320.034,129.124 c 21.135,-19.178 84.539,-19.178 105.674,0 -21.135,-13.226 -84.539,-13.226 -105.674,0"
     id="path301" />
  <path
     class="TieSegment"
     stroke="#000000"
     stroke-width="2.48"
     stroke-linecap="round"
     stroke-linejoin="round"
     fill-rule="evenodd"
     d="m 1151.942,143.508 c 9.88,-12.896 39.52,-12.896 49.4,0 -9.88,-6.944 -39.52,-6.944 -49.4,0"
     id="path303" />
  <polyline
     class="BarLine"
     stroke="#000000"
     stroke-width="3.97"
     stroke-linejoin="bevel"
     points="1134.93,384.586 1134.93,487.01"
     id="polyline305"
     transform="translate(-212.598,-261.414)" />
  <polyline
     class="BarLine"
     stroke="#000000"
     stroke-width="3.97"
     stroke-linejoin="bevel"
     points="1148.82,384.586 1148.82,487.01"
     id="polyline307"
     transform="translate(-212.598,-261.414)" />
  <polyline
     class="BarLine"
     stroke="#000000"
     stroke-width="3.97"
     stroke-linejoin="bevel"
     points="1973.09,384.586 1973.09,487.01"
     id="polyline309"
     transform="translate(-212.598,-261.414)" />
  <polyline
     class="BarLine"
     stroke="#000000"
     stroke-width="3.97"
     stroke-linejoin="bevel"
     points="1986.98,384.586 1986.98,487.01"
     id="polyline311"
     transform="translate(-212.598,-261.414)" />
  <polyline
     class="BarLine"
     stroke="#000000"
     stroke-width="3.97"
     stroke-linejoin="bevel"
     points="2748.73,384.586 2748.73,487.01"
     id="polyline313"
     transform="translate(-212.598,-261.414)" />
  <polyline
     class="BarLine"
     stroke="#000000"
     stroke-width="3.97"
     stroke-linejoin="bevel"
     points="2762.62,384.586 2762.62,487.01"
     id="polyline315"
     transform="translate(-212.598,-261.414)" />
  <polyline
     class="BarLine"
     stroke="#000000"
     stroke-width="3.97"
     stroke-linejoin="bevel"
     points="2465.94,384.586 2465.94,487.01"
     id="polyline317"
     transform="translate(-212.598,-261.414)" />
  <polyline
     class="BarLine"
     stroke="#000000"
     stroke-width="3.97"
     stroke-linejoin="bevel"
     points="852.144,384.586 852.144,487.01"
     id="polyline319"
     transform="translate(-212.598,-261.414)" />
  <polyline
     class="BarLine"
     stroke="#000000"
     stroke-width="3.97"
     stroke-linejoin="bevel"
     points="1690.3,384.586 1690.3,487.01"
     id="polyline321"
     transform="translate(-212.598,-261.414)" />
  <polyline
     class="LedgerLine"
     stroke="#000000"
     stroke-width="3.97"
     stroke-linejoin="bevel"
     points="540.145,510.198 592.62,510.198"
     id="polyline323"
     transform="translate(-212.598,-261.414)" />
  <polyline
     class="LedgerLine"
     stroke="#000000"
     stroke-width="3.97"
     stroke-linejoin="bevel"
     points="1714.61,510.198 1779.98,510.198"
     id="polyline325"
     transform="translate(-212.598,-261.414)" />
  <polyline
     class="LedgerLine"
     stroke="#000000"
     stroke-width="3.97"
     stroke-linejoin="bevel"
     points="2153.94,510.198 2206.42,510.198"
     id="polyline327"
     transform="translate(-212.598,-261.414)" />
  <polyline
     class="LedgerLine"
     stroke="#000000"
     stroke-width="3.97"
     stroke-linejoin="bevel"
     points="2490.24,510.198 2555.62,510.198"
     id="polyline329"
     transform="translate(-212.598,-261.414)" />
  <polyline
     class="LedgerLine"
     stroke="#000000"
     stroke-width="3.97"
     stroke-linejoin="bevel"
     points="876.448,510.198 941.819,510.198"
     id="polyline331"
     transform="translate(-212.598,-261.414)" />
  <polyline
     class="LedgerLine"
     stroke="#000000"
     stroke-width="3.97"
     stroke-linejoin="bevel"
     points="1315.78,510.198 1368.26,510.198"
     id="polyline333"
     transform="translate(-212.598,-261.414)" />
  <polyline
     class="Stem"
     stroke="#000000"
     stroke-width="2.98"
     stroke-linejoin="bevel"
     points="524.944,419.232 524.944,355.198"
     id="polyline335"
     transform="translate(-212.598,-261.414)" />
  <polyline
     class="Stem"
     stroke="#000000"
     stroke-width="2.98"
     stroke-linejoin="bevel"
     points="656.236,419.232 656.236,355.198"
     id="polyline337"
     transform="translate(-212.598,-261.414)" />
  <polyline
     class="Stem"
     stroke="#000000"
     stroke-width="2.98"
     stroke-linejoin="bevel"
     points="1556.91,444.032 1556.91,367.424"
     id="polyline339"
     transform="translate(-212.598,-261.414)" />
  <polyline
     class="Stem"
     stroke="#000000"
     stroke-width="2.98"
     stroke-linejoin="bevel"
     points="1356.85,419.232 1356.85,355.198"
     id="polyline341"
     transform="translate(-212.598,-261.414)" />
  <polyline
     class="Stem"
     stroke="#000000"
     stroke-width="2.98"
     stroke-linejoin="bevel"
     points="1606.93,431.632 1606.93,361.398"
     id="polyline343"
     transform="translate(-212.598,-261.414)" />
  <polyline
     class="Stem"
     stroke="#000000"
     stroke-width="2.98"
     stroke-linejoin="bevel"
     points="2270.03,444.032 2270.03,367.598"
     id="polyline345"
     transform="translate(-212.598,-261.414)" />
  <polyline
     class="Stem"
     stroke="#000000"
     stroke-width="2.98"
     stroke-linejoin="bevel"
     points="2382.57,431.632 2382.57,361.398"
     id="polyline347"
     transform="translate(-212.598,-261.414)" />
  <polyline
     class="Stem"
     stroke="#000000"
     stroke-width="2.98"
     stroke-linejoin="bevel"
     points="768.772,431.632 768.772,361.398"
     id="polyline349"
     transform="translate(-212.598,-261.414)" />
  <polyline
     class="Stem"
     stroke="#000000"
     stroke-width="2.98"
     stroke-linejoin="bevel"
     points="1431.87,419.232 1431.87,355.198"
     id="polyline351"
     transform="translate(-212.598,-261.414)" />
  <polyline
     class="Stem"
     stroke="#000000"
     stroke-width="2.98"
     stroke-linejoin="bevel"
     points="1506.9,431.632 1506.9,361.573"
     id="polyline353"
     transform="translate(-212.598,-261.414)" />
  <polyline
     class="Stem"
     stroke="#000000"
     stroke-width="2.98"
     stroke-linejoin="bevel"
     points="2022.69,501.965 2022.69,559.798"
     id="polyline355"
     transform="translate(-212.598,-261.414)" />
  <polyline
     class="Stem"
     stroke="#000000"
     stroke-width="2.98"
     stroke-linejoin="bevel"
     points="400.179,501.965 400.179,559.798"
     id="polyline357"
     transform="translate(-212.598,-261.414)" />
  <polyline
     class="Stem"
     stroke="#000000"
     stroke-width="2.98"
     stroke-linejoin="bevel"
     points="551.553,514.365 551.553,572.198"
     id="polyline359"
     transform="translate(-212.598,-261.414)" />
  <polyline
     class="Stem"
     stroke="#000000"
     stroke-width="2.98"
     stroke-linejoin="bevel"
     points="1327.19,514.365 1327.19,572.198"
     id="polyline361"
     transform="translate(-212.598,-261.414)" />
  <polyline
     class="Stem"
     stroke="#000000"
     stroke-width="2.98"
     stroke-linejoin="bevel"
     points="1184.53,501.965 1184.53,559.798"
     id="polyline363"
     transform="translate(-212.598,-261.414)" />
  <polyline
     class="Stem"
     stroke="#000000"
     stroke-width="2.98"
     stroke-linejoin="bevel"
     points="2165.35,514.365 2165.35,572.198"
     id="polyline365"
     transform="translate(-212.598,-261.414)" />
  <path
     class="Note"
     d="m 291.90952,175.872 c 18.25896,0 21.93253,-14.88 21.93253,-18.445 0,-5.65752 -4.464,-9.331 -10.912,-9.331 -16.56955,0 -21.73105,12.803 -21.73105,18.5535 0,5.84355 4.6655,9.2225 10.71052,9.2225 m 8.432,-8.835 c -4.96,3.379 -8.432,4.5725 -10.80352,4.5725 -2.294,0 -3.6735,-1.1935 -4.371,-2.5885 -0.403,-0.589 -0.6975,-1.3795 -0.6975,-2.17 0,-5.363 15.98055,-14.198 21.23498,-14.198 2.07704,0 3.27052,0.992 4.06104,2.387 0.31,0.589 0.60453,1.2865 0.60453,2.077 0,2.1855 -2.27853,4.867 -10.02853,9.92"
     id="path367"
     style="stroke-width:0.992" />
  <path
     class="Note"
     d="m 1198.8425,175.872 c 9.827,0 21.9325,-9.1295 21.9325,-18.5535 0,-5.54902 -4.464,-9.2225 -10.819,-9.2225 -12.1055,0 -21.824,9.021 -21.824,18.5535 0,5.7505 4.7585,9.2225 10.7105,9.2225"
     id="path369"
     style="stroke-width:0.992" />
  <path
     class="Note"
     d="m 697.082,148.39052 c -14.384,0 -23.312,6.06048 -23.312,13.39198 0,7.2385 6.1535,13.68655 22.22705,13.68655 17.65443,0 23.312,-6.13805 23.312,-13.68655 0,-7.6415 -12.19853,-13.39198 -22.22705,-13.39198 m -2.77452,2.48 c 7.34704,0 13.29904,7.93598 13.29904,14.49248 0,5.456 -3.37904,7.62605 -8.246,7.62605 -7.14547,0 -13.98104,-8.23055 -13.98104,-15.17455 0,-5.549 3.85957,-6.94398 8.928,-6.94398"
     id="path371"
     style="stroke-width:0.992" />
  <path
     class="Note"
     d="m 1323.8825,200.672 c 9.827,0 21.9325,-9.1295 21.9325,-18.5535 0,-5.54902 -4.464,-9.2225 -10.819,-9.2225 -12.1055,0 -21.824,9.021 -21.824,18.5535 0,5.7505 4.7585,9.2225 10.7105,9.2225"
     id="path373"
     style="stroke-width:0.992" />
  <path
     class="Note"
     d="m 1373.8925,188.272 c 18.259,0 21.9325,-14.88 21.9325,-18.445 0,-5.65752 -4.464,-9.331 -10.912,-9.331 -16.5695,0 -21.731,12.803 -21.731,18.5535 0,5.84355 4.6655,9.2225 10.7105,9.2225 m 8.432,-8.835 c -4.96,3.379 -8.432,4.5725 -10.8035,4.5725 -2.294,0 -3.6735,-1.1935 -4.371,-2.5885 -0.403,-0.589 -0.6975,-1.3795 -0.6975,-2.17 0,-5.363 15.9805,-14.198 21.235,-14.198 2.077,0 3.2705,0.992 4.061,2.387 0.31,0.589 0.6045,1.2865 0.6045,2.077 0,2.1855 -2.2785,4.867 -10.0285,9.92"
     id="path375"
     style="stroke-width:0.992" />
  <path
     class="Note"
     d="m 1535.244,148.39052 c -14.384,0 -23.312,6.06048 -23.312,13.39198 0,7.2385 6.1535,13.68655 22.227,13.68655 17.6545,0 23.312,-6.13805 23.312,-13.68655 0,-7.6415 -12.1985,-13.39198 -22.227,-13.39198 m -2.7745,2.48 c 7.347,0 13.299,7.93598 13.299,14.49248 0,5.456 -3.379,7.62605 -8.246,7.62605 -7.1455,0 -13.981,-8.23055 -13.981,-15.17455 0,-5.549 3.8595,-6.94398 8.928,-6.94398"
     id="path377"
     style="stroke-width:0.992" />
  <path
     class="Note"
     d="m 1273.8625,188.272 c 9.827,0 21.9325,-9.1295 21.9325,-18.5535 0,-5.54902 -4.464,-9.2225 -10.819,-9.2225 -12.1055,0 -21.824,9.021 -21.824,18.5535 0,5.7505 4.7585,9.2225 10.7105,9.2225"
     id="path379"
     style="stroke-width:0.992" />
  <path
     class="Note"
     d="m 1123.8125,175.872 c 9.827,0 21.9325,-9.1295 21.9325,-18.5535 0,-5.54902 -4.464,-9.2225 -10.819,-9.2225 -12.1055,0 -21.824,9.021 -21.824,18.5535 0,5.7505 4.7585,9.2225 10.7105,9.2225"
     id="path381"
     style="stroke-width:0.992" />
  <path
     class="Note"
     d="m 2037.0025,200.672 c 18.259,0 21.9325,-14.88 21.9325,-18.445 0,-5.65752 -4.464,-9.331 -10.912,-9.331 -16.5695,0 -21.731,12.803 -21.731,18.5535 0,5.84355 4.6655,9.2225 10.7105,9.2225 m 8.432,-8.835 c -4.96,3.379 -8.432,4.5725 -10.8035,4.5725 -2.294,0 -3.6735,-1.1935 -4.371,-2.5885 -0.403,-0.589 -0.6975,-1.3795 -0.6975,-2.17 0,-5.363 15.9805,-14.198 21.235,-14.198 2.077,0 3.2705,0.992 4.061,2.387 0.31,0.589 0.6045,1.2865 0.6045,2.077 0,2.1855 -2.2785,4.867 -10.0285,9.92"
     id="path383"
     style="stroke-width:0.992" />
  <path
     class="Note"
     d="m 535.73652,188.272 c 18.25896,0 21.93253,-14.88 21.93253,-18.445 0,-5.65752 -4.464,-9.331 -10.912,-9.331 -16.56955,0 -21.73105,12.803 -21.73105,18.5535 0,5.84355 4.6655,9.2225 10.71052,9.2225 m 8.432,-8.835 c -4.96,3.379 -8.432,4.5725 -10.80352,4.5725 -2.294,0 -3.6735,-1.1935 -4.371,-2.5885 -0.403,-0.589 -0.6975,-1.3795 -0.6975,-2.17 0,-5.363 15.98055,-14.198 21.23498,-14.198 2.07704,0 3.27052,0.992 4.06104,2.387 0.31,0.589 0.60453,1.2865 0.60453,2.077 0,2.1855 -2.27853,4.867 -10.02853,9.92"
     id="path385"
     style="stroke-width:0.992" />
  <path
     class="Note"
     d="m 2310.874,148.39052 c -14.384,0 -23.312,6.06048 -23.312,13.39198 0,7.2385 6.1535,13.68655 22.227,13.68655 17.6545,0 23.312,-6.13805 23.312,-13.68655 0,-7.6415 -12.1985,-13.39198 -22.227,-13.39198 m -2.7745,2.48 c 7.347,0 13.299,7.93598 13.299,14.49248 0,5.456 -3.379,7.62605 -8.246,7.62605 -7.1455,0 -13.981,-8.23055 -13.981,-15.17455 0,-5.549 3.8595,-6.94398 8.928,-6.94398"
     id="path387"
     style="stroke-width:0.992" />
  <path
     class="Note"
     d="m 423.20152,175.872 c 18.25896,0 21.93253,-14.88 21.93253,-18.445 0,-5.65752 -4.464,-9.331 -10.912,-9.331 -16.56955,0 -21.73105,12.803 -21.73105,18.5535 0,5.84355 4.6655,9.2225 10.71052,9.2225 m 8.432,-8.835 c -4.96,3.379 -8.432,4.5725 -10.80352,4.5725 -2.294,0 -3.6735,-1.1935 -4.371,-2.5885 -0.403,-0.589 -0.6975,-1.3795 -0.6975,-2.17 0,-5.363 15.98055,-14.198 21.23498,-14.198 2.07704,0 3.27052,0.992 4.06104,2.387 0.31,0.589 0.60453,1.2865 0.60453,2.077 0,2.1855 -2.27853,4.867 -10.02853,9.92"
     id="path389"
     style="stroke-width:0.992" />
  <path
     class="Note"
     d="m 2149.5325,188.272 c 18.259,0 21.9325,-14.88 21.9325,-18.445 0,-5.65752 -4.464,-9.331 -10.912,-9.331 -16.5695,0 -21.731,12.803 -21.731,18.5535 0,5.84355 4.6655,9.2225 10.7105,9.2225 m 8.432,-8.835 c -4.96,3.379 -8.432,4.5725 -10.8035,4.5725 -2.294,0 -3.6735,-1.1935 -4.371,-2.5885 -0.403,-0.589 -0.6975,-1.3795 -0.6975,-2.17 0,-5.363 15.9805,-14.198 21.235,-14.198 2.077,0 3.2705,0.992 4.061,2.387 0.31,0.589 0.6045,1.2865 0.6045,2.077 0,2.1855 -2.2785,4.867 -10.0285,9.92"
     id="path391"
     style="stroke-width:0.992" />
  <path
     class="Note"
     d="m 697.082,235.19052 c -14.384,0 -23.312,6.06048 -23.312,13.39198 0,7.2385 6.1535,13.68655 22.22705,13.68655 17.65443,0 23.312,-6.13805 23.312,-13.68655 0,-7.6415 -12.19853,-13.39198 -22.22705,-13.39198 m -2.77452,2.48 c 7.34704,0 13.29904,7.93598 13.29904,14.49248 0,5.456 -3.37904,7.62605 -8.246,7.62605 -7.14547,0 -13.98104,-8.23055 -13.98104,-15.17455 0,-5.549 3.85957,-6.94398 8.928,-6.94398"
     id="path393"
     style="stroke-width:0.992" />
  <path
     class="Note"
     d="m 1123.8125,262.672 c 9.827,0 21.9325,-9.1295 21.9325,-18.5535 0,-5.54902 -4.464,-9.2225 -10.819,-9.2225 -12.1055,0 -21.824,9.021 -21.824,18.5535 0,5.7505 4.7585,9.2225 10.7105,9.2225"
     id="path395"
     style="stroke-width:0.992" />
  <path
     class="Note"
     d="m 2043.154,222.79052 c -14.384,0 -23.312,6.06048 -23.312,13.39198 0,7.2385 6.1535,13.68655 22.227,13.68655 17.6545,0 23.312,-6.13805 23.312,-13.68655 0,-7.6415 -12.1985,-13.39198 -22.227,-13.39198 m -2.7745,2.48 c 7.347,0 13.299,7.93598 13.299,14.49248 0,5.456 -3.379,7.62605 -8.246,7.62605 -7.1455,0 -13.981,-8.23055 -13.981,-15.17455 0,-5.549 3.8595,-6.94398 8.928,-6.94398"
     id="path397"
     style="stroke-width:0.992" />
  <path
     class="Note"
     d="m 981.15252,250.272 c 18.25896,0 21.93248,-14.88 21.93248,-18.445 0,-5.65752 -4.46395,-9.331 -10.91195,-9.331 -16.56955,0 -21.73105,12.803 -21.73105,18.5535 0,5.84355 4.6655,9.2225 10.71052,9.2225 m 8.432,-8.835 c -4.96,3.379 -8.432,4.5725 -10.80352,4.5725 -2.294,0 -3.6735,-1.1935 -4.371,-2.5885 -0.403,-0.589 -0.6975,-1.3795 -0.6975,-2.17 0,-5.363 15.98055,-14.198 21.23498,-14.198 2.07704,0 3.27052,0.992 4.06104,2.387 0.31,0.589 0.60453,1.2865 0.60453,2.077 0,2.1855 -2.27853,4.867 -10.02853,9.92"
     id="path399"
     style="stroke-width:0.992" />
  <path
     class="Note"
     d="m 1204.994,222.79052 c -14.384,0 -23.312,6.06048 -23.312,13.39198 0,7.2385 6.1535,13.68655 22.227,13.68655 17.6545,0 23.312,-6.13805 23.312,-13.68655 0,-7.6415 -12.1985,-13.39198 -22.227,-13.39198 m -2.7745,2.48 c 7.347,0 13.299,7.93598 13.299,14.49248 0,5.456 -3.379,7.62605 -8.246,7.62605 -7.1455,0 -13.981,-8.23055 -13.981,-15.17455 0,-5.549 3.8595,-6.94398 8.928,-6.94398"
     id="path401"
     style="stroke-width:0.992" />
  <path
     class="Note"
     d="m 1535.244,235.19052 c -14.384,0 -23.312,6.06048 -23.312,13.39198 0,7.2385 6.1535,13.68655 22.227,13.68655 17.6545,0 23.312,-6.13805 23.312,-13.68655 0,-7.6415 -12.1985,-13.39198 -22.227,-13.39198 m -2.7745,2.48 c 7.347,0 13.299,7.93598 13.299,14.49248 0,5.456 -3.379,7.62605 -8.246,7.62605 -7.1455,0 -13.981,-8.23055 -13.981,-15.17455 0,-5.549 3.8595,-6.94398 8.928,-6.94398"
     id="path403"
     style="stroke-width:0.992" />
  <path
     class="Note"
     d="m 1819.3125,250.272 c 18.259,0 21.9325,-14.88 21.9325,-18.445 0,-5.65752 -4.464,-9.331 -10.912,-9.331 -16.5695,0 -21.731,12.803 -21.731,18.5535 0,5.84355 4.6655,9.2225 10.7105,9.2225 m 8.432,-8.835 c -4.96,3.379 -8.432,4.5725 -10.8035,4.5725 -2.294,0 -3.6735,-1.1935 -4.371,-2.5885 -0.403,-0.589 -0.6975,-1.3795 -0.6975,-2.17 0,-5.363 15.9805,-14.198 21.235,-14.198 2.077,0 3.2705,0.992 4.061,2.387 0.31,0.589 0.6045,1.2865 0.6045,2.077 0,2.1855 -2.2785,4.867 -10.0285,9.92"
     id="path405"
     style="stroke-width:0.992" />
  <path
     class="Note"
     d="m 196.80352,250.272 c 18.25896,0 21.93253,-14.88 21.93253,-18.445 0,-5.65752 -4.464,-9.331 -10.912,-9.331 -16.56955,0 -21.73105,12.803 -21.73105,18.5535 0,5.84355 4.6655,9.2225 10.71052,9.2225 m 8.432,-8.835 c -4.96,3.379 -8.432,4.5725 -10.80352,4.5725 -2.294,0 -3.6735,-1.1935 -4.371,-2.5885 -0.403,-0.589 -0.6975,-1.3795 -0.6975,-2.17 0,-5.363 15.98055,-14.198 21.23498,-14.198 2.07704,0 3.27052,0.992 4.06104,2.387 0.31,0.589 0.60453,1.2865 0.60453,2.077 0,2.1855 -2.27853,4.867 -10.02853,9.92"
     id="path407"
     style="stroke-width:0.992" />
  <path
     class="Note"
     d="m 2310.874,235.19052 c -14.384,0 -23.312,6.06048 -23.312,13.39198 0,7.2385 6.1535,13.68655 22.227,13.68655 17.6545,0 23.312,-6.13805 23.312,-13.68655 0,-7.6415 -12.1985,-13.39198 -22.227,-13.39198 m -2.7745,2.48 c 7.347,0 13.299,7.93598 13.299,14.49248 0,5.456 -3.379,7.62605 -8.246,7.62605 -7.1455,0 -13.981,-8.23055 -13.981,-15.17455 0,-5.549 3.8595,-6.94398 8.928,-6.94398"
     id="path409"
     style="stroke-width:0.992" />
  <path
     class="Note"
     d="m 348.17752,262.672 c 9.82696,0 21.93253,-9.1295 21.93253,-18.5535 0,-5.54902 -4.464,-9.2225 -10.81905,-9.2225 -12.1055,0 -21.824,9.021 -21.824,18.5535 0,5.7505 4.7585,9.2225 10.71052,9.2225"
     id="path411"
     style="stroke-width:0.992" />
  <path
     class="Note"
     d="m 429.355,222.79052 c -14.384,0 -23.312,6.06048 -23.312,13.39198 0,7.2385 6.1535,13.68655 22.22705,13.68655 17.65443,0 23.312,-6.13805 23.312,-13.68655 0,-7.6415 -12.19853,-13.39198 -22.22705,-13.39198 m -2.77452,2.48 c 7.34704,0 13.29904,7.93598 13.29904,14.49248 0,5.456 -3.37904,7.62605 -8.246,7.62605 -7.14547,0 -13.98104,-8.23055 -13.98104,-15.17455 0,-5.549 3.85957,-6.94398 8.928,-6.94398"
     id="path413"
     style="stroke-width:0.992" />
  <path
     class="Note"
     d="m 1961.9725,262.672 c 9.827,0 21.9325,-9.1295 21.9325,-18.5535 0,-5.54902 -4.464,-9.2225 -10.819,-9.2225 -12.1055,0 -21.824,9.021 -21.824,18.5535 0,5.7505 4.7585,9.2225 10.7105,9.2225"
     id="path415"
     style="stroke-width:0.992" />
  <path
     class="Clef"
     d="m 55.908525,158.016 c -0.201475,-1.19348 0,-1.28652 0.58895,-1.89105 10.710525,-10.01295 18.848,-22.61443 18.848,-37.78895 0,-8.63348 -2.38695,-17.174 -6.448,-23.126496 -1.488,-2.169504 -4.06095,-4.96 -5.161475,-4.96 -1.379475,0 -4.464,2.58912 -6.448,4.774496 -7.331475,8.122 -9.718525,20.522 -9.718525,30.84495 0,5.75053 0.697575,12.19853 1.39505,16.27505 0.186,1.19348 0.294525,1.37948 -0.89905,2.37148 C 33.774525,156.32652 18.6,170.50895 18.6,190.5505 c 0,17.267 11.81105,33.63498 36.11505,33.63498 2.278425,0 4.851475,-0.20148 6.835475,-0.60443 1.100525,-0.186 1.302,-0.29453 1.488,0.89895 1.193475,6.64948 2.681475,15.28305 2.681475,19.94852 0,14.67853 -9.92,16.46096 -15.763475,16.46096 -5.36305,0 -7.951475,-1.58096 -7.951475,-2.88296 0,-0.682 0.89895,-0.992 3.177475,-1.674 3.084525,-0.89904 6.649475,-3.58052 6.649475,-9.33104 0,-5.456 -3.472,-10.12148 -9.51695,-10.12148 -6.649575,0 -10.617575,5.25452 -10.617575,11.408 0,6.448 3.859575,16.16652 18.848,16.16652 6.649575,0 19.545575,-2.976 19.545575,-19.84 0,-5.642 -1.782525,-15.066 -2.88305,-21.21947 -0.201475,-1.19357 -0.09295,-1.10053 1.286525,-1.68957 10.028525,-3.968 16.678,-12.4 16.678,-23.60648 0,-12.71005 -9.33105,-23.91648 -23.916525,-23.91648 -2.57295,0 -2.57295,0 -2.867475,-1.78252 l -2.48,-14.384 M 65.224,105.626 c 3.270525,0 5.952,2.68148 5.952,8.13748 0,11.02052 -9.424,19.94852 -17.251475,26.784 -0.697475,0.60452 -1.100525,0.496 -1.302,-0.79053 -0.387475,-2.57295 -0.58905,-5.952 -0.58905,-9.12947 0,-15.46896 7.145575,-25.00148 13.190525,-25.00148 m -10.803475,67.56452 c 0.294525,1.89096 0.294525,1.78243 -1.488,2.38696 -8.742,2.976 -14.399475,10.80347 -14.399475,19.23552 0,8.928 4.665475,15.283 11.423475,17.56152 0.790525,0.29453 1.984,0.60453 2.666,0.60453 0.806,0 1.193475,-0.496 1.193475,-1.10053 0,-0.69747 -0.790525,-0.992 -1.488,-1.28652 -4.169475,-1.7825 -7.145475,-6.045 -7.145475,-10.6175 0,-5.6575 3.87495,-9.92 9.92,-11.60955 1.596525,-0.38747 1.798,-0.29443 1.984,0.806 l 4.96,29.55853 c 0.201475,1.08504 0.108525,1.08504 -1.379475,1.37957 -1.596525,0.31 -3.580525,0.496 -5.564525,0.496 -17.36,0 -28.566525,-9.61 -28.566525,-23.40505 0,-5.859 0.992,-13.68652 9.222525,-23.01748 5.952,-6.64957 10.524525,-10.32304 15.19,-14.08957 0.992,-0.79043 1.178,-0.69747 1.379475,0.40305 l 2.092525,12.69452 M 61.256,188.96948 c -0.201475,-1.19348 -0.09295,-1.488 1.100525,-1.39496 8.02895,0.69748 14.678525,7.43998 14.678525,16.16648 0,6.26205 -3.766525,11.315 -9.33105,14.08952 -1.193475,0.60453 -1.379475,0.60453 -1.58095,-0.58904 l -4.86705,-28.272"
     id="path417"
     style="stroke-width:0.992" />
  <path
     class="TimeSig"
     d="M 143.89448,156.935 V 135.7 c 0,-0.79052 -0.093,-1.68948 -1.19348,-1.68948 -0.88348,0 -1.37948,0.20148 -1.984,0.89896 l -9.424,11.40802 c -0.40295,0.496 -0.89895,1.085 -0.89895,2.2785 v 8.339 H 117.002 c 7.93605,-6.758 23.82352,-29.26405 24.11805,-30.45752 l 0.093,-0.29453 c 0,-0.89895 -0.69748,-1.488 -1.488,-1.488 -0.88348,0 -4.96,0.186 -6.74252,0.186 -1.78243,0 -6.24643,-0.186 -7.05243,-0.186 -0.88357,0 -2.27853,0.29453 -2.27853,1.87557 0,12.30696 -9.71852,26.08648 -12.69452,30.25598 l -0.589,0.7905 c 0,0 0,0.1085 0,0.1085 l -0.1085,0.093 c -0.2015,0.496 -0.2945,0.899 -0.2945,1.1935 0,0.992 0.7905,1.68948 1.984,1.68948 h 18.44505 v 6.24652 c 0,2.68148 -2.17,3.472 -3.968,3.472 -1.58105,0 -2.27853,0.89905 -2.27853,1.89105 0,0.992 0.40296,2.07695 1.89096,2.07695 H 147.165 c 0.992,0 1.984,-0.69748 1.984,-2.07695 0,-1.39505 -1.19348,-1.984 -2.18548,-1.984 -0.992,0 -3.06904,-0.60453 -3.06904,-3.782 v -5.84357 h 7.23852 c 0.992,0 1.488,-0.69748 1.488,-1.89098 0,-1.1935 -0.38748,-1.8755 -1.488,-1.8755 h -7.23852"
     id="path419"
     style="stroke-width:0.992" />
  <path
     class="TimeSig"
     d="m 150.93152,208.798 c 0,-1.178 -0.496,-1.3795 -1.19347,-1.3795 -0.79053,0 -1.10053,0.3875 -1.28653,1.085 l -0.10852,0.1085 c -0.992,2.48005 -1.78252,4.35552 -3.85948,4.35552 -0.496,0 -0.992,-0.093 -1.68947,-0.29452 -1.28653,-0.496 -1.984,-0.58895 -2.976,-1.08495 -1.984,-0.806 -6.64957,-2.38705 -10.726,-2.38705 -1.28653,0 -2.57305,0.2015 -3.658,0.58905 2.17,-3.56505 10.61747,-6.54105 12.78747,-7.13005 6.944,-1.891 13.206,-4.774 13.206,-13.00448 0,-10.50904 -10.32304,-15.08157 -19.54547,-15.08157 -6.944,0 -13.09755,0.60453 -17.96455,6.262 -1.6895,2.07705 -2.7745,4.55705 -2.7745,7.23853 0,1.37947 0.2945,2.77452 0.899,4.26252 1.488,3.069 4.557,5.456 8.12205,5.456 6.06043,0 6.944,-6.2465 6.944,-8.72652 0,-5.952 -6.83557,-6.24653 -6.83557,-8.23053 0.20157,-1.39495 1.984,-3.782 7.82757,-3.782 8.83495,0 8.94347,6.64957 8.94347,9.53253 0,9.02102 -7.45547,15.87202 -14.58547,20.22752 -5.45605,3.47205 -9.33105,8.339 -11.02055,14.787 l -0.093,0.29452 c 0,1.28653 1.085,3.37896 2.573,3.37896 2.1855,0 3.379,-6.06043 9.22255,-6.06043 3.968,0 5.456,5.36295 14.29095,5.36295 4.26252,0 11.904,-0.40295 13.50052,-15.779"
     id="path421"
     style="stroke-width:0.992" />
  <path
     class="Beam"
     fill-rule="evenodd"
     d="m 1292.812,93.742 52.99,6.2 v 12.485 l -52.99,-6.2 V 93.742"
     id="path423" />
  <path
     class="StaffText"
     d="m 291.073,31.266 v -7.563 c -1.093,0.094 -2.473,0.227 -4.14,0.399 -1.667,0.171 -3.016,0.414 -4.047,0.726 -1.219,0.375 -2.227,0.948 -3.023,1.719 -0.797,0.771 -1.196,1.849 -1.196,3.234 0,1.563 0.44,2.742 1.321,3.539 0.88,0.797 2.164,1.196 3.851,1.196 1.448,0 2.758,-0.313 3.93,-0.938 1.172,-0.625 2.273,-1.396 3.304,-2.312 m 0,3.812 c -0.375,0.281 -0.877,0.669 -1.507,1.164 -0.631,0.495 -1.237,0.888 -1.821,1.18 -0.812,0.427 -1.596,0.753 -2.351,0.976 -0.755,0.224 -1.821,0.336 -3.196,0.336 -1.114,0 -2.177,-0.211 -3.187,-0.632 -1.01,-0.422 -1.901,-1.013 -2.672,-1.774 -0.729,-0.75 -1.312,-1.674 -1.75,-2.773 -0.437,-1.099 -0.656,-2.258 -0.656,-3.477 0,-1.896 0.398,-3.505 1.195,-4.828 0.797,-1.323 2.055,-2.375 3.774,-3.156 1.531,-0.698 3.338,-1.182 5.421,-1.453 2.084,-0.271 4.334,-0.469 6.75,-0.594 v -0.891 c 0,-1.073 -0.164,-1.937 -0.492,-2.593 -0.328,-0.657 -0.784,-1.167 -1.367,-1.532 -0.583,-0.375 -1.299,-0.622 -2.148,-0.742 -0.849,-0.12 -1.722,-0.18 -2.618,-0.18 -1.052,0 -2.294,0.159 -3.726,0.477 -1.432,0.318 -2.867,0.779 -4.305,1.383 h -0.265 v -4.672 c 0.843,-0.24 2.054,-0.508 3.632,-0.805 1.579,-0.297 3.144,-0.445 4.696,-0.445 1.864,0 3.44,0.148 4.726,0.445 1.287,0.297 2.446,0.826 3.477,1.586 0.989,0.75 1.729,1.719 2.219,2.906 0.489,1.188 0.734,2.636 0.734,4.344 v 18.656 h -4.563 v -2.906 m 23.938,-11.062 c 0,5.031 -0.805,9.45 -2.414,13.257 -1.609,3.808 -3.841,7.399 -6.695,10.774 h -5.579 v -0.25 c 1.25,-1.125 2.511,-2.505 3.782,-4.141 1.271,-1.635 2.375,-3.437 3.312,-5.406 1.011,-2.094 1.813,-4.31 2.406,-6.648 0.594,-2.339 0.891,-4.868 0.891,-7.586 0,-2.688 -0.299,-5.227 -0.898,-7.618 -0.599,-2.39 -1.399,-4.596 -2.399,-6.617 -0.989,-2.01 -2.112,-3.823 -3.367,-5.437 -1.255,-1.615 -2.497,-2.985 -3.727,-4.11 V 0 h 5.579 c 2.833,3.365 5.06,6.943 6.679,10.734 1.62,3.792 2.43,8.219 2.43,13.282 m 43.25,13.968 h -4.578 V 22.453 c 0,-1.25 -0.063,-2.416 -0.188,-3.5 -0.125,-1.083 -0.359,-1.948 -0.703,-2.594 -0.375,-0.687 -0.896,-1.197 -1.562,-1.531 -0.667,-0.333 -1.578,-0.5 -2.735,-0.5 -1.135,0 -2.31,0.305 -3.523,0.914 -1.214,0.61 -2.399,1.404 -3.555,2.383 v 20.359 h -4.578 V 10.719 h 4.578 v 3.015 c 1.375,-1.218 2.729,-2.153 4.063,-2.804 1.333,-0.651 2.739,-0.977 4.218,-0.977 2.688,0 4.787,0.883 6.297,2.649 1.511,1.765 2.266,4.325 2.266,7.679 v 17.703 m 11.266,0 h -4.594 V 10.719 h 4.594 v 27.265 m 0.312,-31.843 h -5.234 v -4.75 h 5.234 v 4.75 m 16.828,32.453 c -1.864,0 -3.578,-0.289 -5.14,-0.867 -1.563,-0.579 -2.907,-1.451 -4.032,-2.618 -1.125,-1.177 -1.997,-2.656 -2.617,-4.437 -0.62,-1.781 -0.93,-3.875 -0.93,-6.281 0,-2.396 0.323,-4.464 0.969,-6.203 0.646,-1.74 1.505,-3.204 2.578,-4.391 1.073,-1.198 2.412,-2.117 4.016,-2.758 1.604,-0.641 3.323,-0.961 5.156,-0.961 1.5,0 2.946,0.211 4.336,0.633 1.391,0.422 2.633,0.909 3.727,1.461 v 5.156 h -0.266 c -0.333,-0.271 -0.755,-0.586 -1.266,-0.945 -0.51,-0.36 -1.13,-0.727 -1.859,-1.102 -0.635,-0.323 -1.385,-0.606 -2.25,-0.851 -0.864,-0.245 -1.693,-0.367 -2.484,-0.367 -2.386,0 -4.297,0.898 -5.735,2.695 -1.437,1.797 -2.156,4.341 -2.156,7.633 0,3.218 0.695,5.726 2.086,7.523 1.391,1.797 3.326,2.695 5.805,2.695 1.489,0 2.911,-0.307 4.265,-0.921 1.355,-0.615 2.552,-1.412 3.594,-2.391 h 0.266 v 5.156 c -0.459,0.209 -1.029,0.464 -1.711,0.766 -0.682,0.302 -1.3,0.526 -1.852,0.672 -0.781,0.229 -1.482,0.403 -2.101,0.523 -0.62,0.12 -1.42,0.18 -2.399,0.18 m 33.594,-0.61 h -4.578 V 22.453 c 0,-1.25 -0.063,-2.416 -0.188,-3.5 -0.125,-1.083 -0.359,-1.948 -0.703,-2.594 -0.375,-0.687 -0.896,-1.197 -1.562,-1.531 -0.667,-0.333 -1.578,-0.5 -2.735,-0.5 -1.135,0 -2.31,0.305 -3.523,0.914 -1.214,0.61 -2.399,1.404 -3.555,2.383 v 20.359 h -4.578 V 0 h 4.578 v 13.734 c 1.375,-1.218 2.729,-2.153 4.063,-2.804 1.333,-0.651 2.739,-0.977 4.218,-0.977 2.688,0 4.787,0.883 6.297,2.649 1.511,1.765 2.266,4.325 2.266,7.679 v 17.703 m 14.828,0.532 c -2.51,0 -4.466,-0.711 -5.867,-2.133 -1.401,-1.422 -2.102,-3.669 -2.102,-6.742 V 14.516 h -3.093 v -3.797 h 3.093 V 2.875 h 4.594 v 7.844 h 8.453 v 3.797 h -8.453 v 12.968 c 0,1.386 0.024,2.454 0.07,3.204 0.047,0.75 0.237,1.447 0.571,2.093 0.271,0.573 0.716,1.003 1.336,1.289 0.619,0.287 1.461,0.43 2.523,0.43 0.74,0 1.461,-0.112 2.164,-0.336 0.703,-0.224 1.206,-0.409 1.508,-0.555 h 0.281 v 4.125 c -0.864,0.25 -1.739,0.443 -2.625,0.579 -0.885,0.135 -1.703,0.203 -2.453,0.203 m 55.703,-0.532 V 22.219 c 0,-1.261 -0.049,-2.422 -0.148,-3.485 -0.099,-1.062 -0.305,-1.895 -0.617,-2.5 -0.323,-0.656 -0.787,-1.138 -1.391,-1.445 -0.604,-0.307 -1.417,-0.461 -2.438,-0.461 -0.947,0 -1.96,0.289 -3.039,0.867 -1.078,0.578 -2.195,1.414 -3.351,2.508 0.01,0.271 0.029,0.599 0.055,0.985 0.026,0.385 0.039,0.838 0.039,1.359 v 17.937 h -4.594 V 22.219 c 0,-1.261 -0.05,-2.422 -0.149,-3.485 -0.099,-1.062 -0.299,-1.895 -0.601,-2.5 -0.333,-0.656 -0.8,-1.138 -1.399,-1.445 -0.599,-0.307 -1.414,-0.461 -2.445,-0.461 -0.989,0 -2.029,0.31 -3.117,0.93 -1.089,0.62 -2.149,1.409 -3.18,2.367 v 20.359 h -4.578 V 10.719 h 4.578 v 3.015 c 1.209,-1.197 2.401,-2.127 3.578,-2.789 1.177,-0.661 2.474,-0.992 3.891,-0.992 1.615,0 3.044,0.367 4.289,1.102 1.245,0.734 2.195,1.94 2.852,3.617 1.375,-1.552 2.724,-2.727 4.046,-3.524 1.323,-0.796 2.756,-1.195 4.297,-1.195 1.177,0 2.245,0.185 3.203,0.555 0.959,0.37 1.797,0.961 2.516,1.773 0.729,0.823 1.294,1.854 1.695,3.094 0.401,1.24 0.602,2.797 0.602,4.672 v 17.937 h -4.594 m 33.469,-13.625 c 0,4.594 -1.107,8.138 -3.32,10.633 -2.214,2.495 -5.159,3.742 -8.836,3.742 -3.792,0 -6.774,-1.289 -8.946,-3.867 -2.171,-2.578 -3.257,-6.08 -3.257,-10.508 0,-4.552 1.119,-8.091 3.359,-10.617 2.24,-2.526 5.187,-3.789 8.844,-3.789 3.677,0 6.622,1.258 8.836,3.774 2.213,2.515 3.32,6.06 3.32,10.632 m -4.734,0 c 0,-3.531 -0.644,-6.156 -1.93,-7.875 -1.287,-1.718 -3.117,-2.578 -5.492,-2.578 -2.386,0 -4.227,0.86 -5.524,2.578 -1.297,1.719 -1.945,4.344 -1.945,7.875 0,3.417 0.648,6.008 1.945,7.774 1.297,1.765 3.138,2.648 5.524,2.648 2.364,0 4.192,-0.867 5.484,-2.601 1.292,-1.735 1.938,-4.341 1.938,-7.821 m 0.078,-18.218 h -4.907 v -4.75 h 4.907 v 4.75 m -10.078,0 h -4.907 v -4.75 h 4.907 v 4.75 m 35.718,24.453 V 15.625 c -1.145,-0.552 -2.203,-0.948 -3.172,-1.187 -0.968,-0.24 -1.932,-0.36 -2.89,-0.36 -2.323,0 -4.154,0.854 -5.492,2.563 -1.339,1.708 -2.008,4.161 -2.008,7.359 0,3.021 0.51,5.32 1.531,6.898 1.021,1.579 2.667,2.368 4.938,2.368 1.187,0 2.414,-0.235 3.679,-0.703 1.266,-0.469 2.404,-1.125 3.414,-1.969 m -15.437,11.765 c 0.312,0.125 0.768,0.297 1.367,0.516 0.599,0.219 1.284,0.427 2.055,0.625 0.843,0.208 1.625,0.378 2.343,0.508 0.719,0.13 1.5,0.195 2.344,0.195 1.417,0 2.617,-0.185 3.602,-0.555 0.984,-0.369 1.752,-0.888 2.304,-1.554 0.521,-0.677 0.889,-1.453 1.102,-2.328 0.214,-0.875 0.32,-1.875 0.32,-3 v -2.391 c -1.239,1.073 -2.453,1.865 -3.64,2.375 -1.188,0.51 -2.677,0.766 -4.469,0.766 -3.115,0 -5.591,-1.154 -7.43,-3.461 -1.838,-2.308 -2.758,-5.628 -2.758,-9.961 0,-2.261 0.318,-4.266 0.954,-6.016 0.635,-1.75 1.489,-3.234 2.562,-4.453 1.031,-1.177 2.245,-2.083 3.641,-2.719 1.396,-0.635 2.843,-0.953 4.343,-0.953 1.417,0 2.644,0.167 3.68,0.5 1.037,0.334 2.076,0.813 3.117,1.438 l 0.266,-1.172 h 4.312 v 24.172 c 0,4.614 -1.007,8.005 -3.023,10.172 -2.016,2.166 -5.102,3.25 -9.258,3.25 -1.333,0 -2.695,-0.107 -4.086,-0.321 -1.39,-0.213 -2.69,-0.497 -3.898,-0.851 v -4.782 h 0.25 m 31.719,-4.375 h -4.594 V 0 h 4.594 v 37.984 m 11,0 h -4.594 V 10.719 h 4.594 v 27.265 m 0.312,-31.843 h -5.234 v -4.75 h 5.234 v 4.75 m 16.828,32.453 c -1.864,0 -3.578,-0.289 -5.14,-0.867 -1.563,-0.579 -2.907,-1.451 -4.032,-2.618 -1.125,-1.177 -1.997,-2.656 -2.617,-4.437 -0.62,-1.781 -0.93,-3.875 -0.93,-6.281 0,-2.396 0.323,-4.464 0.969,-6.203 0.646,-1.74 1.505,-3.204 2.578,-4.391 1.073,-1.198 2.412,-2.117 4.016,-2.758 1.604,-0.641 3.323,-0.961 5.156,-0.961 1.5,0 2.946,0.211 4.336,0.633 1.391,0.422 2.633,0.909 3.727,1.461 v 5.156 h -0.266 c -0.333,-0.271 -0.755,-0.586 -1.266,-0.945 -0.51,-0.36 -1.13,-0.727 -1.859,-1.102 -0.635,-0.323 -1.385,-0.606 -2.25,-0.851 -0.864,-0.245 -1.693,-0.367 -2.484,-0.367 -2.386,0 -4.297,0.898 -5.735,2.695 -1.437,1.797 -2.156,4.341 -2.156,7.633 0,3.218 0.695,5.726 2.086,7.523 1.391,1.797 3.326,2.695 5.805,2.695 1.489,0 2.911,-0.307 4.265,-0.921 1.355,-0.615 2.552,-1.412 3.594,-2.391 h 0.266 v 5.156 c -0.459,0.209 -1.029,0.464 -1.711,0.766 -0.682,0.302 -1.3,0.526 -1.852,0.672 -0.781,0.229 -1.482,0.403 -2.101,0.523 -0.62,0.12 -1.42,0.18 -2.399,0.18 m 33.594,-0.61 h -4.578 V 22.453 c 0,-1.25 -0.063,-2.416 -0.188,-3.5 -0.125,-1.083 -0.359,-1.948 -0.703,-2.594 -0.375,-0.687 -0.896,-1.197 -1.562,-1.531 -0.667,-0.333 -1.578,-0.5 -2.735,-0.5 -1.135,0 -2.31,0.305 -3.523,0.914 -1.214,0.61 -2.399,1.404 -3.555,2.383 v 20.359 h -4.578 V 0 h 4.578 v 13.734 c 1.375,-1.218 2.729,-2.153 4.063,-2.804 1.333,-0.651 2.739,-0.977 4.218,-0.977 2.688,0 4.787,0.883 6.297,2.649 1.511,1.765 2.266,4.325 2.266,7.679 v 17.703"
     id="path425" />
  <path
     class="StaffText"
     d="m 1143.212,24.266 c 0,-3.261 -0.49,-5.732 -1.48,-7.414 -0.99,-1.683 -2.59,-2.524 -4.78,-2.524 -1.25,0 -2.52,0.292 -3.8,0.875 -1.28,0.584 -2.44,1.323 -3.48,2.219 v 15.625 c 1.15,0.573 2.18,0.976 3.07,1.211 0.9,0.234 1.88,0.351 2.96,0.351 2.34,0 4.18,-0.828 5.51,-2.484 1.34,-1.656 2,-4.276 2,-7.859 m 4.75,-0.375 c 0,4.468 -1.08,8.06 -3.25,10.773 -2.16,2.714 -4.88,4.07 -8.14,4.07 -1.48,0 -2.74,-0.182 -3.79,-0.546 -1.04,-0.365 -2.08,-0.855 -3.11,-1.469 l -0.29,1.265 h -4.29 V 0 h 4.58 v 13.563 c 1.15,-1.042 2.41,-1.904 3.76,-2.586 1.36,-0.683 2.89,-1.024 4.59,-1.024 3.08,0 5.5,1.235 7.28,3.703 1.77,2.469 2.66,5.881 2.66,10.235 m 18.3,0.125 c 0,5.031 -0.81,9.45 -2.41,13.257 -1.61,3.808 -3.85,7.399 -6.7,10.774 h -5.58 v -0.25 c 1.25,-1.125 2.51,-2.505 3.78,-4.141 1.27,-1.635 2.38,-3.437 3.32,-5.406 1.01,-2.094 1.81,-4.31 2.4,-6.648 0.6,-2.339 0.89,-4.868 0.89,-7.586 0,-2.688 -0.3,-5.227 -0.9,-7.618 -0.6,-2.39 -1.39,-4.596 -2.39,-6.617 -0.99,-2.01 -2.12,-3.823 -3.37,-5.437 -1.26,-1.615 -2.5,-2.985 -3.73,-4.11 V 0 h 5.58 c 2.83,3.365 5.06,6.943 6.68,10.734 1.62,3.792 2.43,8.219 2.43,13.282 m 52.78,13.968 V 22.219 c 0,-1.261 -0.05,-2.422 -0.15,-3.485 -0.1,-1.062 -0.3,-1.895 -0.62,-2.5 -0.32,-0.656 -0.78,-1.138 -1.39,-1.445 -0.6,-0.307 -1.41,-0.461 -2.43,-0.461 -0.95,0 -1.96,0.289 -3.04,0.867 -1.08,0.578 -2.2,1.414 -3.35,2.508 0.01,0.271 0.02,0.599 0.05,0.985 0.03,0.385 0.04,0.838 0.04,1.359 v 17.937 h -4.59 V 22.219 c 0,-1.261 -0.05,-2.422 -0.15,-3.485 -0.1,-1.062 -0.3,-1.895 -0.6,-2.5 -0.34,-0.656 -0.8,-1.138 -1.4,-1.445 -0.6,-0.307 -1.42,-0.461 -2.45,-0.461 -0.99,0 -2.03,0.31 -3.11,0.93 -1.09,0.62 -2.15,1.409 -3.18,2.367 v 20.359 h -4.58 V 10.719 h 4.58 v 3.015 c 1.2,-1.197 2.4,-2.127 3.57,-2.789 1.18,-0.661 2.48,-0.992 3.89,-0.992 1.62,0 3.05,0.367 4.29,1.102 1.25,0.734 2.2,1.94 2.85,3.617 1.38,-1.552 2.73,-2.727 4.05,-3.524 1.32,-0.796 2.76,-1.195 4.3,-1.195 1.18,0 2.24,0.185 3.2,0.555 0.96,0.37 1.8,0.961 2.52,1.773 0.73,0.823 1.29,1.854 1.69,3.094 0.4,1.24 0.6,2.797 0.6,4.672 v 17.937 h -4.59 m 33.47,-13.625 c 0,4.594 -1.11,8.138 -3.32,10.633 -2.21,2.495 -5.16,3.742 -8.84,3.742 -3.79,0 -6.77,-1.289 -8.94,-3.867 -2.17,-2.578 -3.26,-6.08 -3.26,-10.508 0,-4.552 1.12,-8.091 3.36,-10.617 2.24,-2.526 5.19,-3.789 8.84,-3.789 3.68,0 6.63,1.258 8.84,3.774 2.21,2.515 3.32,6.06 3.32,10.632 m -4.74,0 c 0,-3.531 -0.64,-6.156 -1.92,-7.875 -1.29,-1.718 -3.12,-2.578 -5.5,-2.578 -2.38,0 -4.22,0.86 -5.52,2.578 -1.3,1.719 -1.95,4.344 -1.95,7.875 0,3.417 0.65,6.008 1.95,7.774 1.3,1.765 3.14,2.648 5.52,2.648 2.37,0 4.2,-0.867 5.49,-2.601 1.29,-1.735 1.93,-4.341 1.93,-7.821 m 0.08,-18.218 h -4.9 v -4.75 h 4.9 v 4.75 m -10.08,0 h -4.9 v -4.75 h 4.9 v 4.75 m 35.72,24.453 V 15.625 c -1.14,-0.552 -2.2,-0.948 -3.17,-1.187 -0.97,-0.24 -1.93,-0.36 -2.89,-0.36 -2.32,0 -4.15,0.854 -5.49,2.563 -1.34,1.708 -2.01,4.161 -2.01,7.359 0,3.021 0.51,5.32 1.53,6.898 1.02,1.579 2.67,2.368 4.94,2.368 1.19,0 2.41,-0.235 3.68,-0.703 1.27,-0.469 2.4,-1.125 3.41,-1.969 m -15.43,11.765 c 0.31,0.125 0.76,0.297 1.36,0.516 0.6,0.219 1.29,0.427 2.06,0.625 0.84,0.208 1.62,0.378 2.34,0.508 0.72,0.13 1.5,0.195 2.35,0.195 1.41,0 2.61,-0.185 3.6,-0.555 0.98,-0.369 1.75,-0.888 2.3,-1.554 0.52,-0.677 0.89,-1.453 1.1,-2.328 0.22,-0.875 0.32,-1.875 0.32,-3 v -2.391 c -1.24,1.073 -2.45,1.865 -3.64,2.375 -1.18,0.51 -2.67,0.766 -4.47,0.766 -3.11,0 -5.59,-1.154 -7.43,-3.461 -1.83,-2.308 -2.75,-5.628 -2.75,-9.961 0,-2.261 0.31,-4.266 0.95,-6.016 0.64,-1.75 1.49,-3.234 2.56,-4.453 1.03,-1.177 2.25,-2.083 3.64,-2.719 1.4,-0.635 2.85,-0.953 4.35,-0.953 1.41,0 2.64,0.167 3.68,0.5 1.03,0.334 2.07,0.813 3.11,1.438 l 0.27,-1.172 h 4.31 v 24.172 c 0,4.614 -1.01,8.005 -3.02,10.172 -2.02,2.166 -5.1,3.25 -9.26,3.25 -1.33,0 -2.69,-0.107 -4.09,-0.321 -1.39,-0.213 -2.69,-0.497 -3.89,-0.851 v -4.782 h 0.25 m 31.71,-4.375 h -4.59 V 0 h 4.59 v 37.984 m 11,0 h -4.59 V 10.719 h 4.59 v 27.265 m 0.32,-31.843 h -5.24 v -4.75 h 5.24 v 4.75 m 16.83,32.453 c -1.87,0 -3.58,-0.289 -5.15,-0.867 -1.56,-0.579 -2.9,-1.451 -4.03,-2.618 -1.12,-1.177 -1.99,-2.656 -2.61,-4.437 -0.62,-1.781 -0.93,-3.875 -0.93,-6.281 0,-2.396 0.32,-4.464 0.97,-6.203 0.64,-1.74 1.5,-3.204 2.57,-4.391 1.08,-1.198 2.42,-2.117 4.02,-2.758 1.6,-0.641 3.32,-0.961 5.16,-0.961 1.5,0 2.94,0.211 4.33,0.633 1.39,0.422 2.63,0.909 3.73,1.461 v 5.156 h -0.27 c -0.33,-0.271 -0.75,-0.586 -1.26,-0.945 -0.51,-0.36 -1.13,-0.727 -1.86,-1.102 -0.64,-0.323 -1.39,-0.606 -2.25,-0.851 -0.87,-0.245 -1.7,-0.367 -2.49,-0.367 -2.38,0 -4.29,0.898 -5.73,2.695 -1.44,1.797 -2.16,4.341 -2.16,7.633 0,3.218 0.7,5.726 2.09,7.523 1.39,1.797 3.32,2.695 5.8,2.695 1.49,0 2.91,-0.307 4.27,-0.921 1.35,-0.615 2.55,-1.412 3.59,-2.391 h 0.27 v 5.156 c -0.46,0.209 -1.03,0.464 -1.71,0.766 -0.69,0.302 -1.3,0.526 -1.85,0.672 -0.79,0.229 -1.49,0.403 -2.11,0.523 -0.62,0.12 -1.42,0.18 -2.39,0.18 m 33.59,-0.61 h -4.58 V 22.453 c 0,-1.25 -0.06,-2.416 -0.19,-3.5 -0.12,-1.083 -0.36,-1.948 -0.7,-2.594 -0.37,-0.687 -0.9,-1.197 -1.56,-1.531 -0.67,-0.333 -1.58,-0.5 -2.74,-0.5 -1.13,0 -2.31,0.305 -3.52,0.914 -1.21,0.61 -2.4,1.404 -3.55,2.383 v 20.359 h -4.58 V 0 h 4.58 v 13.734 c 1.37,-1.218 2.72,-2.153 4.06,-2.804 1.33,-0.651 2.74,-0.977 4.22,-0.977 2.68,0 4.78,0.883 6.29,2.649 1.51,1.765 2.27,4.325 2.27,7.679 v 17.703"
     id="path427" />
  <path
     class="StaffText"
     d="m 2051.102,38.594 c -1.87,0 -3.58,-0.289 -5.14,-0.867 -1.57,-0.579 -2.91,-1.451 -4.03,-2.618 -1.13,-1.177 -2,-2.656 -2.62,-4.437 -0.62,-1.781 -0.93,-3.875 -0.93,-6.281 0,-2.396 0.32,-4.464 0.97,-6.203 0.64,-1.74 1.5,-3.204 2.58,-4.391 1.07,-1.198 2.41,-2.117 4.01,-2.758 1.61,-0.641 3.32,-0.961 5.16,-0.961 1.5,0 2.94,0.211 4.33,0.633 1.39,0.422 2.64,0.909 3.73,1.461 v 5.156 h -0.27 c -0.33,-0.271 -0.75,-0.586 -1.26,-0.945 -0.51,-0.36 -1.13,-0.727 -1.86,-1.102 -0.64,-0.323 -1.39,-0.606 -2.25,-0.851 -0.87,-0.245 -1.69,-0.367 -2.48,-0.367 -2.39,0 -4.3,0.898 -5.74,2.695 -1.44,1.797 -2.16,4.341 -2.16,7.633 0,3.218 0.7,5.726 2.09,7.523 1.39,1.797 3.33,2.695 5.81,2.695 1.48,0 2.91,-0.307 4.26,-0.921 1.35,-0.615 2.55,-1.412 3.59,-2.391 h 0.27 v 5.156 c -0.46,0.209 -1.03,0.464 -1.71,0.766 -0.68,0.302 -1.3,0.526 -1.85,0.672 -0.78,0.229 -1.48,0.403 -2.1,0.523 -0.62,0.12 -1.42,0.18 -2.4,0.18 m 25.34,-14.578 c 0,5.031 -0.8,9.45 -2.41,13.257 -1.61,3.808 -3.84,7.399 -6.7,10.774 h -5.58 v -0.25 c 1.25,-1.125 2.51,-2.505 3.79,-4.141 1.27,-1.635 2.37,-3.437 3.31,-5.406 1.01,-2.094 1.81,-4.31 2.4,-6.648 0.6,-2.339 0.89,-4.868 0.89,-7.586 0,-2.688 -0.3,-5.227 -0.89,-7.618 -0.6,-2.39 -1.4,-4.596 -2.4,-6.617 -0.99,-2.01 -2.11,-3.823 -3.37,-5.437 -1.25,-1.615 -2.5,-2.985 -3.73,-4.11 V 0 h 5.58 c 2.84,3.365 5.06,6.943 6.68,10.734 1.62,3.792 2.43,8.219 2.43,13.282 m 52.78,13.968 V 22.219 c 0,-1.261 -0.05,-2.422 -0.15,-3.485 -0.09,-1.062 -0.3,-1.895 -0.61,-2.5 -0.33,-0.656 -0.79,-1.138 -1.39,-1.445 -0.61,-0.307 -1.42,-0.461 -2.44,-0.461 -0.95,0 -1.96,0.289 -3.04,0.867 -1.08,0.578 -2.2,1.414 -3.35,2.508 0.01,0.271 0.03,0.599 0.05,0.985 0.03,0.385 0.04,0.838 0.04,1.359 v 17.937 h -4.59 V 22.219 c 0,-1.261 -0.05,-2.422 -0.15,-3.485 -0.1,-1.062 -0.3,-1.895 -0.6,-2.5 -0.34,-0.656 -0.8,-1.138 -1.4,-1.445 -0.6,-0.307 -1.41,-0.461 -2.45,-0.461 -0.99,0 -2.02,0.31 -3.11,0.93 -1.09,0.62 -2.15,1.409 -3.18,2.367 v 20.359 h -4.58 V 10.719 h 4.58 v 3.015 c 1.21,-1.197 2.4,-2.127 3.58,-2.789 1.17,-0.661 2.47,-0.992 3.89,-0.992 1.61,0 3.04,0.367 4.29,1.102 1.24,0.734 2.19,1.94 2.85,3.617 1.37,-1.552 2.72,-2.727 4.04,-3.524 1.33,-0.796 2.76,-1.195 4.3,-1.195 1.18,0 2.25,0.185 3.2,0.555 0.96,0.37 1.8,0.961 2.52,1.773 0.73,0.823 1.29,1.854 1.69,3.094 0.41,1.24 0.61,2.797 0.61,4.672 v 17.937 h -4.6 m 33.47,-13.625 c 0,4.594 -1.11,8.138 -3.32,10.633 -2.21,2.495 -5.16,3.742 -8.83,3.742 -3.8,0 -6.78,-1.289 -8.95,-3.867 -2.17,-2.578 -3.26,-6.08 -3.26,-10.508 0,-4.552 1.12,-8.091 3.36,-10.617 2.24,-2.526 5.19,-3.789 8.85,-3.789 3.67,0 6.62,1.258 8.83,3.774 2.21,2.515 3.32,6.06 3.32,10.632 m -4.73,0 c 0,-3.531 -0.65,-6.156 -1.93,-7.875 -1.29,-1.718 -3.12,-2.578 -5.49,-2.578 -2.39,0 -4.23,0.86 -5.53,2.578 -1.3,1.719 -1.94,4.344 -1.94,7.875 0,3.417 0.64,6.008 1.94,7.774 1.3,1.765 3.14,2.648 5.53,2.648 2.36,0 4.19,-0.867 5.48,-2.601 1.29,-1.735 1.94,-4.341 1.94,-7.821 m 0.08,-18.218 h -4.91 v -4.75 h 4.91 v 4.75 m -10.08,0 h -4.91 v -4.75 h 4.91 v 4.75 m 35.72,24.453 V 15.625 c -1.15,-0.552 -2.21,-0.948 -3.18,-1.187 -0.96,-0.24 -1.93,-0.36 -2.89,-0.36 -2.32,0 -4.15,0.854 -5.49,2.563 -1.34,1.708 -2.01,4.161 -2.01,7.359 0,3.021 0.51,5.32 1.53,6.898 1.03,1.579 2.67,2.368 4.94,2.368 1.19,0 2.42,-0.235 3.68,-0.703 1.27,-0.469 2.41,-1.125 3.42,-1.969 m -15.44,11.765 c 0.31,0.125 0.77,0.297 1.37,0.516 0.59,0.219 1.28,0.427 2.05,0.625 0.84,0.208 1.63,0.378 2.34,0.508 0.72,0.13 1.5,0.195 2.35,0.195 1.41,0 2.61,-0.185 3.6,-0.555 0.98,-0.369 1.75,-0.888 2.3,-1.554 0.52,-0.677 0.89,-1.453 1.11,-2.328 0.21,-0.875 0.32,-1.875 0.32,-3 v -2.391 c -1.24,1.073 -2.46,1.865 -3.64,2.375 -1.19,0.51 -2.68,0.766 -4.47,0.766 -3.12,0 -5.59,-1.154 -7.43,-3.461 -1.84,-2.308 -2.76,-5.628 -2.76,-9.961 0,-2.261 0.32,-4.266 0.95,-6.016 0.64,-1.75 1.49,-3.234 2.56,-4.453 1.04,-1.177 2.25,-2.083 3.65,-2.719 1.39,-0.635 2.84,-0.953 4.34,-0.953 1.42,0 2.64,0.167 3.68,0.5 1.03,0.334 2.07,0.813 3.12,1.438 l 0.26,-1.172 h 4.31 v 24.172 c 0,4.614 -1,8.005 -3.02,10.172 -2.02,2.166 -5.1,3.25 -9.26,3.25 -1.33,0 -2.69,-0.107 -4.08,-0.321 -1.39,-0.213 -2.69,-0.497 -3.9,-0.851 v -4.782 h 0.25 m 31.72,-4.375 h -4.6 V 0 h 4.6 v 37.984 m 11,0 h -4.6 V 10.719 h 4.6 v 27.265 m 0.31,-31.843 h -5.23 v -4.75 h 5.23 v 4.75 m 16.83,32.453 c -1.87,0 -3.58,-0.289 -5.14,-0.867 -1.57,-0.579 -2.91,-1.451 -4.03,-2.618 -1.13,-1.177 -2,-2.656 -2.62,-4.437 -0.62,-1.781 -0.93,-3.875 -0.93,-6.281 0,-2.396 0.32,-4.464 0.97,-6.203 0.64,-1.74 1.5,-3.204 2.58,-4.391 1.07,-1.198 2.41,-2.117 4.01,-2.758 1.61,-0.641 3.32,-0.961 5.16,-0.961 1.5,0 2.94,0.211 4.33,0.633 1.39,0.422 2.64,0.909 3.73,1.461 v 5.156 h -0.27 c -0.33,-0.271 -0.75,-0.586 -1.26,-0.945 -0.51,-0.36 -1.13,-0.727 -1.86,-1.102 -0.64,-0.323 -1.39,-0.606 -2.25,-0.851 -0.87,-0.245 -1.69,-0.367 -2.48,-0.367 -2.39,0 -4.3,0.898 -5.74,2.695 -1.44,1.797 -2.16,4.341 -2.16,7.633 0,3.218 0.7,5.726 2.09,7.523 1.39,1.797 3.33,2.695 5.81,2.695 1.48,0 2.91,-0.307 4.26,-0.921 1.35,-0.615 2.55,-1.412 3.59,-2.391 h 0.27 v 5.156 c -0.46,0.209 -1.03,0.464 -1.71,0.766 -0.68,0.302 -1.3,0.526 -1.85,0.672 -0.78,0.229 -1.48,0.403 -2.1,0.523 -0.62,0.12 -1.42,0.18 -2.4,0.18 m 33.59,-0.61 h -4.58 V 22.453 c 0,-1.25 -0.06,-2.416 -0.18,-3.5 -0.13,-1.083 -0.36,-1.948 -0.71,-2.594 -0.37,-0.687 -0.89,-1.197 -1.56,-1.531 -0.67,-0.333 -1.58,-0.5 -2.73,-0.5 -1.14,0 -2.31,0.305 -3.53,0.914 -1.21,0.61 -2.4,1.404 -3.55,2.383 v 20.359 h -4.58 V 0 h 4.58 v 13.734 c 1.37,-1.218 2.73,-2.153 4.06,-2.804 1.33,-0.651 2.74,-0.977 4.22,-0.977 2.69,0 4.79,0.883 6.3,2.649 1.51,1.765 2.26,4.325 2.26,7.679 v 17.703"
     id="path429" />
  <path
     class="NoteDot"
     d="m 241.049,236.384 c 0,-2.7745 -2.1855,-4.96 -4.96,-4.96 -2.7745,0 -4.96,2.1855 -4.96,4.96 0,2.7745 2.1855,4.96 4.96,4.96 2.7745,0 4.96,-2.1855 4.96,-4.96"
     id="path431"
     style="stroke-width:0.992" />
  <path
     class="NoteDot"
     d="m 1025.402,236.384 c 0,-2.7745 -2.1855,-4.96 -4.96,-4.96 -2.7745,0 -4.96,2.1855 -4.96,4.96 0,2.7745 2.1855,4.96 4.96,4.96 2.7745,0 4.96,-2.1855 4.96,-4.96"
     id="path433"
     style="stroke-width:0.992" />
  <path
     class="NoteDot"
     d="m 1863.562,236.384 c 0,-2.7745 -2.1855,-4.96 -4.96,-4.96 -2.7745,0 -4.96,2.1855 -4.96,4.96 0,2.7745 2.1855,4.96 4.96,4.96 2.7745,0 4.96,-2.1855 4.96,-4.96"
     id="path435"
     style="stroke-width:0.992" />
</svg>
