<?xml version="1.0" encoding="UTF-8" standalone="no"?>
<svg
   width="2552.0081"
   height="826.87299"
   viewBox="0 0 2552.0081 826.87301"
   version="1.2"
   id="svg356"
   sodipodi:docname="Stiluebung-6-2.svg"
   inkscape:version="1.2.1 (9c6d41e410, 2022-07-14)"
   xmlns:inkscape="http://www.inkscape.org/namespaces/inkscape"
   xmlns:sodipodi="http://sodipodi.sourceforge.net/DTD/sodipodi-0.dtd"
   xmlns="http://www.w3.org/2000/svg"
   xmlns:svg="http://www.w3.org/2000/svg">
  <defs
     id="defs360" />
  <sodipodi:namedview
     id="namedview358"
     pagecolor="#505050"
     bordercolor="#eeeeee"
     borderopacity="1"
     inkscape:showpageshadow="0"
     inkscape:pageopacity="0"
     inkscape:pagecheckerboard="0"
     inkscape:deskcolor="#505050"
     showgrid="false"
     inkscape:zoom="0.25021386"
     inkscape:cx="855.26836"
     inkscape:cy="1830.4341"
     inkscape:current-layer="svg356" />
  <title
     id="title2">Stiluebung-6</title>
  <desc
     id="desc4">Generated by MuseScore 4.0.0</desc>
  <polyline
     class="StaffLines"
     fill="none"
     stroke="#000000"
     stroke-width="3.22"
     stroke-linejoin="bevel"
     points="212.598,386.199 2764.6,386.199"
     id="polyline8"
     transform="translate(-212.597,-276.757)" />
  <polyline
     class="StaffLines"
     fill="none"
     stroke="#000000"
     stroke-width="3.22"
     stroke-linejoin="bevel"
     points="212.598,410.999 2764.6,410.999"
     id="polyline10"
     transform="translate(-212.597,-276.757)" />
  <polyline
     class="StaffLines"
     fill="none"
     stroke="#000000"
     stroke-width="3.22"
     stroke-linejoin="bevel"
     points="212.598,435.799 2764.6,435.799"
     id="polyline12"
     transform="translate(-212.597,-276.757)" />
  <polyline
     class="StaffLines"
     fill="none"
     stroke="#000000"
     stroke-width="3.22"
     stroke-linejoin="bevel"
     points="212.598,460.599 2764.6,460.599"
     id="polyline14"
     transform="translate(-212.597,-276.757)" />
  <polyline
     class="StaffLines"
     fill="none"
     stroke="#000000"
     stroke-width="3.22"
     stroke-linejoin="bevel"
     points="212.598,485.399 2764.6,485.399"
     id="polyline16"
     transform="translate(-212.597,-276.757)" />
  <polyline
     class="StaffLines"
     fill="none"
     stroke="#000000"
     stroke-width="3.22"
     stroke-linejoin="bevel"
     points="212.598,854.716 2764.6,854.716"
     id="polyline18"
     transform="translate(-212.597,-276.757)" />
  <polyline
     class="StaffLines"
     fill="none"
     stroke="#000000"
     stroke-width="3.22"
     stroke-linejoin="bevel"
     points="212.598,879.516 2764.6,879.516"
     id="polyline20"
     transform="translate(-212.597,-276.757)" />
  <polyline
     class="StaffLines"
     fill="none"
     stroke="#000000"
     stroke-width="3.22"
     stroke-linejoin="bevel"
     points="212.598,904.316 2764.6,904.316"
     id="polyline22"
     transform="translate(-212.597,-276.757)" />
  <polyline
     class="StaffLines"
     fill="none"
     stroke="#000000"
     stroke-width="3.22"
     stroke-linejoin="bevel"
     points="212.598,929.116 2764.6,929.116"
     id="polyline24"
     transform="translate(-212.597,-276.757)" />
  <polyline
     class="StaffLines"
     fill="none"
     stroke="#000000"
     stroke-width="3.22"
     stroke-linejoin="bevel"
     points="212.598,953.916 2764.6,953.916"
     id="polyline26"
     transform="translate(-212.597,-276.757)" />
  <path
     class="TieSegment"
     stroke="#000000"
     stroke-width="2.48"
     stroke-linecap="round"
     stroke-linejoin="round"
     fill-rule="evenodd"
     d="m 1688.023,115.766 c 30.03,-25.8 120.12,-25.8 150.15,0 -30.03,-19.848 -120.12,-19.848 -150.15,0"
     id="path28" />
  <path
     class="TieSegment"
     stroke="#000000"
     stroke-width="2.48"
     stroke-linecap="round"
     stroke-linejoin="round"
     fill-rule="evenodd"
     d="m 740.284,149.37 c 46.714,-35.216 186.859,-35.216 233.569,0 -46.71,-29.264 -186.855,-29.264 -233.569,0"
     id="path30" />
  <path
     class="TieSegment"
     stroke="#000000"
     stroke-width="2.48"
     stroke-linecap="round"
     stroke-linejoin="round"
     fill-rule="evenodd"
     d="m 344.659,200.851 c 27.07,17.596 108.277,17.596 135.346,0 -27.069,23.548 -108.276,23.548 -135.346,0"
     id="path32" />
  <path
     class="TieSegment"
     stroke="#000000"
     stroke-width="2.48"
     stroke-linecap="round"
     stroke-linejoin="round"
     fill-rule="evenodd"
     d="m 1961.643,200.851 c 27.07,17.596 108.28,17.596 135.35,0 -27.07,23.548 -108.28,23.548 -135.35,0"
     id="path34" />
  <path
     class="TieSegment"
     stroke="#000000"
     stroke-width="2.48"
     stroke-linecap="round"
     stroke-linejoin="round"
     fill-rule="evenodd"
     d="m 1837.503,637.231 c 46.72,29.264 186.86,29.264 233.57,0 -46.71,35.216 -186.85,35.216 -233.57,0"
     id="path36" />
  <polyline
     class="BarLine"
     stroke="#000000"
     stroke-width="3.97"
     stroke-linejoin="bevel"
     points="214.582,384.587 214.582,854.716"
     id="polyline38"
     transform="translate(-212.597,-276.757)" />
  <polyline
     class="BarLine"
     stroke="#000000"
     stroke-width="3.97"
     stroke-linejoin="bevel"
     points="895.892,384.587 895.892,854.716"
     id="polyline40"
     transform="translate(-212.597,-276.757)" />
  <polyline
     class="BarLine"
     stroke="#000000"
     stroke-width="3.97"
     stroke-linejoin="bevel"
     points="1451.33,384.587 1451.33,854.716"
     id="polyline42"
     transform="translate(-212.597,-276.757)" />
  <polyline
     class="BarLine"
     stroke="#000000"
     stroke-width="3.97"
     stroke-linejoin="bevel"
     points="1982.1,384.587 1982.1,854.716"
     id="polyline44"
     transform="translate(-212.597,-276.757)" />
  <polyline
     class="BarLine"
     stroke="#000000"
     stroke-width="3.97"
     stroke-linejoin="bevel"
     points="2762.62,384.587 2762.62,854.716"
     id="polyline46"
     transform="translate(-212.597,-276.757)" />
  <polyline
     class="BarLine"
     stroke="#000000"
     stroke-width="3.97"
     stroke-linejoin="bevel"
     points="2512.88,384.587 2512.88,854.716"
     id="polyline48"
     transform="translate(-212.597,-276.757)" />
  <polyline
     class="BarLine"
     stroke="#000000"
     stroke-width="3.97"
     stroke-linejoin="bevel"
     points="2762.62,853.104 2762.62,955.528"
     id="polyline50"
     transform="translate(-212.597,-276.757)" />
  <polyline
     class="BarLine"
     stroke="#000000"
     stroke-width="3.97"
     stroke-linejoin="bevel"
     points="214.582,853.104 214.582,955.528"
     id="polyline52"
     transform="translate(-212.597,-276.757)" />
  <polyline
     class="BarLine"
     stroke="#000000"
     stroke-width="3.97"
     stroke-linejoin="bevel"
     points="1451.33,853.104 1451.33,955.528"
     id="polyline54"
     transform="translate(-212.597,-276.757)" />
  <polyline
     class="BarLine"
     stroke="#000000"
     stroke-width="3.97"
     stroke-linejoin="bevel"
     points="895.892,853.104 895.892,955.528"
     id="polyline56"
     transform="translate(-212.597,-276.757)" />
  <polyline
     class="BarLine"
     stroke="#000000"
     stroke-width="3.97"
     stroke-linejoin="bevel"
     points="2512.88,853.104 2512.88,955.528"
     id="polyline58"
     transform="translate(-212.597,-276.757)" />
  <polyline
     class="BarLine"
     stroke="#000000"
     stroke-width="3.97"
     stroke-linejoin="bevel"
     points="1982.1,853.104 1982.1,955.528"
     id="polyline60"
     transform="translate(-212.597,-276.757)" />
  <path
     class="Accidental"
     d="m 1071.5865,172.13946 c 0.6976,-0.29452 1.1936,-1.10052 1.1936,-1.68947 v -7.03706 c 0,-0.496 -0.31,-0.806 -0.6976,-0.806 -0.2015,0 -0.2944,0 -0.496,0.10852 0,0 -1.984,0.79053 -2.48,0.88348 -0.6975,0 -1.395,-0.496 -1.395,-1.28643 v -12.10558 c 0,-0.58895 -0.589,-1.08496 -1.3794,-1.08496 -0.992,0 -1.5966,0.49601 -1.5966,1.08496 v 12.89601 c -0.093,0.992 -0.3874,2.294 -1.2865,2.88305 -1.1935,0.69748 -4.5569,2.07695 -6.2465,2.48 -0.899,0 -1.1935,-1.19347 -1.1935,-1.984 v -11.90401 c 0,-0.60452 -0.6975,-1.10053 -1.395,-1.10053 -0.992,0 -1.581,0.49601 -1.581,1.10053 v 13.39201 c 0,1.39496 -0.589,2.38696 -1.1935,2.68148 -0.589,0.29453 -2.573,1.08505 -2.573,1.08505 -0.6975,0.20148 -1.1935,0.992 -1.1935,1.59643 V 180.37 c 0,0.589 0.2945,0.899 0.899,0.899 l 0.186,-0.10851 c 0.1085,0 1.5965,-0.589 2.387,-0.992 l 0.093,-0.093 c 0.806,0 1.395,0.992 1.395,1.78251 v 9.82701 c 0,1.085 -0.496,1.984 -1.085,2.27848 -0.6045,0.20157 -2.6815,1.08505 -2.6815,1.08505 -0.6975,0.20147 -1.1935,0.992 -1.1935,1.59652 v 7.03696 c 0,0.58905 0.2945,0.89905 0.899,0.89905 l 0.186,-0.10852 c 0.1085,0 1.488,-0.58905 2.387,-0.88348 0.093,-0.10853 0.2015,-0.10853 0.2945,-0.10853 0.6975,0 1.1935,1.10053 1.1935,1.59653 v 12.19844 c 0,0.58905 0.589,1.08505 1.2865,1.08505 0.992,0 1.6895,-0.496 1.6895,-1.08505 v -13.79497 c 0,-1.28652 0.496,-1.984 0.992,-2.18547 l 6.0451,-2.48001 c 0,0 0.1084,0 0.1084,0 l 0.2016,-0.093 c 0.8834,0 1.3794,1.19348 1.3794,1.78253 v 12.40001 c 0,0.60453 0.6046,1.10053 1.2866,1.10053 1.1004,0 1.6894,-0.496 1.6894,-1.10053 v -14.08949 c 0,-0.79052 0.403,-1.984 1.1006,-2.27852 0.682,-0.29453 2.7744,-1.08505 2.7744,-1.08505 0.6976,-0.29443 1.1936,-1.10043 1.1936,-1.68948 V 186.725 c 0,-0.496 -0.31,-0.806 -0.6976,-0.806 -0.2015,0 -0.2944,0 -0.496,0.10851 l -2.5884,0.992 c -0.5891,0 -1.2866,-0.60451 -1.2866,-1.78251 v -9.23801 c 0,-0.682 0.496,-2.573 1.2866,-2.86753 l 2.5884,-0.992 m -6.851,16.16654 c -0.589,1.98401 -5.2545,3.96801 -7.533,3.96801 -0.6045,0 -1.1005,-0.2015 -1.1935,-0.496 -0.2015,-0.403 -0.2945,-2.573 -0.2945,-4.96001 0,-3.069 0.093,-6.541 0.2945,-7.347 0.2015,-1.67401 4.7585,-3.76651 7.2385,-3.76651 0.6975,0 1.2866,0.2015 1.488,0.6045 0.2015,0.496 0.403,2.97601 0.403,5.64201 0,2.6815 -0.2015,5.456 -0.403,6.355"
     id="path62"
     style="stroke-width:0.992001" />
  <path
     class="Accidental"
     d="m 1150.4765,184.53946 c 0.6976,-0.29452 1.1936,-1.10052 1.1936,-1.68947 v -7.03706 c 0,-0.496 -0.31,-0.806 -0.6976,-0.806 -0.2015,0 -0.2944,0 -0.496,0.10852 0,0 -1.984,0.79053 -2.48,0.88348 -0.6975,0 -1.395,-0.496 -1.395,-1.28643 v -12.10558 c 0,-0.58895 -0.589,-1.08495 -1.3794,-1.08495 -0.992,0 -1.5966,0.496 -1.5966,1.08495 v 12.89601 c -0.093,0.992 -0.3874,2.294 -1.2865,2.88305 -1.1935,0.69748 -4.5569,2.07695 -6.2465,2.48 -0.899,0 -1.1935,-1.19347 -1.1935,-1.984 v -11.90401 c 0,-0.60452 -0.6975,-1.10053 -1.395,-1.10053 -0.992,0 -1.581,0.49601 -1.581,1.10053 v 13.39201 c 0,1.39496 -0.589,2.38696 -1.1935,2.68148 -0.589,0.29453 -2.573,1.08505 -2.573,1.08505 -0.6975,0.20148 -1.1935,0.992 -1.1935,1.59643 V 192.77 c 0,0.589 0.2945,0.899 0.899,0.899 l 0.186,-0.10851 c 0.1085,0 1.5965,-0.589 2.387,-0.992 l 0.093,-0.093 c 0.806,0 1.395,0.992 1.395,1.78251 v 9.82701 c 0,1.085 -0.496,1.984 -1.085,2.27848 -0.6045,0.20157 -2.6815,1.08505 -2.6815,1.08505 -0.6975,0.20147 -1.1935,0.992 -1.1935,1.59652 v 7.03696 c 0,0.58905 0.2945,0.89905 0.899,0.89905 l 0.186,-0.10852 c 0.1085,0 1.488,-0.58905 2.387,-0.88348 0.093,-0.10853 0.2015,-0.10853 0.2945,-0.10853 0.6975,0 1.1935,1.10053 1.1935,1.59653 v 12.19844 c 0,0.58905 0.589,1.08505 1.2865,1.08505 0.992,0 1.6895,-0.496 1.6895,-1.08505 v -13.79497 c 0,-1.28652 0.496,-1.984 0.992,-2.18547 l 6.0451,-2.48001 c 0,0 0.1084,0 0.1084,0 l 0.2016,-0.093 c 0.8834,0 1.3794,1.19347 1.3794,1.78252 v 12.40001 c 0,0.60453 0.6046,1.10053 1.2866,1.10053 1.1004,0 1.6894,-0.496 1.6894,-1.10053 V 211.2151 c 0,-0.79052 0.403,-1.984 1.1006,-2.27852 0.682,-0.29453 2.7744,-1.08505 2.7744,-1.08505 0.6976,-0.29443 1.1936,-1.10043 1.1936,-1.68948 V 199.125 c 0,-0.496 -0.31,-0.806 -0.6976,-0.806 -0.2015,0 -0.2944,0 -0.496,0.10851 l -2.5884,0.992 c -0.5891,0 -1.2866,-0.60451 -1.2866,-1.78251 v -9.23801 c 0,-0.682 0.496,-2.573 1.2866,-2.86753 l 2.5884,-0.992 m -6.851,16.16654 c -0.589,1.98401 -5.2545,3.96801 -7.533,3.96801 -0.6045,0 -1.1005,-0.2015 -1.1935,-0.496 -0.2015,-0.403 -0.2945,-2.573 -0.2945,-4.96001 0,-3.069 0.093,-6.541 0.2945,-7.347 0.2015,-1.67401 4.7585,-3.76651 7.2385,-3.76651 0.6975,0 1.2866,0.2015 1.488,0.6045 0.2015,0.496 0.403,2.97601 0.403,5.64201 0,2.6815 -0.2015,5.456 -0.403,6.355"
     id="path64"
     style="stroke-width:0.992001" />
  <path
     class="Accidental"
     d="m 1280.3465,172.13946 c 0.6976,-0.29452 1.1936,-1.10052 1.1936,-1.68947 v -7.03706 c 0,-0.496 -0.31,-0.806 -0.6976,-0.806 -0.2015,0 -0.2944,0 -0.496,0.10852 0,0 -1.984,0.79053 -2.48,0.88348 -0.6975,0 -1.395,-0.496 -1.395,-1.28643 v -12.10558 c 0,-0.58895 -0.589,-1.08496 -1.3794,-1.08496 -0.992,0 -1.5966,0.49601 -1.5966,1.08496 v 12.89601 c -0.093,0.992 -0.3874,2.294 -1.2865,2.88305 -1.1935,0.69748 -4.5569,2.07695 -6.2465,2.48 -0.899,0 -1.1935,-1.19347 -1.1935,-1.984 v -11.90401 c 0,-0.60452 -0.6975,-1.10053 -1.395,-1.10053 -0.992,0 -1.581,0.49601 -1.581,1.10053 v 13.39201 c 0,1.39496 -0.589,2.38696 -1.1935,2.68148 -0.589,0.29453 -2.573,1.08505 -2.573,1.08505 -0.6975,0.20148 -1.1935,0.992 -1.1935,1.59643 V 180.37 c 0,0.589 0.2945,0.899 0.899,0.899 l 0.186,-0.10851 c 0.1085,0 1.5965,-0.589 2.387,-0.992 l 0.093,-0.093 c 0.806,0 1.395,0.992 1.395,1.78251 v 9.82701 c 0,1.085 -0.496,1.984 -1.085,2.27848 -0.6045,0.20157 -2.6815,1.08505 -2.6815,1.08505 -0.6975,0.20147 -1.1935,0.992 -1.1935,1.59652 v 7.03696 c 0,0.58905 0.2945,0.89905 0.899,0.89905 l 0.186,-0.10852 c 0.1085,0 1.488,-0.58905 2.387,-0.88348 0.093,-0.10853 0.2015,-0.10853 0.2945,-0.10853 0.6975,0 1.1935,1.10053 1.1935,1.59653 v 12.19844 c 0,0.58905 0.589,1.08505 1.2865,1.08505 0.992,0 1.6895,-0.496 1.6895,-1.08505 v -13.79497 c 0,-1.28652 0.496,-1.984 0.992,-2.18547 l 6.0451,-2.48001 c 0,0 0.1084,0 0.1084,0 l 0.2016,-0.093 c 0.8834,0 1.3794,1.19348 1.3794,1.78253 v 12.40001 c 0,0.60453 0.6046,1.10053 1.2866,1.10053 1.1004,0 1.6894,-0.496 1.6894,-1.10053 v -14.08949 c 0,-0.79052 0.403,-1.984 1.1006,-2.27852 0.682,-0.29453 2.7744,-1.08505 2.7744,-1.08505 0.6976,-0.29443 1.1936,-1.10043 1.1936,-1.68948 V 186.725 c 0,-0.496 -0.31,-0.806 -0.6976,-0.806 -0.2015,0 -0.2944,0 -0.496,0.10851 l -2.5884,0.992 c -0.5891,0 -1.2866,-0.60451 -1.2866,-1.78251 v -9.23801 c 0,-0.682 0.496,-2.573 1.2866,-2.86753 l 2.5884,-0.992 m -6.851,16.16654 c -0.589,1.98401 -5.2545,3.96801 -7.533,3.96801 -0.6045,0 -1.1005,-0.2015 -1.1935,-0.496 -0.2015,-0.403 -0.2945,-2.573 -0.2945,-4.96001 0,-3.069 0.093,-6.541 0.2945,-7.347 0.2015,-1.67401 4.7585,-3.76651 7.2385,-3.76651 0.6975,0 1.2866,0.2015 1.488,0.6045 0.2015,0.496 0.403,2.97601 0.403,5.64201 0,2.6815 -0.2015,5.456 -0.403,6.355"
     id="path66"
     style="stroke-width:0.992001" />
  <path
     class="Accidental"
     d="m 2172.5765,172.13946 c 0.6976,-0.29452 1.1936,-1.10052 1.1936,-1.68947 v -7.03706 c 0,-0.496 -0.31,-0.806 -0.6976,-0.806 -0.2015,0 -0.2944,0 -0.496,0.10852 0,0 -1.984,0.79053 -2.48,0.88348 -0.6975,0 -1.395,-0.496 -1.395,-1.28643 v -12.10558 c 0,-0.58895 -0.589,-1.08496 -1.3794,-1.08496 -0.992,0 -1.5966,0.49601 -1.5966,1.08496 v 12.89601 c -0.093,0.992 -0.3874,2.294 -1.2865,2.88305 -1.1935,0.69748 -4.5569,2.07695 -6.2465,2.48 -0.899,0 -1.1935,-1.19347 -1.1935,-1.984 v -11.90401 c 0,-0.60452 -0.6975,-1.10053 -1.395,-1.10053 -0.992,0 -1.581,0.49601 -1.581,1.10053 v 13.39201 c 0,1.39496 -0.589,2.38696 -1.1935,2.68148 -0.589,0.29453 -2.573,1.08505 -2.573,1.08505 -0.6975,0.20148 -1.1935,0.992 -1.1935,1.59643 V 180.37 c 0,0.589 0.2945,0.899 0.899,0.899 l 0.186,-0.10851 c 0.1085,0 1.5965,-0.589 2.387,-0.992 l 0.093,-0.093 c 0.806,0 1.395,0.992 1.395,1.78251 v 9.82701 c 0,1.085 -0.496,1.984 -1.085,2.27848 -0.6045,0.20157 -2.6815,1.08505 -2.6815,1.08505 -0.6975,0.20147 -1.1935,0.992 -1.1935,1.59652 v 7.03696 c 0,0.58905 0.2945,0.89905 0.899,0.89905 l 0.186,-0.10852 c 0.1085,0 1.488,-0.58905 2.387,-0.88348 0.093,-0.10853 0.2015,-0.10853 0.2945,-0.10853 0.6975,0 1.1935,1.10053 1.1935,1.59653 v 12.19844 c 0,0.58905 0.589,1.08505 1.2865,1.08505 0.992,0 1.6895,-0.496 1.6895,-1.08505 v -13.79497 c 0,-1.28652 0.496,-1.984 0.992,-2.18547 l 6.0451,-2.48001 c 0,0 0.1084,0 0.1084,0 l 0.2016,-0.093 c 0.8834,0 1.3794,1.19348 1.3794,1.78253 v 12.40001 c 0,0.60453 0.6046,1.10053 1.2866,1.10053 1.1004,0 1.6894,-0.496 1.6894,-1.10053 v -14.08949 c 0,-0.79052 0.403,-1.984 1.1006,-2.27852 0.682,-0.29453 2.7744,-1.08505 2.7744,-1.08505 0.6976,-0.29443 1.1936,-1.10043 1.1936,-1.68948 V 186.725 c 0,-0.496 -0.31,-0.806 -0.6976,-0.806 -0.2015,0 -0.2944,0 -0.496,0.10851 l -2.5884,0.992 c -0.5891,0 -1.2866,-0.60451 -1.2866,-1.78251 v -9.23801 c 0,-0.682 0.496,-2.573 1.2866,-2.86753 l 2.5884,-0.992 m -6.851,16.16654 c -0.589,1.98401 -5.2545,3.96801 -7.533,3.96801 -0.6045,0 -1.1005,-0.2015 -1.1935,-0.496 -0.2015,-0.403 -0.2945,-2.573 -0.2945,-4.96001 0,-3.069 0.093,-6.541 0.2945,-7.347 0.2015,-1.67401 4.7585,-3.76651 7.2385,-3.76651 0.6975,0 1.2866,0.2015 1.488,0.6045 0.2015,0.496 0.403,2.97601 0.403,5.64201 0,2.6815 -0.2015,5.456 -0.403,6.355"
     id="path68"
     style="stroke-width:0.992001" />
  <path
     class="Accidental"
     d="m 1811.1265,578.65646 c 0.6976,-0.29452 1.1936,-1.10052 1.1936,-1.68947 v -7.03706 c 0,-0.496 -0.31,-0.806 -0.6976,-0.806 -0.2015,0 -0.2944,0 -0.496,0.10852 0,0 -1.984,0.79053 -2.48,0.88348 -0.6975,0 -1.395,-0.496 -1.395,-1.28643 v -12.10558 c 0,-0.58895 -0.589,-1.08496 -1.3794,-1.08496 -0.992,0 -1.5966,0.49601 -1.5966,1.08496 v 12.89601 c -0.093,0.992 -0.3874,2.294 -1.2865,2.88305 -1.1935,0.69748 -4.5569,2.07695 -6.2465,2.48 -0.899,0 -1.1935,-1.19347 -1.1935,-1.984 v -11.90401 c 0,-0.60452 -0.6975,-1.10053 -1.395,-1.10053 -0.992,0 -1.581,0.49601 -1.581,1.10053 v 13.39201 c 0,1.39496 -0.589,2.38696 -1.1935,2.68148 -0.589,0.29453 -2.573,1.08505 -2.573,1.08505 -0.6975,0.20148 -1.1935,0.992 -1.1935,1.59643 v 7.03706 c 0,0.589 0.2945,0.899 0.899,0.899 l 0.186,-0.10851 c 0.1085,0 1.5965,-0.589 2.387,-0.992 l 0.093,-0.093 c 0.806,0 1.395,0.992 1.395,1.78251 v 9.82701 c 0,1.085 -0.496,1.984 -1.085,2.27848 -0.6045,0.20157 -2.6815,1.08505 -2.6815,1.08505 -0.6975,0.20147 -1.1935,0.992 -1.1935,1.59652 v 7.03696 c 0,0.58905 0.2945,0.89905 0.899,0.89905 l 0.186,-0.10852 c 0.1085,0 1.488,-0.58905 2.387,-0.88348 0.093,-0.10853 0.2015,-0.10853 0.2945,-0.10853 0.6975,0 1.1935,1.10053 1.1935,1.59653 v 12.19844 c 0,0.58905 0.589,1.08505 1.2865,1.08505 0.992,0 1.6895,-0.496 1.6895,-1.08505 v -13.79497 c 0,-1.28652 0.496,-1.984 0.992,-2.18547 l 6.0451,-2.48001 c 0,0 0.1084,0 0.1084,0 l 0.2016,-0.093 c 0.8834,0 1.3794,1.19348 1.3794,1.78253 v 12.40001 c 0,0.60453 0.6046,1.10053 1.2866,1.10053 1.1004,0 1.6894,-0.496 1.6894,-1.10053 v -14.08949 c 0,-0.79052 0.403,-1.984 1.1006,-2.27852 0.682,-0.29453 2.7744,-1.08505 2.7744,-1.08505 0.6976,-0.29443 1.1936,-1.10043 1.1936,-1.68948 V 593.242 c 0,-0.496 -0.31,-0.806 -0.6976,-0.806 -0.2015,0 -0.2944,0 -0.496,0.10851 l -2.5884,0.992 c -0.5891,0 -1.2866,-0.60451 -1.2866,-1.78251 v -9.23801 c 0,-0.682 0.496,-2.573 1.2866,-2.86753 l 2.5884,-0.992 m -6.851,16.16654 c -0.589,1.98401 -5.2545,3.96801 -7.533,3.96801 -0.6045,0 -1.1005,-0.2015 -1.1935,-0.496 -0.2015,-0.403 -0.2945,-2.573 -0.2945,-4.96001 0,-3.069 0.093,-6.541 0.2945,-7.347 0.2015,-1.67401 4.7585,-3.76651 7.2385,-3.76651 0.6975,0 1.2866,0.2015 1.488,0.6045 0.2015,0.496 0.403,2.97601 0.403,5.64201 0,2.6815 -0.2015,5.456 -0.403,6.355"
     id="path70"
     style="stroke-width:0.992001" />
  <polyline
     class="LedgerLine"
     stroke="#000000"
     stroke-width="3.97"
     stroke-linejoin="bevel"
     points="1733.53,510.199 1786.01,510.199"
     id="polyline72"
     transform="translate(-212.597,-276.757)" />
  <polyline
     class="LedgerLine"
     stroke="#000000"
     stroke-width="3.97"
     stroke-linejoin="bevel"
     points="410.65,510.199 463.125,510.199"
     id="polyline74"
     transform="translate(-212.597,-276.757)" />
  <polyline
     class="LedgerLine"
     stroke="#000000"
     stroke-width="3.97"
     stroke-linejoin="bevel"
     points="410.65,534.999 463.125,534.999"
     id="polyline76"
     transform="translate(-212.597,-276.757)" />
  <polyline
     class="LedgerLine"
     stroke="#000000"
     stroke-width="3.97"
     stroke-linejoin="bevel"
     points="926.644,829.916 979.119,829.916"
     id="polyline78"
     transform="translate(-212.597,-276.757)" />
  <polyline
     class="Stem"
     stroke="#000000"
     stroke-width="2.98"
     stroke-linejoin="bevel"
     points="1322.71,456.432 1322.71,373.799"
     id="polyline80"
     transform="translate(-212.597,-276.757)" />
  <polyline
     class="Stem"
     stroke="#000000"
     stroke-width="2.98"
     stroke-linejoin="bevel"
     points="1892.93,406.832 1892.93,348.999"
     id="polyline82"
     transform="translate(-212.597,-276.757)" />
  <polyline
     class="Stem"
     stroke="#000000"
     stroke-width="2.98"
     stroke-linejoin="bevel"
     points="1401.6,468.832 1401.6,386.199"
     id="polyline84"
     transform="translate(-212.597,-276.757)" />
  <polyline
     class="Stem"
     stroke="#000000"
     stroke-width="2.98"
     stroke-linejoin="bevel"
     points="2068.7,406.832 2068.7,348.999"
     id="polyline86"
     transform="translate(-212.597,-276.757)" />
  <polyline
     class="Stem"
     stroke="#000000"
     stroke-width="2.98"
     stroke-linejoin="bevel"
     points="1204.38,444.032 1204.38,367.599"
     id="polyline88"
     transform="translate(-212.597,-276.757)" />
  <polyline
     class="Stem"
     stroke="#000000"
     stroke-width="2.98"
     stroke-linejoin="bevel"
     points="2187.04,419.232 2187.04,355.199"
     id="polyline90"
     transform="translate(-212.597,-276.757)" />
  <polyline
     class="Stem"
     stroke="#000000"
     stroke-width="2.98"
     stroke-linejoin="bevel"
     points="2584.7,444.032 2584.7,367.599"
     id="polyline92"
     transform="translate(-212.597,-276.757)" />
  <polyline
     class="Stem"
     stroke="#000000"
     stroke-width="2.98"
     stroke-linejoin="bevel"
     points="1774.6,444.032 1774.6,367.599"
     id="polyline94"
     transform="translate(-212.597,-276.757)" />
  <polyline
     class="Stem"
     stroke="#000000"
     stroke-width="2.98"
     stroke-linejoin="bevel"
     points="1863.27,477.165 1863.27,534.999"
     id="polyline96"
     transform="translate(-212.597,-276.757)" />
  <polyline
     class="Stem"
     stroke="#000000"
     stroke-width="2.98"
     stroke-linejoin="bevel"
     points="777.061,464.765 777.061,522.599"
     id="polyline98"
     transform="translate(-212.597,-276.757)" />
  <polyline
     class="Stem"
     stroke="#000000"
     stroke-width="2.98"
     stroke-linejoin="bevel"
     points="540.392,452.365 540.392,516.399"
     id="polyline100"
     transform="translate(-212.597,-276.757)" />
  <polyline
     class="Stem"
     stroke="#000000"
     stroke-width="2.98"
     stroke-linejoin="bevel"
     points="2039.04,489.565 2039.04,547.399"
     id="polyline102"
     transform="translate(-212.597,-276.757)" />
  <polyline
     class="Stem"
     stroke="#000000"
     stroke-width="2.98"
     stroke-linejoin="bevel"
     points="2157.38,452.365 2157.38,516.399"
     id="polyline104"
     transform="translate(-212.597,-276.757)" />
  <polyline
     class="Stem"
     stroke="#000000"
     stroke-width="2.98"
     stroke-linejoin="bevel"
     points="2317.28,452.365 2317.28,516.399"
     id="polyline106"
     transform="translate(-212.597,-276.757)" />
  <polyline
     class="Stem"
     stroke="#000000"
     stroke-width="2.98"
     stroke-linejoin="bevel"
     points="422.058,539.165 422.058,596.999"
     id="polyline108"
     transform="translate(-212.597,-276.757)" />
  <polyline
     class="Stem"
     stroke="#000000"
     stroke-width="2.98"
     stroke-linejoin="bevel"
     points="700.29,452.365 700.29,516.399"
     id="polyline110"
     transform="translate(-212.597,-276.757)" />
  <polyline
     class="Stem"
     stroke="#000000"
     stroke-width="2.98"
     stroke-linejoin="bevel"
     points="2394.05,464.765 2394.05,522.599"
     id="polyline112"
     transform="translate(-212.597,-276.757)" />
  <polyline
     class="Stem"
     stroke="#000000"
     stroke-width="2.98"
     stroke-linejoin="bevel"
     points="938.052,489.565 938.052,547.399"
     id="polyline114"
     transform="translate(-212.597,-276.757)" />
  <polyline
     class="Stem"
     stroke="#000000"
     stroke-width="2.98"
     stroke-linejoin="bevel"
     points="1744.94,514.365 1744.94,572.199"
     id="polyline116"
     transform="translate(-212.597,-276.757)" />
  <polyline
     class="Stem"
     stroke="#000000"
     stroke-width="2.98"
     stroke-linejoin="bevel"
     points="1056.39,477.165 1056.39,534.999"
     id="polyline118"
     transform="translate(-212.597,-276.757)" />
  <polyline
     class="Stem"
     stroke="#000000"
     stroke-width="2.98"
     stroke-linejoin="bevel"
     points="1086.05,850.55 1086.05,792.716"
     id="polyline120"
     transform="translate(-212.597,-276.757)" />
  <polyline
     class="Stem"
     stroke="#000000"
     stroke-width="2.98"
     stroke-linejoin="bevel"
     points="1656.26,838.15 1656.26,780.316"
     id="polyline122"
     transform="translate(-212.597,-276.757)" />
  <polyline
     class="Stem"
     stroke="#000000"
     stroke-width="2.98"
     stroke-linejoin="bevel"
     points="2187.04,850.55 2187.04,792.716"
     id="polyline124"
     transform="translate(-212.597,-276.757)" />
  <polyline
     class="Stem"
     stroke="#000000"
     stroke-width="2.98"
     stroke-linejoin="bevel"
     points="967.711,825.75 967.711,767.916"
     id="polyline126"
     transform="translate(-212.597,-276.757)" />
  <polyline
     class="Stem"
     stroke="#000000"
     stroke-width="2.98"
     stroke-linejoin="bevel"
     points="2068.7,862.95 2068.7,805.116"
     id="polyline128"
     transform="translate(-212.597,-276.757)" />
  <polyline
     class="Stem"
     stroke="#000000"
     stroke-width="2.98"
     stroke-linejoin="bevel"
     points="1056.39,908.483 1056.39,978.717"
     id="polyline130"
     transform="translate(-212.597,-276.757)" />
  <polyline
     class="Stem"
     stroke="#000000"
     stroke-width="2.98"
     stroke-linejoin="bevel"
     points="1744.94,883.683 1744.94,966.316"
     id="polyline132"
     transform="translate(-212.597,-276.757)" />
  <polyline
     class="Stem"
     stroke="#000000"
     stroke-width="2.98"
     stroke-linejoin="bevel"
     points="1626.6,896.083 1626.6,972.517"
     id="polyline134"
     transform="translate(-212.597,-276.757)" />
  <polyline
     class="Stem"
     stroke="#000000"
     stroke-width="2.98"
     stroke-linejoin="bevel"
     points="1863.27,908.483 1863.27,978.717"
     id="polyline136"
     transform="translate(-212.597,-276.757)" />
  <polyline
     class="Stem"
     stroke="#000000"
     stroke-width="2.98"
     stroke-linejoin="bevel"
     points="938.052,920.883 938.052,984.917"
     id="polyline138"
     transform="translate(-212.597,-276.757)" />
  <path
     class="Note"
     d="m 461.50602,145.44851 c -14.38401,0 -23.31202,6.06048 -23.31202,13.39199 0,7.23851 6.15351,13.68656 22.22707,13.68656 17.65445,0 23.31203,-6.13805 23.31203,-13.68656 0,-7.64151 -12.19854,-13.39199 -22.22708,-13.39199 m -2.77452,2.48 c 7.34705,0 13.29906,7.93598 13.29906,14.49249 0,5.45601 -3.37905,7.62606 -8.24601,7.62606 -7.14548,0 -13.98106,-8.23055 -13.98106,-15.17457 0,-5.549 3.85958,-6.94398 8.92801,-6.94398"
     id="path140"
     style="stroke-width:0.992001" />
  <path
     class="Note"
     d="m 740.83102,157.84851 c -14.38401,0 -23.31202,6.06048 -23.31202,13.39199 0,7.23851 6.15351,13.68656 22.22707,13.68656 17.65445,0 23.31203,-6.13805 23.31203,-13.68656 0,-7.64151 -12.19854,-13.39199 -22.22708,-13.39199 m -2.77452,2.48 c 7.34705,0 13.29906,7.93598 13.29906,14.49249 0,5.45601 -3.37905,7.62606 -8.24601,7.62606 -7.14548,0 -13.98106,-8.23055 -13.98106,-15.17457 0,-5.549 3.85958,-6.94398 8.92801,-6.94398"
     id="path142"
     style="stroke-width:0.992001" />
  <path
     class="Note"
     d="m 1541.5635,185.33001 c 18.259,0 21.9326,-14.88001 21.9326,-18.44501 0,-5.65754 -4.464,-9.33101 -10.912,-9.33101 -16.5696,0 -21.7311,12.80301 -21.7311,18.55352 0,5.84355 4.6655,9.2225 10.7105,9.2225 m 8.432,-8.835 c -4.96,3.379 -8.432,4.5725 -10.8035,4.5725 -2.294,0 -3.6735,-1.1935 -4.371,-2.5885 -0.403,-0.589 -0.6975,-1.3795 -0.6975,-2.17001 0,-5.363 15.9806,-14.19801 21.235,-14.19801 2.0771,0 3.2705,0.992 4.0611,2.387 0.31,0.589 0.6045,1.2865 0.6045,2.07701 0,2.18549 -2.2785,4.867 -10.0286,9.92001"
     id="path144"
     style="stroke-width:0.992001" />
  <path
     class="Note"
     d="m 1168.5735,210.13001 c 9.827,0 21.9326,-9.1295 21.9326,-18.55352 0,-5.54903 -4.464,-9.2225 -10.8191,-9.2225 -12.1055,0 -21.824,9.02101 -21.824,18.55352 0,5.7505 4.7585,9.2225 10.7105,9.2225"
     id="path146"
     style="stroke-width:0.992001" />
  <path
     class="Note"
     fill="#00aa00"
     d="m 2078.495,145.44851 c -14.384,0 -23.312,6.06048 -23.312,13.39199 0,7.23851 6.1535,13.68656 22.2271,13.68656 17.6544,0 23.312,-6.13805 23.312,-13.68656 0,-7.64151 -12.1985,-13.39199 -22.2271,-13.39199 m -2.7745,2.48 c 7.3471,0 13.2991,7.93598 13.2991,14.49249 0,5.45601 -3.3791,7.62606 -8.246,7.62606 -7.1455,0 -13.9811,-8.23055 -13.9811,-15.17457 0,-5.549 3.8596,-6.94398 8.928,-6.94398"
     id="path148"
     style="stroke-width:0.992001" />
  <path
     class="Note"
     d="m 1311.045,170.24851 c -14.384,0 -23.312,6.06048 -23.312,13.39199 0,7.23851 6.1535,13.68656 22.2271,13.68656 17.6544,0 23.312,-6.13805 23.312,-13.68656 0,-7.64151 -12.1985,-13.39199 -22.2271,-13.39199 m -2.7745,2.48 c 7.3471,0 13.2991,7.93598 13.2991,14.49249 0,5.45601 -3.3791,7.62606 -8.246,7.62606 -7.1455,0 -13.9811,-8.23055 -13.9811,-15.17457 0,-5.549 3.8596,-6.94398 8.928,-6.94398"
     id="path150"
     style="stroke-width:0.992001" />
  <path
     class="Note"
     d="m 971.34354,185.33001 c 18.25896,0 21.93254,-14.88001 21.93254,-18.44501 0,-5.65754 -4.464,-9.33101 -10.91201,-9.33101 -16.56956,0 -21.73107,12.80301 -21.73107,18.55352 0,5.84355 4.66551,9.2225 10.71054,9.2225 m 8.432,-8.835 c -4.96,3.379 -8.432,4.5725 -10.80353,4.5725 -2.294,0 -3.6735,-1.1935 -4.37101,-2.5885 -0.403,-0.589 -0.69749,-1.3795 -0.69749,-2.17001 0,-5.363 15.98056,-14.19801 21.23499,-14.19801 2.07705,0 3.27053,0.992 4.06105,2.387 0.31,0.589 0.60453,1.2865 0.60453,2.07701 0,2.18549 -2.27853,4.867 -10.02854,9.92001"
     id="path152"
     style="stroke-width:0.992001" />
  <path
     class="Note"
     fill="#00aa00"
     d="m 2351.6635,185.33001 c 18.259,0 21.9326,-14.88001 21.9326,-18.44501 0,-5.65754 -4.464,-9.33101 -10.912,-9.33101 -16.5696,0 -21.7311,12.80301 -21.7311,18.55352 0,5.84355 4.6655,9.2225 10.7105,9.2225 m 8.432,-8.835 c -4.96,3.379 -8.432,4.5725 -10.8035,4.5725 -2.294,0 -3.6735,-1.1935 -4.371,-2.5885 -0.403,-0.589 -0.6975,-1.3795 -0.6975,-2.17001 0,-5.363 15.9806,-14.19801 21.235,-14.19801 2.0771,0 3.2705,0.992 4.0611,2.387 0.31,0.589 0.6045,1.2865 0.6045,2.07701 0,2.18549 -2.2785,4.867 -10.0286,9.92001"
     id="path154"
     style="stroke-width:0.992001" />
  <path
     class="Note"
     d="m 1089.6835,197.73001 c 9.827,0 21.9326,-9.1295 21.9326,-18.55352 0,-5.54903 -4.464,-9.2225 -10.8191,-9.2225 -12.1055,0 -21.824,9.02101 -21.824,18.55352 0,5.7505 4.7585,9.2225 10.7105,9.2225"
     id="path156"
     style="stroke-width:0.992001" />
  <path
     class="Note"
     fill="#00aa00"
     d="m 1835.6735,148.13001 c 18.259,0 21.9326,-14.88001 21.9326,-18.44501 0,-5.65754 -4.464,-9.33101 -10.912,-9.33101 -16.5696,0 -21.7311,12.80301 -21.7311,18.55352 0,5.84355 4.6655,9.2225 10.7105,9.2225 m 8.432,-8.835 c -4.96,3.379 -8.432,4.5725 -10.8035,4.5725 -2.294,0 -3.6735,-1.1935 -4.371,-2.5885 -0.403,-0.589 -0.6975,-1.3795 -0.6975,-2.17001 0,-5.363 15.9806,-14.19801 21.235,-14.19801 2.0771,0 3.2705,0.992 4.0611,2.387 0.31,0.589 0.6045,1.2865 0.6045,2.07701 0,2.18549 -2.2785,4.867 -10.0286,9.92001"
     id="path158"
     style="stroke-width:0.992001" />
  <path
     class="Note"
     fill="#00aa00"
     d="m 1659.9035,148.13001 c 18.259,0 21.9326,-14.88001 21.9326,-18.44501 0,-5.65754 -4.464,-9.33101 -10.912,-9.33101 -16.5696,0 -21.7311,12.80301 -21.7311,18.55352 0,5.84355 4.6655,9.2225 10.7105,9.2225 m 8.432,-8.835 c -4.96,3.379 -8.432,4.5725 -10.8035,4.5725 -2.294,0 -3.6735,-1.1935 -4.371,-2.5885 -0.403,-0.589 -0.6975,-1.3795 -0.6975,-2.17001 0,-5.363 15.9806,-14.19801 21.235,-14.19801 2.0771,0 3.2705,0.992 4.0611,2.387 0.31,0.589 0.6045,1.2865 0.6045,2.07701 0,2.18549 -2.2785,4.867 -10.0286,9.92001"
     id="path160"
     style="stroke-width:0.992001" />
  <path
     class="Note"
     fill="#00aa00"
     d="m 1954.0035,160.53001 c 18.259,0 21.9326,-14.88001 21.9326,-18.44501 0,-5.65754 -4.464,-9.33101 -10.912,-9.33101 -16.5696,0 -21.7311,12.80301 -21.7311,18.55352 0,5.84355 4.6655,9.2225 10.7105,9.2225 m 8.432,-8.835 c -4.96,3.379 -8.432,4.5725 -10.8035,4.5725 -2.294,0 -3.6735,-1.1935 -4.371,-2.5885 -0.403,-0.589 -0.6975,-1.3795 -0.6975,-2.17001 0,-5.363 15.9806,-14.19801 21.235,-14.19801 2.0771,0 3.2705,0.992 4.0611,2.387 0.31,0.589 0.6045,1.2865 0.6045,2.07701 0,2.18549 -2.2785,4.867 -10.0286,9.92001"
     id="path162"
     style="stroke-width:0.992001" />
  <path
     class="Note"
     fill="#00aa00"
     d="m 1659.9035,210.13001 c 18.259,0 21.9326,-14.88001 21.9326,-18.44501 0,-5.65754 -4.464,-9.33101 -10.912,-9.33101 -16.5696,0 -21.7311,12.80301 -21.7311,18.55352 0,5.84355 4.6655,9.2225 10.7105,9.2225 m 8.432,-8.835 c -4.96,3.379 -8.432,4.5725 -10.8035,4.5725 -2.294,0 -3.6735,-1.1935 -4.371,-2.5885 -0.403,-0.589 -0.6975,-1.3795 -0.6975,-2.17001 0,-5.363 15.9806,-14.19801 21.235,-14.19801 2.0771,0 3.2705,0.992 4.0611,2.387 0.31,0.589 0.6045,1.2865 0.6045,2.07701 0,2.18549 -2.2785,4.867 -10.0286,9.92001"
     id="path164"
     style="stroke-width:0.992001" />
  <path
     class="Note"
     d="m 337.01754,185.33001 c 18.25896,0 21.93254,-14.88001 21.93254,-18.44501 0,-5.65754 -4.464,-9.33101 -10.91201,-9.33101 -16.56956,0 -21.73107,12.80301 -21.73107,18.55352 0,5.84355 4.66551,9.2225 10.71054,9.2225 m 8.432,-8.835 c -4.96,3.379 -8.432,4.5725 -10.80353,4.5725 -2.294,0 -3.6735,-1.1935 -4.37101,-2.5885 -0.403,-0.589 -0.69749,-1.3795 -0.69749,-2.17001 0,-5.363 15.98056,-14.19801 21.23499,-14.19801 2.07705,0 3.27053,0.992 4.06105,2.387 0.31,0.589 0.60453,1.2865 0.60453,2.07701 0,2.18549 -2.27853,4.867 -10.02854,9.92001"
     id="path166"
     style="stroke-width:0.992001" />
  <path
     class="Note"
     d="m 977.49502,207.44851 c -14.38401,0 -23.31202,6.06048 -23.31202,13.39199 0,7.23851 6.15351,13.68656 22.22707,13.68656 17.65445,0 23.31203,-6.13805 23.31203,-13.68656 0,-7.64151 -12.19854,-13.39199 -22.22708,-13.39199 m -2.77452,2.48 c 7.34705,0 13.29906,7.93598 13.29906,14.49249 0,5.45601 -3.37905,7.62606 -8.24601,7.62606 -7.14548,0 -13.98106,-8.23055 -13.98106,-15.17457 0,-5.549 3.85958,-6.94398 8.92801,-6.94398"
     id="path168"
     style="stroke-width:0.992001" />
  <path
     class="Note"
     d="m 218.68354,272.13001 c 18.25896,0 21.93254,-14.88001 21.93254,-18.44501 0,-5.65754 -4.464,-9.33101 -10.91201,-9.33101 -16.56956,0 -21.73107,12.80301 -21.73107,18.55352 0,5.84355 4.66551,9.2225 10.71054,9.2225 m 8.432,-8.835 c -4.96,3.379 -8.432,4.5725 -10.80353,4.5725 -2.294,0 -3.6735,-1.1935 -4.37101,-2.5885 -0.403,-0.589 -0.69749,-1.3795 -0.69749,-2.17001 0,-5.363 15.98056,-14.19801 21.23499,-14.19801 2.07705,0 3.27053,0.992 4.06105,2.387 0.31,0.589 0.60453,1.2865 0.60453,2.07701 0,2.18549 -2.27853,4.867 -10.02854,9.92001"
     id="path170"
     style="stroke-width:0.992001" />
  <path
     class="Note"
     d="m 496.91554,185.33001 c 18.25896,0 21.93254,-14.88001 21.93254,-18.44501 0,-5.65754 -4.464,-9.33101 -10.91201,-9.33101 -16.56956,0 -21.73107,12.80301 -21.73107,18.55352 0,5.84355 4.66551,9.2225 10.71054,9.2225 m 8.432,-8.835 c -4.96,3.379 -8.432,4.5725 -10.80353,4.5725 -2.294,0 -3.6735,-1.1935 -4.37101,-2.5885 -0.403,-0.589 -0.69749,-1.3795 -0.69749,-2.17001 0,-5.363 15.98056,-14.19801 21.23499,-14.19801 2.07705,0 3.27053,0.992 4.06105,2.387 0.31,0.589 0.60453,1.2865 0.60453,2.07701 0,2.18549 -2.27853,4.867 -10.02854,9.92001"
     id="path172"
     style="stroke-width:0.992001" />
  <path
     class="Note"
     d="m 1311.045,195.04851 c -14.384,0 -23.312,6.06048 -23.312,13.39199 0,7.23851 6.1535,13.68656 22.2271,13.68656 17.6544,0 23.312,-6.13805 23.312,-13.68656 0,-7.64151 -12.1985,-13.39199 -22.2271,-13.39199 m -2.7745,2.48 c 7.3471,0 13.2991,7.93598 13.2991,14.49249 0,5.45601 -3.3791,7.62606 -8.246,7.62606 -7.1455,0 -13.9811,-8.23055 -13.9811,-15.17457 0,-5.549 3.8596,-6.94398 8.928,-6.94398"
     id="path174"
     style="stroke-width:0.992001" />
  <path
     class="Note"
     fill="#00aa00"
     d="m 2190.6735,197.73001 c 18.259,0 21.9326,-14.88001 21.9326,-18.44501 0,-5.65754 -4.464,-9.33101 -10.912,-9.33101 -16.5696,0 -21.7311,12.80301 -21.7311,18.55352 0,5.84355 4.6655,9.2225 10.7105,9.2225 m 8.432,-8.835 c -4.96,3.379 -8.432,4.5725 -10.8035,4.5725 -2.294,0 -3.6735,-1.1935 -4.371,-2.5885 -0.403,-0.589 -0.6975,-1.3795 -0.6975,-2.17001 0,-5.363 15.9806,-14.19801 21.235,-14.19801 2.0771,0 3.2705,0.992 4.0611,2.387 0.31,0.589 0.6045,1.2865 0.6045,2.07701 0,2.18549 -2.2785,4.867 -10.0286,9.92001"
     id="path176"
     style="stroke-width:0.992001" />
  <path
     class="Note"
     fill="#00aa00"
     d="m 2113.9035,185.33001 c 18.259,0 21.9326,-14.88001 21.9326,-18.44501 0,-5.65754 -4.464,-9.33101 -10.912,-9.33101 -16.5696,0 -21.7311,12.80301 -21.7311,18.55352 0,5.84355 4.6655,9.2225 10.7105,9.2225 m 8.432,-8.835 c -4.96,3.379 -8.432,4.5725 -10.8035,4.5725 -2.294,0 -3.6735,-1.1935 -4.371,-2.5885 -0.403,-0.589 -0.6975,-1.3795 -0.6975,-2.17001 0,-5.363 15.9806,-14.19801 21.235,-14.19801 2.0771,0 3.2705,0.992 4.0611,2.387 0.31,0.589 0.6045,1.2865 0.6045,2.07701 0,2.18549 -2.2785,4.867 -10.0286,9.92001"
     id="path178"
     style="stroke-width:0.992001" />
  <path
     class="Note"
     d="m 573.68654,197.73001 c 18.25896,0 21.93254,-14.88001 21.93254,-18.44501 0,-5.65754 -4.464,-9.33101 -10.91201,-9.33101 -16.56956,0 -21.73107,12.80301 -21.73107,18.55352 0,5.84355 4.66551,9.2225 10.71054,9.2225 m 8.432,-8.835 c -4.96,3.379 -8.432,4.5725 -10.80353,4.5725 -2.294,0 -3.6735,-1.1935 -4.37101,-2.5885 -0.403,-0.589 -0.69749,-1.3795 -0.69749,-2.17001 0,-5.363 15.98056,-14.19801 21.23499,-14.19801 2.07705,0 3.27053,0.992 4.06105,2.387 0.31,0.589 0.60453,1.2865 0.60453,2.07701 0,2.18549 -2.27853,4.867 -10.02854,9.92001"
     id="path180"
     style="stroke-width:0.992001" />
  <path
     class="Note"
     d="m 1541.5635,247.33001 c 18.259,0 21.9326,-14.88001 21.9326,-18.44501 0,-5.65754 -4.464,-9.33101 -10.912,-9.33101 -16.5696,0 -21.7311,12.80301 -21.7311,18.55352 0,5.84355 4.6655,9.2225 10.7105,9.2225 m 8.432,-8.835 c -4.96,3.379 -8.432,4.5725 -10.8035,4.5725 -2.294,0 -3.6735,-1.1935 -4.371,-2.5885 -0.403,-0.589 -0.6975,-1.3795 -0.6975,-2.17001 0,-5.363 15.9806,-14.19801 21.235,-14.19801 2.0771,0 3.2705,0.992 4.0611,2.387 0.31,0.589 0.6045,1.2865 0.6045,2.07701 0,2.18549 -2.2785,4.867 -10.0286,9.92001"
     id="path182"
     style="stroke-width:0.992001" />
  <path
     class="Note"
     d="m 734.67754,222.53001 c 18.25896,0 21.93254,-14.88001 21.93254,-18.44501 0,-5.65754 -4.464,-9.33101 -10.91201,-9.33101 -16.56956,0 -21.73107,12.80301 -21.73107,18.55352 0,5.84355 4.66551,9.2225 10.71054,9.2225 m 8.432,-8.835 c -4.96,3.379 -8.432,4.5725 -10.80353,4.5725 -2.294,0 -3.6735,-1.1935 -4.37101,-2.5885 -0.403,-0.589 -0.69749,-1.3795 -0.69749,-2.17001 0,-5.363 15.98056,-14.19801 21.23499,-14.19801 2.07705,0 3.27053,0.992 4.06105,2.387 0.31,0.589 0.60453,1.2865 0.60453,2.07701 0,2.18549 -2.27853,4.867 -10.02854,9.92001"
     id="path184"
     style="stroke-width:0.992001" />
  <path
     class="Note"
     d="m 853.01354,210.13001 c 18.25896,0 21.93254,-14.88001 21.93254,-18.44501 0,-5.65754 -4.464,-9.33101 -10.91201,-9.33101 -16.56956,0 -21.73107,12.80301 -21.73107,18.55352 0,5.84355 4.66551,9.2225 10.71054,9.2225 m 8.432,-8.835 c -4.96,3.379 -8.432,4.5725 -10.80353,4.5725 -2.294,0 -3.6735,-1.1935 -4.37101,-2.5885 -0.403,-0.589 -0.69749,-1.3795 -0.69749,-2.17001 0,-5.363 15.98056,-14.19801 21.23499,-14.19801 2.07705,0 3.27053,0.992 4.06105,2.387 0.31,0.589 0.60453,1.2865 0.60453,2.07701 0,2.18549 -2.27853,4.867 -10.02854,9.92001"
     id="path186"
     style="stroke-width:0.992001" />
  <path
     class="Note"
     fill="#00aa00"
     d="m 1954.0035,185.33001 c 18.259,0 21.9326,-14.88001 21.9326,-18.44501 0,-5.65754 -4.464,-9.33101 -10.912,-9.33101 -16.5696,0 -21.7311,12.80301 -21.7311,18.55352 0,5.84355 4.6655,9.2225 10.7105,9.2225 m 8.432,-8.835 c -4.96,3.379 -8.432,4.5725 -10.8035,4.5725 -2.294,0 -3.6735,-1.1935 -4.371,-2.5885 -0.403,-0.589 -0.6975,-1.3795 -0.6975,-2.17001 0,-5.363 15.9806,-14.19801 21.235,-14.19801 2.0771,0 3.2705,0.992 4.0611,2.387 0.31,0.589 0.6045,1.2865 0.6045,2.07701 0,2.18549 -2.2785,4.867 -10.0286,9.92001"
     id="path188"
     style="stroke-width:0.992001" />
  <path
     class="Note"
     fill="#00aa00"
     d="m 1835.6735,222.53001 c 18.259,0 21.9326,-14.88001 21.9326,-18.44501 0,-5.65754 -4.464,-9.33101 -10.912,-9.33101 -16.5696,0 -21.7311,12.80301 -21.7311,18.55352 0,5.84355 4.6655,9.2225 10.7105,9.2225 m 8.432,-8.835 c -4.96,3.379 -8.432,4.5725 -10.8035,4.5725 -2.294,0 -3.6735,-1.1935 -4.371,-2.5885 -0.403,-0.589 -0.6975,-1.3795 -0.6975,-2.17001 0,-5.363 15.9806,-14.19801 21.235,-14.19801 2.0771,0 3.2705,0.992 4.0611,2.387 0.31,0.589 0.6045,1.2865 0.6045,2.07701 0,2.18549 -2.2785,4.867 -10.0286,9.92001"
     id="path190"
     style="stroke-width:0.992001" />
  <path
     class="Note"
     fill="#00aa00"
     d="m 2078.495,551.96551 c -14.384,0 -23.312,6.06048 -23.312,13.39199 0,7.23851 6.1535,13.68656 22.2271,13.68656 17.6544,0 23.312,-6.13805 23.312,-13.68656 0,-7.64151 -12.1985,-13.39199 -22.2271,-13.39199 m -2.7745,2.48 c 7.3471,0 13.2991,7.93598 13.2991,14.49249 0,5.45601 -3.3791,7.62606 -8.246,7.62606 -7.1455,0 -13.9811,-8.23055 -13.9811,-15.17457 0,-5.549 3.8596,-6.94398 8.928,-6.94398"
     id="path192"
     style="stroke-width:0.992001" />
  <path
     class="Note"
     d="m 853.01354,591.84701 c 18.25896,0 21.93254,-14.88001 21.93254,-18.44501 0,-5.65754 -4.464,-9.33101 -10.91201,-9.33101 -16.56956,0 -21.73107,12.80301 -21.73107,18.55352 0,5.84355 4.66551,9.2225 10.71054,9.2225 m 8.432,-8.835 c -4.96,3.379 -8.432,4.5725 -10.80353,4.5725 -2.294,0 -3.6735,-1.1935 -4.37101,-2.5885 -0.403,-0.589 -0.69749,-1.3795 -0.69749,-2.17001 0,-5.363 15.98056,-14.19801 21.23499,-14.19801 2.07705,0 3.27053,0.992 4.06105,2.387 0.31,0.589 0.60453,1.2865 0.60453,2.07701 0,2.18549 -2.27853,4.867 -10.02854,9.92001"
     id="path194"
     style="stroke-width:0.992001" />
  <path
     class="Note"
     d="m 461.50602,551.96551 c -14.38401,0 -23.31202,6.06048 -23.31202,13.39199 0,7.23851 6.15351,13.68656 22.22707,13.68656 17.65445,0 23.31203,-6.13805 23.31203,-13.68656 0,-7.64151 -12.19854,-13.39199 -22.22708,-13.39199 m -2.77452,2.48 c 7.34705,0 13.29906,7.93598 13.29906,14.49249 0,5.45601 -3.37905,7.62606 -8.24601,7.62606 -7.14548,0 -13.98106,-8.23055 -13.98106,-15.17457 0,-5.549 3.85958,-6.94398 8.92801,-6.94398"
     id="path196"
     style="stroke-width:0.992001" />
  <path
     class="Note"
     fill="#00aa00"
     d="m 1954.0035,591.84701 c 18.259,0 21.9326,-14.88001 21.9326,-18.44501 0,-5.65754 -4.464,-9.33101 -10.912,-9.33101 -16.5696,0 -21.7311,12.80301 -21.7311,18.55352 0,5.84355 4.6655,9.2225 10.7105,9.2225 m 8.432,-8.835 c -4.96,3.379 -8.432,4.5725 -10.8035,4.5725 -2.294,0 -3.6735,-1.1935 -4.371,-2.5885 -0.403,-0.589 -0.6975,-1.3795 -0.6975,-2.17001 0,-5.363 15.9806,-14.19801 21.235,-14.19801 2.0771,0 3.2705,0.992 4.0611,2.387 0.31,0.589 0.6045,1.2865 0.6045,2.07701 0,2.18549 -2.2785,4.867 -10.0286,9.92001"
     id="path198"
     style="stroke-width:0.992001" />
  <path
     class="Note"
     d="m 224.83702,564.36551 c -14.38401,0 -23.31202,6.06048 -23.31202,13.39199 0,7.23851 6.15351,13.68656 22.22707,13.68656 17.65445,0 23.31203,-6.13805 23.31203,-13.68656 0,-7.64151 -12.19854,-13.39199 -22.22708,-13.39199 m -2.77452,2.48 c 7.34705,0 13.29906,7.93598 13.29906,14.49249 0,5.45601 -3.37905,7.62606 -8.24601,7.62606 -7.14548,0 -13.98106,-8.23055 -13.98106,-15.17457 0,-5.549 3.85958,-6.94398 8.92801,-6.94398"
     id="path200"
     style="stroke-width:0.992001" />
  <path
     class="Note"
     d="m 734.67754,567.04701 c 18.25896,0 21.93254,-14.88001 21.93254,-18.44501 0,-5.65754 -4.464,-9.33101 -10.91201,-9.33101 -16.56956,0 -21.73107,12.80301 -21.73107,18.55352 0,5.84355 4.66551,9.2225 10.71054,9.2225 m 8.432,-8.835 c -4.96,3.379 -8.432,4.5725 -10.80353,4.5725 -2.294,0 -3.6735,-1.1935 -4.37101,-2.5885 -0.403,-0.589 -0.69749,-1.3795 -0.69749,-2.17001 0,-5.363 15.98056,-14.19801 21.23499,-14.19801 2.07705,0 3.27053,0.992 4.06105,2.387 0.31,0.589 0.60453,1.2865 0.60453,2.07701 0,2.18549 -2.27853,4.867 -10.02854,9.92001"
     id="path202"
     style="stroke-width:0.992001" />
  <path
     class="Note"
     fill="#00aa00"
     d="m 1835.6735,604.24701 c 18.259,0 21.9326,-14.88001 21.9326,-18.44501 0,-5.65754 -4.464,-9.33101 -10.912,-9.33101 -16.5696,0 -21.7311,12.80301 -21.7311,18.55352 0,5.84355 4.6655,9.2225 10.7105,9.2225 m 8.432,-8.835 c -4.96,3.379 -8.432,4.5725 -10.8035,4.5725 -2.294,0 -3.6735,-1.1935 -4.371,-2.5885 -0.403,-0.589 -0.6975,-1.3795 -0.6975,-2.17001 0,-5.363 15.9806,-14.19801 21.235,-14.19801 2.0771,0 3.2705,0.992 4.0611,2.387 0.31,0.589 0.6045,1.2865 0.6045,2.07701 0,2.18549 -2.2785,4.867 -10.0286,9.92001"
     id="path204"
     style="stroke-width:0.992001" />
  <path
     class="Note"
     d="m 1423.2335,579.44701 c 18.259,0 21.9326,-14.88001 21.9326,-18.44501 0,-5.65754 -4.464,-9.33101 -10.912,-9.33101 -16.5696,0 -21.7311,12.80301 -21.7311,18.55352 0,5.84355 4.6655,9.2225 10.7105,9.2225 m 8.432,-8.835 c -4.96,3.379 -8.432,4.5725 -10.8035,4.5725 -2.294,0 -3.6735,-1.1935 -4.371,-2.5885 -0.403,-0.589 -0.6975,-1.3795 -0.6975,-2.17001 0,-5.363 15.9806,-14.19801 21.235,-14.19801 2.0771,0 3.2705,0.992 4.0611,2.387 0.31,0.589 0.6045,1.2865 0.6045,2.07701 0,2.18549 -2.2785,4.867 -10.0286,9.92001"
     id="path206"
     style="stroke-width:0.992001" />
  <path
     class="Note"
     d="m 1547.715,564.36551 c -14.384,0 -23.312,6.06048 -23.312,13.39199 0,7.23851 6.1535,13.68656 22.2271,13.68656 17.6544,0 23.312,-6.13805 23.312,-13.68656 0,-7.64151 -12.1985,-13.39199 -22.2271,-13.39199 m -2.7745,2.48 c 7.3471,0 13.2991,7.93598 13.2991,14.49249 0,5.45601 -3.3791,7.62606 -8.246,7.62606 -7.1455,0 -13.9811,-8.23055 -13.9811,-15.17457 0,-5.549 3.8596,-6.94398 8.928,-6.94398"
     id="path208"
     style="stroke-width:0.992001" />
  <path
     class="Note"
     d="m 1541.5635,616.64701 c 18.259,0 21.9326,-14.88001 21.9326,-18.44501 0,-5.65754 -4.464,-9.33101 -10.912,-9.33101 -16.5696,0 -21.7311,12.80301 -21.7311,18.55352 0,5.84355 4.6655,9.2225 10.7105,9.2225 m 8.432,-8.835 c -4.96,3.379 -8.432,4.5725 -10.8035,4.5725 -2.294,0 -3.6735,-1.1935 -4.371,-2.5885 -0.403,-0.589 -0.6975,-1.3795 -0.6975,-2.17001 0,-5.363 15.9806,-14.19801 21.235,-14.19801 2.0771,0 3.2705,0.992 4.0611,2.387 0.31,0.589 0.6045,1.2865 0.6045,2.07701 0,2.18549 -2.2785,4.867 -10.0286,9.92001"
     id="path210"
     style="stroke-width:0.992001" />
  <path
     class="Note"
     fill="#00aa00"
     d="m 1841.825,601.56551 c -14.384,0 -23.312,6.06048 -23.312,13.39199 0,7.23851 6.1535,13.68656 22.2271,13.68656 17.6544,0 23.312,-6.13805 23.312,-13.68656 0,-7.64151 -12.1985,-13.39199 -22.2271,-13.39199 m -2.7745,2.48 c 7.3471,0 13.2991,7.93598 13.2991,14.49249 0,5.45601 -3.3791,7.62606 -8.246,7.62606 -7.1455,0 -13.9811,-8.23055 -13.9811,-15.17457 0,-5.549 3.8596,-6.94398 8.928,-6.94398"
     id="path212"
     style="stroke-width:0.992001" />
  <path
     class="Note"
     d="m 1423.2335,629.04701 c 18.259,0 21.9326,-14.88001 21.9326,-18.44501 0,-5.65754 -4.464,-9.33101 -10.912,-9.33101 -16.5696,0 -21.7311,12.80301 -21.7311,18.55352 0,5.84355 4.6655,9.2225 10.7105,9.2225 m 8.432,-8.835 c -4.96,3.379 -8.432,4.5725 -10.8035,4.5725 -2.294,0 -3.6735,-1.1935 -4.371,-2.5885 -0.403,-0.589 -0.6975,-1.3795 -0.6975,-2.17001 0,-5.363 15.9806,-14.19801 21.235,-14.19801 2.0771,0 3.2705,0.992 4.0611,2.387 0.31,0.589 0.6045,1.2865 0.6045,2.07701 0,2.18549 -2.2785,4.867 -10.0286,9.92001"
     id="path214"
     style="stroke-width:0.992001" />
  <path
     class="Note"
     d="m 461.50602,601.56551 c -14.38401,0 -23.31202,6.06048 -23.31202,13.39199 0,7.23851 6.15351,13.68656 22.22707,13.68656 17.65445,0 23.31203,-6.13805 23.31203,-13.68656 0,-7.64151 -12.19854,-13.39199 -22.22708,-13.39199 m -2.77452,2.48 c 7.34705,0 13.29906,7.93598 13.29906,14.49249 0,5.45601 -3.37905,7.62606 -8.24601,7.62606 -7.14548,0 -13.98106,-8.23055 -13.98106,-15.17457 0,-5.549 3.85958,-6.94398 8.92801,-6.94398"
     id="path216"
     style="stroke-width:0.992001" />
  <path
     class="Note"
     d="m 734.67754,653.84701 c 18.25896,0 21.93254,-14.88001 21.93254,-18.44501 0,-5.65754 -4.464,-9.33101 -10.91201,-9.33101 -16.56956,0 -21.73107,12.80301 -21.73107,18.55352 0,5.84355 4.66551,9.2225 10.71054,9.2225 m 8.432,-8.835 c -4.96,3.379 -8.432,4.5725 -10.80353,4.5725 -2.294,0 -3.6735,-1.1935 -4.37101,-2.5885 -0.403,-0.589 -0.69749,-1.3795 -0.69749,-2.17001 0,-5.363 15.98056,-14.19801 21.23499,-14.19801 2.07705,0 3.27053,0.992 4.06105,2.387 0.31,0.589 0.60453,1.2865 0.60453,2.07701 0,2.18549 -2.27853,4.867 -10.02854,9.92001"
     id="path218"
     style="stroke-width:0.992001" />
  <path
     class="Note"
     d="m 977.49502,638.76551 c -14.38401,0 -23.31202,6.06048 -23.31202,13.39199 0,7.23851 6.15351,13.68656 22.22707,13.68656 17.65445,0 23.31203,-6.13805 23.31203,-13.68656 0,-7.64151 -12.19854,-13.39199 -22.22708,-13.39199 m -2.77452,2.48 c 7.34705,0 13.29906,7.93598 13.29906,14.49249 0,5.45601 -3.37905,7.62606 -8.24601,7.62606 -7.14548,0 -13.98106,-8.23055 -13.98106,-15.17457 0,-5.549 3.85958,-6.94398 8.92801,-6.94398"
     id="path220"
     style="stroke-width:0.992001" />
  <path
     class="Note"
     fill="#00aa00"
     d="m 2078.495,601.56551 c -14.384,0 -23.312,6.06048 -23.312,13.39199 0,7.23851 6.1535,13.68656 22.2271,13.68656 17.6544,0 23.312,-6.13805 23.312,-13.68656 0,-7.64151 -12.1985,-13.39199 -22.2271,-13.39199 m -2.7745,2.48 c 7.3471,0 13.2991,7.93598 13.2991,14.49249 0,5.45601 -3.3791,7.62606 -8.246,7.62606 -7.1455,0 -13.9811,-8.23055 -13.9811,-15.17457 0,-5.549 3.8596,-6.94398 8.928,-6.94398"
     id="path222"
     style="stroke-width:0.992001" />
  <path
     class="Note"
     fill="#00aa00"
     d="m 1659.9035,641.44701 c 18.259,0 21.9326,-14.88001 21.9326,-18.44501 0,-5.65754 -4.464,-9.33101 -10.912,-9.33101 -16.5696,0 -21.7311,12.80301 -21.7311,18.55352 0,5.84355 4.6655,9.2225 10.7105,9.2225 m 8.432,-8.835 c -4.96,3.379 -8.432,4.5725 -10.8035,4.5725 -2.294,0 -3.6735,-1.1935 -4.371,-2.5885 -0.403,-0.589 -0.6975,-1.3795 -0.6975,-2.17001 0,-5.363 15.9806,-14.19801 21.235,-14.19801 2.0771,0 3.2705,0.992 4.0611,2.387 0.31,0.589 0.6045,1.2865 0.6045,2.07701 0,2.18549 -2.2785,4.867 -10.0286,9.92001"
     id="path224"
     style="stroke-width:0.992001" />
  <path
     class="Note"
     fill="#00aa00"
     d="m 2357.815,651.16551 c -14.384,0 -23.312,6.06048 -23.312,13.39199 0,7.23851 6.1535,13.68656 22.2271,13.68656 17.6544,0 23.312,-6.13805 23.312,-13.68656 0,-7.64151 -12.1985,-13.39199 -22.2271,-13.39199 m -2.7745,2.48 c 7.3471,0 13.2991,7.93598 13.2991,14.49249 0,5.45601 -3.3791,7.62606 -8.246,7.62606 -7.1455,0 -13.9811,-8.23055 -13.9811,-15.17457 0,-5.549 3.8596,-6.94398 8.928,-6.94398"
     id="path226"
     style="stroke-width:0.992001" />
  <path
     class="Note"
     d="m 224.83702,651.16551 c -14.38401,0 -23.31202,6.06048 -23.31202,13.39199 0,7.23851 6.15351,13.68656 22.22707,13.68656 17.65445,0 23.31203,-6.13805 23.31203,-13.68656 0,-7.64151 -12.19854,-13.39199 -22.22708,-13.39199 m -2.77452,2.48 c 7.34705,0 13.29906,7.93598 13.29906,14.49249 0,5.45601 -3.37905,7.62606 -8.24601,7.62606 -7.14548,0 -13.98106,-8.23055 -13.98106,-15.17457 0,-5.549 3.85958,-6.94398 8.92801,-6.94398"
     id="path228"
     style="stroke-width:0.992001" />
  <path
     class="Note"
     d="m 853.01354,641.44701 c 18.25896,0 21.93254,-14.88001 21.93254,-18.44501 0,-5.65754 -4.464,-9.33101 -10.91201,-9.33101 -16.56956,0 -21.73107,12.80301 -21.73107,18.55352 0,5.84355 4.66551,9.2225 10.71054,9.2225 m 8.432,-8.835 c -4.96,3.379 -8.432,4.5725 -10.80353,4.5725 -2.294,0 -3.6735,-1.1935 -4.37101,-2.5885 -0.403,-0.589 -0.69749,-1.3795 -0.69749,-2.17001 0,-5.363 15.98056,-14.19801 21.23499,-14.19801 2.07705,0 3.27053,0.992 4.06105,2.387 0.31,0.589 0.60453,1.2865 0.60453,2.07701 0,2.18549 -2.27853,4.867 -10.02854,9.92001"
     id="path230"
     style="stroke-width:0.992001" />
  <path
     class="Note"
     d="m 224.83702,133.04851 c -14.38401,0 -23.31202,6.06048 -23.31202,13.39199 0,7.23851 6.15351,13.68656 22.22707,13.68656 17.65445,0 23.31203,-6.13805 23.31203,-13.68656 0,-7.64151 -12.19854,-13.39199 -22.22708,-13.39199 m -2.77452,2.48 c 7.34705,0 13.29906,7.93598 13.29906,14.49249 0,5.45601 -3.37905,7.62606 -8.24601,7.62606 -7.14548,0 -13.98106,-8.23055 -13.98106,-15.17457 0,-5.549 3.85958,-6.94398 8.92801,-6.94398"
     id="path232"
     style="stroke-width:0.992001" />
  <path
     class="Clef"
     d="m 60.373562,142.67396 c -0.201475,-1.19348 0,-1.28653 0.588951,-1.89105 10.710536,-10.01296 18.848019,-22.61445 18.848019,-37.78899 0,-8.633485 -2.386952,-17.174019 -6.448006,-23.126521 -1.488002,-2.169506 -4.060955,-4.960005 -5.16148,-4.960005 -1.379477,0 -4.464005,2.589123 -6.448007,4.774501 -7.331483,8.122008 -9.718535,20.522025 -9.718535,30.844985 0,5.75053 0.697576,12.19853 1.395051,16.27506 0.186001,1.19348 0.294526,1.37948 -0.89905,2.37148 C 38.23954,140.98448 23.065,155.16692 23.065,175.20849 c 0,17.26702 11.811062,33.63501 36.115086,33.63501 2.278428,0 4.85148,-0.20148 6.835482,-0.60443 1.100526,-0.186 1.302001,-0.29452 1.488002,0.89896 1.193476,6.64948 2.681478,15.28306 2.681478,19.94854 0,14.67854 -9.92001,16.46097 -15.763492,16.46097 -5.363055,0 -7.951483,-1.58095 -7.951483,-2.88296 0,-0.682 0.898952,-0.992 3.177479,-1.674 3.084528,-0.89905 6.649482,-3.58053 6.649482,-9.33106 0,-5.456 -3.472004,-10.12148 -9.51696,-10.12148 -6.649582,0 -10.617586,5.25453 -10.617586,11.40801 0,6.44801 3.859579,16.16654 18.848019,16.16654 6.649582,0 19.545595,-2.976 19.545595,-19.84002 0,-5.64201 -1.782527,-15.06601 -2.883053,-21.2195 -0.201475,-1.19357 -0.09295,-1.10052 1.286526,-1.68957 10.028535,-3.96801 16.678017,-12.40001 16.678017,-23.6065 0,-12.71006 -9.331059,-23.9165 -23.916549,-23.9165 -2.572953,0 -2.572953,0 -2.867478,-1.78253 l -2.480003,-14.38401 m 9.315485,-52.390054 c 3.270528,0 5.952006,2.681478 5.952006,8.137483 0,11.020531 -9.424009,19.948541 -17.251493,26.784031 -0.697475,0.60452 -1.100525,0.496 -1.302001,-0.79053 -0.387475,-2.57295 -0.58905,-5.95201 -0.58905,-9.12948 0,-15.46897 7.145582,-25.001504 13.190538,-25.001504 M 58.885561,157.8485 c 0.294525,1.89095 0.294525,1.78243 -1.488002,2.38695 -8.742008,2.976 -14.399489,10.80349 -14.399489,19.23555 0,8.928 4.66548,15.28301 11.423486,17.56154 0.790526,0.29452 1.984002,0.60452 2.666003,0.60452 0.806001,0 1.193477,-0.496 1.193477,-1.10052 0,-0.69748 -0.790526,-0.992 -1.488002,-1.28653 -4.169479,-1.7825 -7.145482,-6.045 -7.145482,-10.61751 0,-5.6575 3.874954,-9.92001 9.92001,-11.60956 1.596526,-0.38748 1.798001,-0.29443 1.984002,0.806 l 4.960005,29.55855 c 0.201475,1.08506 0.108525,1.08506 -1.379477,1.37958 -1.596526,0.31 -3.580528,0.496 -5.56453,0.496 -17.360018,0 -28.566554,-9.61001 -28.566554,-23.40507 0,-5.85901 0.992001,-13.68654 9.222534,-23.0175 5.952006,-6.64958 10.524536,-10.32306 15.190015,-14.08959 0.992001,-0.79043 1.178002,-0.69747 1.379477,0.40305 l 2.092527,12.69454 m 6.835482,15.77896 c -0.201475,-1.19347 -0.09295,-1.488 1.100526,-1.39495 8.028958,0.69748 14.67854,7.43998 14.67854,16.16649 0,6.26206 -3.766529,11.31502 -9.331059,14.08954 -1.193477,0.60453 -1.379477,0.60453 -1.580952,-0.58905 l -4.867055,-28.27203"
     id="path234"
     style="stroke-width:0.992001" />
  <path
     class="Clef"
     d="m 48.0665,576.7655 c -17.266987,0 -25.0015,12.60149 -25.0015,22.1185 0,7.936 4.169509,14.78701 12.198537,14.78701 6.246531,0 10.524536,-4.371 10.524536,-10.50901 0,-6.35501 -4.66558,-10.32301 -9.532535,-10.32301 -2.681478,0 -3.673528,0.6975 -4.960025,0.6975 -1.286506,0 -1.581001,-0.79055 -1.581001,-1.78255 0,-3.968 5.951976,-11.22201 16.073561,-11.22201 10.508961,0 15.08149,10.32306 15.08149,25.90058 0,27.68305 -13.702014,43.15201 -36.812562,56.34255 -0.899001,0.496 -1.488001,0.992 -1.488001,1.78253 0,0.60452 0.403,1.19347 1.286501,1.19347 0.496005,0 1.100501,-0.20147 1.689502,-0.496 24.412549,-11.90401 50.204575,-29.55855 50.204575,-59.72155 0,-17.25157 -10.524535,-28.76801 -27.683078,-28.76801 m 37.401613,8.13748 c -3.084528,0 -5.456006,2.38695 -5.456006,5.45601 0,3.069 2.371478,5.456 5.456006,5.456 3.068953,0 5.456005,-2.387 5.456005,-5.456 0,-3.06906 -2.387052,-5.45601 -5.456005,-5.45601 m 0.09295,24.89303 c -3.068953,0 -5.347481,2.294 -5.347481,5.363 0,3.06906 2.278528,5.36306 5.347481,5.36306 3.084528,0 5.363055,-2.294 5.363055,-5.36306 0,-3.069 -2.278527,-5.363 -5.363055,-5.363"
     id="path236"
     style="stroke-width:0.992001" />
  <path
     class="TimeSig"
     d="m 149.65451,141.59201 v -21.23502 c 0,-0.79053 -0.093,-1.68948 -1.19347,-1.68948 -0.88348,0 -1.37948,0.20147 -1.98401,0.89895 l -9.42401,11.40803 c -0.40295,0.496 -0.89895,1.085 -0.89895,2.27851 v 8.33901 h -13.39206 c 7.93606,-6.75801 23.82355,-29.26408 24.11807,-30.45756 l 0.093,-0.29452 c 0,-0.89895 -0.69747,-1.488 -1.488,-1.488 -0.88347,0 -4.96,0.186 -6.74253,0.186 -1.78243,0 -6.24643,-0.186 -7.05243,-0.186 -0.88358,0 -2.27853,0.29452 -2.27853,1.87557 0,12.30696 -9.71853,26.0865 -12.69454,30.25601 l -0.589,0.7905 c 0,0 0,0.1085 0,0.1085 l -0.10849,0.093 c -0.20151,0.496 -0.29451,0.899 -0.29451,1.1935 0,0.992 0.79051,1.68948 1.984,1.68948 h 18.44507 v 6.24653 c 0,2.68148 -2.17,3.472 -3.968,3.472 -1.58105,0 -2.27853,0.89905 -2.27853,1.89105 0,0.992 0.40295,2.07695 1.89095,2.07695 h 21.12655 c 0.992,0 1.984,-0.69747 1.984,-2.07695 0,-1.39505 -1.19347,-1.984 -2.18548,-1.984 -0.992,0 -3.06905,-0.60452 -3.06905,-3.782 v -5.84358 h 7.23853 c 0.992,0 1.48801,-0.69748 1.48801,-1.89098 0,-1.1935 -0.38748,-1.8755 -1.48801,-1.8755 h -7.23853"
     id="path238"
     style="stroke-width:0.992001" />
  <path
     class="TimeSig"
     d="m 156.69157,193.45601 c 0,-1.178 -0.496,-1.3795 -1.19348,-1.3795 -0.79053,0 -1.10053,0.3875 -1.28653,1.085 l -0.10852,0.1085 c -0.992,2.48005 -1.78253,4.35553 -3.85948,4.35553 -0.496,0 -0.992,-0.0931 -1.68948,-0.29453 -1.28652,-0.496 -1.984,-0.58895 -2.976,-1.08495 -1.984,-0.806 -6.64958,-2.38705 -10.72601,-2.38705 -1.28653,0 -2.57305,0.2015 -3.658,0.58905 2.17,-3.56505 10.61748,-6.54106 12.78748,-7.13006 6.94401,-1.891 13.20602,-4.774 13.20602,-13.00449 0,-10.50906 -10.32306,-15.08159 -19.5455,-15.08159 -6.944,0 -13.09756,0.60453 -17.96456,6.26201 -1.68951,2.07705 -2.77451,4.55706 -2.77451,7.23853 0,1.37948 0.29451,2.77453 0.899,4.26253 1.488,3.06901 4.55701,5.45601 8.12206,5.45601 6.06043,0 6.94401,-6.24651 6.94401,-8.72654 0,-5.952 -6.83558,-6.24653 -6.83558,-8.23053 0.20157,-1.39495 1.984,-3.782 7.82758,-3.782 8.83496,0 8.94348,6.64958 8.94348,9.53253 0,9.02103 -7.45548,15.87205 -14.58549,20.22755 -5.45605,3.47205 -9.33106,8.33901 -11.02055,14.78701 l -0.093,0.29453 c 0,1.28652 1.085,3.37895 2.573,3.37895 2.1855,0 3.379,-6.06043 9.22255,-6.06043 3.96801,0 5.45601,5.36295 14.29097,5.36295 4.26253,0 11.90401,-0.40295 13.50054,-15.77901"
     id="path240"
     style="stroke-width:0.992001" />
  <path
     class="TimeSig"
     d="m 149.65451,610.11001 v -21.23502 c 0,-0.79053 -0.093,-1.68948 -1.19347,-1.68948 -0.88348,0 -1.37948,0.20147 -1.98401,0.89895 l -9.42401,11.40803 c -0.40295,0.496 -0.89895,1.085 -0.89895,2.27851 v 8.33901 h -13.39206 c 7.93606,-6.75801 23.82355,-29.26408 24.11807,-30.45756 l 0.093,-0.29452 c 0,-0.89895 -0.69747,-1.488 -1.488,-1.488 -0.88347,0 -4.96,0.186 -6.74253,0.186 -1.78243,0 -6.24643,-0.186 -7.05243,-0.186 -0.88358,0 -2.27853,0.29452 -2.27853,1.87557 0,12.30696 -9.71853,26.0865 -12.69454,30.25601 l -0.589,0.7905 c 0,0 0,0.1085 0,0.1085 l -0.10849,0.093 c -0.20151,0.496 -0.29451,0.899 -0.29451,1.1935 0,0.992 0.79051,1.68948 1.984,1.68948 h 18.44507 v 6.24653 c 0,2.68148 -2.17,3.472 -3.968,3.472 -1.58105,0 -2.27853,0.89905 -2.27853,1.89105 0,0.992 0.40295,2.07695 1.89095,2.07695 h 21.12655 c 0.992,0 1.984,-0.69747 1.984,-2.07695 0,-1.39505 -1.19347,-1.984 -2.18548,-1.984 -0.992,0 -3.06905,-0.60452 -3.06905,-3.782 v -5.84358 h 7.23853 c 0.992,0 1.48801,-0.69748 1.48801,-1.89098 0,-1.1935 -0.38748,-1.8755 -1.48801,-1.8755 h -7.23853"
     id="path242"
     style="stroke-width:0.992001" />
  <path
     class="TimeSig"
     d="m 156.69157,661.97301 c 0,-1.178 -0.496,-1.3795 -1.19348,-1.3795 -0.79053,0 -1.10053,0.3875 -1.28653,1.085 l -0.10852,0.1085 c -0.992,2.48005 -1.78253,4.35553 -3.85948,4.35553 -0.496,0 -0.992,-0.0931 -1.68948,-0.29453 -1.28652,-0.496 -1.984,-0.58895 -2.976,-1.08495 -1.984,-0.806 -6.64958,-2.38705 -10.72601,-2.38705 -1.28653,0 -2.57305,0.2015 -3.658,0.58905 2.17,-3.56505 10.61748,-6.54106 12.78748,-7.13006 6.94401,-1.891 13.20602,-4.774 13.20602,-13.00449 0,-10.50906 -10.32306,-15.08159 -19.5455,-15.08159 -6.944,0 -13.09756,0.60453 -17.96456,6.26201 -1.68951,2.07705 -2.77451,4.55706 -2.77451,7.23853 0,1.37948 0.29451,2.77453 0.899,4.26253 1.488,3.06901 4.55701,5.45601 8.12206,5.45601 6.06043,0 6.94401,-6.24651 6.94401,-8.72654 0,-5.952 -6.83558,-6.24653 -6.83558,-8.23053 0.20157,-1.39495 1.984,-3.782 7.82758,-3.782 8.83496,0 8.94348,6.64958 8.94348,9.53253 0,9.02103 -7.45548,15.87205 -14.58549,20.22755 -5.45605,3.47205 -9.33106,8.33901 -11.02055,14.78701 l -0.093,0.29453 c 0,1.28652 1.085,3.37895 2.573,3.37895 2.1855,0 3.379,-6.06043 9.22255,-6.06043 3.96801,0 5.45601,5.36295 14.29097,5.36295 4.26253,0 11.90401,-0.40295 13.50054,-15.77901"
     id="path244"
     style="stroke-width:0.992001" />
  <path
     class="Rest"
     d="m 2368.9305,219.46106 v -9.12955 c 0,-1.48801 -1.1935,-2.58851 -2.5729,-2.58851 h -22.8316 c -1.488,0 -2.573,1.1005 -2.573,2.58851 v 9.12955 c 0,1.37948 1.085,2.57295 2.573,2.57295 h 22.8316 c 1.3794,0 2.5729,-1.19347 2.5729,-2.57295"
     id="path246"
     style="stroke-width:0.992001" />
  <path
     class="Rest"
     d="m 1322.1605,575.572 v -9.11406 c 0,-1.488 -1.1935,-2.58843 -2.5729,-2.58843 h -22.8316 c -1.488,0 -2.573,1.10043 -2.573,2.58843 v 9.11406 c 0,1.395 1.085,2.5885 2.573,2.5885 h 22.8316 c 1.3794,0 2.5729,-1.1935 2.5729,-2.5885"
     id="path248"
     style="stroke-width:0.992001" />
  <path
     class="Rest"
     d="m 950.80599,551.175 c -0.99205,0 -1.78248,0.79049 -1.78248,1.7825 0,0.992 0.79043,1.7825 1.78248,1.7825 h 9.82701 v 9.23806 c 0,1.37948 1.085,2.57295 2.573,2.57295 h 22.83155 c 1.37948,0 2.57295,-1.19347 2.57295,-2.57295 v -9.12955 c 0,-0.10851 0,-0.10851 9.82706,-0.10851 0.992,0 1.78254,-0.7905 1.78254,-1.7825 0,-0.99201 -0.79054,-1.7825 -1.78254,-1.7825 h -47.63157"
     id="path250"
     style="stroke-width:0.992001" />
  <path
     class="Rest"
     d="m 1322.1605,649.972 v -9.11406 c 0,-1.488 -1.1935,-2.58843 -2.5729,-2.58843 h -22.8316 c -1.488,0 -2.573,1.10043 -2.573,2.58843 v 9.11406 c 0,1.395 1.085,2.5885 2.573,2.5885 h 22.8316 c 1.3794,0 2.5729,-1.1935 2.5729,-2.5885"
     id="path252"
     style="stroke-width:0.992001" />
  <path
     class="Lyrics"
     d="m 453.178,20.906 c 2.156,-3.078 3.141,-4 4.422,-4 1.797,0 2.219,2.531 4.063,2.531 1.671,0 2.203,-3.234 2.203,-3.5 0,-1.093 -1.61,-3.078 -3.985,-3.078 -2.812,0 -4.156,1.125 -6.593,5.125 h -0.11 V 12.64 h -1.344 l -7.187,2.907 v 1.25 l 4,2 v 12.625 c 0,3.078 -1.844,4.172 -4,4.172 v 1.937 h 14.047 v -1.937 c -4.766,0 -5.516,-1.141 -5.516,-5.188 v -9.5 m 16.797,10.734 c 0,2.704 -1.844,3.954 -3.891,3.954 v 1.937 h 11.766 v -1.937 c -1.937,-0.063 -3.344,-1.36 -3.344,-4.329 V 12.64 h -1.359 l -7.281,2.641 v 1.25 l 4.109,2.047 V 31.64 M 469.1,2.922 c 0,1.609 1.297,2.906 2.922,2.906 1.625,0 2.906,-1.297 2.906,-2.906 C 474.928,1.297 473.647,0 472.022,0 470.397,0 469.1,1.297 469.1,2.922"
     id="path254" />
  <path
     class="Lyrics"
     d="m 752.009,22.578 c 0,-3.844 -3.016,-9.938 -9.985,-9.938 -6.375,0 -11.281,5.61 -11.281,13.016 0,7.234 4.687,12.469 11.219,12.469 4.109,0 7.734,-2.11 10.047,-5.891 l -1.125,-1.015 c -2.063,1.781 -4.219,2.593 -6.75,2.593 -5.032,0 -9.61,-4 -9.344,-11.234 h 17.219 m -16.891,-1.953 c 0.484,-3.672 2.75,-5.985 5.875,-5.985 2.969,0 4.922,2.157 5.344,5.985 h -11.219"
     id="path256" />
  <path
     class="Lyrics"
     fill="#00aa00"
     d="m 2325.723,7.736 c -2,-1.562 -4.44,-2.312 -7.3,-2.312 -4.64,0 -7.87,2.75 -7.87,6.687 0,1.578 0.59,3.406 1.67,4.485 4.42,4.437 11.55,4.328 11.55,8.484 0,2.203 -2.05,3.828 -4.91,3.828 -3.23,0 -5.23,-2.312 -5.78,-6.531 h -1.78 v 6.797 c 2.05,1.031 5.23,1.734 7.94,1.734 5.08,0 8.26,-2.703 8.26,-7.125 0,-1.781 -0.59,-3.516 -1.73,-4.641 -3.08,-3.078 -11.28,-4.062 -11.28,-8.109 0,-2.312 1.51,-3.609 4.04,-3.609 2.97,0 4.71,1.89 5.52,6.156 h 1.67 V 7.736 m 5.94,10.266 c 0,7.015 5.66,12.906 12.47,12.906 6.9,0 12.15,-5.609 12.15,-12.953 0,-7.344 -5.18,-12.531 -12.59,-12.531 -6.69,0 -12.03,5.562 -12.03,12.578 m 5.12,-2.047 c 0,-6.266 2.64,-8.531 6.69,-8.531 6.11,0 7.95,9.172 7.95,13.812 0,4.703 -2.59,7.672 -6.81,7.672 -5.56,0 -7.83,-8.156 -7.83,-12.953 m 31,-3.734 c 2.32,-1.938 4.6,-3.188 7.08,-3.188 3.5,0 5.06,2.547 5.06,5.938 v 8.968 c 0,2.922 -1.23,4.438 -4.37,4.438 v 1.937 h 12.75 v -1.937 c -3.08,-0.328 -3.83,-1.625 -3.83,-4.328 V 13.783 c 0,-5.828 -2.92,-8.359 -7.94,-8.359 -2.96,0 -6.43,1.672 -8.64,4.593 h -0.11 V 5.424 h -1.36 l -6.79,2.531 v 1.25 l 3.62,2.047 v 13.015 c 0,2.704 -1.29,4 -4,4.11 v 1.937 h 12.91 v -1.937 c -3.19,0 -4.38,-1.469 -4.38,-4.438 V 12.221"
     id="path258" />
  <path
     class="Lyrics"
     d="m 1557.763,22.578 c 0,-3.844 -3.01,-9.938 -9.98,-9.938 -6.38,0 -11.28,5.61 -11.28,13.016 0,7.234 4.68,12.469 11.22,12.469 4.1,0 7.73,-2.11 10.04,-5.891 l -1.12,-1.015 c -2.07,1.781 -4.22,2.593 -6.75,2.593 -5.03,0 -9.61,-4 -9.35,-11.234 h 17.22 m -16.89,-1.953 c 0.49,-3.672 2.75,-5.985 5.88,-5.985 2.97,0 4.92,2.157 5.34,5.985 h -11.22"
     id="path260" />
  <path
     class="Lyrics"
     fill="#00aa00"
     d="m 1657.973,0 h -1.36 l -6.91,2.484 v 1.25 l 3.72,2.047 v 25.703 c 0,2.328 -1.02,3.938 -3.72,4.11 v 1.937 h 11.61 v -1.937 c -2.44,-0.172 -3.34,-1.782 -3.34,-4.485 V 0 m 28.81,22.578 c 0,-3.844 -3.02,-9.938 -9.99,-9.938 -6.37,0 -11.28,5.61 -11.28,13.016 0,7.234 4.69,12.469 11.22,12.469 4.11,0 7.74,-2.11 10.05,-5.891 l -1.13,-1.015 c -2.06,1.781 -4.21,2.593 -6.75,2.593 -5.03,0 -9.61,-4 -9.34,-11.234 h 17.22 m -16.89,-1.953 c 0.48,-3.672 2.75,-5.985 5.87,-5.985 2.97,0 4.93,2.157 5.35,5.985 h -11.22 m 23.81,11.015 c 0,2.704 -1.84,3.954 -3.89,3.954 v 1.937 h 11.77 v -1.937 c -1.94,-0.063 -3.35,-1.36 -3.35,-4.329 V 12.64 h -1.36 l -7.28,2.641 v 1.25 l 4.11,2.047 V 31.64 m -0.87,-28.718 c 0,1.609 1.29,2.906 2.92,2.906 1.62,0 2.9,-1.297 2.9,-2.906 0,-1.625 -1.28,-2.922 -2.9,-2.922 -1.63,0 -2.92,1.297 -2.92,2.922"
     id="path262" />
  <path
     class="Lyrics"
     d="M 190.962,0.703 V 2.75 c 4.75,0 5.719,2.109 5.719,6 v 20.953 c 0,4.156 -1.453,5.781 -5.719,5.781 v 2.047 H 208.4 v -2.047 c -4.797,0 -6.047,-1.953 -6.047,-5.297 V 7.828 c 0,-3.672 1.891,-5.078 5.734,-5.078 V 0.703 h -17.125 m 23.172,0 V 2.75 c 2.266,0 3.297,0.812 3.297,2.219 0,2.156 -4.219,6.421 -14.64,13.609 l 0.703,0.641 c 9.172,7.734 15.875,14.687 20.406,18.312 h 9.516 v -2.156 c -2.282,-0.438 -4.172,-1.188 -7.188,-3.453 -5.453,-4.172 -12.203,-11.188 -17.234,-15.016 7.562,-5.562 10.375,-9.078 13.781,-11.609 2.156,-1.625 4,-2.266 6.641,-2.547 V 0.703 h -15.282 m 28.735,37.094 c -1.407,4.656 -2.703,6.484 -4.75,6.484 -1.938,0 -1.938,-1.734 -3.828,-1.734 -1.297,0 -2.329,0.984 -2.329,2.218 0,1.844 1.782,3.079 4.329,3.079 3.234,0 5.5,-1.829 7.062,-5.782 l 8.969,-22.781 c 1.078,-2.75 1.734,-3.672 3.781,-4.109 v -1.938 h -9.344 v 1.938 c 3.297,0.172 4.047,2.218 2.969,5.031 l -4.641,11.812 -5.562,-12.734 c -1.25,-2.812 -0.547,-4 2.641,-4.109 V 13.234 H 230.4 v 1.938 c 1.734,0 2.484,0 3.891,3.187 l 8.578,19.438"
     id="path264" />
  <path
     class="Lyrics"
     fill="#00aa00"
     d="m 2173.173,347.464 c -2,-1.563 -4.44,-2.313 -7.3,-2.313 -4.64,0 -7.88,2.75 -7.88,6.688 0,1.578 0.6,3.406 1.68,4.484 4.42,4.438 11.54,4.328 11.54,8.485 0,2.203 -2.04,3.828 -4.9,3.828 -3.24,0 -5.24,-2.313 -5.78,-6.532 h -1.79 v 6.797 c 2.05,1.032 5.24,1.735 7.94,1.735 5.08,0 8.27,-2.703 8.27,-7.125 0,-1.782 -0.6,-3.516 -1.74,-4.641 -3.07,-3.078 -11.28,-4.062 -11.28,-8.109 0,-2.313 1.52,-3.61 4.05,-3.61 2.97,0 4.7,1.891 5.51,6.157 h 1.68 v -5.844 m 5.93,10.265 c 0,7.016 5.66,12.907 12.47,12.907 6.91,0 12.16,-5.61 12.16,-12.953 0,-7.344 -5.19,-12.532 -12.59,-12.532 -6.69,0 -12.04,5.563 -12.04,12.578 m 5.13,-2.046 c 0,-6.266 2.64,-8.532 6.69,-8.532 6.11,0 7.95,9.172 7.95,13.813 0,4.703 -2.59,7.672 -6.81,7.672 -5.57,0 -7.83,-8.157 -7.83,-12.953 m 31,-3.735 c 2.31,-1.937 4.59,-3.187 7.08,-3.187 3.5,0 5.06,2.547 5.06,5.937 v 8.969 c 0,2.922 -1.23,4.437 -4.38,4.437 v 1.938 h 12.75 v -1.938 c -3.07,-0.328 -3.82,-1.625 -3.82,-4.328 v -10.265 c 0,-5.828 -2.93,-8.36 -7.94,-8.36 -2.97,0 -6.44,1.672 -8.64,4.594 h -0.11 v -4.594 h -1.36 l -6.8,2.532 v 1.25 l 3.63,2.046 v 13.016 c 0,2.703 -1.3,4 -4,4.109 v 1.938 h 12.9 v -1.938 c -3.18,0 -4.37,-1.468 -4.37,-4.437 v -11.719 m 29.37,12.047 c -1.82,0 -3.29,1.453 -3.29,3.297 0,1.828 1.47,3.344 3.29,3.344 1.85,0 3.35,-1.516 3.35,-3.344 0,-1.844 -1.5,-3.297 -3.35,-3.297"
     id="path266" />
  <path
     class="Lyrics"
     d="m 326.979,333.214 v 2.047 c 4.75,0 5.719,2.109 5.719,6 v 20.953 c 0,4.156 -1.453,5.781 -5.719,5.781 v 2.047 h 17.438 v -2.047 c -4.797,0 -6.047,-1.953 -6.047,-5.297 v -22.359 c 0,-3.672 1.89,-5.078 5.734,-5.078 v -2.047 h -17.125 m 23.172,0 v 2.047 c 2.266,0 3.297,0.812 3.297,2.218 0,2.157 -4.219,6.422 -14.641,13.61 l 0.703,0.64 c 9.172,7.735 15.875,14.688 20.407,18.313 h 9.515 v -2.156 c -2.281,-0.438 -4.172,-1.188 -7.187,-3.453 -5.453,-4.172 -12.203,-11.188 -17.235,-15.016 7.563,-5.563 10.375,-9.078 13.782,-11.609 2.156,-1.625 4,-2.266 6.64,-2.547 v -2.047 h -15.281 m 28.734,37.094 c -1.406,4.656 -2.703,6.484 -4.75,6.484 -1.937,0 -1.937,-1.734 -3.828,-1.734 -1.297,0 -2.328,0.984 -2.328,2.218 0,1.844 1.781,3.078 4.328,3.078 3.235,0 5.5,-1.828 7.063,-5.781 l 8.969,-22.781 c 1.078,-2.75 1.734,-3.672 3.781,-4.109 v -1.938 h -9.344 v 1.938 c 3.297,0.171 4.047,2.218 2.969,5.031 l -4.641,11.812 -5.562,-12.734 c -1.25,-2.813 -0.547,-4 2.64,-4.109 v -1.938 h -11.765 v 1.938 c 1.734,0 2.484,0 3.89,3.187 l 8.578,19.438"
     id="path268" />
  <path
     class="Lyrics"
     d="m 1287.393,347.464 c -2,-1.563 -4.44,-2.313 -7.3,-2.313 -4.64,0 -7.87,2.75 -7.87,6.688 0,1.578 0.59,3.406 1.67,4.484 4.42,4.438 11.55,4.328 11.55,8.485 0,2.203 -2.05,3.828 -4.91,3.828 -3.23,0 -5.23,-2.313 -5.78,-6.532 h -1.78 v 6.797 c 2.05,1.032 5.23,1.735 7.94,1.735 5.07,0 8.26,-2.703 8.26,-7.125 0,-1.782 -0.59,-3.516 -1.73,-4.641 -3.08,-3.078 -11.28,-4.062 -11.28,-8.109 0,-2.313 1.51,-3.61 4.04,-3.61 2.97,0 4.71,1.891 5.52,6.157 h 1.67 v -5.844 m 5.94,10.265 c 0,7.016 5.65,12.907 12.47,12.907 6.9,0 12.15,-5.61 12.15,-12.953 0,-7.344 -5.18,-12.532 -12.59,-12.532 -6.69,0 -12.03,5.563 -12.03,12.578 m 5.12,-2.046 c 0,-6.266 2.64,-8.532 6.69,-8.532 6.11,0 7.95,9.172 7.95,13.813 0,4.703 -2.59,7.672 -6.81,7.672 -5.56,0 -7.83,-8.157 -7.83,-12.953 m 31,-3.735 c 2.32,-1.937 4.6,-3.187 7.08,-3.187 3.5,0 5.06,2.547 5.06,5.937 v 8.969 c 0,2.922 -1.23,4.437 -4.37,4.437 v 1.938 h 12.75 v -1.938 c -3.08,-0.328 -3.83,-1.625 -3.83,-4.328 v -10.265 c 0,-5.828 -2.92,-8.36 -7.94,-8.36 -2.97,0 -6.43,1.672 -8.64,4.594 h -0.11 v -4.594 h -1.36 l -6.79,2.532 v 1.25 l 3.62,2.046 v 13.016 c 0,2.703 -1.3,4 -4,4.109 v 1.938 h 12.91 v -1.938 c -3.19,0 -4.38,-1.468 -4.38,-4.437 v -11.719 m 23.33,26.36 c 6.86,-0.11 10.8,-3.454 10.8,-9.188 0,-4.484 -2.42,-7.875 -5.61,-7.875 -2.11,0 -3.45,1.297 -3.45,3.391 0,1.953 1.23,3.078 3.34,3.078 1.89,0 2.59,0.984 2.59,3.078 0,3.469 -2.86,4.969 -7.67,5.516 v 2"
     id="path270" />
  <path
     class="Lyrics"
     d="m 750.878,355.089 c 0,-3.844 -3.015,-9.938 -9.984,-9.938 -6.375,0 -11.281,5.61 -11.281,13.016 0,7.234 4.687,12.469 11.218,12.469 4.11,0 7.735,-2.11 10.047,-5.891 l -1.125,-1.016 c -2.062,1.782 -4.219,2.594 -6.75,2.594 -5.031,0 -9.609,-4 -9.344,-11.234 h 17.219 m -16.89,-1.953 c 0.484,-3.672 2.75,-5.985 5.875,-5.985 2.968,0 4.921,2.157 5.343,5.985 h -11.218"
     id="path272" />
  <path
     class="Lyrics"
     fill="#00aa00"
     d="m 1657.973,332.511 h -1.36 l -6.91,2.484 v 1.25 l 3.72,2.047 v 25.703 c 0,2.328 -1.02,3.938 -3.72,4.109 v 1.938 h 11.61 v -1.938 c -2.44,-0.171 -3.34,-1.781 -3.34,-4.484 v -31.109 m 28.81,22.578 c 0,-3.844 -3.02,-9.938 -9.99,-9.938 -6.37,0 -11.28,5.61 -11.28,13.016 0,7.234 4.69,12.469 11.22,12.469 4.11,0 7.74,-2.11 10.05,-5.891 l -1.13,-1.016 c -2.06,1.782 -4.21,2.594 -6.75,2.594 -5.03,0 -9.61,-4 -9.34,-11.234 h 17.22 m -16.89,-1.953 c 0.48,-3.672 2.75,-5.985 5.87,-5.985 2.97,0 4.93,2.157 5.35,5.985 h -11.22 m 23.81,11.015 c 0,2.703 -1.84,3.953 -3.89,3.953 v 1.938 h 11.77 v -1.938 c -1.94,-0.062 -3.35,-1.359 -3.35,-4.328 v -18.625 h -1.36 l -7.28,2.641 v 1.25 l 4.11,2.047 v 13.062 m -0.87,-28.718 c 0,1.609 1.29,2.906 2.92,2.906 1.62,0 2.9,-1.297 2.9,-2.906 0,-1.625 -1.28,-2.922 -2.9,-2.922 -1.63,0 -2.92,1.297 -2.92,2.922"
     id="path274" />
  <path
     class="Lyrics"
     d="m 201.181,347.464 c -2,-1.563 -4.437,-2.313 -7.297,-2.313 -4.64,0 -7.875,2.75 -7.875,6.688 0,1.578 0.594,3.406 1.672,4.484 4.422,4.438 11.547,4.328 11.547,8.485 0,2.203 -2.047,3.828 -4.906,3.828 -3.235,0 -5.235,-2.313 -5.781,-6.532 h -1.782 v 6.797 c 2.047,1.032 5.235,1.735 7.938,1.735 5.078,0 8.265,-2.703 8.265,-7.125 0,-1.782 -0.593,-3.516 -1.734,-4.641 -3.078,-3.078 -11.281,-4.062 -11.281,-8.109 0,-2.313 1.515,-3.61 4.047,-3.61 2.968,0 4.703,1.891 5.515,6.157 h 1.672 v -5.844 m 5.938,10.265 c 0,7.016 5.656,12.907 12.468,12.907 6.907,0 12.157,-5.61 12.157,-12.953 0,-7.344 -5.188,-12.532 -12.594,-12.532 -6.688,0 -12.031,5.563 -12.031,12.578 m 5.125,-2.046 c 0,-6.266 2.64,-8.532 6.687,-8.532 6.11,0 7.953,9.172 7.953,13.813 0,4.703 -2.593,7.672 -6.812,7.672 -5.563,0 -7.828,-8.157 -7.828,-12.953 m 31,-3.735 c 2.312,-1.937 4.593,-3.187 7.078,-3.187 3.5,0 5.062,2.547 5.062,5.937 v 8.969 c 0,2.922 -1.234,4.437 -4.375,4.437 v 1.938 h 12.75 v -1.938 c -3.078,-0.328 -3.828,-1.625 -3.828,-4.328 v -10.265 c 0,-5.828 -2.922,-8.36 -7.937,-8.36 -2.969,0 -6.438,1.672 -8.641,4.594 h -0.109 v -4.594 h -1.36 l -6.797,2.532 v 1.25 l 3.625,2.046 v 13.016 c 0,2.703 -1.296,4 -4,4.109 v 1.938 h 12.907 v -1.938 c -3.188,0 -4.375,-1.468 -4.375,-4.437 v -11.719 m 29.375,12.047 c -1.828,0 -3.297,1.453 -3.297,3.297 0,1.828 1.469,3.344 3.297,3.344 1.843,0 3.343,-1.516 3.343,-3.344 0,-1.844 -1.5,-3.297 -3.343,-3.297"
     id="path276" />
  <path
     class="Lyrics"
     d="m 571.513,353.417 c 2.156,-3.078 3.14,-4 4.422,-4 1.796,0 2.218,2.531 4.062,2.531 1.672,0 2.203,-3.234 2.203,-3.5 0,-1.094 -1.609,-3.078 -3.984,-3.078 -2.813,0 -4.156,1.125 -6.594,5.125 h -0.109 v -5.344 h -1.344 l -7.188,2.907 v 1.25 l 4,2 v 12.625 c 0,3.078 -1.843,4.171 -4,4.171 v 1.938 h 14.047 v -1.938 c -4.765,0 -5.515,-1.14 -5.515,-5.187 v -9.5 m 16.797,10.734 c 0,2.703 -1.844,3.953 -3.891,3.953 v 1.938 h 11.766 v -1.938 c -1.938,-0.062 -3.344,-1.359 -3.344,-4.328 v -18.625 h -1.36 l -7.281,2.641 v 1.25 l 4.11,2.047 v 13.062 m -0.875,-28.718 c 0,1.609 1.296,2.906 2.921,2.906 1.625,0 2.907,-1.297 2.907,-2.906 0,-1.625 -1.282,-2.922 -2.907,-2.922 -1.625,0 -2.921,1.297 -2.921,2.922"
     id="path278" />
  <path
     class="Lyrics"
     d="m 959.233,332.511 h -1.36 l -6.9,2.484 v 1.25 l 3.71,2.047 v 25.703 c 0,2.328 -1.01,3.938 -3.71,4.109 v 1.938 h 11.61 v -1.938 c -2.44,-0.171 -3.35,-1.781 -3.35,-4.484 v -31.109 m 28.81,22.578 c 0,-3.844 -3.01,-9.938 -9.98,-9.938 -6.38,0 -11.28,5.61 -11.28,13.016 0,7.234 4.69,12.469 11.22,12.469 4.11,0 7.73,-2.11 10.04,-5.891 l -1.12,-1.016 c -2.06,1.782 -4.22,2.594 -6.75,2.594 -5.03,0 -9.61,-4 -9.34,-11.234 h 17.21 m -16.89,-1.953 c 0.49,-3.672 2.75,-5.985 5.88,-5.985 2.97,0 4.92,2.157 5.34,5.985 h -11.22 m 23.82,11.015 c 0,2.703 -1.85,3.953 -3.89,3.953 v 1.938 h 11.76 v -1.938 c -1.94,-0.062 -3.34,-1.359 -3.34,-4.328 v -18.625 h -1.36 l -7.28,2.641 v 1.25 l 4.11,2.047 v 13.062 m -0.88,-28.718 c 0,1.609 1.3,2.906 2.92,2.906 1.63,0 2.91,-1.297 2.91,-2.906 0,-1.625 -1.28,-2.922 -2.91,-2.922 -1.62,0 -2.92,1.297 -2.92,2.922"
     id="path280" />
  <path
     class="Lyrics"
     d="m 1557.763,355.089 c 0,-3.844 -3.01,-9.938 -9.98,-9.938 -6.38,0 -11.28,5.61 -11.28,13.016 0,7.234 4.68,12.469 11.22,12.469 4.1,0 7.73,-2.11 10.04,-5.891 l -1.12,-1.016 c -2.07,1.782 -4.22,2.594 -6.75,2.594 -5.03,0 -9.61,-4 -9.35,-11.234 h 17.22 m -16.89,-1.953 c 0.49,-3.672 2.75,-5.985 5.88,-5.985 2.97,0 4.92,2.157 5.34,5.985 h -11.22"
     id="path282" />
  <path
     class="Lyrics"
     d="m 869.213,355.089 c 0,-3.844 -3.02,-9.938 -9.98,-9.938 -6.38,0 -11.29,5.61 -11.29,13.016 0,7.234 4.69,12.469 11.22,12.469 4.11,0 7.74,-2.11 10.05,-5.891 l -1.13,-1.016 c -2.06,1.782 -4.21,2.594 -6.75,2.594 -5.03,0 -9.6,-4 -9.34,-11.234 h 17.22 m -16.89,-1.953 c 0.48,-3.672 2.75,-5.985 5.87,-5.985 2.97,0 4.93,2.157 5.35,5.985 h -11.22"
     id="path284" />
  <path
     class="Lyrics"
     d="m 427.631,421.814 v 2.047 c 4.75,0 5.719,2.109 5.719,6 v 20.953 c 0,4.156 -1.453,5.781 -5.719,5.781 v 2.047 h 17.438 v -2.047 c -4.797,0 -6.047,-1.953 -6.047,-5.297 v -22.359 c 0,-3.672 1.891,-5.078 5.734,-5.078 v -2.047 h -17.125 m 23.172,0 v 2.047 c 2.266,0 3.297,0.812 3.297,2.218 0,2.157 -4.219,6.422 -14.641,13.61 l 0.704,0.64 c 9.171,7.735 15.875,14.688 20.406,18.313 h 9.515 v -2.156 c -2.281,-0.438 -4.171,-1.188 -7.187,-3.453 -5.453,-4.172 -12.203,-11.188 -17.234,-15.016 7.562,-5.563 10.375,-9.078 13.781,-11.609 2.156,-1.625 4,-2.266 6.64,-2.547 v -2.047 h -15.281 m 28.735,37.094 c -1.407,4.656 -2.704,6.484 -4.75,6.484 -1.938,0 -1.938,-1.734 -3.829,-1.734 -1.296,0 -2.328,0.984 -2.328,2.218 0,1.844 1.782,3.078 4.328,3.078 3.235,0 5.5,-1.828 7.063,-5.781 l 8.969,-22.781 c 1.078,-2.75 1.734,-3.672 3.781,-4.109 v -1.938 h -9.344 v 1.938 c 3.297,0.171 4.047,2.218 2.969,5.031 l -4.641,11.812 -5.562,-12.734 c -1.25,-2.813 -0.547,-4 2.64,-4.109 v -1.938 h -11.765 v 1.938 c 1.734,0 2.484,0 3.89,3.187 l 8.579,19.438"
     id="path286" />
  <path
     class="Lyrics"
     d="m 201.181,436.064 c -2,-1.563 -4.437,-2.313 -7.297,-2.313 -4.64,0 -7.875,2.75 -7.875,6.688 0,1.578 0.594,3.406 1.672,4.484 4.422,4.438 11.547,4.328 11.547,8.485 0,2.203 -2.047,3.828 -4.906,3.828 -3.235,0 -5.235,-2.313 -5.781,-6.532 h -1.782 v 6.797 c 2.047,1.032 5.235,1.735 7.938,1.735 5.078,0 8.265,-2.703 8.265,-7.125 0,-1.782 -0.593,-3.516 -1.734,-4.641 -3.078,-3.078 -11.281,-4.062 -11.281,-8.109 0,-2.313 1.515,-3.61 4.047,-3.61 2.968,0 4.703,1.891 5.515,6.157 h 1.672 v -5.844 m 5.938,10.265 c 0,7.016 5.656,12.907 12.468,12.907 6.907,0 12.157,-5.61 12.157,-12.953 0,-7.344 -5.188,-12.532 -12.594,-12.532 -6.688,0 -12.031,5.563 -12.031,12.578 m 5.125,-2.046 c 0,-6.266 2.64,-8.532 6.687,-8.532 6.11,0 7.953,9.172 7.953,13.813 0,4.703 -2.593,7.672 -6.812,7.672 -5.563,0 -7.828,-8.157 -7.828,-12.953 m 31,-3.735 c 2.312,-1.937 4.593,-3.187 7.078,-3.187 3.5,0 5.062,2.547 5.062,5.937 v 8.969 c 0,2.922 -1.234,4.437 -4.375,4.437 v 1.938 h 12.75 v -1.938 c -3.078,-0.328 -3.828,-1.625 -3.828,-4.328 v -10.265 c 0,-5.828 -2.922,-8.36 -7.937,-8.36 -2.969,0 -6.438,1.672 -8.641,4.594 h -0.109 v -4.594 h -1.36 l -6.797,2.532 v 1.25 l 3.625,2.046 v 13.016 c 0,2.703 -1.296,4 -4,4.109 v 1.938 h 12.907 v -1.938 c -3.188,0 -4.375,-1.468 -4.375,-4.437 v -11.719 m 29.375,12.047 c -1.828,0 -3.297,1.453 -3.297,3.297 0,1.828 1.469,3.344 3.297,3.344 1.843,0 3.343,-1.516 3.343,-3.344 0,-1.844 -1.5,-3.297 -3.343,-3.297"
     id="path288" />
  <path
     class="Lyrics"
     d="m 1439.433,443.689 c 0,-3.844 -3.02,-9.938 -9.99,-9.938 -6.37,0 -11.28,5.61 -11.28,13.016 0,7.234 4.69,12.469 11.22,12.469 4.11,0 7.74,-2.11 10.05,-5.891 l -1.13,-1.016 c -2.06,1.782 -4.22,2.594 -6.75,2.594 -5.03,0 -9.61,-4 -9.34,-11.234 h 17.22 m -16.89,-1.953 c 0.48,-3.672 2.75,-5.985 5.87,-5.985 2.97,0 4.92,2.157 5.35,5.985 h -11.22"
     id="path290" />
  <path
     class="Lyrics"
     fill="#00aa00"
     d="m 2054.833,436.064 c -2,-1.563 -4.44,-2.313 -7.29,-2.313 -4.65,0 -7.88,2.75 -7.88,6.688 0,1.578 0.59,3.406 1.67,4.484 4.42,4.438 11.55,4.328 11.55,8.485 0,2.203 -2.05,3.828 -4.91,3.828 -3.23,0 -5.23,-2.313 -5.78,-6.532 h -1.78 v 6.797 c 2.05,1.032 5.23,1.735 7.94,1.735 5.08,0 8.26,-2.703 8.26,-7.125 0,-1.782 -0.59,-3.516 -1.73,-4.641 -3.08,-3.078 -11.28,-4.062 -11.28,-8.109 0,-2.313 1.51,-3.61 4.04,-3.61 2.97,0 4.71,1.891 5.52,6.157 h 1.67 v -5.844 m 5.94,10.265 c 0,7.016 5.66,12.907 12.47,12.907 6.9,0 12.15,-5.61 12.15,-12.953 0,-7.344 -5.18,-12.532 -12.59,-12.532 -6.69,0 -12.03,5.563 -12.03,12.578 m 5.12,-2.046 c 0,-6.266 2.65,-8.532 6.69,-8.532 6.11,0 7.96,9.172 7.96,13.813 0,4.703 -2.6,7.672 -6.82,7.672 -5.56,0 -7.83,-8.157 -7.83,-12.953 m 31,-3.735 c 2.32,-1.937 4.6,-3.187 7.08,-3.187 3.5,0 5.07,2.547 5.07,5.937 v 8.969 c 0,2.922 -1.24,4.437 -4.38,4.437 v 1.938 h 12.75 v -1.938 c -3.08,-0.328 -3.83,-1.625 -3.83,-4.328 v -10.265 c 0,-5.828 -2.92,-8.36 -7.94,-8.36 -2.96,0 -6.43,1.672 -8.64,4.594 h -0.11 v -4.594 h -1.35 l -6.8,2.532 v 1.25 l 3.62,2.046 v 13.016 c 0,2.703 -1.29,4 -4,4.109 v 1.938 h 12.91 v -1.938 c -3.19,0 -4.38,-1.468 -4.38,-4.437 v -11.719 m 29.38,12.047 c -1.83,0 -3.3,1.453 -3.3,3.297 0,1.828 1.47,3.344 3.3,3.344 1.84,0 3.34,-1.516 3.34,-3.344 0,-1.844 -1.5,-3.297 -3.34,-3.297"
     id="path292" />
  <path
     class="Lyrics"
     d="m 1546.083,421.111 h -1.36 l -6.91,2.484 v 1.25 l 3.72,2.047 v 25.703 c 0,2.328 -1.01,3.938 -3.72,4.109 v 1.938 h 11.61 v -1.938 c -2.43,-0.171 -3.34,-1.781 -3.34,-4.484 v -31.109 m 28.81,22.578 c 0,-3.844 -3.01,-9.938 -9.98,-9.938 -6.38,0 -11.28,5.61 -11.28,13.016 0,7.234 4.68,12.469 11.22,12.469 4.11,0 7.73,-2.11 10.04,-5.891 l -1.12,-1.016 c -2.06,1.782 -4.22,2.594 -6.75,2.594 -5.03,0 -9.61,-4 -9.35,-11.234 h 17.22 m -16.89,-1.953 c 0.49,-3.672 2.75,-5.985 5.88,-5.985 2.97,0 4.92,2.157 5.34,5.985 h -11.22 m 23.81,11.015 c 0,2.703 -1.84,3.953 -3.89,3.953 v 1.938 h 11.77 v -1.938 c -1.94,-0.062 -3.34,-1.359 -3.34,-4.328 v -18.625 h -1.36 l -7.28,2.641 v 1.25 l 4.1,2.047 v 13.062 m -0.87,-28.718 c 0,1.609 1.3,2.906 2.92,2.906 1.63,0 2.91,-1.297 2.91,-2.906 0,-1.625 -1.28,-2.922 -2.91,-2.922 -1.62,0 -2.92,1.297 -2.92,2.922"
     id="path294" />
  <path
     class="Lyrics"
     d="m 732.503,442.017 c 2.156,-3.078 3.141,-4 4.422,-4 1.797,0 2.219,2.531 4.063,2.531 1.671,0 2.203,-3.234 2.203,-3.5 0,-1.094 -1.61,-3.078 -3.985,-3.078 -2.812,0 -4.156,1.125 -6.593,5.125 h -0.11 v -5.344 h -1.344 l -7.187,2.907 v 1.25 l 4,2 v 12.625 c 0,3.078 -1.844,4.171 -4,4.171 v 1.938 h 14.047 v -1.938 c -4.766,0 -5.516,-1.14 -5.516,-5.187 v -9.5 m 16.797,10.734 c 0,2.703 -1.844,3.953 -3.891,3.953 v 1.938 h 11.766 v -1.938 c -1.937,-0.062 -3.344,-1.359 -3.344,-4.328 v -18.625 h -1.359 l -7.281,2.641 v 1.25 l 4.109,2.047 v 13.062 m -0.875,-28.718 c 0,1.609 1.297,2.906 2.922,2.906 1.625,0 2.906,-1.297 2.906,-2.906 0,-1.625 -1.281,-2.922 -2.906,-2.922 -1.625,0 -2.922,1.297 -2.922,2.922"
     id="path296" />
  <path
     class="Lyrics"
     d="m 869.213,443.689 c 0,-3.844 -3.02,-9.938 -9.98,-9.938 -6.38,0 -11.29,5.61 -11.29,13.016 0,7.234 4.69,12.469 11.22,12.469 4.11,0 7.74,-2.11 10.05,-5.891 l -1.13,-1.016 c -2.06,1.782 -4.21,2.594 -6.75,2.594 -5.03,0 -9.6,-4 -9.34,-11.234 h 17.22 m -16.89,-1.953 c 0.48,-3.672 2.75,-5.985 5.87,-5.985 2.97,0 4.93,2.157 5.35,5.985 h -11.22"
     id="path298" />
  <path
     class="Lyrics"
     d="m 987.543,801.603 c 0,-3.84 -3.01,-9.93 -9.98,-9.93 -6.38,0 -11.28,5.61 -11.28,13.01 0,7.24 4.69,12.47 11.22,12.47 4.11,0 7.73,-2.11 10.04,-5.89 l -1.12,-1.02 c -2.06,1.79 -4.22,2.6 -6.75,2.6 -5.03,0 -9.61,-4 -9.34,-11.24 h 17.21 m -16.89,-1.95 c 0.49,-3.67 2.75,-5.98 5.88,-5.98 2.97,0 4.92,2.15 5.34,5.98 h -11.22"
     id="path300" />
  <path
     class="Lyrics"
     d="m 1539.633,779.033 h -1.36 l -6.9,2.48 v 1.25 l 3.72,2.05 v 25.7 c 0,2.33 -1.02,3.94 -3.72,4.11 v 1.94 h 11.61 v -1.94 c -2.44,-0.17 -3.35,-1.78 -3.35,-4.49 v -31.1 m 28.81,22.57 c 0,-3.84 -3.01,-9.93 -9.98,-9.93 -6.37,0 -11.28,5.61 -11.28,13.01 0,7.24 4.69,12.47 11.22,12.47 4.11,0 7.73,-2.11 10.04,-5.89 l -1.12,-1.02 c -2.06,1.79 -4.22,2.6 -6.75,2.6 -5.03,0 -9.61,-4 -9.34,-11.24 h 17.21 m -16.89,-1.95 c 0.49,-3.67 2.75,-5.98 5.88,-5.98 2.97,0 4.92,2.15 5.34,5.98 h -11.22 m 23.82,11.02 c 0,2.7 -1.85,3.95 -3.89,3.95 v 1.94 h 11.76 v -1.94 c -1.94,-0.06 -3.34,-1.36 -3.34,-4.33 v -18.62 h -1.36 l -7.28,2.64 v 1.25 l 4.11,2.04 v 13.07 m -0.88,-28.72 c 0,1.61 1.3,2.9 2.92,2.9 1.63,0 2.91,-1.29 2.91,-2.9 0,-1.63 -1.28,-2.92 -2.91,-2.92 -1.62,0 -2.92,1.29 -2.92,2.92"
     id="path302" />
  <path
     class="Lyrics"
     d="m 1439.433,801.603 c 0,-3.84 -3.02,-9.93 -9.99,-9.93 -6.37,0 -11.28,5.61 -11.28,13.01 0,7.24 4.69,12.47 11.22,12.47 4.11,0 7.74,-2.11 10.05,-5.89 l -1.13,-1.02 c -2.06,1.79 -4.22,2.6 -6.75,2.6 -5.03,0 -9.61,-4 -9.34,-11.24 h 17.22 m -16.89,-1.95 c 0.48,-3.67 2.75,-5.98 5.87,-5.98 2.97,0 4.92,2.15 5.35,5.98 h -11.22"
     id="path304" />
  <path
     class="Lyrics"
     d="m 2333.663,793.983 c -2,-1.56 -4.44,-2.31 -7.3,-2.31 -4.64,0 -7.87,2.75 -7.87,6.68 0,1.58 0.59,3.41 1.67,4.49 4.42,4.44 11.54,4.33 11.54,8.48 0,2.21 -2.04,3.83 -4.9,3.83 -3.24,0 -5.24,-2.31 -5.78,-6.53 h -1.78 v 6.8 c 2.04,1.03 5.23,1.73 7.93,1.73 5.08,0 8.27,-2.7 8.27,-7.12 0,-1.79 -0.6,-3.52 -1.74,-4.65 -3.07,-3.07 -11.28,-4.06 -11.28,-8.1 0,-2.32 1.52,-3.61 4.05,-3.61 2.97,0 4.7,1.89 5.52,6.15 h 1.67 v -5.84 m 5.93,10.26 c 0,7.02 5.66,12.91 12.47,12.91 6.91,0 12.16,-5.61 12.16,-12.95 0,-7.35 -5.19,-12.53 -12.59,-12.53 -6.69,0 -12.04,5.56 -12.04,12.57 m 5.13,-2.04 c 0,-6.27 2.64,-8.53 6.69,-8.53 6.11,0 7.95,9.17 7.95,13.81 0,4.7 -2.59,7.67 -6.81,7.67 -5.56,0 -7.83,-8.16 -7.83,-12.95 m 31,-3.74 c 2.31,-1.93 4.59,-3.18 7.08,-3.18 3.5,0 5.06,2.54 5.06,5.93 v 8.97 c 0,2.92 -1.23,4.44 -4.37,4.44 v 1.94 h 12.75 v -1.94 c -3.08,-0.33 -3.83,-1.63 -3.83,-4.33 v -10.26 c 0,-5.83 -2.92,-8.36 -7.94,-8.36 -2.97,0 -6.44,1.67 -8.64,4.59 h -0.11 v -4.59 h -1.36 l -6.8,2.53 v 1.25 l 3.63,2.04 v 13.02 c 0,2.7 -1.3,4 -4,4.11 v 1.94 h 12.9 v -1.94 c -3.18,0 -4.37,-1.47 -4.37,-4.44 v -11.72"
     id="path306" />
  <path
     class="Lyrics"
     d="m 732.686,799.933 c 2.156,-3.08 3.14,-4 4.421,-4 1.797,0 2.219,2.53 4.063,2.53 1.672,0 2.203,-3.23 2.203,-3.5 0,-1.09 -1.609,-3.08 -3.984,-3.08 -2.813,0 -4.157,1.13 -6.594,5.13 h -0.109 v -5.34 h -1.344 l -7.188,2.9 v 1.25 l 4,2 v 12.63 c 0,3.08 -1.843,4.17 -4,4.17 v 1.94 h 14.047 v -1.94 c -4.765,0 -5.515,-1.14 -5.515,-5.19 v -9.5 m 16.796,10.74 c 0,2.7 -1.843,3.95 -3.89,3.95 v 1.94 h 11.765 v -1.94 c -1.937,-0.06 -3.343,-1.36 -3.343,-4.33 v -18.62 h -1.36 l -7.281,2.64 v 1.25 l 4.109,2.04 v 13.07 m -0.875,-28.72 c 0,1.61 1.297,2.9 2.922,2.9 1.625,0 2.907,-1.29 2.907,-2.9 0,-1.63 -1.282,-2.92 -2.907,-2.92 -1.625,0 -2.922,1.29 -2.922,2.92"
     id="path308" />
  <path
     class="Lyrics"
     d="m 427.631,779.733 v 2.05 c 4.75,0 5.719,2.1 5.719,6 v 20.95 c 0,4.15 -1.453,5.78 -5.719,5.78 v 2.05 h 17.438 v -2.05 c -4.797,0 -6.047,-1.95 -6.047,-5.3 v -22.36 c 0,-3.67 1.891,-5.07 5.734,-5.07 v -2.05 h -17.125 m 23.172,0 v 2.05 c 2.266,0 3.297,0.81 3.297,2.21 0,2.16 -4.219,6.43 -14.641,13.61 l 0.704,0.64 c 9.171,7.74 15.875,14.69 20.406,18.32 h 9.515 v -2.16 c -2.281,-0.44 -4.171,-1.19 -7.187,-3.45 -5.453,-4.17 -12.203,-11.19 -17.234,-15.02 7.562,-5.56 10.375,-9.08 13.781,-11.61 2.156,-1.62 4,-2.26 6.64,-2.54 v -2.05 h -15.281 m 28.735,37.09 c -1.407,4.66 -2.704,6.49 -4.75,6.49 -1.938,0 -1.938,-1.74 -3.829,-1.74 -1.296,0 -2.328,0.99 -2.328,2.22 0,1.84 1.782,3.08 4.328,3.08 3.235,0 5.5,-1.83 7.063,-5.78 l 8.969,-22.78 c 1.078,-2.75 1.734,-3.68 3.781,-4.11 v -1.94 h -9.344 v 1.94 c 3.297,0.17 4.047,2.22 2.969,5.03 l -4.641,11.81 -5.562,-12.73 c -1.25,-2.82 -0.547,-4 2.64,-4.11 v -1.94 h -11.765 v 1.94 c 1.734,0 2.484,0 3.89,3.18 l 8.579,19.44"
     id="path310" />
  <path
     class="Lyrics"
     d="m 201.181,793.983 c -2,-1.56 -4.437,-2.31 -7.297,-2.31 -4.64,0 -7.875,2.75 -7.875,6.68 0,1.58 0.594,3.41 1.672,4.49 4.422,4.44 11.547,4.33 11.547,8.48 0,2.21 -2.047,3.83 -4.906,3.83 -3.235,0 -5.235,-2.31 -5.781,-6.53 h -1.782 v 6.8 c 2.047,1.03 5.235,1.73 7.938,1.73 5.078,0 8.265,-2.7 8.265,-7.12 0,-1.79 -0.593,-3.52 -1.734,-4.65 -3.078,-3.07 -11.281,-4.06 -11.281,-8.1 0,-2.32 1.515,-3.61 4.047,-3.61 2.968,0 4.703,1.89 5.515,6.15 h 1.672 v -5.84 m 5.938,10.26 c 0,7.02 5.656,12.91 12.468,12.91 6.907,0 12.157,-5.61 12.157,-12.95 0,-7.35 -5.188,-12.53 -12.594,-12.53 -6.688,0 -12.031,5.56 -12.031,12.57 m 5.125,-2.04 c 0,-6.27 2.64,-8.53 6.687,-8.53 6.11,0 7.953,9.17 7.953,13.81 0,4.7 -2.593,7.67 -6.812,7.67 -5.563,0 -7.828,-8.16 -7.828,-12.95 m 31,-3.74 c 2.312,-1.93 4.593,-3.18 7.078,-3.18 3.5,0 5.062,2.54 5.062,5.93 v 8.97 c 0,2.92 -1.234,4.44 -4.375,4.44 v 1.94 h 12.75 v -1.94 c -3.078,-0.33 -3.828,-1.63 -3.828,-4.33 v -10.26 c 0,-5.83 -2.922,-8.36 -7.937,-8.36 -2.969,0 -6.438,1.67 -8.641,4.59 h -0.109 v -4.59 h -1.36 l -6.797,2.53 v 1.25 l 3.625,2.04 v 13.02 c 0,2.7 -1.296,4 -4,4.11 v 1.94 h 12.907 v -1.94 c -3.188,0 -4.375,-1.47 -4.375,-4.44 v -11.72 m 29.375,12.05 c -1.828,0 -3.297,1.45 -3.297,3.3 0,1.82 1.469,3.34 3.297,3.34 1.843,0 3.343,-1.52 3.343,-3.34 0,-1.85 -1.5,-3.3 -3.343,-3.3"
     id="path312" />
  <polyline
     class="LyricsLineSegment"
     fill="none"
     stroke="#000000"
     stroke-width="2.48"
     stroke-linejoin="bevel"
     points="1806.36,299.71 1826.2,299.71"
     id="polyline314"
     transform="translate(-212.597,-276.757)" />
  <polyline
     class="LyricsLineSegment"
     fill="none"
     stroke="#000000"
     stroke-width="2.48"
     stroke-linejoin="bevel"
     points="554.052,299.71 573.892,299.71"
     id="polyline316"
     transform="translate(-212.597,-276.757)" />
  <polyline
     class="LyricsLineSegment"
     fill="none"
     stroke="#000000"
     stroke-width="2.48"
     stroke-linejoin="bevel"
     points="806.614,299.71 826.454,299.71"
     id="polyline318"
     transform="translate(-212.597,-276.757)" />
  <polyline
     class="LyricsLineSegment"
     fill="none"
     stroke="#000000"
     stroke-width="3.97"
     stroke-linejoin="bevel"
     points="967.492,312.304 1545.87,312.304"
     id="polyline320"
     transform="translate(-212.597,-276.757)" />
  <polyline
     class="LyricsLineSegment"
     fill="none"
     stroke="#00aa00"
     stroke-width="2.48"
     stroke-linejoin="bevel"
     points="2057.52,299.71 2077.36,299.71"
     id="polyline322"
     transform="translate(-212.597,-276.757)" />
  <polyline
     class="LyricsLineSegment"
     fill="none"
     stroke="#00aa00"
     stroke-width="2.48"
     stroke-linejoin="bevel"
     points="2360.35,299.71 2380.19,299.71"
     id="polyline324"
     transform="translate(-212.597,-276.757)" />
  <polyline
     class="LyricsLineSegment"
     fill="none"
     stroke="#00aa00"
     stroke-width="2.48"
     stroke-linejoin="bevel"
     points="2132.66,632.221 2152.5,632.221"
     id="polyline326"
     transform="translate(-212.597,-276.757)" />
  <polyline
     class="LyricsLineSegment"
     fill="none"
     stroke="#000000"
     stroke-width="2.48"
     stroke-linejoin="bevel"
     points="1112.71,632.221 1132.55,632.221"
     id="polyline328"
     transform="translate(-212.597,-276.757)" />
  <polyline
     class="LyricsLineSegment"
     fill="none"
     stroke="#000000"
     stroke-width="2.48"
     stroke-linejoin="bevel"
     points="865.216,632.221 885.056,632.221"
     id="polyline330"
     transform="translate(-212.597,-276.757)" />
  <polyline
     class="LyricsLineSegment"
     fill="none"
     stroke="#000000"
     stroke-width="2.48"
     stroke-linejoin="bevel"
     points="1340.4,632.221 1360.24,632.221"
     id="polyline332"
     transform="translate(-212.597,-276.757)" />
  <polyline
     class="LyricsLineSegment"
     fill="none"
     stroke="#000000"
     stroke-width="2.48"
     stroke-linejoin="bevel"
     points="1806.36,632.221 1826.2,632.221"
     id="polyline334"
     transform="translate(-212.597,-276.757)" />
  <polyline
     class="LyricsLineSegment"
     fill="none"
     stroke="#000000"
     stroke-width="2.48"
     stroke-linejoin="bevel"
     points="681.228,632.221 701.068,632.221"
     id="polyline336"
     transform="translate(-212.597,-276.757)" />
  <polyline
     class="LyricsLineSegment"
     fill="none"
     stroke="#000000"
     stroke-width="2.48"
     stroke-linejoin="bevel"
     points="812.049,720.821 831.889,720.821"
     id="polyline338"
     transform="translate(-212.597,-276.757)" />
  <polyline
     class="LyricsLineSegment"
     fill="none"
     stroke="#000000"
     stroke-width="2.48"
     stroke-linejoin="bevel"
     points="1004.88,720.821 1024.72,720.821"
     id="polyline340"
     transform="translate(-212.597,-276.757)" />
  <polyline
     class="LyricsLineSegment"
     fill="none"
     stroke="#000000"
     stroke-width="2.48"
     stroke-linejoin="bevel"
     points="2017.55,720.821 2037.39,720.821"
     id="polyline342"
     transform="translate(-212.597,-276.757)" />
  <polyline
     class="LyricsLineSegment"
     fill="none"
     stroke="#000000"
     stroke-width="2.48"
     stroke-linejoin="bevel"
     points="1691.25,720.821 1711.09,720.821"
     id="polyline344"
     transform="translate(-212.597,-276.757)" />
  <polyline
     class="LyricsLineSegment"
     fill="none"
     stroke="#000000"
     stroke-width="2.48"
     stroke-linejoin="bevel"
     points="812.14,1078.74 831.98,1078.74"
     id="polyline346"
     transform="translate(-212.597,-276.757)" />
  <polyline
     class="LyricsLineSegment"
     fill="none"
     stroke="#000000"
     stroke-width="2.48"
     stroke-linejoin="bevel"
     points="1688.02,1078.74 1707.86,1078.74"
     id="polyline348"
     transform="translate(-212.597,-276.757)" />
  <polyline
     class="LyricsLineSegment"
     fill="none"
     stroke="#000000"
     stroke-width="2.48"
     stroke-linejoin="bevel"
     points="1970.75,1078.74 1990.59,1078.74"
     id="polyline350"
     transform="translate(-212.597,-276.757)" />
  <polyline
     class="LyricsLineSegment"
     fill="none"
     stroke="#000000"
     stroke-width="2.48"
     stroke-linejoin="bevel"
     points="2336.72,1078.74 2356.56,1078.74"
     id="polyline352"
     transform="translate(-212.597,-276.757)" />
  <polyline
     class="LyricsLineSegment"
     fill="none"
     stroke="#000000"
     stroke-width="2.48"
     stroke-linejoin="bevel"
     points="1064.14,1078.74 1083.98,1078.74"
     id="polyline354"
     transform="translate(-212.597,-276.757)" />
</svg>
