<?xml version="1.0" encoding="UTF-8" standalone="no"?>
<svg
   width="2163.0581"
   height="811.54303"
   viewBox="0 0 2163.0581 811.54305"
   version="1.2"
   id="svg332"
   sodipodi:docname="Stiluebung-4a-1.svg"
   inkscape:version="1.2.1 (9c6d41e410, 2022-07-14)"
   xmlns:inkscape="http://www.inkscape.org/namespaces/inkscape"
   xmlns:sodipodi="http://sodipodi.sourceforge.net/DTD/sodipodi-0.dtd"
   xmlns="http://www.w3.org/2000/svg"
   xmlns:svg="http://www.w3.org/2000/svg">
  <defs
     id="defs336" />
  <sodipodi:namedview
     id="namedview334"
     pagecolor="#505050"
     bordercolor="#eeeeee"
     borderopacity="1"
     inkscape:showpageshadow="0"
     inkscape:pageopacity="0"
     inkscape:pagecheckerboard="0"
     inkscape:deskcolor="#505050"
     showgrid="false"
     inkscape:zoom="0.25021386"
     inkscape:cx="855.26836"
     inkscape:cy="1830.4341"
     inkscape:current-layer="svg332" />
  <title
     id="title2">Stiluebung-4a</title>
  <desc
     id="desc4">Generated by MuseScore 4.0.0</desc>
  <polyline
     class="StaffLines"
     fill="none"
     stroke="#000000"
     stroke-width="3.22"
     stroke-linejoin="bevel"
     points="212.598,386.199 921.759,386.199"
     id="polyline8"
     transform="translate(-212.597,-277.437)" />
  <polyline
     class="StaffLines"
     fill="none"
     stroke="#000000"
     stroke-width="3.22"
     stroke-linejoin="bevel"
     points="212.598,410.999 921.759,410.999"
     id="polyline10"
     transform="translate(-212.597,-277.437)" />
  <polyline
     class="StaffLines"
     fill="none"
     stroke="#000000"
     stroke-width="3.22"
     stroke-linejoin="bevel"
     points="212.598,435.799 921.759,435.799"
     id="polyline12"
     transform="translate(-212.597,-277.437)" />
  <polyline
     class="StaffLines"
     fill="none"
     stroke="#000000"
     stroke-width="3.22"
     stroke-linejoin="bevel"
     points="212.598,460.599 921.759,460.599"
     id="polyline14"
     transform="translate(-212.597,-277.437)" />
  <polyline
     class="StaffLines"
     fill="none"
     stroke="#000000"
     stroke-width="3.22"
     stroke-linejoin="bevel"
     points="212.598,485.399 921.759,485.399"
     id="polyline16"
     transform="translate(-212.597,-277.437)" />
  <polyline
     class="StaffLines"
     fill="none"
     stroke="#000000"
     stroke-width="3.22"
     stroke-linejoin="bevel"
     points="921.759,386.199 1461.64,386.199"
     id="polyline18"
     transform="translate(-212.597,-277.437)" />
  <polyline
     class="StaffLines"
     fill="none"
     stroke="#000000"
     stroke-width="3.22"
     stroke-linejoin="bevel"
     points="921.759,410.999 1461.64,410.999"
     id="polyline20"
     transform="translate(-212.597,-277.437)" />
  <polyline
     class="StaffLines"
     fill="none"
     stroke="#000000"
     stroke-width="3.22"
     stroke-linejoin="bevel"
     points="921.759,435.799 1461.64,435.799"
     id="polyline22"
     transform="translate(-212.597,-277.437)" />
  <polyline
     class="StaffLines"
     fill="none"
     stroke="#000000"
     stroke-width="3.22"
     stroke-linejoin="bevel"
     points="921.759,460.599 1461.64,460.599"
     id="polyline24"
     transform="translate(-212.597,-277.437)" />
  <polyline
     class="StaffLines"
     fill="none"
     stroke="#000000"
     stroke-width="3.22"
     stroke-linejoin="bevel"
     points="921.759,485.399 1461.64,485.399"
     id="polyline26"
     transform="translate(-212.597,-277.437)" />
  <polyline
     class="StaffLines"
     fill="none"
     stroke="#000000"
     stroke-width="3.22"
     stroke-linejoin="bevel"
     points="1461.64,386.199 2084.38,386.199"
     id="polyline28"
     transform="translate(-212.597,-277.437)" />
  <polyline
     class="StaffLines"
     fill="none"
     stroke="#000000"
     stroke-width="3.22"
     stroke-linejoin="bevel"
     points="1461.64,410.999 2084.38,410.999"
     id="polyline30"
     transform="translate(-212.597,-277.437)" />
  <polyline
     class="StaffLines"
     fill="none"
     stroke="#000000"
     stroke-width="3.22"
     stroke-linejoin="bevel"
     points="1461.64,435.799 2084.38,435.799"
     id="polyline32"
     transform="translate(-212.597,-277.437)" />
  <polyline
     class="StaffLines"
     fill="none"
     stroke="#000000"
     stroke-width="3.22"
     stroke-linejoin="bevel"
     points="1461.64,460.599 2084.38,460.599"
     id="polyline34"
     transform="translate(-212.597,-277.437)" />
  <polyline
     class="StaffLines"
     fill="none"
     stroke="#000000"
     stroke-width="3.22"
     stroke-linejoin="bevel"
     points="1461.64,485.399 2084.38,485.399"
     id="polyline36"
     transform="translate(-212.597,-277.437)" />
  <polyline
     class="StaffLines"
     fill="none"
     stroke="#000000"
     stroke-width="3.22"
     stroke-linejoin="bevel"
     points="2084.38,386.199 2375.65,386.199"
     id="polyline38"
     transform="translate(-212.597,-277.437)" />
  <polyline
     class="StaffLines"
     fill="none"
     stroke="#000000"
     stroke-width="3.22"
     stroke-linejoin="bevel"
     points="2084.38,410.999 2375.65,410.999"
     id="polyline40"
     transform="translate(-212.597,-277.437)" />
  <polyline
     class="StaffLines"
     fill="none"
     stroke="#000000"
     stroke-width="3.22"
     stroke-linejoin="bevel"
     points="2084.38,435.799 2375.65,435.799"
     id="polyline42"
     transform="translate(-212.597,-277.437)" />
  <polyline
     class="StaffLines"
     fill="none"
     stroke="#000000"
     stroke-width="3.22"
     stroke-linejoin="bevel"
     points="2084.38,460.599 2375.65,460.599"
     id="polyline44"
     transform="translate(-212.597,-277.437)" />
  <polyline
     class="StaffLines"
     fill="none"
     stroke="#000000"
     stroke-width="3.22"
     stroke-linejoin="bevel"
     points="2084.38,485.399 2375.65,485.399"
     id="polyline46"
     transform="translate(-212.597,-277.437)" />
  <polyline
     class="StaffLines"
     fill="none"
     stroke="#000000"
     stroke-width="3.22"
     stroke-linejoin="bevel"
     points="212.598,849.783 921.759,849.783"
     id="polyline48"
     transform="translate(-212.597,-277.437)" />
  <polyline
     class="StaffLines"
     fill="none"
     stroke="#000000"
     stroke-width="3.22"
     stroke-linejoin="bevel"
     points="212.598,874.583 921.759,874.583"
     id="polyline50"
     transform="translate(-212.597,-277.437)" />
  <polyline
     class="StaffLines"
     fill="none"
     stroke="#000000"
     stroke-width="3.22"
     stroke-linejoin="bevel"
     points="212.598,899.384 921.759,899.384"
     id="polyline52"
     transform="translate(-212.597,-277.437)" />
  <polyline
     class="StaffLines"
     fill="none"
     stroke="#000000"
     stroke-width="3.22"
     stroke-linejoin="bevel"
     points="212.598,924.184 921.759,924.184"
     id="polyline54"
     transform="translate(-212.597,-277.437)" />
  <polyline
     class="StaffLines"
     fill="none"
     stroke="#000000"
     stroke-width="3.22"
     stroke-linejoin="bevel"
     points="212.598,948.984 921.759,948.984"
     id="polyline56"
     transform="translate(-212.597,-277.437)" />
  <polyline
     class="StaffLines"
     fill="none"
     stroke="#000000"
     stroke-width="3.22"
     stroke-linejoin="bevel"
     points="921.759,849.783 1461.64,849.783"
     id="polyline58"
     transform="translate(-212.597,-277.437)" />
  <polyline
     class="StaffLines"
     fill="none"
     stroke="#000000"
     stroke-width="3.22"
     stroke-linejoin="bevel"
     points="921.759,874.583 1461.64,874.583"
     id="polyline60"
     transform="translate(-212.597,-277.437)" />
  <polyline
     class="StaffLines"
     fill="none"
     stroke="#000000"
     stroke-width="3.22"
     stroke-linejoin="bevel"
     points="921.759,899.384 1461.64,899.384"
     id="polyline62"
     transform="translate(-212.597,-277.437)" />
  <polyline
     class="StaffLines"
     fill="none"
     stroke="#000000"
     stroke-width="3.22"
     stroke-linejoin="bevel"
     points="921.759,924.184 1461.64,924.184"
     id="polyline64"
     transform="translate(-212.597,-277.437)" />
  <polyline
     class="StaffLines"
     fill="none"
     stroke="#000000"
     stroke-width="3.22"
     stroke-linejoin="bevel"
     points="921.759,948.984 1461.64,948.984"
     id="polyline66"
     transform="translate(-212.597,-277.437)" />
  <polyline
     class="StaffLines"
     fill="none"
     stroke="#000000"
     stroke-width="3.22"
     stroke-linejoin="bevel"
     points="1461.64,849.783 2084.38,849.783"
     id="polyline68"
     transform="translate(-212.597,-277.437)" />
  <polyline
     class="StaffLines"
     fill="none"
     stroke="#000000"
     stroke-width="3.22"
     stroke-linejoin="bevel"
     points="1461.64,874.583 2084.38,874.583"
     id="polyline70"
     transform="translate(-212.597,-277.437)" />
  <polyline
     class="StaffLines"
     fill="none"
     stroke="#000000"
     stroke-width="3.22"
     stroke-linejoin="bevel"
     points="1461.64,899.384 2084.38,899.384"
     id="polyline72"
     transform="translate(-212.597,-277.437)" />
  <polyline
     class="StaffLines"
     fill="none"
     stroke="#000000"
     stroke-width="3.22"
     stroke-linejoin="bevel"
     points="1461.64,924.184 2084.38,924.184"
     id="polyline74"
     transform="translate(-212.597,-277.437)" />
  <polyline
     class="StaffLines"
     fill="none"
     stroke="#000000"
     stroke-width="3.22"
     stroke-linejoin="bevel"
     points="1461.64,948.984 2084.38,948.984"
     id="polyline76"
     transform="translate(-212.597,-277.437)" />
  <polyline
     class="StaffLines"
     fill="none"
     stroke="#000000"
     stroke-width="3.22"
     stroke-linejoin="bevel"
     points="2084.38,849.783 2375.65,849.783"
     id="polyline78"
     transform="translate(-212.597,-277.437)" />
  <polyline
     class="StaffLines"
     fill="none"
     stroke="#000000"
     stroke-width="3.22"
     stroke-linejoin="bevel"
     points="2084.38,874.583 2375.65,874.583"
     id="polyline80"
     transform="translate(-212.597,-277.437)" />
  <polyline
     class="StaffLines"
     fill="none"
     stroke="#000000"
     stroke-width="3.22"
     stroke-linejoin="bevel"
     points="2084.38,899.384 2375.65,899.384"
     id="polyline82"
     transform="translate(-212.597,-277.437)" />
  <polyline
     class="StaffLines"
     fill="none"
     stroke="#000000"
     stroke-width="3.22"
     stroke-linejoin="bevel"
     points="2084.38,924.184 2375.65,924.184"
     id="polyline84"
     transform="translate(-212.597,-277.437)" />
  <polyline
     class="StaffLines"
     fill="none"
     stroke="#000000"
     stroke-width="3.22"
     stroke-linejoin="bevel"
     points="2084.38,948.984 2375.65,948.984"
     id="polyline86"
     transform="translate(-212.597,-277.437)" />
  <path
     class="TieSegment"
     stroke="#000000"
     stroke-width="2.48"
     stroke-linecap="round"
     stroke-linejoin="round"
     fill-rule="evenodd"
     d="m 1304.043,148.69 c 49.1,-35.216 196.41,-35.216 245.51,0 -49.1,-29.264 -196.41,-29.264 -245.51,0"
     id="path88" />
  <path
     class="TieSegment"
     stroke="#000000"
     stroke-width="2.48"
     stroke-linecap="round"
     stroke-linejoin="round"
     fill-rule="evenodd"
     d="m 599.241,226.438 c 28.482,18.67 113.927,18.67 142.409,0 -28.482,24.622 -113.927,24.622 -142.409,0"
     id="path90" />
  <path
     class="TieSegment"
     stroke="#000000"
     stroke-width="2.48"
     stroke-linecap="round"
     stroke-linejoin="round"
     fill-rule="evenodd"
     d="m 1430.383,251.238 c 19.95,12.186 79.8,12.186 99.76,0 -19.96,18.138 -79.81,18.138 -99.76,0"
     id="path92" />
  <path
     class="TieSegment"
     stroke="#000000"
     stroke-width="2.48"
     stroke-linecap="round"
     stroke-linejoin="round"
     fill-rule="evenodd"
     d="m 1450.873,576.686 c 19.73,-19.178 78.95,-19.178 98.68,0 -19.73,-13.226 -78.95,-13.226 -98.68,0"
     id="path94" />
  <polyline
     class="BarLine"
     stroke="#000000"
     stroke-width="3.97"
     stroke-linejoin="bevel"
     points="214.582,384.587 214.582,849.783"
     id="polyline96"
     transform="translate(-212.597,-277.437)" />
  <polyline
     class="BarLine"
     stroke="#000000"
     stroke-width="3.97"
     stroke-linejoin="bevel"
     points="2082.4,384.587 2082.4,849.783"
     id="polyline98"
     transform="translate(-212.597,-277.437)" />
  <polyline
     class="BarLine"
     stroke="#000000"
     stroke-width="3.97"
     stroke-linejoin="bevel"
     points="2373.67,384.587 2373.67,849.783"
     id="polyline100"
     transform="translate(-212.597,-277.437)" />
  <polyline
     class="BarLine"
     stroke="#000000"
     stroke-width="3.97"
     stroke-linejoin="bevel"
     points="1459.65,384.587 1459.65,849.783"
     id="polyline102"
     transform="translate(-212.597,-277.437)" />
  <polyline
     class="BarLine"
     stroke="#000000"
     stroke-width="3.97"
     stroke-linejoin="bevel"
     points="919.775,384.587 919.775,849.783"
     id="polyline104"
     transform="translate(-212.597,-277.437)" />
  <polyline
     class="BarLine"
     stroke="#000000"
     stroke-width="3.97"
     stroke-linejoin="bevel"
     points="214.582,848.171 214.582,950.596"
     id="polyline106"
     transform="translate(-212.597,-277.437)" />
  <polyline
     class="BarLine"
     stroke="#000000"
     stroke-width="3.97"
     stroke-linejoin="bevel"
     points="2082.4,848.171 2082.4,950.596"
     id="polyline108"
     transform="translate(-212.597,-277.437)" />
  <polyline
     class="BarLine"
     stroke="#000000"
     stroke-width="3.97"
     stroke-linejoin="bevel"
     points="1459.65,848.171 1459.65,950.596"
     id="polyline110"
     transform="translate(-212.597,-277.437)" />
  <polyline
     class="BarLine"
     stroke="#000000"
     stroke-width="3.97"
     stroke-linejoin="bevel"
     points="919.775,848.171 919.775,950.596"
     id="polyline112"
     transform="translate(-212.597,-277.437)" />
  <polyline
     class="BarLine"
     stroke="#000000"
     stroke-width="3.97"
     stroke-linejoin="bevel"
     points="2373.67,848.171 2373.67,950.596"
     id="polyline114"
     transform="translate(-212.597,-277.437)" />
  <path
     class="Accidental"
     d="m 1777.5665,183.85946 c 0.6976,-0.29452 1.1936,-1.10052 1.1936,-1.68947 v -7.03706 c 0,-0.496 -0.31,-0.806 -0.6976,-0.806 -0.2015,0 -0.2944,0 -0.496,0.10852 0,0 -1.984,0.79053 -2.48,0.88348 -0.6975,0 -1.395,-0.496 -1.395,-1.28643 v -12.10558 c 0,-0.58895 -0.589,-1.08495 -1.3794,-1.08495 -0.992,0 -1.5966,0.496 -1.5966,1.08495 v 12.89601 c -0.093,0.992 -0.3874,2.294 -1.2865,2.88305 -1.1935,0.69748 -4.5569,2.07695 -6.2465,2.48 -0.899,0 -1.1935,-1.19347 -1.1935,-1.984 v -11.90401 c 0,-0.60452 -0.6975,-1.10053 -1.395,-1.10053 -0.992,0 -1.581,0.49601 -1.581,1.10053 v 13.39201 c 0,1.39496 -0.589,2.38696 -1.1935,2.68148 -0.589,0.29453 -2.573,1.08505 -2.573,1.08505 -0.6975,0.20148 -1.1935,0.992 -1.1935,1.59643 V 192.09 c 0,0.589 0.2945,0.899 0.899,0.899 l 0.186,-0.10851 c 0.1085,0 1.5965,-0.589 2.387,-0.992 l 0.093,-0.093 c 0.806,0 1.395,0.992 1.395,1.78251 v 9.82701 c 0,1.085 -0.496,1.984 -1.085,2.27848 -0.6045,0.20157 -2.6815,1.08505 -2.6815,1.08505 -0.6975,0.20147 -1.1935,0.992 -1.1935,1.59652 v 7.03696 c 0,0.58905 0.2945,0.89905 0.899,0.89905 l 0.186,-0.10852 c 0.1085,0 1.488,-0.58905 2.387,-0.88348 0.093,-0.10853 0.2015,-0.10853 0.2945,-0.10853 0.6975,0 1.1935,1.10053 1.1935,1.59653 v 12.19844 c 0,0.58905 0.589,1.08505 1.2865,1.08505 0.992,0 1.6895,-0.496 1.6895,-1.08505 v -13.79497 c 0,-1.28652 0.496,-1.984 0.992,-2.18547 l 6.0451,-2.48001 c 0,0 0.1084,0 0.1084,0 l 0.2016,-0.093 c 0.8834,0 1.3794,1.19347 1.3794,1.78252 v 12.40001 c 0,0.60453 0.6046,1.10053 1.2866,1.10053 1.1004,0 1.6894,-0.496 1.6894,-1.10053 V 210.5351 c 0,-0.79052 0.403,-1.984 1.1006,-2.27852 0.682,-0.29453 2.7744,-1.08505 2.7744,-1.08505 0.6976,-0.29443 1.1936,-1.10043 1.1936,-1.68948 V 198.445 c 0,-0.496 -0.31,-0.806 -0.6976,-0.806 -0.2015,0 -0.2944,0 -0.496,0.10851 l -2.5884,0.992 c -0.5891,0 -1.2866,-0.60451 -1.2866,-1.78251 v -9.23801 c 0,-0.682 0.496,-2.573 1.2866,-2.86753 l 2.5884,-0.992 m -6.851,16.16654 c -0.589,1.98401 -5.2545,3.96801 -7.533,3.96801 -0.6045,0 -1.1005,-0.2015 -1.1935,-0.496 -0.2015,-0.403 -0.2945,-2.573 -0.2945,-4.96001 0,-3.069 0.093,-6.541 0.2945,-7.347 0.2015,-1.67401 4.7585,-3.76651 7.2385,-3.76651 0.6975,0 1.2866,0.2015 1.488,0.6045 0.2015,0.496 0.403,2.97601 0.403,5.64201 0,2.6815 -0.2015,5.456 -0.403,6.355"
     id="path116"
     style="stroke-width:0.992001" />
  <polyline
     class="LedgerLine"
     stroke="#000000"
     stroke-width="3.97"
     stroke-linejoin="bevel"
     points="1904.76,510.199 1957.23,510.199"
     id="polyline118"
     transform="translate(-212.597,-277.437)" />
  <polyline
     class="LedgerLine"
     stroke="#000000"
     stroke-width="3.97"
     stroke-linejoin="bevel"
     points="1821.89,510.199 1874.36,510.199"
     id="polyline120"
     transform="translate(-212.597,-277.437)" />
  <polyline
     class="LedgerLine"
     stroke="#000000"
     stroke-width="3.97"
     stroke-linejoin="bevel"
     points="1739.02,510.199 1791.49,510.199"
     id="polyline122"
     transform="translate(-212.597,-277.437)" />
  <polyline
     class="LedgerLine"
     stroke="#000000"
     stroke-width="3.97"
     stroke-linejoin="bevel"
     points="2113.15,510.199 2165.63,510.199"
     id="polyline124"
     transform="translate(-212.597,-277.437)" />
  <polyline
     class="LedgerLine"
     stroke="#000000"
     stroke-width="3.97"
     stroke-linejoin="bevel"
     points="1614.71,510.199 1667.19,510.199"
     id="polyline126"
     transform="translate(-212.597,-277.437)" />
  <polyline
     class="LedgerLine"
     stroke="#000000"
     stroke-width="3.97"
     stroke-linejoin="bevel"
     points="659.261,824.983 711.736,824.983"
     id="polyline128"
     transform="translate(-212.597,-277.437)" />
  <polyline
     class="LedgerLine"
     stroke="#000000"
     stroke-width="3.97"
     stroke-linejoin="bevel"
     points="410.65,824.983 463.125,824.983"
     id="polyline130"
     transform="translate(-212.597,-277.437)" />
  <polyline
     class="Stem"
     stroke="#000000"
     stroke-width="2.98"
     stroke-linejoin="bevel"
     points="451.717,456.432 451.717,373.799"
     id="polyline132"
     transform="translate(-212.597,-277.437)" />
  <polyline
     class="Stem"
     stroke="#000000"
     stroke-width="2.98"
     stroke-linejoin="bevel"
     points="2028.69,468.832 2028.69,386.199"
     id="polyline134"
     transform="translate(-212.597,-277.437)" />
  <polyline
     class="Stem"
     stroke="#000000"
     stroke-width="2.98"
     stroke-linejoin="bevel"
     points="576.023,456.432 576.023,373.799"
     id="polyline136"
     transform="translate(-212.597,-277.437)" />
  <polyline
     class="Stem"
     stroke="#000000"
     stroke-width="2.98"
     stroke-linejoin="bevel"
     points="1780.08,444.032 1780.08,367.599"
     id="polyline138"
     transform="translate(-212.597,-277.437)" />
  <polyline
     class="Stem"
     stroke="#000000"
     stroke-width="2.98"
     stroke-linejoin="bevel"
     points="1945.82,456.432 1945.82,373.799"
     id="polyline140"
     transform="translate(-212.597,-277.437)" />
  <polyline
     class="Stem"
     stroke="#000000"
     stroke-width="2.98"
     stroke-linejoin="bevel"
     points="1334.85,489.565 1334.85,547.399"
     id="polyline142"
     transform="translate(-212.597,-277.437)" />
  <polyline
     class="Stem"
     stroke="#000000"
     stroke-width="2.98"
     stroke-linejoin="bevel"
     points="2124.56,526.765 2124.56,584.599"
     id="polyline144"
     transform="translate(-212.597,-277.437)" />
  <polyline
     class="Stem"
     stroke="#000000"
     stroke-width="2.98"
     stroke-linejoin="bevel"
     points="794.974,489.565 794.974,547.399"
     id="polyline146"
     transform="translate(-212.597,-277.437)" />
  <polyline
     class="Stem"
     stroke="#000000"
     stroke-width="2.98"
     stroke-linejoin="bevel"
     points="1626.12,514.365 1626.12,572.199"
     id="polyline148"
     transform="translate(-212.597,-277.437)" />
  <polyline
     class="Stem"
     stroke="#000000"
     stroke-width="2.98"
     stroke-linejoin="bevel"
     points="961.935,489.565 961.935,547.399"
     id="polyline150"
     transform="translate(-212.597,-277.437)" />
  <polyline
     class="Stem"
     stroke="#000000"
     stroke-width="2.98"
     stroke-linejoin="bevel"
     points="1086.24,477.165 1086.24,534.999"
     id="polyline152"
     transform="translate(-212.597,-277.437)" />
  <polyline
     class="Stem"
     stroke="#000000"
     stroke-width="2.98"
     stroke-linejoin="bevel"
     points="1916.16,514.365 1916.16,572.199"
     id="polyline154"
     transform="translate(-212.597,-277.437)" />
  <polyline
     class="Stem"
     stroke="#000000"
     stroke-width="2.98"
     stroke-linejoin="bevel"
     points="1501.81,477.165 1501.81,534.999"
     id="polyline156"
     transform="translate(-212.597,-277.437)" />
  <polyline
     class="Stem"
     stroke="#000000"
     stroke-width="2.98"
     stroke-linejoin="bevel"
     points="1210.55,501.965 1210.55,559.799"
     id="polyline158"
     transform="translate(-212.597,-277.437)" />
  <polyline
     class="Stem"
     stroke="#000000"
     stroke-width="2.98"
     stroke-linejoin="bevel"
     points="1750.42,514.365 1750.42,572.199"
     id="polyline160"
     transform="translate(-212.597,-277.437)" />
  <polyline
     class="Stem"
     stroke="#000000"
     stroke-width="2.98"
     stroke-linejoin="bevel"
     points="1833.29,526.765 1833.29,584.599"
     id="polyline162"
     transform="translate(-212.597,-277.437)" />
  <polyline
     class="Stem"
     stroke="#000000"
     stroke-width="2.98"
     stroke-linejoin="bevel"
     points="1655.78,870.417 1655.78,812.583"
     id="polyline164"
     transform="translate(-212.597,-277.437)" />
  <polyline
     class="Stem"
     stroke="#000000"
     stroke-width="2.98"
     stroke-linejoin="bevel"
     points="1531.47,870.417 1531.47,812.583"
     id="polyline166"
     transform="translate(-212.597,-277.437)" />
  <polyline
     class="Stem"
     stroke="#000000"
     stroke-width="2.98"
     stroke-linejoin="bevel"
     points="576.023,833.217 576.023,775.383"
     id="polyline168"
     transform="translate(-212.597,-277.437)" />
  <polyline
     class="Stem"
     stroke="#000000"
     stroke-width="2.98"
     stroke-linejoin="bevel"
     points="1945.82,845.617 1945.82,787.783"
     id="polyline170"
     transform="translate(-212.597,-277.437)" />
  <polyline
     class="Stem"
     stroke="#000000"
     stroke-width="2.98"
     stroke-linejoin="bevel"
     points="451.717,820.817 451.717,762.983"
     id="polyline172"
     transform="translate(-212.597,-277.437)" />
  <polyline
     class="Stem"
     stroke="#000000"
     stroke-width="2.98"
     stroke-linejoin="bevel"
     points="1862.95,858.017 1862.95,800.183"
     id="polyline174"
     transform="translate(-212.597,-277.437)" />
  <polyline
     class="Stem"
     stroke="#000000"
     stroke-width="2.98"
     stroke-linejoin="bevel"
     points="1780.08,870.417 1780.08,812.583"
     id="polyline176"
     transform="translate(-212.597,-277.437)" />
  <polyline
     class="Stem"
     stroke="#000000"
     stroke-width="2.98"
     stroke-linejoin="bevel"
     points="700.328,820.817 700.328,762.983"
     id="polyline178"
     transform="translate(-212.597,-277.437)" />
  <polyline
     class="Stem"
     stroke="#000000"
     stroke-width="2.98"
     stroke-linejoin="bevel"
     points="670.669,915.95 670.669,979.984"
     id="polyline180"
     transform="translate(-212.597,-277.437)" />
  <path
     class="Note"
     fill="#00aa00"
     d="m 1304.595,157.16851 c -14.384,0 -23.312,6.06048 -23.312,13.39199 0,7.23851 6.1535,13.68656 22.2271,13.68656 17.6544,0 23.312,-6.13805 23.312,-13.68656 0,-7.64151 -12.1985,-13.39199 -22.2271,-13.39199 m -2.7745,2.48 c 7.3471,0 13.2991,7.93598 13.2991,14.49249 0,5.45601 -3.3791,7.62606 -8.246,7.62606 -7.1455,0 -13.9811,-8.23055 -13.9811,-15.17457 0,-5.549 3.8596,-6.94398 8.928,-6.94398"
     id="path182"
     style="stroke-width:0.992001" />
  <path
     class="Note"
     fill="#5555ff"
     d="m 1795.6635,209.45001 c 9.827,0 21.9326,-9.1295 21.9326,-18.55352 0,-5.54903 -4.464,-9.2225 -10.8191,-9.2225 -12.1055,0 -21.824,9.02101 -21.824,18.55352 0,5.7505 4.7585,9.2225 10.7105,9.2225"
     id="path184"
     style="stroke-width:0.992001" />
  <path
     class="Note"
     fill="#00aa00"
     d="m 1547.0535,184.65001 c 18.259,0 21.9326,-14.88001 21.9326,-18.44501 0,-5.65754 -4.464,-9.33101 -10.912,-9.33101 -16.5696,0 -21.7311,12.80301 -21.7311,18.55352 0,5.84355 4.6655,9.2225 10.7105,9.2225 m 8.432,-8.835 c -4.96,3.379 -8.432,4.5725 -10.8035,4.5725 -2.294,0 -3.6735,-1.1935 -4.371,-2.5885 -0.403,-0.589 -0.6975,-1.3795 -0.6975,-2.17001 0,-5.363 15.9806,-14.19801 21.235,-14.19801 2.0771,0 3.2705,0.992 4.0611,2.387 0.31,0.589 0.6045,1.2865 0.6045,2.07701 0,2.18549 -2.2785,4.867 -10.0286,9.92001"
     id="path186"
     style="stroke-width:0.992001" />
  <path
     class="Note"
     fill="#5555ff"
     d="m 1712.7935,197.05001 c 9.827,0 21.9326,-9.1295 21.9326,-18.55352 0,-5.54903 -4.464,-9.2225 -10.8191,-9.2225 -12.1055,0 -21.824,9.02101 -21.824,18.55352 0,5.7505 4.7585,9.2225 10.7105,9.2225"
     id="path188"
     style="stroke-width:0.992001" />
  <path
     class="Note"
     d="m 218.68354,197.05001 c 18.25896,0 21.93254,-14.88001 21.93254,-18.44501 0,-5.65754 -4.464,-9.33101 -10.91201,-9.33101 -16.56956,0 -21.73107,12.80301 -21.73107,18.55352 0,5.84355 4.66551,9.2225 10.71054,9.2225 m 8.432,-8.835 c -4.96,3.379 -8.432,4.5725 -10.80353,4.5725 -2.294,0 -3.6735,-1.1935 -4.37101,-2.5885 -0.403,-0.589 -0.69749,-1.3795 -0.69749,-2.17001 0,-5.363 15.98056,-14.19801 21.23499,-14.19801 2.07705,0 3.27053,0.992 4.06105,2.387 0.31,0.589 0.60453,1.2865 0.60453,2.07701 0,2.18549 -2.27853,4.867 -10.02854,9.92001"
     id="path190"
     style="stroke-width:0.992001" />
  <path
     class="Note"
     fill="#5555ff"
     d="m 1927.335,169.56851 c -14.384,0 -23.312,6.06048 -23.312,13.39199 0,7.23851 6.1535,13.68656 22.2271,13.68656 17.6544,0 23.312,-6.13805 23.312,-13.68656 0,-7.64151 -12.1985,-13.39199 -22.2271,-13.39199 m -2.7745,2.48 c 7.3471,0 13.2991,7.93598 13.2991,14.49249 0,5.45601 -3.3791,7.62606 -8.246,7.62606 -7.1455,0 -13.9811,-8.23055 -13.9811,-15.17457 0,-5.549 3.8596,-6.94398 8.928,-6.94398"
     id="path192"
     style="stroke-width:0.992001" />
  <path
     class="Note"
     d="m 342.98854,197.05001 c 18.25896,0 21.93254,-14.88001 21.93254,-18.44501 0,-5.65754 -4.464,-9.33101 -10.91201,-9.33101 -16.56956,0 -21.73107,12.80301 -21.73107,18.55352 0,5.84355 4.66551,9.2225 10.71054,9.2225 m 8.432,-8.835 c -4.96,3.379 -8.432,4.5725 -10.80353,4.5725 -2.294,0 -3.6735,-1.1935 -4.37101,-2.5885 -0.403,-0.589 -0.69749,-1.3795 -0.69749,-2.17001 0,-5.363 15.98056,-14.19801 21.23499,-14.19801 2.07705,0 3.27053,0.992 4.06105,2.387 0.31,0.589 0.60453,1.2865 0.60453,2.07701 0,2.18549 -2.27853,4.867 -10.02854,9.92001"
     id="path194"
     style="stroke-width:0.992001" />
  <path
     class="Note"
     d="m 473.44802,169.56851 c -14.38401,0 -23.31202,6.06048 -23.31202,13.39199 0,7.23851 6.15351,13.68656 22.22707,13.68656 17.65445,0 23.31203,-6.13805 23.31203,-13.68656 0,-7.64151 -12.19854,-13.39199 -22.22708,-13.39199 m -2.77452,2.48 c 7.34705,0 13.29906,7.93598 13.29906,14.49249 0,5.45601 -3.37905,7.62606 -8.24601,7.62606 -7.14548,0 -13.98106,-8.23055 -13.98106,-15.17457 0,-5.549 3.85958,-6.94398 8.92801,-6.94398"
     id="path196"
     style="stroke-width:0.992001" />
  <path
     class="Note"
     fill="#00aa00"
     d="m 764.71402,132.36851 c -14.38401,0 -23.31202,6.06048 -23.31202,13.39199 0,7.23851 6.15351,13.68656 22.22707,13.68656 17.65445,0 23.31203,-6.13805 23.31203,-13.68656 0,-7.64151 -12.19854,-13.39199 -22.22708,-13.39199 m -2.77452,2.48 c 7.34705,0 13.29906,7.93598 13.29906,14.49249 0,5.45601 -3.37905,7.62606 -8.24601,7.62606 -7.14548,0 -13.98106,-8.23055 -13.98106,-15.17457 0,-5.549 3.85958,-6.94398 8.92801,-6.94398"
     id="path198"
     style="stroke-width:0.992001" />
  <path
     class="Note"
     fill="#00aa00"
     d="m 1013.325,144.76851 c -14.38399,0 -23.312,6.06048 -23.312,13.39199 0,7.23851 6.15351,13.68656 22.2271,13.68656 17.6544,0 23.312,-6.13805 23.312,-13.68656 0,-7.64151 -12.1985,-13.39199 -22.2271,-13.39199 m -2.7745,2.48 c 7.3471,0 13.2991,7.93598 13.2991,14.49249 0,5.45601 -3.3791,7.62606 -8.246,7.62606 -7.1455,0 -13.9811,-8.23055 -13.9811,-15.17457 0,-5.549 3.8596,-6.94398 8.928,-6.94398"
     id="path200"
     style="stroke-width:0.992001" />
  <path
     class="Note"
     fill="#00aa00"
     d="m 1547.0535,246.65001 c 9.827,0 21.9326,-9.1295 21.9326,-18.55352 0,-5.54903 -4.464,-9.2225 -10.8191,-9.2225 -12.1055,0 -21.824,9.02101 -21.824,18.55352 0,5.7505 4.7585,9.2225 10.7105,9.2225"
     id="path202"
     style="stroke-width:0.992001" />
  <path
     class="Note"
     d="m 224.83702,206.76851 c -14.38401,0 -23.31202,6.06048 -23.31202,13.39199 0,7.23851 6.15351,13.68656 22.22707,13.68656 17.65445,0 23.31203,-6.13805 23.31203,-13.68656 0,-7.64151 -12.19854,-13.39199 -22.22708,-13.39199 m -2.77452,2.48 c 7.34705,0 13.29906,7.93598 13.29906,14.49249 0,5.45601 -3.37905,7.62606 -8.24601,7.62606 -7.14548,0 -13.98106,-8.23055 -13.98106,-15.17457 0,-5.549 3.85958,-6.94398 8.92801,-6.94398"
     id="path204"
     style="stroke-width:0.992001" />
  <path
     class="Note"
     fill="#00aa00"
     d="m 1131.4735,221.85001 c 18.259,0 21.9326,-14.88001 21.9326,-18.44501 0,-5.65754 -4.464,-9.33101 -10.912,-9.33101 -16.5696,0 -21.7311,12.80301 -21.7311,18.55352 0,5.84355 4.6655,9.2225 10.7105,9.2225 m 8.432,-8.835 c -4.96,3.379 -8.432,4.5725 -10.8035,4.5725 -2.294,0 -3.6735,-1.1935 -4.371,-2.5885 -0.403,-0.589 -0.6975,-1.3795 -0.6975,-2.17001 0,-5.363 15.9806,-14.19801 21.235,-14.19801 2.0771,0 3.2705,0.992 4.0611,2.387 0.31,0.589 0.6045,1.2865 0.6045,2.07701 0,2.18549 -2.2785,4.867 -10.0286,9.92001"
     id="path206"
     style="stroke-width:0.992001" />
  <path
     class="Note"
     fill="#00aa00"
     d="m 1422.7435,246.65001 c 18.259,0 21.9326,-14.88001 21.9326,-18.44501 0,-5.65754 -4.464,-9.33101 -10.912,-9.33101 -16.5696,0 -21.7311,12.80301 -21.7311,18.55352 0,5.84355 4.6655,9.2225 10.7105,9.2225 m 8.432,-8.835 c -4.96,3.379 -8.432,4.5725 -10.8035,4.5725 -2.294,0 -3.6735,-1.1935 -4.371,-2.5885 -0.403,-0.589 -0.6975,-1.3795 -0.6975,-2.17001 0,-5.363 15.9806,-14.19801 21.235,-14.19801 2.0771,0 3.2705,0.992 4.0611,2.387 0.31,0.589 0.6045,1.2865 0.6045,2.07701 0,2.18549 -2.2785,4.867 -10.0286,9.92001"
     id="path208"
     style="stroke-width:0.992001" />
  <path
     class="Note"
     fill="#00aa00"
     d="m 1298.4335,209.45001 c 18.259,0 21.9326,-14.88001 21.9326,-18.44501 0,-5.65754 -4.464,-9.33101 -10.912,-9.33101 -16.5696,0 -21.7311,12.80301 -21.7311,18.55352 0,5.84355 4.6655,9.2225 10.7105,9.2225 m 8.432,-8.835 c -4.96,3.379 -8.432,4.5725 -10.8035,4.5725 -2.294,0 -3.6735,-1.1935 -4.371,-2.5885 -0.403,-0.589 -0.6975,-1.3795 -0.6975,-2.17001 0,-5.363 15.9806,-14.19801 21.235,-14.19801 2.0771,0 3.2705,0.992 4.0611,2.387 0.31,0.589 0.6045,1.2865 0.6045,2.07701 0,2.18549 -2.2785,4.867 -10.0286,9.92001"
     id="path210"
     style="stroke-width:0.992001" />
  <path
     class="Note"
     fill="#00aa00"
     d="m 591.59954,221.85001 c 18.25896,0 21.93254,-14.88001 21.93254,-18.44501 0,-5.65754 -4.464,-9.33101 -10.91201,-9.33101 -16.56956,0 -21.73107,12.80301 -21.73107,18.55352 0,5.84355 4.66551,9.2225 10.71054,9.2225 m 8.432,-8.835 c -4.96,3.379 -8.432,4.5725 -10.80353,4.5725 -2.294,0 -3.6735,-1.1935 -4.37101,-2.5885 -0.403,-0.589 -0.69749,-1.3795 -0.69749,-2.17001 0,-5.363 15.98056,-14.19801 21.23499,-14.19801 2.07705,0 3.27053,0.992 4.06105,2.387 0.31,0.589 0.60453,1.2865 0.60453,2.07701 0,2.18549 -2.27853,4.867 -10.02854,9.92001"
     id="path212"
     style="stroke-width:0.992001" />
  <path
     class="Note"
     fill="#00aa00"
     d="m 1007.1735,234.25001 c 18.259,0 21.9326,-14.88001 21.9326,-18.44501 0,-5.65754 -4.464,-9.33101 -10.912,-9.33101 -16.5696,0 -21.7311,12.80301 -21.7311,18.55352 0,5.84355 4.6655,9.2225 10.7105,9.2225 m 8.432,-8.835 c -4.96,3.379 -8.432,4.5725 -10.8035,4.5725 -2.294,0 -3.6735,-1.1935 -4.371,-2.5885 -0.403,-0.589 -0.69749,-1.3795 -0.69749,-2.17001 0,-5.363 15.98059,-14.19801 21.23499,-14.19801 2.0771,0 3.2705,0.992 4.0611,2.387 0.31,0.589 0.6045,1.2865 0.6045,2.07701 0,2.18549 -2.2785,4.867 -10.0286,9.92001"
     id="path214"
     style="stroke-width:0.992001" />
  <path
     class="Note"
     fill="#00aa00"
     d="m 882.86354,209.45001 c 18.25896,0 21.93254,-14.88001 21.93254,-18.44501 0,-5.65754 -4.464,-9.33101 -10.91201,-9.33101 -16.56956,0 -21.73107,12.80301 -21.73107,18.55352 0,5.84355 4.66551,9.2225 10.71054,9.2225 m 8.432,-8.835 c -4.96,3.379 -8.432,4.5725 -10.80353,4.5725 -2.294,0 -3.6735,-1.1935 -4.37101,-2.5885 -0.403,-0.589 -0.69749,-1.3795 -0.69749,-2.17001 0,-5.363 15.98056,-14.19801 21.23499,-14.19801 2.07705,0 3.27053,0.992 4.06105,2.387 0.31,0.589 0.60453,1.2865 0.60453,2.07701 0,2.18549 -2.27853,4.867 -10.02854,9.92001"
     id="path216"
     style="stroke-width:0.992001" />
  <path
     class="Note"
     d="m 1629.9235,259.05001 c 9.827,0 21.9326,-9.1295 21.9326,-18.55352 0,-5.54903 -4.464,-9.2225 -10.8191,-9.2225 -12.1055,0 -21.824,9.02101 -21.824,18.55352 0,5.7505 4.7585,9.2225 10.7105,9.2225"
     id="path218"
     style="stroke-width:0.992001" />
  <path
     class="Note"
     fill="#00aa00"
     d="m 758.56054,221.85001 c 18.25896,0 21.93254,-14.88001 21.93254,-18.44501 0,-5.65754 -4.464,-9.33101 -10.91201,-9.33101 -16.56956,0 -21.73107,12.80301 -21.73107,18.55352 0,5.84355 4.66551,9.2225 10.71054,9.2225 m 8.432,-8.835 c -4.96,3.379 -8.432,4.5725 -10.80353,4.5725 -2.294,0 -3.6735,-1.1935 -4.37101,-2.5885 -0.403,-0.589 -0.69749,-1.3795 -0.69749,-2.17001 0,-5.363 15.98056,-14.19801 21.23499,-14.19801 2.07705,0 3.27053,0.992 4.06105,2.387 0.31,0.589 0.60453,1.2865 0.60453,2.07701 0,2.18549 -2.27853,4.867 -10.02854,9.92001"
     id="path220"
     style="stroke-width:0.992001" />
  <path
     class="Note"
     fill="#5555ff"
     d="m 1921.1835,259.05001 c 18.259,0 21.9326,-14.88001 21.9326,-18.44501 0,-5.65754 -4.464,-9.33101 -10.912,-9.33101 -16.5696,0 -21.7311,12.80301 -21.7311,18.55352 0,5.84355 4.6655,9.2225 10.7105,9.2225 m 8.432,-8.835 c -4.96,3.379 -8.432,4.5725 -10.8035,4.5725 -2.294,0 -3.6735,-1.1935 -4.371,-2.5885 -0.403,-0.589 -0.6975,-1.3795 -0.6975,-2.17001 0,-5.363 15.9806,-14.19801 21.235,-14.19801 2.0771,0 3.2705,0.992 4.0611,2.387 0.31,0.589 0.6045,1.2865 0.6045,2.07701 0,2.18549 -2.2785,4.867 -10.0286,9.92001"
     id="path222"
     style="stroke-width:0.992001" />
  <path
     class="Note"
     fill="#5555ff"
     d="m 1712.7935,246.65001 c 18.259,0 21.9326,-14.88001 21.9326,-18.44501 0,-5.65754 -4.464,-9.33101 -10.912,-9.33101 -16.5696,0 -21.7311,12.80301 -21.7311,18.55352 0,5.84355 4.6655,9.2225 10.7105,9.2225 m 8.432,-8.835 c -4.96,3.379 -8.432,4.5725 -10.8035,4.5725 -2.294,0 -3.6735,-1.1935 -4.371,-2.5885 -0.403,-0.589 -0.6975,-1.3795 -0.6975,-2.17001 0,-5.363 15.9806,-14.19801 21.235,-14.19801 2.0771,0 3.2705,0.992 4.0611,2.387 0.31,0.589 0.6045,1.2865 0.6045,2.07701 0,2.18549 -2.2785,4.867 -10.0286,9.92001"
     id="path224"
     style="stroke-width:0.992001" />
  <path
     class="Note"
     d="m 467.29454,561.43401 c 18.25896,0 21.93254,-14.88001 21.93254,-18.44501 0,-5.65754 -4.464,-9.33101 -10.91201,-9.33101 -16.56956,0 -21.73107,12.80301 -21.73107,18.55352 0,5.84355 4.66551,9.2225 10.71054,9.2225 m 8.432,-8.835 c -4.96,3.379 -8.432,4.5725 -10.80353,4.5725 -2.294,0 -3.6735,-1.1935 -4.37101,-2.5885 -0.403,-0.589 -0.69749,-1.3795 -0.69749,-2.17001 0,-5.363 15.98056,-14.19801 21.23499,-14.19801 2.07705,0 3.27053,0.992 4.06105,2.387 0.31,0.589 0.60453,1.2865 0.60453,2.07701 0,2.18549 -2.27853,4.867 -10.02854,9.92001"
     id="path226"
     style="stroke-width:0.992001" />
  <path
     class="Note"
     fill="#aa0000"
     d="m 1422.7435,611.03401 c 18.259,0 21.9326,-14.88001 21.9326,-18.44501 0,-5.65754 -4.464,-9.33101 -10.912,-9.33101 -16.5696,0 -21.7311,12.80301 -21.7311,18.55352 0,5.84355 4.6655,9.2225 10.7105,9.2225 m 8.432,-8.835 c -4.96,3.379 -8.432,4.5725 -10.8035,4.5725 -2.294,0 -3.6735,-1.1935 -4.371,-2.5885 -0.403,-0.589 -0.6975,-1.3795 -0.6975,-2.17001 0,-5.363 15.9806,-14.19801 21.235,-14.19801 2.0771,0 3.2705,0.992 4.0611,2.387 0.31,0.589 0.6045,1.2865 0.6045,2.07701 0,2.18549 -2.2785,4.867 -10.0286,9.92001"
     id="path228"
     style="stroke-width:0.992001" />
  <path
     class="Note"
     fill="#5555ff"
     d="m 1712.7935,586.23401 c 18.259,0 21.9326,-14.88001 21.9326,-18.44501 0,-5.65754 -4.464,-9.33101 -10.912,-9.33101 -16.5696,0 -21.7311,12.80301 -21.7311,18.55352 0,5.84355 4.6655,9.2225 10.7105,9.2225 m 8.432,-8.835 c -4.96,3.379 -8.432,4.5725 -10.8035,4.5725 -2.294,0 -3.6735,-1.1935 -4.371,-2.5885 -0.403,-0.589 -0.6975,-1.3795 -0.6975,-2.17001 0,-5.363 15.9806,-14.19801 21.235,-14.19801 2.0771,0 3.2705,0.992 4.0611,2.387 0.31,0.589 0.6045,1.2865 0.6045,2.07701 0,2.18549 -2.2785,4.867 -10.0286,9.92001"
     id="path230"
     style="stroke-width:0.992001" />
  <path
     class="Note"
     fill="#aa0000"
     d="m 1013.325,571.15251 c -14.38399,0 -23.312,6.06048 -23.312,13.39199 0,7.23851 6.15351,13.68656 22.2271,13.68656 17.6544,0 23.312,-6.13805 23.312,-13.68656 0,-7.64151 -12.1985,-13.39199 -22.2271,-13.39199 m -2.7745,2.48 c 7.3471,0 13.2991,7.93598 13.2991,14.49249 0,5.45601 -3.3791,7.62606 -8.246,7.62606 -7.1455,0 -13.9811,-8.23055 -13.9811,-15.17457 0,-5.549 3.8596,-6.94398 8.928,-6.94398"
     id="path232"
     style="stroke-width:0.992001" />
  <path
     class="Note"
     d="m 218.68354,561.43401 c 18.25896,0 21.93254,-14.88001 21.93254,-18.44501 0,-5.65754 -4.464,-9.33101 -10.91201,-9.33101 -16.56956,0 -21.73107,12.80301 -21.73107,18.55352 0,5.84355 4.66551,9.2225 10.71054,9.2225 m 8.432,-8.835 c -4.96,3.379 -8.432,4.5725 -10.80353,4.5725 -2.294,0 -3.6735,-1.1935 -4.37101,-2.5885 -0.403,-0.589 -0.69749,-1.3795 -0.69749,-2.17001 0,-5.363 15.98056,-14.19801 21.23499,-14.19801 2.07705,0 3.27053,0.992 4.06105,2.387 0.31,0.589 0.60453,1.2865 0.60453,2.07701 0,2.18549 -2.27853,4.867 -10.02854,9.92001"
     id="path234"
     style="stroke-width:0.992001" />
  <path
     class="Note"
     fill="#aa0000"
     d="m 1547.0535,611.03401 c 9.827,0 21.9326,-9.1295 21.9326,-18.55352 0,-5.54903 -4.464,-9.2225 -10.8191,-9.2225 -12.1055,0 -21.824,9.02101 -21.824,18.55352 0,5.7505 4.7585,9.2225 10.7105,9.2225"
     id="path236"
     style="stroke-width:0.992001" />
  <path
     class="Note"
     d="m 342.98854,573.83401 c 18.25896,0 21.93254,-14.88001 21.93254,-18.44501 0,-5.65754 -4.464,-9.33101 -10.91201,-9.33101 -16.56956,0 -21.73107,12.80301 -21.73107,18.55352 0,5.84355 4.66551,9.2225 10.71054,9.2225 m 8.432,-8.835 c -4.96,3.379 -8.432,4.5725 -10.80353,4.5725 -2.294,0 -3.6735,-1.1935 -4.37101,-2.5885 -0.403,-0.589 -0.69749,-1.3795 -0.69749,-2.17001 0,-5.363 15.98056,-14.19801 21.23499,-14.19801 2.07705,0 3.27053,0.992 4.06105,2.387 0.31,0.589 0.60453,1.2865 0.60453,2.07701 0,2.18549 -2.27853,4.867 -10.02854,9.92001"
     id="path238"
     style="stroke-width:0.992001" />
  <path
     class="Note"
     fill="#aa0000"
     d="m 764.71402,558.75251 c -14.38401,0 -23.31202,6.06048 -23.31202,13.39199 0,7.23851 6.15351,13.68656 22.22707,13.68656 17.65445,0 23.31203,-6.13805 23.31203,-13.68656 0,-7.64151 -12.19854,-13.39199 -22.22708,-13.39199 m -2.77452,2.48 c 7.34705,0 13.29906,7.93598 13.29906,14.49249 0,5.45601 -3.37905,7.62606 -8.24601,7.62606 -7.14548,0 -13.98106,-8.23055 -13.98106,-15.17457 0,-5.549 3.85958,-6.94398 8.92801,-6.94398"
     id="path240"
     style="stroke-width:0.992001" />
  <path
     class="Note"
     d="m 1629.9235,598.63401 c 9.827,0 21.9326,-9.1295 21.9326,-18.55352 0,-5.54903 -4.464,-9.2225 -10.8191,-9.2225 -12.1055,0 -21.824,9.02101 -21.824,18.55352 0,5.7505 4.7585,9.2225 10.7105,9.2225"
     id="path242"
     style="stroke-width:0.992001" />
  <path
     class="Note"
     fill="#aa0000"
     d="m 1298.4335,611.03401 c 18.259,0 21.9326,-14.88001 21.9326,-18.44501 0,-5.65754 -4.464,-9.33101 -10.912,-9.33101 -16.5696,0 -21.7311,12.80301 -21.7311,18.55352 0,5.84355 4.6655,9.2225 10.7105,9.2225 m 8.432,-8.835 c -4.96,3.379 -8.432,4.5725 -10.8035,4.5725 -2.294,0 -3.6735,-1.1935 -4.371,-2.5885 -0.403,-0.589 -0.6975,-1.3795 -0.6975,-2.17001 0,-5.363 15.9806,-14.19801 21.235,-14.19801 2.0771,0 3.2705,0.992 4.0611,2.387 0.31,0.589 0.6045,1.2865 0.6045,2.07701 0,2.18549 -2.2785,4.867 -10.0286,9.92001"
     id="path244"
     style="stroke-width:0.992001" />
  <path
     class="Note"
     fill="#5555ff"
     d="m 1927.335,571.15251 c -14.384,0 -23.312,6.06048 -23.312,13.39199 0,7.23851 6.1535,13.68656 22.2271,13.68656 17.6544,0 23.312,-6.13805 23.312,-13.68656 0,-7.64151 -12.1985,-13.39199 -22.2271,-13.39199 m -2.7745,2.48 c 7.3471,0 13.2991,7.93598 13.2991,14.49249 0,5.45601 -3.3791,7.62606 -8.246,7.62606 -7.1455,0 -13.9811,-8.23055 -13.9811,-15.17457 0,-5.549 3.8596,-6.94398 8.928,-6.94398"
     id="path246"
     style="stroke-width:0.992001" />
  <path
     class="Note"
     d="m 467.29454,648.23501 c 18.25896,0 21.93254,-14.88001 21.93254,-18.44501 0,-5.65754 -4.464,-9.33101 -10.91201,-9.33101 -16.56956,0 -21.73107,12.80301 -21.73107,18.55352 0,5.84355 4.66551,9.2225 10.71054,9.2225 m 8.432,-8.835 c -4.96,3.379 -8.432,4.5725 -10.80353,4.5725 -2.294,0 -3.6735,-1.1935 -4.37101,-2.5885 -0.403,-0.589 -0.69749,-1.3795 -0.69749,-2.17001 0,-5.363 15.98056,-14.19801 21.23499,-14.19801 2.07705,0 3.27053,0.992 4.06105,2.387 0.31,0.589 0.60453,1.2865 0.60453,2.07701 0,2.18549 -2.27853,4.867 -10.02854,9.92001"
     id="path248"
     style="stroke-width:0.992001" />
  <path
     class="Note"
     d="m 224.83702,571.15251 c -14.38401,0 -23.31202,6.06048 -23.31202,13.39199 0,7.23851 6.15351,13.68656 22.22707,13.68656 17.65445,0 23.31203,-6.13805 23.31203,-13.68656 0,-7.64151 -12.19854,-13.39199 -22.22708,-13.39199 m -2.77452,2.48 c 7.34705,0 13.29906,7.93598 13.29906,14.49249 0,5.45601 -3.37905,7.62606 -8.24601,7.62606 -7.14548,0 -13.98106,-8.23055 -13.98106,-15.17457 0,-5.549 3.85958,-6.94398 8.92801,-6.94398"
     id="path250"
     style="stroke-width:0.992001" />
  <path
     class="Clef"
     d="m 60.373562,141.99396 c -0.201475,-1.19348 0,-1.28653 0.588951,-1.89105 10.710536,-10.01296 18.848019,-22.61445 18.848019,-37.78899 0,-8.633485 -2.386952,-17.174019 -6.448006,-23.126521 -1.488002,-2.169506 -4.060955,-4.960005 -5.16148,-4.960005 -1.379477,0 -4.464005,2.589123 -6.448007,4.774501 -7.331483,8.122008 -9.718535,20.522021 -9.718535,30.844985 0,5.75053 0.697576,12.19853 1.395051,16.27506 0.186001,1.19348 0.294526,1.37948 -0.89905,2.37148 C 38.23954,140.30448 23.065,154.48692 23.065,174.52849 c 0,17.26702 11.811062,33.63501 36.115086,33.63501 2.278428,0 4.85148,-0.20148 6.835482,-0.60443 1.100526,-0.186 1.302001,-0.29452 1.488002,0.89896 1.193476,6.64948 2.681478,15.28306 2.681478,19.94854 0,14.67854 -9.92001,16.46097 -15.763492,16.46097 -5.363055,0 -7.951483,-1.58095 -7.951483,-2.88296 0,-0.682 0.898952,-0.992 3.177479,-1.674 3.084528,-0.89905 6.649482,-3.58053 6.649482,-9.33106 0,-5.456 -3.472004,-10.12148 -9.51696,-10.12148 -6.649582,0 -10.617586,5.25453 -10.617586,11.40801 0,6.44801 3.859579,16.16654 18.848019,16.16654 6.649582,0 19.545595,-2.976 19.545595,-19.84002 0,-5.64201 -1.782527,-15.06601 -2.883053,-21.2195 -0.201475,-1.19357 -0.09295,-1.10052 1.286526,-1.68957 10.028535,-3.96801 16.678017,-12.40001 16.678017,-23.6065 0,-12.71006 -9.331059,-23.9165 -23.916549,-23.9165 -2.572953,0 -2.572953,0 -2.867478,-1.78253 l -2.480003,-14.38401 m 9.315485,-52.390054 c 3.270528,0 5.952006,2.681478 5.952006,8.137483 0,11.020531 -9.424009,19.948541 -17.251493,26.784031 -0.697475,0.60452 -1.100525,0.496 -1.302001,-0.79053 -0.387475,-2.57295 -0.58905,-5.95201 -0.58905,-9.12948 0,-15.46897 7.145582,-25.001504 13.190538,-25.001504 M 58.885561,157.1685 c 0.294525,1.89095 0.294525,1.78243 -1.488002,2.38695 -8.742008,2.976 -14.399489,10.80349 -14.399489,19.23555 0,8.928 4.66548,15.28301 11.423486,17.56154 0.790526,0.29452 1.984002,0.60452 2.666003,0.60452 0.806001,0 1.193477,-0.496 1.193477,-1.10052 0,-0.69748 -0.790526,-0.992 -1.488002,-1.28653 -4.169479,-1.7825 -7.145482,-6.045 -7.145482,-10.61751 0,-5.6575 3.874954,-9.92001 9.92001,-11.60956 1.596526,-0.38748 1.798001,-0.29443 1.984002,0.806 l 4.960005,29.55855 c 0.201475,1.08506 0.108525,1.08506 -1.379477,1.37958 -1.596526,0.31 -3.580528,0.496 -5.56453,0.496 -17.360018,0 -28.566554,-9.61001 -28.566554,-23.40507 0,-5.85901 0.992001,-13.68654 9.222534,-23.0175 5.952006,-6.64958 10.524536,-10.32306 15.190015,-14.08959 0.992001,-0.79043 1.178002,-0.69747 1.379477,0.40305 l 2.092527,12.69454 m 6.835482,15.77896 c -0.201475,-1.19347 -0.09295,-1.488 1.100526,-1.39495 8.028958,0.69748 14.67854,7.43998 14.67854,16.16649 0,6.26206 -3.766529,11.31502 -9.331059,14.08954 -1.193477,0.60453 -1.379477,0.60453 -1.580952,-0.58905 l -4.867055,-28.27203"
     id="path252"
     style="stroke-width:0.992001" />
  <path
     class="Clef"
     d="m 48.0665,571.1525 c -17.266987,0 -25.0015,12.60149 -25.0015,22.1185 0,7.936 4.169509,14.78701 12.198537,14.78701 6.246531,0 10.524536,-4.371 10.524536,-10.50901 0,-6.35501 -4.66558,-10.32301 -9.532535,-10.32301 -2.681478,0 -3.673528,0.6975 -4.960025,0.6975 -1.286506,0 -1.581001,-0.79055 -1.581001,-1.78255 0,-3.968 5.951976,-11.22201 16.073561,-11.22201 10.508961,0 15.08149,10.32306 15.08149,25.90058 0,27.68305 -13.702014,43.15201 -36.812562,56.34255 -0.899001,0.496 -1.488001,0.992 -1.488001,1.78253 0,0.60452 0.403,1.19347 1.286501,1.19347 0.496005,0 1.100501,-0.20147 1.689502,-0.496 24.412549,-11.90401 50.204575,-29.55855 50.204575,-59.72155 0,-17.25157 -10.524535,-28.76801 -27.683078,-28.76801 m 37.401613,8.13748 c -3.084528,0 -5.456006,2.38695 -5.456006,5.45601 0,3.069 2.371478,5.456 5.456006,5.456 3.068953,0 5.456005,-2.387 5.456005,-5.456 0,-3.06906 -2.387052,-5.45601 -5.456005,-5.45601 m 0.09295,24.89303 c -3.068953,0 -5.347481,2.294 -5.347481,5.363 0,3.06906 2.278528,5.36306 5.347481,5.36306 3.084528,0 5.363055,-2.294 5.363055,-5.36306 0,-3.069 -2.278527,-5.363 -5.363055,-5.363"
     id="path254"
     style="stroke-width:0.992001" />
  <path
     class="TimeSig"
     d="m 149.65451,140.91201 v -21.23502 c 0,-0.79053 -0.093,-1.68948 -1.19347,-1.68948 -0.88348,0 -1.37948,0.20147 -1.98401,0.89895 l -9.42401,11.40803 c -0.40295,0.496 -0.89895,1.085 -0.89895,2.27851 v 8.33901 h -13.39206 c 7.93606,-6.75801 23.82355,-29.26408 24.11807,-30.45756 l 0.093,-0.29452 c 0,-0.89895 -0.69747,-1.488 -1.488,-1.488 -0.88347,0 -4.96,0.186 -6.74253,0.186 -1.78243,0 -6.24643,-0.186 -7.05243,-0.186 -0.88358,0 -2.27853,0.29452 -2.27853,1.87557 0,12.30696 -9.71853,26.0865 -12.69454,30.25601 l -0.589,0.7905 c 0,0 0,0.1085 0,0.1085 l -0.10849,0.093 c -0.20151,0.496 -0.29451,0.899 -0.29451,1.1935 0,0.992 0.79051,1.68948 1.984,1.68948 h 18.44507 v 6.24653 c 0,2.68148 -2.17,3.472 -3.968,3.472 -1.58105,0 -2.27853,0.89905 -2.27853,1.89105 0,0.992 0.40295,2.07695 1.89095,2.07695 h 21.12655 c 0.992,0 1.984,-0.69747 1.984,-2.07695 0,-1.39505 -1.19347,-1.984 -2.18548,-1.984 -0.992,0 -3.06905,-0.60452 -3.06905,-3.782 v -5.84358 h 7.23853 c 0.992,0 1.48801,-0.69748 1.48801,-1.89098 0,-1.1935 -0.38748,-1.8755 -1.48801,-1.8755 h -7.23853"
     id="path256"
     style="stroke-width:0.992001" />
  <path
     class="TimeSig"
     d="m 156.69157,192.77601 c 0,-1.178 -0.496,-1.3795 -1.19348,-1.3795 -0.79053,0 -1.10053,0.3875 -1.28653,1.085 l -0.10852,0.1085 c -0.992,2.48005 -1.78253,4.35553 -3.85948,4.35553 -0.496,0 -0.992,-0.0931 -1.68948,-0.29453 -1.28652,-0.496 -1.984,-0.58895 -2.976,-1.08495 -1.984,-0.806 -6.64958,-2.38705 -10.72601,-2.38705 -1.28653,0 -2.57305,0.2015 -3.658,0.58905 2.17,-3.56505 10.61748,-6.54106 12.78748,-7.13006 6.94401,-1.891 13.20602,-4.774 13.20602,-13.00449 0,-10.50906 -10.32306,-15.08159 -19.5455,-15.08159 -6.944,0 -13.09756,0.60453 -17.96456,6.26201 -1.68951,2.07705 -2.77451,4.55706 -2.77451,7.23853 0,1.37948 0.29451,2.77453 0.899,4.26253 1.488,3.06901 4.55701,5.45601 8.12206,5.45601 6.06043,0 6.94401,-6.24651 6.94401,-8.72654 0,-5.952 -6.83558,-6.24653 -6.83558,-8.23053 0.20157,-1.39495 1.984,-3.782 7.82758,-3.782 8.83496,0 8.94348,6.64958 8.94348,9.53253 0,9.02103 -7.45548,15.87205 -14.58549,20.22755 -5.45605,3.47205 -9.33106,8.33901 -11.02055,14.78701 l -0.093,0.29453 c 0,1.28652 1.085,3.37895 2.573,3.37895 2.1855,0 3.379,-6.06043 9.22255,-6.06043 3.96801,0 5.45601,5.36295 14.29097,5.36295 4.26253,0 11.90401,-0.40295 13.50054,-15.77901"
     id="path258"
     style="stroke-width:0.992001" />
  <path
     class="TimeSig"
     d="m 149.65451,604.49701 v -21.23502 c 0,-0.79053 -0.093,-1.68948 -1.19347,-1.68948 -0.88348,0 -1.37948,0.20147 -1.98401,0.89895 l -9.42401,11.40803 c -0.40295,0.496 -0.89895,1.085 -0.89895,2.27851 v 8.33901 h -13.39206 c 7.93606,-6.75801 23.82355,-29.26408 24.11807,-30.45756 l 0.093,-0.29452 c 0,-0.89895 -0.69747,-1.488 -1.488,-1.488 -0.88347,0 -4.96,0.186 -6.74253,0.186 -1.78243,0 -6.24643,-0.186 -7.05243,-0.186 -0.88358,0 -2.27853,0.29452 -2.27853,1.87557 0,12.30696 -9.71853,26.0865 -12.69454,30.25601 l -0.589,0.7905 c 0,0 0,0.1085 0,0.1085 l -0.10849,0.093 c -0.20151,0.496 -0.29451,0.899 -0.29451,1.1935 0,0.992 0.79051,1.68948 1.984,1.68948 h 18.44507 v 6.24653 c 0,2.68148 -2.17,3.472 -3.968,3.472 -1.58105,0 -2.27853,0.89905 -2.27853,1.89105 0,0.992 0.40295,2.07695 1.89095,2.07695 h 21.12655 c 0.992,0 1.984,-0.69747 1.984,-2.07695 0,-1.39505 -1.19347,-1.984 -2.18548,-1.984 -0.992,0 -3.06905,-0.60452 -3.06905,-3.782 v -5.84358 h 7.23853 c 0.992,0 1.48801,-0.69748 1.48801,-1.89098 0,-1.1935 -0.38748,-1.8755 -1.48801,-1.8755 h -7.23853"
     id="path260"
     style="stroke-width:0.992001" />
  <path
     class="TimeSig"
     d="m 156.69157,656.36001 c 0,-1.178 -0.496,-1.3795 -1.19348,-1.3795 -0.79053,0 -1.10053,0.3875 -1.28653,1.085 l -0.10852,0.1085 c -0.992,2.48005 -1.78253,4.35553 -3.85948,4.35553 -0.496,0 -0.992,-0.093 -1.68948,-0.29453 -1.28652,-0.496 -1.984,-0.58895 -2.976,-1.08495 -1.984,-0.806 -6.64958,-2.38705 -10.72601,-2.38705 -1.28653,0 -2.57305,0.2015 -3.658,0.58905 2.17,-3.56505 10.61748,-6.54106 12.78748,-7.13006 6.94401,-1.891 13.20602,-4.774 13.20602,-13.00449 0,-10.50906 -10.32306,-15.08159 -19.5455,-15.08159 -6.944,0 -13.09756,0.60453 -17.96456,6.26201 -1.68951,2.07705 -2.77451,4.55706 -2.77451,7.23853 0,1.37948 0.29451,2.77453 0.899,4.26253 1.488,3.06901 4.55701,5.45601 8.12206,5.45601 6.06043,0 6.94401,-6.24651 6.94401,-8.72654 0,-5.952 -6.83558,-6.24653 -6.83558,-8.23053 0.20157,-1.39495 1.984,-3.782 7.82758,-3.782 8.83496,0 8.94348,6.64958 8.94348,9.53253 0,9.02103 -7.45548,15.87205 -14.58549,20.22755 -5.45605,3.47205 -9.33106,8.33901 -11.02055,14.78701 l -0.093,0.29453 c 0,1.28652 1.085,3.37895 2.573,3.37895 2.1855,0 3.379,-6.06043 9.22255,-6.06043 3.96801,0 5.45601,5.36295 14.29097,5.36295 4.26253,0 11.90401,-0.40295 13.50054,-15.77901"
     id="path262"
     style="stroke-width:0.992001" />
  <path
     class="Rest"
     d="m 494.38856,234.04851 c 0.992,0 1.78253,-0.79051 1.78253,-1.78251 0,-0.992 -0.79053,-1.78251 -1.78253,-1.78251 -9.82706,0 -9.82706,0 -9.82706,-0.10849 v -9.11406 c 0,-1.39495 -1.19347,-2.58843 -2.57295,-2.58843 H 459.157 c -1.488,0 -2.573,1.19348 -2.573,2.58843 v 9.22255 h -9.82701 c -0.99205,0 -1.78248,0.79051 -1.78248,1.78251 0,0.992 0.79043,1.78251 1.78248,1.78251 h 47.63157"
     id="path264"
     style="stroke-width:0.992001" />
  <path
     class="Rest"
     d="m 2062.7605,205.575 v -9.11406 c 0,-1.488 -1.1935,-2.58843 -2.5729,-2.58843 h -22.8316 c -1.488,0 -2.573,1.10043 -2.573,2.58843 v 9.11406 c 0,1.395 1.085,2.5885 2.573,2.5885 h 22.8316 c 1.3794,0 2.5729,-1.1935 2.5729,-2.5885"
     id="path266"
     style="stroke-width:0.992001" />
  <path
     class="Rest"
     d="m 608.8665,569.959 v -9.11406 c 0,-1.488 -1.19347,-2.58843 -2.57295,-2.58843 H 583.462 c -1.488,0 -2.573,1.10043 -2.573,2.58843 v 9.11406 c 0,1.395 1.085,2.5885 2.573,2.5885 h 22.83155 c 1.37948,0 2.57295,-1.1935 2.57295,-2.5885"
     id="path268"
     style="stroke-width:0.992001" />
  <path
     class="Rest"
     d="m 608.8665,669.16 v -9.11406 c 0,-1.488 -1.19347,-2.58843 -2.57295,-2.58843 H 583.462 c -1.488,0 -2.573,1.10043 -2.573,2.58843 V 669.16 c 0,1.395 1.085,2.5885 2.573,2.5885 h 22.83155 c 1.37948,0 2.57295,-1.1935 2.57295,-2.5885"
     id="path270"
     style="stroke-width:0.992001" />
  <path
     class="Lyrics"
     d="m 1335.213,22.578 c 0,-3.844 -3.01,-9.938 -9.98,-9.938 -6.38,0 -11.28,5.61 -11.28,13.016 0,7.234 4.68,12.469 11.22,12.469 4.1,0 7.73,-2.11 10.04,-5.891 l -1.12,-1.016 c -2.07,1.782 -4.22,2.594 -6.75,2.594 -5.03,0 -9.61,-4 -9.35,-11.234 h 17.22 m -16.89,-1.953 c 0.49,-3.672 2.75,-5.985 5.88,-5.985 2.97,0 4.92,2.157 5.34,5.985 h -11.22"
     id="path272" />
  <path
     class="Lyrics"
     d="m 360.261,20.906 c 2.156,-3.078 3.14,-4 4.421,-4 1.797,0 2.219,2.531 4.063,2.531 1.672,0 2.203,-3.234 2.203,-3.5 0,-1.094 -1.609,-3.078 -3.984,-3.078 -2.813,0 -4.157,1.125 -6.594,5.125 h -0.109 V 12.64 h -1.344 l -7.188,2.907 v 1.25 l 4,2 v 12.625 c 0,3.078 -1.843,4.171 -4,4.171 v 1.938 h 14.047 v -1.938 c -4.765,0 -5.515,-1.14 -5.515,-5.187 v -9.5 m 16.796,10.734 c 0,2.703 -1.843,3.953 -3.89,3.953 v 1.938 h 11.765 v -1.938 c -1.937,-0.062 -3.343,-1.359 -3.343,-4.328 V 12.64 h -1.36 l -7.281,2.641 v 1.25 l 4.109,2.047 V 31.64 M 376.182,2.922 c 0,1.609 1.297,2.906 2.922,2.906 1.625,0 2.907,-1.297 2.907,-2.906 0,-1.625 -1.282,-2.922 -2.907,-2.922 -1.625,0 -2.922,1.297 -2.922,2.922"
     id="path274" />
  <path
     class="Lyrics"
     d="m 503.441,22.578 c 0,-3.844 -3.016,-9.938 -9.984,-9.938 -6.375,0 -11.282,5.61 -11.282,13.016 0,7.234 4.688,12.469 11.219,12.469 4.109,0 7.734,-2.11 10.047,-5.891 l -1.125,-1.016 c -2.063,1.782 -4.219,2.594 -6.75,2.594 -5.031,0 -9.609,-4 -9.344,-11.234 h 17.219 M 486.55,20.625 c 0.485,-3.672 2.75,-5.985 5.875,-5.985 2.969,0 4.922,2.157 5.344,5.985 H 486.55 m 20.078,25.172 c 6.86,-0.11 10.797,-3.454 10.797,-9.188 0,-4.484 -2.422,-7.875 -5.609,-7.875 -2.109,0 -3.453,1.297 -3.453,3.391 0,1.953 1.234,3.078 3.344,3.078 1.89,0 2.593,0.984 2.593,3.078 0,3.469 -2.859,4.969 -7.672,5.516 v 2"
     id="path276" />
  <path
     class="Lyrics"
     d="M 750.286,0.703 V 2.75 c 4.75,0 5.719,2.109 5.719,6 v 20.953 c 0,4.156 -1.454,5.781 -5.719,5.781 v 2.047 h 17.437 v -2.047 c -4.797,0 -6.047,-1.953 -6.047,-5.297 V 7.828 c 0,-3.672 1.891,-5.078 5.735,-5.078 V 0.703 h -17.125 m 23.172,0 V 2.75 c 2.265,0 3.297,0.812 3.297,2.218 0,2.157 -4.219,6.422 -14.641,13.61 l 0.703,0.64 c 9.172,7.735 15.875,14.688 20.406,18.313 h 9.52 v -2.156 c -2.29,-0.438 -4.18,-1.188 -7.192,-3.453 -5.453,-4.172 -12.203,-11.188 -17.234,-15.016 7.563,-5.563 10.375,-9.078 13.781,-11.609 2.157,-1.625 4,-2.266 6.645,-2.547 V 0.703 h -15.285 m 28.735,37.094 c -1.41,4.656 -2.7,6.484 -4.75,6.484 -1.94,0 -1.94,-1.734 -3.83,-1.734 -1.3,0 -2.33,0.984 -2.33,2.218 0,1.844 1.78,3.078 4.33,3.078 3.24,0 5.5,-1.828 7.06,-5.781 l 8.97,-22.781 c 1.08,-2.75 1.74,-3.672 3.78,-4.109 v -1.938 h -9.34 v 1.938 c 3.3,0.171 4.05,2.218 2.97,5.031 l -4.64,11.812 -5.56,-12.734 c -1.25,-2.813 -0.55,-4 2.64,-4.109 v -1.938 h -11.77 v 1.938 c 1.73,0 2.48,0 3.89,3.187 l 8.58,19.438"
     id="path278" />
  <path
     class="Lyrics"
     d="m 1024.443,20.906 c 2.16,-3.078 3.14,-4 4.42,-4 1.8,0 2.22,2.531 4.06,2.531 1.68,0 2.21,-3.234 2.21,-3.5 0,-1.094 -1.61,-3.078 -3.99,-3.078 -2.81,0 -4.15,1.125 -6.59,5.125 h -0.11 V 12.64 h -1.34 l -7.19,2.907 v 1.25 l 4,2 v 12.625 c 0,3.078 -1.84,4.171 -4,4.171 v 1.938 h 14.05 v -1.938 c -4.77,0 -5.52,-1.14 -5.52,-5.187 v -9.5 m 16.8,10.734 c 0,2.703 -1.85,3.953 -3.89,3.953 v 1.938 h 11.76 v -1.938 c -1.94,-0.062 -3.34,-1.359 -3.34,-4.328 V 12.64 h -1.36 l -7.28,2.641 v 1.25 l 4.11,2.047 V 31.64 m -0.88,-28.718 c 0,1.609 1.3,2.906 2.92,2.906 1.63,0 2.91,-1.297 2.91,-2.906 0,-1.625 -1.28,-2.922 -2.91,-2.922 -1.62,0 -2.92,1.297 -2.92,2.922"
     id="path280" />
  <path
     class="Lyrics"
     d="m 1005.183,340.937 c 2.15,-3.078 3.14,-4 4.42,-4 1.8,0 2.22,2.531 4.06,2.531 1.67,0 2.2,-3.234 2.2,-3.5 0,-1.094 -1.61,-3.078 -3.98,-3.078 -2.81,0 -4.16,1.125 -6.59,5.125 h -0.11 v -5.344 h -1.35 l -7.18,2.906 v 1.25 l 4,2 v 12.625 c 0,3.079 -1.85,4.172 -4,4.172 v 1.938 h 14.04 v -1.938 c -4.76,0 -5.51,-1.14 -5.51,-5.187 v -9.5 m 16.79,10.734 c 0,2.703 -1.84,3.953 -3.89,3.953 v 1.938 h 11.77 v -1.938 c -1.94,-0.062 -3.35,-1.359 -3.35,-4.328 v -18.625 h -1.35 l -7.29,2.641 v 1.25 l 4.11,2.047 v 13.062 m -0.87,-28.719 c 0,1.61 1.3,2.907 2.92,2.907 1.63,0 2.91,-1.297 2.91,-2.907 0,-1.625 -1.28,-2.921 -2.91,-2.921 -1.62,0 -2.92,1.296 -2.92,2.921"
     id="path282" />
  <path
     class="Lyrics"
     fill="#5555ff"
     d="m 1710.793,340.937 c 2.16,-3.078 3.15,-4 4.43,-4 1.79,0 2.22,2.531 4.06,2.531 1.67,0 2.2,-3.234 2.2,-3.5 0,-1.094 -1.61,-3.078 -3.98,-3.078 -2.81,0 -4.16,1.125 -6.6,5.125 h -0.11 v -5.344 h -1.34 l -7.19,2.906 v 1.25 l 4,2 v 12.625 c 0,3.079 -1.84,4.172 -4,4.172 v 1.938 h 14.05 v -1.938 c -4.77,0 -5.52,-1.14 -5.52,-5.187 v -9.5 m 16.8,10.734 c 0,2.703 -1.84,3.953 -3.89,3.953 v 1.938 h 11.77 v -1.938 c -1.94,-0.062 -3.35,-1.359 -3.35,-4.328 v -18.625 h -1.36 l -7.28,2.641 v 1.25 l 4.11,2.047 v 13.062 m -0.87,-28.719 c 0,1.61 1.29,2.907 2.92,2.907 1.62,0 2.9,-1.297 2.9,-2.907 0,-1.625 -1.28,-2.921 -2.9,-2.921 -1.63,0 -2.92,1.296 -2.92,2.921"
     id="path284" />
  <path
     class="Lyrics"
     d="m 581.561,320.734 v 2.047 c 4.75,0 5.719,2.109 5.719,6 v 20.953 c 0,4.156 -1.454,5.781 -5.719,5.781 v 2.047 h 17.437 v -2.047 c -4.797,0 -6.047,-1.953 -6.047,-5.297 v -22.359 c 0,-3.672 1.891,-5.078 5.735,-5.078 v -2.047 h -17.125 m 23.172,0 v 2.047 c 2.265,0 3.297,0.812 3.297,2.218 0,2.157 -4.219,6.422 -14.641,13.61 l 0.703,0.64 c 9.172,7.735 15.875,14.688 20.406,18.313 h 9.516 v -2.156 c -2.281,-0.438 -4.172,-1.188 -7.188,-3.454 -5.453,-4.171 -12.203,-11.187 -17.234,-15.015 7.563,-5.563 10.375,-9.078 13.781,-11.61 2.157,-1.625 4,-2.265 6.641,-2.546 v -2.047 h -15.281 m 28.734,37.093 c -1.406,4.657 -2.703,6.485 -4.75,6.485 -1.937,0 -1.937,-1.735 -3.828,-1.735 -1.297,0 -2.328,0.985 -2.328,2.219 0,1.844 1.781,3.078 4.328,3.078 3.234,0 5.5,-1.828 7.062,-5.781 l 8.969,-22.781 c 1.078,-2.75 1.735,-3.672 3.781,-4.11 v -1.937 h -9.343 v 1.937 c 3.297,0.172 4.047,2.219 2.968,5.032 l -4.64,11.812 -5.563,-12.734 c -1.25,-2.813 -0.547,-4 2.641,-4.11 v -1.937 h -11.766 v 1.937 c 1.735,0 2.485,0 3.891,3.188 l 8.578,19.437"
     id="path286" />
  <path
     class="Lyrics"
     d="m 1315.143,342.609 c 0,-3.844 -3.02,-9.938 -9.99,-9.938 -6.37,0 -11.28,5.61 -11.28,13.016 0,7.234 4.69,12.469 11.22,12.469 4.11,0 7.73,-2.11 10.05,-5.891 l -1.13,-1.016 c -2.06,1.782 -4.22,2.594 -6.75,2.594 -5.03,0 -9.61,-4 -9.34,-11.234 h 17.22 m -16.89,-1.953 c 0.48,-3.672 2.75,-5.985 5.87,-5.985 2.97,0 4.92,2.156 5.34,5.985 h -11.21 m 20.07,25.171 c 6.86,-0.109 10.8,-3.453 10.8,-9.187 0,-4.484 -2.42,-7.875 -5.61,-7.875 -2.11,0 -3.45,1.297 -3.45,3.391 0,1.953 1.23,3.078 3.34,3.078 1.89,0 2.6,0.984 2.6,3.078 0,3.469 -2.86,4.969 -7.68,5.515 v 2"
     id="path288" />
  <path
     class="Lyrics"
     d="m 1412.703,320.734 v 2.047 c 4.75,0 5.72,2.109 5.72,6 v 20.953 c 0,4.156 -1.45,5.781 -5.72,5.781 v 2.047 h 17.44 v -2.047 c -4.8,0 -6.05,-1.953 -6.05,-5.297 v -22.359 c 0,-3.672 1.89,-5.078 5.74,-5.078 v -2.047 h -17.13 m 23.17,0 v 2.047 c 2.27,0 3.3,0.812 3.3,2.218 0,2.157 -4.22,6.422 -14.64,13.61 l 0.7,0.64 c 9.18,7.735 15.88,14.688 20.41,18.313 h 9.52 v -2.156 c -2.29,-0.438 -4.18,-1.188 -7.19,-3.454 -5.46,-4.171 -12.21,-11.187 -17.24,-15.015 7.57,-5.563 10.38,-9.078 13.78,-11.61 2.16,-1.625 4,-2.265 6.65,-2.546 v -2.047 h -15.29 m 28.74,37.093 c -1.41,4.657 -2.7,6.485 -4.75,6.485 -1.94,0 -1.94,-1.735 -3.83,-1.735 -1.3,0 -2.33,0.985 -2.33,2.219 0,1.844 1.78,3.078 4.33,3.078 3.23,0 5.5,-1.828 7.06,-5.781 l 8.97,-22.781 c 1.08,-2.75 1.74,-3.672 3.78,-4.11 v -1.937 h -9.34 v 1.937 c 3.3,0.172 4.05,2.219 2.97,5.032 l -4.64,11.812 -5.57,-12.734 c -1.25,-2.813 -0.54,-4 2.65,-4.11 v -1.937 h -11.77 v 1.937 c 1.73,0 2.48,0 3.89,3.188 l 8.58,19.437"
     id="path290" />
  <path
     class="Lyrics"
     d="m 235.384,342.609 c 0,-3.844 -3.015,-9.938 -9.984,-9.938 -6.375,0 -11.281,5.61 -11.281,13.016 0,7.234 4.687,12.469 11.218,12.469 4.11,0 7.735,-2.11 10.047,-5.891 l -1.125,-1.016 c -2.062,1.782 -4.218,2.594 -6.75,2.594 -5.031,0 -9.609,-4 -9.343,-11.234 h 17.218 m -16.89,-1.953 c 0.484,-3.672 2.75,-5.985 5.875,-5.985 2.968,0 4.922,2.156 5.343,5.985 h -11.218 m 20.078,25.171 c 6.859,-0.109 10.797,-3.453 10.797,-9.187 0,-4.484 -2.422,-7.875 -5.61,-7.875 -2.109,0 -3.453,1.297 -3.453,3.391 0,1.953 1.235,3.078 3.344,3.078 1.891,0 2.594,0.984 2.594,3.078 0,3.469 -2.86,4.969 -7.672,5.515 v 2"
     id="path292" />
  <path
     class="Lyrics"
     d="m 1029.303,428.537 c 2.16,-3.078 3.14,-4 4.42,-4 1.8,0 2.22,2.531 4.07,2.531 1.67,0 2.2,-3.234 2.2,-3.5 0,-1.094 -1.61,-3.078 -3.98,-3.078 -2.82,0 -4.16,1.125 -6.6,5.125 h -0.11 v -5.344 h -1.34 l -7.19,2.907 v 1.25 l 4,2 v 12.625 c 0,3.078 -1.84,4.171 -4,4.171 v 1.938 h 14.05 v -1.938 c -4.77,0 -5.52,-1.14 -5.52,-5.187 v -9.5 m 16.8,10.734 c 0,2.703 -1.84,3.953 -3.89,3.953 v 1.938 h 11.76 v -1.938 c -1.93,-0.062 -3.34,-1.359 -3.34,-4.328 v -18.625 h -1.36 l -7.28,2.641 v 1.25 l 4.11,2.047 v 13.062 m -0.88,-28.718 c 0,1.609 1.3,2.906 2.93,2.906 1.62,0 2.9,-1.297 2.9,-2.906 0,-1.625 -1.28,-2.922 -2.9,-2.922 -1.63,0 -2.93,1.297 -2.93,2.922"
     id="path294" />
  <path
     class="Lyrics"
     d="m 1457.933,430.209 c 0,-3.844 -3.01,-9.938 -9.98,-9.938 -6.38,0 -11.28,5.61 -11.28,13.016 0,7.234 4.68,12.469 11.21,12.469 4.11,0 7.74,-2.11 10.05,-5.891 l -1.12,-1.016 c -2.07,1.782 -4.22,2.594 -6.75,2.594 -5.03,0 -9.61,-4 -9.35,-11.234 h 17.22 m -16.89,-1.953 c 0.49,-3.672 2.75,-5.985 5.88,-5.985 2.96,0 4.92,2.157 5.34,5.985 h -11.22"
     id="path296" />
  <path
     class="Lyrics"
     d="m 474.099,422.584 c -2,-1.563 -4.437,-2.313 -7.296,-2.313 -4.641,0 -7.875,2.75 -7.875,6.688 0,1.578 0.593,3.406 1.671,4.484 4.422,4.438 11.547,4.328 11.547,8.485 0,2.203 -2.047,3.828 -4.906,3.828 -3.234,0 -5.234,-2.313 -5.781,-6.532 h -1.781 v 6.797 c 2.046,1.032 5.234,1.735 7.937,1.735 5.078,0 8.266,-2.703 8.266,-7.125 0,-1.782 -0.594,-3.516 -1.735,-4.641 -3.078,-3.078 -11.281,-4.062 -11.281,-8.109 0,-2.313 1.516,-3.61 4.047,-3.61 2.969,0 4.703,1.891 5.516,6.157 h 1.671 v -5.844 m 5.938,10.265 c 0,7.016 5.656,12.907 12.469,12.907 6.906,0 12.156,-5.61 12.156,-12.953 0,-7.344 -5.188,-12.532 -12.594,-12.532 -6.687,0 -12.031,5.563 -12.031,12.578 m 5.125,-2.046 c 0,-6.266 2.641,-8.532 6.687,-8.532 6.11,0 7.954,9.172 7.954,13.813 0,4.703 -2.594,7.672 -6.813,7.672 -5.562,0 -7.828,-8.157 -7.828,-12.953 m 31,-3.735 c 2.312,-1.937 4.594,-3.187 7.078,-3.187 3.5,0 5.063,2.547 5.063,5.937 v 8.969 c 0,2.922 -1.235,4.437 -4.375,4.437 v 1.938 h 12.75 v -1.938 c -3.079,-0.328 -3.829,-1.625 -3.829,-4.328 v -10.265 c 0,-5.828 -2.921,-8.36 -7.937,-8.36 -2.969,0 -6.438,1.672 -8.641,4.594 h -0.109 v -4.594 h -1.359 l -6.797,2.532 v 1.25 l 3.625,2.046 v 13.016 c 0,2.703 -1.297,4 -4,4.109 v 1.938 h 12.906 v -1.938 c -3.188,0 -4.375,-1.468 -4.375,-4.437 v -11.719 m 29.375,12.047 c -1.828,0 -3.297,1.453 -3.297,3.297 0,1.828 1.469,3.344 3.297,3.344 1.844,0 3.344,-1.516 3.344,-3.344 0,-1.844 -1.5,-3.297 -3.344,-3.297"
     id="path298" />
  <path
     class="Lyrics"
     d="m 1339.443,430.209 c 0,-3.844 -3.01,-9.938 -9.98,-9.938 -6.38,0 -11.28,5.61 -11.28,13.016 0,7.234 4.69,12.469 11.22,12.469 4.11,0 7.73,-2.11 10.04,-5.891 l -1.12,-1.016 c -2.06,1.782 -4.22,2.594 -6.75,2.594 -5.03,0 -9.61,-4 -9.35,-11.234 h 17.22 m -16.89,-1.953 c 0.49,-3.672 2.75,-5.985 5.88,-5.985 2.97,0 4.92,2.157 5.34,5.985 h -11.22 m 20.08,25.172 c 6.86,-0.11 10.8,-3.454 10.8,-9.188 0,-4.484 -2.42,-7.875 -5.61,-7.875 -2.11,0 -3.45,1.297 -3.45,3.391 0,1.953 1.23,3.078 3.34,3.078 1.89,0 2.59,0.984 2.59,3.078 0,3.469 -2.86,4.969 -7.67,5.516 v 2"
     id="path300" />
  <path
     class="Lyrics"
     d="m 1927.493,422.584 c -2,-1.563 -4.44,-2.313 -7.3,-2.313 -4.64,0 -7.87,2.75 -7.87,6.688 0,1.578 0.59,3.406 1.67,4.484 4.42,4.438 11.55,4.328 11.55,8.485 0,2.203 -2.05,3.828 -4.91,3.828 -3.24,0 -5.24,-2.313 -5.78,-6.532 h -1.78 v 6.797 c 2.04,1.032 5.23,1.735 7.93,1.735 5.08,0 8.27,-2.703 8.27,-7.125 0,-1.782 -0.59,-3.516 -1.73,-4.641 -3.08,-3.078 -11.29,-4.062 -11.29,-8.109 0,-2.313 1.52,-3.61 4.05,-3.61 2.97,0 4.7,1.891 5.52,6.157 h 1.67 v -5.844 m 5.94,10.265 c 0,7.016 5.65,12.907 12.46,12.907 6.91,0 12.16,-5.61 12.16,-12.953 0,-7.344 -5.19,-12.532 -12.59,-12.532 -6.69,0 -12.03,5.563 -12.03,12.578 m 5.12,-2.046 c 0,-6.266 2.64,-8.532 6.69,-8.532 6.11,0 7.95,9.172 7.95,13.813 0,4.703 -2.59,7.672 -6.81,7.672 -5.56,0 -7.83,-8.157 -7.83,-12.953 m 31,-3.735 c 2.31,-1.937 4.59,-3.187 7.08,-3.187 3.5,0 5.06,2.547 5.06,5.937 v 8.969 c 0,2.922 -1.23,4.437 -4.37,4.437 v 1.938 h 12.75 v -1.938 c -3.08,-0.328 -3.83,-1.625 -3.83,-4.328 v -10.265 c 0,-5.828 -2.92,-8.36 -7.94,-8.36 -2.97,0 -6.44,1.672 -8.64,4.594 h -0.11 v -4.594 h -1.36 l -6.8,2.532 v 1.25 l 3.63,2.046 v 13.016 c 0,2.703 -1.3,4 -4,4.109 v 1.938 h 12.91 v -1.938 c -3.19,0 -4.38,-1.468 -4.38,-4.437 v -11.719"
     id="path302" />
  <path
     class="Lyrics"
     fill="#5555ff"
     d="m 1724.983,407.631 h -1.36 l -6.9,2.484 v 1.25 l 3.72,2.047 v 25.703 c 0,2.328 -1.02,3.938 -3.72,4.109 v 1.938 h 11.61 v -1.938 c -2.44,-0.171 -3.35,-1.781 -3.35,-4.484 v -31.109 m 28.81,22.578 c 0,-3.844 -3.01,-9.938 -9.98,-9.938 -6.37,0 -11.28,5.61 -11.28,13.016 0,7.234 4.69,12.469 11.22,12.469 4.11,0 7.73,-2.11 10.04,-5.891 l -1.12,-1.016 c -2.06,1.782 -4.22,2.594 -6.75,2.594 -5.03,0 -9.61,-4 -9.34,-11.234 h 17.21 m -16.89,-1.953 c 0.49,-3.672 2.75,-5.985 5.88,-5.985 2.97,0 4.92,2.157 5.34,5.985 h -11.22 m 23.82,11.015 c 0,2.703 -1.85,3.953 -3.89,3.953 v 1.938 h 11.76 v -1.938 c -1.94,-0.062 -3.34,-1.359 -3.34,-4.328 v -18.625 h -1.36 l -7.28,2.641 v 1.25 l 4.11,2.047 v 13.062 m -0.88,-28.718 c 0,1.609 1.3,2.906 2.92,2.906 1.63,0 2.91,-1.297 2.91,-2.906 0,-1.625 -1.28,-2.922 -2.91,-2.922 -1.62,0 -2.92,1.297 -2.92,2.922"
     id="path304" />
  <path
     class="Lyrics"
     d="m 755.147,408.334 v 2.047 c 4.75,0 5.719,2.109 5.719,6 v 20.953 c 0,4.156 -1.453,5.781 -5.719,5.781 v 2.047 h 17.438 v -2.047 c -4.797,0 -6.047,-1.953 -6.047,-5.297 v -22.359 c 0,-3.672 1.891,-5.078 5.734,-5.078 v -2.047 h -17.125 m 23.172,0 v 2.047 c 2.266,0 3.297,0.812 3.297,2.218 0,2.157 -4.219,6.422 -14.641,13.61 l 0.704,0.64 c 9.171,7.735 15.875,14.688 20.404,18.313 h 9.52 v -2.156 c -2.28,-0.438 -4.17,-1.188 -7.19,-3.453 -5.453,-4.172 -12.203,-11.188 -17.234,-15.016 7.562,-5.563 10.375,-9.078 13.781,-11.609 2.153,-1.625 4.003,-2.266 6.643,-2.547 v -2.047 h -15.284 m 28.734,37.094 c -1.41,4.656 -2.7,6.484 -4.75,6.484 -1.94,0 -1.94,-1.734 -3.83,-1.734 -1.29,0 -2.33,0.984 -2.33,2.218 0,1.844 1.79,3.078 4.33,3.078 3.24,0 5.5,-1.828 7.06,-5.781 l 8.97,-22.781 c 1.08,-2.75 1.74,-3.672 3.78,-4.109 v -1.938 h -9.34 v 1.938 c 3.3,0.171 4.05,2.218 2.97,5.031 l -4.64,11.812 -5.56,-12.734 c -1.25,-2.813 -0.55,-4 2.64,-4.109 v -1.938 h -11.77 v 1.938 c 1.74,0 2.49,0 3.89,3.187 l 8.58,19.438"
     id="path306" />
  <path
     class="Lyrics"
     d="m 449.792,788.373 c -2,-1.57 -4.438,-2.32 -7.297,-2.32 -4.641,0 -7.875,2.75 -7.875,6.69 0,1.58 0.594,3.41 1.672,4.48 4.422,4.44 11.547,4.33 11.547,8.49 0,2.2 -2.047,3.83 -4.907,3.83 -3.234,0 -5.234,-2.32 -5.781,-6.53 h -1.781 v 6.79 c 2.047,1.03 5.234,1.74 7.937,1.74 5.079,0 8.266,-2.71 8.266,-7.13 0,-1.78 -0.594,-3.51 -1.734,-4.64 -3.078,-3.08 -11.282,-4.06 -11.282,-8.11 0,-2.31 1.516,-3.61 4.047,-3.61 2.969,0 4.703,1.89 5.516,6.16 h 1.672 v -5.84 m 5.937,10.26 c 0,7.02 5.657,12.91 12.469,12.91 6.906,0 12.156,-5.61 12.156,-12.96 0,-7.34 -5.187,-12.53 -12.593,-12.53 -6.688,0 -12.032,5.57 -12.032,12.58 m 5.125,-2.05 c 0,-6.26 2.641,-8.53 6.688,-8.53 6.109,0 7.953,9.17 7.953,13.82 0,4.7 -2.594,7.67 -6.813,7.67 -5.562,0 -7.828,-8.16 -7.828,-12.96 m 31,-3.73 c 2.313,-1.94 4.594,-3.19 7.078,-3.19 3.5,0 5.063,2.55 5.063,5.94 v 8.97 c 0,2.92 -1.234,4.44 -4.375,4.44 v 1.93 h 12.75 v -1.93 c -3.078,-0.33 -3.828,-1.63 -3.828,-4.33 v -10.27 c 0,-5.83 -2.922,-8.36 -7.938,-8.36 -2.968,0 -6.437,1.67 -8.64,4.6 h -0.11 v -4.6 h -1.359 l -6.797,2.53 v 1.25 l 3.625,2.05 v 13.02 c 0,2.7 -1.297,4 -4,4.11 v 1.93 h 12.906 v -1.93 c -3.187,0 -4.375,-1.47 -4.375,-4.44 v -11.72 m 29.375,12.05 c -1.828,0 -3.297,1.45 -3.297,3.29 0,1.83 1.469,3.35 3.297,3.35 1.844,0 3.344,-1.52 3.344,-3.35 0,-1.84 -1.5,-3.29 -3.344,-3.29"
     id="path308" />
  <polyline
     class="LyricsLineSegment"
     fill="none"
     stroke="#000000"
     stroke-width="2.48"
     stroke-linejoin="bevel"
     points="1383.85,300.39 1403.69,300.39"
     id="polyline310"
     transform="translate(-212.597,-277.437)" />
  <polyline
     class="LyricsLineSegment"
     fill="none"
     stroke="#000000"
     stroke-width="3.97"
     stroke-linejoin="bevel"
     points="1550.7,312.984 2162.16,312.984"
     id="polyline312"
     transform="translate(-212.597,-277.437)" />
  <polyline
     class="LyricsLineSegment"
     fill="none"
     stroke="#000000"
     stroke-width="2.48"
     stroke-linejoin="bevel"
     points="635.872,300.39 655.712,300.39"
     id="polyline314"
     transform="translate(-212.597,-277.437)" />
  <polyline
     class="LyricsLineSegment"
     fill="none"
     stroke="#000000"
     stroke-width="2.48"
     stroke-linejoin="bevel"
     points="1119.35,300.39 1139.19,300.39"
     id="polyline316"
     transform="translate(-212.597,-277.437)" />
  <polyline
     class="LyricsLineSegment"
     fill="none"
     stroke="#000000"
     stroke-width="2.48"
     stroke-linejoin="bevel"
     points="1793.73,620.421 1813.57,620.421"
     id="polyline318"
     transform="translate(-212.597,-277.437)" />
  <polyline
     class="LyricsLineSegment"
     fill="none"
     stroke="#000000"
     stroke-width="2.48"
     stroke-linejoin="bevel"
     points="1364.18,620.421 1384.02,620.421"
     id="polyline320"
     transform="translate(-212.597,-277.437)" />
  <polyline
     class="LyricsLineSegment"
     fill="none"
     stroke="#000000"
     stroke-width="2.48"
     stroke-linejoin="bevel"
     points="1025.35,620.421 1045.19,620.421"
     id="polyline322"
     transform="translate(-212.597,-277.437)" />
  <polyline
     class="LyricsLineSegment"
     fill="none"
     stroke="#000000"
     stroke-width="2.48"
     stroke-linejoin="bevel"
     points="1124.21,708.021 1144.05,708.021"
     id="polyline324"
     transform="translate(-212.597,-277.437)" />
  <polyline
     class="LyricsLineSegment"
     fill="none"
     stroke="#000000"
     stroke-width="2.48"
     stroke-linejoin="bevel"
     points="1388.4,708.021 1408.24,708.021"
     id="polyline326"
     transform="translate(-212.597,-277.437)" />
  <polyline
     class="LyricsLineSegment"
     fill="none"
     stroke="#5555ff"
     stroke-width="2.48"
     stroke-linejoin="bevel"
     points="2043.33,708.021 2063.17,708.021"
     id="polyline328"
     transform="translate(-212.597,-277.437)" />
  <polyline
     class="LyricsLineSegment"
     fill="none"
     stroke="#000000"
     stroke-width="2.48"
     stroke-linejoin="bevel"
     points="1789.95,708.021 1809.79,708.021"
     id="polyline330"
     transform="translate(-212.597,-277.437)" />
</svg>
