<?xml version="1.0" encoding="UTF-8" standalone="no"?>
<svg
   width="2971.4031"
   height="818.841"
   viewBox="0 0 2971.4031 818.84102"
   version="1.2"
   id="svg384"
   sodipodi:docname="Stiluebung-1a-1.svg"
   inkscape:version="1.2.1 (9c6d41e410, 2022-07-14)"
   xmlns:inkscape="http://www.inkscape.org/namespaces/inkscape"
   xmlns:sodipodi="http://sodipodi.sourceforge.net/DTD/sodipodi-0.dtd"
   xmlns="http://www.w3.org/2000/svg"
   xmlns:svg="http://www.w3.org/2000/svg"
   xmlns:rdf="http://www.w3.org/1999/02/22-rdf-syntax-ns#"
   xmlns:cc="http://creativecommons.org/ns#"
   xmlns:dc="http://purl.org/dc/elements/1.1/">
  <defs
     id="defs388" />
  <sodipodi:namedview
     id="namedview386"
     pagecolor="#505050"
     bordercolor="#eeeeee"
     borderopacity="1"
     inkscape:showpageshadow="0"
     inkscape:pageopacity="0"
     inkscape:pagecheckerboard="0"
     inkscape:deskcolor="#505050"
     showgrid="false"
     inkscape:zoom="0.63445377"
     inkscape:cx="494.12584"
     inkscape:cy="609.97352"
     inkscape:window-width="3840"
     inkscape:window-height="2066"
     inkscape:window-x="-11"
     inkscape:window-y="-11"
     inkscape:window-maximized="1"
     inkscape:current-layer="svg384" />
  <title
     id="title2">Stiluebung-1a</title>
  <desc
     id="desc4">Generated by MuseScore 4.0.1</desc>
  <polyline
     class="StaffLines"
     fill="none"
     stroke="#000000"
     stroke-width="3.22"
     stroke-linejoin="bevel"
     points="42.5196,386.199 2977.2,386.199"
     id="polyline8"
     transform="translate(-5.8019875,-293.619)" />
  <polyline
     class="StaffLines"
     fill="none"
     stroke="#000000"
     stroke-width="3.22"
     stroke-linejoin="bevel"
     points="42.5196,410.999 2977.2,410.999"
     id="polyline10"
     transform="translate(-5.8019875,-293.619)" />
  <polyline
     class="StaffLines"
     fill="none"
     stroke="#000000"
     stroke-width="3.22"
     stroke-linejoin="bevel"
     points="42.5196,435.799 2977.2,435.799"
     id="polyline12"
     transform="translate(-5.8019875,-293.619)" />
  <polyline
     class="StaffLines"
     fill="none"
     stroke="#000000"
     stroke-width="3.22"
     stroke-linejoin="bevel"
     points="42.5196,460.599 2977.2,460.599"
     id="polyline14"
     transform="translate(-5.8019875,-293.619)" />
  <polyline
     class="StaffLines"
     fill="none"
     stroke="#000000"
     stroke-width="3.22"
     stroke-linejoin="bevel"
     points="42.5196,485.399 2977.2,485.399"
     id="polyline16"
     transform="translate(-5.8019875,-293.619)" />
  <polyline
     class="StaffLines"
     fill="none"
     stroke="#000000"
     stroke-width="3.22"
     stroke-linejoin="bevel"
     points="42.5196,887.799 2977.2,887.799"
     id="polyline18"
     transform="translate(-5.8019875,-293.619)" />
  <polyline
     class="StaffLines"
     fill="none"
     stroke="#000000"
     stroke-width="3.22"
     stroke-linejoin="bevel"
     points="42.5196,912.599 2977.2,912.599"
     id="polyline20"
     transform="translate(-5.8019875,-293.619)" />
  <polyline
     class="StaffLines"
     fill="none"
     stroke="#000000"
     stroke-width="3.22"
     stroke-linejoin="bevel"
     points="42.5196,937.399 2977.2,937.399"
     id="polyline22"
     transform="translate(-5.8019875,-293.619)" />
  <polyline
     class="StaffLines"
     fill="none"
     stroke="#000000"
     stroke-width="3.22"
     stroke-linejoin="bevel"
     points="42.5196,962.199 2977.2,962.199"
     id="polyline24"
     transform="translate(-5.8019875,-293.619)" />
  <polyline
     class="StaffLines"
     fill="none"
     stroke="#000000"
     stroke-width="3.22"
     stroke-linejoin="bevel"
     points="42.5196,986.999 2977.2,986.999"
     id="polyline26"
     transform="translate(-5.8019875,-293.619)" />
  <path
     class="TieSegment"
     stroke="#000000"
     stroke-width="2.48"
     stroke-linecap="round"
     stroke-linejoin="round"
     fill-rule="evenodd"
     d="m 1040.898,148.504 c 49.27,-35.216 197.08,-35.216 246.35,0 -49.27,-29.264 -197.08,-29.264 -246.35,0"
     id="path28" />
  <polyline
     class="BarLine"
     stroke="#000000"
     stroke-width="3.97"
     stroke-linejoin="bevel"
     points="44.5036,384.587 44.5036,887.799"
     id="polyline30"
     transform="translate(-5.8019875,-293.619)" />
  <polyline
     class="BarLine"
     stroke="#000000"
     stroke-width="3.97"
     stroke-linejoin="bevel"
     points="1550.47,384.587 1550.47,887.799"
     id="polyline32"
     transform="translate(-5.8019875,-293.619)" />
  <polyline
     class="BarLine"
     stroke="#000000"
     stroke-width="3.97"
     stroke-linejoin="bevel"
     points="2975.22,384.587 2975.22,887.799"
     id="polyline34"
     transform="translate(-5.8019875,-293.619)" />
  <polyline
     class="BarLine"
     stroke="#000000"
     stroke-width="3.97"
     stroke-linejoin="bevel"
     points="989.706,384.587 989.706,887.799"
     id="polyline36"
     transform="translate(-5.8019875,-293.619)" />
  <polyline
     class="BarLine"
     stroke="#000000"
     stroke-width="3.97"
     stroke-linejoin="bevel"
     points="2039.65,384.587 2039.65,887.799"
     id="polyline38"
     transform="translate(-5.8019875,-293.619)" />
  <polyline
     class="BarLine"
     stroke="#000000"
     stroke-width="3.97"
     stroke-linejoin="bevel"
     points="601.646,384.587 601.646,887.799"
     id="polyline40"
     transform="translate(-5.8019875,-293.619)" />
  <polyline
     class="BarLine"
     stroke="#000000"
     stroke-width="3.97"
     stroke-linejoin="bevel"
     points="2528.84,384.587 2528.84,887.799"
     id="polyline42"
     transform="translate(-5.8019875,-293.619)" />
  <polyline
     class="BarLine"
     stroke="#000000"
     stroke-width="3.97"
     stroke-linejoin="bevel"
     points="44.5036,886.187 44.5036,988.611"
     id="polyline44"
     transform="translate(-5.8019875,-293.619)" />
  <polyline
     class="BarLine"
     stroke="#000000"
     stroke-width="3.97"
     stroke-linejoin="bevel"
     points="989.706,886.187 989.706,988.611"
     id="polyline46"
     transform="translate(-5.8019875,-293.619)" />
  <polyline
     class="BarLine"
     stroke="#000000"
     stroke-width="3.97"
     stroke-linejoin="bevel"
     points="2975.22,886.187 2975.22,988.611"
     id="polyline48"
     transform="translate(-5.8019875,-293.619)" />
  <polyline
     class="BarLine"
     stroke="#000000"
     stroke-width="3.97"
     stroke-linejoin="bevel"
     points="2039.65,886.187 2039.65,988.611"
     id="polyline50"
     transform="translate(-5.8019875,-293.619)" />
  <polyline
     class="BarLine"
     stroke="#000000"
     stroke-width="3.97"
     stroke-linejoin="bevel"
     points="601.646,886.187 601.646,988.611"
     id="polyline54"
     transform="translate(-5.8019875,-293.619)" />
  <polyline
     class="BarLine"
     stroke="#000000"
     stroke-width="3.97"
     stroke-linejoin="bevel"
     points="1550.47,886.187 1550.47,988.611"
     id="polyline56"
     transform="translate(-5.8019875,-293.619)" />
  <polyline
     class="LedgerLine"
     stroke="#000000"
     stroke-width="3.97"
     stroke-linejoin="bevel"
     points="1797.48,510.199 1849.96,510.199"
     id="polyline58"
     transform="translate(-5.8019875,-293.619)" />
  <polyline
     class="LedgerLine"
     stroke="#000000"
     stroke-width="3.97"
     stroke-linejoin="bevel"
     points="1912.62,510.199 1965.09,510.199"
     id="polyline60"
     transform="translate(-5.8019875,-293.619)" />
  <polyline
     class="LedgerLine"
     stroke="#000000"
     stroke-width="3.97"
     stroke-linejoin="bevel"
     points="2063.96,510.199 2116.43,510.199"
     id="polyline64"
     transform="translate(-5.8019875,-293.619)" />
  <polyline
     class="LedgerLine"
     stroke="#000000"
     stroke-width="3.97"
     stroke-linejoin="bevel"
     points="1797.48,534.999 1849.96,534.999"
     id="polyline66"
     transform="translate(-5.8019875,-293.619)" />
  <polyline
     class="LedgerLine"
     stroke="#000000"
     stroke-width="3.97"
     stroke-linejoin="bevel"
     points="1720.72,510.199 1773.2,510.199"
     id="polyline68"
     transform="translate(-5.8019875,-293.619)" />
  <polyline
     class="LedgerLine"
     stroke="#000000"
     stroke-width="3.97"
     stroke-linejoin="bevel"
     points="798.652,862.999 864.023,862.999"
     id="polyline70"
     transform="translate(-5.8019875,-293.619)" />
  <polyline
     class="LedgerLine"
     stroke="#000000"
     stroke-width="3.97"
     stroke-linejoin="bevel"
     points="1269.92,862.999 1322.39,862.999"
     id="polyline78"
     transform="translate(-5.8019875,-293.619)" />
  <polyline
     class="LedgerLine"
     stroke="#000000"
     stroke-width="3.97"
     stroke-linejoin="bevel"
     points="625.95,862.999 691.321,862.999"
     id="polyline80"
     transform="translate(-5.8019875,-293.619)" />
  <polyline
     class="LedgerLine"
     stroke="#000000"
     stroke-width="3.97"
     stroke-linejoin="bevel"
     points="410.592,862.999 475.963,862.999"
     id="polyline82"
     transform="translate(-5.8019875,-293.619)" />
  <polyline
     class="LedgerLine"
     stroke="#000000"
     stroke-width="3.97"
     stroke-linejoin="bevel"
     points="1020.46,862.999 1072.93,862.999"
     id="polyline84"
     transform="translate(-5.8019875,-293.619)" />
  <polyline
     class="Stem"
     stroke="#000000"
     stroke-width="2.98"
     stroke-linejoin="bevel"
     points="1426.12,468.832 1426.12,386.199"
     id="polyline86"
     transform="translate(-5.8019875,-293.619)" />
  <polyline
     class="Stem"
     stroke="#000000"
     stroke-width="2.98"
     stroke-linejoin="bevel"
     points="1310.98,456.432 1310.98,373.799"
     id="polyline92"
     transform="translate(-5.8019875,-293.619)" />
  <polyline
     class="Stem"
     stroke="#000000"
     stroke-width="2.98"
     stroke-linejoin="bevel"
     points="1502.87,481.232 1502.87,398.599"
     id="polyline94"
     transform="translate(-5.8019875,-293.619)" />
  <polyline
     class="Stem"
     stroke="#000000"
     stroke-width="2.98"
     stroke-linejoin="bevel"
     points="1615.84,493.632 1615.84,410.999"
     id="polyline98"
     transform="translate(-5.8019875,-293.619)" />
  <polyline
     class="Stem"
     stroke="#000000"
     stroke-width="2.98"
     stroke-linejoin="bevel"
     points="1396.46,501.965 1396.46,559.799"
     id="polyline102"
     transform="translate(-5.8019875,-293.619)" />
  <polyline
     class="Stem"
     stroke="#000000"
     stroke-width="2.98"
     stroke-linejoin="bevel"
     points="1586.18,501.965 1586.18,559.799"
     id="polyline104"
     transform="translate(-5.8019875,-293.619)" />
  <polyline
     class="Stem"
     stroke="#000000"
     stroke-width="2.98"
     stroke-linejoin="bevel"
     points="1031.87,489.565 1031.87,547.399"
     id="polyline106"
     transform="translate(-5.8019875,-293.619)" />
  <polyline
     class="Stem"
     stroke="#000000"
     stroke-width="2.98"
     stroke-linejoin="bevel"
     points="1732.13,514.365 1732.13,572.199"
     id="polyline108"
     transform="translate(-5.8019875,-293.619)" />
  <polyline
     class="Stem"
     stroke="#000000"
     stroke-width="2.98"
     stroke-linejoin="bevel"
     points="1147,501.965 1147,559.799"
     id="polyline110"
     transform="translate(-5.8019875,-293.619)" />
  <polyline
     class="Stem"
     stroke="#000000"
     stroke-width="2.98"
     stroke-linejoin="bevel"
     points="1808.89,539.165 1808.89,596.999"
     id="polyline112"
     transform="translate(-5.8019875,-293.619)" />
  <polyline
     class="Stem"
     stroke="#000000"
     stroke-width="2.98"
     stroke-linejoin="bevel"
     points="1281.32,489.565 1281.32,547.399"
     id="polyline114"
     transform="translate(-5.8019875,-293.619)" />
  <polyline
     class="Stem"
     stroke="#000000"
     stroke-width="2.98"
     stroke-linejoin="bevel"
     points="1924.02,526.765 1924.02,584.599"
     id="polyline116"
     transform="translate(-5.8019875,-293.619)" />
  <polyline
     class="Stem"
     stroke="#000000"
     stroke-width="2.98"
     stroke-linejoin="bevel"
     points="2075.37,514.365 2075.37,572.199"
     id="polyline118"
     transform="translate(-5.8019875,-293.619)" />
  <polyline
     class="Stem"
     stroke="#000000"
     stroke-width="2.98"
     stroke-linejoin="bevel"
     points="1615.84,883.633 1615.84,825.799"
     id="polyline120"
     transform="translate(-5.8019875,-293.619)" />
  <polyline
     class="Stem"
     stroke="#000000"
     stroke-width="2.98"
     stroke-linejoin="bevel"
     points="1310.98,858.833 1310.98,800.999"
     id="polyline122"
     transform="translate(-5.8019875,-293.619)" />
  <polyline
     class="Stem"
     stroke="#000000"
     stroke-width="2.98"
     stroke-linejoin="bevel"
     points="1426.12,883.633 1426.12,825.799"
     id="polyline126"
     transform="translate(-5.8019875,-293.619)" />
  <polyline
     class="Stem"
     stroke="#000000"
     stroke-width="2.98"
     stroke-linejoin="bevel"
     points="1234.23,871.233 1234.23,813.399"
     id="polyline130"
     transform="translate(-5.8019875,-293.619)" />
  <polyline
     class="Stem"
     stroke="#000000"
     stroke-width="2.98"
     stroke-linejoin="bevel"
     points="1061.52,858.833 1061.52,800.999"
     id="polyline132"
     transform="translate(-5.8019875,-293.619)" />
  <polyline
     class="Stem"
     stroke="#000000"
     stroke-width="2.98"
     stroke-linejoin="bevel"
     points="1281.32,953.966 1281.32,1018"
     id="polyline142"
     transform="translate(-5.8019875,-293.619)" />
  <polyline
     class="Stem"
     stroke="#000000"
     stroke-width="2.98"
     stroke-linejoin="bevel"
     points="1586.18,916.766 1586.18,999.399"
     id="polyline144"
     transform="translate(-5.8019875,-293.619)" />
  <polyline
     class="Stem"
     stroke="#000000"
     stroke-width="2.98"
     stroke-linejoin="bevel"
     points="1732.13,929.166 1732.13,1005.6"
     id="polyline146"
     transform="translate(-5.8019875,-293.619)" />
  <polyline
     class="Stem"
     stroke="#000000"
     stroke-width="2.98"
     stroke-linejoin="bevel"
     points="1473.22,929.166 1473.22,1005.6"
     id="polyline148"
     transform="translate(-5.8019875,-293.619)" />
  <polyline
     class="Stem"
     stroke="#000000"
     stroke-width="2.98"
     stroke-linejoin="bevel"
     points="1031.87,953.966 1031.87,1018"
     id="polyline150"
     transform="translate(-5.8019875,-293.619)" />
  <polyline
     class="Stem"
     stroke="#000000"
     stroke-width="2.98"
     stroke-linejoin="bevel"
     points="2075.37,953.966 2075.37,1018"
     id="polyline152"
     transform="translate(-5.8019875,-293.619)" />
  <polyline
     class="Stem"
     stroke="#000000"
     stroke-width="2.98"
     stroke-linejoin="bevel"
     points="1147,904.366 1147,986.999"
     id="polyline154"
     transform="translate(-5.8019875,-293.619)" />
  <polyline
     class="Stem"
     stroke="#000000"
     stroke-width="2.98"
     stroke-linejoin="bevel"
     points="1396.46,941.566 1396.46,1011.8"
     id="polyline156"
     transform="translate(-5.8019875,-293.619)" />
  <path
     class="Note"
     fill="#00aa00"
     d="m 235.66802,208.05507 v -32.05414 c 0,-0.38747 -0.403,-0.79042 -0.99201,-0.79042 h -1.395 c -0.589,0 -0.992,0.40295 -0.992,0.79042 v 32.05414 c 0,0.38747 0.403,0.682 0.992,0.682 h 1.395 c 0.58901,0 0.99201,-0.29453 0.99201,-0.682 m 6.24651,0 v -32.05414 c 0,-0.38747 -0.496,-0.79042 -0.992,-0.79042 h -1.39501 c -0.589,0 -0.992,0.40295 -0.992,0.79042 v 32.05414 c 0,0.38747 0.403,0.682 0.992,0.682 h 1.39501 c 0.496,0 0.992,-0.29453 0.992,-0.682 m 49.10402,0 v -32.05414 c 0,-0.38747 -0.496,-0.79042 -0.992,-0.79042 h -1.48801 c -0.496,0 -0.992,0.40295 -0.992,0.79042 v 32.05414 c 0,0.38747 0.496,0.682 0.992,0.682 h 1.48801 c 0.496,0 0.992,-0.29453 0.992,-0.682 m 6.24653,0 v -32.05414 c 0,-0.38747 -0.496,-0.79042 -1.08495,-0.79042 h -1.39505 c -0.496,0 -1.08496,0.40295 -1.08496,0.79042 v 32.05414 c 0,0.38747 0.58896,0.682 1.08496,0.682 h 1.39505 c 0.58895,0 1.08495,-0.29453 1.08495,-0.682 m -32.03856,-29.57413 c -14.29096,0 -23.21899,6.06055 -23.21899,13.50056 0,7.03701 6.1535,13.59356 22.13404,13.59356 17.65454,0 23.31202,-6.15355 23.31202,-13.59356 0,-7.73451 -12.10548,-13.50056 -22.22707,-13.50056 m -11.31496,6.75805 c 1.19348,-3.67353 5.16148,-4.16953 8.54053,-4.16953 7.33149,0 13.28349,7.82754 13.28349,14.38405 0,5.3475 -3.27053,7.64155 -8.12201,7.64155 -4.37105,0 -7.64148,-2.58855 -10.32306,-5.65755 -1.984,-2.58851 -3.67348,-6.24651 -3.67348,-9.71851 0,-0.89901 0.0931,-1.68951 0.29453,-2.48001"
     id="path158"
     style="stroke-width:0.992001;fill:#55d400" />
  <path
     class="Note"
     fill="#00aa00"
     d="m 1284.7485,180.86801 c 18.259,0 21.9326,-14.88001 21.9326,-18.44501 0,-5.65754 -4.464,-9.33101 -10.912,-9.33101 -16.5696,0 -21.7311,12.80301 -21.7311,18.55352 0,5.84355 4.6655,9.2225 10.7105,9.2225 m 8.4321,-8.835 c -4.96,3.379 -8.4321,4.5725 -10.8036,4.5725 -2.294,0 -3.6735,-1.1935 -4.371,-2.5885 -0.403,-0.589 -0.6975,-1.3795 -0.6975,-2.17001 0,-5.363 15.9806,-14.19801 21.235,-14.19801 2.0771,0 3.2705,0.992 4.0611,2.387 0.31,0.589 0.6045,1.2865 0.6045,2.07701 0,2.18549 -2.2785,4.867 -10.0285,9.92001"
     id="path160"
     style="stroke-width:0.992001;fill:#55d400" />
  <path
     class="Note"
     d="m 653.38004,140.98651 c -14.38402,0 -23.31203,6.06048 -23.31203,13.39199 0,7.23851 6.15351,13.68656 22.22707,13.68656 17.65445,0 23.31203,-6.13805 23.31203,-13.68656 0,-7.64151 -12.19854,-13.39199 -22.22707,-13.39199 m -2.77453,2.48 c 7.34706,0 13.29906,7.93598 13.29906,14.49249 0,5.45601 -3.37905,7.62606 -8.24601,7.62606 -7.14548,0 -13.98106,-8.23055 -13.98106,-15.17457 0,-5.549 3.85958,-6.94398 8.92801,-6.94398"
     id="path162"
     style="stroke-width:0.992001;fill:#55d400" />
  <path
     class="Note"
     d="m 826.08204,140.98651 c -14.38402,0 -23.31203,6.06048 -23.31203,13.39199 0,7.23851 6.15351,13.68656 22.22707,13.68656 17.65445,0 23.31203,-6.13805 23.31203,-13.68656 0,-7.64151 -12.19854,-13.39199 -22.22707,-13.39199 m -2.77453,2.48 c 7.34706,0 13.29906,7.93598 13.29906,14.49249 0,5.45601 -3.37905,7.62606 -8.24601,7.62606 -7.14548,0 -13.98106,-8.23055 -13.98106,-15.17457 0,-5.549 3.85958,-6.94398 8.92801,-6.94398"
     id="path166"
     style="stroke-width:0.992001;fill:#55d400" />
  <path
     class="Note"
     fill="#00aa00"
     d="m 1476.6385,205.66801 c 9.827,0 21.9326,-9.1295 21.9326,-18.55352 0,-5.54903 -4.464,-9.2225 -10.8191,-9.2225 -12.1055,0 -21.824,9.02101 -21.824,18.55352 0,5.7505 4.7585,9.2225 10.7105,9.2225"
     id="path168"
     style="stroke-width:0.992001;fill:#55d400" />
  <path
     class="Note"
     d="m 1589.5985,218.06801 c 18.259,0 21.9326,-14.88001 21.9326,-18.44501 0,-5.65754 -4.464,-9.33101 -10.912,-9.33101 -16.5696,0 -21.7311,12.80301 -21.7311,18.55352 0,5.84355 4.6655,9.2225 10.7105,9.2225 m 8.4321,-8.835 c -4.96,3.379 -8.4321,4.5725 -10.8036,4.5725 -2.294,0 -3.6735,-1.1935 -4.371,-2.5885 -0.403,-0.589 -0.6975,-1.3795 -0.6975,-2.17001 0,-5.363 15.9806,-14.19801 21.235,-14.19801 2.0771,0 3.2705,0.992 4.0611,2.387 0.31,0.589 0.6045,1.2865 0.6045,2.07701 0,2.18549 -2.2785,4.867 -10.0285,9.92001"
     id="path170"
     style="stroke-width:0.992001" />
  <path
     class="Note"
     fill="#00aa00"
     d="m 1399.8785,193.26801 c 9.827,0 21.9326,-9.1295 21.9326,-18.55352 0,-5.54903 -4.464,-9.2225 -10.8191,-9.2225 -12.1055,0 -21.824,9.02101 -21.824,18.55352 0,5.7505 4.7585,9.2225 10.7105,9.2225"
     id="path172"
     style="stroke-width:0.992001;fill:#55d400" />
  <path
     class="Note"
     fill="#00aa00"
     d="m 1041.44,153.38651 c -14.384,0 -23.312,6.06048 -23.312,13.39199 0,7.23851 6.1535,13.68656 22.2271,13.68656 17.6544,0 23.312,-6.13805 23.312,-13.68656 0,-7.64151 -12.1985,-13.39199 -22.2271,-13.39199 m -2.7745,2.48 c 7.3471,0 13.2991,7.93598 13.2991,14.49249 0,5.45601 -3.3791,7.62606 -8.246,7.62606 -7.1455,0 -13.9811,-8.23055 -13.9811,-15.17457 0,-5.549 3.8596,-6.94398 8.928,-6.94398"
     id="path184"
     style="stroke-width:0.992001;fill:#55d400" />
  <path
     class="Note"
     d="m 826.08204,165.78651 c -14.38402,0 -23.31203,6.06048 -23.31203,13.39199 0,7.23851 6.15351,13.68656 22.22707,13.68656 17.65445,0 23.31203,-6.13805 23.31203,-13.68656 0,-7.64151 -12.19854,-13.39199 -22.22707,-13.39199 m -2.77453,2.48 c 7.34706,0 13.29906,7.93598 13.29906,14.49249 0,5.45601 -3.37905,7.62606 -8.24601,7.62606 -7.14548,0 -13.98106,-8.23055 -13.98106,-15.17457 0,-5.549 3.85958,-6.94398 8.92801,-6.94398"
     id="path188"
     style="stroke-width:0.992001" />
  <path
     class="Note"
     d="m 1399.8785,218.06801 c 18.259,0 21.9326,-14.88001 21.9326,-18.44501 0,-5.65754 -4.464,-9.33101 -10.912,-9.33101 -16.5696,0 -21.7311,12.80301 -21.7311,18.55352 0,5.84355 4.6655,9.2225 10.7105,9.2225 m 8.4321,-8.835 c -4.96,3.379 -8.4321,4.5725 -10.8036,4.5725 -2.294,0 -3.6735,-1.1935 -4.371,-2.5885 -0.403,-0.589 -0.6975,-1.3795 -0.6975,-2.17001 0,-5.363 15.9806,-14.19801 21.235,-14.19801 2.0771,0 3.2705,0.992 4.0611,2.387 0.31,0.589 0.6045,1.2865 0.6045,2.07701 0,2.18549 -2.2785,4.867 -10.0285,9.92001"
     id="path190"
     style="stroke-width:0.992001" />
  <path
     class="Note"
     d="m 438.02204,178.18651 c -14.38402,0 -23.31203,6.06048 -23.31203,13.39199 0,7.23851 6.15351,13.68656 22.22707,13.68656 17.65445,0 23.31203,-6.13805 23.31203,-13.68656 0,-7.64151 -12.19854,-13.39199 -22.22707,-13.39199 m -2.77453,2.48 c 7.34706,0 13.29906,7.93598 13.29906,14.49249 0,5.45601 -3.37905,7.62606 -8.24601,7.62606 -7.14548,0 -13.98106,-8.23055 -13.98106,-15.17457 0,-5.549 3.85958,-6.94398 8.92801,-6.94398"
     id="path194"
     style="stroke-width:0.992001" />
  <path
     class="Note"
     d="m 1284.7485,205.66801 c 18.259,0 21.9326,-14.88001 21.9326,-18.44501 0,-5.65754 -4.464,-9.33101 -10.912,-9.33101 -16.5696,0 -21.7311,12.80301 -21.7311,18.55352 0,5.84355 4.6655,9.2225 10.7105,9.2225 m 8.4321,-8.835 c -4.96,3.379 -8.4321,4.5725 -10.8036,4.5725 -2.294,0 -3.6735,-1.1935 -4.371,-2.5885 -0.403,-0.589 -0.6975,-1.3795 -0.6975,-2.17001 0,-5.363 15.9806,-14.19801 21.235,-14.19801 2.0771,0 3.2705,0.992 4.0611,2.387 0.31,0.589 0.6045,1.2865 0.6045,2.07701 0,2.18549 -2.2785,4.867 -10.0285,9.92001"
     id="path196"
     style="stroke-width:0.992001" />
  <path
     class="Note"
     d="m 1812.3085,255.26801 c 18.259,0 21.9326,-14.88001 21.9326,-18.44501 0,-5.65754 -4.464,-9.33101 -10.912,-9.33101 -16.5696,0 -21.7311,12.80301 -21.7311,18.55352 0,5.84355 4.6655,9.2225 10.7105,9.2225 m 8.4321,-8.835 c -4.96,3.379 -8.4321,4.5725 -10.8036,4.5725 -2.294,0 -3.6735,-1.1935 -4.371,-2.5885 -0.403,-0.589 -0.6975,-1.3795 -0.6975,-2.17001 0,-5.363 15.9806,-14.19801 21.235,-14.19801 2.0771,0 3.2705,0.992 4.0611,2.387 0.31,0.589 0.6045,1.2865 0.6045,2.07701 0,2.18549 -2.2785,4.867 -10.0285,9.92001"
     id="path198"
     style="stroke-width:0.992001" />
  <path
     class="Note"
     d="m 1035.2885,205.66801 c 18.259,0 21.9326,-14.88001 21.9326,-18.44501 0,-5.65754 -4.464,-9.33101 -10.912,-9.33101 -16.5696,0 -21.7311,12.80301 -21.7311,18.55352 0,5.84355 4.6655,9.2225 10.7105,9.2225 m 8.4321,-8.835 c -4.96,3.379 -8.4321,4.5725 -10.8036,4.5725 -2.294,0 -3.6735,-1.1935 -4.371,-2.5885 -0.403,-0.589 -0.6975,-1.3795 -0.6975,-2.17001 0,-5.363 15.9806,-14.19801 21.235,-14.19801 2.0771,0 3.2705,0.992 4.0611,2.387 0.31,0.589 0.6045,1.2865 0.6045,2.07701 0,2.18549 -2.2785,4.867 -10.0285,9.92001"
     id="path202"
     style="stroke-width:0.992001" />
  <path
     class="Note"
     d="m 1927.4485,242.86801 c 18.259,0 21.9326,-14.88001 21.9326,-18.44501 0,-5.65754 -4.464,-9.33101 -10.912,-9.33101 -16.5696,0 -21.7311,12.80301 -21.7311,18.55352 0,5.84355 4.6655,9.2225 10.7105,9.2225 m 8.4321,-8.835 c -4.96,3.379 -8.4321,4.5725 -10.8036,4.5725 -2.294,0 -3.6735,-1.1935 -4.371,-2.5885 -0.403,-0.589 -0.6975,-1.3795 -0.6975,-2.17001 0,-5.363 15.9806,-14.19801 21.235,-14.19801 2.0771,0 3.2705,0.992 4.0611,2.387 0.31,0.589 0.6045,1.2865 0.6045,2.07701 0,2.18549 -2.2785,4.867 -10.0285,9.92001"
     id="path206"
     style="stroke-width:0.992001" />
  <path
     class="Note"
     d="m 1150.4185,218.06801 c 18.259,0 21.9326,-14.88001 21.9326,-18.44501 0,-5.65754 -4.464,-9.33101 -10.912,-9.33101 -16.5696,0 -21.7311,12.80301 -21.7311,18.55352 0,5.84355 4.6655,9.2225 10.7105,9.2225 m 8.4321,-8.835 c -4.96,3.379 -8.4321,4.5725 -10.8036,4.5725 -2.294,0 -3.6735,-1.1935 -4.371,-2.5885 -0.403,-0.589 -0.6975,-1.3795 -0.6975,-2.17001 0,-5.363 15.9806,-14.19801 21.235,-14.19801 2.0771,0 3.2705,0.992 4.0611,2.387 0.31,0.589 0.6045,1.2865 0.6045,2.07701 0,2.18549 -2.2785,4.867 -10.0285,9.92001"
     id="path208"
     style="stroke-width:0.992001" />
  <path
     class="Note"
     d="m 2078.7885,230.46801 c 18.259,0 21.9326,-14.88001 21.9326,-18.44501 0,-5.65754 -4.464,-9.33101 -10.912,-9.33101 -16.5696,0 -21.7311,12.80301 -21.7311,18.55352 0,5.84355 4.6655,9.2225 10.7105,9.2225 m 8.4321,-8.835 c -4.96,3.379 -8.4321,4.5725 -10.8036,4.5725 -2.294,0 -3.6735,-1.1935 -4.371,-2.5885 -0.403,-0.589 -0.6975,-1.3795 -0.6975,-2.17001 0,-5.363 15.9806,-14.19801 21.235,-14.19801 2.0771,0 3.2705,0.992 4.0611,2.387 0.31,0.589 0.6045,1.2865 0.6045,2.07701 0,2.18549 -2.2785,4.867 -10.0285,9.92001"
     id="path210"
     style="stroke-width:0.992001" />
  <path
     class="Note"
     d="m 1589.5985,218.06801 c 18.259,0 21.9326,-14.88001 21.9326,-18.44501 0,-5.65754 -4.464,-9.33101 -10.912,-9.33101 -16.5696,0 -21.7311,12.80301 -21.7311,18.55352 0,5.84355 4.6655,9.2225 10.7105,9.2225 m 8.4321,-8.835 c -4.96,3.379 -8.4321,4.5725 -10.8036,4.5725 -2.294,0 -3.6735,-1.1935 -4.371,-2.5885 -0.403,-0.589 -0.6975,-1.3795 -0.6975,-2.17001 0,-5.363 15.9806,-14.19801 21.235,-14.19801 2.0771,0 3.2705,0.992 4.0611,2.387 0.31,0.589 0.6045,1.2865 0.6045,2.07701 0,2.18549 -2.2785,4.867 -10.0285,9.92001"
     id="path212"
     style="stroke-width:0.992001;fill:#55d400" />
  <path
     class="Note"
     d="m 653.38004,165.78651 c -14.38402,0 -23.31203,6.06048 -23.31203,13.39199 0,7.23851 6.15351,13.68656 22.22707,13.68656 17.65445,0 23.31203,-6.13805 23.31203,-13.68656 0,-7.64151 -12.19854,-13.39199 -22.22707,-13.39199 m -2.77453,2.48 c 7.34706,0 13.29906,7.93598 13.29906,14.49249 0,5.45601 -3.37905,7.62606 -8.24601,7.62606 -7.14548,0 -13.98106,-8.23055 -13.98106,-15.17457 0,-5.549 3.85958,-6.94398 8.92801,-6.94398"
     id="path214"
     style="stroke-width:0.992001" />
  <path
     class="Note"
     fill="#00aa00"
     d="m 1735.5485,230.46801 c 9.827,0 21.9326,-9.1295 21.9326,-18.55352 0,-5.54903 -4.464,-9.2225 -10.8191,-9.2225 -12.1055,0 -21.824,9.02101 -21.824,18.55352 0,5.7505 4.7585,9.2225 10.7105,9.2225"
     id="path218"
     style="stroke-width:0.992001;fill:#55d400" />
  <path
     class="Note"
     d="m 653.38004,543.38651 c -14.38402,0 -23.31203,6.06048 -23.31203,13.39199 0,7.23851 6.15351,13.68656 22.22707,13.68656 17.65445,0 23.31203,-6.13805 23.31203,-13.68656 0,-7.64151 -12.19854,-13.39199 -22.22707,-13.39199 m -2.77453,2.48 c 7.34706,0 13.29906,7.93598 13.29906,14.49249 0,5.45601 -3.37905,7.62606 -8.24601,7.62606 -7.14548,0 -13.98106,-8.23055 -13.98106,-15.17457 0,-5.549 3.85958,-6.94398 8.92801,-6.94398"
     id="path222"
     style="stroke-width:0.992001" />
  <path
     class="Note"
     d="m 826.08204,555.78651 c -14.38402,0 -23.31203,6.06048 -23.31203,13.39199 0,7.23851 6.15351,13.68656 22.22707,13.68656 17.65445,0 23.31203,-6.13805 23.31203,-13.68656 0,-7.64151 -12.19854,-13.39199 -22.22707,-13.39199 m -2.77453,2.48 c 7.34706,0 13.29906,7.93598 13.29906,14.49249 0,5.45601 -3.37905,7.62606 -8.24601,7.62606 -7.14548,0 -13.98106,-8.23055 -13.98106,-15.17457 0,-5.549 3.85958,-6.94398 8.92801,-6.94398"
     id="path226"
     style="stroke-width:0.992001" />
  <path
     class="Note"
     d="m 1035.2885,583.26801 c 18.259,0 21.9326,-14.88001 21.9326,-18.44501 0,-5.65754 -4.464,-9.33101 -10.912,-9.33101 -16.5696,0 -21.7311,12.80301 -21.7311,18.55352 0,5.84355 4.6655,9.2225 10.7105,9.2225 m 8.4321,-8.835 c -4.96,3.379 -8.4321,4.5725 -10.8036,4.5725 -2.294,0 -3.6735,-1.1935 -4.371,-2.5885 -0.403,-0.589 -0.6975,-1.3795 -0.6975,-2.17001 0,-5.363 15.9806,-14.19801 21.235,-14.19801 2.0771,0 3.2705,0.992 4.0611,2.387 0.31,0.589 0.6045,1.2865 0.6045,2.07701 0,2.18549 -2.2785,4.867 -10.0285,9.92001"
     id="path228"
     style="stroke-width:0.992001" />
  <path
     class="Note"
     d="m 1207.9885,595.66801 c 9.827,0 21.9326,-9.1295 21.9326,-18.55352 0,-5.54903 -4.464,-9.2225 -10.8191,-9.2225 -12.1055,0 -21.824,9.02101 -21.824,18.55352 0,5.7505 4.7585,9.2225 10.7105,9.2225"
     id="path232"
     style="stroke-width:0.992001" />
  <path
     class="Note"
     d="m 1284.7485,583.26801 c 18.259,0 21.9326,-14.88001 21.9326,-18.44501 0,-5.65754 -4.464,-9.33101 -10.912,-9.33101 -16.5696,0 -21.7311,12.80301 -21.7311,18.55352 0,5.84355 4.6655,9.2225 10.7105,9.2225 m 8.4321,-8.835 c -4.96,3.379 -8.4321,4.5725 -10.8036,4.5725 -2.294,0 -3.6735,-1.1935 -4.371,-2.5885 -0.403,-0.589 -0.6975,-1.3795 -0.6975,-2.17001 0,-5.363 15.9806,-14.19801 21.235,-14.19801 2.0771,0 3.2705,0.992 4.0611,2.387 0.31,0.589 0.6045,1.2865 0.6045,2.07701 0,2.18549 -2.2785,4.867 -10.0285,9.92001"
     id="path234"
     style="stroke-width:0.992001" />
  <path
     class="Note"
     d="m 1399.8785,608.06801 c 18.259,0 21.9326,-14.88001 21.9326,-18.44501 0,-5.65754 -4.464,-9.33101 -10.912,-9.33101 -16.5696,0 -21.7311,12.80301 -21.7311,18.55352 0,5.84355 4.6655,9.2225 10.7105,9.2225 m 8.4321,-8.835 c -4.96,3.379 -8.4321,4.5725 -10.8036,4.5725 -2.294,0 -3.6735,-1.1935 -4.371,-2.5885 -0.403,-0.589 -0.6975,-1.3795 -0.6975,-2.17001 0,-5.363 15.9806,-14.19801 21.235,-14.19801 2.0771,0 3.2705,0.992 4.0611,2.387 0.31,0.589 0.6045,1.2865 0.6045,2.07701 0,2.18549 -2.2785,4.867 -10.0285,9.92001"
     id="path240"
     style="stroke-width:0.992001" />
  <path
     class="Note"
     d="m 1589.5985,608.06801 c 18.259,0 21.9326,-14.88001 21.9326,-18.44501 0,-5.65754 -4.464,-9.33101 -10.912,-9.33101 -16.5696,0 -21.7311,12.80301 -21.7311,18.55352 0,5.84355 4.6655,9.2225 10.7105,9.2225 m 8.4321,-8.835 c -4.96,3.379 -8.4321,4.5725 -10.8036,4.5725 -2.294,0 -3.6735,-1.1935 -4.371,-2.5885 -0.403,-0.589 -0.6975,-1.3795 -0.6975,-2.17001 0,-5.363 15.9806,-14.19801 21.235,-14.19801 2.0771,0 3.2705,0.992 4.0611,2.387 0.31,0.589 0.6045,1.2865 0.6045,2.07701 0,2.18549 -2.2785,4.867 -10.0285,9.92001"
     id="path242"
     style="stroke-width:0.992001" />
  <path
     class="Note"
     d="m 438.02204,555.78651 c -14.38402,0 -23.31203,6.06048 -23.31203,13.39199 0,7.23851 6.15351,13.68656 22.22707,13.68656 17.65445,0 23.31203,-6.13805 23.31203,-13.68656 0,-7.64151 -12.19854,-13.39199 -22.22707,-13.39199 m -2.77453,2.48 c 7.34706,0 13.29906,7.93598 13.29906,14.49249 0,5.45601 -3.37905,7.62606 -8.24601,7.62606 -7.14548,0 -13.98106,-8.23055 -13.98106,-15.17457 0,-5.549 3.85958,-6.94398 8.92801,-6.94398"
     id="path248"
     style="stroke-width:0.992001" />
  <path
     class="Note"
     d="m 438.02204,580.58651 c -14.38402,0 -23.31203,6.06048 -23.31203,13.39199 0,7.23851 6.15351,13.68656 22.22707,13.68656 17.65445,0 23.31203,-6.13805 23.31203,-13.68656 0,-7.64151 -12.19854,-13.39199 -22.22707,-13.39199 m -2.77453,2.48 c 7.34706,0 13.29906,7.93598 13.29906,14.49249 0,5.45601 -3.37905,7.62606 -8.24601,7.62606 -7.14548,0 -13.98106,-8.23055 -13.98106,-15.17457 0,-5.549 3.85958,-6.94398 8.92801,-6.94398"
     id="path256"
     style="stroke-width:0.992001" />
  <path
     class="Note"
     d="m 1476.6385,645.26801 c 9.827,0 21.9326,-9.1295 21.9326,-18.55352 0,-5.54903 -4.464,-9.2225 -10.8191,-9.2225 -12.1055,0 -21.824,9.02101 -21.824,18.55352 0,5.7505 4.7585,9.2225 10.7105,9.2225"
     id="path260"
     style="stroke-width:0.992001" />
  <path
     class="Note"
     fill="#00aa00"
     d="m 1818.46,630.18651 c -14.384,0 -23.312,6.06048 -23.312,13.39199 0,7.23851 6.1535,13.68656 22.2271,13.68656 17.6544,0 23.312,-6.13805 23.312,-13.68656 0,-7.64151 -12.1985,-13.39199 -22.2271,-13.39199 m -2.7745,2.48 c 7.3471,0 13.2991,7.93598 13.2991,14.49249 0,5.45601 -3.3791,7.62606 -8.246,7.62606 -7.1455,0 -13.9811,-8.23055 -13.9811,-15.17457 0,-5.549 3.8596,-6.94398 8.928,-6.94398"
     id="path262"
     style="stroke-width:0.992001;fill:#55d400" />
  <path
     class="Note"
     d="m 653.38004,630.18651 c -14.38402,0 -23.31203,6.06048 -23.31203,13.39199 0,7.23851 6.15351,13.68656 22.22707,13.68656 17.65445,0 23.31203,-6.13805 23.31203,-13.68656 0,-7.64151 -12.19854,-13.39199 -22.22707,-13.39199 m -2.77453,2.48 c 7.34706,0 13.29906,7.93598 13.29906,14.49249 0,5.45601 -3.37905,7.62606 -8.24601,7.62606 -7.14548,0 -13.98106,-8.23055 -13.98106,-15.17457 0,-5.549 3.85958,-6.94398 8.92801,-6.94398"
     id="path266"
     style="stroke-width:0.992001" />
  <path
     class="Note"
     d="m 1735.5485,645.26801 c 9.827,0 21.9326,-9.1295 21.9326,-18.55352 0,-5.54903 -4.464,-9.2225 -10.8191,-9.2225 -12.1055,0 -21.824,9.02101 -21.824,18.55352 0,5.7505 4.7585,9.2225 10.7105,9.2225"
     id="path268"
     style="stroke-width:0.992001" />
  <path
     class="Note"
     d="m 1035.2885,670.06801 c 18.259,0 21.9326,-14.88001 21.9326,-18.44501 0,-5.65754 -4.464,-9.33101 -10.912,-9.33101 -16.5696,0 -21.7311,12.80301 -21.7311,18.55352 0,5.84355 4.6655,9.2225 10.7105,9.2225 m 8.4321,-8.835 c -4.96,3.379 -8.4321,4.5725 -10.8036,4.5725 -2.294,0 -3.6735,-1.1935 -4.371,-2.5885 -0.403,-0.589 -0.6975,-1.3795 -0.6975,-2.17001 0,-5.363 15.9806,-14.19801 21.235,-14.19801 2.0771,0 3.2705,0.992 4.0611,2.387 0.31,0.589 0.6045,1.2865 0.6045,2.07701 0,2.18549 -2.2785,4.867 -10.0285,9.92001"
     id="path270"
     style="stroke-width:0.992001" />
  <path
     class="Note"
     fill="#00aa00"
     d="m 2078.7885,670.06801 c 18.259,0 21.9326,-14.88001 21.9326,-18.44501 0,-5.65754 -4.464,-9.33101 -10.912,-9.33101 -16.5696,0 -21.7311,12.80301 -21.7311,18.55352 0,5.84355 4.6655,9.2225 10.7105,9.2225 m 8.4321,-8.835 c -4.96,3.379 -8.4321,4.5725 -10.8036,4.5725 -2.294,0 -3.6735,-1.1935 -4.371,-2.5885 -0.403,-0.589 -0.6975,-1.3795 -0.6975,-2.17001 0,-5.363 15.9806,-14.19801 21.235,-14.19801 2.0771,0 3.2705,0.992 4.0611,2.387 0.31,0.589 0.6045,1.2865 0.6045,2.07701 0,2.18549 -2.2785,4.867 -10.0285,9.92001"
     id="path272"
     style="stroke-width:0.992001;fill:#55d400" />
  <path
     class="Note"
     d="m 1589.5985,632.86801 c 18.259,0 21.9326,-14.88001 21.9326,-18.44501 0,-5.65754 -4.464,-9.33101 -10.912,-9.33101 -16.5696,0 -21.7311,12.80301 -21.7311,18.55352 0,5.84355 4.6655,9.2225 10.7105,9.2225 m 8.4321,-8.835 c -4.96,3.379 -8.4321,4.5725 -10.8036,4.5725 -2.294,0 -3.6735,-1.1935 -4.371,-2.5885 -0.403,-0.589 -0.6975,-1.3795 -0.6975,-2.17001 0,-5.363 15.9806,-14.19801 21.235,-14.19801 2.0771,0 3.2705,0.992 4.0611,2.387 0.31,0.589 0.6045,1.2865 0.6045,2.07701 0,2.18549 -2.2785,4.867 -10.0285,9.92001"
     id="path276"
     style="stroke-width:0.992001" />
  <path
     class="Note"
     d="m 826.08204,605.38651 c -14.38402,0 -23.31203,6.06048 -23.31203,13.39199 0,7.23851 6.15351,13.68656 22.22707,13.68656 17.65445,0 23.31203,-6.13805 23.31203,-13.68656 0,-7.64151 -12.19854,-13.39199 -22.22707,-13.39199 m -2.77453,2.48 c 7.34706,0 13.29906,7.93598 13.29906,14.49249 0,5.45601 -3.37905,7.62606 -8.24601,7.62606 -7.14548,0 -13.98106,-8.23055 -13.98106,-15.17457 0,-5.549 3.85958,-6.94398 8.92801,-6.94398"
     id="path278"
     style="stroke-width:0.992001" />
  <path
     class="Note"
     d="m 1150.4185,620.46801 c 18.259,0 21.9326,-14.88001 21.9326,-18.44501 0,-5.65754 -4.464,-9.33101 -10.912,-9.33101 -16.5696,0 -21.7311,12.80301 -21.7311,18.55352 0,5.84355 4.6655,9.2225 10.7105,9.2225 m 8.4321,-8.835 c -4.96,3.379 -8.4321,4.5725 -10.8036,4.5725 -2.294,0 -3.6735,-1.1935 -4.371,-2.5885 -0.403,-0.589 -0.6975,-1.3795 -0.6975,-2.17001 0,-5.363 15.9806,-14.19801 21.235,-14.19801 2.0771,0 3.2705,0.992 4.0611,2.387 0.31,0.589 0.6045,1.2865 0.6045,2.07701 0,2.18549 -2.2785,4.867 -10.0285,9.92001"
     id="path280"
     style="stroke-width:0.992001" />
  <path
     class="Note"
     d="m 1399.8785,657.66801 c 9.827,0 21.9326,-9.1295 21.9326,-18.55352 0,-5.54903 -4.464,-9.2225 -10.8191,-9.2225 -12.1055,0 -21.824,9.02101 -21.824,18.55352 0,5.7505 4.7585,9.2225 10.7105,9.2225"
     id="path284"
     style="stroke-width:0.992001" />
  <path
     class="Note"
     d="m 1284.7485,670.06801 c 18.259,0 21.9326,-14.88001 21.9326,-18.44501 0,-5.65754 -4.464,-9.33101 -10.912,-9.33101 -16.5696,0 -21.7311,12.80301 -21.7311,18.55352 0,5.84355 4.6655,9.2225 10.7105,9.2225 m 8.4321,-8.835 c -4.96,3.379 -8.4321,4.5725 -10.8036,4.5725 -2.294,0 -3.6735,-1.1935 -4.371,-2.5885 -0.403,-0.589 -0.6975,-1.3795 -0.6975,-2.17001 0,-5.363 15.9806,-14.19801 21.235,-14.19801 2.0771,0 3.2705,0.992 4.0611,2.387 0.31,0.589 0.6045,1.2865 0.6045,2.07701 0,2.18549 -2.2785,4.867 -10.0285,9.92001"
     id="path286"
     style="stroke-width:0.992001" />
  <path
     class="Clef"
     d="m 97.090175,125.81196 c -0.201475,-1.19348 0,-1.28653 0.588951,-1.89105 10.710534,-10.01296 18.848014,-22.61445 18.848014,-37.788992 0,-8.633483 -2.38695,-17.174017 -6.448,-23.126519 -1.488,-2.169506 -4.06096,-4.960005 -5.16148,-4.960005 -1.37948,0 -4.46401,2.589123 -6.448009,4.774501 -7.331482,8.122008 -9.718534,20.522021 -9.718534,30.844981 0,5.750531 0.697575,12.198534 1.395051,16.275064 0.186,1.19348 0.294525,1.37948 -0.899051,2.37148 -14.290964,11.81106 -29.465504,25.9935 -29.465504,46.03507 0,17.26702 11.811061,33.63501 36.115086,33.63501 2.278427,0 4.851481,-0.20148 6.835481,-0.60443 1.10053,-0.186 1.302,-0.29452 1.488,0.89896 1.19348,6.64948 2.68148,15.28306 2.68148,19.94854 0,14.67854 -9.92001,16.46097 -15.763491,16.46097 -5.363055,0 -7.951483,-1.58095 -7.951483,-2.88296 0,-0.682 0.898951,-0.992 3.177478,-1.674 3.084528,-0.89905 6.649482,-3.58053 6.649482,-9.33106 0,-5.456 -3.472004,-10.12148 -9.51696,-10.12148 -6.649581,0 -10.617585,5.25453 -10.617585,11.40801 0,6.44801 3.859578,16.16654 18.848019,16.16654 6.649581,0 19.54559,-2.976 19.54559,-19.84002 0,-5.64201 -1.78252,-15.06601 -2.88305,-21.2195 -0.20147,-1.19357 -0.093,-1.10052 1.28653,-1.68957 10.02853,-3.96801 16.67801,-12.40001 16.67801,-23.6065 0,-12.71006 -9.33105,-23.9165 -23.91654,-23.9165 -2.572957,0 -2.572957,0 -2.867483,-1.78253 l -2.480002,-14.38401 m 9.315485,-52.390054 c 3.27053,0 5.95201,2.681478 5.95201,8.137483 0,11.020536 -9.42401,19.948541 -17.251497,26.784031 -0.697476,0.60452 -1.100526,0.496 -1.302001,-0.79053 -0.387476,-2.57295 -0.589051,-5.95201 -0.589051,-9.129484 0,-15.468966 7.145579,-25.0015 13.190539,-25.0015 M 95.602173,140.9865 c 0.294526,1.89095 0.294526,1.78243 -1.488001,2.38695 -8.742009,2.976 -14.39949,10.80349 -14.39949,19.23555 0,8.928 4.66548,15.28301 11.423487,17.56154 0.790526,0.29452 1.984002,0.60452 2.666003,0.60452 0.806,0 1.193476,-0.496 1.193476,-1.10052 0,-0.69748 -0.790526,-0.992 -1.488001,-1.28653 -4.16948,-1.7825 -7.145483,-6.045 -7.145483,-10.61751 0,-5.6575 3.874954,-9.92001 9.92001,-11.60956 1.596527,-0.38748 1.798002,-0.29443 1.984002,0.806 l 4.960004,29.55855 c 0.20148,1.08506 0.10853,1.08506 -1.37948,1.37958 -1.59652,0.31 -3.580524,0.496 -5.564526,0.496 -17.360017,0 -28.566554,-9.61001 -28.566554,-23.40507 0,-5.85901 0.992001,-13.68654 9.222535,-23.0175 5.952006,-6.64958 10.524535,-10.32306 15.190015,-14.08959 0.992001,-0.79043 1.178001,-0.69747 1.379477,0.40305 l 2.092526,12.69454 m 6.835487,15.77896 c -0.20148,-1.19347 -0.0929,-1.488 1.10052,-1.39495 8.02896,0.69748 14.67854,7.43998 14.67854,16.16649 0,6.26206 -3.76653,11.31502 -9.33106,14.08954 -1.19347,0.60453 -1.37947,0.60453 -1.58095,-0.58905 l -4.86705,-28.27203"
     id="path288"
     style="stroke-width:0.992001" />
  <path
     class="Clef"
     d="m 84.783113,592.9865 c -17.266988,0 -25.0015,12.60149 -25.0015,22.1185 0,7.936 4.169509,14.78701 12.198537,14.78701 6.246531,0 10.524535,-4.371 10.524535,-10.50901 0,-6.35501 -4.665579,-10.32301 -9.532534,-10.32301 -2.681478,0 -3.673529,0.6975 -4.960025,0.6975 -1.286506,0 -1.581002,-0.79055 -1.581002,-1.78255 0,-3.968 5.951976,-11.22201 16.073561,-11.22201 10.508961,0 15.08149,10.32306 15.08149,25.90058 0,27.68305 -13.702013,43.15201 -36.812561,56.34255 -0.899001,0.496 -1.488002,0.992 -1.488002,1.78253 0,0.60452 0.403,1.19347 1.286501,1.19347 0.496006,0 1.100501,-0.20147 1.689502,-0.496 24.412549,-11.90401 50.204575,-29.55855 50.204575,-59.72155 0,-17.25157 -10.52454,-28.76801 -27.683077,-28.76801 m 37.401617,8.13748 c -3.08453,0 -5.45601,2.38695 -5.45601,5.45601 0,3.069 2.37148,5.456 5.45601,5.456 3.06895,0 5.456,-2.387 5.456,-5.456 0,-3.06906 -2.38705,-5.45601 -5.456,-5.45601 m 0.093,24.89303 c -3.06896,0 -5.34749,2.294 -5.34749,5.363 0,3.06906 2.27853,5.36306 5.34749,5.36306 3.08452,0 5.36305,-2.294 5.36305,-5.36306 0,-3.069 -2.27853,-5.363 -5.36305,-5.363"
     id="path290"
     style="stroke-width:0.992001" />
  <path
     class="TimeSig"
     d="m 186.37052,124.73001 v -21.23502 c 0,-0.79053 -0.093,-1.68948 -1.19347,-1.68948 -0.88348,0 -1.37948,0.20147 -1.984,0.89895 l -9.42401,11.40803 c -0.40295,0.496 -0.89896,1.085 -0.89896,2.27851 v 8.33901 h -13.39206 c 7.93606,-6.75801 23.82355,-29.264082 24.11808,-30.457558 l 0.093,-0.294525 c 0,-0.898952 -0.69748,-1.488002 -1.48801,-1.488002 -0.88347,0 -4.96,0.186 -6.74253,0.186 -1.78242,0 -6.24643,-0.186 -7.05243,-0.186 -0.88358,0 -2.27853,0.294525 -2.27853,1.875577 0,12.306958 -9.71853,26.086498 -12.69453,30.256008 l -0.58901,0.7905 c 0,0 0,0.1085 0,0.1085 l -0.10849,0.093 c -0.20151,0.496 -0.29451,0.899 -0.29451,1.1935 0,0.992 0.79051,1.68948 1.98401,1.68948 h 18.44506 v 6.24653 c 0,2.68148 -2.17,3.472 -3.968,3.472 -1.58105,0 -2.27853,0.89905 -2.27853,1.89105 0,0.992 0.40295,2.07695 1.89096,2.07695 h 21.12654 c 0.992,0 1.984,-0.69747 1.984,-2.07695 0,-1.39505 -1.19347,-1.984 -2.18547,-1.984 -0.992,0 -3.06906,-0.60452 -3.06906,-3.782 v -5.84358 h 7.23854 c 0.992,0 1.488,-0.69748 1.488,-1.89098 0,-1.1935 -0.38748,-1.8755 -1.488,-1.8755 h -7.23854"
     id="path292"
     style="stroke-width:0.992001" />
  <path
     class="TimeSig"
     d="m 193.40758,176.59401 c 0,-1.178 -0.496,-1.3795 -1.19348,-1.3795 -0.79052,0 -1.10052,0.3875 -1.28652,1.085 l -0.10853,0.1085 c -0.992,2.48005 -1.78252,4.35553 -3.85948,4.35553 -0.496,0 -0.992,-0.0931 -1.68947,-0.29453 -1.28653,-0.496 -1.98401,-0.58895 -2.97601,-1.08495 -1.984,-0.806 -6.64958,-2.38705 -10.72601,-2.38705 -1.28652,0 -2.57305,0.2015 -3.658,0.58905 2.17,-3.56505 10.61748,-6.54106 12.78749,-7.13006 6.944,-1.891 13.20601,-4.774 13.20601,-13.00449 0,-10.50906 -10.32306,-15.08159 -19.54549,-15.08159 -6.94401,0 -13.09756,0.60453 -17.96457,6.26201 -1.6895,2.07705 -2.77451,4.55706 -2.77451,7.23853 0,1.37948 0.29451,2.77453 0.89901,4.26253 1.488,3.06901 4.557,5.45601 8.12205,5.45601 6.06043,0 6.94401,-6.24651 6.94401,-8.72654 0,-5.952 -6.83558,-6.24653 -6.83558,-8.23053 0.20157,-1.39495 1.984,-3.782 7.82758,-3.782 8.83496,0 8.94349,6.64958 8.94349,9.53253 0,9.02103 -7.45549,15.87205 -14.58549,20.22755 -5.45606,3.47205 -9.33106,8.33901 -11.02056,14.78701 l -0.093,0.29453 c 0,1.28652 1.085,3.37895 2.573,3.37895 2.1855,0 3.37901,-6.06043 9.22256,-6.06043 3.968,0 5.456,5.36295 14.29096,5.36295 4.26253,0 11.90401,-0.40295 13.50054,-15.77901"
     id="path294"
     style="stroke-width:0.992001" />
  <path
     class="TimeSig"
     d="m 186.37052,626.33101 v -21.23502 c 0,-0.79053 -0.093,-1.68948 -1.19347,-1.68948 -0.88348,0 -1.37948,0.20147 -1.984,0.89895 l -9.42401,11.40803 c -0.40295,0.496 -0.89896,1.085 -0.89896,2.27851 v 8.33901 h -13.39206 c 7.93606,-6.75801 23.82355,-29.26408 24.11808,-30.45756 l 0.093,-0.29452 c 0,-0.89895 -0.69748,-1.488 -1.48801,-1.488 -0.88347,0 -4.96,0.186 -6.74253,0.186 -1.78242,0 -6.24643,-0.186 -7.05243,-0.186 -0.88358,0 -2.27853,0.29452 -2.27853,1.87557 0,12.30696 -9.71853,26.0865 -12.69453,30.25601 l -0.58901,0.7905 c 0,0 0,0.1085 0,0.1085 l -0.10849,0.093 c -0.20151,0.496 -0.29451,0.899 -0.29451,1.1935 0,0.992 0.79051,1.68948 1.98401,1.68948 h 18.44506 v 6.24653 c 0,2.68148 -2.17,3.472 -3.968,3.472 -1.58105,0 -2.27853,0.89905 -2.27853,1.89105 0,0.992 0.40295,2.07695 1.89096,2.07695 h 21.12654 c 0.992,0 1.984,-0.69747 1.984,-2.07695 0,-1.39505 -1.19347,-1.984 -2.18547,-1.984 -0.992,0 -3.06906,-0.60452 -3.06906,-3.782 v -5.84358 h 7.23854 c 0.992,0 1.488,-0.69748 1.488,-1.89098 0,-1.1935 -0.38748,-1.8755 -1.488,-1.8755 h -7.23854"
     id="path296"
     style="stroke-width:0.992001" />
  <path
     class="TimeSig"
     d="m 193.40758,678.19401 c 0,-1.178 -0.496,-1.3795 -1.19348,-1.3795 -0.79052,0 -1.10052,0.3875 -1.28652,1.085 l -0.10853,0.1085 c -0.992,2.48005 -1.78252,4.35553 -3.85948,4.35553 -0.496,0 -0.992,-0.093 -1.68947,-0.29453 -1.28653,-0.496 -1.98401,-0.58895 -2.97601,-1.08495 -1.984,-0.806 -6.64958,-2.38705 -10.72601,-2.38705 -1.28652,0 -2.57305,0.2015 -3.658,0.58905 2.17,-3.56505 10.61748,-6.54106 12.78749,-7.13006 6.944,-1.891 13.20601,-4.774 13.20601,-13.00449 0,-10.50906 -10.32306,-15.08159 -19.54549,-15.08159 -6.94401,0 -13.09756,0.60453 -17.96457,6.26201 -1.6895,2.07705 -2.77451,4.55706 -2.77451,7.23853 0,1.37948 0.29451,2.77453 0.89901,4.26253 1.488,3.06901 4.557,5.45601 8.12205,5.45601 6.06043,0 6.94401,-6.24651 6.94401,-8.72654 0,-5.952 -6.83558,-6.24653 -6.83558,-8.23053 0.20157,-1.39495 1.984,-3.782 7.82758,-3.782 8.83496,0 8.94349,6.64958 8.94349,9.53253 0,9.02103 -7.45549,15.87205 -14.58549,20.22755 -5.45606,3.47205 -9.33106,8.33901 -11.02056,14.78701 l -0.093,0.29453 c 0,1.28652 1.085,3.37895 2.573,3.37895 2.1855,0 3.37901,-6.06043 9.22256,-6.06043 3.968,0 5.456,5.36295 14.29096,5.36295 4.26253,0 11.90401,-0.40295 13.50054,-15.77901"
     id="path298"
     style="stroke-width:0.992001" />
  <path
     class="Rest"
     d="m 238.629,226.996 c -0.99205,0 -1.78247,0.79049 -1.78247,1.7825 0,0.992 0.79042,1.7825 1.78247,1.7825 h 9.82701 v 9.23806 c 0,1.37948 1.085,2.57295 2.57301,2.57295 h 22.83154 c 1.37948,0 2.57296,-1.19347 2.57296,-2.57295 v -9.12955 c 0,-0.10851 0,-0.10851 9.82706,-0.10851 0.992,0 1.78252,-0.7905 1.78252,-1.7825 0,-0.99201 -0.79052,-1.7825 -1.78252,-1.7825 H 238.629"
     id="path302"
     style="stroke-width:0.992001" />
  <path
     class="Rest"
     d="m 238.629,567.396 c -0.99205,0 -1.78247,0.79049 -1.78247,1.7825 0,0.992 0.79042,1.7825 1.78247,1.7825 h 9.82701 v 9.23806 c 0,1.37948 1.085,2.57295 2.57301,2.57295 h 22.83154 c 1.37948,0 2.57296,-1.19347 2.57296,-2.57295 v -9.12955 c 0,-0.10851 0,-0.10851 9.82706,-0.10851 0.992,0 1.78252,-0.7905 1.78252,-1.7825 0,-0.99201 -0.79052,-1.7825 -1.78252,-1.7825 H 238.629"
     id="path304"
     style="stroke-width:0.992001" />
  <path
     class="Rest"
     d="m 276.43352,704.19906 v -9.12955 c 0,-1.48801 -1.19348,-2.58851 -2.57296,-2.58851 h -22.83154 c -1.48801,0 -2.57301,1.1005 -2.57301,2.58851 v 9.12955 c 0,1.37948 1.085,2.57295 2.57301,2.57295 h 22.83154 c 1.37948,0 2.57296,-1.19347 2.57296,-2.57295"
     id="path306"
     style="stroke-width:0.992001" />
  <path
     class="Lyrics"
     d="m 286.28001,39.531 h -6.781 l -14.313,-18.265 -2.297,2.578 v 15.687 h -5.218 V 0.266 h 5.218 v 18.062 l 16.078,-18.062 h 6.36 l -16.235,17.531 17.188,21.734 m 26.141,-29.453 -15.844,40.313 h -5.297 l 5.266,-12.281 -10.704,-28.032 h 5.36 l 8.031,21.813 8.016,-21.813 h 5.172"
     id="path308" />
  <path
     class="Lyrics"
     d="m 821.30201,15.406 h -0.265 c -0.375,-0.104 -0.769,-0.169 -1.18,-0.195 -0.411,-0.026 -0.909,-0.039 -1.492,-0.039 -1.334,0 -2.659,0.289 -3.977,0.867 -1.317,0.578 -2.565,1.44 -3.742,2.586 v 20.906 h -4.953 V 10.078 h 4.953 v 4.375 c 1.813,-1.593 3.391,-2.721 4.734,-3.383 1.344,-0.661 2.646,-0.992 3.907,-0.992 0.51,0 0.893,0.013 1.148,0.039 0.255,0.026 0.544,0.065 0.867,0.118 v 5.171 m 8.453,24.125 h -4.968 V 10.078 h 4.968 v 29.453 m 0.329,-34.39 h -5.641 V 0 h 5.641 v 5.141"
     id="path310" />
  <path
     class="Lyrics"
     d="m 1038.458,40.219 c -4.69,0 -8.34,-1.323 -10.93,-3.969 -2.58,-2.646 -3.88,-6.406 -3.88,-11.281 0,-4.792 1.26,-8.607 3.77,-11.445 2.51,-2.839 5.79,-4.258 9.86,-4.258 1.83,0 3.45,0.263 4.86,0.789 1.4,0.526 2.63,1.351 3.68,2.476 1.06,1.125 1.86,2.5 2.43,4.125 0.56,1.625 0.84,3.615 0.84,5.969 v 2.688 h -20.41 c 0,3.427 0.87,6.047 2.59,7.859 1.72,1.813 4.11,2.719 7.15,2.719 1.08,0 2.15,-0.123 3.19,-0.367 1.05,-0.245 2,-0.56 2.84,-0.946 0.89,-0.406 1.65,-0.799 2.26,-1.179 0.62,-0.381 1.13,-0.737 1.54,-1.071 h 0.29 v 5.407 c -0.58,0.229 -1.3,0.515 -2.16,0.859 -0.86,0.344 -1.63,0.615 -2.32,0.812 -0.97,0.261 -1.85,0.461 -2.63,0.602 -0.78,0.141 -1.77,0.211 -2.97,0.211 m 5.8,-18.703 c -0.03,-1.334 -0.19,-2.482 -0.47,-3.446 -0.28,-0.963 -0.68,-1.783 -1.22,-2.46 -0.57,-0.73 -1.31,-1.29 -2.21,-1.68 -0.91,-0.391 -2.04,-0.586 -3.38,-0.586 -1.31,0 -2.43,0.198 -3.35,0.594 -0.92,0.396 -1.76,0.974 -2.52,1.734 -0.74,0.771 -1.31,1.628 -1.69,2.57 -0.39,0.943 -0.63,2.034 -0.74,3.274 h 15.58"
     id="path312" />
  <path
     class="Lyrics"
     d="m 1043.268,357.867 c -4.7,0 -8.34,-1.323 -10.93,-3.968 -2.59,-2.646 -3.88,-6.407 -3.88,-11.282 0,-4.791 1.25,-8.606 3.76,-11.445 2.51,-2.838 5.8,-4.258 9.86,-4.258 1.84,0 3.46,0.263 4.86,0.789 1.41,0.526 2.64,1.352 3.69,2.477 1.05,1.125 1.86,2.5 2.42,4.125 0.56,1.625 0.85,3.614 0.85,5.969 v 2.687 h -20.41 c 0,3.427 0.86,6.047 2.58,7.86 1.73,1.812 4.11,2.718 7.15,2.718 1.09,0 2.15,-0.122 3.2,-0.367 1.05,-0.245 1.99,-0.56 2.83,-0.945 0.9,-0.406 1.66,-0.8 2.27,-1.18 0.61,-0.38 1.13,-0.737 1.53,-1.07 h 0.3 v 5.406 c -0.58,0.229 -1.31,0.516 -2.17,0.859 -0.86,0.344 -1.63,0.615 -2.32,0.813 -0.96,0.26 -1.84,0.461 -2.62,0.601 -0.78,0.141 -1.77,0.211 -2.97,0.211 m 5.8,-18.703 c -0.03,-1.333 -0.19,-2.482 -0.47,-3.445 -0.28,-0.964 -0.69,-1.784 -1.22,-2.461 -0.57,-0.729 -1.31,-1.289 -2.22,-1.68 -0.91,-0.39 -2.03,-0.586 -3.37,-0.586 -1.32,0 -2.43,0.198 -3.36,0.594 -0.92,0.396 -1.76,0.974 -2.52,1.735 -0.74,0.77 -1.3,1.627 -1.69,2.57 -0.38,0.943 -0.63,2.034 -0.73,3.273 h 15.58"
     id="path314" />
  <path
     class="Lyrics"
     d="m 829.23801,333.055 h -0.265 c -0.375,-0.104 -0.769,-0.169 -1.18,-0.195 -0.411,-0.026 -0.909,-0.039 -1.492,-0.039 -1.334,0 -2.659,0.289 -3.977,0.867 -1.317,0.578 -2.565,1.44 -3.742,2.586 v 20.906 h -4.953 v -29.453 h 4.953 v 4.375 c 1.813,-1.594 3.391,-2.722 4.734,-3.383 1.344,-0.662 2.646,-0.992 3.907,-0.992 0.51,0 0.893,0.013 1.148,0.039 0.255,0.026 0.544,0.065 0.867,0.117 v 5.172 m 8.453,24.125 h -4.968 v -29.453 h 4.968 v 29.453 m 0.329,-34.391 h -5.641 v -5.14 h 5.641 v 5.14"
     id="path316" />
  <path
     class="Lyrics"
     d="m 1279.688,357.18 h -4.97 v -41.031 h 4.97 v 41.031 m 19.72,0.687 c -4.7,0 -8.34,-1.323 -10.93,-3.968 -2.59,-2.646 -3.88,-6.407 -3.88,-11.282 0,-4.791 1.25,-8.606 3.76,-11.445 2.51,-2.838 5.8,-4.258 9.86,-4.258 1.84,0 3.46,0.263 4.86,0.789 1.41,0.526 2.64,1.352 3.69,2.477 1.05,1.125 1.86,2.5 2.42,4.125 0.56,1.625 0.85,3.614 0.85,5.969 v 2.687 h -20.41 c 0,3.427 0.86,6.047 2.59,7.86 1.72,1.812 4.1,2.718 7.14,2.718 1.09,0 2.15,-0.122 3.2,-0.367 1.05,-0.245 1.99,-0.56 2.84,-0.945 0.89,-0.406 1.65,-0.8 2.26,-1.18 0.62,-0.38 1.13,-0.737 1.53,-1.07 h 0.3 v 5.406 c -0.58,0.229 -1.31,0.516 -2.16,0.859 -0.86,0.344 -1.64,0.615 -2.33,0.813 -0.96,0.26 -1.84,0.461 -2.62,0.601 -0.78,0.141 -1.77,0.211 -2.97,0.211 m 5.8,-18.703 c -0.03,-1.333 -0.19,-2.482 -0.47,-3.445 -0.28,-0.964 -0.69,-1.784 -1.22,-2.461 -0.57,-0.729 -1.31,-1.289 -2.22,-1.68 -0.9,-0.39 -2.03,-0.586 -3.37,-0.586 -1.32,0 -2.43,0.198 -3.35,0.594 -0.93,0.396 -1.77,0.974 -2.53,1.735 -0.74,0.77 -1.3,1.627 -1.69,2.57 -0.38,0.943 -0.63,2.034 -0.73,3.273 h 15.58 m 14.48,18.016 h -4.97 v -29.453 h 4.97 v 29.453 m 0.33,-34.391 h -5.64 v -5.14 h 5.64 v 5.14"
     id="path318" />
  <path
     class="Lyrics"
     d="m 444.30301,357.18 h -6.781 l -14.312,-18.266 -2.297,2.578 v 15.688 h -5.219 v -39.266 h 5.219 v 18.063 l 16.078,-18.063 h 6.359 l -16.234,17.532 17.187,21.734 m 26.141,-29.453 -15.844,40.312 h -5.297 l 5.266,-12.281 -10.703,-28.031 h 5.359 l 8.031,21.812 8.016,-21.812 h 5.172"
     id="path320" />
  <path
     class="Lyrics"
     d="m 1158.398,357.867 c -4.69,0 -8.34,-1.323 -10.92,-3.968 -2.59,-2.646 -3.89,-6.407 -3.89,-11.282 0,-4.791 1.26,-8.606 3.77,-11.445 2.51,-2.838 5.79,-4.258 9.86,-4.258 1.83,0 3.45,0.263 4.86,0.789 1.4,0.526 2.63,1.352 3.68,2.477 1.06,1.125 1.86,2.5 2.43,4.125 0.56,1.625 0.84,3.614 0.84,5.969 v 2.687 h -20.41 c 0,3.427 0.87,6.047 2.59,7.86 1.72,1.812 4.11,2.718 7.15,2.718 1.08,0 2.15,-0.122 3.19,-0.367 1.05,-0.245 2,-0.56 2.84,-0.945 0.9,-0.406 1.65,-0.8 2.26,-1.18 0.62,-0.38 1.13,-0.737 1.54,-1.07 h 0.29 v 5.406 c -0.58,0.229 -1.3,0.516 -2.16,0.859 -0.86,0.344 -1.63,0.615 -2.32,0.813 -0.97,0.26 -1.85,0.461 -2.63,0.601 -0.78,0.141 -1.77,0.211 -2.97,0.211 m 5.8,-18.703 c -0.03,-1.333 -0.19,-2.482 -0.47,-3.445 -0.28,-0.964 -0.68,-1.784 -1.22,-2.461 -0.57,-0.729 -1.31,-1.289 -2.21,-1.68 -0.91,-0.39 -2.04,-0.586 -3.38,-0.586 -1.31,0 -2.43,0.198 -3.35,0.594 -0.92,0.396 -1.76,0.974 -2.52,1.735 -0.74,0.77 -1.31,1.627 -1.69,2.57 -0.39,0.943 -0.63,2.034 -0.74,3.273 h 15.58"
     id="path322" />
  <path
     class="Lyrics"
     d="m 1039.948,457.467 c -4.7,0 -8.34,-1.322 -10.93,-3.968 -2.59,-2.646 -3.88,-6.407 -3.88,-11.282 0,-4.791 1.26,-8.606 3.77,-11.445 2.51,-2.838 5.79,-4.258 9.86,-4.258 1.83,0 3.45,0.263 4.85,0.789 1.41,0.526 2.64,1.352 3.69,2.477 1.05,1.125 1.86,2.5 2.42,4.125 0.57,1.625 0.85,3.615 0.85,5.969 v 2.687 h -20.41 c 0,3.427 0.86,6.047 2.59,7.86 1.72,1.812 4.1,2.718 7.15,2.718 1.08,0 2.14,-0.122 3.19,-0.367 1.05,-0.245 1.99,-0.56 2.84,-0.945 0.89,-0.406 1.65,-0.8 2.26,-1.18 0.62,-0.38 1.13,-0.737 1.53,-1.07 h 0.3 v 5.406 c -0.58,0.229 -1.3,0.516 -2.16,0.859 -0.86,0.344 -1.64,0.615 -2.32,0.813 -0.97,0.26 -1.85,0.461 -2.63,0.602 -0.78,0.14 -1.77,0.21 -2.97,0.21 m 5.8,-18.703 c -0.03,-1.333 -0.19,-2.481 -0.47,-3.445 -0.28,-0.964 -0.69,-1.784 -1.22,-2.461 -0.57,-0.729 -1.31,-1.289 -2.22,-1.68 -0.9,-0.39 -2.03,-0.586 -3.37,-0.586 -1.31,0 -2.43,0.198 -3.35,0.594 -0.93,0.396 -1.77,0.974 -2.53,1.735 -0.74,0.77 -1.3,1.627 -1.68,2.57 -0.39,0.943 -0.63,2.034 -0.74,3.273 h 15.58"
     id="path324" />
  <path
     class="Lyrics"
     d="m 457.19901,456.78 h -6.781 l -14.312,-18.266 -2.297,2.578 v 15.688 h -5.219 v -39.266 h 5.219 v 18.063 l 16.078,-18.063 h 6.359 l -16.234,17.532 17.187,21.734 m 26.141,-29.453 -15.844,40.312 h -5.297 l 5.266,-12.281 -10.703,-28.031 h 5.359 l 8.031,21.812 8.016,-21.812 h 5.172"
     id="path326" />
  <path
     class="Lyrics"
     d="m 1407.858,457.467 c -4.69,0 -8.34,-1.322 -10.93,-3.968 -2.58,-2.646 -3.88,-6.407 -3.88,-11.282 0,-4.791 1.26,-8.606 3.77,-11.445 2.51,-2.838 5.79,-4.258 9.86,-4.258 1.83,0 3.45,0.263 4.86,0.789 1.4,0.526 2.63,1.352 3.68,2.477 1.05,1.125 1.86,2.5 2.42,4.125 0.57,1.625 0.85,3.615 0.85,5.969 v 2.687 h -20.41 c 0,3.427 0.86,6.047 2.59,7.86 1.72,1.812 4.1,2.718 7.15,2.718 1.08,0 2.14,-0.122 3.19,-0.367 1.05,-0.245 1.99,-0.56 2.84,-0.945 0.89,-0.406 1.65,-0.8 2.26,-1.18 0.62,-0.38 1.13,-0.737 1.53,-1.07 h 0.3 v 5.406 c -0.58,0.229 -1.3,0.516 -2.16,0.859 -0.86,0.344 -1.64,0.615 -2.32,0.813 -0.97,0.26 -1.85,0.461 -2.63,0.602 -0.78,0.14 -1.77,0.21 -2.97,0.21 m 5.8,-18.703 c -0.03,-1.333 -0.19,-2.481 -0.47,-3.445 -0.28,-0.964 -0.69,-1.784 -1.22,-2.461 -0.57,-0.729 -1.31,-1.289 -2.22,-1.68 -0.9,-0.39 -2.03,-0.586 -3.37,-0.586 -1.31,0 -2.43,0.198 -3.35,0.594 -0.92,0.396 -1.77,0.974 -2.53,1.735 -0.74,0.77 -1.3,1.627 -1.68,2.57 -0.39,0.943 -0.63,2.034 -0.74,3.273 h 15.58"
     id="path328" />
  <path
     class="Lyrics"
     d="m 829.23801,432.655 h -0.265 c -0.375,-0.104 -0.769,-0.169 -1.18,-0.195 -0.411,-0.026 -0.909,-0.039 -1.492,-0.039 -1.334,0 -2.659,0.289 -3.977,0.867 -1.317,0.578 -2.565,1.44 -3.742,2.586 v 20.906 h -4.953 v -29.453 h 4.953 v 4.375 c 1.813,-1.594 3.391,-2.722 4.734,-3.383 1.344,-0.661 2.646,-0.992 3.907,-0.992 0.51,0 0.893,0.013 1.148,0.039 0.255,0.026 0.544,0.065 0.867,0.117 v 5.172 m 8.453,24.125 h -4.968 v -29.453 h 4.968 v 29.453 m 0.329,-34.391 h -5.641 v -5.14 h 5.641 v 5.14"
     id="path330" />
  <path
     class="Lyrics"
     d="m 829.23801,783.851 h -0.265 c -0.375,-0.1 -0.769,-0.16 -1.18,-0.19 -0.411,-0.03 -0.909,-0.04 -1.492,-0.04 -1.334,0 -2.659,0.29 -3.977,0.87 -1.317,0.58 -2.565,1.44 -3.742,2.58 v 20.91 h -4.953 v -29.45 h 4.953 v 4.37 c 1.813,-1.59 3.391,-2.72 4.734,-3.38 1.344,-0.66 2.646,-0.99 3.907,-0.99 0.51,0 0.893,0.01 1.148,0.04 0.255,0.02 0.544,0.06 0.867,0.11 v 5.17 m 8.453,24.13 h -4.968 v -29.45 h 4.968 v 29.45 m 0.329,-34.39 h -5.641 v -5.14 h 5.641 v 5.14"
     id="path332" />
  <path
     class="Lyrics"
     d="m 1279.688,807.981 h -4.97 v -41.03 h 4.97 v 41.03 m 19.72,0.69 c -4.7,0 -8.34,-1.33 -10.93,-3.97 -2.59,-2.65 -3.88,-6.41 -3.88,-11.28 0,-4.79 1.25,-8.61 3.76,-11.45 2.51,-2.84 5.8,-4.26 9.86,-4.26 1.84,0 3.46,0.27 4.86,0.79 1.41,0.53 2.64,1.35 3.69,2.48 1.05,1.12 1.86,2.5 2.42,4.12 0.56,1.63 0.85,3.62 0.85,5.97 v 2.69 h -20.41 c 0,3.43 0.86,6.05 2.59,7.86 1.72,1.81 4.1,2.72 7.14,2.72 1.09,0 2.15,-0.12 3.2,-0.37 1.05,-0.24 1.99,-0.56 2.84,-0.94 0.89,-0.41 1.65,-0.8 2.26,-1.18 0.62,-0.38 1.13,-0.74 1.53,-1.07 h 0.3 v 5.4 c -0.58,0.23 -1.31,0.52 -2.16,0.86 -0.86,0.35 -1.64,0.62 -2.33,0.81 -0.96,0.26 -1.84,0.47 -2.62,0.61 -0.78,0.14 -1.77,0.21 -2.97,0.21 m 5.8,-18.71 c -0.03,-1.33 -0.19,-2.48 -0.47,-3.44 -0.28,-0.97 -0.69,-1.79 -1.22,-2.46 -0.57,-0.73 -1.31,-1.29 -2.22,-1.68 -0.9,-0.39 -2.03,-0.59 -3.37,-0.59 -1.32,0 -2.43,0.2 -3.35,0.6 -0.93,0.39 -1.77,0.97 -2.53,1.73 -0.74,0.77 -1.3,1.63 -1.69,2.57 -0.38,0.94 -0.63,2.03 -0.73,3.27 h 15.58"
     id="path334" />
  <path
     class="Lyrics"
     d="m 1158.398,808.671 c -4.69,0 -8.34,-1.33 -10.92,-3.97 -2.59,-2.65 -3.89,-6.41 -3.89,-11.28 0,-4.79 1.26,-8.61 3.77,-11.45 2.51,-2.84 5.79,-4.26 9.86,-4.26 1.83,0 3.45,0.27 4.86,0.79 1.4,0.53 2.63,1.35 3.68,2.48 1.06,1.12 1.86,2.5 2.43,4.12 0.56,1.63 0.84,3.62 0.84,5.97 v 2.69 h -20.41 c 0,3.43 0.87,6.05 2.59,7.86 1.72,1.81 4.11,2.72 7.15,2.72 1.08,0 2.15,-0.12 3.19,-0.37 1.05,-0.24 2,-0.56 2.84,-0.94 0.9,-0.41 1.65,-0.8 2.26,-1.18 0.62,-0.38 1.13,-0.74 1.54,-1.07 h 0.29 v 5.4 c -0.58,0.23 -1.3,0.52 -2.16,0.86 -0.86,0.35 -1.63,0.62 -2.32,0.81 -0.97,0.26 -1.85,0.47 -2.63,0.61 -0.78,0.14 -1.77,0.21 -2.97,0.21 m 5.8,-18.71 c -0.03,-1.33 -0.19,-2.48 -0.47,-3.44 -0.28,-0.97 -0.68,-1.79 -1.22,-2.46 -0.57,-0.73 -1.31,-1.29 -2.21,-1.68 -0.91,-0.39 -2.04,-0.59 -3.38,-0.59 -1.31,0 -2.43,0.2 -3.35,0.6 -0.92,0.39 -1.76,0.97 -2.52,1.73 -0.74,0.77 -1.31,1.63 -1.69,2.57 -0.39,0.94 -0.63,2.03 -0.74,3.27 h 15.58"
     id="path336" />
  <path
     class="Lyrics"
     d="m 1043.268,808.671 c -4.7,0 -8.34,-1.33 -10.93,-3.97 -2.59,-2.65 -3.88,-6.41 -3.88,-11.28 0,-4.79 1.25,-8.61 3.76,-11.45 2.51,-2.84 5.8,-4.26 9.86,-4.26 1.84,0 3.46,0.27 4.86,0.79 1.41,0.53 2.64,1.35 3.69,2.48 1.05,1.12 1.86,2.5 2.42,4.12 0.56,1.63 0.85,3.62 0.85,5.97 v 2.69 h -20.41 c 0,3.43 0.86,6.05 2.58,7.86 1.73,1.81 4.11,2.72 7.15,2.72 1.09,0 2.15,-0.12 3.2,-0.37 1.05,-0.24 1.99,-0.56 2.83,-0.94 0.9,-0.41 1.66,-0.8 2.27,-1.18 0.61,-0.38 1.13,-0.74 1.53,-1.07 h 0.3 v 5.4 c -0.58,0.23 -1.31,0.52 -2.17,0.86 -0.86,0.35 -1.63,0.62 -2.32,0.81 -0.96,0.26 -1.84,0.47 -2.62,0.61 -0.78,0.14 -1.77,0.21 -2.97,0.21 m 5.8,-18.71 c -0.03,-1.33 -0.19,-2.48 -0.47,-3.44 -0.28,-0.97 -0.69,-1.79 -1.22,-2.46 -0.57,-0.73 -1.31,-1.29 -2.22,-1.68 -0.91,-0.39 -2.03,-0.59 -3.37,-0.59 -1.32,0 -2.43,0.2 -3.36,0.6 -0.92,0.39 -1.76,0.97 -2.52,1.73 -0.74,0.77 -1.3,1.63 -1.69,2.57 -0.38,0.94 -0.63,2.03 -0.73,3.27 h 15.58"
     id="path338" />
  <path
     class="Lyrics"
     d="m 444.30301,807.981 h -6.781 l -14.312,-18.27 -2.297,2.58 v 15.69 h -5.219 v -39.27 h 5.219 v 18.07 l 16.078,-18.07 h 6.359 l -16.234,17.53 17.187,21.74 m 26.141,-29.45 -15.844,40.31 h -5.297 l 5.266,-12.28 -10.703,-28.03 h 5.359 l 8.031,21.81 8.016,-21.81 h 5.172"
     id="path340" />
  <polyline
     class="LyricsLineSegment"
     fill="none"
     stroke="#000000"
     stroke-width="2.48"
     stroke-linejoin="bevel"
     points="922.475,315.479 942.315,315.479"
     id="polyline342"
     transform="translate(-5.8019875,-293.619)" />
  <polyline
     class="LyricsLineSegment"
     fill="none"
     stroke="#000000"
     stroke-width="2.48"
     stroke-linejoin="bevel"
     points="554.775,315.479 574.615,315.479"
     id="polyline344"
     transform="translate(-5.8019875,-293.619)" />
  <polyline
     class="LyricsLineSegment"
     fill="none"
     stroke="#000000"
     stroke-width="3.97"
     stroke-linejoin="bevel"
     points="1057.37,331.166 1504.36,331.166"
     id="polyline346"
     transform="translate(-5.8019875,-293.619)" />
  <polyline
     class="LyricsLineSegment"
     fill="none"
     stroke="#000000"
     stroke-width="2.48"
     stroke-linejoin="bevel"
     points="637.754,633.127 657.594,633.127"
     id="polyline348"
     transform="translate(-5.8019875,-293.619)" />
  <polyline
     class="LyricsLineSegment"
     fill="none"
     stroke="#000000"
     stroke-width="2.48"
     stroke-linejoin="bevel"
     points="928.846,633.127 948.686,633.127"
     id="polyline350"
     transform="translate(-5.8019875,-293.619)" />
  <polyline
     class="LyricsLineSegment"
     fill="none"
     stroke="#000000"
     stroke-width="2.48"
     stroke-linejoin="bevel"
     points="1497.5,633.127 1517.34,633.127"
     id="polyline352"
     transform="translate(-5.8019875,-293.619)" />
  <polyline
     class="LyricsLineSegment"
     fill="none"
     stroke="#000000"
     stroke-width="2.48"
     stroke-linejoin="bevel"
     points="1858.19,633.127 1878.03,633.127"
     id="polyline354"
     transform="translate(-5.8019875,-293.619)" />
  <polyline
     class="LyricsLineSegment"
     fill="none"
     stroke="#000000"
     stroke-width="2.48"
     stroke-linejoin="bevel"
     points="1217.41,633.127 1237.25,633.127"
     id="polyline356"
     transform="translate(-5.8019875,-293.619)" />
  <polyline
     class="LyricsLineSegment"
     fill="none"
     stroke="#000000"
     stroke-width="3.97"
     stroke-linejoin="bevel"
     points="1058.86,748.415 1312.47,748.415"
     id="polyline358"
     transform="translate(-5.8019875,-293.619)" />
  <polyline
     class="LyricsLineSegment"
     fill="none"
     stroke="#000000"
     stroke-width="2.48"
     stroke-linejoin="bevel"
     points="644.202,732.727 664.042,732.727"
     id="polyline360"
     transform="translate(-5.8019875,-293.619)" />
  <polyline
     class="LyricsLineSegment"
     fill="none"
     stroke="#000000"
     stroke-width="2.48"
     stroke-linejoin="bevel"
     points="927.187,732.727 947.027,732.727"
     id="polyline362"
     transform="translate(-5.8019875,-293.619)" />
  <polyline
     class="LyricsLineSegment"
     fill="none"
     stroke="#000000"
     stroke-width="2.48"
     stroke-linejoin="bevel"
     points="1494.57,732.727 1514.41,732.727"
     id="polyline364"
     transform="translate(-5.8019875,-293.619)" />
  <polyline
     class="LyricsLineSegment"
     fill="none"
     stroke="#000000"
     stroke-width="2.48"
     stroke-linejoin="bevel"
     points="928.846,1083.93 948.686,1083.93"
     id="polyline366"
     transform="translate(-5.8019875,-293.619)" />
  <polyline
     class="LyricsLineSegment"
     fill="none"
     stroke="#000000"
     stroke-width="2.48"
     stroke-linejoin="bevel"
     points="637.754,1083.93 657.594,1083.93"
     id="polyline368"
     transform="translate(-5.8019875,-293.619)" />
  <polyline
     class="LyricsLineSegment"
     fill="none"
     stroke="#000000"
     stroke-width="2.48"
     stroke-linejoin="bevel"
     points="1550.86,1083.93 1570.7,1083.93"
     id="polyline370"
     transform="translate(-5.8019875,-293.619)" />
  <polyline
     class="LyricsLineSegment"
     fill="none"
     stroke="#000000"
     stroke-width="2.48"
     stroke-linejoin="bevel"
     points="1217.41,1083.93 1237.25,1083.93"
     id="polyline372"
     transform="translate(-5.8019875,-293.619)" />
  <path
     class="NoteDot"
     d="m 1079.528,556.98 c 0,-2.77451 -2.1855,-4.96001 -4.96,-4.96001 -2.7745,0 -4.96,2.1855 -4.96,4.96001 0,2.77451 2.1855,4.96001 4.96,4.96001 2.7745,0 4.96,-2.1855 4.96,-4.96001"
     id="path376"
     style="stroke-width:0.992001" />
  <path
     class="NoteDot"
     d="m 1632.1485,583.44739 c 0,-2.77451 -2.1855,-4.96001 -4.96,-4.96001 -2.7745,0 -4.96,2.1855 -4.96,4.96001 0,2.77451 2.1855,4.96001 4.96,4.96001 2.7745,0 4.96,-2.1855 4.96,-4.96001"
     id="path376-0"
     style="stroke-width:0.992001" />
  <path
     class="NoteDot"
     d="m 1632.1485,629.14241 c 0,-2.77451 -2.1855,-4.96001 -4.96,-4.96001 -2.7745,0 -4.96,2.1855 -4.96,4.96001 0,2.77451 2.1855,4.96001 4.96,4.96001 2.7745,0 4.96,-2.1855 4.96,-4.96001"
     id="path376-0-3"
     style="stroke-width:0.992001" />
  <path
     class="NoteDot"
     d="m 1627.6905,211.75741 c 0,-2.77451 -2.1855,-4.96001 -4.96,-4.96001 -2.7745,0 -4.96,2.1855 -4.96,4.96001 0,2.77451 2.1855,4.96001 4.96,4.96001 2.7745,0 4.96,-2.1855 4.96,-4.96001"
     id="path376-0-3-9"
     style="stroke-width:0.992001" />
  <path
     class="Bracket"
     d="M 6.4615625,394.19973 C 16.912437,383.31021 28.768018,340.69119 28.768018,305.20608 c 0,-3.00401 0,-6.57096 -0.393331,-9.57497 -2.472249,-36.04806 -13.260249,-91.90392 -13.260249,-124.38503 0,-31.26028 8.25958,-61.30033 10.05758,-66.65106 1.067544,-3.66128 1.798,-4.22423 1.798,-6.00801 0,-1.877503 -1.06758,-4.224232 -2.191331,-4.224232 -0.67425,0 -1.404669,1.220227 -2.865544,4.224232 -7.922455,16.14653 -17.5867055,51.06809 -17.5867055,111.14819 0,59.42282 12.5859995,83.45486 12.5859995,121.38042 0,28.16255 -6.854874,43.83985 -16.912437,63.08411 6.4615625,12.01602 16.912437,21.59158 16.912437,60.64365 0,42.05607 -12.5859995,79.32436 -12.5859995,123.1642 0,60.07992 9.6642505,94.90764 17.5867055,111.80516 1.460875,3.00401 2.191294,3.56726 2.865544,3.56726 1.123751,0 2.191331,-1.78363 2.191331,-3.56726 0,-1.8775 -0.393331,-3.004 -1.798,-6.66516 -1.798,-4.78761 -10.05758,-34.82766 -10.05758,-66.65148 0,-31.82383 10.788,-88.33638 13.260249,-123.82148 0.393331,-3.00401 0.393331,-6.00801 0.393331,-9.57497 0,-35.48511 -11.855581,-78.10413 -22.3064555,-88.89992"
     id="path382"
     style="stroke-width:4.6481" />
  <metadata
     id="metadata1780">
    <rdf:RDF>
      <cc:Work
         rdf:about="">
        <dc:title>Stiluebung-1a</dc:title>
      </cc:Work>
    </rdf:RDF>
  </metadata>
</svg>
