<?xml version="1.0" encoding="UTF-8" standalone="no"?>
<svg
   width="2588.7246"
   height="781.79303"
   viewBox="0 0 2588.7247 781.79305"
   version="1.2"
   id="svg340"
   sodipodi:docname="Stiluebung-2a-1.svg"
   inkscape:version="1.2.1 (9c6d41e410, 2022-07-14)"
   xmlns:inkscape="http://www.inkscape.org/namespaces/inkscape"
   xmlns:sodipodi="http://sodipodi.sourceforge.net/DTD/sodipodi-0.dtd"
   xmlns="http://www.w3.org/2000/svg"
   xmlns:svg="http://www.w3.org/2000/svg">
  <defs
     id="defs344" />
  <sodipodi:namedview
     id="namedview342"
     pagecolor="#505050"
     bordercolor="#eeeeee"
     borderopacity="1"
     inkscape:showpageshadow="0"
     inkscape:pageopacity="0"
     inkscape:pagecheckerboard="0"
     inkscape:deskcolor="#505050"
     showgrid="false"
     inkscape:zoom="0.70771168"
     inkscape:cx="1393.2227"
     inkscape:cy="731.93649"
     inkscape:current-layer="svg340" />
  <title
     id="title2">Stiluebung-2a</title>
  <desc
     id="desc4">Generated by MuseScore 4.0.0</desc>
  <polyline
     class="StaffLines"
     fill="none"
     stroke="#000000"
     stroke-width="3.22"
     stroke-linejoin="bevel"
     points="212.598,386.199 2764.6,386.199"
     id="polyline8"
     style="fill:#000000"
     transform="translate(-175.88044,-282.867)" />
  <polyline
     class="StaffLines"
     fill="none"
     stroke="#000000"
     stroke-width="3.22"
     stroke-linejoin="bevel"
     points="212.598,410.999 2764.6,410.999"
     id="polyline10"
     style="fill:#000000"
     transform="translate(-175.88044,-282.867)" />
  <polyline
     class="StaffLines"
     fill="none"
     stroke="#000000"
     stroke-width="3.22"
     stroke-linejoin="bevel"
     points="212.598,435.799 2764.6,435.799"
     id="polyline12"
     style="fill:#000000"
     transform="translate(-175.88044,-282.867)" />
  <polyline
     class="StaffLines"
     fill="none"
     stroke="#000000"
     stroke-width="3.22"
     stroke-linejoin="bevel"
     points="212.598,460.599 2764.6,460.599"
     id="polyline14"
     style="fill:#000000"
     transform="translate(-175.88044,-282.867)" />
  <polyline
     class="StaffLines"
     fill="none"
     stroke="#000000"
     stroke-width="3.22"
     stroke-linejoin="bevel"
     points="212.598,485.399 2764.6,485.399"
     id="polyline16"
     style="fill:#000000"
     transform="translate(-175.88044,-282.867)" />
  <polyline
     class="StaffLines"
     fill="none"
     stroke="#000000"
     stroke-width="3.22"
     stroke-linejoin="bevel"
     points="212.598,817.799 2764.6,817.799"
     id="polyline18"
     style="fill:#000000"
     transform="translate(-175.88044,-282.867)" />
  <polyline
     class="StaffLines"
     fill="none"
     stroke="#000000"
     stroke-width="3.22"
     stroke-linejoin="bevel"
     points="212.598,842.599 2764.6,842.599"
     id="polyline20"
     style="fill:#000000"
     transform="translate(-175.88044,-282.867)" />
  <polyline
     class="StaffLines"
     fill="none"
     stroke="#000000"
     stroke-width="3.22"
     stroke-linejoin="bevel"
     points="212.598,867.399 2764.6,867.399"
     id="polyline22"
     style="fill:#000000"
     transform="translate(-175.88044,-282.867)" />
  <polyline
     class="StaffLines"
     fill="none"
     stroke="#000000"
     stroke-width="3.22"
     stroke-linejoin="bevel"
     points="212.598,892.199 2764.6,892.199"
     id="polyline24"
     style="fill:#000000"
     transform="translate(-175.88044,-282.867)" />
  <polyline
     class="StaffLines"
     fill="none"
     stroke="#000000"
     stroke-width="3.22"
     stroke-linejoin="bevel"
     points="212.598,916.999 2764.6,916.999"
     id="polyline26"
     style="fill:#000000"
     transform="translate(-175.88044,-282.867)" />
  <path
     class="TieSegment"
     stroke="#000000"
     stroke-width="2.48"
     stroke-linecap="round"
     stroke-linejoin="round"
     fill-rule="evenodd"
     d="m 623.73656,491.656 c 33.234,-28.234 132.937,-28.234 166.172,0 -33.235,-22.282 -132.938,-22.282 -166.172,0"
     id="path28"
     style="fill:#000000" />
  <polyline
     class="BarLine"
     stroke="#000000"
     stroke-width="3.97"
     stroke-linejoin="bevel"
     points="214.582,384.587 214.582,817.799"
     id="polyline30"
     style="fill:#000000"
     transform="translate(-175.88044,-282.867)" />
  <polyline
     class="BarLine"
     stroke="#000000"
     stroke-width="3.97"
     stroke-linejoin="bevel"
     points="911.899,384.587 911.899,817.799"
     id="polyline32"
     style="fill:#000000"
     transform="translate(-175.88044,-282.867)" />
  <polyline
     class="BarLine"
     stroke="#000000"
     stroke-width="3.97"
     stroke-linejoin="bevel"
     points="2326.69,384.587 2326.69,817.799"
     id="polyline34"
     style="fill:#000000"
     transform="translate(-175.88044,-282.867)" />
  <polyline
     class="BarLine"
     stroke="#000000"
     stroke-width="3.97"
     stroke-linejoin="bevel"
     points="1401.96,384.587 1401.96,817.799"
     id="polyline36"
     style="fill:#000000"
     transform="translate(-175.88044,-282.867)" />
  <polyline
     class="BarLine"
     stroke="#000000"
     stroke-width="3.97"
     stroke-linejoin="bevel"
     points="1885.57,384.587 1885.57,817.799"
     id="polyline38"
     style="fill:#000000"
     transform="translate(-175.88044,-282.867)" />
  <polyline
     class="BarLine"
     stroke="#000000"
     stroke-width="3.97"
     stroke-linejoin="bevel"
     points="2614.56,384.587 2614.56,817.799"
     id="polyline40"
     style="fill:#000000"
     transform="translate(-175.88044,-282.867)" />
  <polyline
     class="BarLine"
     stroke="#000000"
     stroke-width="3.97"
     stroke-linejoin="bevel"
     points="2762.62,384.587 2762.62,817.799"
     id="polyline42"
     style="fill:#000000"
     transform="translate(-175.88044,-282.867)" />
  <polyline
     class="BarLine"
     stroke="#000000"
     stroke-width="3.97"
     stroke-linejoin="bevel"
     points="2614.56,816.187 2614.56,918.611"
     id="polyline44"
     style="fill:#000000"
     transform="translate(-175.88044,-282.867)" />
  <polyline
     class="BarLine"
     stroke="#000000"
     stroke-width="3.97"
     stroke-linejoin="bevel"
     points="911.899,816.187 911.899,918.611"
     id="polyline46"
     style="fill:#000000"
     transform="translate(-175.88044,-282.867)" />
  <polyline
     class="BarLine"
     stroke="#000000"
     stroke-width="3.97"
     stroke-linejoin="bevel"
     points="214.582,816.187 214.582,918.611"
     id="polyline48"
     style="fill:#000000"
     transform="translate(-175.88044,-282.867)" />
  <polyline
     class="BarLine"
     stroke="#000000"
     stroke-width="3.97"
     stroke-linejoin="bevel"
     points="2326.69,816.187 2326.69,918.611"
     id="polyline50"
     style="fill:#000000"
     transform="translate(-175.88044,-282.867)" />
  <polyline
     class="BarLine"
     stroke="#000000"
     stroke-width="3.97"
     stroke-linejoin="bevel"
     points="2762.62,816.187 2762.62,918.611"
     id="polyline54"
     style="fill:#000000"
     transform="translate(-175.88044,-282.867)" />
  <polyline
     class="LedgerLine"
     stroke="#000000"
     stroke-width="3.97"
     stroke-linejoin="bevel"
     points="410.65,510.199 463.125,510.199"
     id="polyline58"
     style="fill:#000000"
     transform="translate(-175.88044,-282.867)" />
  <polyline
     class="LedgerLine"
     stroke="#000000"
     stroke-width="3.97"
     stroke-linejoin="bevel"
     points="522.5,510.199 574.976,510.199"
     id="polyline60"
     style="fill:#000000"
     transform="translate(-175.88044,-282.867)" />
  <polyline
     class="LedgerLine"
     stroke="#000000"
     stroke-width="3.97"
     stroke-linejoin="bevel"
     points="2021.72,510.199 2087.09,510.199"
     id="polyline62"
     style="fill:#000000"
     transform="translate(-175.88044,-282.867)" />
  <polyline
     class="LedgerLine"
     stroke="#000000"
     stroke-width="3.97"
     stroke-linejoin="bevel"
     points="942.651,792.999 995.126,792.999"
     id="polyline64"
     style="fill:#000000"
     transform="translate(-175.88044,-282.867)" />
  <polyline
     class="LedgerLine"
     stroke="#000000"
     stroke-width="3.97"
     stroke-linejoin="bevel"
     points="1166.35,792.999 1218.83,792.999"
     id="polyline66"
     style="fill:#000000"
     transform="translate(-175.88044,-282.867)" />
  <polyline
     class="LedgerLine"
     stroke="#000000"
     stroke-width="3.97"
     stroke-linejoin="bevel"
     points="750.861,792.999 803.337,792.999"
     id="polyline68"
     style="fill:#000000"
     transform="translate(-175.88044,-282.867)" />
  <polyline
     class="Stem"
     stroke="#000000"
     stroke-width="2.98"
     stroke-linejoin="bevel"
     points="451.717,481.232 451.717,398.599"
     id="polyline70"
     style="fill:#000000"
     transform="translate(-175.88044,-282.867)" />
  <polyline
     class="Stem"
     stroke="#000000"
     stroke-width="2.98"
     stroke-linejoin="bevel"
     points="791.929,456.432 791.929,373.799"
     id="polyline72"
     style="fill:#000000"
     transform="translate(-175.88044,-282.867)" />
  <polyline
     class="Stem"
     stroke="#000000"
     stroke-width="2.98"
     stroke-linejoin="bevel"
     points="1319.27,419.232 1319.27,355.199"
     id="polyline74"
     style="fill:#000000"
     transform="translate(-175.88044,-282.867)" />
  <polyline
     class="Stem"
     stroke="#000000"
     stroke-width="2.98"
     stroke-linejoin="bevel"
     points="1467.33,419.232 1467.33,355.199"
     id="polyline76"
     style="fill:#000000"
     transform="translate(-175.88044,-282.867)" />
  <polyline
     class="Stem"
     stroke="#000000"
     stroke-width="2.98"
     stroke-linejoin="bevel"
     points="717.362,468.832 717.362,386.199"
     id="polyline78"
     style="fill:#000000"
     transform="translate(-175.88044,-282.867)" />
  <polyline
     class="Stem"
     stroke="#000000"
     stroke-width="2.98"
     stroke-linejoin="bevel"
     points="1579.18,419.232 1579.18,355.199"
     id="polyline80"
     style="fill:#000000"
     transform="translate(-175.88044,-282.867)" />
  <polyline
     class="Stem"
     stroke="#000000"
     stroke-width="2.98"
     stroke-linejoin="bevel"
     points="1802.88,431.632 1802.88,361.399"
     id="polyline82"
     style="fill:#000000"
     transform="translate(-175.88044,-282.867)" />
  <polyline
     class="Stem"
     stroke="#000000"
     stroke-width="2.98"
     stroke-linejoin="bevel"
     points="1691.03,431.632 1691.03,361.399"
     id="polyline84"
     style="fill:#000000"
     transform="translate(-175.88044,-282.867)" />
  <polyline
     class="Stem"
     stroke="#000000"
     stroke-width="2.98"
     stroke-linejoin="bevel"
     points="563.567,481.232 563.567,398.599"
     id="polyline86"
     style="fill:#000000"
     transform="translate(-175.88044,-282.867)" />
  <polyline
     class="Stem"
     stroke="#000000"
     stroke-width="2.98"
     stroke-linejoin="bevel"
     points="1927.73,501.965 1927.73,559.799"
     id="polyline88"
     style="fill:#000000"
     transform="translate(-175.88044,-282.867)" />
  <polyline
     class="Stem"
     stroke="#000000"
     stroke-width="2.98"
     stroke-linejoin="bevel"
     points="1661.37,489.565 1661.37,547.399"
     id="polyline90"
     style="fill:#000000"
     transform="translate(-175.88044,-282.867)" />
  <polyline
     class="Stem"
     stroke="#000000"
     stroke-width="2.98"
     stroke-linejoin="bevel"
     points="533.908,514.365 533.908,572.199"
     id="polyline92"
     style="fill:#000000"
     transform="translate(-175.88044,-282.867)" />
  <polyline
     class="Stem"
     stroke="#000000"
     stroke-width="2.98"
     stroke-linejoin="bevel"
     points="1437.67,489.565 1437.67,547.399"
     id="polyline94"
     style="fill:#000000"
     transform="translate(-175.88044,-282.867)" />
  <polyline
     class="Stem"
     stroke="#000000"
     stroke-width="2.98"
     stroke-linejoin="bevel"
     points="1549.52,489.565 1549.52,547.399"
     id="polyline96"
     style="fill:#000000"
     transform="translate(-175.88044,-282.867)" />
  <polyline
     class="Stem"
     stroke="#000000"
     stroke-width="2.98"
     stroke-linejoin="bevel"
     points="1773.22,501.965 1773.22,559.799"
     id="polyline98"
     style="fill:#000000"
     transform="translate(-175.88044,-282.867)" />
  <polyline
     class="Stem"
     stroke="#000000"
     stroke-width="2.98"
     stroke-linejoin="bevel"
     points="422.058,514.365 422.058,572.199"
     id="polyline100"
     style="fill:#000000"
     transform="translate(-175.88044,-282.867)" />
  <polyline
     class="Stem"
     stroke="#000000"
     stroke-width="2.98"
     stroke-linejoin="bevel"
     points="1177.76,489.565 1177.76,547.399"
     id="polyline102"
     style="fill:#000000"
     transform="translate(-175.88044,-282.867)" />
  <polyline
     class="Stem"
     stroke="#000000"
     stroke-width="2.98"
     stroke-linejoin="bevel"
     points="1207.42,788.833 1207.42,730.999"
     id="polyline106"
     style="fill:#000000"
     transform="translate(-175.88044,-282.867)" />
  <polyline
     class="Stem"
     stroke="#000000"
     stroke-width="2.98"
     stroke-linejoin="bevel"
     points="791.929,788.833 791.929,730.999"
     id="polyline108"
     style="fill:#000000"
     transform="translate(-175.88044,-282.867)" />
  <polyline
     class="Stem"
     stroke="#000000"
     stroke-width="2.98"
     stroke-linejoin="bevel"
     points="451.717,826.033 451.717,768.199"
     id="polyline110"
     style="fill:#000000"
     transform="translate(-175.88044,-282.867)" />
  <polyline
     class="Stem"
     stroke="#000000"
     stroke-width="2.98"
     stroke-linejoin="bevel"
     points="1095.57,801.233 1095.57,743.399"
     id="polyline114"
     style="fill:#000000"
     transform="translate(-175.88044,-282.867)" />
  <polyline
     class="Stem"
     stroke="#000000"
     stroke-width="2.98"
     stroke-linejoin="bevel"
     points="983.718,788.833 983.718,730.999"
     id="polyline122"
     style="fill:#000000"
     transform="translate(-175.88044,-282.867)" />
  <polyline
     class="Stem"
     stroke="#000000"
     stroke-width="2.98"
     stroke-linejoin="bevel"
     points="836.836,846.765 836.836,929.399"
     id="polyline124"
     style="fill:#000000"
     transform="translate(-175.88044,-282.867)" />
  <polyline
     class="Stem"
     stroke="#000000"
     stroke-width="2.98"
     stroke-linejoin="bevel"
     points="422.058,883.966 422.058,947.999"
     id="polyline128"
     style="fill:#000000"
     transform="translate(-175.88044,-282.867)" />
  <polyline
     class="Stem"
     stroke="#000000"
     stroke-width="2.98"
     stroke-linejoin="bevel"
     points="762.269,859.165 762.269,935.599"
     id="polyline130"
     style="fill:#000000"
     transform="translate(-175.88044,-282.867)" />
  <polyline
     class="Stem"
     stroke="#000000"
     stroke-width="2.98"
     stroke-linejoin="bevel"
     points="533.908,883.966 533.908,947.999"
     id="polyline134"
     style="fill:#000000"
     transform="translate(-175.88044,-282.867)" />
  <polyline
     class="Stem"
     stroke="#000000"
     stroke-width="2.98"
     stroke-linejoin="bevel"
     points="687.702,871.566 687.702,941.799"
     id="polyline136"
     style="fill:#000000"
     transform="translate(-175.88044,-282.867)" />
  <path
     class="Note"
     fill="#00aa00"
     d="m 1767.2216,151.73851 c -14.384,0 -23.312,6.06048 -23.312,13.39199 0,7.23851 6.1535,13.68656 22.227,13.68656 17.6545,0 23.3121,-6.13805 23.3121,-13.68656 0,-7.64151 -12.1986,-13.39199 -22.2271,-13.39199 m -2.7745,2.48 c 7.347,0 13.299,7.93598 13.299,14.49249 0,5.45601 -3.379,7.62606 -8.246,7.62606 -7.1455,0 -13.9811,-8.23055 -13.9811,-15.17457 0,-5.549 3.8596,-6.94398 8.9281,-6.94398"
     id="path140"
     style="fill:#000000;stroke-width:0.992001" />
  <path
     class="Note"
     d="m 793.55459,164.13851 c -14.38402,0 -23.31203,6.06048 -23.31203,13.39199 0,7.23851 6.15351,13.68656 22.22707,13.68656 17.65445,0 23.31203,-6.13805 23.31203,-13.68656 0,-7.64151 -12.19854,-13.39199 -22.22707,-13.39199 m -2.77453,2.48 c 7.34706,0 13.29906,7.93598 13.29906,14.49249 0,5.45601 -3.37905,7.62606 -8.24601,7.62606 -7.14548,0 -13.98106,-8.23055 -13.98106,-15.17457 0,-5.549 3.85958,-6.94398 8.92801,-6.94398"
     id="path142"
     style="fill:#000000;stroke-width:0.992001" />
  <path
     class="Note"
     d="m 255.4001,216.42001 c 18.25897,0 21.93255,-14.88001 21.93255,-18.44501 0,-5.65754 -4.46401,-9.33101 -10.91202,-9.33101 -16.56956,0 -21.73107,12.80301 -21.73107,18.55352 0,5.84355 4.66551,9.2225 10.71054,9.2225 m 8.43201,-8.835 c -4.96001,3.379 -8.43201,4.5725 -10.80354,4.5725 -2.294,0 -3.6735,-1.1935 -4.371,-2.5885 -0.403,-0.589 -0.6975,-1.3795 -0.6975,-2.17001 0,-5.363 15.98056,-14.19801 21.23499,-14.19801 2.07705,0 3.27053,0.992 4.06106,2.387 0.31,0.589 0.60452,1.2865 0.60452,2.07701 0,2.18549 -2.27853,4.867 -10.02853,9.92001"
     id="path144"
     style="fill:#000000;stroke-width:0.992001" />
  <path
     class="Note"
     d="m 521.0441,204.02001 c 9.82696,0 21.93255,-9.1295 21.93255,-18.55352 0,-5.54903 -4.46401,-9.2225 -10.81907,-9.2225 -12.1055,0 -21.82402,9.02101 -21.82402,18.55352 0,5.7505 4.75851,9.2225 10.71054,9.2225"
     id="path146"
     style="fill:#000000;stroke-width:0.992001" />
  <path
     class="Note"
     fill="#00aa00"
     d="m 1606.5601,166.82001 c 18.259,0 21.9325,-14.88001 21.9325,-18.44501 0,-5.65754 -4.464,-9.33101 -10.912,-9.33101 -16.5695,0 -21.731,12.80301 -21.731,18.55352 0,5.84355 4.6655,9.2225 10.7105,9.2225 m 8.432,-8.835 c -4.96,3.379 -8.432,4.5725 -10.8035,4.5725 -2.294,0 -3.6735,-1.1935 -4.371,-2.5885 -0.403,-0.589 -0.6975,-1.3795 -0.6975,-2.17001 0,-5.363 15.9805,-14.19801 21.235,-14.19801 2.077,0 3.2705,0.992 4.061,2.387 0.31,0.589 0.6045,1.2865 0.6045,2.07701 0,2.18549 -2.2785,4.867 -10.0285,9.92001"
     id="path148"
     style="fill:#000000;stroke-width:0.992001" />
  <path
     class="Note"
     fill="#00aa00"
     d="m 1382.8601,154.42001 c 18.259,0 21.9325,-14.88001 21.9325,-18.44501 0,-5.65754 -4.464,-9.33101 -10.912,-9.33101 -16.5695,0 -21.731,12.80301 -21.731,18.55352 0,5.84355 4.6655,9.2225 10.7105,9.2225 m 8.432,-8.835 c -4.96,3.379 -8.432,4.5725 -10.8035,4.5725 -2.294,0 -3.6735,-1.1935 -4.371,-2.5885 -0.403,-0.589 -0.6975,-1.3795 -0.6975,-2.17001 0,-5.363 15.9805,-14.19801 21.235,-14.19801 2.077,0 3.2705,0.992 4.061,2.387 0.31,0.589 0.6045,1.2865 0.6045,2.07701 0,2.18549 -2.2785,4.867 -10.0285,9.92001"
     id="path150"
     style="fill:#000000;stroke-width:0.992001" />
  <path
     class="Note"
     d="m 367.2501,216.42001 c 18.25897,0 21.93255,-14.88001 21.93255,-18.44501 0,-5.65754 -4.46401,-9.33101 -10.91202,-9.33101 -16.56956,0 -21.73107,12.80301 -21.73107,18.55352 0,5.84355 4.66551,9.2225 10.71054,9.2225 m 8.43201,-8.835 c -4.96001,3.379 -8.43201,4.5725 -10.80354,4.5725 -2.294,0 -3.6735,-1.1935 -4.371,-2.5885 -0.403,-0.589 -0.6975,-1.3795 -0.6975,-2.17001 0,-5.363 15.98056,-14.19801 21.23499,-14.19801 2.07705,0 3.27053,0.992 4.06106,2.387 0.31,0.589 0.60452,1.2865 0.60452,2.07701 0,2.18549 -2.27853,4.867 -10.02853,9.92001"
     id="path152"
     style="fill:#000000;stroke-width:0.992001" />
  <path
     class="Note"
     fill="#00aa00"
     d="m 1122.9501,154.42001 c 18.259,0 21.9325,-14.88001 21.9325,-18.44501 0,-5.65754 -4.464,-9.33101 -10.912,-9.33101 -16.5695,0 -21.731,12.80301 -21.731,18.55352 0,5.84355 4.6655,9.2225 10.7105,9.2225 m 8.432,-8.835 c -4.96,3.379 -8.432,4.5725 -10.8035,4.5725 -2.294,0 -3.6735,-1.1935 -4.371,-2.5885 -0.403,-0.589 -0.6975,-1.3795 -0.6975,-2.17001 0,-5.363 15.9805,-14.19801 21.235,-14.19801 2.077,0 3.2705,0.992 4.061,2.387 0.31,0.589 0.6045,1.2865 0.6045,2.07701 0,2.18549 -2.2785,4.867 -10.0285,9.92001"
     id="path154"
     style="fill:#000000;stroke-width:0.992001" />
  <path
     class="Note"
     d="m 595.6111,191.62001 c 18.25897,0 21.93255,-14.88001 21.93255,-18.44501 0,-5.65754 -4.46401,-9.33101 -10.91202,-9.33101 -16.56956,0 -21.73107,12.80301 -21.73107,18.55352 0,5.84355 4.66551,9.2225 10.71054,9.2225 m 8.43201,-8.835 c -4.96001,3.379 -8.43201,4.5725 -10.80354,4.5725 -2.294,0 -3.6735,-1.1935 -4.371,-2.5885 -0.403,-0.589 -0.6975,-1.3795 -0.6975,-2.17001 0,-5.363 15.98056,-14.19801 21.23499,-14.19801 2.07705,0 3.27053,0.992 4.06106,2.387 0.31,0.589 0.60452,1.2865 0.60452,2.07701 0,2.18549 -2.27853,4.867 -10.02853,9.92001"
     id="path156"
     style="fill:#000000;stroke-width:0.992001" />
  <path
     class="Note"
     fill="#00aa00"
     d="m 1494.7101,166.82001 c 18.259,0 21.9325,-14.88001 21.9325,-18.44501 0,-5.65754 -4.464,-9.33101 -10.912,-9.33101 -16.5695,0 -21.731,12.80301 -21.731,18.55352 0,5.84355 4.6655,9.2225 10.7105,9.2225 m 8.432,-8.835 c -4.96,3.379 -8.432,4.5725 -10.8035,4.5725 -2.294,0 -3.6735,-1.1935 -4.371,-2.5885 -0.403,-0.589 -0.6975,-1.3795 -0.6975,-2.17001 0,-5.363 15.9805,-14.19801 21.235,-14.19801 2.077,0 3.2705,0.992 4.061,2.387 0.31,0.589 0.6045,1.2865 0.6045,2.07701 0,2.18549 -2.2785,4.867 -10.0285,9.92001"
     id="path158"
     style="fill:#000000;stroke-width:0.992001" />
  <path
     class="Note"
     fill="#00aa00"
     d="m 1271.0101,154.42001 c 18.259,0 21.9325,-14.88001 21.9325,-18.44501 0,-5.65754 -4.464,-9.33101 -10.912,-9.33101 -16.5695,0 -21.731,12.80301 -21.731,18.55352 0,5.84355 4.6655,9.2225 10.7105,9.2225 m 8.432,-8.835 c -4.96,3.379 -8.432,4.5725 -10.8035,4.5725 -2.294,0 -3.6735,-1.1935 -4.371,-2.5885 -0.403,-0.589 -0.6975,-1.3795 -0.6975,-2.17001 0,-5.363 15.9805,-14.19801 21.235,-14.19801 2.077,0 3.2705,0.992 4.061,2.387 0.31,0.589 0.6045,1.2865 0.6045,2.07701 0,2.18549 -2.2785,4.867 -10.0285,9.92001"
     id="path160"
     style="fill:#000000;stroke-width:0.992001" />
  <path
     class="Note"
     d="m 793.55459,201.33851 c -14.38402,0 -23.31203,6.06048 -23.31203,13.39199 0,7.23851 6.15351,13.68656 22.22707,13.68656 17.65445,0 23.31203,-6.13805 23.31203,-13.68656 0,-7.64151 -12.19854,-13.39199 -22.22707,-13.39199 m -2.77453,2.48 c 7.34706,0 13.29906,7.93598 13.29906,14.49249 0,5.45601 -3.37905,7.62606 -8.24601,7.62606 -7.14548,0 -13.98106,-8.23055 -13.98106,-15.17457 0,-5.549 3.85958,-6.94398 8.92801,-6.94398"
     id="path162"
     style="fill:#000000;stroke-width:0.992001" />
  <path
     class="Note"
     fill="#00aa00"
     d="m 1271.0101,216.42001 c 18.259,0 21.9325,-14.88001 21.9325,-18.44501 0,-5.65754 -4.464,-9.33101 -10.912,-9.33101 -16.5695,0 -21.731,12.80301 -21.731,18.55352 0,5.84355 4.6655,9.2225 10.7105,9.2225 m 8.432,-8.835 c -4.96,3.379 -8.432,4.5725 -10.8035,4.5725 -2.294,0 -3.6735,-1.1935 -4.371,-2.5885 -0.403,-0.589 -0.6975,-1.3795 -0.6975,-2.17001 0,-5.363 15.9805,-14.19801 21.235,-14.19801 2.077,0 3.2705,0.992 4.061,2.387 0.31,0.589 0.6045,1.2865 0.6045,2.07701 0,2.18549 -2.2785,4.867 -10.0285,9.92001"
     id="path164"
     style="fill:#000000;stroke-width:0.992001" />
  <path
     class="Note"
     d="m 367.2501,241.22001 c 18.25897,0 21.93255,-14.88001 21.93255,-18.44501 0,-5.65754 -4.46401,-9.33101 -10.91202,-9.33101 -16.56956,0 -21.73107,12.80301 -21.73107,18.55352 0,5.84355 4.66551,9.2225 10.71054,9.2225 m 8.43201,-8.835 c -4.96001,3.379 -8.43201,4.5725 -10.80354,4.5725 -2.294,0 -3.6735,-1.1935 -4.371,-2.5885 -0.403,-0.589 -0.6975,-1.3795 -0.6975,-2.17001 0,-5.363 15.98056,-14.19801 21.23499,-14.19801 2.07705,0 3.27053,0.992 4.06106,2.387 0.31,0.589 0.60452,1.2865 0.60452,2.07701 0,2.18549 -2.27853,4.867 -10.02853,9.92001"
     id="path166"
     style="fill:#000000;stroke-width:0.992001" />
  <path
     class="Note"
     d="m 255.4001,241.22001 c 18.25897,0 21.93255,-14.88001 21.93255,-18.44501 0,-5.65754 -4.46401,-9.33101 -10.91202,-9.33101 -16.56956,0 -21.73107,12.80301 -21.73107,18.55352 0,5.84355 4.66551,9.2225 10.71054,9.2225 m 8.43201,-8.835 c -4.96001,3.379 -8.43201,4.5725 -10.80354,4.5725 -2.294,0 -3.6735,-1.1935 -4.371,-2.5885 -0.403,-0.589 -0.6975,-1.3795 -0.6975,-2.17001 0,-5.363 15.98056,-14.19801 21.23499,-14.19801 2.07705,0 3.27053,0.992 4.06106,2.387 0.31,0.589 0.60452,1.2865 0.60452,2.07701 0,2.18549 -2.27853,4.867 -10.02853,9.92001"
     id="path168"
     style="fill:#000000;stroke-width:0.992001" />
  <path
     class="Note"
     fill="#00aa00"
     d="m 1382.8601,216.42001 c 18.259,0 21.9325,-14.88001 21.9325,-18.44501 0,-5.65754 -4.464,-9.33101 -10.912,-9.33101 -16.5695,0 -21.731,12.80301 -21.731,18.55352 0,5.84355 4.6655,9.2225 10.7105,9.2225 m 8.432,-8.835 c -4.96,3.379 -8.432,4.5725 -10.8035,4.5725 -2.294,0 -3.6735,-1.1935 -4.371,-2.5885 -0.403,-0.589 -0.6975,-1.3795 -0.6975,-2.17001 0,-5.363 15.9805,-14.19801 21.235,-14.19801 2.077,0 3.2705,0.992 4.061,2.387 0.31,0.589 0.6045,1.2865 0.6045,2.07701 0,2.18549 -2.2785,4.867 -10.0285,9.92001"
     id="path170"
     style="fill:#000000;stroke-width:0.992001" />
  <path
     class="Note"
     d="m 485.25459,188.93851 c -14.38402,0 -23.31203,6.06048 -23.31203,13.39199 0,7.23851 6.15351,13.68656 22.22707,13.68656 17.65445,0 23.31203,-6.13805 23.31203,-13.68656 0,-7.64151 -12.19854,-13.39199 -22.22707,-13.39199 m -2.77453,2.48 c 7.34706,0 13.29906,7.93598 13.29906,14.49249 0,5.45601 -3.37905,7.62606 -8.24601,7.62606 -7.14548,0 -13.98106,-8.23055 -13.98106,-15.17457 0,-5.549 3.85958,-6.94398 8.92801,-6.94398"
     id="path172"
     style="fill:#000000;stroke-width:0.992001" />
  <path
     class="Note"
     fill="#00aa00"
     d="m 1761.0701,228.82001 c 18.259,0 21.9325,-14.88001 21.9325,-18.44501 0,-5.65754 -4.464,-9.33101 -10.912,-9.33101 -16.5695,0 -21.731,12.80301 -21.731,18.55352 0,5.84355 4.6655,9.2225 10.7105,9.2225 m 8.432,-8.835 c -4.96,3.379 -8.432,4.5725 -10.8035,4.5725 -2.294,0 -3.6735,-1.1935 -4.371,-2.5885 -0.403,-0.589 -0.6975,-1.3795 -0.6975,-2.17001 0,-5.363 15.9805,-14.19801 21.235,-14.19801 2.077,0 3.2705,0.992 4.061,2.387 0.31,0.589 0.6045,1.2865 0.6045,2.07701 0,2.18549 -2.2785,4.867 -10.0285,9.92001"
     id="path174"
     style="fill:#000000;stroke-width:0.992001" />
  <path
     class="Note"
     fill="#00aa00"
     d="m 1606.5601,228.82001 c 18.259,0 21.9325,-14.88001 21.9325,-18.44501 0,-5.65754 -4.464,-9.33101 -10.912,-9.33101 -16.5695,0 -21.731,12.80301 -21.731,18.55352 0,5.84355 4.6655,9.2225 10.7105,9.2225 m 8.432,-8.835 c -4.96,3.379 -8.432,4.5725 -10.8035,4.5725 -2.294,0 -3.6735,-1.1935 -4.371,-2.5885 -0.403,-0.589 -0.6975,-1.3795 -0.6975,-2.17001 0,-5.363 15.9805,-14.19801 21.235,-14.19801 2.077,0 3.2705,0.992 4.061,2.387 0.31,0.589 0.6045,1.2865 0.6045,2.07701 0,2.18549 -2.2785,4.867 -10.0285,9.92001"
     id="path176"
     style="fill:#000000;stroke-width:0.992001" />
  <path
     class="Note"
     fill="#00aa00"
     d="m 1879.0716,213.73851 c -14.384,0 -23.312,6.06048 -23.312,13.39199 0,7.23851 6.1535,13.68656 22.227,13.68656 17.6545,0 23.3121,-6.13805 23.3121,-13.68656 0,-7.64151 -12.1986,-13.39199 -22.2271,-13.39199 m -2.7745,2.48 c 7.347,0 13.299,7.93598 13.299,14.49249 0,5.45601 -3.379,7.62606 -8.246,7.62606 -7.1455,0 -13.9811,-8.23055 -13.9811,-15.17457 0,-5.549 3.8596,-6.94398 8.9281,-6.94398"
     id="path178"
     style="fill:#000000;stroke-width:0.992001" />
  <path
     class="Note"
     fill="#00aa00"
     d="m 1494.7101,216.42001 c 18.259,0 21.9325,-14.88001 21.9325,-18.44501 0,-5.65754 -4.464,-9.33101 -10.912,-9.33101 -16.5695,0 -21.731,12.80301 -21.731,18.55352 0,5.84355 4.6655,9.2225 10.7105,9.2225 m 8.432,-8.835 c -4.96,3.379 -8.432,4.5725 -10.8035,4.5725 -2.294,0 -3.6735,-1.1935 -4.371,-2.5885 -0.403,-0.589 -0.6975,-1.3795 -0.6975,-2.17001 0,-5.363 15.9805,-14.19801 21.235,-14.19801 2.077,0 3.2705,0.992 4.061,2.387 0.31,0.589 0.6045,1.2865 0.6045,2.07701 0,2.18549 -2.2785,4.867 -10.0285,9.92001"
     id="path180"
     style="fill:#000000;stroke-width:0.992001" />
  <path
     class="Note"
     d="m 1011.1001,216.42001 c 18.259,0 21.9325,-14.88001 21.9325,-18.44501 0,-5.65754 -4.464,-9.33101 -10.912,-9.33101 -16.5695,0 -21.731,12.80301 -21.731,18.55352 0,5.84355 4.6655,9.2225 10.7105,9.2225 m 8.432,-8.835 c -4.96,3.379 -8.432,4.5725 -10.8035,4.5725 -2.294,0 -3.6735,-1.1935 -4.371,-2.5885 -0.403,-0.589 -0.6975,-1.3795 -0.6975,-2.17001 0,-5.363 15.9805,-14.19801 21.235,-14.19801 2.077,0 3.2705,0.992 4.061,2.387 0.31,0.589 0.6045,1.2865 0.6045,2.07701 0,2.18549 -2.2785,4.867 -10.0285,9.92001"
     id="path182"
     style="fill:#000000;stroke-width:0.992001" />
  <path
     class="Note"
     d="m 1011.1001,524.02001 c 18.259,0 21.9325,-14.88001 21.9325,-18.44501 0,-5.65754 -4.464,-9.33101 -10.912,-9.33101 -16.5695,0 -21.731,12.80301 -21.731,18.55352 0,5.84355 4.6655,9.2225 10.7105,9.2225 m 8.432,-8.835 c -4.96,3.379 -8.432,4.5725 -10.8035,4.5725 -2.294,0 -3.6735,-1.1935 -4.371,-2.5885 -0.403,-0.589 -0.6975,-1.3795 -0.6975,-2.17001 0,-5.363 15.9805,-14.19801 21.235,-14.19801 2.077,0 3.2705,0.992 4.061,2.387 0.31,0.589 0.6045,1.2865 0.6045,2.07701 0,2.18549 -2.2785,4.867 -10.0285,9.92001"
     id="path186"
     style="fill:#000000;stroke-width:0.992001" />
  <path
     class="Note"
     d="m 595.6111,524.02001 c 18.25897,0 21.93255,-14.88001 21.93255,-18.44501 0,-5.65754 -4.46401,-9.33101 -10.91202,-9.33101 -16.56956,0 -21.73107,12.80301 -21.73107,18.55352 0,5.84355 4.66551,9.2225 10.71054,9.2225 m 8.43201,-8.835 c -4.96001,3.379 -8.43201,4.5725 -10.80354,4.5725 -2.294,0 -3.6735,-1.1935 -4.371,-2.5885 -0.403,-0.589 -0.6975,-1.3795 -0.6975,-2.17001 0,-5.363 15.98056,-14.19801 21.23499,-14.19801 2.07705,0 3.27053,0.992 4.06106,2.387 0.31,0.589 0.60452,1.2865 0.60452,2.07701 0,2.18549 -2.27853,4.867 -10.02853,9.92001"
     id="path188"
     style="fill:#000000;stroke-width:0.992001" />
  <path
     class="Note"
     d="m 787.4011,524.02001 c 18.25897,0 21.93255,-14.88001 21.93255,-18.44501 0,-5.65754 -4.46401,-9.33101 -10.91202,-9.33101 -16.56956,0 -21.73107,12.80301 -21.73107,18.55352 0,5.84355 4.66551,9.2225 10.71054,9.2225 m 8.43201,-8.835 c -4.96001,3.379 -8.43201,4.5725 -10.80354,4.5725 -2.294,0 -3.6735,-1.1935 -4.371,-2.5885 -0.403,-0.589 -0.6975,-1.3795 -0.6975,-2.17001 0,-5.363 15.98056,-14.19801 21.23499,-14.19801 2.07705,0 3.27053,0.992 4.06106,2.387 0.31,0.589 0.60452,1.2865 0.60452,2.07701 0,2.18549 -2.27853,4.867 -10.02853,9.92001"
     id="path192"
     style="fill:#000000;stroke-width:0.992001" />
  <path
     class="Note"
     d="m 255.4001,561.22001 c 18.25897,0 21.93255,-14.88001 21.93255,-18.44501 0,-5.65754 -4.46401,-9.33101 -10.91202,-9.33101 -16.56956,0 -21.73107,12.80301 -21.73107,18.55352 0,5.84355 4.66551,9.2225 10.71054,9.2225 m 8.43201,-8.835 c -4.96001,3.379 -8.43201,4.5725 -10.80354,4.5725 -2.294,0 -3.6735,-1.1935 -4.371,-2.5885 -0.403,-0.589 -0.6975,-1.3795 -0.6975,-2.17001 0,-5.363 15.98056,-14.19801 21.23499,-14.19801 2.07705,0 3.27053,0.992 4.06106,2.387 0.31,0.589 0.60452,1.2865 0.60452,2.07701 0,2.18549 -2.27853,4.867 -10.02853,9.92001"
     id="path194"
     style="fill:#000000;stroke-width:0.992001" />
  <path
     class="Note"
     d="m 373.40359,533.73851 c -14.38402,0 -23.31203,6.06048 -23.31203,13.39199 0,7.23851 6.15351,13.68656 22.22707,13.68656 17.65445,0 23.31203,-6.13805 23.31203,-13.68656 0,-7.64151 -12.19854,-13.39199 -22.22707,-13.39199 m -2.77453,2.48 c 7.34706,0 13.29906,7.93598 13.29906,14.49249 0,5.45601 -3.37905,7.62606 -8.24601,7.62606 -7.14548,0 -13.98106,-8.23055 -13.98106,-15.17457 0,-5.549 3.85958,-6.94398 8.92801,-6.94398"
     id="path200"
     style="fill:#000000;stroke-width:0.992001" />
  <path
     class="Note"
     d="m 899.2501,536.42001 c 18.25897,0 21.93255,-14.88001 21.93255,-18.44501 0,-5.65754 -4.46401,-9.33101 -10.91202,-9.33101 -16.56956,0 -21.73107,12.80301 -21.73107,18.55352 0,5.84355 4.66551,9.2225 10.71054,9.2225 m 8.43201,-8.835 c -4.96001,3.379 -8.43201,4.5725 -10.80354,4.5725 -2.294,0 -3.6735,-1.1935 -4.371,-2.5885 -0.403,-0.589 -0.6975,-1.3795 -0.6975,-2.17001 0,-5.363 15.98056,-14.19801 21.23499,-14.19801 2.07705,0 3.27053,0.992 4.06106,2.387 0.31,0.589 0.60452,1.2865 0.60452,2.07701 0,2.18549 -2.27853,4.867 -10.02853,9.92001"
     id="path202"
     style="fill:#000000;stroke-width:0.992001" />
  <path
     class="Note"
     d="m 1017.2516,583.33851 c -14.384,0 -23.31204,6.06048 -23.31204,13.39199 0,7.23851 6.15354,13.68656 22.22704,13.68656 17.6545,0 23.3121,-6.13805 23.3121,-13.68656 0,-7.64151 -12.1986,-13.39199 -22.2271,-13.39199 m -2.7745,2.48 c 7.347,0 13.299,7.93598 13.299,14.49249 0,5.45601 -3.379,7.62606 -8.246,7.62606 -7.1455,0 -13.9811,-8.23055 -13.9811,-15.17457 0,-5.549 3.8596,-6.94398 8.9281,-6.94398"
     id="path206"
     style="fill:#000000;stroke-width:0.992001" />
  <path
     class="Note"
     d="m 521.0441,598.42001 c 9.82696,0 21.93255,-9.1295 21.93255,-18.55352 0,-5.54903 -4.46401,-9.2225 -10.81907,-9.2225 -12.1055,0 -21.82402,9.02101 -21.82402,18.55352 0,5.7505 4.75851,9.2225 10.71054,9.2225"
     id="path210"
     style="fill:#000000;stroke-width:0.992001" />
  <path
     class="Note"
     d="m 595.6111,586.02001 c 9.82696,0 21.93255,-9.1295 21.93255,-18.55352 0,-5.54903 -4.46401,-9.2225 -10.81907,-9.2225 -12.1055,0 -21.82402,9.02101 -21.82402,18.55352 0,5.7505 4.75851,9.2225 10.71054,9.2225"
     id="path212"
     style="fill:#000000;stroke-width:0.992001" />
  <path
     class="Note"
     d="m 367.2501,610.82001 c 18.25897,0 21.93255,-14.88001 21.93255,-18.44501 0,-5.65754 -4.46401,-9.33101 -10.91202,-9.33101 -16.56956,0 -21.73107,12.80301 -21.73107,18.55352 0,5.84355 4.66551,9.2225 10.71054,9.2225 m 8.43201,-8.835 c -4.96001,3.379 -8.43201,4.5725 -10.80354,4.5725 -2.294,0 -3.6735,-1.1935 -4.371,-2.5885 -0.403,-0.589 -0.6975,-1.3795 -0.6975,-2.17001 0,-5.363 15.98056,-14.19801 21.23499,-14.19801 2.07705,0 3.27053,0.992 4.06106,2.387 0.31,0.589 0.60452,1.2865 0.60452,2.07701 0,2.18549 -2.27853,4.867 -10.02853,9.92001"
     id="path216"
     style="fill:#000000;stroke-width:0.992001" />
  <path
     class="Note"
     d="m 670.1781,573.62001 c 9.82696,0 21.93255,-9.1295 21.93255,-18.55352 0,-5.54903 -4.46401,-9.2225 -10.81907,-9.2225 -12.1055,0 -21.82402,9.02101 -21.82402,18.55352 0,5.7505 4.75851,9.2225 10.71054,9.2225"
     id="path220"
     style="fill:#000000;stroke-width:0.992001" />
  <path
     class="Note"
     d="m 255.4001,610.82001 c 18.25897,0 21.93255,-14.88001 21.93255,-18.44501 0,-5.65754 -4.46401,-9.33101 -10.91202,-9.33101 -16.56956,0 -21.73107,12.80301 -21.73107,18.55352 0,5.84355 4.66551,9.2225 10.71054,9.2225 m 8.43201,-8.835 c -4.96001,3.379 -8.43201,4.5725 -10.80354,4.5725 -2.294,0 -3.6735,-1.1935 -4.371,-2.5885 -0.403,-0.589 -0.6975,-1.3795 -0.6975,-2.17001 0,-5.363 15.98056,-14.19801 21.23499,-14.19801 2.07705,0 3.27053,0.992 4.06106,2.387 0.31,0.589 0.60452,1.2865 0.60452,2.07701 0,2.18549 -2.27853,4.867 -10.02853,9.92001"
     id="path222"
     style="fill:#000000;stroke-width:0.992001" />
  <path
     class="Note"
     d="m 793.55459,533.73851 c -14.38402,0 -23.31203,6.06048 -23.31203,13.39199 0,7.23851 6.15351,13.68656 22.22707,13.68656 17.65445,0 23.31203,-6.13805 23.31203,-13.68656 0,-7.64151 -12.19854,-13.39199 -22.22707,-13.39199 m -2.77453,2.48 c 7.34706,0 13.29906,7.93598 13.29906,14.49249 0,5.45601 -3.37905,7.62606 -8.24601,7.62606 -7.14548,0 -13.98106,-8.23055 -13.98106,-15.17457 0,-5.549 3.85958,-6.94398 8.92801,-6.94398"
     id="path224"
     style="fill:#000000;stroke-width:0.992001" />
  <path
     class="Clef"
     d="m 97.090125,136.56396 c -0.201475,-1.19348 0,-1.28653 0.588951,-1.89105 10.710534,-10.01296 18.848014,-22.61445 18.848014,-37.788992 0,-8.633483 -2.38695,-17.174017 -6.448,-23.126519 -1.488,-2.169506 -4.06096,-4.960005 -5.16148,-4.960005 -1.37948,0 -4.46401,2.589123 -6.448008,4.774501 -7.331483,8.122008 -9.718535,20.522021 -9.718535,30.844985 0,5.75053 0.697575,12.19853 1.395051,16.27506 0.186,1.19348 0.294525,1.37948 -0.899051,2.37148 -14.290964,11.81106 -29.465504,25.9935 -29.465504,46.03507 0,17.26702 11.811061,33.63501 36.115086,33.63501 2.278427,0 4.851481,-0.20148 6.835481,-0.60443 1.10053,-0.186 1.302,-0.29452 1.488,0.89896 1.19348,6.64948 2.68148,15.28306 2.68148,19.94854 0,14.67854 -9.92001,16.46097 -15.763491,16.46097 -5.363055,0 -7.951483,-1.58095 -7.951483,-2.88296 0,-0.682 0.898951,-0.992 3.177478,-1.674 3.084528,-0.89905 6.649482,-3.58053 6.649482,-9.33106 0,-5.456 -3.472003,-10.12148 -9.51696,-10.12148 -6.649581,0 -10.617585,5.25453 -10.617585,11.40801 0,6.44801 3.859578,16.16654 18.848019,16.16654 6.649581,0 19.54559,-2.976 19.54559,-19.84002 0,-5.64201 -1.78252,-15.06601 -2.88305,-21.2195 -0.20147,-1.19357 -0.093,-1.10052 1.28653,-1.68957 10.02853,-3.96801 16.67801,-12.40001 16.67801,-23.6065 0,-12.71006 -9.33105,-23.9165 -23.91654,-23.9165 -2.572957,0 -2.572957,0 -2.867483,-1.78253 l -2.480002,-14.38401 m 9.315485,-52.390054 c 3.27053,0 5.95201,2.681478 5.95201,8.137483 0,11.020531 -9.42401,19.948541 -17.251497,26.784031 -0.697476,0.60452 -1.100526,0.496 -1.302001,-0.79053 -0.387476,-2.57295 -0.589051,-5.95201 -0.589051,-9.12948 0,-15.46897 7.145579,-25.001504 13.190539,-25.001504 M 95.602123,151.7385 c 0.294526,1.89095 0.294526,1.78243 -1.488001,2.38695 -8.742009,2.976 -14.39949,10.80349 -14.39949,19.23555 0,8.928 4.66548,15.28301 11.423487,17.56154 0.790526,0.29452 1.984002,0.60452 2.666003,0.60452 0.806,0 1.193476,-0.496 1.193476,-1.10052 0,-0.69748 -0.790526,-0.992 -1.488001,-1.28653 -4.16948,-1.7825 -7.145483,-6.045 -7.145483,-10.61751 0,-5.6575 3.874954,-9.92001 9.92001,-11.60956 1.596527,-0.38748 1.798002,-0.29443 1.984002,0.806 l 4.960004,29.55855 c 0.20148,1.08506 0.10853,1.08506 -1.37948,1.37958 -1.59652,0.31 -3.580524,0.496 -5.564526,0.496 -17.360017,0 -28.566553,-9.61001 -28.566553,-23.40507 0,-5.85901 0.992001,-13.68654 9.222534,-23.0175 5.952006,-6.64958 10.524535,-10.32306 15.190015,-14.08959 0.992001,-0.79043 1.178001,-0.69747 1.379477,0.40305 l 2.092526,12.69454 m 6.835487,15.77896 c -0.20148,-1.19347 -0.093,-1.488 1.10052,-1.39495 8.02896,0.69748 14.67854,7.43998 14.67854,16.16649 0,6.26206 -3.76653,11.31502 -9.33106,14.08954 -1.19347,0.60453 -1.37947,0.60453 -1.58095,-0.58905 l -4.86705,-28.27203"
     id="path226"
     style="fill:#000000;stroke-width:0.992001" />
  <path
     class="Clef"
     d="m 84.783063,533.7385 c -17.266988,0 -25.0015,12.60149 -25.0015,22.1185 0,7.936 4.169509,14.78701 12.198537,14.78701 6.246531,0 10.524535,-4.371 10.524535,-10.50901 0,-6.35501 -4.665579,-10.32301 -9.532534,-10.32301 -2.681478,0 -3.673529,0.6975 -4.960025,0.6975 -1.286506,0 -1.581002,-0.79055 -1.581002,-1.78255 0,-3.968 5.951976,-11.22201 16.073561,-11.22201 10.508961,0 15.08149,10.32306 15.08149,25.90058 0,27.68305 -13.702013,43.15201 -36.812561,56.34255 -0.899001,0.496 -1.488002,0.992 -1.488002,1.78253 0,0.60452 0.403,1.19347 1.286501,1.19347 0.496006,0 1.100501,-0.20147 1.689502,-0.496 24.412549,-11.90401 50.204575,-29.55855 50.204575,-59.72155 0,-17.25157 -10.52453,-28.76801 -27.683077,-28.76801 m 37.401617,8.13748 c -3.08453,0 -5.45601,2.38695 -5.45601,5.45601 0,3.069 2.37148,5.456 5.45601,5.456 3.06895,0 5.456,-2.387 5.456,-5.456 0,-3.06906 -2.38705,-5.45601 -5.456,-5.45601 m 0.093,24.89303 c -3.06896,0 -5.34749,2.294 -5.34749,5.363 0,3.06906 2.27853,5.36306 5.34749,5.36306 3.08452,0 5.36305,-2.294 5.36305,-5.36306 0,-3.069 -2.27853,-5.363 -5.36305,-5.363"
     id="path228"
     style="fill:#000000;stroke-width:0.992001" />
  <path
     class="TimeSig"
     d="m 186.37107,135.48201 v -21.23502 c 0,-0.79053 -0.093,-1.68948 -1.19347,-1.68948 -0.88348,0 -1.37948,0.20147 -1.984,0.89895 l -9.42401,11.40803 c -0.40295,0.496 -0.89896,1.085 -0.89896,2.27851 v 8.33901 h -13.39206 c 7.93606,-6.75801 23.82355,-29.26408 24.11808,-30.45756 l 0.093,-0.29452 c 0,-0.89895 -0.69748,-1.488 -1.48801,-1.488 -0.88347,0 -4.96,0.186 -6.74253,0.186 -1.78242,0 -6.24643,-0.186 -7.05243,-0.186 -0.88358,0 -2.27853,0.29452 -2.27853,1.87557 0,12.30696 -9.71853,26.0865 -12.69453,30.25601 l -0.58901,0.7905 c 0,0 0,0.1085 0,0.1085 l -0.10849,0.093 c -0.20151,0.496 -0.29451,0.899 -0.29451,1.1935 0,0.992 0.79051,1.68948 1.98401,1.68948 h 18.44506 v 6.24653 c 0,2.68148 -2.17,3.472 -3.968,3.472 -1.58105,0 -2.27853,0.89905 -2.27853,1.89105 0,0.992 0.40295,2.07695 1.89096,2.07695 h 21.12654 c 0.992,0 1.984,-0.69747 1.984,-2.07695 0,-1.39505 -1.19347,-1.984 -2.18547,-1.984 -0.992,0 -3.06906,-0.60452 -3.06906,-3.782 v -5.84358 h 7.23854 c 0.992,0 1.488,-0.69748 1.488,-1.89098 0,-1.1935 -0.38748,-1.8755 -1.488,-1.8755 h -7.23854"
     id="path230"
     style="fill:#000000;stroke-width:0.992001" />
  <path
     class="TimeSig"
     d="m 193.40813,187.34601 c 0,-1.178 -0.496,-1.3795 -1.19348,-1.3795 -0.79052,0 -1.10052,0.3875 -1.28652,1.085 l -0.10853,0.1085 c -0.992,2.48005 -1.78252,4.35553 -3.85948,4.35553 -0.496,0 -0.992,-0.093 -1.68947,-0.29453 -1.28653,-0.496 -1.98401,-0.58895 -2.97601,-1.08495 -1.984,-0.806 -6.64958,-2.38705 -10.72601,-2.38705 -1.28652,0 -2.57305,0.2015 -3.658,0.58905 2.17,-3.56505 10.61748,-6.54106 12.78749,-7.13006 6.944,-1.891 13.20601,-4.774 13.20601,-13.00449 0,-10.50906 -10.32306,-15.08159 -19.54549,-15.08159 -6.94401,0 -13.09756,0.60453 -17.96457,6.26201 -1.6895,2.07705 -2.77451,4.55706 -2.77451,7.23853 0,1.37948 0.29451,2.77453 0.89901,4.26253 1.488,3.06901 4.557,5.45601 8.12205,5.45601 6.06043,0 6.94401,-6.24651 6.94401,-8.72654 0,-5.952 -6.83558,-6.24653 -6.83558,-8.23053 0.20157,-1.39495 1.984,-3.782 7.82758,-3.782 8.83496,0 8.94349,6.64958 8.94349,9.53253 0,9.02103 -7.45549,15.87205 -14.58549,20.22755 -5.45606,3.47205 -9.33106,8.33901 -11.02056,14.78701 l -0.093,0.29453 c 0,1.28652 1.085,3.37895 2.573,3.37895 2.1855,0 3.37901,-6.06043 9.22256,-6.06043 3.968,0 5.456,5.36295 14.29096,5.36295 4.26253,0 11.90401,-0.40295 13.50054,-15.77901"
     id="path232"
     style="fill:#000000;stroke-width:0.992001" />
  <path
     class="TimeSig"
     d="m 186.37107,567.08301 v -21.23502 c 0,-0.79053 -0.093,-1.68948 -1.19347,-1.68948 -0.88348,0 -1.37948,0.20147 -1.984,0.89895 l -9.42401,11.40803 c -0.40295,0.496 -0.89896,1.085 -0.89896,2.27851 v 8.33901 h -13.39206 c 7.93606,-6.75801 23.82355,-29.26408 24.11808,-30.45756 l 0.093,-0.29452 c 0,-0.89895 -0.69748,-1.488 -1.48801,-1.488 -0.88347,0 -4.96,0.186 -6.74253,0.186 -1.78242,0 -6.24643,-0.186 -7.05243,-0.186 -0.88358,0 -2.27853,0.29452 -2.27853,1.87557 0,12.30696 -9.71853,26.0865 -12.69453,30.25601 l -0.58901,0.7905 c 0,0 0,0.1085 0,0.1085 l -0.10849,0.093 c -0.20151,0.496 -0.29451,0.899 -0.29451,1.1935 0,0.992 0.79051,1.68948 1.98401,1.68948 h 18.44506 v 6.24653 c 0,2.68148 -2.17,3.472 -3.968,3.472 -1.58105,0 -2.27853,0.89905 -2.27853,1.89105 0,0.992 0.40295,2.07695 1.89096,2.07695 h 21.12654 c 0.992,0 1.984,-0.69747 1.984,-2.07695 0,-1.39505 -1.19347,-1.984 -2.18547,-1.984 -0.992,0 -3.06906,-0.60452 -3.06906,-3.782 v -5.84358 h 7.23854 c 0.992,0 1.488,-0.69748 1.488,-1.89098 0,-1.1935 -0.38748,-1.8755 -1.488,-1.8755 h -7.23854"
     id="path234"
     style="fill:#000000;stroke-width:0.992001" />
  <path
     class="TimeSig"
     d="m 193.40813,618.94601 c 0,-1.178 -0.496,-1.3795 -1.19348,-1.3795 -0.79052,0 -1.10052,0.3875 -1.28652,1.085 l -0.10853,0.1085 c -0.992,2.48005 -1.78252,4.35553 -3.85948,4.35553 -0.496,0 -0.992,-0.0931 -1.68947,-0.29453 -1.28653,-0.496 -1.98401,-0.58895 -2.97601,-1.08495 -1.984,-0.806 -6.64958,-2.38705 -10.72601,-2.38705 -1.28652,0 -2.57305,0.2015 -3.658,0.58905 2.17,-3.56505 10.61748,-6.54106 12.78749,-7.13006 6.944,-1.891 13.20601,-4.774 13.20601,-13.00449 0,-10.50906 -10.32306,-15.08159 -19.54549,-15.08159 -6.94401,0 -13.09756,0.60453 -17.96457,6.26201 -1.6895,2.07705 -2.77451,4.55706 -2.77451,7.23853 0,1.37948 0.29451,2.77453 0.89901,4.26253 1.488,3.06901 4.557,5.45601 8.12205,5.45601 6.06043,0 6.94401,-6.24651 6.94401,-8.72654 0,-5.952 -6.83558,-6.24653 -6.83558,-8.23053 0.20157,-1.39495 1.984,-3.782 7.82758,-3.782 8.83496,0 8.94349,6.64958 8.94349,9.53253 0,9.02103 -7.45549,15.87205 -14.58549,20.22755 -5.45606,3.47205 -9.33106,8.33901 -11.02056,14.78701 l -0.093,0.29453 c 0,1.28652 1.085,3.37895 2.573,3.37895 2.1855,0 3.37901,-6.06043 9.22256,-6.06043 3.968,0 5.456,5.36295 14.29096,5.36295 4.26253,0 11.90401,-0.40295 13.50054,-15.77901"
     id="path236"
     style="fill:#000000;stroke-width:0.992001" />
  <path
     class="Rest"
     d="m 1028.3671,100.945 v -9.114061 c 0,-1.488002 -1.1935,-2.588428 -2.573,-2.588428 h -22.8315 c -1.488,0 -2.573,1.100426 -2.573,2.588428 V 100.945 c 0,1.395 1.085,2.5885 2.573,2.5885 h 22.8315 c 1.3795,0 2.573,-1.1935 2.573,-2.5885"
     id="path238"
     style="fill:#000000;stroke-width:0.992001" />
  <path
     class="Rest"
     d="m 1140.2171,200.145 v -9.11406 c 0,-1.488 -1.1935,-2.58843 -2.573,-2.58843 h -22.8315 c -1.488,0 -2.573,1.10043 -2.573,2.58843 v 9.11406 c 0,1.395 1.085,2.5885 2.573,2.5885 h 22.8315 c 1.3795,0 2.573,-1.1935 2.573,-2.5885"
     id="path240"
     style="fill:#000000;stroke-width:0.992001" />
  <path
     class="Lyrics"
     d="m 237.89756,14.953 c -2,-1.562 -4.437,-2.312 -7.297,-2.312 -4.64,0 -7.875,2.75 -7.875,6.687 0,1.579 0.594,3.407 1.672,4.485 4.422,4.437 11.547,4.328 11.547,8.484 0,2.203 -2.047,3.828 -4.906,3.828 -3.235,0 -5.235,-2.312 -5.781,-6.531 h -1.782 v 6.797 c 2.047,1.031 5.235,1.734 7.938,1.734 5.078,0 8.265,-2.703 8.265,-7.125 0,-1.781 -0.593,-3.515 -1.734,-4.64 -3.078,-3.078 -11.281,-4.063 -11.281,-8.11 0,-2.312 1.515,-3.609 4.047,-3.609 2.968,0 4.703,1.891 5.515,6.156 h 1.672 v -5.844 m 5.938,10.266 c 0,7.016 5.656,12.906 12.468,12.906 6.907,0 12.157,-5.609 12.157,-12.953 0,-7.344 -5.188,-12.531 -12.594,-12.531 -6.688,0 -12.031,5.562 -12.031,12.578 m 5.125,-2.047 c 0,-6.265 2.64,-8.531 6.687,-8.531 6.11,0 7.953,9.172 7.953,13.812 0,4.704 -2.593,7.672 -6.812,7.672 -5.563,0 -7.828,-8.156 -7.828,-12.953 m 31,-3.734 c 2.312,-1.938 4.593,-3.188 7.078,-3.188 3.5,0 5.062,2.547 5.062,5.938 v 8.969 c 0,2.921 -1.234,4.437 -4.375,4.437 v 1.938 h 12.75 v -1.938 c -3.078,-0.328 -3.828,-1.625 -3.828,-4.328 V 21 c 0,-5.828 -2.922,-8.359 -7.937,-8.359 -2.969,0 -6.438,1.672 -8.641,4.594 h -0.109 v -4.594 h -1.36 l -6.797,2.531 v 1.25 l 3.625,2.047 v 13.016 c 0,2.703 -1.296,4 -4,4.109 v 1.938 h 12.907 v -1.938 c -3.188,0 -4.375,-1.469 -4.375,-4.437 V 19.438 m 23.328,26.359 c 6.859,-0.109 10.797,-3.453 10.797,-9.187 0,-4.485 -2.422,-7.875 -5.61,-7.875 -2.109,0 -3.453,1.297 -3.453,3.39 0,1.953 1.235,3.078 3.344,3.078 1.891,0 2.594,0.985 2.594,3.079 0,3.468 -2.86,4.968 -7.672,5.515 v 2"
     id="path246"
     style="fill:#000000" />
  <path
     class="Lyrics"
     d="m 583.49956,0 h -1.359 l -6.906,2.485 v 1.25 l 3.718,2.047 v 25.703 c 0,2.328 -1.015,3.937 -3.718,4.109 v 1.938 h 11.609 v -1.938 c -2.438,-0.172 -3.344,-1.781 -3.344,-4.484 V 0 m 28.813,22.578 c 0,-3.843 -3.016,-9.937 -9.985,-9.937 -6.375,0 -11.281,5.609 -11.281,13.016 0,7.234 4.688,12.468 11.219,12.468 4.109,0 7.734,-2.109 10.047,-5.89 l -1.125,-1.016 c -2.063,1.781 -4.219,2.594 -6.75,2.594 -5.032,0 -9.61,-4 -9.344,-11.235 h 17.219 m -16.891,-1.953 c 0.484,-3.672 2.75,-5.984 5.875,-5.984 2.969,0 4.922,2.156 5.344,5.984 h -11.219 m 23.813,11.016 c 0,2.703 -1.844,3.953 -3.891,3.953 v 1.938 h 11.766 v -1.938 c -1.938,-0.062 -3.344,-1.359 -3.344,-4.328 V 12.641 h -1.36 l -7.281,2.641 v 1.25 l 4.11,2.046 v 13.063 m -0.875,-28.719 c 0,1.61 1.296,2.906 2.921,2.906 1.625,0 2.907,-1.296 2.907,-2.906 0,-1.625 -1.282,-2.922 -2.907,-2.922 -1.625,0 -2.921,1.297 -2.921,2.922"
     id="path248"
     style="fill:#000000" />
  <path
     class="Lyrics"
     d="M 1095.2296,0.703 V 2.75 c 4.75,0 5.72,2.11 5.72,6 v 20.953 c 0,4.157 -1.45,5.782 -5.72,5.782 v 2.047 h 17.44 v -2.047 c -4.8,0 -6.05,-1.953 -6.05,-5.297 V 7.828 c 0,-3.671 1.89,-5.078 5.74,-5.078 V 0.703 h -17.13 m 23.17,0 V 2.75 c 2.27,0 3.3,0.813 3.3,2.219 0,2.156 -4.22,6.422 -14.64,13.609 l 0.7,0.641 c 9.17,7.734 15.88,14.688 20.41,18.313 h 9.51 v -2.157 c -2.28,-0.437 -4.17,-1.187 -7.18,-3.453 -5.46,-4.172 -12.21,-11.187 -17.24,-15.015 7.57,-5.563 10.38,-9.079 13.78,-11.61 2.16,-1.625 4,-2.265 6.64,-2.547 V 0.703 h -15.28 m 28.74,37.094 c -1.41,4.656 -2.71,6.485 -4.75,6.485 -1.94,0 -1.94,-1.735 -3.83,-1.735 -1.3,0 -2.33,0.985 -2.33,2.219 0,1.844 1.78,3.078 4.33,3.078 3.23,0 5.5,-1.828 7.06,-5.781 l 8.97,-22.781 c 1.08,-2.75 1.74,-3.672 3.78,-4.11 v -1.937 h -9.34 v 1.937 c 3.3,0.172 4.05,2.219 2.97,5.031 l -4.64,11.813 -5.57,-12.734 c -1.25,-2.813 -0.54,-4 2.64,-4.11 v -1.937 h -11.76 v 1.937 c 1.73,0 2.48,0 3.89,3.188 l 8.58,19.437"
     id="path250"
     style="fill:#000000" />
  <path
     class="Lyrics"
     d="m 1399.0596,22.578 c 0,-3.843 -3.01,-9.937 -9.98,-9.937 -6.38,0 -11.28,5.609 -11.28,13.016 0,7.234 4.68,12.468 11.22,12.468 4.1,0 7.73,-2.109 10.04,-5.89 l -1.12,-1.016 c -2.07,1.781 -4.22,2.594 -6.75,2.594 -5.03,0 -9.61,-4 -9.35,-11.235 h 17.22 m -16.89,-1.953 c 0.49,-3.672 2.75,-5.984 5.88,-5.984 2.97,0 4.92,2.156 5.34,5.984 h -11.22"
     id="path252"
     style="fill:#000000" />
  <path
     class="Lyrics"
     d="m 1510.9096,22.578 c 0,-3.843 -3.01,-9.937 -9.98,-9.937 -6.38,0 -11.28,5.609 -11.28,13.016 0,7.234 4.68,12.468 11.22,12.468 4.11,0 7.73,-2.109 10.04,-5.89 l -1.12,-1.016 c -2.06,1.781 -4.22,2.594 -6.75,2.594 -5.03,0 -9.61,-4 -9.35,-11.235 h 17.22 m -16.89,-1.953 c 0.49,-3.672 2.75,-5.984 5.88,-5.984 2.97,0 4.92,2.156 5.34,5.984 h -11.22"
     id="path254"
     style="fill:#000000" />
  <path
     class="Lyrics"
     d="m 378.13356,22.578 c 0,-3.843 -3.016,-9.937 -9.984,-9.937 -6.375,0 -11.282,5.609 -11.282,13.016 0,7.234 4.688,12.468 11.219,12.468 4.109,0 7.734,-2.109 10.047,-5.89 l -1.125,-1.016 c -2.063,1.781 -4.219,2.594 -6.75,2.594 -5.031,0 -9.609,-4 -9.344,-11.235 h 17.219 m -16.891,-1.953 c 0.485,-3.672 2.75,-5.984 5.875,-5.984 2.969,0 4.922,2.156 5.344,5.984 h -11.219"
     id="path256"
     style="fill:#000000" />
  <path
     class="Lyrics"
     d="m 1268.8396,20.907 c 2.15,-3.079 3.14,-4 4.42,-4 1.8,0 2.22,2.531 4.06,2.531 1.67,0 2.2,-3.235 2.2,-3.5 0,-1.094 -1.6,-3.078 -3.98,-3.078 -2.81,0 -4.16,1.125 -6.59,5.125 h -0.11 v -5.344 h -1.35 l -7.18,2.906 v 1.25 l 4,2 v 12.625 c 0,3.078 -1.85,4.172 -4,4.172 v 1.938 h 14.04 v -1.938 c -4.76,0 -5.51,-1.141 -5.51,-5.187 v -9.5 m 16.79,10.734 c 0,2.703 -1.84,3.953 -3.89,3.953 v 1.938 h 11.77 v -1.938 c -1.94,-0.062 -3.34,-1.359 -3.34,-4.328 V 12.641 h -1.36 l -7.29,2.641 v 1.25 l 4.11,2.046 v 13.063 m -0.87,-28.719 c 0,1.61 1.3,2.906 2.92,2.906 1.63,0 2.91,-1.296 2.91,-2.906 0,-1.625 -1.28,-2.922 -2.91,-2.922 -1.62,0 -2.92,1.297 -2.92,2.922"
     id="path258"
     style="fill:#000000" />
  <path
     class="Lyrics"
     d="m 769.39856,14.953 c -2,-1.562 -4.437,-2.312 -7.296,-2.312 -4.641,0 -7.875,2.75 -7.875,6.687 0,1.579 0.593,3.407 1.671,4.485 4.422,4.437 11.547,4.328 11.547,8.484 0,2.203 -2.047,3.828 -4.906,3.828 -3.234,0 -5.234,-2.312 -5.781,-6.531 h -1.781 v 6.797 c 2.046,1.031 5.234,1.734 7.937,1.734 5.078,0 8.266,-2.703 8.266,-7.125 0,-1.781 -0.594,-3.515 -1.735,-4.64 -3.078,-3.078 -11.281,-4.063 -11.281,-8.11 0,-2.312 1.516,-3.609 4.047,-3.609 2.969,0 4.703,1.891 5.516,6.156 h 1.671 v -5.844 m 5.938,10.266 c 0,7.016 5.656,12.906 12.469,12.906 6.906,0 12.156,-5.609 12.156,-12.953 0,-7.344 -5.188,-12.531 -12.594,-12.531 -6.687,0 -12.031,5.562 -12.031,12.578 m 5.125,-2.047 c 0,-6.265 2.641,-8.531 6.687,-8.531 6.11,0 7.954,9.172 7.954,13.812 0,4.704 -2.594,7.672 -6.813,7.672 -5.562,0 -7.828,-8.156 -7.828,-12.953 m 31,-3.734 c 2.312,-1.938 4.594,-3.188 7.078,-3.188 3.5,0 5.063,2.547 5.063,5.938 v 8.969 c 0,2.921 -1.235,4.437 -4.375,4.437 v 1.938 h 12.752 v -1.938 c -3.08,-0.328 -3.83,-1.625 -3.83,-4.328 V 21 c 0,-5.828 -2.92,-8.359 -7.938,-8.359 -2.969,0 -6.438,1.672 -8.641,4.594 h -0.109 v -4.594 h -1.359 l -6.797,2.531 v 1.25 l 3.625,2.047 v 13.016 c 0,2.703 -1.297,4 -4,4.109 v 1.938 h 12.906 v -1.938 c -3.188,0 -4.375,-1.469 -4.375,-4.437 V 19.438"
     id="path260"
     style="fill:#000000" />
  <path
     class="Lyrics"
     d="m 1594.4496,0 h -1.36 l -6.91,2.485 v 1.25 l 3.72,2.047 v 25.703 c 0,2.328 -1.01,3.937 -3.72,4.109 v 1.938 h 11.61 v -1.938 c -2.43,-0.172 -3.34,-1.781 -3.34,-4.484 V 0 m 28.81,22.578 c 0,-3.843 -3.01,-9.937 -9.98,-9.937 -6.38,0 -11.28,5.609 -11.28,13.016 0,7.234 4.68,12.468 11.22,12.468 4.11,0 7.73,-2.109 10.04,-5.89 l -1.12,-1.016 c -2.06,1.781 -4.22,2.594 -6.75,2.594 -5.03,0 -9.61,-4 -9.35,-11.235 h 17.22 m -16.89,-1.953 c 0.49,-3.672 2.75,-5.984 5.88,-5.984 2.97,0 4.92,2.156 5.34,5.984 h -11.22 m 23.81,11.016 c 0,2.703 -1.84,3.953 -3.89,3.953 v 1.938 h 11.77 v -1.938 c -1.94,-0.062 -3.34,-1.359 -3.34,-4.328 V 12.641 h -1.36 l -7.28,2.641 v 1.25 l 4.1,2.046 v 13.063 m -0.87,-28.719 c 0,1.61 1.3,2.906 2.92,2.906 1.63,0 2.91,-1.296 2.91,-2.906 0,-1.625 -1.28,-2.922 -2.91,-2.922 -1.62,0 -2.92,1.297 -2.92,2.922"
     id="path262"
     style="fill:#000000" />
  <path
     class="Lyrics"
     d="m 1743.5696,14.953 c -2,-1.562 -4.44,-2.312 -7.3,-2.312 -4.64,0 -7.88,2.75 -7.88,6.687 0,1.579 0.6,3.407 1.68,4.485 4.42,4.437 11.54,4.328 11.54,8.484 0,2.203 -2.04,3.828 -4.9,3.828 -3.24,0 -5.24,-2.312 -5.78,-6.531 h -1.79 v 6.797 c 2.05,1.031 5.24,1.734 7.94,1.734 5.08,0 8.27,-2.703 8.27,-7.125 0,-1.781 -0.6,-3.515 -1.74,-4.64 -3.08,-3.078 -11.28,-4.063 -11.28,-8.11 0,-2.312 1.52,-3.609 4.05,-3.609 2.97,0 4.7,1.891 5.51,6.156 h 1.68 v -5.844 m 5.93,10.266 c 0,7.016 5.66,12.906 12.47,12.906 6.91,0 12.16,-5.609 12.16,-12.953 0,-7.344 -5.19,-12.531 -12.6,-12.531 -6.68,0 -12.03,5.562 -12.03,12.578 m 5.13,-2.047 c 0,-6.265 2.64,-8.531 6.69,-8.531 6.11,0 7.95,9.172 7.95,13.812 0,4.704 -2.59,7.672 -6.81,7.672 -5.57,0 -7.83,-8.156 -7.83,-12.953 m 31,-3.734 c 2.31,-1.938 4.59,-3.188 7.08,-3.188 3.5,0 5.06,2.547 5.06,5.938 v 8.969 c 0,2.921 -1.24,4.437 -4.38,4.437 v 1.938 h 12.75 v -1.938 c -3.07,-0.328 -3.82,-1.625 -3.82,-4.328 V 21 c 0,-5.828 -2.93,-8.359 -7.94,-8.359 -2.97,0 -6.44,1.672 -8.64,4.594 h -0.11 v -4.594 h -1.36 l -6.8,2.531 v 1.25 l 3.63,2.047 v 13.016 c 0,2.703 -1.3,4 -4,4.109 v 1.938 h 12.9 v -1.938 c -3.18,0 -4.37,-1.469 -4.37,-4.437 V 19.438 m 23.33,26.359 c 6.86,-0.109 10.79,-3.453 10.79,-9.187 0,-4.485 -2.42,-7.875 -5.61,-7.875 -2.11,0 -3.45,1.297 -3.45,3.39 0,1.953 1.24,3.078 3.34,3.078 1.9,0 2.6,0.985 2.6,3.079 0,3.468 -2.86,4.968 -7.67,5.515 v 2"
     id="path264"
     style="fill:#000000" />
  <path
     class="Lyrics"
     d="m 237.89756,317.154 c -2,-1.563 -4.437,-2.313 -7.297,-2.313 -4.64,0 -7.875,2.75 -7.875,6.688 0,1.578 0.594,3.406 1.672,4.484 4.422,4.438 11.547,4.328 11.547,8.484 0,2.204 -2.047,3.829 -4.906,3.829 -3.235,0 -5.235,-2.313 -5.781,-6.532 h -1.782 v 6.797 c 2.047,1.031 5.235,1.735 7.938,1.735 5.078,0 8.265,-2.704 8.265,-7.125 0,-1.782 -0.593,-3.516 -1.734,-4.641 -3.078,-3.078 -11.281,-4.063 -11.281,-8.109 0,-2.313 1.515,-3.61 4.047,-3.61 2.968,0 4.703,1.891 5.515,6.156 h 1.672 v -5.843 m 5.938,10.265 c 0,7.016 5.656,12.907 12.468,12.907 6.907,0 12.157,-5.61 12.157,-12.954 0,-7.343 -5.188,-12.531 -12.594,-12.531 -6.688,0 -12.031,5.563 -12.031,12.578 m 5.125,-2.047 c 0,-6.265 2.64,-8.531 6.687,-8.531 6.11,0 7.953,9.172 7.953,13.813 0,4.703 -2.593,7.672 -6.812,7.672 -5.563,0 -7.828,-8.157 -7.828,-12.954 m 31,-3.734 c 2.312,-1.937 4.593,-3.187 7.078,-3.187 3.5,0 5.062,2.546 5.062,5.937 v 8.969 c 0,2.922 -1.234,4.437 -4.375,4.437 v 1.938 h 12.75 v -1.938 c -3.078,-0.328 -3.828,-1.625 -3.828,-4.328 v -10.265 c 0,-5.829 -2.922,-8.36 -7.937,-8.36 -2.969,0 -6.438,1.672 -8.641,4.594 h -0.109 v -4.594 h -1.36 l -6.797,2.531 v 1.25 l 3.625,2.047 v 13.016 c 0,2.703 -1.296,4 -4,4.109 v 1.938 h 12.907 v -1.938 c -3.188,0 -4.375,-1.468 -4.375,-4.437 v -11.719 m 23.328,26.359 c 6.859,-0.109 10.797,-3.453 10.797,-9.187 0,-4.484 -2.422,-7.875 -5.61,-7.875 -2.109,0 -3.453,1.297 -3.453,3.391 0,1.953 1.235,3.078 3.344,3.078 1.891,0 2.594,0.984 2.594,3.078 0,3.469 -2.86,4.969 -7.672,5.515 v 2"
     id="path266"
     style="fill:#000000" />
  <path
     class="Lyrics"
     d="m 383.45156,324.779 c 0,-3.844 -3.016,-9.938 -9.985,-9.938 -6.375,0 -11.281,5.61 -11.281,13.016 0,7.234 4.687,12.469 11.219,12.469 4.109,0 7.734,-2.11 10.047,-5.891 l -1.125,-1.016 c -2.063,1.782 -4.219,2.594 -6.75,2.594 -5.032,0 -9.61,-4 -9.344,-11.234 h 17.219 m -16.891,-1.953 c 0.484,-3.672 2.75,-5.985 5.875,-5.985 2.969,0 4.922,2.156 5.344,5.985 h -11.219"
     id="path268"
     style="fill:#000000" />
  <path
     class="Lyrics"
     d="m 1748.9596,302.201 h -1.36 l -6.91,2.484 v 1.25 l 3.72,2.047 v 25.703 c 0,2.328 -1.02,3.937 -3.72,4.109 v 1.938 h 11.61 v -1.938 c -2.44,-0.172 -3.34,-1.781 -3.34,-4.484 v -31.109 m 28.81,22.578 c 0,-3.844 -3.02,-9.938 -9.99,-9.938 -6.37,0 -11.28,5.61 -11.28,13.016 0,7.234 4.69,12.469 11.22,12.469 4.11,0 7.74,-2.11 10.05,-5.891 l -1.13,-1.016 c -2.06,1.782 -4.21,2.594 -6.75,2.594 -5.03,0 -9.61,-4 -9.34,-11.234 h 17.22 m -16.89,-1.953 c 0.48,-3.672 2.75,-5.985 5.87,-5.985 2.97,0 4.93,2.156 5.35,5.985 h -11.22 m 23.81,11.015 c 0,2.703 -1.84,3.953 -3.89,3.953 v 1.938 h 11.77 v -1.938 c -1.94,-0.062 -3.35,-1.359 -3.35,-4.328 v -18.625 h -1.36 l -7.28,2.641 v 1.25 l 4.11,2.047 v 13.062 m -0.87,-28.719 c 0,1.61 1.29,2.907 2.92,2.907 1.62,0 2.9,-1.297 2.9,-2.907 0,-1.625 -1.28,-2.921 -2.9,-2.921 -1.63,0 -2.92,1.296 -2.92,2.921"
     id="path270"
     style="fill:#000000" />
  <path
     class="Lyrics"
     d="m 470.72356,302.201 h -1.36 l -6.906,2.484 v 1.25 l 3.719,2.047 v 25.703 c 0,2.328 -1.016,3.937 -3.719,4.109 v 1.938 h 11.61 v -1.938 c -2.438,-0.172 -3.344,-1.781 -3.344,-4.484 v -31.109 m 28.812,22.578 c 0,-3.844 -3.015,-9.938 -9.984,-9.938 -6.375,0 -11.281,5.61 -11.281,13.016 0,7.234 4.687,12.469 11.218,12.469 4.11,0 7.735,-2.11 10.047,-5.891 l -1.125,-1.016 c -2.062,1.782 -4.218,2.594 -6.75,2.594 -5.031,0 -9.609,-4 -9.343,-11.234 h 17.218 m -16.89,-1.953 c 0.484,-3.672 2.75,-5.985 5.875,-5.985 2.968,0 4.922,2.156 5.343,5.985 h -11.218 m 23.812,11.015 c 0,2.703 -1.844,3.953 -3.89,3.953 v 1.938 h 11.765 v -1.938 c -1.937,-0.062 -3.344,-1.359 -3.344,-4.328 v -18.625 h -1.359 l -7.281,2.641 v 1.25 l 4.109,2.047 v 13.062 m -0.875,-28.719 c 0,1.61 1.297,2.907 2.922,2.907 1.625,0 2.906,-1.297 2.906,-2.907 0,-1.625 -1.281,-2.921 -2.906,-2.921 -1.625,0 -2.922,1.296 -2.922,2.921"
     id="path272"
     style="fill:#000000" />
  <path
     class="Lyrics"
     d="m 1243.2896,302.904 v 2.047 c 4.75,0 5.72,2.109 5.72,6 v 20.953 c 0,4.156 -1.45,5.781 -5.72,5.781 v 2.047 h 17.44 v -2.047 c -4.8,0 -6.05,-1.953 -6.05,-5.297 v -22.359 c 0,-3.672 1.89,-5.078 5.74,-5.078 v -2.047 h -17.13 m 23.17,0 v 2.047 c 2.27,0 3.3,0.812 3.3,2.218 0,2.157 -4.22,6.422 -14.64,13.61 l 0.7,0.64 c 9.17,7.735 15.88,14.688 20.41,18.313 h 9.51 v -2.156 c -2.28,-0.438 -4.17,-1.188 -7.18,-3.454 -5.46,-4.171 -12.21,-11.187 -17.24,-15.015 7.56,-5.563 10.38,-9.078 13.78,-11.61 2.16,-1.625 4,-2.265 6.64,-2.546 v -2.047 h -15.28 m 28.74,37.093 c -1.41,4.657 -2.71,6.485 -4.75,6.485 -1.94,0 -1.94,-1.735 -3.83,-1.735 -1.3,0 -2.33,0.985 -2.33,2.219 0,1.844 1.78,3.078 4.33,3.078 3.23,0 5.5,-1.828 7.06,-5.781 l 8.97,-22.781 c 1.08,-2.75 1.73,-3.672 3.78,-4.11 v -1.937 h -9.34 v 1.937 c 3.29,0.172 4.04,2.219 2.97,5.032 l -4.64,11.812 -5.57,-12.734 c -1.25,-2.813 -0.54,-4 2.64,-4.11 v -1.937 h -11.76 v 1.937 c 1.73,0 2.48,0 3.89,3.188 l 8.58,19.437"
     id="path274"
     style="fill:#000000" />
  <path
     class="Lyrics"
     d="m 1510.9096,324.779 c 0,-3.844 -3.01,-9.938 -9.98,-9.938 -6.38,0 -11.28,5.61 -11.28,13.016 0,7.234 4.68,12.469 11.22,12.469 4.11,0 7.73,-2.11 10.04,-5.891 l -1.12,-1.016 c -2.06,1.782 -4.22,2.594 -6.75,2.594 -5.03,0 -9.61,-4 -9.35,-11.234 h 17.22 m -16.89,-1.953 c 0.49,-3.672 2.75,-5.985 5.88,-5.985 2.97,0 4.92,2.156 5.34,5.985 h -11.22"
     id="path276"
     style="fill:#000000" />
  <path
     class="Lyrics"
     d="m 1622.7596,324.779 c 0,-3.844 -3.01,-9.938 -9.98,-9.938 -6.38,0 -11.28,5.61 -11.28,13.016 0,7.234 4.68,12.469 11.22,12.469 4.11,0 7.73,-2.11 10.04,-5.891 l -1.12,-1.016 c -2.06,1.782 -4.22,2.594 -6.75,2.594 -5.03,0 -9.61,-4 -9.35,-11.234 h 17.22 m -16.89,-1.953 c 0.49,-3.672 2.75,-5.985 5.88,-5.985 2.97,0 4.92,2.156 5.34,5.985 h -11.22"
     id="path278"
     style="fill:#000000" />
  <path
     class="Lyrics"
     d="m 1855.4196,317.154 c -2,-1.563 -4.44,-2.313 -7.3,-2.313 -4.64,0 -7.88,2.75 -7.88,6.688 0,1.578 0.6,3.406 1.68,4.484 4.42,4.438 11.54,4.328 11.54,8.484 0,2.204 -2.04,3.829 -4.9,3.829 -3.24,0 -5.24,-2.313 -5.78,-6.532 h -1.79 v 6.797 c 2.05,1.031 5.24,1.735 7.94,1.735 5.08,0 8.27,-2.704 8.27,-7.125 0,-1.782 -0.6,-3.516 -1.74,-4.641 -3.07,-3.078 -11.28,-4.063 -11.28,-8.109 0,-2.313 1.52,-3.61 4.05,-3.61 2.97,0 4.7,1.891 5.51,6.156 h 1.68 v -5.843 m 5.93,10.265 c 0,7.016 5.66,12.907 12.47,12.907 6.91,0 12.16,-5.61 12.16,-12.954 0,-7.343 -5.19,-12.531 -12.59,-12.531 -6.69,0 -12.04,5.563 -12.04,12.578 m 5.13,-2.047 c 0,-6.265 2.64,-8.531 6.69,-8.531 6.11,0 7.95,9.172 7.95,13.813 0,4.703 -2.59,7.672 -6.81,7.672 -5.57,0 -7.83,-8.157 -7.83,-12.954 m 31,-3.734 c 2.31,-1.937 4.59,-3.187 7.08,-3.187 3.5,0 5.06,2.546 5.06,5.937 v 8.969 c 0,2.922 -1.23,4.437 -4.38,4.437 v 1.938 h 12.75 v -1.938 c -3.07,-0.328 -3.82,-1.625 -3.82,-4.328 v -10.265 c 0,-5.829 -2.93,-8.36 -7.94,-8.36 -2.97,0 -6.44,1.672 -8.64,4.594 h -0.11 v -4.594 h -1.36 l -6.8,2.531 v 1.25 l 3.63,2.047 v 13.016 c 0,2.703 -1.3,4 -4,4.109 v 1.938 h 12.9 v -1.938 c -3.18,0 -4.37,-1.468 -4.37,-4.437 v -11.719 m 29.37,12.047 c -1.82,0 -3.29,1.453 -3.29,3.297 0,1.828 1.47,3.344 3.29,3.344 1.85,0 3.35,-1.516 3.35,-3.344 0,-1.844 -1.5,-3.297 -3.35,-3.297"
     id="path280"
     style="fill:#000000" />
  <path
     class="Lyrics"
     d="m 993.59956,317.154 c -2,-1.563 -4.44,-2.313 -7.3,-2.313 -4.64,0 -7.87,2.75 -7.87,6.688 0,1.578 0.59,3.406 1.67,4.484 4.42,4.438 11.55,4.328 11.55,8.484 0,2.204 -2.05,3.829 -4.91,3.829 -3.23,0 -5.23,-2.313 -5.78,-6.532 h -1.78 v 6.797 c 2.05,1.031 5.23,1.735 7.94,1.735 5.07,0 8.26,-2.704 8.26,-7.125 0,-1.782 -0.59,-3.516 -1.73,-4.641 -3.08,-3.078 -11.28,-4.063 -11.28,-8.109 0,-2.313 1.51,-3.61 4.04,-3.61 2.97,0 4.71,1.891 5.52,6.156 h 1.67 v -5.843 m 5.94,10.265 c 0,7.016 5.65004,12.907 12.47004,12.907 6.9,0 12.15,-5.61 12.15,-12.954 0,-7.343 -5.18,-12.531 -12.59,-12.531 -6.69,0 -12.03004,5.563 -12.03004,12.578 m 5.12004,-2.047 c 0,-6.265 2.64,-8.531 6.69,-8.531 6.11,0 7.95,9.172 7.95,13.813 0,4.703 -2.59,7.672 -6.81,7.672 -5.56,0 -7.83,-8.157 -7.83,-12.954 m 31,-3.734 c 2.32,-1.937 4.6,-3.187 7.08,-3.187 3.5,0 5.06,2.546 5.06,5.937 v 8.969 c 0,2.922 -1.23,4.437 -4.37,4.437 v 1.938 h 12.75 v -1.938 c -3.08,-0.328 -3.83,-1.625 -3.83,-4.328 v -10.265 c 0,-5.829 -2.92,-8.36 -7.94,-8.36 -2.97,0 -6.43,1.672 -8.64,4.594 h -0.11 v -4.594 h -1.36 l -6.79,2.531 v 1.25 l 3.62,2.047 v 13.016 c 0,2.703 -1.3,4 -4,4.109 v 1.938 h 12.91 v -1.938 c -3.19,0 -4.38,-1.468 -4.38,-4.437 v -11.719 m 29.38,12.047 c -1.83,0 -3.3,1.453 -3.3,3.297 0,1.828 1.47,3.344 3.3,3.344 1.84,0 3.34,-1.516 3.34,-3.344 0,-1.844 -1.5,-3.297 -3.34,-3.297"
     id="path282"
     style="fill:#000000" />
  <path
     class="Lyrics"
     d="m 1380.6896,323.107 c 2.15,-3.078 3.14,-4 4.42,-4 1.8,0 2.22,2.531 4.06,2.531 1.67,0 2.2,-3.234 2.2,-3.5 0,-1.094 -1.6,-3.078 -3.98,-3.078 -2.81,0 -4.16,1.125 -6.59,5.125 h -0.11 v -5.344 h -1.35 l -7.18,2.906 v 1.25 l 4,2 v 12.625 c 0,3.079 -1.85,4.172 -4,4.172 v 1.938 h 14.04 v -1.938 c -4.76,0 -5.51,-1.14 -5.51,-5.187 v -9.5 m 16.79,10.734 c 0,2.703 -1.84,3.953 -3.89,3.953 v 1.938 h 11.77 v -1.938 c -1.94,-0.062 -3.34,-1.359 -3.34,-4.328 v -18.625 h -1.36 l -7.29,2.641 v 1.25 l 4.11,2.047 v 13.062 m -0.87,-28.719 c 0,1.61 1.3,2.907 2.92,2.907 1.63,0 2.91,-1.297 2.91,-2.907 0,-1.625 -1.28,-2.921 -2.91,-2.921 -1.62,0 -2.92,1.296 -2.92,2.921"
     id="path284"
     style="fill:#000000" />
  <path
     class="Lyrics"
     d="m 237.89756,399.754 c -2,-1.563 -4.437,-2.313 -7.297,-2.313 -4.64,0 -7.875,2.75 -7.875,6.688 0,1.578 0.594,3.406 1.672,4.484 4.422,4.438 11.547,4.328 11.547,8.485 0,2.203 -2.047,3.828 -4.906,3.828 -3.235,0 -5.235,-2.313 -5.781,-6.532 h -1.782 v 6.797 c 2.047,1.032 5.235,1.735 7.938,1.735 5.078,0 8.265,-2.703 8.265,-7.125 0,-1.782 -0.593,-3.516 -1.734,-4.641 -3.078,-3.078 -11.281,-4.062 -11.281,-8.109 0,-2.313 1.515,-3.61 4.047,-3.61 2.968,0 4.703,1.891 5.515,6.157 h 1.672 v -5.844 m 5.938,10.265 c 0,7.016 5.656,12.907 12.468,12.907 6.907,0 12.157,-5.61 12.157,-12.953 0,-7.344 -5.188,-12.532 -12.594,-12.532 -6.688,0 -12.031,5.563 -12.031,12.578 m 5.125,-2.046 c 0,-6.266 2.64,-8.532 6.687,-8.532 6.11,0 7.953,9.172 7.953,13.813 0,4.703 -2.593,7.672 -6.812,7.672 -5.563,0 -7.828,-8.157 -7.828,-12.953 m 31,-3.735 c 2.312,-1.937 4.593,-3.187 7.078,-3.187 3.5,0 5.062,2.547 5.062,5.937 v 8.969 c 0,2.922 -1.234,4.437 -4.375,4.437 v 1.938 h 12.75 v -1.938 c -3.078,-0.328 -3.828,-1.625 -3.828,-4.328 v -10.265 c 0,-5.828 -2.922,-8.36 -7.937,-8.36 -2.969,0 -6.438,1.672 -8.641,4.594 h -0.109 v -4.594 h -1.36 l -6.797,2.532 v 1.25 l 3.625,2.046 v 13.016 c 0,2.703 -1.296,4 -4,4.109 v 1.938 h 12.907 v -1.938 c -3.188,0 -4.375,-1.468 -4.375,-4.437 v -11.719 m 23.328,26.36 c 6.859,-0.11 10.797,-3.454 10.797,-9.188 0,-4.484 -2.422,-7.875 -5.61,-7.875 -2.109,0 -3.453,1.297 -3.453,3.391 0,1.953 1.235,3.078 3.344,3.078 1.891,0 2.594,0.984 2.594,3.078 0,3.469 -2.86,4.969 -7.672,5.516 v 2"
     id="path286"
     style="fill:#000000" />
  <path
     class="Lyrics"
     d="m 384.58156,407.379 c 0,-3.844 -3.016,-9.938 -9.984,-9.938 -6.375,0 -11.282,5.61 -11.282,13.016 0,7.234 4.688,12.469 11.219,12.469 4.109,0 7.734,-2.11 10.047,-5.891 l -1.125,-1.016 c -2.063,1.782 -4.219,2.594 -6.75,2.594 -5.031,0 -9.609,-4 -9.344,-11.234 h 17.219 m -16.891,-1.953 c 0.485,-3.672 2.75,-5.985 5.875,-5.985 2.969,0 4.922,2.157 5.344,5.985 h -11.219"
     id="path288"
     style="fill:#000000" />
  <path
     class="Lyrics"
     d="m 887.13956,384.801 h -1.36 l -6.91,2.484 v 1.25 l 3.72,2.047 v 25.703 c 0,2.328 -1.01,3.938 -3.72,4.109 v 1.938 h 11.61 v -1.938 c -2.43,-0.171 -3.34,-1.781 -3.34,-4.484 v -31.109 m 28.81,22.578 c 0,-3.844 -3.01,-9.938 -9.98,-9.938 -6.38,0 -11.28,5.61 -11.28,13.016 0,7.234 4.68,12.469 11.22,12.469 4.11,0 7.73,-2.11 10.04,-5.891 l -1.12,-1.016 c -2.06,1.782 -4.22,2.594 -6.75,2.594 -5.03,0 -9.61,-4 -9.35,-11.234 h 17.22 m -16.89,-1.953 c 0.49,-3.672 2.75,-5.985 5.88,-5.985 2.97,0 4.92,2.157 5.34,5.985 h -11.22 m 23.81,11.015 c 0,2.703 -1.84,3.953 -3.89,3.953 v 1.938 h 11.77 v -1.938 c -1.94,-0.062 -3.34,-1.359 -3.34,-4.328 v -18.625 h -1.36 l -7.28,2.641 v 1.25 l 4.1,2.047 v 13.062 m -0.87,-28.718 c 0,1.609 1.3,2.906 2.92,2.906 1.63,0 2.91,-1.297 2.91,-2.906 0,-1.625 -1.28,-2.922 -2.91,-2.922 -1.62,0 -2.92,1.297 -2.92,2.922"
     id="path290"
     style="fill:#000000" />
  <path
     class="Lyrics"
     d="m 993.59956,399.754 c -2,-1.563 -4.44,-2.313 -7.3,-2.313 -4.64,0 -7.87,2.75 -7.87,6.688 0,1.578 0.59,3.406 1.67,4.484 4.42,4.438 11.55,4.328 11.55,8.485 0,2.203 -2.05,3.828 -4.91,3.828 -3.23,0 -5.23,-2.313 -5.78,-6.532 h -1.78 v 6.797 c 2.05,1.032 5.23,1.735 7.94,1.735 5.07,0 8.26,-2.703 8.26,-7.125 0,-1.782 -0.59,-3.516 -1.73,-4.641 -3.08,-3.078 -11.28,-4.062 -11.28,-8.109 0,-2.313 1.51,-3.61 4.04,-3.61 2.97,0 4.71,1.891 5.52,6.157 h 1.67 v -5.844 m 5.94,10.265 c 0,7.016 5.65004,12.907 12.47004,12.907 6.9,0 12.15,-5.61 12.15,-12.953 0,-7.344 -5.18,-12.532 -12.59,-12.532 -6.69,0 -12.03004,5.563 -12.03004,12.578 m 5.12004,-2.046 c 0,-6.266 2.64,-8.532 6.69,-8.532 6.11,0 7.95,9.172 7.95,13.813 0,4.703 -2.59,7.672 -6.81,7.672 -5.56,0 -7.83,-8.157 -7.83,-12.953 m 31,-3.735 c 2.32,-1.937 4.6,-3.187 7.08,-3.187 3.5,0 5.06,2.547 5.06,5.937 v 8.969 c 0,2.922 -1.23,4.437 -4.37,4.437 v 1.938 h 12.75 v -1.938 c -3.08,-0.328 -3.83,-1.625 -3.83,-4.328 v -10.265 c 0,-5.828 -2.92,-8.36 -7.94,-8.36 -2.97,0 -6.43,1.672 -8.64,4.594 h -0.11 v -4.594 h -1.36 l -6.79,2.532 v 1.25 l 3.62,2.046 v 13.016 c 0,2.703 -1.3,4 -4,4.109 v 1.938 h 12.91 v -1.938 c -3.19,0 -4.38,-1.468 -4.38,-4.437 v -11.719 m 29.38,12.047 c -1.83,0 -3.3,1.453 -3.3,3.297 0,1.828 1.47,3.344 3.3,3.344 1.84,0 3.34,-1.516 3.34,-3.344 0,-1.844 -1.5,-3.297 -3.34,-3.297"
     id="path292"
     style="fill:#000000" />
  <path
     class="Lyrics"
     d="m 237.89756,750.953 c -2,-1.56 -4.437,-2.31 -7.297,-2.31 -4.64,0 -7.875,2.75 -7.875,6.69 0,1.57 0.594,3.4 1.672,4.48 4.422,4.44 11.547,4.33 11.547,8.48 0,2.21 -2.047,3.83 -4.906,3.83 -3.235,0 -5.235,-2.31 -5.781,-6.53 h -1.782 v 6.8 c 2.047,1.03 5.235,1.73 7.938,1.73 5.078,0 8.265,-2.7 8.265,-7.12 0,-1.78 -0.593,-3.52 -1.734,-4.64 -3.078,-3.08 -11.281,-4.07 -11.281,-8.11 0,-2.31 1.515,-3.61 4.047,-3.61 2.968,0 4.703,1.89 5.515,6.15 h 1.672 v -5.84 m 5.938,10.27 c 0,7.01 5.656,12.9 12.468,12.9 6.907,0 12.157,-5.61 12.157,-12.95 0,-7.34 -5.188,-12.53 -12.594,-12.53 -6.688,0 -12.031,5.56 -12.031,12.58 m 5.125,-2.05 c 0,-6.27 2.64,-8.53 6.687,-8.53 6.11,0 7.953,9.17 7.953,13.81 0,4.7 -2.593,7.67 -6.812,7.67 -5.563,0 -7.828,-8.15 -7.828,-12.95 m 31,-3.73 c 2.312,-1.94 4.593,-3.19 7.078,-3.19 3.5,0 5.062,2.54 5.062,5.94 v 8.96 c 0,2.93 -1.234,4.44 -4.375,4.44 v 1.94 h 12.75 v -1.94 c -3.078,-0.33 -3.828,-1.62 -3.828,-4.33 v -10.26 c 0,-5.83 -2.922,-8.36 -7.937,-8.36 -2.969,0 -6.438,1.67 -8.641,4.59 h -0.109 v -4.59 h -1.36 l -6.797,2.53 v 1.25 l 3.625,2.05 v 13.01 c 0,2.71 -1.296,4 -4,4.11 v 1.94 h 12.907 v -1.94 c -3.188,0 -4.375,-1.47 -4.375,-4.44 v -11.71 m 23.328,26.35 c 6.859,-0.1 10.797,-3.45 10.797,-9.18 0,-4.49 -2.422,-7.88 -5.61,-7.88 -2.109,0 -3.453,1.3 -3.453,3.39 0,1.96 1.235,3.08 3.344,3.08 1.891,0 2.594,0.99 2.594,3.08 0,3.47 -2.86,4.97 -7.672,5.51 v 2"
     id="path294"
     style="fill:#000000" />
  <path
     class="Lyrics"
     d="m 378.13356,758.583 c 0,-3.85 -3.016,-9.94 -9.984,-9.94 -6.375,0 -11.282,5.61 -11.282,13.01 0,7.24 4.688,12.47 11.219,12.47 4.109,0 7.734,-2.11 10.047,-5.89 l -1.125,-1.01 c -2.063,1.78 -4.219,2.59 -6.75,2.59 -5.031,0 -9.609,-4 -9.344,-11.23 h 17.219 m -16.891,-1.96 c 0.485,-3.67 2.75,-5.98 5.875,-5.98 2.969,0 4.922,2.15 5.344,5.98 h -11.219"
     id="path296"
     style="fill:#000000" />
  <path
     class="Lyrics"
     d="m 775.28956,736.003 h -1.359 l -6.907,2.48 v 1.25 l 3.719,2.05 v 25.7 c 0,2.33 -1.015,3.94 -3.719,4.11 v 1.94 h 11.61 v -1.94 c -2.438,-0.17 -3.344,-1.78 -3.344,-4.48 v -31.11 m 28.813,22.58 c 0,-3.85 -3.016,-9.94 -9.985,-9.94 -6.375,0 -11.281,5.61 -11.281,13.01 0,7.24 4.687,12.47 11.219,12.47 4.109,0 7.734,-2.11 10.047,-5.89 l -1.125,-1.01 c -2.063,1.78 -4.219,2.59 -6.75,2.59 -5.032,0 -9.61,-4 -9.344,-11.23 h 17.219 m -16.891,-1.96 c 0.484,-3.67 2.75,-5.98 5.875,-5.98 2.969,0 4.922,2.15 5.344,5.98 h -11.219 m 23.812,11.02 c 0,2.7 -1.843,3.95 -3.89,3.95 v 1.94 h 11.765 v -1.94 c -1.937,-0.06 -3.343,-1.36 -3.343,-4.33 v -18.62 h -1.36 l -7.281,2.64 v 1.25 l 4.109,2.05 v 13.06 m -0.875,-28.72 c 0,1.61 1.297,2.91 2.922,2.91 1.625,0 2.907,-1.3 2.907,-2.91 0,-1.63 -1.282,-2.92 -2.907,-2.92 -1.625,0 -2.922,1.29 -2.922,2.92"
     id="path298"
     style="fill:#000000" />
  <path
     class="Lyrics"
     d="m 993.59956,750.953 c -2,-1.56 -4.44,-2.31 -7.3,-2.31 -4.64,0 -7.87,2.75 -7.87,6.69 0,1.57 0.59,3.4 1.67,4.48 4.42,4.44 11.55,4.33 11.55,8.48 0,2.21 -2.05,3.83 -4.91,3.83 -3.23,0 -5.23,-2.31 -5.78,-6.53 h -1.78 v 6.8 c 2.05,1.03 5.23,1.73 7.94,1.73 5.07,0 8.26,-2.7 8.26,-7.12 0,-1.78 -0.59,-3.52 -1.73,-4.64 -3.08,-3.08 -11.28,-4.07 -11.28,-8.11 0,-2.31 1.51,-3.61 4.04,-3.61 2.97,0 4.71,1.89 5.52,6.15 h 1.67 v -5.84 m 5.94,10.27 c 0,7.01 5.65004,12.9 12.47004,12.9 6.9,0 12.15,-5.61 12.15,-12.95 0,-7.34 -5.18,-12.53 -12.59,-12.53 -6.69,0 -12.03004,5.56 -12.03004,12.58 m 5.12004,-2.05 c 0,-6.27 2.64,-8.53 6.69,-8.53 6.11,0 7.95,9.17 7.95,13.81 0,4.7 -2.59,7.67 -6.81,7.67 -5.56,0 -7.83,-8.15 -7.83,-12.95 m 31,-3.73 c 2.32,-1.94 4.6,-3.19 7.08,-3.19 3.5,0 5.06,2.54 5.06,5.94 v 8.96 c 0,2.93 -1.23,4.44 -4.37,4.44 v 1.94 h 12.75 v -1.94 c -3.08,-0.33 -3.83,-1.62 -3.83,-4.33 v -10.26 c 0,-5.83 -2.92,-8.36 -7.94,-8.36 -2.97,0 -6.43,1.67 -8.64,4.59 h -0.11 v -4.59 h -1.36 l -6.79,2.53 v 1.25 l 3.62,2.05 v 13.01 c 0,2.71 -1.3,4 -4,4.11 v 1.94 h 12.91 v -1.94 c -3.19,0 -4.38,-1.47 -4.38,-4.44 v -11.71 m 29.38,12.04 c -1.83,0 -3.3,1.46 -3.3,3.3 0,1.83 1.47,3.34 3.3,3.34 1.84,0 3.34,-1.51 3.34,-3.34 0,-1.84 -1.5,-3.3 -3.34,-3.3"
     id="path300"
     style="fill:#000000" />
  <polyline
     class="LyricsLineSegment"
     fill="none"
     stroke="#000000"
     stroke-width="2.48"
     stroke-linejoin="bevel"
     points="1501.25,305.82 1521.09,305.82"
     id="polyline302"
     style="fill:#000000"
     transform="translate(-175.88044,-282.867)" />
  <polyline
     class="LyricsLineSegment"
     fill="none"
     stroke="#000000"
     stroke-width="2.48"
     stroke-linejoin="bevel"
     points="1377.3,305.82 1397.14,305.82"
     id="polyline304"
     style="fill:#000000"
     transform="translate(-175.88044,-282.867)" />
  <polyline
     class="LyricsLineSegment"
     fill="none"
     stroke="#000000"
     stroke-width="2.48"
     stroke-linejoin="bevel"
     points="642.59,305.82 662.43,305.82"
     id="polyline306"
     style="fill:#000000"
     transform="translate(-175.88044,-282.867)" />
  <polyline
     class="LyricsLineSegment"
     fill="none"
     stroke="#000000"
     stroke-width="2.48"
     stroke-linejoin="bevel"
     points="1714.45,305.82 1734.29,305.82"
     id="polyline308"
     style="fill:#000000"
     transform="translate(-175.88044,-282.867)" />
  <polyline
     class="LyricsLineSegment"
     fill="none"
     stroke="#000000"
     stroke-width="2.48"
     stroke-linejoin="bevel"
     points="1849.38,305.82 1869.22,305.82"
     id="polyline310"
     style="fill:#000000"
     transform="translate(-175.88044,-282.867)" />
  <polyline
     class="LyricsLineSegment"
     fill="none"
     stroke="#000000"
     stroke-width="2.48"
     stroke-linejoin="bevel"
     points="856.824,305.82 876.664,305.82"
     id="polyline312"
     style="fill:#000000"
     transform="translate(-175.88044,-282.867)" />
  <polyline
     class="LyricsLineSegment"
     fill="none"
     stroke="#000000"
     stroke-width="2.48"
     stroke-linejoin="bevel"
     points="588.86,608.021 608.7,608.021"
     id="polyline314"
     style="fill:#000000"
     transform="translate(-175.88044,-282.867)" />
  <polyline
     class="LyricsLineSegment"
     fill="none"
     stroke="#000000"
     stroke-width="2.48"
     stroke-linejoin="bevel"
     points="1982.56,608.021 2002.4,608.021"
     id="polyline316"
     style="fill:#000000"
     transform="translate(-175.88044,-282.867)" />
  <polyline
     class="LyricsLineSegment"
     fill="none"
     stroke="#000000"
     stroke-width="2.48"
     stroke-linejoin="bevel"
     points="1847.63,608.021 1867.47,608.021"
     id="polyline318"
     style="fill:#000000"
     transform="translate(-175.88044,-282.867)" />
  <polyline
     class="LyricsLineSegment"
     fill="none"
     stroke="#000000"
     stroke-width="2.48"
     stroke-linejoin="bevel"
     points="1507.25,608.021 1527.09,608.021"
     id="polyline320"
     style="fill:#000000"
     transform="translate(-175.88044,-282.867)" />
  <polyline
     class="LyricsLineSegment"
     fill="none"
     stroke="#000000"
     stroke-width="2.48"
     stroke-linejoin="bevel"
     points="1613.1,608.021 1632.94,608.021"
     id="polyline322"
     style="fill:#000000"
     transform="translate(-175.88044,-282.867)" />
  <polyline
     class="LyricsLineSegment"
     fill="none"
     stroke="#000000"
     stroke-width="2.48"
     stroke-linejoin="bevel"
     points="912.536,608.021 932.376,608.021"
     id="polyline324"
     style="fill:#000000"
     transform="translate(-175.88044,-282.867)" />
  <polyline
     class="LyricsLineSegment"
     fill="none"
     stroke="#000000"
     stroke-width="2.48"
     stroke-linejoin="bevel"
     points="797.634,690.621 817.474,690.621"
     id="polyline326"
     style="fill:#000000"
     transform="translate(-175.88044,-282.867)" />
  <polyline
     class="LyricsLineSegment"
     fill="none"
     stroke="#000000"
     stroke-width="2.48"
     stroke-linejoin="bevel"
     points="1120.74,690.621 1140.58,690.621"
     id="polyline328"
     style="fill:#000000"
     transform="translate(-175.88044,-282.867)" />
  <polyline
     class="LyricsLineSegment"
     fill="none"
     stroke="#000000"
     stroke-width="2.48"
     stroke-linejoin="bevel"
     points="1064.82,1041.82 1084.66,1041.82"
     id="polyline330"
     style="fill:#000000"
     transform="translate(-175.88044,-282.867)" />
  <polyline
     class="LyricsLineSegment"
     fill="none"
     stroke="#000000"
     stroke-width="2.48"
     stroke-linejoin="bevel"
     points="738.484,1041.82 758.325,1041.82"
     id="polyline332"
     style="fill:#000000"
     transform="translate(-175.88044,-282.867)" />
  <path
     class="NoteDot"
     d="m 411.49557,190.132 c 0,-2.77451 -2.18549,-4.96001 -4.96,-4.96001 -2.7745,0 -4.96001,2.1855 -4.96001,4.96001 0,2.77451 2.18551,4.96 4.96001,4.96 2.77451,0 4.96,-2.18549 4.96,-4.96"
     id="path334"
     style="fill:#000000;stroke-width:0.992001" />
  <path
     class="NoteDot"
     d="m 411.49557,596.932 c 0,-2.77451 -2.18549,-4.96001 -4.96,-4.96001 -2.7745,0 -4.96001,2.1855 -4.96001,4.96001 0,2.77451 2.18551,4.96001 4.96001,4.96001 2.77451,0 4.96,-2.1855 4.96,-4.96001"
     id="path336"
     style="fill:#000000;stroke-width:0.992001" />
  <path
     class="Bracket"
     d="m 6.4615625,369.80956 c 10.4508755,-9.62077 22.3064555,-47.2742 22.3064555,-78.6249 0,-2.65401 0,-5.80537 -0.39333,-8.45938 -2.47225,-31.84806 -13.26025,-81.19609 -13.26025,-109.89279 0,-27.61811 8.25958,-54.15816 10.05758,-58.88547 1.067545,-3.2347 1.798,-3.73206 1.798,-5.30801 0,-1.65875 -1.06758,-3.73206 -2.19133,-3.73206 -0.67425,0 -1.40467,1.07806 -2.865545,3.73206 -7.922455,14.26528 -17.5867055,45.11809 -17.5867055,98.19819 0,52.4994 12.5860005,73.73144 12.5860005,107.23825 0,24.8813 -6.854875,38.73202 -16.912438,55.73411 6.4615625,10.61602 16.912438,19.07592 16.912438,53.57799 0,37.15607 -12.5860005,70.08219 -12.5860005,108.8142 0,53.07994 9.6642505,83.84984 17.5867055,98.77862 1.460875,2.654 2.191295,3.15163 2.865545,3.15163 1.12375,0 2.19133,-1.57582 2.19133,-3.15163 0,-1.65875 -0.39333,-2.65401 -1.798,-5.8886 -1.798,-4.22979 -10.05758,-30.76984 -10.05758,-58.88584 0,-28.116 10.788,-78.0442 13.26025,-109.3949 0.39333,-2.65401 0.39333,-5.30801 0.39333,-8.45938 0,-31.3507 -11.85558,-69.00413 -22.3064555,-78.54209"
     id="path338"
     style="fill:#000000;stroke-width:4.36894" />
</svg>
