<?xml version="1.0" encoding="UTF-8" standalone="no"?>
<svg
   width="2552.0081"
   height="822.04303"
   viewBox="0 0 2552.0081 822.04305"
   version="1.2"
   id="svg366"
   sodipodi:docname="Stiluebung-5a-1g.svg"
   inkscape:version="1.2.1 (9c6d41e410, 2022-07-14)"
   xmlns:inkscape="http://www.inkscape.org/namespaces/inkscape"
   xmlns:sodipodi="http://sodipodi.sourceforge.net/DTD/sodipodi-0.dtd"
   xmlns="http://www.w3.org/2000/svg"
   xmlns:svg="http://www.w3.org/2000/svg"
   xmlns:rdf="http://www.w3.org/1999/02/22-rdf-syntax-ns#"
   xmlns:cc="http://creativecommons.org/ns#"
   xmlns:dc="http://purl.org/dc/elements/1.1/">
  <defs
     id="defs370" />
  <sodipodi:namedview
     id="namedview368"
     pagecolor="#505050"
     bordercolor="#eeeeee"
     borderopacity="1"
     inkscape:showpageshadow="0"
     inkscape:pageopacity="0"
     inkscape:pagecheckerboard="0"
     inkscape:deskcolor="#505050"
     showgrid="false"
     inkscape:zoom="0.25021386"
     inkscape:cx="855.26836"
     inkscape:cy="1812.4495"
     inkscape:current-layer="svg366" />
  <title
     id="title2">Stiluebung-5a</title>
  <desc
     id="desc4">Generated by MuseScore 4.0.0</desc>
  <rect
     style="fill:#ffffff;stroke:#003a66;stroke-width:2"
     id="rect1126"
     width="2613.7642"
     height="883.24445"
     x="-27.976068"
     y="-31.972649" />
  <polyline
     class="StaffLines"
     fill="none"
     stroke="#000000"
     stroke-width="3.22"
     stroke-linejoin="bevel"
     points="212.598,386.199 2764.6,386.199"
     id="polyline8"
     transform="translate(-212.597,-282.867)" />
  <polyline
     class="StaffLines"
     fill="none"
     stroke="#000000"
     stroke-width="3.22"
     stroke-linejoin="bevel"
     points="212.598,410.999 2764.6,410.999"
     id="polyline10"
     transform="translate(-212.597,-282.867)" />
  <polyline
     class="StaffLines"
     fill="none"
     stroke="#000000"
     stroke-width="3.22"
     stroke-linejoin="bevel"
     points="212.598,435.799 2764.6,435.799"
     id="polyline12"
     transform="translate(-212.597,-282.867)" />
  <polyline
     class="StaffLines"
     fill="none"
     stroke="#000000"
     stroke-width="3.22"
     stroke-linejoin="bevel"
     points="212.598,460.599 2764.6,460.599"
     id="polyline14"
     transform="translate(-212.597,-282.867)" />
  <polyline
     class="StaffLines"
     fill="none"
     stroke="#000000"
     stroke-width="3.22"
     stroke-linejoin="bevel"
     points="212.598,485.399 2764.6,485.399"
     id="polyline16"
     transform="translate(-212.597,-282.867)" />
  <polyline
     class="StaffLines"
     fill="none"
     stroke="#000000"
     stroke-width="3.22"
     stroke-linejoin="bevel"
     points="212.598,855.999 2764.6,855.999"
     id="polyline18"
     transform="translate(-212.597,-282.867)" />
  <polyline
     class="StaffLines"
     fill="none"
     stroke="#000000"
     stroke-width="3.22"
     stroke-linejoin="bevel"
     points="212.598,880.799 2764.6,880.799"
     id="polyline20"
     transform="translate(-212.597,-282.867)" />
  <polyline
     class="StaffLines"
     fill="none"
     stroke="#000000"
     stroke-width="3.22"
     stroke-linejoin="bevel"
     points="212.598,905.599 2764.6,905.599"
     id="polyline22"
     transform="translate(-212.597,-282.867)" />
  <polyline
     class="StaffLines"
     fill="none"
     stroke="#000000"
     stroke-width="3.22"
     stroke-linejoin="bevel"
     points="212.598,930.399 2764.6,930.399"
     id="polyline24"
     transform="translate(-212.597,-282.867)" />
  <polyline
     class="StaffLines"
     fill="none"
     stroke="#000000"
     stroke-width="3.22"
     stroke-linejoin="bevel"
     points="212.598,955.199 2764.6,955.199"
     id="polyline26"
     transform="translate(-212.597,-282.867)" />
  <path
     class="TieSegment"
     stroke="#000000"
     stroke-width="2.48"
     stroke-linecap="round"
     stroke-linejoin="round"
     fill-rule="evenodd"
     d="m 713.605,117.81 c 39.422,-32.936 157.688,-32.936 197.108,0 -39.42,-26.984 -157.686,-26.984 -197.108,0"
     id="path28" />
  <path
     class="TieSegment"
     fill="#00aa00"
     stroke="#00aa00"
     stroke-width="2.48"
     stroke-linecap="round"
     stroke-linejoin="round"
     fill-rule="evenodd"
     d="m 1717.333,184.056 c 55.33,-35.216 221.34,-35.216 276.68,0 -55.34,-29.264 -221.35,-29.264 -276.68,0"
     id="path30" />
  <path
     class="TieSegment"
     fill="#00aa00"
     stroke="#00aa00"
     stroke-width="2.48"
     stroke-linecap="round"
     stroke-linejoin="round"
     fill-rule="evenodd"
     d="m 1475.413,233.408 c 52.19,29.264 208.77,29.264 260.96,0 -52.19,35.216 -208.77,35.216 -260.96,0"
     id="path32" />
  <path
     class="TieSegment"
     stroke="#000000"
     stroke-width="2.48"
     stroke-linecap="round"
     stroke-linejoin="round"
     fill-rule="evenodd"
     d="m 1102.373,208.608 c 39.66,27.169 158.66,27.169 198.32,0 -39.66,33.121 -158.66,33.121 -198.32,0"
     id="path34" />
  <path
     class="TieSegment"
     stroke="#000000"
     stroke-width="2.48"
     stroke-linecap="round"
     stroke-linejoin="round"
     fill-rule="evenodd"
     d="m 366.711,197.022 c 23.068,14.555 92.27,14.555 115.338,0 -23.068,20.507 -92.27,20.507 -115.338,0"
     id="path36" />
  <path
     class="TieSegment"
     fill="#00aa00"
     stroke="#00aa00"
     stroke-width="2.48"
     stroke-linecap="round"
     stroke-linejoin="round"
     fill-rule="evenodd"
     d="m 1879.743,554.656 c 22.85,-20.345 91.41,-20.345 114.27,0 -22.86,-14.393 -91.42,-14.393 -114.27,0"
     id="path38" />
  <path
     class="TieSegment"
     stroke="#000000"
     stroke-width="2.48"
     stroke-linecap="round"
     stroke-linejoin="round"
     fill-rule="evenodd"
     d="m 693.121,591.608 c 46.907,29.264 187.622,29.264 234.532,0 -46.91,35.216 -187.625,35.216 -234.532,0"
     id="path40" />
  <polyline
     class="BarLine"
     stroke="#000000"
     stroke-width="3.97"
     stroke-linejoin="bevel"
     points="214.582,384.587 214.582,855.999"
     id="polyline42"
     transform="translate(-212.597,-282.867)" />
  <polyline
     class="BarLine"
     stroke="#000000"
     stroke-width="3.97"
     stroke-linejoin="bevel"
     points="2762.62,384.587 2762.62,855.999"
     id="polyline44"
     transform="translate(-212.597,-282.867)" />
  <polyline
     class="BarLine"
     stroke="#000000"
     stroke-width="3.97"
     stroke-linejoin="bevel"
     points="2475.15,384.587 2475.15,855.999"
     id="polyline46"
     transform="translate(-212.597,-282.867)" />
  <polyline
     class="BarLine"
     stroke="#000000"
     stroke-width="3.97"
     stroke-linejoin="bevel"
     points="1858.16,384.587 1858.16,855.999"
     id="polyline48"
     transform="translate(-212.597,-282.867)" />
  <polyline
     class="BarLine"
     stroke="#000000"
     stroke-width="3.97"
     stroke-linejoin="bevel"
     points="1075.87,384.587 1075.87,855.999"
     id="polyline50"
     transform="translate(-212.597,-282.867)" />
  <polyline
     class="BarLine"
     stroke="#000000"
     stroke-width="3.97"
     stroke-linejoin="bevel"
     points="214.582,854.387 214.582,956.811"
     id="polyline52"
     transform="translate(-212.597,-282.867)" />
  <polyline
     class="BarLine"
     stroke="#000000"
     stroke-width="3.97"
     stroke-linejoin="bevel"
     points="1075.87,854.387 1075.87,956.811"
     id="polyline54"
     transform="translate(-212.597,-282.867)" />
  <polyline
     class="BarLine"
     stroke="#000000"
     stroke-width="3.97"
     stroke-linejoin="bevel"
     points="2762.62,854.387 2762.62,956.811"
     id="polyline56"
     transform="translate(-212.597,-282.867)" />
  <polyline
     class="BarLine"
     stroke="#000000"
     stroke-width="3.97"
     stroke-linejoin="bevel"
     points="1858.16,854.387 1858.16,956.811"
     id="polyline58"
     transform="translate(-212.597,-282.867)" />
  <polyline
     class="BarLine"
     stroke="#000000"
     stroke-width="3.97"
     stroke-linejoin="bevel"
     points="2475.15,854.387 2475.15,956.811"
     id="polyline60"
     transform="translate(-212.597,-282.867)" />
  <path
     class="Accidental"
     fill="#00aa00"
     d="m 1687.1765,573.82946 c 0.6976,-0.29452 1.1936,-1.10052 1.1936,-1.68947 v -7.03706 c 0,-0.496 -0.31,-0.806 -0.6976,-0.806 -0.2015,0 -0.2944,0 -0.496,0.10852 0,0 -1.984,0.79053 -2.48,0.88348 -0.6975,0 -1.395,-0.496 -1.395,-1.28643 v -12.10558 c 0,-0.58895 -0.589,-1.08496 -1.3794,-1.08496 -0.992,0 -1.5966,0.49601 -1.5966,1.08496 v 12.89601 c -0.093,0.992 -0.3874,2.294 -1.2865,2.88305 -1.1935,0.69748 -4.5569,2.07695 -6.2465,2.48 -0.899,0 -1.1935,-1.19347 -1.1935,-1.984 v -11.90401 c 0,-0.60452 -0.6975,-1.10053 -1.395,-1.10053 -0.992,0 -1.581,0.49601 -1.581,1.10053 v 13.39201 c 0,1.39496 -0.589,2.38696 -1.1935,2.68148 -0.589,0.29453 -2.573,1.08505 -2.573,1.08505 -0.6975,0.20148 -1.1935,0.992 -1.1935,1.59643 V 582.06 c 0,0.589 0.2945,0.899 0.899,0.899 l 0.186,-0.10851 c 0.1085,0 1.5965,-0.589 2.387,-0.992 l 0.093,-0.093 c 0.806,0 1.395,0.992 1.395,1.78251 v 9.82701 c 0,1.085 -0.496,1.984 -1.085,2.27848 -0.6045,0.20157 -2.6815,1.08505 -2.6815,1.08505 -0.6975,0.20147 -1.1935,0.992 -1.1935,1.59652 v 7.03696 c 0,0.58905 0.2945,0.89905 0.899,0.89905 l 0.186,-0.10852 c 0.1085,0 1.488,-0.58905 2.387,-0.88348 0.093,-0.10853 0.2015,-0.10853 0.2945,-0.10853 0.6975,0 1.1935,1.10053 1.1935,1.59653 v 12.19844 c 0,0.58905 0.589,1.08505 1.2865,1.08505 0.992,0 1.6895,-0.496 1.6895,-1.08505 v -13.79497 c 0,-1.28652 0.496,-1.984 0.992,-2.18547 l 6.0451,-2.48001 c 0,0 0.1084,0 0.1084,0 l 0.2016,-0.093 c 0.8834,0 1.3794,1.19348 1.3794,1.78253 v 12.40001 c 0,0.60453 0.6046,1.10053 1.2866,1.10053 1.1004,0 1.6894,-0.496 1.6894,-1.10053 v -14.08949 c 0,-0.79052 0.403,-1.984 1.1006,-2.27852 0.682,-0.29453 2.7744,-1.08505 2.7744,-1.08505 0.6976,-0.29443 1.1936,-1.10043 1.1936,-1.68948 V 588.415 c 0,-0.496 -0.31,-0.806 -0.6976,-0.806 -0.2015,0 -0.2944,0 -0.496,0.10851 l -2.5884,0.992 c -0.5891,0 -1.2866,-0.60451 -1.2866,-1.78251 v -9.23801 c 0,-0.682 0.496,-2.573 1.2866,-2.86753 l 2.5884,-0.992 m -6.851,16.16654 c -0.589,1.98401 -5.2545,3.96801 -7.533,3.96801 -0.6045,0 -1.1005,-0.2015 -1.1935,-0.496 -0.2015,-0.403 -0.2945,-2.573 -0.2945,-4.96001 0,-3.069 0.093,-6.541 0.2945,-7.347 0.2015,-1.67401 4.7585,-3.76651 7.2385,-3.76651 0.6975,0 1.2866,0.2015 1.488,0.6045 0.2015,0.496 0.403,2.97601 0.403,5.64201 0,2.6815 -0.2015,5.456 -0.403,6.355"
     id="path62"
     style="stroke-width:0.992001" />
  <polyline
     class="LedgerLine"
     stroke="#000000"
     stroke-width="3.97"
     stroke-linejoin="bevel"
     points="2043.58,510.199 2096.06,510.199"
     id="polyline64"
     transform="translate(-212.597,-282.867)" />
  <polyline
     class="LedgerLine"
     stroke="#000000"
     stroke-width="3.97"
     stroke-linejoin="bevel"
     points="2505.91,510.199 2558.38,510.199"
     id="polyline66"
     transform="translate(-212.597,-282.867)" />
  <polyline
     class="LedgerLine"
     stroke="#000000"
     stroke-width="3.97"
     stroke-linejoin="bevel"
     points="2177.02,510.199 2242.39,510.199"
     id="polyline68"
     transform="translate(-212.597,-282.867)" />
  <polyline
     class="LedgerLine"
     stroke="#000000"
     stroke-width="3.97"
     stroke-linejoin="bevel"
     points="411.146,510.199 463.621,510.199"
     id="polyline70"
     transform="translate(-212.597,-282.867)" />
  <polyline
     class="LedgerLine"
     stroke="#000000"
     stroke-width="3.97"
     stroke-linejoin="bevel"
     points="1100.17,510.199 1152.65,510.199"
     id="polyline72"
     transform="translate(-212.597,-282.867)" />
  <polyline
     class="LedgerLine"
     stroke="#000000"
     stroke-width="3.97"
     stroke-linejoin="bevel"
     points="2505.91,534.999 2558.38,534.999"
     id="polyline74"
     transform="translate(-212.597,-282.867)" />
  <polyline
     class="LedgerLine"
     stroke="#000000"
     stroke-width="3.97"
     stroke-linejoin="bevel"
     points="1286.69,831.199 1339.17,831.199"
     id="polyline76"
     transform="translate(-212.597,-282.867)" />
  <polyline
     class="LedgerLine"
     stroke="#000000"
     stroke-width="3.97"
     stroke-linejoin="bevel"
     points="1473.21,831.199 1525.69,831.199"
     id="polyline78"
     transform="translate(-212.597,-282.867)" />
  <polyline
     class="LedgerLine"
     stroke="#000000"
     stroke-width="3.97"
     stroke-linejoin="bevel"
     points="1566.47,831.199 1618.95,831.199"
     id="polyline80"
     transform="translate(-212.597,-282.867)" />
  <polyline
     class="LedgerLine"
     stroke="#000000"
     stroke-width="3.97"
     stroke-linejoin="bevel"
     points="690.926,831.199 743.401,831.199"
     id="polyline82"
     transform="translate(-212.597,-282.867)" />
  <polyline
     class="Stem"
     stroke="#000000"
     stroke-width="2.98"
     stroke-linejoin="bevel"
     points="1700.8,468.832 1700.8,386.199"
     id="polyline84"
     transform="translate(-212.597,-282.867)" />
  <polyline
     class="Stem"
     stroke="#000000"
     stroke-width="2.98"
     stroke-linejoin="bevel"
     points="1514.28,468.832 1514.28,386.199"
     id="polyline86"
     transform="translate(-212.597,-282.867)" />
  <polyline
     class="Stem"
     stroke="#000000"
     stroke-width="2.98"
     stroke-linejoin="bevel"
     points="2224.54,481.232 2224.54,398.599"
     id="polyline88"
     transform="translate(-212.597,-282.867)" />
  <polyline
     class="Stem"
     stroke="#000000"
     stroke-width="2.98"
     stroke-linejoin="bevel"
     points="918.513,419.232 918.513,355.199"
     id="polyline90"
     transform="translate(-212.597,-282.867)" />
  <polyline
     class="Stem"
     stroke="#000000"
     stroke-width="2.98"
     stroke-linejoin="bevel"
     points="1141.24,419.232 1141.24,355.199"
     id="polyline92"
     transform="translate(-212.597,-282.867)" />
  <polyline
     class="Stem"
     stroke="#000000"
     stroke-width="2.98"
     stroke-linejoin="bevel"
     points="1234.5,431.632 1234.5,361.399"
     id="polyline94"
     transform="translate(-212.597,-282.867)" />
  <polyline
     class="Stem"
     stroke="#000000"
     stroke-width="2.98"
     stroke-linejoin="bevel"
     points="1327.76,444.032 1327.76,367.599"
     id="polyline96"
     transform="translate(-212.597,-282.867)" />
  <polyline
     class="Stem"
     stroke="#000000"
     stroke-width="2.98"
     stroke-linejoin="bevel"
     points="1421.02,456.432 1421.02,373.799"
     id="polyline98"
     transform="translate(-212.597,-282.867)" />
  <polyline
     class="Stem"
     stroke="#000000"
     stroke-width="2.98"
     stroke-linejoin="bevel"
     points="888.854,489.565 888.854,547.399"
     id="polyline100"
     transform="translate(-212.597,-282.867)" />
  <polyline
     class="Stem"
     stroke="#000000"
     stroke-width="2.98"
     stroke-linejoin="bevel"
     points="422.554,526.765 422.554,584.599"
     id="polyline102"
     transform="translate(-212.597,-282.867)" />
  <polyline
     class="Stem"
     stroke="#000000"
     stroke-width="2.98"
     stroke-linejoin="bevel"
     points="1577.88,489.565 1577.88,547.399"
     id="polyline104"
     transform="translate(-212.597,-282.867)" />
  <polyline
     class="Stem"
     stroke="#000000"
     stroke-width="2.98"
     stroke-linejoin="bevel"
     points="2054.99,514.365 2054.99,572.199"
     id="polyline106"
     transform="translate(-212.597,-282.867)" />
  <polyline
     class="Stem"
     stroke="#000000"
     stroke-width="2.98"
     stroke-linejoin="bevel"
     points="562.444,464.765 562.444,522.599"
     id="polyline108"
     transform="translate(-212.597,-282.867)" />
  <polyline
     class="Stem"
     stroke="#000000"
     stroke-width="2.98"
     stroke-linejoin="bevel"
     points="702.334,464.765 702.334,522.599"
     id="polyline110"
     transform="translate(-212.597,-282.867)" />
  <polyline
     class="Stem"
     stroke="#000000"
     stroke-width="2.98"
     stroke-linejoin="bevel"
     points="1520.98,477.165 1520.98,534.999"
     id="polyline112"
     transform="translate(-212.597,-282.867)" />
  <polyline
     class="Stem"
     stroke="#000000"
     stroke-width="2.98"
     stroke-linejoin="bevel"
     points="795.594,477.165 795.594,534.999"
     id="polyline114"
     transform="translate(-212.597,-282.867)" />
  <polyline
     class="Stem"
     stroke="#000000"
     stroke-width="2.98"
     stroke-linejoin="bevel"
     points="1956.66,501.965 1956.66,559.799"
     id="polyline116"
     transform="translate(-212.597,-282.867)" />
  <polyline
     class="Stem"
     stroke="#000000"
     stroke-width="2.98"
     stroke-linejoin="bevel"
     points="1671.14,501.965 1671.14,559.799"
     id="polyline118"
     transform="translate(-212.597,-282.867)" />
  <polyline
     class="Stem"
     stroke="#000000"
     stroke-width="2.98"
     stroke-linejoin="bevel"
     points="1298.1,477.165 1298.1,534.999"
     id="polyline120"
     transform="translate(-212.597,-282.867)" />
  <polyline
     class="Stem"
     stroke="#000000"
     stroke-width="2.98"
     stroke-linejoin="bevel"
     points="982.114,501.965 982.114,559.799"
     id="polyline122"
     transform="translate(-212.597,-282.867)" />
  <polyline
     class="Stem"
     stroke="#000000"
     stroke-width="2.98"
     stroke-linejoin="bevel"
     points="1111.58,514.365 1111.58,572.199"
     id="polyline124"
     transform="translate(-212.597,-282.867)" />
  <polyline
     class="Stem"
     stroke="#000000"
     stroke-width="2.98"
     stroke-linejoin="bevel"
     points="2517.31,539.165 2517.31,596.999"
     id="polyline126"
     transform="translate(-212.597,-282.867)" />
  <polyline
     class="Stem"
     stroke="#000000"
     stroke-width="2.98"
     stroke-linejoin="bevel"
     points="1011.77,839.433 1011.77,781.599"
     id="polyline128"
     transform="translate(-212.597,-282.867)" />
  <polyline
     class="Stem"
     stroke="#000000"
     stroke-width="2.98"
     stroke-linejoin="bevel"
     points="1327.76,827.033 1327.76,769.199"
     id="polyline130"
     transform="translate(-212.597,-282.867)" />
  <polyline
     class="Stem"
     stroke="#000000"
     stroke-width="2.98"
     stroke-linejoin="bevel"
     points="1514.28,814.633 1514.28,756.799"
     id="polyline132"
     transform="translate(-212.597,-282.867)" />
  <polyline
     class="Stem"
     stroke="#000000"
     stroke-width="2.98"
     stroke-linejoin="bevel"
     points="1700.8,839.433 1700.8,781.599"
     id="polyline134"
     transform="translate(-212.597,-282.867)" />
  <polyline
     class="Stem"
     stroke="#000000"
     stroke-width="2.98"
     stroke-linejoin="bevel"
     points="2364.43,864.233 2364.43,806.399"
     id="polyline136"
     transform="translate(-212.597,-282.867)" />
  <polyline
     class="Stem"
     stroke="#000000"
     stroke-width="2.98"
     stroke-linejoin="bevel"
     points="1607.54,827.033 1607.54,769.199"
     id="polyline138"
     transform="translate(-212.597,-282.867)" />
  <polyline
     class="Stem"
     stroke="#000000"
     stroke-width="2.98"
     stroke-linejoin="bevel"
     points="731.993,827.033 731.993,769.199"
     id="polyline140"
     transform="translate(-212.597,-282.867)" />
  <polyline
     class="Stem"
     stroke="#000000"
     stroke-width="2.98"
     stroke-linejoin="bevel"
     points="1794.06,851.833 1794.06,793.999"
     id="polyline142"
     transform="translate(-212.597,-282.867)" />
  <polyline
     class="Stem"
     stroke="#000000"
     stroke-width="2.98"
     stroke-linejoin="bevel"
     points="1141.24,851.833 1141.24,793.999"
     id="polyline144"
     transform="translate(-212.597,-282.867)" />
  <polyline
     class="Stem"
     stroke="#000000"
     stroke-width="2.98"
     stroke-linejoin="bevel"
     points="1944.76,864.233 1944.76,806.399"
     id="polyline146"
     transform="translate(-212.597,-282.867)" />
  <polyline
     class="Stem"
     stroke="#000000"
     stroke-width="2.98"
     stroke-linejoin="bevel"
     points="2084.65,851.833 2084.65,793.999"
     id="polyline148"
     transform="translate(-212.597,-282.867)" />
  <polyline
     class="Stem"
     stroke="#000000"
     stroke-width="2.98"
     stroke-linejoin="bevel"
     points="2224.54,851.833 2224.54,793.999"
     id="polyline150"
     transform="translate(-212.597,-282.867)" />
  <polyline
     class="Stem"
     stroke="#000000"
     stroke-width="2.98"
     stroke-linejoin="bevel"
     points="1147.94,860.165 1147.94,942.799"
     id="polyline152"
     transform="translate(-212.597,-282.867)" />
  <polyline
     class="Stem"
     stroke="#000000"
     stroke-width="2.98"
     stroke-linejoin="bevel"
     points="1204.84,872.566 1204.84,955.199"
     id="polyline154"
     transform="translate(-212.597,-282.867)" />
  <polyline
     class="Stem"
     stroke="#000000"
     stroke-width="2.98"
     stroke-linejoin="bevel"
     points="1671.14,909.766 1671.14,979.999"
     id="polyline156"
     transform="translate(-212.597,-282.867)" />
  <polyline
     class="Stem"
     stroke="#000000"
     stroke-width="2.98"
     stroke-linejoin="bevel"
     points="888.854,860.165 888.854,942.799"
     id="polyline158"
     transform="translate(-212.597,-282.867)" />
  <polyline
     class="Stem"
     stroke="#000000"
     stroke-width="2.98"
     stroke-linejoin="bevel"
     points="1391.36,897.366 1391.36,973.799"
     id="polyline160"
     transform="translate(-212.597,-282.867)" />
  <polyline
     class="Stem"
     stroke="#000000"
     stroke-width="2.98"
     stroke-linejoin="bevel"
     points="1298.1,884.966 1298.1,967.599"
     id="polyline162"
     transform="translate(-212.597,-282.867)" />
  <polyline
     class="Stem"
     stroke="#000000"
     stroke-width="2.98"
     stroke-linejoin="bevel"
     points="1484.62,909.766 1484.62,979.999"
     id="polyline164"
     transform="translate(-212.597,-282.867)" />
  <path
     class="Note"
     d="m 908.20354,154.42001 c 9.82696,0 21.93254,-9.1295 21.93254,-18.55352 0,-5.54903 -4.464,-9.2225 -10.81906,-9.2225 -12.10551,0 -21.82402,9.02101 -21.82402,18.55352 0,5.7505 4.75851,9.2225 10.71054,9.2225"
     id="path166"
     style="stroke-width:0.992001" />
  <path
     class="Note"
     d="m 1281.2435,204.02001 c 18.259,0 21.9326,-14.88001 21.9326,-18.44501 0,-5.65754 -4.464,-9.33101 -10.912,-9.33101 -16.5696,0 -21.7311,12.80301 -21.7311,18.55352 0,5.84355 4.6655,9.2225 10.7105,9.2225 m 8.432,-8.835 c -4.96,3.379 -8.432,4.5725 -10.8035,4.5725 -2.294,0 -3.6735,-1.1935 -4.371,-2.5885 -0.403,-0.589 -0.6975,-1.3795 -0.6975,-2.17001 0,-5.363 15.9806,-14.19801 21.235,-14.19801 2.0771,0 3.2705,0.992 4.0611,2.387 0.31,0.589 0.6045,1.2865 0.6045,2.07701 0,2.18549 -2.2785,4.867 -10.0286,9.92001"
     id="path168"
     style="stroke-width:0.992001" />
  <path
     class="Note"
     d="m 225.33302,164.13851 c -14.38401,0 -23.31202,6.06048 -23.31202,13.39199 0,7.23851 6.15351,13.68656 22.22707,13.68656 17.65445,0 23.31203,-6.13805 23.31203,-13.68656 0,-7.64151 -12.19854,-13.39199 -22.22708,-13.39199 m -2.77452,2.48 c 7.34705,0 13.29906,7.93598 13.29906,14.49249 0,5.45601 -3.37905,7.62606 -8.24601,7.62606 -7.14548,0 -13.98106,-8.23055 -13.98106,-15.17457 0,-5.549 3.85958,-6.94398 8.92801,-6.94398"
     id="path170"
     style="stroke-width:0.992001" />
  <path
     class="Note"
     fill="#00aa00"
     d="m 1991.5035,216.42001 c 18.259,0 21.9326,-14.88001 21.9326,-18.44501 0,-5.65754 -4.464,-9.33101 -10.912,-9.33101 -16.5696,0 -21.7311,12.80301 -21.7311,18.55352 0,5.84355 4.6655,9.2225 10.7105,9.2225 m 8.432,-8.835 c -4.96,3.379 -8.432,4.5725 -10.8035,4.5725 -2.294,0 -3.6735,-1.1935 -4.371,-2.5885 -0.403,-0.589 -0.6975,-1.3795 -0.6975,-2.17001 0,-5.363 15.9806,-14.19801 21.235,-14.19801 2.0771,0 3.2705,0.992 4.0611,2.387 0.31,0.589 0.6045,1.2865 0.6045,2.07701 0,2.18549 -2.2785,4.867 -10.0286,9.92001"
     id="path172"
     style="stroke-width:0.992001" />
  <path
     class="Note"
     d="m 1094.7235,179.22001 c 9.827,0 21.9326,-9.1295 21.9326,-18.55352 0,-5.54903 -4.464,-9.2225 -10.8191,-9.2225 -12.1055,0 -21.824,9.02101 -21.824,18.55352 0,5.7505 4.7585,9.2225 10.7105,9.2225"
     id="path174"
     style="stroke-width:0.992001" />
  <path
     class="Note"
     fill="#00aa00"
     d="m 1717.875,188.93851 c -14.384,0 -23.312,6.06048 -23.312,13.39199 0,7.23851 6.1535,13.68656 22.2271,13.68656 17.6544,0 23.312,-6.13805 23.312,-13.68656 0,-7.64151 -12.1985,-13.39199 -22.2271,-13.39199 m -2.7745,2.48 c 7.3471,0 13.2991,7.93598 13.2991,14.49249 0,5.45601 -3.3791,7.62606 -8.246,7.62606 -7.1455,0 -13.9811,-8.23055 -13.9811,-15.17457 0,-5.549 3.8596,-6.94398 8.928,-6.94398"
     id="path176"
     style="stroke-width:0.992001" />
  <path
     class="Note"
     d="m 1187.9835,191.62001 c 9.827,0 21.9326,-9.1295 21.9326,-18.55352 0,-5.54903 -4.464,-9.2225 -10.8191,-9.2225 -12.1055,0 -21.824,9.02101 -21.824,18.55352 0,5.7505 4.7585,9.2225 10.7105,9.2225"
     id="path178"
     style="stroke-width:0.992001" />
  <path
     class="Note"
     d="m 685.47954,154.42001 c 18.25896,0 21.93254,-14.88001 21.93254,-18.44501 0,-5.65754 -4.464,-9.33101 -10.91201,-9.33101 -16.56956,0 -21.73107,12.80301 -21.73107,18.55352 0,5.84355 4.66551,9.2225 10.71054,9.2225 m 8.432,-8.835 c -4.96,3.379 -8.432,4.5725 -10.80353,4.5725 -2.294,0 -3.6735,-1.1935 -4.37101,-2.5885 -0.403,-0.589 -0.69749,-1.3795 -0.69749,-2.17001 0,-5.363 15.98056,-14.19801 21.23499,-14.19801 2.07705,0 3.27053,0.992 4.06105,2.387 0.31,0.589 0.60453,1.2865 0.60453,2.07701 0,2.18549 -2.27853,4.867 -10.02854,9.92001"
     id="path180"
     style="stroke-width:0.992001" />
  <path
     class="Note"
     d="m 1001.4635,166.82001 c 9.827,0 21.9326,-9.1295 21.9326,-18.55352 0,-5.54903 -4.464,-9.2225 -10.8191,-9.2225 -12.1055,0 -21.824,9.02101 -21.824,18.55352 0,5.7505 4.75851,9.2225 10.7105,9.2225"
     id="path182"
     style="stroke-width:0.992001" />
  <path
     class="Note"
     fill="#00aa00"
     d="m 1467.7635,204.02001 c 18.259,0 21.9326,-14.88001 21.9326,-18.44501 0,-5.65754 -4.464,-9.33101 -10.912,-9.33101 -16.5696,0 -21.7311,12.80301 -21.7311,18.55352 0,5.84355 4.6655,9.2225 10.7105,9.2225 m 8.432,-8.835 c -4.96,3.379 -8.432,4.5725 -10.8035,4.5725 -2.294,0 -3.6735,-1.1935 -4.371,-2.5885 -0.403,-0.589 -0.6975,-1.3795 -0.6975,-2.17001 0,-5.363 15.9806,-14.19801 21.235,-14.19801 2.0771,0 3.2705,0.992 4.0611,2.387 0.31,0.589 0.6045,1.2865 0.6045,2.07701 0,2.18549 -2.2785,4.867 -10.0286,9.92001"
     id="path184"
     style="stroke-width:0.992001" />
  <path
     class="Note"
     d="m 498.95954,191.62001 c 9.82696,0 21.93254,-9.1295 21.93254,-18.55352 0,-5.54903 -4.464,-9.2225 -10.81906,-9.2225 -12.10551,0 -21.82402,9.02101 -21.82402,18.55352 0,5.7505 4.75851,9.2225 10.71054,9.2225"
     id="path186"
     style="stroke-width:0.992001" />
  <path
     class="Note"
     d="m 1317.6035,204.02001 c 9.827,0 21.9326,-9.1295 21.9326,-18.55352 0,-5.54903 -4.464,-9.2225 -10.8191,-9.2225 -12.1055,0 -21.824,9.02101 -21.824,18.55352 0,5.7505 4.7585,9.2225 10.7105,9.2225"
     id="path188"
     style="stroke-width:0.992001" />
  <path
     class="Note"
     d="m 359.06954,191.62001 c 18.25896,0 21.93254,-14.88001 21.93254,-18.44501 0,-5.65754 -4.464,-9.33101 -10.91201,-9.33101 -16.56956,0 -21.73107,12.80301 -21.73107,18.55352 0,5.84355 4.66551,9.2225 10.71054,9.2225 m 8.432,-8.835 c -4.96,3.379 -8.432,4.5725 -10.80353,4.5725 -2.294,0 -3.6735,-1.1935 -4.37101,-2.5885 -0.403,-0.589 -0.69749,-1.3795 -0.69749,-2.17001 0,-5.363 15.98056,-14.19801 21.23499,-14.19801 2.07705,0 3.27053,0.992 4.06105,2.387 0.31,0.589 0.60453,1.2865 0.60453,2.07701 0,2.18549 -2.27853,4.867 -10.02854,9.92001"
     id="path190"
     style="stroke-width:0.992001" />
  <path
     class="Note"
     d="m 219.17954,253.62001 c 18.25896,0 21.93254,-14.88001 21.93254,-18.44501 0,-5.65754 -4.464,-9.33101 -10.91201,-9.33101 -16.56956,0 -21.73107,12.80301 -21.73107,18.55352 0,5.84355 4.66551,9.2225 10.71054,9.2225 m 8.432,-8.835 c -4.96,3.379 -8.432,4.5725 -10.80353,4.5725 -2.294,0 -3.6735,-1.1935 -4.37101,-2.5885 -0.403,-0.589 -0.69749,-1.3795 -0.69749,-2.17001 0,-5.363 15.98056,-14.19801 21.23499,-14.19801 2.07705,0 3.27053,0.992 4.06105,2.387 0.31,0.589 0.60453,1.2865 0.60453,2.07701 0,2.18549 -2.27853,4.867 -10.02854,9.92001"
     id="path192"
     style="stroke-width:0.992001" />
  <path
     class="Note"
     d="m 1374.5035,216.42001 c 9.827,0 21.9326,-9.1295 21.9326,-18.55352 0,-5.54903 -4.464,-9.2225 -10.8191,-9.2225 -12.1055,0 -21.824,9.02101 -21.824,18.55352 0,5.7505 4.7585,9.2225 10.7105,9.2225"
     id="path194"
     style="stroke-width:0.992001" />
  <path
     class="Note"
     fill="#00aa00"
     d="m 1997.655,226.13851 c -14.384,0 -23.312,6.06048 -23.312,13.39199 0,7.23851 6.1535,13.68656 22.2271,13.68656 17.6544,0 23.312,-6.13805 23.312,-13.68656 0,-7.64151 -12.1985,-13.39199 -22.2271,-13.39199 m -2.7745,2.48 c 7.3471,0 13.2991,7.93598 13.2991,14.49249 0,5.45601 -3.3791,7.62606 -8.246,7.62606 -7.1455,0 -13.9811,-8.23055 -13.9811,-15.17457 0,-5.549 3.8596,-6.94398 8.928,-6.94398"
     id="path196"
     style="stroke-width:0.992001" />
  <path
     class="Note"
     d="m 778.73954,228.82001 c 9.82696,0 21.93254,-9.1295 21.93254,-18.55352 0,-5.54903 -4.464,-9.2225 -10.81906,-9.2225 -12.10551,0 -21.82402,9.02101 -21.82402,18.55352 0,5.7505 4.75851,9.2225 10.71054,9.2225"
     id="path198"
     style="stroke-width:0.992001" />
  <path
     class="Note"
     fill="#00aa00"
     d="m 1467.7635,228.82001 c 18.259,0 21.9326,-14.88001 21.9326,-18.44501 0,-5.65754 -4.464,-9.33101 -10.912,-9.33101 -16.5696,0 -21.7311,12.80301 -21.7311,18.55352 0,5.84355 4.6655,9.2225 10.7105,9.2225 m 8.432,-8.835 c -4.96,3.379 -8.432,4.5725 -10.8035,4.5725 -2.294,0 -3.6735,-1.1935 -4.371,-2.5885 -0.403,-0.589 -0.6975,-1.3795 -0.6975,-2.17001 0,-5.363 15.9806,-14.19801 21.235,-14.19801 2.0771,0 3.2705,0.992 4.0611,2.387 0.31,0.589 0.6045,1.2865 0.6045,2.07701 0,2.18549 -2.2785,4.867 -10.0286,9.92001"
     id="path200"
     style="stroke-width:0.992001" />
  <path
     class="Note"
     d="m 1094.7235,204.02001 c 18.259,0 21.9326,-14.88001 21.9326,-18.44501 0,-5.65754 -4.464,-9.33101 -10.912,-9.33101 -16.5696,0 -21.7311,12.80301 -21.7311,18.55352 0,5.84355 4.6655,9.2225 10.7105,9.2225 m 8.432,-8.835 c -4.96,3.379 -8.432,4.5725 -10.8035,4.5725 -2.294,0 -3.6735,-1.1935 -4.371,-2.5885 -0.403,-0.589 -0.6975,-1.3795 -0.6975,-2.17001 0,-5.363 15.9806,-14.19801 21.235,-14.19801 2.0771,0 3.2705,0.992 4.0611,2.387 0.31,0.589 0.6045,1.2865 0.6045,2.07701 0,2.18549 -2.2785,4.867 -10.0286,9.92001"
     id="path202"
     style="stroke-width:0.992001" />
  <path
     class="Note"
     d="m 908.20354,241.22001 c 18.25896,0 21.93254,-14.88001 21.93254,-18.44501 0,-5.65754 -4.464,-9.33101 -10.91201,-9.33101 -16.56956,0 -21.73107,12.80301 -21.73107,18.55352 0,5.84355 4.66551,9.2225 10.71054,9.2225 m 8.432,-8.835 c -4.96,3.379 -8.432,4.5725 -10.80353,4.5725 -2.294,0 -3.6735,-1.1935 -4.37101,-2.5885 -0.403,-0.589 -0.69749,-1.3795 -0.69749,-2.17001 0,-5.363 15.98056,-14.19801 21.23499,-14.19801 2.07705,0 3.27053,0.992 4.06105,2.387 0.31,0.589 0.60453,1.2865 0.60453,2.07701 0,2.18549 -2.27853,4.867 -10.02854,9.92001"
     id="path204"
     style="stroke-width:0.992001" />
  <path
     class="Note"
     fill="#00aa00"
     d="m 1851.6135,241.22001 c 18.259,0 21.9326,-14.88001 21.9326,-18.44501 0,-5.65754 -4.464,-9.33101 -10.912,-9.33101 -16.5696,0 -21.7311,12.80301 -21.7311,18.55352 0,5.84355 4.6655,9.2225 10.7105,9.2225 m 8.432,-8.835 c -4.96,3.379 -8.432,4.5725 -10.8035,4.5725 -2.294,0 -3.6735,-1.1935 -4.371,-2.5885 -0.403,-0.589 -0.6975,-1.3795 -0.6975,-2.17001 0,-5.363 15.9806,-14.19801 21.235,-14.19801 2.0771,0 3.2705,0.992 4.0611,2.387 0.31,0.589 0.6045,1.2865 0.6045,2.07701 0,2.18549 -2.2785,4.867 -10.0286,9.92001"
     id="path206"
     style="stroke-width:0.992001" />
  <path
     class="Note"
     fill="#00aa00"
     d="m 1753.2835,228.82001 c 18.259,0 21.9326,-14.88001 21.9326,-18.44501 0,-5.65754 -4.464,-9.33101 -10.912,-9.33101 -16.5696,0 -21.7311,12.80301 -21.7311,18.55352 0,5.84355 4.6655,9.2225 10.7105,9.2225 m 8.432,-8.835 c -4.96,3.379 -8.432,4.5725 -10.8035,4.5725 -2.294,0 -3.6735,-1.1935 -4.371,-2.5885 -0.403,-0.589 -0.6975,-1.3795 -0.6975,-2.17001 0,-5.363 15.9806,-14.19801 21.235,-14.19801 2.0771,0 3.2705,0.992 4.0611,2.387 0.31,0.589 0.6045,1.2865 0.6045,2.07701 0,2.18549 -2.2785,4.867 -10.0286,9.92001"
     id="path208"
     style="stroke-width:0.992001" />
  <path
     class="Note"
     d="m 685.47954,216.42001 c 9.82696,0 21.93254,-9.1295 21.93254,-18.55352 0,-5.54903 -4.464,-9.2225 -10.81906,-9.2225 -12.10551,0 -21.82402,9.02101 -21.82402,18.55352 0,5.7505 4.75851,9.2225 10.71054,9.2225"
     id="path210"
     style="stroke-width:0.992001" />
  <path
     class="Note"
     d="m 592.21954,204.02001 c 9.82696,0 21.93254,-9.1295 21.93254,-18.55352 0,-5.54903 -4.464,-9.2225 -10.81906,-9.2225 -12.10551,0 -21.82402,9.02101 -21.82402,18.55352 0,5.7505 4.75851,9.2225 10.71054,9.2225"
     id="path212"
     style="stroke-width:0.992001" />
  <path
     class="Note"
     fill="#00aa00"
     d="m 2313.9435,266.02001 c 18.259,0 21.9326,-14.88001 21.9326,-18.44501 0,-5.65754 -4.464,-9.33101 -10.912,-9.33101 -16.5696,0 -21.7311,12.80301 -21.7311,18.55352 0,5.84355 4.6655,9.2225 10.7105,9.2225 m 8.432,-8.835 c -4.96,3.379 -8.432,4.5725 -10.8035,4.5725 -2.294,0 -3.6735,-1.1935 -4.371,-2.5885 -0.403,-0.589 -0.6975,-1.3795 -0.6975,-2.17001 0,-5.363 15.9806,-14.19801 21.235,-14.19801 2.0771,0 3.2705,0.992 4.0611,2.387 0.31,0.589 0.6045,1.2865 0.6045,2.07701 0,2.18549 -2.2785,4.867 -10.0286,9.92001"
     id="path214"
     style="stroke-width:0.992001" />
  <path
     class="Note"
     d="m 778.73954,574.62001 c 9.82696,0 21.93254,-9.1295 21.93254,-18.55352 0,-5.54903 -4.464,-9.2225 -10.81906,-9.2225 -12.10551,0 -21.82402,9.02101 -21.82402,18.55352 0,5.7505 4.75851,9.2225 10.71054,9.2225"
     id="path216"
     style="stroke-width:0.992001" />
  <path
     class="Note"
     d="m 1374.5035,562.22001 c 9.827,0 21.9326,-9.1295 21.9326,-18.55352 0,-5.54903 -4.464,-9.2225 -10.8191,-9.2225 -12.1055,0 -21.824,9.02101 -21.824,18.55352 0,5.7505 4.7585,9.2225 10.7105,9.2225"
     id="path218"
     style="stroke-width:0.992001" />
  <path
     class="Note"
     fill="#00aa00"
     d="m 1467.7635,574.62001 c 9.827,0 21.9326,-9.1295 21.9326,-18.55352 0,-5.54903 -4.464,-9.2225 -10.8191,-9.2225 -12.1055,0 -21.824,9.02101 -21.824,18.55352 0,5.7505 4.7585,9.2225 10.7105,9.2225"
     id="path220"
     style="stroke-width:0.992001" />
  <path
     class="Note"
     fill="#00aa00"
     d="m 1561.0235,587.02001 c 9.827,0 21.9326,-9.1295 21.9326,-18.55352 0,-5.54903 -4.464,-9.2225 -10.8191,-9.2225 -12.1055,0 -21.824,9.02101 -21.824,18.55352 0,5.7505 4.7585,9.2225 10.7105,9.2225"
     id="path222"
     style="stroke-width:0.992001" />
  <path
     class="Note"
     fill="#00aa00"
     d="m 1711.7235,599.42001 c 18.259,0 21.9326,-14.88001 21.9326,-18.44501 0,-5.65754 -4.464,-9.33101 -10.912,-9.33101 -16.5696,0 -21.7311,12.80301 -21.7311,18.55352 0,5.84355 4.6655,9.2225 10.7105,9.2225 m 8.432,-8.835 c -4.96,3.379 -8.432,4.5725 -10.8035,4.5725 -2.294,0 -3.6735,-1.1935 -4.371,-2.5885 -0.403,-0.589 -0.6975,-1.3795 -0.6975,-2.17001 0,-5.363 15.9806,-14.19801 21.235,-14.19801 2.0771,0 3.2705,0.992 4.0611,2.387 0.31,0.589 0.6045,1.2865 0.6045,2.07701 0,2.18549 -2.2785,4.867 -10.0286,9.92001"
     id="path224"
     style="stroke-width:0.992001" />
  <path
     class="Note"
     fill="#00aa00"
     d="m 2320.095,559.53851 c -14.384,0 -23.312,6.06048 -23.312,13.39199 0,7.23851 6.1535,13.68656 22.2271,13.68656 17.6544,0 23.312,-6.13805 23.312,-13.68656 0,-7.64151 -12.1985,-13.39199 -22.2271,-13.39199 m -2.7745,2.48 c 7.3471,0 13.2991,7.93598 13.2991,14.49249 0,5.45601 -3.3791,7.62606 -8.246,7.62606 -7.1455,0 -13.9811,-8.23055 -13.9811,-15.17457 0,-5.549 3.8596,-6.94398 8.928,-6.94398"
     id="path226"
     style="stroke-width:0.992001" />
  <path
     class="Note"
     fill="#00aa00"
     d="m 1851.6135,587.02001 c 18.259,0 21.9326,-14.88001 21.9326,-18.44501 0,-5.65754 -4.464,-9.33101 -10.912,-9.33101 -16.5696,0 -21.7311,12.80301 -21.7311,18.55352 0,5.84355 4.6655,9.2225 10.7105,9.2225 m 8.432,-8.835 c -4.96,3.379 -8.432,4.5725 -10.8035,4.5725 -2.294,0 -3.6735,-1.1935 -4.371,-2.5885 -0.403,-0.589 -0.6975,-1.3795 -0.6975,-2.17001 0,-5.363 15.9806,-14.19801 21.235,-14.19801 2.0771,0 3.2705,0.992 4.0611,2.387 0.31,0.589 0.6045,1.2865 0.6045,2.07701 0,2.18549 -2.2785,4.867 -10.0286,9.92001"
     id="path228"
     style="stroke-width:0.992001" />
  <path
     class="Note"
     fill="#00aa00"
     d="m 1991.5035,587.02001 c 18.259,0 21.9326,-14.88001 21.9326,-18.44501 0,-5.65754 -4.464,-9.33101 -10.912,-9.33101 -16.5696,0 -21.7311,12.80301 -21.7311,18.55352 0,5.84355 4.6655,9.2225 10.7105,9.2225 m 8.432,-8.835 c -4.96,3.379 -8.432,4.5725 -10.8035,4.5725 -2.294,0 -3.6735,-1.1935 -4.371,-2.5885 -0.403,-0.589 -0.6975,-1.3795 -0.6975,-2.17001 0,-5.363 15.9806,-14.19801 21.235,-14.19801 2.0771,0 3.2705,0.992 4.0611,2.387 0.31,0.589 0.6045,1.2865 0.6045,2.07701 0,2.18549 -2.2785,4.867 -10.0286,9.92001"
     id="path230"
     style="stroke-width:0.992001" />
  <path
     class="Note"
     d="m 225.33302,571.93851 c -14.38401,0 -23.31202,6.06048 -23.31202,13.39199 0,7.23851 6.15351,13.68656 22.22707,13.68656 17.65445,0 23.31203,-6.13805 23.31203,-13.68656 0,-7.64151 -12.19854,-13.39199 -22.22708,-13.39199 m -2.77452,2.48 c 7.34705,0 13.29906,7.93598 13.29906,14.49249 0,5.45601 -3.37905,7.62606 -8.24601,7.62606 -7.14548,0 -13.98106,-8.23055 -13.98106,-15.17457 0,-5.549 3.85958,-6.94398 8.92801,-6.94398"
     id="path232"
     style="stroke-width:0.992001" />
  <path
     class="Note"
     d="m 498.95954,562.22001 c 18.25896,0 21.93254,-14.88001 21.93254,-18.44501 0,-5.65754 -4.464,-9.33101 -10.91201,-9.33101 -16.56956,0 -21.73107,12.80301 -21.73107,18.55352 0,5.84355 4.66551,9.2225 10.71054,9.2225 m 8.432,-8.835 c -4.96,3.379 -8.432,4.5725 -10.80353,4.5725 -2.294,0 -3.6735,-1.1935 -4.37101,-2.5885 -0.403,-0.589 -0.69749,-1.3795 -0.69749,-2.17001 0,-5.363 15.98056,-14.19801 21.23499,-14.19801 2.07705,0 3.27053,0.992 4.06105,2.387 0.31,0.589 0.60453,1.2865 0.60453,2.07701 0,2.18549 -2.27853,4.867 -10.02854,9.92001"
     id="path234"
     style="stroke-width:0.992001" />
  <path
     class="Note"
     fill="#00aa00"
     d="m 2131.3935,599.42001 c 18.259,0 21.9326,-14.88001 21.9326,-18.44501 0,-5.65754 -4.464,-9.33101 -10.912,-9.33101 -16.5696,0 -21.7311,12.80301 -21.7311,18.55352 0,5.84355 4.6655,9.2225 10.7105,9.2225 m 8.432,-8.835 c -4.96,3.379 -8.432,4.5725 -10.8035,4.5725 -2.294,0 -3.6735,-1.1935 -4.371,-2.5885 -0.403,-0.589 -0.6975,-1.3795 -0.6975,-2.17001 0,-5.363 15.9806,-14.19801 21.235,-14.19801 2.0771,0 3.2705,0.992 4.0611,2.387 0.31,0.589 0.6045,1.2865 0.6045,2.07701 0,2.18549 -2.2785,4.867 -10.0286,9.92001"
     id="path236"
     style="stroke-width:0.992001" />
  <path
     class="Note"
     d="m 908.20354,587.02001 c 18.25896,0 21.93254,-14.88001 21.93254,-18.44501 0,-5.65754 -4.464,-9.33101 -10.91201,-9.33101 -16.56956,0 -21.73107,12.80301 -21.73107,18.55352 0,5.84355 4.66551,9.2225 10.71054,9.2225 m 8.432,-8.835 c -4.96,3.379 -8.432,4.5725 -10.80353,4.5725 -2.294,0 -3.6735,-1.1935 -4.37101,-2.5885 -0.403,-0.589 -0.69749,-1.3795 -0.69749,-2.17001 0,-5.363 15.98056,-14.19801 21.23499,-14.19801 2.07705,0 3.27053,0.992 4.06105,2.387 0.31,0.589 0.60453,1.2865 0.60453,2.07701 0,2.18549 -2.27853,4.867 -10.02854,9.92001"
     id="path238"
     style="stroke-width:0.992001" />
  <path
     class="Note"
     d="m 1094.7235,562.22001 c 18.259,0 21.9326,-14.88001 21.9326,-18.44501 0,-5.65754 -4.464,-9.33101 -10.912,-9.33101 -16.5696,0 -21.7311,12.80301 -21.7311,18.55352 0,5.84355 4.6655,9.2225 10.7105,9.2225 m 8.432,-8.835 c -4.96,3.379 -8.432,4.5725 -10.8035,4.5725 -2.294,0 -3.6735,-1.1935 -4.371,-2.5885 -0.403,-0.589 -0.6975,-1.3795 -0.6975,-2.17001 0,-5.363 15.9806,-14.19801 21.235,-14.19801 2.0771,0 3.2705,0.992 4.0611,2.387 0.31,0.589 0.6045,1.2865 0.6045,2.07701 0,2.18549 -2.2785,4.867 -10.0286,9.92001"
     id="path240"
     style="stroke-width:0.992001" />
  <path
     class="Note"
     d="m 1281.2435,549.82001 c 9.827,0 21.9326,-9.1295 21.9326,-18.55352 0,-5.54903 -4.464,-9.2225 -10.8191,-9.2225 -12.1055,0 -21.824,9.02101 -21.824,18.55352 0,5.7505 4.7585,9.2225 10.7105,9.2225"
     id="path242"
     style="stroke-width:0.992001" />
  <path
     class="Note"
     fill="#00aa00"
     d="m 1717.875,596.73851 c -14.384,0 -23.312,6.06048 -23.312,13.39199 0,7.23851 6.1535,13.68656 22.2271,13.68656 17.6544,0 23.312,-6.13805 23.312,-13.68656 0,-7.64151 -12.1985,-13.39199 -22.2271,-13.39199 m -2.7745,2.48 c 7.3471,0 13.2991,7.93598 13.2991,14.49249 0,5.45601 -3.3791,7.62606 -8.246,7.62606 -7.1455,0 -13.9811,-8.23055 -13.9811,-15.17457 0,-5.549 3.8596,-6.94398 8.928,-6.94398"
     id="path244"
     style="stroke-width:0.992001" />
  <path
     class="Note"
     fill="#00aa00"
     d="m 2320.095,646.33851 c -14.384,0 -23.312,6.06048 -23.312,13.39199 0,7.23851 6.1535,13.68656 22.2271,13.68656 17.6544,0 23.312,-6.13805 23.312,-13.68656 0,-7.64151 -12.1985,-13.39199 -22.2271,-13.39199 m -2.7745,2.48 c 7.3471,0 13.2991,7.93598 13.2991,14.49249 0,5.45601 -3.3791,7.62606 -8.246,7.62606 -7.1455,0 -13.9811,-8.23055 -13.9811,-15.17457 0,-5.549 3.8596,-6.94398 8.928,-6.94398"
     id="path246"
     style="stroke-width:0.992001" />
  <path
     class="Note"
     d="m 1187.9835,624.22001 c 9.827,0 21.9326,-9.1295 21.9326,-18.55352 0,-5.54903 -4.464,-9.2225 -10.8191,-9.2225 -12.1055,0 -21.824,9.02101 -21.824,18.55352 0,5.7505 4.7585,9.2225 10.7105,9.2225"
     id="path248"
     style="stroke-width:0.992001" />
  <path
     class="Note"
     d="m 1001.4635,599.42001 c 9.827,0 21.9326,-9.1295 21.9326,-18.55352 0,-5.54903 -4.464,-9.2225 -10.8191,-9.2225 -12.1055,0 -21.824,9.02101 -21.824,18.55352 0,5.7505 4.75851,9.2225 10.7105,9.2225"
     id="path250"
     style="stroke-width:0.992001" />
  <path
     class="Note"
     fill="#00aa00"
     d="m 1467.7635,636.62001 c 18.259,0 21.9326,-14.88001 21.9326,-18.44501 0,-5.65754 -4.464,-9.33101 -10.912,-9.33101 -16.5696,0 -21.7311,12.80301 -21.7311,18.55352 0,5.84355 4.6655,9.2225 10.7105,9.2225 m 8.432,-8.835 c -4.96,3.379 -8.432,4.5725 -10.8035,4.5725 -2.294,0 -3.6735,-1.1935 -4.371,-2.5885 -0.403,-0.589 -0.6975,-1.3795 -0.6975,-2.17001 0,-5.363 15.9806,-14.19801 21.235,-14.19801 2.0771,0 3.2705,0.992 4.0611,2.387 0.31,0.589 0.6045,1.2865 0.6045,2.07701 0,2.18549 -2.2785,4.867 -10.0286,9.92001"
     id="path252"
     style="stroke-width:0.992001" />
  <path
     class="Note"
     d="m 685.47954,587.02001 c 18.25896,0 21.93254,-14.88001 21.93254,-18.44501 0,-5.65754 -4.464,-9.33101 -10.91201,-9.33101 -16.56956,0 -21.73107,12.80301 -21.73107,18.55352 0,5.84355 4.66551,9.2225 10.71054,9.2225 m 8.432,-8.835 c -4.96,3.379 -8.432,4.5725 -10.80353,4.5725 -2.294,0 -3.6735,-1.1935 -4.37101,-2.5885 -0.403,-0.589 -0.69749,-1.3795 -0.69749,-2.17001 0,-5.363 15.98056,-14.19801 21.23499,-14.19801 2.07705,0 3.27053,0.992 4.06105,2.387 0.31,0.589 0.60453,1.2865 0.60453,2.07701 0,2.18549 -2.27853,4.867 -10.02854,9.92001"
     id="path254"
     style="stroke-width:0.992001" />
  <path
     class="Note"
     d="m 944.56354,587.02001 c 9.82696,0 21.93254,-9.1295 21.93254,-18.55352 0,-5.54903 -4.464,-9.2225 -10.81906,-9.2225 -12.10551,0 -21.82402,9.02101 -21.82402,18.55352 0,5.7505 4.75851,9.2225 10.71054,9.2225"
     id="path256"
     style="stroke-width:0.992001" />
  <path
     class="Note"
     d="m 1094.7235,611.82001 c 9.827,0 21.9326,-9.1295 21.9326,-18.55352 0,-5.54903 -4.464,-9.2225 -10.8191,-9.2225 -12.1055,0 -21.824,9.02101 -21.824,18.55352 0,5.7505 4.7585,9.2225 10.7105,9.2225"
     id="path258"
     style="stroke-width:0.992001" />
  <path
     class="Note"
     fill="#00aa00"
     d="m 1997.655,596.73851 c -14.384,0 -23.312,6.06048 -23.312,13.39199 0,7.23851 6.1535,13.68656 22.2271,13.68656 17.6544,0 23.312,-6.13805 23.312,-13.68656 0,-7.64151 -12.1985,-13.39199 -22.2271,-13.39199 m -2.7745,2.48 c 7.3471,0 13.2991,7.93598 13.2991,14.49249 0,5.45601 -3.3791,7.62606 -8.246,7.62606 -7.1455,0 -13.9811,-8.23055 -13.9811,-15.17457 0,-5.549 3.8596,-6.94398 8.928,-6.94398"
     id="path260"
     style="stroke-width:0.992001" />
  <path
     class="Note"
     d="m 1281.2435,636.62001 c 18.259,0 21.9326,-14.88001 21.9326,-18.44501 0,-5.65754 -4.464,-9.33101 -10.912,-9.33101 -16.5696,0 -21.7311,12.80301 -21.7311,18.55352 0,5.84355 4.6655,9.2225 10.7105,9.2225 m 8.432,-8.835 c -4.96,3.379 -8.432,4.5725 -10.8035,4.5725 -2.294,0 -3.6735,-1.1935 -4.371,-2.5885 -0.403,-0.589 -0.6975,-1.3795 -0.6975,-2.17001 0,-5.363 15.9806,-14.19801 21.235,-14.19801 2.0771,0 3.2705,0.992 4.0611,2.387 0.31,0.589 0.6045,1.2865 0.6045,2.07701 0,2.18549 -2.2785,4.867 -10.0286,9.92001"
     id="path262"
     style="stroke-width:0.992001" />
  <path
     class="Clef"
     d="m 60.869562,136.56396 c -0.201475,-1.19348 0,-1.28653 0.588951,-1.89105 10.710536,-10.01296 18.848019,-22.61445 18.848019,-37.788992 0,-8.633483 -2.386952,-17.174017 -6.448006,-23.126519 -1.488002,-2.169506 -4.060955,-4.960005 -5.16148,-4.960005 -1.379477,0 -4.464005,2.589123 -6.448007,4.774501 -7.331483,8.122008 -9.718535,20.522021 -9.718535,30.844985 0,5.75053 0.697576,12.19853 1.395051,16.27506 0.186001,1.19348 0.294526,1.37948 -0.89905,2.37148 C 38.73554,134.87448 23.561,149.05692 23.561,169.09849 c 0,17.26702 11.811062,33.63501 36.115086,33.63501 2.278428,0 4.85148,-0.20148 6.835482,-0.60443 1.100526,-0.186 1.302001,-0.29452 1.488002,0.89896 1.193476,6.64948 2.681478,15.28306 2.681478,19.94854 0,14.67854 -9.92001,16.46097 -15.763492,16.46097 -5.363055,0 -7.951483,-1.58095 -7.951483,-2.88296 0,-0.682 0.898952,-0.992 3.177479,-1.674 3.084528,-0.89905 6.649482,-3.58053 6.649482,-9.33106 0,-5.456 -3.472004,-10.12148 -9.51696,-10.12148 -6.649582,0 -10.617586,5.25453 -10.617586,11.40801 0,6.44801 3.859579,16.16654 18.848019,16.16654 6.649582,0 19.545595,-2.976 19.545595,-19.84002 0,-5.64201 -1.782527,-15.06601 -2.883053,-21.2195 -0.201475,-1.19357 -0.09295,-1.10052 1.286526,-1.68957 10.028535,-3.96801 16.678017,-12.40001 16.678017,-23.6065 0,-12.71006 -9.331059,-23.9165 -23.916549,-23.9165 -2.572953,0 -2.572953,0 -2.867478,-1.78253 l -2.480003,-14.38401 m 9.315485,-52.390054 c 3.270528,0 5.952006,2.681478 5.952006,8.137483 0,11.020531 -9.424009,19.948541 -17.251493,26.784031 -0.697475,0.60452 -1.100525,0.496 -1.302001,-0.79053 -0.387475,-2.57295 -0.58905,-5.95201 -0.58905,-9.12948 0,-15.46897 7.145582,-25.001504 13.190538,-25.001504 M 59.381561,151.7385 c 0.294525,1.89095 0.294525,1.78243 -1.488002,2.38695 -8.742008,2.976 -14.399489,10.80349 -14.399489,19.23555 0,8.928 4.66548,15.28301 11.423486,17.56154 0.790526,0.29452 1.984002,0.60452 2.666003,0.60452 0.806001,0 1.193477,-0.496 1.193477,-1.10052 0,-0.69748 -0.790526,-0.992 -1.488002,-1.28653 -4.169479,-1.7825 -7.145482,-6.045 -7.145482,-10.61751 0,-5.6575 3.874954,-9.92001 9.92001,-11.60956 1.596526,-0.38748 1.798001,-0.29443 1.984002,0.806 l 4.960005,29.55855 c 0.201475,1.08506 0.108525,1.08506 -1.379477,1.37958 -1.596526,0.31 -3.580528,0.496 -5.56453,0.496 -17.360018,0 -28.566554,-9.61001 -28.566554,-23.40507 0,-5.85901 0.992001,-13.68654 9.222534,-23.0175 5.952006,-6.64958 10.524536,-10.32306 15.190015,-14.08959 0.992001,-0.79043 1.178002,-0.69747 1.379477,0.40305 l 2.092527,12.69454 m 6.835482,15.77896 c -0.201475,-1.19347 -0.09295,-1.488 1.100526,-1.39495 8.028958,0.69748 14.67854,7.43998 14.67854,16.16649 0,6.26206 -3.766529,11.31502 -9.331059,14.08954 -1.193477,0.60453 -1.379477,0.60453 -1.580952,-0.58905 l -4.867055,-28.27203"
     id="path264"
     style="stroke-width:0.992001" />
  <path
     class="Clef"
     d="m 48.5625,571.9385 c -17.266987,0 -25.0015,12.60149 -25.0015,22.1185 0,7.936 4.169509,14.78701 12.198537,14.78701 6.246531,0 10.524536,-4.371 10.524536,-10.50901 0,-6.35501 -4.66558,-10.32301 -9.532535,-10.32301 -2.681478,0 -3.673528,0.6975 -4.960025,0.6975 -1.286506,0 -1.581001,-0.79055 -1.581001,-1.78255 0,-3.968 5.951976,-11.22201 16.073561,-11.22201 10.508961,0 15.08149,10.32306 15.08149,25.90058 0,27.68305 -13.702014,43.15201 -36.812562,56.34255 -0.899001,0.496 -1.488001,0.992 -1.488001,1.78253 0,0.60452 0.403,1.19347 1.286501,1.19347 0.496005,0 1.100501,-0.20147 1.689502,-0.496 24.412549,-11.90401 50.204575,-29.55855 50.204575,-59.72155 0,-17.25157 -10.524535,-28.76801 -27.683078,-28.76801 m 37.401613,8.13748 c -3.084528,0 -5.456006,2.38695 -5.456006,5.45601 0,3.069 2.371478,5.456 5.456006,5.456 3.068953,0 5.456005,-2.387 5.456005,-5.456 0,-3.06906 -2.387052,-5.45601 -5.456005,-5.45601 m 0.09295,24.89303 c -3.068953,0 -5.347481,2.294 -5.347481,5.363 0,3.06906 2.278528,5.36306 5.347481,5.36306 3.084528,0 5.363055,-2.294 5.363055,-5.36306 0,-3.069 -2.278527,-5.363 -5.363055,-5.363"
     id="path266"
     style="stroke-width:0.992001" />
  <path
     class="TimeSig"
     d="m 150.15051,135.48201 v -21.23502 c 0,-0.79053 -0.093,-1.68948 -1.19347,-1.68948 -0.88348,0 -1.37948,0.20147 -1.98401,0.89895 l -9.42401,11.40803 c -0.40295,0.496 -0.89895,1.085 -0.89895,2.27851 v 8.33901 h -13.39206 c 7.93606,-6.75801 23.82355,-29.26408 24.11807,-30.45756 l 0.093,-0.29452 c 0,-0.89895 -0.69747,-1.488 -1.488,-1.488 -0.88347,0 -4.96,0.186 -6.74253,0.186 -1.78243,0 -6.24643,-0.186 -7.05243,-0.186 -0.88358,0 -2.27853,0.29452 -2.27853,1.87557 0,12.30696 -9.71853,26.0865 -12.69454,30.25601 l -0.589,0.7905 c 0,0 0,0.1085 0,0.1085 l -0.10849,0.093 c -0.20151,0.496 -0.29451,0.899 -0.29451,1.1935 0,0.992 0.79051,1.68948 1.984,1.68948 h 18.44507 v 6.24653 c 0,2.68148 -2.17,3.472 -3.968,3.472 -1.58105,0 -2.27853,0.89905 -2.27853,1.89105 0,0.992 0.40295,2.07695 1.89095,2.07695 h 21.12655 c 0.992,0 1.984,-0.69747 1.984,-2.07695 0,-1.39505 -1.19347,-1.984 -2.18548,-1.984 -0.992,0 -3.06905,-0.60452 -3.06905,-3.782 v -5.84358 h 7.23853 c 0.992,0 1.48801,-0.69748 1.48801,-1.89098 0,-1.1935 -0.38748,-1.8755 -1.48801,-1.8755 h -7.23853"
     id="path268"
     style="stroke-width:0.992001" />
  <path
     class="TimeSig"
     d="m 157.18757,187.34601 c 0,-1.178 -0.496,-1.3795 -1.19348,-1.3795 -0.79053,0 -1.10053,0.3875 -1.28653,1.085 l -0.10852,0.1085 c -0.992,2.48005 -1.78253,4.35553 -3.85948,4.35553 -0.496,0 -0.992,-0.093 -1.68948,-0.29453 -1.28652,-0.496 -1.984,-0.58895 -2.976,-1.08495 -1.984,-0.806 -6.64958,-2.38705 -10.72601,-2.38705 -1.28653,0 -2.57305,0.2015 -3.658,0.58905 2.17,-3.56505 10.61748,-6.54106 12.78748,-7.13006 6.94401,-1.891 13.20602,-4.774 13.20602,-13.00449 0,-10.50906 -10.32306,-15.08159 -19.5455,-15.08159 -6.944,0 -13.09756,0.60453 -17.96456,6.26201 -1.68951,2.07705 -2.77451,4.55706 -2.77451,7.23853 0,1.37948 0.29451,2.77453 0.899,4.26253 1.488,3.06901 4.55701,5.45601 8.12206,5.45601 6.06043,0 6.94401,-6.24651 6.94401,-8.72654 0,-5.952 -6.83558,-6.24653 -6.83558,-8.23053 0.20157,-1.39495 1.984,-3.782 7.82758,-3.782 8.83496,0 8.94348,6.64958 8.94348,9.53253 0,9.02103 -7.45548,15.87205 -14.58549,20.22755 -5.45605,3.47205 -9.33106,8.33901 -11.02055,14.78701 l -0.093,0.29453 c 0,1.28652 1.085,3.37895 2.573,3.37895 2.1855,0 3.379,-6.06043 9.22255,-6.06043 3.96801,0 5.45601,5.36295 14.29097,5.36295 4.26253,0 11.90401,-0.40295 13.50054,-15.77901"
     id="path270"
     style="stroke-width:0.992001" />
  <path
     class="TimeSig"
     d="m 150.15051,605.28301 v -21.23502 c 0,-0.79053 -0.093,-1.68948 -1.19347,-1.68948 -0.88348,0 -1.37948,0.20147 -1.98401,0.89895 l -9.42401,11.40803 c -0.40295,0.496 -0.89895,1.085 -0.89895,2.27851 v 8.33901 h -13.39206 c 7.93606,-6.75801 23.82355,-29.26408 24.11807,-30.45756 l 0.093,-0.29452 c 0,-0.89895 -0.69747,-1.488 -1.488,-1.488 -0.88347,0 -4.96,0.186 -6.74253,0.186 -1.78243,0 -6.24643,-0.186 -7.05243,-0.186 -0.88358,0 -2.27853,0.29452 -2.27853,1.87557 0,12.30696 -9.71853,26.0865 -12.69454,30.25601 l -0.589,0.7905 c 0,0 0,0.1085 0,0.1085 l -0.10849,0.093 c -0.20151,0.496 -0.29451,0.899 -0.29451,1.1935 0,0.992 0.79051,1.68948 1.984,1.68948 h 18.44507 v 6.24653 c 0,2.68148 -2.17,3.472 -3.968,3.472 -1.58105,0 -2.27853,0.89905 -2.27853,1.89105 0,0.992 0.40295,2.07695 1.89095,2.07695 h 21.12655 c 0.992,0 1.984,-0.69747 1.984,-2.07695 0,-1.39505 -1.19347,-1.984 -2.18548,-1.984 -0.992,0 -3.06905,-0.60452 -3.06905,-3.782 v -5.84358 h 7.23853 c 0.992,0 1.48801,-0.69748 1.48801,-1.89098 0,-1.1935 -0.38748,-1.8755 -1.48801,-1.8755 h -7.23853"
     id="path272"
     style="stroke-width:0.992001" />
  <path
     class="TimeSig"
     d="m 157.18757,657.14601 c 0,-1.178 -0.496,-1.3795 -1.19348,-1.3795 -0.79053,0 -1.10053,0.3875 -1.28653,1.085 l -0.10852,0.1085 c -0.992,2.48005 -1.78253,4.35553 -3.85948,4.35553 -0.496,0 -0.992,-0.0931 -1.68948,-0.29453 -1.28652,-0.496 -1.984,-0.58895 -2.976,-1.08495 -1.984,-0.806 -6.64958,-2.38705 -10.72601,-2.38705 -1.28653,0 -2.57305,0.2015 -3.658,0.58905 2.17,-3.56505 10.61748,-6.54106 12.78748,-7.13006 6.94401,-1.891 13.20602,-4.774 13.20602,-13.00449 0,-10.50906 -10.32306,-15.08159 -19.5455,-15.08159 -6.944,0 -13.09756,0.60453 -17.96456,6.26201 -1.68951,2.07705 -2.77451,4.55706 -2.77451,7.23853 0,1.37948 0.29451,2.77453 0.899,4.26253 1.488,3.06901 4.55701,5.45601 8.12206,5.45601 6.06043,0 6.94401,-6.24651 6.94401,-8.72654 0,-5.952 -6.83558,-6.24653 -6.83558,-8.23053 0.20157,-1.39495 1.984,-3.782 7.82758,-3.782 8.83496,0 8.94348,6.64958 8.94348,9.53253 0,9.02103 -7.45548,15.87205 -14.58549,20.22755 -5.45605,3.47205 -9.33106,8.33901 -11.02055,14.78701 l -0.093,0.29453 c 0,1.28652 1.085,3.37895 2.573,3.37895 2.1855,0 3.379,-6.06043 9.22255,-6.06043 3.96801,0 5.45601,5.36295 14.29097,5.36295 4.26253,0 11.90401,-0.40295 13.50054,-15.77901"
     id="path274"
     style="stroke-width:0.992001" />
  <path
     class="Rest"
     fill="#00aa00"
     d="m 2148.6605,150.545 v -9.11406 c 0,-1.488 -1.1935,-2.58843 -2.5729,-2.58843 h -22.8316 c -1.488,0 -2.573,1.10043 -2.573,2.58843 v 9.11406 c 0,1.395 1.085,2.5885 2.573,2.5885 h 22.8316 c 1.3794,0 2.5729,-1.1935 2.5729,-2.5885"
     id="path276"
     style="stroke-width:0.992001" />
  <path
     class="Rest"
     d="m 516.2265,100.945 v -9.114061 c 0,-1.488002 -1.19347,-2.588428 -2.57295,-2.588428 H 490.822 c -1.488,0 -2.573,1.100426 -2.573,2.588428 V 100.945 c 0,1.395 1.085,2.5885 2.573,2.5885 h 22.83155 c 1.37948,0 2.57295,-1.1935 2.57295,-2.5885"
     id="path278"
     style="stroke-width:0.992001" />
  <path
     class="Rest"
     d="m 516.2265,645.145 v -9.11406 c 0,-1.488 -1.19347,-2.58843 -2.57295,-2.58843 H 490.822 c -1.488,0 -2.573,1.10043 -2.573,2.58843 v 9.11406 c 0,1.395 1.085,2.5885 2.573,2.5885 h 22.83155 c 1.37948,0 2.57295,-1.1935 2.57295,-2.5885"
     id="path280"
     style="stroke-width:0.992001" />
  <path
     class="Rest"
     d="m 236.4465,658.35106 v -9.12955 c 0,-1.48801 -1.19347,-2.58851 -2.57295,-2.58851 H 211.042 c -1.488,0 -2.573,1.1005 -2.573,2.58851 v 9.12955 c 0,1.37948 1.085,2.57295 2.573,2.57295 h 22.83155 c 1.37948,0 2.57295,-1.19347 2.57295,-2.57295"
     id="path282"
     style="stroke-width:0.992001" />
  <path
     class="Lyrics"
     fill="#00aa00"
     d="m 1465.593,20.907 c 2.16,-3.079 3.14,-4 4.42,-4 1.8,0 2.22,2.531 4.07,2.531 1.67,0 2.2,-3.235 2.2,-3.5 0,-1.094 -1.61,-3.078 -3.99,-3.078 -2.81,0 -4.15,1.125 -6.59,5.125 h -0.11 v -5.344 h -1.34 l -7.19,2.906 v 1.25 l 4,2 v 12.625 c 0,3.078 -1.84,4.172 -4,4.172 v 1.938 h 14.05 v -1.938 c -4.77,0 -5.52,-1.141 -5.52,-5.187 v -9.5 m 16.8,10.734 c 0,2.703 -1.85,3.953 -3.89,3.953 v 1.938 h 11.76 v -1.938 c -1.93,-0.062 -3.34,-1.359 -3.34,-4.328 V 12.641 h -1.36 l -7.28,2.641 v 1.25 l 4.11,2.046 v 13.063 m -0.88,-28.719 c 0,1.61 1.3,2.906 2.92,2.906 1.63,0 2.91,-1.296 2.91,-2.906 0,-1.625 -1.28,-2.922 -2.91,-2.922 -1.62,0 -2.92,1.297 -2.92,2.922"
     id="path284" />
  <path
     class="Lyrics"
     d="M 675.441,0.703 V 2.75 c 4.75,0 5.719,2.11 5.719,6 v 20.953 c 0,4.157 -1.453,5.782 -5.719,5.782 v 2.047 h 17.438 v -2.047 c -4.797,0 -6.047,-1.953 -6.047,-5.297 V 7.828 c 0,-3.671 1.89,-5.078 5.734,-5.078 V 0.703 h -17.125 m 23.172,0 V 2.75 c 2.266,0 3.297,0.813 3.297,2.219 0,2.156 -4.219,6.422 -14.641,13.609 l 0.703,0.641 c 9.172,7.734 15.875,14.688 20.407,18.313 h 9.515 v -2.157 c -2.281,-0.437 -4.172,-1.187 -7.187,-3.453 -5.453,-4.172 -12.203,-11.187 -17.235,-15.015 7.563,-5.563 10.375,-9.079 13.782,-11.61 2.156,-1.625 4,-2.265 6.64,-2.547 V 0.703 h -15.281 m 28.734,37.094 c -1.406,4.656 -2.703,6.485 -4.75,6.485 -1.937,0 -1.937,-1.735 -3.828,-1.735 -1.297,0 -2.328,0.985 -2.328,2.219 0,1.844 1.781,3.078 4.328,3.078 3.235,0 5.5,-1.828 7.063,-5.781 L 736.8,19.282 c 1.079,-2.75 1.735,-3.672 3.782,-4.11 v -1.937 h -9.344 v 1.937 c 3.297,0.172 4.047,2.219 2.969,5.031 l -4.641,11.813 -5.562,-12.734 c -1.25,-2.813 -0.547,-4 2.64,-4.11 v -1.937 h -11.765 v 1.937 c 1.734,0 2.484,0 3.89,3.188 l 8.578,19.437"
     id="path286" />
  <path
     class="Lyrics"
     fill="#00aa00"
     d="m 1728.423,22.578 c 0,-3.843 -3.01,-9.937 -9.98,-9.937 -6.38,0 -11.28,5.609 -11.28,13.016 0,7.234 4.68,12.468 11.21,12.468 4.11,0 7.74,-2.109 10.05,-5.89 l -1.12,-1.016 c -2.07,1.781 -4.22,2.594 -6.75,2.594 -5.03,0 -9.61,-4 -9.35,-11.235 h 17.22 m -16.89,-1.953 c 0.49,-3.672 2.75,-5.984 5.88,-5.984 2.96,0 4.92,2.156 5.34,5.984 h -11.22 m 20.08,25.172 c 6.86,-0.109 10.8,-3.453 10.8,-9.187 0,-4.485 -2.43,-7.875 -5.61,-7.875 -2.11,0 -3.46,1.297 -3.46,3.39 0,1.953 1.24,3.078 3.35,3.078 1.89,0 2.59,0.985 2.59,3.079 0,3.468 -2.86,4.968 -7.67,5.515 v 2"
     id="path288" />
  <path
     class="Lyrics"
     d="m 235.88,348.979 c 0,-3.844 -3.015,-9.938 -9.984,-9.938 -6.375,0 -11.281,5.61 -11.281,13.016 0,7.234 4.687,12.469 11.218,12.469 4.11,0 7.735,-2.11 10.047,-5.891 l -1.125,-1.016 c -2.062,1.782 -4.218,2.594 -6.75,2.594 -5.031,0 -9.609,-4 -9.343,-11.234 h 17.218 m -16.89,-1.953 c 0.484,-3.672 2.75,-5.985 5.875,-5.985 2.968,0 4.922,2.157 5.343,5.985 H 218.99 m 20.078,25.172 c 6.859,-0.11 10.797,-3.454 10.797,-9.188 0,-4.484 -2.422,-7.875 -5.61,-7.875 -2.109,0 -3.453,1.297 -3.453,3.391 0,1.953 1.235,3.078 3.344,3.078 1.891,0 2.594,0.984 2.594,3.078 0,3.469 -2.86,4.969 -7.672,5.516 v 2"
     id="path290" />
  <path
     class="Lyrics"
     fill="#00aa00"
     d="m 1867.813,348.979 c 0,-3.844 -3.01,-9.938 -9.98,-9.938 -6.38,0 -11.28,5.61 -11.28,13.016 0,7.234 4.68,12.469 11.21,12.469 4.11,0 7.74,-2.11 10.05,-5.891 l -1.12,-1.016 c -2.07,1.782 -4.22,2.594 -6.75,2.594 -5.03,0 -9.61,-4 -9.35,-11.234 h 17.22 m -16.89,-1.953 c 0.49,-3.672 2.75,-5.985 5.88,-5.985 2.96,0 4.92,2.157 5.34,5.985 h -11.22"
     id="path292" />
  <path
     class="Lyrics"
     fill="#00aa00"
     d="m 1979.393,326.401 h -1.36 l -6.91,2.484 v 1.25 l 3.72,2.047 v 25.703 c 0,2.328 -1.01,3.938 -3.72,4.109 v 1.938 h 11.61 v -1.938 c -2.43,-0.171 -3.34,-1.781 -3.34,-4.484 v -31.109 m 28.81,22.578 c 0,-3.844 -3.01,-9.938 -9.98,-9.938 -6.38,0 -11.28,5.61 -11.28,13.016 0,7.234 4.68,12.469 11.21,12.469 4.11,0 7.74,-2.11 10.05,-5.891 l -1.12,-1.016 c -2.07,1.782 -4.22,2.594 -6.75,2.594 -5.03,0 -9.61,-4 -9.35,-11.234 h 17.22 m -16.89,-1.953 c 0.49,-3.672 2.75,-5.985 5.88,-5.985 2.96,0 4.92,2.157 5.34,5.985 h -11.22 m 23.81,11.015 c 0,2.703 -1.84,3.953 -3.89,3.953 v 1.938 h 11.77 v -1.938 c -1.94,-0.062 -3.35,-1.359 -3.35,-4.328 v -18.625 h -1.35 l -7.29,2.641 v 1.25 l 4.11,2.047 v 13.062 m -0.87,-28.718 c 0,1.609 1.3,2.906 2.92,2.906 1.63,0 2.91,-1.297 2.91,-2.906 0,-1.625 -1.28,-2.922 -2.91,-2.922 -1.62,0 -2.92,1.297 -2.92,2.922"
     id="path294" />
  <path
     class="Lyrics"
     d="m 1092.733,347.307 c 2.16,-3.078 3.14,-4 4.43,-4 1.79,0 2.21,2.531 4.06,2.531 1.67,0 2.2,-3.234 2.2,-3.5 0,-1.094 -1.61,-3.078 -3.98,-3.078 -2.82,0 -4.16,1.125 -6.6,5.125 h -0.11 v -5.344 h -1.34 l -7.19,2.907 v 1.25 l 4,2 v 12.625 c 0,3.078 -1.84,4.171 -4,4.171 v 1.938 h 14.05 v -1.938 c -4.77,0 -5.52,-1.14 -5.52,-5.187 v -9.5 m 16.8,10.734 c 0,2.703 -1.84,3.953 -3.89,3.953 v 1.938 h 11.77 v -1.938 c -1.94,-0.062 -3.35,-1.359 -3.35,-4.328 v -18.625 h -1.36 l -7.28,2.641 v 1.25 l 4.11,2.047 v 13.062 m -0.87,-28.718 c 0,1.609 1.29,2.906 2.92,2.906 1.62,0 2.9,-1.297 2.9,-2.906 0,-1.625 -1.28,-2.922 -2.9,-2.922 -1.63,0 -2.92,1.297 -2.92,2.922"
     id="path296" />
  <path
     class="Lyrics"
     d="m 349.031,327.104 v 2.047 c 4.75,0 5.719,2.109 5.719,6 v 20.953 c 0,4.156 -1.454,5.781 -5.719,5.781 v 2.047 h 17.437 v -2.047 c -4.797,0 -6.047,-1.953 -6.047,-5.297 v -22.359 c 0,-3.672 1.891,-5.078 5.735,-5.078 v -2.047 h -17.125 m 23.172,0 v 2.047 c 2.265,0 3.297,0.812 3.297,2.218 0,2.157 -4.219,6.422 -14.641,13.61 l 0.703,0.64 c 9.172,7.735 15.875,14.688 20.406,18.313 h 9.516 v -2.156 c -2.281,-0.438 -4.172,-1.188 -7.188,-3.453 -5.453,-4.172 -12.203,-11.188 -17.234,-15.016 7.563,-5.563 10.375,-9.078 13.781,-11.609 2.157,-1.625 4,-2.266 6.641,-2.547 v -2.047 h -15.281 m 28.734,37.094 c -1.406,4.656 -2.703,6.484 -4.75,6.484 -1.937,0 -1.937,-1.734 -3.828,-1.734 -1.297,0 -2.328,0.984 -2.328,2.218 0,1.844 1.781,3.078 4.328,3.078 3.234,0 5.5,-1.828 7.062,-5.781 l 8.969,-22.781 c 1.078,-2.75 1.735,-3.672 3.781,-4.109 v -1.938 h -9.343 v 1.938 c 3.297,0.171 4.047,2.218 2.968,5.031 l -4.64,11.812 -5.563,-12.734 c -1.25,-2.813 -0.547,-4 2.641,-4.109 v -1.938 h -11.766 v 1.938 c 1.735,0 2.485,0 3.891,3.187 l 8.578,19.438"
     id="path298" />
  <path
     class="Lyrics"
     fill="#00aa00"
     d="m 2296.433,341.354 c -2,-1.563 -4.43,-2.313 -7.29,-2.313 -4.64,0 -7.88,2.75 -7.88,6.688 0,1.578 0.6,3.406 1.67,4.484 4.43,4.438 11.55,4.328 11.55,8.485 0,2.203 -2.05,3.828 -4.9,3.828 -3.24,0 -5.24,-2.313 -5.79,-6.532 h -1.78 v 6.797 c 2.05,1.032 5.24,1.735 7.94,1.735 5.08,0 8.27,-2.703 8.27,-7.125 0,-1.782 -0.6,-3.516 -1.74,-4.641 -3.08,-3.078 -11.28,-4.062 -11.28,-8.109 0,-2.313 1.52,-3.61 4.05,-3.61 2.97,0 4.7,1.891 5.51,6.157 h 1.67 v -5.844 m 5.94,10.265 c 0,7.016 5.66,12.907 12.47,12.907 6.91,0 12.16,-5.61 12.16,-12.953 0,-7.344 -5.19,-12.532 -12.6,-12.532 -6.68,0 -12.03,5.563 -12.03,12.578 m 5.13,-2.046 c 0,-6.266 2.64,-8.532 6.68,-8.532 6.11,0 7.96,9.172 7.96,13.813 0,4.703 -2.6,7.672 -6.81,7.672 -5.57,0 -7.83,-8.157 -7.83,-12.953 m 31,-3.735 c 2.31,-1.937 4.59,-3.187 7.08,-3.187 3.5,0 5.06,2.547 5.06,5.937 v 8.969 c 0,2.922 -1.24,4.437 -4.38,4.437 v 1.938 h 12.75 v -1.938 c -3.08,-0.328 -3.83,-1.625 -3.83,-4.328 v -10.265 c 0,-5.828 -2.92,-8.36 -7.93,-8.36 -2.97,0 -6.44,1.672 -8.64,4.594 h -0.11 v -4.594 h -1.36 l -6.8,2.532 v 1.25 l 3.63,2.046 v 13.016 c 0,2.703 -1.3,4 -4,4.109 v 1.938 h 12.9 v -1.938 c -3.19,0 -4.37,-1.468 -4.37,-4.437 v -11.719 m 29.37,12.047 c -1.83,0 -3.29,1.453 -3.29,3.297 0,1.828 1.46,3.344 3.29,3.344 1.85,0 3.35,-1.516 3.35,-3.344 0,-1.844 -1.5,-3.297 -3.35,-3.297"
     id="path300" />
  <path
     class="Lyrics"
     d="m 465.769,414.704 v 2.047 c 4.75,0 5.719,2.109 5.719,6 v 20.953 c 0,4.156 -1.453,5.781 -5.719,5.781 v 2.047 h 17.438 v -2.047 c -4.797,0 -6.047,-1.953 -6.047,-5.297 v -22.359 c 0,-3.672 1.891,-5.078 5.734,-5.078 v -2.047 h -17.125 m 23.172,0 v 2.047 c 2.266,0 3.297,0.812 3.297,2.218 0,2.157 -4.219,6.422 -14.64,13.61 l 0.703,0.64 c 9.172,7.735 15.875,14.688 20.406,18.313 h 9.516 v -2.156 c -2.282,-0.438 -4.172,-1.188 -7.188,-3.453 -5.453,-4.172 -12.203,-11.188 -17.234,-15.016 7.562,-5.563 10.375,-9.078 13.781,-11.609 2.156,-1.625 4,-2.266 6.641,-2.547 v -2.047 h -15.282 m 28.735,37.094 c -1.407,4.656 -2.703,6.484 -4.75,6.484 -1.938,0 -1.938,-1.734 -3.828,-1.734 -1.297,0 -2.329,0.984 -2.329,2.218 0,1.844 1.782,3.078 4.329,3.078 3.234,0 5.5,-1.828 7.062,-5.781 l 8.969,-22.781 c 1.078,-2.75 1.734,-3.672 3.781,-4.109 v -1.938 h -9.344 v 1.938 c 3.297,0.171 4.047,2.218 2.969,5.031 l -4.641,11.812 -5.562,-12.734 c -1.25,-2.813 -0.547,-4 2.641,-4.109 v -1.938 h -11.766 v 1.938 c 1.734,0 2.484,0 3.891,3.187 l 8.578,19.438"
     id="path302" />
  <path
     class="Lyrics"
     d="m 178.526,428.954 c -2,-1.563 -4.438,-2.313 -7.297,-2.313 -4.641,0 -7.875,2.75 -7.875,6.688 0,1.578 0.594,3.406 1.672,4.484 4.422,4.438 11.547,4.328 11.547,8.485 0,2.203 -2.047,3.828 -4.907,3.828 -3.234,0 -5.234,-2.313 -5.781,-6.532 h -1.781 v 6.797 c 2.047,1.032 5.234,1.735 7.937,1.735 5.078,0 8.266,-2.703 8.266,-7.125 0,-1.782 -0.594,-3.516 -1.734,-4.641 -3.079,-3.078 -11.282,-4.062 -11.282,-8.109 0,-2.313 1.516,-3.61 4.047,-3.61 2.969,0 4.703,1.891 5.516,6.157 h 1.672 v -5.844 m 5.937,10.265 c 0,7.016 5.656,12.907 12.469,12.907 6.906,0 12.156,-5.61 12.156,-12.953 0,-7.344 -5.187,-12.532 -12.594,-12.532 -6.687,0 -12.031,5.563 -12.031,12.578 m 5.125,-2.046 c 0,-6.266 2.641,-8.532 6.688,-8.532 6.109,0 7.953,9.172 7.953,13.813 0,4.703 -2.594,7.672 -6.813,7.672 -5.562,0 -7.828,-8.157 -7.828,-12.953 m 31,-3.735 c 2.313,-1.937 4.594,-3.187 7.078,-3.187 3.5,0 5.063,2.547 5.063,5.937 v 8.969 c 0,2.922 -1.235,4.437 -4.375,4.437 v 1.938 h 12.75 v -1.938 c -3.078,-0.328 -3.828,-1.625 -3.828,-4.328 v -10.265 c 0,-5.828 -2.922,-8.36 -7.938,-8.36 -2.969,0 -6.437,1.672 -8.64,4.594 h -0.11 v -4.594 h -1.359 l -6.797,2.532 v 1.25 l 3.625,2.046 v 13.016 c 0,2.703 -1.297,4 -4,4.109 v 1.938 h 12.906 v -1.938 c -3.187,0 -4.375,-1.468 -4.375,-4.437 v -11.719 m 29.375,12.047 c -1.828,0 -3.297,1.453 -3.297,3.297 0,1.828 1.469,3.344 3.297,3.344 1.844,0 3.344,-1.516 3.344,-3.344 0,-1.844 -1.5,-3.297 -3.344,-3.297"
     id="path304" />
  <path
     class="Lyrics"
     fill="#00aa00"
     d="m 1839.343,436.579 c 0,-3.844 -3.01,-9.938 -9.98,-9.938 -6.38,0 -11.28,5.61 -11.28,13.016 0,7.234 4.68,12.469 11.22,12.469 4.11,0 7.73,-2.11 10.04,-5.891 l -1.12,-1.016 c -2.06,1.782 -4.22,2.594 -6.75,2.594 -5.03,0 -9.61,-4 -9.35,-11.234 h 17.22 m -16.89,-1.953 c 0.49,-3.672 2.75,-5.985 5.88,-5.985 2.97,0 4.92,2.157 5.34,5.985 h -11.22"
     id="path306" />
  <path
     class="Lyrics"
     d="m 1069.583,434.907 c 2.16,-3.078 3.14,-4 4.42,-4 1.8,0 2.22,2.531 4.07,2.531 1.67,0 2.2,-3.234 2.2,-3.5 0,-1.094 -1.61,-3.078 -3.99,-3.078 -2.81,0 -4.15,1.125 -6.59,5.125 h -0.11 v -5.344 h -1.34 l -7.19,2.907 v 1.25 l 4,2 v 12.625 c 0,3.078 -1.84,4.171 -4,4.171 v 1.938 h 14.05 v -1.938 c -4.77,0 -5.52,-1.14 -5.52,-5.187 v -9.5 m 16.8,10.734 c 0,2.703 -1.85,3.953 -3.89,3.953 v 1.938 h 11.76 v -1.938 c -1.93,-0.062 -3.34,-1.359 -3.34,-4.328 v -18.625 h -1.36 l -7.28,2.641 v 1.25 l 4.11,2.047 v 13.062 m -0.88,-28.718 c 0,1.609 1.3,2.906 2.93,2.906 1.62,0 2.9,-1.297 2.9,-2.906 0,-1.625 -1.28,-2.922 -2.9,-2.922 -1.63,0 -2.93,1.297 -2.93,2.922"
     id="path308" />
  <path
     class="Lyrics"
     fill="#00aa00"
     d="m 2295.933,428.954 c -2,-1.563 -4.43,-2.313 -7.29,-2.313 -4.64,0 -7.88,2.75 -7.88,6.688 0,1.578 0.6,3.406 1.67,4.484 4.43,4.438 11.55,4.328 11.55,8.485 0,2.203 -2.05,3.828 -4.9,3.828 -3.24,0 -5.24,-2.313 -5.79,-6.532 h -1.78 v 6.797 c 2.05,1.032 5.24,1.735 7.94,1.735 5.08,0 8.27,-2.703 8.27,-7.125 0,-1.782 -0.6,-3.516 -1.74,-4.641 -3.08,-3.078 -11.28,-4.062 -11.28,-8.109 0,-2.313 1.52,-3.61 4.05,-3.61 2.97,0 4.7,1.891 5.51,6.157 h 1.67 v -5.844 m 5.94,10.265 c 0,7.016 5.66,12.907 12.47,12.907 6.91,0 12.16,-5.61 12.16,-12.953 0,-7.344 -5.19,-12.532 -12.6,-12.532 -6.68,0 -12.03,5.563 -12.03,12.578 m 5.13,-2.046 c 0,-6.266 2.64,-8.532 6.68,-8.532 6.11,0 7.96,9.172 7.96,13.813 0,4.703 -2.6,7.672 -6.81,7.672 -5.57,0 -7.83,-8.157 -7.83,-12.953 m 31,-3.735 c 2.31,-1.937 4.59,-3.187 7.08,-3.187 3.5,0 5.06,2.547 5.06,5.937 v 8.969 c 0,2.922 -1.24,4.437 -4.38,4.437 v 1.938 h 12.75 v -1.938 c -3.08,-0.328 -3.83,-1.625 -3.83,-4.328 v -10.265 c 0,-5.828 -2.92,-8.36 -7.93,-8.36 -2.97,0 -6.44,1.672 -8.64,4.594 h -0.11 v -4.594 h -1.36 l -6.8,2.532 v 1.25 l 3.63,2.046 v 13.016 c 0,2.703 -1.3,4 -4,4.109 v 1.938 h 12.9 v -1.938 c -3.19,0 -4.37,-1.468 -4.37,-4.437 v -11.719"
     id="path310" />
  <path
     class="Lyrics"
     fill="#00aa00"
     d="m 2096.133,414.001 h -1.36 l -6.91,2.484 v 1.25 l 3.72,2.047 v 25.703 c 0,2.328 -1.01,3.938 -3.72,4.109 v 1.938 h 11.61 v -1.938 c -2.44,-0.171 -3.34,-1.781 -3.34,-4.484 v -31.109 m 28.81,22.578 c 0,-3.844 -3.02,-9.938 -9.98,-9.938 -6.38,0 -11.29,5.61 -11.29,13.016 0,7.234 4.69,12.469 11.22,12.469 4.11,0 7.74,-2.11 10.05,-5.891 l -1.12,-1.016 c -2.07,1.782 -4.22,2.594 -6.75,2.594 -5.04,0 -9.61,-4 -9.35,-11.234 h 17.22 m -16.89,-1.953 c 0.48,-3.672 2.75,-5.985 5.87,-5.985 2.97,0 4.93,2.157 5.35,5.985 h -11.22 m 23.81,11.015 c 0,2.703 -1.84,3.953 -3.89,3.953 v 1.938 h 11.77 v -1.938 c -1.94,-0.062 -3.35,-1.359 -3.35,-4.328 v -18.625 h -1.36 l -7.28,2.641 v 1.25 l 4.11,2.047 v 13.062 m -0.87,-28.718 c 0,1.609 1.29,2.906 2.92,2.906 1.62,0 2.91,-1.297 2.91,-2.906 0,-1.625 -1.29,-2.922 -2.91,-2.922 -1.63,0 -2.92,1.297 -2.92,2.922"
     id="path312" />
  <path
     class="Lyrics"
     fill="#00aa00"
     d="m 1704.773,436.579 c 0,-3.844 -3.02,-9.938 -9.98,-9.938 -6.38,0 -11.29,5.61 -11.29,13.016 0,7.234 4.69,12.469 11.22,12.469 4.11,0 7.74,-2.11 10.05,-5.891 l -1.12,-1.016 c -2.07,1.782 -4.22,2.594 -6.75,2.594 -5.04,0 -9.61,-4 -9.35,-11.234 h 17.22 m -16.89,-1.953 c 0.48,-3.672 2.75,-5.985 5.87,-5.985 2.97,0 4.93,2.157 5.35,5.985 h -11.22"
     id="path314" />
  <path
     class="Lyrics"
     fill="#00aa00"
     d="m 2295.933,789.153 c -2,-1.56 -4.43,-2.31 -7.29,-2.31 -4.64,0 -7.88,2.75 -7.88,6.69 0,1.57 0.6,3.4 1.67,4.48 4.43,4.44 11.55,4.33 11.55,8.48 0,2.21 -2.05,3.83 -4.9,3.83 -3.24,0 -5.24,-2.31 -5.79,-6.53 h -1.78 v 6.8 c 2.05,1.03 5.24,1.73 7.94,1.73 5.08,0 8.27,-2.7 8.27,-7.12 0,-1.78 -0.6,-3.52 -1.74,-4.64 -3.08,-3.08 -11.28,-4.07 -11.28,-8.11 0,-2.31 1.52,-3.61 4.05,-3.61 2.97,0 4.7,1.89 5.51,6.15 h 1.67 v -5.84 m 5.94,10.27 c 0,7.01 5.66,12.9 12.47,12.9 6.91,0 12.16,-5.61 12.16,-12.95 0,-7.34 -5.19,-12.53 -12.6,-12.53 -6.68,0 -12.03,5.56 -12.03,12.58 m 5.13,-2.05 c 0,-6.27 2.64,-8.53 6.68,-8.53 6.11,0 7.96,9.17 7.96,13.81 0,4.7 -2.6,7.67 -6.81,7.67 -5.57,0 -7.83,-8.15 -7.83,-12.95 m 31,-3.73 c 2.31,-1.94 4.59,-3.19 7.08,-3.19 3.5,0 5.06,2.54 5.06,5.94 v 8.96 c 0,2.93 -1.24,4.44 -4.38,4.44 v 1.94 h 12.75 v -1.94 c -3.08,-0.33 -3.83,-1.62 -3.83,-4.33 v -10.26 c 0,-5.83 -2.92,-8.36 -7.93,-8.36 -2.97,0 -6.44,1.67 -8.64,4.59 h -0.11 v -4.59 h -1.36 l -6.8,2.53 v 1.25 l 3.63,2.05 v 13.01 c 0,2.71 -1.3,4 -4,4.11 v 1.94 h 12.9 v -1.94 c -3.19,0 -4.37,-1.47 -4.37,-4.44 v -11.71"
     id="path316" />
  <path
     class="Lyrics"
     fill="#00aa00"
     d="m 1483.973,796.783 c 0,-3.85 -3.02,-9.94 -9.99,-9.94 -6.37,0 -11.28,5.61 -11.28,13.01 0,7.24 4.69,12.47 11.22,12.47 4.11,0 7.73,-2.11 10.05,-5.89 l -1.13,-1.01 c -2.06,1.78 -4.22,2.59 -6.75,2.59 -5.03,0 -9.61,-4 -9.34,-11.23 h 17.22 m -16.89,-1.96 c 0.48,-3.67 2.75,-5.98 5.87,-5.98 2.97,0 4.92,2.15 5.34,5.98 h -11.21"
     id="path318" />
  <path
     class="Lyrics"
     fill="#00aa00"
     d="m 1979.393,774.203 h -1.36 l -6.91,2.48 v 1.25 l 3.72,2.05 v 25.7 c 0,2.33 -1.01,3.94 -3.72,4.11 v 1.94 h 11.61 v -1.94 c -2.43,-0.17 -3.34,-1.78 -3.34,-4.48 v -31.11 m 28.81,22.58 c 0,-3.85 -3.01,-9.94 -9.98,-9.94 -6.38,0 -11.28,5.61 -11.28,13.01 0,7.24 4.68,12.47 11.21,12.47 4.11,0 7.74,-2.11 10.05,-5.89 l -1.12,-1.01 c -2.07,1.78 -4.22,2.59 -6.75,2.59 -5.03,0 -9.61,-4 -9.35,-11.23 h 17.22 m -16.89,-1.96 c 0.49,-3.67 2.75,-5.98 5.88,-5.98 2.96,0 4.92,2.15 5.34,5.98 h -11.22 m 23.81,11.02 c 0,2.7 -1.84,3.95 -3.89,3.95 v 1.94 h 11.77 v -1.94 c -1.94,-0.06 -3.35,-1.36 -3.35,-4.33 v -18.62 h -1.35 l -7.29,2.64 v 1.25 l 4.11,2.05 v 13.06 m -0.87,-28.72 c 0,1.61 1.3,2.91 2.92,2.91 1.63,0 2.91,-1.3 2.91,-2.91 0,-1.63 -1.28,-2.92 -2.91,-2.92 -1.62,0 -2.92,1.29 -2.92,2.92"
     id="path320" />
  <path
     class="Lyrics"
     fill="#00aa00"
     d="m 1727.923,796.783 c 0,-3.85 -3.01,-9.94 -9.98,-9.94 -6.38,0 -11.28,5.61 -11.28,13.01 0,7.24 4.68,12.47 11.21,12.47 4.11,0 7.74,-2.11 10.05,-5.89 l -1.12,-1.01 c -2.07,1.78 -4.22,2.59 -6.75,2.59 -5.03,0 -9.61,-4 -9.35,-11.23 h 17.22 m -16.89,-1.96 c 0.49,-3.67 2.75,-5.98 5.88,-5.98 2.96,0 4.92,2.15 5.34,5.98 h -11.22"
     id="path322" />
  <path
     class="Lyrics"
     d="m 1279.073,795.103 c 2.16,-3.07 3.14,-4 4.42,-4 1.8,0 2.22,2.54 4.07,2.54 1.67,0 2.2,-3.24 2.2,-3.5 0,-1.1 -1.61,-3.08 -3.99,-3.08 -2.81,0 -4.15,1.12 -6.59,5.12 h -0.11 v -5.34 h -1.34 l -7.19,2.9 v 1.25 l 4,2 v 12.63 c 0,3.08 -1.84,4.17 -4,4.17 v 1.94 h 14.05 v -1.94 c -4.77,0 -5.52,-1.14 -5.52,-5.19 v -9.5 m 16.8,10.74 c 0,2.7 -1.85,3.95 -3.89,3.95 v 1.94 h 11.76 v -1.94 c -1.93,-0.06 -3.34,-1.36 -3.34,-4.33 v -18.62 h -1.36 l -7.28,2.64 v 1.25 l 4.11,2.05 v 13.06 m -0.88,-28.72 c 0,1.61 1.3,2.91 2.92,2.91 1.63,0 2.91,-1.3 2.91,-2.91 0,-1.63 -1.28,-2.92 -2.91,-2.92 -1.62,0 -2.92,1.29 -2.92,2.92"
     id="path324" />
  <path
     class="Lyrics"
     d="m 675.441,774.903 v 2.05 c 4.75,0 5.719,2.11 5.719,6 v 20.95 c 0,4.16 -1.453,5.78 -5.719,5.78 v 2.05 h 17.438 v -2.05 c -4.797,0 -6.047,-1.95 -6.047,-5.29 v -22.36 c 0,-3.68 1.89,-5.08 5.734,-5.08 v -2.05 h -17.125 m 23.172,0 v 2.05 c 2.266,0 3.297,0.81 3.297,2.22 0,2.15 -4.219,6.42 -14.641,13.61 l 0.703,0.64 c 9.172,7.73 15.875,14.68 20.407,18.31 h 9.515 v -2.16 c -2.281,-0.43 -4.172,-1.18 -7.187,-3.45 -5.453,-4.17 -12.203,-11.19 -17.235,-15.02 7.563,-5.56 10.375,-9.07 13.782,-11.61 2.156,-1.62 4,-2.26 6.64,-2.54 v -2.05 h -15.281 m 28.734,37.09 c -1.406,4.66 -2.703,6.49 -4.75,6.49 -1.937,0 -1.937,-1.74 -3.828,-1.74 -1.297,0 -2.328,0.99 -2.328,2.22 0,1.85 1.781,3.08 4.328,3.08 3.235,0 5.5,-1.83 7.063,-5.78 l 8.968,-22.78 c 1.079,-2.75 1.735,-3.67 3.782,-4.11 v -1.94 h -9.344 v 1.94 c 3.297,0.17 4.047,2.22 2.969,5.03 l -4.641,11.81 -5.562,-12.73 c -1.25,-2.81 -0.547,-4 2.64,-4.11 v -1.94 h -11.765 v 1.94 c 1.734,0 2.484,0 3.89,3.19 l 8.578,19.43"
     id="path326" />
  <polyline
     class="LyricsLineSegment"
     fill="none"
     stroke="#000000"
     stroke-width="2.48"
     stroke-linejoin="bevel"
     points="1124.59,305.82 1144.43,305.82"
     id="polyline328"
     transform="translate(-212.597,-282.867)" />
  <polyline
     class="LyricsLineSegment"
     fill="none"
     stroke="#000000"
     stroke-width="2.48"
     stroke-linejoin="bevel"
     points="1480.41,305.82 1500.25,305.82"
     id="polyline330"
     transform="translate(-212.597,-282.867)" />
  <polyline
     class="LyricsLineSegment"
     fill="none"
     stroke="#00aa00"
     stroke-width="2.48"
     stroke-linejoin="bevel"
     points="1801.03,305.82 1820.87,305.82"
     id="polyline332"
     transform="translate(-212.597,-282.867)" />
  <polyline
     class="LyricsLineSegment"
     fill="none"
     stroke="#000000"
     stroke-width="2.48"
     stroke-linejoin="bevel"
     points="786.571,632.221 806.411,632.221"
     id="polyline334"
     transform="translate(-212.597,-282.867)" />
  <polyline
     class="LyricsLineSegment"
     fill="none"
     stroke="#000000"
     stroke-width="2.48"
     stroke-linejoin="bevel"
     points="1119.16,632.221 1139,632.221"
     id="polyline336"
     transform="translate(-212.597,-282.867)" />
  <polyline
     class="LyricsLineSegment"
     fill="none"
     stroke="#00aa00"
     stroke-width="2.48"
     stroke-linejoin="bevel"
     points="2122.09,632.221 2141.93,632.221"
     id="polyline338"
     transform="translate(-212.597,-282.867)" />
  <polyline
     class="LyricsLineSegment"
     fill="none"
     stroke="#000000"
     stroke-width="2.48"
     stroke-linejoin="bevel"
     points="1502.62,632.221 1522.46,632.221"
     id="polyline340"
     transform="translate(-212.597,-282.867)" />
  <polyline
     class="LyricsLineSegment"
     fill="none"
     stroke="#000000"
     stroke-width="2.48"
     stroke-linejoin="bevel"
     points="1865.98,632.221 1885.82,632.221"
     id="polyline342"
     transform="translate(-212.597,-282.867)" />
  <polyline
     class="LyricsLineSegment"
     fill="none"
     stroke="#00aa00"
     stroke-width="2.48"
     stroke-linejoin="bevel"
     points="2355.01,632.221 2374.85,632.221"
     id="polyline344"
     transform="translate(-212.597,-282.867)" />
  <polyline
     class="LyricsLineSegment"
     fill="none"
     stroke="#00aa00"
     stroke-width="2.48"
     stroke-linejoin="bevel"
     points="2166.23,719.821 2186.07,719.821"
     id="polyline346"
     transform="translate(-212.597,-282.867)" />
  <polyline
     class="LyricsLineSegment"
     fill="none"
     stroke="#000000"
     stroke-width="2.48"
     stroke-linejoin="bevel"
     points="999.659,719.821 1019.5,719.821"
     id="polyline348"
     transform="translate(-212.597,-282.867)" />
  <polyline
     class="LyricsLineSegment"
     fill="none"
     stroke="#000000"
     stroke-width="2.48"
     stroke-linejoin="bevel"
     points="1591.2,719.821 1611.04,719.821"
     id="polyline350"
     transform="translate(-212.597,-282.867)" />
  <polyline
     class="LyricsLineSegment"
     fill="none"
     stroke="#00aa00"
     stroke-width="2.48"
     stroke-linejoin="bevel"
     points="2413.13,719.821 2432.97,719.821"
     id="polyline352"
     transform="translate(-212.597,-282.867)" />
  <polyline
     class="LyricsLineSegment"
     fill="none"
     stroke="#000000"
     stroke-width="2.48"
     stroke-linejoin="bevel"
     points="1209.24,1080.02 1229.08,1080.02"
     id="polyline354"
     transform="translate(-212.597,-282.867)" />
  <polyline
     class="LyricsLineSegment"
     fill="none"
     stroke="#000000"
     stroke-width="2.48"
     stroke-linejoin="bevel"
     points="1585.54,1080.02 1605.38,1080.02"
     id="polyline356"
     transform="translate(-212.597,-282.867)" />
  <polyline
     class="LyricsLineSegment"
     fill="none"
     stroke="#00aa00"
     stroke-width="2.48"
     stroke-linejoin="bevel"
     points="2052.15,1080.02 2071.99,1080.02"
     id="polyline358"
     transform="translate(-212.597,-282.867)" />
  <polyline
     class="LyricsLineSegment"
     fill="none"
     stroke="#00aa00"
     stroke-width="2.48"
     stroke-linejoin="bevel"
     points="2354.76,1080.02 2374.6,1080.02"
     id="polyline360"
     transform="translate(-212.597,-282.867)" />
  <path
     class="NoteDot"
     d="m 543.20401,535.932 c 0,-2.77451 -2.1855,-4.96001 -4.96,-4.96001 -2.7745,0 -4.96001,2.1855 -4.96001,4.96001 0,2.77451 2.18551,4.96001 4.96001,4.96001 2.7745,0 4.96,-2.1855 4.96,-4.96001"
     id="path362"
     style="stroke-width:0.992001" />
  <metadata
     id="metadata836">
    <rdf:RDF>
      <cc:Work
         rdf:about="">
        <dc:title>Stiluebung-5a</dc:title>
      </cc:Work>
    </rdf:RDF>
  </metadata>
</svg>
