<?xml version="1.0" encoding="UTF-8" standalone="no"?>
<svg
   width="2552.0081"
   height="594.14661"
   viewBox="0 0 2552.0081 594.14662"
   version="1.2"
   id="svg236"
   sodipodi:docname="Stiluebung-5bcolor-1.svg"
   inkscape:version="1.2.1 (9c6d41e410, 2022-07-14)"
   xmlns:inkscape="http://www.inkscape.org/namespaces/inkscape"
   xmlns:sodipodi="http://sodipodi.sourceforge.net/DTD/sodipodi-0.dtd"
   xmlns="http://www.w3.org/2000/svg"
   xmlns:svg="http://www.w3.org/2000/svg">
  <defs
     id="defs240" />
  <sodipodi:namedview
     id="namedview238"
     pagecolor="#505050"
     bordercolor="#eeeeee"
     borderopacity="1"
     inkscape:showpageshadow="0"
     inkscape:pageopacity="0"
     inkscape:pagecheckerboard="0"
     inkscape:deskcolor="#505050"
     showgrid="false"
     inkscape:zoom="0.25021386"
     inkscape:cx="855.26836"
     inkscape:cy="1744.5077"
     inkscape:current-layer="svg236" />
  <title
     id="title2">Stiluebung-5bcolor</title>
  <desc
     id="desc4">Generated by MuseScore 4.0.0</desc>
  <rect
     style="fill:#ffffff;stroke:#000000;stroke-width:2"
     id="rect575"
     width="2581.7915"
     height="627.46326"
     x="-3.9965811"
     y="-23.979486" />
  <polyline
     class="StaffLines"
     fill="none"
     stroke="#000000"
     stroke-width="3.22"
     stroke-linejoin="bevel"
     points="212.598,386.199 2764.6,386.199"
     id="polyline8"
     transform="translate(-212.597,-351.66439)" />
  <polyline
     class="StaffLines"
     fill="none"
     stroke="#000000"
     stroke-width="3.22"
     stroke-linejoin="bevel"
     points="212.598,410.999 2764.6,410.999"
     id="polyline10"
     transform="translate(-212.597,-351.66439)" />
  <polyline
     class="StaffLines"
     fill="none"
     stroke="#000000"
     stroke-width="3.22"
     stroke-linejoin="bevel"
     points="212.598,435.799 2764.6,435.799"
     id="polyline12"
     transform="translate(-212.597,-351.66439)" />
  <polyline
     class="StaffLines"
     fill="none"
     stroke="#000000"
     stroke-width="3.22"
     stroke-linejoin="bevel"
     points="212.598,460.599 2764.6,460.599"
     id="polyline14"
     transform="translate(-212.597,-351.66439)" />
  <polyline
     class="StaffLines"
     fill="none"
     stroke="#000000"
     stroke-width="3.22"
     stroke-linejoin="bevel"
     points="212.598,485.399 2764.6,485.399"
     id="polyline16"
     transform="translate(-212.597,-351.66439)" />
  <polyline
     class="StaffLines"
     fill="none"
     stroke="#000000"
     stroke-width="3.22"
     stroke-linejoin="bevel"
     points="212.598,784.611 2764.6,784.611"
     id="polyline18"
     transform="translate(-212.597,-351.66439)" />
  <polyline
     class="StaffLines"
     fill="none"
     stroke="#000000"
     stroke-width="3.22"
     stroke-linejoin="bevel"
     points="212.598,809.411 2764.6,809.411"
     id="polyline20"
     transform="translate(-212.597,-351.66439)" />
  <polyline
     class="StaffLines"
     fill="none"
     stroke="#000000"
     stroke-width="3.22"
     stroke-linejoin="bevel"
     points="212.598,834.211 2764.6,834.211"
     id="polyline22"
     transform="translate(-212.597,-351.66439)" />
  <polyline
     class="StaffLines"
     fill="none"
     stroke="#000000"
     stroke-width="3.22"
     stroke-linejoin="bevel"
     points="212.598,859.011 2764.6,859.011"
     id="polyline24"
     transform="translate(-212.597,-351.66439)" />
  <polyline
     class="StaffLines"
     fill="none"
     stroke="#000000"
     stroke-width="3.22"
     stroke-linejoin="bevel"
     points="212.598,883.811 2764.6,883.811"
     id="polyline26"
     transform="translate(-212.597,-351.66439)" />
  <polyline
     class="BarLine"
     fill="none"
     stroke="#000000"
     stroke-width="3.97"
     stroke-linejoin="bevel"
     points="2762.62,384.587 2762.62,784.611"
     id="polyline28"
     transform="translate(-212.597,-351.66439)" />
  <polyline
     class="BarLine"
     fill="none"
     stroke="#000000"
     stroke-width="3.97"
     stroke-linejoin="bevel"
     points="1146.27,384.587 1146.27,784.611"
     id="polyline30"
     transform="translate(-212.597,-351.66439)" />
  <polyline
     class="BarLine"
     fill="none"
     stroke="#000000"
     stroke-width="3.97"
     stroke-linejoin="bevel"
     points="214.582,384.587 214.582,784.611"
     id="polyline32"
     transform="translate(-212.597,-351.66439)" />
  <polyline
     class="BarLine"
     fill="none"
     stroke="#000000"
     stroke-width="3.97"
     stroke-linejoin="bevel"
     points="1954.44,384.587 1954.44,784.611"
     id="polyline34"
     transform="translate(-212.597,-351.66439)" />
  <polyline
     class="BarLine"
     fill="none"
     stroke="#000000"
     stroke-width="3.97"
     stroke-linejoin="bevel"
     points="1954.44,782.999 1954.44,885.423"
     id="polyline36"
     transform="translate(-212.597,-351.66439)" />
  <polyline
     class="BarLine"
     fill="none"
     stroke="#000000"
     stroke-width="3.97"
     stroke-linejoin="bevel"
     points="214.582,782.999 214.582,885.423"
     id="polyline38"
     transform="translate(-212.597,-351.66439)" />
  <polyline
     class="BarLine"
     fill="none"
     stroke="#000000"
     stroke-width="3.97"
     stroke-linejoin="bevel"
     points="1146.27,782.999 1146.27,885.423"
     id="polyline40"
     transform="translate(-212.597,-351.66439)" />
  <polyline
     class="BarLine"
     fill="none"
     stroke="#000000"
     stroke-width="3.97"
     stroke-linejoin="bevel"
     points="2762.62,782.999 2762.62,885.423"
     id="polyline42"
     transform="translate(-212.597,-351.66439)" />
  <polyline
     class="LedgerLine"
     fill="none"
     stroke="#000000"
     stroke-width="3.97"
     stroke-linejoin="bevel"
     points="2364.73,759.811 2417.21,759.811"
     id="polyline44"
     transform="translate(-212.597,-351.66439)" />
  <polyline
     class="LedgerLine"
     fill="none"
     stroke="#000000"
     stroke-width="3.97"
     stroke-linejoin="bevel"
     points="555.393,759.811 607.869,759.811"
     id="polyline46"
     transform="translate(-212.597,-351.66439)" />
  <polyline
     class="LedgerLine"
     fill="none"
     stroke="#000000"
     stroke-width="3.97"
     stroke-linejoin="bevel"
     points="555.393,735.011 607.869,735.011"
     id="polyline48"
     transform="translate(-212.597,-351.66439)" />
  <polyline
     class="LedgerLine"
     fill="none"
     stroke="#000000"
     stroke-width="3.97"
     stroke-linejoin="bevel"
     points="555.393,710.211 607.869,710.211"
     id="polyline50"
     transform="translate(-212.597,-351.66439)" />
  <polyline
     class="LedgerLine"
     fill="none"
     stroke="#000000"
     stroke-width="3.97"
     stroke-linejoin="bevel"
     points="748.385,759.811 800.86,759.811"
     id="polyline52"
     transform="translate(-212.597,-351.66439)" />
  <polyline
     class="LedgerLine"
     fill="none"
     stroke="#000000"
     stroke-width="3.97"
     stroke-linejoin="bevel"
     points="748.385,735.011 800.86,735.011"
     id="polyline54"
     transform="translate(-212.597,-351.66439)" />
  <polyline
     class="LedgerLine"
     fill="none"
     stroke="#000000"
     stroke-width="3.97"
     stroke-linejoin="bevel"
     points="1749.55,735.011 1802.02,735.011"
     id="polyline56"
     transform="translate(-212.597,-351.66439)" />
  <polyline
     class="LedgerLine"
     fill="none"
     stroke="#000000"
     stroke-width="3.97"
     stroke-linejoin="bevel"
     points="941.376,759.811 993.851,759.811"
     id="polyline58"
     transform="translate(-212.597,-351.66439)" />
  <polyline
     class="LedgerLine"
     fill="none"
     stroke="#000000"
     stroke-width="3.97"
     stroke-linejoin="bevel"
     points="1749.55,759.811 1802.02,759.811"
     id="polyline60"
     transform="translate(-212.597,-351.66439)" />
  <polyline
     class="LedgerLine"
     fill="none"
     stroke="#000000"
     stroke-width="3.97"
     stroke-linejoin="bevel"
     points="1170.58,735.011 1223.05,735.011"
     id="polyline62"
     transform="translate(-212.597,-351.66439)" />
  <polyline
     class="LedgerLine"
     fill="none"
     stroke="#000000"
     stroke-width="3.97"
     stroke-linejoin="bevel"
     points="1170.58,759.811 1223.05,759.811"
     id="polyline64"
     transform="translate(-212.597,-351.66439)" />
  <polyline
     class="LedgerLine"
     fill="none"
     stroke="#000000"
     stroke-width="3.97"
     stroke-linejoin="bevel"
     points="1363.57,759.811 1416.04,759.811"
     id="polyline66"
     transform="translate(-212.597,-351.66439)" />
  <polyline
     class="LedgerLine"
     fill="none"
     stroke="#000000"
     stroke-width="3.97"
     stroke-linejoin="bevel"
     points="1978.75,759.811 2031.22,759.811"
     id="polyline68"
     transform="translate(-212.597,-351.66439)" />
  <polyline
     class="Stem"
     fill="none"
     stroke="#000000"
     stroke-width="2.98"
     stroke-linejoin="bevel"
     points="2223.22,493.632 2223.22,410.999"
     id="polyline70"
     transform="translate(-212.597,-351.66439)" />
  <polyline
     class="Stem"
     fill="none"
     stroke="#000000"
     stroke-width="2.98"
     stroke-linejoin="bevel"
     points="2030.23,468.832 2030.23,386.199"
     id="polyline72"
     transform="translate(-212.597,-351.66439)" />
  <polyline
     class="Stem"
     fill="none"
     stroke="#000000"
     stroke-width="2.98"
     stroke-linejoin="bevel"
     points="1415.05,456.432 1415.05,373.799"
     id="polyline74"
     transform="translate(-212.597,-351.66439)" />
  <polyline
     class="Stem"
     fill="none"
     stroke="#000000"
     stroke-width="2.98"
     stroke-linejoin="bevel"
     points="1211.64,431.632 1211.64,361.399"
     id="polyline76"
     transform="translate(-212.597,-351.66439)" />
  <polyline
     class="Stem"
     fill="none"
     stroke="#000000"
     stroke-width="2.98"
     stroke-linejoin="bevel"
     points="1608.04,481.232 1608.04,398.599"
     id="polyline78"
     transform="translate(-212.597,-351.66439)" />
  <polyline
     class="Stem"
     fill="none"
     stroke="#000000"
     stroke-width="2.98"
     stroke-linejoin="bevel"
     points="1790.62,444.032 1790.62,367.599"
     id="polyline80"
     transform="translate(-212.597,-351.66439)" />
  <polyline
     class="Stem"
     fill="none"
     stroke="#000000"
     stroke-width="2.98"
     stroke-linejoin="bevel"
     points="2405.8,456.432 2405.8,373.799"
     id="polyline82"
     transform="translate(-212.597,-351.66439)" />
  <polyline
     class="Stem"
     fill="none"
     stroke="#000000"
     stroke-width="2.98"
     stroke-linejoin="bevel"
     points="2609.21,481.232 2609.21,398.599"
     id="polyline84"
     transform="translate(-212.597,-351.66439)" />
  <polyline
     class="Stem"
     fill="none"
     stroke="#000000"
     stroke-width="2.98"
     stroke-linejoin="bevel"
     points="1760.96,489.565 1760.96,547.399"
     id="polyline86"
     transform="translate(-212.597,-351.66439)" />
  <polyline
     class="Stem"
     fill="none"
     stroke="#000000"
     stroke-width="2.98"
     stroke-linejoin="bevel"
     points="1181.98,477.165 1181.98,534.999"
     id="polyline88"
     transform="translate(-212.597,-351.66439)" />
  <polyline
     class="Stem"
     fill="none"
     stroke="#000000"
     stroke-width="2.98"
     stroke-linejoin="bevel"
     points="1374.97,439.965 1374.97,510.199"
     id="polyline90"
     transform="translate(-212.597,-351.66439)" />
  <polyline
     class="Stem"
     fill="none"
     stroke="#000000"
     stroke-width="2.98"
     stroke-linejoin="bevel"
     points="1567.97,464.765 1567.97,522.599"
     id="polyline92"
     transform="translate(-212.597,-351.66439)" />
  <polyline
     class="Stem"
     fill="none"
     stroke="#000000"
     stroke-width="2.98"
     stroke-linejoin="bevel"
     points="2183.15,477.165 2183.15,534.999"
     id="polyline94"
     transform="translate(-212.597,-351.66439)" />
  <polyline
     class="Stem"
     fill="none"
     stroke="#000000"
     stroke-width="2.98"
     stroke-linejoin="bevel"
     points="1990.16,452.365 1990.16,516.399"
     id="polyline96"
     transform="translate(-212.597,-351.66439)" />
  <polyline
     class="Stem"
     fill="none"
     stroke="#000000"
     stroke-width="2.98"
     stroke-linejoin="bevel"
     points="2376.14,501.965 2376.14,559.799"
     id="polyline98"
     transform="translate(-212.597,-351.66439)" />
  <polyline
     class="Stem"
     fill="none"
     stroke="#000000"
     stroke-width="2.98"
     stroke-linejoin="bevel"
     points="759.793,427.565 759.793,503.999"
     id="polyline100"
     transform="translate(-212.597,-351.66439)" />
  <polyline
     class="Stem"
     fill="none"
     stroke="#000000"
     stroke-width="2.98"
     stroke-linejoin="bevel"
     points="2569.13,464.765 2569.13,522.599"
     id="polyline102"
     transform="translate(-212.597,-351.66439)" />
  <polyline
     class="Stem"
     fill="none"
     stroke="#000000"
     stroke-width="2.98"
     stroke-linejoin="bevel"
     points="952.784,452.365 952.784,516.399"
     id="polyline104"
     transform="translate(-212.597,-351.66439)" />
  <polyline
     class="Stem"
     fill="none"
     stroke="#000000"
     stroke-width="2.98"
     stroke-linejoin="bevel"
     points="1211.64,718.445 1211.64,660.611"
     id="polyline106"
     transform="translate(-212.597,-351.66439)" />
  <polyline
     class="Stem"
     fill="none"
     stroke="#000000"
     stroke-width="2.98"
     stroke-linejoin="bevel"
     points="1404.63,743.245 1404.63,685.411"
     id="polyline108"
     transform="translate(-212.597,-351.66439)" />
  <polyline
     class="Stem"
     fill="none"
     stroke="#000000"
     stroke-width="2.98"
     stroke-linejoin="bevel"
     points="789.452,730.845 789.452,673.011"
     id="polyline110"
     transform="translate(-212.597,-351.66439)" />
  <polyline
     class="Stem"
     fill="none"
     stroke="#000000"
     stroke-width="2.98"
     stroke-linejoin="bevel"
     points="2019.82,755.645 2019.82,697.811"
     id="polyline112"
     transform="translate(-212.597,-351.66439)" />
  <polyline
     class="Stem"
     fill="none"
     stroke="#000000"
     stroke-width="2.98"
     stroke-linejoin="bevel"
     points="1597.63,768.045 1597.63,710.211"
     id="polyline114"
     transform="translate(-212.597,-351.66439)" />
  <polyline
     class="Stem"
     fill="none"
     stroke="#000000"
     stroke-width="2.98"
     stroke-linejoin="bevel"
     points="596.461,706.045 596.461,648.211"
     id="polyline116"
     transform="translate(-212.597,-351.66439)" />
  <polyline
     class="Stem"
     fill="none"
     stroke="#000000"
     stroke-width="2.98"
     stroke-linejoin="bevel"
     points="2212.81,780.445 2212.81,722.611"
     id="polyline118"
     transform="translate(-212.597,-351.66439)" />
  <polyline
     class="Stem"
     fill="none"
     stroke="#000000"
     stroke-width="2.98"
     stroke-linejoin="bevel"
     points="1790.62,730.845 1790.62,673.011"
     id="polyline120"
     transform="translate(-212.597,-351.66439)" />
  <polyline
     class="Stem"
     fill="none"
     stroke="#000000"
     stroke-width="2.98"
     stroke-linejoin="bevel"
     points="2405.8,743.245 2405.8,685.411"
     id="polyline122"
     transform="translate(-212.597,-351.66439)" />
  <polyline
     class="Stem"
     fill="none"
     stroke="#000000"
     stroke-width="2.98"
     stroke-linejoin="bevel"
     points="982.443,755.645 982.443,697.811"
     id="polyline124"
     transform="translate(-212.597,-351.66439)" />
  <polyline
     class="Stem"
     fill="none"
     stroke="#000000"
     stroke-width="2.98"
     stroke-linejoin="bevel"
     points="2598.79,768.045 2598.79,710.211"
     id="polyline126"
     transform="translate(-212.597,-351.66439)" />
  <polyline
     class="Stem"
     fill="none"
     stroke="#000000"
     stroke-width="2.98"
     stroke-linejoin="bevel"
     points="1567.97,825.978 1567.97,902.411"
     id="polyline128"
     transform="translate(-212.597,-351.66439)" />
  <polyline
     class="Stem"
     fill="none"
     stroke="#000000"
     stroke-width="2.98"
     stroke-linejoin="bevel"
     points="1374.97,863.178 1374.97,921.011"
     id="polyline130"
     transform="translate(-212.597,-351.66439)" />
  <polyline
     class="Stem"
     fill="none"
     stroke="#000000"
     stroke-width="2.98"
     stroke-linejoin="bevel"
     points="952.784,813.578 952.784,896.211"
     id="polyline132"
     transform="translate(-212.597,-351.66439)" />
  <polyline
     class="Stem"
     fill="none"
     stroke="#000000"
     stroke-width="2.98"
     stroke-linejoin="bevel"
     points="2183.15,838.378 2183.15,908.611"
     id="polyline134"
     transform="translate(-212.597,-351.66439)" />
  <polyline
     class="Stem"
     fill="none"
     stroke="#000000"
     stroke-width="2.98"
     stroke-linejoin="bevel"
     points="2376.14,863.178 2376.14,921.011"
     id="polyline136"
     transform="translate(-212.597,-351.66439)" />
  <polyline
     class="Stem"
     fill="none"
     stroke="#000000"
     stroke-width="2.98"
     stroke-linejoin="bevel"
     points="1181.98,838.378 1181.98,908.611"
     id="polyline138"
     transform="translate(-212.597,-351.66439)" />
  <polyline
     class="Stem"
     fill="none"
     stroke="#000000"
     stroke-width="2.98"
     stroke-linejoin="bevel"
     points="2569.13,887.978 2569.13,945.811"
     id="polyline140"
     transform="translate(-212.597,-351.66439)" />
  <polyline
     class="Stem"
     fill="none"
     stroke="#000000"
     stroke-width="2.98"
     stroke-linejoin="bevel"
     points="1760.96,850.778 1760.96,914.811"
     id="polyline142"
     transform="translate(-212.597,-351.66439)" />
  <polyline
     class="Stem"
     fill="none"
     stroke="#000000"
     stroke-width="2.98"
     stroke-linejoin="bevel"
     points="1990.16,875.578 1990.16,933.411"
     id="polyline144"
     transform="translate(-212.597,-351.66439)" />
  <path
     class="Note"
     fill="#ffaa00"
     d="m 1182.0135,122.82262 c 18.259,0 21.9326,-14.88002 21.9326,-18.44502 0,-5.657529 -4.464,-9.331008 -10.912,-9.331008 -16.5696,0 -21.7311,12.803008 -21.7311,18.553528 0,5.84355 4.6655,9.2225 10.7105,9.2225 m 8.432,-8.83501 c -4.96,3.379 -8.432,4.57251 -10.8035,4.57251 -2.294,0 -3.6735,-1.19351 -4.371,-2.58851 -0.403,-0.589 -0.6975,-1.37949 -0.6975,-2.17 0,-5.363 15.9806,-14.198014 21.235,-14.198014 2.0771,0 3.2705,0.992004 4.0611,2.387004 0.31,0.589 0.6045,1.2865 0.6045,2.077 0,2.1855 -2.2785,4.86701 -10.0286,9.92001"
     id="path146"
     style="stroke-width:0.992001" />
  <path
     class="Note"
     fill="#ffaa00"
     d="m 1375.0035,147.62262 c 18.259,0 21.9326,-14.88002 21.9326,-18.44502 0,-5.65753 -4.464,-9.33101 -10.912,-9.33101 -16.5696,0 -21.7311,12.80301 -21.7311,18.55353 0,5.84355 4.6655,9.2225 10.7105,9.2225 m 8.432,-8.83501 c -4.96,3.379 -8.432,4.57251 -10.8035,4.57251 -2.294,0 -3.6735,-1.19351 -4.371,-2.58851 -0.403,-0.589 -0.6975,-1.37949 -0.6975,-2.17 0,-5.363 15.9806,-14.19801 21.235,-14.19801 2.0771,0 3.2705,0.992 4.0611,2.387 0.31,0.589 0.6045,1.2865 0.6045,2.077 0,2.1855 -2.2785,4.86701 -10.0286,9.92001"
     id="path148"
     style="stroke-width:0.992001" />
  <path
     class="Note"
     fill="#ffaa00"
     d="m 1797.1935,135.22262 c 18.259,0 21.9326,-14.88002 21.9326,-18.44502 0,-5.65753 -4.464,-9.33101 -10.912,-9.33101 -16.5696,0 -21.7311,12.80301 -21.7311,18.55353 0,5.84355 4.6655,9.2225 10.7105,9.2225 m 8.432,-8.83501 c -4.96,3.379 -8.432,4.57251 -10.8035,4.57251 -2.294,0 -3.6735,-1.19351 -4.371,-2.58851 -0.403,-0.589 -0.6975,-1.37949 -0.6975,-2.17 0,-5.363 15.9806,-14.19801 21.235,-14.19801 2.0771,0 3.2705,0.992 4.0611,2.387 0.31,0.589 0.6045,1.2865 0.6045,2.077 0,2.1855 -2.2785,4.86701 -10.0286,9.92001"
     id="path150"
     style="stroke-width:0.992001" />
  <path
     class="Note"
     fill="#ffaa00"
     d="m 1990.1935,160.02262 c 18.259,0 21.9326,-14.88002 21.9326,-18.44502 0,-5.65753 -4.464,-9.33101 -10.912,-9.33101 -16.5696,0 -21.7311,12.80301 -21.7311,18.55353 0,5.84355 4.6655,9.2225 10.7105,9.2225 m 8.432,-8.83501 c -4.96,3.379 -8.432,4.57251 -10.8035,4.57251 -2.294,0 -3.6735,-1.19351 -4.371,-2.58851 -0.403,-0.589 -0.6975,-1.37949 -0.6975,-2.17 0,-5.363 15.9806,-14.19801 21.235,-14.19801 2.0771,0 3.2705,0.992 4.0611,2.387 0.31,0.589 0.6045,1.2865 0.6045,2.077 0,2.1855 -2.2785,4.86701 -10.0286,9.92001"
     id="path152"
     style="stroke-width:0.992001" />
  <path
     class="Note"
     fill="#ffaa00"
     d="m 978.61354,98.02262 c 18.25896,0 21.93256,-14.880015 21.93256,-18.445019 0,-5.65753 -4.46402,-9.331009 -10.91203,-9.331009 -16.56956,0 -21.73107,12.803013 -21.73107,18.553523 0,5.843551 4.66551,9.222505 10.71054,9.222505 m 8.432,-8.835009 c -4.96,3.379003 -8.432,4.572509 -10.80353,4.572509 -2.294,0 -3.6735,-1.193506 -4.37101,-2.588507 -0.403,-0.589001 -0.69749,-1.379497 -0.69749,-2.170002 0,-5.363006 15.98056,-14.198015 21.23499,-14.198015 2.07705,0 3.27053,0.992001 4.06105,2.387003 0.31,0.589 0.60453,1.286496 0.60453,2.077002 0,2.185497 -2.27853,4.867005 -10.02854,9.92001"
     id="path154"
     style="stroke-width:0.992001" />
  <path
     class="Note"
     fill="#ffaa00"
     d="m 2172.7635,122.82262 c 18.259,0 21.9326,-14.88002 21.9326,-18.44502 0,-5.657529 -4.464,-9.331008 -10.912,-9.331008 -16.5696,0 -21.7311,12.803008 -21.7311,18.553528 0,5.84355 4.6655,9.2225 10.7105,9.2225 m 8.432,-8.83501 c -4.96,3.379 -8.432,4.57251 -10.8035,4.57251 -2.294,0 -3.6735,-1.19351 -4.371,-2.58851 -0.403,-0.589 -0.6975,-1.37949 -0.6975,-2.17 0,-5.363 15.9806,-14.198014 21.235,-14.198014 2.0771,0 3.2705,0.992004 4.0611,2.387004 0.31,0.589 0.6045,1.2865 0.6045,2.077 0,2.1855 -2.2785,4.86701 -10.0286,9.92001"
     id="path156"
     style="stroke-width:0.992001" />
  <path
     class="Note"
     fill="#ffaa00"
     d="m 1557.5835,110.42262 c 18.259,0 21.9326,-14.880015 21.9326,-18.445019 0,-5.65753 -4.464,-9.331009 -10.912,-9.331009 -16.5696,0 -21.7311,12.803013 -21.7311,18.553528 0,5.84355 4.6655,9.2225 10.7105,9.2225 m 8.432,-8.83501 c -4.96,3.379 -8.432,4.57251 -10.8035,4.57251 -2.294,0 -3.6735,-1.19351 -4.371,-2.58851 -0.403,-0.589 -0.6975,-1.37949 -0.6975,-2.17 0,-5.363005 15.9806,-14.198014 21.235,-14.198014 2.0771,0 3.2705,0.992001 4.0611,2.387003 0.31,0.589 0.6045,1.286496 0.6045,2.077002 0,2.185497 -2.2785,4.867005 -10.0286,9.920009"
     id="path158"
     style="stroke-width:0.992001" />
  <path
     class="Note"
     fill="#ffaa00"
     d="m 2376.1735,147.62262 c 18.259,0 21.9326,-14.88002 21.9326,-18.44502 0,-5.65753 -4.464,-9.33101 -10.912,-9.33101 -16.5696,0 -21.7311,12.80301 -21.7311,18.55353 0,5.84355 4.6655,9.2225 10.7105,9.2225 m 8.432,-8.83501 c -4.96,3.379 -8.432,4.57251 -10.8035,4.57251 -2.294,0 -3.6735,-1.19351 -4.371,-2.58851 -0.403,-0.589 -0.6975,-1.37949 -0.6975,-2.17 0,-5.363 15.9806,-14.19801 21.235,-14.19801 2.0771,0 3.2705,0.992 4.0611,2.387 0.31,0.589 0.6045,1.2865 0.6045,2.077 0,2.1855 -2.2785,4.86701 -10.0286,9.92001"
     id="path160"
     style="stroke-width:0.992001" />
  <path
     class="Note"
     fill="#5555ff"
     d="m 1557.5835,147.62262 c 18.259,0 21.9326,-14.88002 21.9326,-18.44502 0,-5.65753 -4.464,-9.33101 -10.912,-9.33101 -16.5696,0 -21.7311,12.80301 -21.7311,18.55353 0,5.84355 4.6655,9.2225 10.7105,9.2225 m 8.432,-8.83501 c -4.96,3.379 -8.432,4.57251 -10.8035,4.57251 -2.294,0 -3.6735,-1.19351 -4.371,-2.58851 -0.403,-0.589 -0.6975,-1.37949 -0.6975,-2.17 0,-5.363 15.9806,-14.19801 21.235,-14.19801 2.0771,0 3.2705,0.992 4.0611,2.387 0.31,0.589 0.6045,1.2865 0.6045,2.077 0,2.1855 -2.2785,4.86701 -10.0286,9.92001"
     id="path162"
     style="stroke-width:0.992001" />
  <path
     class="Note"
     fill="#5555ff"
     d="m 1786.7835,110.42262 c 18.259,0 21.9326,-14.880015 21.9326,-18.445019 0,-5.65753 -4.464,-9.331009 -10.912,-9.331009 -16.5696,0 -21.7311,12.803013 -21.7311,18.553528 0,5.84355 4.6655,9.2225 10.7105,9.2225 m 8.432,-8.83501 c -4.96,3.379 -8.432,4.57251 -10.8035,4.57251 -2.294,0 -3.6735,-1.19351 -4.371,-2.58851 -0.403,-0.589 -0.6975,-1.37949 -0.6975,-2.17 0,-5.363005 15.9806,-14.198014 21.235,-14.198014 2.0771,0 3.2705,0.992001 4.0611,2.387003 0.31,0.589 0.6045,1.286496 0.6045,2.077002 0,2.185497 -2.2785,4.867005 -10.0286,9.920009"
     id="path164"
     style="stroke-width:0.992001" />
  <path
     class="Note"
     fill="#5555ff"
     d="m 1979.7735,135.22262 c 18.259,0 21.9326,-14.88002 21.9326,-18.44502 0,-5.65753 -4.464,-9.33101 -10.912,-9.33101 -16.5696,0 -21.7311,12.80301 -21.7311,18.55353 0,5.84355 4.6655,9.2225 10.7105,9.2225 m 8.432,-8.83501 c -4.96,3.379 -8.432,4.57251 -10.8035,4.57251 -2.294,0 -3.6735,-1.19351 -4.371,-2.58851 -0.403,-0.589 -0.6975,-1.37949 -0.6975,-2.17 0,-5.363 15.9806,-14.19801 21.235,-14.19801 2.0771,0 3.2705,0.992 4.0611,2.387 0.31,0.589 0.6045,1.2865 0.6045,2.077 0,2.1855 -2.2785,4.86701 -10.0286,9.92001"
     id="path166"
     style="stroke-width:0.992001" />
  <path
     class="Note"
     fill="#5555ff"
     d="m 556.41854,85.62262 c 18.25896,0 21.93254,-14.880015 21.93254,-18.445019 0,-5.65753 -4.464,-9.331009 -10.91201,-9.331009 -16.56956,0 -21.73107,12.803013 -21.73107,18.553523 0,5.843551 4.66551,9.222505 10.71054,9.222505 m 8.432,-8.835009 c -4.96,3.379003 -8.432,4.572509 -10.80353,4.572509 -2.294,0 -3.6735,-1.193506 -4.37101,-2.588507 -0.403,-0.589001 -0.69749,-1.379497 -0.69749,-2.170002 0,-5.363006 15.98056,-14.198015 21.23499,-14.198015 2.07705,0 3.27053,0.992001 4.06105,2.387003 0.31,0.589 0.60453,1.286496 0.60453,2.077002 0,2.185497 -2.27853,4.867005 -10.02854,9.92001"
     id="path168"
     style="stroke-width:0.992001" />
  <path
     class="Note"
     fill="#5555ff"
     d="m 749.40954,110.42262 c 18.25896,0 21.93254,-14.880015 21.93254,-18.445019 0,-5.65753 -4.464,-9.331009 -10.91201,-9.331009 -16.56956,0 -21.73107,12.803013 -21.73107,18.553528 0,5.84355 4.66551,9.2225 10.71054,9.2225 m 8.432,-8.83501 c -4.96,3.379 -8.432,4.57251 -10.80353,4.57251 -2.294,0 -3.6735,-1.19351 -4.37101,-2.58851 -0.403,-0.589 -0.69749,-1.37949 -0.69749,-2.17 0,-5.363005 15.98056,-14.198014 21.23499,-14.198014 2.07705,0 3.27053,0.992001 4.06105,2.387003 0.31,0.589 0.60453,1.286496 0.60453,2.077002 0,2.185497 -2.27853,4.867005 -10.02854,9.920009"
     id="path170"
     style="stroke-width:0.992001" />
  <path
     class="Note"
     fill="#5555ff"
     d="m 2365.7535,122.82262 c 18.259,0 21.9326,-14.88002 21.9326,-18.44502 0,-5.657529 -4.464,-9.331008 -10.912,-9.331008 -16.5696,0 -21.7311,12.803008 -21.7311,18.553528 0,5.84355 4.6655,9.2225 10.7105,9.2225 m 8.432,-8.83501 c -4.96,3.379 -8.432,4.57251 -10.8035,4.57251 -2.294,0 -3.6735,-1.19351 -4.371,-2.58851 -0.403,-0.589 -0.6975,-1.37949 -0.6975,-2.17 0,-5.363 15.9806,-14.198014 21.235,-14.198014 2.0771,0 3.2705,0.992004 4.0611,2.387004 0.31,0.589 0.6045,1.2865 0.6045,2.077 0,2.1855 -2.2785,4.86701 -10.0286,9.92001"
     id="path172"
     style="stroke-width:0.992001" />
  <path
     class="Note"
     fill="#5555ff"
     d="m 978.61354,135.22262 c 18.25896,0 21.93256,-14.88002 21.93256,-18.44502 0,-5.65753 -4.46402,-9.33101 -10.91203,-9.33101 -16.56956,0 -21.73107,12.80301 -21.73107,18.55353 0,5.84355 4.66551,9.2225 10.71054,9.2225 m 8.432,-8.83501 c -4.96,3.379 -8.432,4.57251 -10.80353,4.57251 -2.294,0 -3.6735,-1.19351 -4.37101,-2.58851 -0.403,-0.589 -0.69749,-1.37949 -0.69749,-2.17 0,-5.363 15.98056,-14.19801 21.23499,-14.19801 2.07705,0 3.27053,0.992 4.06105,2.387 0.31,0.589 0.60453,1.2865 0.60453,2.077 0,2.1855 -2.27853,4.86701 -10.02854,9.92001"
     id="path174"
     style="stroke-width:0.992001" />
  <path
     class="Note"
     fill="#5555ff"
     d="m 1171.6035,98.02262 c 18.259,0 21.9326,-14.880015 21.9326,-18.445019 0,-5.65753 -4.464,-9.331009 -10.912,-9.331009 -16.5696,0 -21.7311,12.803013 -21.7311,18.553523 0,5.843551 4.6655,9.222505 10.7105,9.222505 m 8.432,-8.835009 c -4.96,3.379003 -8.432,4.572509 -10.8035,4.572509 -2.294,0 -3.6735,-1.193506 -4.371,-2.588507 -0.403,-0.589001 -0.6975,-1.379497 -0.6975,-2.170002 0,-5.363006 15.9806,-14.198015 21.235,-14.198015 2.0771,0 3.2705,0.992001 4.0611,2.387003 0.31,0.589 0.6045,1.286496 0.6045,2.077002 0,2.185497 -2.2785,4.867005 -10.0286,9.92001"
     id="path176"
     style="stroke-width:0.992001" />
  <path
     class="Note"
     fill="#5555ff"
     d="m 1364.5935,122.82262 c 18.259,0 21.9326,-14.88002 21.9326,-18.44502 0,-5.657529 -4.464,-9.331008 -10.912,-9.331008 -16.5696,0 -21.7311,12.803008 -21.7311,18.553528 0,5.84355 4.6655,9.2225 10.7105,9.2225 m 8.432,-8.83501 c -4.96,3.379 -8.432,4.57251 -10.8035,4.57251 -2.294,0 -3.6735,-1.19351 -4.371,-2.58851 -0.403,-0.589 -0.6975,-1.37949 -0.6975,-2.17 0,-5.363 15.9806,-14.198014 21.235,-14.198014 2.0771,0 3.2705,0.992004 4.0611,2.387004 0.31,0.589 0.6045,1.2865 0.6045,2.077 0,2.1855 -2.2785,4.86701 -10.0286,9.92001"
     id="path178"
     style="stroke-width:0.992001" />
  <path
     class="Note"
     fill="#5555ff"
     d="m 2172.7635,160.02262 c 18.259,0 21.9326,-14.88002 21.9326,-18.44502 0,-5.65753 -4.464,-9.33101 -10.912,-9.33101 -16.5696,0 -21.7311,12.80301 -21.7311,18.55353 0,5.84355 4.6655,9.2225 10.7105,9.2225 m 8.432,-8.83501 c -4.96,3.379 -8.432,4.57251 -10.8035,4.57251 -2.294,0 -3.6735,-1.19351 -4.371,-2.58851 -0.403,-0.589 -0.6975,-1.37949 -0.6975,-2.17 0,-5.363 15.9806,-14.19801 21.235,-14.19801 2.0771,0 3.2705,0.992 4.0611,2.387 0.31,0.589 0.6045,1.2865 0.6045,2.077 0,2.1855 -2.2785,4.86701 -10.0286,9.92001"
     id="path180"
     style="stroke-width:0.992001" />
  <path
     class="Note"
     fill="#00aa00"
     d="m 978.61354,384.83462 c 18.25896,0 21.93256,-14.88002 21.93256,-18.44502 0,-5.65753 -4.46402,-9.33101 -10.91203,-9.33101 -16.56956,0 -21.73107,12.80301 -21.73107,18.55353 0,5.84355 4.66551,9.2225 10.71054,9.2225 m 8.432,-8.83501 c -4.96,3.379 -8.432,4.57251 -10.80353,4.57251 -2.294,0 -3.6735,-1.19351 -4.37101,-2.58851 -0.403,-0.589 -0.69749,-1.37949 -0.69749,-2.17 0,-5.363 15.98056,-14.19801 21.23499,-14.19801 2.07705,0 3.27053,0.992 4.06105,2.387 0.31,0.589 0.60453,1.2865 0.60453,2.077 0,2.1855 -2.27853,4.86701 -10.02854,9.92001"
     id="path182"
     style="stroke-width:0.992001" />
  <path
     class="Note"
     fill="#00aa00"
     d="m 363.42654,372.43462 c 18.25896,0 21.93254,-14.88002 21.93254,-18.44502 0,-5.65753 -4.464,-9.33101 -10.91201,-9.33101 -16.56956,0 -21.73107,12.80301 -21.73107,18.55353 0,5.84355 4.66551,9.2225 10.71054,9.2225 m 8.432,-8.83501 c -4.96,3.379 -8.432,4.57251 -10.80353,4.57251 -2.294,0 -3.6735,-1.19351 -4.37101,-2.58851 -0.403,-0.589 -0.69749,-1.37949 -0.69749,-2.17 0,-5.363 15.98056,-14.19801 21.23499,-14.19801 2.07705,0 3.27053,0.992 4.06105,2.387 0.31,0.589 0.60453,1.2865 0.60453,2.077 0,2.1855 -2.27853,4.86701 -10.02854,9.92001"
     id="path184"
     style="stroke-width:0.992001" />
  <path
     class="Note"
     fill="#00aa00"
     d="m 749.40954,422.03462 c 18.25896,0 21.93254,-14.88002 21.93254,-18.44502 0,-5.65753 -4.464,-9.33101 -10.91201,-9.33101 -16.56956,0 -21.73107,12.80301 -21.73107,18.55353 0,5.84355 4.66551,9.2225 10.71054,9.2225 m 8.432,-8.83501 c -4.96,3.379 -8.432,4.57251 -10.80353,4.57251 -2.294,0 -3.6735,-1.19351 -4.37101,-2.58851 -0.403,-0.589 -0.69749,-1.37949 -0.69749,-2.17 0,-5.363 15.98056,-14.19801 21.23499,-14.19801 2.07705,0 3.27053,0.992 4.06105,2.387 0.31,0.589 0.60453,1.2865 0.60453,2.077 0,2.1855 -2.27853,4.86701 -10.02854,9.92001"
     id="path186"
     style="stroke-width:0.992001" />
  <path
     class="Note"
     fill="#00aa00"
     d="m 1979.7735,446.83462 c 18.259,0 21.9326,-14.88002 21.9326,-18.44502 0,-5.65753 -4.464,-9.33101 -10.912,-9.33101 -16.5696,0 -21.7311,12.80301 -21.7311,18.55353 0,5.84355 4.6655,9.2225 10.7105,9.2225 m 8.432,-8.83501 c -4.96,3.379 -8.432,4.57251 -10.8035,4.57251 -2.294,0 -3.6735,-1.19351 -4.371,-2.58851 -0.403,-0.589 -0.6975,-1.37949 -0.6975,-2.17 0,-5.363 15.9806,-14.19801 21.235,-14.19801 2.0771,0 3.2705,0.992 4.0611,2.387 0.31,0.589 0.6045,1.2865 0.6045,2.077 0,2.1855 -2.2785,4.86701 -10.0286,9.92001"
     id="path188"
     style="stroke-width:0.992001" />
  <path
     class="Note"
     fill="#00aa00"
     d="m 1557.5835,397.23462 c 18.259,0 21.9326,-14.88002 21.9326,-18.44502 0,-5.65753 -4.464,-9.33101 -10.912,-9.33101 -16.5696,0 -21.7311,12.80301 -21.7311,18.55353 0,5.84355 4.6655,9.2225 10.7105,9.2225 m 8.432,-8.83501 c -4.96,3.379 -8.432,4.57251 -10.8035,4.57251 -2.294,0 -3.6735,-1.19351 -4.371,-2.58851 -0.403,-0.589 -0.6975,-1.37949 -0.6975,-2.17 0,-5.363 15.9806,-14.19801 21.235,-14.19801 2.0771,0 3.2705,0.992 4.0611,2.387 0.31,0.589 0.6045,1.2865 0.6045,2.077 0,2.1855 -2.2785,4.86701 -10.0286,9.92001"
     id="path190"
     style="stroke-width:0.992001" />
  <path
     class="Note"
     fill="#00aa00"
     d="m 556.41854,397.23462 c 18.25896,0 21.93254,-14.88002 21.93254,-18.44502 0,-5.65753 -4.464,-9.33101 -10.91201,-9.33101 -16.56956,0 -21.73107,12.80301 -21.73107,18.55353 0,5.84355 4.66551,9.2225 10.71054,9.2225 m 8.432,-8.83501 c -4.96,3.379 -8.432,4.57251 -10.80353,4.57251 -2.294,0 -3.6735,-1.19351 -4.37101,-2.58851 -0.403,-0.589 -0.69749,-1.37949 -0.69749,-2.17 0,-5.363 15.98056,-14.19801 21.23499,-14.19801 2.07705,0 3.27053,0.992 4.06105,2.387 0.31,0.589 0.60453,1.2865 0.60453,2.077 0,2.1855 -2.27853,4.86701 -10.02854,9.92001"
     id="path192"
     style="stroke-width:0.992001" />
  <path
     class="Note"
     fill="#00aa00"
     d="m 2172.7635,409.63462 c 18.259,0 21.9326,-14.88002 21.9326,-18.44502 0,-5.65753 -4.464,-9.33101 -10.912,-9.33101 -16.5696,0 -21.7311,12.80301 -21.7311,18.55353 0,5.84355 4.6655,9.2225 10.7105,9.2225 m 8.432,-8.83501 c -4.96,3.379 -8.432,4.57251 -10.8035,4.57251 -2.294,0 -3.6735,-1.19351 -4.371,-2.58851 -0.403,-0.589 -0.6975,-1.37949 -0.6975,-2.17 0,-5.363 15.9806,-14.19801 21.235,-14.19801 2.0771,0 3.2705,0.992 4.0611,2.387 0.31,0.589 0.6045,1.2865 0.6045,2.077 0,2.1855 -2.2785,4.86701 -10.0286,9.92001"
     id="path194"
     style="stroke-width:0.992001" />
  <path
     class="Note"
     fill="#00aa00"
     d="m 1364.5935,434.43462 c 18.259,0 21.9326,-14.88002 21.9326,-18.44502 0,-5.65753 -4.464,-9.33101 -10.912,-9.33101 -16.5696,0 -21.7311,12.80301 -21.7311,18.55353 0,5.84355 4.6655,9.2225 10.7105,9.2225 m 8.432,-8.83501 c -4.96,3.379 -8.432,4.57251 -10.8035,4.57251 -2.294,0 -3.6735,-1.19351 -4.371,-2.58851 -0.403,-0.589 -0.6975,-1.37949 -0.6975,-2.17 0,-5.363 15.9806,-14.19801 21.235,-14.19801 2.0771,0 3.2705,0.992 4.0611,2.387 0.31,0.589 0.6045,1.2865 0.6045,2.077 0,2.1855 -2.2785,4.86701 -10.0286,9.92001"
     id="path196"
     style="stroke-width:0.992001" />
  <path
     class="Note"
     fill="#00aa00"
     d="m 1171.6035,409.63462 c 18.259,0 21.9326,-14.88002 21.9326,-18.44502 0,-5.65753 -4.464,-9.33101 -10.912,-9.33101 -16.5696,0 -21.7311,12.80301 -21.7311,18.55353 0,5.84355 4.6655,9.2225 10.7105,9.2225 m 8.432,-8.83501 c -4.96,3.379 -8.432,4.57251 -10.8035,4.57251 -2.294,0 -3.6735,-1.19351 -4.371,-2.58851 -0.403,-0.589 -0.6975,-1.37949 -0.6975,-2.17 0,-5.363 15.9806,-14.19801 21.235,-14.19801 2.0771,0 3.2705,0.992 4.0611,2.387 0.31,0.589 0.6045,1.2865 0.6045,2.077 0,2.1855 -2.2785,4.86701 -10.0286,9.92001"
     id="path198"
     style="stroke-width:0.992001" />
  <path
     class="Note"
     fill="#00aa00"
     d="m 2365.7535,434.43462 c 18.259,0 21.9326,-14.88002 21.9326,-18.44502 0,-5.65753 -4.464,-9.33101 -10.912,-9.33101 -16.5696,0 -21.7311,12.80301 -21.7311,18.55353 0,5.84355 4.6655,9.2225 10.7105,9.2225 m 8.432,-8.83501 c -4.96,3.379 -8.432,4.57251 -10.8035,4.57251 -2.294,0 -3.6735,-1.19351 -4.371,-2.58851 -0.403,-0.589 -0.6975,-1.37949 -0.6975,-2.17 0,-5.363 15.9806,-14.19801 21.235,-14.19801 2.0771,0 3.2705,0.992 4.0611,2.387 0.31,0.589 0.6045,1.2865 0.6045,2.077 0,2.1855 -2.2785,4.86701 -10.0286,9.92001"
     id="path200"
     style="stroke-width:0.992001" />
  <path
     class="Note"
     fill="#00aa00"
     d="m 1786.7835,422.03462 c 18.259,0 21.9326,-14.88002 21.9326,-18.44502 0,-5.65753 -4.464,-9.33101 -10.912,-9.33101 -16.5696,0 -21.7311,12.80301 -21.7311,18.55353 0,5.84355 4.6655,9.2225 10.7105,9.2225 m 8.432,-8.83501 c -4.96,3.379 -8.432,4.57251 -10.8035,4.57251 -2.294,0 -3.6735,-1.19351 -4.371,-2.58851 -0.403,-0.589 -0.6975,-1.37949 -0.6975,-2.17 0,-5.363 15.9806,-14.19801 21.235,-14.19801 2.0771,0 3.2705,0.992 4.0611,2.387 0.31,0.589 0.6045,1.2865 0.6045,2.077 0,2.1855 -2.2785,4.86701 -10.0286,9.92001"
     id="path202"
     style="stroke-width:0.992001" />
  <path
     class="Note"
     fill="#aa0000"
     d="m 749.40954,471.63462 c 18.25896,0 21.93254,-14.88002 21.93254,-18.44502 0,-5.65753 -4.464,-9.33101 -10.91201,-9.33101 -16.56956,0 -21.73107,12.80301 -21.73107,18.55353 0,5.84355 4.66551,9.2225 10.71054,9.2225 m 8.432,-8.83501 c -4.96,3.379 -8.432,4.57251 -10.80353,4.57251 -2.294,0 -3.6735,-1.19351 -4.37101,-2.58851 -0.403,-0.589 -0.69749,-1.37949 -0.69749,-2.17 0,-5.363 15.98056,-14.19801 21.23499,-14.19801 2.07705,0 3.27053,0.992 4.06105,2.387 0.31,0.589 0.60453,1.2865 0.60453,2.077 0,2.1855 -2.27853,4.86701 -10.02854,9.92001"
     id="path204"
     style="stroke-width:0.992001" />
  <path
     class="Note"
     fill="#aa0000"
     d="m 1171.6035,521.23462 c 18.259,0 21.9326,-14.88002 21.9326,-18.44502 0,-5.65753 -4.464,-9.33101 -10.912,-9.33101 -16.5696,0 -21.7311,12.80301 -21.7311,18.55353 0,5.84355 4.6655,9.2225 10.7105,9.2225 m 8.432,-8.83501 c -4.96,3.379 -8.432,4.57251 -10.8035,4.57251 -2.294,0 -3.6735,-1.19351 -4.371,-2.58851 -0.403,-0.589 -0.6975,-1.37949 -0.6975,-2.17 0,-5.363 15.9806,-14.19801 21.235,-14.19801 2.0771,0 3.2705,0.992 4.0611,2.387 0.31,0.589 0.6045,1.2865 0.6045,2.077 0,2.1855 -2.2785,4.86701 -10.0286,9.92001"
     id="path206"
     style="stroke-width:0.992001" />
  <path
     class="Note"
     fill="#aa0000"
     d="m 1979.7735,496.43462 c 18.259,0 21.9326,-14.88002 21.9326,-18.44502 0,-5.65753 -4.464,-9.33101 -10.912,-9.33101 -16.5696,0 -21.7311,12.80301 -21.7311,18.55353 0,5.84355 4.6655,9.2225 10.7105,9.2225 m 8.432,-8.83501 c -4.96,3.379 -8.432,4.57251 -10.8035,4.57251 -2.294,0 -3.6735,-1.19351 -4.371,-2.58851 -0.403,-0.589 -0.6975,-1.37949 -0.6975,-2.17 0,-5.363 15.9806,-14.19801 21.235,-14.19801 2.0771,0 3.2705,0.992 4.0611,2.387 0.31,0.589 0.6045,1.2865 0.6045,2.077 0,2.1855 -2.2785,4.86701 -10.0286,9.92001"
     id="path208"
     style="stroke-width:0.992001" />
  <path
     class="Note"
     fill="#aa0000"
     d="m 1557.5835,508.83462 c 18.259,0 21.9326,-14.88002 21.9326,-18.44502 0,-5.65753 -4.464,-9.33101 -10.912,-9.33101 -16.5696,0 -21.7311,12.80301 -21.7311,18.55353 0,5.84355 4.6655,9.2225 10.7105,9.2225 m 8.432,-8.83501 c -4.96,3.379 -8.432,4.57251 -10.8035,4.57251 -2.294,0 -3.6735,-1.19351 -4.371,-2.58851 -0.403,-0.589 -0.6975,-1.37949 -0.6975,-2.17 0,-5.363 15.9806,-14.19801 21.235,-14.19801 2.0771,0 3.2705,0.992 4.0611,2.387 0.31,0.589 0.6045,1.2865 0.6045,2.077 0,2.1855 -2.2785,4.86701 -10.0286,9.92001"
     id="path210"
     style="stroke-width:0.992001" />
  <path
     class="Note"
     fill="#aa0000"
     d="m 1786.7835,533.63462 c 18.259,0 21.9326,-14.88002 21.9326,-18.44502 0,-5.65753 -4.464,-9.33101 -10.912,-9.33101 -16.5696,0 -21.7311,12.80301 -21.7311,18.55353 0,5.84355 4.6655,9.2225 10.7105,9.2225 m 8.432,-8.83501 c -4.96,3.379 -8.432,4.57251 -10.8035,4.57251 -2.294,0 -3.6735,-1.19351 -4.371,-2.58851 -0.403,-0.589 -0.6975,-1.37949 -0.6975,-2.17 0,-5.363 15.9806,-14.19801 21.235,-14.19801 2.0771,0 3.2705,0.992 4.0611,2.387 0.31,0.589 0.6045,1.2865 0.6045,2.077 0,2.1855 -2.2785,4.86701 -10.0286,9.92001"
     id="path212"
     style="stroke-width:0.992001" />
  <path
     class="Note"
     fill="#aa0000"
     d="m 2172.7635,521.23462 c 18.259,0 21.9326,-14.88002 21.9326,-18.44502 0,-5.65753 -4.464,-9.33101 -10.912,-9.33101 -16.5696,0 -21.7311,12.80301 -21.7311,18.55353 0,5.84355 4.6655,9.2225 10.7105,9.2225 m 8.432,-8.83501 c -4.96,3.379 -8.432,4.57251 -10.8035,4.57251 -2.294,0 -3.6735,-1.19351 -4.371,-2.58851 -0.403,-0.589 -0.6975,-1.37949 -0.6975,-2.17 0,-5.363 15.9806,-14.19801 21.235,-14.19801 2.0771,0 3.2705,0.992 4.0611,2.387 0.31,0.589 0.6045,1.2865 0.6045,2.077 0,2.1855 -2.2785,4.86701 -10.0286,9.92001"
     id="path214"
     style="stroke-width:0.992001" />
  <path
     class="Note"
     fill="#aa0000"
     d="m 1364.5935,484.03462 c 18.259,0 21.9326,-14.88002 21.9326,-18.44502 0,-5.65753 -4.464,-9.33101 -10.912,-9.33101 -16.5696,0 -21.7311,12.80301 -21.7311,18.55353 0,5.84355 4.6655,9.2225 10.7105,9.2225 m 8.432,-8.83501 c -4.96,3.379 -8.432,4.57251 -10.8035,4.57251 -2.294,0 -3.6735,-1.19351 -4.371,-2.58851 -0.403,-0.589 -0.6975,-1.37949 -0.6975,-2.17 0,-5.363 15.9806,-14.19801 21.235,-14.19801 2.0771,0 3.2705,0.992 4.0611,2.387 0.31,0.589 0.6045,1.2865 0.6045,2.077 0,2.1855 -2.2785,4.86701 -10.0286,9.92001"
     id="path216"
     style="stroke-width:0.992001" />
  <path
     class="Note"
     fill="#aa0000"
     d="m 2365.7535,546.03462 c 18.259,0 21.9326,-14.88002 21.9326,-18.44502 0,-5.65753 -4.464,-9.33101 -10.912,-9.33101 -16.5696,0 -21.7311,12.80301 -21.7311,18.55353 0,5.84355 4.6655,9.2225 10.7105,9.2225 m 8.432,-8.83501 c -4.96,3.379 -8.432,4.57251 -10.8035,4.57251 -2.294,0 -3.6735,-1.19351 -4.371,-2.58851 -0.403,-0.589 -0.6975,-1.37949 -0.6975,-2.17 0,-5.363 15.9806,-14.19801 21.235,-14.19801 2.0771,0 3.2705,0.992 4.0611,2.387 0.31,0.589 0.6045,1.2865 0.6045,2.077 0,2.1855 -2.2785,4.86701 -10.0286,9.92001"
     id="path218"
     style="stroke-width:0.992001" />
  <path
     class="Note"
     fill="#aa0000"
     d="m 978.61354,496.43462 c 18.25896,0 21.93256,-14.88002 21.93256,-18.44502 0,-5.65753 -4.46402,-9.33101 -10.91203,-9.33101 -16.56956,0 -21.73107,12.80301 -21.73107,18.55353 0,5.84355 4.66551,9.2225 10.71054,9.2225 m 8.432,-8.83501 c -4.96,3.379 -8.432,4.57251 -10.80353,4.57251 -2.294,0 -3.6735,-1.19351 -4.37101,-2.58851 -0.403,-0.589 -0.69749,-1.37949 -0.69749,-2.17 0,-5.363 15.98056,-14.19801 21.23499,-14.19801 2.07705,0 3.27053,0.992 4.06105,2.387 0.31,0.589 0.60453,1.2865 0.60453,2.077 0,2.1855 -2.27853,4.86701 -10.02854,9.92001"
     id="path220"
     style="stroke-width:0.992001" />
  <path
     class="Clef"
     d="m 60.373562,67.766564 c -0.201475,-1.193476 0,-1.286526 0.588951,-1.891051 C 71.673049,55.862552 79.810532,43.261064 79.810532,28.086524 79.810532,19.45304 77.42358,10.912507 73.362526,4.960005 71.874524,2.7904988 69.301571,0 68.201046,0 66.821569,0 63.737041,2.5891226 61.753039,4.7745008 54.421556,12.896509 52.034504,25.296522 52.034504,35.619482 c 0,5.750531 0.697576,12.198537 1.395051,16.275066 0.186001,1.193477 0.294526,1.379477 -0.89905,2.371478 C 38.23954,66.077087 23.065,80.259527 23.065,100.30109 c 0,17.26703 11.811062,33.63502 36.115086,33.63502 2.278428,0 4.85148,-0.20148 6.835482,-0.60443 1.100526,-0.186 1.302001,-0.29453 1.488002,0.89895 1.193476,6.64948 2.681478,15.28307 2.681478,19.94855 0,14.67854 -9.92001,16.46096 -15.763492,16.46096 -5.363055,0 -7.951483,-1.58095 -7.951483,-2.88295 0,-0.682 0.898952,-0.992 3.177479,-1.674 3.084528,-0.89905 6.649482,-3.58053 6.649482,-9.33106 0,-5.45601 -3.472004,-10.12149 -9.51696,-10.12149 -6.649582,0 -10.617586,5.25453 -10.617586,11.40802 0,6.448 3.859579,16.16654 18.848019,16.16654 6.649582,0 19.545595,-2.97601 19.545595,-19.84002 0,-5.64201 -1.782527,-15.06602 -2.883053,-21.2195 -0.201475,-1.19358 -0.09295,-1.10053 1.286526,-1.68958 10.028535,-3.968 16.678017,-12.40001 16.678017,-23.6065 0,-12.710058 -9.331059,-23.916495 -23.916549,-23.916495 -2.572953,0 -2.572953,0 -2.867478,-1.782526 L 60.373562,67.766564 m 9.315485,-52.390052 c 3.270528,0 5.952006,2.681477 5.952006,8.137483 0,11.020536 -9.424009,19.948545 -17.251493,26.784027 -0.697475,0.604525 -1.100525,0.496 -1.302001,-0.790526 -0.387475,-2.572953 -0.58905,-5.952006 -0.58905,-9.129484 0,-15.468966 7.145582,-25.0015 13.190538,-25.0015 M 58.885561,82.941104 c 0.294525,1.890953 0.294525,1.782428 -1.488002,2.386953 C 48.655551,88.30406 42.99807,96.131543 42.99807,104.5636 c 0,8.92801 4.66548,15.28302 11.423486,17.56154 0.790526,0.29453 1.984002,0.60453 2.666003,0.60453 0.806001,0 1.193477,-0.496 1.193477,-1.10053 0,-0.69747 -0.790526,-0.992 -1.488002,-1.28652 -4.169479,-1.7825 -7.145482,-6.04501 -7.145482,-10.61751 0,-5.65751 3.874954,-9.920018 9.92001,-11.609565 1.596526,-0.387475 1.798001,-0.294426 1.984002,0.806001 l 4.960005,29.558554 c 0.201475,1.08505 0.108525,1.08505 -1.379477,1.37958 -1.596526,0.31 -3.580528,0.496 -5.56453,0.496 -17.360018,0 -28.566554,-9.61001 -28.566554,-23.40508 0,-5.859 0.992001,-13.686535 9.222534,-23.017495 5.952006,-6.649581 10.524536,-10.32306 15.190015,-14.089588 0.992001,-0.790427 1.178002,-0.697476 1.379477,0.40305 l 2.092527,12.694537 m 6.835482,15.778967 c -0.201475,-1.193477 -0.09295,-1.488002 1.100526,-1.394952 8.028958,0.697476 14.67854,7.439981 14.67854,16.166491 0,6.26206 -3.766529,11.31501 -9.331059,14.08954 -1.193477,0.60452 -1.379477,0.60452 -1.580952,-0.58905 L 65.721043,98.720071"
     id="path222"
     style="stroke-width:0.992001" />
  <path
     class="Clef"
     d="m 48.0665,431.7531 c -17.266987,0 -25.0015,12.60149 -25.0015,22.1185 0,7.93601 4.169509,14.78702 12.198537,14.78702 6.246531,0 10.524536,-4.37101 10.524536,-10.50901 0,-6.35501 -4.66558,-10.32301 -9.532535,-10.32301 -2.681478,0 -3.673528,0.69749 -4.960025,0.69749 -1.286506,0 -1.581001,-0.79054 -1.581001,-1.78254 0,-3.96801 5.951976,-11.22202 16.073561,-11.22202 10.508961,0 15.08149,10.32306 15.08149,25.90058 0,27.68305 -13.702014,43.15202 -36.812562,56.34256 -0.899001,0.496 -1.488001,0.992 -1.488001,1.78252 0,0.60453 0.403,1.19348 1.286501,1.19348 0.496005,0 1.100501,-0.20148 1.689502,-0.496 24.412549,-11.90401 50.204575,-29.55856 50.204575,-59.72156 0,-17.25157 -10.524535,-28.76801 -27.683078,-28.76801 m 37.401613,8.13749 c -3.084528,0 -5.456006,2.38695 -5.456006,5.456 0,3.06901 2.371478,5.45601 5.456006,5.45601 3.068953,0 5.456005,-2.387 5.456005,-5.45601 0,-3.06905 -2.387052,-5.456 -5.456005,-5.456 m 0.09295,24.89302 c -3.068953,0 -5.347481,2.29401 -5.347481,5.36301 0,3.06905 2.278528,5.36305 5.347481,5.36305 3.084528,0 5.363055,-2.294 5.363055,-5.36305 0,-3.069 -2.278527,-5.36301 -5.363055,-5.36301"
     id="path224"
     style="stroke-width:0.992001" />
  <path
     class="TimeSig"
     d="M 149.65451,66.684613 V 45.449592 c 0,-0.790526 -0.093,-1.689477 -1.19347,-1.689477 -0.88348,0 -1.37948,0.201475 -1.98401,0.898951 l -9.42401,11.408032 c -0.40295,0.496 -0.89895,1.085001 -0.89895,2.278507 v 8.339008 h -13.39206 c 7.93606,-6.758007 23.82355,-29.264079 24.11807,-30.457555 l 0.093,-0.294525 c 0,-0.898952 -0.69747,-1.488002 -1.488,-1.488002 -0.88347,0 -4.96,0.186 -6.74253,0.186 -1.78243,0 -6.24643,-0.186 -7.05243,-0.186 -0.88358,0 -2.27853,0.294525 -2.27853,1.875576 0,12.306963 -9.71853,26.086502 -12.69454,30.256011 l -0.589,0.790496 c 0,0 0,0.108505 0,0.108505 l -0.10849,0.093 c -0.20151,0.496001 -0.29451,0.899001 -0.29451,1.193496 0,0.992001 0.79051,1.689477 1.984,1.689477 h 18.44507 v 6.246531 c 0,2.681478 -2.17,3.472004 -3.968,3.472004 -1.58105,0 -2.27853,0.89905 -2.27853,1.891051 0,0.992001 0.40295,2.076953 1.89095,2.076953 h 21.12655 c 0.992,0 1.984,-0.697476 1.984,-2.076953 0,-1.395051 -1.19347,-1.984002 -2.18548,-1.984002 -0.992,0 -3.06905,-0.604525 -3.06905,-3.782003 v -5.843581 h 7.23853 c 0.992,0 1.48801,-0.697476 1.48801,-1.890972 0,-1.193506 -0.38748,-1.875507 -1.48801,-1.875507 h -7.23853"
     id="path226"
     style="stroke-width:0.992001" />
  <path
     class="TimeSig"
     d="m 156.69157,118.54861 c 0,-1.178 -0.496,-1.37949 -1.19348,-1.37949 -0.79053,0 -1.10053,0.38749 -1.28653,1.085 l -0.10852,0.10849 c -0.992,2.48006 -1.78253,4.35553 -3.85948,4.35553 -0.496,0 -0.992,-0.0931 -1.68948,-0.29452 -1.28652,-0.496 -1.984,-0.58895 -2.976,-1.08495 -1.984,-0.806 -6.64958,-2.38705 -10.72601,-2.38705 -1.28653,0 -2.57305,0.2015 -3.658,0.58905 2.17,-3.56506 10.61748,-6.54106 12.78748,-7.13006 6.94401,-1.891 13.20602,-4.77401 13.20602,-13.00449 0,-10.50906 -10.32306,-15.081589 -19.5455,-15.081589 -6.944,0 -13.09756,0.604525 -17.96456,6.262006 -1.68951,2.077052 -2.77451,4.557054 -2.77451,7.238532 0,1.379477 0.29451,2.774531 0.899,4.262531 1.488,3.069 4.55701,5.456 8.12206,5.456 6.06043,0 6.94401,-6.24651 6.94401,-8.72653 0,-5.952006 -6.83558,-6.246531 -6.83558,-8.230533 0.20157,-1.394952 1.984,-3.782004 7.82758,-3.782004 8.83496,0 8.94348,6.649581 8.94348,9.532535 0,9.021032 -7.45548,15.872042 -14.58549,20.227542 -5.45605,3.47206 -9.33106,8.33901 -11.02055,14.78702 l -0.093,0.29452 c 0,1.28653 1.085,3.37896 2.573,3.37896 2.1855,0 3.379,-6.06043 9.22255,-6.06043 3.96801,0 5.45601,5.36295 14.29097,5.36295 4.26253,0 11.90401,-0.40295 13.50054,-15.77902"
     id="path228"
     style="stroke-width:0.992001" />
  <path
     class="TimeSig"
     d="m 149.65451,465.09761 v -21.23502 c 0,-0.79052 -0.093,-1.68948 -1.19347,-1.68948 -0.88348,0 -1.37948,0.20148 -1.98401,0.89896 l -9.42401,11.40803 c -0.40295,0.496 -0.89895,1.085 -0.89895,2.2785 v 8.33901 h -13.39206 c 7.93606,-6.758 23.82355,-29.26408 24.11807,-30.45755 l 0.093,-0.29453 c 0,-0.89895 -0.69747,-1.488 -1.488,-1.488 -0.88347,0 -4.96,0.186 -6.74253,0.186 -1.78243,0 -6.24643,-0.186 -7.05243,-0.186 -0.88358,0 -2.27853,0.29453 -2.27853,1.87558 0,12.30696 -9.71853,26.0865 -12.69454,30.25601 l -0.589,0.79049 c 0,0 0,0.10851 0,0.10851 l -0.10849,0.093 c -0.20151,0.496 -0.29451,0.899 -0.29451,1.1935 0,0.992 0.79051,1.68947 1.984,1.68947 h 18.44507 v 6.24653 c 0,2.68148 -2.17,3.47201 -3.968,3.47201 -1.58105,0 -2.27853,0.89905 -2.27853,1.89105 0,0.992 0.40295,2.07695 1.89095,2.07695 h 21.12655 c 0.992,0 1.984,-0.69748 1.984,-2.07695 0,-1.39505 -1.19347,-1.984 -2.18548,-1.984 -0.992,0 -3.06905,-0.60453 -3.06905,-3.78201 v -5.84358 h 7.23853 c 0.992,0 1.48801,-0.69747 1.48801,-1.89097 0,-1.19351 -0.38748,-1.87551 -1.48801,-1.87551 h -7.23853"
     id="path230"
     style="stroke-width:0.992001" />
  <path
     class="TimeSig"
     d="m 156.69157,516.96061 c 0,-1.178 -0.496,-1.37949 -1.19348,-1.37949 -0.79053,0 -1.10053,0.38749 -1.28653,1.085 l -0.10852,0.10849 c -0.992,2.48006 -1.78253,4.35553 -3.85948,4.35553 -0.496,0 -0.992,-0.093 -1.68948,-0.29452 -1.28652,-0.496 -1.984,-0.58895 -2.976,-1.08495 -1.984,-0.806 -6.64958,-2.38705 -10.72601,-2.38705 -1.28653,0 -2.57305,0.2015 -3.658,0.58905 2.17,-3.56506 10.61748,-6.54106 12.78748,-7.13006 6.94401,-1.891 13.20602,-4.77401 13.20602,-13.00449 0,-10.50906 -10.32306,-15.08159 -19.5455,-15.08159 -6.944,0 -13.09756,0.60453 -17.96456,6.26201 -1.68951,2.07705 -2.77451,4.55705 -2.77451,7.23853 0,1.37948 0.29451,2.77453 0.899,4.26253 1.488,3.069 4.55701,5.456 8.12206,5.456 6.06043,0 6.94401,-6.24651 6.94401,-8.72653 0,-5.95201 -6.83558,-6.24653 -6.83558,-8.23053 0.20157,-1.39495 1.984,-3.78201 7.82758,-3.78201 8.83496,0 8.94348,6.64958 8.94348,9.53254 0,9.02103 -7.45548,15.87204 -14.58549,20.22754 -5.45605,3.47206 -9.33106,8.33901 -11.02055,14.78702 l -0.093,0.29452 c 0,1.28653 1.085,3.37896 2.573,3.37896 2.1855,0 3.379,-6.06043 9.22255,-6.06043 3.96801,0 5.45601,5.36295 14.29097,5.36295 4.26253,0 11.90401,-0.40295 13.50054,-15.77902"
     id="path232"
     style="stroke-width:0.992001" />
</svg>
