<?xml version="1.0" encoding="UTF-8" standalone="no"?>
<svg
   width="2090.4446"
   height="800.64301"
   viewBox="0 0 2090.4446 800.64302"
   version="1.2"
   id="svg340"
   sodipodi:docname="Stiluebung-3a-1.svg"
   inkscape:version="1.2.1 (9c6d41e410, 2022-07-14)"
   xmlns:inkscape="http://www.inkscape.org/namespaces/inkscape"
   xmlns:sodipodi="http://sodipodi.sourceforge.net/DTD/sodipodi-0.dtd"
   xmlns="http://www.w3.org/2000/svg"
   xmlns:svg="http://www.w3.org/2000/svg">
  <defs
     id="defs344" />
  <sodipodi:namedview
     id="namedview342"
     pagecolor="#505050"
     bordercolor="#eeeeee"
     borderopacity="1"
     inkscape:showpageshadow="0"
     inkscape:pageopacity="0"
     inkscape:pagecheckerboard="0"
     inkscape:deskcolor="#505050"
     showgrid="false"
     inkscape:zoom="0.25021386"
     inkscape:cx="891.23759"
     inkscape:cy="1818.4444"
     inkscape:current-layer="svg340" />
  <title
     id="title2">Stiluebung-3a</title>
  <desc
     id="desc4">Generated by MuseScore 4.0.0</desc>
  <polyline
     class="StaffLines"
     fill="none"
     stroke="#000000"
     stroke-width="3.22"
     stroke-linejoin="bevel"
     points="212.598,386.199 1034.78,386.199"
     id="polyline8"
     transform="translate(-175.88044,-289.067)" />
  <polyline
     class="StaffLines"
     fill="none"
     stroke="#000000"
     stroke-width="3.22"
     stroke-linejoin="bevel"
     points="212.598,410.999 1034.78,410.999"
     id="polyline10"
     transform="translate(-175.88044,-289.067)" />
  <polyline
     class="StaffLines"
     fill="none"
     stroke="#000000"
     stroke-width="3.22"
     stroke-linejoin="bevel"
     points="212.598,435.799 1034.78,435.799"
     id="polyline12"
     transform="translate(-175.88044,-289.067)" />
  <polyline
     class="StaffLines"
     fill="none"
     stroke="#000000"
     stroke-width="3.22"
     stroke-linejoin="bevel"
     points="212.598,460.599 1034.78,460.599"
     id="polyline14"
     transform="translate(-175.88044,-289.067)" />
  <polyline
     class="StaffLines"
     fill="none"
     stroke="#000000"
     stroke-width="3.22"
     stroke-linejoin="bevel"
     points="212.598,485.399 1034.78,485.399"
     id="polyline16"
     transform="translate(-175.88044,-289.067)" />
  <polyline
     class="StaffLines"
     fill="none"
     stroke="#000000"
     stroke-width="3.22"
     stroke-linejoin="bevel"
     points="1034.78,386.199 1688.76,386.199"
     id="polyline18"
     transform="translate(-175.88044,-289.067)" />
  <polyline
     class="StaffLines"
     fill="none"
     stroke="#000000"
     stroke-width="3.22"
     stroke-linejoin="bevel"
     points="1034.78,410.999 1688.76,410.999"
     id="polyline20"
     transform="translate(-175.88044,-289.067)" />
  <polyline
     class="StaffLines"
     fill="none"
     stroke="#000000"
     stroke-width="3.22"
     stroke-linejoin="bevel"
     points="1034.78,435.799 1688.76,435.799"
     id="polyline22"
     transform="translate(-175.88044,-289.067)" />
  <polyline
     class="StaffLines"
     fill="none"
     stroke="#000000"
     stroke-width="3.22"
     stroke-linejoin="bevel"
     points="1034.78,460.599 1688.76,460.599"
     id="polyline24"
     transform="translate(-175.88044,-289.067)" />
  <polyline
     class="StaffLines"
     fill="none"
     stroke="#000000"
     stroke-width="3.22"
     stroke-linejoin="bevel"
     points="1034.78,485.399 1688.76,485.399"
     id="polyline26"
     transform="translate(-175.88044,-289.067)" />
  <polyline
     class="StaffLines"
     fill="none"
     stroke="#000000"
     stroke-width="3.22"
     stroke-linejoin="bevel"
     points="1688.76,386.199 2266.32,386.199"
     id="polyline28"
     transform="translate(-175.88044,-289.067)" />
  <polyline
     class="StaffLines"
     fill="none"
     stroke="#000000"
     stroke-width="3.22"
     stroke-linejoin="bevel"
     points="1688.76,410.999 2266.32,410.999"
     id="polyline30"
     transform="translate(-175.88044,-289.067)" />
  <polyline
     class="StaffLines"
     fill="none"
     stroke="#000000"
     stroke-width="3.22"
     stroke-linejoin="bevel"
     points="1688.76,435.799 2266.32,435.799"
     id="polyline32"
     transform="translate(-175.88044,-289.067)" />
  <polyline
     class="StaffLines"
     fill="none"
     stroke="#000000"
     stroke-width="3.22"
     stroke-linejoin="bevel"
     points="1688.76,460.599 2266.32,460.599"
     id="polyline34"
     transform="translate(-175.88044,-289.067)" />
  <polyline
     class="StaffLines"
     fill="none"
     stroke="#000000"
     stroke-width="3.22"
     stroke-linejoin="bevel"
     points="1688.76,485.399 2266.32,485.399"
     id="polyline36"
     transform="translate(-175.88044,-289.067)" />
  <polyline
     class="StaffLines"
     fill="none"
     stroke="#000000"
     stroke-width="3.22"
     stroke-linejoin="bevel"
     points="212.598,840.799 1034.78,840.799"
     id="polyline38"
     transform="translate(-175.88044,-289.067)" />
  <polyline
     class="StaffLines"
     fill="none"
     stroke="#000000"
     stroke-width="3.22"
     stroke-linejoin="bevel"
     points="212.598,865.599 1034.78,865.599"
     id="polyline40"
     transform="translate(-175.88044,-289.067)" />
  <polyline
     class="StaffLines"
     fill="none"
     stroke="#000000"
     stroke-width="3.22"
     stroke-linejoin="bevel"
     points="212.598,890.399 1034.78,890.399"
     id="polyline42"
     transform="translate(-175.88044,-289.067)" />
  <polyline
     class="StaffLines"
     fill="none"
     stroke="#000000"
     stroke-width="3.22"
     stroke-linejoin="bevel"
     points="212.598,915.199 1034.78,915.199"
     id="polyline44"
     transform="translate(-175.88044,-289.067)" />
  <polyline
     class="StaffLines"
     fill="none"
     stroke="#000000"
     stroke-width="3.22"
     stroke-linejoin="bevel"
     points="212.598,939.999 1034.78,939.999"
     id="polyline46"
     transform="translate(-175.88044,-289.067)" />
  <polyline
     class="StaffLines"
     fill="none"
     stroke="#000000"
     stroke-width="3.22"
     stroke-linejoin="bevel"
     points="1034.78,840.799 1688.76,840.799"
     id="polyline48"
     transform="translate(-175.88044,-289.067)" />
  <polyline
     class="StaffLines"
     fill="none"
     stroke="#000000"
     stroke-width="3.22"
     stroke-linejoin="bevel"
     points="1034.78,865.599 1688.76,865.599"
     id="polyline50"
     transform="translate(-175.88044,-289.067)" />
  <polyline
     class="StaffLines"
     fill="none"
     stroke="#000000"
     stroke-width="3.22"
     stroke-linejoin="bevel"
     points="1034.78,890.399 1688.76,890.399"
     id="polyline52"
     transform="translate(-175.88044,-289.067)" />
  <polyline
     class="StaffLines"
     fill="none"
     stroke="#000000"
     stroke-width="3.22"
     stroke-linejoin="bevel"
     points="1034.78,915.199 1688.76,915.199"
     id="polyline54"
     transform="translate(-175.88044,-289.067)" />
  <polyline
     class="StaffLines"
     fill="none"
     stroke="#000000"
     stroke-width="3.22"
     stroke-linejoin="bevel"
     points="1034.78,939.999 1688.76,939.999"
     id="polyline56"
     transform="translate(-175.88044,-289.067)" />
  <polyline
     class="StaffLines"
     fill="none"
     stroke="#000000"
     stroke-width="3.22"
     stroke-linejoin="bevel"
     points="1688.76,840.799 2266.32,840.799"
     id="polyline58"
     transform="translate(-175.88044,-289.067)" />
  <polyline
     class="StaffLines"
     fill="none"
     stroke="#000000"
     stroke-width="3.22"
     stroke-linejoin="bevel"
     points="1688.76,865.599 2266.32,865.599"
     id="polyline60"
     transform="translate(-175.88044,-289.067)" />
  <polyline
     class="StaffLines"
     fill="none"
     stroke="#000000"
     stroke-width="3.22"
     stroke-linejoin="bevel"
     points="1688.76,890.399 2266.32,890.399"
     id="polyline62"
     transform="translate(-175.88044,-289.067)" />
  <polyline
     class="StaffLines"
     fill="none"
     stroke="#000000"
     stroke-width="3.22"
     stroke-linejoin="bevel"
     points="1688.76,915.199 2266.32,915.199"
     id="polyline64"
     transform="translate(-175.88044,-289.067)" />
  <polyline
     class="StaffLines"
     fill="none"
     stroke="#000000"
     stroke-width="3.22"
     stroke-linejoin="bevel"
     points="1688.76,939.999 2266.32,939.999"
     id="polyline66"
     transform="translate(-175.88044,-289.067)" />
  <path
     class="Symbol"
     d="m 1893.3336,214.28107 c 6.355,-3.96801 10.2145,-10.41606 10.2145,-18.04207 0,-8.24601 -3.8595,-13.59354 -10.416,-17.85607 l -0.3875,0.682 c 6.138,4.96001 7.2385,9.23806 7.2385,17.06557 0,4.1695 -0.496,7.34701 -1.488,10.21456 -1.1935,3.17748 -2.387,4.66548 -5.7505,7.25401 l 0.589,0.682"
     id="path68"
     style="stroke-width:0.992001" />
  <path
     class="Symbol"
     d="m 1850.7886,213.59907 c -3.379,-2.58853 -4.5725,-4.07653 -5.6575,-7.25401 -0.992,-2.86755 -1.488,-6.04506 -1.488,-10.21456 0,-7.82751 1.085,-11.99704 7.1455,-17.06557 l -0.403,-0.682 c -6.541,4.46401 -10.416,9.51706 -10.416,17.85607 0,7.73451 3.968,13.98101 10.323,18.04207 l 0.496,-0.682"
     id="path70"
     style="stroke-width:0.992001" />
  <path
     class="TieSegment"
     stroke="#000000"
     stroke-width="2.48"
     stroke-linecap="round"
     stroke-linejoin="round"
     fill-rule="evenodd"
     d="m 1219.5596,153.056 c 69.05,-35.216 276.18,-35.216 345.22,0 -69.04,-29.264 -276.17,-29.264 -345.22,0"
     id="path72" />
  <path
     class="TieSegment"
     stroke="#000000"
     stroke-width="2.48"
     stroke-linecap="round"
     stroke-linejoin="round"
     fill-rule="evenodd"
     d="m 910.12956,202.408 c 65.7,29.264 262.78004,29.264 328.48004,0 -65.7,35.216 -262.78004,35.216 -328.48004,0"
     id="path74" />
  <path
     class="TieSegment"
     stroke="#000000"
     stroke-width="2.48"
     stroke-linecap="round"
     stroke-linejoin="round"
     fill-rule="evenodd"
     d="m 1394.9096,508.456 c 33.98,-28.796 135.9,-28.796 169.87,0 -33.97,-22.844 -135.89,-22.844 -169.87,0"
     id="path76" />
  <path
     class="TieSegment"
     stroke="#000000"
     stroke-width="2.48"
     stroke-linecap="round"
     stroke-linejoin="round"
     fill-rule="evenodd"
     d="m 1215.7996,586.204 c 69.04,29.264 276.17,29.264 345.21,0 -69.04,35.216 -276.17,35.216 -345.21,0"
     id="path78" />
  <polyline
     class="BarLine"
     stroke="#000000"
     stroke-width="3.97"
     stroke-linejoin="bevel"
     points="214.582,384.587 214.582,840.799"
     id="polyline80"
     transform="translate(-175.88044,-289.067)" />
  <polyline
     class="BarLine"
     stroke="#000000"
     stroke-width="3.97"
     stroke-linejoin="bevel"
     points="1686.77,384.587 1686.77,840.799"
     id="polyline82"
     transform="translate(-175.88044,-289.067)" />
  <polyline
     class="BarLine"
     stroke="#000000"
     stroke-width="3.97"
     stroke-linejoin="bevel"
     points="2264.34,384.587 2264.34,840.799"
     id="polyline84"
     transform="translate(-175.88044,-289.067)" />
  <polyline
     class="BarLine"
     stroke="#000000"
     stroke-width="3.97"
     stroke-linejoin="bevel"
     points="1032.79,384.587 1032.79,840.799"
     id="polyline86"
     transform="translate(-175.88044,-289.067)" />
  <polyline
     class="BarLine"
     stroke="#000000"
     stroke-width="3.97"
     stroke-linejoin="bevel"
     points="1686.77,839.187 1686.77,941.611"
     id="polyline88"
     transform="translate(-175.88044,-289.067)" />
  <polyline
     class="BarLine"
     stroke="#000000"
     stroke-width="3.97"
     stroke-linejoin="bevel"
     points="214.582,839.187 214.582,941.611"
     id="polyline90"
     transform="translate(-175.88044,-289.067)" />
  <polyline
     class="BarLine"
     stroke="#000000"
     stroke-width="3.97"
     stroke-linejoin="bevel"
     points="2264.34,839.187 2264.34,941.611"
     id="polyline92"
     transform="translate(-175.88044,-289.067)" />
  <polyline
     class="BarLine"
     stroke="#000000"
     stroke-width="3.97"
     stroke-linejoin="bevel"
     points="1032.79,839.187 1032.79,941.611"
     id="polyline94"
     transform="translate(-175.88044,-289.067)" />
  <polyline
     class="LedgerLine"
     stroke="#000000"
     stroke-width="3.97"
     stroke-linejoin="bevel"
     points="409.565,510.199 462.04,510.199"
     id="polyline96"
     transform="translate(-175.88044,-289.067)" />
  <polyline
     class="LedgerLine"
     stroke="#000000"
     stroke-width="3.97"
     stroke-linejoin="bevel"
     points="2016.74,815.999 2082.11,815.999"
     id="polyline98"
     transform="translate(-175.88044,-289.067)" />
  <polyline
     class="LedgerLine"
     stroke="#000000"
     stroke-width="3.97"
     stroke-linejoin="bevel"
     points="562.396,815.999 614.871,815.999"
     id="polyline100"
     transform="translate(-175.88044,-289.067)" />
  <polyline
     class="LedgerLine"
     stroke="#000000"
     stroke-width="3.97"
     stroke-linejoin="bevel"
     points="1717.52,815.999 1770,815.999"
     id="polyline102"
     transform="translate(-175.88044,-289.067)" />
  <polyline
     class="LedgerLine"
     stroke="#000000"
     stroke-width="3.97"
     stroke-linejoin="bevel"
     points="868.058,815.999 920.533,815.999"
     id="polyline104"
     transform="translate(-175.88044,-289.067)" />
  <polyline
     class="LedgerLine"
     stroke="#000000"
     stroke-width="3.97"
     stroke-linejoin="bevel"
     points="1063.54,815.999 1116.02,815.999"
     id="polyline106"
     transform="translate(-175.88044,-289.067)" />
  <polyline
     class="LedgerLine"
     stroke="#000000"
     stroke-width="3.97"
     stroke-linejoin="bevel"
     points="409.565,791.199 462.04,791.199"
     id="polyline108"
     transform="translate(-175.88044,-289.067)" />
  <polyline
     class="LedgerLine"
     stroke="#000000"
     stroke-width="3.97"
     stroke-linejoin="bevel"
     points="715.227,815.999 767.702,815.999"
     id="polyline110"
     transform="translate(-175.88044,-289.067)" />
  <polyline
     class="LedgerLine"
     stroke="#000000"
     stroke-width="3.97"
     stroke-linejoin="bevel"
     points="715.227,791.199 767.702,791.199"
     id="polyline112"
     transform="translate(-175.88044,-289.067)" />
  <polyline
     class="LedgerLine"
     stroke="#000000"
     stroke-width="3.97"
     stroke-linejoin="bevel"
     points="1522.04,815.999 1574.51,815.999"
     id="polyline114"
     transform="translate(-175.88044,-289.067)" />
  <polyline
     class="LedgerLine"
     stroke="#000000"
     stroke-width="3.97"
     stroke-linejoin="bevel"
     points="409.565,815.999 462.04,815.999"
     id="polyline116"
     transform="translate(-175.88044,-289.067)" />
  <polyline
     class="LedgerLine"
     stroke="#000000"
     stroke-width="3.97"
     stroke-linejoin="bevel"
     points="1216.38,815.999 1268.85,815.999"
     id="polyline118"
     transform="translate(-175.88044,-289.067)" />
  <polyline
     class="Stem"
     stroke="#000000"
     stroke-width="2.98"
     stroke-linejoin="bevel"
     points="909.125,431.632 909.125,361.399"
     id="polyline120"
     transform="translate(-175.88044,-289.067)" />
  <polyline
     class="Stem"
     stroke="#000000"
     stroke-width="2.98"
     stroke-linejoin="bevel"
     points="603.463,431.632 603.463,361.399"
     id="polyline122"
     transform="translate(-175.88044,-289.067)" />
  <polyline
     class="Stem"
     stroke="#000000"
     stroke-width="2.98"
     stroke-linejoin="bevel"
     points="1758.59,456.432 1758.59,373.799"
     id="polyline124"
     transform="translate(-175.88044,-289.067)" />
  <polyline
     class="Stem"
     stroke="#000000"
     stroke-width="2.98"
     stroke-linejoin="bevel"
     points="756.294,431.632 756.294,361.399"
     id="polyline126"
     transform="translate(-175.88044,-289.067)" />
  <polyline
     class="Stem"
     stroke="#000000"
     stroke-width="2.98"
     stroke-linejoin="bevel"
     points="1911.42,456.432 1911.42,373.799"
     id="polyline128"
     transform="translate(-175.88044,-289.067)" />
  <polyline
     class="Stem"
     stroke="#000000"
     stroke-width="2.98"
     stroke-linejoin="bevel"
     points="879.466,464.765 879.466,522.599"
     id="polyline130"
     transform="translate(-175.88044,-289.067)" />
  <polyline
     class="Stem"
     stroke="#000000"
     stroke-width="2.98"
     stroke-linejoin="bevel"
     points="420.973,514.365 420.973,572.199"
     id="polyline132"
     transform="translate(-175.88044,-289.067)" />
  <polyline
     class="Stem"
     stroke="#000000"
     stroke-width="2.98"
     stroke-linejoin="bevel"
     points="1533.45,489.565 1533.45,547.399"
     id="polyline134"
     transform="translate(-175.88044,-289.067)" />
  <polyline
     class="Stem"
     stroke="#000000"
     stroke-width="2.98"
     stroke-linejoin="bevel"
     points="573.804,464.765 573.804,522.599"
     id="polyline136"
     transform="translate(-175.88044,-289.067)" />
  <polyline
     class="Stem"
     stroke="#000000"
     stroke-width="2.98"
     stroke-linejoin="bevel"
     points="1422.18,477.165 1422.18,534.999"
     id="polyline138"
     transform="translate(-175.88044,-289.067)" />
  <polyline
     class="Stem"
     stroke="#000000"
     stroke-width="2.98"
     stroke-linejoin="bevel"
     points="726.635,464.765 726.635,522.599"
     id="polyline140"
     transform="translate(-175.88044,-289.067)" />
  <polyline
     class="Stem"
     stroke="#000000"
     stroke-width="2.98"
     stroke-linejoin="bevel"
     points="1104.61,799.433 1104.61,741.599"
     id="polyline142"
     transform="translate(-175.88044,-289.067)" />
  <polyline
     class="Stem"
     stroke="#000000"
     stroke-width="2.98"
     stroke-linejoin="bevel"
     points="1257.44,811.833 1257.44,753.999"
     id="polyline144"
     transform="translate(-175.88044,-289.067)" />
  <polyline
     class="Stem"
     stroke="#000000"
     stroke-width="2.98"
     stroke-linejoin="bevel"
     points="1911.42,824.233 1911.42,766.399"
     id="polyline146"
     transform="translate(-175.88044,-289.067)" />
  <polyline
     class="Stem"
     stroke="#000000"
     stroke-width="2.98"
     stroke-linejoin="bevel"
     points="1410.27,824.233 1410.27,766.399"
     id="polyline148"
     transform="translate(-175.88044,-289.067)" />
  <polyline
     class="Stem"
     stroke="#000000"
     stroke-width="2.98"
     stroke-linejoin="bevel"
     points="603.463,799.433 603.463,741.599"
     id="polyline150"
     transform="translate(-175.88044,-289.067)" />
  <polyline
     class="Stem"
     stroke="#000000"
     stroke-width="2.98"
     stroke-linejoin="bevel"
     points="1563.1,811.833 1563.1,753.999"
     id="polyline152"
     transform="translate(-175.88044,-289.067)" />
  <polyline
     class="Stem"
     stroke="#000000"
     stroke-width="2.98"
     stroke-linejoin="bevel"
     points="450.632,787.033 450.632,729.199"
     id="polyline154"
     transform="translate(-175.88044,-289.067)" />
  <polyline
     class="Stem"
     stroke="#000000"
     stroke-width="2.98"
     stroke-linejoin="bevel"
     points="756.294,787.033 756.294,729.199"
     id="polyline156"
     transform="translate(-175.88044,-289.067)" />
  <polyline
     class="Stem"
     stroke="#000000"
     stroke-width="2.98"
     stroke-linejoin="bevel"
     points="1758.59,811.833 1758.59,753.999"
     id="polyline158"
     transform="translate(-175.88044,-289.067)" />
  <polyline
     class="Stem"
     stroke="#000000"
     stroke-width="2.98"
     stroke-linejoin="bevel"
     points="909.125,799.433 909.125,741.599"
     id="polyline160"
     transform="translate(-175.88044,-289.067)" />
  <polyline
     class="Stem"
     stroke="#000000"
     stroke-width="2.98"
     stroke-linejoin="bevel"
     points="879.466,857.365 879.466,939.999"
     id="polyline162"
     transform="translate(-175.88044,-289.067)" />
  <polyline
     class="Stem"
     stroke="#000000"
     stroke-width="2.98"
     stroke-linejoin="bevel"
     points="1227.78,869.765 1227.78,952.399"
     id="polyline164"
     transform="translate(-175.88044,-289.067)" />
  <polyline
     class="Stem"
     stroke="#000000"
     stroke-width="2.98"
     stroke-linejoin="bevel"
     points="726.635,882.165 726.635,958.599"
     id="polyline166"
     transform="translate(-175.88044,-289.067)" />
  <polyline
     class="Stem"
     stroke="#000000"
     stroke-width="2.98"
     stroke-linejoin="bevel"
     points="573.804,857.365 573.804,939.999"
     id="polyline168"
     transform="translate(-175.88044,-289.067)" />
  <polyline
     class="Stem"
     stroke="#000000"
     stroke-width="2.98"
     stroke-linejoin="bevel"
     points="1074.95,894.566 1074.95,964.799"
     id="polyline170"
     transform="translate(-175.88044,-289.067)" />
  <path
     class="Note"
     d="m 1715.1001,185.42001 c 18.259,0 21.9325,-14.88001 21.9325,-18.44501 0,-5.65754 -4.464,-9.33101 -10.912,-9.33101 -16.5695,0 -21.731,12.80301 -21.731,18.55352 0,5.84355 4.6655,9.2225 10.7105,9.2225 m 8.432,-8.835 c -4.96,3.379 -8.432,4.5725 -10.8035,4.5725 -2.294,0 -3.6735,-1.1935 -4.371,-2.5885 -0.403,-0.589 -0.6975,-1.3795 -0.6975,-2.17001 0,-5.363 15.9805,-14.19801 21.235,-14.19801 2.077,0 3.2705,0.992 4.061,2.387 0.31,0.589 0.6045,1.2865 0.6045,2.07701 0,2.18549 -2.2785,4.867 -10.0285,9.92001"
     id="path172"
     style="stroke-width:0.992001" />
  <path
     class="Note"
     fill="#00aa00"
     d="m 1220.1116,157.93851 c -14.384,0 -23.312,6.06048 -23.312,13.39199 0,7.23851 6.1535,13.68656 22.227,13.68656 17.6545,0 23.3121,-6.13805 23.3121,-13.68656 0,-7.64151 -12.1986,-13.39199 -22.2271,-13.39199 m -2.7745,2.48 c 7.347,0 13.299,7.93598 13.299,14.49249 0,5.45601 -3.379,7.62606 -8.246,7.62606 -7.1455,0 -13.9811,-8.23055 -13.9811,-15.17457 0,-5.549 3.8596,-6.94398 8.9281,-6.94398"
     id="path174"
     style="stroke-width:0.992001" />
  <path
     class="Note"
     d="m 1562.2701,185.42001 c 18.259,0 21.9325,-14.88001 21.9325,-18.44501 0,-5.65754 -4.464,-9.33101 -10.912,-9.33101 -16.5695,0 -21.731,12.80301 -21.731,18.55352 0,5.84355 4.6655,9.2225 10.7105,9.2225 m 8.432,-8.835 c -4.96,3.379 -8.432,4.5725 -10.8035,4.5725 -2.294,0 -3.6735,-1.1935 -4.371,-2.5885 -0.403,-0.589 -0.6975,-1.3795 -0.6975,-2.17001 0,-5.363 15.9805,-14.19801 21.235,-14.19801 2.077,0 3.2705,0.992 4.061,2.387 0.31,0.589 0.6045,1.2865 0.6045,2.07701 0,2.18549 -2.2785,4.867 -10.0285,9.92001"
     id="path176"
     style="stroke-width:0.992001" />
  <path
     class="Note"
     fill="#00aa00"
     d="m 914.45159,145.53851 c -14.38402,0 -23.31203,6.06048 -23.31203,13.39199 0,7.23851 6.15351,13.68656 22.22707,13.68656 17.65445,0 23.31203,-6.13805 23.31203,-13.68656 0,-7.64151 -12.19854,-13.39199 -22.22707,-13.39199 m -2.77453,2.48 c 7.34706,0 13.29906,7.93598 13.29906,14.49249 0,5.45601 -3.37905,7.62606 -8.24601,7.62606 -7.14548,0 -13.98106,-8.23055 -13.98106,-15.17457 0,-5.549 3.85958,-6.94398 8.92801,-6.94398"
     id="path178"
     style="stroke-width:0.992001" />
  <path
     class="Note"
     fill="#00aa00"
     d="m 407.1461,160.62001 c 18.25897,0 21.93255,-14.88001 21.93255,-18.44501 0,-5.65754 -4.46401,-9.33101 -10.91202,-9.33101 -16.56956,0 -21.73107,12.80301 -21.73107,18.55352 0,5.84355 4.66551,9.2225 10.71054,9.2225 m 8.43201,-8.835 c -4.96001,3.379 -8.43201,4.5725 -10.80354,4.5725 -2.294,0 -3.6735,-1.1935 -4.371,-2.5885 -0.403,-0.589 -0.6975,-1.3795 -0.6975,-2.17001 0,-5.363 15.98056,-14.19801 21.23499,-14.19801 2.07705,0 3.27053,0.992 4.06106,2.387 0.31,0.589 0.60452,1.2865 0.60452,2.07701 0,2.18549 -2.27853,4.867 -10.02853,9.92001"
     id="path180"
     style="stroke-width:0.992001" />
  <path
     class="Note"
     fill="#00aa00"
     d="m 712.8081,160.62001 c 18.25897,0 21.93255,-14.88001 21.93255,-18.44501 0,-5.65754 -4.46401,-9.33101 -10.91202,-9.33101 -16.56956,0 -21.73107,12.80301 -21.73107,18.55352 0,5.84355 4.66551,9.2225 10.71054,9.2225 m 8.43201,-8.835 c -4.96001,3.379 -8.43201,4.5725 -10.80354,4.5725 -2.294,0 -3.6735,-1.1935 -4.371,-2.5885 -0.403,-0.589 -0.6975,-1.3795 -0.6975,-2.17001 0,-5.363 15.98056,-14.19801 21.23499,-14.19801 2.07705,0 3.27053,0.992 4.06106,2.387 0.31,0.589 0.60452,1.2865 0.60452,2.07701 0,2.18549 -2.27853,4.867 -10.02853,9.92001"
     id="path182"
     style="stroke-width:0.992001" />
  <path
     class="Note"
     d="m 1874.0916,157.93851 c -14.384,0 -23.312,6.06048 -23.312,13.39199 0,7.23851 6.1535,13.68656 22.227,13.68656 17.6545,0 23.3121,-6.13805 23.3121,-13.68656 0,-7.64151 -12.1986,-13.39199 -22.2271,-13.39199 m -2.7745,2.48 c 7.347,0 13.299,7.93598 13.299,14.49249 0,5.45601 -3.379,7.62606 -8.246,7.62606 -7.1455,0 -13.9811,-8.23055 -13.9811,-15.17457 0,-5.549 3.8596,-6.94398 8.9281,-6.94398"
     id="path184"
     style="stroke-width:0.992001" />
  <path
     class="Note"
     fill="#00aa00"
     d="m 559.9771,160.62001 c 18.25897,0 21.93255,-14.88001 21.93255,-18.44501 0,-5.65754 -4.46401,-9.33101 -10.91202,-9.33101 -16.56956,0 -21.73107,12.80301 -21.73107,18.55352 0,5.84355 4.66551,9.2225 10.71054,9.2225 m 8.43201,-8.835 c -4.96001,3.379 -8.43201,4.5725 -10.80354,4.5725 -2.294,0 -3.6735,-1.1935 -4.371,-2.5885 -0.403,-0.589 -0.6975,-1.3795 -0.6975,-2.17001 0,-5.363 15.98056,-14.19801 21.23499,-14.19801 2.07705,0 3.27053,0.992 4.06106,2.387 0.31,0.589 0.60452,1.2865 0.60452,2.07701 0,2.18549 -2.27853,4.867 -10.02853,9.92001"
     id="path186"
     style="stroke-width:0.992001" />
  <path
     class="Note"
     d="m 407.1461,185.42001 c 18.25897,0 21.93255,-14.88001 21.93255,-18.44501 0,-5.65754 -4.46401,-9.33101 -10.91202,-9.33101 -16.56956,0 -21.73107,12.80301 -21.73107,18.55352 0,5.84355 4.66551,9.2225 10.71054,9.2225 m 8.43201,-8.835 c -4.96001,3.379 -8.43201,4.5725 -10.80354,4.5725 -2.294,0 -3.6735,-1.1935 -4.371,-2.5885 -0.403,-0.589 -0.6975,-1.3795 -0.6975,-2.17001 0,-5.363 15.98056,-14.19801 21.23499,-14.19801 2.07705,0 3.27053,0.992 4.06106,2.387 0.31,0.589 0.60452,1.2865 0.60452,2.07701 0,2.18549 -2.27853,4.867 -10.02853,9.92001"
     id="path188"
     style="stroke-width:0.992001" />
  <path
     class="Note"
     d="m 1874.0916,182.73851 c -14.384,0 -23.312,6.06048 -23.312,13.39199 0,7.23851 6.1535,13.68656 22.227,13.68656 17.6545,0 23.3121,-6.13805 23.3121,-13.68656 0,-7.64151 -12.1986,-13.39199 -22.2271,-13.39199 m -2.7745,2.48 c 7.347,0 13.299,7.93598 13.299,14.49249 0,5.45601 -3.379,7.62606 -8.246,7.62606 -7.1455,0 -13.9811,-8.23055 -13.9811,-15.17457 0,-5.549 3.8596,-6.94398 8.9281,-6.94398"
     id="path190"
     style="stroke-width:0.992001" />
  <path
     class="Note"
     d="m 254.3151,235.02001 c 18.25897,0 21.93255,-14.88001 21.93255,-18.44501 0,-5.65754 -4.46401,-9.33101 -10.91202,-9.33101 -16.56956,0 -21.73107,12.80301 -21.73107,18.55352 0,5.84355 4.66551,9.2225 10.71054,9.2225 m 8.43201,-8.835 c -4.96001,3.379 -8.43201,4.5725 -10.80354,4.5725 -2.294,0 -3.6735,-1.1935 -4.371,-2.5885 -0.403,-0.589 -0.6975,-1.3795 -0.6975,-2.17001 0,-5.363 15.98056,-14.19801 21.23499,-14.19801 2.07705,0 3.27053,0.992 4.06106,2.387 0.31,0.589 0.60452,1.2865 0.60452,2.07701 0,2.18549 -2.27853,4.867 -10.02853,9.92001"
     id="path192"
     style="stroke-width:0.992001" />
  <path
     class="Note"
     d="m 1255.5201,197.82001 c 18.259,0 21.9325,-14.88001 21.9325,-18.44501 0,-5.65754 -4.464,-9.33101 -10.912,-9.33101 -16.5695,0 -21.731,12.80301 -21.731,18.55352 0,5.84355 4.6655,9.2225 10.7105,9.2225 m 8.432,-8.835 c -4.96,3.379 -8.432,4.5725 -10.8035,4.5725 -2.294,0 -3.6735,-1.1935 -4.371,-2.5885 -0.403,-0.589 -0.6975,-1.3795 -0.6975,-2.17001 0,-5.363 15.9805,-14.19801 21.235,-14.19801 2.077,0 3.2705,0.992 4.061,2.387 0.31,0.589 0.6045,1.2865 0.6045,2.07701 0,2.18549 -2.2785,4.867 -10.0285,9.92001"
     id="path194"
     style="stroke-width:0.992001" />
  <path
     class="Note"
     d="m 914.45159,170.33851 c -14.38402,0 -23.31203,6.06048 -23.31203,13.39199 0,7.23851 6.15351,13.68656 22.22707,13.68656 17.65445,0 23.31203,-6.13805 23.31203,-13.68656 0,-7.64151 -12.19854,-13.39199 -22.22707,-13.39199 m -2.77453,2.48 c 7.34706,0 13.29906,7.93598 13.29906,14.49249 0,5.45601 -3.37905,7.62606 -8.24601,7.62606 -7.14548,0 -13.98106,-8.23055 -13.98106,-15.17457 0,-5.549 3.85958,-6.94398 8.92801,-6.94398"
     id="path196"
     style="stroke-width:0.992001" />
  <path
     class="Note"
     d="m 1568.4316,195.13851 c -14.384,0 -23.312,6.06048 -23.312,13.39199 0,7.23851 6.1535,13.68656 22.227,13.68656 17.6545,0 23.3121,-6.13805 23.3121,-13.68656 0,-7.64151 -12.1986,-13.39199 -22.2271,-13.39199 m -2.7745,2.48 c 7.347,0 13.299,7.93598 13.299,14.49249 0,5.45601 -3.379,7.62606 -8.246,7.62606 -7.1455,0 -13.9811,-8.23055 -13.9811,-15.17457 0,-5.549 3.8596,-6.94398 8.9281,-6.94398"
     id="path198"
     style="stroke-width:0.992001" />
  <path
     class="Note"
     d="m 1366.7901,210.22001 c 18.259,0 21.9325,-14.88001 21.9325,-18.44501 0,-5.65754 -4.464,-9.33101 -10.912,-9.33101 -16.5695,0 -21.731,12.80301 -21.731,18.55352 0,5.84355 4.6655,9.2225 10.7105,9.2225 m 8.432,-8.835 c -4.96,3.379 -8.432,4.5725 -10.8035,4.5725 -2.294,0 -3.6735,-1.1935 -4.371,-2.5885 -0.403,-0.589 -0.6975,-1.3795 -0.6975,-2.17001 0,-5.363 15.9805,-14.19801 21.235,-14.19801 2.077,0 3.2705,0.992 4.061,2.387 0.31,0.589 0.6045,1.2865 0.6045,2.07701 0,2.18549 -2.2785,4.867 -10.0285,9.92001"
     id="path200"
     style="stroke-width:0.992001" />
  <path
     class="Note"
     d="m 712.8081,185.42001 c 18.25897,0 21.93255,-14.88001 21.93255,-18.44501 0,-5.65754 -4.46401,-9.33101 -10.91202,-9.33101 -16.56956,0 -21.73107,12.80301 -21.73107,18.55352 0,5.84355 4.66551,9.2225 10.71054,9.2225 m 8.43201,-8.835 c -4.96001,3.379 -8.43201,4.5725 -10.80354,4.5725 -2.294,0 -3.6735,-1.1935 -4.371,-2.5885 -0.403,-0.589 -0.6975,-1.3795 -0.6975,-2.17001 0,-5.363 15.98056,-14.19801 21.23499,-14.19801 2.07705,0 3.27053,0.992 4.06106,2.387 0.31,0.589 0.60452,1.2865 0.60452,2.07701 0,2.18549 -2.27853,4.867 -10.02853,9.92001"
     id="path202"
     style="stroke-width:0.992001" />
  <path
     class="Note"
     d="m 559.9771,185.42001 c 18.25897,0 21.93255,-14.88001 21.93255,-18.44501 0,-5.65754 -4.46401,-9.33101 -10.91202,-9.33101 -16.56956,0 -21.73107,12.80301 -21.73107,18.55352 0,5.84355 4.66551,9.2225 10.71054,9.2225 m 8.43201,-8.835 c -4.96001,3.379 -8.43201,4.5725 -10.80354,4.5725 -2.294,0 -3.6735,-1.1935 -4.371,-2.5885 -0.403,-0.589 -0.6975,-1.3795 -0.6975,-2.17001 0,-5.363 15.98056,-14.19801 21.23499,-14.19801 2.07705,0 3.27053,0.992 4.06106,2.387 0.31,0.589 0.60452,1.2865 0.60452,2.07701 0,2.18549 -2.27853,4.867 -10.02853,9.92001"
     id="path204"
     style="stroke-width:0.992001" />
  <path
     class="Note"
     d="m 1213.9601,553.22001 c 18.259,0 21.9325,-14.88001 21.9325,-18.44501 0,-5.65754 -4.464,-9.33101 -10.912,-9.33101 -16.5695,0 -21.731,12.80301 -21.731,18.55352 0,5.84355 4.6655,9.2225 10.7105,9.2225 m 8.432,-8.835 c -4.96,3.379 -8.432,4.5725 -10.8035,4.5725 -2.294,0 -3.6735,-1.1935 -4.371,-2.5885 -0.403,-0.589 -0.6975,-1.3795 -0.6975,-2.17001 0,-5.363 15.9805,-14.19801 21.235,-14.19801 2.077,0 3.2705,0.992 4.061,2.387 0.31,0.589 0.6045,1.2865 0.6045,2.07701 0,2.18549 -2.2785,4.867 -10.0285,9.92001"
     id="path206"
     style="stroke-width:0.992001" />
  <path
     class="Note"
     d="m 1366.7901,540.82001 c 18.259,0 21.9325,-14.88001 21.9325,-18.44501 0,-5.65754 -4.464,-9.33101 -10.912,-9.33101 -16.5695,0 -21.731,12.80301 -21.731,18.55352 0,5.84355 4.6655,9.2225 10.7105,9.2225 m 8.432,-8.835 c -4.96,3.379 -8.432,4.5725 -10.8035,4.5725 -2.294,0 -3.6735,-1.1935 -4.371,-2.5885 -0.403,-0.589 -0.6975,-1.3795 -0.6975,-2.17001 0,-5.363 15.9805,-14.19801 21.235,-14.19801 2.077,0 3.2705,0.992 4.061,2.387 0.31,0.589 0.6045,1.2865 0.6045,2.07701 0,2.18549 -2.2785,4.867 -10.0285,9.92001"
     id="path208"
     style="stroke-width:0.992001" />
  <path
     class="Note"
     d="m 908.2901,528.42001 c 18.25897,0 21.93255,-14.88001 21.93255,-18.44501 0,-5.65754 -4.46401,-9.33101 -10.91202,-9.33101 -16.56956,0 -21.73107,12.80301 -21.73107,18.55352 0,5.84355 4.66551,9.2225 10.71054,9.2225 m 8.43201,-8.835 c -4.96001,3.379 -8.43201,4.5725 -10.80354,4.5725 -2.294,0 -3.6735,-1.1935 -4.371,-2.5885 -0.403,-0.589 -0.6975,-1.3795 -0.6975,-2.17001 0,-5.363 15.98056,-14.19801 21.23499,-14.19801 2.07705,0 3.27053,0.992 4.06106,2.387 0.31,0.589 0.60452,1.2865 0.60452,2.07701 0,2.18549 -2.27853,4.867 -10.02853,9.92001"
     id="path210"
     style="stroke-width:0.992001" />
  <path
     class="Note"
     d="m 559.9771,516.02001 c 18.25897,0 21.93255,-14.88001 21.93255,-18.44501 0,-5.65754 -4.46401,-9.33101 -10.91202,-9.33101 -16.56956,0 -21.73107,12.80301 -21.73107,18.55352 0,5.84355 4.66551,9.2225 10.71054,9.2225 m 8.43201,-8.835 c -4.96001,3.379 -8.43201,4.5725 -10.80354,4.5725 -2.294,0 -3.6735,-1.1935 -4.371,-2.5885 -0.403,-0.589 -0.6975,-1.3795 -0.6975,-2.17001 0,-5.363 15.98056,-14.19801 21.23499,-14.19801 2.07705,0 3.27053,0.992 4.06106,2.387 0.31,0.589 0.60452,1.2865 0.60452,2.07701 0,2.18549 -2.27853,4.867 -10.02853,9.92001"
     id="path212"
     style="stroke-width:0.992001" />
  <path
     class="Note"
     d="m 254.3151,516.02001 c 18.25897,0 21.93255,-14.88001 21.93255,-18.44501 0,-5.65754 -4.46401,-9.33101 -10.91202,-9.33101 -16.56956,0 -21.73107,12.80301 -21.73107,18.55352 0,5.84355 4.66551,9.2225 10.71054,9.2225 m 8.43201,-8.835 c -4.96001,3.379 -8.43201,4.5725 -10.80354,4.5725 -2.294,0 -3.6735,-1.1935 -4.371,-2.5885 -0.403,-0.589 -0.6975,-1.3795 -0.6975,-2.17001 0,-5.363 15.98056,-14.19801 21.23499,-14.19801 2.07705,0 3.27053,0.992 4.06106,2.387 0.31,0.589 0.60452,1.2865 0.60452,2.07701 0,2.18549 -2.27853,4.867 -10.02853,9.92001"
     id="path214"
     style="stroke-width:0.992001" />
  <path
     class="Note"
     d="m 1562.2701,540.82001 c 18.259,0 21.9325,-14.88001 21.9325,-18.44501 0,-5.65754 -4.464,-9.33101 -10.912,-9.33101 -16.5695,0 -21.731,12.80301 -21.731,18.55352 0,5.84355 4.6655,9.2225 10.7105,9.2225 m 8.432,-8.835 c -4.96,3.379 -8.432,4.5725 -10.8035,4.5725 -2.294,0 -3.6735,-1.1935 -4.371,-2.5885 -0.403,-0.589 -0.6975,-1.3795 -0.6975,-2.17001 0,-5.363 15.9805,-14.19801 21.235,-14.19801 2.077,0 3.2705,0.992 4.061,2.387 0.31,0.589 0.6045,1.2865 0.6045,2.07701 0,2.18549 -2.2785,4.867 -10.0285,9.92001"
     id="path216"
     style="stroke-width:0.992001" />
  <path
     class="Note"
     d="m 1715.1001,553.22001 c 18.259,0 21.9325,-14.88001 21.9325,-18.44501 0,-5.65754 -4.464,-9.33101 -10.912,-9.33101 -16.5695,0 -21.731,12.80301 -21.731,18.55352 0,5.84355 4.6655,9.2225 10.7105,9.2225 m 8.432,-8.835 c -4.96,3.379 -8.432,4.5725 -10.8035,4.5725 -2.294,0 -3.6735,-1.1935 -4.371,-2.5885 -0.403,-0.589 -0.6975,-1.3795 -0.6975,-2.17001 0,-5.363 15.9805,-14.19801 21.235,-14.19801 2.077,0 3.2705,0.992 4.061,2.387 0.31,0.589 0.6045,1.2865 0.6045,2.07701 0,2.18549 -2.2785,4.867 -10.0285,9.92001"
     id="path218"
     style="stroke-width:0.992001" />
  <path
     class="Note"
     d="m 712.8081,528.42001 c 18.25897,0 21.93255,-14.88001 21.93255,-18.44501 0,-5.65754 -4.46401,-9.33101 -10.91202,-9.33101 -16.56956,0 -21.73107,12.80301 -21.73107,18.55352 0,5.84355 4.66551,9.2225 10.71054,9.2225 m 8.43201,-8.835 c -4.96001,3.379 -8.43201,4.5725 -10.80354,4.5725 -2.294,0 -3.6735,-1.1935 -4.371,-2.5885 -0.403,-0.589 -0.6975,-1.3795 -0.6975,-2.17001 0,-5.363 15.98056,-14.19801 21.23499,-14.19801 2.07705,0 3.27053,0.992 4.06106,2.387 0.31,0.589 0.60452,1.2865 0.60452,2.07701 0,2.18549 -2.27853,4.867 -10.02853,9.92001"
     id="path220"
     style="stroke-width:0.992001" />
  <path
     class="Note"
     d="m 1874.0916,513.33851 c -14.384,0 -23.312,6.06048 -23.312,13.39199 0,7.23851 6.1535,13.68656 22.227,13.68656 17.6545,0 23.3121,-6.13805 23.3121,-13.68656 0,-7.64151 -12.1986,-13.39199 -22.2271,-13.39199 m -2.7745,2.48 c 7.347,0 13.299,7.93598 13.299,14.49249 0,5.45601 -3.379,7.62606 -8.246,7.62606 -7.1455,0 -13.9811,-8.23055 -13.9811,-15.17457 0,-5.549 3.8596,-6.94398 8.9281,-6.94398"
     id="path222"
     style="stroke-width:0.992001" />
  <path
     class="Note"
     d="m 407.1461,528.42001 c 18.25897,0 21.93255,-14.88001 21.93255,-18.44501 0,-5.65754 -4.46401,-9.33101 -10.91202,-9.33101 -16.56956,0 -21.73107,12.80301 -21.73107,18.55352 0,5.84355 4.66551,9.2225 10.71054,9.2225 m 8.43201,-8.835 c -4.96001,3.379 -8.43201,4.5725 -10.80354,4.5725 -2.294,0 -3.6735,-1.1935 -4.371,-2.5885 -0.403,-0.589 -0.6975,-1.3795 -0.6975,-2.17001 0,-5.363 15.98056,-14.19801 21.23499,-14.19801 2.07705,0 3.27053,0.992 4.06106,2.387 0.31,0.589 0.60452,1.2865 0.60452,2.07701 0,2.18549 -2.27853,4.867 -10.02853,9.92001"
     id="path224"
     style="stroke-width:0.992001" />
  <path
     class="Note"
     d="m 1061.1301,540.82001 c 18.259,0 21.9325,-14.88001 21.9325,-18.44501 0,-5.65754 -4.464,-9.33101 -10.912,-9.33101 -16.5695,0 -21.731,12.80301 -21.731,18.55352 0,5.84355 4.6655,9.2225 10.7105,9.2225 m 8.432,-8.835 c -4.96,3.379 -8.432,4.5725 -10.8035,4.5725 -2.294,0 -3.6735,-1.1935 -4.371,-2.5885 -0.403,-0.589 -0.6975,-1.3795 -0.6975,-2.17001 0,-5.363 15.9805,-14.19801 21.235,-14.19801 2.077,0 3.2705,0.992 4.061,2.387 0.31,0.589 0.6045,1.2865 0.6045,2.07701 0,2.18549 -2.2785,4.867 -10.0285,9.92001"
     id="path226"
     style="stroke-width:0.992001" />
  <path
     class="Note"
     d="m 1061.1301,590.42001 c 18.259,0 21.9325,-14.88001 21.9325,-18.44501 0,-5.65754 -4.464,-9.33101 -10.912,-9.33101 -16.5695,0 -21.731,12.80301 -21.731,18.55352 0,5.84355 4.6655,9.2225 10.7105,9.2225 m 8.432,-8.835 c -4.96,3.379 -8.432,4.5725 -10.8035,4.5725 -2.294,0 -3.6735,-1.1935 -4.371,-2.5885 -0.403,-0.589 -0.6975,-1.3795 -0.6975,-2.17001 0,-5.363 15.9805,-14.19801 21.235,-14.19801 2.077,0 3.2705,0.992 4.061,2.387 0.31,0.589 0.6045,1.2865 0.6045,2.07701 0,2.18549 -2.2785,4.867 -10.0285,9.92001"
     id="path228"
     style="stroke-width:0.992001" />
  <path
     class="Note"
     d="m 407.1461,578.02001 c 18.25897,0 21.93255,-14.88001 21.93255,-18.44501 0,-5.65754 -4.46401,-9.33101 -10.91202,-9.33101 -16.56956,0 -21.73107,12.80301 -21.73107,18.55352 0,5.84355 4.66551,9.2225 10.71054,9.2225 m 8.43201,-8.835 c -4.96001,3.379 -8.43201,4.5725 -10.80354,4.5725 -2.294,0 -3.6735,-1.1935 -4.371,-2.5885 -0.403,-0.589 -0.6975,-1.3795 -0.6975,-2.17001 0,-5.363 15.98056,-14.19801 21.23499,-14.19801 2.07705,0 3.27053,0.992 4.06106,2.387 0.31,0.589 0.60452,1.2865 0.60452,2.07701 0,2.18549 -2.27853,4.867 -10.02853,9.92001"
     id="path230"
     style="stroke-width:0.992001" />
  <path
     class="Note"
     d="m 1874.0916,600.13851 c -14.384,0 -23.312,6.06048 -23.312,13.39199 0,7.23851 6.1535,13.68656 22.227,13.68656 17.6545,0 23.3121,-6.13805 23.3121,-13.68656 0,-7.64151 -12.1986,-13.39199 -22.2271,-13.39199 m -2.7745,2.48 c 7.347,0 13.299,7.93598 13.299,14.49249 0,5.45601 -3.379,7.62606 -8.246,7.62606 -7.1455,0 -13.9811,-8.23055 -13.9811,-15.17457 0,-5.549 3.8596,-6.94398 8.9281,-6.94398"
     id="path232"
     style="stroke-width:0.992001" />
  <path
     class="Note"
     d="m 712.8081,578.02001 c 18.25897,0 21.93255,-14.88001 21.93255,-18.44501 0,-5.65754 -4.46401,-9.33101 -10.91202,-9.33101 -16.56956,0 -21.73107,12.80301 -21.73107,18.55352 0,5.84355 4.66551,9.2225 10.71054,9.2225 m 8.43201,-8.835 c -4.96001,3.379 -8.43201,4.5725 -10.80354,4.5725 -2.294,0 -3.6735,-1.1935 -4.371,-2.5885 -0.403,-0.589 -0.6975,-1.3795 -0.6975,-2.17001 0,-5.363 15.98056,-14.19801 21.23499,-14.19801 2.07705,0 3.27053,0.992 4.06106,2.387 0.31,0.589 0.60452,1.2865 0.60452,2.07701 0,2.18549 -2.27853,4.867 -10.02853,9.92001"
     id="path234"
     style="stroke-width:0.992001" />
  <path
     class="Note"
     d="m 1568.4316,550.53851 c -14.384,0 -23.312,6.06048 -23.312,13.39199 0,7.23851 6.1535,13.68656 22.227,13.68656 17.6545,0 23.3121,-6.13805 23.3121,-13.68656 0,-7.64151 -12.1986,-13.39199 -22.2271,-13.39199 m -2.7745,2.48 c 7.347,0 13.299,7.93598 13.299,14.49249 0,5.45601 -3.379,7.62606 -8.246,7.62606 -7.1455,0 -13.9811,-8.23055 -13.9811,-15.17457 0,-5.549 3.8596,-6.94398 8.9281,-6.94398"
     id="path236"
     style="stroke-width:0.992001" />
  <path
     class="Note"
     d="m 1220.1116,550.53851 c -14.384,0 -23.312,6.06048 -23.312,13.39199 0,7.23851 6.1535,13.68656 22.227,13.68656 17.6545,0 23.3121,-6.13805 23.3121,-13.68656 0,-7.64151 -12.1986,-13.39199 -22.2271,-13.39199 m -2.7745,2.48 c 7.347,0 13.299,7.93598 13.299,14.49249 0,5.45601 -3.379,7.62606 -8.246,7.62606 -7.1455,0 -13.9811,-8.23055 -13.9811,-15.17457 0,-5.549 3.8596,-6.94398 8.9281,-6.94398"
     id="path238"
     style="stroke-width:0.992001" />
  <path
     class="Note"
     d="m 559.9771,602.82001 c 18.25897,0 21.93255,-14.88001 21.93255,-18.44501 0,-5.65754 -4.46401,-9.33101 -10.91202,-9.33101 -16.56956,0 -21.73107,12.80301 -21.73107,18.55352 0,5.84355 4.66551,9.2225 10.71054,9.2225 m 8.43201,-8.835 c -4.96001,3.379 -8.43201,4.5725 -10.80354,4.5725 -2.294,0 -3.6735,-1.1935 -4.371,-2.5885 -0.403,-0.589 -0.6975,-1.3795 -0.6975,-2.17001 0,-5.363 15.98056,-14.19801 21.23499,-14.19801 2.07705,0 3.27053,0.992 4.06106,2.387 0.31,0.589 0.60452,1.2865 0.60452,2.07701 0,2.18549 -2.27853,4.867 -10.02853,9.92001"
     id="path240"
     style="stroke-width:0.992001" />
  <path
     class="Note"
     d="m 908.2901,615.22001 c 18.25897,0 21.93255,-14.88001 21.93255,-18.44501 0,-5.65754 -4.46401,-9.33101 -10.91202,-9.33101 -16.56956,0 -21.73107,12.80301 -21.73107,18.55352 0,5.84355 4.66551,9.2225 10.71054,9.2225 m 8.43201,-8.835 c -4.96001,3.379 -8.43201,4.5725 -10.80354,4.5725 -2.294,0 -3.6735,-1.1935 -4.371,-2.5885 -0.403,-0.589 -0.6975,-1.3795 -0.6975,-2.17001 0,-5.363 15.98056,-14.19801 21.23499,-14.19801 2.07705,0 3.27053,0.992 4.06106,2.387 0.31,0.589 0.60452,1.2865 0.60452,2.07701 0,2.18549 -2.27853,4.867 -10.02853,9.92001"
     id="path242"
     style="stroke-width:0.992001" />
  <path
     class="Clef"
     d="m 97.090125,130.36396 c -0.201475,-1.19348 0,-1.28653 0.588951,-1.89105 10.710534,-10.01296 18.848014,-22.61445 18.848014,-37.788992 0,-8.633483 -2.38695,-17.174017 -6.448,-23.126519 -1.488,-2.169506 -4.06096,-4.960005 -5.16148,-4.960005 -1.37948,0 -4.46401,2.589123 -6.448008,4.774501 -7.331483,8.122008 -9.718535,20.522021 -9.718535,30.844981 0,5.750534 0.697575,12.198534 1.395051,16.275064 0.186,1.19348 0.294525,1.37948 -0.899051,2.37148 -14.290964,11.81106 -29.465504,25.9935 -29.465504,46.03507 0,17.26702 11.811061,33.63501 36.115086,33.63501 2.278427,0 4.851481,-0.20148 6.835481,-0.60443 1.10053,-0.186 1.302,-0.29452 1.488,0.89896 1.19348,6.64948 2.68148,15.28306 2.68148,19.94854 0,14.67854 -9.92001,16.46097 -15.763491,16.46097 -5.363055,0 -7.951483,-1.58095 -7.951483,-2.88296 0,-0.682 0.898951,-0.992 3.177478,-1.674 3.084528,-0.89905 6.649482,-3.58053 6.649482,-9.33106 0,-5.456 -3.472003,-10.12148 -9.51696,-10.12148 -6.649581,0 -10.617585,5.25453 -10.617585,11.40801 0,6.44801 3.859578,16.16654 18.848019,16.16654 6.649581,0 19.54559,-2.976 19.54559,-19.84002 0,-5.64201 -1.78252,-15.06601 -2.88305,-21.2195 -0.20147,-1.19357 -0.093,-1.10052 1.28653,-1.68957 10.02853,-3.96801 16.67801,-12.40001 16.67801,-23.6065 0,-12.71006 -9.33105,-23.9165 -23.91654,-23.9165 -2.572957,0 -2.572957,0 -2.867483,-1.78253 l -2.480002,-14.38401 m 9.315485,-52.390054 c 3.27053,0 5.95201,2.681478 5.95201,8.137483 0,11.020536 -9.42401,19.948541 -17.251497,26.784031 -0.697476,0.60452 -1.100526,0.496 -1.302001,-0.79053 -0.387476,-2.57295 -0.589051,-5.95201 -0.589051,-9.12948 0,-15.46897 7.145579,-25.001504 13.190539,-25.001504 M 95.602123,145.5385 c 0.294526,1.89095 0.294526,1.78243 -1.488001,2.38695 -8.742009,2.976 -14.39949,10.80349 -14.39949,19.23555 0,8.928 4.66548,15.28301 11.423487,17.56154 0.790526,0.29452 1.984002,0.60452 2.666003,0.60452 0.806,0 1.193476,-0.496 1.193476,-1.10052 0,-0.69748 -0.790526,-0.992 -1.488001,-1.28653 -4.16948,-1.7825 -7.145483,-6.045 -7.145483,-10.61751 0,-5.6575 3.874954,-9.92001 9.92001,-11.60956 1.596527,-0.38748 1.798002,-0.29443 1.984002,0.806 l 4.960004,29.55855 c 0.20148,1.08506 0.10853,1.08506 -1.37948,1.37958 -1.59652,0.31 -3.580524,0.496 -5.564526,0.496 -17.360017,0 -28.566553,-9.61001 -28.566553,-23.40507 0,-5.85901 0.992001,-13.68654 9.222534,-23.0175 5.952006,-6.64958 10.524535,-10.32306 15.190015,-14.08959 0.992001,-0.79043 1.178001,-0.69747 1.379477,0.40305 l 2.092526,12.69454 m 6.835487,15.77896 c -0.20148,-1.19347 -0.093,-1.488 1.10052,-1.39495 8.02896,0.69748 14.67854,7.43998 14.67854,16.16649 0,6.26206 -3.76653,11.31502 -9.33106,14.08954 -1.19347,0.60453 -1.37947,0.60453 -1.58095,-0.58905 l -4.86705,-28.27203"
     id="path244"
     style="stroke-width:0.992001" />
  <path
     class="Clef"
     d="m 84.783063,550.5385 c -17.266988,0 -25.0015,12.60149 -25.0015,22.1185 0,7.936 4.169509,14.78701 12.198537,14.78701 6.246531,0 10.524535,-4.371 10.524535,-10.50901 0,-6.35501 -4.665579,-10.32301 -9.532534,-10.32301 -2.681478,0 -3.673529,0.6975 -4.960025,0.6975 -1.286506,0 -1.581002,-0.79055 -1.581002,-1.78255 0,-3.968 5.951976,-11.22201 16.073561,-11.22201 10.508961,0 15.08149,10.32306 15.08149,25.90058 0,27.68305 -13.702013,43.15201 -36.812561,56.34255 -0.899001,0.496 -1.488002,0.992 -1.488002,1.78253 0,0.60452 0.403,1.19347 1.286501,1.19347 0.496006,0 1.100501,-0.20147 1.689502,-0.496 24.412549,-11.90401 50.204575,-29.55855 50.204575,-59.72155 0,-17.25157 -10.52453,-28.76801 -27.683077,-28.76801 m 37.401617,8.13748 c -3.08453,0 -5.45601,2.38695 -5.45601,5.45601 0,3.069 2.37148,5.456 5.45601,5.456 3.06895,0 5.456,-2.387 5.456,-5.456 0,-3.06906 -2.38705,-5.45601 -5.456,-5.45601 m 0.093,24.89303 c -3.06896,0 -5.34749,2.294 -5.34749,5.363 0,3.06906 2.27853,5.36306 5.34749,5.36306 3.08452,0 5.36305,-2.294 5.36305,-5.36306 0,-3.069 -2.27853,-5.363 -5.36305,-5.363"
     id="path246"
     style="stroke-width:0.992001" />
  <path
     class="TimeSig"
     d="m 175.05611,121.83893 c -14.08954,0 -22.61455,12.49306 -22.61455,25.88507 0,6.44801 2.38701,12.10549 6.44801,17.06549 3.76653,4.55706 9.22253,6.64958 15.17454,6.64958 17.36002,0 19.94854,-15.77906 19.94854,-18.66206 0,-2.17001 -1.10052,-2.17001 -1.488,-2.17001 -0.79052,0 -1.488,0.093 -1.488,1.78251 0,12.78756 -10.91201,15.76356 -14.08959,15.76356 -8.04443,0 -12.30696,-7.82758 -12.30696,-24.19558 0,-16.36803 7.54853,-19.74699 12.89601,-19.74699 5.16148,0 7.25401,2.38695 7.25401,3.37896 0,0.88347 -0.31,2.18547 -1.798,2.18547 -3.96801,0 -6.24653,4.26253 -6.24653,7.33156 0,5.65751 4.86705,7.44 7.64148,7.44 0,0 7.53306,-0.29449 7.53306,-8.52503 0,-13.00453 -14.97307,-14.18253 -16.86402,-14.18253"
     id="path248"
     style="stroke-width:0.992001" />
  <path
     class="TimeSig"
     d="m 175.05611,576.43893 c -14.08954,0 -22.61455,12.49306 -22.61455,25.88507 0,6.44801 2.38701,12.10549 6.44801,17.06549 3.76653,4.55706 9.22253,6.64958 15.17454,6.64958 17.36002,0 19.94854,-15.77906 19.94854,-18.66206 0,-2.17001 -1.10052,-2.17001 -1.488,-2.17001 -0.79052,0 -1.488,0.093 -1.488,1.78251 0,12.78756 -10.91201,15.76356 -14.08959,15.76356 -8.04443,0 -12.30696,-7.82758 -12.30696,-24.19558 0,-16.36803 7.54853,-19.74699 12.89601,-19.74699 5.16148,0 7.25401,2.38695 7.25401,3.37896 0,0.88347 -0.31,2.18547 -1.798,2.18547 -3.96801,0 -6.24653,4.26253 -6.24653,7.33156 0,5.65751 4.86705,7.44 7.64148,7.44 0,0 7.53306,-0.29449 7.53306,-8.52503 0,-13.00453 -14.97307,-14.18253 -16.86402,-14.18253"
     id="path250"
     style="stroke-width:0.992001" />
  <path
     class="Rest"
     d="m 271.58207,94.744998 v -9.114059 c 0,-1.488002 -1.19348,-2.588428 -2.57296,-2.588428 h -22.83154 c -1.48801,0 -2.57301,1.100426 -2.57301,2.588428 v 9.114059 c 0,1.395001 1.085,2.588502 2.57301,2.588502 h 22.83154 c 1.37948,0 2.57296,-1.193501 2.57296,-2.588502"
     id="path252"
     style="stroke-width:0.992001" />
  <path
     class="Rest"
     d="m 271.58207,598.945 v -9.11406 c 0,-1.488 -1.19348,-2.58843 -2.57296,-2.58843 h -22.83154 c -1.48801,0 -2.57301,1.10043 -2.57301,2.58843 v 9.11406 c 0,1.395 1.085,2.5885 2.57301,2.5885 h 22.83154 c 1.37948,0 2.57296,-1.1935 2.57296,-2.5885"
     id="path254"
     style="stroke-width:0.992001" />
  <path
     class="Lyrics"
     d="m 1702.9896,0 h -1.36 l -6.9,2.485 v 1.25 l 3.72,2.047 v 25.703 c 0,2.328 -1.02,3.937 -3.72,4.109 v 1.938 h 11.61 v -1.938 c -2.44,-0.172 -3.35,-1.781 -3.35,-4.484 V 0 m 28.82,22.578 c 0,-3.843 -3.02,-9.937 -9.99,-9.937 -6.37,0 -11.28,5.609 -11.28,13.016 0,7.234 4.69,12.468 11.22,12.468 4.11,0 7.73,-2.109 10.05,-5.89 l -1.13,-1.016 c -2.06,1.781 -4.22,2.594 -6.75,2.594 -5.03,0 -9.61,-4 -9.34,-11.235 h 17.22 m -16.89,-1.953 c 0.48,-3.672 2.75,-5.984 5.87,-5.984 2.97,0 4.92,2.156 5.34,5.984 h -11.21 m 23.81,11.016 c 0,2.703 -1.85,3.953 -3.89,3.953 v 1.938 h 11.76 v -1.938 c -1.93,-0.062 -3.34,-1.359 -3.34,-4.328 V 12.641 h -1.36 l -7.28,2.641 v 1.25 l 4.11,2.046 v 13.063 m -0.88,-28.719 c 0,1.61 1.3,2.906 2.93,2.906 1.62,0 2.9,-1.296 2.9,-2.906 0,-1.625 -1.28,-2.922 -2.9,-2.922 -1.63,0 -2.93,1.297 -2.93,2.922"
     id="path256" />
  <path
     class="Lyrics"
     d="M 379.42456,0.703 V 2.75 c 4.75,0 5.719,2.11 5.719,6 v 20.953 c 0,4.157 -1.453,5.782 -5.719,5.782 v 2.047 h 17.438 v -2.047 c -4.797,0 -6.047,-1.953 -6.047,-5.297 V 7.828 c 0,-3.671 1.891,-5.078 5.734,-5.078 V 0.703 h -17.125 m 23.172,0 V 2.75 c 2.266,0 3.297,0.813 3.297,2.219 0,2.156 -4.219,6.422 -14.641,13.609 l 0.704,0.641 c 9.171,7.734 15.875,14.688 20.406,18.313 h 9.515 v -2.157 c -2.281,-0.437 -4.171,-1.187 -7.187,-3.453 -5.453,-4.172 -12.203,-11.187 -17.234,-15.015 7.562,-5.563 10.375,-9.079 13.781,-11.61 2.156,-1.625 4,-2.265 6.64,-2.547 V 0.703 h -15.281 m 28.735,37.094 c -1.407,4.656 -2.704,6.485 -4.75,6.485 -1.938,0 -1.938,-1.735 -3.829,-1.735 -1.296,0 -2.328,0.985 -2.328,2.219 0,1.844 1.782,3.078 4.328,3.078 3.235,0 5.5,-1.828 7.063,-5.781 l 8.969,-22.781 c 1.078,-2.75 1.734,-3.672 3.781,-4.11 v -1.937 h -9.344 v 1.937 c 3.297,0.172 4.047,2.219 2.969,5.031 l -4.641,11.813 -5.562,-12.734 c -1.25,-2.813 -0.547,-4 2.64,-4.11 v -1.937 h -11.765 v 1.937 c 1.734,0 2.484,0 3.89,3.188 l 8.579,19.437"
     id="path258" />
  <path
     class="Lyrics"
     d="m 729.00856,22.578 c 0,-3.843 -3.016,-9.937 -9.984,-9.937 -6.375,0 -11.282,5.609 -11.282,13.016 0,7.234 4.688,12.468 11.219,12.468 4.109,0 7.734,-2.109 10.047,-5.89 l -1.125,-1.016 c -2.063,1.781 -4.219,2.594 -6.75,2.594 -5.031,0 -9.609,-4 -9.344,-11.235 h 17.219 m -16.891,-1.953 c 0.485,-3.672 2.75,-5.984 5.875,-5.984 2.969,0 4.922,2.156 5.344,5.984 h -11.219"
     id="path260" />
  <path
     class="Lyrics"
     d="m 925.62956,22.578 c 0,-3.843 -3.02,-9.937 -9.99,-9.937 -6.37,0 -11.28,5.609 -11.28,13.016 0,7.234 4.69,12.468 11.22,12.468 4.11,0 7.73,-2.109 10.05,-5.89 l -1.13,-1.016 c -2.06,1.781 -4.22,2.594 -6.75,2.594 -5.03,0 -9.61,-4 -9.34,-11.235 h 17.22 m -16.89,-1.953 c 0.48,-3.672 2.75,-5.984 5.87,-5.984 2.97,0 4.92,2.156 5.34,5.984 h -11.21"
     id="path262" />
  <path
     class="Lyrics"
     d="m 557.80256,20.907 c 2.156,-3.079 3.141,-4 4.422,-4 1.797,0 2.219,2.531 4.062,2.531 1.672,0 2.204,-3.235 2.204,-3.5 0,-1.094 -1.61,-3.078 -3.985,-3.078 -2.812,0 -4.156,1.125 -6.594,5.125 h -0.109 v -5.344 h -1.344 l -7.187,2.906 v 1.25 l 4,2 v 12.625 c 0,3.078 -1.844,4.172 -4,4.172 v 1.938 h 14.047 v -1.938 c -4.766,0 -5.516,-1.141 -5.516,-5.187 v -9.5 m 16.797,10.734 c 0,2.703 -1.844,3.953 -3.891,3.953 v 1.938 h 11.766 v -1.938 c -1.938,-0.062 -3.344,-1.359 -3.344,-4.328 V 12.641 h -1.359 l -7.281,2.641 v 1.25 l 4.109,2.046 v 13.063 m -0.875,-28.719 c 0,1.61 1.297,2.906 2.922,2.906 1.625,0 2.906,-1.296 2.906,-2.906 0,-1.625 -1.281,-2.922 -2.906,-2.922 -1.625,0 -2.922,1.297 -2.922,2.922"
     id="path264" />
  <path
     class="Lyrics"
     d="m 1850.4296,14.953 c -2,-1.562 -4.43,-2.312 -7.29,-2.312 -4.64,0 -7.88,2.75 -7.88,6.687 0,1.579 0.6,3.407 1.67,4.485 4.43,4.437 11.55,4.328 11.55,8.484 0,2.203 -2.05,3.828 -4.91,3.828 -3.23,0 -5.23,-2.312 -5.78,-6.531 h -1.78 v 6.797 c 2.05,1.031 5.24,1.734 7.94,1.734 5.08,0 8.27,-2.703 8.27,-7.125 0,-1.781 -0.6,-3.515 -1.74,-4.64 -3.08,-3.078 -11.28,-4.063 -11.28,-8.11 0,-2.312 1.52,-3.609 4.05,-3.609 2.97,0 4.7,1.891 5.51,6.156 h 1.67 v -5.844 m 5.94,10.266 c 0,7.016 5.66,12.906 12.47,12.906 6.91,0 12.16,-5.609 12.16,-12.953 0,-7.344 -5.19,-12.531 -12.6,-12.531 -6.68,0 -12.03,5.562 -12.03,12.578 m 5.13,-2.047 c 0,-6.265 2.64,-8.531 6.68,-8.531 6.11,0 7.96,9.172 7.96,13.812 0,4.704 -2.6,7.672 -6.82,7.672 -5.56,0 -7.82,-8.156 -7.82,-12.953 m 31,-3.734 c 2.31,-1.938 4.59,-3.188 7.07,-3.188 3.5,0 5.07,2.547 5.07,5.938 v 8.969 c 0,2.921 -1.24,4.437 -4.38,4.437 v 1.938 h 12.75 v -1.938 c -3.08,-0.328 -3.83,-1.625 -3.83,-4.328 V 21 c 0,-5.828 -2.92,-8.359 -7.93,-8.359 -2.97,0 -6.44,1.672 -8.64,4.594 h -0.11 v -4.594 h -1.36 l -6.8,2.531 v 1.25 l 3.63,2.047 v 13.016 c 0,2.703 -1.3,4 -4,4.109 v 1.938 h 12.9 v -1.938 c -3.19,0 -4.37,-1.469 -4.37,-4.437 V 19.438 m 29.37,12.047 c -1.83,0 -3.3,1.453 -3.3,3.297 0,1.828 1.47,3.343 3.3,3.343 1.85,0 3.35,-1.515 3.35,-3.343 0,-1.844 -1.5,-3.297 -3.35,-3.297"
     id="path266" />
  <path
     class="Lyrics"
     d="m 1364.6096,304.507 c 2.16,-3.078 3.14,-4 4.43,-4 1.79,0 2.21,2.531 4.06,2.531 1.67,0 2.2,-3.234 2.2,-3.5 0,-1.094 -1.61,-3.078 -3.98,-3.078 -2.82,0 -4.16,1.125 -6.6,5.125 h -0.11 v -5.344 h -1.34 l -7.19,2.906 v 1.25 l 4,2 v 12.625 c 0,3.079 -1.84,4.172 -4,4.172 v 1.938 h 14.05 v -1.938 c -4.77,0 -5.52,-1.14 -5.52,-5.187 v -9.5 m 16.8,10.734 c 0,2.703 -1.84,3.953 -3.89,3.953 v 1.938 h 11.77 v -1.938 c -1.94,-0.062 -3.35,-1.359 -3.35,-4.328 v -18.625 h -1.36 l -7.28,2.641 v 1.25 l 4.11,2.047 v 13.062 m -0.87,-28.719 c 0,1.61 1.29,2.907 2.92,2.907 1.62,0 2.9,-1.297 2.9,-2.907 0,-1.625 -1.28,-2.921 -2.9,-2.921 -1.63,0 -2.92,1.296 -2.92,2.921"
     id="path268" />
  <path
     class="Lyrics"
     d="m 891.80956,284.304 v 2.047 c 4.75,0 5.72,2.109 5.72,6 v 20.953 c 0,4.156 -1.46,5.781 -5.72,5.781 v 2.047 h 17.44 v -2.047 c -4.8,0 -6.05,-1.953 -6.05,-5.297 v -22.359 c 0,-3.672 1.89,-5.078 5.73,-5.078 v -2.047 h -17.12 m 23.17,0 v 2.047 c 2.27,0 3.3,0.812 3.3,2.218 0,2.157 -4.22,6.422 -14.64,13.61 l 0.7,0.64 c 9.17,7.735 15.87,14.688 20.41,18.313 h 9.51 v -2.156 c -2.28,-0.438 -4.17,-1.188 -7.19,-3.454 -5.45,-4.171 -12.2,-11.187 -17.23,-15.015 7.56,-5.563 10.37,-9.078 13.78,-11.61 2.16,-1.625 4,-2.265 6.64,-2.546 v -2.047 h -15.28 m 28.73,37.093 c -1.4,4.657 -2.7,6.485 -4.75,6.485 -1.93,0 -1.93,-1.735 -3.82,-1.735 -1.3,0 -2.33,0.985 -2.33,2.219 0,1.844 1.78,3.078 4.33,3.078 3.23,0 5.5,-1.828 7.06,-5.781 l 8.97,-22.781 c 1.08,-2.75 1.73,-3.672 3.78,-4.11 v -1.937 h -9.34 v 1.937 c 3.29,0.172 4.04,2.219 2.96,5.032 l -4.64,11.812 -5.56,-12.734 c -1.25,-2.813 -0.55,-4 2.64,-4.11 v -1.937 h -11.76 v 1.937 c 1.73,0 2.48,0 3.89,3.188 l 8.57,19.437"
     id="path270" />
  <path
     class="Lyrics"
     d="m 729.50856,306.179 c 0,-3.844 -3.016,-9.938 -9.984,-9.938 -6.375,0 -11.282,5.61 -11.282,13.016 0,7.234 4.688,12.469 11.219,12.469 4.109,0 7.734,-2.11 10.047,-5.891 l -1.125,-1.016 c -2.063,1.782 -4.219,2.594 -6.75,2.594 -5.031,0 -9.609,-4 -9.344,-11.234 h 17.219 m -16.891,-1.953 c 0.485,-3.672 2.75,-5.985 5.875,-5.985 2.969,0 4.922,2.156 5.344,5.985 h -11.219 m 20.078,25.171 c 6.86,-0.109 10.797,-3.453 10.797,-9.187 0,-4.484 -2.422,-7.875 -5.609,-7.875 -2.109,0 -3.453,1.297 -3.453,3.391 0,1.953 1.234,3.078 3.344,3.078 1.89,0 2.593,0.984 2.593,3.078 0,3.469 -2.859,4.969 -7.672,5.515 v 2"
     id="path272" />
  <path
     class="Lyrics"
     d="m 557.80256,304.507 c 2.156,-3.078 3.141,-4 4.422,-4 1.797,0 2.219,2.531 4.062,2.531 1.672,0 2.204,-3.234 2.204,-3.5 0,-1.094 -1.61,-3.078 -3.985,-3.078 -2.812,0 -4.156,1.125 -6.594,5.125 h -0.109 v -5.344 h -1.344 l -7.187,2.906 v 1.25 l 4,2 v 12.625 c 0,3.079 -1.844,4.172 -4,4.172 v 1.938 h 14.047 v -1.938 c -4.766,0 -5.516,-1.14 -5.516,-5.187 v -9.5 m 16.797,10.734 c 0,2.703 -1.844,3.953 -3.891,3.953 v 1.938 h 11.766 v -1.938 c -1.938,-0.062 -3.344,-1.359 -3.344,-4.328 v -18.625 h -1.359 l -7.281,2.641 v 1.25 l 4.109,2.047 v 13.062 m -0.875,-28.719 c 0,1.61 1.297,2.907 2.922,2.907 1.625,0 2.906,-1.297 2.906,-2.907 0,-1.625 -1.281,-2.921 -2.906,-2.921 -1.625,0 -2.922,1.296 -2.922,2.921"
     id="path274" />
  <path
     class="Lyrics"
     d="m 379.42456,284.304 v 2.047 c 4.75,0 5.719,2.109 5.719,6 v 20.953 c 0,4.156 -1.453,5.781 -5.719,5.781 v 2.047 h 17.438 v -2.047 c -4.797,0 -6.047,-1.953 -6.047,-5.297 v -22.359 c 0,-3.672 1.891,-5.078 5.734,-5.078 v -2.047 h -17.125 m 23.172,0 v 2.047 c 2.266,0 3.297,0.812 3.297,2.218 0,2.157 -4.219,6.422 -14.641,13.61 l 0.704,0.64 c 9.171,7.735 15.875,14.688 20.406,18.313 h 9.515 v -2.156 c -2.281,-0.438 -4.171,-1.188 -7.187,-3.454 -5.453,-4.171 -12.203,-11.187 -17.234,-15.015 7.562,-5.563 10.375,-9.078 13.781,-11.61 2.156,-1.625 4,-2.265 6.64,-2.546 v -2.047 h -15.281 m 28.735,37.093 c -1.407,4.657 -2.704,6.485 -4.75,6.485 -1.938,0 -1.938,-1.735 -3.829,-1.735 -1.296,0 -2.328,0.985 -2.328,2.219 0,1.844 1.782,3.078 4.328,3.078 3.235,0 5.5,-1.828 7.063,-5.781 l 8.969,-22.781 c 1.078,-2.75 1.734,-3.672 3.781,-4.11 v -1.937 h -9.344 v 1.937 c 3.297,0.172 4.047,2.219 2.969,5.032 l -4.641,11.812 -5.562,-12.734 c -1.25,-2.813 -0.547,-4 2.64,-4.11 v -1.937 h -11.765 v 1.937 c 1.734,0 2.484,0 3.89,3.188 l 8.579,19.437"
     id="path276" />
  <path
     class="Lyrics"
     d="m 1578.9796,306.179 c 0,-3.844 -3.02,-9.938 -9.99,-9.938 -6.37,0 -11.28,5.61 -11.28,13.016 0,7.234 4.69,12.469 11.22,12.469 4.11,0 7.73,-2.11 10.05,-5.891 l -1.13,-1.016 c -2.06,1.782 -4.22,2.594 -6.75,2.594 -5.03,0 -9.61,-4 -9.34,-11.234 h 17.22 m -16.9,-1.953 c 0.49,-3.672 2.75,-5.985 5.88,-5.985 2.97,0 4.92,2.156 5.34,5.985 h -11.22 m 20.08,25.171 c 6.86,-0.109 10.8,-3.453 10.8,-9.187 0,-4.484 -2.42,-7.875 -5.61,-7.875 -2.11,0 -3.45,1.297 -3.45,3.391 0,1.953 1.23,3.078 3.34,3.078 1.89,0 2.59,0.984 2.59,3.078 0,3.469 -2.85,4.969 -7.67,5.515 v 2"
     id="path278" />
  <path
     class="Lyrics"
     d="m 397.10756,380.904 v 2.047 c 4.75,0 5.718,2.109 5.718,6 v 20.953 c 0,4.156 -1.453,5.781 -5.718,5.781 v 2.047 h 17.437 v -2.047 c -4.797,0 -6.047,-1.953 -6.047,-5.297 v -22.359 c 0,-3.672 1.891,-5.078 5.735,-5.078 v -2.047 h -17.125 m 23.172,0 v 2.047 c 2.265,0 3.296,0.812 3.296,2.218 0,2.157 -4.218,6.422 -14.64,13.61 l 0.703,0.64 c 9.172,7.735 15.875,14.688 20.406,18.313 h 9.516 v -2.156 c -2.281,-0.438 -4.172,-1.188 -7.188,-3.453 -5.453,-4.172 -12.203,-11.188 -17.234,-15.016 7.562,-5.563 10.375,-9.078 13.781,-11.609 2.156,-1.625 4,-2.266 6.641,-2.547 v -2.047 h -15.281 m 28.734,37.094 c -1.406,4.656 -2.703,6.484 -4.75,6.484 -1.938,0 -1.938,-1.734 -3.828,-1.734 -1.297,0 -2.328,0.984 -2.328,2.218 0,1.844 1.781,3.078 4.328,3.078 3.234,0 5.5,-1.828 7.062,-5.781 l 8.969,-22.781 c 1.078,-2.75 1.734,-3.672 3.781,-4.109 v -1.938 h -9.343 v 1.938 c 3.296,0.171 4.046,2.218 2.968,5.031 l -4.64,11.812 -5.563,-12.734 c -1.25,-2.813 -0.547,-4 2.641,-4.109 v -1.938 h -11.766 v 1.938 c 1.735,0 2.485,0 3.891,3.187 l 8.578,19.438"
     id="path280" />
  <path
     class="Lyrics"
     d="m 1850.4296,395.154 c -2,-1.563 -4.43,-2.313 -7.29,-2.313 -4.64,0 -7.88,2.75 -7.88,6.688 0,1.578 0.6,3.406 1.67,4.484 4.43,4.438 11.55,4.328 11.55,8.485 0,2.203 -2.05,3.828 -4.91,3.828 -3.23,0 -5.23,-2.313 -5.78,-6.532 h -1.78 v 6.797 c 2.05,1.032 5.24,1.735 7.94,1.735 5.08,0 8.27,-2.703 8.27,-7.125 0,-1.782 -0.6,-3.516 -1.74,-4.641 -3.08,-3.078 -11.28,-4.062 -11.28,-8.109 0,-2.313 1.52,-3.61 4.05,-3.61 2.97,0 4.7,1.891 5.51,6.157 h 1.67 v -5.844 m 5.94,10.265 c 0,7.016 5.66,12.907 12.47,12.907 6.91,0 12.16,-5.61 12.16,-12.953 0,-7.344 -5.19,-12.532 -12.6,-12.532 -6.68,0 -12.03,5.563 -12.03,12.578 m 5.13,-2.046 c 0,-6.266 2.64,-8.532 6.68,-8.532 6.11,0 7.96,9.172 7.96,13.813 0,4.703 -2.6,7.672 -6.82,7.672 -5.56,0 -7.82,-8.157 -7.82,-12.953 m 31,-3.735 c 2.31,-1.937 4.59,-3.187 7.07,-3.187 3.5,0 5.07,2.547 5.07,5.937 v 8.969 c 0,2.922 -1.24,4.437 -4.38,4.437 v 1.938 h 12.75 v -1.938 c -3.08,-0.328 -3.83,-1.625 -3.83,-4.328 v -10.265 c 0,-5.828 -2.92,-8.36 -7.93,-8.36 -2.97,0 -6.44,1.672 -8.64,4.594 h -0.11 v -4.594 h -1.36 l -6.8,2.532 v 1.25 l 3.63,2.046 v 13.016 c 0,2.703 -1.3,4 -4,4.109 v 1.938 h 12.9 v -1.938 c -3.19,0 -4.37,-1.468 -4.37,-4.437 v -11.719 m 29.37,12.047 c -1.83,0 -3.3,1.453 -3.3,3.297 0,1.828 1.47,3.344 3.3,3.344 1.85,0 3.35,-1.516 3.35,-3.344 0,-1.844 -1.5,-3.297 -3.35,-3.297"
     id="path282" />
  <path
     class="Lyrics"
     d="m 710.63356,401.107 c 2.156,-3.078 3.141,-4 4.422,-4 1.797,0 2.219,2.531 4.062,2.531 1.672,0 2.203,-3.234 2.203,-3.5 0,-1.094 -1.609,-3.078 -3.984,-3.078 -2.812,0 -4.156,1.125 -6.594,5.125 h -0.109 v -5.344 h -1.344 l -7.187,2.907 v 1.25 l 4,2 v 12.625 c 0,3.078 -1.844,4.171 -4,4.171 v 1.938 h 14.047 v -1.938 c -4.766,0 -5.516,-1.14 -5.516,-5.187 v -9.5 m 16.797,10.734 c 0,2.703 -1.844,3.953 -3.891,3.953 v 1.938 h 11.766 v -1.938 c -1.938,-0.062 -3.344,-1.359 -3.344,-4.328 v -18.625 h -1.359 l -7.282,2.641 v 1.25 l 4.11,2.047 v 13.062 m -0.875,-28.718 c 0,1.609 1.297,2.906 2.922,2.906 1.625,0 2.906,-1.297 2.906,-2.906 0,-1.625 -1.281,-2.922 -2.906,-2.922 -1.625,0 -2.922,1.297 -2.922,2.922"
     id="path284" />
  <path
     class="Lyrics"
     d="m 1072.0096,402.779 c 0,-3.844 -3.02,-9.938 -9.99,-9.938 -6.37,0 -11.28,5.61 -11.28,13.016 0,7.234 4.69,12.469 11.22,12.469 4.11,0 7.74,-2.11 10.05,-5.891 l -1.13,-1.016 c -2.06,1.782 -4.21,2.594 -6.75,2.594 -5.03,0 -9.61,-4 -9.34,-11.234 h 17.22 m -16.89,-1.953 c 0.48,-3.672 2.75,-5.985 5.87,-5.985 2.97,0 4.93,2.157 5.35,5.985 h -11.22"
     id="path286" />
  <path
     class="Lyrics"
     d="m 1364.8596,380.201 h -1.36 l -6.91,2.484 v 1.25 l 3.72,2.047 v 25.703 c 0,2.328 -1.01,3.938 -3.72,4.109 v 1.938 h 11.61 v -1.938 c -2.44,-0.171 -3.34,-1.781 -3.34,-4.484 v -31.109 m 28.81,22.578 c 0,-3.844 -3.01,-9.938 -9.98,-9.938 -6.38,0 -11.28,5.61 -11.28,13.016 0,7.234 4.68,12.469 11.21,12.469 4.11,0 7.74,-2.11 10.05,-5.891 l -1.12,-1.016 c -2.07,1.782 -4.22,2.594 -6.75,2.594 -5.04,0 -9.61,-4 -9.35,-11.234 h 17.22 m -16.89,-1.953 c 0.48,-3.672 2.75,-5.985 5.88,-5.985 2.96,0 4.92,2.157 5.34,5.985 h -11.22 m 23.81,11.015 c 0,2.703 -1.84,3.953 -3.89,3.953 v 1.938 h 11.77 v -1.938 c -1.94,-0.062 -3.35,-1.359 -3.35,-4.328 v -18.625 h -1.36 l -7.28,2.641 v 1.25 l 4.11,2.047 v 13.062 m -0.87,-28.718 c 0,1.609 1.29,2.906 2.92,2.906 1.62,0 2.91,-1.297 2.91,-2.906 0,-1.625 -1.29,-2.922 -2.91,-2.922 -1.63,0 -2.92,1.297 -2.92,2.922"
     id="path288" />
  <path
     class="Lyrics"
     d="m 924.49956,402.779 c 0,-3.844 -3.02,-9.938 -9.99,-9.938 -6.37,0 -11.28,5.61 -11.28,13.016 0,7.234 4.69,12.469 11.22,12.469 4.11,0 7.73,-2.11 10.05,-5.891 l -1.13,-1.016 c -2.06,1.782 -4.22,2.594 -6.75,2.594 -5.03,0 -9.61,-4 -9.34,-11.234 h 17.22 m -16.89,-1.953 c 0.48,-3.672 2.75,-5.985 5.87,-5.985 2.97,0 4.92,2.157 5.34,5.985 h -11.21"
     id="path290" />
  <path
     class="Lyrics"
     d="m 397.10756,753.503 v 2.05 c 4.75,0 5.718,2.11 5.718,6 v 20.95 c 0,4.16 -1.453,5.78 -5.718,5.78 v 2.05 h 17.437 v -2.05 c -4.797,0 -6.047,-1.95 -6.047,-5.29 v -22.36 c 0,-3.68 1.891,-5.08 5.735,-5.08 v -2.05 h -17.125 m 23.172,0 v 2.05 c 2.265,0 3.296,0.81 3.296,2.22 0,2.15 -4.218,6.42 -14.64,13.61 l 0.703,0.64 c 9.172,7.73 15.875,14.68 20.406,18.31 h 9.516 v -2.16 c -2.281,-0.43 -4.172,-1.18 -7.188,-3.45 -5.453,-4.17 -12.203,-11.19 -17.234,-15.02 7.562,-5.56 10.375,-9.07 13.781,-11.61 2.156,-1.62 4,-2.26 6.641,-2.54 v -2.05 h -15.281 m 28.734,37.09 c -1.406,4.66 -2.703,6.49 -4.75,6.49 -1.938,0 -1.938,-1.74 -3.828,-1.74 -1.297,0 -2.328,0.99 -2.328,2.22 0,1.85 1.781,3.08 4.328,3.08 3.234,0 5.5,-1.83 7.062,-5.78 l 8.969,-22.78 c 1.078,-2.75 1.734,-3.67 3.781,-4.11 v -1.94 h -9.343 v 1.94 c 3.296,0.17 4.046,2.22 2.968,5.03 l -4.64,11.81 -5.563,-12.73 c -1.25,-2.81 -0.547,-4 2.641,-4.11 v -1.94 h -11.766 v 1.94 c 1.735,0 2.485,0 3.891,3.19 l 8.578,19.43"
     id="path292" />
  <path
     class="Lyrics"
     d="m 1077.3296,775.383 c 0,-3.85 -3.02,-9.94 -9.99,-9.94 -6.37,0 -11.28,5.61 -11.28,13.01 0,7.24 4.69,12.47 11.22,12.47 4.11,0 7.73,-2.11 10.05,-5.89 l -1.13,-1.01 c -2.06,1.78 -4.22,2.59 -6.75,2.59 -5.03,0 -9.61,-4 -9.34,-11.23 h 17.22 m -16.89,-1.96 c 0.48,-3.67 2.75,-5.98 5.87,-5.98 2.97,0 4.92,2.15 5.34,5.98 h -11.21"
     id="path294" />
  <path
     class="Lyrics"
     d="m 1850.4296,767.753 c -2,-1.56 -4.43,-2.31 -7.29,-2.31 -4.64,0 -7.88,2.75 -7.88,6.69 0,1.57 0.6,3.4 1.67,4.48 4.43,4.44 11.55,4.33 11.55,8.48 0,2.21 -2.05,3.83 -4.91,3.83 -3.23,0 -5.23,-2.31 -5.78,-6.53 h -1.78 v 6.8 c 2.05,1.03 5.24,1.73 7.94,1.73 5.08,0 8.27,-2.7 8.27,-7.12 0,-1.78 -0.6,-3.52 -1.74,-4.64 -3.08,-3.08 -11.28,-4.07 -11.28,-8.11 0,-2.31 1.52,-3.61 4.05,-3.61 2.97,0 4.7,1.89 5.51,6.15 h 1.67 v -5.84 m 5.94,10.27 c 0,7.01 5.66,12.9 12.47,12.9 6.91,0 12.16,-5.61 12.16,-12.95 0,-7.34 -5.19,-12.53 -12.6,-12.53 -6.68,0 -12.03,5.56 -12.03,12.58 m 5.13,-2.05 c 0,-6.27 2.64,-8.53 6.68,-8.53 6.11,0 7.96,9.17 7.96,13.81 0,4.7 -2.6,7.67 -6.82,7.67 -5.56,0 -7.82,-8.15 -7.82,-12.95 m 31,-3.73 c 2.31,-1.94 4.59,-3.19 7.07,-3.19 3.5,0 5.07,2.54 5.07,5.94 v 8.96 c 0,2.93 -1.24,4.44 -4.38,4.44 v 1.94 h 12.75 v -1.94 c -3.08,-0.33 -3.83,-1.62 -3.83,-4.33 v -10.26 c 0,-5.83 -2.92,-8.36 -7.93,-8.36 -2.97,0 -6.44,1.67 -8.64,4.59 h -0.11 v -4.59 h -1.36 l -6.8,2.53 v 1.25 l 3.63,2.05 v 13.01 c 0,2.71 -1.3,4 -4,4.11 v 1.94 h 12.9 v -1.94 c -3.19,0 -4.37,-1.47 -4.37,-4.44 v -11.71 m 29.37,12.04 c -1.83,0 -3.3,1.46 -3.3,3.3 0,1.83 1.47,3.34 3.3,3.34 1.85,0 3.35,-1.51 3.35,-3.34 0,-1.84 -1.5,-3.3 -3.35,-3.3"
     id="path296" />
  <path
     class="Lyrics"
     d="m 710.63356,773.703 c 2.156,-3.07 3.141,-4 4.422,-4 1.797,0 2.219,2.54 4.062,2.54 1.672,0 2.203,-3.24 2.203,-3.5 0,-1.1 -1.609,-3.08 -3.984,-3.08 -2.812,0 -4.156,1.12 -6.594,5.12 h -0.109 v -5.34 h -1.344 l -7.187,2.9 v 1.25 l 4,2 v 12.63 c 0,3.08 -1.844,4.17 -4,4.17 v 1.94 h 14.047 v -1.94 c -4.766,0 -5.516,-1.14 -5.516,-5.19 v -9.5 m 16.797,10.74 c 0,2.7 -1.844,3.95 -3.891,3.95 v 1.94 h 11.766 v -1.94 c -1.938,-0.06 -3.344,-1.36 -3.344,-4.33 v -18.62 h -1.359 l -7.282,2.64 v 1.25 l 4.11,2.05 v 13.06 m -0.875,-28.72 c 0,1.61 1.297,2.91 2.922,2.91 1.625,0 2.906,-1.3 2.906,-2.91 0,-1.63 -1.281,-2.92 -2.906,-2.92 -1.625,0 -2.922,1.29 -2.922,2.92"
     id="path298" />
  <path
     class="Lyrics"
     d="m 924.49956,775.383 c 0,-3.85 -3.02,-9.94 -9.99,-9.94 -6.37,0 -11.28,5.61 -11.28,13.01 0,7.24 4.69,12.47 11.22,12.47 4.11,0 7.73,-2.11 10.05,-5.89 l -1.13,-1.01 c -2.06,1.78 -4.22,2.59 -6.75,2.59 -5.03,0 -9.61,-4 -9.34,-11.23 h 17.22 m -16.89,-1.96 c 0.48,-3.67 2.75,-5.98 5.87,-5.98 2.97,0 4.92,2.15 5.34,5.98 h -11.21"
     id="path300" />
  <path
     class="Lyrics"
     d="m 1205.5796,752.803 h -1.36 l -6.91,2.48 v 1.25 l 3.72,2.05 v 25.7 c 0,2.33 -1.01,3.94 -3.72,4.11 v 1.94 h 11.61 v -1.94 c -2.43,-0.17 -3.34,-1.78 -3.34,-4.48 v -31.11 m 28.81,22.58 c 0,-3.85 -3.01,-9.94 -9.98,-9.94 -6.38,0 -11.28,5.61 -11.28,13.01 0,7.24 4.68,12.47 11.22,12.47 4.1,0 7.73,-2.11 10.04,-5.89 l -1.12,-1.01 c -2.07,1.78 -4.22,2.59 -6.75,2.59 -5.03,0 -9.61,-4 -9.35,-11.23 h 17.22 m -16.89,-1.96 c 0.49,-3.67 2.75,-5.98 5.88,-5.98 2.97,0 4.92,2.15 5.34,5.98 h -11.22 m 23.81,11.02 c 0,2.7 -1.84,3.95 -3.89,3.95 v 1.94 h 11.77 v -1.94 c -1.94,-0.06 -3.34,-1.36 -3.34,-4.33 v -18.62 h -1.36 l -7.29,2.64 v 1.25 l 4.11,2.05 v 13.06 m -0.87,-28.72 c 0,1.61 1.3,2.91 2.92,2.91 1.63,0 2.91,-1.3 2.91,-2.91 0,-1.63 -1.28,-2.92 -2.91,-2.92 -1.62,0 -2.92,1.29 -2.92,2.92"
     id="path302" />
  <polyline
     class="LyricsLineSegment"
     fill="none"
     stroke="#000000"
     stroke-width="2.48"
     stroke-linejoin="bevel"
     points="810.71,312.02 830.55,312.02"
     id="polyline304"
     transform="translate(-175.88044,-289.067)" />
  <polyline
     class="LyricsLineSegment"
     fill="none"
     stroke="#000000"
     stroke-width="2.48"
     stroke-linejoin="bevel"
     points="1957.09,312.02 1976.93,312.02"
     id="polyline306"
     transform="translate(-175.88044,-289.067)" />
  <polyline
     class="LyricsLineSegment"
     fill="none"
     stroke="#000000"
     stroke-width="2.48"
     stroke-linejoin="bevel"
     points="663.879,312.02 683.719,312.02"
     id="polyline308"
     transform="translate(-175.88044,-289.067)" />
  <polyline
     class="LyricsLineSegment"
     fill="none"
     stroke="#000000"
     stroke-width="2.48"
     stroke-linejoin="bevel"
     points="1284.66,312.02 1304.5,312.02"
     id="polyline310"
     transform="translate(-175.88044,-289.067)" />
  <polyline
     class="LyricsLineSegment"
     fill="none"
     stroke="#000000"
     stroke-width="2.48"
     stroke-linejoin="bevel"
     points="1667.51,312.02 1687.35,312.02"
     id="polyline312"
     transform="translate(-175.88044,-289.067)" />
  <polyline
     class="LyricsLineSegment"
     fill="none"
     stroke="#000000"
     stroke-width="2.48"
     stroke-linejoin="bevel"
     points="663.879,595.621 683.719,595.621"
     id="polyline314"
     transform="translate(-175.88044,-289.067)" />
  <polyline
     class="LyricsLineSegment"
     fill="none"
     stroke="#000000"
     stroke-width="2.48"
     stroke-linejoin="bevel"
     points="1639.1,595.621 1658.94,595.621"
     id="polyline316"
     transform="translate(-175.88044,-289.067)" />
  <polyline
     class="LyricsLineSegment"
     fill="none"
     stroke="#000000"
     stroke-width="2.48"
     stroke-linejoin="bevel"
     points="810.96,595.621 830.8,595.621"
     id="polyline318"
     transform="translate(-175.88044,-289.067)" />
  <polyline
     class="LyricsLineSegment"
     fill="none"
     stroke="#000000"
     stroke-width="2.48"
     stroke-linejoin="bevel"
     points="1323.48,595.621 1343.32,595.621"
     id="polyline320"
     transform="translate(-175.88044,-289.067)" />
  <polyline
     class="LyricsLineSegment"
     fill="none"
     stroke="#000000"
     stroke-width="2.48"
     stroke-linejoin="bevel"
     points="749.135,692.221 768.975,692.221"
     id="polyline322"
     transform="translate(-175.88044,-289.067)" />
  <polyline
     class="LyricsLineSegment"
     fill="none"
     stroke="#000000"
     stroke-width="2.48"
     stroke-linejoin="bevel"
     points="1380.21,692.221 1400.05,692.221"
     id="polyline324"
     transform="translate(-175.88044,-289.067)" />
  <polyline
     class="LyricsLineSegment"
     fill="none"
     stroke="#000000"
     stroke-width="2.48"
     stroke-linejoin="bevel"
     points="1788.02,692.221 1807.86,692.221"
     id="polyline326"
     transform="translate(-175.88044,-289.067)" />
  <polyline
     class="LyricsLineSegment"
     fill="none"
     stroke="#000000"
     stroke-width="2.48"
     stroke-linejoin="bevel"
     points="984.869,692.221 1004.71,692.221"
     id="polyline328"
     transform="translate(-175.88044,-289.067)" />
  <polyline
     class="LyricsLineSegment"
     fill="none"
     stroke="#000000"
     stroke-width="2.48"
     stroke-linejoin="bevel"
     points="1708.38,1064.82 1728.22,1064.82"
     id="polyline330"
     transform="translate(-175.88044,-289.067)" />
  <polyline
     class="LyricsLineSegment"
     fill="none"
     stroke="#000000"
     stroke-width="2.48"
     stroke-linejoin="bevel"
     points="984.869,1064.82 1004.71,1064.82"
     id="polyline332"
     transform="translate(-175.88044,-289.067)" />
  <polyline
     class="LyricsLineSegment"
     fill="none"
     stroke="#000000"
     stroke-width="2.48"
     stroke-linejoin="bevel"
     points="749.135,1064.82 768.975,1064.82"
     id="polyline334"
     transform="translate(-175.88044,-289.067)" />
  <polyline
     class="LyricsLineSegment"
     fill="none"
     stroke="#000000"
     stroke-width="2.48"
     stroke-linejoin="bevel"
     points="1303.23,1064.82 1323.07,1064.82"
     id="polyline336"
     transform="translate(-175.88044,-289.067)" />
  <path
     class="Bracket"
     d="M 6.4615625,375.15627 C 16.912438,365.11863 28.768018,325.83365 28.768018,293.1245 c 0,-2.76901 0,-6.05692 -0.39333,-8.82593 -2.47225,-33.22806 -13.26025,-84.71438 -13.26025,-114.65453 0,-28.81482 8.25958,-56.50487 10.05758,-61.43702 1.067545,-3.37486 1.798,-3.89377 1.798,-5.53801 0,-1.73063 -1.06758,-3.893775 -2.19133,-3.893775 -0.67425,0 -1.40467,1.12477 -2.865545,3.893775 -7.922455,14.8834 -17.5867055,47.07309 -17.5867055,102.45319 0,54.77424 12.5860005,76.92628 12.5860005,111.88496 0,25.95943 -6.854875,40.41031 -16.912438,58.14911 6.4615625,11.07602 16.912438,19.9025 16.912438,55.89957 0,38.76607 -12.5860005,73.1189 -12.5860005,113.5292 0,55.37993 9.6642505,87.48311 17.5867055,103.05877 1.460875,2.769 2.191295,3.28819 2.865545,3.28819 1.12375,0 2.19133,-1.6441 2.19133,-3.28819 0,-1.73063 -0.39333,-2.76901 -1.798,-6.14376 -1.798,-4.41307 -10.05758,-32.10313 -10.05758,-61.43741 0,-29.33429 10.788,-81.42591 13.26025,-114.13506 0.39333,-2.76901 0.39333,-5.53801 0.39333,-8.82593 0,-32.70915 -11.85558,-71.99413 -22.3064555,-81.94538"
     id="path338"
     style="stroke-width:4.46259" />
</svg>
