<?xml version="1.0" encoding="UTF-8" standalone="no"?>
<svg
   width="2552.0071"
   height="893.40619"
   viewBox="0 0 2552.0071 893.40621"
   version="1.2"
   id="svg252"
   sodipodi:docname="Vorgabe-1.svg"
   inkscape:version="1.2.1 (9c6d41e410, 2022-07-14)"
   xmlns:inkscape="http://www.inkscape.org/namespaces/inkscape"
   xmlns:sodipodi="http://sodipodi.sourceforge.net/DTD/sodipodi-0.dtd"
   xmlns="http://www.w3.org/2000/svg"
   xmlns:svg="http://www.w3.org/2000/svg">
  <defs
     id="defs256" />
  <sodipodi:namedview
     id="namedview254"
     pagecolor="#505050"
     bordercolor="#eeeeee"
     borderopacity="1"
     inkscape:showpageshadow="0"
     inkscape:pageopacity="0"
     inkscape:pagecheckerboard="0"
     inkscape:deskcolor="#505050"
     showgrid="false"
     inkscape:zoom="0.25021386"
     inkscape:cx="855.26836"
     inkscape:cy="1754.4991"
     inkscape:current-layer="svg252" />
  <title
     id="title2">Vorgabe</title>
  <desc
     id="desc4">Generated by MuseScore 4.0.0</desc>
  <polyline
     class="StaffLines"
     fill="none"
     stroke="#000000"
     stroke-width="3.22"
     stroke-linejoin="bevel"
     points="212.598,386.199 2764.6,386.199"
     id="polyline8"
     transform="translate(-212.598,-351.66439)" />
  <polyline
     class="StaffLines"
     fill="none"
     stroke="#000000"
     stroke-width="3.22"
     stroke-linejoin="bevel"
     points="212.598,410.999 2764.6,410.999"
     id="polyline10"
     transform="translate(-212.598,-351.66439)" />
  <polyline
     class="StaffLines"
     fill="none"
     stroke="#000000"
     stroke-width="3.22"
     stroke-linejoin="bevel"
     points="212.598,435.799 2764.6,435.799"
     id="polyline12"
     transform="translate(-212.598,-351.66439)" />
  <polyline
     class="StaffLines"
     fill="none"
     stroke="#000000"
     stroke-width="3.22"
     stroke-linejoin="bevel"
     points="212.598,460.599 2764.6,460.599"
     id="polyline14"
     transform="translate(-212.598,-351.66439)" />
  <polyline
     class="StaffLines"
     fill="none"
     stroke="#000000"
     stroke-width="3.22"
     stroke-linejoin="bevel"
     points="212.598,485.399 2764.6,485.399"
     id="polyline16"
     transform="translate(-212.598,-351.66439)" />
  <polyline
     class="StaffLines"
     fill="none"
     stroke="#000000"
     stroke-width="3.22"
     stroke-linejoin="bevel"
     points="212.598,745.799 2764.6,745.799"
     id="polyline18"
     transform="translate(-212.598,-351.66439)" />
  <polyline
     class="StaffLines"
     fill="none"
     stroke="#000000"
     stroke-width="3.22"
     stroke-linejoin="bevel"
     points="212.598,770.599 2764.6,770.599"
     id="polyline20"
     transform="translate(-212.598,-351.66439)" />
  <polyline
     class="StaffLines"
     fill="none"
     stroke="#000000"
     stroke-width="3.22"
     stroke-linejoin="bevel"
     points="212.598,795.399 2764.6,795.399"
     id="polyline22"
     transform="translate(-212.598,-351.66439)" />
  <polyline
     class="StaffLines"
     fill="none"
     stroke="#000000"
     stroke-width="3.22"
     stroke-linejoin="bevel"
     points="212.598,820.199 2764.6,820.199"
     id="polyline24"
     transform="translate(-212.598,-351.66439)" />
  <polyline
     class="StaffLines"
     fill="none"
     stroke="#000000"
     stroke-width="3.22"
     stroke-linejoin="bevel"
     points="212.598,844.999 2764.6,844.999"
     id="polyline26"
     transform="translate(-212.598,-351.66439)" />
  <polyline
     class="StaffLines"
     fill="none"
     stroke="#000000"
     stroke-width="3.22"
     stroke-linejoin="bevel"
     points="212.598,1105.4 892.987,1105.4"
     id="polyline28"
     transform="translate(-212.598,-351.66439)" />
  <polyline
     class="StaffLines"
     fill="none"
     stroke="#000000"
     stroke-width="3.22"
     stroke-linejoin="bevel"
     points="212.598,1130.2 892.987,1130.2"
     id="polyline30"
     transform="translate(-212.598,-351.66439)" />
  <polyline
     class="StaffLines"
     fill="none"
     stroke="#000000"
     stroke-width="3.22"
     stroke-linejoin="bevel"
     points="212.598,1155 892.987,1155"
     id="polyline32"
     transform="translate(-212.598,-351.66439)" />
  <polyline
     class="StaffLines"
     fill="none"
     stroke="#000000"
     stroke-width="3.22"
     stroke-linejoin="bevel"
     points="212.598,1179.8 892.987,1179.8"
     id="polyline34"
     transform="translate(-212.598,-351.66439)" />
  <polyline
     class="StaffLines"
     fill="none"
     stroke="#000000"
     stroke-width="3.22"
     stroke-linejoin="bevel"
     points="212.598,1204.6 892.987,1204.6"
     id="polyline36"
     transform="translate(-212.598,-351.66439)" />
  <polyline
     class="StaffLines"
     fill="none"
     stroke="#000000"
     stroke-width="3.22"
     stroke-linejoin="bevel"
     points="892.987,1105.4 1392.3,1105.4"
     id="polyline38"
     transform="translate(-212.598,-351.66439)" />
  <polyline
     class="StaffLines"
     fill="none"
     stroke="#000000"
     stroke-width="3.22"
     stroke-linejoin="bevel"
     points="892.987,1130.2 1392.3,1130.2"
     id="polyline40"
     transform="translate(-212.598,-351.66439)" />
  <polyline
     class="StaffLines"
     fill="none"
     stroke="#000000"
     stroke-width="3.22"
     stroke-linejoin="bevel"
     points="892.987,1155 1392.3,1155"
     id="polyline42"
     transform="translate(-212.598,-351.66439)" />
  <polyline
     class="StaffLines"
     fill="none"
     stroke="#000000"
     stroke-width="3.22"
     stroke-linejoin="bevel"
     points="892.987,1179.8 1392.3,1179.8"
     id="polyline44"
     transform="translate(-212.598,-351.66439)" />
  <polyline
     class="StaffLines"
     fill="none"
     stroke="#000000"
     stroke-width="3.22"
     stroke-linejoin="bevel"
     points="892.987,1204.6 1392.3,1204.6"
     id="polyline46"
     transform="translate(-212.598,-351.66439)" />
  <polyline
     class="StaffLines"
     fill="none"
     stroke="#000000"
     stroke-width="3.22"
     stroke-linejoin="bevel"
     points="1392.3,1105.4 1764.7,1105.4"
     id="polyline48"
     transform="translate(-212.598,-351.66439)" />
  <polyline
     class="StaffLines"
     fill="none"
     stroke="#000000"
     stroke-width="3.22"
     stroke-linejoin="bevel"
     points="1392.3,1130.2 1764.7,1130.2"
     id="polyline50"
     transform="translate(-212.598,-351.66439)" />
  <polyline
     class="StaffLines"
     fill="none"
     stroke="#000000"
     stroke-width="3.22"
     stroke-linejoin="bevel"
     points="1392.3,1155 1764.7,1155"
     id="polyline52"
     transform="translate(-212.598,-351.66439)" />
  <polyline
     class="StaffLines"
     fill="none"
     stroke="#000000"
     stroke-width="3.22"
     stroke-linejoin="bevel"
     points="1392.3,1179.8 1764.7,1179.8"
     id="polyline54"
     transform="translate(-212.598,-351.66439)" />
  <polyline
     class="StaffLines"
     fill="none"
     stroke="#000000"
     stroke-width="3.22"
     stroke-linejoin="bevel"
     points="1392.3,1204.6 1764.7,1204.6"
     id="polyline56"
     transform="translate(-212.598,-351.66439)" />
  <path
     class="MeasureNumber"
     d="m 17.36,675.82561 h -1.157 c -2.203,1.64 -6.437,3.03 -9.328,3.03 l -0.468,1.76 h 2.75 c 2.437,0 2.718,0.08 2.718,0.8 0,0.36 0,0.36 -0.39,1.8 l -4.282,16 c -0.531,2 -0.562,2.12 -0.921,2.48 -0.407,0.39 -1.25,0.52 -3.36,0.56 H 1.203 l -0.203,1.88 h 14.797 l 0.235,-1.88 h -2.157 c -2.593,0 -3.156,-0.2 -3.156,-1.07 0,-0.28 0.156,-1.21 0.359,-1.97 l 6.282,-23.39 m 17.234,13.75 c 1.891,-0.6 2.641,-0.92 3.609,-1.57 1.875,-1.23 3.032,-3.43 3.032,-5.67 0,-3.79 -3.032,-6.36 -7.516,-6.36 -4.359,0 -8.047,2.72 -8.047,6 0,1.64 1,2.77 2.531,2.77 1.313,0 2.282,-0.97 2.282,-2.28 0,-0.69 -0.203,-1.17 -0.844,-1.8 -0.406,-0.37 -0.563,-0.64 -0.563,-0.92 0,-0.97 2,-1.97 3.875,-1.97 2.688,0 4.282,1.48 4.282,3.97 0,3.55 -2.516,6.91 -5.203,6.91 -0.11,0 -0.469,-0.04 -0.907,-0.08 -1.172,-0.08 -1.172,-0.08 -1.406,-0.08 -0.875,0 -1.359,0.41 -1.359,1.12 0,0.64 0.437,1.04 1.156,1.04 0.203,0 0.484,-0.04 0.797,-0.08 0.562,-0.11 1.172,-0.16 1.531,-0.16 1.875,0 3.156,1.69 3.156,4.16 0,4.33 -2.125,8.48 -6.968,8.48 -2.235,0 -4.157,-1.12 -4.157,-2.4 0,-0.44 0.172,-0.6 0.797,-0.88 1.172,-0.52 1.641,-1.23 1.641,-2.31 0,-1.41 -1.11,-2.49 -2.547,-2.49 -1.719,0 -2.844,1.36 -2.844,3.44 0,3.88 2.953,6.31 7.75,6.31 6.047,0 10.641,-4.03 10.641,-9.39 0,-3.12 -1.922,-4.87 -4.719,-5.76"
     id="path58" />
  <path
     class="MeasureNumber"
     d="m 20.438,316.37861 c -2.125,0.234 -4.719,0.406 -6.953,0.406 -1.125,0 -2.407,-0.047 -3.844,-0.125 -1.328,-0.078 -2.641,-0.156 -4,-0.234 l -1,-0.047 -3.875,8.437 1.469,0.485 0.968,-1.61 c 1.875,-3.109 2.75,-3.547 6.829,-3.515 h 6.765 l -4.359,6.25 c -5.125,7.187 -5.125,7.187 -7.078,10.39 -1.766,2.844 -2.485,4.594 -2.485,6.031 0,1.407 0.891,2.282 2.282,2.282 1.484,0 2.234,-0.719 2.765,-2.594 2,-7.516 3.203,-10.125 8.75,-19.109 l 3.766,-5.844 v -1.203"
     id="path60" />
  <path
     class="TieSegment"
     stroke="#000000"
     stroke-width="2.48"
     stroke-linecap="round"
     stroke-linejoin="round"
     fill-rule="evenodd"
     d="m 867.582,127.41061 c 30.93,20.53 123.72,20.53 154.65,0 -30.93,26.482 -123.72,26.482 -154.65,0"
     id="path62" />
  <path
     class="TieSegment"
     stroke="#000000"
     stroke-width="2.48"
     stroke-linecap="round"
     stroke-linejoin="round"
     fill-rule="evenodd"
     d="m 1928.982,479.11561 c 39.59,27.11 158.35,27.11 197.94,0 -39.59,33.062 -158.35,33.062 -197.94,0"
     id="path64" />
  <path
     class="TieSegment"
     stroke="#000000"
     stroke-width="2.48"
     stroke-linecap="round"
     stroke-linejoin="round"
     fill-rule="evenodd"
     d="m 710.441,479.11561 c 39.587,27.11 158.351,27.11 197.941,0 -39.59,33.062 -158.354,33.062 -197.941,0"
     id="path66" />
  <polyline
     class="BarLine"
     stroke="#000000"
     stroke-width="3.97"
     stroke-linejoin="bevel"
     points="2762.62,744.187 2762.62,846.611"
     id="polyline68"
     transform="translate(-212.598,-351.66439)" />
  <polyline
     class="BarLine"
     stroke="#000000"
     stroke-width="3.97"
     stroke-linejoin="bevel"
     points="698.392,744.187 698.392,846.611"
     id="polyline70"
     transform="translate(-212.598,-351.66439)" />
  <polyline
     class="BarLine"
     stroke="#000000"
     stroke-width="3.97"
     stroke-linejoin="bevel"
     points="2350.17,384.587 2350.17,487.011"
     id="polyline72"
     transform="translate(-212.598,-351.66439)" />
  <polyline
     class="BarLine"
     stroke="#000000"
     stroke-width="3.97"
     stroke-linejoin="bevel"
     points="1544.07,744.187 1544.07,846.611"
     id="polyline74"
     transform="translate(-212.598,-351.66439)" />
  <polyline
     class="BarLine"
     stroke="#000000"
     stroke-width="3.97"
     stroke-linejoin="bevel"
     points="1740.4,1103.79 1740.4,1206.21"
     id="polyline76"
     transform="translate(-212.598,-351.66439)" />
  <polyline
     class="BarLine"
     stroke="#000000"
     stroke-width="12.4"
     stroke-linejoin="bevel"
     points="1758.5,1103.79 1758.5,1206.21"
     id="polyline78"
     transform="translate(-212.598,-351.66439)" />
  <polyline
     class="BarLine"
     stroke="#000000"
     stroke-width="3.97"
     stroke-linejoin="bevel"
     points="658.71,384.587 658.71,487.011"
     id="polyline80"
     transform="translate(-212.598,-351.66439)" />
  <polyline
     class="BarLine"
     stroke="#000000"
     stroke-width="3.97"
     stroke-linejoin="bevel"
     points="1390.32,1103.79 1390.32,1206.21"
     id="polyline82"
     transform="translate(-212.598,-351.66439)" />
  <polyline
     class="BarLine"
     stroke="#000000"
     stroke-width="3.97"
     stroke-linejoin="bevel"
     points="1077.7,744.187 1077.7,846.611"
     id="polyline84"
     transform="translate(-212.598,-351.66439)" />
  <polyline
     class="BarLine"
     stroke="#000000"
     stroke-width="3.97"
     stroke-linejoin="bevel"
     points="1883.97,384.587 1883.97,487.011"
     id="polyline86"
     transform="translate(-212.598,-351.66439)" />
  <polyline
     class="BarLine"
     stroke="#000000"
     stroke-width="3.97"
     stroke-linejoin="bevel"
     points="1023.86,384.587 1023.86,487.011"
     id="polyline88"
     transform="translate(-212.598,-351.66439)" />
  <polyline
     class="BarLine"
     stroke="#000000"
     stroke-width="3.97"
     stroke-linejoin="bevel"
     points="891.003,1103.79 891.003,1206.21"
     id="polyline90"
     transform="translate(-212.598,-351.66439)" />
  <polyline
     class="BarLine"
     stroke="#000000"
     stroke-width="3.97"
     stroke-linejoin="bevel"
     points="2762.62,384.587 2762.62,487.011"
     id="polyline92"
     transform="translate(-212.598,-351.66439)" />
  <polyline
     class="BarLine"
     stroke="#000000"
     stroke-width="3.97"
     stroke-linejoin="bevel"
     points="1916.94,744.187 1916.94,846.611"
     id="polyline94"
     transform="translate(-212.598,-351.66439)" />
  <polyline
     class="BarLine"
     stroke="#000000"
     stroke-width="3.97"
     stroke-linejoin="bevel"
     points="2296.24,744.187 2296.24,846.611"
     id="polyline96"
     transform="translate(-212.598,-351.66439)" />
  <polyline
     class="BarLine"
     stroke="#000000"
     stroke-width="3.97"
     stroke-linejoin="bevel"
     points="1478.59,384.587 1478.59,487.011"
     id="polyline98"
     transform="translate(-212.598,-351.66439)" />
  <path
     class="Accidental"
     d="m 2222.7055,456.83207 c 0.6976,-0.29453 1.1936,-1.10053 1.1936,-1.68948 v -7.03705 c 0,-0.496 -0.31,-0.80601 -0.6976,-0.80601 -0.2015,0 -0.2944,0 -0.496,0.10853 0,0 -1.984,0.79053 -2.48,0.88348 -0.6975,0 -1.395,-0.496 -1.395,-1.28643 v -12.10559 c 0,-0.58895 -0.589,-1.08495 -1.3794,-1.08495 -0.992,0 -1.5966,0.496 -1.5966,1.08495 v 12.89602 c -0.093,0.992 -0.3874,2.294 -1.2865,2.88305 -1.1935,0.69747 -4.5569,2.07695 -6.2465,2.48 -0.899,0 -1.1935,-1.19348 -1.1935,-1.984 v -11.90401 c 0,-0.60453 -0.6975,-1.10053 -1.395,-1.10053 -0.992,0 -1.581,0.496 -1.581,1.10053 v 13.39201 c 0,1.39495 -0.589,2.38695 -1.1935,2.68148 -0.589,0.29452 -2.573,1.08505 -2.573,1.08505 -0.6975,0.20147 -1.1935,0.992 -1.1935,1.59643 v 7.03705 c 0,0.589 0.2945,0.899 0.899,0.899 l 0.186,-0.1085 c 0.1085,0 1.5965,-0.589 2.387,-0.992 l 0.093,-0.093 c 0.806,0 1.395,0.992 1.395,1.7825 v 9.82701 c 0,1.085 -0.496,1.98401 -1.085,2.27848 -0.6045,0.20158 -2.6815,1.08505 -2.6815,1.08505 -0.6975,0.20148 -1.1935,0.992 -1.1935,1.59653 v 7.03696 c 0,0.58905 0.2945,0.89905 0.899,0.89905 l 0.186,-0.10853 c 0.1085,0 1.488,-0.58905 2.387,-0.88347 0.093,-0.10853 0.2015,-0.10853 0.2945,-0.10853 0.6975,0 1.1935,1.10053 1.1935,1.59653 v 12.19843 c 0,0.58905 0.589,1.08506 1.2865,1.08506 0.992,0 1.6895,-0.49601 1.6895,-1.08506 v -13.79496 c 0,-1.28653 0.496,-1.984 0.992,-2.18548 l 6.0451,-2.48 c 0,0 0.1084,0 0.1084,0 l 0.2016,-0.0931 c 0.8834,0 1.3794,1.19348 1.3794,1.78253 v 12.40001 c 0,0.60453 0.6046,1.10053 1.2866,1.10053 1.1004,0 1.6894,-0.496 1.6894,-1.10053 v -14.08949 c 0,-0.79053 0.403,-1.984 1.1006,-2.27853 0.682,-0.29452 2.7744,-1.08505 2.7744,-1.08505 0.6976,-0.29442 1.1936,-1.10042 1.1936,-1.68947 v -7.03701 c 0,-0.496 -0.31,-0.806 -0.6976,-0.806 -0.2015,0 -0.2944,0 -0.496,0.1085 l -2.5884,0.992 c -0.5891,0 -1.2866,-0.6045 -1.2866,-1.7825 v -9.23801 c 0,-0.682 0.496,-2.573 1.2866,-2.86753 l 2.5884,-0.992 m -6.851,16.16654 c -0.589,1.984 -5.2545,3.968 -7.533,3.968 -0.6045,0 -1.1005,-0.20149 -1.1935,-0.496 -0.2015,-0.403 -0.2945,-2.573 -0.2945,-4.96 0,-3.069 0.093,-6.54101 0.2945,-7.34701 0.2015,-1.674 4.7585,-3.76651 7.2385,-3.76651 0.6975,0 1.2866,0.20151 1.488,0.60451 0.2015,0.496 0.403,2.976 0.403,5.642 0,2.68151 -0.2015,5.45601 -0.403,6.35501"
     id="path100"
     style="stroke-width:0.992001" />
  <path
     class="Accidental"
     d="m 1078.9655,469.23207 c 0.6976,-0.29453 1.1936,-1.10053 1.1936,-1.68948 v -7.03705 c 0,-0.496 -0.31,-0.80601 -0.6976,-0.80601 -0.2015,0 -0.2944,0 -0.496,0.10853 0,0 -1.984,0.79053 -2.48,0.88348 -0.6975,0 -1.395,-0.496 -1.395,-1.28643 v -12.10559 c 0,-0.58895 -0.589,-1.08495 -1.3794,-1.08495 -0.992,0 -1.5966,0.496 -1.5966,1.08495 v 12.89602 c -0.093,0.992 -0.3874,2.294 -1.2865,2.88305 -1.1935,0.69747 -4.5569,2.07695 -6.2465,2.48 -0.899,0 -1.1935,-1.19348 -1.1935,-1.984 v -11.90401 c 0,-0.60453 -0.6975,-1.10053 -1.395,-1.10053 -0.992,0 -1.581,0.496 -1.581,1.10053 v 13.39201 c 0,1.39495 -0.589,2.38695 -1.1935,2.68148 -0.589,0.29452 -2.573,1.08505 -2.573,1.08505 -0.6975,0.20147 -1.1935,0.992 -1.1935,1.59643 v 7.03705 c 0,0.589 0.2945,0.899 0.899,0.899 l 0.186,-0.1085 c 0.1085,0 1.5965,-0.589 2.387,-0.992 l 0.093,-0.093 c 0.806,0 1.395,0.992 1.395,1.7825 v 9.82701 c 0,1.085 -0.496,1.98401 -1.085,2.27848 -0.6045,0.20158 -2.6815,1.08505 -2.6815,1.08505 -0.6975,0.20148 -1.1935,0.992 -1.1935,1.59653 v 7.03696 c 0,0.58905 0.2945,0.89905 0.899,0.89905 l 0.186,-0.10853 c 0.1085,0 1.488,-0.58905 2.387,-0.88347 0.093,-0.10853 0.2015,-0.10853 0.2945,-0.10853 0.6975,0 1.1935,1.10053 1.1935,1.59653 v 12.19843 c 0,0.58905 0.589,1.08506 1.2865,1.08506 0.992,0 1.6895,-0.49601 1.6895,-1.08506 v -13.79496 c 0,-1.28653 0.496,-1.984 0.992,-2.18548 l 6.0451,-2.48 c 0,0 0.1084,0 0.1084,0 l 0.2016,-0.0931 c 0.8834,0 1.3794,1.19348 1.3794,1.78253 v 12.40001 c 0,0.60453 0.6046,1.10053 1.2866,1.10053 1.1004,0 1.6894,-0.496 1.6894,-1.10053 v -14.08949 c 0,-0.79053 0.403,-1.984 1.1006,-2.27853 0.682,-0.29452 2.7744,-1.08505 2.7744,-1.08505 0.6976,-0.29442 1.1936,-1.10042 1.1936,-1.68947 v -7.03701 c 0,-0.496 -0.31,-0.806 -0.6976,-0.806 -0.2015,0 -0.2944,0 -0.496,0.1085 l -2.5884,0.992 c -0.5891,0 -1.2866,-0.6045 -1.2866,-1.7825 v -9.23801 c 0,-0.682 0.496,-2.573 1.2866,-2.86753 l 2.5884,-0.992 m -6.851,16.16654 c -0.589,1.984 -5.2545,3.968 -7.533,3.968 -0.6045,0 -1.1005,-0.20149 -1.1935,-0.496 -0.2015,-0.403 -0.2945,-2.573 -0.2945,-4.96 0,-3.069 0.093,-6.54101 0.2945,-7.34701 0.2015,-1.674 4.7585,-3.76651 7.2385,-3.76651 0.6975,0 1.2866,0.20151 1.488,0.60451 0.2015,0.496 0.403,2.976 0.403,5.642 0,2.68151 -0.2015,5.45601 -0.403,6.35501"
     id="path102"
     style="stroke-width:0.992001" />
  <path
     class="Accidental"
     d="m 2297.5155,469.23207 c 0.6976,-0.29453 1.1936,-1.10053 1.1936,-1.68948 v -7.03705 c 0,-0.496 -0.31,-0.80601 -0.6976,-0.80601 -0.2015,0 -0.2944,0 -0.496,0.10853 0,0 -1.984,0.79053 -2.48,0.88348 -0.6975,0 -1.395,-0.496 -1.395,-1.28643 v -12.10559 c 0,-0.58895 -0.589,-1.08495 -1.3794,-1.08495 -0.992,0 -1.5966,0.496 -1.5966,1.08495 v 12.89602 c -0.093,0.992 -0.3874,2.294 -1.2865,2.88305 -1.1935,0.69747 -4.5569,2.07695 -6.2465,2.48 -0.899,0 -1.1935,-1.19348 -1.1935,-1.984 v -11.90401 c 0,-0.60453 -0.6975,-1.10053 -1.395,-1.10053 -0.992,0 -1.581,0.496 -1.581,1.10053 v 13.39201 c 0,1.39495 -0.589,2.38695 -1.1935,2.68148 -0.589,0.29452 -2.573,1.08505 -2.573,1.08505 -0.6975,0.20147 -1.1935,0.992 -1.1935,1.59643 v 7.03705 c 0,0.589 0.2945,0.899 0.899,0.899 l 0.186,-0.1085 c 0.1085,0 1.5965,-0.589 2.387,-0.992 l 0.093,-0.093 c 0.806,0 1.395,0.992 1.395,1.7825 v 9.82701 c 0,1.085 -0.496,1.98401 -1.085,2.27848 -0.6045,0.20158 -2.6815,1.08505 -2.6815,1.08505 -0.6975,0.20148 -1.1935,0.992 -1.1935,1.59653 v 7.03696 c 0,0.58905 0.2945,0.89905 0.899,0.89905 l 0.186,-0.10853 c 0.1085,0 1.488,-0.58905 2.387,-0.88347 0.093,-0.10853 0.2015,-0.10853 0.2945,-0.10853 0.6975,0 1.1935,1.10053 1.1935,1.59653 v 12.19843 c 0,0.58905 0.589,1.08506 1.2865,1.08506 0.992,0 1.6895,-0.49601 1.6895,-1.08506 v -13.79496 c 0,-1.28653 0.496,-1.984 0.992,-2.18548 l 6.0451,-2.48 c 0,0 0.1084,0 0.1084,0 l 0.2016,-0.0931 c 0.8834,0 1.3794,1.19348 1.3794,1.78253 v 12.40001 c 0,0.60453 0.6046,1.10053 1.2866,1.10053 1.1004,0 1.6894,-0.496 1.6894,-1.10053 v -14.08949 c 0,-0.79053 0.403,-1.984 1.1006,-2.27853 0.682,-0.29452 2.7744,-1.08505 2.7744,-1.08505 0.6976,-0.29442 1.1936,-1.10042 1.1936,-1.68947 v -7.03701 c 0,-0.496 -0.31,-0.806 -0.6976,-0.806 -0.2015,0 -0.2944,0 -0.496,0.1085 l -2.5884,0.992 c -0.5891,0 -1.2866,-0.6045 -1.2866,-1.7825 v -9.23801 c 0,-0.682 0.496,-2.573 1.2866,-2.86753 l 2.5884,-0.992 m -6.851,16.16654 c -0.589,1.984 -5.2545,3.968 -7.533,3.968 -0.6045,0 -1.1005,-0.20149 -1.1935,-0.496 -0.2015,-0.403 -0.2945,-2.573 -0.2945,-4.96 0,-3.069 0.093,-6.54101 0.2945,-7.34701 0.2015,-1.674 4.7585,-3.76651 7.2385,-3.76651 0.6975,0 1.2866,0.20151 1.488,0.60451 0.2015,0.496 0.403,2.976 0.403,5.642 0,2.68151 -0.2015,5.45601 -0.403,6.35501"
     id="path104"
     style="stroke-width:0.992001" />
  <polyline
     class="LedgerLine"
     stroke="#000000"
     stroke-width="3.97"
     stroke-linejoin="bevel"
     points="1908.28,510.199 1960.75,510.199"
     id="polyline106"
     transform="translate(-212.598,-351.66439)" />
  <polyline
     class="LedgerLine"
     stroke="#000000"
     stroke-width="3.97"
     stroke-linejoin="bevel"
     points="1639.16,510.199 1691.64,510.199"
     id="polyline108"
     transform="translate(-212.598,-351.66439)" />
  <polyline
     class="Stem"
     stroke="#000000"
     stroke-width="2.98"
     stroke-linejoin="bevel"
     points="1364.42,468.832 1364.42,386.199"
     id="polyline110"
     transform="translate(-212.598,-351.66439)" />
  <polyline
     class="Stem"
     stroke="#000000"
     stroke-width="2.98"
     stroke-linejoin="bevel"
     points="2548.64,828.433 2548.64,745.799"
     id="polyline112"
     transform="translate(-212.598,-351.66439)" />
  <polyline
     class="Stem"
     stroke="#000000"
     stroke-width="2.98"
     stroke-linejoin="bevel"
     points="1949.35,506.032 1949.35,423.399"
     id="polyline114"
     transform="translate(-212.598,-351.66439)" />
  <polyline
     class="Stem"
     stroke="#000000"
     stroke-width="2.98"
     stroke-linejoin="bevel"
     points="2027.18,427.565 2027.18,503.999"
     id="polyline116"
     transform="translate(-212.598,-351.66439)" />
  <polyline
     class="Stem"
     stroke="#000000"
     stroke-width="2.98"
     stroke-linejoin="bevel"
     points="1256.92,456.432 1256.92,373.799"
     id="polyline118"
     transform="translate(-212.598,-351.66439)" />
  <polyline
     class="Stem"
     stroke="#000000"
     stroke-width="2.98"
     stroke-linejoin="bevel"
     points="1255.29,816.033 1255.29,733.399"
     id="polyline120"
     transform="translate(-212.598,-351.66439)" />
  <polyline
     class="Stem"
     stroke="#000000"
     stroke-width="2.98"
     stroke-linejoin="bevel"
     points="2134.68,427.565 2134.68,503.999"
     id="polyline122"
     transform="translate(-212.598,-351.66439)" />
  <polyline
     class="Stem"
     stroke="#000000"
     stroke-width="2.98"
     stroke-linejoin="bevel"
     points="1436.08,481.232 1436.08,398.599"
     id="polyline124"
     transform="translate(-212.598,-351.66439)" />
  <polyline
     class="Stem"
     stroke="#000000"
     stroke-width="2.98"
     stroke-linejoin="bevel"
     points="2493.38,439.965 2493.38,510.199"
     id="polyline126"
     transform="translate(-212.598,-351.66439)" />
  <polyline
     class="Stem"
     stroke="#000000"
     stroke-width="2.98"
     stroke-linejoin="bevel"
     points="1543.96,493.632 1543.96,410.999"
     id="polyline128"
     transform="translate(-212.598,-351.66439)" />
  <polyline
     class="Stem"
     stroke="#000000"
     stroke-width="2.98"
     stroke-linejoin="bevel"
     points="2242.18,427.565 2242.18,503.999"
     id="polyline130"
     transform="translate(-212.598,-351.66439)" />
  <polyline
     class="Stem"
     stroke="#000000"
     stroke-width="2.98"
     stroke-linejoin="bevel"
     points="2473.83,816.033 2473.83,733.399"
     id="polyline132"
     transform="translate(-212.598,-351.66439)" />
  <polyline
     class="Stem"
     stroke="#000000"
     stroke-width="2.98"
     stroke-linejoin="bevel"
     points="1680.23,506.032 1680.23,423.399"
     id="polyline134"
     transform="translate(-212.598,-351.66439)" />
  <polyline
     class="Stem"
     stroke="#000000"
     stroke-width="2.98"
     stroke-linejoin="bevel"
     points="1143.07,803.633 1143.07,727.199"
     id="polyline136"
     transform="translate(-212.598,-351.66439)" />
  <polyline
     class="Stem"
     stroke="#000000"
     stroke-width="2.98"
     stroke-linejoin="bevel"
     points="2361.61,803.633 2361.61,727.199"
     id="polyline138"
     transform="translate(-212.598,-351.66439)" />
  <polyline
     class="Stem"
     stroke="#000000"
     stroke-width="2.98"
     stroke-linejoin="bevel"
     points="390.903,1163.23 390.903,1086.8"
     id="polyline140"
     transform="translate(-212.598,-351.66439)" />
  <polyline
     class="Stem"
     stroke="#000000"
     stroke-width="2.98"
     stroke-linejoin="bevel"
     points="523.219,1163.23 523.219,1086.8"
     id="polyline142"
     transform="translate(-212.598,-351.66439)" />
  <polyline
     class="Stem"
     stroke="#000000"
     stroke-width="2.98"
     stroke-linejoin="bevel"
     points="655.534,1163.23 655.534,1086.8"
     id="polyline144"
     transform="translate(-212.598,-351.66439)" />
  <polyline
     class="Stem"
     stroke="#000000"
     stroke-width="2.98"
     stroke-linejoin="bevel"
     points="787.85,1163.23 787.85,1086.8"
     id="polyline146"
     transform="translate(-212.598,-351.66439)" />
  <polyline
     class="Stem"
     stroke="#000000"
     stroke-width="2.98"
     stroke-linejoin="bevel"
     points="1330.1,828.433 1330.1,745.799"
     id="polyline148"
     transform="translate(-212.598,-351.66439)" />
  <polyline
     class="Stem"
     stroke="#000000"
     stroke-width="2.98"
     stroke-linejoin="bevel"
     points="956.374,1175.63 956.374,1093"
     id="polyline150"
     transform="translate(-212.598,-351.66439)" />
  <polyline
     class="Stem"
     stroke="#000000"
     stroke-width="2.98"
     stroke-linejoin="bevel"
     points="1088.69,1175.63 1088.69,1093"
     id="polyline152"
     transform="translate(-212.598,-351.66439)" />
  <polyline
     class="Stem"
     stroke="#000000"
     stroke-width="2.98"
     stroke-linejoin="bevel"
     points="2385.88,439.965 2385.88,510.199"
     id="polyline154"
     transform="translate(-212.598,-351.66439)" />
  <path
     class="Note"
     d="m 1447.1925,172.42262 c 9.827,0 21.9326,-9.1295 21.9326,-18.55352 0,-5.54903 -4.464,-9.22251 -10.8191,-9.22251 -12.1055,0 -21.824,9.02101 -21.824,18.55353 0,5.7505 4.7585,9.2225 10.7105,9.2225"
     id="path156"
     style="stroke-width:0.992001" />
  <path
     class="Note"
     d="m 1716.3125,172.42262 c 18.259,0 21.9326,-14.88002 21.9326,-18.44502 0,-5.65753 -4.464,-9.33101 -10.912,-9.33101 -16.5696,0 -21.7311,12.80301 -21.7311,18.55353 0,5.84355 4.6655,9.2225 10.7105,9.2225 m 8.432,-8.83501 c -4.96,3.379 -8.432,4.57251 -10.8035,4.57251 -2.294,0 -3.6735,-1.19351 -4.371,-2.58851 -0.403,-0.589 -0.6975,-1.37949 -0.6975,-2.17 0,-5.363 15.9806,-14.19801 21.235,-14.19801 2.0771,0 3.2705,0.992 4.0611,2.387 0.31,0.589 0.6045,1.2865 0.6045,2.077 0,2.1855 -2.2785,4.86701 -10.0286,9.92001"
     id="path158"
     style="stroke-width:0.992001" />
  <path
     class="Note"
     d="m 1823.8125,85.62262 c 18.259,0 21.9326,-14.880015 21.9326,-18.445019 0,-5.65753 -4.464,-9.331009 -10.912,-9.331009 -16.5696,0 -21.7311,12.803013 -21.7311,18.553523 0,5.843551 4.6655,9.222505 10.7105,9.222505 m 8.432,-8.835009 c -4.96,3.379003 -8.432,4.572509 -10.8035,4.572509 -2.294,0 -3.6735,-1.193506 -4.371,-2.588507 -0.403,-0.589001 -0.6975,-1.379497 -0.6975,-2.170002 0,-5.363006 15.9806,-14.198015 21.235,-14.198015 2.0771,0 3.2705,0.992001 4.0611,2.387003 0.31,0.589 0.6045,1.286496 0.6045,2.077002 0,2.185497 -2.2785,4.867005 -10.0286,9.92001"
     id="path160"
     style="stroke-width:0.992001" />
  <path
     class="Note"
     d="m 1931.3025,85.62262 c 18.259,0 21.9326,-14.880015 21.9326,-18.445019 0,-5.65753 -4.464,-9.331009 -10.912,-9.331009 -16.5696,0 -21.7311,12.803013 -21.7311,18.553523 0,5.843551 4.6655,9.222505 10.7105,9.222505 m 8.432,-8.835009 c -4.96,3.379003 -8.432,4.572509 -10.8035,4.572509 -2.294,0 -3.6735,-1.193506 -4.371,-2.588507 -0.403,-0.589001 -0.6975,-1.379497 -0.6975,-2.170002 0,-5.363006 15.9806,-14.198015 21.235,-14.198015 2.0771,0 3.2705,0.992001 4.0611,2.387003 0.31,0.589 0.6045,1.286496 0.6045,2.077002 0,2.185497 -2.2785,4.867005 -10.0286,9.92001"
     id="path162"
     style="stroke-width:0.992001" />
  <path
     class="Note"
     d="m 2038.8025,85.62262 c 18.259,0 21.9326,-14.880015 21.9326,-18.445019 0,-5.65753 -4.464,-9.331009 -10.912,-9.331009 -16.5696,0 -21.7311,12.803013 -21.7311,18.553523 0,5.843551 4.6655,9.222505 10.7105,9.222505 m 8.432,-8.835009 c -4.96,3.379003 -8.432,4.572509 -10.8035,4.572509 -2.294,0 -3.6735,-1.193506 -4.371,-2.588507 -0.403,-0.589001 -0.6975,-1.379497 -0.6975,-2.170002 0,-5.363006 15.9806,-14.198015 21.235,-14.198015 2.0771,0 3.2705,0.992001 4.0611,2.387003 0.31,0.589 0.6045,1.286496 0.6045,2.077002 0,2.185497 -2.2785,4.867005 -10.0286,9.92001"
     id="path164"
     style="stroke-width:0.992001" />
  <path
     class="Note"
     d="m 1178.034,454.94112 c -14.384,0 -23.312,6.06048 -23.312,13.39199 0,7.2385 6.1535,13.68656 22.2271,13.68656 17.6544,0 23.312,-6.13806 23.312,-13.68656 0,-7.64151 -12.1985,-13.39199 -22.2271,-13.39199 m -2.7745,2.48 c 7.3471,0 13.2991,7.93598 13.2991,14.49249 0,5.456 -3.3791,7.62606 -8.246,7.62606 -7.1455,0 -13.9811,-8.23056 -13.9811,-15.17457 0,-5.54901 3.8596,-6.94398 8.928,-6.94398"
     id="path166"
     style="stroke-width:0.992001" />
  <path
     class="Note"
     d="m 711.65602,442.54112 c -14.38401,0 -23.31202,6.06048 -23.31202,13.39199 0,7.2385 6.15351,13.68656 22.22707,13.68656 17.65445,0 23.31203,-6.13806 23.31203,-13.68656 0,-7.64151 -12.19854,-13.39199 -22.22708,-13.39199 m -2.77452,2.48 c 7.34705,0 13.29906,7.93598 13.29906,14.49249 0,5.456 -3.37905,7.62606 -8.24601,7.62606 -7.14548,0 -13.98106,-8.23056 -13.98106,-15.17457 0,-5.54901 3.85958,-6.94398 8.92801,-6.94398"
     id="path168"
     style="stroke-width:0.992001" />
  <path
     class="Note"
     d="m 1550.894,417.74112 c -14.384,0 -23.312,6.06048 -23.312,13.39199 0,7.2385 6.1535,13.68656 22.2271,13.68656 17.6544,0 23.312,-6.13806 23.312,-13.68656 0,-7.64151 -12.1985,-13.39199 -22.2271,-13.39199 m -2.7745,2.48 c 7.3471,0 13.2991,7.93598 13.2991,14.49249 0,5.456 -3.3791,7.62606 -8.246,7.62606 -7.1455,0 -13.9811,-8.23056 -13.9811,-15.17457 0,-5.54901 3.8596,-6.94398 8.928,-6.94398"
     id="path170"
     style="stroke-width:0.992001" />
  <path
     class="Note"
     d="m 910.03254,470.02262 c 18.25896,0 21.93254,-14.88002 21.93254,-18.44502 0,-5.65753 -4.464,-9.33101 -10.91201,-9.33101 -16.56956,0 -21.73107,12.80301 -21.73107,18.55353 0,5.84355 4.66551,9.2225 10.71054,9.2225 m 8.432,-8.83501 c -4.96,3.379 -8.432,4.57251 -10.80353,4.57251 -2.294,0 -3.6735,-1.19351 -4.37101,-2.58851 -0.403,-0.589 -0.69749,-1.37949 -0.69749,-2.17 0,-5.363 15.98056,-14.19801 21.23499,-14.19801 2.07705,0 3.27053,0.992 4.06105,2.387 0.31,0.589 0.60453,1.2865 0.60453,2.077 0,2.1855 -2.27853,4.86701 -10.02854,9.92001"
     id="path172"
     style="stroke-width:0.992001" />
  <path
     class="Note"
     d="m 1761.874,430.14112 c -14.384,0 -23.312,6.06048 -23.312,13.39199 0,7.2385 6.1535,13.68656 22.2271,13.68656 17.6544,0 23.312,-6.13806 23.312,-13.68656 0,-7.64151 -12.1985,-13.39199 -22.2271,-13.39199 m -2.7745,2.48 c 7.3471,0 13.2991,7.93598 13.2991,14.49249 0,5.456 -3.3791,7.62606 -8.246,7.62606 -7.1455,0 -13.9811,-8.23056 -13.9811,-15.17457 0,-5.54901 3.8596,-6.94398 8.928,-6.94398"
     id="path174"
     style="stroke-width:0.992001" />
  <path
     class="Note"
     d="m 1930.204,442.54112 c -14.384,0 -23.312,6.06048 -23.312,13.39199 0,7.2385 6.1535,13.68656 22.2271,13.68656 17.6544,0 23.312,-6.13806 23.312,-13.68656 0,-7.64151 -12.1985,-13.39199 -22.2271,-13.39199 m -2.7745,2.48 c 7.3471,0 13.2991,7.93598 13.2991,14.49249 0,5.456 -3.3791,7.62606 -8.246,7.62606 -7.1455,0 -13.9811,-8.23056 -13.9811,-15.17457 0,-5.54901 3.8596,-6.94398 8.928,-6.94398"
     id="path176"
     style="stroke-width:0.992001" />
  <path
     class="Note"
     d="m 543.33002,430.14112 c -14.38401,0 -23.31202,6.06048 -23.31202,13.39199 0,7.2385 6.15351,13.68656 22.22707,13.68656 17.65445,0 23.31203,-6.13806 23.31203,-13.68656 0,-7.64151 -12.19854,-13.39199 -22.22708,-13.39199 m -2.77452,2.48 c 7.34705,0 13.29906,7.93598 13.29906,14.49249 0,5.456 -3.37905,7.62606 -8.24601,7.62606 -7.14548,0 -13.98106,-8.23056 -13.98106,-15.17457 0,-5.54901 3.85958,-6.94398 8.92801,-6.94398"
     id="path178"
     style="stroke-width:0.992001" />
  <path
     class="Note"
     d="m 2128.5825,470.02262 c 18.259,0 21.9326,-14.88002 21.9326,-18.44502 0,-5.65753 -4.464,-9.33101 -10.912,-9.33101 -16.5696,0 -21.7311,12.80301 -21.7311,18.55353 0,5.84355 4.6655,9.2225 10.7105,9.2225 m 8.432,-8.83501 c -4.96,3.379 -8.432,4.57251 -10.8035,4.57251 -2.294,0 -3.6735,-1.19351 -4.371,-2.58851 -0.403,-0.589 -0.6975,-1.37949 -0.6975,-2.17 0,-5.363 15.9806,-14.19801 21.235,-14.19801 2.0771,0 3.2705,0.992 4.0611,2.387 0.31,0.589 0.6045,1.2865 0.6045,2.077 0,2.1855 -2.2785,4.86701 -10.0286,9.92001"
     id="path180"
     style="stroke-width:0.992001" />
  <path
     class="Note"
     d="m 2240.8025,482.42262 c 9.827,0 21.9326,-9.1295 21.9326,-18.55352 0,-5.54903 -4.464,-9.22251 -10.8191,-9.22251 -12.1055,0 -21.824,9.02101 -21.824,18.55353 0,5.7505 4.7585,9.2225 10.7105,9.2225"
     id="path182"
     style="stroke-width:0.992001" />
  <path
     class="Note"
     d="m 2315.6125,494.82262 c 9.827,0 21.9326,-9.1295 21.9326,-18.55352 0,-5.54903 -4.464,-9.22251 -10.8191,-9.22251 -12.1055,0 -21.824,9.02101 -21.824,18.55353 0,5.7505 4.7585,9.2225 10.7105,9.2225"
     id="path184"
     style="stroke-width:0.992001" />
  <path
     class="Note"
     d="m 1131.3825,135.22262 c 9.827,0 21.9326,-9.1295 21.9326,-18.55352 0,-5.54903 -4.464,-9.22251 -10.8191,-9.22251 -12.1055,0 -21.824,9.02101 -21.824,18.55353 0,5.7505 4.7585,9.2225 10.7105,9.2225"
     id="path186"
     style="stroke-width:0.992001" />
  <path
     class="Note"
     d="m 2396.574,454.94112 c -14.384,0 -23.312,6.06048 -23.312,13.39199 0,7.2385 6.1535,13.68656 22.2271,13.68656 17.6544,0 23.312,-6.13806 23.312,-13.68656 0,-7.64151 -12.1985,-13.39199 -22.2271,-13.39199 m -2.7745,2.48 c 7.3471,0 13.2991,7.93598 13.2991,14.49249 0,5.456 -3.3791,7.62606 -8.246,7.62606 -7.1455,0 -13.9811,-8.23056 -13.9811,-15.17457 0,-5.54901 3.8596,-6.94398 8.928,-6.94398"
     id="path188"
     style="stroke-width:0.992001" />
  <path
     class="Note"
     d="m 332.34802,417.74112 c -14.38401,0 -23.31202,6.06048 -23.31202,13.39199 0,7.2385 6.15351,13.68656 22.22707,13.68656 17.65445,0 23.31203,-6.13806 23.31203,-13.68656 0,-7.64151 -12.19854,-13.39199 -22.22708,-13.39199 m -2.77452,2.48 c 7.34705,0 13.29906,7.93598 13.29906,14.49249 0,5.456 -3.37905,7.62606 -8.24601,7.62606 -7.14548,0 -13.98106,-8.23056 -13.98106,-15.17457 0,-5.54901 3.85958,-6.94398 8.92801,-6.94398"
     id="path190"
     style="stroke-width:0.992001" />
  <path
     class="Note"
     d="m 1022.2525,482.42262 c 9.827,0 21.9326,-9.1295 21.9326,-18.55352 0,-5.54903 -4.464,-9.22251 -10.8191,-9.22251 -12.1055,0 -21.824,9.02101 -21.824,18.55353 0,5.7505 4.7585,9.2225 10.7105,9.2225"
     id="path192"
     style="stroke-width:0.992001" />
  <path
     class="Note"
     d="m 2403.654,82.941117 c -14.384,0 -23.312,6.060481 -23.312,13.391989 0,7.238504 6.1535,13.686564 22.2271,13.686564 17.6544,0 23.312,-6.13806 23.312,-13.686564 0,-7.641508 -12.1985,-13.391989 -22.2271,-13.391989 m -2.7745,2.480002 c 7.3471,0 13.2991,7.935979 13.2991,14.49249 0,5.456001 -3.3791,7.626061 -8.246,7.626061 -7.1455,0 -13.9811,-8.230556 -13.9811,-15.174573 0,-5.549006 3.8596,-6.943978 8.928,-6.943978"
     id="path194"
     style="stroke-width:0.992001" />
  <path
     class="Note"
     d="m 189.473,150.00967 v -32.05413 c 0,-0.38748 -0.403,-0.79043 -0.992,-0.79043 h -1.395 c -0.589,0 -0.992,0.40295 -0.992,0.79043 v 32.05413 c 0,0.38748 0.403,0.682 0.992,0.682 h 1.395 c 0.589,0 0.992,-0.29452 0.992,-0.682 m 6.24651,0 v -32.05413 c 0,-0.38748 -0.496,-0.79043 -0.992,-0.79043 h -1.395 c -0.589,0 -0.992,0.40295 -0.992,0.79043 v 32.05413 c 0,0.38748 0.403,0.682 0.992,0.682 h 1.395 c 0.496,0 0.992,-0.29452 0.992,-0.682 m 49.10402,0 v -32.05413 c 0,-0.38748 -0.496,-0.79043 -0.992,-0.79043 h -1.488 c -0.496,0 -0.992,0.40295 -0.992,0.79043 v 32.05413 c 0,0.38748 0.496,0.682 0.992,0.682 h 1.488 c 0.496,0 0.992,-0.29452 0.992,-0.682 m 6.24654,0 v -32.05413 c 0,-0.38748 -0.49601,-0.79043 -1.08496,-0.79043 h -1.39505 c -0.496,0 -1.08495,0.40295 -1.08495,0.79043 v 32.05413 c 0,0.38748 0.58895,0.682 1.08495,0.682 h 1.39505 c 0.58895,0 1.08496,-0.29452 1.08496,-0.682 m -32.03856,-29.57413 c -14.29097,0 -23.219,6.06055 -23.219,13.50057 0,7.03701 6.15351,13.59356 22.13405,13.59356 17.65454,0 23.31202,-6.15355 23.31202,-13.59356 0,-7.73451 -12.10549,-13.50057 -22.22707,-13.50057 m -11.31496,6.75806 c 1.19347,-3.67353 5.16148,-4.16953 8.54053,-4.16953 7.33148,0 13.28349,7.82753 13.28349,14.38404 0,5.3475 -3.27053,7.64156 -8.12201,7.64156 -4.37105,0 -7.64148,-2.58855 -10.32306,-5.65755 -1.984,-2.58851 -3.67348,-6.24651 -3.67348,-9.71852 0,-0.899 0.0931,-1.6895 0.29453,-2.48"
     id="path196"
     style="stroke-width:0.992001" />
  <path
     class="Note"
     d="m 157.86854,829.62362 c 18.25896,0 21.93254,-14.88002 21.93254,-18.44502 0,-5.65753 -4.464,-9.33101 -10.91201,-9.33101 -16.56956,0 -21.73107,12.80301 -21.73107,18.55353 0,5.84355 4.66551,9.2225 10.71054,9.2225 m 8.432,-8.83501 c -4.96,3.379 -8.432,4.57251 -10.80353,4.57251 -2.294,0 -3.6735,-1.19351 -4.37101,-2.58851 -0.403,-0.589 -0.69749,-1.37949 -0.69749,-2.17 0,-5.363 15.98056,-14.19801 21.23499,-14.19801 2.07705,0 3.27053,0.992 4.06105,2.387 0.31,0.589 0.60453,1.2865 0.60453,2.077 0,2.1855 -2.27853,4.86701 -10.02854,9.92001"
     id="path198"
     style="stroke-width:0.992001" />
  <path
     class="Note"
     d="m 503.64802,82.941117 c -14.38401,0 -23.31202,6.060481 -23.31202,13.391989 0,7.238504 6.15351,13.686564 22.22707,13.686564 17.65445,0 23.31203,-6.13806 23.31203,-13.686564 0,-7.641508 -12.19854,-13.391989 -22.22708,-13.391989 m -2.77452,2.480002 c 7.34705,0 13.29906,7.935979 13.29906,14.49249 0,5.456001 -3.37905,7.626061 -8.24601,7.626061 -7.14548,0 -13.98106,-8.230556 -13.98106,-15.174573 0,-5.549006 3.85958,-6.943978 8.92801,-6.943978"
     id="path200"
     style="stroke-width:0.992001" />
  <path
     class="Note"
     d="m 290.18354,829.62362 c 18.25896,0 21.93254,-14.88002 21.93254,-18.44502 0,-5.65753 -4.464,-9.33101 -10.91201,-9.33101 -16.56956,0 -21.73107,12.80301 -21.73107,18.55353 0,5.84355 4.66551,9.2225 10.71054,9.2225 m 8.432,-8.83501 c -4.96,3.379 -8.432,4.57251 -10.80353,4.57251 -2.294,0 -3.6735,-1.19351 -4.37101,-2.58851 -0.403,-0.589 -0.69749,-1.37949 -0.69749,-2.17 0,-5.363 15.98056,-14.19801 21.23499,-14.19801 2.07705,0 3.27053,0.992 4.06105,2.387 0.31,0.589 0.60453,1.2865 0.60453,2.077 0,2.1855 -2.27853,4.86701 -10.02854,9.92001"
     id="path202"
     style="stroke-width:0.992001" />
  <path
     class="Note"
     d="m 664.89402,82.941117 c -14.38401,0 -23.31202,6.060481 -23.31202,13.391989 0,7.238504 6.15351,13.686564 22.22707,13.686564 17.65445,0 23.31203,-6.13806 23.31203,-13.686564 0,-7.641508 -12.19854,-13.391989 -22.22708,-13.391989 m -2.77452,2.480002 c 7.34705,0 13.29906,7.935979 13.29906,14.49249 0,5.456001 -3.37905,7.626061 -8.24601,7.626061 -7.14548,0 -13.98106,-8.230556 -13.98106,-15.174573 0,-5.549006 3.85958,-6.943978 8.92801,-6.943978"
     id="path204"
     style="stroke-width:0.992001" />
  <path
     class="Note"
     d="m 422.49954,829.62362 c 18.25896,0 21.93254,-14.88002 21.93254,-18.44502 0,-5.65753 -4.464,-9.33101 -10.91201,-9.33101 -16.56956,0 -21.73107,12.80301 -21.73107,18.55353 0,5.84355 4.66551,9.2225 10.71054,9.2225 m 8.432,-8.83501 c -4.96,3.379 -8.432,4.57251 -10.80353,4.57251 -2.294,0 -3.6735,-1.19351 -4.37101,-2.58851 -0.403,-0.589 -0.69749,-1.37949 -0.69749,-2.17 0,-5.363 15.98056,-14.19801 21.23499,-14.19801 2.07705,0 3.27053,0.992 4.06105,2.387 0.31,0.589 0.60453,1.2865 0.60453,2.077 0,2.1855 -2.27853,4.86701 -10.02854,9.92001"
     id="path206"
     style="stroke-width:0.992001" />
  <path
     class="Note"
     d="m 868.79402,95.341117 c -14.38401,0 -23.31202,6.060483 -23.31202,13.391993 0,7.2385 6.15351,13.68656 22.22707,13.68656 17.65445,0 23.31203,-6.13806 23.31203,-13.68656 0,-7.64151 -12.19854,-13.391993 -22.22708,-13.391993 m -2.77452,2.480002 c 7.34705,0 13.29906,7.935981 13.29906,14.492491 0,5.456 -3.37905,7.62606 -8.24601,7.62606 -7.14548,0 -13.98106,-8.23056 -13.98106,-15.17457 0,-5.549009 3.85958,-6.943981 8.92801,-6.943981"
     id="path208"
     style="stroke-width:0.992001" />
  <path
     class="Note"
     d="m 554.81554,829.62362 c 18.25896,0 21.93254,-14.88002 21.93254,-18.44502 0,-5.65753 -4.464,-9.33101 -10.91201,-9.33101 -16.56956,0 -21.73107,12.80301 -21.73107,18.55353 0,5.84355 4.66551,9.2225 10.71054,9.2225 m 8.432,-8.83501 c -4.96,3.379 -8.432,4.57251 -10.80353,4.57251 -2.294,0 -3.6735,-1.19351 -4.37101,-2.58851 -0.403,-0.589 -0.69749,-1.37949 -0.69749,-2.17 0,-5.363 15.98056,-14.19801 21.23499,-14.19801 2.07705,0 3.27053,0.992 4.06105,2.387 0.31,0.589 0.60453,1.2865 0.60453,2.077 0,2.1855 -2.27853,4.86701 -10.02854,9.92001"
     id="path210"
     style="stroke-width:0.992001" />
  <path
     class="Note"
     d="m 2290.0025,98.02262 c 18.259,0 21.9326,-14.880015 21.9326,-18.445019 0,-5.65753 -4.464,-9.331009 -10.912,-9.331009 -16.5696,0 -21.7311,12.803013 -21.7311,18.553523 0,5.843551 4.6655,9.222505 10.7105,9.222505 m 8.432,-8.835009 c -4.96,3.379003 -8.432,4.572509 -10.8035,4.572509 -2.294,0 -3.6735,-1.193506 -4.371,-2.588507 -0.403,-0.589001 -0.6975,-1.379497 -0.6975,-2.170002 0,-5.363006 15.9806,-14.198015 21.235,-14.198015 2.0771,0 3.2705,0.992001 4.0611,2.387003 0.31,0.589 0.6045,1.286496 0.6045,2.077002 0,2.185497 -2.2785,4.867005 -10.0286,9.92001"
     id="path212"
     style="stroke-width:0.992001" />
  <path
     class="Note"
     d="m 1023.8925,122.82262 c 18.259,0 21.9326,-14.88002 21.9326,-18.44502 0,-5.657529 -4.464,-9.331008 -10.912,-9.331008 -16.5696,0 -21.7311,12.803008 -21.7311,18.553528 0,5.84355 4.6655,9.2225 10.7105,9.2225 m 8.432,-8.83501 c -4.96,3.379 -8.432,4.57251 -10.8035,4.57251 -2.294,0 -3.6735,-1.19351 -4.371,-2.58851 -0.403,-0.589 -0.6975,-1.37949 -0.6975,-2.17 0,-5.363 15.9806,-14.198014 21.235,-14.198014 2.0771,0 3.2705,0.992004 4.0611,2.387004 0.31,0.589 0.6045,1.2865 0.6045,2.077 0,2.1855 -2.2785,4.86701 -10.0286,9.92001"
     id="path214"
     style="stroke-width:0.992001" />
  <path
     class="Note"
     d="m 1525.014,132.54112 c -14.384,0 -23.312,6.06048 -23.312,13.39199 0,7.2385 6.1535,13.68656 22.2271,13.68656 17.6544,0 23.312,-6.13806 23.312,-13.68656 0,-7.64151 -12.1985,-13.39199 -22.2271,-13.39199 m -2.7745,2.48 c 7.3471,0 13.2991,7.93598 13.2991,14.49249 0,5.456 -3.3791,7.62606 -8.246,7.62606 -7.1455,0 -13.9811,-8.23056 -13.9811,-15.17457 0,-5.54901 3.8596,-6.94398 8.928,-6.94398"
     id="path216"
     style="stroke-width:0.992001" />
  <path
     class="Note"
     d="m 723.33954,842.02362 c 18.25896,0 21.93254,-14.88002 21.93254,-18.44502 0,-5.65753 -4.464,-9.33101 -10.91201,-9.33101 -16.56956,0 -21.73107,12.80301 -21.73107,18.55353 0,5.84355 4.66551,9.2225 10.71054,9.2225 m 8.432,-8.83501 c -4.96,3.379 -8.432,4.57251 -10.80353,4.57251 -2.294,0 -3.6735,-1.19351 -4.37101,-2.58851 -0.403,-0.589 -0.69749,-1.37949 -0.69749,-2.17 0,-5.363 15.98056,-14.19801 21.23499,-14.19801 2.07705,0 3.27053,0.992 4.06105,2.387 0.31,0.589 0.60453,1.2865 0.60453,2.077 0,2.1855 -2.27853,4.86701 -10.02854,9.92001"
     id="path218"
     style="stroke-width:0.992001" />
  <path
     class="Note"
     d="m 1203.0525,147.62262 c 9.827,0 21.9326,-9.1295 21.9326,-18.55352 0,-5.54903 -4.464,-9.22251 -10.8191,-9.22251 -12.1055,0 -21.824,9.02101 -21.824,18.55353 0,5.7505 4.7585,9.2225 10.7105,9.2225"
     id="path220"
     style="stroke-width:0.992001" />
  <path
     class="Note"
     d="m 855.65254,842.02362 c 18.25896,0 21.93254,-14.88002 21.93254,-18.44502 0,-5.65753 -4.464,-9.33101 -10.91201,-9.33101 -16.56956,0 -21.73107,12.80301 -21.73107,18.55353 0,5.84355 4.66551,9.2225 10.71054,9.2225 m 8.432,-8.83501 c -4.96,3.379 -8.432,4.57251 -10.80353,4.57251 -2.294,0 -3.6735,-1.19351 -4.37101,-2.58851 -0.403,-0.589 -0.69749,-1.37949 -0.69749,-2.17 0,-5.363 15.98056,-14.19801 21.23499,-14.19801 2.07705,0 3.27053,0.992 4.06105,2.387 0.31,0.589 0.60453,1.2865 0.60453,2.077 0,2.1855 -2.27853,4.86701 -10.02854,9.92001"
     id="path222"
     style="stroke-width:0.992001" />
  <path
     class="Note"
     d="m 994.12402,826.94212 c -14.38401,0 -23.31202,6.06048 -23.31202,13.39199 0,7.2385 6.15351,13.68656 22.22707,13.68656 17.65443,0 23.31203,-6.13806 23.31203,-13.68656 0,-7.64151 -12.1985,-13.39199 -22.22708,-13.39199 m -2.77452,2.48 c 7.34705,0 13.2991,7.93598 13.2991,14.49249 0,5.456 -3.3791,7.62606 -8.24605,7.62606 -7.14548,0 -13.98106,-8.23056 -13.98106,-15.17457 0,-5.54901 3.85958,-6.94398 8.92801,-6.94398"
     id="path224"
     style="stroke-width:0.992001" />
  <path
     class="Note"
     d="m 2182.5025,98.02262 c 18.259,0 21.9326,-14.880015 21.9326,-18.445019 0,-5.65753 -4.464,-9.331009 -10.912,-9.331009 -16.5696,0 -21.7311,12.803013 -21.7311,18.553523 0,5.843551 4.6655,9.222505 10.7105,9.222505 m 8.432,-8.835009 c -4.96,3.379003 -8.432,4.572509 -10.8035,4.572509 -2.294,0 -3.6735,-1.193506 -4.371,-2.588507 -0.403,-0.589001 -0.6975,-1.379497 -0.6975,-2.170002 0,-5.363006 15.9806,-14.198015 21.235,-14.198015 2.0771,0 3.2705,0.992001 4.0611,2.387003 0.31,0.589 0.6045,1.286496 0.6045,2.077002 0,2.185497 -2.2785,4.867005 -10.0286,9.92001"
     id="path226"
     style="stroke-width:0.992001" />
  <path
     class="Note"
     d="m 1097.0625,494.82262 c 9.827,0 21.9326,-9.1295 21.9326,-18.55352 0,-5.54903 -4.464,-9.22251 -10.8191,-9.22251 -12.1055,0 -21.824,9.02101 -21.824,18.55353 0,5.7505 4.7585,9.2225 10.7105,9.2225"
     id="path228"
     style="stroke-width:0.992001" />
  <path
     class="Note"
     d="m 1215.321,869.21067 v -32.05413 c 0,-0.38748 -0.403,-0.79043 -0.992,-0.79043 h -1.395 c -0.589,0 -0.992,0.40295 -0.992,0.79043 v 32.05413 c 0,0.38748 0.403,0.682 0.992,0.682 h 1.395 c 0.589,0 0.992,-0.29452 0.992,-0.682 m 6.2465,0 v -32.05413 c 0,-0.38748 -0.496,-0.79043 -0.992,-0.79043 h -1.395 c -0.589,0 -0.992,0.40295 -0.992,0.79043 v 32.05413 c 0,0.38748 0.403,0.682 0.992,0.682 h 1.395 c 0.496,0 0.992,-0.29452 0.992,-0.682 m 49.104,0 v -32.05413 c 0,-0.38748 -0.496,-0.79043 -0.992,-0.79043 h -1.488 c -0.496,0 -0.992,0.40295 -0.992,0.79043 v 32.05413 c 0,0.38748 0.496,0.682 0.992,0.682 h 1.488 c 0.496,0 0.992,-0.29452 0.992,-0.682 m 6.2466,0 v -32.05413 c 0,-0.38748 -0.496,-0.79043 -1.085,-0.79043 h -1.395 c -0.496,0 -1.085,0.40295 -1.085,0.79043 v 32.05413 c 0,0.38748 0.589,0.682 1.085,0.682 h 1.395 c 0.589,0 1.085,-0.29452 1.085,-0.682 m -32.0386,-29.57413 c -14.291,0 -23.219,6.06055 -23.219,13.50057 0,7.03701 6.1535,13.59356 22.1341,13.59356 17.6545,0 23.312,-6.15355 23.312,-13.59356 0,-7.73451 -12.1055,-13.50057 -22.2271,-13.50057 m -11.315,6.75806 c 1.1935,-3.67353 5.1615,-4.16953 8.5406,-4.16953 7.3315,0 13.2835,7.82753 13.2835,14.38404 0,5.3475 -3.2706,7.64156 -8.122,7.64156 -4.3711,0 -7.6415,-2.58855 -10.3231,-5.65755 -1.984,-2.58851 -3.6735,-6.24651 -3.6735,-9.71852 0,-0.899 0.093,-1.6895 0.2945,-2.48"
     id="path230"
     style="stroke-width:0.992001" />
  <path
     class="Note"
     d="m 1310.9225,160.02262 c 18.259,0 21.9326,-14.88002 21.9326,-18.44502 0,-5.65753 -4.464,-9.33101 -10.912,-9.33101 -16.5696,0 -21.7311,12.80301 -21.7311,18.55353 0,5.84355 4.6655,9.2225 10.7105,9.2225 m 8.432,-8.83501 c -4.96,3.379 -8.432,4.57251 -10.8035,4.57251 -2.294,0 -3.6735,-1.19351 -4.371,-2.58851 -0.403,-0.589 -0.6975,-1.37949 -0.6975,-2.17 0,-5.363 15.9806,-14.19801 21.235,-14.19801 2.0771,0 3.2705,0.992 4.0611,2.387 0.31,0.589 0.6045,1.2865 0.6045,2.077 0,2.1855 -2.2785,4.86701 -10.0286,9.92001"
     id="path232"
     style="stroke-width:0.992001" />
  <path
     class="Clef"
     d="m 55.908562,427.36656 c -0.201475,-1.19347 0,-1.28652 0.588951,-1.89105 10.710536,-10.01296 18.848019,-22.61445 18.848019,-37.78899 0,-8.63348 -2.386952,-17.17401 -6.448006,-23.12652 -1.488002,-2.1695 -4.060955,-4.96 -5.161481,-4.96 -1.379476,0 -4.464004,2.58912 -6.448006,4.7745 -7.331483,8.12201 -9.718535,20.52202 -9.718535,30.84498 0,5.75053 0.697576,12.19854 1.395051,16.27507 0.186001,1.19347 0.294526,1.37947 -0.89905,2.37148 C 33.77454,425.67709 18.6,439.85953 18.6,459.90109 c 0,17.26703 11.811062,33.63502 36.115086,33.63502 2.278428,0 4.85148,-0.20148 6.835482,-0.60443 1.100526,-0.186 1.302001,-0.29453 1.488002,0.89895 1.193476,6.64948 2.681477,15.28307 2.681477,19.94855 0,14.67854 -9.92001,16.46096 -15.763491,16.46096 -5.363055,0 -7.951483,-1.58095 -7.951483,-2.88295 0,-0.682 0.898951,-0.992 3.177479,-1.674 3.084528,-0.89905 6.649481,-3.58053 6.649481,-9.33106 0,-5.45601 -3.472003,-10.12149 -9.516959,-10.12149 -6.649582,0 -10.617586,5.25453 -10.617586,11.40802 0,6.448 3.859579,16.16654 18.848019,16.16654 6.649582,0 19.545595,-2.97601 19.545595,-19.84002 0,-5.64201 -1.782527,-15.06602 -2.883053,-21.2195 -0.201475,-1.19358 -0.09295,-1.10053 1.286526,-1.68958 10.028535,-3.968 16.678017,-12.40001 16.678017,-23.6065 0,-12.71006 -9.331059,-23.91649 -23.916549,-23.91649 -2.572953,0 -2.572953,0 -2.867478,-1.78253 l -2.480003,-14.38402 m 9.315485,-52.39005 c 3.270528,0 5.952006,2.68148 5.952006,8.13748 0,11.02054 -9.42401,19.94855 -17.251493,26.78403 -0.697475,0.60453 -1.100526,0.496 -1.302001,-0.79052 -0.387475,-2.57296 -0.58905,-5.95201 -0.58905,-9.12949 0,-15.46896 7.145582,-25.0015 13.190538,-25.0015 M 54.420561,442.5411 c 0.294525,1.89096 0.294525,1.78243 -1.488002,2.38696 -8.742008,2.976 -14.399489,10.80348 -14.399489,19.23554 0,8.92801 4.66548,15.28302 11.423486,17.56154 0.790526,0.29453 1.984002,0.60453 2.666003,0.60453 0.806001,0 1.193476,-0.496 1.193476,-1.10053 0,-0.69747 -0.790525,-0.992 -1.488001,-1.28652 -4.169479,-1.7825 -7.145482,-6.04501 -7.145482,-10.61751 0,-5.65751 3.874954,-9.92002 9.92001,-11.60956 1.596526,-0.38748 1.798001,-0.29443 1.984002,0.806 l 4.960005,29.55855 c 0.201475,1.08505 0.108525,1.08505 -1.379477,1.37958 -1.596526,0.31 -3.580528,0.496 -5.56453,0.496 -17.360018,0 -28.566554,-9.61001 -28.566554,-23.40508 0,-5.859 0.992001,-13.68653 9.222534,-23.01749 5.952006,-6.64959 10.524536,-10.32306 15.190015,-14.08959 0.992001,-0.79043 1.178002,-0.69748 1.379477,0.40305 l 2.092527,12.69453 m 6.835482,15.77897 c -0.201475,-1.19348 -0.09295,-1.488 1.100526,-1.39495 8.028958,0.69747 14.67854,7.43998 14.67854,16.16649 0,6.26206 -3.766529,11.31501 -9.33106,14.08954 -1.193476,0.60452 -1.379476,0.60452 -1.580951,-0.58905 l -4.867055,-28.27203"
     id="path234"
     style="stroke-width:0.992001" />
  <path
     class="Clef"
     d="m 55.908562,786.96756 c -0.201475,-1.19347 0,-1.28652 0.588951,-1.89105 10.710536,-10.01296 18.848019,-22.61445 18.848019,-37.78899 0,-8.63348 -2.386952,-17.17401 -6.448006,-23.12652 -1.488002,-2.1695 -4.060955,-4.96 -5.161481,-4.96 -1.379476,0 -4.464004,2.58912 -6.448006,4.7745 -7.331483,8.12201 -9.718535,20.52202 -9.718535,30.84498 0,5.75053 0.697576,12.19854 1.395051,16.27507 0.186001,1.19347 0.294526,1.37947 -0.89905,2.37148 C 33.77454,785.27809 18.6,799.46053 18.6,819.50209 c 0,17.26703 11.811062,33.63502 36.115086,33.63502 2.278428,0 4.85148,-0.20148 6.835482,-0.60443 1.100526,-0.186 1.302001,-0.29453 1.488002,0.89895 1.193476,6.64948 2.681477,15.28307 2.681477,19.94855 0,14.67854 -9.92001,16.46096 -15.763491,16.46096 -5.363055,0 -7.951483,-1.58095 -7.951483,-2.88295 0,-0.682 0.898951,-0.992 3.177479,-1.674 3.084528,-0.89905 6.649481,-3.58053 6.649481,-9.33106 0,-5.45601 -3.472003,-10.12149 -9.516959,-10.12149 -6.649582,0 -10.617586,5.25453 -10.617586,11.40802 0,6.448 3.859579,16.16654 18.848019,16.16654 6.649582,0 19.545595,-2.97601 19.545595,-19.84002 0,-5.64201 -1.782527,-15.06602 -2.883053,-21.2195 -0.201475,-1.19358 -0.09295,-1.10053 1.286526,-1.68958 10.028535,-3.968 16.678017,-12.40001 16.678017,-23.6065 0,-12.71006 -9.331059,-23.91649 -23.916549,-23.91649 -2.572953,0 -2.572953,0 -2.867478,-1.78253 l -2.480003,-14.38402 m 9.315485,-52.39005 c 3.270528,0 5.952006,2.68148 5.952006,8.13748 0,11.02054 -9.42401,19.94855 -17.251493,26.78403 -0.697475,0.60453 -1.100526,0.496 -1.302001,-0.79052 -0.387475,-2.57296 -0.58905,-5.95201 -0.58905,-9.12949 0,-15.46896 7.145582,-25.0015 13.190538,-25.0015 M 54.420561,802.1421 c 0.294525,1.89096 0.294525,1.78243 -1.488002,2.38696 -8.742008,2.976 -14.399489,10.80348 -14.399489,19.23554 0,8.92801 4.66548,15.28302 11.423486,17.56154 0.790526,0.29453 1.984002,0.60453 2.666003,0.60453 0.806001,0 1.193476,-0.496 1.193476,-1.10053 0,-0.69747 -0.790525,-0.992 -1.488001,-1.28652 -4.169479,-1.7825 -7.145482,-6.04501 -7.145482,-10.61751 0,-5.65751 3.874954,-9.92002 9.92001,-11.60956 1.596526,-0.38748 1.798001,-0.29443 1.984002,0.806 l 4.960005,29.55855 c 0.201475,1.08505 0.108525,1.08505 -1.379477,1.37958 -1.596526,0.31 -3.580528,0.496 -5.56453,0.496 -17.360018,0 -28.566554,-9.61001 -28.566554,-23.40508 0,-5.859 0.992001,-13.68653 9.222534,-23.01749 5.952006,-6.64959 10.524536,-10.32306 15.190015,-14.08959 0.992001,-0.79043 1.178002,-0.69748 1.379477,0.40305 l 2.092527,12.69453 m 6.835482,15.77897 c -0.201475,-1.19348 -0.09295,-1.488 1.100526,-1.39495 8.028958,0.69747 14.67854,7.43998 14.67854,16.16649 0,6.26206 -3.766529,11.31501 -9.33106,14.08954 -1.193476,0.60452 -1.379476,0.60452 -1.580951,-0.58905 l -4.867055,-28.27203"
     id="path236"
     style="stroke-width:0.992001" />
  <path
     class="Clef"
     d="m 55.908562,67.766564 c -0.201475,-1.193476 0,-1.286526 0.588951,-1.891051 C 67.208049,55.862552 75.345532,43.261064 75.345532,28.086524 75.345532,19.45304 72.95858,10.912507 68.897526,4.960005 67.409524,2.7904988 64.836571,0 63.736045,0 62.356569,0 59.272041,2.5891226 57.288039,4.7745008 49.956556,12.896509 47.569504,25.296522 47.569504,35.619482 c 0,5.750531 0.697576,12.198537 1.395051,16.275066 0.186001,1.193477 0.294526,1.379477 -0.89905,2.371478 C 33.77454,66.077087 18.6,80.259527 18.6,100.30109 c 0,17.26703 11.811062,33.63502 36.115086,33.63502 2.278428,0 4.85148,-0.20148 6.835482,-0.60443 1.100526,-0.186 1.302001,-0.29453 1.488002,0.89895 1.193476,6.64948 2.681477,15.28307 2.681477,19.94855 0,14.67854 -9.92001,16.46096 -15.763491,16.46096 -5.363055,0 -7.951483,-1.58095 -7.951483,-2.88295 0,-0.682 0.898951,-0.992 3.177479,-1.674 3.084528,-0.89905 6.649481,-3.58053 6.649481,-9.33106 0,-5.45601 -3.472003,-10.12149 -9.516959,-10.12149 -6.649582,0 -10.617586,5.25453 -10.617586,11.40802 0,6.448 3.859579,16.16654 18.848019,16.16654 6.649582,0 19.545595,-2.97601 19.545595,-19.84002 0,-5.64201 -1.782527,-15.06602 -2.883053,-21.2195 -0.201475,-1.19358 -0.09295,-1.10053 1.286526,-1.68958 10.028535,-3.968 16.678017,-12.40001 16.678017,-23.6065 0,-12.710058 -9.331059,-23.916495 -23.916549,-23.916495 -2.572953,0 -2.572953,0 -2.867478,-1.782526 L 55.908562,67.766564 m 9.315485,-52.390052 c 3.270528,0 5.952006,2.681477 5.952006,8.137483 0,11.020536 -9.42401,19.948545 -17.251493,26.784027 -0.697475,0.604525 -1.100526,0.496 -1.302001,-0.790526 -0.387475,-2.572953 -0.58905,-5.952006 -0.58905,-9.129484 0,-15.468966 7.145582,-25.0015 13.190538,-25.0015 M 54.420561,82.941104 c 0.294525,1.890953 0.294525,1.782428 -1.488002,2.386953 C 44.190551,88.30406 38.53307,96.131543 38.53307,104.5636 c 0,8.92801 4.66548,15.28302 11.423486,17.56154 0.790526,0.29453 1.984002,0.60453 2.666003,0.60453 0.806001,0 1.193476,-0.496 1.193476,-1.10053 0,-0.69747 -0.790525,-0.992 -1.488001,-1.28652 -4.169479,-1.7825 -7.145482,-6.04501 -7.145482,-10.61751 0,-5.65751 3.874954,-9.920018 9.92001,-11.609565 1.596526,-0.387475 1.798001,-0.294426 1.984002,0.806001 l 4.960005,29.558554 c 0.201475,1.08505 0.108525,1.08505 -1.379477,1.37958 -1.596526,0.31 -3.580528,0.496 -5.56453,0.496 -17.360018,0 -28.566554,-9.61001 -28.566554,-23.40508 0,-5.859 0.992001,-13.686535 9.222534,-23.017495 5.952006,-6.649581 10.524536,-10.32306 15.190015,-14.089588 0.992001,-0.790427 1.178002,-0.697476 1.379477,0.40305 l 2.092527,12.694537 m 6.835482,15.778967 c -0.201475,-1.193477 -0.09295,-1.488002 1.100526,-1.394952 8.028958,0.697476 14.67854,7.439981 14.67854,16.166491 0,6.26206 -3.766529,11.31501 -9.33106,14.08954 -1.193476,0.60452 -1.379476,0.60452 -1.580951,-0.58905 L 61.256043,98.720071"
     id="path238"
     style="stroke-width:0.992001" />
  <path
     class="TimeSig"
     d="M 143.89451,66.684613 V 45.449592 c 0,-0.790526 -0.093,-1.689477 -1.19348,-1.689477 -0.88347,0 -1.37947,0.201475 -1.984,0.898951 l -9.42401,11.408032 c -0.40295,0.496 -0.89895,1.085001 -0.89895,2.278507 v 8.339008 h -13.39206 c 7.93606,-6.758007 23.82355,-29.264079 24.11807,-30.457555 l 0.093,-0.294525 c 0,-0.898952 -0.69747,-1.488002 -1.488,-1.488002 -0.88347,0 -4.96,0.186 -6.74253,0.186 -1.78243,0 -6.24643,-0.186 -7.05243,-0.186 -0.88358,0 -2.27853,0.294525 -2.27853,1.875576 0,12.306963 -9.71853,26.086502 -12.69454,30.256011 l -0.589,0.790496 c 0,0 0,0.108505 0,0.108505 l -0.10849,0.093 c -0.20151,0.496001 -0.29451,0.899001 -0.29451,1.193496 0,0.992001 0.79051,1.689477 1.984,1.689477 h 18.44507 v 6.246531 c 0,2.681478 -2.17,3.472004 -3.968,3.472004 -1.58105,0 -2.27853,0.89905 -2.27853,1.891051 0,0.992001 0.40295,2.076953 1.89095,2.076953 h 21.12655 c 0.992,0 1.984,-0.697476 1.984,-2.076953 0,-1.395051 -1.19347,-1.984002 -2.18548,-1.984002 -0.992,0 -3.06905,-0.604525 -3.06905,-3.782003 v -5.843581 h 7.23853 c 0.992,0 1.488,-0.697476 1.488,-1.890972 0,-1.193506 -0.38747,-1.875507 -1.488,-1.875507 h -7.23853"
     id="path240"
     style="stroke-width:0.992001" />
  <path
     class="TimeSig"
     d="m 150.93157,118.54861 c 0,-1.178 -0.496,-1.37949 -1.19348,-1.37949 -0.79053,0 -1.10053,0.38749 -1.28653,1.085 l -0.10852,0.10849 c -0.992,2.48006 -1.78253,4.35553 -3.85948,4.35553 -0.496,0 -0.992,-0.0931 -1.68948,-0.29452 -1.28652,-0.496 -1.984,-0.58895 -2.976,-1.08495 -1.984,-0.806 -6.64958,-2.38705 -10.72601,-2.38705 -1.28653,0 -2.57305,0.2015 -3.658,0.58905 2.17,-3.56506 10.61748,-6.54106 12.78748,-7.13006 6.94401,-1.891 13.20602,-4.77401 13.20602,-13.00449 0,-10.50906 -10.32306,-15.081589 -19.5455,-15.081589 -6.944,0 -13.09756,0.604525 -17.96456,6.262006 -1.68951,2.077052 -2.77451,4.557054 -2.77451,7.238532 0,1.379477 0.29451,2.774531 0.899,4.262531 1.488,3.069 4.55701,5.456 8.12206,5.456 6.06043,0 6.94401,-6.24651 6.94401,-8.72653 0,-5.952006 -6.83558,-6.246531 -6.83558,-8.230533 0.20157,-1.394952 1.984,-3.782004 7.82758,-3.782004 8.83496,0 8.94348,6.649581 8.94348,9.532535 0,9.021032 -7.45548,15.872042 -14.58549,20.227542 -5.45605,3.47206 -9.33106,8.33901 -11.02055,14.78702 l -0.093,0.29452 c 0,1.28653 1.085,3.37896 2.573,3.37896 2.1855,0 3.379,-6.06043 9.22255,-6.06043 3.96801,0 5.45601,5.36295 14.29097,5.36295 4.26253,0 11.90401,-0.40295 13.50054,-15.77902"
     id="path242"
     style="stroke-width:0.992001" />
  <path
     class="Rest"
     d="m 175.1355,429.75367 v -9.12956 c 0,-1.488 -1.19347,-2.58851 -2.57295,-2.58851 H 149.731 c -1.488,0 -2.573,1.10051 -2.573,2.58851 v 9.12956 c 0,1.37947 1.085,2.57295 2.573,2.57295 h 22.83155 c 1.37948,0 2.57295,-1.19348 2.57295,-2.57295"
     id="path244"
     style="stroke-width:0.992001" />
  <path
     class="Rest"
     d="m 1393.6795,429.75367 v -9.12956 c 0,-1.488 -1.1935,-2.58851 -2.5729,-2.58851 h -22.8316 c -1.488,0 -2.573,1.10051 -2.573,2.58851 v 9.12956 c 0,1.37947 1.085,2.57295 2.573,2.57295 h 22.8316 c 1.3794,0 2.5729,-1.19348 2.5729,-2.57295"
     id="path246"
     style="stroke-width:0.992001" />
  <path
     class="NoteDot"
     d="m 1355.162,146.13461 c 0,-2.77451 -2.1855,-4.96001 -4.96,-4.96001 -2.7745,0 -4.96,2.1855 -4.96,4.96001 0,2.7745 2.1855,4.96 4.96,4.96 2.7745,0 4.96,-2.1855 4.96,-4.96"
     id="path248"
     style="stroke-width:0.992001" />
</svg>
