<?xml version="1.0" encoding="UTF-8" standalone="no"?>
<svg width="425.196px" height="425.196px" viewBox="0 0 425.196 425.196"
 xmlns="http://www.w3.org/2000/svg" xmlns:xlink="http://www.w3.org/1999/xlink" version="1.2" baseProfile="tiny">
<title>Tonnamen-Stammtöne (7)</title>
<desc>Generated by MuseScore 3.5.2</desc>
<polyline class="StaffLines" fill="none" stroke="#000000" stroke-width="3.25" stroke-linejoin="bevel" points="42.5196,175.011 382.677,175.011"/>
<polyline class="StaffLines" fill="none" stroke="#000000" stroke-width="3.25" stroke-linejoin="bevel" points="42.5196,200.013 382.677,200.013"/>
<polyline class="StaffLines" fill="none" stroke="#000000" stroke-width="3.25" stroke-linejoin="bevel" points="42.5196,225.014 382.677,225.014"/>
<polyline class="StaffLines" fill="none" stroke="#000000" stroke-width="3.25" stroke-linejoin="bevel" points="42.5196,250.016 382.677,250.016"/>
<polyline class="StaffLines" fill="none" stroke="#000000" stroke-width="3.25" stroke-linejoin="bevel" points="42.5196,275.017 382.677,275.017"/>
<polyline class="BarLine" fill="none" stroke="#000000" stroke-width="4.00" stroke-linejoin="bevel" points="380.677,173.386 380.677,276.642"/>
<path class="Note" d="M215.623,211.311 C201.123,211.311 192.123,217.42 192.123,224.811 C192.123,232.108 198.326,238.608 214.529,238.608 C232.326,238.608 238.029,232.42 238.029,224.811 C238.029,217.108 225.732,211.311 215.623,211.311 M212.826,213.811 C220.232,213.811 226.232,221.811 226.232,228.42 C226.232,233.811 222.826,236.108 217.92,236.108 C210.717,236.108 203.826,227.811 203.826,220.811 C203.826,215.217 207.717,213.811 212.826,213.811"/>
<path class="Clef" d="M109.521,155.703 C112.818,155.703 115.521,158.406 115.521,163.906 C115.521,175.016 106.021,184.016 98.1302,190.906 C97.8177,191.109 97.6302,191.313 97.4271,191.313 C97.1302,191.313 96.9271,190.906 96.8177,190.109 C96.4271,187.516 96.224,184.109 96.224,180.906 C96.224,165.313 103.427,155.703 109.521,155.703 M105.521,239.719 C105.318,238.609 105.427,238.313 106.224,238.313 C106.318,238.313 106.521,238.313 106.63,238.313 C114.724,239.016 121.427,245.813 121.427,254.609 C121.427,260.922 117.63,266.016 112.021,268.813 C111.521,269.016 111.224,269.219 111.021,269.219 C110.63,269.219 110.521,268.922 110.427,268.219 L105.521,239.719 M98.6302,223.813 C98.9271,225.719 98.9271,225.609 97.1302,226.219 C88.3177,229.219 82.6146,237.109 82.6146,245.609 C82.6146,254.609 87.3177,261.016 94.1302,263.313 C94.9271,263.609 96.1302,263.922 96.8177,263.922 C97.6302,263.922 98.0209,263.422 98.0209,262.813 C98.0209,262.109 97.224,261.813 96.5209,261.516 C92.3177,259.719 89.3177,255.422 89.3177,250.813 C89.3177,245.109 93.224,240.813 99.3177,239.109 C99.8177,239.016 100.224,238.922 100.521,238.922 C101.021,238.922 101.224,239.219 101.318,239.922 L106.318,269.719 C106.521,270.813 106.427,270.813 104.927,271.109 C103.318,271.422 101.318,271.609 99.3177,271.609 C81.8177,271.609 70.5209,261.922 70.5209,248.016 C70.5209,231.016 83.0209,220.406 95.1302,210.609 C95.5209,210.313 95.8177,210.109 96.0209,210.109 C96.3177,210.109 96.4271,210.406 96.5209,211.016 L98.6302,223.813 M100.13,208.516 C99.9271,207.313 100.13,207.219 100.724,206.609 C111.521,196.516 119.724,183.813 119.724,168.516 C119.724,159.813 117.318,151.203 113.224,145.203 C111.724,143.016 109.13,140.203 108.021,140.203 C106.63,140.203 103.521,142.813 101.521,145.016 C94.1302,153.203 91.724,165.703 91.724,176.109 C91.724,181.906 92.4271,188.406 93.1302,192.516 C93.3177,193.719 93.4271,193.906 92.224,194.906 C77.8177,206.813 62.5209,221.109 62.5209,241.313 C62.5209,258.719 74.4271,275.219 98.9271,275.219 C101.224,275.219 103.818,275.016 105.818,274.609 C106.224,274.516 106.427,274.516 106.63,274.516 C107.021,274.516 107.224,274.719 107.318,275.516 C108.521,282.219 110.021,290.922 110.021,295.625 C110.021,310.422 100.021,312.219 94.1302,312.219 C88.724,312.219 86.1146,310.625 86.1146,309.313 C86.1146,308.625 87.0209,308.313 89.3177,307.625 C92.4271,306.719 96.0209,304.016 96.0209,298.219 C96.0209,292.719 92.5209,288.016 86.4271,288.016 C79.724,288.016 75.724,293.313 75.724,299.516 C75.724,306.016 79.6146,315.813 94.724,315.813 C101.427,315.813 114.427,312.813 114.427,295.813 C114.427,290.125 112.63,280.625 111.521,274.422 C111.318,273.219 111.427,273.313 112.818,272.719 C122.927,268.719 129.63,260.219 129.63,248.922 C129.63,236.109 120.224,224.813 105.521,224.813 C102.927,224.813 102.927,224.813 102.63,223.016 L100.13,208.516 "/>
</svg>
