<?xml version="1.0" encoding="UTF-8"?>
<svg viewBox="0 0 1122.5 793.7" xmlns="http://www.w3.org/2000/svg" xmlns:xlink="http://www.w3.org/1999/xlink">
 <defs>
  <linearGradient id="j" x1="-.069558" x2="4.2057" y1=".5" y2=".5" xlink:href="#l"/>
  <linearGradient id="k" x1="-.069556" x2="4.2057" y1=".5" y2=".5" xlink:href="#i"/>
  <linearGradient id="p" x1="-.023008" x2=".91632" y1=".10879" y2=".91292">
   <stop stop-color="#fffc0d" stop-opacity=".546" offset="0"/>
   <stop stop-color="#fffc0d" stop-opacity="0" offset="1"/>
  </linearGradient>
  <linearGradient id="m" x1=".17039" x2="1.1877" y1=".77228" y2="-.059406" xlink:href="#i"/>
  <linearGradient id="n" y1=".5" y2=".5" xlink:href="#i"/>
  <linearGradient id="l">
   <stop stop-color="#0e0e0e" offset="0"/>
   <stop stop-color="#c7c7c7" offset=".7651"/>
   <stop stop-color="#151515" offset="1"/>
  </linearGradient>
  <linearGradient id="i">
   <stop stop-color="#0e0e0e" offset="0"/>
   <stop stop-color="#8b8b8b" offset="1"/>
  </linearGradient>
  <linearGradient id="o" x1=".36073" x2=".63409" y1=".66298" y2=".3614" xlink:href="#l"/>
 </defs>
 <g fill-rule="evenodd">
  <g transform="matrix(1.6771 0 0 1.6771 -72.09 -213.22)">
   <g stroke-linecap="round" stroke-linejoin="round">
    <path d="m137.5 136.81v44.688h0.12497c0.17911 1.6832 0.94846 3.5474 2.1875 5.0938 2.2028 2.749 5.0883 3.4298 6.4688 1.5312 0.49614-0.68228 0.72438-1.5954 0.71878-2.625h0.062485v-48.688h-9.5625z" fill="url(#n)" stroke="#0a0a0a" stroke-width=".651"/>
    <path d="m148.03 185.57a1.7236 1.4855 0 1 1 -3.4472 -4.302 1.7236 1.4855 0 1 1 3.4472 4.302z" fill="#b6b6b6" opacity=".579" stroke-width="4.403"/>
    <path d="m113.44 187c-1.0974-4.8333-1.3546-8.1693 0.40604-12.258 2.0121-4.6722 5.6176-8.2728 9.7169-10.93 4.1927-2.7183 6.9968-5.3272 12.028-4.643 5.2713 0.71686 5.2726 1.285 8.777 4.8597 3.1684 3.2321 6.975 9.2857 9.5416 12.126 5.0296 4.7938 10.059 9.5877 15.089 14.382-3.0616-0.26614-15.823 3.1297-19.583 5.3157-7.3546 8.2653-9.3832 9.6132-12.251 17.312-8.4973-8.9738-23.308-23.251-23.724-26.164z" fill="#232323" stroke="#000" stroke-width="2"/>
   </g>
   <path d="m121.5 152.27l30.97 30.554c-6.2937 1.4664-10.725 2.813-14.057 5.3674l-27.921-30.718c1.671-0.78618 4.3274-3.3276 5.4117-3.9988 1.0901-0.67477 2.0276-0.57562 3.3358-1.0578 1.0324-0.38054 0.91223-0.059021 2.2608-0.14627z" fill="url(#o)" opacity=".8"/>
   <g fill="none">
    <path d="m113.8 192.13c0.017258-9.3001 4.5632-14.237 7.1884-16.43 5.7822-4.8293 15.452-9.0751 22.544-6.5744" opacity=".579" stroke="url(#k)"/>
    <path d="m114.81 192.64c0.017258-9.3001 4.5632-14.237 7.1884-16.43 5.7822-4.8293 15.452-9.0751 22.544-6.5744" stroke="url(#j)"/>
    <path d="m115.8 194.13c0.017258-9.3001 4.5632-14.237 7.1884-16.43 5.7822-4.8293 15.452-9.0751 22.544-6.5744" opacity=".579" stroke="url(#k)"/>
    <path d="m116.81 194.64c0.017258-9.3001 4.5632-14.237 7.1884-16.43 5.7822-4.8293 15.452-9.0751 22.544-6.5744" stroke="url(#j)"/>
    <path d="m111.8 190.13c0.017258-9.3001 4.5632-14.237 7.1884-16.43 5.7822-4.8293 15.452-9.0751 22.544-6.5744" opacity=".579" stroke="url(#k)"/>
    <path d="m112.81 190.64c0.017258-9.3001 4.5632-14.237 7.1884-16.43 5.7822-4.8293 15.451-9.0751 22.544-6.5744" stroke="url(#j)"/>
   </g>
   <g stroke-linecap="round" stroke-linejoin="round">
    <g stroke-width="2">
     <path d="m114.44 187c-1.0974-4.8333-1.3546-8.1693 0.40604-12.258 2.0121-4.6722 5.6176-8.2728 9.7169-10.93 4.1927-2.7183 6.9968-5.3272 12.028-4.643 5.2713 0.71686 5.2726 1.285 8.777 4.8597 3.1684 3.2321 6.975 9.2857 9.5416 12.126 5.0296 4.7938 10.059 9.5877 15.089 14.382-3.0616-0.26614-15.823 3.1297-19.583 5.3157-7.3546 8.2653-9.3832 9.6132-12.251 17.312-8.4973-8.9738-23.308-23.251-23.724-26.164z" fill="none" stroke="#000"/>
     <path d="m138.44 190.86l46.72-8.6638-13.637 41.744-44.194 11.289 11.112-44.369z" fill="url(#m)" stroke="#d4d4d4"/>
     <path d="m138.95 192.62l46.72-8.6638-13.637 41.744-44.194 11.289 11.112-44.369z" fill="url(#m)" stroke="#000"/>
    </g>
    <path d="m109.5 136.81v44.688h0.125c0.1791 1.6832 0.94844 3.5474 2.1875 5.0938 2.2028 2.749 5.0882 3.4298 6.4688 1.5312 0.49613-0.68228 0.72436-1.5954 0.71875-2.625h0.0625v-48.688h-9.5625z" fill="url(#n)" stroke="#0a0a0a" stroke-width=".651"/>
    <path d="m116.03 185.57a1.7236 1.4855 0 1 1 -3.4472 -4.302 1.7236 1.4855 0 1 1 3.4472 4.302z" fill="#b6b6b6" opacity=".579" stroke-width="4.403"/>
   </g>
  </g>
  <path d="m899.36 487.69a240.42 114.15 0 1 1 -480.83 0 240.42 114.15 0 1 1 480.83 0z" fill="#fffc0d" stroke-linecap="round" stroke-linejoin="round" stroke-width="1.75"/>
  <path d="m429.41 525.78c37.112 49.557 56.694 51.052 115.74 70.509 54.705 18.026 125.54 13.995 180.52 9.7172 56.797-4.4194 127.15-32.305 158.97-66.645 35.548-38.365 9.3278-96.559-43.132-119.36-161.74-79.748-470.37-245.63-632.14-303.46-20.784-7.4299-62.488 24.978-39.107 54.514 32.383 49.069 248.04 333.95 259.14 354.72z" fill="url(#p)"/>
 </g>
</svg>
