<?xml version="1.0" encoding="UTF-8" standalone="no"?>
<svg width="2977.23px" height="4208.47px" viewBox="0 0 2977.23 4208.47"
 xmlns="http://www.w3.org/2000/svg" xmlns:xlink="http://www.w3.org/1999/xlink" version="1.2" baseProfile="tiny">
<title>Zwerg-Struktur (8)</title>
<desc>Generated by MuseScore 3.4.2</desc>
<polyline class="StaffLines" fill="none" stroke="#000000" stroke-width="3.25" stroke-linejoin="bevel" points="183.232,316.743 2835.5,316.743"/>
<polyline class="StaffLines" fill="none" stroke="#000000" stroke-width="3.25" stroke-linejoin="bevel" points="183.232,341.745 2835.5,341.745"/>
<polyline class="StaffLines" fill="none" stroke="#000000" stroke-width="3.25" stroke-linejoin="bevel" points="183.232,366.746 2835.5,366.746"/>
<polyline class="StaffLines" fill="none" stroke="#000000" stroke-width="3.25" stroke-linejoin="bevel" points="183.232,391.748 2835.5,391.748"/>
<polyline class="StaffLines" fill="none" stroke="#000000" stroke-width="3.25" stroke-linejoin="bevel" points="183.232,416.75 2835.5,416.75"/>
<polyline class="StaffLines" fill="none" stroke="#000000" stroke-width="3.25" stroke-linejoin="bevel" points="183.232,579.26 2835.5,579.26"/>
<polyline class="StaffLines" fill="none" stroke="#000000" stroke-width="3.25" stroke-linejoin="bevel" points="183.232,604.261 2835.5,604.261"/>
<polyline class="StaffLines" fill="none" stroke="#000000" stroke-width="3.25" stroke-linejoin="bevel" points="183.232,629.263 2835.5,629.263"/>
<polyline class="StaffLines" fill="none" stroke="#000000" stroke-width="3.25" stroke-linejoin="bevel" points="183.232,654.265 2835.5,654.265"/>
<polyline class="StaffLines" fill="none" stroke="#000000" stroke-width="3.25" stroke-linejoin="bevel" points="183.232,679.266 2835.5,679.266"/>
<polyline class="BarLine" fill="none" stroke="#000000" stroke-width="4.00" stroke-linejoin="bevel" points="185.233,577.635 185.233,680.891"/>
<polyline class="BarLine" fill="none" stroke="#000000" stroke-width="4.00" stroke-linejoin="bevel" points="604.535,577.635 604.535,680.891"/>
<polyline class="BarLine" fill="none" stroke="#000000" stroke-width="4.00" stroke-linejoin="bevel" points="927.214,577.635 927.214,680.891"/>
<polyline class="BarLine" fill="none" stroke="#000000" stroke-width="4.00" stroke-linejoin="bevel" points="1276.39,577.635 1276.39,680.891"/>
<polyline class="BarLine" fill="none" stroke="#000000" stroke-width="4.00" stroke-linejoin="bevel" points="1595.18,577.635 1595.18,680.891"/>
<polyline class="BarLine" fill="none" stroke="#000000" stroke-width="4.00" stroke-linejoin="bevel" points="1972.3,577.635 1972.3,680.891"/>
<polyline class="BarLine" fill="none" stroke="#000000" stroke-width="4.00" stroke-linejoin="bevel" points="2263.97,577.635 2263.97,680.891"/>
<polyline class="BarLine" fill="none" stroke="#000000" stroke-width="4.00" stroke-linejoin="bevel" points="2521.49,577.635 2521.49,680.891"/>
<polyline class="BarLine" fill="none" stroke="#000000" stroke-width="4.00" stroke-linejoin="bevel" points="2833.5,577.635 2833.5,680.891"/>
<polyline class="BarLine" fill="none" stroke="#000000" stroke-width="4.00" stroke-linejoin="bevel" points="185.233,315.118 185.233,579.26"/>
<polyline class="BarLine" fill="none" stroke="#000000" stroke-width="4.00" stroke-linejoin="bevel" points="604.535,315.118 604.535,579.26"/>
<polyline class="BarLine" fill="none" stroke="#000000" stroke-width="4.00" stroke-linejoin="bevel" points="927.214,315.118 927.214,579.26"/>
<polyline class="BarLine" fill="none" stroke="#000000" stroke-width="4.00" stroke-linejoin="bevel" points="1276.39,315.118 1276.39,579.26"/>
<polyline class="BarLine" fill="none" stroke="#000000" stroke-width="4.00" stroke-linejoin="bevel" points="1595.18,315.118 1595.18,579.26"/>
<polyline class="BarLine" fill="none" stroke="#000000" stroke-width="4.00" stroke-linejoin="bevel" points="1972.3,315.118 1972.3,579.26"/>
<polyline class="BarLine" fill="none" stroke="#000000" stroke-width="4.00" stroke-linejoin="bevel" points="2263.97,315.118 2263.97,579.26"/>
<polyline class="BarLine" fill="none" stroke="#000000" stroke-width="4.00" stroke-linejoin="bevel" points="2521.49,315.118 2521.49,579.26"/>
<polyline class="BarLine" fill="none" stroke="#000000" stroke-width="4.00" stroke-linejoin="bevel" points="2833.5,315.118 2833.5,579.26"/>
<path class="Accidental" d="M629.739,625.357 C629.739,623.966 635.833,621.357 638.239,621.357 C638.833,621.357 639.13,621.466 639.13,621.857 L639.13,632.169 C639.13,633.966 633.443,636.263 630.943,636.263 C630.239,636.263 629.739,636.06 629.739,635.669 L629.739,625.357 M640.13,611.169 C639.943,611.169 639.833,611.263 639.739,611.263 C639.739,611.263 633.333,613.56 630.739,613.56 C630.13,613.56 629.739,613.466 629.739,613.06 L629.739,596.357 C629.739,595.654 629.13,595.154 628.536,595.154 L627.239,595.154 C626.536,595.154 626.036,595.654 626.036,596.357 L626.036,647.857 C626.036,648.466 626.333,648.763 626.833,648.763 C626.943,648.763 627.13,648.669 627.239,648.669 C627.239,648.669 627.443,648.669 627.536,648.56 C628.943,647.966 634.536,645.56 637.443,645.56 C638.443,645.56 639.13,645.857 639.13,646.669 L639.13,661.56 C639.13,662.263 639.63,662.763 640.333,662.763 L641.63,662.763 C642.239,662.763 642.833,662.263 642.833,661.56 L642.833,611.357 C642.833,610.857 642.443,610.56 642.036,610.56 C641.943,610.56 641.739,610.56 641.63,610.669 L640.13,611.169 "/>
<path class="Accidental" d="M983.912,646.264 C983.318,648.264 978.615,650.264 976.318,650.264 C975.709,650.264 975.209,650.061 975.115,649.764 C974.912,649.358 974.818,647.17 974.818,644.764 C974.818,641.67 974.912,638.17 975.115,637.358 C975.318,635.67 979.912,633.561 982.412,633.561 C983.115,633.561 983.709,633.764 983.912,634.17 C984.115,634.67 984.318,637.17 984.318,639.858 C984.318,642.561 984.115,645.358 983.912,646.264 M990.818,629.967 C991.521,629.67 992.021,628.858 992.021,628.264 L992.021,621.17 C992.021,620.67 991.709,620.358 991.318,620.358 C991.115,620.358 991.021,620.358 990.818,620.467 C990.818,620.467 988.818,621.264 988.318,621.358 C987.615,621.358 986.912,620.858 986.912,620.061 L986.912,607.858 C986.912,607.264 986.318,606.764 985.521,606.764 C984.521,606.764 983.912,607.264 983.912,607.858 L983.912,620.858 C983.818,621.858 983.521,623.17 982.615,623.764 C981.412,624.467 978.021,625.858 976.318,626.264 C975.412,626.264 975.115,625.061 975.115,624.264 L975.115,612.264 C975.115,611.654 974.412,611.154 973.709,611.154 C972.709,611.154 972.115,611.654 972.115,612.264 L972.115,625.764 C972.115,627.17 971.521,628.17 970.912,628.467 C970.318,628.764 968.318,629.561 968.318,629.561 C967.615,629.764 967.115,630.561 967.115,631.17 L967.115,638.264 C967.115,638.858 967.412,639.17 967.912,639.17 C968.021,639.17 968.209,639.061 968.318,639.061 C968.318,639.061 969.818,638.467 970.521,638.061 C970.615,638.061 970.709,637.967 970.818,637.967 C971.521,637.967 972.115,638.967 972.115,639.764 L972.115,649.67 C972.115,650.764 971.615,651.67 971.021,651.967 C970.412,652.17 968.318,653.061 968.318,653.061 C967.615,653.264 967.115,654.061 967.115,654.67 L967.115,661.764 C967.115,662.358 967.412,662.67 967.912,662.67 C968.021,662.67 968.209,662.561 968.318,662.561 C968.318,662.561 969.709,661.967 970.615,661.67 C970.709,661.561 970.818,661.561 970.912,661.561 C971.615,661.561 972.115,662.67 972.115,663.17 L972.115,675.467 C972.115,676.061 972.709,676.561 973.412,676.561 C974.412,676.561 975.115,676.061 975.115,675.467 L975.115,661.561 C975.115,660.264 975.615,659.561 976.115,659.358 L982.209,656.858 C982.318,656.858 982.521,656.764 982.615,656.764 C983.412,656.764 983.912,657.967 983.912,658.561 L983.912,671.061 C983.912,671.67 984.521,672.17 985.209,672.17 C986.318,672.17 986.912,671.67 986.912,671.061 L986.912,656.858 C986.912,656.061 987.318,654.858 988.021,654.561 C988.709,654.264 990.818,653.467 990.818,653.467 C991.521,653.17 992.021,652.358 992.021,651.764 L992.021,644.67 C992.021,644.17 991.709,643.858 991.318,643.858 C991.115,643.858 991.021,643.858 990.818,643.967 L988.209,644.967 C987.615,644.967 986.912,644.358 986.912,643.17 L986.912,633.858 C986.912,633.17 987.412,631.264 988.209,630.967 L990.818,629.967 "/>
<path class="Accidental" d="M1297.7,637.858 C1297.7,636.467 1303.79,633.858 1306.2,633.858 C1306.79,633.858 1307.09,633.967 1307.09,634.358 L1307.09,644.67 C1307.09,646.467 1301.4,648.764 1298.9,648.764 C1298.2,648.764 1297.7,648.561 1297.7,648.17 L1297.7,637.858 M1308.09,623.67 C1307.9,623.67 1307.79,623.764 1307.7,623.764 C1307.7,623.764 1301.29,626.061 1298.7,626.061 C1298.09,626.061 1297.7,625.967 1297.7,625.561 L1297.7,608.858 C1297.7,608.154 1297.09,607.654 1296.5,607.654 L1295.2,607.654 C1294.5,607.654 1294,608.154 1294,608.858 L1294,660.358 C1294,660.967 1294.29,661.264 1294.79,661.264 C1294.9,661.264 1295.09,661.17 1295.2,661.17 C1295.2,661.17 1295.4,661.17 1295.5,661.061 C1296.9,660.467 1302.5,658.061 1305.4,658.061 C1306.4,658.061 1307.09,658.358 1307.09,659.17 L1307.09,674.061 C1307.09,674.764 1307.59,675.264 1308.29,675.264 L1309.59,675.264 C1310.2,675.264 1310.79,674.764 1310.79,674.061 L1310.79,623.858 C1310.79,623.358 1310.4,623.061 1310,623.061 C1309.9,623.061 1309.7,623.061 1309.59,623.17 L1308.09,623.67 "/>
<path class="Accidental" d="M1670.03,649.858 C1670.03,649.858 1669.73,643.858 1669.73,639.858 C1669.73,638.264 1669.83,637.061 1669.92,636.67 C1670.33,635.467 1672.92,633.264 1674.33,632.467 C1675.23,631.967 1676.13,631.764 1676.92,631.764 C1677.92,631.764 1678.83,632.17 1679.42,632.858 C1680.42,633.967 1681.03,635.67 1681.03,637.561 C1681.03,639.358 1680.53,641.467 1679.33,643.561 C1678.03,645.967 1675.13,649.17 1672.13,651.061 C1671.73,651.264 1671.42,651.358 1671.13,651.358 C1670.23,651.358 1670.03,650.358 1670.03,649.858 M1666.53,658.764 C1666.83,659.17 1667.13,659.264 1667.42,659.264 C1667.73,659.264 1668.03,659.061 1668.03,659.061 C1671.03,657.358 1673.42,654.67 1675.92,652.967 C1684.83,646.764 1687.92,640.67 1687.92,636.061 C1687.92,630.358 1683.53,626.764 1678.92,626.467 C1678.23,626.467 1677.53,626.561 1676.83,626.764 C1675.73,627.061 1674.53,627.467 1673.42,628.17 C1672.83,628.67 1671.73,629.561 1671.23,629.561 C1671.03,629.561 1670.92,629.561 1670.73,629.467 C1670.03,629.17 1669.63,628.467 1669.63,627.764 C1669.73,625.561 1670.33,601.561 1670.33,599.561 C1670.33,598.467 1669.42,597.858 1668.42,597.858 C1667.03,597.858 1665.42,598.858 1665.33,600.654 C1665.33,600.654 1665.73,657.764 1666.53,658.764"/>
<path class="Accidental" d="M2028.66,662.358 C2028.66,662.358 2028.36,656.358 2028.36,652.358 C2028.36,650.765 2028.46,649.561 2028.55,649.171 C2028.96,647.968 2031.55,645.765 2032.96,644.968 C2033.86,644.468 2034.75,644.265 2035.55,644.265 C2036.55,644.265 2037.46,644.671 2038.05,645.358 C2039.05,646.468 2039.66,648.171 2039.66,650.061 C2039.66,651.858 2039.16,653.968 2037.96,656.061 C2036.66,658.468 2033.75,661.671 2030.75,663.561 C2030.36,663.765 2030.05,663.858 2029.75,663.858 C2028.86,663.858 2028.66,662.858 2028.66,662.358 M2025.16,671.265 C2025.46,671.671 2025.75,671.765 2026.05,671.765 C2026.36,671.765 2026.66,671.561 2026.66,671.561 C2029.66,669.858 2032.05,667.171 2034.55,665.468 C2043.46,659.265 2046.55,653.171 2046.55,648.561 C2046.55,642.858 2042.16,639.265 2037.55,638.968 C2036.86,638.968 2036.16,639.061 2035.46,639.265 C2034.36,639.561 2033.16,639.968 2032.05,640.671 C2031.46,641.171 2030.36,642.061 2029.86,642.061 C2029.66,642.061 2029.55,642.061 2029.36,641.968 C2028.66,641.671 2028.25,640.968 2028.25,640.265 C2028.36,638.061 2028.96,614.061 2028.96,612.061 C2028.96,610.968 2028.05,610.358 2027.05,610.358 C2025.66,610.358 2024.05,611.358 2023.96,613.155 C2023.96,613.155 2024.36,670.265 2025.16,671.265"/>
<path class="Accidental" d="M2278.17,662.358 C2278.17,662.358 2277.88,656.358 2277.88,652.358 C2277.88,650.765 2277.97,649.561 2278.06,649.171 C2278.47,647.968 2281.06,645.765 2282.47,644.968 C2283.38,644.468 2284.27,644.265 2285.06,644.265 C2286.06,644.265 2286.97,644.671 2287.56,645.358 C2288.56,646.468 2289.17,648.171 2289.17,650.061 C2289.17,651.858 2288.67,653.968 2287.47,656.061 C2286.17,658.468 2283.27,661.671 2280.27,663.561 C2279.88,663.765 2279.56,663.858 2279.27,663.858 C2278.38,663.858 2278.17,662.858 2278.17,662.358 M2274.67,671.265 C2274.97,671.671 2275.27,671.765 2275.56,671.765 C2275.88,671.765 2276.17,671.561 2276.17,671.561 C2279.17,669.858 2281.56,667.171 2284.06,665.468 C2292.97,659.265 2296.06,653.171 2296.06,648.561 C2296.06,642.858 2291.67,639.265 2287.06,638.968 C2286.38,638.968 2285.67,639.061 2284.97,639.265 C2283.88,639.561 2282.67,639.968 2281.56,640.671 C2280.97,641.171 2279.88,642.061 2279.38,642.061 C2279.17,642.061 2279.06,642.061 2278.88,641.968 C2278.17,641.671 2277.77,640.968 2277.77,640.265 C2277.88,638.061 2278.47,614.061 2278.47,612.061 C2278.47,610.968 2277.56,610.358 2276.56,610.358 C2275.17,610.358 2273.56,611.358 2273.47,613.155 C2273.47,613.155 2273.88,670.265 2274.67,671.265"/>
<path class="Accidental" d="M2593.19,712.361 C2593.19,712.361 2592.89,706.361 2592.89,702.361 C2592.89,700.768 2592.98,699.565 2593.08,699.174 C2593.48,697.971 2596.08,695.768 2597.48,694.971 C2598.39,694.471 2599.28,694.268 2600.08,694.268 C2601.08,694.268 2601.98,694.674 2602.58,695.361 C2603.58,696.471 2604.19,698.174 2604.19,700.065 C2604.19,701.861 2603.69,703.971 2602.48,706.065 C2601.19,708.471 2598.28,711.674 2595.28,713.565 C2594.89,713.768 2594.58,713.861 2594.28,713.861 C2593.39,713.861 2593.19,712.861 2593.19,712.361 M2589.69,721.268 C2589.98,721.674 2590.28,721.768 2590.58,721.768 C2590.89,721.768 2591.19,721.565 2591.19,721.565 C2594.19,719.861 2596.58,717.174 2599.08,715.471 C2607.98,709.268 2611.08,703.174 2611.08,698.565 C2611.08,692.861 2606.69,689.268 2602.08,688.971 C2601.39,688.971 2600.69,689.065 2599.98,689.268 C2598.89,689.565 2597.69,689.971 2596.58,690.674 C2595.98,691.174 2594.89,692.065 2594.39,692.065 C2594.19,692.065 2594.08,692.065 2593.89,691.971 C2593.19,691.674 2592.78,690.971 2592.78,690.268 C2592.89,688.065 2593.48,664.065 2593.48,662.065 C2593.48,660.971 2592.58,660.361 2591.58,660.361 C2590.19,660.361 2588.58,661.361 2588.48,663.158 C2588.48,663.158 2588.89,720.268 2589.69,721.268"/>
<path class="Accidental" d="M354.133,408.749 C353.539,410.749 348.836,412.749 346.539,412.749 C345.93,412.749 345.43,412.546 345.336,412.249 C345.133,411.843 345.039,409.655 345.039,407.249 C345.039,404.155 345.133,400.655 345.336,399.843 C345.539,398.155 350.133,396.046 352.633,396.046 C353.336,396.046 353.93,396.249 354.133,396.655 C354.336,397.155 354.539,399.655 354.539,402.343 C354.539,405.046 354.336,407.843 354.133,408.749 M361.039,392.452 C361.742,392.155 362.242,391.343 362.242,390.749 L362.242,383.655 C362.242,383.155 361.93,382.843 361.539,382.843 C361.336,382.843 361.242,382.843 361.039,382.952 C361.039,382.952 359.039,383.749 358.539,383.843 C357.836,383.843 357.133,383.343 357.133,382.546 L357.133,370.343 C357.133,369.749 356.539,369.249 355.742,369.249 C354.742,369.249 354.133,369.749 354.133,370.343 L354.133,383.343 C354.039,384.343 353.742,385.655 352.836,386.249 C351.633,386.952 348.242,388.343 346.539,388.749 C345.633,388.749 345.336,387.546 345.336,386.749 L345.336,374.749 C345.336,374.139 344.633,373.639 343.93,373.639 C342.93,373.639 342.336,374.139 342.336,374.749 L342.336,388.249 C342.336,389.655 341.742,390.655 341.133,390.952 C340.539,391.249 338.539,392.046 338.539,392.046 C337.836,392.249 337.336,393.046 337.336,393.655 L337.336,400.749 C337.336,401.343 337.633,401.655 338.133,401.655 C338.242,401.655 338.43,401.546 338.539,401.546 C338.539,401.546 340.039,400.952 340.742,400.546 C340.836,400.546 340.93,400.452 341.039,400.452 C341.742,400.452 342.336,401.452 342.336,402.249 L342.336,412.155 C342.336,413.249 341.836,414.155 341.242,414.452 C340.633,414.655 338.539,415.546 338.539,415.546 C337.836,415.749 337.336,416.546 337.336,417.155 L337.336,424.249 C337.336,424.843 337.633,425.155 338.133,425.155 C338.242,425.155 338.43,425.046 338.539,425.046 C338.539,425.046 339.93,424.452 340.836,424.155 C340.93,424.046 341.039,424.046 341.133,424.046 C341.836,424.046 342.336,425.155 342.336,425.655 L342.336,437.952 C342.336,438.546 342.93,439.046 343.633,439.046 C344.633,439.046 345.336,438.546 345.336,437.952 L345.336,424.046 C345.336,422.749 345.836,422.046 346.336,421.843 L352.43,419.343 C352.539,419.343 352.742,419.249 352.836,419.249 C353.633,419.249 354.133,420.452 354.133,421.046 L354.133,433.546 C354.133,434.155 354.742,434.655 355.43,434.655 C356.539,434.655 357.133,434.155 357.133,433.546 L357.133,419.343 C357.133,418.546 357.539,417.343 358.242,417.046 C358.93,416.749 361.039,415.952 361.039,415.952 C361.742,415.655 362.242,414.843 362.242,414.249 L362.242,407.155 C362.242,406.655 361.93,406.343 361.539,406.343 C361.336,406.343 361.242,406.343 361.039,406.452 L358.43,407.452 C357.836,407.452 357.133,406.843 357.133,405.655 L357.133,396.343 C357.133,395.655 357.633,393.749 358.43,393.452 L361.039,392.452 "/>
<path class="Accidental" d="M2014.6,399.842 C2014.6,399.842 2014.31,393.842 2014.31,389.842 C2014.31,388.248 2014.4,387.045 2014.49,386.654 C2014.9,385.451 2017.49,383.248 2018.9,382.451 C2019.81,381.951 2020.7,381.748 2021.49,381.748 C2022.49,381.748 2023.4,382.154 2023.99,382.842 C2024.99,383.951 2025.6,385.654 2025.6,387.545 C2025.6,389.342 2025.1,391.451 2023.9,393.545 C2022.6,395.951 2019.7,399.154 2016.7,401.045 C2016.31,401.248 2015.99,401.342 2015.7,401.342 C2014.81,401.342 2014.6,400.342 2014.6,399.842 M2011.1,408.748 C2011.4,409.154 2011.7,409.248 2011.99,409.248 C2012.31,409.248 2012.6,409.045 2012.6,409.045 C2015.6,407.342 2017.99,404.654 2020.49,402.951 C2029.4,396.748 2032.49,390.654 2032.49,386.045 C2032.49,380.342 2028.1,376.748 2023.49,376.451 C2022.81,376.451 2022.1,376.545 2021.4,376.748 C2020.31,377.045 2019.1,377.451 2017.99,378.154 C2017.4,378.654 2016.31,379.545 2015.81,379.545 C2015.6,379.545 2015.49,379.545 2015.31,379.451 C2014.6,379.154 2014.2,378.451 2014.2,377.748 C2014.31,375.545 2014.9,351.545 2014.9,349.545 C2014.9,348.451 2013.99,347.842 2012.99,347.842 C2011.6,347.842 2009.99,348.842 2009.9,350.639 C2009.9,350.639 2010.31,407.748 2011.1,408.748"/>
<path class="Accidental" d="M634.731,408.749 C634.137,410.749 629.434,412.749 627.137,412.749 C626.528,412.749 626.028,412.546 625.934,412.249 C625.731,411.843 625.637,409.655 625.637,407.249 C625.637,404.155 625.731,400.655 625.934,399.843 C626.137,398.155 630.731,396.046 633.231,396.046 C633.934,396.046 634.528,396.249 634.731,396.655 C634.934,397.155 635.137,399.655 635.137,402.343 C635.137,405.046 634.934,407.843 634.731,408.749 M641.637,392.452 C642.34,392.155 642.84,391.343 642.84,390.749 L642.84,383.655 C642.84,383.155 642.528,382.843 642.137,382.843 C641.934,382.843 641.84,382.843 641.637,382.952 C641.637,382.952 639.637,383.749 639.137,383.843 C638.434,383.843 637.731,383.343 637.731,382.546 L637.731,370.343 C637.731,369.749 637.137,369.249 636.34,369.249 C635.34,369.249 634.731,369.749 634.731,370.343 L634.731,383.343 C634.637,384.343 634.34,385.655 633.434,386.249 C632.231,386.952 628.84,388.343 627.137,388.749 C626.231,388.749 625.934,387.546 625.934,386.749 L625.934,374.749 C625.934,374.139 625.231,373.639 624.528,373.639 C623.528,373.639 622.934,374.139 622.934,374.749 L622.934,388.249 C622.934,389.655 622.34,390.655 621.731,390.952 C621.137,391.249 619.137,392.046 619.137,392.046 C618.434,392.249 617.934,393.046 617.934,393.655 L617.934,400.749 C617.934,401.343 618.231,401.655 618.731,401.655 C618.84,401.655 619.028,401.546 619.137,401.546 C619.137,401.546 620.637,400.952 621.34,400.546 C621.434,400.546 621.528,400.452 621.637,400.452 C622.34,400.452 622.934,401.452 622.934,402.249 L622.934,412.155 C622.934,413.249 622.434,414.155 621.84,414.452 C621.231,414.655 619.137,415.546 619.137,415.546 C618.434,415.749 617.934,416.546 617.934,417.155 L617.934,424.249 C617.934,424.843 618.231,425.155 618.731,425.155 C618.84,425.155 619.028,425.046 619.137,425.046 C619.137,425.046 620.528,424.452 621.434,424.155 C621.528,424.046 621.637,424.046 621.731,424.046 C622.434,424.046 622.934,425.155 622.934,425.655 L622.934,437.952 C622.934,438.546 623.528,439.046 624.231,439.046 C625.231,439.046 625.934,438.546 625.934,437.952 L625.934,424.046 C625.934,422.749 626.434,422.046 626.934,421.843 L633.028,419.343 C633.137,419.343 633.34,419.249 633.434,419.249 C634.231,419.249 634.731,420.452 634.731,421.046 L634.731,433.546 C634.731,434.155 635.34,434.655 636.028,434.655 C637.137,434.655 637.731,434.155 637.731,433.546 L637.731,419.343 C637.731,418.546 638.137,417.343 638.84,417.046 C639.528,416.749 641.637,415.952 641.637,415.952 C642.34,415.655 642.84,414.843 642.84,414.249 L642.84,407.155 C642.84,406.655 642.528,406.343 642.137,406.343 C641.934,406.343 641.84,406.343 641.637,406.452 L639.028,407.452 C638.434,407.452 637.731,406.843 637.731,405.655 L637.731,396.343 C637.731,395.655 638.231,393.749 639.028,393.452 L641.637,392.452 "/>
<path class="Accidental" d="M953.512,408.749 C952.918,410.749 948.215,412.749 945.918,412.749 C945.308,412.749 944.808,412.546 944.715,412.249 C944.512,411.843 944.418,409.655 944.418,407.249 C944.418,404.155 944.512,400.655 944.715,399.843 C944.918,398.155 949.512,396.046 952.012,396.046 C952.715,396.046 953.308,396.249 953.512,396.655 C953.715,397.155 953.918,399.655 953.918,402.343 C953.918,405.046 953.715,407.843 953.512,408.749 M960.418,392.452 C961.121,392.155 961.621,391.343 961.621,390.749 L961.621,383.655 C961.621,383.155 961.308,382.843 960.918,382.843 C960.715,382.843 960.621,382.843 960.418,382.952 C960.418,382.952 958.418,383.749 957.918,383.843 C957.215,383.843 956.512,383.343 956.512,382.546 L956.512,370.343 C956.512,369.749 955.918,369.249 955.121,369.249 C954.121,369.249 953.512,369.749 953.512,370.343 L953.512,383.343 C953.418,384.343 953.121,385.655 952.215,386.249 C951.012,386.952 947.621,388.343 945.918,388.749 C945.012,388.749 944.715,387.546 944.715,386.749 L944.715,374.749 C944.715,374.139 944.012,373.639 943.308,373.639 C942.308,373.639 941.715,374.139 941.715,374.749 L941.715,388.249 C941.715,389.655 941.121,390.655 940.512,390.952 C939.918,391.249 937.918,392.046 937.918,392.046 C937.215,392.249 936.715,393.046 936.715,393.655 L936.715,400.749 C936.715,401.343 937.012,401.655 937.512,401.655 C937.621,401.655 937.808,401.546 937.918,401.546 C937.918,401.546 939.418,400.952 940.121,400.546 C940.215,400.546 940.308,400.452 940.418,400.452 C941.121,400.452 941.715,401.452 941.715,402.249 L941.715,412.155 C941.715,413.249 941.215,414.155 940.621,414.452 C940.012,414.655 937.918,415.546 937.918,415.546 C937.215,415.749 936.715,416.546 936.715,417.155 L936.715,424.249 C936.715,424.843 937.012,425.155 937.512,425.155 C937.621,425.155 937.808,425.046 937.918,425.046 C937.918,425.046 939.308,424.452 940.215,424.155 C940.308,424.046 940.418,424.046 940.512,424.046 C941.215,424.046 941.715,425.155 941.715,425.655 L941.715,437.952 C941.715,438.546 942.308,439.046 943.012,439.046 C944.012,439.046 944.715,438.546 944.715,437.952 L944.715,424.046 C944.715,422.749 945.215,422.046 945.715,421.843 L951.808,419.343 C951.918,419.343 952.121,419.249 952.215,419.249 C953.012,419.249 953.512,420.452 953.512,421.046 L953.512,433.546 C953.512,434.155 954.121,434.655 954.808,434.655 C955.918,434.655 956.512,434.155 956.512,433.546 L956.512,419.343 C956.512,418.546 956.918,417.343 957.621,417.046 C958.308,416.749 960.418,415.952 960.418,415.952 C961.121,415.655 961.621,414.843 961.621,414.249 L961.621,407.155 C961.621,406.655 961.308,406.343 960.918,406.343 C960.715,406.343 960.621,406.343 960.418,406.452 L957.808,407.452 C957.215,407.452 956.512,406.843 956.512,405.655 L956.512,396.343 C956.512,395.655 957.012,393.749 957.808,393.452 L960.418,392.452 "/>
<path class="Accidental" d="M983.912,358.746 C983.318,360.746 978.615,362.746 976.318,362.746 C975.709,362.746 975.209,362.543 975.115,362.246 C974.912,361.839 974.818,359.652 974.818,357.246 C974.818,354.152 974.912,350.652 975.115,349.839 C975.318,348.152 979.912,346.043 982.412,346.043 C983.115,346.043 983.709,346.246 983.912,346.652 C984.115,347.152 984.318,349.652 984.318,352.339 C984.318,355.043 984.115,357.839 983.912,358.746 M990.818,342.449 C991.521,342.152 992.021,341.339 992.021,340.746 L992.021,333.652 C992.021,333.152 991.709,332.839 991.318,332.839 C991.115,332.839 991.021,332.839 990.818,332.949 C990.818,332.949 988.818,333.746 988.318,333.839 C987.615,333.839 986.912,333.339 986.912,332.543 L986.912,320.339 C986.912,319.746 986.318,319.246 985.521,319.246 C984.521,319.246 983.912,319.746 983.912,320.339 L983.912,333.339 C983.818,334.339 983.521,335.652 982.615,336.246 C981.412,336.949 978.021,338.339 976.318,338.746 C975.412,338.746 975.115,337.543 975.115,336.746 L975.115,324.746 C975.115,324.136 974.412,323.636 973.709,323.636 C972.709,323.636 972.115,324.136 972.115,324.746 L972.115,338.246 C972.115,339.652 971.521,340.652 970.912,340.949 C970.318,341.246 968.318,342.043 968.318,342.043 C967.615,342.246 967.115,343.043 967.115,343.652 L967.115,350.746 C967.115,351.339 967.412,351.652 967.912,351.652 C968.021,351.652 968.209,351.543 968.318,351.543 C968.318,351.543 969.818,350.949 970.521,350.543 C970.615,350.543 970.709,350.449 970.818,350.449 C971.521,350.449 972.115,351.449 972.115,352.246 L972.115,362.152 C972.115,363.246 971.615,364.152 971.021,364.449 C970.412,364.652 968.318,365.543 968.318,365.543 C967.615,365.746 967.115,366.543 967.115,367.152 L967.115,374.246 C967.115,374.839 967.412,375.152 967.912,375.152 C968.021,375.152 968.209,375.043 968.318,375.043 C968.318,375.043 969.709,374.449 970.615,374.152 C970.709,374.043 970.818,374.043 970.912,374.043 C971.615,374.043 972.115,375.152 972.115,375.652 L972.115,387.949 C972.115,388.543 972.709,389.043 973.412,389.043 C974.412,389.043 975.115,388.543 975.115,387.949 L975.115,374.043 C975.115,372.746 975.615,372.043 976.115,371.839 L982.209,369.339 C982.318,369.339 982.521,369.246 982.615,369.246 C983.412,369.246 983.912,370.449 983.912,371.043 L983.912,383.543 C983.912,384.152 984.521,384.652 985.209,384.652 C986.318,384.652 986.912,384.152 986.912,383.543 L986.912,369.339 C986.912,368.543 987.318,367.339 988.021,367.043 C988.709,366.746 990.818,365.949 990.818,365.949 C991.521,365.652 992.021,364.839 992.021,364.246 L992.021,357.152 C992.021,356.652 991.709,356.339 991.318,356.339 C991.115,356.339 991.021,356.339 990.818,356.449 L988.209,357.449 C987.615,357.449 986.912,356.839 986.912,355.652 L986.912,346.339 C986.912,345.652 987.412,343.746 988.209,343.449 L990.818,342.449 "/>
<path class="Accidental" d="M1302.69,408.749 C1302.1,410.749 1297.4,412.749 1295.1,412.749 C1294.49,412.749 1293.99,412.546 1293.9,412.249 C1293.69,411.843 1293.6,409.655 1293.6,407.249 C1293.6,404.155 1293.69,400.655 1293.9,399.843 C1294.1,398.155 1298.69,396.046 1301.19,396.046 C1301.9,396.046 1302.49,396.249 1302.69,396.655 C1302.9,397.155 1303.1,399.655 1303.1,402.343 C1303.1,405.046 1302.9,407.843 1302.69,408.749 M1309.6,392.452 C1310.3,392.155 1310.8,391.343 1310.8,390.749 L1310.8,383.655 C1310.8,383.155 1310.49,382.843 1310.1,382.843 C1309.9,382.843 1309.8,382.843 1309.6,382.952 C1309.6,382.952 1307.6,383.749 1307.1,383.843 C1306.4,383.843 1305.69,383.343 1305.69,382.546 L1305.69,370.343 C1305.69,369.749 1305.1,369.249 1304.3,369.249 C1303.3,369.249 1302.69,369.749 1302.69,370.343 L1302.69,383.343 C1302.6,384.343 1302.3,385.655 1301.4,386.249 C1300.19,386.952 1296.8,388.343 1295.1,388.749 C1294.19,388.749 1293.9,387.546 1293.9,386.749 L1293.9,374.749 C1293.9,374.139 1293.19,373.639 1292.49,373.639 C1291.49,373.639 1290.9,374.139 1290.9,374.749 L1290.9,388.249 C1290.9,389.655 1290.3,390.655 1289.69,390.952 C1289.1,391.249 1287.1,392.046 1287.1,392.046 C1286.4,392.249 1285.9,393.046 1285.9,393.655 L1285.9,400.749 C1285.9,401.343 1286.19,401.655 1286.69,401.655 C1286.8,401.655 1286.99,401.546 1287.1,401.546 C1287.1,401.546 1288.6,400.952 1289.3,400.546 C1289.4,400.546 1289.49,400.452 1289.6,400.452 C1290.3,400.452 1290.9,401.452 1290.9,402.249 L1290.9,412.155 C1290.9,413.249 1290.4,414.155 1289.8,414.452 C1289.19,414.655 1287.1,415.546 1287.1,415.546 C1286.4,415.749 1285.9,416.546 1285.9,417.155 L1285.9,424.249 C1285.9,424.843 1286.19,425.155 1286.69,425.155 C1286.8,425.155 1286.99,425.046 1287.1,425.046 C1287.1,425.046 1288.49,424.452 1289.4,424.155 C1289.49,424.046 1289.6,424.046 1289.69,424.046 C1290.4,424.046 1290.9,425.155 1290.9,425.655 L1290.9,437.952 C1290.9,438.546 1291.49,439.046 1292.19,439.046 C1293.19,439.046 1293.9,438.546 1293.9,437.952 L1293.9,424.046 C1293.9,422.749 1294.4,422.046 1294.9,421.843 L1300.99,419.343 C1301.1,419.343 1301.3,419.249 1301.4,419.249 C1302.19,419.249 1302.69,420.452 1302.69,421.046 L1302.69,433.546 C1302.69,434.155 1303.3,434.655 1303.99,434.655 C1305.1,434.655 1305.69,434.155 1305.69,433.546 L1305.69,419.343 C1305.69,418.546 1306.1,417.343 1306.8,417.046 C1307.49,416.749 1309.6,415.952 1309.6,415.952 C1310.3,415.655 1310.8,414.843 1310.8,414.249 L1310.8,407.155 C1310.8,406.655 1310.49,406.343 1310.1,406.343 C1309.9,406.343 1309.8,406.343 1309.6,406.452 L1306.99,407.452 C1306.4,407.452 1305.69,406.843 1305.69,405.655 L1305.69,396.343 C1305.69,395.655 1306.19,393.749 1306.99,393.452 L1309.6,392.452 "/>
<path class="Accidental" d="M1655.98,399.842 C1655.98,399.842 1655.68,393.842 1655.68,389.842 C1655.68,388.248 1655.77,387.045 1655.87,386.654 C1656.27,385.451 1658.87,383.248 1660.27,382.451 C1661.18,381.951 1662.07,381.748 1662.87,381.748 C1663.87,381.748 1664.77,382.154 1665.37,382.842 C1666.37,383.951 1666.98,385.654 1666.98,387.545 C1666.98,389.342 1666.48,391.451 1665.27,393.545 C1663.98,395.951 1661.07,399.154 1658.07,401.045 C1657.68,401.248 1657.37,401.342 1657.07,401.342 C1656.18,401.342 1655.98,400.342 1655.98,399.842 M1652.48,408.748 C1652.77,409.154 1653.07,409.248 1653.37,409.248 C1653.68,409.248 1653.98,409.045 1653.98,409.045 C1656.98,407.342 1659.37,404.654 1661.87,402.951 C1670.77,396.748 1673.87,390.654 1673.87,386.045 C1673.87,380.342 1669.48,376.748 1664.87,376.451 C1664.18,376.451 1663.48,376.545 1662.77,376.748 C1661.68,377.045 1660.48,377.451 1659.37,378.154 C1658.77,378.654 1657.68,379.545 1657.18,379.545 C1656.98,379.545 1656.87,379.545 1656.68,379.451 C1655.98,379.154 1655.57,378.451 1655.57,377.748 C1655.68,375.545 1656.27,351.545 1656.27,349.545 C1656.27,348.451 1655.37,347.842 1654.37,347.842 C1652.98,347.842 1651.37,348.842 1651.27,350.639 C1651.27,350.639 1651.68,407.748 1652.48,408.748"/>
<path class="Accidental" d="M1636.08,351.653 C1635.58,351.653 1635.18,351.653 1634.68,351.746 C1633.47,352.043 1632.38,352.653 1631.38,353.246 C1630.68,353.653 1629.88,354.543 1628.97,354.543 C1628.77,354.543 1628.58,354.543 1628.47,354.45 C1627.77,354.246 1627.47,353.543 1627.47,352.746 C1627.47,350.653 1628.08,326.543 1628.08,324.637 C1628.08,323.543 1627.18,323.043 1626.18,323.043 C1624.88,323.043 1623.27,323.95 1623.08,325.637 C1623.08,325.637 1623.18,339.34 1623.38,353.246 C1621.88,352.246 1620.18,351.653 1618.27,351.653 L1617.68,351.653 C1617.18,351.653 1616.68,351.653 1616.27,351.746 C1615.08,352.043 1613.97,352.653 1612.97,353.246 C1612.18,353.653 1611.47,354.543 1610.58,354.543 C1610.38,354.543 1610.27,354.543 1610.08,354.45 C1609.38,354.246 1608.97,353.543 1608.97,352.746 C1608.97,350.653 1609.68,326.543 1609.68,324.637 C1609.68,323.543 1608.77,323.043 1607.77,323.043 C1606.38,323.043 1604.77,323.95 1604.68,325.637 C1604.68,325.637 1605.18,382.84 1605.88,383.746 C1606.18,384.153 1606.47,384.246 1606.77,384.246 C1607.08,384.246 1607.38,384.043 1607.38,384.043 C1610.47,382.45 1612.97,379.653 1615.27,377.95 C1618.97,375.34 1621.77,372.653 1623.68,370.246 C1623.88,377.746 1624.08,383.45 1624.38,383.746 C1624.68,384.153 1624.97,384.246 1625.18,384.246 C1625.47,384.246 1625.77,384.043 1625.77,384.043 C1628.88,382.45 1631.29,379.653 1633.58,378.043 C1642.58,371.746 1645.79,365.653 1645.79,361.043 C1645.79,355.45 1641.38,351.746 1636.68,351.653 L1636.08,351.653 M1618.77,368.543 C1617.47,370.95 1614.58,374.043 1611.38,376.043 C1611.08,376.246 1610.68,376.34 1610.47,376.34 C1609.68,376.34 1609.38,375.34 1609.38,374.746 C1609.38,374.746 1609.08,368.84 1609.08,364.95 C1609.08,363.34 1609.18,362.153 1609.27,361.746 C1609.68,360.45 1612.38,358.246 1613.77,357.45 C1614.68,356.95 1615.58,356.746 1616.38,356.746 C1617.38,356.746 1618.18,357.043 1618.77,357.746 C1619.77,358.95 1620.38,360.653 1620.38,362.653 C1620.38,364.45 1619.88,366.543 1618.77,368.543 M1637.08,368.543 C1635.88,370.95 1632.97,374.043 1629.77,376.043 C1629.38,376.246 1629.08,376.34 1628.88,376.34 C1628.08,376.34 1627.77,375.34 1627.77,374.746 C1627.77,374.746 1627.47,367.84 1627.47,364.043 C1627.47,362.95 1627.47,362.043 1627.58,361.746 C1627.97,360.45 1630.68,358.246 1632.18,357.45 C1633.08,356.95 1633.97,356.746 1634.79,356.746 C1635.79,356.746 1636.58,357.043 1637.18,357.746 C1638.08,358.95 1638.68,360.653 1638.68,362.653 C1638.68,364.45 1638.18,366.45 1637.08,368.543"/>
<path class="Accidental" d="M1670.03,337.338 C1670.03,337.338 1669.73,331.338 1669.73,327.338 C1669.73,325.744 1669.83,324.541 1669.92,324.15 C1670.33,322.947 1672.92,320.744 1674.33,319.947 C1675.23,319.447 1676.13,319.244 1676.92,319.244 C1677.92,319.244 1678.83,319.65 1679.42,320.338 C1680.42,321.447 1681.03,323.15 1681.03,325.041 C1681.03,326.838 1680.53,328.947 1679.33,331.041 C1678.03,333.447 1675.13,336.65 1672.13,338.541 C1671.73,338.744 1671.42,338.838 1671.13,338.838 C1670.23,338.838 1670.03,337.838 1670.03,337.338 M1666.53,346.244 C1666.83,346.65 1667.13,346.744 1667.42,346.744 C1667.73,346.744 1668.03,346.541 1668.03,346.541 C1671.03,344.838 1673.42,342.15 1675.92,340.447 C1684.83,334.244 1687.92,328.15 1687.92,323.541 C1687.92,317.838 1683.53,314.244 1678.92,313.947 C1678.23,313.947 1677.53,314.041 1676.83,314.244 C1675.73,314.541 1674.53,314.947 1673.42,315.65 C1672.83,316.15 1671.73,317.041 1671.23,317.041 C1671.03,317.041 1670.92,317.041 1670.73,316.947 C1670.03,316.65 1669.63,315.947 1669.63,315.244 C1669.73,313.041 1670.33,289.041 1670.33,287.041 C1670.33,285.947 1669.42,285.338 1668.42,285.338 C1667.03,285.338 1665.42,286.338 1665.33,288.135 C1665.33,288.135 1665.73,345.244 1666.53,346.244"/>
<path class="Accidental" d="M1986.51,374.84 C1986.51,374.84 1986.21,368.84 1986.21,364.84 C1986.21,363.246 1986.3,362.043 1986.4,361.653 C1986.8,360.45 1989.4,358.246 1990.8,357.45 C1991.71,356.95 1992.6,356.746 1993.4,356.746 C1994.4,356.746 1995.3,357.153 1995.9,357.84 C1996.9,358.95 1997.51,360.653 1997.51,362.543 C1997.51,364.34 1997.01,366.45 1995.8,368.543 C1994.51,370.95 1991.6,374.153 1988.6,376.043 C1988.21,376.246 1987.9,376.34 1987.6,376.34 C1986.71,376.34 1986.51,375.34 1986.51,374.84 M1983.01,383.746 C1983.3,384.153 1983.6,384.246 1983.9,384.246 C1984.21,384.246 1984.51,384.043 1984.51,384.043 C1987.51,382.34 1989.9,379.653 1992.4,377.95 C2001.3,371.746 2004.4,365.653 2004.4,361.043 C2004.4,355.34 2000.01,351.746 1995.4,351.45 C1994.71,351.45 1994.01,351.543 1993.3,351.746 C1992.21,352.043 1991.01,352.45 1989.9,353.153 C1989.3,353.653 1988.21,354.543 1987.71,354.543 C1987.51,354.543 1987.4,354.543 1987.21,354.45 C1986.51,354.153 1986.1,353.45 1986.1,352.746 C1986.21,350.543 1986.8,326.543 1986.8,324.543 C1986.8,323.45 1985.9,322.84 1984.9,322.84 C1983.51,322.84 1981.9,323.84 1981.8,325.637 C1981.8,325.637 1982.21,382.746 1983.01,383.746"/>
<path class="Accidental" d="M2028.66,337.338 C2028.66,337.338 2028.36,331.338 2028.36,327.338 C2028.36,325.744 2028.46,324.541 2028.55,324.15 C2028.96,322.947 2031.55,320.744 2032.96,319.947 C2033.86,319.447 2034.75,319.244 2035.55,319.244 C2036.55,319.244 2037.46,319.65 2038.05,320.338 C2039.05,321.447 2039.66,323.15 2039.66,325.041 C2039.66,326.838 2039.16,328.947 2037.96,331.041 C2036.66,333.447 2033.75,336.65 2030.75,338.541 C2030.36,338.744 2030.05,338.838 2029.75,338.838 C2028.86,338.838 2028.66,337.838 2028.66,337.338 M2025.16,346.244 C2025.46,346.65 2025.75,346.744 2026.05,346.744 C2026.36,346.744 2026.66,346.541 2026.66,346.541 C2029.66,344.838 2032.05,342.15 2034.55,340.447 C2043.46,334.244 2046.55,328.15 2046.55,323.541 C2046.55,317.838 2042.16,314.244 2037.55,313.947 C2036.86,313.947 2036.16,314.041 2035.46,314.244 C2034.36,314.541 2033.16,314.947 2032.05,315.65 C2031.46,316.15 2030.36,317.041 2029.86,317.041 C2029.66,317.041 2029.55,317.041 2029.36,316.947 C2028.66,316.65 2028.25,315.947 2028.25,315.244 C2028.36,313.041 2028.96,289.041 2028.96,287.041 C2028.96,285.947 2028.05,285.338 2027.05,285.338 C2025.66,285.338 2024.05,286.338 2023.96,288.135 C2023.96,288.135 2024.36,345.244 2025.16,346.244"/>
<path class="Accidental" d="M2278.17,374.84 C2278.17,374.84 2277.88,368.84 2277.88,364.84 C2277.88,363.246 2277.97,362.043 2278.06,361.653 C2278.47,360.45 2281.06,358.246 2282.47,357.45 C2283.38,356.95 2284.27,356.746 2285.06,356.746 C2286.06,356.746 2286.97,357.153 2287.56,357.84 C2288.56,358.95 2289.17,360.653 2289.17,362.543 C2289.17,364.34 2288.67,366.45 2287.47,368.543 C2286.17,370.95 2283.27,374.153 2280.27,376.043 C2279.88,376.246 2279.56,376.34 2279.27,376.34 C2278.38,376.34 2278.17,375.34 2278.17,374.84 M2274.67,383.746 C2274.97,384.153 2275.27,384.246 2275.56,384.246 C2275.88,384.246 2276.17,384.043 2276.17,384.043 C2279.17,382.34 2281.56,379.653 2284.06,377.95 C2292.97,371.746 2296.06,365.653 2296.06,361.043 C2296.06,355.34 2291.67,351.746 2287.06,351.45 C2286.38,351.45 2285.67,351.543 2284.97,351.746 C2283.88,352.043 2282.67,352.45 2281.56,353.153 C2280.97,353.653 2279.88,354.543 2279.38,354.543 C2279.17,354.543 2279.06,354.543 2278.88,354.45 C2278.17,354.153 2277.77,353.45 2277.77,352.746 C2277.88,350.543 2278.47,326.543 2278.47,324.543 C2278.47,323.45 2277.56,322.84 2276.56,322.84 C2275.17,322.84 2273.56,323.84 2273.47,325.637 C2273.47,325.637 2273.88,382.746 2274.67,383.746"/>
<path class="Accidental" d="M2585.18,368.748 L2585.18,367.342 C2585.18,367.154 2585.18,367.045 2585.09,367.045 C2575.29,372.248 2571.09,382.045 2571.09,391.748 C2571.09,401.748 2575.29,410.451 2584.89,416.545 C2585,416.545 2585.18,416.451 2585.18,416.342 L2585.18,414.842 C2585.18,414.654 2585.09,414.545 2585,414.451 C2579.29,409.342 2577.09,402.842 2577.09,391.748 C2577.09,380.748 2579.39,374.342 2585,369.248 C2585.09,369.154 2585.18,369.045 2585.18,368.748"/>
<path class="Accidental" d="M2588.89,387.842 C2588.89,386.451 2594.98,383.842 2597.39,383.842 C2597.98,383.842 2598.28,383.951 2598.28,384.342 L2598.28,394.654 C2598.28,396.451 2592.59,398.748 2590.09,398.748 C2589.39,398.748 2588.89,398.545 2588.89,398.154 L2588.89,387.842 M2599.28,373.654 C2599.09,373.654 2598.98,373.748 2598.89,373.748 C2598.89,373.748 2592.48,376.045 2589.89,376.045 C2589.28,376.045 2588.89,375.951 2588.89,375.545 L2588.89,358.842 C2588.89,358.139 2588.28,357.639 2587.69,357.639 L2586.39,357.639 C2585.69,357.639 2585.19,358.139 2585.19,358.842 L2585.19,410.342 C2585.19,410.951 2585.48,411.248 2585.98,411.248 C2586.09,411.248 2586.28,411.154 2586.39,411.154 C2586.39,411.154 2586.59,411.154 2586.69,411.045 C2588.09,410.451 2593.69,408.045 2596.59,408.045 C2597.59,408.045 2598.28,408.342 2598.28,409.154 L2598.28,424.045 C2598.28,424.748 2598.78,425.248 2599.48,425.248 L2600.78,425.248 C2601.39,425.248 2601.98,424.748 2601.98,424.045 L2601.98,373.842 C2601.98,373.342 2601.59,373.045 2601.19,373.045 C2601.09,373.045 2600.89,373.045 2600.78,373.154 L2599.28,373.654 "/>
<path class="Accidental" d="M2601.98,368.748 C2601.98,369.045 2602.08,369.154 2602.19,369.248 C2607.78,374.342 2610.08,380.748 2610.08,391.748 C2610.08,402.842 2607.89,409.342 2602.19,414.451 C2602.08,414.545 2601.98,414.654 2601.98,414.842 L2601.98,416.342 C2601.98,416.451 2602.19,416.545 2602.28,416.545 C2611.89,410.451 2616.08,401.748 2616.08,391.748 C2616.08,382.045 2611.89,372.248 2602.08,367.045 C2601.98,367.045 2601.98,367.154 2601.98,367.342 L2601.98,368.748 "/>
<path class="Accidental" d="M2547.7,374.84 C2547.7,374.84 2547.4,368.84 2547.4,364.84 C2547.4,363.246 2547.49,362.043 2547.59,361.653 C2547.99,360.45 2550.59,358.246 2551.99,357.45 C2552.9,356.95 2553.79,356.746 2554.59,356.746 C2555.59,356.746 2556.49,357.153 2557.09,357.84 C2558.09,358.95 2558.7,360.653 2558.7,362.543 C2558.7,364.34 2558.2,366.45 2556.99,368.543 C2555.7,370.95 2552.79,374.153 2549.79,376.043 C2549.4,376.246 2549.09,376.34 2548.79,376.34 C2547.9,376.34 2547.7,375.34 2547.7,374.84 M2544.2,383.746 C2544.49,384.153 2544.79,384.246 2545.09,384.246 C2545.4,384.246 2545.7,384.043 2545.7,384.043 C2548.7,382.34 2551.09,379.653 2553.59,377.95 C2562.49,371.746 2565.59,365.653 2565.59,361.043 C2565.59,355.34 2561.2,351.746 2556.59,351.45 C2555.9,351.45 2555.2,351.543 2554.49,351.746 C2553.4,352.043 2552.2,352.45 2551.09,353.153 C2550.49,353.653 2549.4,354.543 2548.9,354.543 C2548.7,354.543 2548.59,354.543 2548.4,354.45 C2547.7,354.153 2547.29,353.45 2547.29,352.746 C2547.4,350.543 2547.99,326.543 2547.99,324.543 C2547.99,323.45 2547.09,322.84 2546.09,322.84 C2544.7,322.84 2543.09,323.84 2542.99,325.637 C2542.99,325.637 2543.4,382.746 2544.2,383.746"/>
<path class="Accidental" d="M2598.19,337.338 C2598.19,337.338 2597.89,331.338 2597.89,327.338 C2597.89,325.744 2597.98,324.541 2598.08,324.15 C2598.48,322.947 2601.08,320.744 2602.48,319.947 C2603.39,319.447 2604.28,319.244 2605.08,319.244 C2606.08,319.244 2606.98,319.65 2607.58,320.338 C2608.58,321.447 2609.19,323.15 2609.19,325.041 C2609.19,326.838 2608.69,328.947 2607.48,331.041 C2606.19,333.447 2603.28,336.65 2600.28,338.541 C2599.89,338.744 2599.58,338.838 2599.28,338.838 C2598.39,338.838 2598.19,337.838 2598.19,337.338 M2594.69,346.244 C2594.98,346.65 2595.28,346.744 2595.58,346.744 C2595.89,346.744 2596.19,346.541 2596.19,346.541 C2599.19,344.838 2601.58,342.15 2604.08,340.447 C2612.98,334.244 2616.08,328.15 2616.08,323.541 C2616.08,317.838 2611.69,314.244 2607.08,313.947 C2606.39,313.947 2605.69,314.041 2604.98,314.244 C2603.89,314.541 2602.69,314.947 2601.58,315.65 C2600.98,316.15 2599.89,317.041 2599.39,317.041 C2599.19,317.041 2599.08,317.041 2598.89,316.947 C2598.19,316.65 2597.78,315.947 2597.78,315.244 C2597.89,313.041 2598.48,289.041 2598.48,287.041 C2598.48,285.947 2597.58,285.338 2596.58,285.338 C2595.19,285.338 2593.58,286.338 2593.48,288.135 C2593.48,288.135 2593.89,345.244 2594.69,346.244"/>
<polyline class="LedgerLine" fill="none" stroke="#000000" stroke-width="4.00" stroke-linecap="square" stroke-linejoin="bevel" points="2616.58,704.268 2672.48,704.268"/>
<path class="Note" d="M671.835,615.56 C657.335,615.56 648.335,621.669 648.335,629.06 C648.335,636.357 654.538,642.857 670.741,642.857 C688.538,642.857 694.241,636.669 694.241,629.06 C694.241,621.357 681.944,615.56 671.835,615.56 M660.428,622.357 C661.631,618.669 665.631,618.06 669.038,618.06 C676.444,618.06 682.444,626.06 682.444,632.669 C682.444,633.357 682.335,634.06 682.241,634.669 C681.741,637.357 680.131,639.263 677.444,639.966 C676.335,640.263 675.241,640.357 674.131,640.357 C673.131,640.357 672.241,640.263 671.241,639.966 C669.428,639.357 667.631,638.357 666.131,637.06 C665.335,636.357 664.538,635.56 663.835,634.669 C661.741,632.169 660.038,628.466 660.038,625.06 C660.038,624.169 660.131,623.263 660.428,622.357"/>
<path class="Note" d="M1021.02,628.061 C1006.52,628.061 997.515,634.17 997.515,641.561 C997.515,648.858 1003.72,655.358 1019.92,655.358 C1037.72,655.358 1043.42,649.17 1043.42,641.561 C1043.42,633.858 1031.12,628.061 1021.02,628.061 M1009.61,634.858 C1010.81,631.17 1014.81,630.561 1018.22,630.561 C1025.62,630.561 1031.62,638.561 1031.62,645.17 C1031.62,645.858 1031.52,646.561 1031.42,647.17 C1030.92,649.858 1029.31,651.764 1026.62,652.467 C1025.52,652.764 1024.42,652.858 1023.31,652.858 C1022.31,652.858 1021.42,652.764 1020.42,652.467 C1018.61,651.858 1016.81,650.858 1015.31,649.561 C1014.52,648.858 1013.72,648.061 1013.02,647.17 C1010.92,644.67 1009.22,640.967 1009.22,637.561 C1009.22,636.67 1009.31,635.764 1009.61,634.858"/>
<path class="Note" d="M1339.8,628.061 C1325.3,628.061 1316.3,634.17 1316.3,641.561 C1316.3,648.858 1322.5,655.358 1338.7,655.358 C1356.5,655.358 1362.2,649.17 1362.2,641.561 C1362.2,633.858 1349.91,628.061 1339.8,628.061 M1328.39,634.858 C1329.59,631.17 1333.59,630.561 1337,630.561 C1344.41,630.561 1350.41,638.561 1350.41,645.17 C1350.41,645.858 1350.3,646.561 1350.2,647.17 C1349.7,649.858 1348.09,651.764 1345.41,652.467 C1344.3,652.764 1343.2,652.858 1342.09,652.858 C1341.09,652.858 1340.2,652.764 1339.2,652.467 C1337.39,651.858 1335.59,650.858 1334.09,649.561 C1333.3,648.858 1332.5,648.061 1331.8,647.17 C1329.7,644.67 1328,640.967 1328,637.561 C1328,636.67 1328.09,635.764 1328.39,634.858"/>
<path class="Note" d="M1716.92,628.061 C1702.42,628.061 1693.42,634.17 1693.42,641.561 C1693.42,648.858 1699.63,655.358 1715.83,655.358 C1733.63,655.358 1739.33,649.17 1739.33,641.561 C1739.33,633.858 1727.03,628.061 1716.92,628.061 M1705.52,634.858 C1706.72,631.17 1710.72,630.561 1714.13,630.561 C1721.53,630.561 1727.53,638.561 1727.53,645.17 C1727.53,645.858 1727.42,646.561 1727.33,647.17 C1726.83,649.858 1725.22,651.764 1722.53,652.467 C1721.42,652.764 1720.33,652.858 1719.22,652.858 C1718.22,652.858 1717.33,652.764 1716.33,652.467 C1714.52,651.858 1712.72,650.858 1711.22,649.561 C1710.42,648.858 1709.63,648.061 1708.92,647.17 C1706.83,644.67 1705.13,640.967 1705.13,637.561 C1705.13,636.67 1705.22,635.764 1705.52,634.858"/>
<path class="Note" d="M2075.55,640.561 C2061.05,640.561 2052.05,646.671 2052.05,654.061 C2052.05,661.358 2058.25,667.858 2074.46,667.858 C2092.25,667.858 2097.96,661.671 2097.96,654.061 C2097.96,646.358 2085.66,640.561 2075.55,640.561 M2064.14,647.358 C2065.35,643.671 2069.35,643.061 2072.75,643.061 C2080.16,643.061 2086.16,651.061 2086.16,657.671 C2086.16,658.358 2086.05,659.061 2085.96,659.671 C2085.46,662.358 2083.85,664.265 2081.16,664.968 C2080.05,665.265 2078.96,665.358 2077.85,665.358 C2076.85,665.358 2075.96,665.265 2074.96,664.968 C2073.14,664.358 2071.35,663.358 2069.85,662.061 C2069.05,661.358 2068.25,660.561 2067.55,659.671 C2065.46,657.171 2063.75,653.468 2063.75,650.061 C2063.75,649.171 2063.85,648.265 2064.14,647.358"/>
<path class="Note" d="M2325.07,640.561 C2310.57,640.561 2301.57,646.671 2301.57,654.061 C2301.57,661.358 2307.77,667.858 2323.97,667.858 C2341.77,667.858 2347.47,661.671 2347.47,654.061 C2347.47,646.358 2335.18,640.561 2325.07,640.561 M2313.66,647.358 C2314.86,643.671 2318.86,643.061 2322.27,643.061 C2329.68,643.061 2335.68,651.061 2335.68,657.671 C2335.68,658.358 2335.57,659.061 2335.47,659.671 C2334.97,662.358 2333.36,664.265 2330.68,664.968 C2329.57,665.265 2328.47,665.358 2327.36,665.358 C2326.36,665.358 2325.47,665.265 2324.47,664.968 C2322.66,664.358 2320.86,663.358 2319.36,662.061 C2318.57,661.358 2317.77,660.561 2317.07,659.671 C2314.97,657.171 2313.27,653.468 2313.27,650.061 C2313.27,649.171 2313.36,648.265 2313.66,647.358"/>
<path class="Note" d="M2645.08,690.565 C2630.58,690.565 2621.58,696.674 2621.58,704.065 C2621.58,711.361 2627.78,717.861 2643.98,717.861 C2661.78,717.861 2667.48,711.674 2667.48,704.065 C2667.48,696.361 2655.19,690.565 2645.08,690.565 M2633.67,697.361 C2634.87,693.674 2638.87,693.065 2642.28,693.065 C2649.69,693.065 2655.69,701.065 2655.69,707.674 C2655.69,708.361 2655.58,709.065 2655.48,709.674 C2654.98,712.361 2653.37,714.268 2650.69,714.971 C2649.58,715.268 2648.48,715.361 2647.37,715.361 C2646.37,715.361 2645.48,715.268 2644.48,714.971 C2642.67,714.361 2640.87,713.361 2639.37,712.065 C2638.58,711.361 2637.78,710.565 2637.08,709.674 C2634.98,707.174 2633.28,703.471 2633.28,700.065 C2633.28,699.174 2633.37,698.268 2633.67,697.361"/>
<path class="Note" d="M378.533,418.249 C388.439,418.249 400.643,409.046 400.643,399.546 C400.643,393.952 396.143,390.249 389.736,390.249 C377.533,390.249 367.736,399.343 367.736,408.952 C367.736,414.749 372.533,418.249 378.533,418.249"/>
<path class="Note" d="M712.533,418.249 C722.44,418.249 734.643,409.046 734.643,399.546 C734.643,393.952 730.143,390.249 723.736,390.249 C711.533,390.249 701.736,399.343 701.736,408.952 C701.736,414.749 706.533,418.249 712.533,418.249"/>
<path class="Note" d="M1061.71,418.249 C1071.62,418.249 1083.82,409.046 1083.82,399.546 C1083.82,393.952 1079.32,390.249 1072.92,390.249 C1060.71,390.249 1050.92,399.343 1050.92,408.952 C1050.92,414.749 1055.71,418.249 1061.71,418.249"/>
<path class="Note" d="M1380.49,418.249 C1390.4,418.249 1402.6,409.046 1402.6,399.546 C1402.6,393.952 1398.1,390.249 1391.7,390.249 C1379.49,390.249 1369.7,399.343 1369.7,408.952 C1369.7,414.749 1374.49,418.249 1380.49,418.249"/>
<path class="Note" d="M1757.62,405.748 C1767.53,405.748 1779.73,396.545 1779.73,387.045 C1779.73,381.451 1775.23,377.748 1768.83,377.748 C1756.62,377.748 1746.83,386.842 1746.83,396.451 C1746.83,402.248 1751.62,405.748 1757.62,405.748"/>
<path class="Note" d="M2075.55,378.045 C2061.05,378.045 2052.05,384.154 2052.05,391.545 C2052.05,398.842 2058.25,405.342 2074.46,405.342 C2092.25,405.342 2097.96,399.154 2097.96,391.545 C2097.96,383.842 2085.66,378.045 2075.55,378.045 M2064.14,384.842 C2065.35,381.154 2069.35,380.545 2072.75,380.545 C2080.16,380.545 2086.16,388.545 2086.16,395.154 C2086.16,395.842 2086.05,396.545 2085.96,397.154 C2085.46,399.842 2083.85,401.748 2081.16,402.451 C2080.05,402.748 2078.96,402.842 2077.85,402.842 C2076.85,402.842 2075.96,402.748 2074.96,402.451 C2073.14,401.842 2071.35,400.842 2069.85,399.545 C2069.05,398.842 2068.25,398.045 2067.55,397.154 C2065.46,394.654 2063.75,390.951 2063.75,387.545 C2063.75,386.654 2063.85,385.748 2064.14,384.842"/>
<path class="Note" d="M671.835,390.546 C657.335,390.546 648.335,396.655 648.335,404.046 C648.335,411.343 654.538,417.843 670.741,417.843 C688.538,417.843 694.241,411.655 694.241,404.046 C694.241,396.343 681.944,390.546 671.835,390.546 M660.428,397.343 C661.631,393.655 665.631,393.046 669.038,393.046 C676.444,393.046 682.444,401.046 682.444,407.655 C682.444,408.343 682.335,409.046 682.241,409.655 C681.741,412.343 680.131,414.249 677.444,414.952 C676.335,415.249 675.241,415.343 674.131,415.343 C673.131,415.343 672.241,415.249 671.241,414.952 C669.428,414.343 667.631,413.343 666.131,412.046 C665.335,411.343 664.538,410.546 663.835,409.655 C661.741,407.155 660.038,403.452 660.038,400.046 C660.038,399.155 660.131,398.249 660.428,397.343"/>
<path class="Note" d="M671.835,365.544 C657.335,365.544 648.335,371.653 648.335,379.044 C648.335,386.341 654.538,392.841 670.741,392.841 C688.538,392.841 694.241,386.653 694.241,379.044 C694.241,371.341 681.944,365.544 671.835,365.544 M660.428,372.341 C661.631,368.653 665.631,368.044 669.038,368.044 C676.444,368.044 682.444,376.044 682.444,382.653 C682.444,383.341 682.335,384.044 682.241,384.653 C681.741,387.341 680.131,389.247 677.444,389.95 C676.335,390.247 675.241,390.341 674.131,390.341 C673.131,390.341 672.241,390.247 671.241,389.95 C669.428,389.341 667.631,388.341 666.131,387.044 C665.335,386.341 664.538,385.544 663.835,384.653 C661.741,382.153 660.038,378.45 660.038,375.044 C660.038,374.153 660.131,373.247 660.428,372.341"/>
<path class="Note" d="M671.835,340.543 C657.335,340.543 648.335,346.652 648.335,354.043 C648.335,361.339 654.538,367.839 670.741,367.839 C688.538,367.839 694.241,361.652 694.241,354.043 C694.241,346.339 681.944,340.543 671.835,340.543 M660.428,347.339 C661.631,343.652 665.631,343.043 669.038,343.043 C676.444,343.043 682.444,351.043 682.444,357.652 C682.444,358.339 682.335,359.043 682.241,359.652 C681.741,362.339 680.131,364.246 677.444,364.949 C676.335,365.246 675.241,365.339 674.131,365.339 C673.131,365.339 672.241,365.246 671.241,364.949 C669.428,364.339 667.631,363.339 666.131,362.043 C665.335,361.339 664.538,360.543 663.835,359.652 C661.741,357.152 660.038,353.449 660.038,350.043 C660.038,349.152 660.131,348.246 660.428,347.339"/>
<path class="Note" d="M1021.02,390.546 C1006.52,390.546 997.515,396.655 997.515,404.046 C997.515,411.343 1003.72,417.843 1019.92,417.843 C1037.72,417.843 1043.42,411.655 1043.42,404.046 C1043.42,396.343 1031.12,390.546 1021.02,390.546 M1009.61,397.343 C1010.81,393.655 1014.81,393.046 1018.22,393.046 C1025.62,393.046 1031.62,401.046 1031.62,407.655 C1031.62,408.343 1031.52,409.046 1031.42,409.655 C1030.92,412.343 1029.31,414.249 1026.62,414.952 C1025.52,415.249 1024.42,415.343 1023.31,415.343 C1022.31,415.343 1021.42,415.249 1020.42,414.952 C1018.61,414.343 1016.81,413.343 1015.31,412.046 C1014.52,411.343 1013.72,410.546 1013.02,409.655 C1010.92,407.155 1009.22,403.452 1009.22,400.046 C1009.22,399.155 1009.31,398.249 1009.61,397.343"/>
<path class="Note" d="M1021.02,365.544 C1006.52,365.544 997.515,371.653 997.515,379.044 C997.515,386.341 1003.72,392.841 1019.92,392.841 C1037.72,392.841 1043.42,386.653 1043.42,379.044 C1043.42,371.341 1031.12,365.544 1021.02,365.544 M1009.61,372.341 C1010.81,368.653 1014.81,368.044 1018.22,368.044 C1025.62,368.044 1031.62,376.044 1031.62,382.653 C1031.62,383.341 1031.52,384.044 1031.42,384.653 C1030.92,387.341 1029.31,389.247 1026.62,389.95 C1025.52,390.247 1024.42,390.341 1023.31,390.341 C1022.31,390.341 1021.42,390.247 1020.42,389.95 C1018.61,389.341 1016.81,388.341 1015.31,387.044 C1014.52,386.341 1013.72,385.544 1013.02,384.653 C1010.92,382.153 1009.22,378.45 1009.22,375.044 C1009.22,374.153 1009.31,373.247 1009.61,372.341"/>
<path class="Note" d="M1021.02,340.543 C1006.52,340.543 997.515,346.652 997.515,354.043 C997.515,361.339 1003.72,367.839 1019.92,367.839 C1037.72,367.839 1043.42,361.652 1043.42,354.043 C1043.42,346.339 1031.12,340.543 1021.02,340.543 M1009.61,347.339 C1010.81,343.652 1014.81,343.043 1018.22,343.043 C1025.62,343.043 1031.62,351.043 1031.62,357.652 C1031.62,358.339 1031.52,359.043 1031.42,359.652 C1030.92,362.339 1029.31,364.246 1026.62,364.949 C1025.52,365.246 1024.42,365.339 1023.31,365.339 C1022.31,365.339 1021.42,365.246 1020.42,364.949 C1018.61,364.339 1016.81,363.339 1015.31,362.043 C1014.52,361.339 1013.72,360.543 1013.02,359.652 C1010.92,357.152 1009.22,353.449 1009.22,350.043 C1009.22,349.152 1009.31,348.246 1009.61,347.339"/>
<path class="Note" d="M1339.8,390.546 C1325.3,390.546 1316.3,396.655 1316.3,404.046 C1316.3,411.343 1322.5,417.843 1338.7,417.843 C1356.5,417.843 1362.2,411.655 1362.2,404.046 C1362.2,396.343 1349.91,390.546 1339.8,390.546 M1328.39,397.343 C1329.59,393.655 1333.59,393.046 1337,393.046 C1344.41,393.046 1350.41,401.046 1350.41,407.655 C1350.41,408.343 1350.3,409.046 1350.2,409.655 C1349.7,412.343 1348.09,414.249 1345.41,414.952 C1344.3,415.249 1343.2,415.343 1342.09,415.343 C1341.09,415.343 1340.2,415.249 1339.2,414.952 C1337.39,414.343 1335.59,413.343 1334.09,412.046 C1333.3,411.343 1332.5,410.546 1331.8,409.655 C1329.7,407.155 1328,403.452 1328,400.046 C1328,399.155 1328.09,398.249 1328.39,397.343"/>
<path class="Note" d="M1339.8,365.544 C1325.3,365.544 1316.3,371.653 1316.3,379.044 C1316.3,386.341 1322.5,392.841 1338.7,392.841 C1356.5,392.841 1362.2,386.653 1362.2,379.044 C1362.2,371.341 1349.91,365.544 1339.8,365.544 M1328.39,372.341 C1329.59,368.653 1333.59,368.044 1337,368.044 C1344.41,368.044 1350.41,376.044 1350.41,382.653 C1350.41,383.341 1350.3,384.044 1350.2,384.653 C1349.7,387.341 1348.09,389.247 1345.41,389.95 C1344.3,390.247 1343.2,390.341 1342.09,390.341 C1341.09,390.341 1340.2,390.247 1339.2,389.95 C1337.39,389.341 1335.59,388.341 1334.09,387.044 C1333.3,386.341 1332.5,385.544 1331.8,384.653 C1329.7,382.153 1328,378.45 1328,375.044 C1328,374.153 1328.09,373.247 1328.39,372.341"/>
<path class="Note" d="M1339.8,328.042 C1325.3,328.042 1316.3,334.151 1316.3,341.542 C1316.3,348.839 1322.5,355.339 1338.7,355.339 C1356.5,355.339 1362.2,349.151 1362.2,341.542 C1362.2,333.839 1349.91,328.042 1339.8,328.042 M1328.39,334.839 C1329.59,331.151 1333.59,330.542 1337,330.542 C1344.41,330.542 1350.41,338.542 1350.41,345.151 C1350.41,345.839 1350.3,346.542 1350.2,347.151 C1349.7,349.839 1348.09,351.745 1345.41,352.448 C1344.3,352.745 1343.2,352.839 1342.09,352.839 C1341.09,352.839 1340.2,352.745 1339.2,352.448 C1337.39,351.839 1335.59,350.839 1334.09,349.542 C1333.3,348.839 1332.5,348.042 1331.8,347.151 C1329.7,344.651 1328,340.948 1328,337.542 C1328,336.651 1328.09,335.745 1328.39,334.839"/>
<path class="Note" d="M1716.92,378.045 C1702.42,378.045 1693.42,384.154 1693.42,391.545 C1693.42,398.842 1699.63,405.342 1715.83,405.342 C1733.63,405.342 1739.33,399.154 1739.33,391.545 C1739.33,383.842 1727.03,378.045 1716.92,378.045 M1705.52,384.842 C1706.72,381.154 1710.72,380.545 1714.13,380.545 C1721.53,380.545 1727.53,388.545 1727.53,395.154 C1727.53,395.842 1727.42,396.545 1727.33,397.154 C1726.83,399.842 1725.22,401.748 1722.53,402.451 C1721.42,402.748 1720.33,402.842 1719.22,402.842 C1718.22,402.842 1717.33,402.748 1716.33,402.451 C1714.52,401.842 1712.72,400.842 1711.22,399.545 C1710.42,398.842 1709.63,398.045 1708.92,397.154 C1706.83,394.654 1705.13,390.951 1705.13,387.545 C1705.13,386.654 1705.22,385.748 1705.52,384.842"/>
<path class="Note" d="M1716.92,353.043 C1702.42,353.043 1693.42,359.153 1693.42,366.543 C1693.42,373.84 1699.63,380.34 1715.83,380.34 C1733.63,380.34 1739.33,374.153 1739.33,366.543 C1739.33,358.84 1727.03,353.043 1716.92,353.043 M1705.52,359.84 C1706.72,356.153 1710.72,355.543 1714.13,355.543 C1721.53,355.543 1727.53,363.543 1727.53,370.153 C1727.53,370.84 1727.42,371.543 1727.33,372.153 C1726.83,374.84 1725.22,376.746 1722.53,377.45 C1721.42,377.746 1720.33,377.84 1719.22,377.84 C1718.22,377.84 1717.33,377.746 1716.33,377.45 C1714.52,376.84 1712.72,375.84 1711.22,374.543 C1710.42,373.84 1709.63,373.043 1708.92,372.153 C1706.83,369.653 1705.13,365.95 1705.13,362.543 C1705.13,361.653 1705.22,360.746 1705.52,359.84"/>
<path class="Note" d="M1716.92,315.541 C1702.42,315.541 1693.42,321.65 1693.42,329.041 C1693.42,336.338 1699.63,342.838 1715.83,342.838 C1733.63,342.838 1739.33,336.65 1739.33,329.041 C1739.33,321.338 1727.03,315.541 1716.92,315.541 M1705.52,322.338 C1706.72,318.65 1710.72,318.041 1714.13,318.041 C1721.53,318.041 1727.53,326.041 1727.53,332.65 C1727.53,333.338 1727.42,334.041 1727.33,334.65 C1726.83,337.338 1725.22,339.244 1722.53,339.947 C1721.42,340.244 1720.33,340.338 1719.22,340.338 C1718.22,340.338 1717.33,340.244 1716.33,339.947 C1714.52,339.338 1712.72,338.338 1711.22,337.041 C1710.42,336.338 1709.63,335.541 1708.92,334.65 C1706.83,332.15 1705.13,328.447 1705.13,325.041 C1705.13,324.15 1705.22,323.244 1705.52,322.338"/>
<path class="Note" d="M2075.55,353.043 C2061.05,353.043 2052.05,359.153 2052.05,366.543 C2052.05,373.84 2058.25,380.34 2074.46,380.34 C2092.25,380.34 2097.96,374.153 2097.96,366.543 C2097.96,358.84 2085.66,353.043 2075.55,353.043 M2064.14,359.84 C2065.35,356.153 2069.35,355.543 2072.75,355.543 C2080.16,355.543 2086.16,363.543 2086.16,370.153 C2086.16,370.84 2086.05,371.543 2085.96,372.153 C2085.46,374.84 2083.85,376.746 2081.16,377.45 C2080.05,377.746 2078.96,377.84 2077.85,377.84 C2076.85,377.84 2075.96,377.746 2074.96,377.45 C2073.14,376.84 2071.35,375.84 2069.85,374.543 C2069.05,373.84 2068.25,373.043 2067.55,372.153 C2065.46,369.653 2063.75,365.95 2063.75,362.543 C2063.75,361.653 2063.85,360.746 2064.14,359.84"/>
<path class="Note" d="M2075.55,315.541 C2061.05,315.541 2052.05,321.65 2052.05,329.041 C2052.05,336.338 2058.25,342.838 2074.46,342.838 C2092.25,342.838 2097.96,336.65 2097.96,329.041 C2097.96,321.338 2085.66,315.541 2075.55,315.541 M2064.14,322.338 C2065.35,318.65 2069.35,318.041 2072.75,318.041 C2080.16,318.041 2086.16,326.041 2086.16,332.65 C2086.16,333.338 2086.05,334.041 2085.96,334.65 C2085.46,337.338 2083.85,339.244 2081.16,339.947 C2080.05,340.244 2078.96,340.338 2077.85,340.338 C2076.85,340.338 2075.96,340.244 2074.96,339.947 C2073.14,339.338 2071.35,338.338 2069.85,337.041 C2069.05,336.338 2068.25,335.541 2067.55,334.65 C2065.46,332.15 2063.75,328.447 2063.75,325.041 C2063.75,324.15 2063.85,323.244 2064.14,322.338"/>
<path class="Note" d="M2325.07,390.546 C2310.57,390.546 2301.57,396.655 2301.57,404.046 C2301.57,411.343 2307.77,417.843 2323.97,417.843 C2341.77,417.843 2347.47,411.655 2347.47,404.046 C2347.47,396.343 2335.18,390.546 2325.07,390.546 M2313.66,397.343 C2314.86,393.655 2318.86,393.046 2322.27,393.046 C2329.68,393.046 2335.68,401.046 2335.68,407.655 C2335.68,408.343 2335.57,409.046 2335.47,409.655 C2334.97,412.343 2333.36,414.249 2330.68,414.952 C2329.57,415.249 2328.47,415.343 2327.36,415.343 C2326.36,415.343 2325.47,415.249 2324.47,414.952 C2322.66,414.343 2320.86,413.343 2319.36,412.046 C2318.57,411.343 2317.77,410.546 2317.07,409.655 C2314.97,407.155 2313.27,403.452 2313.27,400.046 C2313.27,399.155 2313.36,398.249 2313.66,397.343"/>
<path class="Note" d="M2325.07,353.043 C2310.57,353.043 2301.57,359.153 2301.57,366.543 C2301.57,373.84 2307.77,380.34 2323.97,380.34 C2341.77,380.34 2347.47,374.153 2347.47,366.543 C2347.47,358.84 2335.18,353.043 2325.07,353.043 M2313.66,359.84 C2314.86,356.153 2318.86,355.543 2322.27,355.543 C2329.68,355.543 2335.68,363.543 2335.68,370.153 C2335.68,370.84 2335.57,371.543 2335.47,372.153 C2334.97,374.84 2333.36,376.746 2330.68,377.45 C2329.57,377.746 2328.47,377.84 2327.36,377.84 C2326.36,377.84 2325.47,377.746 2324.47,377.45 C2322.66,376.84 2320.86,375.84 2319.36,374.543 C2318.57,373.84 2317.77,373.043 2317.07,372.153 C2314.97,369.653 2313.27,365.95 2313.27,362.543 C2313.27,361.653 2313.36,360.746 2313.66,359.84"/>
<path class="Note" d="M2325.07,328.042 C2310.57,328.042 2301.57,334.151 2301.57,341.542 C2301.57,348.839 2307.77,355.339 2323.97,355.339 C2341.77,355.339 2347.47,349.151 2347.47,341.542 C2347.47,333.839 2335.18,328.042 2325.07,328.042 M2313.66,334.839 C2314.86,331.151 2318.86,330.542 2322.27,330.542 C2329.68,330.542 2335.68,338.542 2335.68,345.151 C2335.68,345.839 2335.57,346.542 2335.47,347.151 C2334.97,349.839 2333.36,351.745 2330.68,352.448 C2329.57,352.745 2328.47,352.839 2327.36,352.839 C2326.36,352.839 2325.47,352.745 2324.47,352.448 C2322.66,351.839 2320.86,350.839 2319.36,349.542 C2318.57,348.839 2317.77,348.042 2317.07,347.151 C2314.97,344.651 2313.27,340.948 2313.27,337.542 C2313.27,336.651 2313.36,335.745 2313.66,334.839"/>
<path class="Note" d="M2645.08,378.045 C2630.58,378.045 2621.58,384.154 2621.58,391.545 C2621.58,398.842 2627.78,405.342 2643.98,405.342 C2661.78,405.342 2667.48,399.154 2667.48,391.545 C2667.48,383.842 2655.19,378.045 2645.08,378.045 M2633.67,384.842 C2634.87,381.154 2638.87,380.545 2642.28,380.545 C2649.69,380.545 2655.69,388.545 2655.69,395.154 C2655.69,395.842 2655.58,396.545 2655.48,397.154 C2654.98,399.842 2653.37,401.748 2650.69,402.451 C2649.58,402.748 2648.48,402.842 2647.37,402.842 C2646.37,402.842 2645.48,402.748 2644.48,402.451 C2642.67,401.842 2640.87,400.842 2639.37,399.545 C2638.58,398.842 2637.78,398.045 2637.08,397.154 C2634.98,394.654 2633.28,390.951 2633.28,387.545 C2633.28,386.654 2633.37,385.748 2633.67,384.842"/>
<path class="Note" d="M2645.08,353.043 C2630.58,353.043 2621.58,359.153 2621.58,366.543 C2621.58,373.84 2627.78,380.34 2643.98,380.34 C2661.78,380.34 2667.48,374.153 2667.48,366.543 C2667.48,358.84 2655.19,353.043 2645.08,353.043 M2633.67,359.84 C2634.87,356.153 2638.87,355.543 2642.28,355.543 C2649.69,355.543 2655.69,363.543 2655.69,370.153 C2655.69,370.84 2655.58,371.543 2655.48,372.153 C2654.98,374.84 2653.37,376.746 2650.69,377.45 C2649.58,377.746 2648.48,377.84 2647.37,377.84 C2646.37,377.84 2645.48,377.746 2644.48,377.45 C2642.67,376.84 2640.87,375.84 2639.37,374.543 C2638.58,373.84 2637.78,373.043 2637.08,372.153 C2634.98,369.653 2633.28,365.95 2633.28,362.543 C2633.28,361.653 2633.37,360.746 2633.67,359.84"/>
<path class="Note" d="M2645.08,315.541 C2630.58,315.541 2621.58,321.65 2621.58,329.041 C2621.58,336.338 2627.78,342.838 2643.98,342.838 C2661.78,342.838 2667.48,336.65 2667.48,329.041 C2667.48,321.338 2655.19,315.541 2645.08,315.541 M2633.67,322.338 C2634.87,318.65 2638.87,318.041 2642.28,318.041 C2649.69,318.041 2655.69,326.041 2655.69,332.65 C2655.69,333.338 2655.58,334.041 2655.48,334.65 C2654.98,337.338 2653.37,339.244 2650.69,339.947 C2649.58,340.244 2648.48,340.338 2647.37,340.338 C2646.37,340.338 2645.48,340.244 2644.48,339.947 C2642.67,339.338 2640.87,338.338 2639.37,337.041 C2638.58,336.338 2637.78,335.541 2637.08,334.65 C2634.98,332.15 2633.28,328.447 2633.28,325.041 C2633.28,324.15 2633.37,323.244 2633.67,322.338"/>
<path class="Clef" d="M232.937,578.058 C215.531,578.058 207.734,590.761 207.734,600.355 C207.734,608.355 211.937,615.261 220.031,615.261 C226.328,615.261 230.64,610.855 230.64,604.668 C230.64,598.261 225.937,594.261 221.031,594.261 C218.328,594.261 217.328,594.965 216.031,594.965 C214.734,594.965 214.437,594.168 214.437,593.168 C214.437,589.168 220.437,581.855 230.64,581.855 C241.234,581.855 245.843,592.261 245.843,607.965 C245.843,618.261 243.64,630.261 237.437,639.871 C231.437,649.168 221.14,657.668 208.734,664.761 C207.828,665.261 207.234,665.761 207.234,666.558 C207.234,667.168 207.64,667.761 208.531,667.761 C209.031,667.761 209.64,667.558 210.234,667.261 C223.531,660.761 236.343,653.168 246.937,641.761 C255.64,632.371 260.843,620.168 260.843,607.058 C260.843,589.668 250.234,578.058 232.937,578.058 M270.734,611.355 C267.64,611.355 265.343,613.668 265.343,616.761 C265.343,619.855 267.64,622.168 270.734,622.168 C273.843,622.168 276.14,619.855 276.14,616.761 C276.14,613.668 273.843,611.355 270.734,611.355 M270.64,586.261 C267.531,586.261 265.14,588.668 265.14,591.761 C265.14,594.855 267.531,597.261 270.64,597.261 C273.734,597.261 276.14,594.855 276.14,591.761 C276.14,588.668 273.734,586.261 270.64,586.261"/>
<path class="Clef" d="M254.734,297.436 C258.031,297.436 260.734,300.139 260.734,305.639 C260.734,312.545 257.437,318.951 249.64,326.748 C248.031,328.342 245.64,330.639 243.343,332.639 C242.64,333.248 242.234,333.139 242.031,331.842 C241.64,329.248 241.437,325.842 241.437,322.639 C241.437,307.045 248.64,297.436 254.734,297.436 M250.734,381.451 C250.531,380.248 250.64,379.951 251.843,380.045 C259.937,380.748 266.64,387.545 266.64,396.342 C266.64,402.654 262.843,407.748 257.234,410.545 C256.031,411.154 255.843,411.154 255.64,409.951 L250.734,381.451 M243.843,365.545 C244.14,367.451 244.14,367.342 242.343,367.951 C233.531,370.951 227.828,378.842 227.828,387.342 C227.828,396.342 232.531,402.748 239.343,405.045 C240.14,405.342 241.343,405.654 242.031,405.654 C242.843,405.654 243.234,405.154 243.234,404.545 C243.234,403.842 242.437,403.545 241.734,403.248 C237.531,401.451 234.531,397.154 234.531,392.545 C234.531,386.842 238.437,382.545 244.531,380.842 C246.14,380.451 246.343,380.545 246.531,381.654 L251.531,411.451 C251.734,412.545 251.64,412.545 250.14,412.842 C248.531,413.154 246.531,413.342 244.531,413.342 C227.031,413.342 215.734,403.654 215.734,389.748 C215.734,383.842 216.734,375.951 225.031,366.545 C231.031,359.842 235.64,356.139 240.343,352.342 C241.343,351.545 241.531,351.639 241.734,352.748 L243.843,365.545 M245.343,350.248 C245.14,349.045 245.343,348.951 245.937,348.342 C247.531,346.842 249.64,344.748 251.531,342.639 C259.937,333.451 264.937,321.545 264.937,310.248 C264.937,301.545 262.531,292.936 258.437,286.936 C256.937,284.748 254.343,281.936 253.234,281.936 C251.843,281.936 248.734,284.545 246.734,286.748 C239.343,294.936 236.937,307.436 236.937,317.842 C236.937,323.639 237.64,330.139 238.343,334.248 C238.531,335.451 238.64,335.639 237.437,336.639 C231.031,341.951 224.14,348.045 218.937,354.451 C212.031,363.045 207.734,372.342 207.734,383.045 C207.734,400.451 219.64,416.951 244.14,416.951 C246.437,416.951 249.031,416.748 251.031,416.342 C252.14,416.154 252.343,416.045 252.531,417.248 C253.734,423.951 255.234,432.654 255.234,437.357 C255.234,452.154 245.234,453.951 239.343,453.951 C233.937,453.951 231.328,452.357 231.328,451.045 C231.328,450.357 232.234,450.045 234.531,449.357 C237.64,448.451 241.234,445.748 241.234,439.951 C241.234,434.451 237.734,429.748 231.64,429.748 C224.937,429.748 220.937,435.045 220.937,441.248 C220.937,447.748 224.828,457.545 239.937,457.545 C246.64,457.545 259.64,454.545 259.64,437.545 C259.64,431.857 257.843,422.357 256.734,416.154 C256.531,414.951 256.64,415.045 258.031,414.451 C268.14,410.451 274.843,401.951 274.843,390.654 C274.843,377.842 265.437,366.545 250.734,366.545 C248.14,366.545 248.14,366.545 247.843,364.748 L245.343,350.248 "/>
<path class="Rest" d="M453.44,615.168 L453.44,605.965 C453.44,604.465 452.237,603.355 450.847,603.355 L427.831,603.355 C426.331,603.355 425.237,604.465 425.237,605.965 L425.237,615.168 C425.237,616.558 426.331,617.761 427.831,617.761 L450.847,617.761 C452.237,617.761 453.44,616.558 453.44,615.168"/>
<path class="Bracket" transform="matrix(3.62523,0,0,3.62523,144.23,679.266)" d="M2,-49.7969 C4.90625,-51.6094 8.20313,-58.7031 8.20313,-64.6094 C8.20313,-65.1094 8.20313,-65.7031 8.09375,-66.2031 C7.40625,-72.2031 4.40625,-81.5 4.40625,-86.9063 C4.40625,-92.1094 6.70313,-97.1094 7.20313,-98 C7.59375,-98.4063 7.70313,-98.7031 7.70313,-99 C7.70313,-99.2031 7.59375,-99.4063 7.5,-99.4063 C7.40625,-99.5 7.29688,-99.7031 7.09375,-99.7031 C6.90625,-99.7031 6.70313,-99.5 6.29688,-99 C4.09375,-96.3125 1.40625,-90.5 1.40625,-80.5 C1.40625,-70.6094 4.90625,-66.6094 4.90625,-60.2969 C4.90625,-55.6094 3,-53 0.203125,-49.7969 C2,-47.7969 4.90625,-46.2031 4.90625,-39.7031 C4.90625,-32.7031 1.40625,-26.5 1.40625,-19.2031 C1.40625,-9.20313 4.09375,-3.40625 6.29688,-0.59375 C6.70313,-0.09375 6.90625,0 7.09375,0 C7.29688,0 7.40625,-0.09375 7.5,-0.203125 C7.59375,-0.296875 7.70313,-0.40625 7.70313,-0.59375 C7.70313,-0.90625 7.59375,-1.20313 7.20313,-1.70313 C6.70313,-2.5 4.40625,-7.5 4.40625,-12.7969 C4.40625,-18.0938 7.40625,-27.5 8.09375,-33.4063 C8.20313,-33.9063 8.20313,-34.4063 8.20313,-35 C8.20313,-40.9063 4.90625,-48 2,-49.7969"/>
</svg>
