<?xml version="1.0" encoding="UTF-8" standalone="no"?>
<svg width="2977.23px" height="4208.47px" viewBox="0 0 2977.23 4208.47"
 xmlns="http://www.w3.org/2000/svg" xmlns:xlink="http://www.w3.org/1999/xlink" version="1.2" baseProfile="tiny">
<title>Zwerg-Struktur (4)</title>
<desc>Generated by MuseScore 3.4.2</desc>
<polyline class="StaffLines" fill="none" stroke="#000000" stroke-width="3.25" stroke-linejoin="bevel" points="183.232,316.743 2835.5,316.743"/>
<polyline class="StaffLines" fill="none" stroke="#000000" stroke-width="3.25" stroke-linejoin="bevel" points="183.232,341.745 2835.5,341.745"/>
<polyline class="StaffLines" fill="none" stroke="#000000" stroke-width="3.25" stroke-linejoin="bevel" points="183.232,366.746 2835.5,366.746"/>
<polyline class="StaffLines" fill="none" stroke="#000000" stroke-width="3.25" stroke-linejoin="bevel" points="183.232,391.748 2835.5,391.748"/>
<polyline class="StaffLines" fill="none" stroke="#000000" stroke-width="3.25" stroke-linejoin="bevel" points="183.232,416.75 2835.5,416.75"/>
<polyline class="StaffLines" fill="none" stroke="#000000" stroke-width="3.25" stroke-linejoin="bevel" points="183.232,579.26 2835.5,579.26"/>
<polyline class="StaffLines" fill="none" stroke="#000000" stroke-width="3.25" stroke-linejoin="bevel" points="183.232,604.261 2835.5,604.261"/>
<polyline class="StaffLines" fill="none" stroke="#000000" stroke-width="3.25" stroke-linejoin="bevel" points="183.232,629.263 2835.5,629.263"/>
<polyline class="StaffLines" fill="none" stroke="#000000" stroke-width="3.25" stroke-linejoin="bevel" points="183.232,654.265 2835.5,654.265"/>
<polyline class="StaffLines" fill="none" stroke="#000000" stroke-width="3.25" stroke-linejoin="bevel" points="183.232,679.266 2835.5,679.266"/>
<polyline class="BarLine" fill="none" stroke="#000000" stroke-width="4.00" stroke-linejoin="bevel" points="185.233,577.635 185.233,680.891"/>
<polyline class="BarLine" fill="none" stroke="#000000" stroke-width="4.00" stroke-linejoin="bevel" points="551.549,577.635 551.549,680.891"/>
<polyline class="BarLine" fill="none" stroke="#000000" stroke-width="4.00" stroke-linejoin="bevel" points="780.966,577.635 780.966,680.891"/>
<polyline class="BarLine" fill="none" stroke="#000000" stroke-width="4.00" stroke-linejoin="bevel" points="1010.38,577.635 1010.38,680.891"/>
<polyline class="BarLine" fill="none" stroke="#000000" stroke-width="4.00" stroke-linejoin="bevel" points="1239.8,577.635 1239.8,680.891"/>
<polyline class="BarLine" fill="none" stroke="#000000" stroke-width="4.00" stroke-linejoin="bevel" points="1473.21,577.635 1473.21,680.891"/>
<polyline class="BarLine" fill="none" stroke="#000000" stroke-width="4.00" stroke-linejoin="bevel" points="1487.21,577.635 1487.21,680.891"/>
<polyline class="BarLine" fill="none" stroke="#000000" stroke-width="4.00" stroke-linejoin="bevel" points="1742.31,577.635 1742.31,680.891"/>
<polyline class="BarLine" fill="none" stroke="#000000" stroke-width="4.00" stroke-linejoin="bevel" points="2012.88,577.635 2012.88,680.891"/>
<polyline class="BarLine" fill="none" stroke="#000000" stroke-width="4.00" stroke-linejoin="bevel" points="2311.65,577.635 2311.65,680.891"/>
<polyline class="BarLine" fill="none" stroke="#000000" stroke-width="4.00" stroke-linejoin="bevel" points="2561.15,577.635 2561.15,680.891"/>
<polyline class="BarLine" fill="none" stroke="#000000" stroke-width="4.00" stroke-linejoin="bevel" points="2833.5,577.635 2833.5,680.891"/>
<polyline class="BarLine" fill="none" stroke="#000000" stroke-width="4.00" stroke-linejoin="bevel" points="185.233,315.118 185.233,579.26"/>
<polyline class="BarLine" fill="none" stroke="#000000" stroke-width="4.00" stroke-linejoin="bevel" points="551.549,315.118 551.549,579.26"/>
<polyline class="BarLine" fill="none" stroke="#000000" stroke-width="4.00" stroke-linejoin="bevel" points="780.966,315.118 780.966,579.26"/>
<polyline class="BarLine" fill="none" stroke="#000000" stroke-width="4.00" stroke-linejoin="bevel" points="1010.38,315.118 1010.38,579.26"/>
<polyline class="BarLine" fill="none" stroke="#000000" stroke-width="4.00" stroke-linejoin="bevel" points="1239.8,315.118 1239.8,579.26"/>
<polyline class="BarLine" fill="none" stroke="#000000" stroke-width="4.00" stroke-linejoin="bevel" points="1473.21,315.118 1473.21,579.26"/>
<polyline class="BarLine" fill="none" stroke="#000000" stroke-width="4.00" stroke-linejoin="bevel" points="1487.21,315.118 1487.21,579.26"/>
<polyline class="BarLine" fill="none" stroke="#000000" stroke-width="4.00" stroke-linejoin="bevel" points="1742.31,315.118 1742.31,579.26"/>
<polyline class="BarLine" fill="none" stroke="#000000" stroke-width="4.00" stroke-linejoin="bevel" points="2012.88,315.118 2012.88,579.26"/>
<polyline class="BarLine" fill="none" stroke="#000000" stroke-width="4.00" stroke-linejoin="bevel" points="2311.65,315.118 2311.65,579.26"/>
<polyline class="BarLine" fill="none" stroke="#000000" stroke-width="4.00" stroke-linejoin="bevel" points="2561.15,315.118 2561.15,579.26"/>
<polyline class="BarLine" fill="none" stroke="#000000" stroke-width="4.00" stroke-linejoin="bevel" points="2833.5,315.118 2833.5,579.26"/>
<path class="Accidental" d="M1266.01,637.357 C1266.01,637.357 1265.71,631.357 1265.71,627.357 C1265.71,625.763 1265.8,624.56 1265.9,624.169 C1266.3,622.966 1268.9,620.763 1270.3,619.966 C1271.21,619.466 1272.1,619.263 1272.9,619.263 C1273.9,619.263 1274.8,619.669 1275.4,620.357 C1276.4,621.466 1277.01,623.169 1277.01,625.06 C1277.01,626.857 1276.51,628.966 1275.3,631.06 C1274.01,633.466 1271.1,636.669 1268.1,638.56 C1267.71,638.763 1267.4,638.857 1267.1,638.857 C1266.21,638.857 1266.01,637.857 1266.01,637.357 M1262.51,646.263 C1262.8,646.669 1263.1,646.763 1263.4,646.763 C1263.71,646.763 1264.01,646.56 1264.01,646.56 C1267.01,644.857 1269.4,642.169 1271.9,640.466 C1280.8,634.263 1283.9,628.169 1283.9,623.56 C1283.9,617.857 1279.51,614.263 1274.9,613.966 C1274.21,613.966 1273.51,614.06 1272.8,614.263 C1271.71,614.56 1270.51,614.966 1269.4,615.669 C1268.8,616.169 1267.71,617.06 1267.21,617.06 C1267.01,617.06 1266.9,617.06 1266.71,616.966 C1266.01,616.669 1265.6,615.966 1265.6,615.263 C1265.71,613.06 1266.3,589.06 1266.3,587.06 C1266.3,585.966 1265.4,585.357 1264.4,585.357 C1263.01,585.357 1261.4,586.357 1261.3,588.154 C1261.3,588.154 1261.71,645.263 1262.51,646.263"/>
<path class="Accidental" d="M2594.91,637.357 C2594.91,637.357 2594.61,631.357 2594.61,627.357 C2594.61,625.763 2594.71,624.56 2594.8,624.169 C2595.21,622.966 2597.8,620.763 2599.21,619.966 C2600.11,619.466 2601.01,619.263 2601.8,619.263 C2602.8,619.263 2603.71,619.669 2604.3,620.357 C2605.3,621.466 2605.91,623.169 2605.91,625.06 C2605.91,626.857 2605.41,628.966 2604.21,631.06 C2602.91,633.466 2600.01,636.669 2597.01,638.56 C2596.61,638.763 2596.3,638.857 2596.01,638.857 C2595.11,638.857 2594.91,637.857 2594.91,637.357 M2591.41,646.263 C2591.71,646.669 2592.01,646.763 2592.3,646.763 C2592.61,646.763 2592.91,646.56 2592.91,646.56 C2595.91,644.857 2598.3,642.169 2600.8,640.466 C2609.71,634.263 2612.8,628.169 2612.8,623.56 C2612.8,617.857 2608.41,614.263 2603.8,613.966 C2603.11,613.966 2602.41,614.06 2601.71,614.263 C2600.61,614.56 2599.41,614.966 2598.3,615.669 C2597.71,616.169 2596.61,617.06 2596.11,617.06 C2595.91,617.06 2595.8,617.06 2595.61,616.966 C2594.91,616.669 2594.51,615.966 2594.51,615.263 C2594.61,613.06 2595.21,589.06 2595.21,587.06 C2595.21,585.966 2594.3,585.357 2593.3,585.357 C2591.91,585.357 2590.3,586.357 2590.21,588.154 C2590.21,588.154 2590.61,645.263 2591.41,646.263"/>
<path class="Accidental" d="M1755.51,400.343 C1755.51,398.952 1761.6,396.343 1764.01,396.343 C1764.6,396.343 1764.9,396.452 1764.9,396.843 L1764.9,407.155 C1764.9,408.952 1759.21,411.249 1756.71,411.249 C1756.01,411.249 1755.51,411.046 1755.51,410.655 L1755.51,400.343 M1765.9,386.155 C1765.71,386.155 1765.6,386.249 1765.51,386.249 C1765.51,386.249 1759.1,388.546 1756.51,388.546 C1755.9,388.546 1755.51,388.452 1755.51,388.046 L1755.51,371.343 C1755.51,370.639 1754.9,370.139 1754.31,370.139 L1753.01,370.139 C1752.31,370.139 1751.81,370.639 1751.81,371.343 L1751.81,422.843 C1751.81,423.452 1752.1,423.749 1752.6,423.749 C1752.71,423.749 1752.9,423.655 1753.01,423.655 C1753.01,423.655 1753.21,423.655 1753.31,423.546 C1754.71,422.952 1760.31,420.546 1763.21,420.546 C1764.21,420.546 1764.9,420.843 1764.9,421.655 L1764.9,436.546 C1764.9,437.249 1765.4,437.749 1766.1,437.749 L1767.4,437.749 C1768.01,437.749 1768.6,437.249 1768.6,436.546 L1768.6,386.343 C1768.6,385.843 1768.21,385.546 1767.81,385.546 C1767.71,385.546 1767.51,385.546 1767.4,385.655 L1765.9,386.155 "/>
<path class="Accidental" d="M2032.58,424.843 C2032.58,424.843 2032.28,418.843 2032.28,414.843 C2032.28,413.25 2032.38,412.046 2032.47,411.656 C2032.88,410.453 2035.47,408.25 2036.88,407.453 C2037.78,406.953 2038.67,406.75 2039.47,406.75 C2040.47,406.75 2041.38,407.156 2041.97,407.843 C2042.97,408.953 2043.58,410.656 2043.58,412.546 C2043.58,414.343 2043.08,416.453 2041.88,418.546 C2040.58,420.953 2037.67,424.156 2034.67,426.046 C2034.28,426.25 2033.97,426.343 2033.67,426.343 C2032.78,426.343 2032.58,425.343 2032.58,424.843 M2029.08,433.75 C2029.38,434.156 2029.67,434.25 2029.97,434.25 C2030.28,434.25 2030.58,434.046 2030.58,434.046 C2033.58,432.343 2035.97,429.656 2038.47,427.953 C2047.38,421.75 2050.47,415.656 2050.47,411.046 C2050.47,405.343 2046.08,401.75 2041.47,401.453 C2040.78,401.453 2040.08,401.546 2039.38,401.75 C2038.28,402.046 2037.08,402.453 2035.97,403.156 C2035.38,403.656 2034.28,404.546 2033.78,404.546 C2033.58,404.546 2033.47,404.546 2033.28,404.453 C2032.58,404.156 2032.17,403.453 2032.17,402.75 C2032.28,400.546 2032.88,376.546 2032.88,374.546 C2032.88,373.453 2031.97,372.843 2030.97,372.843 C2029.58,372.843 2027.97,373.843 2027.88,375.64 C2027.88,375.64 2028.28,432.75 2029.08,433.75"/>
<path class="Accidental" d="M2580.86,437.344 C2580.86,437.344 2580.56,431.344 2580.56,427.344 C2580.56,425.75 2580.65,424.547 2580.75,424.157 C2581.15,422.954 2583.75,420.75 2585.15,419.954 C2586.06,419.454 2586.95,419.25 2587.75,419.25 C2588.75,419.25 2589.65,419.657 2590.25,420.344 C2591.25,421.454 2591.86,423.157 2591.86,425.047 C2591.86,426.844 2591.36,428.954 2590.15,431.047 C2588.86,433.454 2585.95,436.657 2582.95,438.547 C2582.56,438.75 2582.25,438.844 2581.95,438.844 C2581.06,438.844 2580.86,437.844 2580.86,437.344 M2577.36,446.25 C2577.65,446.657 2577.95,446.75 2578.25,446.75 C2578.56,446.75 2578.86,446.547 2578.86,446.547 C2581.86,444.844 2584.25,442.157 2586.75,440.454 C2595.65,434.25 2598.75,428.157 2598.75,423.547 C2598.75,417.844 2594.36,414.25 2589.75,413.954 C2589.06,413.954 2588.36,414.047 2587.65,414.25 C2586.56,414.547 2585.36,414.954 2584.25,415.657 C2583.65,416.157 2582.56,417.047 2582.06,417.047 C2581.86,417.047 2581.75,417.047 2581.56,416.954 C2580.86,416.657 2580.45,415.954 2580.45,415.25 C2580.56,413.047 2581.15,389.047 2581.15,387.047 C2581.15,385.954 2580.25,385.344 2579.25,385.344 C2577.86,385.344 2576.25,386.344 2576.15,388.141 C2576.15,388.141 2576.56,445.25 2577.36,446.25"/>
<path class="Accidental" d="M354.133,408.749 C353.539,410.749 348.836,412.749 346.539,412.749 C345.93,412.749 345.43,412.546 345.336,412.249 C345.133,411.843 345.039,409.655 345.039,407.249 C345.039,404.155 345.133,400.655 345.336,399.843 C345.539,398.155 350.133,396.046 352.633,396.046 C353.336,396.046 353.93,396.249 354.133,396.655 C354.336,397.155 354.539,399.655 354.539,402.343 C354.539,405.046 354.336,407.843 354.133,408.749 M361.039,392.452 C361.742,392.155 362.242,391.343 362.242,390.749 L362.242,383.655 C362.242,383.155 361.93,382.843 361.539,382.843 C361.336,382.843 361.242,382.843 361.039,382.952 C361.039,382.952 359.039,383.749 358.539,383.843 C357.836,383.843 357.133,383.343 357.133,382.546 L357.133,370.343 C357.133,369.749 356.539,369.249 355.742,369.249 C354.742,369.249 354.133,369.749 354.133,370.343 L354.133,383.343 C354.039,384.343 353.742,385.655 352.836,386.249 C351.633,386.952 348.242,388.343 346.539,388.749 C345.633,388.749 345.336,387.546 345.336,386.749 L345.336,374.749 C345.336,374.139 344.633,373.639 343.93,373.639 C342.93,373.639 342.336,374.139 342.336,374.749 L342.336,388.249 C342.336,389.655 341.742,390.655 341.133,390.952 C340.539,391.249 338.539,392.046 338.539,392.046 C337.836,392.249 337.336,393.046 337.336,393.655 L337.336,400.749 C337.336,401.343 337.633,401.655 338.133,401.655 C338.242,401.655 338.43,401.546 338.539,401.546 C338.539,401.546 340.039,400.952 340.742,400.546 C340.836,400.546 340.93,400.452 341.039,400.452 C341.742,400.452 342.336,401.452 342.336,402.249 L342.336,412.155 C342.336,413.249 341.836,414.155 341.242,414.452 C340.633,414.655 338.539,415.546 338.539,415.546 C337.836,415.749 337.336,416.546 337.336,417.155 L337.336,424.249 C337.336,424.843 337.633,425.155 338.133,425.155 C338.242,425.155 338.43,425.046 338.539,425.046 C338.539,425.046 339.93,424.452 340.836,424.155 C340.93,424.046 341.039,424.046 341.133,424.046 C341.836,424.046 342.336,425.155 342.336,425.655 L342.336,437.952 C342.336,438.546 342.93,439.046 343.633,439.046 C344.633,439.046 345.336,438.546 345.336,437.952 L345.336,424.046 C345.336,422.749 345.836,422.046 346.336,421.843 L352.43,419.343 C352.539,419.343 352.742,419.249 352.836,419.249 C353.633,419.249 354.133,420.452 354.133,421.046 L354.133,433.546 C354.133,434.155 354.742,434.655 355.43,434.655 C356.539,434.655 357.133,434.155 357.133,433.546 L357.133,419.343 C357.133,418.546 357.539,417.343 358.242,417.046 C358.93,416.749 361.039,415.952 361.039,415.952 C361.742,415.655 362.242,414.843 362.242,414.249 L362.242,407.155 C362.242,406.655 361.93,406.343 361.539,406.343 C361.336,406.343 361.242,406.343 361.039,406.452 L358.43,407.452 C357.836,407.452 357.133,406.843 357.133,405.655 L357.133,396.343 C357.133,395.655 357.633,393.749 358.43,393.452 L361.039,392.452 "/>
<path class="Accidental" d="M1024.59,387.341 C1024.59,387.341 1024.29,381.341 1024.29,377.341 C1024.29,375.747 1024.38,374.544 1024.48,374.153 C1024.88,372.95 1027.48,370.747 1028.88,369.95 C1029.79,369.45 1030.68,369.247 1031.48,369.247 C1032.48,369.247 1033.38,369.653 1033.98,370.341 C1034.98,371.45 1035.59,373.153 1035.59,375.044 C1035.59,376.841 1035.09,378.95 1033.88,381.044 C1032.59,383.45 1029.68,386.653 1026.68,388.544 C1026.29,388.747 1025.98,388.841 1025.68,388.841 C1024.79,388.841 1024.59,387.841 1024.59,387.341 M1021.09,396.247 C1021.38,396.653 1021.68,396.747 1021.98,396.747 C1022.29,396.747 1022.59,396.544 1022.59,396.544 C1025.59,394.841 1027.98,392.153 1030.48,390.45 C1039.38,384.247 1042.48,378.153 1042.48,373.544 C1042.48,367.841 1038.09,364.247 1033.48,363.95 C1032.79,363.95 1032.09,364.044 1031.38,364.247 C1030.29,364.544 1029.09,364.95 1027.98,365.653 C1027.38,366.153 1026.29,367.044 1025.79,367.044 C1025.59,367.044 1025.48,367.044 1025.29,366.95 C1024.59,366.653 1024.18,365.95 1024.18,365.247 C1024.29,363.044 1024.88,339.044 1024.88,337.044 C1024.88,335.95 1023.98,335.341 1022.98,335.341 C1021.59,335.341 1019.98,336.341 1019.88,338.138 C1019.88,338.138 1020.29,395.247 1021.09,396.247"/>
<path class="Accidental" d="M1266.01,387.341 C1266.01,387.341 1265.71,381.341 1265.71,377.341 C1265.71,375.747 1265.8,374.544 1265.9,374.153 C1266.3,372.95 1268.9,370.747 1270.3,369.95 C1271.21,369.45 1272.1,369.247 1272.9,369.247 C1273.9,369.247 1274.8,369.653 1275.4,370.341 C1276.4,371.45 1277.01,373.153 1277.01,375.044 C1277.01,376.841 1276.51,378.95 1275.3,381.044 C1274.01,383.45 1271.1,386.653 1268.1,388.544 C1267.71,388.747 1267.4,388.841 1267.1,388.841 C1266.21,388.841 1266.01,387.841 1266.01,387.341 M1262.51,396.247 C1262.8,396.653 1263.1,396.747 1263.4,396.747 C1263.71,396.747 1264.01,396.544 1264.01,396.544 C1267.01,394.841 1269.4,392.153 1271.9,390.45 C1280.8,384.247 1283.9,378.153 1283.9,373.544 C1283.9,367.841 1279.51,364.247 1274.9,363.95 C1274.21,363.95 1273.51,364.044 1272.8,364.247 C1271.71,364.544 1270.51,364.95 1269.4,365.653 C1268.8,366.153 1267.71,367.044 1267.21,367.044 C1267.01,367.044 1266.9,367.044 1266.71,366.95 C1266.01,366.653 1265.6,365.95 1265.6,365.247 C1265.71,363.044 1266.3,339.044 1266.3,337.044 C1266.3,335.95 1265.4,335.341 1264.4,335.341 C1263.01,335.341 1261.4,336.341 1261.3,338.138 C1261.3,338.138 1261.71,395.247 1262.51,396.247"/>
<path class="Accidental" d="M1513.51,408.749 C1512.92,410.749 1508.21,412.749 1505.92,412.749 C1505.31,412.749 1504.81,412.546 1504.71,412.249 C1504.51,411.843 1504.42,409.655 1504.42,407.249 C1504.42,404.155 1504.51,400.655 1504.71,399.843 C1504.92,398.155 1509.51,396.046 1512.01,396.046 C1512.71,396.046 1513.31,396.249 1513.51,396.655 C1513.71,397.155 1513.92,399.655 1513.92,402.343 C1513.92,405.046 1513.71,407.843 1513.51,408.749 M1520.42,392.452 C1521.12,392.155 1521.62,391.343 1521.62,390.749 L1521.62,383.655 C1521.62,383.155 1521.31,382.843 1520.92,382.843 C1520.71,382.843 1520.62,382.843 1520.42,382.952 C1520.42,382.952 1518.42,383.749 1517.92,383.843 C1517.21,383.843 1516.51,383.343 1516.51,382.546 L1516.51,370.343 C1516.51,369.749 1515.92,369.249 1515.12,369.249 C1514.12,369.249 1513.51,369.749 1513.51,370.343 L1513.51,383.343 C1513.42,384.343 1513.12,385.655 1512.21,386.249 C1511.01,386.952 1507.62,388.343 1505.92,388.749 C1505.01,388.749 1504.71,387.546 1504.71,386.749 L1504.71,374.749 C1504.71,374.139 1504.01,373.639 1503.31,373.639 C1502.31,373.639 1501.71,374.139 1501.71,374.749 L1501.71,388.249 C1501.71,389.655 1501.12,390.655 1500.51,390.952 C1499.92,391.249 1497.92,392.046 1497.92,392.046 C1497.21,392.249 1496.71,393.046 1496.71,393.655 L1496.71,400.749 C1496.71,401.343 1497.01,401.655 1497.51,401.655 C1497.62,401.655 1497.81,401.546 1497.92,401.546 C1497.92,401.546 1499.42,400.952 1500.12,400.546 C1500.21,400.546 1500.31,400.452 1500.42,400.452 C1501.12,400.452 1501.71,401.452 1501.71,402.249 L1501.71,412.155 C1501.71,413.249 1501.21,414.155 1500.62,414.452 C1500.01,414.655 1497.92,415.546 1497.92,415.546 C1497.21,415.749 1496.71,416.546 1496.71,417.155 L1496.71,424.249 C1496.71,424.843 1497.01,425.155 1497.51,425.155 C1497.62,425.155 1497.81,425.046 1497.92,425.046 C1497.92,425.046 1499.31,424.452 1500.21,424.155 C1500.31,424.046 1500.42,424.046 1500.51,424.046 C1501.21,424.046 1501.71,425.155 1501.71,425.655 L1501.71,437.952 C1501.71,438.546 1502.31,439.046 1503.01,439.046 C1504.01,439.046 1504.71,438.546 1504.71,437.952 L1504.71,424.046 C1504.71,422.749 1505.21,422.046 1505.71,421.843 L1511.81,419.343 C1511.92,419.343 1512.12,419.249 1512.21,419.249 C1513.01,419.249 1513.51,420.452 1513.51,421.046 L1513.51,433.546 C1513.51,434.155 1514.12,434.655 1514.81,434.655 C1515.92,434.655 1516.51,434.155 1516.51,433.546 L1516.51,419.343 C1516.51,418.546 1516.92,417.343 1517.62,417.046 C1518.31,416.749 1520.42,415.952 1520.42,415.952 C1521.12,415.655 1521.62,414.843 1521.62,414.249 L1521.62,407.155 C1521.62,406.655 1521.31,406.343 1520.92,406.343 C1520.71,406.343 1520.62,406.343 1520.42,406.452 L1517.81,407.452 C1517.21,407.452 1516.51,406.843 1516.51,405.655 L1516.51,396.343 C1516.51,395.655 1517.01,393.749 1517.81,393.452 L1520.42,392.452 "/>
<path class="Accidental" d="M2178.31,412.843 C2178.31,411.453 2184.4,408.843 2186.81,408.843 C2187.4,408.843 2187.7,408.953 2187.7,409.343 L2187.7,419.656 C2187.7,421.453 2182.01,423.75 2179.51,423.75 C2178.81,423.75 2178.31,423.546 2178.31,423.156 L2178.31,412.843 M2188.7,398.656 C2188.51,398.656 2188.4,398.75 2188.31,398.75 C2188.31,398.75 2181.9,401.046 2179.31,401.046 C2178.7,401.046 2178.31,400.953 2178.31,400.546 L2178.31,383.843 C2178.31,383.14 2177.7,382.64 2177.1,382.64 L2175.81,382.64 C2175.1,382.64 2174.6,383.14 2174.6,383.843 L2174.6,435.343 C2174.6,435.953 2174.9,436.25 2175.4,436.25 C2175.51,436.25 2175.7,436.156 2175.81,436.156 C2175.81,436.156 2176.01,436.156 2176.1,436.046 C2177.51,435.453 2183.1,433.046 2186.01,433.046 C2187.01,433.046 2187.7,433.343 2187.7,434.156 L2187.7,449.046 C2187.7,449.75 2188.2,450.25 2188.9,450.25 L2190.2,450.25 C2190.81,450.25 2191.4,449.75 2191.4,449.046 L2191.4,398.843 C2191.4,398.343 2191.01,398.046 2190.6,398.046 C2190.51,398.046 2190.31,398.046 2190.2,398.156 L2188.7,398.656 "/>
<path class="Accidental" d="M2325.85,387.341 C2325.85,387.341 2325.55,381.341 2325.55,377.341 C2325.55,375.747 2325.65,374.544 2325.74,374.153 C2326.15,372.95 2328.74,370.747 2330.15,369.95 C2331.05,369.45 2331.94,369.247 2332.74,369.247 C2333.74,369.247 2334.65,369.653 2335.24,370.341 C2336.24,371.45 2336.85,373.153 2336.85,375.044 C2336.85,376.841 2336.35,378.95 2335.15,381.044 C2333.85,383.45 2330.94,386.653 2327.94,388.544 C2327.55,388.747 2327.24,388.841 2326.94,388.841 C2326.05,388.841 2325.85,387.841 2325.85,387.341 M2322.35,396.247 C2322.65,396.653 2322.94,396.747 2323.24,396.747 C2323.55,396.747 2323.85,396.544 2323.85,396.544 C2326.85,394.841 2329.24,392.153 2331.74,390.45 C2340.65,384.247 2343.74,378.153 2343.74,373.544 C2343.74,367.841 2339.35,364.247 2334.74,363.95 C2334.05,363.95 2333.35,364.044 2332.65,364.247 C2331.55,364.544 2330.35,364.95 2329.24,365.653 C2328.65,366.153 2327.55,367.044 2327.05,367.044 C2326.85,367.044 2326.74,367.044 2326.55,366.95 C2325.85,366.653 2325.44,365.95 2325.44,365.247 C2325.55,363.044 2326.15,339.044 2326.15,337.044 C2326.15,335.95 2325.24,335.341 2324.24,335.341 C2322.85,335.341 2321.24,336.341 2321.15,338.138 C2321.15,338.138 2321.55,395.247 2322.35,396.247"/>
<path class="Accidental" d="M2353.95,349.839 C2353.95,349.839 2353.65,343.839 2353.65,339.839 C2353.65,338.245 2353.74,337.042 2353.84,336.651 C2354.24,335.448 2356.84,333.245 2358.24,332.448 C2359.15,331.948 2360.04,331.745 2360.84,331.745 C2361.84,331.745 2362.74,332.151 2363.34,332.839 C2364.34,333.948 2364.95,335.651 2364.95,337.542 C2364.95,339.339 2364.45,341.448 2363.24,343.542 C2361.95,345.948 2359.04,349.151 2356.04,351.042 C2355.65,351.245 2355.34,351.339 2355.04,351.339 C2354.15,351.339 2353.95,350.339 2353.95,349.839 M2350.45,358.745 C2350.74,359.151 2351.04,359.245 2351.34,359.245 C2351.65,359.245 2351.95,359.042 2351.95,359.042 C2354.95,357.339 2357.34,354.651 2359.84,352.948 C2368.74,346.745 2371.84,340.651 2371.84,336.042 C2371.84,330.339 2367.45,326.745 2362.84,326.448 C2362.15,326.448 2361.45,326.542 2360.74,326.745 C2359.65,327.042 2358.45,327.448 2357.34,328.151 C2356.74,328.651 2355.65,329.542 2355.15,329.542 C2354.95,329.542 2354.84,329.542 2354.65,329.448 C2353.95,329.151 2353.54,328.448 2353.54,327.745 C2353.65,325.542 2354.24,301.542 2354.24,299.542 C2354.24,298.448 2353.34,297.839 2352.34,297.839 C2350.95,297.839 2349.34,298.839 2349.24,300.636 C2349.24,300.636 2349.65,357.745 2350.45,358.745"/>
<path class="Accidental" d="M2594.91,387.341 C2594.91,387.341 2594.61,381.341 2594.61,377.341 C2594.61,375.747 2594.71,374.544 2594.8,374.153 C2595.21,372.95 2597.8,370.747 2599.21,369.95 C2600.11,369.45 2601.01,369.247 2601.8,369.247 C2602.8,369.247 2603.71,369.653 2604.3,370.341 C2605.3,371.45 2605.91,373.153 2605.91,375.044 C2605.91,376.841 2605.41,378.95 2604.21,381.044 C2602.91,383.45 2600.01,386.653 2597.01,388.544 C2596.61,388.747 2596.3,388.841 2596.01,388.841 C2595.11,388.841 2594.91,387.841 2594.91,387.341 M2591.41,396.247 C2591.71,396.653 2592.01,396.747 2592.3,396.747 C2592.61,396.747 2592.91,396.544 2592.91,396.544 C2595.91,394.841 2598.3,392.153 2600.8,390.45 C2609.71,384.247 2612.8,378.153 2612.8,373.544 C2612.8,367.841 2608.41,364.247 2603.8,363.95 C2603.11,363.95 2602.41,364.044 2601.71,364.247 C2600.61,364.544 2599.41,364.95 2598.3,365.653 C2597.71,366.153 2596.61,367.044 2596.11,367.044 C2595.91,367.044 2595.8,367.044 2595.61,366.95 C2594.91,366.653 2594.51,365.95 2594.51,365.247 C2594.61,363.044 2595.21,339.044 2595.21,337.044 C2595.21,335.95 2594.3,335.341 2593.3,335.341 C2591.91,335.341 2590.3,336.341 2590.21,338.138 C2590.21,338.138 2590.61,395.247 2591.41,396.247"/>
<polyline class="LedgerLine" fill="none" stroke="#000000" stroke-width="4.00" stroke-linecap="square" stroke-linejoin="bevel" points="1528.61,441.751 1571.51,441.751"/>
<polyline class="LedgerLine" fill="none" stroke="#000000" stroke-width="4.00" stroke-linecap="square" stroke-linejoin="bevel" points="2050.97,441.751 2093.87,441.751"/>
<polyline class="Stem" fill="none" stroke="#000000" stroke-width="3.00" stroke-linecap="round" stroke-linejoin="bevel" points="2087.37,388.388 2087.37,307.368"/>
<polyline class="Stem" fill="none" stroke="#000000" stroke-width="3.00" stroke-linecap="round" stroke-linejoin="bevel" points="2228.3,413.389 2228.3,279.241"/>
<path class="Note" d="M391.236,640.561 C376.736,640.561 367.736,646.671 367.736,654.061 C367.736,661.358 373.939,667.858 390.143,667.858 C407.939,667.858 413.643,661.671 413.643,654.061 C413.643,646.358 401.346,640.561 391.236,640.561 M379.83,647.358 C381.033,643.671 385.033,643.061 388.439,643.061 C395.846,643.061 401.846,651.061 401.846,657.671 C401.846,658.358 401.736,659.061 401.643,659.671 C401.143,662.358 399.533,664.265 396.846,664.968 C395.736,665.265 394.643,665.358 393.533,665.358 C392.533,665.358 391.643,665.265 390.643,664.968 C388.83,664.358 387.033,663.358 385.533,662.061 C384.736,661.358 383.939,660.561 383.236,659.671 C381.143,657.171 379.439,653.468 379.439,650.061 C379.439,649.171 379.533,648.265 379.83,647.358"/>
<path class="Note" d="M602.051,640.561 C587.551,640.561 578.551,646.671 578.551,654.061 C578.551,661.358 584.754,667.858 600.957,667.858 C618.754,667.858 624.457,661.671 624.457,654.061 C624.457,646.358 612.16,640.561 602.051,640.561 M590.645,647.358 C591.848,643.671 595.848,643.061 599.254,643.061 C606.66,643.061 612.66,651.061 612.66,657.671 C612.66,658.358 612.551,659.061 612.457,659.671 C611.957,662.358 610.348,664.265 607.66,664.968 C606.551,665.265 605.457,665.358 604.348,665.358 C603.348,665.358 602.457,665.265 601.457,664.968 C599.645,664.358 597.848,663.358 596.348,662.061 C595.551,661.358 594.754,660.561 594.051,659.671 C591.957,657.171 590.254,653.468 590.254,650.061 C590.254,649.171 590.348,648.265 590.645,647.358"/>
<path class="Note" d="M831.468,628.061 C816.968,628.061 807.968,634.17 807.968,641.561 C807.968,648.858 814.171,655.358 830.374,655.358 C848.171,655.358 853.874,649.17 853.874,641.561 C853.874,633.858 841.577,628.061 831.468,628.061 M820.062,634.858 C821.265,631.17 825.265,630.561 828.671,630.561 C836.077,630.561 842.077,638.561 842.077,645.17 C842.077,645.858 841.968,646.561 841.874,647.17 C841.374,649.858 839.765,651.764 837.077,652.467 C835.968,652.764 834.874,652.858 833.765,652.858 C832.765,652.858 831.874,652.764 830.874,652.467 C829.062,651.858 827.265,650.858 825.765,649.561 C824.968,648.858 824.171,648.061 823.468,647.17 C821.374,644.67 819.671,640.967 819.671,637.561 C819.671,636.67 819.765,635.764 820.062,634.858"/>
<path class="Note" d="M1071.48,628.061 C1056.98,628.061 1047.98,634.17 1047.98,641.561 C1047.98,648.858 1054.18,655.358 1070.39,655.358 C1088.18,655.358 1093.89,649.17 1093.89,641.561 C1093.89,633.858 1081.59,628.061 1071.48,628.061 M1060.07,634.858 C1061.28,631.17 1065.28,630.561 1068.68,630.561 C1076.09,630.561 1082.09,638.561 1082.09,645.17 C1082.09,645.858 1081.98,646.561 1081.89,647.17 C1081.39,649.858 1079.78,651.764 1077.09,652.467 C1075.98,652.764 1074.89,652.858 1073.78,652.858 C1072.78,652.858 1071.89,652.764 1070.89,652.467 C1069.07,651.858 1067.28,650.858 1065.78,649.561 C1064.98,648.858 1064.18,648.061 1063.48,647.17 C1061.39,644.67 1059.68,640.967 1059.68,637.561 C1059.68,636.67 1059.78,635.764 1060.07,634.858"/>
<path class="Note" d="M1312.9,615.56 C1298.4,615.56 1289.4,621.669 1289.4,629.06 C1289.4,636.357 1295.6,642.857 1311.8,642.857 C1329.6,642.857 1335.3,636.669 1335.3,629.06 C1335.3,621.357 1323.01,615.56 1312.9,615.56 M1301.49,622.357 C1302.69,618.669 1306.69,618.06 1310.1,618.06 C1317.51,618.06 1323.51,626.06 1323.51,632.669 C1323.51,633.357 1323.4,634.06 1323.3,634.669 C1322.8,637.357 1321.19,639.263 1318.51,639.966 C1317.4,640.263 1316.3,640.357 1315.19,640.357 C1314.19,640.357 1313.3,640.263 1312.3,639.966 C1310.49,639.357 1308.69,638.357 1307.19,637.06 C1306.4,636.357 1305.6,635.56 1304.9,634.669 C1302.8,632.169 1301.1,628.466 1301.1,625.06 C1301.1,624.169 1301.19,623.263 1301.49,622.357"/>
<path class="Note" d="M1550.61,640.561 C1536.11,640.561 1527.11,646.671 1527.11,654.061 C1527.11,661.358 1533.32,667.858 1549.52,667.858 C1567.32,667.858 1573.02,661.671 1573.02,654.061 C1573.02,646.358 1560.72,640.561 1550.61,640.561 M1539.21,647.358 C1540.41,643.671 1544.41,643.061 1547.82,643.061 C1555.22,643.061 1561.22,651.061 1561.22,657.671 C1561.22,658.358 1561.11,659.061 1561.02,659.671 C1560.52,662.358 1558.91,664.265 1556.22,664.968 C1555.11,665.265 1554.02,665.358 1552.91,665.358 C1551.91,665.358 1551.02,665.265 1550.02,664.968 C1548.21,664.358 1546.41,663.358 1544.91,662.061 C1544.11,661.358 1543.32,660.561 1542.61,659.671 C1540.52,657.171 1538.82,653.468 1538.82,650.061 C1538.82,649.171 1538.91,648.265 1539.21,647.358"/>
<path class="Note" d="M1797.6,640.561 C1783.1,640.561 1774.1,646.671 1774.1,654.061 C1774.1,661.358 1780.31,667.858 1796.51,667.858 C1814.31,667.858 1820.01,661.671 1820.01,654.061 C1820.01,646.358 1807.71,640.561 1797.6,640.561 M1786.2,647.358 C1787.4,643.671 1791.4,643.061 1794.81,643.061 C1802.21,643.061 1808.21,651.061 1808.21,657.671 C1808.21,658.358 1808.1,659.061 1808.01,659.671 C1807.51,662.358 1805.9,664.265 1803.21,664.968 C1802.1,665.265 1801.01,665.358 1799.9,665.358 C1798.9,665.358 1798.01,665.265 1797.01,664.968 C1795.2,664.358 1793.4,663.358 1791.9,662.061 C1791.1,661.358 1790.31,660.561 1789.6,659.671 C1787.51,657.171 1785.81,653.468 1785.81,650.061 C1785.81,649.171 1785.9,648.265 1786.2,647.358"/>
<path class="Note" d="M2072.97,628.061 C2058.47,628.061 2049.47,634.17 2049.47,641.561 C2049.47,648.858 2055.68,655.358 2071.88,655.358 C2089.68,655.358 2095.38,649.17 2095.38,641.561 C2095.38,633.858 2083.08,628.061 2072.97,628.061 M2061.57,634.858 C2062.77,631.17 2066.77,630.561 2070.18,630.561 C2077.58,630.561 2083.58,638.561 2083.58,645.17 C2083.58,645.858 2083.47,646.561 2083.38,647.17 C2082.88,649.858 2081.27,651.764 2078.58,652.467 C2077.47,652.764 2076.38,652.858 2075.27,652.858 C2074.27,652.858 2073.38,652.764 2072.38,652.467 C2070.57,651.858 2068.77,650.858 2067.27,649.561 C2066.47,648.858 2065.68,648.061 2064.97,647.17 C2062.88,644.67 2061.18,640.967 2061.18,637.561 C2061.18,636.67 2061.27,635.764 2061.57,634.858"/>
<path class="Note" d="M2400.84,590.558 C2386.34,590.558 2377.34,596.668 2377.34,604.058 C2377.34,611.355 2383.54,617.855 2399.75,617.855 C2417.54,617.855 2423.25,611.668 2423.25,604.058 C2423.25,596.355 2410.95,590.558 2400.84,590.558 M2389.43,597.355 C2390.64,593.668 2394.64,593.058 2398.04,593.058 C2405.45,593.058 2411.45,601.058 2411.45,607.668 C2411.45,608.355 2411.34,609.058 2411.25,609.668 C2410.75,612.355 2409.14,614.261 2406.45,614.965 C2405.34,615.261 2404.25,615.355 2403.14,615.355 C2402.14,615.355 2401.25,615.261 2400.25,614.965 C2398.43,614.355 2396.64,613.355 2395.14,612.058 C2394.34,611.355 2393.54,610.558 2392.84,609.668 C2390.75,607.168 2389.04,603.465 2389.04,600.058 C2389.04,599.168 2389.14,598.261 2389.43,597.355"/>
<path class="Note" d="M2641.8,615.56 C2627.3,615.56 2618.3,621.669 2618.3,629.06 C2618.3,636.357 2624.51,642.857 2640.71,642.857 C2658.51,642.857 2664.21,636.669 2664.21,629.06 C2664.21,621.357 2651.91,615.56 2641.8,615.56 M2630.4,622.357 C2631.6,618.669 2635.6,618.06 2639.01,618.06 C2646.41,618.06 2652.41,626.06 2652.41,632.669 C2652.41,633.357 2652.3,634.06 2652.21,634.669 C2651.71,637.357 2650.1,639.263 2647.41,639.966 C2646.3,640.263 2645.21,640.357 2644.1,640.357 C2643.1,640.357 2642.21,640.263 2641.21,639.966 C2639.4,639.357 2637.6,638.357 2636.1,637.06 C2635.3,636.357 2634.51,635.56 2633.8,634.669 C2631.71,632.169 2630.01,628.466 2630.01,625.06 C2630.01,624.169 2630.1,623.263 2630.4,622.357"/>
<path class="Note" d="M1544.41,468.252 C1554.32,468.252 1566.52,459.049 1566.52,449.549 C1566.52,443.955 1562.02,440.252 1555.61,440.252 C1543.41,440.252 1533.61,449.346 1533.61,458.955 C1533.61,464.752 1538.41,468.252 1544.41,468.252"/>
<path class="Note" d="M1544.41,443.25 C1554.32,443.25 1566.52,434.047 1566.52,424.547 C1566.52,418.954 1562.02,415.25 1555.61,415.25 C1543.41,415.25 1533.61,424.344 1533.61,433.954 C1533.61,439.75 1538.41,443.25 1544.41,443.25"/>
<path class="Note" d="M1833.3,443.25 C1843.21,443.25 1855.41,434.047 1855.41,424.547 C1855.41,418.954 1850.91,415.25 1844.51,415.25 C1832.3,415.25 1822.51,424.344 1822.51,433.954 C1822.51,439.75 1827.3,443.25 1833.3,443.25"/>
<path class="Note" d="M1833.3,418.249 C1843.21,418.249 1855.41,409.046 1855.41,399.546 C1855.41,393.952 1850.91,390.249 1844.51,390.249 C1832.3,390.249 1822.51,399.343 1822.51,408.952 C1822.51,414.749 1827.3,418.249 1833.3,418.249"/>
<path class="Note" d="M2066.77,455.751 C2076.68,455.751 2088.88,446.548 2088.88,437.048 C2088.88,431.454 2084.38,427.751 2077.97,427.751 C2065.77,427.751 2055.97,436.845 2055.97,446.454 C2055.97,452.251 2060.77,455.751 2066.77,455.751"/>
<path class="Note" d="M2066.77,430.75 C2076.68,430.75 2088.88,421.546 2088.88,412.046 C2088.88,406.453 2084.38,402.75 2077.97,402.75 C2065.77,402.75 2055.97,411.843 2055.97,421.453 C2055.97,427.25 2060.77,430.75 2066.77,430.75"/>
<path class="Note" d="M2635.6,443.25 C2645.51,443.25 2657.71,434.047 2657.71,424.547 C2657.71,418.954 2653.21,415.25 2646.8,415.25 C2634.6,415.25 2624.8,424.344 2624.8,433.954 C2624.8,439.75 2629.6,443.25 2635.6,443.25"/>
<path class="Note" d="M2635.6,418.249 C2645.51,418.249 2657.71,409.046 2657.71,399.546 C2657.71,393.952 2653.21,390.249 2646.8,390.249 C2634.6,390.249 2624.8,399.343 2624.8,408.952 C2624.8,414.749 2629.6,418.249 2635.6,418.249"/>
<path class="Note" d="M391.236,390.546 C376.736,390.546 367.736,396.655 367.736,404.046 C367.736,411.343 373.939,417.843 390.143,417.843 C407.939,417.843 413.643,411.655 413.643,404.046 C413.643,396.343 401.346,390.546 391.236,390.546 M379.83,397.343 C381.033,393.655 385.033,393.046 388.439,393.046 C395.846,393.046 401.846,401.046 401.846,407.655 C401.846,408.343 401.736,409.046 401.643,409.655 C401.143,412.343 399.533,414.249 396.846,414.952 C395.736,415.249 394.643,415.343 393.533,415.343 C392.533,415.343 391.643,415.249 390.643,414.952 C388.83,414.343 387.033,413.343 385.533,412.046 C384.736,411.343 383.939,410.546 383.236,409.655 C381.143,407.155 379.439,403.452 379.439,400.046 C379.439,399.155 379.533,398.249 379.83,397.343"/>
<path class="Note" d="M602.051,378.045 C587.551,378.045 578.551,384.154 578.551,391.545 C578.551,398.842 584.754,405.342 600.957,405.342 C618.754,405.342 624.457,399.154 624.457,391.545 C624.457,383.842 612.16,378.045 602.051,378.045 M590.645,384.842 C591.848,381.154 595.848,380.545 599.254,380.545 C606.66,380.545 612.66,388.545 612.66,395.154 C612.66,395.842 612.551,396.545 612.457,397.154 C611.957,399.842 610.348,401.748 607.66,402.451 C606.551,402.748 605.457,402.842 604.348,402.842 C603.348,402.842 602.457,402.748 601.457,402.451 C599.645,401.842 597.848,400.842 596.348,399.545 C595.551,398.842 594.754,398.045 594.051,397.154 C591.957,394.654 590.254,390.951 590.254,387.545 C590.254,386.654 590.348,385.748 590.645,384.842"/>
<path class="Note" d="M831.468,378.045 C816.968,378.045 807.968,384.154 807.968,391.545 C807.968,398.842 814.171,405.342 830.374,405.342 C848.171,405.342 853.874,399.154 853.874,391.545 C853.874,383.842 841.577,378.045 831.468,378.045 M820.062,384.842 C821.265,381.154 825.265,380.545 828.671,380.545 C836.077,380.545 842.077,388.545 842.077,395.154 C842.077,395.842 841.968,396.545 841.874,397.154 C841.374,399.842 839.765,401.748 837.077,402.451 C835.968,402.748 834.874,402.842 833.765,402.842 C832.765,402.842 831.874,402.748 830.874,402.451 C829.062,401.842 827.265,400.842 825.765,399.545 C824.968,398.842 824.171,398.045 823.468,397.154 C821.374,394.654 819.671,390.951 819.671,387.545 C819.671,386.654 819.765,385.748 820.062,384.842"/>
<path class="Note" d="M1071.48,365.544 C1056.98,365.544 1047.98,371.653 1047.98,379.044 C1047.98,386.341 1054.18,392.841 1070.39,392.841 C1088.18,392.841 1093.89,386.653 1093.89,379.044 C1093.89,371.341 1081.59,365.544 1071.48,365.544 M1060.07,372.341 C1061.28,368.653 1065.28,368.044 1068.68,368.044 C1076.09,368.044 1082.09,376.044 1082.09,382.653 C1082.09,383.341 1081.98,384.044 1081.89,384.653 C1081.39,387.341 1079.78,389.247 1077.09,389.95 C1075.98,390.247 1074.89,390.341 1073.78,390.341 C1072.78,390.341 1071.89,390.247 1070.89,389.95 C1069.07,389.341 1067.28,388.341 1065.78,387.044 C1064.98,386.341 1064.18,385.544 1063.48,384.653 C1061.39,382.153 1059.68,378.45 1059.68,375.044 C1059.68,374.153 1059.78,373.247 1060.07,372.341"/>
<path class="Note" d="M1312.9,365.544 C1298.4,365.544 1289.4,371.653 1289.4,379.044 C1289.4,386.341 1295.6,392.841 1311.8,392.841 C1329.6,392.841 1335.3,386.653 1335.3,379.044 C1335.3,371.341 1323.01,365.544 1312.9,365.544 M1301.49,372.341 C1302.69,368.653 1306.69,368.044 1310.1,368.044 C1317.51,368.044 1323.51,376.044 1323.51,382.653 C1323.51,383.341 1323.4,384.044 1323.3,384.653 C1322.8,387.341 1321.19,389.247 1318.51,389.95 C1317.4,390.247 1316.3,390.341 1315.19,390.341 C1314.19,390.341 1313.3,390.247 1312.3,389.95 C1310.49,389.341 1308.69,388.341 1307.19,387.044 C1306.4,386.341 1305.6,385.544 1304.9,384.653 C1302.8,382.153 1301.1,378.45 1301.1,375.044 C1301.1,374.153 1301.19,373.247 1301.49,372.341"/>
<path class="Note" d="M1550.61,390.546 C1536.11,390.546 1527.11,396.655 1527.11,404.046 C1527.11,411.343 1533.32,417.843 1549.52,417.843 C1567.32,417.843 1573.02,411.655 1573.02,404.046 C1573.02,396.343 1560.72,390.546 1550.61,390.546 M1539.21,397.343 C1540.41,393.655 1544.41,393.046 1547.82,393.046 C1555.22,393.046 1561.22,401.046 1561.22,407.655 C1561.22,408.343 1561.11,409.046 1561.02,409.655 C1560.52,412.343 1558.91,414.249 1556.22,414.952 C1555.11,415.249 1554.02,415.343 1552.91,415.343 C1551.91,415.343 1551.02,415.249 1550.02,414.952 C1548.21,414.343 1546.41,413.343 1544.91,412.046 C1544.11,411.343 1543.32,410.546 1542.61,409.655 C1540.52,407.155 1538.82,403.452 1538.82,400.046 C1538.82,399.155 1538.91,398.249 1539.21,397.343"/>
<path class="Note" d="M1797.6,378.045 C1783.1,378.045 1774.1,384.154 1774.1,391.545 C1774.1,398.842 1780.31,405.342 1796.51,405.342 C1814.31,405.342 1820.01,399.154 1820.01,391.545 C1820.01,383.842 1807.71,378.045 1797.6,378.045 M1786.2,384.842 C1787.4,381.154 1791.4,380.545 1794.81,380.545 C1802.21,380.545 1808.21,388.545 1808.21,395.154 C1808.21,395.842 1808.1,396.545 1808.01,397.154 C1807.51,399.842 1805.9,401.748 1803.21,402.451 C1802.1,402.748 1801.01,402.842 1799.9,402.842 C1798.9,402.842 1798.01,402.748 1797.01,402.451 C1795.2,401.842 1793.4,400.842 1791.9,399.545 C1791.1,398.842 1790.31,398.045 1789.6,397.154 C1787.51,394.654 1785.81,390.951 1785.81,387.545 C1785.81,386.654 1785.9,385.748 1786.2,384.842"/>
<path class="Note" d="M2066.77,405.748 C2085.18,405.748 2088.88,390.748 2088.88,387.154 C2088.88,381.451 2084.38,377.748 2077.88,377.748 C2061.18,377.748 2055.97,390.654 2055.97,396.451 C2055.97,402.342 2060.68,405.748 2066.77,405.748 M2075.27,396.842 C2070.27,400.248 2066.77,401.451 2064.38,401.451 C2062.07,401.451 2060.68,400.248 2059.97,398.842 C2059.57,398.248 2059.27,397.451 2059.27,396.654 C2059.27,394.248 2061.68,391.154 2069.38,386.748 C2074.88,383.545 2078.38,382.342 2080.68,382.342 C2082.77,382.342 2083.97,383.342 2084.77,384.748 C2085.08,385.342 2085.38,386.045 2085.38,386.842 C2085.38,389.045 2083.08,391.748 2075.27,396.842"/>
<path class="Note" d="M2207.7,430.75 C2226.11,430.75 2229.81,415.75 2229.81,412.156 C2229.81,406.453 2225.31,402.75 2218.81,402.75 C2202.11,402.75 2196.9,415.656 2196.9,421.453 C2196.9,427.343 2201.61,430.75 2207.7,430.75 M2216.2,421.843 C2211.2,425.25 2207.7,426.453 2205.31,426.453 C2203,426.453 2201.61,425.25 2200.9,423.843 C2200.5,423.25 2200.2,422.453 2200.2,421.656 C2200.2,419.25 2202.61,416.156 2210.31,411.75 C2215.81,408.546 2219.31,407.343 2221.61,407.343 C2223.7,407.343 2224.9,408.343 2225.7,409.75 C2226.01,410.343 2226.31,411.046 2226.31,411.843 C2226.31,414.046 2224.01,416.75 2216.2,421.843"/>
<path class="Note" d="M2207.7,405.748 C2226.11,405.748 2229.81,390.748 2229.81,387.154 C2229.81,381.451 2225.31,377.748 2218.81,377.748 C2202.11,377.748 2196.9,390.654 2196.9,396.451 C2196.9,402.342 2201.61,405.748 2207.7,405.748 M2216.2,396.842 C2211.2,400.248 2207.7,401.451 2205.31,401.451 C2203,401.451 2201.61,400.248 2200.9,398.842 C2200.5,398.248 2200.2,397.451 2200.2,396.654 C2200.2,394.248 2202.61,391.154 2210.31,386.748 C2215.81,383.545 2219.31,382.342 2221.61,382.342 C2223.7,382.342 2224.9,383.342 2225.7,384.748 C2226.01,385.342 2226.31,386.045 2226.31,386.842 C2226.31,389.045 2224.01,391.748 2216.2,396.842"/>
<path class="Note" d="M2207.7,368.246 C2226.11,368.246 2229.81,353.246 2229.81,349.652 C2229.81,343.949 2225.31,340.246 2218.81,340.246 C2202.11,340.246 2196.9,353.152 2196.9,358.949 C2196.9,364.839 2201.61,368.246 2207.7,368.246 M2216.2,359.339 C2211.2,362.746 2207.7,363.949 2205.31,363.949 C2203,363.949 2201.61,362.746 2200.9,361.339 C2200.5,360.746 2200.2,359.949 2200.2,359.152 C2200.2,356.746 2202.61,353.652 2210.31,349.246 C2215.81,346.043 2219.31,344.839 2221.61,344.839 C2223.7,344.839 2224.9,345.839 2225.7,347.246 C2226.01,347.839 2226.31,348.543 2226.31,349.339 C2226.31,351.543 2224.01,354.246 2216.2,359.339"/>
<path class="Note" d="M2400.84,390.546 C2386.34,390.546 2377.34,396.655 2377.34,404.046 C2377.34,411.343 2383.54,417.843 2399.75,417.843 C2417.54,417.843 2423.25,411.655 2423.25,404.046 C2423.25,396.343 2410.95,390.546 2400.84,390.546 M2389.43,397.343 C2390.64,393.655 2394.64,393.046 2398.04,393.046 C2405.45,393.046 2411.45,401.046 2411.45,407.655 C2411.45,408.343 2411.34,409.046 2411.25,409.655 C2410.75,412.343 2409.14,414.249 2406.45,414.952 C2405.34,415.249 2404.25,415.343 2403.14,415.343 C2402.14,415.343 2401.25,415.249 2400.25,414.952 C2398.43,414.343 2396.64,413.343 2395.14,412.046 C2394.34,411.343 2393.54,410.546 2392.84,409.655 C2390.75,407.155 2389.04,403.452 2389.04,400.046 C2389.04,399.155 2389.14,398.249 2389.43,397.343"/>
<path class="Note" d="M2400.84,365.544 C2386.34,365.544 2377.34,371.653 2377.34,379.044 C2377.34,386.341 2383.54,392.841 2399.75,392.841 C2417.54,392.841 2423.25,386.653 2423.25,379.044 C2423.25,371.341 2410.95,365.544 2400.84,365.544 M2389.43,372.341 C2390.64,368.653 2394.64,368.044 2398.04,368.044 C2405.45,368.044 2411.45,376.044 2411.45,382.653 C2411.45,383.341 2411.34,384.044 2411.25,384.653 C2410.75,387.341 2409.14,389.247 2406.45,389.95 C2405.34,390.247 2404.25,390.341 2403.14,390.341 C2402.14,390.341 2401.25,390.247 2400.25,389.95 C2398.43,389.341 2396.64,388.341 2395.14,387.044 C2394.34,386.341 2393.54,385.544 2392.84,384.653 C2390.75,382.153 2389.04,378.45 2389.04,375.044 C2389.04,374.153 2389.14,373.247 2389.43,372.341"/>
<path class="Note" d="M2400.84,328.042 C2386.34,328.042 2377.34,334.151 2377.34,341.542 C2377.34,348.839 2383.54,355.339 2399.75,355.339 C2417.54,355.339 2423.25,349.151 2423.25,341.542 C2423.25,333.839 2410.95,328.042 2400.84,328.042 M2389.43,334.839 C2390.64,331.151 2394.64,330.542 2398.04,330.542 C2405.45,330.542 2411.45,338.542 2411.45,345.151 C2411.45,345.839 2411.34,346.542 2411.25,347.151 C2410.75,349.839 2409.14,351.745 2406.45,352.448 C2405.34,352.745 2404.25,352.839 2403.14,352.839 C2402.14,352.839 2401.25,352.745 2400.25,352.448 C2398.43,351.839 2396.64,350.839 2395.14,349.542 C2394.34,348.839 2393.54,348.042 2392.84,347.151 C2390.75,344.651 2389.04,340.948 2389.04,337.542 C2389.04,336.651 2389.14,335.745 2389.43,334.839"/>
<path class="Note" d="M2641.8,365.544 C2627.3,365.544 2618.3,371.653 2618.3,379.044 C2618.3,386.341 2624.51,392.841 2640.71,392.841 C2658.51,392.841 2664.21,386.653 2664.21,379.044 C2664.21,371.341 2651.91,365.544 2641.8,365.544 M2630.4,372.341 C2631.6,368.653 2635.6,368.044 2639.01,368.044 C2646.41,368.044 2652.41,376.044 2652.41,382.653 C2652.41,383.341 2652.3,384.044 2652.21,384.653 C2651.71,387.341 2650.1,389.247 2647.41,389.95 C2646.3,390.247 2645.21,390.341 2644.1,390.341 C2643.1,390.341 2642.21,390.247 2641.21,389.95 C2639.4,389.341 2637.6,388.341 2636.1,387.044 C2635.3,386.341 2634.51,385.544 2633.8,384.653 C2631.71,382.153 2630.01,378.45 2630.01,375.044 C2630.01,374.153 2630.1,373.247 2630.4,372.341"/>
<path class="Clef" d="M232.937,578.058 C215.531,578.058 207.734,590.761 207.734,600.355 C207.734,608.355 211.937,615.261 220.031,615.261 C226.328,615.261 230.64,610.855 230.64,604.668 C230.64,598.261 225.937,594.261 221.031,594.261 C218.328,594.261 217.328,594.965 216.031,594.965 C214.734,594.965 214.437,594.168 214.437,593.168 C214.437,589.168 220.437,581.855 230.64,581.855 C241.234,581.855 245.843,592.261 245.843,607.965 C245.843,618.261 243.64,630.261 237.437,639.871 C231.437,649.168 221.14,657.668 208.734,664.761 C207.828,665.261 207.234,665.761 207.234,666.558 C207.234,667.168 207.64,667.761 208.531,667.761 C209.031,667.761 209.64,667.558 210.234,667.261 C223.531,660.761 236.343,653.168 246.937,641.761 C255.64,632.371 260.843,620.168 260.843,607.058 C260.843,589.668 250.234,578.058 232.937,578.058 M270.734,611.355 C267.64,611.355 265.343,613.668 265.343,616.761 C265.343,619.855 267.64,622.168 270.734,622.168 C273.843,622.168 276.14,619.855 276.14,616.761 C276.14,613.668 273.843,611.355 270.734,611.355 M270.64,586.261 C267.531,586.261 265.14,588.668 265.14,591.761 C265.14,594.855 267.531,597.261 270.64,597.261 C273.734,597.261 276.14,594.855 276.14,591.761 C276.14,588.668 273.734,586.261 270.64,586.261"/>
<path class="Clef" d="M254.734,297.436 C258.031,297.436 260.734,300.139 260.734,305.639 C260.734,312.545 257.437,318.951 249.64,326.748 C248.031,328.342 245.64,330.639 243.343,332.639 C242.64,333.248 242.234,333.139 242.031,331.842 C241.64,329.248 241.437,325.842 241.437,322.639 C241.437,307.045 248.64,297.436 254.734,297.436 M250.734,381.451 C250.531,380.248 250.64,379.951 251.843,380.045 C259.937,380.748 266.64,387.545 266.64,396.342 C266.64,402.654 262.843,407.748 257.234,410.545 C256.031,411.154 255.843,411.154 255.64,409.951 L250.734,381.451 M243.843,365.545 C244.14,367.451 244.14,367.342 242.343,367.951 C233.531,370.951 227.828,378.842 227.828,387.342 C227.828,396.342 232.531,402.748 239.343,405.045 C240.14,405.342 241.343,405.654 242.031,405.654 C242.843,405.654 243.234,405.154 243.234,404.545 C243.234,403.842 242.437,403.545 241.734,403.248 C237.531,401.451 234.531,397.154 234.531,392.545 C234.531,386.842 238.437,382.545 244.531,380.842 C246.14,380.451 246.343,380.545 246.531,381.654 L251.531,411.451 C251.734,412.545 251.64,412.545 250.14,412.842 C248.531,413.154 246.531,413.342 244.531,413.342 C227.031,413.342 215.734,403.654 215.734,389.748 C215.734,383.842 216.734,375.951 225.031,366.545 C231.031,359.842 235.64,356.139 240.343,352.342 C241.343,351.545 241.531,351.639 241.734,352.748 L243.843,365.545 M245.343,350.248 C245.14,349.045 245.343,348.951 245.937,348.342 C247.531,346.842 249.64,344.748 251.531,342.639 C259.937,333.451 264.937,321.545 264.937,310.248 C264.937,301.545 262.531,292.936 258.437,286.936 C256.937,284.748 254.343,281.936 253.234,281.936 C251.843,281.936 248.734,284.545 246.734,286.748 C239.343,294.936 236.937,307.436 236.937,317.842 C236.937,323.639 237.64,330.139 238.343,334.248 C238.531,335.451 238.64,335.639 237.437,336.639 C231.031,341.951 224.14,348.045 218.937,354.451 C212.031,363.045 207.734,372.342 207.734,383.045 C207.734,400.451 219.64,416.951 244.14,416.951 C246.437,416.951 249.031,416.748 251.031,416.342 C252.14,416.154 252.343,416.045 252.531,417.248 C253.734,423.951 255.234,432.654 255.234,437.357 C255.234,452.154 245.234,453.951 239.343,453.951 C233.937,453.951 231.328,452.357 231.328,451.045 C231.328,450.357 232.234,450.045 234.531,449.357 C237.64,448.451 241.234,445.748 241.234,439.951 C241.234,434.451 237.734,429.748 231.64,429.748 C224.937,429.748 220.937,435.045 220.937,441.248 C220.937,447.748 224.828,457.545 239.937,457.545 C246.64,457.545 259.64,454.545 259.64,437.545 C259.64,431.857 257.843,422.357 256.734,416.154 C256.531,414.951 256.64,415.045 258.031,414.451 C268.14,410.451 274.843,401.951 274.843,390.654 C274.843,377.842 265.437,366.545 250.734,366.545 C248.14,366.545 248.14,366.545 247.843,364.748 L245.343,350.248 "/>
<path class="Lyrics" d="M397.613,500.173 C397.613,498.236 397.183,496.514 396.324,495.009 C395.465,493.504 394.42,492.34 393.191,491.517 C391.962,490.694 390.587,490.017 389.066,489.486 C387.545,488.954 386.225,488.608 385.105,488.447 C383.985,488.285 383.004,488.204 382.16,488.204 C381.722,488.204 381.504,488.059 381.504,487.767 C381.504,487.652 381.525,487.559 381.566,487.486 L387.551,474.47 L399.051,474.47 C399.634,474.47 400.1,474.379 400.449,474.197 C400.798,474.014 401.176,473.631 401.582,473.048 L402.082,473.423 L399.988,478.314 C399.842,478.647 399.42,478.814 398.722,478.814 L387.941,478.814 L385.629,483.486 C390.983,484.434 394.962,485.978 397.566,488.118 C400.17,490.259 401.472,493.397 401.472,497.533 C401.472,499.699 401.134,501.629 400.457,503.322 C399.78,505.014 398.918,506.374 397.871,507.4 C396.824,508.426 395.613,509.27 394.238,509.931 C392.863,510.592 391.543,511.043 390.277,511.283 C389.012,511.522 387.738,511.642 386.457,511.642 C384.405,511.642 382.775,511.34 381.566,510.736 C380.358,510.131 379.754,509.298 379.754,508.236 C379.754,506.881 380.54,506.204 382.113,506.204 C383.144,506.204 384.475,506.764 386.105,507.884 C387.735,509.004 389.025,509.564 389.972,509.564 C392.139,509.564 393.954,508.658 395.418,506.845 C396.881,505.033 397.613,502.809 397.613,500.173"/>
<path class="Lyrics" d="M602.49,511.642 C598.792,511.642 595.816,510.165 593.56,507.212 C591.305,504.259 590.178,500.355 590.178,495.501 C590.178,494.001 590.323,492.454 590.615,490.861 C590.907,489.267 591.547,487.454 592.537,485.423 C593.527,483.392 594.81,481.572 596.389,479.962 C597.967,478.353 600.175,476.915 603.014,475.65 C605.852,474.384 609.126,473.59 612.834,473.267 L612.943,474.142 C608.61,474.84 604.995,476.59 602.1,479.392 C599.204,482.194 597.391,485.668 596.662,489.814 C598.381,488.835 599.68,488.197 600.56,487.9 C601.441,487.603 602.485,487.454 603.693,487.454 C606.85,487.454 609.363,488.475 611.232,490.517 C613.102,492.559 614.037,495.314 614.037,498.783 C614.037,502.574 612.964,505.665 610.818,508.056 C608.672,510.447 605.896,511.642 602.49,511.642 M601.615,489.876 C599.115,489.876 597.435,490.423 596.576,491.517 C595.717,492.611 595.287,494.23 595.287,496.376 C595.287,500.605 595.982,503.934 597.373,506.361 C598.764,508.788 600.672,510.001 603.1,510.001 C605.037,510.001 606.519,509.189 607.545,507.564 C608.571,505.939 609.084,503.631 609.084,500.642 C609.084,497.215 608.433,494.564 607.131,492.689 C605.829,490.814 603.99,489.876 601.615,489.876"/>
<path class="Lyrics" d="M837.845,500.173 C837.845,498.236 837.415,496.514 836.556,495.009 C835.697,493.504 834.652,492.34 833.423,491.517 C832.194,490.694 830.819,490.017 829.298,489.486 C827.777,488.954 826.457,488.608 825.337,488.447 C824.217,488.285 823.236,488.204 822.392,488.204 C821.954,488.204 821.736,488.059 821.736,487.767 C821.736,487.652 821.756,487.559 821.798,487.486 L827.782,474.47 L839.282,474.47 C839.866,474.47 840.332,474.379 840.681,474.197 C841.03,474.014 841.407,473.631 841.814,473.048 L842.314,473.423 L840.22,478.314 C840.074,478.647 839.652,478.814 838.954,478.814 L828.173,478.814 L825.861,483.486 C831.215,484.434 835.194,485.978 837.798,488.118 C840.402,490.259 841.704,493.397 841.704,497.533 C841.704,499.699 841.366,501.629 840.689,503.322 C840.012,505.014 839.15,506.374 838.103,507.4 C837.056,508.426 835.845,509.27 834.47,509.931 C833.095,510.592 831.775,511.043 830.509,511.283 C829.243,511.522 827.97,511.642 826.689,511.642 C824.637,511.642 823.006,511.34 821.798,510.736 C820.59,510.131 819.986,509.298 819.986,508.236 C819.986,506.881 820.772,506.204 822.345,506.204 C823.376,506.204 824.707,506.764 826.337,507.884 C827.967,509.004 829.256,509.564 830.204,509.564 C832.371,509.564 834.186,508.658 835.65,506.845 C837.113,505.033 837.845,502.809 837.845,500.173"/>
<path class="Lyrics" d="M1071.92,511.642 C1068.22,511.642 1065.24,510.165 1062.99,507.212 C1060.73,504.259 1059.61,500.355 1059.61,495.501 C1059.61,494.001 1059.75,492.454 1060.04,490.861 C1060.34,489.267 1060.98,487.454 1061.97,485.423 C1062.96,483.392 1064.24,481.572 1065.82,479.962 C1067.4,478.353 1069.6,476.915 1072.44,475.65 C1075.28,474.384 1078.55,473.59 1082.26,473.267 L1082.37,474.142 C1078.04,474.84 1074.42,476.59 1071.53,479.392 C1068.63,482.194 1066.82,485.668 1066.09,489.814 C1067.81,488.835 1069.11,488.197 1069.99,487.9 C1070.87,487.603 1071.91,487.454 1073.12,487.454 C1076.28,487.454 1078.79,488.475 1080.66,490.517 C1082.53,492.559 1083.47,495.314 1083.47,498.783 C1083.47,502.574 1082.39,505.665 1080.25,508.056 C1078.1,510.447 1075.33,511.642 1071.92,511.642 M1071.04,489.876 C1068.54,489.876 1066.86,490.423 1066.01,491.517 C1065.15,492.611 1064.72,494.23 1064.72,496.376 C1064.72,500.605 1065.41,503.934 1066.8,506.361 C1068.19,508.788 1070.1,510.001 1072.53,510.001 C1074.47,510.001 1075.95,509.189 1076.97,507.564 C1078,505.939 1078.51,503.631 1078.51,500.642 C1078.51,497.215 1077.86,494.564 1076.56,492.689 C1075.26,490.814 1073.42,489.876 1071.04,489.876"/>
<path class="Lyrics" d="M1319.27,500.173 C1319.27,498.236 1318.85,496.514 1317.99,495.009 C1317.13,493.504 1316.08,492.34 1314.85,491.517 C1313.62,490.694 1312.25,490.017 1310.73,489.486 C1309.21,488.954 1307.89,488.608 1306.77,488.447 C1305.65,488.285 1304.67,488.204 1303.82,488.204 C1303.38,488.204 1303.17,488.059 1303.17,487.767 C1303.17,487.652 1303.19,487.559 1303.23,487.486 L1309.21,474.47 L1320.71,474.47 C1321.3,474.47 1321.76,474.379 1322.11,474.197 C1322.46,474.014 1322.84,473.631 1323.24,473.048 L1323.74,473.423 L1321.65,478.314 C1321.5,478.647 1321.08,478.814 1320.38,478.814 L1309.6,478.814 L1307.29,483.486 C1312.64,484.434 1316.62,485.978 1319.23,488.118 C1321.83,490.259 1323.13,493.397 1323.13,497.533 C1323.13,499.699 1322.8,501.629 1322.12,503.322 C1321.44,505.014 1320.58,506.374 1319.53,507.4 C1318.49,508.426 1317.27,509.27 1315.9,509.931 C1314.52,510.592 1313.2,511.043 1311.94,511.283 C1310.67,511.522 1309.4,511.642 1308.12,511.642 C1306.07,511.642 1304.44,511.34 1303.23,510.736 C1302.02,510.131 1301.42,509.298 1301.42,508.236 C1301.42,506.881 1302.2,506.204 1303.77,506.204 C1304.81,506.204 1306.14,506.764 1307.77,507.884 C1309.4,509.004 1310.69,509.564 1311.63,509.564 C1313.8,509.564 1315.62,508.658 1317.08,506.845 C1318.54,505.033 1319.27,502.809 1319.27,500.173"/>
<path class="Bracket" transform="matrix(3.62523,0,0,3.62523,144.23,679.266)" d="M2,-49.7969 C4.90625,-51.6094 8.20313,-58.7031 8.20313,-64.6094 C8.20313,-65.1094 8.20313,-65.7031 8.09375,-66.2031 C7.40625,-72.2031 4.40625,-81.5 4.40625,-86.9063 C4.40625,-92.1094 6.70313,-97.1094 7.20313,-98 C7.59375,-98.4063 7.70313,-98.7031 7.70313,-99 C7.70313,-99.2031 7.59375,-99.4063 7.5,-99.4063 C7.40625,-99.5 7.29688,-99.7031 7.09375,-99.7031 C6.90625,-99.7031 6.70313,-99.5 6.29688,-99 C4.09375,-96.3125 1.40625,-90.5 1.40625,-80.5 C1.40625,-70.6094 4.90625,-66.6094 4.90625,-60.2969 C4.90625,-55.6094 3,-53 0.203125,-49.7969 C2,-47.7969 4.90625,-46.2031 4.90625,-39.7031 C4.90625,-32.7031 1.40625,-26.5 1.40625,-19.2031 C1.40625,-9.20313 4.09375,-3.40625 6.29688,-0.59375 C6.70313,-0.09375 6.90625,0 7.09375,0 C7.29688,0 7.40625,-0.09375 7.5,-0.203125 C7.59375,-0.296875 7.70313,-0.40625 7.70313,-0.59375 C7.70313,-0.90625 7.59375,-1.20313 7.20313,-1.70313 C6.70313,-2.5 4.40625,-7.5 4.40625,-12.7969 C4.40625,-18.0938 7.40625,-27.5 8.09375,-33.4063 C8.20313,-33.9063 8.20313,-34.4063 8.20313,-35 C8.20313,-40.9063 4.90625,-48 2,-49.7969"/>
</svg>
