<?xml version="1.0" encoding="UTF-8" standalone="no"?>
<svg width="2977.23px" height="4208.47px" viewBox="0 0 2977.23 4208.47"
 xmlns="http://www.w3.org/2000/svg" xmlns:xlink="http://www.w3.org/1999/xlink" version="1.2" baseProfile="tiny">
<title>Zwerg-Struktur (6)</title>
<desc>Generated by MuseScore 3.4.2</desc>
<polyline class="StaffLines" fill="none" stroke="#000000" stroke-width="3.25" stroke-linejoin="bevel" points="183.232,316.743 2835.5,316.743"/>
<polyline class="StaffLines" fill="none" stroke="#000000" stroke-width="3.25" stroke-linejoin="bevel" points="183.232,341.745 2835.5,341.745"/>
<polyline class="StaffLines" fill="none" stroke="#000000" stroke-width="3.25" stroke-linejoin="bevel" points="183.232,366.746 2835.5,366.746"/>
<polyline class="StaffLines" fill="none" stroke="#000000" stroke-width="3.25" stroke-linejoin="bevel" points="183.232,391.748 2835.5,391.748"/>
<polyline class="StaffLines" fill="none" stroke="#000000" stroke-width="3.25" stroke-linejoin="bevel" points="183.232,416.75 2835.5,416.75"/>
<polyline class="StaffLines" fill="none" stroke="#000000" stroke-width="3.25" stroke-linejoin="bevel" points="183.232,579.26 2835.5,579.26"/>
<polyline class="StaffLines" fill="none" stroke="#000000" stroke-width="3.25" stroke-linejoin="bevel" points="183.232,604.261 2835.5,604.261"/>
<polyline class="StaffLines" fill="none" stroke="#000000" stroke-width="3.25" stroke-linejoin="bevel" points="183.232,629.263 2835.5,629.263"/>
<polyline class="StaffLines" fill="none" stroke="#000000" stroke-width="3.25" stroke-linejoin="bevel" points="183.232,654.265 2835.5,654.265"/>
<polyline class="StaffLines" fill="none" stroke="#000000" stroke-width="3.25" stroke-linejoin="bevel" points="183.232,679.266 2835.5,679.266"/>
<polyline class="BarLine" fill="none" stroke="#000000" stroke-width="4.00" stroke-linejoin="bevel" points="185.233,577.635 185.233,680.891"/>
<polyline class="BarLine" fill="none" stroke="#000000" stroke-width="4.00" stroke-linejoin="bevel" points="588.074,577.635 588.074,680.891"/>
<polyline class="BarLine" fill="none" stroke="#000000" stroke-width="4.00" stroke-linejoin="bevel" points="883.112,577.635 883.112,680.891"/>
<polyline class="BarLine" fill="none" stroke="#000000" stroke-width="4.00" stroke-linejoin="bevel" points="1178.15,577.635 1178.15,680.891"/>
<polyline class="BarLine" fill="none" stroke="#000000" stroke-width="4.00" stroke-linejoin="bevel" points="1465.18,577.635 1465.18,680.891"/>
<polyline class="BarLine" fill="none" stroke="#000000" stroke-width="4.00" stroke-linejoin="bevel" points="1479.18,577.635 1479.18,680.891"/>
<polyline class="BarLine" fill="none" stroke="#000000" stroke-width="4.00" stroke-linejoin="bevel" points="1787.5,577.635 1787.5,680.891"/>
<polyline class="BarLine" fill="none" stroke="#000000" stroke-width="4.00" stroke-linejoin="bevel" points="2129.49,577.635 2129.49,680.891"/>
<polyline class="BarLine" fill="none" stroke="#000000" stroke-width="4.00" stroke-linejoin="bevel" points="2481.49,577.635 2481.49,680.891"/>
<polyline class="BarLine" fill="none" stroke="#000000" stroke-width="4.00" stroke-linejoin="bevel" points="2833.5,577.635 2833.5,680.891"/>
<polyline class="BarLine" fill="none" stroke="#000000" stroke-width="4.00" stroke-linejoin="bevel" points="185.233,315.118 185.233,579.26"/>
<polyline class="BarLine" fill="none" stroke="#000000" stroke-width="4.00" stroke-linejoin="bevel" points="588.074,315.118 588.074,579.26"/>
<polyline class="BarLine" fill="none" stroke="#000000" stroke-width="4.00" stroke-linejoin="bevel" points="883.112,315.118 883.112,579.26"/>
<polyline class="BarLine" fill="none" stroke="#000000" stroke-width="4.00" stroke-linejoin="bevel" points="1178.15,315.118 1178.15,579.26"/>
<polyline class="BarLine" fill="none" stroke="#000000" stroke-width="4.00" stroke-linejoin="bevel" points="1465.18,315.118 1465.18,579.26"/>
<polyline class="BarLine" fill="none" stroke="#000000" stroke-width="4.00" stroke-linejoin="bevel" points="1479.18,315.118 1479.18,579.26"/>
<polyline class="BarLine" fill="none" stroke="#000000" stroke-width="4.00" stroke-linejoin="bevel" points="1787.5,315.118 1787.5,579.26"/>
<polyline class="BarLine" fill="none" stroke="#000000" stroke-width="4.00" stroke-linejoin="bevel" points="2129.49,315.118 2129.49,579.26"/>
<polyline class="BarLine" fill="none" stroke="#000000" stroke-width="4.00" stroke-linejoin="bevel" points="2481.49,315.118 2481.49,579.26"/>
<polyline class="BarLine" fill="none" stroke="#000000" stroke-width="4.00" stroke-linejoin="bevel" points="2833.5,315.118 2833.5,579.26"/>
<path class="Accidental" d="M897.316,662.358 C897.316,662.358 897.019,656.358 897.019,652.358 C897.019,650.765 897.113,649.561 897.207,649.171 C897.613,647.968 900.207,645.765 901.613,644.968 C902.519,644.468 903.41,644.265 904.207,644.265 C905.207,644.265 906.113,644.671 906.707,645.358 C907.707,646.468 908.316,648.171 908.316,650.061 C908.316,651.858 907.816,653.968 906.613,656.061 C905.316,658.468 902.41,661.671 899.41,663.561 C899.019,663.765 898.707,663.858 898.41,663.858 C897.519,663.858 897.316,662.858 897.316,662.358 M893.816,671.265 C894.113,671.671 894.41,671.765 894.707,671.765 C895.019,671.765 895.316,671.561 895.316,671.561 C898.316,669.858 900.707,667.171 903.207,665.468 C912.113,659.265 915.207,653.171 915.207,648.561 C915.207,642.858 910.816,639.265 906.207,638.968 C905.519,638.968 904.816,639.061 904.113,639.265 C903.019,639.561 901.816,639.968 900.707,640.671 C900.113,641.171 899.019,642.061 898.519,642.061 C898.316,642.061 898.207,642.061 898.019,641.968 C897.316,641.671 896.91,640.968 896.91,640.265 C897.019,638.061 897.613,614.061 897.613,612.061 C897.613,610.968 896.707,610.358 895.707,610.358 C894.316,610.358 892.707,611.358 892.613,613.155 C892.613,613.155 893.019,670.265 893.816,671.265"/>
<path class="Accidental" d="M1192.35,662.358 C1192.35,662.358 1192.06,656.358 1192.06,652.358 C1192.06,650.765 1192.15,649.561 1192.24,649.171 C1192.65,647.968 1195.24,645.765 1196.65,644.968 C1197.56,644.468 1198.45,644.265 1199.24,644.265 C1200.24,644.265 1201.15,644.671 1201.74,645.358 C1202.74,646.468 1203.35,648.171 1203.35,650.061 C1203.35,651.858 1202.85,653.968 1201.65,656.061 C1200.35,658.468 1197.45,661.671 1194.45,663.561 C1194.06,663.765 1193.74,663.858 1193.45,663.858 C1192.56,663.858 1192.35,662.858 1192.35,662.358 M1188.85,671.265 C1189.15,671.671 1189.45,671.765 1189.74,671.765 C1190.06,671.765 1190.35,671.561 1190.35,671.561 C1193.35,669.858 1195.74,667.171 1198.24,665.468 C1207.15,659.265 1210.24,653.171 1210.24,648.561 C1210.24,642.858 1205.85,639.265 1201.24,638.968 C1200.56,638.968 1199.85,639.061 1199.15,639.265 C1198.06,639.561 1196.85,639.968 1195.74,640.671 C1195.15,641.171 1194.06,642.061 1193.56,642.061 C1193.35,642.061 1193.24,642.061 1193.06,641.968 C1192.35,641.671 1191.95,640.968 1191.95,640.265 C1192.06,638.061 1192.65,614.061 1192.65,612.061 C1192.65,610.968 1191.74,610.358 1190.74,610.358 C1189.35,610.358 1187.74,611.358 1187.65,613.155 C1187.65,613.155 1188.06,670.265 1188.85,671.265"/>
<path class="Accidental" d="M2177.29,662.358 C2177.29,662.358 2176.99,656.358 2176.99,652.358 C2176.99,650.765 2177.08,649.561 2177.18,649.171 C2177.58,647.968 2180.18,645.765 2181.58,644.968 C2182.49,644.468 2183.38,644.265 2184.18,644.265 C2185.18,644.265 2186.08,644.671 2186.68,645.358 C2187.68,646.468 2188.29,648.171 2188.29,650.061 C2188.29,651.858 2187.79,653.968 2186.58,656.061 C2185.29,658.468 2182.38,661.671 2179.38,663.561 C2178.99,663.765 2178.68,663.858 2178.38,663.858 C2177.49,663.858 2177.29,662.858 2177.29,662.358 M2173.79,671.265 C2174.08,671.671 2174.38,671.765 2174.68,671.765 C2174.99,671.765 2175.29,671.561 2175.29,671.561 C2178.29,669.858 2180.68,667.171 2183.18,665.468 C2192.08,659.265 2195.18,653.171 2195.18,648.561 C2195.18,642.858 2190.79,639.265 2186.18,638.968 C2185.49,638.968 2184.79,639.061 2184.08,639.265 C2182.99,639.561 2181.79,639.968 2180.68,640.671 C2180.08,641.171 2178.99,642.061 2178.49,642.061 C2178.29,642.061 2178.18,642.061 2177.99,641.968 C2177.29,641.671 2176.88,640.968 2176.88,640.265 C2176.99,638.061 2177.58,614.061 2177.58,612.061 C2177.58,610.968 2176.68,610.358 2175.68,610.358 C2174.29,610.358 2172.68,611.358 2172.58,613.155 C2172.58,613.155 2172.99,670.265 2173.79,671.265"/>
<path class="Accidental" d="M2529.29,662.358 C2529.29,662.358 2528.99,656.358 2528.99,652.358 C2528.99,650.765 2529.09,649.561 2529.18,649.171 C2529.59,647.968 2532.18,645.765 2533.59,644.968 C2534.49,644.468 2535.38,644.265 2536.18,644.265 C2537.18,644.265 2538.09,644.671 2538.68,645.358 C2539.68,646.468 2540.29,648.171 2540.29,650.061 C2540.29,651.858 2539.79,653.968 2538.59,656.061 C2537.29,658.468 2534.38,661.671 2531.38,663.561 C2530.99,663.765 2530.68,663.858 2530.38,663.858 C2529.49,663.858 2529.29,662.858 2529.29,662.358 M2525.79,671.265 C2526.09,671.671 2526.38,671.765 2526.68,671.765 C2526.99,671.765 2527.29,671.561 2527.29,671.561 C2530.29,669.858 2532.68,667.171 2535.18,665.468 C2544.09,659.265 2547.18,653.171 2547.18,648.561 C2547.18,642.858 2542.79,639.265 2538.18,638.968 C2537.49,638.968 2536.79,639.061 2536.09,639.265 C2534.99,639.561 2533.79,639.968 2532.68,640.671 C2532.09,641.171 2530.99,642.061 2530.49,642.061 C2530.29,642.061 2530.18,642.061 2529.99,641.968 C2529.29,641.671 2528.88,640.968 2528.88,640.265 C2528.99,638.061 2529.59,614.061 2529.59,612.061 C2529.59,610.968 2528.68,610.358 2527.68,610.358 C2526.29,610.358 2524.68,611.358 2524.59,613.155 C2524.59,613.155 2524.99,670.265 2525.79,671.265"/>
<path class="Accidental" d="M1801.7,424.843 C1801.7,424.843 1801.4,418.843 1801.4,414.843 C1801.4,413.25 1801.5,412.046 1801.59,411.656 C1802,410.453 1804.59,408.25 1806,407.453 C1806.9,406.953 1807.79,406.75 1808.59,406.75 C1809.59,406.75 1810.5,407.156 1811.09,407.843 C1812.09,408.953 1812.7,410.656 1812.7,412.546 C1812.7,414.343 1812.2,416.453 1811,418.546 C1809.7,420.953 1806.79,424.156 1803.79,426.046 C1803.4,426.25 1803.09,426.343 1802.79,426.343 C1801.9,426.343 1801.7,425.343 1801.7,424.843 M1798.2,433.75 C1798.5,434.156 1798.79,434.25 1799.09,434.25 C1799.4,434.25 1799.7,434.046 1799.7,434.046 C1802.7,432.343 1805.09,429.656 1807.59,427.953 C1816.5,421.75 1819.59,415.656 1819.59,411.046 C1819.59,405.343 1815.2,401.75 1810.59,401.453 C1809.9,401.453 1809.2,401.546 1808.5,401.75 C1807.4,402.046 1806.2,402.453 1805.09,403.156 C1804.5,403.656 1803.4,404.546 1802.9,404.546 C1802.7,404.546 1802.59,404.546 1802.4,404.453 C1801.7,404.156 1801.29,403.453 1801.29,402.75 C1801.4,400.546 1802,376.546 1802,374.546 C1802,373.453 1801.09,372.843 1800.09,372.843 C1798.7,372.843 1797.09,373.843 1797,375.64 C1797,375.64 1797.4,432.75 1798.2,433.75"/>
<path class="Accidental" d="M2149.19,462.346 C2149.19,462.346 2148.89,456.346 2148.89,452.346 C2148.89,450.752 2148.99,449.549 2149.08,449.158 C2149.49,447.955 2152.08,445.752 2153.49,444.955 C2154.39,444.455 2155.28,444.252 2156.08,444.252 C2157.08,444.252 2157.99,444.658 2158.58,445.346 C2159.58,446.455 2160.19,448.158 2160.19,450.049 C2160.19,451.846 2159.69,453.955 2158.49,456.049 C2157.19,458.455 2154.28,461.658 2151.28,463.549 C2150.89,463.752 2150.58,463.846 2150.28,463.846 C2149.39,463.846 2149.19,462.846 2149.19,462.346 M2145.69,471.252 C2145.99,471.658 2146.28,471.752 2146.58,471.752 C2146.89,471.752 2147.19,471.549 2147.19,471.549 C2150.19,469.846 2152.58,467.158 2155.08,465.455 C2163.99,459.252 2167.08,453.158 2167.08,448.549 C2167.08,442.846 2162.69,439.252 2158.08,438.955 C2157.39,438.955 2156.69,439.049 2155.99,439.252 C2154.89,439.549 2153.69,439.955 2152.58,440.658 C2151.99,441.158 2150.89,442.049 2150.39,442.049 C2150.19,442.049 2150.08,442.049 2149.89,441.955 C2149.19,441.658 2148.78,440.955 2148.78,440.252 C2148.89,438.049 2149.49,414.049 2149.49,412.049 C2149.49,410.955 2148.58,410.346 2147.58,410.346 C2146.19,410.346 2144.58,411.346 2144.49,413.143 C2144.49,413.143 2144.89,470.252 2145.69,471.252"/>
<path class="Accidental" d="M2177.29,437.344 C2177.29,437.344 2176.99,431.344 2176.99,427.344 C2176.99,425.75 2177.08,424.547 2177.18,424.157 C2177.58,422.954 2180.18,420.75 2181.58,419.954 C2182.49,419.454 2183.38,419.25 2184.18,419.25 C2185.18,419.25 2186.08,419.657 2186.68,420.344 C2187.68,421.454 2188.29,423.157 2188.29,425.047 C2188.29,426.844 2187.79,428.954 2186.58,431.047 C2185.29,433.454 2182.38,436.657 2179.38,438.547 C2178.99,438.75 2178.68,438.844 2178.38,438.844 C2177.49,438.844 2177.29,437.844 2177.29,437.344 M2173.79,446.25 C2174.08,446.657 2174.38,446.75 2174.68,446.75 C2174.99,446.75 2175.29,446.547 2175.29,446.547 C2178.29,444.844 2180.68,442.157 2183.18,440.454 C2192.08,434.25 2195.18,428.157 2195.18,423.547 C2195.18,417.844 2190.79,414.25 2186.18,413.954 C2185.49,413.954 2184.79,414.047 2184.08,414.25 C2182.99,414.547 2181.79,414.954 2180.68,415.657 C2180.08,416.157 2178.99,417.047 2178.49,417.047 C2178.29,417.047 2178.18,417.047 2177.99,416.954 C2177.29,416.657 2176.88,415.954 2176.88,415.25 C2176.99,413.047 2177.58,389.047 2177.58,387.047 C2177.58,385.954 2176.68,385.344 2175.68,385.344 C2174.29,385.344 2172.68,386.344 2172.58,388.141 C2172.58,388.141 2172.99,445.25 2173.79,446.25"/>
<path class="Accidental" d="M2501.2,437.344 C2501.2,437.344 2500.9,431.344 2500.9,427.344 C2500.9,425.75 2500.99,424.547 2501.09,424.157 C2501.49,422.954 2504.09,420.75 2505.49,419.954 C2506.4,419.454 2507.29,419.25 2508.09,419.25 C2509.09,419.25 2509.99,419.657 2510.59,420.344 C2511.59,421.454 2512.2,423.157 2512.2,425.047 C2512.2,426.844 2511.7,428.954 2510.49,431.047 C2509.2,433.454 2506.29,436.657 2503.29,438.547 C2502.9,438.75 2502.59,438.844 2502.29,438.844 C2501.4,438.844 2501.2,437.844 2501.2,437.344 M2497.7,446.25 C2497.99,446.657 2498.29,446.75 2498.59,446.75 C2498.9,446.75 2499.2,446.547 2499.2,446.547 C2502.2,444.844 2504.59,442.157 2507.09,440.454 C2515.99,434.25 2519.09,428.157 2519.09,423.547 C2519.09,417.844 2514.7,414.25 2510.09,413.954 C2509.4,413.954 2508.7,414.047 2507.99,414.25 C2506.9,414.547 2505.7,414.954 2504.59,415.657 C2503.99,416.157 2502.9,417.047 2502.4,417.047 C2502.2,417.047 2502.09,417.047 2501.9,416.954 C2501.2,416.657 2500.79,415.954 2500.79,415.25 C2500.9,413.047 2501.49,389.047 2501.49,387.047 C2501.49,385.954 2500.59,385.344 2499.59,385.344 C2498.2,385.344 2496.59,386.344 2496.49,388.141 C2496.49,388.141 2496.9,445.25 2497.7,446.25"/>
<path class="Accidental" d="M1192.35,399.842 C1192.35,399.842 1192.06,393.842 1192.06,389.842 C1192.06,388.248 1192.15,387.045 1192.24,386.654 C1192.65,385.451 1195.24,383.248 1196.65,382.451 C1197.56,381.951 1198.45,381.748 1199.24,381.748 C1200.24,381.748 1201.15,382.154 1201.74,382.842 C1202.74,383.951 1203.35,385.654 1203.35,387.545 C1203.35,389.342 1202.85,391.451 1201.65,393.545 C1200.35,395.951 1197.45,399.154 1194.45,401.045 C1194.06,401.248 1193.74,401.342 1193.45,401.342 C1192.56,401.342 1192.35,400.342 1192.35,399.842 M1188.85,408.748 C1189.15,409.154 1189.45,409.248 1189.74,409.248 C1190.06,409.248 1190.35,409.045 1190.35,409.045 C1193.35,407.342 1195.74,404.654 1198.24,402.951 C1207.15,396.748 1210.24,390.654 1210.24,386.045 C1210.24,380.342 1205.85,376.748 1201.24,376.451 C1200.56,376.451 1199.85,376.545 1199.15,376.748 C1198.06,377.045 1196.85,377.451 1195.74,378.154 C1195.15,378.654 1194.06,379.545 1193.56,379.545 C1193.35,379.545 1193.24,379.545 1193.06,379.451 C1192.35,379.154 1191.95,378.451 1191.95,377.748 C1192.06,375.545 1192.65,351.545 1192.65,349.545 C1192.65,348.451 1191.74,347.842 1190.74,347.842 C1189.35,347.842 1187.74,348.842 1187.65,350.639 C1187.65,350.639 1188.06,407.748 1188.85,408.748"/>
<path class="Accidental" d="M2529.29,399.842 C2529.29,399.842 2528.99,393.842 2528.99,389.842 C2528.99,388.248 2529.09,387.045 2529.18,386.654 C2529.59,385.451 2532.18,383.248 2533.59,382.451 C2534.49,381.951 2535.38,381.748 2536.18,381.748 C2537.18,381.748 2538.09,382.154 2538.68,382.842 C2539.68,383.951 2540.29,385.654 2540.29,387.545 C2540.29,389.342 2539.79,391.451 2538.59,393.545 C2537.29,395.951 2534.38,399.154 2531.38,401.045 C2530.99,401.248 2530.68,401.342 2530.38,401.342 C2529.49,401.342 2529.29,400.342 2529.29,399.842 M2525.79,408.748 C2526.09,409.154 2526.38,409.248 2526.68,409.248 C2526.99,409.248 2527.29,409.045 2527.29,409.045 C2530.29,407.342 2532.68,404.654 2535.18,402.951 C2544.09,396.748 2547.18,390.654 2547.18,386.045 C2547.18,380.342 2542.79,376.748 2538.18,376.451 C2537.49,376.451 2536.79,376.545 2536.09,376.748 C2534.99,377.045 2533.79,377.451 2532.68,378.154 C2532.09,378.654 2530.99,379.545 2530.49,379.545 C2530.29,379.545 2530.18,379.545 2529.99,379.451 C2529.29,379.154 2528.88,378.451 2528.88,377.748 C2528.99,375.545 2529.59,351.545 2529.59,349.545 C2529.59,348.451 2528.68,347.842 2527.68,347.842 C2526.29,347.842 2524.68,348.842 2524.59,350.639 C2524.59,350.639 2524.99,407.748 2525.79,408.748"/>
<polyline class="LedgerLine" fill="none" stroke="#000000" stroke-width="4.00" stroke-linecap="square" stroke-linejoin="bevel" points="1508.18,466.753 1551.08,466.753"/>
<polyline class="LedgerLine" fill="none" stroke="#000000" stroke-width="4.00" stroke-linecap="square" stroke-linejoin="bevel" points="1508.18,441.751 1551.08,441.751"/>
<polyline class="LedgerLine" fill="none" stroke="#000000" stroke-width="4.00" stroke-linecap="square" stroke-linejoin="bevel" points="1868.49,441.751 1911.39,441.751"/>
<polyline class="LedgerLine" fill="none" stroke="#000000" stroke-width="4.00" stroke-linecap="square" stroke-linejoin="bevel" points="2202.18,441.751 2245.08,441.751"/>
<polyline class="Stem" fill="none" stroke="#000000" stroke-width="3.00" stroke-linecap="round" stroke-linejoin="bevel" points="1514.68,445.111 1514.68,519.881"/>
<polyline class="Stem" fill="none" stroke="#000000" stroke-width="3.00" stroke-linecap="round" stroke-linejoin="bevel" points="1874.99,420.11 1874.99,501.13"/>
<polyline class="Stem" fill="none" stroke="#000000" stroke-width="3.00" stroke-linecap="round" stroke-linejoin="bevel" points="2208.68,432.611 2208.68,510.506"/>
<polyline class="Stem" fill="none" stroke="#000000" stroke-width="3.00" stroke-linecap="round" stroke-linejoin="bevel" points="2560.68,432.611 2560.68,491.754"/>
<path class="Note" d="M362.141,653.062 C347.641,653.062 338.641,659.172 338.641,666.562 C338.641,673.859 344.844,680.359 361.047,680.359 C378.844,680.359 384.547,674.172 384.547,666.562 C384.547,658.859 372.25,653.062 362.141,653.062 M350.734,659.859 C351.938,656.172 355.938,655.562 359.344,655.562 C366.75,655.562 372.75,663.562 372.75,670.172 C372.75,670.859 372.641,671.562 372.547,672.172 C372.047,674.859 370.438,676.765 367.75,677.468 C366.641,677.765 365.547,677.859 364.438,677.859 C363.438,677.859 362.547,677.765 361.547,677.468 C359.734,676.859 357.938,675.859 356.438,674.562 C355.641,673.859 354.844,673.062 354.141,672.172 C352.047,669.672 350.344,665.968 350.344,662.562 C350.344,661.672 350.438,660.765 350.734,659.859"/>
<path class="Note" d="M638.576,653.062 C624.076,653.062 615.076,659.172 615.076,666.562 C615.076,673.859 621.279,680.359 637.482,680.359 C655.279,680.359 660.982,674.172 660.982,666.562 C660.982,658.859 648.685,653.062 638.576,653.062 M627.17,659.859 C628.373,656.172 632.373,655.562 635.779,655.562 C643.185,655.562 649.185,663.562 649.185,670.172 C649.185,670.859 649.076,671.562 648.982,672.172 C648.482,674.859 646.873,676.765 644.185,677.468 C643.076,677.765 641.982,677.859 640.873,677.859 C639.873,677.859 638.982,677.765 637.982,677.468 C636.17,676.859 634.373,675.859 632.873,674.562 C632.076,673.859 631.279,673.062 630.576,672.172 C628.482,669.672 626.779,665.968 626.779,662.562 C626.779,661.672 626.873,660.765 627.17,659.859"/>
<path class="Note" d="M944.208,640.561 C929.708,640.561 920.708,646.671 920.708,654.061 C920.708,661.358 926.911,667.858 943.115,667.858 C960.911,667.858 966.615,661.671 966.615,654.061 C966.615,646.358 954.318,640.561 944.208,640.561 M932.802,647.358 C934.005,643.671 938.005,643.061 941.411,643.061 C948.818,643.061 954.818,651.061 954.818,657.671 C954.818,658.358 954.708,659.061 954.615,659.671 C954.115,662.358 952.505,664.265 949.818,664.968 C948.708,665.265 947.615,665.358 946.505,665.358 C945.505,665.358 944.615,665.265 943.615,664.968 C941.802,664.358 940.005,663.358 938.505,662.061 C937.708,661.358 936.911,660.561 936.208,659.671 C934.115,657.171 932.411,653.468 932.411,650.061 C932.411,649.171 932.505,648.265 932.802,647.358"/>
<path class="Note" d="M1239.25,640.561 C1224.75,640.561 1215.75,646.671 1215.75,654.061 C1215.75,661.358 1221.95,667.858 1238.15,667.858 C1255.95,667.858 1261.65,661.671 1261.65,654.061 C1261.65,646.358 1249.36,640.561 1239.25,640.561 M1227.84,647.358 C1229.04,643.671 1233.04,643.061 1236.45,643.061 C1243.86,643.061 1249.86,651.061 1249.86,657.671 C1249.86,658.358 1249.75,659.061 1249.65,659.671 C1249.15,662.358 1247.54,664.265 1244.86,664.968 C1243.75,665.265 1242.65,665.358 1241.54,665.358 C1240.54,665.358 1239.65,665.265 1238.65,664.968 C1236.84,664.358 1235.04,663.358 1233.54,662.061 C1232.75,661.358 1231.95,660.561 1231.25,659.671 C1229.15,657.171 1227.45,653.468 1227.45,650.061 C1227.45,649.171 1227.54,648.265 1227.84,647.358"/>
<path class="Note" d="M1530.18,653.062 C1515.68,653.062 1506.68,659.172 1506.68,666.562 C1506.68,673.859 1512.89,680.359 1529.09,680.359 C1546.89,680.359 1552.59,674.172 1552.59,666.562 C1552.59,658.859 1540.29,653.062 1530.18,653.062 M1518.78,659.859 C1519.98,656.172 1523.98,655.562 1527.39,655.562 C1534.79,655.562 1540.79,663.562 1540.79,670.172 C1540.79,670.859 1540.68,671.562 1540.59,672.172 C1540.09,674.859 1538.48,676.765 1535.79,677.468 C1534.68,677.765 1533.59,677.859 1532.48,677.859 C1531.48,677.859 1530.59,677.765 1529.59,677.468 C1527.78,676.859 1525.98,675.859 1524.48,674.562 C1523.68,673.859 1522.89,673.062 1522.18,672.172 C1520.09,669.672 1518.39,665.968 1518.39,662.562 C1518.39,661.672 1518.48,660.765 1518.78,659.859"/>
<path class="Note" d="M1848.59,653.062 C1834.09,653.062 1825.09,659.172 1825.09,666.562 C1825.09,673.859 1831.3,680.359 1847.5,680.359 C1865.3,680.359 1871,674.172 1871,666.562 C1871,658.859 1858.7,653.062 1848.59,653.062 M1837.19,659.859 C1838.39,656.172 1842.39,655.562 1845.8,655.562 C1853.2,655.562 1859.2,663.562 1859.2,670.172 C1859.2,670.859 1859.09,671.562 1859,672.172 C1858.5,674.859 1856.89,676.765 1854.2,677.468 C1853.09,677.765 1852,677.859 1850.89,677.859 C1849.89,677.859 1849,677.765 1848,677.468 C1846.19,676.859 1844.39,675.859 1842.89,674.562 C1842.09,673.859 1841.3,673.062 1840.59,672.172 C1838.5,669.672 1836.8,665.968 1836.8,662.562 C1836.8,661.672 1836.89,660.765 1837.19,659.859"/>
<path class="Note" d="M2224.18,640.561 C2209.68,640.561 2200.68,646.671 2200.68,654.061 C2200.68,661.358 2206.88,667.858 2223.08,667.858 C2240.88,667.858 2246.58,661.671 2246.58,654.061 C2246.58,646.358 2234.29,640.561 2224.18,640.561 M2212.77,647.358 C2213.97,643.671 2217.97,643.061 2221.38,643.061 C2228.79,643.061 2234.79,651.061 2234.79,657.671 C2234.79,658.358 2234.68,659.061 2234.58,659.671 C2234.08,662.358 2232.47,664.265 2229.79,664.968 C2228.68,665.265 2227.58,665.358 2226.47,665.358 C2225.47,665.358 2224.58,665.265 2223.58,664.968 C2221.77,664.358 2219.97,663.358 2218.47,662.061 C2217.68,661.358 2216.88,660.561 2216.18,659.671 C2214.08,657.171 2212.38,653.468 2212.38,650.061 C2212.38,649.171 2212.47,648.265 2212.77,647.358"/>
<path class="Note" d="M2576.18,640.561 C2561.68,640.561 2552.68,646.671 2552.68,654.061 C2552.68,661.358 2558.89,667.858 2575.09,667.858 C2592.89,667.858 2598.59,661.671 2598.59,654.061 C2598.59,646.358 2586.29,640.561 2576.18,640.561 M2564.78,647.358 C2565.98,643.671 2569.98,643.061 2573.39,643.061 C2580.79,643.061 2586.79,651.061 2586.79,657.671 C2586.79,658.358 2586.68,659.061 2586.59,659.671 C2586.09,662.358 2584.48,664.265 2581.79,664.968 C2580.68,665.265 2579.59,665.358 2578.48,665.358 C2577.48,665.358 2576.59,665.265 2575.59,664.968 C2573.78,664.358 2571.98,663.358 2570.48,662.061 C2569.68,661.358 2568.89,660.561 2568.18,659.671 C2566.09,657.171 2564.39,653.468 2564.39,650.061 C2564.39,649.171 2564.48,648.265 2564.78,647.358"/>
<path class="Note" d="M1523.98,480.753 C1533.89,480.753 1546.09,471.55 1546.09,462.05 C1546.09,456.456 1541.59,452.753 1535.18,452.753 C1522.98,452.753 1513.18,461.847 1513.18,471.456 C1513.18,477.253 1517.98,480.753 1523.98,480.753"/>
<path class="Note" d="M1523.98,455.751 C1533.89,455.751 1546.09,446.548 1546.09,437.048 C1546.09,431.454 1541.59,427.751 1535.18,427.751 C1522.98,427.751 1513.18,436.845 1513.18,446.454 C1513.18,452.251 1517.98,455.751 1523.98,455.751"/>
<path class="Note" d="M1884.29,455.751 C1894.2,455.751 1906.4,446.548 1906.4,437.048 C1906.4,431.454 1901.9,427.751 1895.49,427.751 C1883.29,427.751 1873.49,436.845 1873.49,446.454 C1873.49,452.251 1878.29,455.751 1884.29,455.751"/>
<path class="Note" d="M1884.29,430.75 C1894.2,430.75 1906.4,421.546 1906.4,412.046 C1906.4,406.453 1901.9,402.75 1895.49,402.75 C1883.29,402.75 1873.49,411.843 1873.49,421.453 C1873.49,427.25 1878.29,430.75 1884.29,430.75"/>
<path class="Note" d="M2217.97,468.252 C2227.88,468.252 2240.08,459.049 2240.08,449.549 C2240.08,443.955 2235.58,440.252 2229.18,440.252 C2216.97,440.252 2207.18,449.346 2207.18,458.955 C2207.18,464.752 2211.97,468.252 2217.97,468.252"/>
<path class="Note" d="M2217.97,443.25 C2227.88,443.25 2240.08,434.047 2240.08,424.547 C2240.08,418.954 2235.58,415.25 2229.18,415.25 C2216.97,415.25 2207.18,424.344 2207.18,433.954 C2207.18,439.75 2211.97,443.25 2217.97,443.25"/>
<path class="Note" d="M2569.98,443.25 C2579.89,443.25 2592.09,434.047 2592.09,424.547 C2592.09,418.954 2587.59,415.25 2581.18,415.25 C2568.98,415.25 2559.18,424.344 2559.18,433.954 C2559.18,439.75 2563.98,443.25 2569.98,443.25"/>
<path class="Note" d="M362.141,403.046 C347.641,403.046 338.641,409.156 338.641,416.546 C338.641,423.843 344.844,430.343 361.047,430.343 C378.844,430.343 384.547,424.156 384.547,416.546 C384.547,408.843 372.25,403.046 362.141,403.046 M350.734,409.843 C351.938,406.156 355.938,405.546 359.344,405.546 C366.75,405.546 372.75,413.546 372.75,420.156 C372.75,420.843 372.641,421.546 372.547,422.156 C372.047,424.843 370.438,426.75 367.75,427.453 C366.641,427.75 365.547,427.843 364.438,427.843 C363.438,427.843 362.547,427.75 361.547,427.453 C359.734,426.843 357.938,425.843 356.438,424.546 C355.641,423.843 354.844,423.046 354.141,422.156 C352.047,419.656 350.344,415.953 350.344,412.546 C350.344,411.656 350.438,410.75 350.734,409.843"/>
<path class="Note" d="M638.576,390.546 C624.076,390.546 615.076,396.655 615.076,404.046 C615.076,411.343 621.279,417.843 637.482,417.843 C655.279,417.843 660.982,411.655 660.982,404.046 C660.982,396.343 648.685,390.546 638.576,390.546 M627.17,397.343 C628.373,393.655 632.373,393.046 635.779,393.046 C643.185,393.046 649.185,401.046 649.185,407.655 C649.185,408.343 649.076,409.046 648.982,409.655 C648.482,412.343 646.873,414.249 644.185,414.952 C643.076,415.249 641.982,415.343 640.873,415.343 C639.873,415.343 638.982,415.249 637.982,414.952 C636.17,414.343 634.373,413.343 632.873,412.046 C632.076,411.343 631.279,410.546 630.576,409.655 C628.482,407.155 626.779,403.452 626.779,400.046 C626.779,399.155 626.873,398.249 627.17,397.343"/>
<path class="Note" d="M944.208,390.546 C929.708,390.546 920.708,396.655 920.708,404.046 C920.708,411.343 926.911,417.843 943.115,417.843 C960.911,417.843 966.615,411.655 966.615,404.046 C966.615,396.343 954.318,390.546 944.208,390.546 M932.802,397.343 C934.005,393.655 938.005,393.046 941.411,393.046 C948.818,393.046 954.818,401.046 954.818,407.655 C954.818,408.343 954.708,409.046 954.615,409.655 C954.115,412.343 952.505,414.249 949.818,414.952 C948.708,415.249 947.615,415.343 946.505,415.343 C945.505,415.343 944.615,415.249 943.615,414.952 C941.802,414.343 940.005,413.343 938.505,412.046 C937.708,411.343 936.911,410.546 936.208,409.655 C934.115,407.155 932.411,403.452 932.411,400.046 C932.411,399.155 932.505,398.249 932.802,397.343"/>
<path class="Note" d="M1239.25,378.045 C1224.75,378.045 1215.75,384.154 1215.75,391.545 C1215.75,398.842 1221.95,405.342 1238.15,405.342 C1255.95,405.342 1261.65,399.154 1261.65,391.545 C1261.65,383.842 1249.36,378.045 1239.25,378.045 M1227.84,384.842 C1229.04,381.154 1233.04,380.545 1236.45,380.545 C1243.86,380.545 1249.86,388.545 1249.86,395.154 C1249.86,395.842 1249.75,396.545 1249.65,397.154 C1249.15,399.842 1247.54,401.748 1244.86,402.451 C1243.75,402.748 1242.65,402.842 1241.54,402.842 C1240.54,402.842 1239.65,402.748 1238.65,402.451 C1236.84,401.842 1235.04,400.842 1233.54,399.545 C1232.75,398.842 1231.95,398.045 1231.25,397.154 C1229.15,394.654 1227.45,390.951 1227.45,387.545 C1227.45,386.654 1227.54,385.748 1227.84,384.842"/>
<path class="Note" d="M1530.18,403.046 C1515.68,403.046 1506.68,409.156 1506.68,416.546 C1506.68,423.843 1512.89,430.343 1529.09,430.343 C1546.89,430.343 1552.59,424.156 1552.59,416.546 C1552.59,408.843 1540.29,403.046 1530.18,403.046 M1518.78,409.843 C1519.98,406.156 1523.98,405.546 1527.39,405.546 C1534.79,405.546 1540.79,413.546 1540.79,420.156 C1540.79,420.843 1540.68,421.546 1540.59,422.156 C1540.09,424.843 1538.48,426.75 1535.79,427.453 C1534.68,427.75 1533.59,427.843 1532.48,427.843 C1531.48,427.843 1530.59,427.75 1529.59,427.453 C1527.78,426.843 1525.98,425.843 1524.48,424.546 C1523.68,423.843 1522.89,423.046 1522.18,422.156 C1520.09,419.656 1518.39,415.953 1518.39,412.546 C1518.39,411.656 1518.48,410.75 1518.78,409.843"/>
<path class="Note" d="M1848.59,390.546 C1834.09,390.546 1825.09,396.655 1825.09,404.046 C1825.09,411.343 1831.3,417.843 1847.5,417.843 C1865.3,417.843 1871,411.655 1871,404.046 C1871,396.343 1858.7,390.546 1848.59,390.546 M1837.19,397.343 C1838.39,393.655 1842.39,393.046 1845.8,393.046 C1853.2,393.046 1859.2,401.046 1859.2,407.655 C1859.2,408.343 1859.09,409.046 1859,409.655 C1858.5,412.343 1856.89,414.249 1854.2,414.952 C1853.09,415.249 1852,415.343 1850.89,415.343 C1849.89,415.343 1849,415.249 1848,414.952 C1846.19,414.343 1844.39,413.343 1842.89,412.046 C1842.09,411.343 1841.3,410.546 1840.59,409.655 C1838.5,407.155 1836.8,403.452 1836.8,400.046 C1836.8,399.155 1836.89,398.249 1837.19,397.343"/>
<path class="Note" d="M2224.18,390.546 C2209.68,390.546 2200.68,396.655 2200.68,404.046 C2200.68,411.343 2206.88,417.843 2223.08,417.843 C2240.88,417.843 2246.58,411.655 2246.58,404.046 C2246.58,396.343 2234.29,390.546 2224.18,390.546 M2212.77,397.343 C2213.97,393.655 2217.97,393.046 2221.38,393.046 C2228.79,393.046 2234.79,401.046 2234.79,407.655 C2234.79,408.343 2234.68,409.046 2234.58,409.655 C2234.08,412.343 2232.47,414.249 2229.79,414.952 C2228.68,415.249 2227.58,415.343 2226.47,415.343 C2225.47,415.343 2224.58,415.249 2223.58,414.952 C2221.77,414.343 2219.97,413.343 2218.47,412.046 C2217.68,411.343 2216.88,410.546 2216.18,409.655 C2214.08,407.155 2212.38,403.452 2212.38,400.046 C2212.38,399.155 2212.47,398.249 2212.77,397.343"/>
<path class="Note" d="M2576.18,378.045 C2561.68,378.045 2552.68,384.154 2552.68,391.545 C2552.68,398.842 2558.89,405.342 2575.09,405.342 C2592.89,405.342 2598.59,399.154 2598.59,391.545 C2598.59,383.842 2586.29,378.045 2576.18,378.045 M2564.78,384.842 C2565.98,381.154 2569.98,380.545 2573.39,380.545 C2580.79,380.545 2586.79,388.545 2586.79,395.154 C2586.79,395.842 2586.68,396.545 2586.59,397.154 C2586.09,399.842 2584.48,401.748 2581.79,402.451 C2580.68,402.748 2579.59,402.842 2578.48,402.842 C2577.48,402.842 2576.59,402.748 2575.59,402.451 C2573.78,401.842 2571.98,400.842 2570.48,399.545 C2569.68,398.842 2568.89,398.045 2568.18,397.154 C2566.09,394.654 2564.39,390.951 2564.39,387.545 C2564.39,386.654 2564.48,385.748 2564.78,384.842"/>
<path class="Clef" d="M232.937,578.058 C215.531,578.058 207.734,590.761 207.734,600.355 C207.734,608.355 211.937,615.261 220.031,615.261 C226.328,615.261 230.64,610.855 230.64,604.668 C230.64,598.261 225.937,594.261 221.031,594.261 C218.328,594.261 217.328,594.965 216.031,594.965 C214.734,594.965 214.437,594.168 214.437,593.168 C214.437,589.168 220.437,581.855 230.64,581.855 C241.234,581.855 245.843,592.261 245.843,607.965 C245.843,618.261 243.64,630.261 237.437,639.871 C231.437,649.168 221.14,657.668 208.734,664.761 C207.828,665.261 207.234,665.761 207.234,666.558 C207.234,667.168 207.64,667.761 208.531,667.761 C209.031,667.761 209.64,667.558 210.234,667.261 C223.531,660.761 236.343,653.168 246.937,641.761 C255.64,632.371 260.843,620.168 260.843,607.058 C260.843,589.668 250.234,578.058 232.937,578.058 M270.734,611.355 C267.64,611.355 265.343,613.668 265.343,616.761 C265.343,619.855 267.64,622.168 270.734,622.168 C273.843,622.168 276.14,619.855 276.14,616.761 C276.14,613.668 273.843,611.355 270.734,611.355 M270.64,586.261 C267.531,586.261 265.14,588.668 265.14,591.761 C265.14,594.855 267.531,597.261 270.64,597.261 C273.734,597.261 276.14,594.855 276.14,591.761 C276.14,588.668 273.734,586.261 270.64,586.261"/>
<path class="Clef" d="M254.734,297.436 C258.031,297.436 260.734,300.139 260.734,305.639 C260.734,312.545 257.437,318.951 249.64,326.748 C248.031,328.342 245.64,330.639 243.343,332.639 C242.64,333.248 242.234,333.139 242.031,331.842 C241.64,329.248 241.437,325.842 241.437,322.639 C241.437,307.045 248.64,297.436 254.734,297.436 M250.734,381.451 C250.531,380.248 250.64,379.951 251.843,380.045 C259.937,380.748 266.64,387.545 266.64,396.342 C266.64,402.654 262.843,407.748 257.234,410.545 C256.031,411.154 255.843,411.154 255.64,409.951 L250.734,381.451 M243.843,365.545 C244.14,367.451 244.14,367.342 242.343,367.951 C233.531,370.951 227.828,378.842 227.828,387.342 C227.828,396.342 232.531,402.748 239.343,405.045 C240.14,405.342 241.343,405.654 242.031,405.654 C242.843,405.654 243.234,405.154 243.234,404.545 C243.234,403.842 242.437,403.545 241.734,403.248 C237.531,401.451 234.531,397.154 234.531,392.545 C234.531,386.842 238.437,382.545 244.531,380.842 C246.14,380.451 246.343,380.545 246.531,381.654 L251.531,411.451 C251.734,412.545 251.64,412.545 250.14,412.842 C248.531,413.154 246.531,413.342 244.531,413.342 C227.031,413.342 215.734,403.654 215.734,389.748 C215.734,383.842 216.734,375.951 225.031,366.545 C231.031,359.842 235.64,356.139 240.343,352.342 C241.343,351.545 241.531,351.639 241.734,352.748 L243.843,365.545 M245.343,350.248 C245.14,349.045 245.343,348.951 245.937,348.342 C247.531,346.842 249.64,344.748 251.531,342.639 C259.937,333.451 264.937,321.545 264.937,310.248 C264.937,301.545 262.531,292.936 258.437,286.936 C256.937,284.748 254.343,281.936 253.234,281.936 C251.843,281.936 248.734,284.545 246.734,286.748 C239.343,294.936 236.937,307.436 236.937,317.842 C236.937,323.639 237.64,330.139 238.343,334.248 C238.531,335.451 238.64,335.639 237.437,336.639 C231.031,341.951 224.14,348.045 218.937,354.451 C212.031,363.045 207.734,372.342 207.734,383.045 C207.734,400.451 219.64,416.951 244.14,416.951 C246.437,416.951 249.031,416.748 251.031,416.342 C252.14,416.154 252.343,416.045 252.531,417.248 C253.734,423.951 255.234,432.654 255.234,437.357 C255.234,452.154 245.234,453.951 239.343,453.951 C233.937,453.951 231.328,452.357 231.328,451.045 C231.328,450.357 232.234,450.045 234.531,449.357 C237.64,448.451 241.234,445.748 241.234,439.951 C241.234,434.451 237.734,429.748 231.64,429.748 C224.937,429.748 220.937,435.045 220.937,441.248 C220.937,447.748 224.828,457.545 239.937,457.545 C246.64,457.545 259.64,454.545 259.64,437.545 C259.64,431.857 257.843,422.357 256.734,416.154 C256.531,414.951 256.64,415.045 258.031,414.451 C268.14,410.451 274.843,401.951 274.843,390.654 C274.843,377.842 265.437,366.545 250.734,366.545 C248.14,366.545 248.14,366.545 247.843,364.748 L245.343,350.248 "/>
<path class="Lyrics" d="M368.518,501.671 C368.518,499.733 368.088,498.012 367.228,496.507 C366.369,495.002 365.325,493.838 364.096,493.015 C362.866,492.192 361.491,491.515 359.971,490.983 C358.45,490.452 357.129,490.106 356.01,489.944 C354.89,489.783 353.908,489.702 353.064,489.702 C352.627,489.702 352.408,489.556 352.408,489.265 C352.408,489.15 352.429,489.056 352.471,488.983 L358.455,475.968 L369.955,475.968 C370.538,475.968 371.004,475.877 371.353,475.694 C371.702,475.512 372.08,475.129 372.486,474.546 L372.986,474.921 L370.893,479.811 C370.747,480.145 370.325,480.311 369.627,480.311 L358.846,480.311 L356.533,484.983 C361.887,485.931 365.866,487.476 368.471,489.616 C371.075,491.757 372.377,494.895 372.377,499.03 C372.377,501.197 372.038,503.127 371.361,504.819 C370.684,506.512 369.822,507.871 368.775,508.897 C367.728,509.923 366.518,510.767 365.143,511.429 C363.768,512.09 362.447,512.541 361.182,512.78 C359.916,513.02 358.643,513.14 357.361,513.14 C355.309,513.14 353.679,512.838 352.471,512.233 C351.262,511.629 350.658,510.796 350.658,509.733 C350.658,508.379 351.445,507.702 353.018,507.702 C354.049,507.702 355.379,508.262 357.01,509.382 C358.64,510.502 359.929,511.061 360.877,511.061 C363.044,511.061 364.859,510.155 366.322,508.343 C367.786,506.53 368.518,504.306 368.518,501.671"/>
<path class="Lyrics" d="M639.015,513.14 C635.317,513.14 632.341,511.663 630.086,508.71 C627.83,505.757 626.703,501.853 626.703,496.999 C626.703,495.499 626.849,493.952 627.14,492.358 C627.432,490.765 628.073,488.952 629.062,486.921 C630.052,484.89 631.336,483.069 632.914,481.46 C634.492,479.851 636.7,478.413 639.539,477.147 C642.377,475.882 645.651,475.088 649.359,474.765 L649.468,475.64 C645.135,476.338 641.52,478.088 638.625,480.89 C635.729,483.692 633.916,487.166 633.187,491.311 C634.906,490.332 636.205,489.694 637.086,489.397 C637.966,489.101 639.01,488.952 640.218,488.952 C643.375,488.952 645.888,489.973 647.757,492.015 C649.627,494.056 650.562,496.811 650.562,500.28 C650.562,504.072 649.489,507.163 647.343,509.554 C645.198,511.944 642.422,513.14 639.015,513.14 M638.14,491.374 C635.64,491.374 633.961,491.921 633.101,493.015 C632.242,494.108 631.812,495.728 631.812,497.874 C631.812,502.103 632.507,505.431 633.898,507.858 C635.289,510.285 637.198,511.499 639.625,511.499 C641.562,511.499 643.044,510.686 644.07,509.061 C645.096,507.436 645.609,505.129 645.609,502.14 C645.609,498.713 644.958,496.061 643.656,494.186 C642.354,492.311 640.515,491.374 638.14,491.374"/>
<path class="Lyrics" d="M950.585,501.671 C950.585,499.733 950.156,498.012 949.296,496.507 C948.437,495.002 947.392,493.838 946.163,493.015 C944.934,492.192 943.559,491.515 942.038,490.983 C940.517,490.452 939.197,490.106 938.077,489.944 C936.958,489.783 935.976,489.702 935.132,489.702 C934.695,489.702 934.476,489.556 934.476,489.265 C934.476,489.15 934.497,489.056 934.538,488.983 L940.523,475.968 L952.023,475.968 C952.606,475.968 953.072,475.877 953.421,475.694 C953.77,475.512 954.148,475.129 954.554,474.546 L955.054,474.921 L952.96,479.811 C952.814,480.145 952.392,480.311 951.695,480.311 L940.913,480.311 L938.601,484.983 C943.955,485.931 947.934,487.476 950.538,489.616 C953.142,491.757 954.445,494.895 954.445,499.03 C954.445,501.197 954.106,503.127 953.429,504.819 C952.752,506.512 951.89,507.871 950.843,508.897 C949.796,509.923 948.585,510.767 947.21,511.429 C945.835,512.09 944.515,512.541 943.249,512.78 C941.984,513.02 940.71,513.14 939.429,513.14 C937.377,513.14 935.747,512.838 934.538,512.233 C933.33,511.629 932.726,510.796 932.726,509.733 C932.726,508.379 933.512,507.702 935.085,507.702 C936.116,507.702 937.447,508.262 939.077,509.382 C940.708,510.502 941.997,511.061 942.945,511.061 C945.111,511.061 946.926,510.155 948.39,508.343 C949.853,506.53 950.585,504.306 950.585,501.671"/>
<path class="Lyrics" d="M1239.69,513.14 C1235.99,513.14 1233.01,511.663 1230.76,508.71 C1228.5,505.757 1227.37,501.853 1227.37,496.999 C1227.37,495.499 1227.52,493.952 1227.81,492.358 C1228.1,490.765 1228.74,488.952 1229.73,486.921 C1230.72,484.89 1232.01,483.069 1233.58,481.46 C1235.16,479.851 1237.37,478.413 1240.21,477.147 C1243.05,475.882 1246.32,475.088 1250.03,474.765 L1250.14,475.64 C1245.81,476.338 1242.19,478.088 1239.3,480.89 C1236.4,483.692 1234.59,487.166 1233.86,491.311 C1235.58,490.332 1236.88,489.694 1237.76,489.397 C1238.64,489.101 1239.68,488.952 1240.89,488.952 C1244.05,488.952 1246.56,489.973 1248.43,492.015 C1250.3,494.056 1251.23,496.811 1251.23,500.28 C1251.23,504.072 1250.16,507.163 1248.01,509.554 C1245.87,511.944 1243.09,513.14 1239.69,513.14 M1238.81,491.374 C1236.31,491.374 1234.63,491.921 1233.77,493.015 C1232.91,494.108 1232.48,495.728 1232.48,497.874 C1232.48,502.103 1233.18,505.431 1234.57,507.858 C1235.96,510.285 1237.87,511.499 1240.3,511.499 C1242.23,511.499 1243.71,510.686 1244.74,509.061 C1245.77,507.436 1246.28,505.129 1246.28,502.14 C1246.28,498.713 1245.63,496.061 1244.33,494.186 C1243.02,492.311 1241.19,491.374 1238.81,491.374"/>
<path class="Bracket" transform="matrix(3.62523,0,0,3.62523,144.23,679.266)" d="M2,-49.7969 C4.90625,-51.6094 8.20313,-58.7031 8.20313,-64.6094 C8.20313,-65.1094 8.20313,-65.7031 8.09375,-66.2031 C7.40625,-72.2031 4.40625,-81.5 4.40625,-86.9063 C4.40625,-92.1094 6.70313,-97.1094 7.20313,-98 C7.59375,-98.4063 7.70313,-98.7031 7.70313,-99 C7.70313,-99.2031 7.59375,-99.4063 7.5,-99.4063 C7.40625,-99.5 7.29688,-99.7031 7.09375,-99.7031 C6.90625,-99.7031 6.70313,-99.5 6.29688,-99 C4.09375,-96.3125 1.40625,-90.5 1.40625,-80.5 C1.40625,-70.6094 4.90625,-66.6094 4.90625,-60.2969 C4.90625,-55.6094 3,-53 0.203125,-49.7969 C2,-47.7969 4.90625,-46.2031 4.90625,-39.7031 C4.90625,-32.7031 1.40625,-26.5 1.40625,-19.2031 C1.40625,-9.20313 4.09375,-3.40625 6.29688,-0.59375 C6.70313,-0.09375 6.90625,0 7.09375,0 C7.29688,0 7.40625,-0.09375 7.5,-0.203125 C7.59375,-0.296875 7.70313,-0.40625 7.70313,-0.59375 C7.70313,-0.90625 7.59375,-1.20313 7.20313,-1.70313 C6.70313,-2.5 4.40625,-7.5 4.40625,-12.7969 C4.40625,-18.0938 7.40625,-27.5 8.09375,-33.4063 C8.20313,-33.9063 8.20313,-34.4063 8.20313,-35 C8.20313,-40.9063 4.90625,-48 2,-49.7969"/>
</svg>
