<?xml version="1.0" encoding="UTF-8" standalone="no"?>
<svg width="2977.23px" height="4208.47px" viewBox="0 0 2977.23 4208.47"
 xmlns="http://www.w3.org/2000/svg" xmlns:xlink="http://www.w3.org/1999/xlink" version="1.2" baseProfile="tiny">
<title>Zwerg-Struktur (1)</title>
<desc>Generated by MuseScore 3.4.2</desc>
<polyline class="StaffLines" fill="none" stroke="#000000" stroke-width="3.25" stroke-linejoin="bevel" points="183.232,316.743 2835.5,316.743"/>
<polyline class="StaffLines" fill="none" stroke="#000000" stroke-width="3.25" stroke-linejoin="bevel" points="183.232,341.745 2835.5,341.745"/>
<polyline class="StaffLines" fill="none" stroke="#000000" stroke-width="3.25" stroke-linejoin="bevel" points="183.232,366.746 2835.5,366.746"/>
<polyline class="StaffLines" fill="none" stroke="#000000" stroke-width="3.25" stroke-linejoin="bevel" points="183.232,391.748 2835.5,391.748"/>
<polyline class="StaffLines" fill="none" stroke="#000000" stroke-width="3.25" stroke-linejoin="bevel" points="183.232,416.75 2835.5,416.75"/>
<polyline class="StaffLines" fill="none" stroke="#000000" stroke-width="3.25" stroke-linejoin="bevel" points="183.232,579.26 2835.5,579.26"/>
<polyline class="StaffLines" fill="none" stroke="#000000" stroke-width="3.25" stroke-linejoin="bevel" points="183.232,604.261 2835.5,604.261"/>
<polyline class="StaffLines" fill="none" stroke="#000000" stroke-width="3.25" stroke-linejoin="bevel" points="183.232,629.263 2835.5,629.263"/>
<polyline class="StaffLines" fill="none" stroke="#000000" stroke-width="3.25" stroke-linejoin="bevel" points="183.232,654.265 2835.5,654.265"/>
<polyline class="StaffLines" fill="none" stroke="#000000" stroke-width="3.25" stroke-linejoin="bevel" points="183.232,679.266 2835.5,679.266"/>
<polyline class="BarLine" fill="none" stroke="#000000" stroke-width="4.00" stroke-linejoin="bevel" points="185.233,577.635 185.233,680.891"/>
<polyline class="BarLine" fill="none" stroke="#000000" stroke-width="4.00" stroke-linejoin="bevel" points="621.03,577.635 621.03,680.891"/>
<polyline class="BarLine" fill="none" stroke="#000000" stroke-width="4.00" stroke-linejoin="bevel" points="887.614,577.635 887.614,680.891"/>
<polyline class="BarLine" fill="none" stroke="#000000" stroke-width="4.00" stroke-linejoin="bevel" points="1154.2,577.635 1154.2,680.891"/>
<polyline class="BarLine" fill="none" stroke="#000000" stroke-width="4.00" stroke-linejoin="bevel" points="1445.48,577.635 1445.48,680.891"/>
<polyline class="BarLine" fill="none" stroke="#000000" stroke-width="4.00" stroke-linejoin="bevel" points="1712.06,577.635 1712.06,680.891"/>
<polyline class="BarLine" fill="none" stroke="#000000" stroke-width="4.00" stroke-linejoin="bevel" points="1978.65,577.635 1978.65,680.891"/>
<polyline class="BarLine" fill="none" stroke="#000000" stroke-width="4.00" stroke-linejoin="bevel" points="2245.23,577.635 2245.23,680.891"/>
<polyline class="BarLine" fill="none" stroke="#000000" stroke-width="4.00" stroke-linejoin="bevel" points="2566.91,577.635 2566.91,680.891"/>
<polyline class="BarLine" fill="none" stroke="#000000" stroke-width="4.00" stroke-linejoin="bevel" points="2833.5,577.635 2833.5,680.891"/>
<polyline class="BarLine" fill="none" stroke="#000000" stroke-width="4.00" stroke-linejoin="bevel" points="185.233,315.118 185.233,579.26"/>
<polyline class="BarLine" fill="none" stroke="#000000" stroke-width="4.00" stroke-linejoin="bevel" points="621.03,315.118 621.03,579.26"/>
<polyline class="BarLine" fill="none" stroke="#000000" stroke-width="4.00" stroke-linejoin="bevel" points="887.614,315.118 887.614,579.26"/>
<polyline class="BarLine" fill="none" stroke="#000000" stroke-width="4.00" stroke-linejoin="bevel" points="1154.2,315.118 1154.2,579.26"/>
<polyline class="BarLine" fill="none" stroke="#000000" stroke-width="4.00" stroke-linejoin="bevel" points="1445.48,315.118 1445.48,579.26"/>
<polyline class="BarLine" fill="none" stroke="#000000" stroke-width="4.00" stroke-linejoin="bevel" points="1712.06,315.118 1712.06,579.26"/>
<polyline class="BarLine" fill="none" stroke="#000000" stroke-width="4.00" stroke-linejoin="bevel" points="1978.65,315.118 1978.65,579.26"/>
<polyline class="BarLine" fill="none" stroke="#000000" stroke-width="4.00" stroke-linejoin="bevel" points="2245.23,315.118 2245.23,579.26"/>
<polyline class="BarLine" fill="none" stroke="#000000" stroke-width="4.00" stroke-linejoin="bevel" points="2566.91,315.118 2566.91,579.26"/>
<polyline class="BarLine" fill="none" stroke="#000000" stroke-width="4.00" stroke-linejoin="bevel" points="2833.5,315.118 2833.5,579.26"/>
<path class="Accidental" d="M2332.33,608.761 C2331.74,610.761 2327.03,612.761 2324.74,612.761 C2324.13,612.761 2323.63,612.558 2323.53,612.261 C2323.33,611.855 2323.24,609.668 2323.24,607.261 C2323.24,604.168 2323.33,600.668 2323.53,599.855 C2323.74,598.168 2328.33,596.058 2330.83,596.058 C2331.53,596.058 2332.13,596.261 2332.33,596.668 C2332.53,597.168 2332.74,599.668 2332.74,602.355 C2332.74,605.058 2332.53,607.855 2332.33,608.761 M2339.24,592.465 C2339.94,592.168 2340.44,591.355 2340.44,590.761 L2340.44,583.668 C2340.44,583.168 2340.13,582.855 2339.74,582.855 C2339.53,582.855 2339.44,582.855 2339.24,582.965 C2339.24,582.965 2337.24,583.761 2336.74,583.855 C2336.03,583.855 2335.33,583.355 2335.33,582.558 L2335.33,570.355 C2335.33,569.761 2334.74,569.261 2333.94,569.261 C2332.94,569.261 2332.33,569.761 2332.33,570.355 L2332.33,583.355 C2332.24,584.355 2331.94,585.668 2331.03,586.261 C2329.83,586.965 2326.44,588.355 2324.74,588.761 C2323.83,588.761 2323.53,587.558 2323.53,586.761 L2323.53,574.761 C2323.53,574.152 2322.83,573.652 2322.13,573.652 C2321.13,573.652 2320.53,574.152 2320.53,574.761 L2320.53,588.261 C2320.53,589.668 2319.94,590.668 2319.33,590.965 C2318.74,591.261 2316.74,592.058 2316.74,592.058 C2316.03,592.261 2315.53,593.058 2315.53,593.668 L2315.53,600.761 C2315.53,601.355 2315.83,601.668 2316.33,601.668 C2316.44,601.668 2316.63,601.558 2316.74,601.558 C2316.74,601.558 2318.24,600.965 2318.94,600.558 C2319.03,600.558 2319.13,600.465 2319.24,600.465 C2319.94,600.465 2320.53,601.465 2320.53,602.261 L2320.53,612.168 C2320.53,613.261 2320.03,614.168 2319.44,614.465 C2318.83,614.668 2316.74,615.558 2316.74,615.558 C2316.03,615.761 2315.53,616.558 2315.53,617.168 L2315.53,624.261 C2315.53,624.855 2315.83,625.168 2316.33,625.168 C2316.44,625.168 2316.63,625.058 2316.74,625.058 C2316.74,625.058 2318.13,624.465 2319.03,624.168 C2319.13,624.058 2319.24,624.058 2319.33,624.058 C2320.03,624.058 2320.53,625.168 2320.53,625.668 L2320.53,637.965 C2320.53,638.558 2321.13,639.058 2321.83,639.058 C2322.83,639.058 2323.53,638.558 2323.53,637.965 L2323.53,624.058 C2323.53,622.761 2324.03,622.058 2324.53,621.855 L2330.63,619.355 C2330.74,619.355 2330.94,619.261 2331.03,619.261 C2331.83,619.261 2332.33,620.465 2332.33,621.058 L2332.33,633.558 C2332.33,634.168 2332.94,634.668 2333.63,634.668 C2334.74,634.668 2335.33,634.168 2335.33,633.558 L2335.33,619.355 C2335.33,618.558 2335.74,617.355 2336.44,617.058 C2337.13,616.761 2339.24,615.965 2339.24,615.965 C2339.94,615.668 2340.44,614.855 2340.44,614.261 L2340.44,607.168 C2340.44,606.668 2340.13,606.355 2339.74,606.355 C2339.53,606.355 2339.44,606.355 2339.24,606.465 L2336.63,607.465 C2336.03,607.465 2335.33,606.855 2335.33,605.668 L2335.33,596.355 C2335.33,595.668 2335.83,593.761 2336.63,593.465 L2339.24,592.465 "/>
<path class="Accidental" d="M1180.5,433.75 C1179.9,435.75 1175.2,437.75 1172.9,437.75 C1172.29,437.75 1171.79,437.547 1171.7,437.25 C1171.5,436.844 1171.4,434.657 1171.4,432.25 C1171.4,429.157 1171.5,425.657 1171.7,424.844 C1171.9,423.157 1176.5,421.047 1179,421.047 C1179.7,421.047 1180.29,421.25 1180.5,421.657 C1180.7,422.157 1180.9,424.657 1180.9,427.344 C1180.9,430.047 1180.7,432.844 1180.5,433.75 M1187.4,417.454 C1188.11,417.157 1188.61,416.344 1188.61,415.75 L1188.61,408.657 C1188.61,408.157 1188.29,407.844 1187.9,407.844 C1187.7,407.844 1187.61,407.844 1187.4,407.954 C1187.4,407.954 1185.4,408.75 1184.9,408.844 C1184.2,408.844 1183.5,408.344 1183.5,407.547 L1183.5,395.344 C1183.5,394.75 1182.9,394.25 1182.11,394.25 C1181.11,394.25 1180.5,394.75 1180.5,395.344 L1180.5,408.344 C1180.4,409.344 1180.11,410.657 1179.2,411.25 C1178,411.954 1174.61,413.344 1172.9,413.75 C1172,413.75 1171.7,412.547 1171.7,411.75 L1171.7,399.75 C1171.7,399.141 1171,398.641 1170.29,398.641 C1169.29,398.641 1168.7,399.141 1168.7,399.75 L1168.7,413.25 C1168.7,414.657 1168.11,415.657 1167.5,415.954 C1166.9,416.25 1164.9,417.047 1164.9,417.047 C1164.2,417.25 1163.7,418.047 1163.7,418.657 L1163.7,425.75 C1163.7,426.344 1164,426.657 1164.5,426.657 C1164.61,426.657 1164.79,426.547 1164.9,426.547 C1164.9,426.547 1166.4,425.954 1167.11,425.547 C1167.2,425.547 1167.29,425.454 1167.4,425.454 C1168.11,425.454 1168.7,426.454 1168.7,427.25 L1168.7,437.157 C1168.7,438.25 1168.2,439.157 1167.61,439.454 C1167,439.657 1164.9,440.547 1164.9,440.547 C1164.2,440.75 1163.7,441.547 1163.7,442.157 L1163.7,449.25 C1163.7,449.844 1164,450.157 1164.5,450.157 C1164.61,450.157 1164.79,450.047 1164.9,450.047 C1164.9,450.047 1166.29,449.454 1167.2,449.157 C1167.29,449.047 1167.4,449.047 1167.5,449.047 C1168.2,449.047 1168.7,450.157 1168.7,450.657 L1168.7,462.954 C1168.7,463.547 1169.29,464.047 1170,464.047 C1171,464.047 1171.7,463.547 1171.7,462.954 L1171.7,449.047 C1171.7,447.75 1172.2,447.047 1172.7,446.844 L1178.79,444.344 C1178.9,444.344 1179.11,444.25 1179.2,444.25 C1180,444.25 1180.5,445.454 1180.5,446.047 L1180.5,458.547 C1180.5,459.157 1181.11,459.657 1181.79,459.657 C1182.9,459.657 1183.5,459.157 1183.5,458.547 L1183.5,444.344 C1183.5,443.547 1183.9,442.344 1184.61,442.047 C1185.29,441.75 1187.4,440.954 1187.4,440.954 C1188.11,440.657 1188.61,439.844 1188.61,439.25 L1188.61,432.157 C1188.61,431.657 1188.29,431.344 1187.9,431.344 C1187.7,431.344 1187.61,431.344 1187.4,431.454 L1184.79,432.454 C1184.2,432.454 1183.5,431.844 1183.5,430.657 L1183.5,421.344 C1183.5,420.657 1184,418.75 1184.79,418.454 L1187.4,417.454 "/>
<path class="Accidental" d="M1210.9,408.749 C1210.3,410.749 1205.6,412.749 1203.3,412.749 C1202.69,412.749 1202.19,412.546 1202.1,412.249 C1201.9,411.843 1201.8,409.655 1201.8,407.249 C1201.8,404.155 1201.9,400.655 1202.1,399.843 C1202.3,398.155 1206.9,396.046 1209.4,396.046 C1210.1,396.046 1210.69,396.249 1210.9,396.655 C1211.1,397.155 1211.3,399.655 1211.3,402.343 C1211.3,405.046 1211.1,407.843 1210.9,408.749 M1217.8,392.452 C1218.51,392.155 1219.01,391.343 1219.01,390.749 L1219.01,383.655 C1219.01,383.155 1218.69,382.843 1218.3,382.843 C1218.1,382.843 1218.01,382.843 1217.8,382.952 C1217.8,382.952 1215.8,383.749 1215.3,383.843 C1214.6,383.843 1213.9,383.343 1213.9,382.546 L1213.9,370.343 C1213.9,369.749 1213.3,369.249 1212.51,369.249 C1211.51,369.249 1210.9,369.749 1210.9,370.343 L1210.9,383.343 C1210.8,384.343 1210.51,385.655 1209.6,386.249 C1208.4,386.952 1205.01,388.343 1203.3,388.749 C1202.4,388.749 1202.1,387.546 1202.1,386.749 L1202.1,374.749 C1202.1,374.139 1201.4,373.639 1200.69,373.639 C1199.69,373.639 1199.1,374.139 1199.1,374.749 L1199.1,388.249 C1199.1,389.655 1198.51,390.655 1197.9,390.952 C1197.3,391.249 1195.3,392.046 1195.3,392.046 C1194.6,392.249 1194.1,393.046 1194.1,393.655 L1194.1,400.749 C1194.1,401.343 1194.4,401.655 1194.9,401.655 C1195.01,401.655 1195.19,401.546 1195.3,401.546 C1195.3,401.546 1196.8,400.952 1197.51,400.546 C1197.6,400.546 1197.69,400.452 1197.8,400.452 C1198.51,400.452 1199.1,401.452 1199.1,402.249 L1199.1,412.155 C1199.1,413.249 1198.6,414.155 1198.01,414.452 C1197.4,414.655 1195.3,415.546 1195.3,415.546 C1194.6,415.749 1194.1,416.546 1194.1,417.155 L1194.1,424.249 C1194.1,424.843 1194.4,425.155 1194.9,425.155 C1195.01,425.155 1195.19,425.046 1195.3,425.046 C1195.3,425.046 1196.69,424.452 1197.6,424.155 C1197.69,424.046 1197.8,424.046 1197.9,424.046 C1198.6,424.046 1199.1,425.155 1199.1,425.655 L1199.1,437.952 C1199.1,438.546 1199.69,439.046 1200.4,439.046 C1201.4,439.046 1202.1,438.546 1202.1,437.952 L1202.1,424.046 C1202.1,422.749 1202.6,422.046 1203.1,421.843 L1209.19,419.343 C1209.3,419.343 1209.51,419.249 1209.6,419.249 C1210.4,419.249 1210.9,420.452 1210.9,421.046 L1210.9,433.546 C1210.9,434.155 1211.51,434.655 1212.19,434.655 C1213.3,434.655 1213.9,434.155 1213.9,433.546 L1213.9,419.343 C1213.9,418.546 1214.3,417.343 1215.01,417.046 C1215.69,416.749 1217.8,415.952 1217.8,415.952 C1218.51,415.655 1219.01,414.843 1219.01,414.249 L1219.01,407.155 C1219.01,406.655 1218.69,406.343 1218.3,406.343 C1218.1,406.343 1218.01,406.343 1217.8,406.452 L1215.19,407.452 C1214.6,407.452 1213.9,406.843 1213.9,405.655 L1213.9,396.343 C1213.9,395.655 1214.4,393.749 1215.19,393.452 L1217.8,392.452 "/>
<path class="Accidental" d="M1738.36,408.749 C1737.77,410.749 1733.06,412.749 1730.77,412.749 C1730.16,412.749 1729.66,412.546 1729.56,412.249 C1729.36,411.843 1729.27,409.655 1729.27,407.249 C1729.27,404.155 1729.36,400.655 1729.56,399.843 C1729.77,398.155 1734.36,396.046 1736.86,396.046 C1737.56,396.046 1738.16,396.249 1738.36,396.655 C1738.56,397.155 1738.77,399.655 1738.77,402.343 C1738.77,405.046 1738.56,407.843 1738.36,408.749 M1745.27,392.452 C1745.97,392.155 1746.47,391.343 1746.47,390.749 L1746.47,383.655 C1746.47,383.155 1746.16,382.843 1745.77,382.843 C1745.56,382.843 1745.47,382.843 1745.27,382.952 C1745.27,382.952 1743.27,383.749 1742.77,383.843 C1742.06,383.843 1741.36,383.343 1741.36,382.546 L1741.36,370.343 C1741.36,369.749 1740.77,369.249 1739.97,369.249 C1738.97,369.249 1738.36,369.749 1738.36,370.343 L1738.36,383.343 C1738.27,384.343 1737.97,385.655 1737.06,386.249 C1735.86,386.952 1732.47,388.343 1730.77,388.749 C1729.86,388.749 1729.56,387.546 1729.56,386.749 L1729.56,374.749 C1729.56,374.139 1728.86,373.639 1728.16,373.639 C1727.16,373.639 1726.56,374.139 1726.56,374.749 L1726.56,388.249 C1726.56,389.655 1725.97,390.655 1725.36,390.952 C1724.77,391.249 1722.77,392.046 1722.77,392.046 C1722.06,392.249 1721.56,393.046 1721.56,393.655 L1721.56,400.749 C1721.56,401.343 1721.86,401.655 1722.36,401.655 C1722.47,401.655 1722.66,401.546 1722.77,401.546 C1722.77,401.546 1724.27,400.952 1724.97,400.546 C1725.06,400.546 1725.16,400.452 1725.27,400.452 C1725.97,400.452 1726.56,401.452 1726.56,402.249 L1726.56,412.155 C1726.56,413.249 1726.06,414.155 1725.47,414.452 C1724.86,414.655 1722.77,415.546 1722.77,415.546 C1722.06,415.749 1721.56,416.546 1721.56,417.155 L1721.56,424.249 C1721.56,424.843 1721.86,425.155 1722.36,425.155 C1722.47,425.155 1722.66,425.046 1722.77,425.046 C1722.77,425.046 1724.16,424.452 1725.06,424.155 C1725.16,424.046 1725.27,424.046 1725.36,424.046 C1726.06,424.046 1726.56,425.155 1726.56,425.655 L1726.56,437.952 C1726.56,438.546 1727.16,439.046 1727.86,439.046 C1728.86,439.046 1729.56,438.546 1729.56,437.952 L1729.56,424.046 C1729.56,422.749 1730.06,422.046 1730.56,421.843 L1736.66,419.343 C1736.77,419.343 1736.97,419.249 1737.06,419.249 C1737.86,419.249 1738.36,420.452 1738.36,421.046 L1738.36,433.546 C1738.36,434.155 1738.97,434.655 1739.66,434.655 C1740.77,434.655 1741.36,434.155 1741.36,433.546 L1741.36,419.343 C1741.36,418.546 1741.77,417.343 1742.47,417.046 C1743.16,416.749 1745.27,415.952 1745.27,415.952 C1745.97,415.655 1746.47,414.843 1746.47,414.249 L1746.47,407.155 C1746.47,406.655 1746.16,406.343 1745.77,406.343 C1745.56,406.343 1745.47,406.343 1745.27,406.452 L1742.66,407.452 C1742.06,407.452 1741.36,406.843 1741.36,405.655 L1741.36,396.343 C1741.36,395.655 1741.86,393.749 1742.66,393.452 L1745.27,392.452 "/>
<path class="Accidental" d="M2301.93,408.749 C2301.34,410.749 2296.63,412.749 2294.34,412.749 C2293.73,412.749 2293.23,412.546 2293.13,412.249 C2292.93,411.843 2292.84,409.655 2292.84,407.249 C2292.84,404.155 2292.93,400.655 2293.13,399.843 C2293.34,398.155 2297.93,396.046 2300.43,396.046 C2301.13,396.046 2301.73,396.249 2301.93,396.655 C2302.13,397.155 2302.34,399.655 2302.34,402.343 C2302.34,405.046 2302.13,407.843 2301.93,408.749 M2308.84,392.452 C2309.54,392.155 2310.04,391.343 2310.04,390.749 L2310.04,383.655 C2310.04,383.155 2309.73,382.843 2309.34,382.843 C2309.13,382.843 2309.04,382.843 2308.84,382.952 C2308.84,382.952 2306.84,383.749 2306.34,383.843 C2305.63,383.843 2304.93,383.343 2304.93,382.546 L2304.93,370.343 C2304.93,369.749 2304.34,369.249 2303.54,369.249 C2302.54,369.249 2301.93,369.749 2301.93,370.343 L2301.93,383.343 C2301.84,384.343 2301.54,385.655 2300.63,386.249 C2299.43,386.952 2296.04,388.343 2294.34,388.749 C2293.43,388.749 2293.13,387.546 2293.13,386.749 L2293.13,374.749 C2293.13,374.139 2292.43,373.639 2291.73,373.639 C2290.73,373.639 2290.13,374.139 2290.13,374.749 L2290.13,388.249 C2290.13,389.655 2289.54,390.655 2288.93,390.952 C2288.34,391.249 2286.34,392.046 2286.34,392.046 C2285.63,392.249 2285.13,393.046 2285.13,393.655 L2285.13,400.749 C2285.13,401.343 2285.43,401.655 2285.93,401.655 C2286.04,401.655 2286.23,401.546 2286.34,401.546 C2286.34,401.546 2287.84,400.952 2288.54,400.546 C2288.63,400.546 2288.73,400.452 2288.84,400.452 C2289.54,400.452 2290.13,401.452 2290.13,402.249 L2290.13,412.155 C2290.13,413.249 2289.63,414.155 2289.04,414.452 C2288.43,414.655 2286.34,415.546 2286.34,415.546 C2285.63,415.749 2285.13,416.546 2285.13,417.155 L2285.13,424.249 C2285.13,424.843 2285.43,425.155 2285.93,425.155 C2286.04,425.155 2286.23,425.046 2286.34,425.046 C2286.34,425.046 2287.73,424.452 2288.63,424.155 C2288.73,424.046 2288.84,424.046 2288.93,424.046 C2289.63,424.046 2290.13,425.155 2290.13,425.655 L2290.13,437.952 C2290.13,438.546 2290.73,439.046 2291.43,439.046 C2292.43,439.046 2293.13,438.546 2293.13,437.952 L2293.13,424.046 C2293.13,422.749 2293.63,422.046 2294.13,421.843 L2300.23,419.343 C2300.34,419.343 2300.54,419.249 2300.63,419.249 C2301.43,419.249 2301.93,420.452 2301.93,421.046 L2301.93,433.546 C2301.93,434.155 2302.54,434.655 2303.23,434.655 C2304.34,434.655 2304.93,434.155 2304.93,433.546 L2304.93,419.343 C2304.93,418.546 2305.34,417.343 2306.04,417.046 C2306.73,416.749 2308.84,415.952 2308.84,415.952 C2309.54,415.655 2310.04,414.843 2310.04,414.249 L2310.04,407.155 C2310.04,406.655 2309.73,406.343 2309.34,406.343 C2309.13,406.343 2309.04,406.343 2308.84,406.452 L2306.23,407.452 C2305.63,407.452 2304.93,406.843 2304.93,405.655 L2304.93,396.343 C2304.93,395.655 2305.43,393.749 2306.23,393.452 L2308.84,392.452 "/>
<path class="Accidental" d="M2271.53,383.747 C2270.94,385.747 2266.23,387.747 2263.94,387.747 C2263.33,387.747 2262.83,387.544 2262.73,387.247 C2262.53,386.841 2262.44,384.653 2262.44,382.247 C2262.44,379.153 2262.53,375.653 2262.73,374.841 C2262.94,373.153 2267.53,371.044 2270.03,371.044 C2270.73,371.044 2271.33,371.247 2271.53,371.653 C2271.73,372.153 2271.94,374.653 2271.94,377.341 C2271.94,380.044 2271.73,382.841 2271.53,383.747 M2278.44,367.45 C2279.14,367.153 2279.64,366.341 2279.64,365.747 L2279.64,358.653 C2279.64,358.153 2279.33,357.841 2278.94,357.841 C2278.73,357.841 2278.64,357.841 2278.44,357.95 C2278.44,357.95 2276.44,358.747 2275.94,358.841 C2275.23,358.841 2274.53,358.341 2274.53,357.544 L2274.53,345.341 C2274.53,344.747 2273.94,344.247 2273.14,344.247 C2272.14,344.247 2271.53,344.747 2271.53,345.341 L2271.53,358.341 C2271.44,359.341 2271.14,360.653 2270.23,361.247 C2269.03,361.95 2265.64,363.341 2263.94,363.747 C2263.03,363.747 2262.73,362.544 2262.73,361.747 L2262.73,349.747 C2262.73,349.138 2262.03,348.638 2261.33,348.638 C2260.33,348.638 2259.73,349.138 2259.73,349.747 L2259.73,363.247 C2259.73,364.653 2259.14,365.653 2258.53,365.95 C2257.94,366.247 2255.94,367.044 2255.94,367.044 C2255.23,367.247 2254.73,368.044 2254.73,368.653 L2254.73,375.747 C2254.73,376.341 2255.03,376.653 2255.53,376.653 C2255.64,376.653 2255.83,376.544 2255.94,376.544 C2255.94,376.544 2257.44,375.95 2258.14,375.544 C2258.23,375.544 2258.33,375.45 2258.44,375.45 C2259.14,375.45 2259.73,376.45 2259.73,377.247 L2259.73,387.153 C2259.73,388.247 2259.23,389.153 2258.64,389.45 C2258.03,389.653 2255.94,390.544 2255.94,390.544 C2255.23,390.747 2254.73,391.544 2254.73,392.153 L2254.73,399.247 C2254.73,399.841 2255.03,400.153 2255.53,400.153 C2255.64,400.153 2255.83,400.044 2255.94,400.044 C2255.94,400.044 2257.33,399.45 2258.23,399.153 C2258.33,399.044 2258.44,399.044 2258.53,399.044 C2259.23,399.044 2259.73,400.153 2259.73,400.653 L2259.73,412.95 C2259.73,413.544 2260.33,414.044 2261.03,414.044 C2262.03,414.044 2262.73,413.544 2262.73,412.95 L2262.73,399.044 C2262.73,397.747 2263.23,397.044 2263.73,396.841 L2269.83,394.341 C2269.94,394.341 2270.14,394.247 2270.23,394.247 C2271.03,394.247 2271.53,395.45 2271.53,396.044 L2271.53,408.544 C2271.53,409.153 2272.14,409.653 2272.83,409.653 C2273.94,409.653 2274.53,409.153 2274.53,408.544 L2274.53,394.341 C2274.53,393.544 2274.94,392.341 2275.64,392.044 C2276.33,391.747 2278.44,390.95 2278.44,390.95 C2279.14,390.653 2279.64,389.841 2279.64,389.247 L2279.64,382.153 C2279.64,381.653 2279.33,381.341 2278.94,381.341 C2278.73,381.341 2278.64,381.341 2278.44,381.45 L2275.83,382.45 C2275.23,382.45 2274.53,381.841 2274.53,380.653 L2274.53,371.341 C2274.53,370.653 2275.03,368.747 2275.83,368.45 L2278.44,367.45 "/>
<path class="Accidental" d="M2332.33,358.746 C2331.74,360.746 2327.03,362.746 2324.74,362.746 C2324.13,362.746 2323.63,362.543 2323.53,362.246 C2323.33,361.839 2323.24,359.652 2323.24,357.246 C2323.24,354.152 2323.33,350.652 2323.53,349.839 C2323.74,348.152 2328.33,346.043 2330.83,346.043 C2331.53,346.043 2332.13,346.246 2332.33,346.652 C2332.53,347.152 2332.74,349.652 2332.74,352.339 C2332.74,355.043 2332.53,357.839 2332.33,358.746 M2339.24,342.449 C2339.94,342.152 2340.44,341.339 2340.44,340.746 L2340.44,333.652 C2340.44,333.152 2340.13,332.839 2339.74,332.839 C2339.53,332.839 2339.44,332.839 2339.24,332.949 C2339.24,332.949 2337.24,333.746 2336.74,333.839 C2336.03,333.839 2335.33,333.339 2335.33,332.543 L2335.33,320.339 C2335.33,319.746 2334.74,319.246 2333.94,319.246 C2332.94,319.246 2332.33,319.746 2332.33,320.339 L2332.33,333.339 C2332.24,334.339 2331.94,335.652 2331.03,336.246 C2329.83,336.949 2326.44,338.339 2324.74,338.746 C2323.83,338.746 2323.53,337.543 2323.53,336.746 L2323.53,324.746 C2323.53,324.136 2322.83,323.636 2322.13,323.636 C2321.13,323.636 2320.53,324.136 2320.53,324.746 L2320.53,338.246 C2320.53,339.652 2319.94,340.652 2319.33,340.949 C2318.74,341.246 2316.74,342.043 2316.74,342.043 C2316.03,342.246 2315.53,343.043 2315.53,343.652 L2315.53,350.746 C2315.53,351.339 2315.83,351.652 2316.33,351.652 C2316.44,351.652 2316.63,351.543 2316.74,351.543 C2316.74,351.543 2318.24,350.949 2318.94,350.543 C2319.03,350.543 2319.13,350.449 2319.24,350.449 C2319.94,350.449 2320.53,351.449 2320.53,352.246 L2320.53,362.152 C2320.53,363.246 2320.03,364.152 2319.44,364.449 C2318.83,364.652 2316.74,365.543 2316.74,365.543 C2316.03,365.746 2315.53,366.543 2315.53,367.152 L2315.53,374.246 C2315.53,374.839 2315.83,375.152 2316.33,375.152 C2316.44,375.152 2316.63,375.043 2316.74,375.043 C2316.74,375.043 2318.13,374.449 2319.03,374.152 C2319.13,374.043 2319.24,374.043 2319.33,374.043 C2320.03,374.043 2320.53,375.152 2320.53,375.652 L2320.53,387.949 C2320.53,388.543 2321.13,389.043 2321.83,389.043 C2322.83,389.043 2323.53,388.543 2323.53,387.949 L2323.53,374.043 C2323.53,372.746 2324.03,372.043 2324.53,371.839 L2330.63,369.339 C2330.74,369.339 2330.94,369.246 2331.03,369.246 C2331.83,369.246 2332.33,370.449 2332.33,371.043 L2332.33,383.543 C2332.33,384.152 2332.94,384.652 2333.63,384.652 C2334.74,384.652 2335.33,384.152 2335.33,383.543 L2335.33,369.339 C2335.33,368.543 2335.74,367.339 2336.44,367.043 C2337.13,366.746 2339.24,365.949 2339.24,365.949 C2339.94,365.652 2340.44,364.839 2340.44,364.246 L2340.44,357.152 C2340.44,356.652 2340.13,356.339 2339.74,356.339 C2339.53,356.339 2339.44,356.339 2339.24,356.449 L2336.63,357.449 C2336.03,357.449 2335.33,356.839 2335.33,355.652 L2335.33,346.339 C2335.33,345.652 2335.83,343.746 2336.63,343.449 L2339.24,342.449 "/>
<path class="Accidental" d="M2593.21,408.749 C2592.62,410.749 2587.91,412.749 2585.62,412.749 C2585.01,412.749 2584.51,412.546 2584.41,412.249 C2584.21,411.843 2584.12,409.655 2584.12,407.249 C2584.12,404.155 2584.21,400.655 2584.41,399.843 C2584.62,398.155 2589.21,396.046 2591.71,396.046 C2592.41,396.046 2593.01,396.249 2593.21,396.655 C2593.41,397.155 2593.62,399.655 2593.62,402.343 C2593.62,405.046 2593.41,407.843 2593.21,408.749 M2600.12,392.452 C2600.82,392.155 2601.32,391.343 2601.32,390.749 L2601.32,383.655 C2601.32,383.155 2601.01,382.843 2600.62,382.843 C2600.41,382.843 2600.32,382.843 2600.12,382.952 C2600.12,382.952 2598.12,383.749 2597.62,383.843 C2596.91,383.843 2596.21,383.343 2596.21,382.546 L2596.21,370.343 C2596.21,369.749 2595.62,369.249 2594.82,369.249 C2593.82,369.249 2593.21,369.749 2593.21,370.343 L2593.21,383.343 C2593.12,384.343 2592.82,385.655 2591.91,386.249 C2590.71,386.952 2587.32,388.343 2585.62,388.749 C2584.71,388.749 2584.41,387.546 2584.41,386.749 L2584.41,374.749 C2584.41,374.139 2583.71,373.639 2583.01,373.639 C2582.01,373.639 2581.41,374.139 2581.41,374.749 L2581.41,388.249 C2581.41,389.655 2580.82,390.655 2580.21,390.952 C2579.62,391.249 2577.62,392.046 2577.62,392.046 C2576.91,392.249 2576.41,393.046 2576.41,393.655 L2576.41,400.749 C2576.41,401.343 2576.71,401.655 2577.21,401.655 C2577.32,401.655 2577.51,401.546 2577.62,401.546 C2577.62,401.546 2579.12,400.952 2579.82,400.546 C2579.91,400.546 2580.01,400.452 2580.12,400.452 C2580.82,400.452 2581.41,401.452 2581.41,402.249 L2581.41,412.155 C2581.41,413.249 2580.91,414.155 2580.32,414.452 C2579.71,414.655 2577.62,415.546 2577.62,415.546 C2576.91,415.749 2576.41,416.546 2576.41,417.155 L2576.41,424.249 C2576.41,424.843 2576.71,425.155 2577.21,425.155 C2577.32,425.155 2577.51,425.046 2577.62,425.046 C2577.62,425.046 2579.01,424.452 2579.91,424.155 C2580.01,424.046 2580.12,424.046 2580.21,424.046 C2580.91,424.046 2581.41,425.155 2581.41,425.655 L2581.41,437.952 C2581.41,438.546 2582.01,439.046 2582.71,439.046 C2583.71,439.046 2584.41,438.546 2584.41,437.952 L2584.41,424.046 C2584.41,422.749 2584.91,422.046 2585.41,421.843 L2591.51,419.343 C2591.62,419.343 2591.82,419.249 2591.91,419.249 C2592.71,419.249 2593.21,420.452 2593.21,421.046 L2593.21,433.546 C2593.21,434.155 2593.82,434.655 2594.51,434.655 C2595.62,434.655 2596.21,434.155 2596.21,433.546 L2596.21,419.343 C2596.21,418.546 2596.62,417.343 2597.32,417.046 C2598.01,416.749 2600.12,415.952 2600.12,415.952 C2600.82,415.655 2601.32,414.843 2601.32,414.249 L2601.32,407.155 C2601.32,406.655 2601.01,406.343 2600.62,406.343 C2600.41,406.343 2600.32,406.343 2600.12,406.452 L2597.51,407.452 C2596.91,407.452 2596.21,406.843 2596.21,405.655 L2596.21,396.343 C2596.21,395.655 2596.71,393.749 2597.51,393.452 L2600.12,392.452 "/>
<polyline class="LedgerLine" fill="none" stroke="#000000" stroke-width="4.00" stroke-linecap="square" stroke-linejoin="bevel" points="395.05,491.754 450.952,491.754"/>
<polyline class="LedgerLine" fill="none" stroke="#000000" stroke-width="4.00" stroke-linecap="square" stroke-linejoin="bevel" points="395.05,466.753 450.952,466.753"/>
<polyline class="LedgerLine" fill="none" stroke="#000000" stroke-width="4.00" stroke-linecap="square" stroke-linejoin="bevel" points="395.05,441.751 450.952,441.751"/>
<polyline class="LedgerLine" fill="none" stroke="#000000" stroke-width="4.00" stroke-linecap="square" stroke-linejoin="bevel" points="650.032,466.753 705.934,466.753"/>
<polyline class="LedgerLine" fill="none" stroke="#000000" stroke-width="4.00" stroke-linecap="square" stroke-linejoin="bevel" points="650.032,441.751 705.934,441.751"/>
<polyline class="LedgerLine" fill="none" stroke="#000000" stroke-width="4.00" stroke-linecap="square" stroke-linejoin="bevel" points="916.616,466.753 972.518,466.753"/>
<polyline class="LedgerLine" fill="none" stroke="#000000" stroke-width="4.00" stroke-linecap="square" stroke-linejoin="bevel" points="916.616,441.751 972.518,441.751"/>
<polyline class="LedgerLine" fill="none" stroke="#000000" stroke-width="4.00" stroke-linecap="square" stroke-linejoin="bevel" points="1219.5,441.751 1275.4,441.751"/>
<polyline class="LedgerLine" fill="none" stroke="#000000" stroke-width="4.00" stroke-linecap="square" stroke-linejoin="bevel" points="1474.48,441.751 1530.38,441.751"/>
<path class="Note" d="M423.551,653.062 C409.051,653.062 400.051,659.172 400.051,666.562 C400.051,673.859 406.254,680.359 422.457,680.359 C440.254,680.359 445.957,674.172 445.957,666.562 C445.957,658.859 433.66,653.062 423.551,653.062 M412.145,659.859 C413.348,656.172 417.348,655.562 420.754,655.562 C428.16,655.562 434.16,663.562 434.16,670.172 C434.16,670.859 434.051,671.562 433.957,672.172 C433.457,674.859 431.848,676.765 429.16,677.468 C428.051,677.765 426.957,677.859 425.848,677.859 C424.848,677.859 423.957,677.765 422.957,677.468 C421.145,676.859 419.348,675.859 417.848,674.562 C417.051,673.859 416.254,673.062 415.551,672.172 C413.457,669.672 411.754,665.968 411.754,662.562 C411.754,661.672 411.848,660.765 412.145,659.859"/>
<path class="Note" d="M678.533,665.563 C664.033,665.563 655.033,671.672 655.033,679.063 C655.033,686.36 661.236,692.86 677.439,692.86 C695.236,692.86 700.939,686.672 700.939,679.063 C700.939,671.36 688.642,665.563 678.533,665.563 M667.126,672.36 C668.329,668.672 672.329,668.063 675.736,668.063 C683.142,668.063 689.142,676.063 689.142,682.672 C689.142,683.36 689.033,684.063 688.939,684.672 C688.439,687.36 686.829,689.266 684.142,689.969 C683.033,690.266 681.939,690.36 680.829,690.36 C679.829,690.36 678.939,690.266 677.939,689.969 C676.126,689.36 674.329,688.36 672.829,687.063 C672.033,686.36 671.236,685.563 670.533,684.672 C668.439,682.172 666.736,678.469 666.736,675.063 C666.736,674.172 666.829,673.266 667.126,672.36"/>
<path class="Note" d="M945.117,628.061 C930.617,628.061 921.617,634.17 921.617,641.561 C921.617,648.858 927.82,655.358 944.023,655.358 C961.82,655.358 967.523,649.17 967.523,641.561 C967.523,633.858 955.226,628.061 945.117,628.061 M933.71,634.858 C934.913,631.17 938.913,630.561 942.32,630.561 C949.726,630.561 955.726,638.561 955.726,645.17 C955.726,645.858 955.617,646.561 955.523,647.17 C955.023,649.858 953.413,651.764 950.726,652.467 C949.617,652.764 948.523,652.858 947.413,652.858 C946.413,652.858 945.523,652.764 944.523,652.467 C942.71,651.858 940.913,650.858 939.413,649.561 C938.617,648.858 937.82,648.061 937.117,647.17 C935.023,644.67 933.32,640.967 933.32,637.561 C933.32,636.67 933.413,635.764 933.71,634.858"/>
<path class="Note" d="M1248,640.561 C1233.5,640.561 1224.5,646.671 1224.5,654.061 C1224.5,661.358 1230.7,667.858 1246.91,667.858 C1264.7,667.858 1270.41,661.671 1270.41,654.061 C1270.41,646.358 1258.11,640.561 1248,640.561 M1236.59,647.358 C1237.8,643.671 1241.8,643.061 1245.2,643.061 C1252.61,643.061 1258.61,651.061 1258.61,657.671 C1258.61,658.358 1258.5,659.061 1258.41,659.671 C1257.91,662.358 1256.3,664.265 1253.61,664.968 C1252.5,665.265 1251.41,665.358 1250.3,665.358 C1249.3,665.358 1248.41,665.265 1247.41,664.968 C1245.59,664.358 1243.8,663.358 1242.3,662.061 C1241.5,661.358 1240.7,660.561 1240,659.671 C1237.91,657.171 1236.2,653.468 1236.2,650.061 C1236.2,649.171 1236.3,648.265 1236.59,647.358"/>
<path class="Note" d="M1502.98,603.059 C1488.48,603.059 1479.48,609.168 1479.48,616.559 C1479.48,623.856 1485.68,630.356 1501.89,630.356 C1519.68,630.356 1525.39,624.168 1525.39,616.559 C1525.39,608.856 1513.09,603.059 1502.98,603.059 M1491.58,609.856 C1492.78,606.168 1496.78,605.559 1500.18,605.559 C1507.59,605.559 1513.59,613.559 1513.59,620.168 C1513.59,620.856 1513.48,621.559 1513.39,622.168 C1512.89,624.856 1511.28,626.762 1508.59,627.465 C1507.48,627.762 1506.39,627.856 1505.28,627.856 C1504.28,627.856 1503.39,627.762 1502.39,627.465 C1500.58,626.856 1498.78,625.856 1497.28,624.559 C1496.48,623.856 1495.68,623.059 1494.98,622.168 C1492.89,619.668 1491.18,615.965 1491.18,612.559 C1491.18,611.668 1491.28,610.762 1491.58,609.856"/>
<path class="Note" d="M1775.46,615.56 C1760.96,615.56 1751.96,621.669 1751.96,629.06 C1751.96,636.357 1758.17,642.857 1774.37,642.857 C1792.17,642.857 1797.87,636.669 1797.87,629.06 C1797.87,621.357 1785.57,615.56 1775.46,615.56 M1764.06,622.357 C1765.26,618.669 1769.26,618.06 1772.67,618.06 C1780.07,618.06 1786.07,626.06 1786.07,632.669 C1786.07,633.357 1785.96,634.06 1785.87,634.669 C1785.37,637.357 1783.76,639.263 1781.07,639.966 C1779.96,640.263 1778.87,640.357 1777.76,640.357 C1776.76,640.357 1775.87,640.263 1774.87,639.966 C1773.06,639.357 1771.26,638.357 1769.76,637.06 C1768.96,636.357 1768.17,635.56 1767.46,634.669 C1765.37,632.169 1763.67,628.466 1763.67,625.06 C1763.67,624.169 1763.76,623.263 1764.06,622.357"/>
<path class="Note" d="M2035.65,578.058 C2021.15,578.058 2012.15,584.167 2012.15,591.558 C2012.15,598.854 2018.35,605.354 2034.56,605.354 C2052.35,605.354 2058.06,599.167 2058.06,591.558 C2058.06,583.854 2045.76,578.058 2035.65,578.058 M2024.24,584.854 C2025.45,581.167 2029.45,580.558 2032.85,580.558 C2040.26,580.558 2046.26,588.558 2046.26,595.167 C2046.26,595.854 2046.15,596.558 2046.06,597.167 C2045.56,599.854 2043.95,601.761 2041.26,602.464 C2040.15,602.761 2039.06,602.854 2037.95,602.854 C2036.95,602.854 2036.06,602.761 2035.06,602.464 C2033.24,601.854 2031.45,600.854 2029.95,599.558 C2029.15,598.854 2028.35,598.058 2027.65,597.167 C2025.56,594.667 2023.85,590.964 2023.85,587.558 C2023.85,586.667 2023.95,585.761 2024.24,584.854"/>
<path class="Note" d="M2369.43,590.558 C2354.93,590.558 2345.93,596.668 2345.93,604.058 C2345.93,611.355 2352.14,617.855 2368.34,617.855 C2386.14,617.855 2391.84,611.668 2391.84,604.058 C2391.84,596.355 2379.54,590.558 2369.43,590.558 M2358.03,597.355 C2359.23,593.668 2363.23,593.058 2366.64,593.058 C2374.04,593.058 2380.04,601.058 2380.04,607.668 C2380.04,608.355 2379.93,609.058 2379.84,609.668 C2379.34,612.355 2377.73,614.261 2375.04,614.965 C2373.93,615.261 2372.84,615.355 2371.73,615.355 C2370.73,615.355 2369.84,615.261 2368.84,614.965 C2367.03,614.355 2365.23,613.355 2363.73,612.058 C2362.93,611.355 2362.14,610.558 2361.43,609.668 C2359.34,607.168 2357.64,603.465 2357.64,600.058 C2357.64,599.168 2357.73,598.261 2358.03,597.355"/>
<path class="Note" d="M2630.31,553.056 C2615.81,553.056 2606.81,559.165 2606.81,566.556 C2606.81,573.853 2613.02,580.353 2629.22,580.353 C2647.02,580.353 2652.72,574.165 2652.72,566.556 C2652.72,558.853 2640.42,553.056 2630.31,553.056 M2618.91,559.853 C2620.11,556.165 2624.11,555.556 2627.52,555.556 C2634.92,555.556 2640.92,563.556 2640.92,570.165 C2640.92,570.853 2640.81,571.556 2640.72,572.165 C2640.22,574.853 2638.61,576.759 2635.92,577.462 C2634.81,577.759 2633.72,577.853 2632.61,577.853 C2631.61,577.853 2630.72,577.759 2629.72,577.462 C2627.91,576.853 2626.11,575.853 2624.61,574.556 C2623.81,573.853 2623.02,573.056 2622.31,572.165 C2620.22,569.665 2618.52,565.962 2618.52,562.556 C2618.52,561.665 2618.61,560.759 2618.91,559.853"/>
<path class="Note" d="M423.551,490.552 C409.051,490.552 400.051,496.661 400.051,504.052 C400.051,511.349 406.254,517.849 422.457,517.849 C440.254,517.849 445.957,511.661 445.957,504.052 C445.957,496.349 433.66,490.552 423.551,490.552 M412.145,497.349 C413.348,493.661 417.348,493.052 420.754,493.052 C428.16,493.052 434.16,501.052 434.16,507.661 C434.16,508.349 434.051,509.052 433.957,509.661 C433.457,512.349 431.848,514.255 429.16,514.958 C428.051,515.255 426.957,515.349 425.848,515.349 C424.848,515.349 423.957,515.255 422.957,514.958 C421.145,514.349 419.348,513.349 417.848,512.052 C417.051,511.349 416.254,510.552 415.551,509.661 C413.457,507.161 411.754,503.458 411.754,500.052 C411.754,499.161 411.848,498.255 412.145,497.349"/>
<path class="Note" d="M423.551,453.05 C409.051,453.05 400.051,459.159 400.051,466.55 C400.051,473.847 406.254,480.347 422.457,480.347 C440.254,480.347 445.957,474.159 445.957,466.55 C445.957,458.847 433.66,453.05 423.551,453.05 M412.145,459.847 C413.348,456.159 417.348,455.55 420.754,455.55 C428.16,455.55 434.16,463.55 434.16,470.159 C434.16,470.847 434.051,471.55 433.957,472.159 C433.457,474.847 431.848,476.753 429.16,477.456 C428.051,477.753 426.957,477.847 425.848,477.847 C424.848,477.847 423.957,477.753 422.957,477.456 C421.145,476.847 419.348,475.847 417.848,474.55 C417.051,473.847 416.254,473.05 415.551,472.159 C413.457,469.659 411.754,465.956 411.754,462.55 C411.754,461.659 411.848,460.753 412.145,459.847"/>
<path class="Note" d="M423.551,428.048 C409.051,428.048 400.051,434.157 400.051,441.548 C400.051,448.845 406.254,455.345 422.457,455.345 C440.254,455.345 445.957,449.157 445.957,441.548 C445.957,433.845 433.66,428.048 423.551,428.048 M412.145,434.845 C413.348,431.157 417.348,430.548 420.754,430.548 C428.16,430.548 434.16,438.548 434.16,445.157 C434.16,445.845 434.051,446.548 433.957,447.157 C433.457,449.845 431.848,451.751 429.16,452.454 C428.051,452.751 426.957,452.845 425.848,452.845 C424.848,452.845 423.957,452.751 422.957,452.454 C421.145,451.845 419.348,450.845 417.848,449.548 C417.051,448.845 416.254,448.048 415.551,447.157 C413.457,444.657 411.754,440.954 411.754,437.548 C411.754,436.657 411.848,435.751 412.145,434.845"/>
<path class="Note" d="M678.533,465.55 C664.033,465.55 655.033,471.66 655.033,479.05 C655.033,486.347 661.236,492.847 677.439,492.847 C695.236,492.847 700.939,486.66 700.939,479.05 C700.939,471.347 688.642,465.55 678.533,465.55 M667.126,472.347 C668.329,468.66 672.329,468.05 675.736,468.05 C683.142,468.05 689.142,476.05 689.142,482.66 C689.142,483.347 689.033,484.05 688.939,484.66 C688.439,487.347 686.829,489.254 684.142,489.957 C683.033,490.254 681.939,490.347 680.829,490.347 C679.829,490.347 678.939,490.254 677.939,489.957 C676.126,489.347 674.329,488.347 672.829,487.05 C672.033,486.347 671.236,485.55 670.533,484.66 C668.439,482.16 666.736,478.457 666.736,475.05 C666.736,474.16 666.829,473.254 667.126,472.347"/>
<path class="Note" d="M678.533,440.549 C664.033,440.549 655.033,446.658 655.033,454.049 C655.033,461.346 661.236,467.846 677.439,467.846 C695.236,467.846 700.939,461.658 700.939,454.049 C700.939,446.346 688.642,440.549 678.533,440.549 M667.126,447.346 C668.329,443.658 672.329,443.049 675.736,443.049 C683.142,443.049 689.142,451.049 689.142,457.658 C689.142,458.346 689.033,459.049 688.939,459.658 C688.439,462.346 686.829,464.252 684.142,464.955 C683.033,465.252 681.939,465.346 680.829,465.346 C679.829,465.346 678.939,465.252 677.939,464.955 C676.126,464.346 674.329,463.346 672.829,462.049 C672.033,461.346 671.236,460.549 670.533,459.658 C668.439,457.158 666.736,453.455 666.736,450.049 C666.736,449.158 666.829,448.252 667.126,447.346"/>
<path class="Note" d="M678.533,415.547 C664.033,415.547 655.033,421.657 655.033,429.047 C655.033,436.344 661.236,442.844 677.439,442.844 C695.236,442.844 700.939,436.657 700.939,429.047 C700.939,421.344 688.642,415.547 678.533,415.547 M667.126,422.344 C668.329,418.657 672.329,418.047 675.736,418.047 C683.142,418.047 689.142,426.047 689.142,432.657 C689.142,433.344 689.033,434.047 688.939,434.657 C688.439,437.344 686.829,439.25 684.142,439.954 C683.033,440.25 681.939,440.344 680.829,440.344 C679.829,440.344 678.939,440.25 677.939,439.954 C676.126,439.344 674.329,438.344 672.829,437.047 C672.033,436.344 671.236,435.547 670.533,434.657 C668.439,432.157 666.736,428.454 666.736,425.047 C666.736,424.157 666.829,423.25 667.126,422.344"/>
<path class="Note" d="M945.117,465.55 C930.617,465.55 921.617,471.66 921.617,479.05 C921.617,486.347 927.82,492.847 944.023,492.847 C961.82,492.847 967.523,486.66 967.523,479.05 C967.523,471.347 955.226,465.55 945.117,465.55 M933.71,472.347 C934.913,468.66 938.913,468.05 942.32,468.05 C949.726,468.05 955.726,476.05 955.726,482.66 C955.726,483.347 955.617,484.05 955.523,484.66 C955.023,487.347 953.413,489.254 950.726,489.957 C949.617,490.254 948.523,490.347 947.413,490.347 C946.413,490.347 945.523,490.254 944.523,489.957 C942.71,489.347 940.913,488.347 939.413,487.05 C938.617,486.347 937.82,485.55 937.117,484.66 C935.023,482.16 933.32,478.457 933.32,475.05 C933.32,474.16 933.413,473.254 933.71,472.347"/>
<path class="Note" d="M945.117,428.048 C930.617,428.048 921.617,434.157 921.617,441.548 C921.617,448.845 927.82,455.345 944.023,455.345 C961.82,455.345 967.523,449.157 967.523,441.548 C967.523,433.845 955.226,428.048 945.117,428.048 M933.71,434.845 C934.913,431.157 938.913,430.548 942.32,430.548 C949.726,430.548 955.726,438.548 955.726,445.157 C955.726,445.845 955.617,446.548 955.523,447.157 C955.023,449.845 953.413,451.751 950.726,452.454 C949.617,452.751 948.523,452.845 947.413,452.845 C946.413,452.845 945.523,452.751 944.523,452.454 C942.71,451.845 940.913,450.845 939.413,449.548 C938.617,448.845 937.82,448.048 937.117,447.157 C935.023,444.657 933.32,440.954 933.32,437.548 C933.32,436.657 933.413,435.751 933.71,434.845"/>
<path class="Note" d="M945.117,403.046 C930.617,403.046 921.617,409.156 921.617,416.546 C921.617,423.843 927.82,430.343 944.023,430.343 C961.82,430.343 967.523,424.156 967.523,416.546 C967.523,408.843 955.226,403.046 945.117,403.046 M933.71,409.843 C934.913,406.156 938.913,405.546 942.32,405.546 C949.726,405.546 955.726,413.546 955.726,420.156 C955.726,420.843 955.617,421.546 955.523,422.156 C955.023,424.843 953.413,426.75 950.726,427.453 C949.617,427.75 948.523,427.843 947.413,427.843 C946.413,427.843 945.523,427.75 944.523,427.453 C942.71,426.843 940.913,425.843 939.413,424.546 C938.617,423.843 937.82,423.046 937.117,422.156 C935.023,419.656 933.32,415.953 933.32,412.546 C933.32,411.656 933.413,410.75 933.71,409.843"/>
<path class="Note" d="M1248,440.549 C1233.5,440.549 1224.5,446.658 1224.5,454.049 C1224.5,461.346 1230.7,467.846 1246.91,467.846 C1264.7,467.846 1270.41,461.658 1270.41,454.049 C1270.41,446.346 1258.11,440.549 1248,440.549 M1236.59,447.346 C1237.8,443.658 1241.8,443.049 1245.2,443.049 C1252.61,443.049 1258.61,451.049 1258.61,457.658 C1258.61,458.346 1258.5,459.049 1258.41,459.658 C1257.91,462.346 1256.3,464.252 1253.61,464.955 C1252.5,465.252 1251.41,465.346 1250.3,465.346 C1249.3,465.346 1248.41,465.252 1247.41,464.955 C1245.59,464.346 1243.8,463.346 1242.3,462.049 C1241.5,461.346 1240.7,460.549 1240,459.658 C1237.91,457.158 1236.2,453.455 1236.2,450.049 C1236.2,449.158 1236.3,448.252 1236.59,447.346"/>
<path class="Note" d="M1248,415.547 C1233.5,415.547 1224.5,421.657 1224.5,429.047 C1224.5,436.344 1230.7,442.844 1246.91,442.844 C1264.7,442.844 1270.41,436.657 1270.41,429.047 C1270.41,421.344 1258.11,415.547 1248,415.547 M1236.59,422.344 C1237.8,418.657 1241.8,418.047 1245.2,418.047 C1252.61,418.047 1258.61,426.047 1258.61,432.657 C1258.61,433.344 1258.5,434.047 1258.41,434.657 C1257.91,437.344 1256.3,439.25 1253.61,439.954 C1252.5,440.25 1251.41,440.344 1250.3,440.344 C1249.3,440.344 1248.41,440.25 1247.41,439.954 C1245.59,439.344 1243.8,438.344 1242.3,437.047 C1241.5,436.344 1240.7,435.547 1240,434.657 C1237.91,432.157 1236.2,428.454 1236.2,425.047 C1236.2,424.157 1236.3,423.25 1236.59,422.344"/>
<path class="Note" d="M1248,390.546 C1233.5,390.546 1224.5,396.655 1224.5,404.046 C1224.5,411.343 1230.7,417.843 1246.91,417.843 C1264.7,417.843 1270.41,411.655 1270.41,404.046 C1270.41,396.343 1258.11,390.546 1248,390.546 M1236.59,397.343 C1237.8,393.655 1241.8,393.046 1245.2,393.046 C1252.61,393.046 1258.61,401.046 1258.61,407.655 C1258.61,408.343 1258.5,409.046 1258.41,409.655 C1257.91,412.343 1256.3,414.249 1253.61,414.952 C1252.5,415.249 1251.41,415.343 1250.3,415.343 C1249.3,415.343 1248.41,415.249 1247.41,414.952 C1245.59,414.343 1243.8,413.343 1242.3,412.046 C1241.5,411.343 1240.7,410.546 1240,409.655 C1237.91,407.155 1236.2,403.452 1236.2,400.046 C1236.2,399.155 1236.3,398.249 1236.59,397.343"/>
<path class="Note" d="M1502.98,440.549 C1488.48,440.549 1479.48,446.658 1479.48,454.049 C1479.48,461.346 1485.68,467.846 1501.89,467.846 C1519.68,467.846 1525.39,461.658 1525.39,454.049 C1525.39,446.346 1513.09,440.549 1502.98,440.549 M1491.58,447.346 C1492.78,443.658 1496.78,443.049 1500.18,443.049 C1507.59,443.049 1513.59,451.049 1513.59,457.658 C1513.59,458.346 1513.48,459.049 1513.39,459.658 C1512.89,462.346 1511.28,464.252 1508.59,464.955 C1507.48,465.252 1506.39,465.346 1505.28,465.346 C1504.28,465.346 1503.39,465.252 1502.39,464.955 C1500.58,464.346 1498.78,463.346 1497.28,462.049 C1496.48,461.346 1495.68,460.549 1494.98,459.658 C1492.89,457.158 1491.18,453.455 1491.18,450.049 C1491.18,449.158 1491.28,448.252 1491.58,447.346"/>
<path class="Note" d="M1502.98,403.046 C1488.48,403.046 1479.48,409.156 1479.48,416.546 C1479.48,423.843 1485.68,430.343 1501.89,430.343 C1519.68,430.343 1525.39,424.156 1525.39,416.546 C1525.39,408.843 1513.09,403.046 1502.98,403.046 M1491.58,409.843 C1492.78,406.156 1496.78,405.546 1500.18,405.546 C1507.59,405.546 1513.59,413.546 1513.59,420.156 C1513.59,420.843 1513.48,421.546 1513.39,422.156 C1512.89,424.843 1511.28,426.75 1508.59,427.453 C1507.48,427.75 1506.39,427.843 1505.28,427.843 C1504.28,427.843 1503.39,427.75 1502.39,427.453 C1500.58,426.843 1498.78,425.843 1497.28,424.546 C1496.48,423.843 1495.68,423.046 1494.98,422.156 C1492.89,419.656 1491.18,415.953 1491.18,412.546 C1491.18,411.656 1491.28,410.75 1491.58,409.843"/>
<path class="Note" d="M1502.98,378.045 C1488.48,378.045 1479.48,384.154 1479.48,391.545 C1479.48,398.842 1485.68,405.342 1501.89,405.342 C1519.68,405.342 1525.39,399.154 1525.39,391.545 C1525.39,383.842 1513.09,378.045 1502.98,378.045 M1491.58,384.842 C1492.78,381.154 1496.78,380.545 1500.18,380.545 C1507.59,380.545 1513.59,388.545 1513.59,395.154 C1513.59,395.842 1513.48,396.545 1513.39,397.154 C1512.89,399.842 1511.28,401.748 1508.59,402.451 C1507.48,402.748 1506.39,402.842 1505.28,402.842 C1504.28,402.842 1503.39,402.748 1502.39,402.451 C1500.58,401.842 1498.78,400.842 1497.28,399.545 C1496.48,398.842 1495.68,398.045 1494.98,397.154 C1492.89,394.654 1491.18,390.951 1491.18,387.545 C1491.18,386.654 1491.28,385.748 1491.58,384.842"/>
<path class="Note" d="M1775.46,415.547 C1760.96,415.547 1751.96,421.657 1751.96,429.047 C1751.96,436.344 1758.17,442.844 1774.37,442.844 C1792.17,442.844 1797.87,436.657 1797.87,429.047 C1797.87,421.344 1785.57,415.547 1775.46,415.547 M1764.06,422.344 C1765.26,418.657 1769.26,418.047 1772.67,418.047 C1780.07,418.047 1786.07,426.047 1786.07,432.657 C1786.07,433.344 1785.96,434.047 1785.87,434.657 C1785.37,437.344 1783.76,439.25 1781.07,439.954 C1779.96,440.25 1778.87,440.344 1777.76,440.344 C1776.76,440.344 1775.87,440.25 1774.87,439.954 C1773.06,439.344 1771.26,438.344 1769.76,437.047 C1768.96,436.344 1768.17,435.547 1767.46,434.657 C1765.37,432.157 1763.67,428.454 1763.67,425.047 C1763.67,424.157 1763.76,423.25 1764.06,422.344"/>
<path class="Note" d="M1775.46,390.546 C1760.96,390.546 1751.96,396.655 1751.96,404.046 C1751.96,411.343 1758.17,417.843 1774.37,417.843 C1792.17,417.843 1797.87,411.655 1797.87,404.046 C1797.87,396.343 1785.57,390.546 1775.46,390.546 M1764.06,397.343 C1765.26,393.655 1769.26,393.046 1772.67,393.046 C1780.07,393.046 1786.07,401.046 1786.07,407.655 C1786.07,408.343 1785.96,409.046 1785.87,409.655 C1785.37,412.343 1783.76,414.249 1781.07,414.952 C1779.96,415.249 1778.87,415.343 1777.76,415.343 C1776.76,415.343 1775.87,415.249 1774.87,414.952 C1773.06,414.343 1771.26,413.343 1769.76,412.046 C1768.96,411.343 1768.17,410.546 1767.46,409.655 C1765.37,407.155 1763.67,403.452 1763.67,400.046 C1763.67,399.155 1763.76,398.249 1764.06,397.343"/>
<path class="Note" d="M1775.46,365.544 C1760.96,365.544 1751.96,371.653 1751.96,379.044 C1751.96,386.341 1758.17,392.841 1774.37,392.841 C1792.17,392.841 1797.87,386.653 1797.87,379.044 C1797.87,371.341 1785.57,365.544 1775.46,365.544 M1764.06,372.341 C1765.26,368.653 1769.26,368.044 1772.67,368.044 C1780.07,368.044 1786.07,376.044 1786.07,382.653 C1786.07,383.341 1785.96,384.044 1785.87,384.653 C1785.37,387.341 1783.76,389.247 1781.07,389.95 C1779.96,390.247 1778.87,390.341 1777.76,390.341 C1776.76,390.341 1775.87,390.247 1774.87,389.95 C1773.06,389.341 1771.26,388.341 1769.76,387.044 C1768.96,386.341 1768.17,385.544 1767.46,384.653 C1765.37,382.153 1763.67,378.45 1763.67,375.044 C1763.67,374.153 1763.76,373.247 1764.06,372.341"/>
<path class="Note" d="M2035.65,415.547 C2021.15,415.547 2012.15,421.657 2012.15,429.047 C2012.15,436.344 2018.35,442.844 2034.56,442.844 C2052.35,442.844 2058.06,436.657 2058.06,429.047 C2058.06,421.344 2045.76,415.547 2035.65,415.547 M2024.24,422.344 C2025.45,418.657 2029.45,418.047 2032.85,418.047 C2040.26,418.047 2046.26,426.047 2046.26,432.657 C2046.26,433.344 2046.15,434.047 2046.06,434.657 C2045.56,437.344 2043.95,439.25 2041.26,439.954 C2040.15,440.25 2039.06,440.344 2037.95,440.344 C2036.95,440.344 2036.06,440.25 2035.06,439.954 C2033.24,439.344 2031.45,438.344 2029.95,437.047 C2029.15,436.344 2028.35,435.547 2027.65,434.657 C2025.56,432.157 2023.85,428.454 2023.85,425.047 C2023.85,424.157 2023.95,423.25 2024.24,422.344"/>
<path class="Note" d="M2035.65,378.045 C2021.15,378.045 2012.15,384.154 2012.15,391.545 C2012.15,398.842 2018.35,405.342 2034.56,405.342 C2052.35,405.342 2058.06,399.154 2058.06,391.545 C2058.06,383.842 2045.76,378.045 2035.65,378.045 M2024.24,384.842 C2025.45,381.154 2029.45,380.545 2032.85,380.545 C2040.26,380.545 2046.26,388.545 2046.26,395.154 C2046.26,395.842 2046.15,396.545 2046.06,397.154 C2045.56,399.842 2043.95,401.748 2041.26,402.451 C2040.15,402.748 2039.06,402.842 2037.95,402.842 C2036.95,402.842 2036.06,402.748 2035.06,402.451 C2033.24,401.842 2031.45,400.842 2029.95,399.545 C2029.15,398.842 2028.35,398.045 2027.65,397.154 C2025.56,394.654 2023.85,390.951 2023.85,387.545 C2023.85,386.654 2023.95,385.748 2024.24,384.842"/>
<path class="Note" d="M2035.65,353.043 C2021.15,353.043 2012.15,359.153 2012.15,366.543 C2012.15,373.84 2018.35,380.34 2034.56,380.34 C2052.35,380.34 2058.06,374.153 2058.06,366.543 C2058.06,358.84 2045.76,353.043 2035.65,353.043 M2024.24,359.84 C2025.45,356.153 2029.45,355.543 2032.85,355.543 C2040.26,355.543 2046.26,363.543 2046.26,370.153 C2046.26,370.84 2046.15,371.543 2046.06,372.153 C2045.56,374.84 2043.95,376.746 2041.26,377.45 C2040.15,377.746 2039.06,377.84 2037.95,377.84 C2036.95,377.84 2036.06,377.746 2035.06,377.45 C2033.24,376.84 2031.45,375.84 2029.95,374.543 C2029.15,373.84 2028.35,373.043 2027.65,372.153 C2025.56,369.653 2023.85,365.95 2023.85,362.543 C2023.85,361.653 2023.95,360.746 2024.24,359.84"/>
<path class="Note" d="M2369.43,390.546 C2354.93,390.546 2345.93,396.655 2345.93,404.046 C2345.93,411.343 2352.14,417.843 2368.34,417.843 C2386.14,417.843 2391.84,411.655 2391.84,404.046 C2391.84,396.343 2379.54,390.546 2369.43,390.546 M2358.03,397.343 C2359.23,393.655 2363.23,393.046 2366.64,393.046 C2374.04,393.046 2380.04,401.046 2380.04,407.655 C2380.04,408.343 2379.93,409.046 2379.84,409.655 C2379.34,412.343 2377.73,414.249 2375.04,414.952 C2373.93,415.249 2372.84,415.343 2371.73,415.343 C2370.73,415.343 2369.84,415.249 2368.84,414.952 C2367.03,414.343 2365.23,413.343 2363.73,412.046 C2362.93,411.343 2362.14,410.546 2361.43,409.655 C2359.34,407.155 2357.64,403.452 2357.64,400.046 C2357.64,399.155 2357.73,398.249 2358.03,397.343"/>
<path class="Note" d="M2369.43,365.544 C2354.93,365.544 2345.93,371.653 2345.93,379.044 C2345.93,386.341 2352.14,392.841 2368.34,392.841 C2386.14,392.841 2391.84,386.653 2391.84,379.044 C2391.84,371.341 2379.54,365.544 2369.43,365.544 M2358.03,372.341 C2359.23,368.653 2363.23,368.044 2366.64,368.044 C2374.04,368.044 2380.04,376.044 2380.04,382.653 C2380.04,383.341 2379.93,384.044 2379.84,384.653 C2379.34,387.341 2377.73,389.247 2375.04,389.95 C2373.93,390.247 2372.84,390.341 2371.73,390.341 C2370.73,390.341 2369.84,390.247 2368.84,389.95 C2367.03,389.341 2365.23,388.341 2363.73,387.044 C2362.93,386.341 2362.14,385.544 2361.43,384.653 C2359.34,382.153 2357.64,378.45 2357.64,375.044 C2357.64,374.153 2357.73,373.247 2358.03,372.341"/>
<path class="Note" d="M2369.43,340.543 C2354.93,340.543 2345.93,346.652 2345.93,354.043 C2345.93,361.339 2352.14,367.839 2368.34,367.839 C2386.14,367.839 2391.84,361.652 2391.84,354.043 C2391.84,346.339 2379.54,340.543 2369.43,340.543 M2358.03,347.339 C2359.23,343.652 2363.23,343.043 2366.64,343.043 C2374.04,343.043 2380.04,351.043 2380.04,357.652 C2380.04,358.339 2379.93,359.043 2379.84,359.652 C2379.34,362.339 2377.73,364.246 2375.04,364.949 C2373.93,365.246 2372.84,365.339 2371.73,365.339 C2370.73,365.339 2369.84,365.246 2368.84,364.949 C2367.03,364.339 2365.23,363.339 2363.73,362.043 C2362.93,361.339 2362.14,360.543 2361.43,359.652 C2359.34,357.152 2357.64,353.449 2357.64,350.043 C2357.64,349.152 2357.73,348.246 2358.03,347.339"/>
<path class="Note" d="M2630.31,390.546 C2615.81,390.546 2606.81,396.655 2606.81,404.046 C2606.81,411.343 2613.02,417.843 2629.22,417.843 C2647.02,417.843 2652.72,411.655 2652.72,404.046 C2652.72,396.343 2640.42,390.546 2630.31,390.546 M2618.91,397.343 C2620.11,393.655 2624.11,393.046 2627.52,393.046 C2634.92,393.046 2640.92,401.046 2640.92,407.655 C2640.92,408.343 2640.81,409.046 2640.72,409.655 C2640.22,412.343 2638.61,414.249 2635.92,414.952 C2634.81,415.249 2633.72,415.343 2632.61,415.343 C2631.61,415.343 2630.72,415.249 2629.72,414.952 C2627.91,414.343 2626.11,413.343 2624.61,412.046 C2623.81,411.343 2623.02,410.546 2622.31,409.655 C2620.22,407.155 2618.52,403.452 2618.52,400.046 C2618.52,399.155 2618.61,398.249 2618.91,397.343"/>
<path class="Note" d="M2630.31,353.043 C2615.81,353.043 2606.81,359.153 2606.81,366.543 C2606.81,373.84 2613.02,380.34 2629.22,380.34 C2647.02,380.34 2652.72,374.153 2652.72,366.543 C2652.72,358.84 2640.42,353.043 2630.31,353.043 M2618.91,359.84 C2620.11,356.153 2624.11,355.543 2627.52,355.543 C2634.92,355.543 2640.92,363.543 2640.92,370.153 C2640.92,370.84 2640.81,371.543 2640.72,372.153 C2640.22,374.84 2638.61,376.746 2635.92,377.45 C2634.81,377.746 2633.72,377.84 2632.61,377.84 C2631.61,377.84 2630.72,377.746 2629.72,377.45 C2627.91,376.84 2626.11,375.84 2624.61,374.543 C2623.81,373.84 2623.02,373.043 2622.31,372.153 C2620.22,369.653 2618.52,365.95 2618.52,362.543 C2618.52,361.653 2618.61,360.746 2618.91,359.84"/>
<path class="Note" d="M2630.31,328.042 C2615.81,328.042 2606.81,334.151 2606.81,341.542 C2606.81,348.839 2613.02,355.339 2629.22,355.339 C2647.02,355.339 2652.72,349.151 2652.72,341.542 C2652.72,333.839 2640.42,328.042 2630.31,328.042 M2618.91,334.839 C2620.11,331.151 2624.11,330.542 2627.52,330.542 C2634.92,330.542 2640.92,338.542 2640.92,345.151 C2640.92,345.839 2640.81,346.542 2640.72,347.151 C2640.22,349.839 2638.61,351.745 2635.92,352.448 C2634.81,352.745 2633.72,352.839 2632.61,352.839 C2631.61,352.839 2630.72,352.745 2629.72,352.448 C2627.91,351.839 2626.11,350.839 2624.61,349.542 C2623.81,348.839 2623.02,348.042 2622.31,347.151 C2620.22,344.651 2618.52,340.948 2618.52,337.542 C2618.52,336.651 2618.61,335.745 2618.91,334.839"/>
<path class="Clef" d="M232.937,578.058 C215.531,578.058 207.734,590.761 207.734,600.355 C207.734,608.355 211.937,615.261 220.031,615.261 C226.328,615.261 230.64,610.855 230.64,604.668 C230.64,598.261 225.937,594.261 221.031,594.261 C218.328,594.261 217.328,594.965 216.031,594.965 C214.734,594.965 214.437,594.168 214.437,593.168 C214.437,589.168 220.437,581.855 230.64,581.855 C241.234,581.855 245.843,592.261 245.843,607.965 C245.843,618.261 243.64,630.261 237.437,639.871 C231.437,649.168 221.14,657.668 208.734,664.761 C207.828,665.261 207.234,665.761 207.234,666.558 C207.234,667.168 207.64,667.761 208.531,667.761 C209.031,667.761 209.64,667.558 210.234,667.261 C223.531,660.761 236.343,653.168 246.937,641.761 C255.64,632.371 260.843,620.168 260.843,607.058 C260.843,589.668 250.234,578.058 232.937,578.058 M270.734,611.355 C267.64,611.355 265.343,613.668 265.343,616.761 C265.343,619.855 267.64,622.168 270.734,622.168 C273.843,622.168 276.14,619.855 276.14,616.761 C276.14,613.668 273.843,611.355 270.734,611.355 M270.64,586.261 C267.531,586.261 265.14,588.668 265.14,591.761 C265.14,594.855 267.531,597.261 270.64,597.261 C273.734,597.261 276.14,594.855 276.14,591.761 C276.14,588.668 273.734,586.261 270.64,586.261"/>
<path class="Clef" d="M254.734,297.436 C258.031,297.436 260.734,300.139 260.734,305.639 C260.734,312.545 257.437,318.951 249.64,326.748 C248.031,328.342 245.64,330.639 243.343,332.639 C242.64,333.248 242.234,333.139 242.031,331.842 C241.64,329.248 241.437,325.842 241.437,322.639 C241.437,307.045 248.64,297.436 254.734,297.436 M250.734,381.451 C250.531,380.248 250.64,379.951 251.843,380.045 C259.937,380.748 266.64,387.545 266.64,396.342 C266.64,402.654 262.843,407.748 257.234,410.545 C256.031,411.154 255.843,411.154 255.64,409.951 L250.734,381.451 M243.843,365.545 C244.14,367.451 244.14,367.342 242.343,367.951 C233.531,370.951 227.828,378.842 227.828,387.342 C227.828,396.342 232.531,402.748 239.343,405.045 C240.14,405.342 241.343,405.654 242.031,405.654 C242.843,405.654 243.234,405.154 243.234,404.545 C243.234,403.842 242.437,403.545 241.734,403.248 C237.531,401.451 234.531,397.154 234.531,392.545 C234.531,386.842 238.437,382.545 244.531,380.842 C246.14,380.451 246.343,380.545 246.531,381.654 L251.531,411.451 C251.734,412.545 251.64,412.545 250.14,412.842 C248.531,413.154 246.531,413.342 244.531,413.342 C227.031,413.342 215.734,403.654 215.734,389.748 C215.734,383.842 216.734,375.951 225.031,366.545 C231.031,359.842 235.64,356.139 240.343,352.342 C241.343,351.545 241.531,351.639 241.734,352.748 L243.843,365.545 M245.343,350.248 C245.14,349.045 245.343,348.951 245.937,348.342 C247.531,346.842 249.64,344.748 251.531,342.639 C259.937,333.451 264.937,321.545 264.937,310.248 C264.937,301.545 262.531,292.936 258.437,286.936 C256.937,284.748 254.343,281.936 253.234,281.936 C251.843,281.936 248.734,284.545 246.734,286.748 C239.343,294.936 236.937,307.436 236.937,317.842 C236.937,323.639 237.64,330.139 238.343,334.248 C238.531,335.451 238.64,335.639 237.437,336.639 C231.031,341.951 224.14,348.045 218.937,354.451 C212.031,363.045 207.734,372.342 207.734,383.045 C207.734,400.451 219.64,416.951 244.14,416.951 C246.437,416.951 249.031,416.748 251.031,416.342 C252.14,416.154 252.343,416.045 252.531,417.248 C253.734,423.951 255.234,432.654 255.234,437.357 C255.234,452.154 245.234,453.951 239.343,453.951 C233.937,453.951 231.328,452.357 231.328,451.045 C231.328,450.357 232.234,450.045 234.531,449.357 C237.64,448.451 241.234,445.748 241.234,439.951 C241.234,434.451 237.734,429.748 231.64,429.748 C224.937,429.748 220.937,435.045 220.937,441.248 C220.937,447.748 224.828,457.545 239.937,457.545 C246.64,457.545 259.64,454.545 259.64,437.545 C259.64,431.857 257.843,422.357 256.734,416.154 C256.531,414.951 256.64,415.045 258.031,414.451 C268.14,410.451 274.843,401.951 274.843,390.654 C274.843,377.842 265.437,366.545 250.734,366.545 C248.14,366.545 248.14,366.545 247.843,364.748 L245.343,350.248 "/>
<path class="TimeSig" d="M323.943,604.169 C320.943,604.169 317.443,604.966 314.74,606.169 C305.849,610.06 301.146,620.763 301.146,630.263 C301.146,631.169 301.146,632.06 301.24,632.966 C301.74,638.357 304.349,643.466 307.646,647.466 C311.443,652.06 316.943,654.169 322.943,654.169 C340.443,654.169 343.052,638.263 343.052,635.357 C343.052,633.169 341.943,633.169 341.552,633.169 C340.755,633.169 340.052,633.263 340.052,634.966 C340.052,647.857 329.052,650.857 325.849,650.857 C317.74,650.857 313.443,642.966 313.443,626.466 C313.443,609.966 321.052,606.56 326.443,606.56 C331.646,606.56 333.755,608.966 333.755,609.966 C333.755,610.857 333.443,612.169 331.943,612.169 C327.943,612.169 325.646,616.466 325.646,619.56 C325.646,625.263 330.552,627.06 333.349,627.06 C333.349,627.06 340.943,626.763 340.943,618.466 C340.943,605.357 325.849,604.169 323.943,604.169"/>
<path class="TimeSig" d="M323.943,341.653 C320.943,341.653 317.443,342.45 314.74,343.653 C305.849,347.543 301.146,358.246 301.146,367.746 C301.146,368.653 301.146,369.543 301.24,370.45 C301.74,375.84 304.349,380.95 307.646,384.95 C311.443,389.543 316.943,391.653 322.943,391.653 C340.443,391.653 343.052,375.746 343.052,372.84 C343.052,370.653 341.943,370.653 341.552,370.653 C340.755,370.653 340.052,370.746 340.052,372.45 C340.052,385.34 329.052,388.34 325.849,388.34 C317.74,388.34 313.443,380.45 313.443,363.95 C313.443,347.45 321.052,344.043 326.443,344.043 C331.646,344.043 333.755,346.45 333.755,347.45 C333.755,348.34 333.443,349.653 331.943,349.653 C327.943,349.653 325.646,353.95 325.646,357.043 C325.646,362.746 330.552,364.543 333.349,364.543 C333.349,364.543 340.943,364.246 340.943,355.95 C340.943,342.84 325.849,341.653 323.943,341.653"/>
<path class="Bracket" transform="matrix(3.62523,0,0,3.62523,144.23,679.266)" d="M2,-49.7969 C4.90625,-51.6094 8.20313,-58.7031 8.20313,-64.6094 C8.20313,-65.1094 8.20313,-65.7031 8.09375,-66.2031 C7.40625,-72.2031 4.40625,-81.5 4.40625,-86.9063 C4.40625,-92.1094 6.70313,-97.1094 7.20313,-98 C7.59375,-98.4063 7.70313,-98.7031 7.70313,-99 C7.70313,-99.2031 7.59375,-99.4063 7.5,-99.4063 C7.40625,-99.5 7.29688,-99.7031 7.09375,-99.7031 C6.90625,-99.7031 6.70313,-99.5 6.29688,-99 C4.09375,-96.3125 1.40625,-90.5 1.40625,-80.5 C1.40625,-70.6094 4.90625,-66.6094 4.90625,-60.2969 C4.90625,-55.6094 3,-53 0.203125,-49.7969 C2,-47.7969 4.90625,-46.2031 4.90625,-39.7031 C4.90625,-32.7031 1.40625,-26.5 1.40625,-19.2031 C1.40625,-9.20313 4.09375,-3.40625 6.29688,-0.59375 C6.70313,-0.09375 6.90625,0 7.09375,0 C7.29688,0 7.40625,-0.09375 7.5,-0.203125 C7.59375,-0.296875 7.70313,-0.40625 7.70313,-0.59375 C7.70313,-0.90625 7.59375,-1.20313 7.20313,-1.70313 C6.70313,-2.5 4.40625,-7.5 4.40625,-12.7969 C4.40625,-18.0938 7.40625,-27.5 8.09375,-33.4063 C8.20313,-33.9063 8.20313,-34.4063 8.20313,-35 C8.20313,-40.9063 4.90625,-48 2,-49.7969"/>
</svg>
