<?xml version="1.0" encoding="UTF-8" standalone="no"?>
<svg width="2977.23px" height="4208.47px" viewBox="0 0 2977.23 4208.47"
 xmlns="http://www.w3.org/2000/svg" xmlns:xlink="http://www.w3.org/1999/xlink" version="1.2" baseProfile="tiny">
<title>Zwerg-Struktur (5)</title>
<desc>Generated by MuseScore 3.4.2</desc>
<polyline class="StaffLines" fill="none" stroke="#000000" stroke-width="3.25" stroke-linejoin="bevel" points="183.232,316.743 615.371,316.743"/>
<polyline class="StaffLines" fill="none" stroke="#000000" stroke-width="3.25" stroke-linejoin="bevel" points="183.232,341.745 615.371,341.745"/>
<polyline class="StaffLines" fill="none" stroke="#000000" stroke-width="3.25" stroke-linejoin="bevel" points="183.232,366.746 615.371,366.746"/>
<polyline class="StaffLines" fill="none" stroke="#000000" stroke-width="3.25" stroke-linejoin="bevel" points="183.232,391.748 615.371,391.748"/>
<polyline class="StaffLines" fill="none" stroke="#000000" stroke-width="3.25" stroke-linejoin="bevel" points="183.232,416.75 615.371,416.75"/>
<polyline class="StaffLines" fill="none" stroke="#000000" stroke-width="3.25" stroke-linejoin="bevel" points="615.371,316.743 872.812,316.743"/>
<polyline class="StaffLines" fill="none" stroke="#000000" stroke-width="3.25" stroke-linejoin="bevel" points="615.371,341.745 872.812,341.745"/>
<polyline class="StaffLines" fill="none" stroke="#000000" stroke-width="3.25" stroke-linejoin="bevel" points="615.371,366.746 872.812,366.746"/>
<polyline class="StaffLines" fill="none" stroke="#000000" stroke-width="3.25" stroke-linejoin="bevel" points="615.371,391.748 872.812,391.748"/>
<polyline class="StaffLines" fill="none" stroke="#000000" stroke-width="3.25" stroke-linejoin="bevel" points="615.371,416.75 872.812,416.75"/>
<polyline class="StaffLines" fill="none" stroke="#000000" stroke-width="3.25" stroke-linejoin="bevel" points="872.812,316.743 1158.35,316.743"/>
<polyline class="StaffLines" fill="none" stroke="#000000" stroke-width="3.25" stroke-linejoin="bevel" points="872.812,341.745 1158.35,341.745"/>
<polyline class="StaffLines" fill="none" stroke="#000000" stroke-width="3.25" stroke-linejoin="bevel" points="872.812,366.746 1158.35,366.746"/>
<polyline class="StaffLines" fill="none" stroke="#000000" stroke-width="3.25" stroke-linejoin="bevel" points="872.812,391.748 1158.35,391.748"/>
<polyline class="StaffLines" fill="none" stroke="#000000" stroke-width="3.25" stroke-linejoin="bevel" points="872.812,416.75 1158.35,416.75"/>
<polyline class="StaffLines" fill="none" stroke="#000000" stroke-width="3.25" stroke-linejoin="bevel" points="1158.35,316.743 1539.48,316.743"/>
<polyline class="StaffLines" fill="none" stroke="#000000" stroke-width="3.25" stroke-linejoin="bevel" points="1158.35,341.745 1539.48,341.745"/>
<polyline class="StaffLines" fill="none" stroke="#000000" stroke-width="3.25" stroke-linejoin="bevel" points="1158.35,366.746 1539.48,366.746"/>
<polyline class="StaffLines" fill="none" stroke="#000000" stroke-width="3.25" stroke-linejoin="bevel" points="1158.35,391.748 1539.48,391.748"/>
<polyline class="StaffLines" fill="none" stroke="#000000" stroke-width="3.25" stroke-linejoin="bevel" points="1158.35,416.75 1539.48,416.75"/>
<polyline class="StaffLines" fill="none" stroke="#000000" stroke-width="3.25" stroke-linejoin="bevel" points="1539.48,316.743 1796.03,316.743"/>
<polyline class="StaffLines" fill="none" stroke="#000000" stroke-width="3.25" stroke-linejoin="bevel" points="1539.48,341.745 1796.03,341.745"/>
<polyline class="StaffLines" fill="none" stroke="#000000" stroke-width="3.25" stroke-linejoin="bevel" points="1539.48,366.746 1796.03,366.746"/>
<polyline class="StaffLines" fill="none" stroke="#000000" stroke-width="3.25" stroke-linejoin="bevel" points="1539.48,391.748 1796.03,391.748"/>
<polyline class="StaffLines" fill="none" stroke="#000000" stroke-width="3.25" stroke-linejoin="bevel" points="1539.48,416.75 1796.03,416.75"/>
<polyline class="StaffLines" fill="none" stroke="#000000" stroke-width="3.25" stroke-linejoin="bevel" points="183.232,579.26 615.371,579.26"/>
<polyline class="StaffLines" fill="none" stroke="#000000" stroke-width="3.25" stroke-linejoin="bevel" points="183.232,604.261 615.371,604.261"/>
<polyline class="StaffLines" fill="none" stroke="#000000" stroke-width="3.25" stroke-linejoin="bevel" points="183.232,629.263 615.371,629.263"/>
<polyline class="StaffLines" fill="none" stroke="#000000" stroke-width="3.25" stroke-linejoin="bevel" points="183.232,654.265 615.371,654.265"/>
<polyline class="StaffLines" fill="none" stroke="#000000" stroke-width="3.25" stroke-linejoin="bevel" points="183.232,679.266 615.371,679.266"/>
<polyline class="StaffLines" fill="none" stroke="#000000" stroke-width="3.25" stroke-linejoin="bevel" points="615.371,579.26 872.812,579.26"/>
<polyline class="StaffLines" fill="none" stroke="#000000" stroke-width="3.25" stroke-linejoin="bevel" points="615.371,604.261 872.812,604.261"/>
<polyline class="StaffLines" fill="none" stroke="#000000" stroke-width="3.25" stroke-linejoin="bevel" points="615.371,629.263 872.812,629.263"/>
<polyline class="StaffLines" fill="none" stroke="#000000" stroke-width="3.25" stroke-linejoin="bevel" points="615.371,654.265 872.812,654.265"/>
<polyline class="StaffLines" fill="none" stroke="#000000" stroke-width="3.25" stroke-linejoin="bevel" points="615.371,679.266 872.812,679.266"/>
<polyline class="StaffLines" fill="none" stroke="#000000" stroke-width="3.25" stroke-linejoin="bevel" points="872.812,579.26 1158.35,579.26"/>
<polyline class="StaffLines" fill="none" stroke="#000000" stroke-width="3.25" stroke-linejoin="bevel" points="872.812,604.261 1158.35,604.261"/>
<polyline class="StaffLines" fill="none" stroke="#000000" stroke-width="3.25" stroke-linejoin="bevel" points="872.812,629.263 1158.35,629.263"/>
<polyline class="StaffLines" fill="none" stroke="#000000" stroke-width="3.25" stroke-linejoin="bevel" points="872.812,654.265 1158.35,654.265"/>
<polyline class="StaffLines" fill="none" stroke="#000000" stroke-width="3.25" stroke-linejoin="bevel" points="872.812,679.266 1158.35,679.266"/>
<polyline class="StaffLines" fill="none" stroke="#000000" stroke-width="3.25" stroke-linejoin="bevel" points="1158.35,579.26 1539.48,579.26"/>
<polyline class="StaffLines" fill="none" stroke="#000000" stroke-width="3.25" stroke-linejoin="bevel" points="1158.35,604.261 1539.48,604.261"/>
<polyline class="StaffLines" fill="none" stroke="#000000" stroke-width="3.25" stroke-linejoin="bevel" points="1158.35,629.263 1539.48,629.263"/>
<polyline class="StaffLines" fill="none" stroke="#000000" stroke-width="3.25" stroke-linejoin="bevel" points="1158.35,654.265 1539.48,654.265"/>
<polyline class="StaffLines" fill="none" stroke="#000000" stroke-width="3.25" stroke-linejoin="bevel" points="1158.35,679.266 1539.48,679.266"/>
<polyline class="StaffLines" fill="none" stroke="#000000" stroke-width="3.25" stroke-linejoin="bevel" points="1539.48,579.26 1796.03,579.26"/>
<polyline class="StaffLines" fill="none" stroke="#000000" stroke-width="3.25" stroke-linejoin="bevel" points="1539.48,604.261 1796.03,604.261"/>
<polyline class="StaffLines" fill="none" stroke="#000000" stroke-width="3.25" stroke-linejoin="bevel" points="1539.48,629.263 1796.03,629.263"/>
<polyline class="StaffLines" fill="none" stroke="#000000" stroke-width="3.25" stroke-linejoin="bevel" points="1539.48,654.265 1796.03,654.265"/>
<polyline class="StaffLines" fill="none" stroke="#000000" stroke-width="3.25" stroke-linejoin="bevel" points="1539.48,679.266 1796.03,679.266"/>
<polyline class="BarLine" fill="none" stroke="#000000" stroke-width="4.00" stroke-linejoin="bevel" points="185.233,577.635 185.233,680.891"/>
<polyline class="BarLine" fill="none" stroke="#000000" stroke-width="4.00" stroke-linejoin="bevel" points="613.371,577.635 613.371,680.891"/>
<polyline class="BarLine" fill="none" stroke="#000000" stroke-width="4.00" stroke-linejoin="bevel" points="870.811,577.635 870.811,680.891"/>
<polyline class="BarLine" fill="none" stroke="#000000" stroke-width="4.00" stroke-linejoin="bevel" points="1156.35,577.635 1156.35,680.891"/>
<polyline class="BarLine" fill="none" stroke="#000000" stroke-width="4.00" stroke-linejoin="bevel" points="1537.48,577.635 1537.48,680.891"/>
<polyline class="BarLine" fill="none" stroke="#000000" stroke-width="4.00" stroke-linejoin="bevel" points="1794.03,577.635 1794.03,680.891"/>
<polyline class="BarLine" fill="none" stroke="#000000" stroke-width="4.00" stroke-linejoin="bevel" points="185.233,315.118 185.233,579.26"/>
<polyline class="BarLine" fill="none" stroke="#000000" stroke-width="4.00" stroke-linejoin="bevel" points="613.371,315.118 613.371,579.26"/>
<polyline class="BarLine" fill="none" stroke="#000000" stroke-width="4.00" stroke-linejoin="bevel" points="870.811,315.118 870.811,579.26"/>
<polyline class="BarLine" fill="none" stroke="#000000" stroke-width="4.00" stroke-linejoin="bevel" points="1156.35,315.118 1156.35,579.26"/>
<polyline class="BarLine" fill="none" stroke="#000000" stroke-width="4.00" stroke-linejoin="bevel" points="1537.48,315.118 1537.48,579.26"/>
<polyline class="BarLine" fill="none" stroke="#000000" stroke-width="4.00" stroke-linejoin="bevel" points="1794.03,315.118 1794.03,579.26"/>
<path class="Accidental" d="M370.135,637.357 C370.135,637.357 369.838,631.357 369.838,627.357 C369.838,625.763 369.931,624.56 370.025,624.169 C370.431,622.966 373.025,620.763 374.431,619.966 C375.338,619.466 376.228,619.263 377.025,619.263 C378.025,619.263 378.931,619.669 379.525,620.357 C380.525,621.466 381.135,623.169 381.135,625.06 C381.135,626.857 380.635,628.966 379.431,631.06 C378.135,633.466 375.228,636.669 372.228,638.56 C371.838,638.763 371.525,638.857 371.228,638.857 C370.338,638.857 370.135,637.857 370.135,637.357 M366.635,646.263 C366.931,646.669 367.228,646.763 367.525,646.763 C367.838,646.763 368.135,646.56 368.135,646.56 C371.135,644.857 373.525,642.169 376.025,640.466 C384.931,634.263 388.025,628.169 388.025,623.56 C388.025,617.857 383.635,614.263 379.025,613.966 C378.338,613.966 377.635,614.06 376.931,614.263 C375.838,614.56 374.635,614.966 373.525,615.669 C372.931,616.169 371.838,617.06 371.338,617.06 C371.135,617.06 371.025,617.06 370.838,616.966 C370.135,616.669 369.728,615.966 369.728,615.263 C369.838,613.06 370.431,589.06 370.431,587.06 C370.431,585.966 369.525,585.357 368.525,585.357 C367.135,585.357 365.525,586.357 365.431,588.154 C365.431,588.154 365.838,645.263 366.635,646.263"/>
<path class="Accidental" d="M632.372,662.859 C632.372,661.468 638.466,658.859 640.872,658.859 C641.466,658.859 641.763,658.968 641.763,659.359 L641.763,669.672 C641.763,671.468 636.075,673.765 633.575,673.765 C632.872,673.765 632.372,673.562 632.372,673.172 L632.372,662.859 M642.763,648.672 C642.575,648.672 642.466,648.765 642.372,648.765 C642.372,648.765 635.966,651.062 633.372,651.062 C632.763,651.062 632.372,650.968 632.372,650.562 L632.372,633.859 C632.372,633.156 631.763,632.656 631.169,632.656 L629.872,632.656 C629.169,632.656 628.669,633.156 628.669,633.859 L628.669,685.359 C628.669,685.968 628.966,686.265 629.466,686.265 C629.575,686.265 629.763,686.172 629.872,686.172 C629.872,686.172 630.075,686.172 630.169,686.062 C631.575,685.468 637.169,683.062 640.075,683.062 C641.075,683.062 641.763,683.359 641.763,684.172 L641.763,699.062 C641.763,699.765 642.263,700.265 642.966,700.265 L644.263,700.265 C644.872,700.265 645.466,699.765 645.466,699.062 L645.466,648.859 C645.466,648.359 645.075,648.062 644.669,648.062 C644.575,648.062 644.372,648.062 644.263,648.172 L642.763,648.672 "/>
<path class="Accidental" d="M913.111,662.358 C913.111,662.358 912.814,656.358 912.814,652.358 C912.814,650.765 912.908,649.561 913.001,649.171 C913.408,647.968 916.001,645.765 917.408,644.968 C918.314,644.468 919.204,644.265 920.001,644.265 C921.001,644.265 921.908,644.671 922.501,645.358 C923.501,646.468 924.111,648.171 924.111,650.061 C924.111,651.858 923.611,653.968 922.408,656.061 C921.111,658.468 918.204,661.671 915.204,663.561 C914.814,663.765 914.501,663.858 914.204,663.858 C913.314,663.858 913.111,662.858 913.111,662.358 M909.611,671.265 C909.908,671.671 910.204,671.765 910.501,671.765 C910.814,671.765 911.111,671.561 911.111,671.561 C914.111,669.858 916.501,667.171 919.001,665.468 C927.908,659.265 931.001,653.171 931.001,648.561 C931.001,642.858 926.611,639.265 922.001,638.968 C921.314,638.968 920.611,639.061 919.908,639.265 C918.814,639.561 917.611,639.968 916.501,640.671 C915.908,641.171 914.814,642.061 914.314,642.061 C914.111,642.061 914.001,642.061 913.814,641.968 C913.111,641.671 912.704,640.968 912.704,640.265 C912.814,638.061 913.408,614.061 913.408,612.061 C913.408,610.968 912.501,610.358 911.501,610.358 C910.111,610.358 908.501,611.358 908.408,613.155 C908.408,613.155 908.814,670.265 909.611,671.265"/>
<path class="Accidental" d="M1197.44,700.361 C1197.44,698.971 1203.54,696.361 1205.94,696.361 C1206.54,696.361 1206.83,696.471 1206.83,696.861 L1206.83,707.174 C1206.83,708.971 1201.15,711.268 1198.65,711.268 C1197.94,711.268 1197.44,711.065 1197.44,710.674 L1197.44,700.361 M1207.83,686.174 C1207.65,686.174 1207.54,686.268 1207.44,686.268 C1207.44,686.268 1201.04,688.565 1198.44,688.565 C1197.83,688.565 1197.44,688.471 1197.44,688.065 L1197.44,671.361 C1197.44,670.658 1196.83,670.158 1196.24,670.158 L1194.94,670.158 C1194.24,670.158 1193.74,670.658 1193.74,671.361 L1193.74,722.861 C1193.74,723.471 1194.04,723.768 1194.54,723.768 C1194.65,723.768 1194.83,723.674 1194.94,723.674 C1194.94,723.674 1195.15,723.674 1195.24,723.565 C1196.65,722.971 1202.24,720.565 1205.15,720.565 C1206.15,720.565 1206.83,720.861 1206.83,721.674 L1206.83,736.565 C1206.83,737.268 1207.33,737.768 1208.04,737.768 L1209.33,737.768 C1209.94,737.768 1210.54,737.268 1210.54,736.565 L1210.54,686.361 C1210.54,685.861 1210.15,685.565 1209.74,685.565 C1209.65,685.565 1209.44,685.565 1209.33,685.674 L1207.83,686.174 "/>
<path class="Accidental" d="M342.039,387.341 C342.039,387.341 341.742,381.341 341.742,377.341 C341.742,375.747 341.836,374.544 341.93,374.153 C342.336,372.95 344.93,370.747 346.336,369.95 C347.242,369.45 348.133,369.247 348.93,369.247 C349.93,369.247 350.836,369.653 351.43,370.341 C352.43,371.45 353.039,373.153 353.039,375.044 C353.039,376.841 352.539,378.95 351.336,381.044 C350.039,383.45 347.133,386.653 344.133,388.544 C343.742,388.747 343.43,388.841 343.133,388.841 C342.242,388.841 342.039,387.841 342.039,387.341 M338.539,396.247 C338.836,396.653 339.133,396.747 339.43,396.747 C339.742,396.747 340.039,396.544 340.039,396.544 C343.039,394.841 345.43,392.153 347.93,390.45 C356.836,384.247 359.93,378.153 359.93,373.544 C359.93,367.841 355.539,364.247 350.93,363.95 C350.242,363.95 349.539,364.044 348.836,364.247 C347.742,364.544 346.539,364.95 345.43,365.653 C344.836,366.153 343.742,367.044 343.242,367.044 C343.039,367.044 342.93,367.044 342.742,366.95 C342.039,366.653 341.633,365.95 341.633,365.247 C341.742,363.044 342.336,339.044 342.336,337.044 C342.336,335.95 341.43,335.341 340.43,335.341 C339.039,335.341 337.43,336.341 337.336,338.138 C337.336,338.138 337.742,395.247 338.539,396.247"/>
<path class="Accidental" d="M370.135,349.839 C370.135,349.839 369.838,343.839 369.838,339.839 C369.838,338.245 369.931,337.042 370.025,336.651 C370.431,335.448 373.025,333.245 374.431,332.448 C375.338,331.948 376.228,331.745 377.025,331.745 C378.025,331.745 378.931,332.151 379.525,332.839 C380.525,333.948 381.135,335.651 381.135,337.542 C381.135,339.339 380.635,341.448 379.431,343.542 C378.135,345.948 375.228,349.151 372.228,351.042 C371.838,351.245 371.525,351.339 371.228,351.339 C370.338,351.339 370.135,350.339 370.135,349.839 M366.635,358.745 C366.931,359.151 367.228,359.245 367.525,359.245 C367.838,359.245 368.135,359.042 368.135,359.042 C371.135,357.339 373.525,354.651 376.025,352.948 C384.931,346.745 388.025,340.651 388.025,336.042 C388.025,330.339 383.635,326.745 379.025,326.448 C378.338,326.448 377.635,326.542 376.931,326.745 C375.838,327.042 374.635,327.448 373.525,328.151 C372.931,328.651 371.838,329.542 371.338,329.542 C371.135,329.542 371.025,329.542 370.838,329.448 C370.135,329.151 369.728,328.448 369.728,327.745 C369.838,325.542 370.431,301.542 370.431,299.542 C370.431,298.448 369.525,297.839 368.525,297.839 C367.135,297.839 365.525,298.839 365.431,300.636 C365.431,300.636 365.838,357.745 366.635,358.745"/>
<path class="Accidental" d="M627.575,337.338 C627.575,337.338 627.278,331.338 627.278,327.338 C627.278,325.744 627.372,324.541 627.465,324.15 C627.872,322.947 630.465,320.744 631.872,319.947 C632.778,319.447 633.669,319.244 634.465,319.244 C635.465,319.244 636.372,319.65 636.965,320.338 C637.965,321.447 638.575,323.15 638.575,325.041 C638.575,326.838 638.075,328.947 636.872,331.041 C635.575,333.447 632.669,336.65 629.669,338.541 C629.278,338.744 628.965,338.838 628.669,338.838 C627.778,338.838 627.575,337.838 627.575,337.338 M624.075,346.244 C624.372,346.65 624.669,346.744 624.965,346.744 C625.278,346.744 625.575,346.541 625.575,346.541 C628.575,344.838 630.965,342.15 633.465,340.447 C642.372,334.244 645.465,328.15 645.465,323.541 C645.465,317.838 641.075,314.244 636.465,313.947 C635.778,313.947 635.075,314.041 634.372,314.244 C633.278,314.541 632.075,314.947 630.965,315.65 C630.372,316.15 629.278,317.041 628.778,317.041 C628.575,317.041 628.465,317.041 628.278,316.947 C627.575,316.65 627.169,315.947 627.169,315.244 C627.278,313.041 627.872,289.041 627.872,287.041 C627.872,285.947 626.965,285.338 625.965,285.338 C624.575,285.338 622.965,286.338 622.872,288.135 C622.872,288.135 623.278,345.244 624.075,346.244"/>
<path class="Accidental" d="M885.015,374.84 C885.015,374.84 884.718,368.84 884.718,364.84 C884.718,363.246 884.812,362.043 884.906,361.653 C885.312,360.45 887.906,358.246 889.312,357.45 C890.218,356.95 891.109,356.746 891.906,356.746 C892.906,356.746 893.812,357.153 894.406,357.84 C895.406,358.95 896.015,360.653 896.015,362.543 C896.015,364.34 895.515,366.45 894.312,368.543 C893.015,370.95 890.109,374.153 887.109,376.043 C886.718,376.246 886.406,376.34 886.109,376.34 C885.218,376.34 885.015,375.34 885.015,374.84 M881.515,383.746 C881.812,384.153 882.109,384.246 882.406,384.246 C882.718,384.246 883.015,384.043 883.015,384.043 C886.015,382.34 888.406,379.653 890.906,377.95 C899.812,371.746 902.906,365.653 902.906,361.043 C902.906,355.34 898.515,351.746 893.906,351.45 C893.218,351.45 892.515,351.543 891.812,351.746 C890.718,352.043 889.515,352.45 888.406,353.153 C887.812,353.653 886.718,354.543 886.218,354.543 C886.015,354.543 885.906,354.543 885.718,354.45 C885.015,354.153 884.609,353.45 884.609,352.746 C884.718,350.543 885.312,326.543 885.312,324.543 C885.312,323.45 884.406,322.84 883.406,322.84 C882.015,322.84 880.406,323.84 880.312,325.637 C880.312,325.637 880.718,382.746 881.515,383.746"/>
<path class="Accidental" d="M913.111,349.839 C913.111,349.839 912.814,343.839 912.814,339.839 C912.814,338.245 912.908,337.042 913.001,336.651 C913.408,335.448 916.001,333.245 917.408,332.448 C918.314,331.948 919.204,331.745 920.001,331.745 C921.001,331.745 921.908,332.151 922.501,332.839 C923.501,333.948 924.111,335.651 924.111,337.542 C924.111,339.339 923.611,341.448 922.408,343.542 C921.111,345.948 918.204,349.151 915.204,351.042 C914.814,351.245 914.501,351.339 914.204,351.339 C913.314,351.339 913.111,350.339 913.111,349.839 M909.611,358.745 C909.908,359.151 910.204,359.245 910.501,359.245 C910.814,359.245 911.111,359.042 911.111,359.042 C914.111,357.339 916.501,354.651 919.001,352.948 C927.908,346.745 931.001,340.651 931.001,336.042 C931.001,330.339 926.611,326.745 922.001,326.448 C921.314,326.448 920.611,326.542 919.908,326.745 C918.814,327.042 917.611,327.448 916.501,328.151 C915.908,328.651 914.814,329.542 914.314,329.542 C914.111,329.542 914.001,329.542 913.814,329.448 C913.111,329.151 912.704,328.448 912.704,327.745 C912.814,325.542 913.408,301.542 913.408,299.542 C913.408,298.448 912.501,297.839 911.501,297.839 C910.111,297.839 908.501,298.839 908.408,300.636 C908.408,300.636 908.814,357.745 909.611,358.745"/>
<path class="Accidental" d="M1176.05,374.84 C1176.05,374.84 1175.75,368.84 1175.75,364.84 C1175.75,363.246 1175.85,362.043 1175.94,361.653 C1176.35,360.45 1178.94,358.246 1180.35,357.45 C1181.25,356.95 1182.15,356.746 1182.94,356.746 C1183.94,356.746 1184.85,357.153 1185.44,357.84 C1186.44,358.95 1187.05,360.653 1187.05,362.543 C1187.05,364.34 1186.55,366.45 1185.35,368.543 C1184.05,370.95 1181.15,374.153 1178.15,376.043 C1177.75,376.246 1177.44,376.34 1177.15,376.34 C1176.25,376.34 1176.05,375.34 1176.05,374.84 M1172.55,383.746 C1172.85,384.153 1173.15,384.246 1173.44,384.246 C1173.75,384.246 1174.05,384.043 1174.05,384.043 C1177.05,382.34 1179.44,379.653 1181.94,377.95 C1190.85,371.746 1193.94,365.653 1193.94,361.043 C1193.94,355.34 1189.55,351.746 1184.94,351.45 C1184.25,351.45 1183.55,351.543 1182.85,351.746 C1181.75,352.043 1180.55,352.45 1179.44,353.153 C1178.85,353.653 1177.75,354.543 1177.25,354.543 C1177.05,354.543 1176.94,354.543 1176.75,354.45 C1176.05,354.153 1175.65,353.45 1175.65,352.746 C1175.75,350.543 1176.35,326.543 1176.35,324.543 C1176.35,323.45 1175.44,322.84 1174.44,322.84 C1173.05,322.84 1171.44,323.84 1171.35,325.637 C1171.35,325.637 1171.75,382.746 1172.55,383.746"/>
<path class="Accidental" d="M1204.15,349.839 C1204.15,349.839 1203.85,343.839 1203.85,339.839 C1203.85,338.245 1203.94,337.042 1204.04,336.651 C1204.44,335.448 1207.04,333.245 1208.44,332.448 C1209.35,331.948 1210.24,331.745 1211.04,331.745 C1212.04,331.745 1212.94,332.151 1213.54,332.839 C1214.54,333.948 1215.15,335.651 1215.15,337.542 C1215.15,339.339 1214.65,341.448 1213.44,343.542 C1212.15,345.948 1209.24,349.151 1206.24,351.042 C1205.85,351.245 1205.54,351.339 1205.24,351.339 C1204.35,351.339 1204.15,350.339 1204.15,349.839 M1200.65,358.745 C1200.94,359.151 1201.24,359.245 1201.54,359.245 C1201.85,359.245 1202.15,359.042 1202.15,359.042 C1205.15,357.339 1207.54,354.651 1210.04,352.948 C1218.94,346.745 1222.04,340.651 1222.04,336.042 C1222.04,330.339 1217.65,326.745 1213.04,326.448 C1212.35,326.448 1211.65,326.542 1210.94,326.745 C1209.85,327.042 1208.65,327.448 1207.54,328.151 C1206.94,328.651 1205.85,329.542 1205.35,329.542 C1205.15,329.542 1205.04,329.542 1204.85,329.448 C1204.15,329.151 1203.74,328.448 1203.74,327.745 C1203.85,325.542 1204.44,301.542 1204.44,299.542 C1204.44,298.448 1203.54,297.839 1202.54,297.839 C1201.15,297.839 1199.54,298.839 1199.44,300.636 C1199.44,300.636 1199.85,357.745 1200.65,358.745"/>
<path class="Accidental" d="M1345.61,396.248 C1345.01,398.248 1340.31,400.248 1338.01,400.248 C1337.4,400.248 1336.9,400.045 1336.81,399.748 C1336.61,399.342 1336.51,397.154 1336.51,394.748 C1336.51,391.654 1336.61,388.154 1336.81,387.342 C1337.01,385.654 1341.61,383.545 1344.11,383.545 C1344.81,383.545 1345.4,383.748 1345.61,384.154 C1345.81,384.654 1346.01,387.154 1346.01,389.842 C1346.01,392.545 1345.81,395.342 1345.61,396.248 M1352.51,379.951 C1353.22,379.654 1353.72,378.842 1353.72,378.248 L1353.72,371.154 C1353.72,370.654 1353.4,370.342 1353.01,370.342 C1352.81,370.342 1352.72,370.342 1352.51,370.451 C1352.51,370.451 1350.51,371.248 1350.01,371.342 C1349.31,371.342 1348.61,370.842 1348.61,370.045 L1348.61,357.842 C1348.61,357.248 1348.01,356.748 1347.22,356.748 C1346.22,356.748 1345.61,357.248 1345.61,357.842 L1345.61,370.842 C1345.51,371.842 1345.22,373.154 1344.31,373.748 C1343.11,374.451 1339.72,375.842 1338.01,376.248 C1337.11,376.248 1336.81,375.045 1336.81,374.248 L1336.81,362.248 C1336.81,361.639 1336.11,361.139 1335.4,361.139 C1334.4,361.139 1333.81,361.639 1333.81,362.248 L1333.81,375.748 C1333.81,377.154 1333.22,378.154 1332.61,378.451 C1332.01,378.748 1330.01,379.545 1330.01,379.545 C1329.31,379.748 1328.81,380.545 1328.81,381.154 L1328.81,388.248 C1328.81,388.842 1329.11,389.154 1329.61,389.154 C1329.72,389.154 1329.9,389.045 1330.01,389.045 C1330.01,389.045 1331.51,388.451 1332.22,388.045 C1332.31,388.045 1332.4,387.951 1332.51,387.951 C1333.22,387.951 1333.81,388.951 1333.81,389.748 L1333.81,399.654 C1333.81,400.748 1333.31,401.654 1332.72,401.951 C1332.11,402.154 1330.01,403.045 1330.01,403.045 C1329.31,403.248 1328.81,404.045 1328.81,404.654 L1328.81,411.748 C1328.81,412.342 1329.11,412.654 1329.61,412.654 C1329.72,412.654 1329.9,412.545 1330.01,412.545 C1330.01,412.545 1331.4,411.951 1332.31,411.654 C1332.4,411.545 1332.51,411.545 1332.61,411.545 C1333.31,411.545 1333.81,412.654 1333.81,413.154 L1333.81,425.451 C1333.81,426.045 1334.4,426.545 1335.11,426.545 C1336.11,426.545 1336.81,426.045 1336.81,425.451 L1336.81,411.545 C1336.81,410.248 1337.31,409.545 1337.81,409.342 L1343.9,406.842 C1344.01,406.842 1344.22,406.748 1344.31,406.748 C1345.11,406.748 1345.61,407.951 1345.61,408.545 L1345.61,421.045 C1345.61,421.654 1346.22,422.154 1346.9,422.154 C1348.01,422.154 1348.61,421.654 1348.61,421.045 L1348.61,406.842 C1348.61,406.045 1349.01,404.842 1349.72,404.545 C1350.4,404.248 1352.51,403.451 1352.51,403.451 C1353.22,403.154 1353.72,402.342 1353.72,401.748 L1353.72,394.654 C1353.72,394.154 1353.4,393.842 1353.01,393.842 C1352.81,393.842 1352.72,393.842 1352.51,393.951 L1349.9,394.951 C1349.31,394.951 1348.61,394.342 1348.61,393.154 L1348.61,383.842 C1348.61,383.154 1349.11,381.248 1349.9,380.951 L1352.51,379.951 "/>
<path class="Accidental" d="M1310.22,362.84 C1310.22,361.45 1316.31,358.84 1318.72,358.84 C1319.31,358.84 1319.61,358.95 1319.61,359.34 L1319.61,369.653 C1319.61,371.45 1313.92,373.746 1311.42,373.746 C1310.72,373.746 1310.22,373.543 1310.22,373.153 L1310.22,362.84 M1320.61,348.653 C1320.42,348.653 1320.31,348.746 1320.22,348.746 C1320.22,348.746 1313.81,351.043 1311.22,351.043 C1310.61,351.043 1310.22,350.95 1310.22,350.543 L1310.22,333.84 C1310.22,333.137 1309.61,332.637 1309.01,332.637 L1307.72,332.637 C1307.01,332.637 1306.51,333.137 1306.51,333.84 L1306.51,385.34 C1306.51,385.95 1306.81,386.246 1307.31,386.246 C1307.42,386.246 1307.61,386.153 1307.72,386.153 C1307.72,386.153 1307.92,386.153 1308.01,386.043 C1309.42,385.45 1315.01,383.043 1317.92,383.043 C1318.92,383.043 1319.61,383.34 1319.61,384.153 L1319.61,399.043 C1319.61,399.746 1320.11,400.246 1320.81,400.246 L1322.11,400.246 C1322.72,400.246 1323.31,399.746 1323.31,399.043 L1323.31,348.84 C1323.31,348.34 1322.92,348.043 1322.51,348.043 C1322.42,348.043 1322.22,348.043 1322.11,348.153 L1320.61,348.653 "/>
<path class="Accidental" d="M1362.91,337.839 C1362.91,336.448 1369.01,333.839 1371.41,333.839 C1372.01,333.839 1372.3,333.948 1372.3,334.339 L1372.3,344.651 C1372.3,346.448 1366.62,348.745 1364.12,348.745 C1363.41,348.745 1362.91,348.542 1362.91,348.151 L1362.91,337.839 M1373.3,323.651 C1373.12,323.651 1373.01,323.745 1372.91,323.745 C1372.91,323.745 1366.51,326.042 1363.91,326.042 C1363.3,326.042 1362.91,325.948 1362.91,325.542 L1362.91,308.839 C1362.91,308.136 1362.3,307.636 1361.71,307.636 L1360.41,307.636 C1359.71,307.636 1359.21,308.136 1359.21,308.839 L1359.21,360.339 C1359.21,360.948 1359.51,361.245 1360.01,361.245 C1360.12,361.245 1360.3,361.151 1360.41,361.151 C1360.41,361.151 1360.62,361.151 1360.71,361.042 C1362.12,360.448 1367.71,358.042 1370.62,358.042 C1371.62,358.042 1372.3,358.339 1372.3,359.151 L1372.3,374.042 C1372.3,374.745 1372.8,375.245 1373.51,375.245 L1374.8,375.245 C1375.41,375.245 1376.01,374.745 1376.01,374.042 L1376.01,323.839 C1376.01,323.339 1375.62,323.042 1375.21,323.042 C1375.12,323.042 1374.91,323.042 1374.8,323.151 L1373.3,323.651 "/>
<path class="Accidental" d="M1561.07,331.246 L1561.07,329.839 C1561.07,329.652 1561.07,329.543 1560.98,329.543 C1551.18,334.746 1546.98,344.543 1546.98,354.246 C1546.98,364.246 1551.18,372.949 1560.78,379.043 C1560.89,379.043 1561.07,378.949 1561.07,378.839 L1561.07,377.339 C1561.07,377.152 1560.98,377.043 1560.89,376.949 C1555.18,371.839 1552.98,365.339 1552.98,354.246 C1552.98,343.246 1555.28,336.839 1560.89,331.746 C1560.98,331.652 1561.07,331.543 1561.07,331.246"/>
<path class="Accidental" d="M1577.87,358.746 C1577.28,360.746 1572.57,362.746 1570.28,362.746 C1569.67,362.746 1569.17,362.543 1569.07,362.246 C1568.87,361.839 1568.78,359.652 1568.78,357.246 C1568.78,354.152 1568.87,350.652 1569.07,349.839 C1569.28,348.152 1573.87,346.043 1576.37,346.043 C1577.07,346.043 1577.67,346.246 1577.87,346.652 C1578.07,347.152 1578.28,349.652 1578.28,352.339 C1578.28,355.043 1578.07,357.839 1577.87,358.746 M1584.78,342.449 C1585.48,342.152 1585.98,341.339 1585.98,340.746 L1585.98,333.652 C1585.98,333.152 1585.67,332.839 1585.28,332.839 C1585.07,332.839 1584.98,332.839 1584.78,332.949 C1584.78,332.949 1582.78,333.746 1582.28,333.839 C1581.57,333.839 1580.87,333.339 1580.87,332.543 L1580.87,320.339 C1580.87,319.746 1580.28,319.246 1579.48,319.246 C1578.48,319.246 1577.87,319.746 1577.87,320.339 L1577.87,333.339 C1577.78,334.339 1577.48,335.652 1576.57,336.246 C1575.37,336.949 1571.98,338.339 1570.28,338.746 C1569.37,338.746 1569.07,337.543 1569.07,336.746 L1569.07,324.746 C1569.07,324.136 1568.37,323.636 1567.67,323.636 C1566.67,323.636 1566.07,324.136 1566.07,324.746 L1566.07,338.246 C1566.07,339.652 1565.48,340.652 1564.87,340.949 C1564.28,341.246 1562.28,342.043 1562.28,342.043 C1561.57,342.246 1561.07,343.043 1561.07,343.652 L1561.07,350.746 C1561.07,351.339 1561.37,351.652 1561.87,351.652 C1561.98,351.652 1562.17,351.543 1562.28,351.543 C1562.28,351.543 1563.78,350.949 1564.48,350.543 C1564.57,350.543 1564.67,350.449 1564.78,350.449 C1565.48,350.449 1566.07,351.449 1566.07,352.246 L1566.07,362.152 C1566.07,363.246 1565.57,364.152 1564.98,364.449 C1564.37,364.652 1562.28,365.543 1562.28,365.543 C1561.57,365.746 1561.07,366.543 1561.07,367.152 L1561.07,374.246 C1561.07,374.839 1561.37,375.152 1561.87,375.152 C1561.98,375.152 1562.17,375.043 1562.28,375.043 C1562.28,375.043 1563.67,374.449 1564.57,374.152 C1564.67,374.043 1564.78,374.043 1564.87,374.043 C1565.57,374.043 1566.07,375.152 1566.07,375.652 L1566.07,387.949 C1566.07,388.543 1566.67,389.043 1567.37,389.043 C1568.37,389.043 1569.07,388.543 1569.07,387.949 L1569.07,374.043 C1569.07,372.746 1569.57,372.043 1570.07,371.839 L1576.17,369.339 C1576.28,369.339 1576.48,369.246 1576.57,369.246 C1577.37,369.246 1577.87,370.449 1577.87,371.043 L1577.87,383.543 C1577.87,384.152 1578.48,384.652 1579.17,384.652 C1580.28,384.652 1580.87,384.152 1580.87,383.543 L1580.87,369.339 C1580.87,368.543 1581.28,367.339 1581.98,367.043 C1582.67,366.746 1584.78,365.949 1584.78,365.949 C1585.48,365.652 1585.98,364.839 1585.98,364.246 L1585.98,357.152 C1585.98,356.652 1585.67,356.339 1585.28,356.339 C1585.07,356.339 1584.98,356.339 1584.78,356.449 L1582.17,357.449 C1581.57,357.449 1580.87,356.839 1580.87,355.652 L1580.87,346.339 C1580.87,345.652 1581.37,343.746 1582.17,343.449 L1584.78,342.449 "/>
<path class="Accidental" d="M1585.97,331.246 C1585.97,331.543 1586.06,331.652 1586.17,331.746 C1591.76,336.839 1594.06,343.246 1594.06,354.246 C1594.06,365.339 1591.87,371.839 1586.17,376.949 C1586.06,377.043 1585.97,377.152 1585.97,377.339 L1585.97,378.839 C1585.97,378.949 1586.17,379.043 1586.26,379.043 C1595.87,372.949 1600.06,364.246 1600.06,354.246 C1600.06,344.543 1595.87,334.746 1586.06,329.543 C1585.97,329.543 1585.97,329.652 1585.97,329.839 L1585.97,331.246 "/>
<polyline class="LedgerLine" fill="none" stroke="#000000" stroke-width="4.00" stroke-linecap="square" stroke-linejoin="bevel" points="1216.04,704.268 1271.94,704.268"/>
<polyline class="Stem" fill="none" stroke="#000000" stroke-width="3.00" stroke-linecap="round" stroke-linejoin="bevel" points="1229.04,345.105 1229.04,463.628"/>
<polyline class="Stem" fill="none" stroke="#000000" stroke-width="3.00" stroke-linecap="round" stroke-linejoin="bevel" points="1383.01,345.105 1383.01,463.628"/>
<path class="Note" d="M417.027,615.56 C402.527,615.56 393.527,621.669 393.527,629.06 C393.527,636.357 399.73,642.857 415.933,642.857 C433.73,642.857 439.433,636.669 439.433,629.06 C439.433,621.357 427.136,615.56 417.027,615.56 M405.621,622.357 C406.824,618.669 410.824,618.06 414.23,618.06 C421.636,618.06 427.636,626.06 427.636,632.669 C427.636,633.357 427.527,634.06 427.433,634.669 C426.933,637.357 425.324,639.263 422.636,639.966 C421.527,640.263 420.433,640.357 419.324,640.357 C418.324,640.357 417.433,640.263 416.433,639.966 C414.621,639.357 412.824,638.357 411.324,637.06 C410.527,636.357 409.73,635.56 409.027,634.669 C406.933,632.169 405.23,628.466 405.23,625.06 C405.23,624.169 405.324,623.263 405.621,622.357"/>
<path class="Note" d="M674.467,653.062 C659.967,653.062 650.967,659.172 650.967,666.562 C650.967,673.859 657.17,680.359 673.373,680.359 C691.17,680.359 696.873,674.172 696.873,666.562 C696.873,658.859 684.577,653.062 674.467,653.062 M663.061,659.859 C664.264,656.172 668.264,655.562 671.67,655.562 C679.077,655.562 685.077,663.562 685.077,670.172 C685.077,670.859 684.967,671.562 684.873,672.172 C684.373,674.859 682.764,676.765 680.077,677.468 C678.967,677.765 677.873,677.859 676.764,677.859 C675.764,677.859 674.873,677.765 673.873,677.468 C672.061,676.859 670.264,675.859 668.764,674.562 C667.967,673.859 667.17,673.062 666.467,672.172 C664.373,669.672 662.67,665.968 662.67,662.562 C662.67,661.672 662.764,660.765 663.061,659.859"/>
<path class="Note" d="M960.003,640.561 C945.503,640.561 936.503,646.671 936.503,654.061 C936.503,661.358 942.706,667.858 958.909,667.858 C976.706,667.858 982.409,661.671 982.409,654.061 C982.409,646.358 970.112,640.561 960.003,640.561 M948.597,647.358 C949.8,643.671 953.8,643.061 957.206,643.061 C964.612,643.061 970.612,651.061 970.612,657.671 C970.612,658.358 970.503,659.061 970.409,659.671 C969.909,662.358 968.3,664.265 965.612,664.968 C964.503,665.265 963.409,665.358 962.3,665.358 C961.3,665.358 960.409,665.265 959.409,664.968 C957.597,664.358 955.8,663.358 954.3,662.061 C953.503,661.358 952.706,660.561 952.003,659.671 C949.909,657.171 948.206,653.468 948.206,650.061 C948.206,649.171 948.3,648.265 948.597,647.358"/>
<path class="Note" d="M1244.54,690.565 C1230.04,690.565 1221.04,696.674 1221.04,704.065 C1221.04,711.361 1227.24,717.861 1243.45,717.861 C1261.24,717.861 1266.95,711.674 1266.95,704.065 C1266.95,696.361 1254.65,690.565 1244.54,690.565 M1233.13,697.361 C1234.34,693.674 1238.34,693.065 1241.74,693.065 C1249.15,693.065 1255.15,701.065 1255.15,707.674 C1255.15,708.361 1255.04,709.065 1254.95,709.674 C1254.45,712.361 1252.84,714.268 1250.15,714.971 C1249.04,715.268 1247.95,715.361 1246.84,715.361 C1245.84,715.361 1244.95,715.268 1243.95,714.971 C1242.13,714.361 1240.34,713.361 1238.84,712.065 C1238.04,711.361 1237.24,710.565 1236.54,709.674 C1234.45,707.174 1232.74,703.471 1232.74,700.065 C1232.74,699.174 1232.84,698.268 1233.13,697.361"/>
<path class="Note" d="M1629.07,653.062 C1614.57,653.062 1605.57,659.172 1605.57,666.562 C1605.57,673.859 1611.77,680.359 1627.98,680.359 C1645.77,680.359 1651.48,674.172 1651.48,666.562 C1651.48,658.859 1639.18,653.062 1629.07,653.062 M1617.66,659.859 C1618.87,656.172 1622.87,655.562 1626.27,655.562 C1633.68,655.562 1639.68,663.562 1639.68,670.172 C1639.68,670.859 1639.57,671.562 1639.48,672.172 C1638.98,674.859 1637.37,676.765 1634.68,677.468 C1633.57,677.765 1632.48,677.859 1631.37,677.859 C1630.37,677.859 1629.48,677.765 1628.48,677.468 C1626.66,676.859 1624.87,675.859 1623.37,674.562 C1622.57,673.859 1621.77,673.062 1621.07,672.172 C1618.98,669.672 1617.27,665.968 1617.27,662.562 C1617.27,661.672 1617.37,660.765 1617.66,659.859"/>
<path class="Note" d="M410.824,393.247 C420.73,393.247 432.934,384.044 432.934,374.544 C432.934,368.95 428.434,365.247 422.027,365.247 C409.824,365.247 400.027,374.341 400.027,383.95 C400.027,389.747 404.824,393.247 410.824,393.247"/>
<path class="Note" d="M668.265,418.249 C678.171,418.249 690.374,409.046 690.374,399.546 C690.374,393.952 685.874,390.249 679.468,390.249 C667.265,390.249 657.468,399.343 657.468,408.952 C657.468,414.749 662.265,418.249 668.265,418.249"/>
<path class="Note" d="M953.8,418.249 C963.707,418.249 975.91,409.046 975.91,399.546 C975.91,393.952 971.41,390.249 965.003,390.249 C952.8,390.249 943.003,399.343 943.003,408.952 C943.003,414.749 947.8,418.249 953.8,418.249"/>
<path class="Note" d="M417.027,328.042 C402.527,328.042 393.527,334.151 393.527,341.542 C393.527,348.839 399.73,355.339 415.933,355.339 C433.73,355.339 439.433,349.151 439.433,341.542 C439.433,333.839 427.136,328.042 417.027,328.042 M405.621,334.839 C406.824,331.151 410.824,330.542 414.23,330.542 C421.636,330.542 427.636,338.542 427.636,345.151 C427.636,345.839 427.527,346.542 427.433,347.151 C426.933,349.839 425.324,351.745 422.636,352.448 C421.527,352.745 420.433,352.839 419.324,352.839 C418.324,352.839 417.433,352.745 416.433,352.448 C414.621,351.839 412.824,350.839 411.324,349.542 C410.527,348.839 409.73,348.042 409.027,347.151 C406.933,344.651 405.23,340.948 405.23,337.542 C405.23,336.651 405.324,335.745 405.621,334.839"/>
<path class="Note" d="M417.027,303.04 C402.527,303.04 393.527,309.15 393.527,316.54 C393.527,323.837 399.73,330.337 415.933,330.337 C433.73,330.337 439.433,324.15 439.433,316.54 C439.433,308.837 427.136,303.04 417.027,303.04 M405.621,309.837 C406.824,306.15 410.824,305.54 414.23,305.54 C421.636,305.54 427.636,313.54 427.636,320.15 C427.636,320.837 427.527,321.54 427.433,322.15 C426.933,324.837 425.324,326.743 422.636,327.446 C421.527,327.743 420.433,327.837 419.324,327.837 C418.324,327.837 417.433,327.743 416.433,327.446 C414.621,326.837 412.824,325.837 411.324,324.54 C410.527,323.837 409.73,323.04 409.027,322.15 C406.933,319.65 405.23,315.946 405.23,312.54 C405.23,311.65 405.324,310.743 405.621,309.837"/>
<path class="Note" d="M674.467,340.543 C659.967,340.543 650.967,346.652 650.967,354.043 C650.967,361.339 657.17,367.839 673.373,367.839 C691.17,367.839 696.873,361.652 696.873,354.043 C696.873,346.339 684.577,340.543 674.467,340.543 M663.061,347.339 C664.264,343.652 668.264,343.043 671.67,343.043 C679.077,343.043 685.077,351.043 685.077,357.652 C685.077,358.339 684.967,359.043 684.873,359.652 C684.373,362.339 682.764,364.246 680.077,364.949 C678.967,365.246 677.873,365.339 676.764,365.339 C675.764,365.339 674.873,365.246 673.873,364.949 C672.061,364.339 670.264,363.339 668.764,362.043 C667.967,361.339 667.17,360.543 666.467,359.652 C664.373,357.152 662.67,353.449 662.67,350.043 C662.67,349.152 662.764,348.246 663.061,347.339"/>
<path class="Note" d="M674.467,315.541 C659.967,315.541 650.967,321.65 650.967,329.041 C650.967,336.338 657.17,342.838 673.373,342.838 C691.17,342.838 696.873,336.65 696.873,329.041 C696.873,321.338 684.577,315.541 674.467,315.541 M663.061,322.338 C664.264,318.65 668.264,318.041 671.67,318.041 C679.077,318.041 685.077,326.041 685.077,332.65 C685.077,333.338 684.967,334.041 684.873,334.65 C684.373,337.338 682.764,339.244 680.077,339.947 C678.967,340.244 677.873,340.338 676.764,340.338 C675.764,340.338 674.873,340.244 673.873,339.947 C672.061,339.338 670.264,338.338 668.764,337.041 C667.967,336.338 667.17,335.541 666.467,334.65 C664.373,332.15 662.67,328.447 662.67,325.041 C662.67,324.15 662.764,323.244 663.061,322.338"/>
<path class="Note" d="M960.003,353.043 C945.503,353.043 936.503,359.153 936.503,366.543 C936.503,373.84 942.706,380.34 958.909,380.34 C976.706,380.34 982.409,374.153 982.409,366.543 C982.409,358.84 970.112,353.043 960.003,353.043 M948.597,359.84 C949.8,356.153 953.8,355.543 957.206,355.543 C964.612,355.543 970.612,363.543 970.612,370.153 C970.612,370.84 970.503,371.543 970.409,372.153 C969.909,374.84 968.3,376.746 965.612,377.45 C964.503,377.746 963.409,377.84 962.3,377.84 C961.3,377.84 960.409,377.746 959.409,377.45 C957.597,376.84 955.8,375.84 954.3,374.543 C953.503,373.84 952.706,373.043 952.003,372.153 C949.909,369.653 948.206,365.95 948.206,362.543 C948.206,361.653 948.3,360.746 948.597,359.84"/>
<path class="Note" d="M960.003,328.042 C945.503,328.042 936.503,334.151 936.503,341.542 C936.503,348.839 942.706,355.339 958.909,355.339 C976.706,355.339 982.409,349.151 982.409,341.542 C982.409,333.839 970.112,328.042 960.003,328.042 M948.597,334.839 C949.8,331.151 953.8,330.542 957.206,330.542 C964.612,330.542 970.612,338.542 970.612,345.151 C970.612,345.839 970.503,346.542 970.409,347.151 C969.909,349.839 968.3,351.745 965.612,352.448 C964.503,352.745 963.409,352.839 962.3,352.839 C961.3,352.839 960.409,352.745 959.409,352.448 C957.597,351.839 955.8,350.839 954.3,349.542 C953.503,348.839 952.706,348.042 952.003,347.151 C949.909,344.651 948.206,340.948 948.206,337.542 C948.206,336.651 948.3,335.745 948.597,334.839"/>
<path class="Note" d="M1238.34,405.748 C1256.74,405.748 1260.45,390.748 1260.45,387.154 C1260.45,381.451 1255.95,377.748 1249.45,377.748 C1232.74,377.748 1227.54,390.654 1227.54,396.451 C1227.54,402.342 1232.24,405.748 1238.34,405.748 M1246.84,396.842 C1241.84,400.248 1238.34,401.451 1235.95,401.451 C1233.63,401.451 1232.24,400.248 1231.54,398.842 C1231.13,398.248 1230.84,397.451 1230.84,396.654 C1230.84,394.248 1233.24,391.154 1240.95,386.748 C1246.45,383.545 1249.95,382.342 1252.24,382.342 C1254.34,382.342 1255.54,383.342 1256.34,384.748 C1256.65,385.342 1256.95,386.045 1256.95,386.842 C1256.95,389.045 1254.65,391.748 1246.84,396.842"/>
<path class="Note" d="M1238.34,380.746 C1256.74,380.746 1260.45,365.746 1260.45,362.153 C1260.45,356.45 1255.95,352.746 1249.45,352.746 C1232.74,352.746 1227.54,365.653 1227.54,371.45 C1227.54,377.34 1232.24,380.746 1238.34,380.746 M1246.84,371.84 C1241.84,375.246 1238.34,376.45 1235.95,376.45 C1233.63,376.45 1232.24,375.246 1231.54,373.84 C1231.13,373.246 1230.84,372.45 1230.84,371.653 C1230.84,369.246 1233.24,366.153 1240.95,361.746 C1246.45,358.543 1249.95,357.34 1252.24,357.34 C1254.34,357.34 1255.54,358.34 1256.34,359.746 C1256.65,360.34 1256.95,361.043 1256.95,361.84 C1256.95,364.043 1254.65,366.746 1246.84,371.84"/>
<path class="Note" d="M1238.34,355.745 C1256.74,355.745 1260.45,340.745 1260.45,337.151 C1260.45,331.448 1255.95,327.745 1249.45,327.745 C1232.74,327.745 1227.54,340.651 1227.54,346.448 C1227.54,352.339 1232.24,355.745 1238.34,355.745 M1246.84,346.839 C1241.84,350.245 1238.34,351.448 1235.95,351.448 C1233.63,351.448 1232.24,350.245 1231.54,348.839 C1231.13,348.245 1230.84,347.448 1230.84,346.651 C1230.84,344.245 1233.24,341.151 1240.95,336.745 C1246.45,333.542 1249.95,332.339 1252.24,332.339 C1254.34,332.339 1255.54,333.339 1256.34,334.745 C1256.65,335.339 1256.95,336.042 1256.95,336.839 C1256.95,339.042 1254.65,341.745 1246.84,346.839"/>
<path class="Note" d="M1392.31,405.748 C1410.71,405.748 1414.42,390.748 1414.42,387.154 C1414.42,381.451 1409.92,377.748 1403.42,377.748 C1386.71,377.748 1381.51,390.654 1381.51,396.451 C1381.51,402.342 1386.21,405.748 1392.31,405.748 M1400.81,396.842 C1395.81,400.248 1392.31,401.451 1389.92,401.451 C1387.6,401.451 1386.21,400.248 1385.51,398.842 C1385.1,398.248 1384.81,397.451 1384.81,396.654 C1384.81,394.248 1387.21,391.154 1394.92,386.748 C1400.42,383.545 1403.92,382.342 1406.21,382.342 C1408.31,382.342 1409.51,383.342 1410.31,384.748 C1410.62,385.342 1410.92,386.045 1410.92,386.842 C1410.92,389.045 1408.62,391.748 1400.81,396.842"/>
<path class="Note" d="M1392.31,380.746 C1410.71,380.746 1414.42,365.746 1414.42,362.153 C1414.42,356.45 1409.92,352.746 1403.42,352.746 C1386.71,352.746 1381.51,365.653 1381.51,371.45 C1381.51,377.34 1386.21,380.746 1392.31,380.746 M1400.81,371.84 C1395.81,375.246 1392.31,376.45 1389.92,376.45 C1387.6,376.45 1386.21,375.246 1385.51,373.84 C1385.1,373.246 1384.81,372.45 1384.81,371.653 C1384.81,369.246 1387.21,366.153 1394.92,361.746 C1400.42,358.543 1403.92,357.34 1406.21,357.34 C1408.31,357.34 1409.51,358.34 1410.31,359.746 C1410.62,360.34 1410.92,361.043 1410.92,361.84 C1410.92,364.043 1408.62,366.746 1400.81,371.84"/>
<path class="Note" d="M1392.31,355.745 C1410.71,355.745 1414.42,340.745 1414.42,337.151 C1414.42,331.448 1409.92,327.745 1403.42,327.745 C1386.71,327.745 1381.51,340.651 1381.51,346.448 C1381.51,352.339 1386.21,355.745 1392.31,355.745 M1400.81,346.839 C1395.81,350.245 1392.31,351.448 1389.92,351.448 C1387.6,351.448 1386.21,350.245 1385.51,348.839 C1385.1,348.245 1384.81,347.448 1384.81,346.651 C1384.81,344.245 1387.21,341.151 1394.92,336.745 C1400.42,333.542 1403.92,332.339 1406.21,332.339 C1408.31,332.339 1409.51,333.339 1410.31,334.745 C1410.62,335.339 1410.92,336.042 1410.92,336.839 C1410.92,339.042 1408.62,341.745 1400.81,346.839"/>
<path class="Note" d="M1629.07,403.046 C1614.57,403.046 1605.57,409.156 1605.57,416.546 C1605.57,423.843 1611.77,430.343 1627.98,430.343 C1645.77,430.343 1651.48,424.156 1651.48,416.546 C1651.48,408.843 1639.18,403.046 1629.07,403.046 M1617.66,409.843 C1618.87,406.156 1622.87,405.546 1626.27,405.546 C1633.68,405.546 1639.68,413.546 1639.68,420.156 C1639.68,420.843 1639.57,421.546 1639.48,422.156 C1638.98,424.843 1637.37,426.75 1634.68,427.453 C1633.57,427.75 1632.48,427.843 1631.37,427.843 C1630.37,427.843 1629.48,427.75 1628.48,427.453 C1626.66,426.843 1624.87,425.843 1623.37,424.546 C1622.57,423.843 1621.77,423.046 1621.07,422.156 C1618.98,419.656 1617.27,415.953 1617.27,412.546 C1617.27,411.656 1617.37,410.75 1617.66,409.843"/>
<path class="Note" d="M1629.07,365.544 C1614.57,365.544 1605.57,371.653 1605.57,379.044 C1605.57,386.341 1611.77,392.841 1627.98,392.841 C1645.77,392.841 1651.48,386.653 1651.48,379.044 C1651.48,371.341 1639.18,365.544 1629.07,365.544 M1617.66,372.341 C1618.87,368.653 1622.87,368.044 1626.27,368.044 C1633.68,368.044 1639.68,376.044 1639.68,382.653 C1639.68,383.341 1639.57,384.044 1639.48,384.653 C1638.98,387.341 1637.37,389.247 1634.68,389.95 C1633.57,390.247 1632.48,390.341 1631.37,390.341 C1630.37,390.341 1629.48,390.247 1628.48,389.95 C1626.66,389.341 1624.87,388.341 1623.37,387.044 C1622.57,386.341 1621.77,385.544 1621.07,384.653 C1618.98,382.153 1617.27,378.45 1617.27,375.044 C1617.27,374.153 1617.37,373.247 1617.66,372.341"/>
<path class="Note" d="M1629.07,340.543 C1614.57,340.543 1605.57,346.652 1605.57,354.043 C1605.57,361.339 1611.77,367.839 1627.98,367.839 C1645.77,367.839 1651.48,361.652 1651.48,354.043 C1651.48,346.339 1639.18,340.543 1629.07,340.543 M1617.66,347.339 C1618.87,343.652 1622.87,343.043 1626.27,343.043 C1633.68,343.043 1639.68,351.043 1639.68,357.652 C1639.68,358.339 1639.57,359.043 1639.48,359.652 C1638.98,362.339 1637.37,364.246 1634.68,364.949 C1633.57,365.246 1632.48,365.339 1631.37,365.339 C1630.37,365.339 1629.48,365.246 1628.48,364.949 C1626.66,364.339 1624.87,363.339 1623.37,362.043 C1622.57,361.339 1621.77,360.543 1621.07,359.652 C1618.98,357.152 1617.27,353.449 1617.27,350.043 C1617.27,349.152 1617.37,348.246 1617.66,347.339"/>
<path class="Clef" d="M232.937,578.058 C215.531,578.058 207.734,590.761 207.734,600.355 C207.734,608.355 211.937,615.261 220.031,615.261 C226.328,615.261 230.64,610.855 230.64,604.668 C230.64,598.261 225.937,594.261 221.031,594.261 C218.328,594.261 217.328,594.965 216.031,594.965 C214.734,594.965 214.437,594.168 214.437,593.168 C214.437,589.168 220.437,581.855 230.64,581.855 C241.234,581.855 245.843,592.261 245.843,607.965 C245.843,618.261 243.64,630.261 237.437,639.871 C231.437,649.168 221.14,657.668 208.734,664.761 C207.828,665.261 207.234,665.761 207.234,666.558 C207.234,667.168 207.64,667.761 208.531,667.761 C209.031,667.761 209.64,667.558 210.234,667.261 C223.531,660.761 236.343,653.168 246.937,641.761 C255.64,632.371 260.843,620.168 260.843,607.058 C260.843,589.668 250.234,578.058 232.937,578.058 M270.734,611.355 C267.64,611.355 265.343,613.668 265.343,616.761 C265.343,619.855 267.64,622.168 270.734,622.168 C273.843,622.168 276.14,619.855 276.14,616.761 C276.14,613.668 273.843,611.355 270.734,611.355 M270.64,586.261 C267.531,586.261 265.14,588.668 265.14,591.761 C265.14,594.855 267.531,597.261 270.64,597.261 C273.734,597.261 276.14,594.855 276.14,591.761 C276.14,588.668 273.734,586.261 270.64,586.261"/>
<path class="Clef" d="M254.734,297.436 C258.031,297.436 260.734,300.139 260.734,305.639 C260.734,312.545 257.437,318.951 249.64,326.748 C248.031,328.342 245.64,330.639 243.343,332.639 C242.64,333.248 242.234,333.139 242.031,331.842 C241.64,329.248 241.437,325.842 241.437,322.639 C241.437,307.045 248.64,297.436 254.734,297.436 M250.734,381.451 C250.531,380.248 250.64,379.951 251.843,380.045 C259.937,380.748 266.64,387.545 266.64,396.342 C266.64,402.654 262.843,407.748 257.234,410.545 C256.031,411.154 255.843,411.154 255.64,409.951 L250.734,381.451 M243.843,365.545 C244.14,367.451 244.14,367.342 242.343,367.951 C233.531,370.951 227.828,378.842 227.828,387.342 C227.828,396.342 232.531,402.748 239.343,405.045 C240.14,405.342 241.343,405.654 242.031,405.654 C242.843,405.654 243.234,405.154 243.234,404.545 C243.234,403.842 242.437,403.545 241.734,403.248 C237.531,401.451 234.531,397.154 234.531,392.545 C234.531,386.842 238.437,382.545 244.531,380.842 C246.14,380.451 246.343,380.545 246.531,381.654 L251.531,411.451 C251.734,412.545 251.64,412.545 250.14,412.842 C248.531,413.154 246.531,413.342 244.531,413.342 C227.031,413.342 215.734,403.654 215.734,389.748 C215.734,383.842 216.734,375.951 225.031,366.545 C231.031,359.842 235.64,356.139 240.343,352.342 C241.343,351.545 241.531,351.639 241.734,352.748 L243.843,365.545 M245.343,350.248 C245.14,349.045 245.343,348.951 245.937,348.342 C247.531,346.842 249.64,344.748 251.531,342.639 C259.937,333.451 264.937,321.545 264.937,310.248 C264.937,301.545 262.531,292.936 258.437,286.936 C256.937,284.748 254.343,281.936 253.234,281.936 C251.843,281.936 248.734,284.545 246.734,286.748 C239.343,294.936 236.937,307.436 236.937,317.842 C236.937,323.639 237.64,330.139 238.343,334.248 C238.531,335.451 238.64,335.639 237.437,336.639 C231.031,341.951 224.14,348.045 218.937,354.451 C212.031,363.045 207.734,372.342 207.734,383.045 C207.734,400.451 219.64,416.951 244.14,416.951 C246.437,416.951 249.031,416.748 251.031,416.342 C252.14,416.154 252.343,416.045 252.531,417.248 C253.734,423.951 255.234,432.654 255.234,437.357 C255.234,452.154 245.234,453.951 239.343,453.951 C233.937,453.951 231.328,452.357 231.328,451.045 C231.328,450.357 232.234,450.045 234.531,449.357 C237.64,448.451 241.234,445.748 241.234,439.951 C241.234,434.451 237.734,429.748 231.64,429.748 C224.937,429.748 220.937,435.045 220.937,441.248 C220.937,447.748 224.828,457.545 239.937,457.545 C246.64,457.545 259.64,454.545 259.64,437.545 C259.64,431.857 257.843,422.357 256.734,416.154 C256.531,414.951 256.64,415.045 258.031,414.451 C268.14,410.451 274.843,401.951 274.843,390.654 C274.843,377.842 265.437,366.545 250.734,366.545 C248.14,366.545 248.14,366.545 247.843,364.748 L245.343,350.248 "/>
<path class="Bracket" transform="matrix(3.62523,0,0,3.62523,144.23,679.266)" d="M2,-49.7969 C4.90625,-51.6094 8.20313,-58.7031 8.20313,-64.6094 C8.20313,-65.1094 8.20313,-65.7031 8.09375,-66.2031 C7.40625,-72.2031 4.40625,-81.5 4.40625,-86.9063 C4.40625,-92.1094 6.70313,-97.1094 7.20313,-98 C7.59375,-98.4063 7.70313,-98.7031 7.70313,-99 C7.70313,-99.2031 7.59375,-99.4063 7.5,-99.4063 C7.40625,-99.5 7.29688,-99.7031 7.09375,-99.7031 C6.90625,-99.7031 6.70313,-99.5 6.29688,-99 C4.09375,-96.3125 1.40625,-90.5 1.40625,-80.5 C1.40625,-70.6094 4.90625,-66.6094 4.90625,-60.2969 C4.90625,-55.6094 3,-53 0.203125,-49.7969 C2,-47.7969 4.90625,-46.2031 4.90625,-39.7031 C4.90625,-32.7031 1.40625,-26.5 1.40625,-19.2031 C1.40625,-9.20313 4.09375,-3.40625 6.29688,-0.59375 C6.70313,-0.09375 6.90625,0 7.09375,0 C7.29688,0 7.40625,-0.09375 7.5,-0.203125 C7.59375,-0.296875 7.70313,-0.40625 7.70313,-0.59375 C7.70313,-0.90625 7.59375,-1.20313 7.20313,-1.70313 C6.70313,-2.5 4.40625,-7.5 4.40625,-12.7969 C4.40625,-18.0938 7.40625,-27.5 8.09375,-33.4063 C8.20313,-33.9063 8.20313,-34.4063 8.20313,-35 C8.20313,-40.9063 4.90625,-48 2,-49.7969"/>
</svg>
