<?xml version="1.0" encoding="UTF-8" standalone="no"?>
<svg width="2977.23px" height="4208.47px" viewBox="0 0 2977.23 4208.47"
 xmlns="http://www.w3.org/2000/svg" xmlns:xlink="http://www.w3.org/1999/xlink" version="1.2" baseProfile="tiny">
<title>Zwerg-Struktur (7)</title>
<desc>Generated by MuseScore 3.4.2</desc>
<polyline class="StaffLines" fill="none" stroke="#000000" stroke-width="3.25" stroke-linejoin="bevel" points="183.232,316.743 2835.5,316.743"/>
<polyline class="StaffLines" fill="none" stroke="#000000" stroke-width="3.25" stroke-linejoin="bevel" points="183.232,341.745 2835.5,341.745"/>
<polyline class="StaffLines" fill="none" stroke="#000000" stroke-width="3.25" stroke-linejoin="bevel" points="183.232,366.746 2835.5,366.746"/>
<polyline class="StaffLines" fill="none" stroke="#000000" stroke-width="3.25" stroke-linejoin="bevel" points="183.232,391.748 2835.5,391.748"/>
<polyline class="StaffLines" fill="none" stroke="#000000" stroke-width="3.25" stroke-linejoin="bevel" points="183.232,416.75 2835.5,416.75"/>
<polyline class="StaffLines" fill="none" stroke="#000000" stroke-width="3.25" stroke-linejoin="bevel" points="183.232,579.26 2835.5,579.26"/>
<polyline class="StaffLines" fill="none" stroke="#000000" stroke-width="3.25" stroke-linejoin="bevel" points="183.232,604.261 2835.5,604.261"/>
<polyline class="StaffLines" fill="none" stroke="#000000" stroke-width="3.25" stroke-linejoin="bevel" points="183.232,629.263 2835.5,629.263"/>
<polyline class="StaffLines" fill="none" stroke="#000000" stroke-width="3.25" stroke-linejoin="bevel" points="183.232,654.265 2835.5,654.265"/>
<polyline class="StaffLines" fill="none" stroke="#000000" stroke-width="3.25" stroke-linejoin="bevel" points="183.232,679.266 2835.5,679.266"/>
<polyline class="BarLine" fill="none" stroke="#000000" stroke-width="4.00" stroke-linejoin="bevel" points="185.233,577.635 185.233,680.891"/>
<polyline class="BarLine" fill="none" stroke="#000000" stroke-width="4.00" stroke-linejoin="bevel" points="584.37,577.635 584.37,680.891"/>
<polyline class="BarLine" fill="none" stroke="#000000" stroke-width="4.00" stroke-linejoin="bevel" points="929.581,577.635 929.581,680.891"/>
<polyline class="BarLine" fill="none" stroke="#000000" stroke-width="4.00" stroke-linejoin="bevel" points="1288.85,577.635 1288.85,680.891"/>
<polyline class="BarLine" fill="none" stroke="#000000" stroke-width="4.00" stroke-linejoin="bevel" points="1666.62,577.635 1666.62,680.891"/>
<polyline class="BarLine" fill="none" stroke="#000000" stroke-width="4.00" stroke-linejoin="bevel" points="2025.89,577.635 2025.89,680.891"/>
<polyline class="BarLine" fill="none" stroke="#000000" stroke-width="4.00" stroke-linejoin="bevel" points="2299.69,577.635 2299.69,680.891"/>
<polyline class="BarLine" fill="none" stroke="#000000" stroke-width="4.00" stroke-linejoin="bevel" points="2539.35,577.635 2539.35,680.891"/>
<polyline class="BarLine" fill="none" stroke="#000000" stroke-width="4.00" stroke-linejoin="bevel" points="2833.5,577.635 2833.5,680.891"/>
<polyline class="BarLine" fill="none" stroke="#000000" stroke-width="4.00" stroke-linejoin="bevel" points="185.233,315.118 185.233,579.26"/>
<polyline class="BarLine" fill="none" stroke="#000000" stroke-width="4.00" stroke-linejoin="bevel" points="584.37,315.118 584.37,579.26"/>
<polyline class="BarLine" fill="none" stroke="#000000" stroke-width="4.00" stroke-linejoin="bevel" points="929.581,315.118 929.581,579.26"/>
<polyline class="BarLine" fill="none" stroke="#000000" stroke-width="4.00" stroke-linejoin="bevel" points="1288.85,315.118 1288.85,579.26"/>
<polyline class="BarLine" fill="none" stroke="#000000" stroke-width="4.00" stroke-linejoin="bevel" points="1666.62,315.118 1666.62,579.26"/>
<polyline class="BarLine" fill="none" stroke="#000000" stroke-width="4.00" stroke-linejoin="bevel" points="2025.89,315.118 2025.89,579.26"/>
<polyline class="BarLine" fill="none" stroke="#000000" stroke-width="4.00" stroke-linejoin="bevel" points="2299.69,315.118 2299.69,579.26"/>
<polyline class="BarLine" fill="none" stroke="#000000" stroke-width="4.00" stroke-linejoin="bevel" points="2539.35,315.118 2539.35,579.26"/>
<polyline class="BarLine" fill="none" stroke="#000000" stroke-width="4.00" stroke-linejoin="bevel" points="2833.5,315.118 2833.5,579.26"/>
<path class="Accidental" d="M653.372,601.668 C652.872,601.668 652.466,601.668 651.966,601.762 C650.763,602.059 649.669,602.668 648.669,603.262 C647.966,603.668 647.169,604.559 646.263,604.559 C646.059,604.559 645.872,604.559 645.763,604.465 C645.059,604.262 644.763,603.559 644.763,602.762 C644.763,600.668 645.372,576.559 645.372,574.653 C645.372,573.559 644.466,573.059 643.466,573.059 C642.169,573.059 640.559,573.965 640.372,575.653 C640.372,575.653 640.466,589.356 640.669,603.262 C639.169,602.262 637.466,601.668 635.559,601.668 L634.966,601.668 C634.466,601.668 633.966,601.668 633.559,601.762 C632.372,602.059 631.263,602.668 630.263,603.262 C629.466,603.668 628.763,604.559 627.872,604.559 C627.669,604.559 627.559,604.559 627.372,604.465 C626.669,604.262 626.263,603.559 626.263,602.762 C626.263,600.668 626.966,576.559 626.966,574.653 C626.966,573.559 626.059,573.059 625.059,573.059 C623.669,573.059 622.059,573.965 621.966,575.653 C621.966,575.653 622.466,632.856 623.169,633.762 C623.466,634.168 623.763,634.262 624.059,634.262 C624.372,634.262 624.669,634.059 624.669,634.059 C627.763,632.465 630.263,629.668 632.559,627.965 C636.263,625.356 639.059,622.668 640.966,620.262 C641.169,627.762 641.372,633.465 641.669,633.762 C641.966,634.168 642.263,634.262 642.466,634.262 C642.763,634.262 643.059,634.059 643.059,634.059 C646.169,632.465 648.575,629.668 650.872,628.059 C659.872,621.762 663.075,615.668 663.075,611.059 C663.075,605.465 658.669,601.762 653.966,601.668 L653.372,601.668 M636.059,618.559 C634.763,620.965 631.872,624.059 628.669,626.059 C628.372,626.262 627.966,626.356 627.763,626.356 C626.966,626.356 626.669,625.356 626.669,624.762 C626.669,624.762 626.372,618.856 626.372,614.965 C626.372,613.356 626.466,612.168 626.559,611.762 C626.966,610.465 629.669,608.262 631.059,607.465 C631.966,606.965 632.872,606.762 633.669,606.762 C634.669,606.762 635.466,607.059 636.059,607.762 C637.059,608.965 637.669,610.668 637.669,612.668 C637.669,614.465 637.169,616.559 636.059,618.559 M654.372,618.559 C653.169,620.965 650.263,624.059 647.059,626.059 C646.669,626.262 646.372,626.356 646.169,626.356 C645.372,626.356 645.059,625.356 645.059,624.762 C645.059,624.762 644.763,617.856 644.763,614.059 C644.763,612.965 644.763,612.059 644.872,611.762 C645.263,610.465 647.966,608.262 649.466,607.465 C650.372,606.965 651.263,606.762 652.075,606.762 C653.075,606.762 653.872,607.059 654.466,607.762 C655.372,608.965 655.966,610.668 655.966,612.668 C655.966,614.465 655.466,616.465 654.372,618.559"/>
<path class="Accidental" d="M1004.44,637.357 C1004.44,637.357 1004.14,631.357 1004.14,627.357 C1004.14,625.763 1004.23,624.56 1004.33,624.169 C1004.73,622.966 1007.33,620.763 1008.73,619.966 C1009.64,619.466 1010.53,619.263 1011.33,619.263 C1012.33,619.263 1013.23,619.669 1013.83,620.357 C1014.83,621.466 1015.44,623.169 1015.44,625.06 C1015.44,626.857 1014.94,628.966 1013.73,631.06 C1012.44,633.466 1009.53,636.669 1006.53,638.56 C1006.14,638.763 1005.83,638.857 1005.53,638.857 C1004.64,638.857 1004.44,637.857 1004.44,637.357 M1000.94,646.263 C1001.23,646.669 1001.53,646.763 1001.83,646.763 C1002.14,646.763 1002.44,646.56 1002.44,646.56 C1005.44,644.857 1007.83,642.169 1010.33,640.466 C1019.23,634.263 1022.33,628.169 1022.33,623.56 C1022.33,617.857 1017.94,614.263 1013.33,613.966 C1012.64,613.966 1011.94,614.06 1011.23,614.263 C1010.14,614.56 1008.94,614.966 1007.83,615.669 C1007.23,616.169 1006.14,617.06 1005.64,617.06 C1005.44,617.06 1005.33,617.06 1005.14,616.966 C1004.44,616.669 1004.03,615.966 1004.03,615.263 C1004.14,613.06 1004.73,589.06 1004.73,587.06 C1004.73,585.966 1003.83,585.357 1002.83,585.357 C1001.44,585.357 999.828,586.357 999.734,588.154 C999.734,588.154 1000.14,645.263 1000.94,646.263"/>
<path class="Accidental" d="M1741.47,649.858 C1741.47,649.858 1741.18,643.858 1741.18,639.858 C1741.18,638.264 1741.27,637.061 1741.36,636.67 C1741.77,635.467 1744.36,633.264 1745.77,632.467 C1746.68,631.967 1747.57,631.764 1748.36,631.764 C1749.36,631.764 1750.27,632.17 1750.86,632.858 C1751.86,633.967 1752.47,635.67 1752.47,637.561 C1752.47,639.358 1751.97,641.467 1750.77,643.561 C1749.47,645.967 1746.57,649.17 1743.57,651.061 C1743.18,651.264 1742.86,651.358 1742.57,651.358 C1741.68,651.358 1741.47,650.358 1741.47,649.858 M1737.97,658.764 C1738.27,659.17 1738.57,659.264 1738.86,659.264 C1739.18,659.264 1739.47,659.061 1739.47,659.061 C1742.47,657.358 1744.86,654.67 1747.36,652.967 C1756.27,646.764 1759.36,640.67 1759.36,636.061 C1759.36,630.358 1754.97,626.764 1750.36,626.467 C1749.68,626.467 1748.97,626.561 1748.27,626.764 C1747.18,627.061 1745.97,627.467 1744.86,628.17 C1744.27,628.67 1743.18,629.561 1742.68,629.561 C1742.47,629.561 1742.36,629.561 1742.18,629.467 C1741.47,629.17 1741.07,628.467 1741.07,627.764 C1741.18,625.561 1741.77,601.561 1741.77,599.561 C1741.77,598.467 1740.86,597.858 1739.86,597.858 C1738.47,597.858 1736.86,598.858 1736.77,600.654 C1736.77,600.654 1737.18,657.764 1737.97,658.764"/>
<path class="Accidental" d="M2082.24,662.358 C2082.24,662.358 2081.94,656.358 2081.94,652.358 C2081.94,650.765 2082.04,649.561 2082.13,649.171 C2082.54,647.968 2085.13,645.765 2086.54,644.968 C2087.44,644.468 2088.33,644.265 2089.13,644.265 C2090.13,644.265 2091.04,644.671 2091.63,645.358 C2092.63,646.468 2093.24,648.171 2093.24,650.061 C2093.24,651.858 2092.74,653.968 2091.54,656.061 C2090.24,658.468 2087.33,661.671 2084.33,663.561 C2083.94,663.765 2083.63,663.858 2083.33,663.858 C2082.44,663.858 2082.24,662.858 2082.24,662.358 M2078.74,671.265 C2079.04,671.671 2079.33,671.765 2079.63,671.765 C2079.94,671.765 2080.24,671.561 2080.24,671.561 C2083.24,669.858 2085.63,667.171 2088.13,665.468 C2097.04,659.265 2100.13,653.171 2100.13,648.561 C2100.13,642.858 2095.74,639.265 2091.13,638.968 C2090.44,638.968 2089.74,639.061 2089.04,639.265 C2087.94,639.561 2086.74,639.968 2085.63,640.671 C2085.04,641.171 2083.94,642.061 2083.44,642.061 C2083.24,642.061 2083.13,642.061 2082.94,641.968 C2082.24,641.671 2081.83,640.968 2081.83,640.265 C2081.94,638.061 2082.54,614.061 2082.54,612.061 C2082.54,610.968 2081.63,610.358 2080.63,610.358 C2079.24,610.358 2077.63,611.358 2077.54,613.155 C2077.54,613.155 2077.94,670.265 2078.74,671.265"/>
<path class="Accidental" d="M2313.89,662.358 C2313.89,662.358 2313.6,656.358 2313.6,652.358 C2313.6,650.765 2313.69,649.561 2313.79,649.171 C2314.19,647.968 2316.79,645.765 2318.19,644.968 C2319.1,644.468 2319.99,644.265 2320.79,644.265 C2321.79,644.265 2322.69,644.671 2323.29,645.358 C2324.29,646.468 2324.89,648.171 2324.89,650.061 C2324.89,651.858 2324.39,653.968 2323.19,656.061 C2321.89,658.468 2318.99,661.671 2315.99,663.561 C2315.6,663.765 2315.29,663.858 2314.99,663.858 C2314.1,663.858 2313.89,662.858 2313.89,662.358 M2310.39,671.265 C2310.69,671.671 2310.99,671.765 2311.29,671.765 C2311.6,671.765 2311.89,671.561 2311.89,671.561 C2314.89,669.858 2317.29,667.171 2319.79,665.468 C2328.69,659.265 2331.79,653.171 2331.79,648.561 C2331.79,642.858 2327.39,639.265 2322.79,638.968 C2322.1,638.968 2321.39,639.061 2320.69,639.265 C2319.6,639.561 2318.39,639.968 2317.29,640.671 C2316.69,641.171 2315.6,642.061 2315.1,642.061 C2314.89,642.061 2314.79,642.061 2314.6,641.968 C2313.89,641.671 2313.49,640.968 2313.49,640.265 C2313.6,638.061 2314.19,614.061 2314.19,612.061 C2314.19,610.968 2313.29,610.358 2312.29,610.358 C2310.89,610.358 2309.29,611.358 2309.19,613.155 C2309.19,613.155 2309.6,670.265 2310.39,671.265"/>
<path class="Accidental" d="M2611.05,712.361 C2611.05,712.361 2610.75,706.361 2610.75,702.361 C2610.75,700.768 2610.84,699.565 2610.94,699.174 C2611.34,697.971 2613.94,695.768 2615.34,694.971 C2616.25,694.471 2617.14,694.268 2617.94,694.268 C2618.94,694.268 2619.84,694.674 2620.44,695.361 C2621.44,696.471 2622.05,698.174 2622.05,700.065 C2622.05,701.861 2621.55,703.971 2620.34,706.065 C2619.05,708.471 2616.14,711.674 2613.14,713.565 C2612.75,713.768 2612.44,713.861 2612.14,713.861 C2611.25,713.861 2611.05,712.861 2611.05,712.361 M2607.55,721.268 C2607.84,721.674 2608.14,721.768 2608.44,721.768 C2608.75,721.768 2609.05,721.565 2609.05,721.565 C2612.05,719.861 2614.44,717.174 2616.94,715.471 C2625.84,709.268 2628.94,703.174 2628.94,698.565 C2628.94,692.861 2624.55,689.268 2619.94,688.971 C2619.25,688.971 2618.55,689.065 2617.84,689.268 C2616.75,689.565 2615.55,689.971 2614.44,690.674 C2613.84,691.174 2612.75,692.065 2612.25,692.065 C2612.05,692.065 2611.94,692.065 2611.75,691.971 C2611.05,691.674 2610.64,690.971 2610.64,690.268 C2610.75,688.065 2611.34,664.065 2611.34,662.065 C2611.34,660.971 2610.44,660.361 2609.44,660.361 C2608.05,660.361 2606.44,661.361 2606.34,663.158 C2606.34,663.158 2606.75,720.268 2607.55,721.268"/>
<path class="Accidental" d="M342.039,399.842 C342.039,399.842 341.742,393.842 341.742,389.842 C341.742,388.248 341.836,387.045 341.93,386.654 C342.336,385.451 344.93,383.248 346.336,382.451 C347.242,381.951 348.133,381.748 348.93,381.748 C349.93,381.748 350.836,382.154 351.43,382.842 C352.43,383.951 353.039,385.654 353.039,387.545 C353.039,389.342 352.539,391.451 351.336,393.545 C350.039,395.951 347.133,399.154 344.133,401.045 C343.742,401.248 343.43,401.342 343.133,401.342 C342.242,401.342 342.039,400.342 342.039,399.842 M338.539,408.748 C338.836,409.154 339.133,409.248 339.43,409.248 C339.742,409.248 340.039,409.045 340.039,409.045 C343.039,407.342 345.43,404.654 347.93,402.951 C356.836,396.748 359.93,390.654 359.93,386.045 C359.93,380.342 355.539,376.748 350.93,376.451 C350.242,376.451 349.539,376.545 348.836,376.748 C347.742,377.045 346.539,377.451 345.43,378.154 C344.836,378.654 343.742,379.545 343.242,379.545 C343.039,379.545 342.93,379.545 342.742,379.451 C342.039,379.154 341.633,378.451 341.633,377.748 C341.742,375.545 342.336,351.545 342.336,349.545 C342.336,348.451 341.43,347.842 340.43,347.842 C339.039,347.842 337.43,348.842 337.336,350.639 C337.336,350.639 337.742,407.748 338.539,408.748"/>
<path class="Accidental" d="M2068.18,399.842 C2068.18,399.842 2067.89,393.842 2067.89,389.842 C2067.89,388.248 2067.98,387.045 2068.08,386.654 C2068.48,385.451 2071.08,383.248 2072.48,382.451 C2073.39,381.951 2074.28,381.748 2075.08,381.748 C2076.08,381.748 2076.98,382.154 2077.58,382.842 C2078.58,383.951 2079.18,385.654 2079.18,387.545 C2079.18,389.342 2078.68,391.451 2077.48,393.545 C2076.18,395.951 2073.28,399.154 2070.28,401.045 C2069.89,401.248 2069.58,401.342 2069.28,401.342 C2068.39,401.342 2068.18,400.342 2068.18,399.842 M2064.68,408.748 C2064.98,409.154 2065.28,409.248 2065.58,409.248 C2065.89,409.248 2066.18,409.045 2066.18,409.045 C2069.18,407.342 2071.58,404.654 2074.08,402.951 C2082.98,396.748 2086.08,390.654 2086.08,386.045 C2086.08,380.342 2081.68,376.748 2077.08,376.451 C2076.39,376.451 2075.68,376.545 2074.98,376.748 C2073.89,377.045 2072.68,377.451 2071.58,378.154 C2070.98,378.654 2069.89,379.545 2069.39,379.545 C2069.18,379.545 2069.08,379.545 2068.89,379.451 C2068.18,379.154 2067.78,378.451 2067.78,377.748 C2067.89,375.545 2068.48,351.545 2068.48,349.545 C2068.48,348.451 2067.58,347.842 2066.58,347.842 C2065.18,347.842 2063.58,348.842 2063.48,350.639 C2063.48,350.639 2063.89,407.748 2064.68,408.748"/>
<path class="Accidental" d="M598.573,399.842 C598.573,399.842 598.276,393.842 598.276,389.842 C598.276,388.248 598.37,387.045 598.464,386.654 C598.87,385.451 601.464,383.248 602.87,382.451 C603.776,381.951 604.667,381.748 605.464,381.748 C606.464,381.748 607.37,382.154 607.964,382.842 C608.964,383.951 609.573,385.654 609.573,387.545 C609.573,389.342 609.073,391.451 607.87,393.545 C606.573,395.951 603.667,399.154 600.667,401.045 C600.276,401.248 599.964,401.342 599.667,401.342 C598.776,401.342 598.573,400.342 598.573,399.842 M595.073,408.748 C595.37,409.154 595.667,409.248 595.964,409.248 C596.276,409.248 596.573,409.045 596.573,409.045 C599.573,407.342 601.964,404.654 604.464,402.951 C613.37,396.748 616.464,390.654 616.464,386.045 C616.464,380.342 612.073,376.748 607.464,376.451 C606.776,376.451 606.073,376.545 605.37,376.748 C604.276,377.045 603.073,377.451 601.964,378.154 C601.37,378.654 600.276,379.545 599.776,379.545 C599.573,379.545 599.464,379.545 599.276,379.451 C598.573,379.154 598.167,378.451 598.167,377.748 C598.276,375.545 598.87,351.545 598.87,349.545 C598.87,348.451 597.964,347.842 596.964,347.842 C595.573,347.842 593.964,348.842 593.87,350.639 C593.87,350.639 594.276,407.748 595.073,408.748"/>
<path class="Accidental" d="M653.372,351.653 C652.872,351.653 652.466,351.653 651.966,351.746 C650.763,352.043 649.669,352.653 648.669,353.246 C647.966,353.653 647.169,354.543 646.263,354.543 C646.059,354.543 645.872,354.543 645.763,354.45 C645.059,354.246 644.763,353.543 644.763,352.746 C644.763,350.653 645.372,326.543 645.372,324.637 C645.372,323.543 644.466,323.043 643.466,323.043 C642.169,323.043 640.559,323.95 640.372,325.637 C640.372,325.637 640.466,339.34 640.669,353.246 C639.169,352.246 637.466,351.653 635.559,351.653 L634.966,351.653 C634.466,351.653 633.966,351.653 633.559,351.746 C632.372,352.043 631.263,352.653 630.263,353.246 C629.466,353.653 628.763,354.543 627.872,354.543 C627.669,354.543 627.559,354.543 627.372,354.45 C626.669,354.246 626.263,353.543 626.263,352.746 C626.263,350.653 626.966,326.543 626.966,324.637 C626.966,323.543 626.059,323.043 625.059,323.043 C623.669,323.043 622.059,323.95 621.966,325.637 C621.966,325.637 622.466,382.84 623.169,383.746 C623.466,384.153 623.763,384.246 624.059,384.246 C624.372,384.246 624.669,384.043 624.669,384.043 C627.763,382.45 630.263,379.653 632.559,377.95 C636.263,375.34 639.059,372.653 640.966,370.246 C641.169,377.746 641.372,383.45 641.669,383.746 C641.966,384.153 642.263,384.246 642.466,384.246 C642.763,384.246 643.059,384.043 643.059,384.043 C646.169,382.45 648.575,379.653 650.872,378.043 C659.872,371.746 663.075,365.653 663.075,361.043 C663.075,355.45 658.669,351.746 653.966,351.653 L653.372,351.653 M636.059,368.543 C634.763,370.95 631.872,374.043 628.669,376.043 C628.372,376.246 627.966,376.34 627.763,376.34 C626.966,376.34 626.669,375.34 626.669,374.746 C626.669,374.746 626.372,368.84 626.372,364.95 C626.372,363.34 626.466,362.153 626.559,361.746 C626.966,360.45 629.669,358.246 631.059,357.45 C631.966,356.95 632.872,356.746 633.669,356.746 C634.669,356.746 635.466,357.043 636.059,357.746 C637.059,358.95 637.669,360.653 637.669,362.653 C637.669,364.45 637.169,366.543 636.059,368.543 M654.372,368.543 C653.169,370.95 650.263,374.043 647.059,376.043 C646.669,376.246 646.372,376.34 646.169,376.34 C645.372,376.34 645.059,375.34 645.059,374.746 C645.059,374.746 644.763,367.84 644.763,364.043 C644.763,362.95 644.763,362.043 644.872,361.746 C645.263,360.45 647.966,358.246 649.466,357.45 C650.372,356.95 651.263,356.746 652.075,356.746 C653.075,356.746 653.872,357.043 654.466,357.746 C655.372,358.95 655.966,360.653 655.966,362.653 C655.966,364.45 655.466,366.45 654.372,368.543"/>
<path class="Accidental" d="M990.382,399.842 C990.382,399.842 990.085,393.842 990.085,389.842 C990.085,388.248 990.179,387.045 990.272,386.654 C990.679,385.451 993.272,383.248 994.679,382.451 C995.585,381.951 996.475,381.748 997.272,381.748 C998.272,381.748 999.179,382.154 999.772,382.842 C1000.77,383.951 1001.38,385.654 1001.38,387.545 C1001.38,389.342 1000.88,391.451 999.679,393.545 C998.382,395.951 995.475,399.154 992.475,401.045 C992.085,401.248 991.772,401.342 991.475,401.342 C990.585,401.342 990.382,400.342 990.382,399.842 M986.882,408.748 C987.179,409.154 987.475,409.248 987.772,409.248 C988.085,409.248 988.382,409.045 988.382,409.045 C991.382,407.342 993.772,404.654 996.272,402.951 C1005.18,396.748 1008.27,390.654 1008.27,386.045 C1008.27,380.342 1003.88,376.748 999.272,376.451 C998.585,376.451 997.882,376.545 997.179,376.748 C996.085,377.045 994.882,377.451 993.772,378.154 C993.179,378.654 992.085,379.545 991.585,379.545 C991.382,379.545 991.272,379.545 991.085,379.451 C990.382,379.154 989.975,378.451 989.975,377.748 C990.085,375.545 990.679,351.545 990.679,349.545 C990.679,348.451 989.772,347.842 988.772,347.842 C987.382,347.842 985.772,348.842 985.679,350.639 C985.679,350.639 986.085,407.748 986.882,408.748"/>
<path class="Accidental" d="M970.488,351.653 C969.988,351.653 969.582,351.653 969.082,351.746 C967.879,352.043 966.785,352.653 965.785,353.246 C965.082,353.653 964.285,354.543 963.379,354.543 C963.176,354.543 962.988,354.543 962.879,354.45 C962.176,354.246 961.879,353.543 961.879,352.746 C961.879,350.653 962.488,326.543 962.488,324.637 C962.488,323.543 961.582,323.043 960.582,323.043 C959.285,323.043 957.676,323.95 957.488,325.637 C957.488,325.637 957.582,339.34 957.785,353.246 C956.285,352.246 954.582,351.653 952.676,351.653 L952.082,351.653 C951.582,351.653 951.082,351.653 950.676,351.746 C949.488,352.043 948.379,352.653 947.379,353.246 C946.582,353.653 945.879,354.543 944.988,354.543 C944.785,354.543 944.676,354.543 944.488,354.45 C943.785,354.246 943.379,353.543 943.379,352.746 C943.379,350.653 944.082,326.543 944.082,324.637 C944.082,323.543 943.176,323.043 942.176,323.043 C940.785,323.043 939.176,323.95 939.082,325.637 C939.082,325.637 939.582,382.84 940.285,383.746 C940.582,384.153 940.879,384.246 941.176,384.246 C941.488,384.246 941.785,384.043 941.785,384.043 C944.879,382.45 947.379,379.653 949.676,377.95 C953.379,375.34 956.176,372.653 958.082,370.246 C958.285,377.746 958.488,383.45 958.785,383.746 C959.082,384.153 959.379,384.246 959.582,384.246 C959.879,384.246 960.176,384.043 960.176,384.043 C963.285,382.45 965.691,379.653 967.988,378.043 C976.988,371.746 980.191,365.653 980.191,361.043 C980.191,355.45 975.785,351.746 971.082,351.653 L970.488,351.653 M953.176,368.543 C951.879,370.95 948.988,374.043 945.785,376.043 C945.488,376.246 945.082,376.34 944.879,376.34 C944.082,376.34 943.785,375.34 943.785,374.746 C943.785,374.746 943.488,368.84 943.488,364.95 C943.488,363.34 943.582,362.153 943.676,361.746 C944.082,360.45 946.785,358.246 948.176,357.45 C949.082,356.95 949.988,356.746 950.785,356.746 C951.785,356.746 952.582,357.043 953.176,357.746 C954.176,358.95 954.785,360.653 954.785,362.653 C954.785,364.45 954.285,366.543 953.176,368.543 M971.488,368.543 C970.285,370.95 967.379,374.043 964.176,376.043 C963.785,376.246 963.488,376.34 963.285,376.34 C962.488,376.34 962.176,375.34 962.176,374.746 C962.176,374.746 961.879,367.84 961.879,364.043 C961.879,362.95 961.879,362.043 961.988,361.746 C962.379,360.45 965.082,358.246 966.582,357.45 C967.488,356.95 968.379,356.746 969.191,356.746 C970.191,356.746 970.988,357.043 971.582,357.746 C972.488,358.95 973.082,360.653 973.082,362.653 C973.082,364.45 972.582,366.45 971.488,368.543"/>
<path class="Accidental" d="M1004.44,349.839 C1004.44,349.839 1004.14,343.839 1004.14,339.839 C1004.14,338.245 1004.23,337.042 1004.33,336.651 C1004.73,335.448 1007.33,333.245 1008.73,332.448 C1009.64,331.948 1010.53,331.745 1011.33,331.745 C1012.33,331.745 1013.23,332.151 1013.83,332.839 C1014.83,333.948 1015.44,335.651 1015.44,337.542 C1015.44,339.339 1014.94,341.448 1013.73,343.542 C1012.44,345.948 1009.53,349.151 1006.53,351.042 C1006.14,351.245 1005.83,351.339 1005.53,351.339 C1004.64,351.339 1004.44,350.339 1004.44,349.839 M1000.94,358.745 C1001.23,359.151 1001.53,359.245 1001.83,359.245 C1002.14,359.245 1002.44,359.042 1002.44,359.042 C1005.44,357.339 1007.83,354.651 1010.33,352.948 C1019.23,346.745 1022.33,340.651 1022.33,336.042 C1022.33,330.339 1017.94,326.745 1013.33,326.448 C1012.64,326.448 1011.94,326.542 1011.23,326.745 C1010.14,327.042 1008.94,327.448 1007.83,328.151 C1007.23,328.651 1006.14,329.542 1005.64,329.542 C1005.44,329.542 1005.33,329.542 1005.14,329.448 C1004.44,329.151 1004.03,328.448 1004.03,327.745 C1004.14,325.542 1004.73,301.542 1004.73,299.542 C1004.73,298.448 1003.83,297.839 1002.83,297.839 C1001.44,297.839 999.828,298.839 999.734,300.636 C999.734,300.636 1000.14,357.745 1000.94,358.745"/>
<path class="Accidental" d="M1349.65,399.842 C1349.65,399.842 1349.35,393.842 1349.35,389.842 C1349.35,388.248 1349.45,387.045 1349.54,386.654 C1349.95,385.451 1352.54,383.248 1353.95,382.451 C1354.85,381.951 1355.74,381.748 1356.54,381.748 C1357.54,381.748 1358.45,382.154 1359.04,382.842 C1360.04,383.951 1360.65,385.654 1360.65,387.545 C1360.65,389.342 1360.15,391.451 1358.95,393.545 C1357.65,395.951 1354.74,399.154 1351.74,401.045 C1351.35,401.248 1351.04,401.342 1350.74,401.342 C1349.85,401.342 1349.65,400.342 1349.65,399.842 M1346.15,408.748 C1346.45,409.154 1346.74,409.248 1347.04,409.248 C1347.35,409.248 1347.65,409.045 1347.65,409.045 C1350.65,407.342 1353.04,404.654 1355.54,402.951 C1364.45,396.748 1367.54,390.654 1367.54,386.045 C1367.54,380.342 1363.15,376.748 1358.54,376.451 C1357.85,376.451 1357.15,376.545 1356.45,376.748 C1355.35,377.045 1354.15,377.451 1353.04,378.154 C1352.45,378.654 1351.35,379.545 1350.85,379.545 C1350.65,379.545 1350.54,379.545 1350.35,379.451 C1349.65,379.154 1349.24,378.451 1349.24,377.748 C1349.35,375.545 1349.95,351.545 1349.95,349.545 C1349.95,348.451 1349.04,347.842 1348.04,347.842 C1346.65,347.842 1345.04,348.842 1344.95,350.639 C1344.95,350.639 1345.35,407.748 1346.15,408.748"/>
<path class="Accidental" d="M1329.76,351.653 C1329.26,351.653 1328.85,351.653 1328.35,351.746 C1327.15,352.043 1326.05,352.653 1325.05,353.246 C1324.35,353.653 1323.55,354.543 1322.65,354.543 C1322.44,354.543 1322.26,354.543 1322.15,354.45 C1321.44,354.246 1321.15,353.543 1321.15,352.746 C1321.15,350.653 1321.76,326.543 1321.76,324.637 C1321.76,323.543 1320.85,323.043 1319.85,323.043 C1318.55,323.043 1316.94,323.95 1316.76,325.637 C1316.76,325.637 1316.85,339.34 1317.05,353.246 C1315.55,352.246 1313.85,351.653 1311.94,351.653 L1311.35,351.653 C1310.85,351.653 1310.35,351.653 1309.94,351.746 C1308.76,352.043 1307.65,352.653 1306.65,353.246 C1305.85,353.653 1305.15,354.543 1304.26,354.543 C1304.05,354.543 1303.94,354.543 1303.76,354.45 C1303.05,354.246 1302.65,353.543 1302.65,352.746 C1302.65,350.653 1303.35,326.543 1303.35,324.637 C1303.35,323.543 1302.44,323.043 1301.44,323.043 C1300.05,323.043 1298.44,323.95 1298.35,325.637 C1298.35,325.637 1298.85,382.84 1299.55,383.746 C1299.85,384.153 1300.15,384.246 1300.44,384.246 C1300.76,384.246 1301.05,384.043 1301.05,384.043 C1304.15,382.45 1306.65,379.653 1308.94,377.95 C1312.65,375.34 1315.44,372.653 1317.35,370.246 C1317.55,377.746 1317.76,383.45 1318.05,383.746 C1318.35,384.153 1318.65,384.246 1318.85,384.246 C1319.15,384.246 1319.44,384.043 1319.44,384.043 C1322.55,382.45 1324.96,379.653 1327.26,378.043 C1336.26,371.746 1339.46,365.653 1339.46,361.043 C1339.46,355.45 1335.05,351.746 1330.35,351.653 L1329.76,351.653 M1312.44,368.543 C1311.15,370.95 1308.26,374.043 1305.05,376.043 C1304.76,376.246 1304.35,376.34 1304.15,376.34 C1303.35,376.34 1303.05,375.34 1303.05,374.746 C1303.05,374.746 1302.76,368.84 1302.76,364.95 C1302.76,363.34 1302.85,362.153 1302.94,361.746 C1303.35,360.45 1306.05,358.246 1307.44,357.45 C1308.35,356.95 1309.26,356.746 1310.05,356.746 C1311.05,356.746 1311.85,357.043 1312.44,357.746 C1313.44,358.95 1314.05,360.653 1314.05,362.653 C1314.05,364.45 1313.55,366.543 1312.44,368.543 M1330.76,368.543 C1329.55,370.95 1326.65,374.043 1323.44,376.043 C1323.05,376.246 1322.76,376.34 1322.55,376.34 C1321.76,376.34 1321.44,375.34 1321.44,374.746 C1321.44,374.746 1321.15,367.84 1321.15,364.043 C1321.15,362.95 1321.15,362.043 1321.26,361.746 C1321.65,360.45 1324.35,358.246 1325.85,357.45 C1326.76,356.95 1327.65,356.746 1328.46,356.746 C1329.46,356.746 1330.26,357.043 1330.85,357.746 C1331.76,358.95 1332.35,360.653 1332.35,362.653 C1332.35,364.45 1331.85,366.45 1330.76,368.543"/>
<path class="Accidental" d="M1390.41,314.15 C1389.91,314.15 1389.5,314.15 1389,314.244 C1387.8,314.541 1386.71,315.15 1385.71,315.744 C1385,316.15 1384.21,317.041 1383.3,317.041 C1383.1,317.041 1382.91,317.041 1382.8,316.947 C1382.1,316.744 1381.8,316.041 1381.8,315.244 C1381.8,313.15 1382.41,289.041 1382.41,287.135 C1382.41,286.041 1381.5,285.541 1380.5,285.541 C1379.21,285.541 1377.6,286.447 1377.41,288.135 C1377.41,288.135 1377.5,301.838 1377.71,315.744 C1376.21,314.744 1374.5,314.15 1372.6,314.15 L1372,314.15 C1371.5,314.15 1371,314.15 1370.6,314.244 C1369.41,314.541 1368.3,315.15 1367.3,315.744 C1366.5,316.15 1365.8,317.041 1364.91,317.041 C1364.71,317.041 1364.6,317.041 1364.41,316.947 C1363.71,316.744 1363.3,316.041 1363.3,315.244 C1363.3,313.15 1364,289.041 1364,287.135 C1364,286.041 1363.1,285.541 1362.1,285.541 C1360.71,285.541 1359.1,286.447 1359,288.135 C1359,288.135 1359.5,345.338 1360.21,346.244 C1360.5,346.65 1360.8,346.744 1361.1,346.744 C1361.41,346.744 1361.71,346.541 1361.71,346.541 C1364.8,344.947 1367.3,342.15 1369.6,340.447 C1373.3,337.838 1376.1,335.15 1378,332.744 C1378.21,340.244 1378.41,345.947 1378.71,346.244 C1379,346.65 1379.3,346.744 1379.5,346.744 C1379.8,346.744 1380.1,346.541 1380.1,346.541 C1383.21,344.947 1385.61,342.15 1387.91,340.541 C1396.91,334.244 1400.11,328.15 1400.11,323.541 C1400.11,317.947 1395.71,314.244 1391,314.15 L1390.41,314.15 M1373.1,331.041 C1371.8,333.447 1368.91,336.541 1365.71,338.541 C1365.41,338.744 1365,338.838 1364.8,338.838 C1364,338.838 1363.71,337.838 1363.71,337.244 C1363.71,337.244 1363.41,331.338 1363.41,327.447 C1363.41,325.838 1363.5,324.65 1363.6,324.244 C1364,322.947 1366.71,320.744 1368.1,319.947 C1369,319.447 1369.91,319.244 1370.71,319.244 C1371.71,319.244 1372.5,319.541 1373.1,320.244 C1374.1,321.447 1374.71,323.15 1374.71,325.15 C1374.71,326.947 1374.21,329.041 1373.1,331.041 M1391.41,331.041 C1390.21,333.447 1387.3,336.541 1384.1,338.541 C1383.71,338.744 1383.41,338.838 1383.21,338.838 C1382.41,338.838 1382.1,337.838 1382.1,337.244 C1382.1,337.244 1381.8,330.338 1381.8,326.541 C1381.8,325.447 1381.8,324.541 1381.91,324.244 C1382.3,322.947 1385,320.744 1386.5,319.947 C1387.41,319.447 1388.3,319.244 1389.11,319.244 C1390.11,319.244 1390.91,319.541 1391.5,320.244 C1392.41,321.447 1393,323.15 1393,325.15 C1393,326.947 1392.5,328.947 1391.41,331.041"/>
<path class="Accidental" d="M1727.42,399.842 C1727.42,399.842 1727.12,393.842 1727.12,389.842 C1727.12,388.248 1727.21,387.045 1727.31,386.654 C1727.71,385.451 1730.31,383.248 1731.71,382.451 C1732.62,381.951 1733.51,381.748 1734.31,381.748 C1735.31,381.748 1736.21,382.154 1736.81,382.842 C1737.81,383.951 1738.42,385.654 1738.42,387.545 C1738.42,389.342 1737.92,391.451 1736.71,393.545 C1735.42,395.951 1732.51,399.154 1729.51,401.045 C1729.12,401.248 1728.81,401.342 1728.51,401.342 C1727.62,401.342 1727.42,400.342 1727.42,399.842 M1723.92,408.748 C1724.21,409.154 1724.51,409.248 1724.81,409.248 C1725.12,409.248 1725.42,409.045 1725.42,409.045 C1728.42,407.342 1730.81,404.654 1733.31,402.951 C1742.21,396.748 1745.31,390.654 1745.31,386.045 C1745.31,380.342 1740.92,376.748 1736.31,376.451 C1735.62,376.451 1734.92,376.545 1734.21,376.748 C1733.12,377.045 1731.92,377.451 1730.81,378.154 C1730.21,378.654 1729.12,379.545 1728.62,379.545 C1728.42,379.545 1728.31,379.545 1728.12,379.451 C1727.42,379.154 1727.01,378.451 1727.01,377.748 C1727.12,375.545 1727.71,351.545 1727.71,349.545 C1727.71,348.451 1726.81,347.842 1725.81,347.842 C1724.42,347.842 1722.81,348.842 1722.71,350.639 C1722.71,350.639 1723.12,407.748 1723.92,408.748"/>
<path class="Accidental" d="M1707.52,351.653 C1707.02,351.653 1706.62,351.653 1706.12,351.746 C1704.92,352.043 1703.82,352.653 1702.82,353.246 C1702.12,353.653 1701.32,354.543 1700.42,354.543 C1700.21,354.543 1700.02,354.543 1699.92,354.45 C1699.21,354.246 1698.92,353.543 1698.92,352.746 C1698.92,350.653 1699.52,326.543 1699.52,324.637 C1699.52,323.543 1698.62,323.043 1697.62,323.043 C1696.32,323.043 1694.71,323.95 1694.52,325.637 C1694.52,325.637 1694.62,339.34 1694.82,353.246 C1693.32,352.246 1691.62,351.653 1689.71,351.653 L1689.12,351.653 C1688.62,351.653 1688.12,351.653 1687.71,351.746 C1686.52,352.043 1685.42,352.653 1684.42,353.246 C1683.62,353.653 1682.92,354.543 1682.02,354.543 C1681.82,354.543 1681.71,354.543 1681.52,354.45 C1680.82,354.246 1680.42,353.543 1680.42,352.746 C1680.42,350.653 1681.12,326.543 1681.12,324.637 C1681.12,323.543 1680.21,323.043 1679.21,323.043 C1677.82,323.043 1676.21,323.95 1676.12,325.637 C1676.12,325.637 1676.62,382.84 1677.32,383.746 C1677.62,384.153 1677.92,384.246 1678.21,384.246 C1678.52,384.246 1678.82,384.043 1678.82,384.043 C1681.92,382.45 1684.42,379.653 1686.71,377.95 C1690.42,375.34 1693.21,372.653 1695.12,370.246 C1695.32,377.746 1695.52,383.45 1695.82,383.746 C1696.12,384.153 1696.42,384.246 1696.62,384.246 C1696.92,384.246 1697.21,384.043 1697.21,384.043 C1700.32,382.45 1702.73,379.653 1705.02,378.043 C1714.02,371.746 1717.23,365.653 1717.23,361.043 C1717.23,355.45 1712.82,351.746 1708.12,351.653 L1707.52,351.653 M1690.21,368.543 C1688.92,370.95 1686.02,374.043 1682.82,376.043 C1682.52,376.246 1682.12,376.34 1681.92,376.34 C1681.12,376.34 1680.82,375.34 1680.82,374.746 C1680.82,374.746 1680.52,368.84 1680.52,364.95 C1680.52,363.34 1680.62,362.153 1680.71,361.746 C1681.12,360.45 1683.82,358.246 1685.21,357.45 C1686.12,356.95 1687.02,356.746 1687.82,356.746 C1688.82,356.746 1689.62,357.043 1690.21,357.746 C1691.21,358.95 1691.82,360.653 1691.82,362.653 C1691.82,364.45 1691.32,366.543 1690.21,368.543 M1708.52,368.543 C1707.32,370.95 1704.42,374.043 1701.21,376.043 C1700.82,376.246 1700.52,376.34 1700.32,376.34 C1699.52,376.34 1699.21,375.34 1699.21,374.746 C1699.21,374.746 1698.92,367.84 1698.92,364.043 C1698.92,362.95 1698.92,362.043 1699.02,361.746 C1699.42,360.45 1702.12,358.246 1703.62,357.45 C1704.52,356.95 1705.42,356.746 1706.23,356.746 C1707.23,356.746 1708.02,357.043 1708.62,357.746 C1709.52,358.95 1710.12,360.653 1710.12,362.653 C1710.12,364.45 1709.62,366.45 1708.52,368.543"/>
<path class="Accidental" d="M1741.47,337.338 C1741.47,337.338 1741.18,331.338 1741.18,327.338 C1741.18,325.744 1741.27,324.541 1741.36,324.15 C1741.77,322.947 1744.36,320.744 1745.77,319.947 C1746.68,319.447 1747.57,319.244 1748.36,319.244 C1749.36,319.244 1750.27,319.65 1750.86,320.338 C1751.86,321.447 1752.47,323.15 1752.47,325.041 C1752.47,326.838 1751.97,328.947 1750.77,331.041 C1749.47,333.447 1746.57,336.65 1743.57,338.541 C1743.18,338.744 1742.86,338.838 1742.57,338.838 C1741.68,338.838 1741.47,337.838 1741.47,337.338 M1737.97,346.244 C1738.27,346.65 1738.57,346.744 1738.86,346.744 C1739.18,346.744 1739.47,346.541 1739.47,346.541 C1742.47,344.838 1744.86,342.15 1747.36,340.447 C1756.27,334.244 1759.36,328.15 1759.36,323.541 C1759.36,317.838 1754.97,314.244 1750.36,313.947 C1749.68,313.947 1748.97,314.041 1748.27,314.244 C1747.18,314.541 1745.97,314.947 1744.86,315.65 C1744.27,316.15 1743.18,317.041 1742.68,317.041 C1742.47,317.041 1742.36,317.041 1742.18,316.947 C1741.47,316.65 1741.07,315.947 1741.07,315.244 C1741.18,313.041 1741.77,289.041 1741.77,287.041 C1741.77,285.947 1740.86,285.338 1739.86,285.338 C1738.47,285.338 1736.86,286.338 1736.77,288.135 C1736.77,288.135 1737.18,345.244 1737.97,346.244"/>
<path class="Accidental" d="M2040.09,374.84 C2040.09,374.84 2039.79,368.84 2039.79,364.84 C2039.79,363.246 2039.89,362.043 2039.98,361.653 C2040.39,360.45 2042.98,358.246 2044.39,357.45 C2045.29,356.95 2046.18,356.746 2046.98,356.746 C2047.98,356.746 2048.89,357.153 2049.48,357.84 C2050.48,358.95 2051.09,360.653 2051.09,362.543 C2051.09,364.34 2050.59,366.45 2049.39,368.543 C2048.09,370.95 2045.18,374.153 2042.18,376.043 C2041.79,376.246 2041.48,376.34 2041.18,376.34 C2040.29,376.34 2040.09,375.34 2040.09,374.84 M2036.59,383.746 C2036.89,384.153 2037.18,384.246 2037.48,384.246 C2037.79,384.246 2038.09,384.043 2038.09,384.043 C2041.09,382.34 2043.48,379.653 2045.98,377.95 C2054.89,371.746 2057.98,365.653 2057.98,361.043 C2057.98,355.34 2053.59,351.746 2048.98,351.45 C2048.29,351.45 2047.59,351.543 2046.89,351.746 C2045.79,352.043 2044.59,352.45 2043.48,353.153 C2042.89,353.653 2041.79,354.543 2041.29,354.543 C2041.09,354.543 2040.98,354.543 2040.79,354.45 C2040.09,354.153 2039.68,353.45 2039.68,352.746 C2039.79,350.543 2040.39,326.543 2040.39,324.543 C2040.39,323.45 2039.48,322.84 2038.48,322.84 C2037.09,322.84 2035.48,323.84 2035.39,325.637 C2035.39,325.637 2035.79,382.746 2036.59,383.746"/>
<path class="Accidental" d="M2082.24,337.338 C2082.24,337.338 2081.94,331.338 2081.94,327.338 C2081.94,325.744 2082.04,324.541 2082.13,324.15 C2082.54,322.947 2085.13,320.744 2086.54,319.947 C2087.44,319.447 2088.33,319.244 2089.13,319.244 C2090.13,319.244 2091.04,319.65 2091.63,320.338 C2092.63,321.447 2093.24,323.15 2093.24,325.041 C2093.24,326.838 2092.74,328.947 2091.54,331.041 C2090.24,333.447 2087.33,336.65 2084.33,338.541 C2083.94,338.744 2083.63,338.838 2083.33,338.838 C2082.44,338.838 2082.24,337.838 2082.24,337.338 M2078.74,346.244 C2079.04,346.65 2079.33,346.744 2079.63,346.744 C2079.94,346.744 2080.24,346.541 2080.24,346.541 C2083.24,344.838 2085.63,342.15 2088.13,340.447 C2097.04,334.244 2100.13,328.15 2100.13,323.541 C2100.13,317.838 2095.74,314.244 2091.13,313.947 C2090.44,313.947 2089.74,314.041 2089.04,314.244 C2087.94,314.541 2086.74,314.947 2085.63,315.65 C2085.04,316.15 2083.94,317.041 2083.44,317.041 C2083.24,317.041 2083.13,317.041 2082.94,316.947 C2082.24,316.65 2081.83,315.947 2081.83,315.244 C2081.94,313.041 2082.54,289.041 2082.54,287.041 C2082.54,285.947 2081.63,285.338 2080.63,285.338 C2079.24,285.338 2077.63,286.338 2077.54,288.135 C2077.54,288.135 2077.94,345.244 2078.74,346.244"/>
<path class="Accidental" d="M2313.89,374.84 C2313.89,374.84 2313.6,368.84 2313.6,364.84 C2313.6,363.246 2313.69,362.043 2313.79,361.653 C2314.19,360.45 2316.79,358.246 2318.19,357.45 C2319.1,356.95 2319.99,356.746 2320.79,356.746 C2321.79,356.746 2322.69,357.153 2323.29,357.84 C2324.29,358.95 2324.89,360.653 2324.89,362.543 C2324.89,364.34 2324.39,366.45 2323.19,368.543 C2321.89,370.95 2318.99,374.153 2315.99,376.043 C2315.6,376.246 2315.29,376.34 2314.99,376.34 C2314.1,376.34 2313.89,375.34 2313.89,374.84 M2310.39,383.746 C2310.69,384.153 2310.99,384.246 2311.29,384.246 C2311.6,384.246 2311.89,384.043 2311.89,384.043 C2314.89,382.34 2317.29,379.653 2319.79,377.95 C2328.69,371.746 2331.79,365.653 2331.79,361.043 C2331.79,355.34 2327.39,351.746 2322.79,351.45 C2322.1,351.45 2321.39,351.543 2320.69,351.746 C2319.6,352.043 2318.39,352.45 2317.29,353.153 C2316.69,353.653 2315.6,354.543 2315.1,354.543 C2314.89,354.543 2314.79,354.543 2314.6,354.45 C2313.89,354.153 2313.49,353.45 2313.49,352.746 C2313.6,350.543 2314.19,326.543 2314.19,324.543 C2314.19,323.45 2313.29,322.84 2312.29,322.84 C2310.89,322.84 2309.29,323.84 2309.19,325.637 C2309.19,325.637 2309.6,382.746 2310.39,383.746"/>
<path class="Accidental" d="M2603.04,368.748 L2603.04,367.342 C2603.04,367.154 2603.04,367.045 2602.95,367.045 C2593.15,372.248 2588.95,382.045 2588.95,391.748 C2588.95,401.748 2593.15,410.451 2602.75,416.545 C2602.86,416.545 2603.04,416.451 2603.04,416.342 L2603.04,414.842 C2603.04,414.654 2602.95,414.545 2602.86,414.451 C2597.15,409.342 2594.95,402.842 2594.95,391.748 C2594.95,380.748 2597.25,374.342 2602.86,369.248 C2602.95,369.154 2603.04,369.045 2603.04,368.748"/>
<path class="Accidental" d="M2606.75,387.842 C2606.75,386.451 2612.84,383.842 2615.25,383.842 C2615.84,383.842 2616.14,383.951 2616.14,384.342 L2616.14,394.654 C2616.14,396.451 2610.45,398.748 2607.95,398.748 C2607.25,398.748 2606.75,398.545 2606.75,398.154 L2606.75,387.842 M2617.14,373.654 C2616.95,373.654 2616.84,373.748 2616.75,373.748 C2616.75,373.748 2610.34,376.045 2607.75,376.045 C2607.14,376.045 2606.75,375.951 2606.75,375.545 L2606.75,358.842 C2606.75,358.139 2606.14,357.639 2605.55,357.639 L2604.25,357.639 C2603.55,357.639 2603.05,358.139 2603.05,358.842 L2603.05,410.342 C2603.05,410.951 2603.34,411.248 2603.84,411.248 C2603.95,411.248 2604.14,411.154 2604.25,411.154 C2604.25,411.154 2604.45,411.154 2604.55,411.045 C2605.95,410.451 2611.55,408.045 2614.45,408.045 C2615.45,408.045 2616.14,408.342 2616.14,409.154 L2616.14,424.045 C2616.14,424.748 2616.64,425.248 2617.34,425.248 L2618.64,425.248 C2619.25,425.248 2619.84,424.748 2619.84,424.045 L2619.84,373.842 C2619.84,373.342 2619.45,373.045 2619.05,373.045 C2618.95,373.045 2618.75,373.045 2618.64,373.154 L2617.14,373.654 "/>
<path class="Accidental" d="M2619.84,368.748 C2619.84,369.045 2619.94,369.154 2620.05,369.248 C2625.64,374.342 2627.94,380.748 2627.94,391.748 C2627.94,402.842 2625.75,409.342 2620.05,414.451 C2619.94,414.545 2619.84,414.654 2619.84,414.842 L2619.84,416.342 C2619.84,416.451 2620.05,416.545 2620.14,416.545 C2629.75,410.451 2633.94,401.748 2633.94,391.748 C2633.94,382.045 2629.75,372.248 2619.94,367.045 C2619.84,367.045 2619.84,367.154 2619.84,367.342 L2619.84,368.748 "/>
<path class="Accidental" d="M2565.56,374.84 C2565.56,374.84 2565.26,368.84 2565.26,364.84 C2565.26,363.246 2565.36,362.043 2565.45,361.653 C2565.86,360.45 2568.45,358.246 2569.86,357.45 C2570.76,356.95 2571.65,356.746 2572.45,356.746 C2573.45,356.746 2574.36,357.153 2574.95,357.84 C2575.95,358.95 2576.56,360.653 2576.56,362.543 C2576.56,364.34 2576.06,366.45 2574.86,368.543 C2573.56,370.95 2570.65,374.153 2567.65,376.043 C2567.26,376.246 2566.95,376.34 2566.65,376.34 C2565.76,376.34 2565.56,375.34 2565.56,374.84 M2562.06,383.746 C2562.36,384.153 2562.65,384.246 2562.95,384.246 C2563.26,384.246 2563.56,384.043 2563.56,384.043 C2566.56,382.34 2568.95,379.653 2571.45,377.95 C2580.36,371.746 2583.45,365.653 2583.45,361.043 C2583.45,355.34 2579.06,351.746 2574.45,351.45 C2573.76,351.45 2573.06,351.543 2572.36,351.746 C2571.26,352.043 2570.06,352.45 2568.95,353.153 C2568.36,353.653 2567.26,354.543 2566.76,354.543 C2566.56,354.543 2566.45,354.543 2566.26,354.45 C2565.56,354.153 2565.15,353.45 2565.15,352.746 C2565.26,350.543 2565.86,326.543 2565.86,324.543 C2565.86,323.45 2564.95,322.84 2563.95,322.84 C2562.56,322.84 2560.95,323.84 2560.86,325.637 C2560.86,325.637 2561.26,382.746 2562.06,383.746"/>
<path class="Accidental" d="M2616.05,337.338 C2616.05,337.338 2615.75,331.338 2615.75,327.338 C2615.75,325.744 2615.84,324.541 2615.94,324.15 C2616.34,322.947 2618.94,320.744 2620.34,319.947 C2621.25,319.447 2622.14,319.244 2622.94,319.244 C2623.94,319.244 2624.84,319.65 2625.44,320.338 C2626.44,321.447 2627.05,323.15 2627.05,325.041 C2627.05,326.838 2626.55,328.947 2625.34,331.041 C2624.05,333.447 2621.14,336.65 2618.14,338.541 C2617.75,338.744 2617.44,338.838 2617.14,338.838 C2616.25,338.838 2616.05,337.838 2616.05,337.338 M2612.55,346.244 C2612.84,346.65 2613.14,346.744 2613.44,346.744 C2613.75,346.744 2614.05,346.541 2614.05,346.541 C2617.05,344.838 2619.44,342.15 2621.94,340.447 C2630.84,334.244 2633.94,328.15 2633.94,323.541 C2633.94,317.838 2629.55,314.244 2624.94,313.947 C2624.25,313.947 2623.55,314.041 2622.84,314.244 C2621.75,314.541 2620.55,314.947 2619.44,315.65 C2618.84,316.15 2617.75,317.041 2617.25,317.041 C2617.05,317.041 2616.94,317.041 2616.75,316.947 C2616.05,316.65 2615.64,315.947 2615.64,315.244 C2615.75,313.041 2616.34,289.041 2616.34,287.041 C2616.34,285.947 2615.44,285.338 2614.44,285.338 C2613.05,285.338 2611.44,286.338 2611.34,288.135 C2611.34,288.135 2611.75,345.244 2612.55,346.244"/>
<polyline class="LedgerLine" fill="none" stroke="#000000" stroke-width="4.00" stroke-linecap="square" stroke-linejoin="bevel" points="2634.44,704.268 2690.34,704.268"/>
<path class="Note" d="M692.062,603.059 C677.562,603.059 668.562,609.168 668.562,616.559 C668.562,623.856 674.765,630.356 690.969,630.356 C708.765,630.356 714.469,624.168 714.469,616.559 C714.469,608.856 702.172,603.059 692.062,603.059 M680.656,609.856 C681.859,606.168 685.859,605.559 689.265,605.559 C696.672,605.559 702.672,613.559 702.672,620.168 C702.672,620.856 702.562,621.559 702.469,622.168 C701.969,624.856 700.359,626.762 697.672,627.465 C696.562,627.762 695.469,627.856 694.359,627.856 C693.359,627.856 692.469,627.762 691.469,627.465 C689.656,626.856 687.859,625.856 686.359,624.559 C685.562,623.856 684.765,623.059 684.062,622.168 C681.969,619.668 680.265,615.965 680.265,612.559 C680.265,611.668 680.359,610.762 680.656,609.856"/>
<path class="Note" d="M1051.33,615.56 C1036.83,615.56 1027.83,621.669 1027.83,629.06 C1027.83,636.357 1034.03,642.857 1050.24,642.857 C1068.03,642.857 1073.74,636.669 1073.74,629.06 C1073.74,621.357 1061.44,615.56 1051.33,615.56 M1039.92,622.357 C1041.13,618.669 1045.13,618.06 1048.53,618.06 C1055.94,618.06 1061.94,626.06 1061.94,632.669 C1061.94,633.357 1061.83,634.06 1061.74,634.669 C1061.24,637.357 1059.63,639.263 1056.94,639.966 C1055.83,640.263 1054.74,640.357 1053.63,640.357 C1052.63,640.357 1051.74,640.263 1050.74,639.966 C1048.92,639.357 1047.13,638.357 1045.63,637.06 C1044.83,636.357 1044.03,635.56 1043.33,634.669 C1041.24,632.169 1039.53,628.466 1039.53,625.06 C1039.53,624.169 1039.63,623.263 1039.92,622.357"/>
<path class="Note" d="M1429.1,628.061 C1414.6,628.061 1405.6,634.17 1405.6,641.561 C1405.6,648.858 1411.8,655.358 1428,655.358 C1445.8,655.358 1451.5,649.17 1451.5,641.561 C1451.5,633.858 1439.21,628.061 1429.1,628.061 M1417.69,634.858 C1418.9,631.17 1422.9,630.561 1426.3,630.561 C1433.71,630.561 1439.71,638.561 1439.71,645.17 C1439.71,645.858 1439.6,646.561 1439.5,647.17 C1439,649.858 1437.4,651.764 1434.71,652.467 C1433.6,652.764 1432.5,652.858 1431.4,652.858 C1430.4,652.858 1429.5,652.764 1428.5,652.467 C1426.69,651.858 1424.9,650.858 1423.4,649.561 C1422.6,648.858 1421.8,648.061 1421.1,647.17 C1419,644.67 1417.3,640.967 1417.3,637.561 C1417.3,636.67 1417.4,635.764 1417.69,634.858"/>
<path class="Note" d="M1788.37,628.061 C1773.87,628.061 1764.87,634.17 1764.87,641.561 C1764.87,648.858 1771.07,655.358 1787.27,655.358 C1805.07,655.358 1810.77,649.17 1810.77,641.561 C1810.77,633.858 1798.48,628.061 1788.37,628.061 M1776.96,634.858 C1778.16,631.17 1782.16,630.561 1785.57,630.561 C1792.98,630.561 1798.98,638.561 1798.98,645.17 C1798.98,645.858 1798.87,646.561 1798.77,647.17 C1798.27,649.858 1796.66,651.764 1793.98,652.467 C1792.87,652.764 1791.77,652.858 1790.66,652.858 C1789.66,652.858 1788.77,652.764 1787.77,652.467 C1785.96,651.858 1784.16,650.858 1782.66,649.561 C1781.87,648.858 1781.07,648.061 1780.37,647.17 C1778.27,644.67 1776.57,640.967 1776.57,637.561 C1776.57,636.67 1776.66,635.764 1776.96,634.858"/>
<path class="Note" d="M2129.13,640.561 C2114.63,640.561 2105.63,646.671 2105.63,654.061 C2105.63,661.358 2111.84,667.858 2128.04,667.858 C2145.84,667.858 2151.54,661.671 2151.54,654.061 C2151.54,646.358 2139.24,640.561 2129.13,640.561 M2117.73,647.358 C2118.93,643.671 2122.93,643.061 2126.34,643.061 C2133.74,643.061 2139.74,651.061 2139.74,657.671 C2139.74,658.358 2139.63,659.061 2139.54,659.671 C2139.04,662.358 2137.43,664.265 2134.74,664.968 C2133.63,665.265 2132.54,665.358 2131.43,665.358 C2130.43,665.358 2129.54,665.265 2128.54,664.968 C2126.73,664.358 2124.93,663.358 2123.43,662.061 C2122.63,661.358 2121.84,660.561 2121.13,659.671 C2119.04,657.171 2117.34,653.468 2117.34,650.061 C2117.34,649.171 2117.43,648.265 2117.73,647.358"/>
<path class="Note" d="M2360.79,640.561 C2346.29,640.561 2337.29,646.671 2337.29,654.061 C2337.29,661.358 2343.49,667.858 2359.69,667.858 C2377.49,667.858 2383.19,661.671 2383.19,654.061 C2383.19,646.358 2370.9,640.561 2360.79,640.561 M2349.38,647.358 C2350.58,643.671 2354.58,643.061 2357.99,643.061 C2365.4,643.061 2371.4,651.061 2371.4,657.671 C2371.4,658.358 2371.29,659.061 2371.19,659.671 C2370.69,662.358 2369.08,664.265 2366.4,664.968 C2365.29,665.265 2364.19,665.358 2363.08,665.358 C2362.08,665.358 2361.19,665.265 2360.19,664.968 C2358.38,664.358 2356.58,663.358 2355.08,662.061 C2354.29,661.358 2353.49,660.561 2352.79,659.671 C2350.69,657.171 2348.99,653.468 2348.99,650.061 C2348.99,649.171 2349.08,648.265 2349.38,647.358"/>
<path class="Note" d="M2662.94,690.565 C2648.44,690.565 2639.44,696.674 2639.44,704.065 C2639.44,711.361 2645.64,717.861 2661.84,717.861 C2679.64,717.861 2685.34,711.674 2685.34,704.065 C2685.34,696.361 2673.05,690.565 2662.94,690.565 M2651.53,697.361 C2652.74,693.674 2656.74,693.065 2660.14,693.065 C2667.55,693.065 2673.55,701.065 2673.55,707.674 C2673.55,708.361 2673.44,709.065 2673.34,709.674 C2672.84,712.361 2671.24,714.268 2668.55,714.971 C2667.44,715.268 2666.34,715.361 2665.24,715.361 C2664.24,715.361 2663.34,715.268 2662.34,714.971 C2660.53,714.361 2658.74,713.361 2657.24,712.065 C2656.44,711.361 2655.64,710.565 2654.94,709.674 C2652.84,707.174 2651.14,703.471 2651.14,700.065 C2651.14,699.174 2651.24,698.268 2651.53,697.361"/>
<path class="Note" d="M376.228,405.748 C386.135,405.748 398.338,396.545 398.338,387.045 C398.338,381.451 393.838,377.748 387.431,377.748 C375.228,377.748 365.431,386.842 365.431,396.451 C365.431,402.248 370.228,405.748 376.228,405.748"/>
<path class="Note" d="M732.761,405.748 C742.667,405.748 754.87,396.545 754.87,387.045 C754.87,381.451 750.37,377.748 743.964,377.748 C731.761,377.748 721.964,386.842 721.964,396.451 C721.964,402.248 726.761,405.748 732.761,405.748"/>
<path class="Note" d="M1092.03,405.748 C1101.93,405.748 1114.14,396.545 1114.14,387.045 C1114.14,381.451 1109.64,377.748 1103.23,377.748 C1091.03,377.748 1081.23,386.842 1081.23,396.451 C1081.23,402.248 1086.03,405.748 1092.03,405.748"/>
<path class="Note" d="M1469.8,405.748 C1479.7,405.748 1491.91,396.545 1491.91,387.045 C1491.91,381.451 1487.41,377.748 1481,377.748 C1468.8,377.748 1459,386.842 1459,396.451 C1459,402.248 1463.8,405.748 1469.8,405.748"/>
<path class="Note" d="M1829.07,405.748 C1838.97,405.748 1851.17,396.545 1851.17,387.045 C1851.17,381.451 1846.67,377.748 1840.27,377.748 C1828.07,377.748 1818.27,386.842 1818.27,396.451 C1818.27,402.248 1823.07,405.748 1829.07,405.748"/>
<path class="Note" d="M2129.13,378.045 C2114.63,378.045 2105.63,384.154 2105.63,391.545 C2105.63,398.842 2111.84,405.342 2128.04,405.342 C2145.84,405.342 2151.54,399.154 2151.54,391.545 C2151.54,383.842 2139.24,378.045 2129.13,378.045 M2117.73,384.842 C2118.93,381.154 2122.93,380.545 2126.34,380.545 C2133.74,380.545 2139.74,388.545 2139.74,395.154 C2139.74,395.842 2139.63,396.545 2139.54,397.154 C2139.04,399.842 2137.43,401.748 2134.74,402.451 C2133.63,402.748 2132.54,402.842 2131.43,402.842 C2130.43,402.842 2129.54,402.748 2128.54,402.451 C2126.73,401.842 2124.93,400.842 2123.43,399.545 C2122.63,398.842 2121.84,398.045 2121.13,397.154 C2119.04,394.654 2117.34,390.951 2117.34,387.545 C2117.34,386.654 2117.43,385.748 2117.73,384.842"/>
<path class="Note" d="M692.062,378.045 C677.562,378.045 668.562,384.154 668.562,391.545 C668.562,398.842 674.765,405.342 690.969,405.342 C708.765,405.342 714.469,399.154 714.469,391.545 C714.469,383.842 702.172,378.045 692.062,378.045 M680.656,384.842 C681.859,381.154 685.859,380.545 689.265,380.545 C696.672,380.545 702.672,388.545 702.672,395.154 C702.672,395.842 702.562,396.545 702.469,397.154 C701.969,399.842 700.359,401.748 697.672,402.451 C696.562,402.748 695.469,402.842 694.359,402.842 C693.359,402.842 692.469,402.748 691.469,402.451 C689.656,401.842 687.859,400.842 686.359,399.545 C685.562,398.842 684.765,398.045 684.062,397.154 C681.969,394.654 680.265,390.951 680.265,387.545 C680.265,386.654 680.359,385.748 680.656,384.842"/>
<path class="Note" d="M692.062,353.043 C677.562,353.043 668.562,359.153 668.562,366.543 C668.562,373.84 674.765,380.34 690.969,380.34 C708.765,380.34 714.469,374.153 714.469,366.543 C714.469,358.84 702.172,353.043 692.062,353.043 M680.656,359.84 C681.859,356.153 685.859,355.543 689.265,355.543 C696.672,355.543 702.672,363.543 702.672,370.153 C702.672,370.84 702.562,371.543 702.469,372.153 C701.969,374.84 700.359,376.746 697.672,377.45 C696.562,377.746 695.469,377.84 694.359,377.84 C693.359,377.84 692.469,377.746 691.469,377.45 C689.656,376.84 687.859,375.84 686.359,374.543 C685.562,373.84 684.765,373.043 684.062,372.153 C681.969,369.653 680.265,365.95 680.265,362.543 C680.265,361.653 680.359,360.746 680.656,359.84"/>
<path class="Note" d="M734.963,340.543 C720.463,340.543 711.463,346.652 711.463,354.043 C711.463,361.339 717.667,367.839 733.87,367.839 C751.667,367.839 757.37,361.652 757.37,354.043 C757.37,346.339 745.073,340.543 734.963,340.543 M723.557,347.339 C724.76,343.652 728.76,343.043 732.167,343.043 C739.573,343.043 745.573,351.043 745.573,357.652 C745.573,358.339 745.463,359.043 745.37,359.652 C744.87,362.339 743.26,364.246 740.573,364.949 C739.463,365.246 738.37,365.339 737.26,365.339 C736.26,365.339 735.37,365.246 734.37,364.949 C732.557,364.339 730.76,363.339 729.26,362.043 C728.463,361.339 727.667,360.543 726.963,359.652 C724.87,357.152 723.167,353.449 723.167,350.043 C723.167,349.152 723.26,348.246 723.557,347.339"/>
<path class="Note" d="M1051.33,378.045 C1036.83,378.045 1027.83,384.154 1027.83,391.545 C1027.83,398.842 1034.03,405.342 1050.24,405.342 C1068.03,405.342 1073.74,399.154 1073.74,391.545 C1073.74,383.842 1061.44,378.045 1051.33,378.045 M1039.92,384.842 C1041.13,381.154 1045.13,380.545 1048.53,380.545 C1055.94,380.545 1061.94,388.545 1061.94,395.154 C1061.94,395.842 1061.83,396.545 1061.74,397.154 C1061.24,399.842 1059.63,401.748 1056.94,402.451 C1055.83,402.748 1054.74,402.842 1053.63,402.842 C1052.63,402.842 1051.74,402.748 1050.74,402.451 C1048.92,401.842 1047.13,400.842 1045.63,399.545 C1044.83,398.842 1044.03,398.045 1043.33,397.154 C1041.24,394.654 1039.53,390.951 1039.53,387.545 C1039.53,386.654 1039.63,385.748 1039.92,384.842"/>
<path class="Note" d="M1051.33,353.043 C1036.83,353.043 1027.83,359.153 1027.83,366.543 C1027.83,373.84 1034.03,380.34 1050.24,380.34 C1068.03,380.34 1073.74,374.153 1073.74,366.543 C1073.74,358.84 1061.44,353.043 1051.33,353.043 M1039.92,359.84 C1041.13,356.153 1045.13,355.543 1048.53,355.543 C1055.94,355.543 1061.94,363.543 1061.94,370.153 C1061.94,370.84 1061.83,371.543 1061.74,372.153 C1061.24,374.84 1059.63,376.746 1056.94,377.45 C1055.83,377.746 1054.74,377.84 1053.63,377.84 C1052.63,377.84 1051.74,377.746 1050.74,377.45 C1048.92,376.84 1047.13,375.84 1045.63,374.543 C1044.83,373.84 1044.03,373.043 1043.33,372.153 C1041.24,369.653 1039.53,365.95 1039.53,362.543 C1039.53,361.653 1039.63,360.746 1039.92,359.84"/>
<path class="Note" d="M1051.33,328.042 C1036.83,328.042 1027.83,334.151 1027.83,341.542 C1027.83,348.839 1034.03,355.339 1050.24,355.339 C1068.03,355.339 1073.74,349.151 1073.74,341.542 C1073.74,333.839 1061.44,328.042 1051.33,328.042 M1039.92,334.839 C1041.13,331.151 1045.13,330.542 1048.53,330.542 C1055.94,330.542 1061.94,338.542 1061.94,345.151 C1061.94,345.839 1061.83,346.542 1061.74,347.151 C1061.24,349.839 1059.63,351.745 1056.94,352.448 C1055.83,352.745 1054.74,352.839 1053.63,352.839 C1052.63,352.839 1051.74,352.745 1050.74,352.448 C1048.92,351.839 1047.13,350.839 1045.63,349.542 C1044.83,348.839 1044.03,348.042 1043.33,347.151 C1041.24,344.651 1039.53,340.948 1039.53,337.542 C1039.53,336.651 1039.63,335.745 1039.92,334.839"/>
<path class="Note" d="M1429.1,378.045 C1414.6,378.045 1405.6,384.154 1405.6,391.545 C1405.6,398.842 1411.8,405.342 1428,405.342 C1445.8,405.342 1451.5,399.154 1451.5,391.545 C1451.5,383.842 1439.21,378.045 1429.1,378.045 M1417.69,384.842 C1418.9,381.154 1422.9,380.545 1426.3,380.545 C1433.71,380.545 1439.71,388.545 1439.71,395.154 C1439.71,395.842 1439.6,396.545 1439.5,397.154 C1439,399.842 1437.4,401.748 1434.71,402.451 C1433.6,402.748 1432.5,402.842 1431.4,402.842 C1430.4,402.842 1429.5,402.748 1428.5,402.451 C1426.69,401.842 1424.9,400.842 1423.4,399.545 C1422.6,398.842 1421.8,398.045 1421.1,397.154 C1419,394.654 1417.3,390.951 1417.3,387.545 C1417.3,386.654 1417.4,385.748 1417.69,384.842"/>
<path class="Note" d="M1429.1,353.043 C1414.6,353.043 1405.6,359.153 1405.6,366.543 C1405.6,373.84 1411.8,380.34 1428,380.34 C1445.8,380.34 1451.5,374.153 1451.5,366.543 C1451.5,358.84 1439.21,353.043 1429.1,353.043 M1417.69,359.84 C1418.9,356.153 1422.9,355.543 1426.3,355.543 C1433.71,355.543 1439.71,363.543 1439.71,370.153 C1439.71,370.84 1439.6,371.543 1439.5,372.153 C1439,374.84 1437.4,376.746 1434.71,377.45 C1433.6,377.746 1432.5,377.84 1431.4,377.84 C1430.4,377.84 1429.5,377.746 1428.5,377.45 C1426.69,376.84 1424.9,375.84 1423.4,374.543 C1422.6,373.84 1421.8,373.043 1421.1,372.153 C1419,369.653 1417.3,365.95 1417.3,362.543 C1417.3,361.653 1417.4,360.746 1417.69,359.84"/>
<path class="Note" d="M1429.1,315.541 C1414.6,315.541 1405.6,321.65 1405.6,329.041 C1405.6,336.338 1411.8,342.838 1428,342.838 C1445.8,342.838 1451.5,336.65 1451.5,329.041 C1451.5,321.338 1439.21,315.541 1429.1,315.541 M1417.69,322.338 C1418.9,318.65 1422.9,318.041 1426.3,318.041 C1433.71,318.041 1439.71,326.041 1439.71,332.65 C1439.71,333.338 1439.6,334.041 1439.5,334.65 C1439,337.338 1437.4,339.244 1434.71,339.947 C1433.6,340.244 1432.5,340.338 1431.4,340.338 C1430.4,340.338 1429.5,340.244 1428.5,339.947 C1426.69,339.338 1424.9,338.338 1423.4,337.041 C1422.6,336.338 1421.8,335.541 1421.1,334.65 C1419,332.15 1417.3,328.447 1417.3,325.041 C1417.3,324.15 1417.4,323.244 1417.69,322.338"/>
<path class="Note" d="M1788.37,378.045 C1773.87,378.045 1764.87,384.154 1764.87,391.545 C1764.87,398.842 1771.07,405.342 1787.27,405.342 C1805.07,405.342 1810.77,399.154 1810.77,391.545 C1810.77,383.842 1798.48,378.045 1788.37,378.045 M1776.96,384.842 C1778.16,381.154 1782.16,380.545 1785.57,380.545 C1792.98,380.545 1798.98,388.545 1798.98,395.154 C1798.98,395.842 1798.87,396.545 1798.77,397.154 C1798.27,399.842 1796.66,401.748 1793.98,402.451 C1792.87,402.748 1791.77,402.842 1790.66,402.842 C1789.66,402.842 1788.77,402.748 1787.77,402.451 C1785.96,401.842 1784.16,400.842 1782.66,399.545 C1781.87,398.842 1781.07,398.045 1780.37,397.154 C1778.27,394.654 1776.57,390.951 1776.57,387.545 C1776.57,386.654 1776.66,385.748 1776.96,384.842"/>
<path class="Note" d="M1788.37,353.043 C1773.87,353.043 1764.87,359.153 1764.87,366.543 C1764.87,373.84 1771.07,380.34 1787.27,380.34 C1805.07,380.34 1810.77,374.153 1810.77,366.543 C1810.77,358.84 1798.48,353.043 1788.37,353.043 M1776.96,359.84 C1778.16,356.153 1782.16,355.543 1785.57,355.543 C1792.98,355.543 1798.98,363.543 1798.98,370.153 C1798.98,370.84 1798.87,371.543 1798.77,372.153 C1798.27,374.84 1796.66,376.746 1793.98,377.45 C1792.87,377.746 1791.77,377.84 1790.66,377.84 C1789.66,377.84 1788.77,377.746 1787.77,377.45 C1785.96,376.84 1784.16,375.84 1782.66,374.543 C1781.87,373.84 1781.07,373.043 1780.37,372.153 C1778.27,369.653 1776.57,365.95 1776.57,362.543 C1776.57,361.653 1776.66,360.746 1776.96,359.84"/>
<path class="Note" d="M1788.37,315.541 C1773.87,315.541 1764.87,321.65 1764.87,329.041 C1764.87,336.338 1771.07,342.838 1787.27,342.838 C1805.07,342.838 1810.77,336.65 1810.77,329.041 C1810.77,321.338 1798.48,315.541 1788.37,315.541 M1776.96,322.338 C1778.16,318.65 1782.16,318.041 1785.57,318.041 C1792.98,318.041 1798.98,326.041 1798.98,332.65 C1798.98,333.338 1798.87,334.041 1798.77,334.65 C1798.27,337.338 1796.66,339.244 1793.98,339.947 C1792.87,340.244 1791.77,340.338 1790.66,340.338 C1789.66,340.338 1788.77,340.244 1787.77,339.947 C1785.96,339.338 1784.16,338.338 1782.66,337.041 C1781.87,336.338 1781.07,335.541 1780.37,334.65 C1778.27,332.15 1776.57,328.447 1776.57,325.041 C1776.57,324.15 1776.66,323.244 1776.96,322.338"/>
<path class="Note" d="M2129.13,353.043 C2114.63,353.043 2105.63,359.153 2105.63,366.543 C2105.63,373.84 2111.84,380.34 2128.04,380.34 C2145.84,380.34 2151.54,374.153 2151.54,366.543 C2151.54,358.84 2139.24,353.043 2129.13,353.043 M2117.73,359.84 C2118.93,356.153 2122.93,355.543 2126.34,355.543 C2133.74,355.543 2139.74,363.543 2139.74,370.153 C2139.74,370.84 2139.63,371.543 2139.54,372.153 C2139.04,374.84 2137.43,376.746 2134.74,377.45 C2133.63,377.746 2132.54,377.84 2131.43,377.84 C2130.43,377.84 2129.54,377.746 2128.54,377.45 C2126.73,376.84 2124.93,375.84 2123.43,374.543 C2122.63,373.84 2121.84,373.043 2121.13,372.153 C2119.04,369.653 2117.34,365.95 2117.34,362.543 C2117.34,361.653 2117.43,360.746 2117.73,359.84"/>
<path class="Note" d="M2129.13,315.541 C2114.63,315.541 2105.63,321.65 2105.63,329.041 C2105.63,336.338 2111.84,342.838 2128.04,342.838 C2145.84,342.838 2151.54,336.65 2151.54,329.041 C2151.54,321.338 2139.24,315.541 2129.13,315.541 M2117.73,322.338 C2118.93,318.65 2122.93,318.041 2126.34,318.041 C2133.74,318.041 2139.74,326.041 2139.74,332.65 C2139.74,333.338 2139.63,334.041 2139.54,334.65 C2139.04,337.338 2137.43,339.244 2134.74,339.947 C2133.63,340.244 2132.54,340.338 2131.43,340.338 C2130.43,340.338 2129.54,340.244 2128.54,339.947 C2126.73,339.338 2124.93,338.338 2123.43,337.041 C2122.63,336.338 2121.84,335.541 2121.13,334.65 C2119.04,332.15 2117.34,328.447 2117.34,325.041 C2117.34,324.15 2117.43,323.244 2117.73,322.338"/>
<path class="Note" d="M2360.79,390.546 C2346.29,390.546 2337.29,396.655 2337.29,404.046 C2337.29,411.343 2343.49,417.843 2359.69,417.843 C2377.49,417.843 2383.19,411.655 2383.19,404.046 C2383.19,396.343 2370.9,390.546 2360.79,390.546 M2349.38,397.343 C2350.58,393.655 2354.58,393.046 2357.99,393.046 C2365.4,393.046 2371.4,401.046 2371.4,407.655 C2371.4,408.343 2371.29,409.046 2371.19,409.655 C2370.69,412.343 2369.08,414.249 2366.4,414.952 C2365.29,415.249 2364.19,415.343 2363.08,415.343 C2362.08,415.343 2361.19,415.249 2360.19,414.952 C2358.38,414.343 2356.58,413.343 2355.08,412.046 C2354.29,411.343 2353.49,410.546 2352.79,409.655 C2350.69,407.155 2348.99,403.452 2348.99,400.046 C2348.99,399.155 2349.08,398.249 2349.38,397.343"/>
<path class="Note" d="M2360.79,353.043 C2346.29,353.043 2337.29,359.153 2337.29,366.543 C2337.29,373.84 2343.49,380.34 2359.69,380.34 C2377.49,380.34 2383.19,374.153 2383.19,366.543 C2383.19,358.84 2370.9,353.043 2360.79,353.043 M2349.38,359.84 C2350.58,356.153 2354.58,355.543 2357.99,355.543 C2365.4,355.543 2371.4,363.543 2371.4,370.153 C2371.4,370.84 2371.29,371.543 2371.19,372.153 C2370.69,374.84 2369.08,376.746 2366.4,377.45 C2365.29,377.746 2364.19,377.84 2363.08,377.84 C2362.08,377.84 2361.19,377.746 2360.19,377.45 C2358.38,376.84 2356.58,375.84 2355.08,374.543 C2354.29,373.84 2353.49,373.043 2352.79,372.153 C2350.69,369.653 2348.99,365.95 2348.99,362.543 C2348.99,361.653 2349.08,360.746 2349.38,359.84"/>
<path class="Note" d="M2360.79,328.042 C2346.29,328.042 2337.29,334.151 2337.29,341.542 C2337.29,348.839 2343.49,355.339 2359.69,355.339 C2377.49,355.339 2383.19,349.151 2383.19,341.542 C2383.19,333.839 2370.9,328.042 2360.79,328.042 M2349.38,334.839 C2350.58,331.151 2354.58,330.542 2357.99,330.542 C2365.4,330.542 2371.4,338.542 2371.4,345.151 C2371.4,345.839 2371.29,346.542 2371.19,347.151 C2370.69,349.839 2369.08,351.745 2366.4,352.448 C2365.29,352.745 2364.19,352.839 2363.08,352.839 C2362.08,352.839 2361.19,352.745 2360.19,352.448 C2358.38,351.839 2356.58,350.839 2355.08,349.542 C2354.29,348.839 2353.49,348.042 2352.79,347.151 C2350.69,344.651 2348.99,340.948 2348.99,337.542 C2348.99,336.651 2349.08,335.745 2349.38,334.839"/>
<path class="Note" d="M2662.94,378.045 C2648.44,378.045 2639.44,384.154 2639.44,391.545 C2639.44,398.842 2645.64,405.342 2661.84,405.342 C2679.64,405.342 2685.34,399.154 2685.34,391.545 C2685.34,383.842 2673.05,378.045 2662.94,378.045 M2651.53,384.842 C2652.74,381.154 2656.74,380.545 2660.14,380.545 C2667.55,380.545 2673.55,388.545 2673.55,395.154 C2673.55,395.842 2673.44,396.545 2673.34,397.154 C2672.84,399.842 2671.24,401.748 2668.55,402.451 C2667.44,402.748 2666.34,402.842 2665.24,402.842 C2664.24,402.842 2663.34,402.748 2662.34,402.451 C2660.53,401.842 2658.74,400.842 2657.24,399.545 C2656.44,398.842 2655.64,398.045 2654.94,397.154 C2652.84,394.654 2651.14,390.951 2651.14,387.545 C2651.14,386.654 2651.24,385.748 2651.53,384.842"/>
<path class="Note" d="M2662.94,353.043 C2648.44,353.043 2639.44,359.153 2639.44,366.543 C2639.44,373.84 2645.64,380.34 2661.84,380.34 C2679.64,380.34 2685.34,374.153 2685.34,366.543 C2685.34,358.84 2673.05,353.043 2662.94,353.043 M2651.53,359.84 C2652.74,356.153 2656.74,355.543 2660.14,355.543 C2667.55,355.543 2673.55,363.543 2673.55,370.153 C2673.55,370.84 2673.44,371.543 2673.34,372.153 C2672.84,374.84 2671.24,376.746 2668.55,377.45 C2667.44,377.746 2666.34,377.84 2665.24,377.84 C2664.24,377.84 2663.34,377.746 2662.34,377.45 C2660.53,376.84 2658.74,375.84 2657.24,374.543 C2656.44,373.84 2655.64,373.043 2654.94,372.153 C2652.84,369.653 2651.14,365.95 2651.14,362.543 C2651.14,361.653 2651.24,360.746 2651.53,359.84"/>
<path class="Note" d="M2662.94,315.541 C2648.44,315.541 2639.44,321.65 2639.44,329.041 C2639.44,336.338 2645.64,342.838 2661.84,342.838 C2679.64,342.838 2685.34,336.65 2685.34,329.041 C2685.34,321.338 2673.05,315.541 2662.94,315.541 M2651.53,322.338 C2652.74,318.65 2656.74,318.041 2660.14,318.041 C2667.55,318.041 2673.55,326.041 2673.55,332.65 C2673.55,333.338 2673.44,334.041 2673.34,334.65 C2672.84,337.338 2671.24,339.244 2668.55,339.947 C2667.44,340.244 2666.34,340.338 2665.24,340.338 C2664.24,340.338 2663.34,340.244 2662.34,339.947 C2660.53,339.338 2658.74,338.338 2657.24,337.041 C2656.44,336.338 2655.64,335.541 2654.94,334.65 C2652.84,332.15 2651.14,328.447 2651.14,325.041 C2651.14,324.15 2651.24,323.244 2651.53,322.338"/>
<path class="Clef" d="M232.937,578.058 C215.531,578.058 207.734,590.761 207.734,600.355 C207.734,608.355 211.937,615.261 220.031,615.261 C226.328,615.261 230.64,610.855 230.64,604.668 C230.64,598.261 225.937,594.261 221.031,594.261 C218.328,594.261 217.328,594.965 216.031,594.965 C214.734,594.965 214.437,594.168 214.437,593.168 C214.437,589.168 220.437,581.855 230.64,581.855 C241.234,581.855 245.843,592.261 245.843,607.965 C245.843,618.261 243.64,630.261 237.437,639.871 C231.437,649.168 221.14,657.668 208.734,664.761 C207.828,665.261 207.234,665.761 207.234,666.558 C207.234,667.168 207.64,667.761 208.531,667.761 C209.031,667.761 209.64,667.558 210.234,667.261 C223.531,660.761 236.343,653.168 246.937,641.761 C255.64,632.371 260.843,620.168 260.843,607.058 C260.843,589.668 250.234,578.058 232.937,578.058 M270.734,611.355 C267.64,611.355 265.343,613.668 265.343,616.761 C265.343,619.855 267.64,622.168 270.734,622.168 C273.843,622.168 276.14,619.855 276.14,616.761 C276.14,613.668 273.843,611.355 270.734,611.355 M270.64,586.261 C267.531,586.261 265.14,588.668 265.14,591.761 C265.14,594.855 267.531,597.261 270.64,597.261 C273.734,597.261 276.14,594.855 276.14,591.761 C276.14,588.668 273.734,586.261 270.64,586.261"/>
<path class="Clef" d="M254.734,297.436 C258.031,297.436 260.734,300.139 260.734,305.639 C260.734,312.545 257.437,318.951 249.64,326.748 C248.031,328.342 245.64,330.639 243.343,332.639 C242.64,333.248 242.234,333.139 242.031,331.842 C241.64,329.248 241.437,325.842 241.437,322.639 C241.437,307.045 248.64,297.436 254.734,297.436 M250.734,381.451 C250.531,380.248 250.64,379.951 251.843,380.045 C259.937,380.748 266.64,387.545 266.64,396.342 C266.64,402.654 262.843,407.748 257.234,410.545 C256.031,411.154 255.843,411.154 255.64,409.951 L250.734,381.451 M243.843,365.545 C244.14,367.451 244.14,367.342 242.343,367.951 C233.531,370.951 227.828,378.842 227.828,387.342 C227.828,396.342 232.531,402.748 239.343,405.045 C240.14,405.342 241.343,405.654 242.031,405.654 C242.843,405.654 243.234,405.154 243.234,404.545 C243.234,403.842 242.437,403.545 241.734,403.248 C237.531,401.451 234.531,397.154 234.531,392.545 C234.531,386.842 238.437,382.545 244.531,380.842 C246.14,380.451 246.343,380.545 246.531,381.654 L251.531,411.451 C251.734,412.545 251.64,412.545 250.14,412.842 C248.531,413.154 246.531,413.342 244.531,413.342 C227.031,413.342 215.734,403.654 215.734,389.748 C215.734,383.842 216.734,375.951 225.031,366.545 C231.031,359.842 235.64,356.139 240.343,352.342 C241.343,351.545 241.531,351.639 241.734,352.748 L243.843,365.545 M245.343,350.248 C245.14,349.045 245.343,348.951 245.937,348.342 C247.531,346.842 249.64,344.748 251.531,342.639 C259.937,333.451 264.937,321.545 264.937,310.248 C264.937,301.545 262.531,292.936 258.437,286.936 C256.937,284.748 254.343,281.936 253.234,281.936 C251.843,281.936 248.734,284.545 246.734,286.748 C239.343,294.936 236.937,307.436 236.937,317.842 C236.937,323.639 237.64,330.139 238.343,334.248 C238.531,335.451 238.64,335.639 237.437,336.639 C231.031,341.951 224.14,348.045 218.937,354.451 C212.031,363.045 207.734,372.342 207.734,383.045 C207.734,400.451 219.64,416.951 244.14,416.951 C246.437,416.951 249.031,416.748 251.031,416.342 C252.14,416.154 252.343,416.045 252.531,417.248 C253.734,423.951 255.234,432.654 255.234,437.357 C255.234,452.154 245.234,453.951 239.343,453.951 C233.937,453.951 231.328,452.357 231.328,451.045 C231.328,450.357 232.234,450.045 234.531,449.357 C237.64,448.451 241.234,445.748 241.234,439.951 C241.234,434.451 237.734,429.748 231.64,429.748 C224.937,429.748 220.937,435.045 220.937,441.248 C220.937,447.748 224.828,457.545 239.937,457.545 C246.64,457.545 259.64,454.545 259.64,437.545 C259.64,431.857 257.843,422.357 256.734,416.154 C256.531,414.951 256.64,415.045 258.031,414.451 C268.14,410.451 274.843,401.951 274.843,390.654 C274.843,377.842 265.437,366.545 250.734,366.545 C248.14,366.545 248.14,366.545 247.843,364.748 L245.343,350.248 "/>
<path class="Rest" d="M443.358,615.168 L443.358,605.965 C443.358,604.465 442.155,603.355 440.764,603.355 L417.748,603.355 C416.248,603.355 415.155,604.465 415.155,605.965 L415.155,615.168 C415.155,616.558 416.248,617.761 417.748,617.761 L440.764,617.761 C442.155,617.761 443.358,616.558 443.358,615.168"/>
<path class="Bracket" transform="matrix(3.62523,0,0,3.62523,144.23,679.266)" d="M2,-49.7969 C4.90625,-51.6094 8.20313,-58.7031 8.20313,-64.6094 C8.20313,-65.1094 8.20313,-65.7031 8.09375,-66.2031 C7.40625,-72.2031 4.40625,-81.5 4.40625,-86.9063 C4.40625,-92.1094 6.70313,-97.1094 7.20313,-98 C7.59375,-98.4063 7.70313,-98.7031 7.70313,-99 C7.70313,-99.2031 7.59375,-99.4063 7.5,-99.4063 C7.40625,-99.5 7.29688,-99.7031 7.09375,-99.7031 C6.90625,-99.7031 6.70313,-99.5 6.29688,-99 C4.09375,-96.3125 1.40625,-90.5 1.40625,-80.5 C1.40625,-70.6094 4.90625,-66.6094 4.90625,-60.2969 C4.90625,-55.6094 3,-53 0.203125,-49.7969 C2,-47.7969 4.90625,-46.2031 4.90625,-39.7031 C4.90625,-32.7031 1.40625,-26.5 1.40625,-19.2031 C1.40625,-9.20313 4.09375,-3.40625 6.29688,-0.59375 C6.70313,-0.09375 6.90625,0 7.09375,0 C7.29688,0 7.40625,-0.09375 7.5,-0.203125 C7.59375,-0.296875 7.70313,-0.40625 7.70313,-0.59375 C7.70313,-0.90625 7.59375,-1.20313 7.20313,-1.70313 C6.70313,-2.5 4.40625,-7.5 4.40625,-12.7969 C4.40625,-18.0938 7.40625,-27.5 8.09375,-33.4063 C8.20313,-33.9063 8.20313,-34.4063 8.20313,-35 C8.20313,-40.9063 4.90625,-48 2,-49.7969"/>
</svg>
