<?xml version="1.0" encoding="UTF-8" standalone="no"?>
<svg width="2977.23px" height="4208.47px" viewBox="0 0 2977.23 4208.47"
 xmlns="http://www.w3.org/2000/svg" xmlns:xlink="http://www.w3.org/1999/xlink" version="1.2" baseProfile="tiny">
<title>Zwerg-Struktur (3)</title>
<desc>Generated by MuseScore 3.4.2</desc>
<polyline class="StaffLines" fill="none" stroke="#000000" stroke-width="3.25" stroke-linejoin="bevel" points="183.232,316.743 2835.5,316.743"/>
<polyline class="StaffLines" fill="none" stroke="#000000" stroke-width="3.25" stroke-linejoin="bevel" points="183.232,341.745 2835.5,341.745"/>
<polyline class="StaffLines" fill="none" stroke="#000000" stroke-width="3.25" stroke-linejoin="bevel" points="183.232,366.746 2835.5,366.746"/>
<polyline class="StaffLines" fill="none" stroke="#000000" stroke-width="3.25" stroke-linejoin="bevel" points="183.232,391.748 2835.5,391.748"/>
<polyline class="StaffLines" fill="none" stroke="#000000" stroke-width="3.25" stroke-linejoin="bevel" points="183.232,416.75 2835.5,416.75"/>
<polyline class="StaffLines" fill="none" stroke="#000000" stroke-width="3.25" stroke-linejoin="bevel" points="183.232,579.26 2835.5,579.26"/>
<polyline class="StaffLines" fill="none" stroke="#000000" stroke-width="3.25" stroke-linejoin="bevel" points="183.232,604.261 2835.5,604.261"/>
<polyline class="StaffLines" fill="none" stroke="#000000" stroke-width="3.25" stroke-linejoin="bevel" points="183.232,629.263 2835.5,629.263"/>
<polyline class="StaffLines" fill="none" stroke="#000000" stroke-width="3.25" stroke-linejoin="bevel" points="183.232,654.265 2835.5,654.265"/>
<polyline class="StaffLines" fill="none" stroke="#000000" stroke-width="3.25" stroke-linejoin="bevel" points="183.232,679.266 2835.5,679.266"/>
<polyline class="BarLine" fill="none" stroke="#000000" stroke-width="4.00" stroke-linejoin="bevel" points="185.233,577.635 185.233,680.891"/>
<polyline class="BarLine" fill="none" stroke="#000000" stroke-width="4.00" stroke-linejoin="bevel" points="547.292,577.635 547.292,680.891"/>
<polyline class="BarLine" fill="none" stroke="#000000" stroke-width="4.00" stroke-linejoin="bevel" points="772.452,577.635 772.452,680.891"/>
<polyline class="BarLine" fill="none" stroke="#000000" stroke-width="4.00" stroke-linejoin="bevel" points="997.611,577.635 997.611,680.891"/>
<polyline class="BarLine" fill="none" stroke="#000000" stroke-width="4.00" stroke-linejoin="bevel" points="1222.77,577.635 1222.77,680.891"/>
<polyline class="BarLine" fill="none" stroke="#000000" stroke-width="4.00" stroke-linejoin="bevel" points="1451.92,577.635 1451.92,680.891"/>
<polyline class="BarLine" fill="none" stroke="#000000" stroke-width="4.00" stroke-linejoin="bevel" points="1465.92,577.635 1465.92,680.891"/>
<polyline class="BarLine" fill="none" stroke="#000000" stroke-width="4.00" stroke-linejoin="bevel" points="1716.76,577.635 1716.76,680.891"/>
<polyline class="BarLine" fill="none" stroke="#000000" stroke-width="4.00" stroke-linejoin="bevel" points="1983.07,577.635 1983.07,680.891"/>
<polyline class="BarLine" fill="none" stroke="#000000" stroke-width="4.00" stroke-linejoin="bevel" points="2237.11,577.635 2237.11,680.891"/>
<polyline class="BarLine" fill="none" stroke="#000000" stroke-width="4.00" stroke-linejoin="bevel" points="2565.41,577.635 2565.41,680.891"/>
<polyline class="BarLine" fill="none" stroke="#000000" stroke-width="4.00" stroke-linejoin="bevel" points="2833.5,577.635 2833.5,680.891"/>
<polyline class="BarLine" fill="none" stroke="#000000" stroke-width="4.00" stroke-linejoin="bevel" points="185.233,315.118 185.233,579.26"/>
<polyline class="BarLine" fill="none" stroke="#000000" stroke-width="4.00" stroke-linejoin="bevel" points="547.292,315.118 547.292,579.26"/>
<polyline class="BarLine" fill="none" stroke="#000000" stroke-width="4.00" stroke-linejoin="bevel" points="772.452,315.118 772.452,579.26"/>
<polyline class="BarLine" fill="none" stroke="#000000" stroke-width="4.00" stroke-linejoin="bevel" points="997.611,315.118 997.611,579.26"/>
<polyline class="BarLine" fill="none" stroke="#000000" stroke-width="4.00" stroke-linejoin="bevel" points="1222.77,315.118 1222.77,579.26"/>
<polyline class="BarLine" fill="none" stroke="#000000" stroke-width="4.00" stroke-linejoin="bevel" points="1451.92,315.118 1451.92,579.26"/>
<polyline class="BarLine" fill="none" stroke="#000000" stroke-width="4.00" stroke-linejoin="bevel" points="1465.92,315.118 1465.92,579.26"/>
<polyline class="BarLine" fill="none" stroke="#000000" stroke-width="4.00" stroke-linejoin="bevel" points="1716.76,315.118 1716.76,579.26"/>
<polyline class="BarLine" fill="none" stroke="#000000" stroke-width="4.00" stroke-linejoin="bevel" points="1983.07,315.118 1983.07,579.26"/>
<polyline class="BarLine" fill="none" stroke="#000000" stroke-width="4.00" stroke-linejoin="bevel" points="2237.11,315.118 2237.11,579.26"/>
<polyline class="BarLine" fill="none" stroke="#000000" stroke-width="4.00" stroke-linejoin="bevel" points="2565.41,315.118 2565.41,579.26"/>
<polyline class="BarLine" fill="none" stroke="#000000" stroke-width="4.00" stroke-linejoin="bevel" points="2833.5,315.118 2833.5,579.26"/>
<path class="Accidental" d="M1248.98,637.357 C1248.98,637.357 1248.68,631.357 1248.68,627.357 C1248.68,625.763 1248.77,624.56 1248.87,624.169 C1249.27,622.966 1251.87,620.763 1253.27,619.966 C1254.18,619.466 1255.07,619.263 1255.87,619.263 C1256.87,619.263 1257.77,619.669 1258.37,620.357 C1259.37,621.466 1259.98,623.169 1259.98,625.06 C1259.98,626.857 1259.48,628.966 1258.27,631.06 C1256.98,633.466 1254.07,636.669 1251.07,638.56 C1250.68,638.763 1250.37,638.857 1250.07,638.857 C1249.18,638.857 1248.98,637.857 1248.98,637.357 M1245.48,646.263 C1245.77,646.669 1246.07,646.763 1246.37,646.763 C1246.68,646.763 1246.98,646.56 1246.98,646.56 C1249.98,644.857 1252.37,642.169 1254.87,640.466 C1263.77,634.263 1266.87,628.169 1266.87,623.56 C1266.87,617.857 1262.48,614.263 1257.87,613.966 C1257.18,613.966 1256.48,614.06 1255.77,614.263 C1254.68,614.56 1253.48,614.966 1252.37,615.669 C1251.77,616.169 1250.68,617.06 1250.18,617.06 C1249.98,617.06 1249.87,617.06 1249.68,616.966 C1248.98,616.669 1248.57,615.966 1248.57,615.263 C1248.68,613.06 1249.27,589.06 1249.27,587.06 C1249.27,585.966 1248.37,585.357 1247.37,585.357 C1245.98,585.357 1244.37,586.357 1244.27,588.154 C1244.27,588.154 1244.68,645.263 1245.48,646.263"/>
<path class="Accidental" d="M2599.17,637.357 C2599.17,637.357 2598.87,631.357 2598.87,627.357 C2598.87,625.763 2598.97,624.56 2599.06,624.169 C2599.47,622.966 2602.06,620.763 2603.47,619.966 C2604.37,619.466 2605.26,619.263 2606.06,619.263 C2607.06,619.263 2607.97,619.669 2608.56,620.357 C2609.56,621.466 2610.17,623.169 2610.17,625.06 C2610.17,626.857 2609.67,628.966 2608.47,631.06 C2607.17,633.466 2604.26,636.669 2601.26,638.56 C2600.87,638.763 2600.56,638.857 2600.26,638.857 C2599.37,638.857 2599.17,637.857 2599.17,637.357 M2595.67,646.263 C2595.97,646.669 2596.26,646.763 2596.56,646.763 C2596.87,646.763 2597.17,646.56 2597.17,646.56 C2600.17,644.857 2602.56,642.169 2605.06,640.466 C2613.97,634.263 2617.06,628.169 2617.06,623.56 C2617.06,617.857 2612.67,614.263 2608.06,613.966 C2607.37,613.966 2606.67,614.06 2605.97,614.263 C2604.87,614.56 2603.67,614.966 2602.56,615.669 C2601.97,616.169 2600.87,617.06 2600.37,617.06 C2600.17,617.06 2600.06,617.06 2599.87,616.966 C2599.17,616.669 2598.76,615.966 2598.76,615.263 C2598.87,613.06 2599.47,589.06 2599.47,587.06 C2599.47,585.966 2598.56,585.357 2597.56,585.357 C2596.17,585.357 2594.56,586.357 2594.47,588.154 C2594.47,588.154 2594.87,645.263 2595.67,646.263"/>
<path class="Accidental" d="M1729.96,400.343 C1729.96,398.952 1736.06,396.343 1738.46,396.343 C1739.06,396.343 1739.36,396.452 1739.36,396.843 L1739.36,407.155 C1739.36,408.952 1733.67,411.249 1731.17,411.249 C1730.46,411.249 1729.96,411.046 1729.96,410.655 L1729.96,400.343 M1740.36,386.155 C1740.17,386.155 1740.06,386.249 1739.96,386.249 C1739.96,386.249 1733.56,388.546 1730.96,388.546 C1730.36,388.546 1729.96,388.452 1729.96,388.046 L1729.96,371.343 C1729.96,370.639 1729.36,370.139 1728.76,370.139 L1727.46,370.139 C1726.76,370.139 1726.26,370.639 1726.26,371.343 L1726.26,422.843 C1726.26,423.452 1726.56,423.749 1727.06,423.749 C1727.17,423.749 1727.36,423.655 1727.46,423.655 C1727.46,423.655 1727.67,423.655 1727.76,423.546 C1729.17,422.952 1734.76,420.546 1737.67,420.546 C1738.67,420.546 1739.36,420.843 1739.36,421.655 L1739.36,436.546 C1739.36,437.249 1739.86,437.749 1740.56,437.749 L1741.86,437.749 C1742.46,437.749 1743.06,437.249 1743.06,436.546 L1743.06,386.343 C1743.06,385.843 1742.67,385.546 1742.26,385.546 C1742.17,385.546 1741.96,385.546 1741.86,385.655 L1740.36,386.155 "/>
<path class="Accidental" d="M2002.78,424.843 C2002.78,424.843 2002.48,418.843 2002.48,414.843 C2002.48,413.25 2002.58,412.046 2002.67,411.656 C2003.08,410.453 2005.67,408.25 2007.08,407.453 C2007.98,406.953 2008.87,406.75 2009.67,406.75 C2010.67,406.75 2011.58,407.156 2012.17,407.843 C2013.17,408.953 2013.78,410.656 2013.78,412.546 C2013.78,414.343 2013.28,416.453 2012.08,418.546 C2010.78,420.953 2007.87,424.156 2004.87,426.046 C2004.48,426.25 2004.17,426.343 2003.87,426.343 C2002.98,426.343 2002.78,425.343 2002.78,424.843 M1999.28,433.75 C1999.58,434.156 1999.87,434.25 2000.17,434.25 C2000.48,434.25 2000.78,434.046 2000.78,434.046 C2003.78,432.343 2006.17,429.656 2008.67,427.953 C2017.58,421.75 2020.67,415.656 2020.67,411.046 C2020.67,405.343 2016.28,401.75 2011.67,401.453 C2010.98,401.453 2010.28,401.546 2009.58,401.75 C2008.48,402.046 2007.28,402.453 2006.17,403.156 C2005.58,403.656 2004.48,404.546 2003.98,404.546 C2003.78,404.546 2003.67,404.546 2003.48,404.453 C2002.78,404.156 2002.37,403.453 2002.37,402.75 C2002.48,400.546 2003.08,376.546 2003.08,374.546 C2003.08,373.453 2002.17,372.843 2001.17,372.843 C1999.78,372.843 1998.17,373.843 1998.08,375.64 C1998.08,375.64 1998.48,432.75 1999.28,433.75"/>
<path class="Accidental" d="M2279.41,424.843 C2279.41,424.843 2279.11,418.843 2279.11,414.843 C2279.11,413.25 2279.2,412.046 2279.3,411.656 C2279.7,410.453 2282.3,408.25 2283.7,407.453 C2284.61,406.953 2285.5,406.75 2286.3,406.75 C2287.3,406.75 2288.2,407.156 2288.8,407.843 C2289.8,408.953 2290.41,410.656 2290.41,412.546 C2290.41,414.343 2289.91,416.453 2288.7,418.546 C2287.41,420.953 2284.5,424.156 2281.5,426.046 C2281.11,426.25 2280.8,426.343 2280.5,426.343 C2279.61,426.343 2279.41,425.343 2279.41,424.843 M2275.91,433.75 C2276.2,434.156 2276.5,434.25 2276.8,434.25 C2277.11,434.25 2277.41,434.046 2277.41,434.046 C2280.41,432.343 2282.8,429.656 2285.3,427.953 C2294.2,421.75 2297.3,415.656 2297.3,411.046 C2297.3,405.343 2292.91,401.75 2288.3,401.453 C2287.61,401.453 2286.91,401.546 2286.2,401.75 C2285.11,402.046 2283.91,402.453 2282.8,403.156 C2282.2,403.656 2281.11,404.546 2280.61,404.546 C2280.41,404.546 2280.3,404.546 2280.11,404.453 C2279.41,404.156 2279,403.453 2279,402.75 C2279.11,400.546 2279.7,376.546 2279.7,374.546 C2279.7,373.453 2278.8,372.843 2277.8,372.843 C2276.41,372.843 2274.8,373.843 2274.7,375.64 C2274.7,375.64 2275.11,432.75 2275.91,433.75"/>
<path class="Accidental" d="M2251.31,399.842 C2251.31,399.842 2251.01,393.842 2251.01,389.842 C2251.01,388.248 2251.11,387.045 2251.2,386.654 C2251.61,385.451 2254.2,383.248 2255.61,382.451 C2256.51,381.951 2257.4,381.748 2258.2,381.748 C2259.2,381.748 2260.11,382.154 2260.7,382.842 C2261.7,383.951 2262.31,385.654 2262.31,387.545 C2262.31,389.342 2261.81,391.451 2260.61,393.545 C2259.31,395.951 2256.4,399.154 2253.4,401.045 C2253.01,401.248 2252.7,401.342 2252.4,401.342 C2251.51,401.342 2251.31,400.342 2251.31,399.842 M2247.81,408.748 C2248.11,409.154 2248.4,409.248 2248.7,409.248 C2249.01,409.248 2249.31,409.045 2249.31,409.045 C2252.31,407.342 2254.7,404.654 2257.2,402.951 C2266.11,396.748 2269.2,390.654 2269.2,386.045 C2269.2,380.342 2264.81,376.748 2260.2,376.451 C2259.51,376.451 2258.81,376.545 2258.11,376.748 C2257.01,377.045 2255.81,377.451 2254.7,378.154 C2254.11,378.654 2253.01,379.545 2252.51,379.545 C2252.31,379.545 2252.2,379.545 2252.01,379.451 C2251.31,379.154 2250.9,378.451 2250.9,377.748 C2251.01,375.545 2251.61,351.545 2251.61,349.545 C2251.61,348.451 2250.7,347.842 2249.7,347.842 C2248.31,347.842 2246.7,348.842 2246.61,350.639 C2246.61,350.639 2247.01,407.748 2247.81,408.748"/>
<path class="Accidental" d="M2585.11,437.344 C2585.11,437.344 2584.82,431.344 2584.82,427.344 C2584.82,425.75 2584.91,424.547 2585,424.157 C2585.41,422.954 2588,420.75 2589.41,419.954 C2590.32,419.454 2591.21,419.25 2592,419.25 C2593,419.25 2593.91,419.657 2594.5,420.344 C2595.5,421.454 2596.11,423.157 2596.11,425.047 C2596.11,426.844 2595.61,428.954 2594.41,431.047 C2593.11,433.454 2590.21,436.657 2587.21,438.547 C2586.82,438.75 2586.5,438.844 2586.21,438.844 C2585.32,438.844 2585.11,437.844 2585.11,437.344 M2581.61,446.25 C2581.91,446.657 2582.21,446.75 2582.5,446.75 C2582.82,446.75 2583.11,446.547 2583.11,446.547 C2586.11,444.844 2588.5,442.157 2591,440.454 C2599.91,434.25 2603,428.157 2603,423.547 C2603,417.844 2598.61,414.25 2594,413.954 C2593.32,413.954 2592.61,414.047 2591.91,414.25 C2590.82,414.547 2589.61,414.954 2588.5,415.657 C2587.91,416.157 2586.82,417.047 2586.32,417.047 C2586.11,417.047 2586,417.047 2585.82,416.954 C2585.11,416.657 2584.71,415.954 2584.71,415.25 C2584.82,413.047 2585.41,389.047 2585.41,387.047 C2585.41,385.954 2584.5,385.344 2583.5,385.344 C2582.11,385.344 2580.5,386.344 2580.41,388.141 C2580.41,388.141 2580.82,445.25 2581.61,446.25"/>
<path class="Accidental" d="M354.133,408.749 C353.539,410.749 348.836,412.749 346.539,412.749 C345.93,412.749 345.43,412.546 345.336,412.249 C345.133,411.843 345.039,409.655 345.039,407.249 C345.039,404.155 345.133,400.655 345.336,399.843 C345.539,398.155 350.133,396.046 352.633,396.046 C353.336,396.046 353.93,396.249 354.133,396.655 C354.336,397.155 354.539,399.655 354.539,402.343 C354.539,405.046 354.336,407.843 354.133,408.749 M361.039,392.452 C361.742,392.155 362.242,391.343 362.242,390.749 L362.242,383.655 C362.242,383.155 361.93,382.843 361.539,382.843 C361.336,382.843 361.242,382.843 361.039,382.952 C361.039,382.952 359.039,383.749 358.539,383.843 C357.836,383.843 357.133,383.343 357.133,382.546 L357.133,370.343 C357.133,369.749 356.539,369.249 355.742,369.249 C354.742,369.249 354.133,369.749 354.133,370.343 L354.133,383.343 C354.039,384.343 353.742,385.655 352.836,386.249 C351.633,386.952 348.242,388.343 346.539,388.749 C345.633,388.749 345.336,387.546 345.336,386.749 L345.336,374.749 C345.336,374.139 344.633,373.639 343.93,373.639 C342.93,373.639 342.336,374.139 342.336,374.749 L342.336,388.249 C342.336,389.655 341.742,390.655 341.133,390.952 C340.539,391.249 338.539,392.046 338.539,392.046 C337.836,392.249 337.336,393.046 337.336,393.655 L337.336,400.749 C337.336,401.343 337.633,401.655 338.133,401.655 C338.242,401.655 338.43,401.546 338.539,401.546 C338.539,401.546 340.039,400.952 340.742,400.546 C340.836,400.546 340.93,400.452 341.039,400.452 C341.742,400.452 342.336,401.452 342.336,402.249 L342.336,412.155 C342.336,413.249 341.836,414.155 341.242,414.452 C340.633,414.655 338.539,415.546 338.539,415.546 C337.836,415.749 337.336,416.546 337.336,417.155 L337.336,424.249 C337.336,424.843 337.633,425.155 338.133,425.155 C338.242,425.155 338.43,425.046 338.539,425.046 C338.539,425.046 339.93,424.452 340.836,424.155 C340.93,424.046 341.039,424.046 341.133,424.046 C341.836,424.046 342.336,425.155 342.336,425.655 L342.336,437.952 C342.336,438.546 342.93,439.046 343.633,439.046 C344.633,439.046 345.336,438.546 345.336,437.952 L345.336,424.046 C345.336,422.749 345.836,422.046 346.336,421.843 L352.43,419.343 C352.539,419.343 352.742,419.249 352.836,419.249 C353.633,419.249 354.133,420.452 354.133,421.046 L354.133,433.546 C354.133,434.155 354.742,434.655 355.43,434.655 C356.539,434.655 357.133,434.155 357.133,433.546 L357.133,419.343 C357.133,418.546 357.539,417.343 358.242,417.046 C358.93,416.749 361.039,415.952 361.039,415.952 C361.742,415.655 362.242,414.843 362.242,414.249 L362.242,407.155 C362.242,406.655 361.93,406.343 361.539,406.343 C361.336,406.343 361.242,406.343 361.039,406.452 L358.43,407.452 C357.836,407.452 357.133,406.843 357.133,405.655 L357.133,396.343 C357.133,395.655 357.633,393.749 358.43,393.452 L361.039,392.452 "/>
<path class="Accidental" d="M1011.82,387.341 C1011.82,387.341 1011.52,381.341 1011.52,377.341 C1011.52,375.747 1011.61,374.544 1011.71,374.153 C1012.11,372.95 1014.71,370.747 1016.11,369.95 C1017.02,369.45 1017.91,369.247 1018.71,369.247 C1019.71,369.247 1020.61,369.653 1021.21,370.341 C1022.21,371.45 1022.82,373.153 1022.82,375.044 C1022.82,376.841 1022.32,378.95 1021.11,381.044 C1019.82,383.45 1016.91,386.653 1013.91,388.544 C1013.52,388.747 1013.21,388.841 1012.91,388.841 C1012.02,388.841 1011.82,387.841 1011.82,387.341 M1008.32,396.247 C1008.61,396.653 1008.91,396.747 1009.21,396.747 C1009.52,396.747 1009.82,396.544 1009.82,396.544 C1012.82,394.841 1015.21,392.153 1017.71,390.45 C1026.61,384.247 1029.71,378.153 1029.71,373.544 C1029.71,367.841 1025.32,364.247 1020.71,363.95 C1020.02,363.95 1019.32,364.044 1018.61,364.247 C1017.52,364.544 1016.32,364.95 1015.21,365.653 C1014.61,366.153 1013.52,367.044 1013.02,367.044 C1012.82,367.044 1012.71,367.044 1012.52,366.95 C1011.82,366.653 1011.41,365.95 1011.41,365.247 C1011.52,363.044 1012.11,339.044 1012.11,337.044 C1012.11,335.95 1011.21,335.341 1010.21,335.341 C1008.82,335.341 1007.21,336.341 1007.11,338.138 C1007.11,338.138 1007.52,395.247 1008.32,396.247"/>
<path class="Accidental" d="M1248.98,387.341 C1248.98,387.341 1248.68,381.341 1248.68,377.341 C1248.68,375.747 1248.77,374.544 1248.87,374.153 C1249.27,372.95 1251.87,370.747 1253.27,369.95 C1254.18,369.45 1255.07,369.247 1255.87,369.247 C1256.87,369.247 1257.77,369.653 1258.37,370.341 C1259.37,371.45 1259.98,373.153 1259.98,375.044 C1259.98,376.841 1259.48,378.95 1258.27,381.044 C1256.98,383.45 1254.07,386.653 1251.07,388.544 C1250.68,388.747 1250.37,388.841 1250.07,388.841 C1249.18,388.841 1248.98,387.841 1248.98,387.341 M1245.48,396.247 C1245.77,396.653 1246.07,396.747 1246.37,396.747 C1246.68,396.747 1246.98,396.544 1246.98,396.544 C1249.98,394.841 1252.37,392.153 1254.87,390.45 C1263.77,384.247 1266.87,378.153 1266.87,373.544 C1266.87,367.841 1262.48,364.247 1257.87,363.95 C1257.18,363.95 1256.48,364.044 1255.77,364.247 C1254.68,364.544 1253.48,364.95 1252.37,365.653 C1251.77,366.153 1250.68,367.044 1250.18,367.044 C1249.98,367.044 1249.87,367.044 1249.68,366.95 C1248.98,366.653 1248.57,365.95 1248.57,365.247 C1248.68,363.044 1249.27,339.044 1249.27,337.044 C1249.27,335.95 1248.37,335.341 1247.37,335.341 C1245.98,335.341 1244.37,336.341 1244.27,338.138 C1244.27,338.138 1244.68,395.247 1245.48,396.247"/>
<path class="Accidental" d="M1492.22,408.749 C1491.63,410.749 1486.92,412.749 1484.63,412.749 C1484.02,412.749 1483.52,412.546 1483.42,412.249 C1483.22,411.843 1483.13,409.655 1483.13,407.249 C1483.13,404.155 1483.22,400.655 1483.42,399.843 C1483.63,398.155 1488.22,396.046 1490.72,396.046 C1491.42,396.046 1492.02,396.249 1492.22,396.655 C1492.42,397.155 1492.63,399.655 1492.63,402.343 C1492.63,405.046 1492.42,407.843 1492.22,408.749 M1499.13,392.452 C1499.83,392.155 1500.33,391.343 1500.33,390.749 L1500.33,383.655 C1500.33,383.155 1500.02,382.843 1499.63,382.843 C1499.42,382.843 1499.33,382.843 1499.13,382.952 C1499.13,382.952 1497.13,383.749 1496.63,383.843 C1495.92,383.843 1495.22,383.343 1495.22,382.546 L1495.22,370.343 C1495.22,369.749 1494.63,369.249 1493.83,369.249 C1492.83,369.249 1492.22,369.749 1492.22,370.343 L1492.22,383.343 C1492.13,384.343 1491.83,385.655 1490.92,386.249 C1489.72,386.952 1486.33,388.343 1484.63,388.749 C1483.72,388.749 1483.42,387.546 1483.42,386.749 L1483.42,374.749 C1483.42,374.139 1482.72,373.639 1482.02,373.639 C1481.02,373.639 1480.42,374.139 1480.42,374.749 L1480.42,388.249 C1480.42,389.655 1479.83,390.655 1479.22,390.952 C1478.63,391.249 1476.63,392.046 1476.63,392.046 C1475.92,392.249 1475.42,393.046 1475.42,393.655 L1475.42,400.749 C1475.42,401.343 1475.72,401.655 1476.22,401.655 C1476.33,401.655 1476.52,401.546 1476.63,401.546 C1476.63,401.546 1478.13,400.952 1478.83,400.546 C1478.92,400.546 1479.02,400.452 1479.13,400.452 C1479.83,400.452 1480.42,401.452 1480.42,402.249 L1480.42,412.155 C1480.42,413.249 1479.92,414.155 1479.33,414.452 C1478.72,414.655 1476.63,415.546 1476.63,415.546 C1475.92,415.749 1475.42,416.546 1475.42,417.155 L1475.42,424.249 C1475.42,424.843 1475.72,425.155 1476.22,425.155 C1476.33,425.155 1476.52,425.046 1476.63,425.046 C1476.63,425.046 1478.02,424.452 1478.92,424.155 C1479.02,424.046 1479.13,424.046 1479.22,424.046 C1479.92,424.046 1480.42,425.155 1480.42,425.655 L1480.42,437.952 C1480.42,438.546 1481.02,439.046 1481.72,439.046 C1482.72,439.046 1483.42,438.546 1483.42,437.952 L1483.42,424.046 C1483.42,422.749 1483.92,422.046 1484.42,421.843 L1490.52,419.343 C1490.63,419.343 1490.83,419.249 1490.92,419.249 C1491.72,419.249 1492.22,420.452 1492.22,421.046 L1492.22,433.546 C1492.22,434.155 1492.83,434.655 1493.52,434.655 C1494.63,434.655 1495.22,434.155 1495.22,433.546 L1495.22,419.343 C1495.22,418.546 1495.63,417.343 1496.33,417.046 C1497.02,416.749 1499.13,415.952 1499.13,415.952 C1499.83,415.655 1500.33,414.843 1500.33,414.249 L1500.33,407.155 C1500.33,406.655 1500.02,406.343 1499.63,406.343 C1499.42,406.343 1499.33,406.343 1499.13,406.452 L1496.52,407.452 C1495.92,407.452 1495.22,406.843 1495.22,405.655 L1495.22,396.343 C1495.22,395.655 1495.72,393.749 1496.52,393.452 L1499.13,392.452 "/>
<path class="Accidental" d="M2307.5,387.341 C2307.5,387.341 2307.2,381.341 2307.2,377.341 C2307.2,375.747 2307.3,374.544 2307.39,374.153 C2307.8,372.95 2310.39,370.747 2311.8,369.95 C2312.7,369.45 2313.6,369.247 2314.39,369.247 C2315.39,369.247 2316.3,369.653 2316.89,370.341 C2317.89,371.45 2318.5,373.153 2318.5,375.044 C2318.5,376.841 2318,378.95 2316.8,381.044 C2315.5,383.45 2312.6,386.653 2309.6,388.544 C2309.2,388.747 2308.89,388.841 2308.6,388.841 C2307.7,388.841 2307.5,387.841 2307.5,387.341 M2304,396.247 C2304.3,396.653 2304.6,396.747 2304.89,396.747 C2305.2,396.747 2305.5,396.544 2305.5,396.544 C2308.5,394.841 2310.89,392.153 2313.39,390.45 C2322.3,384.247 2325.39,378.153 2325.39,373.544 C2325.39,367.841 2321,364.247 2316.39,363.95 C2315.7,363.95 2315,364.044 2314.3,364.247 C2313.2,364.544 2312,364.95 2310.89,365.653 C2310.3,366.153 2309.2,367.044 2308.7,367.044 C2308.5,367.044 2308.39,367.044 2308.2,366.95 C2307.5,366.653 2307.1,365.95 2307.1,365.247 C2307.2,363.044 2307.8,339.044 2307.8,337.044 C2307.8,335.95 2306.89,335.341 2305.89,335.341 C2304.5,335.341 2302.89,336.341 2302.8,338.138 C2302.8,338.138 2303.2,395.247 2304,396.247"/>
<path class="Accidental" d="M2599.17,387.341 C2599.17,387.341 2598.87,381.341 2598.87,377.341 C2598.87,375.747 2598.97,374.544 2599.06,374.153 C2599.47,372.95 2602.06,370.747 2603.47,369.95 C2604.37,369.45 2605.26,369.247 2606.06,369.247 C2607.06,369.247 2607.97,369.653 2608.56,370.341 C2609.56,371.45 2610.17,373.153 2610.17,375.044 C2610.17,376.841 2609.67,378.95 2608.47,381.044 C2607.17,383.45 2604.26,386.653 2601.26,388.544 C2600.87,388.747 2600.56,388.841 2600.26,388.841 C2599.37,388.841 2599.17,387.841 2599.17,387.341 M2595.67,396.247 C2595.97,396.653 2596.26,396.747 2596.56,396.747 C2596.87,396.747 2597.17,396.544 2597.17,396.544 C2600.17,394.841 2602.56,392.153 2605.06,390.45 C2613.97,384.247 2617.06,378.153 2617.06,373.544 C2617.06,367.841 2612.67,364.247 2608.06,363.95 C2607.37,363.95 2606.67,364.044 2605.97,364.247 C2604.87,364.544 2603.67,364.95 2602.56,365.653 C2601.97,366.153 2600.87,367.044 2600.37,367.044 C2600.17,367.044 2600.06,367.044 2599.87,366.95 C2599.17,366.653 2598.76,365.95 2598.76,365.247 C2598.87,363.044 2599.47,339.044 2599.47,337.044 C2599.47,335.95 2598.56,335.341 2597.56,335.341 C2596.17,335.341 2594.56,336.341 2594.47,338.138 C2594.47,338.138 2594.87,395.247 2595.67,396.247"/>
<polyline class="LedgerLine" fill="none" stroke="#000000" stroke-width="4.00" stroke-linecap="square" stroke-linejoin="bevel" points="1507.33,441.751 1550.23,441.751"/>
<polyline class="LedgerLine" fill="none" stroke="#000000" stroke-width="4.00" stroke-linecap="square" stroke-linejoin="bevel" points="2027.67,441.751 2070.57,441.751"/>
<path class="Note" d="M391.236,640.561 C376.736,640.561 367.736,646.671 367.736,654.061 C367.736,661.358 373.939,667.858 390.143,667.858 C407.939,667.858 413.643,661.671 413.643,654.061 C413.643,646.358 401.346,640.561 391.236,640.561 M379.83,647.358 C381.033,643.671 385.033,643.061 388.439,643.061 C395.846,643.061 401.846,651.061 401.846,657.671 C401.846,658.358 401.736,659.061 401.643,659.671 C401.143,662.358 399.533,664.265 396.846,664.968 C395.736,665.265 394.643,665.358 393.533,665.358 C392.533,665.358 391.643,665.265 390.643,664.968 C388.83,664.358 387.033,663.358 385.533,662.061 C384.736,661.358 383.939,660.561 383.236,659.671 C381.143,657.171 379.439,653.468 379.439,650.061 C379.439,649.171 379.533,648.265 379.83,647.358"/>
<path class="Note" d="M597.793,640.561 C583.293,640.561 574.293,646.671 574.293,654.061 C574.293,661.358 580.496,667.858 596.7,667.858 C614.496,667.858 620.2,661.671 620.2,654.061 C620.2,646.358 607.903,640.561 597.793,640.561 M586.387,647.358 C587.59,643.671 591.59,643.061 594.996,643.061 C602.403,643.061 608.403,651.061 608.403,657.671 C608.403,658.358 608.293,659.061 608.2,659.671 C607.7,662.358 606.09,664.265 603.403,664.968 C602.293,665.265 601.2,665.358 600.09,665.358 C599.09,665.358 598.2,665.265 597.2,664.968 C595.387,664.358 593.59,663.358 592.09,662.061 C591.293,661.358 590.496,660.561 589.793,659.671 C587.7,657.171 585.996,653.468 585.996,650.061 C585.996,649.171 586.09,648.265 586.387,647.358"/>
<path class="Note" d="M822.953,628.061 C808.453,628.061 799.453,634.17 799.453,641.561 C799.453,648.858 805.656,655.358 821.859,655.358 C839.656,655.358 845.359,649.17 845.359,641.561 C845.359,633.858 833.063,628.061 822.953,628.061 M811.547,634.858 C812.75,631.17 816.75,630.561 820.156,630.561 C827.563,630.561 833.563,638.561 833.563,645.17 C833.563,645.858 833.453,646.561 833.359,647.17 C832.859,649.858 831.25,651.764 828.563,652.467 C827.453,652.764 826.359,652.858 825.25,652.858 C824.25,652.858 823.359,652.764 822.359,652.467 C820.547,651.858 818.75,650.858 817.25,649.561 C816.453,648.858 815.656,648.061 814.953,647.17 C812.859,644.67 811.156,640.967 811.156,637.561 C811.156,636.67 811.25,635.764 811.547,634.858"/>
<path class="Note" d="M1058.71,628.061 C1044.21,628.061 1035.21,634.17 1035.21,641.561 C1035.21,648.858 1041.41,655.358 1057.61,655.358 C1075.41,655.358 1081.11,649.17 1081.11,641.561 C1081.11,633.858 1068.82,628.061 1058.71,628.061 M1047.3,634.858 C1048.5,631.17 1052.5,630.561 1055.91,630.561 C1063.32,630.561 1069.32,638.561 1069.32,645.17 C1069.32,645.858 1069.21,646.561 1069.11,647.17 C1068.61,649.858 1067,651.764 1064.32,652.467 C1063.21,652.764 1062.11,652.858 1061,652.858 C1060,652.858 1059.11,652.764 1058.11,652.467 C1056.3,651.858 1054.5,650.858 1053,649.561 C1052.21,648.858 1051.41,648.061 1050.71,647.17 C1048.61,644.67 1046.91,640.967 1046.91,637.561 C1046.91,636.67 1047,635.764 1047.3,634.858"/>
<path class="Note" d="M1295.87,615.56 C1281.37,615.56 1272.37,621.669 1272.37,629.06 C1272.37,636.357 1278.57,642.857 1294.77,642.857 C1312.57,642.857 1318.27,636.669 1318.27,629.06 C1318.27,621.357 1305.98,615.56 1295.87,615.56 M1284.46,622.357 C1285.66,618.669 1289.66,618.06 1293.07,618.06 C1300.48,618.06 1306.48,626.06 1306.48,632.669 C1306.48,633.357 1306.37,634.06 1306.27,634.669 C1305.77,637.357 1304.16,639.263 1301.48,639.966 C1300.37,640.263 1299.27,640.357 1298.16,640.357 C1297.16,640.357 1296.27,640.263 1295.27,639.966 C1293.46,639.357 1291.66,638.357 1290.16,637.06 C1289.37,636.357 1288.57,635.56 1287.87,634.669 C1285.77,632.169 1284.07,628.466 1284.07,625.06 C1284.07,624.169 1284.16,623.263 1284.46,622.357"/>
<path class="Note" d="M1529.33,640.561 C1514.83,640.561 1505.83,646.671 1505.83,654.061 C1505.83,661.358 1512.03,667.858 1528.23,667.858 C1546.03,667.858 1551.73,661.671 1551.73,654.061 C1551.73,646.358 1539.43,640.561 1529.33,640.561 M1517.92,647.358 C1519.12,643.671 1523.12,643.061 1526.53,643.061 C1533.93,643.061 1539.93,651.061 1539.93,657.671 C1539.93,658.358 1539.83,659.061 1539.73,659.671 C1539.23,662.358 1537.62,664.265 1534.93,664.968 C1533.83,665.265 1532.73,665.358 1531.62,665.358 C1530.62,665.358 1529.73,665.265 1528.73,664.968 C1526.92,664.358 1525.12,663.358 1523.62,662.061 C1522.83,661.358 1522.03,660.561 1521.33,659.671 C1519.23,657.171 1517.53,653.468 1517.53,650.061 C1517.53,649.171 1517.62,648.265 1517.92,647.358"/>
<path class="Note" d="M1772.06,640.561 C1757.56,640.561 1748.56,646.671 1748.56,654.061 C1748.56,661.358 1754.76,667.858 1770.97,667.858 C1788.76,667.858 1794.47,661.671 1794.47,654.061 C1794.47,646.358 1782.17,640.561 1772.06,640.561 M1760.65,647.358 C1761.86,643.671 1765.86,643.061 1769.26,643.061 C1776.67,643.061 1782.67,651.061 1782.67,657.671 C1782.67,658.358 1782.56,659.061 1782.47,659.671 C1781.97,662.358 1780.36,664.265 1777.67,664.968 C1776.56,665.265 1775.47,665.358 1774.36,665.358 C1773.36,665.358 1772.47,665.265 1771.47,664.968 C1769.65,664.358 1767.86,663.358 1766.36,662.061 C1765.56,661.358 1764.76,660.561 1764.06,659.671 C1761.97,657.171 1760.26,653.468 1760.26,650.061 C1760.26,649.171 1760.36,648.265 1760.65,647.358"/>
<path class="Note" d="M2049.67,628.061 C2035.17,628.061 2026.17,634.17 2026.17,641.561 C2026.17,648.858 2032.37,655.358 2048.58,655.358 C2066.37,655.358 2072.08,649.17 2072.08,641.561 C2072.08,633.858 2059.78,628.061 2049.67,628.061 M2038.27,634.858 C2039.47,631.17 2043.47,630.561 2046.87,630.561 C2054.28,630.561 2060.28,638.561 2060.28,645.17 C2060.28,645.858 2060.17,646.561 2060.08,647.17 C2059.58,649.858 2057.97,651.764 2055.28,652.467 C2054.17,652.764 2053.08,652.858 2051.97,652.858 C2050.97,652.858 2050.08,652.764 2049.08,652.467 C2047.27,651.858 2045.47,650.858 2043.97,649.561 C2043.17,648.858 2042.37,648.061 2041.67,647.17 C2039.58,644.67 2037.87,640.967 2037.87,637.561 C2037.87,636.67 2037.97,635.764 2038.27,634.858"/>
<path class="Note" d="M2354.39,628.061 C2339.89,628.061 2330.89,634.17 2330.89,641.561 C2330.89,648.858 2337.1,655.358 2353.3,655.358 C2371.1,655.358 2376.8,649.17 2376.8,641.561 C2376.8,633.858 2364.5,628.061 2354.39,628.061 M2342.99,634.858 C2344.19,631.17 2348.19,630.561 2351.6,630.561 C2359,630.561 2365,638.561 2365,645.17 C2365,645.858 2364.89,646.561 2364.8,647.17 C2364.3,649.858 2362.69,651.764 2360,652.467 C2358.89,652.764 2357.8,652.858 2356.69,652.858 C2355.69,652.858 2354.8,652.764 2353.8,652.467 C2351.99,651.858 2350.19,650.858 2348.69,649.561 C2347.89,648.858 2347.1,648.061 2346.39,647.17 C2344.3,644.67 2342.6,640.967 2342.6,637.561 C2342.6,636.67 2342.69,635.764 2342.99,634.858"/>
<path class="Note" d="M2646.06,615.56 C2631.56,615.56 2622.56,621.669 2622.56,629.06 C2622.56,636.357 2628.76,642.857 2644.97,642.857 C2662.76,642.857 2668.47,636.669 2668.47,629.06 C2668.47,621.357 2656.17,615.56 2646.06,615.56 M2634.66,622.357 C2635.86,618.669 2639.86,618.06 2643.26,618.06 C2650.67,618.06 2656.67,626.06 2656.67,632.669 C2656.67,633.357 2656.56,634.06 2656.47,634.669 C2655.97,637.357 2654.36,639.263 2651.67,639.966 C2650.56,640.263 2649.47,640.357 2648.36,640.357 C2647.36,640.357 2646.47,640.263 2645.47,639.966 C2643.66,639.357 2641.86,638.357 2640.36,637.06 C2639.56,636.357 2638.76,635.56 2638.06,634.669 C2635.97,632.169 2634.26,628.466 2634.26,625.06 C2634.26,624.169 2634.36,623.263 2634.66,622.357"/>
<path class="Note" d="M1523.12,468.252 C1533.03,468.252 1545.23,459.049 1545.23,449.549 C1545.23,443.955 1540.73,440.252 1534.33,440.252 C1522.12,440.252 1512.33,449.346 1512.33,458.955 C1512.33,464.752 1517.12,468.252 1523.12,468.252"/>
<path class="Note" d="M1523.12,443.25 C1533.03,443.25 1545.23,434.047 1545.23,424.547 C1545.23,418.954 1540.73,415.25 1534.33,415.25 C1522.12,415.25 1512.33,424.344 1512.33,433.954 C1512.33,439.75 1517.12,443.25 1523.12,443.25"/>
<path class="Note" d="M1807.76,443.25 C1817.66,443.25 1829.87,434.047 1829.87,424.547 C1829.87,418.954 1825.37,415.25 1818.96,415.25 C1806.76,415.25 1796.96,424.344 1796.96,433.954 C1796.96,439.75 1801.76,443.25 1807.76,443.25"/>
<path class="Note" d="M1807.76,418.249 C1817.66,418.249 1829.87,409.046 1829.87,399.546 C1829.87,393.952 1825.37,390.249 1818.96,390.249 C1806.76,390.249 1796.96,399.343 1796.96,408.952 C1796.96,414.749 1801.76,418.249 1807.76,418.249"/>
<path class="Note" d="M2043.47,455.751 C2053.37,455.751 2065.58,446.548 2065.58,437.048 C2065.58,431.454 2061.08,427.751 2054.67,427.751 C2042.47,427.751 2032.67,436.845 2032.67,446.454 C2032.67,452.251 2037.47,455.751 2043.47,455.751"/>
<path class="Note" d="M2043.47,430.75 C2053.37,430.75 2065.58,421.546 2065.58,412.046 C2065.58,406.453 2061.08,402.75 2054.67,402.75 C2042.47,402.75 2032.67,411.843 2032.67,421.453 C2032.67,427.25 2037.47,430.75 2043.47,430.75"/>
<path class="Note" d="M2390.09,430.75 C2400,430.75 2412.2,421.546 2412.2,412.046 C2412.2,406.453 2407.7,402.75 2401.3,402.75 C2389.09,402.75 2379.3,411.843 2379.3,421.453 C2379.3,427.25 2384.09,430.75 2390.09,430.75"/>
<path class="Note" d="M2390.09,405.748 C2400,405.748 2412.2,396.545 2412.2,387.045 C2412.2,381.451 2407.7,377.748 2401.3,377.748 C2389.09,377.748 2379.3,386.842 2379.3,396.451 C2379.3,402.248 2384.09,405.748 2390.09,405.748"/>
<path class="Note" d="M2639.86,443.25 C2649.76,443.25 2661.97,434.047 2661.97,424.547 C2661.97,418.954 2657.47,415.25 2651.06,415.25 C2638.86,415.25 2629.06,424.344 2629.06,433.954 C2629.06,439.75 2633.86,443.25 2639.86,443.25"/>
<path class="Note" d="M2639.86,418.249 C2649.76,418.249 2661.97,409.046 2661.97,399.546 C2661.97,393.952 2657.47,390.249 2651.06,390.249 C2638.86,390.249 2629.06,399.343 2629.06,408.952 C2629.06,414.749 2633.86,418.249 2639.86,418.249"/>
<path class="Note" d="M391.236,390.546 C376.736,390.546 367.736,396.655 367.736,404.046 C367.736,411.343 373.939,417.843 390.143,417.843 C407.939,417.843 413.643,411.655 413.643,404.046 C413.643,396.343 401.346,390.546 391.236,390.546 M379.83,397.343 C381.033,393.655 385.033,393.046 388.439,393.046 C395.846,393.046 401.846,401.046 401.846,407.655 C401.846,408.343 401.736,409.046 401.643,409.655 C401.143,412.343 399.533,414.249 396.846,414.952 C395.736,415.249 394.643,415.343 393.533,415.343 C392.533,415.343 391.643,415.249 390.643,414.952 C388.83,414.343 387.033,413.343 385.533,412.046 C384.736,411.343 383.939,410.546 383.236,409.655 C381.143,407.155 379.439,403.452 379.439,400.046 C379.439,399.155 379.533,398.249 379.83,397.343"/>
<path class="Note" d="M597.793,378.045 C583.293,378.045 574.293,384.154 574.293,391.545 C574.293,398.842 580.496,405.342 596.7,405.342 C614.496,405.342 620.2,399.154 620.2,391.545 C620.2,383.842 607.903,378.045 597.793,378.045 M586.387,384.842 C587.59,381.154 591.59,380.545 594.996,380.545 C602.403,380.545 608.403,388.545 608.403,395.154 C608.403,395.842 608.293,396.545 608.2,397.154 C607.7,399.842 606.09,401.748 603.403,402.451 C602.293,402.748 601.2,402.842 600.09,402.842 C599.09,402.842 598.2,402.748 597.2,402.451 C595.387,401.842 593.59,400.842 592.09,399.545 C591.293,398.842 590.496,398.045 589.793,397.154 C587.7,394.654 585.996,390.951 585.996,387.545 C585.996,386.654 586.09,385.748 586.387,384.842"/>
<path class="Note" d="M822.953,378.045 C808.453,378.045 799.453,384.154 799.453,391.545 C799.453,398.842 805.656,405.342 821.859,405.342 C839.656,405.342 845.359,399.154 845.359,391.545 C845.359,383.842 833.063,378.045 822.953,378.045 M811.547,384.842 C812.75,381.154 816.75,380.545 820.156,380.545 C827.563,380.545 833.563,388.545 833.563,395.154 C833.563,395.842 833.453,396.545 833.359,397.154 C832.859,399.842 831.25,401.748 828.563,402.451 C827.453,402.748 826.359,402.842 825.25,402.842 C824.25,402.842 823.359,402.748 822.359,402.451 C820.547,401.842 818.75,400.842 817.25,399.545 C816.453,398.842 815.656,398.045 814.953,397.154 C812.859,394.654 811.156,390.951 811.156,387.545 C811.156,386.654 811.25,385.748 811.547,384.842"/>
<path class="Note" d="M1058.71,365.544 C1044.21,365.544 1035.21,371.653 1035.21,379.044 C1035.21,386.341 1041.41,392.841 1057.61,392.841 C1075.41,392.841 1081.11,386.653 1081.11,379.044 C1081.11,371.341 1068.82,365.544 1058.71,365.544 M1047.3,372.341 C1048.5,368.653 1052.5,368.044 1055.91,368.044 C1063.32,368.044 1069.32,376.044 1069.32,382.653 C1069.32,383.341 1069.21,384.044 1069.11,384.653 C1068.61,387.341 1067,389.247 1064.32,389.95 C1063.21,390.247 1062.11,390.341 1061,390.341 C1060,390.341 1059.11,390.247 1058.11,389.95 C1056.3,389.341 1054.5,388.341 1053,387.044 C1052.21,386.341 1051.41,385.544 1050.71,384.653 C1048.61,382.153 1046.91,378.45 1046.91,375.044 C1046.91,374.153 1047,373.247 1047.3,372.341"/>
<path class="Note" d="M1295.87,365.544 C1281.37,365.544 1272.37,371.653 1272.37,379.044 C1272.37,386.341 1278.57,392.841 1294.77,392.841 C1312.57,392.841 1318.27,386.653 1318.27,379.044 C1318.27,371.341 1305.98,365.544 1295.87,365.544 M1284.46,372.341 C1285.66,368.653 1289.66,368.044 1293.07,368.044 C1300.48,368.044 1306.48,376.044 1306.48,382.653 C1306.48,383.341 1306.37,384.044 1306.27,384.653 C1305.77,387.341 1304.16,389.247 1301.48,389.95 C1300.37,390.247 1299.27,390.341 1298.16,390.341 C1297.16,390.341 1296.27,390.247 1295.27,389.95 C1293.46,389.341 1291.66,388.341 1290.16,387.044 C1289.37,386.341 1288.57,385.544 1287.87,384.653 C1285.77,382.153 1284.07,378.45 1284.07,375.044 C1284.07,374.153 1284.16,373.247 1284.46,372.341"/>
<path class="Note" d="M1529.33,390.546 C1514.83,390.546 1505.83,396.655 1505.83,404.046 C1505.83,411.343 1512.03,417.843 1528.23,417.843 C1546.03,417.843 1551.73,411.655 1551.73,404.046 C1551.73,396.343 1539.43,390.546 1529.33,390.546 M1517.92,397.343 C1519.12,393.655 1523.12,393.046 1526.53,393.046 C1533.93,393.046 1539.93,401.046 1539.93,407.655 C1539.93,408.343 1539.83,409.046 1539.73,409.655 C1539.23,412.343 1537.62,414.249 1534.93,414.952 C1533.83,415.249 1532.73,415.343 1531.62,415.343 C1530.62,415.343 1529.73,415.249 1528.73,414.952 C1526.92,414.343 1525.12,413.343 1523.62,412.046 C1522.83,411.343 1522.03,410.546 1521.33,409.655 C1519.23,407.155 1517.53,403.452 1517.53,400.046 C1517.53,399.155 1517.62,398.249 1517.92,397.343"/>
<path class="Note" d="M1772.06,378.045 C1757.56,378.045 1748.56,384.154 1748.56,391.545 C1748.56,398.842 1754.76,405.342 1770.97,405.342 C1788.76,405.342 1794.47,399.154 1794.47,391.545 C1794.47,383.842 1782.17,378.045 1772.06,378.045 M1760.65,384.842 C1761.86,381.154 1765.86,380.545 1769.26,380.545 C1776.67,380.545 1782.67,388.545 1782.67,395.154 C1782.67,395.842 1782.56,396.545 1782.47,397.154 C1781.97,399.842 1780.36,401.748 1777.67,402.451 C1776.56,402.748 1775.47,402.842 1774.36,402.842 C1773.36,402.842 1772.47,402.748 1771.47,402.451 C1769.65,401.842 1767.86,400.842 1766.36,399.545 C1765.56,398.842 1764.76,398.045 1764.06,397.154 C1761.97,394.654 1760.26,390.951 1760.26,387.545 C1760.26,386.654 1760.36,385.748 1760.65,384.842"/>
<path class="Note" d="M2049.67,378.045 C2035.17,378.045 2026.17,384.154 2026.17,391.545 C2026.17,398.842 2032.37,405.342 2048.58,405.342 C2066.37,405.342 2072.08,399.154 2072.08,391.545 C2072.08,383.842 2059.78,378.045 2049.67,378.045 M2038.27,384.842 C2039.47,381.154 2043.47,380.545 2046.87,380.545 C2054.28,380.545 2060.28,388.545 2060.28,395.154 C2060.28,395.842 2060.17,396.545 2060.08,397.154 C2059.58,399.842 2057.97,401.748 2055.28,402.451 C2054.17,402.748 2053.08,402.842 2051.97,402.842 C2050.97,402.842 2050.08,402.748 2049.08,402.451 C2047.27,401.842 2045.47,400.842 2043.97,399.545 C2043.17,398.842 2042.37,398.045 2041.67,397.154 C2039.58,394.654 2037.87,390.951 2037.87,387.545 C2037.87,386.654 2037.97,385.748 2038.27,384.842"/>
<path class="Note" d="M2354.39,365.544 C2339.89,365.544 2330.89,371.653 2330.89,379.044 C2330.89,386.341 2337.1,392.841 2353.3,392.841 C2371.1,392.841 2376.8,386.653 2376.8,379.044 C2376.8,371.341 2364.5,365.544 2354.39,365.544 M2342.99,372.341 C2344.19,368.653 2348.19,368.044 2351.6,368.044 C2359,368.044 2365,376.044 2365,382.653 C2365,383.341 2364.89,384.044 2364.8,384.653 C2364.3,387.341 2362.69,389.247 2360,389.95 C2358.89,390.247 2357.8,390.341 2356.69,390.341 C2355.69,390.341 2354.8,390.247 2353.8,389.95 C2351.99,389.341 2350.19,388.341 2348.69,387.044 C2347.89,386.341 2347.1,385.544 2346.39,384.653 C2344.3,382.153 2342.6,378.45 2342.6,375.044 C2342.6,374.153 2342.69,373.247 2342.99,372.341"/>
<path class="Note" d="M2646.06,365.544 C2631.56,365.544 2622.56,371.653 2622.56,379.044 C2622.56,386.341 2628.76,392.841 2644.97,392.841 C2662.76,392.841 2668.47,386.653 2668.47,379.044 C2668.47,371.341 2656.17,365.544 2646.06,365.544 M2634.66,372.341 C2635.86,368.653 2639.86,368.044 2643.26,368.044 C2650.67,368.044 2656.67,376.044 2656.67,382.653 C2656.67,383.341 2656.56,384.044 2656.47,384.653 C2655.97,387.341 2654.36,389.247 2651.67,389.95 C2650.56,390.247 2649.47,390.341 2648.36,390.341 C2647.36,390.341 2646.47,390.247 2645.47,389.95 C2643.66,389.341 2641.86,388.341 2640.36,387.044 C2639.56,386.341 2638.76,385.544 2638.06,384.653 C2635.97,382.153 2634.26,378.45 2634.26,375.044 C2634.26,374.153 2634.36,373.247 2634.66,372.341"/>
<path class="Clef" d="M232.937,578.058 C215.531,578.058 207.734,590.761 207.734,600.355 C207.734,608.355 211.937,615.261 220.031,615.261 C226.328,615.261 230.64,610.855 230.64,604.668 C230.64,598.261 225.937,594.261 221.031,594.261 C218.328,594.261 217.328,594.965 216.031,594.965 C214.734,594.965 214.437,594.168 214.437,593.168 C214.437,589.168 220.437,581.855 230.64,581.855 C241.234,581.855 245.843,592.261 245.843,607.965 C245.843,618.261 243.64,630.261 237.437,639.871 C231.437,649.168 221.14,657.668 208.734,664.761 C207.828,665.261 207.234,665.761 207.234,666.558 C207.234,667.168 207.64,667.761 208.531,667.761 C209.031,667.761 209.64,667.558 210.234,667.261 C223.531,660.761 236.343,653.168 246.937,641.761 C255.64,632.371 260.843,620.168 260.843,607.058 C260.843,589.668 250.234,578.058 232.937,578.058 M270.734,611.355 C267.64,611.355 265.343,613.668 265.343,616.761 C265.343,619.855 267.64,622.168 270.734,622.168 C273.843,622.168 276.14,619.855 276.14,616.761 C276.14,613.668 273.843,611.355 270.734,611.355 M270.64,586.261 C267.531,586.261 265.14,588.668 265.14,591.761 C265.14,594.855 267.531,597.261 270.64,597.261 C273.734,597.261 276.14,594.855 276.14,591.761 C276.14,588.668 273.734,586.261 270.64,586.261"/>
<path class="Clef" d="M254.734,297.436 C258.031,297.436 260.734,300.139 260.734,305.639 C260.734,312.545 257.437,318.951 249.64,326.748 C248.031,328.342 245.64,330.639 243.343,332.639 C242.64,333.248 242.234,333.139 242.031,331.842 C241.64,329.248 241.437,325.842 241.437,322.639 C241.437,307.045 248.64,297.436 254.734,297.436 M250.734,381.451 C250.531,380.248 250.64,379.951 251.843,380.045 C259.937,380.748 266.64,387.545 266.64,396.342 C266.64,402.654 262.843,407.748 257.234,410.545 C256.031,411.154 255.843,411.154 255.64,409.951 L250.734,381.451 M243.843,365.545 C244.14,367.451 244.14,367.342 242.343,367.951 C233.531,370.951 227.828,378.842 227.828,387.342 C227.828,396.342 232.531,402.748 239.343,405.045 C240.14,405.342 241.343,405.654 242.031,405.654 C242.843,405.654 243.234,405.154 243.234,404.545 C243.234,403.842 242.437,403.545 241.734,403.248 C237.531,401.451 234.531,397.154 234.531,392.545 C234.531,386.842 238.437,382.545 244.531,380.842 C246.14,380.451 246.343,380.545 246.531,381.654 L251.531,411.451 C251.734,412.545 251.64,412.545 250.14,412.842 C248.531,413.154 246.531,413.342 244.531,413.342 C227.031,413.342 215.734,403.654 215.734,389.748 C215.734,383.842 216.734,375.951 225.031,366.545 C231.031,359.842 235.64,356.139 240.343,352.342 C241.343,351.545 241.531,351.639 241.734,352.748 L243.843,365.545 M245.343,350.248 C245.14,349.045 245.343,348.951 245.937,348.342 C247.531,346.842 249.64,344.748 251.531,342.639 C259.937,333.451 264.937,321.545 264.937,310.248 C264.937,301.545 262.531,292.936 258.437,286.936 C256.937,284.748 254.343,281.936 253.234,281.936 C251.843,281.936 248.734,284.545 246.734,286.748 C239.343,294.936 236.937,307.436 236.937,317.842 C236.937,323.639 237.64,330.139 238.343,334.248 C238.531,335.451 238.64,335.639 237.437,336.639 C231.031,341.951 224.14,348.045 218.937,354.451 C212.031,363.045 207.734,372.342 207.734,383.045 C207.734,400.451 219.64,416.951 244.14,416.951 C246.437,416.951 249.031,416.748 251.031,416.342 C252.14,416.154 252.343,416.045 252.531,417.248 C253.734,423.951 255.234,432.654 255.234,437.357 C255.234,452.154 245.234,453.951 239.343,453.951 C233.937,453.951 231.328,452.357 231.328,451.045 C231.328,450.357 232.234,450.045 234.531,449.357 C237.64,448.451 241.234,445.748 241.234,439.951 C241.234,434.451 237.734,429.748 231.64,429.748 C224.937,429.748 220.937,435.045 220.937,441.248 C220.937,447.748 224.828,457.545 239.937,457.545 C246.64,457.545 259.64,454.545 259.64,437.545 C259.64,431.857 257.843,422.357 256.734,416.154 C256.531,414.951 256.64,415.045 258.031,414.451 C268.14,410.451 274.843,401.951 274.843,390.654 C274.843,377.842 265.437,366.545 250.734,366.545 C248.14,366.545 248.14,366.545 247.843,364.748 L245.343,350.248 "/>
<path class="Lyrics" d="M397.613,500.173 C397.613,498.236 397.183,496.514 396.324,495.009 C395.465,493.504 394.42,492.34 393.191,491.517 C391.962,490.694 390.587,490.017 389.066,489.486 C387.545,488.954 386.225,488.608 385.105,488.447 C383.985,488.285 383.004,488.204 382.16,488.204 C381.722,488.204 381.504,488.059 381.504,487.767 C381.504,487.652 381.525,487.559 381.566,487.486 L387.551,474.47 L399.051,474.47 C399.634,474.47 400.1,474.379 400.449,474.197 C400.798,474.014 401.176,473.631 401.582,473.048 L402.082,473.423 L399.988,478.314 C399.842,478.647 399.42,478.814 398.722,478.814 L387.941,478.814 L385.629,483.486 C390.983,484.434 394.962,485.978 397.566,488.118 C400.17,490.259 401.472,493.397 401.472,497.533 C401.472,499.699 401.134,501.629 400.457,503.322 C399.78,505.014 398.918,506.374 397.871,507.4 C396.824,508.426 395.613,509.27 394.238,509.931 C392.863,510.592 391.543,511.043 390.277,511.283 C389.012,511.522 387.738,511.642 386.457,511.642 C384.405,511.642 382.775,511.34 381.566,510.736 C380.358,510.131 379.754,509.298 379.754,508.236 C379.754,506.881 380.54,506.204 382.113,506.204 C383.144,506.204 384.475,506.764 386.105,507.884 C387.735,509.004 389.025,509.564 389.972,509.564 C392.139,509.564 393.954,508.658 395.418,506.845 C396.881,505.033 397.613,502.809 397.613,500.173"/>
<path class="Lyrics" d="M598.233,511.642 C594.535,511.642 591.558,510.165 589.303,507.212 C587.048,504.259 585.92,500.355 585.92,495.501 C585.92,494.001 586.066,492.454 586.358,490.86 C586.649,489.267 587.29,487.454 588.28,485.423 C589.269,483.392 590.553,481.571 592.131,479.962 C593.709,478.353 595.918,476.915 598.756,475.649 C601.595,474.384 604.868,473.59 608.576,473.267 L608.686,474.142 C604.352,474.84 600.738,476.59 597.842,479.392 C594.946,482.194 593.134,485.668 592.405,489.814 C594.123,488.834 595.423,488.196 596.303,487.899 C597.183,487.603 598.227,487.454 599.436,487.454 C602.592,487.454 605.105,488.475 606.975,490.517 C608.845,492.558 609.78,495.314 609.78,498.782 C609.78,502.574 608.707,505.665 606.561,508.056 C604.415,510.446 601.639,511.642 598.233,511.642 M597.358,489.876 C594.858,489.876 593.178,490.423 592.319,491.517 C591.459,492.61 591.03,494.23 591.03,496.376 C591.03,500.605 591.725,503.933 593.116,506.36 C594.506,508.787 596.415,510.001 598.842,510.001 C600.78,510.001 602.261,509.189 603.287,507.564 C604.313,505.939 604.826,503.631 604.826,500.642 C604.826,497.215 604.175,494.564 602.873,492.689 C601.571,490.814 599.733,489.876 597.358,489.876"/>
<path class="Lyrics" d="M829.33,500.173 C829.33,498.235 828.9,496.514 828.041,495.009 C827.182,493.504 826.137,492.34 824.908,491.517 C823.679,490.694 822.304,490.017 820.783,489.485 C819.262,488.954 817.942,488.608 816.822,488.446 C815.702,488.285 814.721,488.204 813.877,488.204 C813.439,488.204 813.221,488.058 813.221,487.767 C813.221,487.652 813.242,487.558 813.283,487.485 L819.268,474.47 L830.768,474.47 C831.351,474.47 831.817,474.379 832.166,474.196 C832.515,474.014 832.893,473.631 833.299,473.048 L833.799,473.423 L831.705,478.314 C831.559,478.647 831.137,478.814 830.439,478.814 L819.658,478.814 L817.346,483.485 C822.7,484.433 826.679,485.978 829.283,488.118 C831.887,490.259 833.189,493.397 833.189,497.532 C833.189,499.699 832.851,501.629 832.174,503.321 C831.497,505.014 830.635,506.373 829.588,507.399 C828.541,508.426 827.33,509.269 825.955,509.931 C824.58,510.592 823.26,511.043 821.994,511.282 C820.728,511.522 819.455,511.642 818.174,511.642 C816.122,511.642 814.492,511.34 813.283,510.735 C812.075,510.131 811.471,509.298 811.471,508.235 C811.471,506.881 812.257,506.204 813.83,506.204 C814.861,506.204 816.192,506.764 817.822,507.884 C819.452,509.004 820.742,509.564 821.689,509.564 C823.856,509.564 825.671,508.657 827.135,506.845 C828.598,505.032 829.33,502.808 829.33,500.173"/>
<path class="Lyrics" d="M1059.15,511.642 C1055.45,511.642 1052.47,510.165 1050.22,507.212 C1047.96,504.259 1046.83,500.355 1046.83,495.501 C1046.83,494.001 1046.98,492.454 1047.27,490.86 C1047.56,489.267 1048.2,487.454 1049.19,485.423 C1050.18,483.392 1051.47,481.571 1053.05,479.962 C1054.62,478.353 1056.83,476.915 1059.67,475.649 C1062.51,474.384 1065.78,473.59 1069.49,473.267 L1069.6,474.142 C1065.27,474.84 1061.65,476.59 1058.76,479.392 C1055.86,482.194 1054.05,485.668 1053.32,489.814 C1055.04,488.834 1056.34,488.196 1057.22,487.899 C1058.1,487.603 1059.14,487.454 1060.35,487.454 C1063.51,487.454 1066.02,488.475 1067.89,490.517 C1069.76,492.558 1070.69,495.314 1070.69,498.782 C1070.69,502.574 1069.62,505.665 1067.47,508.056 C1065.33,510.446 1062.55,511.642 1059.15,511.642 M1058.27,489.876 C1055.77,489.876 1054.09,490.423 1053.23,491.517 C1052.37,492.61 1051.94,494.23 1051.94,496.376 C1051.94,500.605 1052.64,503.933 1054.03,506.36 C1055.42,508.787 1057.33,510.001 1059.76,510.001 C1061.69,510.001 1063.18,509.189 1064.2,507.564 C1065.23,505.939 1065.74,503.631 1065.74,500.642 C1065.74,497.215 1065.09,494.564 1063.79,492.689 C1062.49,490.814 1060.65,489.876 1058.27,489.876"/>
<path class="Lyrics" d="M1302.24,500.173 C1302.24,498.235 1301.82,496.514 1300.96,495.009 C1300.1,493.504 1299.05,492.34 1297.82,491.517 C1296.59,490.694 1295.22,490.017 1293.7,489.485 C1292.18,488.954 1290.86,488.608 1289.74,488.446 C1288.62,488.285 1287.64,488.204 1286.79,488.204 C1286.35,488.204 1286.14,488.058 1286.14,487.767 C1286.14,487.652 1286.16,487.558 1286.2,487.485 L1292.18,474.47 L1303.68,474.47 C1304.27,474.47 1304.73,474.379 1305.08,474.196 C1305.43,474.014 1305.81,473.631 1306.21,473.048 L1306.71,473.423 L1304.62,478.314 C1304.47,478.647 1304.05,478.814 1303.35,478.814 L1292.57,478.814 L1290.26,483.485 C1295.61,484.433 1299.59,485.978 1302.2,488.118 C1304.8,490.259 1306.1,493.397 1306.1,497.532 C1306.1,499.699 1305.77,501.629 1305.09,503.321 C1304.41,505.014 1303.55,506.373 1302.5,507.399 C1301.46,508.426 1300.24,509.269 1298.87,509.931 C1297.49,510.592 1296.17,511.043 1294.91,511.282 C1293.64,511.522 1292.37,511.642 1291.09,511.642 C1289.04,511.642 1287.41,511.34 1286.2,510.735 C1284.99,510.131 1284.39,509.298 1284.39,508.235 C1284.39,506.881 1285.17,506.204 1286.74,506.204 C1287.78,506.204 1289.11,506.764 1290.74,507.884 C1292.37,509.004 1293.66,509.564 1294.6,509.564 C1296.77,509.564 1298.59,508.657 1300.05,506.845 C1301.51,505.032 1302.24,502.808 1302.24,500.173"/>
<path class="Bracket" transform="matrix(3.62523,0,0,3.62523,144.23,679.266)" d="M2,-49.7969 C4.90625,-51.6094 8.20313,-58.7031 8.20313,-64.6094 C8.20313,-65.1094 8.20313,-65.7031 8.09375,-66.2031 C7.40625,-72.2031 4.40625,-81.5 4.40625,-86.9063 C4.40625,-92.1094 6.70313,-97.1094 7.20313,-98 C7.59375,-98.4063 7.70313,-98.7031 7.70313,-99 C7.70313,-99.2031 7.59375,-99.4063 7.5,-99.4063 C7.40625,-99.5 7.29688,-99.7031 7.09375,-99.7031 C6.90625,-99.7031 6.70313,-99.5 6.29688,-99 C4.09375,-96.3125 1.40625,-90.5 1.40625,-80.5 C1.40625,-70.6094 4.90625,-66.6094 4.90625,-60.2969 C4.90625,-55.6094 3,-53 0.203125,-49.7969 C2,-47.7969 4.90625,-46.2031 4.90625,-39.7031 C4.90625,-32.7031 1.40625,-26.5 1.40625,-19.2031 C1.40625,-9.20313 4.09375,-3.40625 6.29688,-0.59375 C6.70313,-0.09375 6.90625,0 7.09375,0 C7.29688,0 7.40625,-0.09375 7.5,-0.203125 C7.59375,-0.296875 7.70313,-0.40625 7.70313,-0.59375 C7.70313,-0.90625 7.59375,-1.20313 7.20313,-1.70313 C6.70313,-2.5 4.40625,-7.5 4.40625,-12.7969 C4.40625,-18.0938 7.40625,-27.5 8.09375,-33.4063 C8.20313,-33.9063 8.20313,-34.4063 8.20313,-35 C8.20313,-40.9063 4.90625,-48 2,-49.7969"/>
</svg>
