<?xml version="1.0" encoding="UTF-8" standalone="no"?>
<svg width="2977.23px" height="4208.47px" viewBox="0 0 2977.23 4208.47"
 xmlns="http://www.w3.org/2000/svg" xmlns:xlink="http://www.w3.org/1999/xlink" version="1.2" baseProfile="tiny">
<title>Zwerg-Struktur (2)</title>
<desc>Generated by MuseScore 3.4.2</desc>
<polyline class="StaffLines" fill="none" stroke="#000000" stroke-width="3.25" stroke-linejoin="bevel" points="183.232,316.743 2835.5,316.743"/>
<polyline class="StaffLines" fill="none" stroke="#000000" stroke-width="3.25" stroke-linejoin="bevel" points="183.232,341.745 2835.5,341.745"/>
<polyline class="StaffLines" fill="none" stroke="#000000" stroke-width="3.25" stroke-linejoin="bevel" points="183.232,366.746 2835.5,366.746"/>
<polyline class="StaffLines" fill="none" stroke="#000000" stroke-width="3.25" stroke-linejoin="bevel" points="183.232,391.748 2835.5,391.748"/>
<polyline class="StaffLines" fill="none" stroke="#000000" stroke-width="3.25" stroke-linejoin="bevel" points="183.232,416.75 2835.5,416.75"/>
<polyline class="StaffLines" fill="none" stroke="#000000" stroke-width="3.25" stroke-linejoin="bevel" points="183.232,579.26 2835.5,579.26"/>
<polyline class="StaffLines" fill="none" stroke="#000000" stroke-width="3.25" stroke-linejoin="bevel" points="183.232,604.261 2835.5,604.261"/>
<polyline class="StaffLines" fill="none" stroke="#000000" stroke-width="3.25" stroke-linejoin="bevel" points="183.232,629.263 2835.5,629.263"/>
<polyline class="StaffLines" fill="none" stroke="#000000" stroke-width="3.25" stroke-linejoin="bevel" points="183.232,654.265 2835.5,654.265"/>
<polyline class="StaffLines" fill="none" stroke="#000000" stroke-width="3.25" stroke-linejoin="bevel" points="183.232,679.266 2835.5,679.266"/>
<polyline class="BarLine" fill="none" stroke="#000000" stroke-width="4.00" stroke-linejoin="bevel" points="185.233,577.635 185.233,680.891"/>
<polyline class="BarLine" fill="none" stroke="#000000" stroke-width="4.00" stroke-linejoin="bevel" points="572.019,577.635 572.019,680.891"/>
<polyline class="BarLine" fill="none" stroke="#000000" stroke-width="4.00" stroke-linejoin="bevel" points="845.305,577.635 845.305,680.891"/>
<polyline class="BarLine" fill="none" stroke="#000000" stroke-width="4.00" stroke-linejoin="bevel" points="1118.59,577.635 1118.59,680.891"/>
<polyline class="BarLine" fill="none" stroke="#000000" stroke-width="4.00" stroke-linejoin="bevel" points="1391.88,577.635 1391.88,680.891"/>
<polyline class="BarLine" fill="none" stroke="#000000" stroke-width="4.00" stroke-linejoin="bevel" points="1685.25,577.635 1685.25,680.891"/>
<polyline class="BarLine" fill="none" stroke="#000000" stroke-width="4.00" stroke-linejoin="bevel" points="1958.54,577.635 1958.54,680.891"/>
<polyline class="BarLine" fill="none" stroke="#000000" stroke-width="4.00" stroke-linejoin="bevel" points="2231.83,577.635 2231.83,680.891"/>
<polyline class="BarLine" fill="none" stroke="#000000" stroke-width="4.00" stroke-linejoin="bevel" points="2560.21,577.635 2560.21,680.891"/>
<polyline class="BarLine" fill="none" stroke="#000000" stroke-width="4.00" stroke-linejoin="bevel" points="2833.5,577.635 2833.5,680.891"/>
<polyline class="BarLine" fill="none" stroke="#000000" stroke-width="4.00" stroke-linejoin="bevel" points="185.233,315.118 185.233,579.26"/>
<polyline class="BarLine" fill="none" stroke="#000000" stroke-width="4.00" stroke-linejoin="bevel" points="572.019,315.118 572.019,579.26"/>
<polyline class="BarLine" fill="none" stroke="#000000" stroke-width="4.00" stroke-linejoin="bevel" points="845.305,315.118 845.305,579.26"/>
<polyline class="BarLine" fill="none" stroke="#000000" stroke-width="4.00" stroke-linejoin="bevel" points="1118.59,315.118 1118.59,579.26"/>
<polyline class="BarLine" fill="none" stroke="#000000" stroke-width="4.00" stroke-linejoin="bevel" points="1391.88,315.118 1391.88,579.26"/>
<polyline class="BarLine" fill="none" stroke="#000000" stroke-width="4.00" stroke-linejoin="bevel" points="1685.25,315.118 1685.25,579.26"/>
<polyline class="BarLine" fill="none" stroke="#000000" stroke-width="4.00" stroke-linejoin="bevel" points="1958.54,315.118 1958.54,579.26"/>
<polyline class="BarLine" fill="none" stroke="#000000" stroke-width="4.00" stroke-linejoin="bevel" points="2231.83,315.118 2231.83,579.26"/>
<polyline class="BarLine" fill="none" stroke="#000000" stroke-width="4.00" stroke-linejoin="bevel" points="2560.21,315.118 2560.21,579.26"/>
<polyline class="BarLine" fill="none" stroke="#000000" stroke-width="4.00" stroke-linejoin="bevel" points="2833.5,315.118 2833.5,579.26"/>
<path class="Accidental" d="M1137.8,662.358 C1137.8,662.358 1137.5,656.358 1137.5,652.358 C1137.5,650.765 1137.59,649.561 1137.69,649.171 C1138.09,647.968 1140.69,645.765 1142.09,644.968 C1143,644.468 1143.89,644.265 1144.69,644.265 C1145.69,644.265 1146.59,644.671 1147.19,645.358 C1148.19,646.468 1148.8,648.171 1148.8,650.061 C1148.8,651.858 1148.3,653.968 1147.09,656.061 C1145.8,658.468 1142.89,661.671 1139.89,663.561 C1139.5,663.765 1139.19,663.858 1138.89,663.858 C1138,663.858 1137.8,662.858 1137.8,662.358 M1134.3,671.265 C1134.59,671.671 1134.89,671.765 1135.19,671.765 C1135.5,671.765 1135.8,671.561 1135.8,671.561 C1138.8,669.858 1141.19,667.171 1143.69,665.468 C1152.59,659.265 1155.69,653.171 1155.69,648.561 C1155.69,642.858 1151.3,639.265 1146.69,638.968 C1146,638.968 1145.3,639.061 1144.59,639.265 C1143.5,639.561 1142.3,639.968 1141.19,640.671 C1140.59,641.171 1139.5,642.061 1139,642.061 C1138.8,642.061 1138.69,642.061 1138.5,641.968 C1137.8,641.671 1137.39,640.968 1137.39,640.265 C1137.5,638.061 1138.09,614.061 1138.09,612.061 C1138.09,610.968 1137.19,610.358 1136.19,610.358 C1134.8,610.358 1133.19,611.358 1133.09,613.155 C1133.09,613.155 1133.5,670.265 1134.3,671.265"/>
<path class="Accidental" d="M1434.18,624.856 C1434.18,624.856 1433.88,618.856 1433.88,614.856 C1433.88,613.262 1433.97,612.059 1434.07,611.668 C1434.47,610.465 1437.07,608.262 1438.47,607.465 C1439.38,606.965 1440.27,606.762 1441.07,606.762 C1442.07,606.762 1442.97,607.168 1443.57,607.856 C1444.57,608.965 1445.18,610.668 1445.18,612.559 C1445.18,614.356 1444.68,616.465 1443.47,618.559 C1442.18,620.965 1439.27,624.168 1436.27,626.059 C1435.88,626.262 1435.57,626.356 1435.27,626.356 C1434.38,626.356 1434.18,625.356 1434.18,624.856 M1430.68,633.762 C1430.97,634.168 1431.27,634.262 1431.57,634.262 C1431.88,634.262 1432.18,634.059 1432.18,634.059 C1435.18,632.356 1437.57,629.668 1440.07,627.965 C1448.97,621.762 1452.07,615.668 1452.07,611.059 C1452.07,605.356 1447.68,601.762 1443.07,601.465 C1442.38,601.465 1441.68,601.559 1440.97,601.762 C1439.88,602.059 1438.68,602.465 1437.57,603.168 C1436.97,603.668 1435.88,604.559 1435.38,604.559 C1435.18,604.559 1435.07,604.559 1434.88,604.465 C1434.18,604.168 1433.77,603.465 1433.77,602.762 C1433.88,600.559 1434.47,576.559 1434.47,574.559 C1434.47,573.465 1433.57,572.856 1432.57,572.856 C1431.18,572.856 1429.57,573.856 1429.47,575.653 C1429.47,575.653 1429.88,632.762 1430.68,633.762"/>
<path class="Accidental" d="M2318.92,608.761 C2318.33,610.761 2313.63,612.761 2311.33,612.761 C2310.72,612.761 2310.22,612.558 2310.13,612.261 C2309.92,611.855 2309.83,609.668 2309.83,607.261 C2309.83,604.168 2309.92,600.668 2310.13,599.855 C2310.33,598.168 2314.92,596.058 2317.42,596.058 C2318.13,596.058 2318.72,596.261 2318.92,596.668 C2319.13,597.168 2319.33,599.668 2319.33,602.355 C2319.33,605.058 2319.13,607.855 2318.92,608.761 M2325.83,592.465 C2326.53,592.168 2327.03,591.355 2327.03,590.761 L2327.03,583.668 C2327.03,583.168 2326.72,582.855 2326.33,582.855 C2326.13,582.855 2326.03,582.855 2325.83,582.965 C2325.83,582.965 2323.83,583.761 2323.33,583.855 C2322.63,583.855 2321.92,583.355 2321.92,582.558 L2321.92,570.355 C2321.92,569.761 2321.33,569.261 2320.53,569.261 C2319.53,569.261 2318.92,569.761 2318.92,570.355 L2318.92,583.355 C2318.83,584.355 2318.53,585.668 2317.63,586.261 C2316.42,586.965 2313.03,588.355 2311.33,588.761 C2310.42,588.761 2310.13,587.558 2310.13,586.761 L2310.13,574.761 C2310.13,574.152 2309.42,573.652 2308.72,573.652 C2307.72,573.652 2307.13,574.152 2307.13,574.761 L2307.13,588.261 C2307.13,589.668 2306.53,590.668 2305.92,590.965 C2305.33,591.261 2303.33,592.058 2303.33,592.058 C2302.63,592.261 2302.13,593.058 2302.13,593.668 L2302.13,600.761 C2302.13,601.355 2302.42,601.668 2302.92,601.668 C2303.03,601.668 2303.22,601.558 2303.33,601.558 C2303.33,601.558 2304.83,600.965 2305.53,600.558 C2305.63,600.558 2305.72,600.465 2305.83,600.465 C2306.53,600.465 2307.13,601.465 2307.13,602.261 L2307.13,612.168 C2307.13,613.261 2306.63,614.168 2306.03,614.465 C2305.42,614.668 2303.33,615.558 2303.33,615.558 C2302.63,615.761 2302.13,616.558 2302.13,617.168 L2302.13,624.261 C2302.13,624.855 2302.42,625.168 2302.92,625.168 C2303.03,625.168 2303.22,625.058 2303.33,625.058 C2303.33,625.058 2304.72,624.465 2305.63,624.168 C2305.72,624.058 2305.83,624.058 2305.92,624.058 C2306.63,624.058 2307.13,625.168 2307.13,625.668 L2307.13,637.965 C2307.13,638.558 2307.72,639.058 2308.42,639.058 C2309.42,639.058 2310.13,638.558 2310.13,637.965 L2310.13,624.058 C2310.13,622.761 2310.63,622.058 2311.13,621.855 L2317.22,619.355 C2317.33,619.355 2317.53,619.261 2317.63,619.261 C2318.42,619.261 2318.92,620.465 2318.92,621.058 L2318.92,633.558 C2318.92,634.168 2319.53,634.668 2320.22,634.668 C2321.33,634.668 2321.92,634.168 2321.92,633.558 L2321.92,619.355 C2321.92,618.558 2322.33,617.355 2323.03,617.058 C2323.72,616.761 2325.83,615.965 2325.83,615.965 C2326.53,615.668 2327.03,614.855 2327.03,614.261 L2327.03,607.168 C2327.03,606.668 2326.72,606.355 2326.33,606.355 C2326.13,606.355 2326.03,606.355 2325.83,606.465 L2323.22,607.465 C2322.63,607.465 2321.92,606.855 2321.92,605.668 L2321.92,596.355 C2321.92,595.668 2322.42,593.761 2323.22,593.465 L2325.83,592.465 "/>
<path class="Accidental" d="M859.509,424.843 C859.509,424.843 859.212,418.843 859.212,414.843 C859.212,413.25 859.306,412.046 859.4,411.656 C859.806,410.453 862.4,408.25 863.806,407.453 C864.712,406.953 865.603,406.75 866.4,406.75 C867.4,406.75 868.306,407.156 868.9,407.843 C869.9,408.953 870.509,410.656 870.509,412.546 C870.509,414.343 870.009,416.453 868.806,418.546 C867.509,420.953 864.603,424.156 861.603,426.046 C861.212,426.25 860.9,426.343 860.603,426.343 C859.712,426.343 859.509,425.343 859.509,424.843 M856.009,433.75 C856.306,434.156 856.603,434.25 856.9,434.25 C857.212,434.25 857.509,434.046 857.509,434.046 C860.509,432.343 862.9,429.656 865.4,427.953 C874.306,421.75 877.4,415.656 877.4,411.046 C877.4,405.343 873.009,401.75 868.4,401.453 C867.712,401.453 867.009,401.546 866.306,401.75 C865.212,402.046 864.009,402.453 862.9,403.156 C862.306,403.656 861.212,404.546 860.712,404.546 C860.509,404.546 860.4,404.546 860.212,404.453 C859.509,404.156 859.103,403.453 859.103,402.75 C859.212,400.546 859.806,376.546 859.806,374.546 C859.806,373.453 858.9,372.843 857.9,372.843 C856.509,372.843 854.9,373.843 854.806,375.64 C854.806,375.64 855.212,432.75 856.009,433.75"/>
<path class="Accidental" d="M1132.8,462.346 C1132.8,462.346 1132.5,456.346 1132.5,452.346 C1132.5,450.752 1132.59,449.549 1132.69,449.158 C1133.09,447.955 1135.69,445.752 1137.09,444.955 C1138,444.455 1138.89,444.252 1139.69,444.252 C1140.69,444.252 1141.59,444.658 1142.19,445.346 C1143.19,446.455 1143.8,448.158 1143.8,450.049 C1143.8,451.846 1143.3,453.955 1142.09,456.049 C1140.8,458.455 1137.89,461.658 1134.89,463.549 C1134.5,463.752 1134.19,463.846 1133.89,463.846 C1133,463.846 1132.8,462.846 1132.8,462.346 M1129.3,471.252 C1129.59,471.658 1129.89,471.752 1130.19,471.752 C1130.5,471.752 1130.8,471.549 1130.8,471.549 C1133.8,469.846 1136.19,467.158 1138.69,465.455 C1147.59,459.252 1150.69,453.158 1150.69,448.549 C1150.69,442.846 1146.3,439.252 1141.69,438.955 C1141,438.955 1140.3,439.049 1139.59,439.252 C1138.5,439.549 1137.3,439.955 1136.19,440.658 C1135.59,441.158 1134.5,442.049 1134,442.049 C1133.8,442.049 1133.69,442.049 1133.5,441.955 C1132.8,441.658 1132.39,440.955 1132.39,440.252 C1132.5,438.049 1133.09,414.049 1133.09,412.049 C1133.09,410.955 1132.19,410.346 1131.19,410.346 C1129.8,410.346 1128.19,411.346 1128.09,413.143 C1128.09,413.143 1128.5,470.252 1129.3,471.252"/>
<path class="Accidental" d="M1406.08,462.346 C1406.08,462.346 1405.79,456.346 1405.79,452.346 C1405.79,450.752 1405.88,449.549 1405.97,449.158 C1406.38,447.955 1408.97,445.752 1410.38,444.955 C1411.29,444.455 1412.18,444.252 1412.97,444.252 C1413.97,444.252 1414.88,444.658 1415.47,445.346 C1416.47,446.455 1417.08,448.158 1417.08,450.049 C1417.08,451.846 1416.58,453.955 1415.38,456.049 C1414.08,458.455 1411.18,461.658 1408.18,463.549 C1407.79,463.752 1407.47,463.846 1407.18,463.846 C1406.29,463.846 1406.08,462.846 1406.08,462.346 M1402.58,471.252 C1402.88,471.658 1403.18,471.752 1403.47,471.752 C1403.79,471.752 1404.08,471.549 1404.08,471.549 C1407.08,469.846 1409.47,467.158 1411.97,465.455 C1420.88,459.252 1423.97,453.158 1423.97,448.549 C1423.97,442.846 1419.58,439.252 1414.97,438.955 C1414.29,438.955 1413.58,439.049 1412.88,439.252 C1411.79,439.549 1410.58,439.955 1409.47,440.658 C1408.88,441.158 1407.79,442.049 1407.29,442.049 C1407.08,442.049 1406.97,442.049 1406.79,441.955 C1406.08,441.658 1405.68,440.955 1405.68,440.252 C1405.79,438.049 1406.38,414.049 1406.38,412.049 C1406.38,410.955 1405.47,410.346 1404.47,410.346 C1403.08,410.346 1401.47,411.346 1401.38,413.143 C1401.38,413.143 1401.79,470.252 1402.58,471.252"/>
<path class="Accidental" d="M1434.18,424.843 C1434.18,424.843 1433.88,418.843 1433.88,414.843 C1433.88,413.25 1433.97,412.046 1434.07,411.656 C1434.47,410.453 1437.07,408.25 1438.47,407.453 C1439.38,406.953 1440.27,406.75 1441.07,406.75 C1442.07,406.75 1442.97,407.156 1443.57,407.843 C1444.57,408.953 1445.18,410.656 1445.18,412.546 C1445.18,414.343 1444.68,416.453 1443.47,418.546 C1442.18,420.953 1439.27,424.156 1436.27,426.046 C1435.88,426.25 1435.57,426.343 1435.27,426.343 C1434.38,426.343 1434.18,425.343 1434.18,424.843 M1430.68,433.75 C1430.97,434.156 1431.27,434.25 1431.57,434.25 C1431.88,434.25 1432.18,434.046 1432.18,434.046 C1435.18,432.343 1437.57,429.656 1440.07,427.953 C1448.97,421.75 1452.07,415.656 1452.07,411.046 C1452.07,405.343 1447.68,401.75 1443.07,401.453 C1442.38,401.453 1441.68,401.546 1440.97,401.75 C1439.88,402.046 1438.68,402.453 1437.57,403.156 C1436.97,403.656 1435.88,404.546 1435.38,404.546 C1435.18,404.546 1435.07,404.546 1434.88,404.453 C1434.18,404.156 1433.77,403.453 1433.77,402.75 C1433.88,400.546 1434.47,376.546 1434.47,374.546 C1434.47,373.453 1433.57,372.843 1432.57,372.843 C1431.18,372.843 1429.57,373.843 1429.47,375.64 C1429.47,375.64 1429.88,432.75 1430.68,433.75"/>
<path class="Accidental" d="M1711.55,408.749 C1710.96,410.749 1706.25,412.749 1703.96,412.749 C1703.35,412.749 1702.85,412.546 1702.75,412.249 C1702.55,411.843 1702.46,409.655 1702.46,407.249 C1702.46,404.155 1702.55,400.655 1702.75,399.843 C1702.96,398.155 1707.55,396.046 1710.05,396.046 C1710.75,396.046 1711.35,396.249 1711.55,396.655 C1711.75,397.155 1711.96,399.655 1711.96,402.343 C1711.96,405.046 1711.75,407.843 1711.55,408.749 M1718.46,392.452 C1719.16,392.155 1719.66,391.343 1719.66,390.749 L1719.66,383.655 C1719.66,383.155 1719.35,382.843 1718.96,382.843 C1718.75,382.843 1718.66,382.843 1718.46,382.952 C1718.46,382.952 1716.46,383.749 1715.96,383.843 C1715.25,383.843 1714.55,383.343 1714.55,382.546 L1714.55,370.343 C1714.55,369.749 1713.96,369.249 1713.16,369.249 C1712.16,369.249 1711.55,369.749 1711.55,370.343 L1711.55,383.343 C1711.46,384.343 1711.16,385.655 1710.25,386.249 C1709.05,386.952 1705.66,388.343 1703.96,388.749 C1703.05,388.749 1702.75,387.546 1702.75,386.749 L1702.75,374.749 C1702.75,374.139 1702.05,373.639 1701.35,373.639 C1700.35,373.639 1699.75,374.139 1699.75,374.749 L1699.75,388.249 C1699.75,389.655 1699.16,390.655 1698.55,390.952 C1697.96,391.249 1695.96,392.046 1695.96,392.046 C1695.25,392.249 1694.75,393.046 1694.75,393.655 L1694.75,400.749 C1694.75,401.343 1695.05,401.655 1695.55,401.655 C1695.66,401.655 1695.85,401.546 1695.96,401.546 C1695.96,401.546 1697.46,400.952 1698.16,400.546 C1698.25,400.546 1698.35,400.452 1698.46,400.452 C1699.16,400.452 1699.75,401.452 1699.75,402.249 L1699.75,412.155 C1699.75,413.249 1699.25,414.155 1698.66,414.452 C1698.05,414.655 1695.96,415.546 1695.96,415.546 C1695.25,415.749 1694.75,416.546 1694.75,417.155 L1694.75,424.249 C1694.75,424.843 1695.05,425.155 1695.55,425.155 C1695.66,425.155 1695.85,425.046 1695.96,425.046 C1695.96,425.046 1697.35,424.452 1698.25,424.155 C1698.35,424.046 1698.46,424.046 1698.55,424.046 C1699.25,424.046 1699.75,425.155 1699.75,425.655 L1699.75,437.952 C1699.75,438.546 1700.35,439.046 1701.05,439.046 C1702.05,439.046 1702.75,438.546 1702.75,437.952 L1702.75,424.046 C1702.75,422.749 1703.25,422.046 1703.75,421.843 L1709.85,419.343 C1709.96,419.343 1710.16,419.249 1710.25,419.249 C1711.05,419.249 1711.55,420.452 1711.55,421.046 L1711.55,433.546 C1711.55,434.155 1712.16,434.655 1712.85,434.655 C1713.96,434.655 1714.55,434.155 1714.55,433.546 L1714.55,419.343 C1714.55,418.546 1714.96,417.343 1715.66,417.046 C1716.35,416.749 1718.46,415.952 1718.46,415.952 C1719.16,415.655 1719.66,414.843 1719.66,414.249 L1719.66,407.155 C1719.66,406.655 1719.35,406.343 1718.96,406.343 C1718.75,406.343 1718.66,406.343 1718.46,406.452 L1715.85,407.452 C1715.25,407.452 1714.55,406.843 1714.55,405.655 L1714.55,396.343 C1714.55,395.655 1715.05,393.749 1715.85,393.452 L1718.46,392.452 "/>
<path class="Accidental" d="M1971.74,362.84 C1971.74,361.45 1977.84,358.84 1980.24,358.84 C1980.84,358.84 1981.13,358.95 1981.13,359.34 L1981.13,369.653 C1981.13,371.45 1975.45,373.746 1972.95,373.746 C1972.24,373.746 1971.74,373.543 1971.74,373.153 L1971.74,362.84 M1982.13,348.653 C1981.95,348.653 1981.84,348.746 1981.74,348.746 C1981.74,348.746 1975.34,351.043 1972.74,351.043 C1972.13,351.043 1971.74,350.95 1971.74,350.543 L1971.74,333.84 C1971.74,333.137 1971.13,332.637 1970.54,332.637 L1969.24,332.637 C1968.54,332.637 1968.04,333.137 1968.04,333.84 L1968.04,385.34 C1968.04,385.95 1968.34,386.246 1968.84,386.246 C1968.95,386.246 1969.13,386.153 1969.24,386.153 C1969.24,386.153 1969.45,386.153 1969.54,386.043 C1970.95,385.45 1976.54,383.043 1979.45,383.043 C1980.45,383.043 1981.13,383.34 1981.13,384.153 L1981.13,399.043 C1981.13,399.746 1981.63,400.246 1982.34,400.246 L1983.63,400.246 C1984.24,400.246 1984.84,399.746 1984.84,399.043 L1984.84,348.84 C1984.84,348.34 1984.45,348.043 1984.04,348.043 C1983.95,348.043 1983.74,348.043 1983.63,348.153 L1982.13,348.653 "/>
<path class="Accidental" d="M2288.52,408.749 C2287.93,410.749 2283.23,412.749 2280.93,412.749 C2280.32,412.749 2279.82,412.546 2279.73,412.249 C2279.52,411.843 2279.43,409.655 2279.43,407.249 C2279.43,404.155 2279.52,400.655 2279.73,399.843 C2279.93,398.155 2284.52,396.046 2287.02,396.046 C2287.73,396.046 2288.32,396.249 2288.52,396.655 C2288.73,397.155 2288.93,399.655 2288.93,402.343 C2288.93,405.046 2288.73,407.843 2288.52,408.749 M2295.43,392.452 C2296.13,392.155 2296.63,391.343 2296.63,390.749 L2296.63,383.655 C2296.63,383.155 2296.32,382.843 2295.93,382.843 C2295.73,382.843 2295.63,382.843 2295.43,382.952 C2295.43,382.952 2293.43,383.749 2292.93,383.843 C2292.23,383.843 2291.52,383.343 2291.52,382.546 L2291.52,370.343 C2291.52,369.749 2290.93,369.249 2290.13,369.249 C2289.13,369.249 2288.52,369.749 2288.52,370.343 L2288.52,383.343 C2288.43,384.343 2288.13,385.655 2287.23,386.249 C2286.02,386.952 2282.63,388.343 2280.93,388.749 C2280.02,388.749 2279.73,387.546 2279.73,386.749 L2279.73,374.749 C2279.73,374.139 2279.02,373.639 2278.32,373.639 C2277.32,373.639 2276.73,374.139 2276.73,374.749 L2276.73,388.249 C2276.73,389.655 2276.13,390.655 2275.52,390.952 C2274.93,391.249 2272.93,392.046 2272.93,392.046 C2272.23,392.249 2271.73,393.046 2271.73,393.655 L2271.73,400.749 C2271.73,401.343 2272.02,401.655 2272.52,401.655 C2272.63,401.655 2272.82,401.546 2272.93,401.546 C2272.93,401.546 2274.43,400.952 2275.13,400.546 C2275.23,400.546 2275.32,400.452 2275.43,400.452 C2276.13,400.452 2276.73,401.452 2276.73,402.249 L2276.73,412.155 C2276.73,413.249 2276.23,414.155 2275.63,414.452 C2275.02,414.655 2272.93,415.546 2272.93,415.546 C2272.23,415.749 2271.73,416.546 2271.73,417.155 L2271.73,424.249 C2271.73,424.843 2272.02,425.155 2272.52,425.155 C2272.63,425.155 2272.82,425.046 2272.93,425.046 C2272.93,425.046 2274.32,424.452 2275.23,424.155 C2275.32,424.046 2275.43,424.046 2275.52,424.046 C2276.23,424.046 2276.73,425.155 2276.73,425.655 L2276.73,437.952 C2276.73,438.546 2277.32,439.046 2278.02,439.046 C2279.02,439.046 2279.73,438.546 2279.73,437.952 L2279.73,424.046 C2279.73,422.749 2280.23,422.046 2280.73,421.843 L2286.82,419.343 C2286.93,419.343 2287.13,419.249 2287.23,419.249 C2288.02,419.249 2288.52,420.452 2288.52,421.046 L2288.52,433.546 C2288.52,434.155 2289.13,434.655 2289.82,434.655 C2290.93,434.655 2291.52,434.155 2291.52,433.546 L2291.52,419.343 C2291.52,418.546 2291.93,417.343 2292.63,417.046 C2293.32,416.749 2295.43,415.952 2295.43,415.952 C2296.13,415.655 2296.63,414.843 2296.63,414.249 L2296.63,407.155 C2296.63,406.655 2296.32,406.343 2295.93,406.343 C2295.73,406.343 2295.63,406.343 2295.43,406.452 L2292.82,407.452 C2292.23,407.452 2291.52,406.843 2291.52,405.655 L2291.52,396.343 C2291.52,395.655 2292.02,393.749 2292.82,393.452 L2295.43,392.452 "/>
<path class="Accidental" d="M2258.12,383.747 C2257.53,385.747 2252.83,387.747 2250.53,387.747 C2249.92,387.747 2249.42,387.544 2249.33,387.247 C2249.12,386.841 2249.03,384.653 2249.03,382.247 C2249.03,379.153 2249.12,375.653 2249.33,374.841 C2249.53,373.153 2254.12,371.044 2256.62,371.044 C2257.33,371.044 2257.92,371.247 2258.12,371.653 C2258.33,372.153 2258.53,374.653 2258.53,377.341 C2258.53,380.044 2258.33,382.841 2258.12,383.747 M2265.03,367.45 C2265.73,367.153 2266.23,366.341 2266.23,365.747 L2266.23,358.653 C2266.23,358.153 2265.92,357.841 2265.53,357.841 C2265.33,357.841 2265.23,357.841 2265.03,357.95 C2265.03,357.95 2263.03,358.747 2262.53,358.841 C2261.83,358.841 2261.12,358.341 2261.12,357.544 L2261.12,345.341 C2261.12,344.747 2260.53,344.247 2259.73,344.247 C2258.73,344.247 2258.12,344.747 2258.12,345.341 L2258.12,358.341 C2258.03,359.341 2257.73,360.653 2256.83,361.247 C2255.62,361.95 2252.23,363.341 2250.53,363.747 C2249.62,363.747 2249.33,362.544 2249.33,361.747 L2249.33,349.747 C2249.33,349.138 2248.62,348.638 2247.92,348.638 C2246.92,348.638 2246.33,349.138 2246.33,349.747 L2246.33,363.247 C2246.33,364.653 2245.73,365.653 2245.12,365.95 C2244.53,366.247 2242.53,367.044 2242.53,367.044 C2241.83,367.247 2241.33,368.044 2241.33,368.653 L2241.33,375.747 C2241.33,376.341 2241.62,376.653 2242.12,376.653 C2242.23,376.653 2242.42,376.544 2242.53,376.544 C2242.53,376.544 2244.03,375.95 2244.73,375.544 C2244.83,375.544 2244.92,375.45 2245.03,375.45 C2245.73,375.45 2246.33,376.45 2246.33,377.247 L2246.33,387.153 C2246.33,388.247 2245.83,389.153 2245.23,389.45 C2244.62,389.653 2242.53,390.544 2242.53,390.544 C2241.83,390.747 2241.33,391.544 2241.33,392.153 L2241.33,399.247 C2241.33,399.841 2241.62,400.153 2242.12,400.153 C2242.23,400.153 2242.42,400.044 2242.53,400.044 C2242.53,400.044 2243.92,399.45 2244.83,399.153 C2244.92,399.044 2245.03,399.044 2245.12,399.044 C2245.83,399.044 2246.33,400.153 2246.33,400.653 L2246.33,412.95 C2246.33,413.544 2246.92,414.044 2247.62,414.044 C2248.62,414.044 2249.33,413.544 2249.33,412.95 L2249.33,399.044 C2249.33,397.747 2249.83,397.044 2250.33,396.841 L2256.42,394.341 C2256.53,394.341 2256.73,394.247 2256.83,394.247 C2257.62,394.247 2258.12,395.45 2258.12,396.044 L2258.12,408.544 C2258.12,409.153 2258.73,409.653 2259.42,409.653 C2260.53,409.653 2261.12,409.153 2261.12,408.544 L2261.12,394.341 C2261.12,393.544 2261.53,392.341 2262.23,392.044 C2262.92,391.747 2265.03,390.95 2265.03,390.95 C2265.73,390.653 2266.23,389.841 2266.23,389.247 L2266.23,382.153 C2266.23,381.653 2265.92,381.341 2265.53,381.341 C2265.33,381.341 2265.23,381.341 2265.03,381.45 L2262.42,382.45 C2261.83,382.45 2261.12,381.841 2261.12,380.653 L2261.12,371.341 C2261.12,370.653 2261.62,368.747 2262.42,368.45 L2265.03,367.45 "/>
<path class="Accidental" d="M2318.92,358.746 C2318.33,360.746 2313.63,362.746 2311.33,362.746 C2310.72,362.746 2310.22,362.543 2310.13,362.246 C2309.92,361.839 2309.83,359.652 2309.83,357.246 C2309.83,354.152 2309.92,350.652 2310.13,349.839 C2310.33,348.152 2314.92,346.043 2317.42,346.043 C2318.13,346.043 2318.72,346.246 2318.92,346.652 C2319.13,347.152 2319.33,349.652 2319.33,352.339 C2319.33,355.043 2319.13,357.839 2318.92,358.746 M2325.83,342.449 C2326.53,342.152 2327.03,341.339 2327.03,340.746 L2327.03,333.652 C2327.03,333.152 2326.72,332.839 2326.33,332.839 C2326.13,332.839 2326.03,332.839 2325.83,332.949 C2325.83,332.949 2323.83,333.746 2323.33,333.839 C2322.63,333.839 2321.92,333.339 2321.92,332.543 L2321.92,320.339 C2321.92,319.746 2321.33,319.246 2320.53,319.246 C2319.53,319.246 2318.92,319.746 2318.92,320.339 L2318.92,333.339 C2318.83,334.339 2318.53,335.652 2317.63,336.246 C2316.42,336.949 2313.03,338.339 2311.33,338.746 C2310.42,338.746 2310.13,337.543 2310.13,336.746 L2310.13,324.746 C2310.13,324.136 2309.42,323.636 2308.72,323.636 C2307.72,323.636 2307.13,324.136 2307.13,324.746 L2307.13,338.246 C2307.13,339.652 2306.53,340.652 2305.92,340.949 C2305.33,341.246 2303.33,342.043 2303.33,342.043 C2302.63,342.246 2302.13,343.043 2302.13,343.652 L2302.13,350.746 C2302.13,351.339 2302.42,351.652 2302.92,351.652 C2303.03,351.652 2303.22,351.543 2303.33,351.543 C2303.33,351.543 2304.83,350.949 2305.53,350.543 C2305.63,350.543 2305.72,350.449 2305.83,350.449 C2306.53,350.449 2307.13,351.449 2307.13,352.246 L2307.13,362.152 C2307.13,363.246 2306.63,364.152 2306.03,364.449 C2305.42,364.652 2303.33,365.543 2303.33,365.543 C2302.63,365.746 2302.13,366.543 2302.13,367.152 L2302.13,374.246 C2302.13,374.839 2302.42,375.152 2302.92,375.152 C2303.03,375.152 2303.22,375.043 2303.33,375.043 C2303.33,375.043 2304.72,374.449 2305.63,374.152 C2305.72,374.043 2305.83,374.043 2305.92,374.043 C2306.63,374.043 2307.13,375.152 2307.13,375.652 L2307.13,387.949 C2307.13,388.543 2307.72,389.043 2308.42,389.043 C2309.42,389.043 2310.13,388.543 2310.13,387.949 L2310.13,374.043 C2310.13,372.746 2310.63,372.043 2311.13,371.839 L2317.22,369.339 C2317.33,369.339 2317.53,369.246 2317.63,369.246 C2318.42,369.246 2318.92,370.449 2318.92,371.043 L2318.92,383.543 C2318.92,384.152 2319.53,384.652 2320.22,384.652 C2321.33,384.652 2321.92,384.152 2321.92,383.543 L2321.92,369.339 C2321.92,368.543 2322.33,367.339 2323.03,367.043 C2323.72,366.746 2325.83,365.949 2325.83,365.949 C2326.53,365.652 2327.03,364.839 2327.03,364.246 L2327.03,357.152 C2327.03,356.652 2326.72,356.339 2326.33,356.339 C2326.13,356.339 2326.03,356.339 2325.83,356.449 L2323.22,357.449 C2322.63,357.449 2321.92,356.839 2321.92,355.652 L2321.92,346.339 C2321.92,345.652 2322.42,343.746 2323.22,343.449 L2325.83,342.449 "/>
<path class="Accidental" d="M2586.51,408.749 C2585.91,410.749 2581.21,412.749 2578.91,412.749 C2578.3,412.749 2577.8,412.546 2577.71,412.249 C2577.51,411.843 2577.41,409.655 2577.41,407.249 C2577.41,404.155 2577.51,400.655 2577.71,399.843 C2577.91,398.155 2582.51,396.046 2585.01,396.046 C2585.71,396.046 2586.3,396.249 2586.51,396.655 C2586.71,397.155 2586.91,399.655 2586.91,402.343 C2586.91,405.046 2586.71,407.843 2586.51,408.749 M2593.41,392.452 C2594.12,392.155 2594.62,391.343 2594.62,390.749 L2594.62,383.655 C2594.62,383.155 2594.3,382.843 2593.91,382.843 C2593.71,382.843 2593.62,382.843 2593.41,382.952 C2593.41,382.952 2591.41,383.749 2590.91,383.843 C2590.21,383.843 2589.51,383.343 2589.51,382.546 L2589.51,370.343 C2589.51,369.749 2588.91,369.249 2588.12,369.249 C2587.12,369.249 2586.51,369.749 2586.51,370.343 L2586.51,383.343 C2586.41,384.343 2586.12,385.655 2585.21,386.249 C2584.01,386.952 2580.62,388.343 2578.91,388.749 C2578.01,388.749 2577.71,387.546 2577.71,386.749 L2577.71,374.749 C2577.71,374.139 2577.01,373.639 2576.3,373.639 C2575.3,373.639 2574.71,374.139 2574.71,374.749 L2574.71,388.249 C2574.71,389.655 2574.12,390.655 2573.51,390.952 C2572.91,391.249 2570.91,392.046 2570.91,392.046 C2570.21,392.249 2569.71,393.046 2569.71,393.655 L2569.71,400.749 C2569.71,401.343 2570.01,401.655 2570.51,401.655 C2570.62,401.655 2570.8,401.546 2570.91,401.546 C2570.91,401.546 2572.41,400.952 2573.12,400.546 C2573.21,400.546 2573.3,400.452 2573.41,400.452 C2574.12,400.452 2574.71,401.452 2574.71,402.249 L2574.71,412.155 C2574.71,413.249 2574.21,414.155 2573.62,414.452 C2573.01,414.655 2570.91,415.546 2570.91,415.546 C2570.21,415.749 2569.71,416.546 2569.71,417.155 L2569.71,424.249 C2569.71,424.843 2570.01,425.155 2570.51,425.155 C2570.62,425.155 2570.8,425.046 2570.91,425.046 C2570.91,425.046 2572.3,424.452 2573.21,424.155 C2573.3,424.046 2573.41,424.046 2573.51,424.046 C2574.21,424.046 2574.71,425.155 2574.71,425.655 L2574.71,437.952 C2574.71,438.546 2575.3,439.046 2576.01,439.046 C2577.01,439.046 2577.71,438.546 2577.71,437.952 L2577.71,424.046 C2577.71,422.749 2578.21,422.046 2578.71,421.843 L2584.8,419.343 C2584.91,419.343 2585.12,419.249 2585.21,419.249 C2586.01,419.249 2586.51,420.452 2586.51,421.046 L2586.51,433.546 C2586.51,434.155 2587.12,434.655 2587.8,434.655 C2588.91,434.655 2589.51,434.155 2589.51,433.546 L2589.51,419.343 C2589.51,418.546 2589.91,417.343 2590.62,417.046 C2591.3,416.749 2593.41,415.952 2593.41,415.952 C2594.12,415.655 2594.62,414.843 2594.62,414.249 L2594.62,407.155 C2594.62,406.655 2594.3,406.343 2593.91,406.343 C2593.71,406.343 2593.62,406.343 2593.41,406.452 L2590.8,407.452 C2590.21,407.452 2589.51,406.843 2589.51,405.655 L2589.51,396.343 C2589.51,395.655 2590.01,393.749 2590.8,393.452 L2593.41,392.452 "/>
<polyline class="LedgerLine" fill="none" stroke="#000000" stroke-width="4.00" stroke-linecap="square" stroke-linejoin="bevel" points="339.336,491.754 395.238,491.754"/>
<polyline class="LedgerLine" fill="none" stroke="#000000" stroke-width="4.00" stroke-linecap="square" stroke-linejoin="bevel" points="339.336,466.753 395.238,466.753"/>
<polyline class="LedgerLine" fill="none" stroke="#000000" stroke-width="4.00" stroke-linecap="square" stroke-linejoin="bevel" points="339.336,441.751 395.238,441.751"/>
<polyline class="LedgerLine" fill="none" stroke="#000000" stroke-width="4.00" stroke-linecap="square" stroke-linejoin="bevel" points="601.02,466.753 656.922,466.753"/>
<polyline class="LedgerLine" fill="none" stroke="#000000" stroke-width="4.00" stroke-linecap="square" stroke-linejoin="bevel" points="601.02,441.751 656.922,441.751"/>
<polyline class="LedgerLine" fill="none" stroke="#000000" stroke-width="4.00" stroke-linecap="square" stroke-linejoin="bevel" points="877.901,466.753 933.803,466.753"/>
<polyline class="LedgerLine" fill="none" stroke="#000000" stroke-width="4.00" stroke-linecap="square" stroke-linejoin="bevel" points="877.901,441.751 933.803,441.751"/>
<polyline class="LedgerLine" fill="none" stroke="#000000" stroke-width="4.00" stroke-linecap="square" stroke-linejoin="bevel" points="1156.19,441.751 1212.09,441.751"/>
<polyline class="LedgerLine" fill="none" stroke="#000000" stroke-width="4.00" stroke-linecap="square" stroke-linejoin="bevel" points="1452.57,441.751 1508.47,441.751"/>
<path class="Note" d="M367.836,653.062 C353.336,653.062 344.336,659.172 344.336,666.562 C344.336,673.859 350.539,680.359 366.743,680.359 C384.539,680.359 390.243,674.172 390.243,666.562 C390.243,658.859 377.946,653.062 367.836,653.062 M356.43,659.859 C357.633,656.172 361.633,655.562 365.039,655.562 C372.446,655.562 378.446,663.562 378.446,670.172 C378.446,670.859 378.336,671.562 378.243,672.172 C377.743,674.859 376.133,676.765 373.446,677.468 C372.336,677.765 371.243,677.859 370.133,677.859 C369.133,677.859 368.243,677.765 367.243,677.468 C365.43,676.859 363.633,675.859 362.133,674.562 C361.336,673.859 360.539,673.062 359.836,672.172 C357.743,669.672 356.039,665.968 356.039,662.562 C356.039,661.672 356.133,660.765 356.43,659.859"/>
<path class="Note" d="M629.521,665.563 C615.021,665.563 606.021,671.672 606.021,679.063 C606.021,686.36 612.224,692.86 628.427,692.86 C646.224,692.86 651.927,686.672 651.927,679.063 C651.927,671.36 639.63,665.563 629.521,665.563 M618.115,672.36 C619.318,668.672 623.318,668.063 626.724,668.063 C634.13,668.063 640.13,676.063 640.13,682.672 C640.13,683.36 640.021,684.063 639.927,684.672 C639.427,687.36 637.818,689.266 635.13,689.969 C634.021,690.266 632.927,690.36 631.818,690.36 C630.818,690.36 629.927,690.266 628.927,689.969 C627.115,689.36 625.318,688.36 623.818,687.063 C623.021,686.36 622.224,685.563 621.521,684.672 C619.427,682.172 617.724,678.469 617.724,675.063 C617.724,674.172 617.818,673.266 618.115,672.36"/>
<path class="Note" d="M906.401,628.061 C891.901,628.061 882.901,634.17 882.901,641.561 C882.901,648.858 889.105,655.358 905.308,655.358 C923.105,655.358 928.808,649.17 928.808,641.561 C928.808,633.858 916.511,628.061 906.401,628.061 M894.995,634.858 C896.198,631.17 900.198,630.561 903.605,630.561 C911.011,630.561 917.011,638.561 917.011,645.17 C917.011,645.858 916.901,646.561 916.808,647.17 C916.308,649.858 914.698,651.764 912.011,652.467 C910.901,652.764 909.808,652.858 908.698,652.858 C907.698,652.858 906.808,652.764 905.808,652.467 C903.995,651.858 902.198,650.858 900.698,649.561 C899.901,648.858 899.105,648.061 898.401,647.17 C896.308,644.67 894.605,640.967 894.605,637.561 C894.605,636.67 894.698,635.764 894.995,634.858"/>
<path class="Note" d="M1184.69,640.561 C1170.19,640.561 1161.19,646.671 1161.19,654.061 C1161.19,661.358 1167.39,667.858 1183.59,667.858 C1201.39,667.858 1207.09,661.671 1207.09,654.061 C1207.09,646.358 1194.8,640.561 1184.69,640.561 M1173.28,647.358 C1174.49,643.671 1178.49,643.061 1181.89,643.061 C1189.3,643.061 1195.3,651.061 1195.3,657.671 C1195.3,658.358 1195.19,659.061 1195.09,659.671 C1194.59,662.358 1192.99,664.265 1190.3,664.968 C1189.19,665.265 1188.09,665.358 1186.99,665.358 C1185.99,665.358 1185.09,665.265 1184.09,664.968 C1182.28,664.358 1180.49,663.358 1178.99,662.061 C1178.19,661.358 1177.39,660.561 1176.69,659.671 C1174.59,657.171 1172.89,653.468 1172.89,650.061 C1172.89,649.171 1172.99,648.265 1173.28,647.358"/>
<path class="Note" d="M1481.07,603.059 C1466.57,603.059 1457.57,609.168 1457.57,616.559 C1457.57,623.856 1463.77,630.356 1479.98,630.356 C1497.77,630.356 1503.48,624.168 1503.48,616.559 C1503.48,608.856 1491.18,603.059 1481.07,603.059 M1469.66,609.856 C1470.87,606.168 1474.87,605.559 1478.27,605.559 C1485.68,605.559 1491.68,613.559 1491.68,620.168 C1491.68,620.856 1491.57,621.559 1491.48,622.168 C1490.98,624.856 1489.37,626.762 1486.68,627.465 C1485.57,627.762 1484.48,627.856 1483.37,627.856 C1482.37,627.856 1481.48,627.762 1480.48,627.465 C1478.66,626.856 1476.87,625.856 1475.37,624.559 C1474.57,623.856 1473.77,623.059 1473.07,622.168 C1470.98,619.668 1469.27,615.965 1469.27,612.559 C1469.27,611.668 1469.37,610.762 1469.66,609.856"/>
<path class="Note" d="M1748.65,615.56 C1734.15,615.56 1725.15,621.669 1725.15,629.06 C1725.15,636.357 1731.36,642.857 1747.56,642.857 C1765.36,642.857 1771.06,636.669 1771.06,629.06 C1771.06,621.357 1758.76,615.56 1748.65,615.56 M1737.25,622.357 C1738.45,618.669 1742.45,618.06 1745.86,618.06 C1753.26,618.06 1759.26,626.06 1759.26,632.669 C1759.26,633.357 1759.15,634.06 1759.06,634.669 C1758.56,637.357 1756.95,639.263 1754.26,639.966 C1753.15,640.263 1752.06,640.357 1750.95,640.357 C1749.95,640.357 1749.06,640.263 1748.06,639.966 C1746.25,639.357 1744.45,638.357 1742.95,637.06 C1742.15,636.357 1741.36,635.56 1740.65,634.669 C1738.56,632.169 1736.86,628.466 1736.86,625.06 C1736.86,624.169 1736.95,623.263 1737.25,622.357"/>
<path class="Note" d="M2013.84,578.058 C1999.34,578.058 1990.34,584.167 1990.34,591.558 C1990.34,598.854 1996.54,605.354 2012.74,605.354 C2030.54,605.354 2036.24,599.167 2036.24,591.558 C2036.24,583.854 2023.95,578.058 2013.84,578.058 M2002.43,584.854 C2003.64,581.167 2007.64,580.558 2011.04,580.558 C2018.45,580.558 2024.45,588.558 2024.45,595.167 C2024.45,595.854 2024.34,596.558 2024.24,597.167 C2023.74,599.854 2022.14,601.761 2019.45,602.464 C2018.34,602.761 2017.24,602.854 2016.14,602.854 C2015.14,602.854 2014.24,602.761 2013.24,602.464 C2011.43,601.854 2009.64,600.854 2008.14,599.558 C2007.34,598.854 2006.54,598.058 2005.84,597.167 C2003.74,594.667 2002.04,590.964 2002.04,587.558 C2002.04,586.667 2002.14,585.761 2002.43,584.854"/>
<path class="Note" d="M2356.03,590.558 C2341.53,590.558 2332.53,596.668 2332.53,604.058 C2332.53,611.355 2338.73,617.855 2354.93,617.855 C2372.73,617.855 2378.43,611.668 2378.43,604.058 C2378.43,596.355 2366.14,590.558 2356.03,590.558 M2344.62,597.355 C2345.82,593.668 2349.82,593.058 2353.23,593.058 C2360.64,593.058 2366.64,601.058 2366.64,607.668 C2366.64,608.355 2366.53,609.058 2366.43,609.668 C2365.93,612.355 2364.32,614.261 2361.64,614.965 C2360.53,615.261 2359.43,615.355 2358.32,615.355 C2357.32,615.355 2356.43,615.261 2355.43,614.965 C2353.62,614.355 2351.82,613.355 2350.32,612.058 C2349.53,611.355 2348.73,610.558 2348.03,609.668 C2345.93,607.168 2344.23,603.465 2344.23,600.058 C2344.23,599.168 2344.32,598.261 2344.62,597.355"/>
<path class="Note" d="M2623.61,553.056 C2609.11,553.056 2600.11,559.165 2600.11,566.556 C2600.11,573.853 2606.31,580.353 2622.52,580.353 C2640.31,580.353 2646.02,574.165 2646.02,566.556 C2646.02,558.853 2633.72,553.056 2623.61,553.056 M2612.2,559.853 C2613.41,556.165 2617.41,555.556 2620.81,555.556 C2628.22,555.556 2634.22,563.556 2634.22,570.165 C2634.22,570.853 2634.11,571.556 2634.02,572.165 C2633.52,574.853 2631.91,576.759 2629.22,577.462 C2628.11,577.759 2627.02,577.853 2625.91,577.853 C2624.91,577.853 2624.02,577.759 2623.02,577.462 C2621.2,576.853 2619.41,575.853 2617.91,574.556 C2617.11,573.853 2616.31,573.056 2615.61,572.165 C2613.52,569.665 2611.81,565.962 2611.81,562.556 C2611.81,561.665 2611.91,560.759 2612.2,559.853"/>
<path class="Note" d="M367.836,490.552 C353.336,490.552 344.336,496.661 344.336,504.052 C344.336,511.349 350.539,517.849 366.743,517.849 C384.539,517.849 390.243,511.661 390.243,504.052 C390.243,496.349 377.946,490.552 367.836,490.552 M356.43,497.349 C357.633,493.661 361.633,493.052 365.039,493.052 C372.446,493.052 378.446,501.052 378.446,507.661 C378.446,508.349 378.336,509.052 378.243,509.661 C377.743,512.349 376.133,514.255 373.446,514.958 C372.336,515.255 371.243,515.349 370.133,515.349 C369.133,515.349 368.243,515.255 367.243,514.958 C365.43,514.349 363.633,513.349 362.133,512.052 C361.336,511.349 360.539,510.552 359.836,509.661 C357.743,507.161 356.039,503.458 356.039,500.052 C356.039,499.161 356.133,498.255 356.43,497.349"/>
<path class="Note" d="M367.836,453.05 C353.336,453.05 344.336,459.159 344.336,466.55 C344.336,473.847 350.539,480.347 366.743,480.347 C384.539,480.347 390.243,474.159 390.243,466.55 C390.243,458.847 377.946,453.05 367.836,453.05 M356.43,459.847 C357.633,456.159 361.633,455.55 365.039,455.55 C372.446,455.55 378.446,463.55 378.446,470.159 C378.446,470.847 378.336,471.55 378.243,472.159 C377.743,474.847 376.133,476.753 373.446,477.456 C372.336,477.753 371.243,477.847 370.133,477.847 C369.133,477.847 368.243,477.753 367.243,477.456 C365.43,476.847 363.633,475.847 362.133,474.55 C361.336,473.847 360.539,473.05 359.836,472.159 C357.743,469.659 356.039,465.956 356.039,462.55 C356.039,461.659 356.133,460.753 356.43,459.847"/>
<path class="Note" d="M367.836,428.048 C353.336,428.048 344.336,434.157 344.336,441.548 C344.336,448.845 350.539,455.345 366.743,455.345 C384.539,455.345 390.243,449.157 390.243,441.548 C390.243,433.845 377.946,428.048 367.836,428.048 M356.43,434.845 C357.633,431.157 361.633,430.548 365.039,430.548 C372.446,430.548 378.446,438.548 378.446,445.157 C378.446,445.845 378.336,446.548 378.243,447.157 C377.743,449.845 376.133,451.751 373.446,452.454 C372.336,452.751 371.243,452.845 370.133,452.845 C369.133,452.845 368.243,452.751 367.243,452.454 C365.43,451.845 363.633,450.845 362.133,449.548 C361.336,448.845 360.539,448.048 359.836,447.157 C357.743,444.657 356.039,440.954 356.039,437.548 C356.039,436.657 356.133,435.751 356.43,434.845"/>
<path class="Note" d="M629.521,465.55 C615.021,465.55 606.021,471.66 606.021,479.05 C606.021,486.347 612.224,492.847 628.427,492.847 C646.224,492.847 651.927,486.66 651.927,479.05 C651.927,471.347 639.63,465.55 629.521,465.55 M618.115,472.347 C619.318,468.66 623.318,468.05 626.724,468.05 C634.13,468.05 640.13,476.05 640.13,482.66 C640.13,483.347 640.021,484.05 639.927,484.66 C639.427,487.347 637.818,489.254 635.13,489.957 C634.021,490.254 632.927,490.347 631.818,490.347 C630.818,490.347 629.927,490.254 628.927,489.957 C627.115,489.347 625.318,488.347 623.818,487.05 C623.021,486.347 622.224,485.55 621.521,484.66 C619.427,482.16 617.724,478.457 617.724,475.05 C617.724,474.16 617.818,473.254 618.115,472.347"/>
<path class="Note" d="M629.521,440.549 C615.021,440.549 606.021,446.658 606.021,454.049 C606.021,461.346 612.224,467.846 628.427,467.846 C646.224,467.846 651.927,461.658 651.927,454.049 C651.927,446.346 639.63,440.549 629.521,440.549 M618.115,447.346 C619.318,443.658 623.318,443.049 626.724,443.049 C634.13,443.049 640.13,451.049 640.13,457.658 C640.13,458.346 640.021,459.049 639.927,459.658 C639.427,462.346 637.818,464.252 635.13,464.955 C634.021,465.252 632.927,465.346 631.818,465.346 C630.818,465.346 629.927,465.252 628.927,464.955 C627.115,464.346 625.318,463.346 623.818,462.049 C623.021,461.346 622.224,460.549 621.521,459.658 C619.427,457.158 617.724,453.455 617.724,450.049 C617.724,449.158 617.818,448.252 618.115,447.346"/>
<path class="Note" d="M629.521,415.547 C615.021,415.547 606.021,421.657 606.021,429.047 C606.021,436.344 612.224,442.844 628.427,442.844 C646.224,442.844 651.927,436.657 651.927,429.047 C651.927,421.344 639.63,415.547 629.521,415.547 M618.115,422.344 C619.318,418.657 623.318,418.047 626.724,418.047 C634.13,418.047 640.13,426.047 640.13,432.657 C640.13,433.344 640.021,434.047 639.927,434.657 C639.427,437.344 637.818,439.25 635.13,439.954 C634.021,440.25 632.927,440.344 631.818,440.344 C630.818,440.344 629.927,440.25 628.927,439.954 C627.115,439.344 625.318,438.344 623.818,437.047 C623.021,436.344 622.224,435.547 621.521,434.657 C619.427,432.157 617.724,428.454 617.724,425.047 C617.724,424.157 617.818,423.25 618.115,422.344"/>
<path class="Note" d="M906.401,465.55 C891.901,465.55 882.901,471.66 882.901,479.05 C882.901,486.347 889.105,492.847 905.308,492.847 C923.105,492.847 928.808,486.66 928.808,479.05 C928.808,471.347 916.511,465.55 906.401,465.55 M894.995,472.347 C896.198,468.66 900.198,468.05 903.605,468.05 C911.011,468.05 917.011,476.05 917.011,482.66 C917.011,483.347 916.901,484.05 916.808,484.66 C916.308,487.347 914.698,489.254 912.011,489.957 C910.901,490.254 909.808,490.347 908.698,490.347 C907.698,490.347 906.808,490.254 905.808,489.957 C903.995,489.347 902.198,488.347 900.698,487.05 C899.901,486.347 899.105,485.55 898.401,484.66 C896.308,482.16 894.605,478.457 894.605,475.05 C894.605,474.16 894.698,473.254 894.995,472.347"/>
<path class="Note" d="M906.401,428.048 C891.901,428.048 882.901,434.157 882.901,441.548 C882.901,448.845 889.105,455.345 905.308,455.345 C923.105,455.345 928.808,449.157 928.808,441.548 C928.808,433.845 916.511,428.048 906.401,428.048 M894.995,434.845 C896.198,431.157 900.198,430.548 903.605,430.548 C911.011,430.548 917.011,438.548 917.011,445.157 C917.011,445.845 916.901,446.548 916.808,447.157 C916.308,449.845 914.698,451.751 912.011,452.454 C910.901,452.751 909.808,452.845 908.698,452.845 C907.698,452.845 906.808,452.751 905.808,452.454 C903.995,451.845 902.198,450.845 900.698,449.548 C899.901,448.845 899.105,448.048 898.401,447.157 C896.308,444.657 894.605,440.954 894.605,437.548 C894.605,436.657 894.698,435.751 894.995,434.845"/>
<path class="Note" d="M906.401,403.046 C891.901,403.046 882.901,409.156 882.901,416.546 C882.901,423.843 889.105,430.343 905.308,430.343 C923.105,430.343 928.808,424.156 928.808,416.546 C928.808,408.843 916.511,403.046 906.401,403.046 M894.995,409.843 C896.198,406.156 900.198,405.546 903.605,405.546 C911.011,405.546 917.011,413.546 917.011,420.156 C917.011,420.843 916.901,421.546 916.808,422.156 C916.308,424.843 914.698,426.75 912.011,427.453 C910.901,427.75 909.808,427.843 908.698,427.843 C907.698,427.843 906.808,427.75 905.808,427.453 C903.995,426.843 902.198,425.843 900.698,424.546 C899.901,423.843 899.105,423.046 898.401,422.156 C896.308,419.656 894.605,415.953 894.605,412.546 C894.605,411.656 894.698,410.75 894.995,409.843"/>
<path class="Note" d="M1184.69,440.549 C1170.19,440.549 1161.19,446.658 1161.19,454.049 C1161.19,461.346 1167.39,467.846 1183.59,467.846 C1201.39,467.846 1207.09,461.658 1207.09,454.049 C1207.09,446.346 1194.8,440.549 1184.69,440.549 M1173.28,447.346 C1174.49,443.658 1178.49,443.049 1181.89,443.049 C1189.3,443.049 1195.3,451.049 1195.3,457.658 C1195.3,458.346 1195.19,459.049 1195.09,459.658 C1194.59,462.346 1192.99,464.252 1190.3,464.955 C1189.19,465.252 1188.09,465.346 1186.99,465.346 C1185.99,465.346 1185.09,465.252 1184.09,464.955 C1182.28,464.346 1180.49,463.346 1178.99,462.049 C1178.19,461.346 1177.39,460.549 1176.69,459.658 C1174.59,457.158 1172.89,453.455 1172.89,450.049 C1172.89,449.158 1172.99,448.252 1173.28,447.346"/>
<path class="Note" d="M1184.69,415.547 C1170.19,415.547 1161.19,421.657 1161.19,429.047 C1161.19,436.344 1167.39,442.844 1183.59,442.844 C1201.39,442.844 1207.09,436.657 1207.09,429.047 C1207.09,421.344 1194.8,415.547 1184.69,415.547 M1173.28,422.344 C1174.49,418.657 1178.49,418.047 1181.89,418.047 C1189.3,418.047 1195.3,426.047 1195.3,432.657 C1195.3,433.344 1195.19,434.047 1195.09,434.657 C1194.59,437.344 1192.99,439.25 1190.3,439.954 C1189.19,440.25 1188.09,440.344 1186.99,440.344 C1185.99,440.344 1185.09,440.25 1184.09,439.954 C1182.28,439.344 1180.49,438.344 1178.99,437.047 C1178.19,436.344 1177.39,435.547 1176.69,434.657 C1174.59,432.157 1172.89,428.454 1172.89,425.047 C1172.89,424.157 1172.99,423.25 1173.28,422.344"/>
<path class="Note" d="M1184.69,390.546 C1170.19,390.546 1161.19,396.655 1161.19,404.046 C1161.19,411.343 1167.39,417.843 1183.59,417.843 C1201.39,417.843 1207.09,411.655 1207.09,404.046 C1207.09,396.343 1194.8,390.546 1184.69,390.546 M1173.28,397.343 C1174.49,393.655 1178.49,393.046 1181.89,393.046 C1189.3,393.046 1195.3,401.046 1195.3,407.655 C1195.3,408.343 1195.19,409.046 1195.09,409.655 C1194.59,412.343 1192.99,414.249 1190.3,414.952 C1189.19,415.249 1188.09,415.343 1186.99,415.343 C1185.99,415.343 1185.09,415.249 1184.09,414.952 C1182.28,414.343 1180.49,413.343 1178.99,412.046 C1178.19,411.343 1177.39,410.546 1176.69,409.655 C1174.59,407.155 1172.89,403.452 1172.89,400.046 C1172.89,399.155 1172.99,398.249 1173.28,397.343"/>
<path class="Note" d="M1481.07,440.549 C1466.57,440.549 1457.57,446.658 1457.57,454.049 C1457.57,461.346 1463.77,467.846 1479.98,467.846 C1497.77,467.846 1503.48,461.658 1503.48,454.049 C1503.48,446.346 1491.18,440.549 1481.07,440.549 M1469.66,447.346 C1470.87,443.658 1474.87,443.049 1478.27,443.049 C1485.68,443.049 1491.68,451.049 1491.68,457.658 C1491.68,458.346 1491.57,459.049 1491.48,459.658 C1490.98,462.346 1489.37,464.252 1486.68,464.955 C1485.57,465.252 1484.48,465.346 1483.37,465.346 C1482.37,465.346 1481.48,465.252 1480.48,464.955 C1478.66,464.346 1476.87,463.346 1475.37,462.049 C1474.57,461.346 1473.77,460.549 1473.07,459.658 C1470.98,457.158 1469.27,453.455 1469.27,450.049 C1469.27,449.158 1469.37,448.252 1469.66,447.346"/>
<path class="Note" d="M1481.07,403.046 C1466.57,403.046 1457.57,409.156 1457.57,416.546 C1457.57,423.843 1463.77,430.343 1479.98,430.343 C1497.77,430.343 1503.48,424.156 1503.48,416.546 C1503.48,408.843 1491.18,403.046 1481.07,403.046 M1469.66,409.843 C1470.87,406.156 1474.87,405.546 1478.27,405.546 C1485.68,405.546 1491.68,413.546 1491.68,420.156 C1491.68,420.843 1491.57,421.546 1491.48,422.156 C1490.98,424.843 1489.37,426.75 1486.68,427.453 C1485.57,427.75 1484.48,427.843 1483.37,427.843 C1482.37,427.843 1481.48,427.75 1480.48,427.453 C1478.66,426.843 1476.87,425.843 1475.37,424.546 C1474.57,423.843 1473.77,423.046 1473.07,422.156 C1470.98,419.656 1469.27,415.953 1469.27,412.546 C1469.27,411.656 1469.37,410.75 1469.66,409.843"/>
<path class="Note" d="M1481.07,378.045 C1466.57,378.045 1457.57,384.154 1457.57,391.545 C1457.57,398.842 1463.77,405.342 1479.98,405.342 C1497.77,405.342 1503.48,399.154 1503.48,391.545 C1503.48,383.842 1491.18,378.045 1481.07,378.045 M1469.66,384.842 C1470.87,381.154 1474.87,380.545 1478.27,380.545 C1485.68,380.545 1491.68,388.545 1491.68,395.154 C1491.68,395.842 1491.57,396.545 1491.48,397.154 C1490.98,399.842 1489.37,401.748 1486.68,402.451 C1485.57,402.748 1484.48,402.842 1483.37,402.842 C1482.37,402.842 1481.48,402.748 1480.48,402.451 C1478.66,401.842 1476.87,400.842 1475.37,399.545 C1474.57,398.842 1473.77,398.045 1473.07,397.154 C1470.98,394.654 1469.27,390.951 1469.27,387.545 C1469.27,386.654 1469.37,385.748 1469.66,384.842"/>
<path class="Note" d="M1748.65,415.547 C1734.15,415.547 1725.15,421.657 1725.15,429.047 C1725.15,436.344 1731.36,442.844 1747.56,442.844 C1765.36,442.844 1771.06,436.657 1771.06,429.047 C1771.06,421.344 1758.76,415.547 1748.65,415.547 M1737.25,422.344 C1738.45,418.657 1742.45,418.047 1745.86,418.047 C1753.26,418.047 1759.26,426.047 1759.26,432.657 C1759.26,433.344 1759.15,434.047 1759.06,434.657 C1758.56,437.344 1756.95,439.25 1754.26,439.954 C1753.15,440.25 1752.06,440.344 1750.95,440.344 C1749.95,440.344 1749.06,440.25 1748.06,439.954 C1746.25,439.344 1744.45,438.344 1742.95,437.047 C1742.15,436.344 1741.36,435.547 1740.65,434.657 C1738.56,432.157 1736.86,428.454 1736.86,425.047 C1736.86,424.157 1736.95,423.25 1737.25,422.344"/>
<path class="Note" d="M1748.65,390.546 C1734.15,390.546 1725.15,396.655 1725.15,404.046 C1725.15,411.343 1731.36,417.843 1747.56,417.843 C1765.36,417.843 1771.06,411.655 1771.06,404.046 C1771.06,396.343 1758.76,390.546 1748.65,390.546 M1737.25,397.343 C1738.45,393.655 1742.45,393.046 1745.86,393.046 C1753.26,393.046 1759.26,401.046 1759.26,407.655 C1759.26,408.343 1759.15,409.046 1759.06,409.655 C1758.56,412.343 1756.95,414.249 1754.26,414.952 C1753.15,415.249 1752.06,415.343 1750.95,415.343 C1749.95,415.343 1749.06,415.249 1748.06,414.952 C1746.25,414.343 1744.45,413.343 1742.95,412.046 C1742.15,411.343 1741.36,410.546 1740.65,409.655 C1738.56,407.155 1736.86,403.452 1736.86,400.046 C1736.86,399.155 1736.95,398.249 1737.25,397.343"/>
<path class="Note" d="M1748.65,365.544 C1734.15,365.544 1725.15,371.653 1725.15,379.044 C1725.15,386.341 1731.36,392.841 1747.56,392.841 C1765.36,392.841 1771.06,386.653 1771.06,379.044 C1771.06,371.341 1758.76,365.544 1748.65,365.544 M1737.25,372.341 C1738.45,368.653 1742.45,368.044 1745.86,368.044 C1753.26,368.044 1759.26,376.044 1759.26,382.653 C1759.26,383.341 1759.15,384.044 1759.06,384.653 C1758.56,387.341 1756.95,389.247 1754.26,389.95 C1753.15,390.247 1752.06,390.341 1750.95,390.341 C1749.95,390.341 1749.06,390.247 1748.06,389.95 C1746.25,389.341 1744.45,388.341 1742.95,387.044 C1742.15,386.341 1741.36,385.544 1740.65,384.653 C1738.56,382.153 1736.86,378.45 1736.86,375.044 C1736.86,374.153 1736.95,373.247 1737.25,372.341"/>
<path class="Note" d="M2013.84,415.547 C1999.34,415.547 1990.34,421.657 1990.34,429.047 C1990.34,436.344 1996.54,442.844 2012.74,442.844 C2030.54,442.844 2036.24,436.657 2036.24,429.047 C2036.24,421.344 2023.95,415.547 2013.84,415.547 M2002.43,422.344 C2003.64,418.657 2007.64,418.047 2011.04,418.047 C2018.45,418.047 2024.45,426.047 2024.45,432.657 C2024.45,433.344 2024.34,434.047 2024.24,434.657 C2023.74,437.344 2022.14,439.25 2019.45,439.954 C2018.34,440.25 2017.24,440.344 2016.14,440.344 C2015.14,440.344 2014.24,440.25 2013.24,439.954 C2011.43,439.344 2009.64,438.344 2008.14,437.047 C2007.34,436.344 2006.54,435.547 2005.84,434.657 C2003.74,432.157 2002.04,428.454 2002.04,425.047 C2002.04,424.157 2002.14,423.25 2002.43,422.344"/>
<path class="Note" d="M2013.84,378.045 C1999.34,378.045 1990.34,384.154 1990.34,391.545 C1990.34,398.842 1996.54,405.342 2012.74,405.342 C2030.54,405.342 2036.24,399.154 2036.24,391.545 C2036.24,383.842 2023.95,378.045 2013.84,378.045 M2002.43,384.842 C2003.64,381.154 2007.64,380.545 2011.04,380.545 C2018.45,380.545 2024.45,388.545 2024.45,395.154 C2024.45,395.842 2024.34,396.545 2024.24,397.154 C2023.74,399.842 2022.14,401.748 2019.45,402.451 C2018.34,402.748 2017.24,402.842 2016.14,402.842 C2015.14,402.842 2014.24,402.748 2013.24,402.451 C2011.43,401.842 2009.64,400.842 2008.14,399.545 C2007.34,398.842 2006.54,398.045 2005.84,397.154 C2003.74,394.654 2002.04,390.951 2002.04,387.545 C2002.04,386.654 2002.14,385.748 2002.43,384.842"/>
<path class="Note" d="M2013.84,353.043 C1999.34,353.043 1990.34,359.153 1990.34,366.543 C1990.34,373.84 1996.54,380.34 2012.74,380.34 C2030.54,380.34 2036.24,374.153 2036.24,366.543 C2036.24,358.84 2023.95,353.043 2013.84,353.043 M2002.43,359.84 C2003.64,356.153 2007.64,355.543 2011.04,355.543 C2018.45,355.543 2024.45,363.543 2024.45,370.153 C2024.45,370.84 2024.34,371.543 2024.24,372.153 C2023.74,374.84 2022.14,376.746 2019.45,377.45 C2018.34,377.746 2017.24,377.84 2016.14,377.84 C2015.14,377.84 2014.24,377.746 2013.24,377.45 C2011.43,376.84 2009.64,375.84 2008.14,374.543 C2007.34,373.84 2006.54,373.043 2005.84,372.153 C2003.74,369.653 2002.04,365.95 2002.04,362.543 C2002.04,361.653 2002.14,360.746 2002.43,359.84"/>
<path class="Note" d="M2356.03,390.546 C2341.53,390.546 2332.53,396.655 2332.53,404.046 C2332.53,411.343 2338.73,417.843 2354.93,417.843 C2372.73,417.843 2378.43,411.655 2378.43,404.046 C2378.43,396.343 2366.14,390.546 2356.03,390.546 M2344.62,397.343 C2345.82,393.655 2349.82,393.046 2353.23,393.046 C2360.64,393.046 2366.64,401.046 2366.64,407.655 C2366.64,408.343 2366.53,409.046 2366.43,409.655 C2365.93,412.343 2364.32,414.249 2361.64,414.952 C2360.53,415.249 2359.43,415.343 2358.32,415.343 C2357.32,415.343 2356.43,415.249 2355.43,414.952 C2353.62,414.343 2351.82,413.343 2350.32,412.046 C2349.53,411.343 2348.73,410.546 2348.03,409.655 C2345.93,407.155 2344.23,403.452 2344.23,400.046 C2344.23,399.155 2344.32,398.249 2344.62,397.343"/>
<path class="Note" d="M2356.03,365.544 C2341.53,365.544 2332.53,371.653 2332.53,379.044 C2332.53,386.341 2338.73,392.841 2354.93,392.841 C2372.73,392.841 2378.43,386.653 2378.43,379.044 C2378.43,371.341 2366.14,365.544 2356.03,365.544 M2344.62,372.341 C2345.82,368.653 2349.82,368.044 2353.23,368.044 C2360.64,368.044 2366.64,376.044 2366.64,382.653 C2366.64,383.341 2366.53,384.044 2366.43,384.653 C2365.93,387.341 2364.32,389.247 2361.64,389.95 C2360.53,390.247 2359.43,390.341 2358.32,390.341 C2357.32,390.341 2356.43,390.247 2355.43,389.95 C2353.62,389.341 2351.82,388.341 2350.32,387.044 C2349.53,386.341 2348.73,385.544 2348.03,384.653 C2345.93,382.153 2344.23,378.45 2344.23,375.044 C2344.23,374.153 2344.32,373.247 2344.62,372.341"/>
<path class="Note" d="M2356.03,340.543 C2341.53,340.543 2332.53,346.652 2332.53,354.043 C2332.53,361.339 2338.73,367.839 2354.93,367.839 C2372.73,367.839 2378.43,361.652 2378.43,354.043 C2378.43,346.339 2366.14,340.543 2356.03,340.543 M2344.62,347.339 C2345.82,343.652 2349.82,343.043 2353.23,343.043 C2360.64,343.043 2366.64,351.043 2366.64,357.652 C2366.64,358.339 2366.53,359.043 2366.43,359.652 C2365.93,362.339 2364.32,364.246 2361.64,364.949 C2360.53,365.246 2359.43,365.339 2358.32,365.339 C2357.32,365.339 2356.43,365.246 2355.43,364.949 C2353.62,364.339 2351.82,363.339 2350.32,362.043 C2349.53,361.339 2348.73,360.543 2348.03,359.652 C2345.93,357.152 2344.23,353.449 2344.23,350.043 C2344.23,349.152 2344.32,348.246 2344.62,347.339"/>
<path class="Note" d="M2623.61,390.546 C2609.11,390.546 2600.11,396.655 2600.11,404.046 C2600.11,411.343 2606.31,417.843 2622.52,417.843 C2640.31,417.843 2646.02,411.655 2646.02,404.046 C2646.02,396.343 2633.72,390.546 2623.61,390.546 M2612.2,397.343 C2613.41,393.655 2617.41,393.046 2620.81,393.046 C2628.22,393.046 2634.22,401.046 2634.22,407.655 C2634.22,408.343 2634.11,409.046 2634.02,409.655 C2633.52,412.343 2631.91,414.249 2629.22,414.952 C2628.11,415.249 2627.02,415.343 2625.91,415.343 C2624.91,415.343 2624.02,415.249 2623.02,414.952 C2621.2,414.343 2619.41,413.343 2617.91,412.046 C2617.11,411.343 2616.31,410.546 2615.61,409.655 C2613.52,407.155 2611.81,403.452 2611.81,400.046 C2611.81,399.155 2611.91,398.249 2612.2,397.343"/>
<path class="Note" d="M2623.61,353.043 C2609.11,353.043 2600.11,359.153 2600.11,366.543 C2600.11,373.84 2606.31,380.34 2622.52,380.34 C2640.31,380.34 2646.02,374.153 2646.02,366.543 C2646.02,358.84 2633.72,353.043 2623.61,353.043 M2612.2,359.84 C2613.41,356.153 2617.41,355.543 2620.81,355.543 C2628.22,355.543 2634.22,363.543 2634.22,370.153 C2634.22,370.84 2634.11,371.543 2634.02,372.153 C2633.52,374.84 2631.91,376.746 2629.22,377.45 C2628.11,377.746 2627.02,377.84 2625.91,377.84 C2624.91,377.84 2624.02,377.746 2623.02,377.45 C2621.2,376.84 2619.41,375.84 2617.91,374.543 C2617.11,373.84 2616.31,373.043 2615.61,372.153 C2613.52,369.653 2611.81,365.95 2611.81,362.543 C2611.81,361.653 2611.91,360.746 2612.2,359.84"/>
<path class="Note" d="M2623.61,328.042 C2609.11,328.042 2600.11,334.151 2600.11,341.542 C2600.11,348.839 2606.31,355.339 2622.52,355.339 C2640.31,355.339 2646.02,349.151 2646.02,341.542 C2646.02,333.839 2633.72,328.042 2623.61,328.042 M2612.2,334.839 C2613.41,331.151 2617.41,330.542 2620.81,330.542 C2628.22,330.542 2634.22,338.542 2634.22,345.151 C2634.22,345.839 2634.11,346.542 2634.02,347.151 C2633.52,349.839 2631.91,351.745 2629.22,352.448 C2628.11,352.745 2627.02,352.839 2625.91,352.839 C2624.91,352.839 2624.02,352.745 2623.02,352.448 C2621.2,351.839 2619.41,350.839 2617.91,349.542 C2617.11,348.839 2616.31,348.042 2615.61,347.151 C2613.52,344.651 2611.81,340.948 2611.81,337.542 C2611.81,336.651 2611.91,335.745 2612.2,334.839"/>
<path class="Clef" d="M232.937,578.058 C215.531,578.058 207.734,590.761 207.734,600.355 C207.734,608.355 211.937,615.261 220.031,615.261 C226.328,615.261 230.64,610.855 230.64,604.668 C230.64,598.261 225.937,594.261 221.031,594.261 C218.328,594.261 217.328,594.965 216.031,594.965 C214.734,594.965 214.437,594.168 214.437,593.168 C214.437,589.168 220.437,581.855 230.64,581.855 C241.234,581.855 245.843,592.261 245.843,607.965 C245.843,618.261 243.64,630.261 237.437,639.871 C231.437,649.168 221.14,657.668 208.734,664.761 C207.828,665.261 207.234,665.761 207.234,666.558 C207.234,667.168 207.64,667.761 208.531,667.761 C209.031,667.761 209.64,667.558 210.234,667.261 C223.531,660.761 236.343,653.168 246.937,641.761 C255.64,632.371 260.843,620.168 260.843,607.058 C260.843,589.668 250.234,578.058 232.937,578.058 M270.734,611.355 C267.64,611.355 265.343,613.668 265.343,616.761 C265.343,619.855 267.64,622.168 270.734,622.168 C273.843,622.168 276.14,619.855 276.14,616.761 C276.14,613.668 273.843,611.355 270.734,611.355 M270.64,586.261 C267.531,586.261 265.14,588.668 265.14,591.761 C265.14,594.855 267.531,597.261 270.64,597.261 C273.734,597.261 276.14,594.855 276.14,591.761 C276.14,588.668 273.734,586.261 270.64,586.261"/>
<path class="Clef" d="M254.734,297.436 C258.031,297.436 260.734,300.139 260.734,305.639 C260.734,312.545 257.437,318.951 249.64,326.748 C248.031,328.342 245.64,330.639 243.343,332.639 C242.64,333.248 242.234,333.139 242.031,331.842 C241.64,329.248 241.437,325.842 241.437,322.639 C241.437,307.045 248.64,297.436 254.734,297.436 M250.734,381.451 C250.531,380.248 250.64,379.951 251.843,380.045 C259.937,380.748 266.64,387.545 266.64,396.342 C266.64,402.654 262.843,407.748 257.234,410.545 C256.031,411.154 255.843,411.154 255.64,409.951 L250.734,381.451 M243.843,365.545 C244.14,367.451 244.14,367.342 242.343,367.951 C233.531,370.951 227.828,378.842 227.828,387.342 C227.828,396.342 232.531,402.748 239.343,405.045 C240.14,405.342 241.343,405.654 242.031,405.654 C242.843,405.654 243.234,405.154 243.234,404.545 C243.234,403.842 242.437,403.545 241.734,403.248 C237.531,401.451 234.531,397.154 234.531,392.545 C234.531,386.842 238.437,382.545 244.531,380.842 C246.14,380.451 246.343,380.545 246.531,381.654 L251.531,411.451 C251.734,412.545 251.64,412.545 250.14,412.842 C248.531,413.154 246.531,413.342 244.531,413.342 C227.031,413.342 215.734,403.654 215.734,389.748 C215.734,383.842 216.734,375.951 225.031,366.545 C231.031,359.842 235.64,356.139 240.343,352.342 C241.343,351.545 241.531,351.639 241.734,352.748 L243.843,365.545 M245.343,350.248 C245.14,349.045 245.343,348.951 245.937,348.342 C247.531,346.842 249.64,344.748 251.531,342.639 C259.937,333.451 264.937,321.545 264.937,310.248 C264.937,301.545 262.531,292.936 258.437,286.936 C256.937,284.748 254.343,281.936 253.234,281.936 C251.843,281.936 248.734,284.545 246.734,286.748 C239.343,294.936 236.937,307.436 236.937,317.842 C236.937,323.639 237.64,330.139 238.343,334.248 C238.531,335.451 238.64,335.639 237.437,336.639 C231.031,341.951 224.14,348.045 218.937,354.451 C212.031,363.045 207.734,372.342 207.734,383.045 C207.734,400.451 219.64,416.951 244.14,416.951 C246.437,416.951 249.031,416.748 251.031,416.342 C252.14,416.154 252.343,416.045 252.531,417.248 C253.734,423.951 255.234,432.654 255.234,437.357 C255.234,452.154 245.234,453.951 239.343,453.951 C233.937,453.951 231.328,452.357 231.328,451.045 C231.328,450.357 232.234,450.045 234.531,449.357 C237.64,448.451 241.234,445.748 241.234,439.951 C241.234,434.451 237.734,429.748 231.64,429.748 C224.937,429.748 220.937,435.045 220.937,441.248 C220.937,447.748 224.828,457.545 239.937,457.545 C246.64,457.545 259.64,454.545 259.64,437.545 C259.64,431.857 257.843,422.357 256.734,416.154 C256.531,414.951 256.64,415.045 258.031,414.451 C268.14,410.451 274.843,401.951 274.843,390.654 C274.843,377.842 265.437,366.545 250.734,366.545 C248.14,366.545 248.14,366.545 247.843,364.748 L245.343,350.248 "/>
<path class="Bracket" transform="matrix(3.62523,0,0,3.62523,144.23,679.266)" d="M2,-49.7969 C4.90625,-51.6094 8.20313,-58.7031 8.20313,-64.6094 C8.20313,-65.1094 8.20313,-65.7031 8.09375,-66.2031 C7.40625,-72.2031 4.40625,-81.5 4.40625,-86.9063 C4.40625,-92.1094 6.70313,-97.1094 7.20313,-98 C7.59375,-98.4063 7.70313,-98.7031 7.70313,-99 C7.70313,-99.2031 7.59375,-99.4063 7.5,-99.4063 C7.40625,-99.5 7.29688,-99.7031 7.09375,-99.7031 C6.90625,-99.7031 6.70313,-99.5 6.29688,-99 C4.09375,-96.3125 1.40625,-90.5 1.40625,-80.5 C1.40625,-70.6094 4.90625,-66.6094 4.90625,-60.2969 C4.90625,-55.6094 3,-53 0.203125,-49.7969 C2,-47.7969 4.90625,-46.2031 4.90625,-39.7031 C4.90625,-32.7031 1.40625,-26.5 1.40625,-19.2031 C1.40625,-9.20313 4.09375,-3.40625 6.29688,-0.59375 C6.70313,-0.09375 6.90625,0 7.09375,0 C7.29688,0 7.40625,-0.09375 7.5,-0.203125 C7.59375,-0.296875 7.70313,-0.40625 7.70313,-0.59375 C7.70313,-0.90625 7.59375,-1.20313 7.20313,-1.70313 C6.70313,-2.5 4.40625,-7.5 4.40625,-12.7969 C4.40625,-18.0938 7.40625,-27.5 8.09375,-33.4063 C8.20313,-33.9063 8.20313,-34.4063 8.20313,-35 C8.20313,-40.9063 4.90625,-48 2,-49.7969"/>
</svg>
