<?xml version="1.0" encoding="UTF-8" standalone="no"?>
<svg width="2977.23px" height="4208.47px" viewBox="0 0 2977.23 4208.47"
 xmlns="http://www.w3.org/2000/svg" xmlns:xlink="http://www.w3.org/1999/xlink" version="1.2" baseProfile="tiny">
<title>Zwerg-Struktur (9)</title>
<desc>Generated by MuseScore 3.4.2</desc>
<polyline class="StaffLines" fill="none" stroke="#000000" stroke-width="3.25" stroke-linejoin="bevel" points="183.232,316.743 593.046,316.743"/>
<polyline class="StaffLines" fill="none" stroke="#000000" stroke-width="3.25" stroke-linejoin="bevel" points="183.232,341.745 593.046,341.745"/>
<polyline class="StaffLines" fill="none" stroke="#000000" stroke-width="3.25" stroke-linejoin="bevel" points="183.232,366.746 593.046,366.746"/>
<polyline class="StaffLines" fill="none" stroke="#000000" stroke-width="3.25" stroke-linejoin="bevel" points="183.232,391.748 593.046,391.748"/>
<polyline class="StaffLines" fill="none" stroke="#000000" stroke-width="3.25" stroke-linejoin="bevel" points="183.232,416.75 593.046,416.75"/>
<polyline class="StaffLines" fill="none" stroke="#000000" stroke-width="3.25" stroke-linejoin="bevel" points="593.046,316.743 948.913,316.743"/>
<polyline class="StaffLines" fill="none" stroke="#000000" stroke-width="3.25" stroke-linejoin="bevel" points="593.046,341.745 948.913,341.745"/>
<polyline class="StaffLines" fill="none" stroke="#000000" stroke-width="3.25" stroke-linejoin="bevel" points="593.046,366.746 948.913,366.746"/>
<polyline class="StaffLines" fill="none" stroke="#000000" stroke-width="3.25" stroke-linejoin="bevel" points="593.046,391.748 948.913,391.748"/>
<polyline class="StaffLines" fill="none" stroke="#000000" stroke-width="3.25" stroke-linejoin="bevel" points="593.046,416.75 948.913,416.75"/>
<polyline class="StaffLines" fill="none" stroke="#000000" stroke-width="3.25" stroke-linejoin="bevel" points="948.913,316.743 1218.83,316.743"/>
<polyline class="StaffLines" fill="none" stroke="#000000" stroke-width="3.25" stroke-linejoin="bevel" points="948.913,341.745 1218.83,341.745"/>
<polyline class="StaffLines" fill="none" stroke="#000000" stroke-width="3.25" stroke-linejoin="bevel" points="948.913,366.746 1218.83,366.746"/>
<polyline class="StaffLines" fill="none" stroke="#000000" stroke-width="3.25" stroke-linejoin="bevel" points="948.913,391.748 1218.83,391.748"/>
<polyline class="StaffLines" fill="none" stroke="#000000" stroke-width="3.25" stroke-linejoin="bevel" points="948.913,416.75 1218.83,416.75"/>
<polyline class="StaffLines" fill="none" stroke="#000000" stroke-width="3.25" stroke-linejoin="bevel" points="1218.83,316.743 1594.18,316.743"/>
<polyline class="StaffLines" fill="none" stroke="#000000" stroke-width="3.25" stroke-linejoin="bevel" points="1218.83,341.745 1594.18,341.745"/>
<polyline class="StaffLines" fill="none" stroke="#000000" stroke-width="3.25" stroke-linejoin="bevel" points="1218.83,366.746 1594.18,366.746"/>
<polyline class="StaffLines" fill="none" stroke="#000000" stroke-width="3.25" stroke-linejoin="bevel" points="1218.83,391.748 1594.18,391.748"/>
<polyline class="StaffLines" fill="none" stroke="#000000" stroke-width="3.25" stroke-linejoin="bevel" points="1218.83,416.75 1594.18,416.75"/>
<polyline class="StaffLines" fill="none" stroke="#000000" stroke-width="3.25" stroke-linejoin="bevel" points="1594.18,316.743 1934.75,316.743"/>
<polyline class="StaffLines" fill="none" stroke="#000000" stroke-width="3.25" stroke-linejoin="bevel" points="1594.18,341.745 1934.75,341.745"/>
<polyline class="StaffLines" fill="none" stroke="#000000" stroke-width="3.25" stroke-linejoin="bevel" points="1594.18,366.746 1934.75,366.746"/>
<polyline class="StaffLines" fill="none" stroke="#000000" stroke-width="3.25" stroke-linejoin="bevel" points="1594.18,391.748 1934.75,391.748"/>
<polyline class="StaffLines" fill="none" stroke="#000000" stroke-width="3.25" stroke-linejoin="bevel" points="1594.18,416.75 1934.75,416.75"/>
<polyline class="StaffLines" fill="none" stroke="#000000" stroke-width="3.25" stroke-linejoin="bevel" points="1934.75,316.743 2204.66,316.743"/>
<polyline class="StaffLines" fill="none" stroke="#000000" stroke-width="3.25" stroke-linejoin="bevel" points="1934.75,341.745 2204.66,341.745"/>
<polyline class="StaffLines" fill="none" stroke="#000000" stroke-width="3.25" stroke-linejoin="bevel" points="1934.75,366.746 2204.66,366.746"/>
<polyline class="StaffLines" fill="none" stroke="#000000" stroke-width="3.25" stroke-linejoin="bevel" points="1934.75,391.748 2204.66,391.748"/>
<polyline class="StaffLines" fill="none" stroke="#000000" stroke-width="3.25" stroke-linejoin="bevel" points="1934.75,416.75 2204.66,416.75"/>
<polyline class="StaffLines" fill="none" stroke="#000000" stroke-width="3.25" stroke-linejoin="bevel" points="183.232,579.26 593.046,579.26"/>
<polyline class="StaffLines" fill="none" stroke="#000000" stroke-width="3.25" stroke-linejoin="bevel" points="183.232,604.261 593.046,604.261"/>
<polyline class="StaffLines" fill="none" stroke="#000000" stroke-width="3.25" stroke-linejoin="bevel" points="183.232,629.263 593.046,629.263"/>
<polyline class="StaffLines" fill="none" stroke="#000000" stroke-width="3.25" stroke-linejoin="bevel" points="183.232,654.265 593.046,654.265"/>
<polyline class="StaffLines" fill="none" stroke="#000000" stroke-width="3.25" stroke-linejoin="bevel" points="183.232,679.266 593.046,679.266"/>
<polyline class="StaffLines" fill="none" stroke="#000000" stroke-width="3.25" stroke-linejoin="bevel" points="593.046,579.26 948.913,579.26"/>
<polyline class="StaffLines" fill="none" stroke="#000000" stroke-width="3.25" stroke-linejoin="bevel" points="593.046,604.261 948.913,604.261"/>
<polyline class="StaffLines" fill="none" stroke="#000000" stroke-width="3.25" stroke-linejoin="bevel" points="593.046,629.263 948.913,629.263"/>
<polyline class="StaffLines" fill="none" stroke="#000000" stroke-width="3.25" stroke-linejoin="bevel" points="593.046,654.265 948.913,654.265"/>
<polyline class="StaffLines" fill="none" stroke="#000000" stroke-width="3.25" stroke-linejoin="bevel" points="593.046,679.266 948.913,679.266"/>
<polyline class="StaffLines" fill="none" stroke="#000000" stroke-width="3.25" stroke-linejoin="bevel" points="948.913,579.26 1218.83,579.26"/>
<polyline class="StaffLines" fill="none" stroke="#000000" stroke-width="3.25" stroke-linejoin="bevel" points="948.913,604.261 1218.83,604.261"/>
<polyline class="StaffLines" fill="none" stroke="#000000" stroke-width="3.25" stroke-linejoin="bevel" points="948.913,629.263 1218.83,629.263"/>
<polyline class="StaffLines" fill="none" stroke="#000000" stroke-width="3.25" stroke-linejoin="bevel" points="948.913,654.265 1218.83,654.265"/>
<polyline class="StaffLines" fill="none" stroke="#000000" stroke-width="3.25" stroke-linejoin="bevel" points="948.913,679.266 1218.83,679.266"/>
<polyline class="StaffLines" fill="none" stroke="#000000" stroke-width="3.25" stroke-linejoin="bevel" points="1218.83,579.26 1594.18,579.26"/>
<polyline class="StaffLines" fill="none" stroke="#000000" stroke-width="3.25" stroke-linejoin="bevel" points="1218.83,604.261 1594.18,604.261"/>
<polyline class="StaffLines" fill="none" stroke="#000000" stroke-width="3.25" stroke-linejoin="bevel" points="1218.83,629.263 1594.18,629.263"/>
<polyline class="StaffLines" fill="none" stroke="#000000" stroke-width="3.25" stroke-linejoin="bevel" points="1218.83,654.265 1594.18,654.265"/>
<polyline class="StaffLines" fill="none" stroke="#000000" stroke-width="3.25" stroke-linejoin="bevel" points="1218.83,679.266 1594.18,679.266"/>
<polyline class="StaffLines" fill="none" stroke="#000000" stroke-width="3.25" stroke-linejoin="bevel" points="1594.18,579.26 1934.75,579.26"/>
<polyline class="StaffLines" fill="none" stroke="#000000" stroke-width="3.25" stroke-linejoin="bevel" points="1594.18,604.261 1934.75,604.261"/>
<polyline class="StaffLines" fill="none" stroke="#000000" stroke-width="3.25" stroke-linejoin="bevel" points="1594.18,629.263 1934.75,629.263"/>
<polyline class="StaffLines" fill="none" stroke="#000000" stroke-width="3.25" stroke-linejoin="bevel" points="1594.18,654.265 1934.75,654.265"/>
<polyline class="StaffLines" fill="none" stroke="#000000" stroke-width="3.25" stroke-linejoin="bevel" points="1594.18,679.266 1934.75,679.266"/>
<polyline class="StaffLines" fill="none" stroke="#000000" stroke-width="3.25" stroke-linejoin="bevel" points="1934.75,579.26 2204.66,579.26"/>
<polyline class="StaffLines" fill="none" stroke="#000000" stroke-width="3.25" stroke-linejoin="bevel" points="1934.75,604.261 2204.66,604.261"/>
<polyline class="StaffLines" fill="none" stroke="#000000" stroke-width="3.25" stroke-linejoin="bevel" points="1934.75,629.263 2204.66,629.263"/>
<polyline class="StaffLines" fill="none" stroke="#000000" stroke-width="3.25" stroke-linejoin="bevel" points="1934.75,654.265 2204.66,654.265"/>
<polyline class="StaffLines" fill="none" stroke="#000000" stroke-width="3.25" stroke-linejoin="bevel" points="1934.75,679.266 2204.66,679.266"/>
<polyline class="BarLine" fill="none" stroke="#000000" stroke-width="4.00" stroke-linejoin="bevel" points="185.233,577.635 185.233,680.891"/>
<polyline class="BarLine" fill="none" stroke="#000000" stroke-width="4.00" stroke-linejoin="bevel" points="591.045,577.635 591.045,680.891"/>
<polyline class="BarLine" fill="none" stroke="#000000" stroke-width="4.00" stroke-linejoin="bevel" points="946.913,577.635 946.913,680.891"/>
<polyline class="BarLine" fill="none" stroke="#000000" stroke-width="4.00" stroke-linejoin="bevel" points="1216.83,577.635 1216.83,680.891"/>
<polyline class="BarLine" fill="none" stroke="#000000" stroke-width="4.00" stroke-linejoin="bevel" points="1592.18,577.635 1592.18,680.891"/>
<polyline class="BarLine" fill="none" stroke="#000000" stroke-width="4.00" stroke-linejoin="bevel" points="1932.75,577.635 1932.75,680.891"/>
<polyline class="BarLine" fill="none" stroke="#000000" stroke-width="4.00" stroke-linejoin="bevel" points="2202.66,577.635 2202.66,680.891"/>
<polyline class="BarLine" fill="none" stroke="#000000" stroke-width="4.00" stroke-linejoin="bevel" points="185.233,315.118 185.233,579.26"/>
<polyline class="BarLine" fill="none" stroke="#000000" stroke-width="4.00" stroke-linejoin="bevel" points="591.045,315.118 591.045,579.26"/>
<polyline class="BarLine" fill="none" stroke="#000000" stroke-width="4.00" stroke-linejoin="bevel" points="946.913,315.118 946.913,579.26"/>
<polyline class="BarLine" fill="none" stroke="#000000" stroke-width="4.00" stroke-linejoin="bevel" points="1216.83,315.118 1216.83,579.26"/>
<polyline class="BarLine" fill="none" stroke="#000000" stroke-width="4.00" stroke-linejoin="bevel" points="1592.18,315.118 1592.18,579.26"/>
<polyline class="BarLine" fill="none" stroke="#000000" stroke-width="4.00" stroke-linejoin="bevel" points="1932.75,315.118 1932.75,579.26"/>
<polyline class="BarLine" fill="none" stroke="#000000" stroke-width="4.00" stroke-linejoin="bevel" points="2202.66,315.118 2202.66,579.26"/>
<path class="Accidental" d="M343.344,624.856 C343.344,624.856 343.047,618.856 343.047,614.856 C343.047,613.262 343.141,612.059 343.234,611.668 C343.641,610.465 346.234,608.262 347.641,607.465 C348.547,606.965 349.438,606.762 350.234,606.762 C351.234,606.762 352.141,607.168 352.734,607.856 C353.734,608.965 354.344,610.668 354.344,612.559 C354.344,614.356 353.844,616.465 352.641,618.559 C351.344,620.965 348.438,624.168 345.438,626.059 C345.047,626.262 344.734,626.356 344.438,626.356 C343.547,626.356 343.344,625.356 343.344,624.856 M339.844,633.762 C340.141,634.168 340.438,634.262 340.734,634.262 C341.047,634.262 341.344,634.059 341.344,634.059 C344.344,632.356 346.734,629.668 349.234,627.965 C358.141,621.762 361.234,615.668 361.234,611.059 C361.234,605.356 356.844,601.762 352.234,601.465 C351.547,601.465 350.844,601.559 350.141,601.762 C349.047,602.059 347.844,602.465 346.734,603.168 C346.141,603.668 345.047,604.559 344.547,604.559 C344.344,604.559 344.234,604.559 344.047,604.465 C343.344,604.168 342.938,603.465 342.938,602.762 C343.047,600.559 343.641,576.559 343.641,574.559 C343.641,573.465 342.734,572.856 341.734,572.856 C340.344,572.856 338.734,573.856 338.641,575.653 C338.641,575.653 339.047,632.762 339.844,633.762"/>
<path class="Accidental" d="M610.046,650.358 C610.046,648.968 616.14,646.358 618.546,646.358 C619.14,646.358 619.437,646.468 619.437,646.858 L619.437,657.171 C619.437,658.968 613.75,661.265 611.25,661.265 C610.546,661.265 610.046,661.061 610.046,660.671 L610.046,650.358 M620.437,636.171 C620.25,636.171 620.14,636.265 620.046,636.265 C620.046,636.265 613.64,638.561 611.046,638.561 C610.437,638.561 610.046,638.468 610.046,638.061 L610.046,621.358 C610.046,620.655 609.437,620.155 608.843,620.155 L607.546,620.155 C606.843,620.155 606.343,620.655 606.343,621.358 L606.343,672.858 C606.343,673.468 606.64,673.765 607.14,673.765 C607.25,673.765 607.437,673.671 607.546,673.671 C607.546,673.671 607.75,673.671 607.843,673.561 C609.25,672.968 614.843,670.561 617.75,670.561 C618.75,670.561 619.437,670.858 619.437,671.671 L619.437,686.561 C619.437,687.265 619.937,687.765 620.64,687.765 L621.937,687.765 C622.546,687.765 623.14,687.265 623.14,686.561 L623.14,636.358 C623.14,635.858 622.75,635.561 622.343,635.561 C622.25,635.561 622.046,635.561 621.937,635.671 L620.437,636.171 "/>
<path class="Accidental" d="M1248.62,696.267 C1248.03,698.267 1243.33,700.267 1241.03,700.267 C1240.42,700.267 1239.92,700.064 1239.83,699.767 C1239.62,699.361 1239.53,697.173 1239.53,694.767 C1239.53,691.673 1239.62,688.173 1239.83,687.361 C1240.03,685.673 1244.62,683.564 1247.12,683.564 C1247.83,683.564 1248.42,683.767 1248.62,684.173 C1248.83,684.673 1249.03,687.173 1249.03,689.861 C1249.03,692.564 1248.83,695.361 1248.62,696.267 M1255.53,679.97 C1256.23,679.673 1256.73,678.861 1256.73,678.267 L1256.73,671.173 C1256.73,670.673 1256.42,670.361 1256.03,670.361 C1255.83,670.361 1255.73,670.361 1255.53,670.47 C1255.53,670.47 1253.53,671.267 1253.03,671.361 C1252.33,671.361 1251.62,670.861 1251.62,670.064 L1251.62,657.861 C1251.62,657.267 1251.03,656.767 1250.23,656.767 C1249.23,656.767 1248.62,657.267 1248.62,657.861 L1248.62,670.861 C1248.53,671.861 1248.23,673.173 1247.33,673.767 C1246.12,674.47 1242.73,675.861 1241.03,676.267 C1240.12,676.267 1239.83,675.064 1239.83,674.267 L1239.83,662.267 C1239.83,661.658 1239.12,661.158 1238.42,661.158 C1237.42,661.158 1236.83,661.658 1236.83,662.267 L1236.83,675.767 C1236.83,677.173 1236.23,678.173 1235.62,678.47 C1235.03,678.767 1233.03,679.564 1233.03,679.564 C1232.33,679.767 1231.83,680.564 1231.83,681.173 L1231.83,688.267 C1231.83,688.861 1232.12,689.173 1232.62,689.173 C1232.73,689.173 1232.92,689.064 1233.03,689.064 C1233.03,689.064 1234.53,688.47 1235.23,688.064 C1235.33,688.064 1235.42,687.97 1235.53,687.97 C1236.23,687.97 1236.83,688.97 1236.83,689.767 L1236.83,699.673 C1236.83,700.767 1236.33,701.673 1235.73,701.97 C1235.12,702.173 1233.03,703.064 1233.03,703.064 C1232.33,703.267 1231.83,704.064 1231.83,704.673 L1231.83,711.767 C1231.83,712.361 1232.12,712.673 1232.62,712.673 C1232.73,712.673 1232.92,712.564 1233.03,712.564 C1233.03,712.564 1234.42,711.97 1235.33,711.673 C1235.42,711.564 1235.53,711.564 1235.62,711.564 C1236.33,711.564 1236.83,712.673 1236.83,713.173 L1236.83,725.47 C1236.83,726.064 1237.42,726.564 1238.12,726.564 C1239.12,726.564 1239.83,726.064 1239.83,725.47 L1239.83,711.564 C1239.83,710.267 1240.33,709.564 1240.83,709.361 L1246.92,706.861 C1247.03,706.861 1247.23,706.767 1247.33,706.767 C1248.12,706.767 1248.62,707.97 1248.62,708.564 L1248.62,721.064 C1248.62,721.673 1249.23,722.173 1249.92,722.173 C1251.03,722.173 1251.62,721.673 1251.62,721.064 L1251.62,706.861 C1251.62,706.064 1252.03,704.861 1252.73,704.564 C1253.42,704.267 1255.53,703.47 1255.53,703.47 C1256.23,703.173 1256.73,702.361 1256.73,701.767 L1256.73,694.673 C1256.73,694.173 1256.42,693.861 1256.03,693.861 C1255.83,693.861 1255.73,693.861 1255.53,693.97 L1252.92,694.97 C1252.33,694.97 1251.62,694.361 1251.62,693.173 L1251.62,683.861 C1251.62,683.173 1252.12,681.267 1252.92,680.97 L1255.53,679.97 "/>
<path class="Accidental" d="M1407.61,687.861 C1407.61,686.47 1413.7,683.861 1416.11,683.861 C1416.7,683.861 1417,683.97 1417,684.361 L1417,694.673 C1417,696.47 1411.31,698.767 1408.81,698.767 C1408.11,698.767 1407.61,698.564 1407.61,698.173 L1407.61,687.861 M1418,673.673 C1417.81,673.673 1417.7,673.767 1417.61,673.767 C1417.61,673.767 1411.2,676.064 1408.61,676.064 C1408,676.064 1407.61,675.97 1407.61,675.564 L1407.61,658.861 C1407.61,658.158 1407,657.658 1406.4,657.658 L1405.11,657.658 C1404.4,657.658 1403.9,658.158 1403.9,658.861 L1403.9,710.361 C1403.9,710.97 1404.2,711.267 1404.7,711.267 C1404.81,711.267 1405,711.173 1405.11,711.173 C1405.11,711.173 1405.31,711.173 1405.4,711.064 C1406.81,710.47 1412.4,708.064 1415.31,708.064 C1416.31,708.064 1417,708.361 1417,709.173 L1417,724.064 C1417,724.767 1417.5,725.267 1418.2,725.267 L1419.5,725.267 C1420.11,725.267 1420.7,724.767 1420.7,724.064 L1420.7,673.861 C1420.7,673.361 1420.31,673.064 1419.9,673.064 C1419.81,673.064 1419.61,673.064 1419.5,673.173 L1418,673.673 "/>
<path class="Accidental" d="M343.344,424.843 C343.344,424.843 343.047,418.843 343.047,414.843 C343.047,413.25 343.141,412.046 343.234,411.656 C343.641,410.453 346.234,408.25 347.641,407.453 C348.547,406.953 349.438,406.75 350.234,406.75 C351.234,406.75 352.141,407.156 352.734,407.843 C353.734,408.953 354.344,410.656 354.344,412.546 C354.344,414.343 353.844,416.453 352.641,418.546 C351.344,420.953 348.438,424.156 345.438,426.046 C345.047,426.25 344.734,426.343 344.438,426.343 C343.547,426.343 343.344,425.343 343.344,424.843 M339.844,433.75 C340.141,434.156 340.438,434.25 340.734,434.25 C341.047,434.25 341.344,434.046 341.344,434.046 C344.344,432.343 346.734,429.656 349.234,427.953 C358.141,421.75 361.234,415.656 361.234,411.046 C361.234,405.343 356.844,401.75 352.234,401.453 C351.547,401.453 350.844,401.546 350.141,401.75 C349.047,402.046 347.844,402.453 346.734,403.156 C346.141,403.656 345.047,404.546 344.547,404.546 C344.344,404.546 344.234,404.546 344.047,404.453 C343.344,404.156 342.938,403.453 342.938,402.75 C343.047,400.546 343.641,376.546 343.641,374.546 C343.641,373.453 342.734,372.843 341.734,372.843 C340.344,372.843 338.734,373.843 338.641,375.64 C338.641,375.64 339.047,432.75 339.844,433.75"/>
<path class="Accidental" d="M605.249,424.843 C605.249,424.843 604.952,418.843 604.952,414.843 C604.952,413.25 605.046,412.046 605.14,411.656 C605.546,410.453 608.14,408.25 609.546,407.453 C610.452,406.953 611.343,406.75 612.14,406.75 C613.14,406.75 614.046,407.156 614.64,407.843 C615.64,408.953 616.249,410.656 616.249,412.546 C616.249,414.343 615.749,416.453 614.546,418.546 C613.249,420.953 610.343,424.156 607.343,426.046 C606.952,426.25 606.64,426.343 606.343,426.343 C605.452,426.343 605.249,425.343 605.249,424.843 M601.749,433.75 C602.046,434.156 602.343,434.25 602.64,434.25 C602.952,434.25 603.249,434.046 603.249,434.046 C606.249,432.343 608.64,429.656 611.14,427.953 C620.046,421.75 623.14,415.656 623.14,411.046 C623.14,405.343 618.749,401.75 614.14,401.453 C613.452,401.453 612.749,401.546 612.046,401.75 C610.952,402.046 609.749,402.453 608.64,403.156 C608.046,403.656 606.952,404.546 606.452,404.546 C606.249,404.546 606.14,404.546 605.952,404.453 C605.249,404.156 604.843,403.453 604.843,402.75 C604.952,400.546 605.546,376.546 605.546,374.546 C605.546,373.453 604.64,372.843 603.64,372.843 C602.249,372.843 600.64,373.843 600.546,375.64 C600.546,375.64 600.952,432.75 601.749,433.75"/>
<path class="Accidental" d="M961.117,424.843 C961.117,424.843 960.82,418.843 960.82,414.843 C960.82,413.25 960.914,412.046 961.007,411.656 C961.414,410.453 964.007,408.25 965.414,407.453 C966.32,406.953 967.21,406.75 968.007,406.75 C969.007,406.75 969.914,407.156 970.507,407.843 C971.507,408.953 972.117,410.656 972.117,412.546 C972.117,414.343 971.617,416.453 970.414,418.546 C969.117,420.953 966.21,424.156 963.21,426.046 C962.82,426.25 962.507,426.343 962.21,426.343 C961.32,426.343 961.117,425.343 961.117,424.843 M957.617,433.75 C957.914,434.156 958.21,434.25 958.507,434.25 C958.82,434.25 959.117,434.046 959.117,434.046 C962.117,432.343 964.507,429.656 967.007,427.953 C975.914,421.75 979.007,415.656 979.007,411.046 C979.007,405.343 974.617,401.75 970.007,401.453 C969.32,401.453 968.617,401.546 967.914,401.75 C966.82,402.046 965.617,402.453 964.507,403.156 C963.914,403.656 962.82,404.546 962.32,404.546 C962.117,404.546 962.007,404.546 961.82,404.453 C961.117,404.156 960.71,403.453 960.71,402.75 C960.82,400.546 961.414,376.546 961.414,374.546 C961.414,373.453 960.507,372.843 959.507,372.843 C958.117,372.843 956.507,373.843 956.414,375.64 C956.414,375.64 956.82,432.75 957.617,433.75"/>
<path class="Accidental" d="M1238.84,424.843 C1238.84,424.843 1238.54,418.843 1238.54,414.843 C1238.54,413.25 1238.63,412.046 1238.73,411.656 C1239.13,410.453 1241.73,408.25 1243.13,407.453 C1244.04,406.953 1244.93,406.75 1245.73,406.75 C1246.73,406.75 1247.63,407.156 1248.23,407.843 C1249.23,408.953 1249.84,410.656 1249.84,412.546 C1249.84,414.343 1249.34,416.453 1248.13,418.546 C1246.84,420.953 1243.93,424.156 1240.93,426.046 C1240.54,426.25 1240.23,426.343 1239.93,426.343 C1239.04,426.343 1238.84,425.343 1238.84,424.843 M1235.34,433.75 C1235.63,434.156 1235.93,434.25 1236.23,434.25 C1236.54,434.25 1236.84,434.046 1236.84,434.046 C1239.84,432.343 1242.23,429.656 1244.73,427.953 C1253.63,421.75 1256.73,415.656 1256.73,411.046 C1256.73,405.343 1252.34,401.75 1247.73,401.453 C1247.04,401.453 1246.34,401.546 1245.63,401.75 C1244.54,402.046 1243.34,402.453 1242.23,403.156 C1241.63,403.656 1240.54,404.546 1240.04,404.546 C1239.84,404.546 1239.73,404.546 1239.54,404.453 C1238.84,404.156 1238.43,403.453 1238.43,402.75 C1238.54,400.546 1239.13,376.546 1239.13,374.546 C1239.13,373.453 1238.23,372.843 1237.23,372.843 C1235.84,372.843 1234.23,373.843 1234.13,375.64 C1234.13,375.64 1234.54,432.75 1235.34,433.75"/>
<path class="Accidental" d="M1412.6,433.75 C1412.01,435.75 1407.3,437.75 1405.01,437.75 C1404.4,437.75 1403.9,437.547 1403.8,437.25 C1403.6,436.844 1403.51,434.657 1403.51,432.25 C1403.51,429.157 1403.6,425.657 1403.8,424.844 C1404.01,423.157 1408.6,421.047 1411.1,421.047 C1411.8,421.047 1412.4,421.25 1412.6,421.657 C1412.8,422.157 1413.01,424.657 1413.01,427.344 C1413.01,430.047 1412.8,432.844 1412.6,433.75 M1419.51,417.454 C1420.21,417.157 1420.71,416.344 1420.71,415.75 L1420.71,408.657 C1420.71,408.157 1420.4,407.844 1420.01,407.844 C1419.8,407.844 1419.71,407.844 1419.51,407.954 C1419.51,407.954 1417.51,408.75 1417.01,408.844 C1416.3,408.844 1415.6,408.344 1415.6,407.547 L1415.6,395.344 C1415.6,394.75 1415.01,394.25 1414.21,394.25 C1413.21,394.25 1412.6,394.75 1412.6,395.344 L1412.6,408.344 C1412.51,409.344 1412.21,410.657 1411.3,411.25 C1410.1,411.954 1406.71,413.344 1405.01,413.75 C1404.1,413.75 1403.8,412.547 1403.8,411.75 L1403.8,399.75 C1403.8,399.141 1403.1,398.641 1402.4,398.641 C1401.4,398.641 1400.8,399.141 1400.8,399.75 L1400.8,413.25 C1400.8,414.657 1400.21,415.657 1399.6,415.954 C1399.01,416.25 1397.01,417.047 1397.01,417.047 C1396.3,417.25 1395.8,418.047 1395.8,418.657 L1395.8,425.75 C1395.8,426.344 1396.1,426.657 1396.6,426.657 C1396.71,426.657 1396.9,426.547 1397.01,426.547 C1397.01,426.547 1398.51,425.954 1399.21,425.547 C1399.3,425.547 1399.4,425.454 1399.51,425.454 C1400.21,425.454 1400.8,426.454 1400.8,427.25 L1400.8,437.157 C1400.8,438.25 1400.3,439.157 1399.71,439.454 C1399.1,439.657 1397.01,440.547 1397.01,440.547 C1396.3,440.75 1395.8,441.547 1395.8,442.157 L1395.8,449.25 C1395.8,449.844 1396.1,450.157 1396.6,450.157 C1396.71,450.157 1396.9,450.047 1397.01,450.047 C1397.01,450.047 1398.4,449.454 1399.3,449.157 C1399.4,449.047 1399.51,449.047 1399.6,449.047 C1400.3,449.047 1400.8,450.157 1400.8,450.657 L1400.8,462.954 C1400.8,463.547 1401.4,464.047 1402.1,464.047 C1403.1,464.047 1403.8,463.547 1403.8,462.954 L1403.8,449.047 C1403.8,447.75 1404.3,447.047 1404.8,446.844 L1410.9,444.344 C1411.01,444.344 1411.21,444.25 1411.3,444.25 C1412.1,444.25 1412.6,445.454 1412.6,446.047 L1412.6,458.547 C1412.6,459.157 1413.21,459.657 1413.9,459.657 C1415.01,459.657 1415.6,459.157 1415.6,458.547 L1415.6,444.344 C1415.6,443.547 1416.01,442.344 1416.71,442.047 C1417.4,441.75 1419.51,440.954 1419.51,440.954 C1420.21,440.657 1420.71,439.844 1420.71,439.25 L1420.71,432.157 C1420.71,431.657 1420.4,431.344 1420.01,431.344 C1419.8,431.344 1419.71,431.344 1419.51,431.454 L1416.9,432.454 C1416.3,432.454 1415.6,431.844 1415.6,430.657 L1415.6,421.344 C1415.6,420.657 1416.1,418.75 1416.9,418.454 L1419.51,417.454 "/>
<path class="Accidental" d="M1763.11,483.754 C1762.52,485.754 1757.82,487.754 1755.52,487.754 C1754.91,487.754 1754.41,487.55 1754.32,487.254 C1754.11,486.847 1754.02,484.66 1754.02,482.254 C1754.02,479.16 1754.11,475.66 1754.32,474.847 C1754.52,473.16 1759.11,471.05 1761.61,471.05 C1762.32,471.05 1762.91,471.254 1763.11,471.66 C1763.32,472.16 1763.52,474.66 1763.52,477.347 C1763.52,480.05 1763.32,482.847 1763.11,483.754 M1770.02,467.457 C1770.72,467.16 1771.22,466.347 1771.22,465.754 L1771.22,458.66 C1771.22,458.16 1770.91,457.847 1770.52,457.847 C1770.32,457.847 1770.22,457.847 1770.02,457.957 C1770.02,457.957 1768.02,458.754 1767.52,458.847 C1766.82,458.847 1766.11,458.347 1766.11,457.55 L1766.11,445.347 C1766.11,444.754 1765.52,444.254 1764.72,444.254 C1763.72,444.254 1763.11,444.754 1763.11,445.347 L1763.11,458.347 C1763.02,459.347 1762.72,460.66 1761.82,461.254 C1760.61,461.957 1757.22,463.347 1755.52,463.754 C1754.61,463.754 1754.32,462.55 1754.32,461.754 L1754.32,449.754 C1754.32,449.144 1753.61,448.644 1752.91,448.644 C1751.91,448.644 1751.32,449.144 1751.32,449.754 L1751.32,463.254 C1751.32,464.66 1750.72,465.66 1750.11,465.957 C1749.52,466.254 1747.52,467.05 1747.52,467.05 C1746.82,467.254 1746.32,468.05 1746.32,468.66 L1746.32,475.754 C1746.32,476.347 1746.61,476.66 1747.11,476.66 C1747.22,476.66 1747.41,476.55 1747.52,476.55 C1747.52,476.55 1749.02,475.957 1749.72,475.55 C1749.82,475.55 1749.91,475.457 1750.02,475.457 C1750.72,475.457 1751.32,476.457 1751.32,477.254 L1751.32,487.16 C1751.32,488.254 1750.82,489.16 1750.22,489.457 C1749.61,489.66 1747.52,490.55 1747.52,490.55 C1746.82,490.754 1746.32,491.55 1746.32,492.16 L1746.32,499.254 C1746.32,499.847 1746.61,500.16 1747.11,500.16 C1747.22,500.16 1747.41,500.05 1747.52,500.05 C1747.52,500.05 1748.91,499.457 1749.82,499.16 C1749.91,499.05 1750.02,499.05 1750.11,499.05 C1750.82,499.05 1751.32,500.16 1751.32,500.66 L1751.32,512.957 C1751.32,513.55 1751.91,514.05 1752.61,514.05 C1753.61,514.05 1754.32,513.55 1754.32,512.957 L1754.32,499.05 C1754.32,497.754 1754.82,497.05 1755.32,496.847 L1761.41,494.347 C1761.52,494.347 1761.72,494.254 1761.82,494.254 C1762.61,494.254 1763.11,495.457 1763.11,496.05 L1763.11,508.55 C1763.11,509.16 1763.72,509.66 1764.41,509.66 C1765.52,509.66 1766.11,509.16 1766.11,508.55 L1766.11,494.347 C1766.11,493.55 1766.52,492.347 1767.22,492.05 C1767.91,491.754 1770.02,490.957 1770.02,490.957 C1770.72,490.66 1771.22,489.847 1771.22,489.254 L1771.22,482.16 C1771.22,481.66 1770.91,481.347 1770.52,481.347 C1770.32,481.347 1770.22,481.347 1770.02,481.457 L1767.41,482.457 C1766.82,482.457 1766.11,481.847 1766.11,480.66 L1766.11,471.347 C1766.11,470.66 1766.61,468.754 1767.41,468.457 L1770.02,467.457 "/>
<polyline class="LedgerLine" fill="none" stroke="#000000" stroke-width="4.00" stroke-linecap="square" stroke-linejoin="bevel" points="1621.18,704.268 1677.08,704.268"/>
<polyline class="LedgerLine" fill="none" stroke="#000000" stroke-width="4.00" stroke-linecap="square" stroke-linejoin="bevel" points="979.509,441.751 1035.41,441.751"/>
<polyline class="LedgerLine" fill="none" stroke="#000000" stroke-width="4.00" stroke-linecap="square" stroke-linejoin="bevel" points="1257.23,466.753 1300.13,466.753"/>
<polyline class="LedgerLine" fill="none" stroke="#000000" stroke-width="4.00" stroke-linecap="square" stroke-linejoin="bevel" points="1257.23,441.751 1300.13,441.751"/>
<polyline class="LedgerLine" fill="none" stroke="#000000" stroke-width="4.00" stroke-linecap="square" stroke-linejoin="bevel" points="1421.2,466.753 1464.1,466.753"/>
<polyline class="LedgerLine" fill="none" stroke="#000000" stroke-width="4.00" stroke-linecap="square" stroke-linejoin="bevel" points="1421.2,441.751 1464.1,441.751"/>
<polyline class="LedgerLine" fill="none" stroke="#000000" stroke-width="4.00" stroke-linecap="square" stroke-linejoin="bevel" points="1627.68,466.753 1670.58,466.753"/>
<polyline class="LedgerLine" fill="none" stroke="#000000" stroke-width="4.00" stroke-linecap="square" stroke-linejoin="bevel" points="1627.68,441.751 1670.58,441.751"/>
<polyline class="LedgerLine" fill="none" stroke="#000000" stroke-width="4.00" stroke-linecap="square" stroke-linejoin="bevel" points="1776.72,466.753 1819.62,466.753"/>
<polyline class="LedgerLine" fill="none" stroke="#000000" stroke-width="4.00" stroke-linecap="square" stroke-linejoin="bevel" points="1776.72,441.751 1819.62,441.751"/>
<polyline class="LedgerLine" fill="none" stroke="#000000" stroke-width="4.00" stroke-linecap="square" stroke-linejoin="bevel" points="1961.75,466.753 2017.65,466.753"/>
<polyline class="LedgerLine" fill="none" stroke="#000000" stroke-width="4.00" stroke-linecap="square" stroke-linejoin="bevel" points="1961.75,441.751 2017.65,441.751"/>
<polyline class="Stem" fill="none" stroke="#000000" stroke-width="3.00" stroke-linecap="round" stroke-linejoin="bevel" points="1293.63,688.407 1293.63,604.261"/>
<polyline class="Stem" fill="none" stroke="#000000" stroke-width="3.00" stroke-linecap="round" stroke-linejoin="bevel" points="1457.6,688.407 1457.6,604.261"/>
<polyline class="Stem" fill="none" stroke="#000000" stroke-width="3.00" stroke-linecap="round" stroke-linejoin="bevel" points="1293.63,463.393 1293.63,329.244"/>
<polyline class="Stem" fill="none" stroke="#000000" stroke-width="3.00" stroke-linecap="round" stroke-linejoin="bevel" points="1457.6,463.393 1457.6,341.745"/>
<polyline class="Stem" fill="none" stroke="#000000" stroke-width="3.00" stroke-linecap="round" stroke-linejoin="bevel" points="1664.08,463.393 1664.08,329.244"/>
<polyline class="Stem" fill="none" stroke="#000000" stroke-width="3.00" stroke-linecap="round" stroke-linejoin="bevel" points="1813.12,475.893 1813.12,329.244"/>
<path class="Note" d="M390.236,603.059 C375.736,603.059 366.736,609.168 366.736,616.559 C366.736,623.856 372.939,630.356 389.142,630.356 C406.939,630.356 412.642,624.168 412.642,616.559 C412.642,608.856 400.346,603.059 390.236,603.059 M378.83,609.856 C380.033,606.168 384.033,605.559 387.439,605.559 C394.846,605.559 400.846,613.559 400.846,620.168 C400.846,620.856 400.736,621.559 400.642,622.168 C400.142,624.856 398.533,626.762 395.846,627.465 C394.736,627.762 393.642,627.856 392.533,627.856 C391.533,627.856 390.642,627.762 389.642,627.465 C387.83,626.856 386.033,625.856 384.533,624.559 C383.736,623.856 382.939,623.059 382.236,622.168 C380.142,619.668 378.439,615.965 378.439,612.559 C378.439,611.668 378.533,610.762 378.83,609.856"/>
<path class="Note" d="M652.142,640.561 C637.642,640.561 628.642,646.671 628.642,654.061 C628.642,661.358 634.845,667.858 651.048,667.858 C668.845,667.858 674.548,661.671 674.548,654.061 C674.548,646.358 662.251,640.561 652.142,640.561 M640.735,647.358 C641.938,643.671 645.938,643.061 649.345,643.061 C656.751,643.061 662.751,651.061 662.751,657.671 C662.751,658.358 662.642,659.061 662.548,659.671 C662.048,662.358 660.438,664.265 657.751,664.968 C656.642,665.265 655.548,665.358 654.438,665.358 C653.438,665.358 652.548,665.265 651.548,664.968 C649.735,664.358 647.938,663.358 646.438,662.061 C645.642,661.358 644.845,660.561 644.142,659.671 C642.048,657.171 640.345,653.468 640.345,650.061 C640.345,649.171 640.438,648.265 640.735,647.358"/>
<path class="Note" d="M1008.01,628.061 C993.509,628.061 984.509,634.17 984.509,641.561 C984.509,648.858 990.712,655.358 1006.92,655.358 C1024.71,655.358 1030.42,649.17 1030.42,641.561 C1030.42,633.858 1018.12,628.061 1008.01,628.061 M996.603,634.858 C997.806,631.17 1001.81,630.561 1005.21,630.561 C1012.62,630.561 1018.62,638.561 1018.62,645.17 C1018.62,645.858 1018.51,646.561 1018.42,647.17 C1017.92,649.858 1016.31,651.764 1013.62,652.467 C1012.51,652.764 1011.42,652.858 1010.31,652.858 C1009.31,652.858 1008.42,652.764 1007.42,652.467 C1005.6,651.858 1003.81,650.858 1002.31,649.561 C1001.51,648.858 1000.71,648.061 1000.01,647.17 C997.915,644.67 996.212,640.967 996.212,637.561 C996.212,636.67 996.306,635.764 996.603,634.858"/>
<path class="Note" d="M1273.02,705.767 C1291.43,705.767 1295.13,690.767 1295.13,687.173 C1295.13,681.47 1290.63,677.767 1284.13,677.767 C1267.43,677.767 1262.23,690.673 1262.23,696.47 C1262.23,702.361 1266.93,705.767 1273.02,705.767 M1281.52,696.861 C1276.52,700.267 1273.02,701.47 1270.63,701.47 C1268.32,701.47 1266.93,700.267 1266.23,698.861 C1265.82,698.267 1265.52,697.47 1265.52,696.673 C1265.52,694.267 1267.93,691.173 1275.63,686.767 C1281.13,683.564 1284.63,682.361 1286.93,682.361 C1289.02,682.361 1290.23,683.361 1291.02,684.767 C1291.34,685.361 1291.63,686.064 1291.63,686.861 C1291.63,689.064 1289.34,691.767 1281.52,696.861"/>
<path class="Note" d="M1437,705.767 C1455.41,705.767 1459.11,690.767 1459.11,687.173 C1459.11,681.47 1454.61,677.767 1448.11,677.767 C1431.41,677.767 1426.2,690.673 1426.2,696.47 C1426.2,702.361 1430.91,705.767 1437,705.767 M1445.5,696.861 C1440.5,700.267 1437,701.47 1434.61,701.47 C1432.3,701.47 1430.91,700.267 1430.2,698.861 C1429.8,698.267 1429.5,697.47 1429.5,696.673 C1429.5,694.267 1431.91,691.173 1439.61,686.767 C1445.11,683.564 1448.61,682.361 1450.91,682.361 C1453,682.361 1454.2,683.361 1455,684.767 C1455.31,685.361 1455.61,686.064 1455.61,686.861 C1455.61,689.064 1453.31,691.767 1445.5,696.861"/>
<path class="Note" d="M1649.68,690.565 C1635.18,690.565 1626.18,696.674 1626.18,704.065 C1626.18,711.361 1632.38,717.861 1648.59,717.861 C1666.38,717.861 1672.09,711.674 1672.09,704.065 C1672.09,696.361 1659.79,690.565 1649.68,690.565 M1638.27,697.361 C1639.48,693.674 1643.48,693.065 1646.88,693.065 C1654.29,693.065 1660.29,701.065 1660.29,707.674 C1660.29,708.361 1660.18,709.065 1660.09,709.674 C1659.59,712.361 1657.98,714.268 1655.29,714.971 C1654.18,715.268 1653.09,715.361 1651.98,715.361 C1650.98,715.361 1650.09,715.268 1649.09,714.971 C1647.27,714.361 1645.48,713.361 1643.98,712.065 C1643.18,711.361 1642.38,710.565 1641.68,709.674 C1639.59,707.174 1637.88,703.471 1637.88,700.065 C1637.88,699.174 1637.98,698.268 1638.27,697.361"/>
<path class="Note" d="M1990.25,653.062 C1975.75,653.062 1966.75,659.172 1966.75,666.562 C1966.75,673.859 1972.96,680.359 1989.16,680.359 C2006.96,680.359 2012.66,674.172 2012.66,666.562 C2012.66,658.859 2000.36,653.062 1990.25,653.062 M1978.85,659.859 C1980.05,656.172 1984.05,655.562 1987.46,655.562 C1994.86,655.562 2000.86,663.562 2000.86,670.172 C2000.86,670.859 2000.75,671.562 2000.66,672.172 C2000.16,674.859 1998.55,676.765 1995.86,677.468 C1994.75,677.765 1993.66,677.859 1992.55,677.859 C1991.55,677.859 1990.66,677.765 1989.66,677.468 C1987.85,676.859 1986.05,675.859 1984.55,674.562 C1983.75,673.859 1982.96,673.062 1982.25,672.172 C1980.16,669.672 1978.46,665.968 1978.46,662.562 C1978.46,661.672 1978.55,660.765 1978.85,659.859"/>
<path class="Note" d="M731.986,443.25 C741.893,443.25 754.096,434.047 754.096,424.547 C754.096,418.954 749.596,415.25 743.189,415.25 C730.986,415.25 721.189,424.344 721.189,433.954 C721.189,439.75 725.986,443.25 731.986,443.25"/>
<path class="Note" d="M731.986,418.249 C741.893,418.249 754.096,409.046 754.096,399.546 C754.096,393.952 749.596,390.249 743.189,390.249 C730.986,390.249 721.189,399.343 721.189,408.952 C721.189,414.749 725.986,418.249 731.986,418.249"/>
<path class="Note" d="M390.236,403.046 C375.736,403.046 366.736,409.156 366.736,416.546 C366.736,423.843 372.939,430.343 389.142,430.343 C406.939,430.343 412.642,424.156 412.642,416.546 C412.642,408.843 400.346,403.046 390.236,403.046 M378.83,409.843 C380.033,406.156 384.033,405.546 387.439,405.546 C394.846,405.546 400.846,413.546 400.846,420.156 C400.846,420.843 400.736,421.546 400.642,422.156 C400.142,424.843 398.533,426.75 395.846,427.453 C394.736,427.75 393.642,427.843 392.533,427.843 C391.533,427.843 390.642,427.75 389.642,427.453 C387.83,426.843 386.033,425.843 384.533,424.546 C383.736,423.843 382.939,423.046 382.236,422.156 C380.142,419.656 378.439,415.953 378.439,412.546 C378.439,411.656 378.533,410.75 378.83,409.843"/>
<path class="Note" d="M390.236,378.045 C375.736,378.045 366.736,384.154 366.736,391.545 C366.736,398.842 372.939,405.342 389.142,405.342 C406.939,405.342 412.642,399.154 412.642,391.545 C412.642,383.842 400.346,378.045 390.236,378.045 M378.83,384.842 C380.033,381.154 384.033,380.545 387.439,380.545 C394.846,380.545 400.846,388.545 400.846,395.154 C400.846,395.842 400.736,396.545 400.642,397.154 C400.142,399.842 398.533,401.748 395.846,402.451 C394.736,402.748 393.642,402.842 392.533,402.842 C391.533,402.842 390.642,402.748 389.642,402.451 C387.83,401.842 386.033,400.842 384.533,399.545 C383.736,398.842 382.939,398.045 382.236,397.154 C380.142,394.654 378.439,390.951 378.439,387.545 C378.439,386.654 378.533,385.748 378.83,384.842"/>
<path class="Note" d="M652.142,403.046 C637.642,403.046 628.642,409.156 628.642,416.546 C628.642,423.843 634.845,430.343 651.048,430.343 C668.845,430.343 674.548,424.156 674.548,416.546 C674.548,408.843 662.251,403.046 652.142,403.046 M640.735,409.843 C641.938,406.156 645.938,405.546 649.345,405.546 C656.751,405.546 662.751,413.546 662.751,420.156 C662.751,420.843 662.642,421.546 662.548,422.156 C662.048,424.843 660.438,426.75 657.751,427.453 C656.642,427.75 655.548,427.843 654.438,427.843 C653.438,427.843 652.548,427.75 651.548,427.453 C649.735,426.843 647.938,425.843 646.438,424.546 C645.642,423.843 644.845,423.046 644.142,422.156 C642.048,419.656 640.345,415.953 640.345,412.546 C640.345,411.656 640.438,410.75 640.735,409.843"/>
<path class="Note" d="M652.142,378.045 C637.642,378.045 628.642,384.154 628.642,391.545 C628.642,398.842 634.845,405.342 651.048,405.342 C668.845,405.342 674.548,399.154 674.548,391.545 C674.548,383.842 662.251,378.045 652.142,378.045 M640.735,384.842 C641.938,381.154 645.938,380.545 649.345,380.545 C656.751,380.545 662.751,388.545 662.751,395.154 C662.751,395.842 662.642,396.545 662.548,397.154 C662.048,399.842 660.438,401.748 657.751,402.451 C656.642,402.748 655.548,402.842 654.438,402.842 C653.438,402.842 652.548,402.748 651.548,402.451 C649.735,401.842 647.938,400.842 646.438,399.545 C645.642,398.842 644.845,398.045 644.142,397.154 C642.048,394.654 640.345,390.951 640.345,387.545 C640.345,386.654 640.438,385.748 640.735,384.842"/>
<path class="Note" d="M1008.01,428.048 C993.509,428.048 984.509,434.157 984.509,441.548 C984.509,448.845 990.712,455.345 1006.92,455.345 C1024.71,455.345 1030.42,449.157 1030.42,441.548 C1030.42,433.845 1018.12,428.048 1008.01,428.048 M996.603,434.845 C997.806,431.157 1001.81,430.548 1005.21,430.548 C1012.62,430.548 1018.62,438.548 1018.62,445.157 C1018.62,445.845 1018.51,446.548 1018.42,447.157 C1017.92,449.845 1016.31,451.751 1013.62,452.454 C1012.51,452.751 1011.42,452.845 1010.31,452.845 C1009.31,452.845 1008.42,452.751 1007.42,452.454 C1005.6,451.845 1003.81,450.845 1002.31,449.548 C1001.51,448.845 1000.71,448.048 1000.01,447.157 C997.915,444.657 996.212,440.954 996.212,437.548 C996.212,436.657 996.306,435.751 996.603,434.845"/>
<path class="Note" d="M1008.01,403.046 C993.509,403.046 984.509,409.156 984.509,416.546 C984.509,423.843 990.712,430.343 1006.92,430.343 C1024.71,430.343 1030.42,424.156 1030.42,416.546 C1030.42,408.843 1018.12,403.046 1008.01,403.046 M996.603,409.843 C997.806,406.156 1001.81,405.546 1005.21,405.546 C1012.62,405.546 1018.62,413.546 1018.62,420.156 C1018.62,420.843 1018.51,421.546 1018.42,422.156 C1017.92,424.843 1016.31,426.75 1013.62,427.453 C1012.51,427.75 1011.42,427.843 1010.31,427.843 C1009.31,427.843 1008.42,427.75 1007.42,427.453 C1005.6,426.843 1003.81,425.843 1002.31,424.546 C1001.51,423.843 1000.71,423.046 1000.01,422.156 C997.915,419.656 996.212,415.953 996.212,412.546 C996.212,411.656 996.306,410.75 996.603,409.843"/>
<path class="Note" d="M1273.02,480.753 C1291.43,480.753 1295.13,465.753 1295.13,462.159 C1295.13,456.456 1290.63,452.753 1284.13,452.753 C1267.43,452.753 1262.23,465.659 1262.23,471.456 C1262.23,477.347 1266.93,480.753 1273.02,480.753 M1281.52,471.847 C1276.52,475.253 1273.02,476.456 1270.63,476.456 C1268.32,476.456 1266.93,475.253 1266.23,473.847 C1265.82,473.253 1265.52,472.456 1265.52,471.659 C1265.52,469.253 1267.93,466.159 1275.63,461.753 C1281.13,458.55 1284.63,457.347 1286.93,457.347 C1289.02,457.347 1290.23,458.347 1291.02,459.753 C1291.34,460.347 1291.63,461.05 1291.63,461.847 C1291.63,464.05 1289.34,466.753 1281.52,471.847"/>
<path class="Note" d="M1273.02,455.751 C1291.43,455.751 1295.13,440.751 1295.13,437.157 C1295.13,431.454 1290.63,427.751 1284.13,427.751 C1267.43,427.751 1262.23,440.657 1262.23,446.454 C1262.23,452.345 1266.93,455.751 1273.02,455.751 M1281.52,446.845 C1276.52,450.251 1273.02,451.454 1270.63,451.454 C1268.32,451.454 1266.93,450.251 1266.23,448.845 C1265.82,448.251 1265.52,447.454 1265.52,446.657 C1265.52,444.251 1267.93,441.157 1275.63,436.751 C1281.13,433.548 1284.63,432.345 1286.93,432.345 C1289.02,432.345 1290.23,433.345 1291.02,434.751 C1291.34,435.345 1291.63,436.048 1291.63,436.845 C1291.63,439.048 1289.34,441.751 1281.52,446.845"/>
<path class="Note" d="M1273.02,430.75 C1291.43,430.75 1295.13,415.75 1295.13,412.156 C1295.13,406.453 1290.63,402.75 1284.13,402.75 C1267.43,402.75 1262.23,415.656 1262.23,421.453 C1262.23,427.343 1266.93,430.75 1273.02,430.75 M1281.52,421.843 C1276.52,425.25 1273.02,426.453 1270.63,426.453 C1268.32,426.453 1266.93,425.25 1266.23,423.843 C1265.82,423.25 1265.52,422.453 1265.52,421.656 C1265.52,419.25 1267.93,416.156 1275.63,411.75 C1281.13,408.546 1284.63,407.343 1286.93,407.343 C1289.02,407.343 1290.23,408.343 1291.02,409.75 C1291.34,410.343 1291.63,411.046 1291.63,411.843 C1291.63,414.046 1289.34,416.75 1281.52,421.843"/>
<path class="Note" d="M1437,480.753 C1455.41,480.753 1459.11,465.753 1459.11,462.159 C1459.11,456.456 1454.61,452.753 1448.11,452.753 C1431.41,452.753 1426.2,465.659 1426.2,471.456 C1426.2,477.347 1430.91,480.753 1437,480.753 M1445.5,471.847 C1440.5,475.253 1437,476.456 1434.61,476.456 C1432.3,476.456 1430.91,475.253 1430.2,473.847 C1429.8,473.253 1429.5,472.456 1429.5,471.659 C1429.5,469.253 1431.91,466.159 1439.61,461.753 C1445.11,458.55 1448.61,457.347 1450.91,457.347 C1453,457.347 1454.2,458.347 1455,459.753 C1455.31,460.347 1455.61,461.05 1455.61,461.847 C1455.61,464.05 1453.31,466.753 1445.5,471.847"/>
<path class="Note" d="M1437,455.751 C1455.41,455.751 1459.11,440.751 1459.11,437.157 C1459.11,431.454 1454.61,427.751 1448.11,427.751 C1431.41,427.751 1426.2,440.657 1426.2,446.454 C1426.2,452.345 1430.91,455.751 1437,455.751 M1445.5,446.845 C1440.5,450.251 1437,451.454 1434.61,451.454 C1432.3,451.454 1430.91,450.251 1430.2,448.845 C1429.8,448.251 1429.5,447.454 1429.5,446.657 C1429.5,444.251 1431.91,441.157 1439.61,436.751 C1445.11,433.548 1448.61,432.345 1450.91,432.345 C1453,432.345 1454.2,433.345 1455,434.751 C1455.31,435.345 1455.61,436.048 1455.61,436.845 C1455.61,439.048 1453.31,441.751 1445.5,446.845"/>
<path class="Note" d="M1466.9,443.25 C1485.31,443.25 1489.01,428.25 1489.01,424.657 C1489.01,418.954 1484.51,415.25 1478.01,415.25 C1461.31,415.25 1456.1,428.157 1456.1,433.954 C1456.1,439.844 1460.81,443.25 1466.9,443.25 M1475.4,434.344 C1470.4,437.75 1466.9,438.954 1464.51,438.954 C1462.2,438.954 1460.81,437.75 1460.1,436.344 C1459.7,435.75 1459.4,434.954 1459.4,434.157 C1459.4,431.75 1461.81,428.657 1469.51,424.25 C1475.01,421.047 1478.51,419.844 1480.81,419.844 C1482.9,419.844 1484.1,420.844 1484.9,422.25 C1485.21,422.844 1485.51,423.547 1485.51,424.344 C1485.51,426.547 1483.21,429.25 1475.4,434.344"/>
<path class="Note" d="M1643.48,480.753 C1661.88,480.753 1665.59,465.753 1665.59,462.159 C1665.59,456.456 1661.09,452.753 1654.59,452.753 C1637.88,452.753 1632.68,465.659 1632.68,471.456 C1632.68,477.347 1637.38,480.753 1643.48,480.753 M1651.98,471.847 C1646.98,475.253 1643.48,476.456 1641.09,476.456 C1638.77,476.456 1637.38,475.253 1636.68,473.847 C1636.27,473.253 1635.98,472.456 1635.98,471.659 C1635.98,469.253 1638.38,466.159 1646.09,461.753 C1651.59,458.55 1655.09,457.347 1657.38,457.347 C1659.48,457.347 1660.68,458.347 1661.48,459.753 C1661.79,460.347 1662.09,461.05 1662.09,461.847 C1662.09,464.05 1659.79,466.753 1651.98,471.847"/>
<path class="Note" d="M1643.48,455.751 C1661.88,455.751 1665.59,440.751 1665.59,437.157 C1665.59,431.454 1661.09,427.751 1654.59,427.751 C1637.88,427.751 1632.68,440.657 1632.68,446.454 C1632.68,452.345 1637.38,455.751 1643.48,455.751 M1651.98,446.845 C1646.98,450.251 1643.48,451.454 1641.09,451.454 C1638.77,451.454 1637.38,450.251 1636.68,448.845 C1636.27,448.251 1635.98,447.454 1635.98,446.657 C1635.98,444.251 1638.38,441.157 1646.09,436.751 C1651.59,433.548 1655.09,432.345 1657.38,432.345 C1659.48,432.345 1660.68,433.345 1661.48,434.751 C1661.79,435.345 1662.09,436.048 1662.09,436.845 C1662.09,439.048 1659.79,441.751 1651.98,446.845"/>
<path class="Note" d="M1643.48,430.75 C1661.88,430.75 1665.59,415.75 1665.59,412.156 C1665.59,406.453 1661.09,402.75 1654.59,402.75 C1637.88,402.75 1632.68,415.656 1632.68,421.453 C1632.68,427.343 1637.38,430.75 1643.48,430.75 M1651.98,421.843 C1646.98,425.25 1643.48,426.453 1641.09,426.453 C1638.77,426.453 1637.38,425.25 1636.68,423.843 C1636.27,423.25 1635.98,422.453 1635.98,421.656 C1635.98,419.25 1638.38,416.156 1646.09,411.75 C1651.59,408.546 1655.09,407.343 1657.38,407.343 C1659.48,407.343 1660.68,408.343 1661.48,409.75 C1661.79,410.343 1662.09,411.046 1662.09,411.843 C1662.09,414.046 1659.79,416.75 1651.98,421.843"/>
<path class="Note" d="M1792.51,493.254 C1810.92,493.254 1814.62,478.254 1814.62,474.66 C1814.62,468.957 1810.12,465.254 1803.62,465.254 C1786.92,465.254 1781.72,478.16 1781.72,483.957 C1781.72,489.847 1786.42,493.254 1792.51,493.254 M1801.01,484.347 C1796.01,487.754 1792.51,488.957 1790.12,488.957 C1787.81,488.957 1786.42,487.754 1785.72,486.347 C1785.31,485.754 1785.01,484.957 1785.01,484.16 C1785.01,481.754 1787.42,478.66 1795.12,474.254 C1800.62,471.05 1804.12,469.847 1806.42,469.847 C1808.51,469.847 1809.72,470.847 1810.51,472.254 C1810.83,472.847 1811.12,473.55 1811.12,474.347 C1811.12,476.55 1808.83,479.254 1801.01,484.347"/>
<path class="Note" d="M1792.51,468.252 C1810.92,468.252 1814.62,453.252 1814.62,449.658 C1814.62,443.955 1810.12,440.252 1803.62,440.252 C1786.92,440.252 1781.72,453.158 1781.72,458.955 C1781.72,464.846 1786.42,468.252 1792.51,468.252 M1801.01,459.346 C1796.01,462.752 1792.51,463.955 1790.12,463.955 C1787.81,463.955 1786.42,462.752 1785.72,461.346 C1785.31,460.752 1785.01,459.955 1785.01,459.158 C1785.01,456.752 1787.42,453.658 1795.12,449.252 C1800.62,446.049 1804.12,444.846 1806.42,444.846 C1808.51,444.846 1809.72,445.846 1810.51,447.252 C1810.83,447.846 1811.12,448.549 1811.12,449.346 C1811.12,451.549 1808.83,454.252 1801.01,459.346"/>
<path class="Note" d="M1792.51,430.75 C1810.92,430.75 1814.62,415.75 1814.62,412.156 C1814.62,406.453 1810.12,402.75 1803.62,402.75 C1786.92,402.75 1781.72,415.656 1781.72,421.453 C1781.72,427.343 1786.42,430.75 1792.51,430.75 M1801.01,421.843 C1796.01,425.25 1792.51,426.453 1790.12,426.453 C1787.81,426.453 1786.42,425.25 1785.72,423.843 C1785.31,423.25 1785.01,422.453 1785.01,421.656 C1785.01,419.25 1787.42,416.156 1795.12,411.75 C1800.62,408.546 1804.12,407.343 1806.42,407.343 C1808.51,407.343 1809.72,408.343 1810.51,409.75 C1810.83,410.343 1811.12,411.046 1811.12,411.843 C1811.12,414.046 1808.83,416.75 1801.01,421.843"/>
<path class="Note" d="M1990.25,453.05 C1975.75,453.05 1966.75,459.159 1966.75,466.55 C1966.75,473.847 1972.96,480.347 1989.16,480.347 C2006.96,480.347 2012.66,474.159 2012.66,466.55 C2012.66,458.847 2000.36,453.05 1990.25,453.05 M1978.85,459.847 C1980.05,456.159 1984.05,455.55 1987.46,455.55 C1994.86,455.55 2000.86,463.55 2000.86,470.159 C2000.86,470.847 2000.75,471.55 2000.66,472.159 C2000.16,474.847 1998.55,476.753 1995.86,477.456 C1994.75,477.753 1993.66,477.847 1992.55,477.847 C1991.55,477.847 1990.66,477.753 1989.66,477.456 C1987.85,476.847 1986.05,475.847 1984.55,474.55 C1983.75,473.847 1982.96,473.05 1982.25,472.159 C1980.16,469.659 1978.46,465.956 1978.46,462.55 C1978.46,461.659 1978.55,460.753 1978.85,459.847"/>
<path class="Note" d="M1990.25,428.048 C1975.75,428.048 1966.75,434.157 1966.75,441.548 C1966.75,448.845 1972.96,455.345 1989.16,455.345 C2006.96,455.345 2012.66,449.157 2012.66,441.548 C2012.66,433.845 2000.36,428.048 1990.25,428.048 M1978.85,434.845 C1980.05,431.157 1984.05,430.548 1987.46,430.548 C1994.86,430.548 2000.86,438.548 2000.86,445.157 C2000.86,445.845 2000.75,446.548 2000.66,447.157 C2000.16,449.845 1998.55,451.751 1995.86,452.454 C1994.75,452.751 1993.66,452.845 1992.55,452.845 C1991.55,452.845 1990.66,452.751 1989.66,452.454 C1987.85,451.845 1986.05,450.845 1984.55,449.548 C1983.75,448.845 1982.96,448.048 1982.25,447.157 C1980.16,444.657 1978.46,440.954 1978.46,437.548 C1978.46,436.657 1978.55,435.751 1978.85,434.845"/>
<path class="Note" d="M1990.25,403.046 C1975.75,403.046 1966.75,409.156 1966.75,416.546 C1966.75,423.843 1972.96,430.343 1989.16,430.343 C2006.96,430.343 2012.66,424.156 2012.66,416.546 C2012.66,408.843 2000.36,403.046 1990.25,403.046 M1978.85,409.843 C1980.05,406.156 1984.05,405.546 1987.46,405.546 C1994.86,405.546 2000.86,413.546 2000.86,420.156 C2000.86,420.843 2000.75,421.546 2000.66,422.156 C2000.16,424.843 1998.55,426.75 1995.86,427.453 C1994.75,427.75 1993.66,427.843 1992.55,427.843 C1991.55,427.843 1990.66,427.75 1989.66,427.453 C1987.85,426.843 1986.05,425.843 1984.55,424.546 C1983.75,423.843 1982.96,423.046 1982.25,422.156 C1980.16,419.656 1978.46,415.953 1978.46,412.546 C1978.46,411.656 1978.55,410.75 1978.85,409.843"/>
<path class="Clef" d="M232.937,578.058 C215.531,578.058 207.734,590.761 207.734,600.355 C207.734,608.355 211.937,615.261 220.031,615.261 C226.328,615.261 230.64,610.855 230.64,604.668 C230.64,598.261 225.937,594.261 221.031,594.261 C218.328,594.261 217.328,594.965 216.031,594.965 C214.734,594.965 214.437,594.168 214.437,593.168 C214.437,589.168 220.437,581.855 230.64,581.855 C241.234,581.855 245.843,592.261 245.843,607.965 C245.843,618.261 243.64,630.261 237.437,639.871 C231.437,649.168 221.14,657.668 208.734,664.761 C207.828,665.261 207.234,665.761 207.234,666.558 C207.234,667.168 207.64,667.761 208.531,667.761 C209.031,667.761 209.64,667.558 210.234,667.261 C223.531,660.761 236.343,653.168 246.937,641.761 C255.64,632.371 260.843,620.168 260.843,607.058 C260.843,589.668 250.234,578.058 232.937,578.058 M270.734,611.355 C267.64,611.355 265.343,613.668 265.343,616.761 C265.343,619.855 267.64,622.168 270.734,622.168 C273.843,622.168 276.14,619.855 276.14,616.761 C276.14,613.668 273.843,611.355 270.734,611.355 M270.64,586.261 C267.531,586.261 265.14,588.668 265.14,591.761 C265.14,594.855 267.531,597.261 270.64,597.261 C273.734,597.261 276.14,594.855 276.14,591.761 C276.14,588.668 273.734,586.261 270.64,586.261"/>
<path class="Clef" d="M254.734,297.436 C258.031,297.436 260.734,300.139 260.734,305.639 C260.734,312.545 257.437,318.951 249.64,326.748 C248.031,328.342 245.64,330.639 243.343,332.639 C242.64,333.248 242.234,333.139 242.031,331.842 C241.64,329.248 241.437,325.842 241.437,322.639 C241.437,307.045 248.64,297.436 254.734,297.436 M250.734,381.451 C250.531,380.248 250.64,379.951 251.843,380.045 C259.937,380.748 266.64,387.545 266.64,396.342 C266.64,402.654 262.843,407.748 257.234,410.545 C256.031,411.154 255.843,411.154 255.64,409.951 L250.734,381.451 M243.843,365.545 C244.14,367.451 244.14,367.342 242.343,367.951 C233.531,370.951 227.828,378.842 227.828,387.342 C227.828,396.342 232.531,402.748 239.343,405.045 C240.14,405.342 241.343,405.654 242.031,405.654 C242.843,405.654 243.234,405.154 243.234,404.545 C243.234,403.842 242.437,403.545 241.734,403.248 C237.531,401.451 234.531,397.154 234.531,392.545 C234.531,386.842 238.437,382.545 244.531,380.842 C246.14,380.451 246.343,380.545 246.531,381.654 L251.531,411.451 C251.734,412.545 251.64,412.545 250.14,412.842 C248.531,413.154 246.531,413.342 244.531,413.342 C227.031,413.342 215.734,403.654 215.734,389.748 C215.734,383.842 216.734,375.951 225.031,366.545 C231.031,359.842 235.64,356.139 240.343,352.342 C241.343,351.545 241.531,351.639 241.734,352.748 L243.843,365.545 M245.343,350.248 C245.14,349.045 245.343,348.951 245.937,348.342 C247.531,346.842 249.64,344.748 251.531,342.639 C259.937,333.451 264.937,321.545 264.937,310.248 C264.937,301.545 262.531,292.936 258.437,286.936 C256.937,284.748 254.343,281.936 253.234,281.936 C251.843,281.936 248.734,284.545 246.734,286.748 C239.343,294.936 236.937,307.436 236.937,317.842 C236.937,323.639 237.64,330.139 238.343,334.248 C238.531,335.451 238.64,335.639 237.437,336.639 C231.031,341.951 224.14,348.045 218.937,354.451 C212.031,363.045 207.734,372.342 207.734,383.045 C207.734,400.451 219.64,416.951 244.14,416.951 C246.437,416.951 249.031,416.748 251.031,416.342 C252.14,416.154 252.343,416.045 252.531,417.248 C253.734,423.951 255.234,432.654 255.234,437.357 C255.234,452.154 245.234,453.951 239.343,453.951 C233.937,453.951 231.328,452.357 231.328,451.045 C231.328,450.357 232.234,450.045 234.531,449.357 C237.64,448.451 241.234,445.748 241.234,439.951 C241.234,434.451 237.734,429.748 231.64,429.748 C224.937,429.748 220.937,435.045 220.937,441.248 C220.937,447.748 224.828,457.545 239.937,457.545 C246.64,457.545 259.64,454.545 259.64,437.545 C259.64,431.857 257.843,422.357 256.734,416.154 C256.531,414.951 256.64,415.045 258.031,414.451 C268.14,410.451 274.843,401.951 274.843,390.654 C274.843,377.842 265.437,366.545 250.734,366.545 C248.14,366.545 248.14,366.545 247.843,364.748 L245.343,350.248 "/>
<path class="Bracket" transform="matrix(3.62523,0,0,3.62523,144.23,679.266)" d="M2,-49.7969 C4.90625,-51.6094 8.20313,-58.7031 8.20313,-64.6094 C8.20313,-65.1094 8.20313,-65.7031 8.09375,-66.2031 C7.40625,-72.2031 4.40625,-81.5 4.40625,-86.9063 C4.40625,-92.1094 6.70313,-97.1094 7.20313,-98 C7.59375,-98.4063 7.70313,-98.7031 7.70313,-99 C7.70313,-99.2031 7.59375,-99.4063 7.5,-99.4063 C7.40625,-99.5 7.29688,-99.7031 7.09375,-99.7031 C6.90625,-99.7031 6.70313,-99.5 6.29688,-99 C4.09375,-96.3125 1.40625,-90.5 1.40625,-80.5 C1.40625,-70.6094 4.90625,-66.6094 4.90625,-60.2969 C4.90625,-55.6094 3,-53 0.203125,-49.7969 C2,-47.7969 4.90625,-46.2031 4.90625,-39.7031 C4.90625,-32.7031 1.40625,-26.5 1.40625,-19.2031 C1.40625,-9.20313 4.09375,-3.40625 6.29688,-0.59375 C6.70313,-0.09375 6.90625,0 7.09375,0 C7.29688,0 7.40625,-0.09375 7.5,-0.203125 C7.59375,-0.296875 7.70313,-0.40625 7.70313,-0.59375 C7.70313,-0.90625 7.59375,-1.20313 7.20313,-1.70313 C6.70313,-2.5 4.40625,-7.5 4.40625,-12.7969 C4.40625,-18.0938 7.40625,-27.5 8.09375,-33.4063 C8.20313,-33.9063 8.20313,-34.4063 8.20313,-35 C8.20313,-40.9063 4.90625,-48 2,-49.7969"/>
</svg>
