<?xml version="1.0" encoding="UTF-8" standalone="no"?>
<svg
   xmlns:dc="http://purl.org/dc/elements/1.1/"
   xmlns:cc="http://creativecommons.org/ns#"
   xmlns:rdf="http://www.w3.org/1999/02/22-rdf-syntax-ns#"
   xmlns:svg="http://www.w3.org/2000/svg"
   xmlns="http://www.w3.org/2000/svg"
   xmlns:sodipodi="http://sodipodi.sourceforge.net/DTD/sodipodi-0.dtd"
   xmlns:inkscape="http://www.inkscape.org/namespaces/inkscape"
   width="2446.2991"
   height="203.23633"
   viewBox="0 0 2446.2991 203.23634"
   version="1.2"
   id="svg324"
   sodipodi:docname="Beethoven-Popsong-Gitarrenriff-1.svg"
   inkscape:version="0.92.3 (2405546, 2018-03-11)">
  <metadata
     id="metadata330">
    <rdf:RDF>
      <cc:Work
         rdf:about="">
        <dc:format>image/svg+xml</dc:format>
        <dc:type
           rdf:resource="http://purl.org/dc/dcmitype/StillImage" />
      </cc:Work>
    </rdf:RDF>
  </metadata>
  <defs
     id="defs328" />
  <sodipodi:namedview
     pagecolor="#ffffff"
     bordercolor="#666666"
     borderopacity="1"
     objecttolerance="10"
     gridtolerance="10"
     guidetolerance="10"
     inkscape:pageopacity="0"
     inkscape:pageshadow="2"
     inkscape:window-width="1247"
     inkscape:window-height="480"
     id="namedview326"
     showgrid="false"
     inkscape:zoom="0.056253966"
     inkscape:cx="1173.544"
     inkscape:cy="-1660.4055"
     inkscape:window-x="0"
     inkscape:window-y="0"
     inkscape:window-maximized="0"
     inkscape:current-layer="svg324" />
  <title
     id="title2">Beethoven-Popsong-Gitarrenriff</title>
  <desc
     id="desc4">Generated by MuseScore 3.6.2</desc>
  <polyline
     class="StaffLines"
     points="311.811,280.63 2758.11,280.63"
     id="polyline6"
     style="fill:none;stroke:#000000;stroke-width:2.57999992;stroke-linejoin:bevel"
     transform="translate(-311.811,-233.988)" />
  <polyline
     class="StaffLines"
     points="311.811,300.473 2758.11,300.473"
     id="polyline8"
     style="fill:none;stroke:#000000;stroke-width:2.57999992;stroke-linejoin:bevel"
     transform="translate(-311.811,-233.988)" />
  <polyline
     class="StaffLines"
     points="311.811,320.315 2758.11,320.315"
     id="polyline10"
     style="fill:none;stroke:#000000;stroke-width:2.57999992;stroke-linejoin:bevel"
     transform="translate(-311.811,-233.988)" />
  <polyline
     class="StaffLines"
     points="311.811,340.158 2758.11,340.158"
     id="polyline12"
     style="fill:none;stroke:#000000;stroke-width:2.57999992;stroke-linejoin:bevel"
     transform="translate(-311.811,-233.988)" />
  <polyline
     class="StaffLines"
     points="311.811,360 2758.11,360"
     id="polyline14"
     style="fill:none;stroke:#000000;stroke-width:2.57999992;stroke-linejoin:bevel"
     transform="translate(-311.811,-233.988)" />
  <path
     class="TieSegment"
     d="m 2035.789,183.452 c 16.82,10.397 67.26,10.397 84.08,0 -16.82,15.16 -67.26,15.16 -84.08,0"
     id="path16"
     inkscape:connector-curvature="0"
     style="fill-rule:evenodd;stroke:#000000;stroke-width:1.98000002;stroke-linecap:round;stroke-linejoin:round" />
  <path
     class="TieSegment"
     d="m 2035.789,143.767 c 16.82,10.397 67.26,10.397 84.08,0 -16.82,15.16 -67.26,15.16 -84.08,0"
     id="path18"
     inkscape:connector-curvature="0"
     style="fill-rule:evenodd;stroke:#000000;stroke-width:1.98000002;stroke-linecap:round;stroke-linejoin:round" />
  <path
     class="TieSegment"
     d="m 2035.789,98.336 c 16.82,-15.16 67.26,-15.16 84.08,0 -16.82,-10.398 -67.26,-10.398 -84.08,0"
     id="path20"
     inkscape:connector-curvature="0"
     style="fill-rule:evenodd;stroke:#000000;stroke-width:1.98000002;stroke-linecap:round;stroke-linejoin:round" />
  <polyline
     class="BarLine"
     points="1013.2,279.34 1013.2,361.29"
     id="polyline22"
     style="stroke:#000000;stroke-width:3.17000008;stroke-linejoin:bevel"
     transform="translate(-311.811,-233.988)" />
  <polyline
     class="BarLine"
     points="1580.06,279.34 1580.06,361.29"
     id="polyline24"
     style="stroke:#000000;stroke-width:3.17000008;stroke-linejoin:bevel"
     transform="translate(-311.811,-233.988)" />
  <polyline
     class="BarLine"
     points="2137.48,279.34 2137.48,361.29"
     id="polyline26"
     style="stroke:#000000;stroke-width:3.17000008;stroke-linejoin:bevel"
     transform="translate(-311.811,-233.988)" />
  <path
     class="BarLine"
     d="m 2414.119,76.406 c 0,2.219886 1.7486,3.968505 3.9685,3.968505 2.1455,0 3.9685,-1.748619 3.9685,-3.968505 0,-2.219886 -1.823,-3.968505 -3.9685,-3.968505 -2.2199,0 -3.9685,1.748619 -3.9685,3.968505"
     id="path28"
     inkscape:connector-curvature="0"
     style="stroke-width:0.79370099" />
  <path
     class="BarLine"
     d="m 2414.119,96.248 c 0,2.219886 1.7486,3.9685 3.9685,3.9685 2.1455,0 3.9685,-1.748614 3.9685,-3.9685 0,-2.219886 -1.823,-3.968505 -3.9685,-3.968505 -2.2199,0 -3.9685,1.748619 -3.9685,3.968505"
     id="path30"
     inkscape:connector-curvature="0"
     style="stroke-width:0.79370099" />
  <polyline
     class="BarLine"
     points="2737.64,279.34 2737.64,361.29"
     id="polyline32"
     style="stroke:#000000;stroke-width:3.17000008;stroke-linejoin:bevel"
     transform="translate(-311.811,-233.988)" />
  <polyline
     class="BarLine"
     points="2752.12,279.34 2752.12,361.29"
     id="polyline34"
     style="stroke:#000000;stroke-width:9.92000008;stroke-linejoin:bevel"
     transform="translate(-311.811,-233.988)" />
  <path
     class="Accidental"
     d="m 2309.3115,173.55934 c 0.3224,0 1.823,-0.71929 2.071,-0.88052 0.074,0 0.1489,-0.0744 0.2357,-0.0744 0.558,0 1.0293,0.7937 1.0293,1.42619 v 7.8626 c 0,0.86811 -0.3968,1.5874 -0.8681,1.82301 -0.4837,0.16128 -2.1455,0.86815 -2.1455,0.86815 -0.558,0.1612 -0.9549,0.7937 -0.9549,1.27738 v 5.63028 c 0,0.4713 0.2356,0.71933 0.6325,0.71933 0.087,0 0.2356,-0.0868 0.3224,-0.0868 0,0 1.1038,-0.4713 1.8231,-0.70687 0.074,-0.0868 0.1612,-0.0868 0.2356,-0.0868 0.5581,0 0.9549,0.88053 0.9549,1.27738 v 9.75998 c 0,0.4713 0.4713,0.86815 1.0293,0.86815 0.7937,0 1.3518,-0.39685 1.3518,-0.86815 v -11.03736 c 0,-1.02935 0.3969,-1.5874 0.7937,-1.7486 l 4.8367,-1.98426 c 0.087,0 0.248,-0.0745 0.3224,-0.0745 0.6325,0 1.0293,0.95491 1.0293,1.42621 v 9.92126 c 0,0.48368 0.4837,0.88053 1.0294,0.88053 0.8804,0 1.3517,-0.39685 1.3517,-0.88053 v -11.27302 c 0,-0.6325 0.3224,-1.5874 0.8806,-1.82305 0.5456,-0.23565 2.2198,-0.86815 2.2198,-0.86815 0.5581,-0.23557 0.955,-0.88045 0.955,-1.35175 v -5.63032 c 0,-0.39685 -0.2481,-0.64488 -0.5582,-0.64488 -0.1612,0 -0.2355,0 -0.3968,0.0868 l -2.071,0.7937 c -0.4713,0 -1.0294,-0.48367 -1.0294,-1.42619 v -7.39134 c 0,-0.54567 0.3969,-2.05866 1.0294,-2.29431 l 2.071,-0.7937 c 0.5581,-0.23565 0.955,-0.88053 0.955,-1.35175 v -5.63036 c 0,-0.39685 -0.2481,-0.64488 -0.5582,-0.64488 -0.1612,0 -0.2355,0 -0.3968,0.0868 0,0 -1.5874,0.6325 -1.9843,0.70687 -0.558,0 -1.1161,-0.39685 -1.1161,-1.02927 v -9.68569 c 0,-0.47122 -0.4713,-0.86808 -1.1037,-0.86808 -0.7937,0 -1.2774,0.39686 -1.2774,0.86808 v 10.31811 c -0.074,0.7937 -0.31,1.83543 -1.0293,2.30673 -0.9549,0.55805 -3.6461,1.66177 -4.9979,1.98425 -0.7193,0 -0.9549,-0.9549 -0.9549,-1.5874 v -9.52441 c 0,-0.48368 -0.5581,-0.88053 -1.1161,-0.88053 -0.7937,0 -1.265,0.39685 -1.265,0.88053 v 10.71496 c 0,1.11611 -0.4713,1.90981 -0.9549,2.14546 -0.4713,0.23565 -2.0587,0.86815 -2.0587,0.86815 -0.558,0.1612 -0.9549,0.7937 -0.9549,1.2773 v 5.63036 c 0,0.47126 0.2356,0.71929 0.6325,0.71929 m 5.4815,4.43976 c 0,-2.45551 0.074,-5.23346 0.2356,-5.87835 0.1612,-1.33937 3.8073,-3.01358 5.7916,-3.01358 0.558,0 1.0293,0.16122 1.1905,0.48366 0.1612,0.39685 0.3224,2.38111 0.3224,4.51418 0,2.14547 -0.1612,4.36535 -0.3224,5.08464 -0.4713,1.58741 -4.2041,3.17481 -6.0272,3.17481 -0.4836,0 -0.8805,-0.16122 -0.9549,-0.39685 -0.1612,-0.32244 -0.2356,-2.05866 -0.2356,-3.96851"
     id="path36"
     inkscape:connector-curvature="0"
     style="stroke-width:0.79370099" />
  <polyline
     class="LedgerLine"
     points="473.726,399.685 515.712,399.685"
     id="polyline38"
     style="stroke:#000000;stroke-width:3.17000008;stroke-linejoin:bevel"
     transform="translate(-311.811,-233.988)" />
  <polyline
     class="LedgerLine"
     points="473.726,379.843 515.712,379.843"
     id="polyline40"
     style="stroke:#000000;stroke-width:3.17000008;stroke-linejoin:bevel"
     transform="translate(-311.811,-233.988)" />
  <polyline
     class="LedgerLine"
     points="537.201,399.685 579.186,399.685"
     id="polyline42"
     style="stroke:#000000;stroke-width:3.17000008;stroke-linejoin:bevel"
     transform="translate(-311.811,-233.988)" />
  <polyline
     class="LedgerLine"
     points="537.201,379.843 579.186,379.843"
     id="polyline44"
     style="stroke:#000000;stroke-width:3.17000008;stroke-linejoin:bevel"
     transform="translate(-311.811,-233.988)" />
  <polyline
     class="LedgerLine"
     points="583.155,399.685 625.14,399.685"
     id="polyline46"
     style="stroke:#000000;stroke-width:3.17000008;stroke-linejoin:bevel"
     transform="translate(-311.811,-233.988)" />
  <polyline
     class="LedgerLine"
     points="583.155,379.843 625.14,379.843"
     id="polyline48"
     style="stroke:#000000;stroke-width:3.17000008;stroke-linejoin:bevel"
     transform="translate(-311.811,-233.988)" />
  <polyline
     class="LedgerLine"
     points="689.402,399.685 728.287,399.685"
     id="polyline50"
     style="stroke:#000000;stroke-width:3.17000008;stroke-linejoin:bevel"
     transform="translate(-311.811,-233.988)" />
  <polyline
     class="LedgerLine"
     points="689.402,379.843 728.287,379.843"
     id="polyline52"
     style="stroke:#000000;stroke-width:3.17000008;stroke-linejoin:bevel"
     transform="translate(-311.811,-233.988)" />
  <polyline
     class="LedgerLine"
     points="752.877,399.685 791.762,399.685"
     id="polyline54"
     style="stroke:#000000;stroke-width:3.17000008;stroke-linejoin:bevel"
     transform="translate(-311.811,-233.988)" />
  <polyline
     class="LedgerLine"
     points="752.877,379.843 791.762,379.843"
     id="polyline56"
     style="stroke:#000000;stroke-width:3.17000008;stroke-linejoin:bevel"
     transform="translate(-311.811,-233.988)" />
  <polyline
     class="LedgerLine"
     points="879.826,399.685 918.712,399.685"
     id="polyline58"
     style="stroke:#000000;stroke-width:3.17000008;stroke-linejoin:bevel"
     transform="translate(-311.811,-233.988)" />
  <polyline
     class="LedgerLine"
     points="879.826,379.843 918.712,379.843"
     id="polyline60"
     style="stroke:#000000;stroke-width:3.17000008;stroke-linejoin:bevel"
     transform="translate(-311.811,-233.988)" />
  <polyline
     class="LedgerLine"
     points="1040.58,399.685 1082.57,399.685"
     id="polyline62"
     style="stroke:#000000;stroke-width:3.17000008;stroke-linejoin:bevel"
     transform="translate(-311.811,-233.988)" />
  <polyline
     class="LedgerLine"
     points="1040.58,379.843 1082.57,379.843"
     id="polyline64"
     style="stroke:#000000;stroke-width:3.17000008;stroke-linejoin:bevel"
     transform="translate(-311.811,-233.988)" />
  <polyline
     class="LedgerLine"
     points="1104.06,399.685 1146.04,399.685"
     id="polyline66"
     style="stroke:#000000;stroke-width:3.17000008;stroke-linejoin:bevel"
     transform="translate(-311.811,-233.988)" />
  <polyline
     class="LedgerLine"
     points="1104.06,379.843 1146.04,379.843"
     id="polyline68"
     style="stroke:#000000;stroke-width:3.17000008;stroke-linejoin:bevel"
     transform="translate(-311.811,-233.988)" />
  <polyline
     class="LedgerLine"
     points="1150.01,399.685 1192,399.685"
     id="polyline70"
     style="stroke:#000000;stroke-width:3.17000008;stroke-linejoin:bevel"
     transform="translate(-311.811,-233.988)" />
  <polyline
     class="LedgerLine"
     points="1150.01,379.843 1192,379.843"
     id="polyline72"
     style="stroke:#000000;stroke-width:3.17000008;stroke-linejoin:bevel"
     transform="translate(-311.811,-233.988)" />
  <polyline
     class="LedgerLine"
     points="1256.26,399.685 1295.14,399.685"
     id="polyline74"
     style="stroke:#000000;stroke-width:3.17000008;stroke-linejoin:bevel"
     transform="translate(-311.811,-233.988)" />
  <polyline
     class="LedgerLine"
     points="1256.26,379.843 1295.14,379.843"
     id="polyline76"
     style="stroke:#000000;stroke-width:3.17000008;stroke-linejoin:bevel"
     transform="translate(-311.811,-233.988)" />
  <polyline
     class="LedgerLine"
     points="1319.73,399.685 1358.62,399.685"
     id="polyline78"
     style="stroke:#000000;stroke-width:3.17000008;stroke-linejoin:bevel"
     transform="translate(-311.811,-233.988)" />
  <polyline
     class="LedgerLine"
     points="1319.73,379.843 1358.62,379.843"
     id="polyline80"
     style="stroke:#000000;stroke-width:3.17000008;stroke-linejoin:bevel"
     transform="translate(-311.811,-233.988)" />
  <polyline
     class="LedgerLine"
     points="1446.68,399.685 1485.57,399.685"
     id="polyline82"
     style="stroke:#000000;stroke-width:3.17000008;stroke-linejoin:bevel"
     transform="translate(-311.811,-233.988)" />
  <polyline
     class="LedgerLine"
     points="1446.68,379.843 1485.57,379.843"
     id="polyline84"
     style="stroke:#000000;stroke-width:3.17000008;stroke-linejoin:bevel"
     transform="translate(-311.811,-233.988)" />
  <polyline
     class="LedgerLine"
     points="1607.44,399.685 1649.43,399.685"
     id="polyline86"
     style="stroke:#000000;stroke-width:3.17000008;stroke-linejoin:bevel"
     transform="translate(-311.811,-233.988)" />
  <polyline
     class="LedgerLine"
     points="1607.44,379.843 1649.43,379.843"
     id="polyline88"
     style="stroke:#000000;stroke-width:3.17000008;stroke-linejoin:bevel"
     transform="translate(-311.811,-233.988)" />
  <polyline
     class="LedgerLine"
     points="1674.66,399.685 1716.65,399.685"
     id="polyline90"
     style="stroke:#000000;stroke-width:3.17000008;stroke-linejoin:bevel"
     transform="translate(-311.811,-233.988)" />
  <polyline
     class="LedgerLine"
     points="1674.66,379.843 1716.65,379.843"
     id="polyline92"
     style="stroke:#000000;stroke-width:3.17000008;stroke-linejoin:bevel"
     transform="translate(-311.811,-233.988)" />
  <polyline
     class="LedgerLine"
     points="1812.22,399.685 1851.1,399.685"
     id="polyline94"
     style="stroke:#000000;stroke-width:3.17000008;stroke-linejoin:bevel"
     transform="translate(-311.811,-233.988)" />
  <polyline
     class="LedgerLine"
     points="1812.22,379.843 1851.1,379.843"
     id="polyline96"
     style="stroke:#000000;stroke-width:3.17000008;stroke-linejoin:bevel"
     transform="translate(-311.811,-233.988)" />
  <polyline
     class="LedgerLine"
     points="1879.44,399.685 1918.33,399.685"
     id="polyline98"
     style="stroke:#000000;stroke-width:3.17000008;stroke-linejoin:bevel"
     transform="translate(-311.811,-233.988)" />
  <polyline
     class="LedgerLine"
     points="1879.44,379.843 1918.33,379.843"
     id="polyline100"
     style="stroke:#000000;stroke-width:3.17000008;stroke-linejoin:bevel"
     transform="translate(-311.811,-233.988)" />
  <polyline
     class="LedgerLine"
     points="1943.57,379.843 1985.55,379.843"
     id="polyline102"
     style="stroke:#000000;stroke-width:3.17000008;stroke-linejoin:bevel"
     transform="translate(-311.811,-233.988)" />
  <polyline
     class="LedgerLine"
     points="2164.86,399.685 2206.85,399.685"
     id="polyline104"
     style="stroke:#000000;stroke-width:3.17000008;stroke-linejoin:bevel"
     transform="translate(-311.811,-233.988)" />
  <polyline
     class="LedgerLine"
     points="2164.86,379.843 2206.85,379.843"
     id="polyline106"
     style="stroke:#000000;stroke-width:3.17000008;stroke-linejoin:bevel"
     transform="translate(-311.811,-233.988)" />
  <polyline
     class="LedgerLine"
     points="2237.64,399.685 2279.63,399.685"
     id="polyline108"
     style="stroke:#000000;stroke-width:3.17000008;stroke-linejoin:bevel"
     transform="translate(-311.811,-233.988)" />
  <polyline
     class="LedgerLine"
     points="2237.64,379.843 2279.63,379.843"
     id="polyline110"
     style="stroke:#000000;stroke-width:3.17000008;stroke-linejoin:bevel"
     transform="translate(-311.811,-233.988)" />
  <polyline
     class="LedgerLine"
     points="2310.42,399.685 2352.41,399.685"
     id="polyline112"
     style="stroke:#000000;stroke-width:3.17000008;stroke-linejoin:bevel"
     transform="translate(-311.811,-233.988)" />
  <polyline
     class="LedgerLine"
     points="2310.42,379.843 2352.41,379.843"
     id="polyline114"
     style="stroke:#000000;stroke-width:3.17000008;stroke-linejoin:bevel"
     transform="translate(-311.811,-233.988)" />
  <polyline
     class="LedgerLine"
     points="2426.87,399.685 2468.86,399.685"
     id="polyline116"
     style="stroke:#000000;stroke-width:3.17000008;stroke-linejoin:bevel"
     transform="translate(-311.811,-233.988)" />
  <polyline
     class="LedgerLine"
     points="2426.87,379.843 2468.86,379.843"
     id="polyline118"
     style="stroke:#000000;stroke-width:3.17000008;stroke-linejoin:bevel"
     transform="translate(-311.811,-233.988)" />
  <polyline
     class="LedgerLine"
     points="2502.75,399.685 2541.64,399.685"
     id="polyline120"
     style="stroke:#000000;stroke-width:3.17000008;stroke-linejoin:bevel"
     transform="translate(-311.811,-233.988)" />
  <polyline
     class="LedgerLine"
     points="2502.75,379.843 2541.64,379.843"
     id="polyline122"
     style="stroke:#000000;stroke-width:3.17000008;stroke-linejoin:bevel"
     transform="translate(-311.811,-233.988)" />
  <polyline
     class="LedgerLine"
     points="2575.53,399.685 2614.42,399.685"
     id="polyline124"
     style="stroke:#000000;stroke-width:3.17000008;stroke-linejoin:bevel"
     transform="translate(-311.811,-233.988)" />
  <polyline
     class="LedgerLine"
     points="2575.53,379.843 2614.42,379.843"
     id="polyline126"
     style="stroke:#000000;stroke-width:3.17000008;stroke-linejoin:bevel"
     transform="translate(-311.811,-233.988)" />
  <polyline
     class="LedgerLine"
     points="2645.21,399.685 2687.2,399.685"
     id="polyline128"
     style="stroke:#000000;stroke-width:3.17000008;stroke-linejoin:bevel"
     transform="translate(-311.811,-233.988)" />
  <polyline
     class="LedgerLine"
     points="2645.21,379.843 2687.2,379.843"
     id="polyline130"
     style="stroke:#000000;stroke-width:3.17000008;stroke-linejoin:bevel"
     transform="translate(-311.811,-233.988)" />
  <polyline
     class="Stem"
     points="506.584,397.018 506.584,325.276"
     id="polyline132"
     style="stroke:#000000;stroke-width:2.38000011;stroke-linejoin:bevel"
     transform="translate(-311.811,-233.988)" />
  <polyline
     class="Stem"
     points="570.059,397.018 570.059,325.276"
     id="polyline134"
     style="stroke:#000000;stroke-width:2.38000011;stroke-linejoin:bevel"
     transform="translate(-311.811,-233.988)" />
  <polyline
     class="Stem"
     points="616.013,397.018 616.013,325.276"
     id="polyline136"
     style="stroke:#000000;stroke-width:2.38000011;stroke-linejoin:bevel"
     transform="translate(-311.811,-233.988)" />
  <polyline
     class="Stem"
     points="655.685,327.569 655.685,240.945"
     id="polyline138"
     style="stroke:#000000;stroke-width:2.38000011;stroke-linejoin:bevel"
     transform="translate(-311.811,-233.988)" />
  <polyline
     class="Stem"
     points="719.159,392.637 719.159,275.669"
     id="polyline140"
     style="stroke:#000000;stroke-width:2.38000011;stroke-linejoin:bevel"
     transform="translate(-311.811,-233.988)" />
  <polyline
     class="Stem"
     points="782.634,392.637 782.634,295.512"
     id="polyline142"
     style="stroke:#000000;stroke-width:2.38000011;stroke-linejoin:bevel"
     transform="translate(-311.811,-233.988)" />
  <polyline
     class="Stem"
     points="846.109,337.491 846.109,260.787"
     id="polyline144"
     style="stroke:#000000;stroke-width:2.38000011;stroke-linejoin:bevel"
     transform="translate(-311.811,-233.988)" />
  <polyline
     class="Stem"
     points="909.584,392.637 909.584,275.669"
     id="polyline146"
     style="stroke:#000000;stroke-width:2.38000011;stroke-linejoin:bevel"
     transform="translate(-311.811,-233.988)" />
  <polyline
     class="Stem"
     points="973.059,327.569 973.059,245.906"
     id="polyline148"
     style="stroke:#000000;stroke-width:2.38000011;stroke-linejoin:bevel"
     transform="translate(-311.811,-233.988)" />
  <polyline
     class="Stem"
     points="1073.44,397.018 1073.44,325.276"
     id="polyline150"
     style="stroke:#000000;stroke-width:2.38000011;stroke-linejoin:bevel"
     transform="translate(-311.811,-233.988)" />
  <polyline
     class="Stem"
     points="1136.92,397.018 1136.92,325.276"
     id="polyline152"
     style="stroke:#000000;stroke-width:2.38000011;stroke-linejoin:bevel"
     transform="translate(-311.811,-233.988)" />
  <polyline
     class="Stem"
     points="1182.87,397.018 1182.87,325.276"
     id="polyline154"
     style="stroke:#000000;stroke-width:2.38000011;stroke-linejoin:bevel"
     transform="translate(-311.811,-233.988)" />
  <polyline
     class="Stem"
     points="1222.54,327.569 1222.54,240.945"
     id="polyline156"
     style="stroke:#000000;stroke-width:2.38000011;stroke-linejoin:bevel"
     transform="translate(-311.811,-233.988)" />
  <polyline
     class="Stem"
     points="1286.02,392.637 1286.02,275.669"
     id="polyline158"
     style="stroke:#000000;stroke-width:2.38000011;stroke-linejoin:bevel"
     transform="translate(-311.811,-233.988)" />
  <polyline
     class="Stem"
     points="1349.49,392.637 1349.49,295.512"
     id="polyline160"
     style="stroke:#000000;stroke-width:2.38000011;stroke-linejoin:bevel"
     transform="translate(-311.811,-233.988)" />
  <polyline
     class="Stem"
     points="1412.97,337.491 1412.97,260.787"
     id="polyline162"
     style="stroke:#000000;stroke-width:2.38000011;stroke-linejoin:bevel"
     transform="translate(-311.811,-233.988)" />
  <polyline
     class="Stem"
     points="1476.44,392.637 1476.44,275.669"
     id="polyline164"
     style="stroke:#000000;stroke-width:2.38000011;stroke-linejoin:bevel"
     transform="translate(-311.811,-233.988)" />
  <polyline
     class="Stem"
     points="1539.92,327.569 1539.92,245.906"
     id="polyline166"
     style="stroke:#000000;stroke-width:2.38000011;stroke-linejoin:bevel"
     transform="translate(-311.811,-233.988)" />
  <polyline
     class="Stem"
     points="1640.3,406.94 1640.3,325.276"
     id="polyline168"
     style="stroke:#000000;stroke-width:2.38000011;stroke-linejoin:bevel"
     transform="translate(-311.811,-233.988)" />
  <polyline
     class="Stem"
     points="1707.52,406.94 1707.52,325.276"
     id="polyline170"
     style="stroke:#000000;stroke-width:2.38000011;stroke-linejoin:bevel"
     transform="translate(-311.811,-233.988)" />
  <polyline
     class="Stem"
     points="1774.75,367.255 1774.75,280.63"
     id="polyline172"
     style="stroke:#000000;stroke-width:2.38000011;stroke-linejoin:bevel"
     transform="translate(-311.811,-233.988)" />
  <polyline
     class="Stem"
     points="1841.97,402.558 1841.97,300.473"
     id="polyline174"
     style="stroke:#000000;stroke-width:2.38000011;stroke-linejoin:bevel"
     transform="translate(-311.811,-233.988)" />
  <polyline
     class="Stem"
     points="1909.2,402.558 1909.2,320.315"
     id="polyline176"
     style="stroke:#000000;stroke-width:2.38000011;stroke-linejoin:bevel"
     transform="translate(-311.811,-233.988)" />
  <polyline
     class="Stem"
     points="1976.42,377.176 1976.42,280.63"
     id="polyline178"
     style="stroke:#000000;stroke-width:2.38000011;stroke-linejoin:bevel"
     transform="translate(-311.811,-233.988)" />
  <polyline
     class="Stem"
     points="2083.98,367.255 2083.98,273.189"
     id="polyline180"
     style="stroke:#000000;stroke-width:2.38000011;stroke-linejoin:bevel"
     transform="translate(-311.811,-233.988)" />
  <polyline
     class="Stem"
     points="2197.72,406.94 2197.72,325.276"
     id="polyline182"
     style="stroke:#000000;stroke-width:2.38000011;stroke-linejoin:bevel"
     transform="translate(-311.811,-233.988)" />
  <polyline
     class="Stem"
     points="2270.5,406.94 2270.5,325.276"
     id="polyline184"
     style="stroke:#000000;stroke-width:2.38000011;stroke-linejoin:bevel"
     transform="translate(-311.811,-233.988)" />
  <polyline
     class="Stem"
     points="2343.28,406.94 2343.28,273.189"
     id="polyline186"
     style="stroke:#000000;stroke-width:2.38000011;stroke-linejoin:bevel"
     transform="translate(-311.811,-233.988)" />
  <polyline
     class="Stem"
     points="2459.73,406.94 2459.73,280.63"
     id="polyline188"
     style="stroke:#000000;stroke-width:2.38000011;stroke-linejoin:bevel"
     transform="translate(-311.811,-233.988)" />
  <polyline
     class="Stem"
     points="2532.51,402.558 2532.51,300.473"
     id="polyline190"
     style="stroke:#000000;stroke-width:2.38000011;stroke-linejoin:bevel"
     transform="translate(-311.811,-233.988)" />
  <polyline
     class="Stem"
     points="2605.29,402.558 2605.29,325.276"
     id="polyline192"
     style="stroke:#000000;stroke-width:2.38000011;stroke-linejoin:bevel"
     transform="translate(-311.811,-233.988)" />
  <polyline
     class="Stem"
     points="2678.07,406.94 2678.07,325.276"
     id="polyline194"
     style="stroke:#000000;stroke-width:2.38000011;stroke-linejoin:bevel"
     transform="translate(-311.811,-233.988)" />
  <path
     class="Note"
     d="m 169.852,169.42988 c 0,4.60098 3.80729,7.37893 8.56951,7.37893 7.86256,0 17.54825,-7.30452 17.54825,-14.84469 0,-4.43978 -3.57165,-7.37893 -8.65634,-7.37893 -9.68563,0 -17.46142,7.21771 -17.46142,14.84469"
     id="path196"
     inkscape:connector-curvature="0"
     style="stroke-width:0.79370099" />
  <path
     class="Note"
     d="m 233.327,169.42988 c 0,4.60098 3.80729,7.37893 8.56951,7.37893 7.86256,0 17.54825,-7.30452 17.54825,-14.84469 0,-4.43978 -3.57165,-7.37893 -8.65634,-7.37893 -9.68563,0 -17.46142,7.21771 -17.46142,14.84469"
     id="path198"
     inkscape:connector-curvature="0"
     style="stroke-width:0.79370099" />
  <path
     class="Note"
     d="m 279.281,169.42988 c 0,4.60098 3.80729,7.37893 8.56951,7.37893 7.86256,0 17.54825,-7.30452 17.54825,-14.84469 0,-4.43978 -3.57165,-7.37893 -8.65634,-7.37893 -9.68563,0 -17.46142,7.21771 -17.46142,14.84469"
     id="path200"
     inkscape:connector-curvature="0"
     style="stroke-width:0.79370099" />
  <path
     class="Note"
     d="m 318.953,99.980879 c 0,4.600981 3.80729,7.378931 8.56951,7.378931 7.86256,0 17.54825,-7.30452 17.54825,-14.844689 0,-4.439781 -3.57165,-7.378935 -8.65634,-7.378935 -9.68563,0 -17.46142,7.217718 -17.46142,14.844693"
     id="path202"
     inkscape:connector-curvature="0"
     style="stroke-width:0.79370099" />
  <path
     class="Note"
     d="m 318.953,70.217879 c 0,4.600982 3.80729,7.378935 8.56951,7.378935 7.86256,0 17.54825,-7.304526 17.54825,-14.844693 0,-4.439781 -3.57165,-7.378935 -8.65634,-7.378935 -9.68563,0 -17.46142,7.217718 -17.46142,14.844693"
     id="path204"
     inkscape:connector-curvature="0"
     style="stroke-width:0.79370099" />
  <path
     class="Note"
     d="m 385.528,174.42771 c 0,0.6325 0.39685,1.19055 1.02933,1.19055 0.23563,0 0.39686,-0.0744 0.55807,-0.23565 l 9.84689,-8.33383 9.99564,8.33383 c 0.1612,0.16128 0.39685,0.23565 0.55805,0.23565 0.6325,0 1.02935,-0.6325 1.02935,-1.1161 0,-0.39685 -0.1612,-0.70695 -0.39685,-0.94256 l -9.44996,-7.8626 9.44996,-7.93701 c 0.23565,-0.1612 0.39685,-0.55805 0.39685,-0.86815 0,-0.64488 -0.55805,-1.1161 -1.02935,-1.1161 -0.1612,0 -0.39685,0.0744 -0.55805,0.1612 l -9.99564,8.33387 -9.84689,-8.33387 c -0.16121,-0.0868 -0.39685,-0.1612 -0.63247,-0.1612 -0.55808,0 -0.95493,0.55805 -0.95493,1.02935 0,0.3224 0.16122,0.71925 0.39685,0.9549 l 9.45004,7.93701 -9.45004,7.8626 c -0.32244,0.23561 -0.39685,0.54571 -0.39685,0.86811"
     id="path206"
     inkscape:connector-curvature="0"
     style="stroke-width:0.79370099" />
  <path
     class="Note"
     d="m 449.003,174.42771 c 0,0.6325 0.39685,1.19055 1.02933,1.19055 0.23563,0 0.39686,-0.0744 0.55807,-0.23565 l 9.84689,-8.33383 9.99564,8.33383 c 0.1612,0.16128 0.39685,0.23565 0.55805,0.23565 0.6325,0 1.02935,-0.6325 1.02935,-1.1161 0,-0.39685 -0.1612,-0.70695 -0.39685,-0.94256 l -9.44996,-7.8626 9.44996,-7.93701 c 0.23565,-0.1612 0.39685,-0.55805 0.39685,-0.86815 0,-0.64488 -0.55805,-1.1161 -1.02935,-1.1161 -0.1612,0 -0.39685,0.0744 -0.55805,0.1612 l -9.99564,8.33387 -9.84689,-8.33387 c -0.16121,-0.0868 -0.39685,-0.1612 -0.63247,-0.1612 -0.55808,0 -0.95493,0.55805 -0.95493,1.02935 0,0.3224 0.16122,0.71925 0.39685,0.9549 l 9.45004,7.93701 -9.45004,7.8626 c -0.32244,0.23561 -0.39685,0.54571 -0.39685,0.86811"
     id="path208"
     inkscape:connector-curvature="0"
     style="stroke-width:0.79370099" />
  <path
     class="Note"
     d="m 509.377,109.90288 c 0,4.60098 3.80729,7.37893 8.56951,7.37893 7.86256,0 17.54825,-7.30452 17.54825,-14.84469 0,-4.43978 -3.57165,-7.378934 -8.65634,-7.378934 -9.68563,0 -17.46142,7.217714 -17.46142,14.844694"
     id="path210"
     inkscape:connector-curvature="0"
     style="stroke-width:0.79370099" />
  <path
     class="Note"
     d="m 509.377,80.138879 c 0,4.600982 3.80729,7.378935 8.56951,7.378935 7.86256,0 17.54825,-7.304526 17.54825,-14.844693 0,-4.439781 -3.57165,-7.378935 -8.65634,-7.378935 -9.68563,0 -17.46142,7.217718 -17.46142,14.844693"
     id="path212"
     inkscape:connector-curvature="0"
     style="stroke-width:0.79370099" />
  <path
     class="Note"
     d="m 575.952,174.42771 c 0,0.6325 0.39685,1.19055 1.02933,1.19055 0.23563,0 0.39686,-0.0744 0.55807,-0.23565 l 9.84689,-8.33383 9.99564,8.33383 c 0.1612,0.16128 0.39685,0.23565 0.55805,0.23565 0.6325,0 1.02935,-0.6325 1.02935,-1.1161 0,-0.39685 -0.1612,-0.70695 -0.39685,-0.94256 l -9.44996,-7.8626 9.44996,-7.93701 c 0.23565,-0.1612 0.39685,-0.55805 0.39685,-0.86815 0,-0.64488 -0.55805,-1.1161 -1.02935,-1.1161 -0.1612,0 -0.39685,0.0744 -0.55805,0.1612 l -9.99564,8.33387 -9.84689,-8.33387 c -0.16121,-0.0868 -0.39685,-0.1612 -0.63247,-0.1612 -0.55808,0 -0.95493,0.55805 -0.95493,1.02935 0,0.3224 0.16122,0.71925 0.39685,0.9549 l 9.45004,7.93701 -9.45004,7.8626 c -0.32244,0.23561 -0.39685,0.54571 -0.39685,0.86811"
     id="path214"
     inkscape:connector-curvature="0"
     style="stroke-width:0.79370099" />
  <path
     class="Note"
     d="m 636.327,99.980879 c 0,4.600981 3.80729,7.378931 8.56951,7.378931 7.86256,0 17.54825,-7.30452 17.54825,-14.844689 0,-4.439781 -3.57165,-7.378935 -8.65634,-7.378935 -9.68563,0 -17.46142,7.217718 -17.46142,14.844693"
     id="path216"
     inkscape:connector-curvature="0"
     style="stroke-width:0.79370099" />
  <path
     class="Note"
     d="m 636.327,70.217879 c 0,4.600982 3.80729,7.378935 8.56951,7.378935 7.86256,0 17.54825,-7.304526 17.54825,-14.844693 0,-4.439781 -3.57165,-7.378935 -8.65634,-7.378935 -9.68563,0 -17.46142,7.217718 -17.46142,14.844693"
     id="path218"
     inkscape:connector-curvature="0"
     style="stroke-width:0.79370099" />
  <path
     class="Note"
     d="m 736.709,169.42988 c 0,4.60098 3.80729,7.37893 8.56951,7.37893 7.86256,0 17.54825,-7.30452 17.54825,-14.84469 0,-4.43978 -3.57165,-7.37893 -8.65634,-7.37893 -9.68563,0 -17.46142,7.21771 -17.46142,14.84469"
     id="path220"
     inkscape:connector-curvature="0"
     style="stroke-width:0.79370099" />
  <path
     class="Note"
     d="m 800.179,169.42988 c 0,4.60098 3.80729,7.37893 8.56951,7.37893 7.86256,0 17.54825,-7.30452 17.54825,-14.84469 0,-4.43978 -3.57165,-7.37893 -8.65634,-7.37893 -9.68563,0 -17.46142,7.21771 -17.46142,14.84469"
     id="path222"
     inkscape:connector-curvature="0"
     style="stroke-width:0.79370099" />
  <path
     class="Note"
     d="m 846.139,169.42988 c 0,4.60098 3.80729,7.37893 8.56951,7.37893 7.86256,0 17.54825,-7.30452 17.54825,-14.84469 0,-4.43978 -3.57165,-7.37893 -8.65634,-7.37893 -9.68563,0 -17.46142,7.21771 -17.46142,14.84469"
     id="path224"
     inkscape:connector-curvature="0"
     style="stroke-width:0.79370099" />
  <path
     class="Note"
     d="m 885.809,99.980879 c 0,4.600981 3.80729,7.378931 8.56951,7.378931 7.86256,0 17.54825,-7.30452 17.54825,-14.844689 0,-4.439781 -3.57165,-7.378935 -8.65634,-7.378935 -9.68563,0 -17.46142,7.217718 -17.46142,14.844693"
     id="path226"
     inkscape:connector-curvature="0"
     style="stroke-width:0.79370099" />
  <path
     class="Note"
     d="m 885.809,70.217879 c 0,4.600982 3.80729,7.378935 8.56951,7.378935 7.86256,0 17.54825,-7.304526 17.54825,-14.844693 0,-4.439781 -3.57165,-7.378935 -8.65634,-7.378935 -9.68563,0 -17.46142,7.217718 -17.46142,14.844693"
     id="path228"
     inkscape:connector-curvature="0"
     style="stroke-width:0.79370099" />
  <path
     class="Note"
     d="m 952.389,174.42771 c 0,0.6325 0.39685,1.19055 1.02933,1.19055 0.23563,0 0.39686,-0.0744 0.55807,-0.23565 l 9.84689,-8.33383 9.99564,8.33383 c 0.1612,0.16128 0.39685,0.23565 0.55805,0.23565 0.6325,0 1.02935,-0.6325 1.02935,-1.1161 0,-0.39685 -0.1612,-0.70695 -0.39685,-0.94256 l -9.44996,-7.8626 9.44996,-7.93701 c 0.23565,-0.1612 0.39685,-0.55805 0.39685,-0.86815 0,-0.64488 -0.55805,-1.1161 -1.02935,-1.1161 -0.1612,0 -0.39685,0.0744 -0.55805,0.1612 l -9.99564,8.33387 -9.84689,-8.33387 c -0.16121,-0.0868 -0.39685,-0.1612 -0.63247,-0.1612 -0.55808,0 -0.95493,0.55805 -0.95493,1.02935 0,0.3224 0.16122,0.71925 0.39685,0.9549 l 9.45004,7.93701 -9.45004,7.8626 c -0.32244,0.23561 -0.39685,0.54571 -0.39685,0.86811"
     id="path230"
     inkscape:connector-curvature="0"
     style="stroke-width:0.79370099" />
  <path
     class="Note"
     d="m 1015.859,174.42771 c 0,0.6325 0.3969,1.19055 1.0293,1.19055 0.2357,0 0.3969,-0.0744 0.5581,-0.23565 l 9.8469,-8.33383 9.9956,8.33383 c 0.1612,0.16128 0.3969,0.23565 0.5581,0.23565 0.6325,0 1.0293,-0.6325 1.0293,-1.1161 0,-0.39685 -0.1612,-0.70695 -0.3968,-0.94256 l -9.45,-7.8626 9.45,-7.93701 c 0.2356,-0.1612 0.3968,-0.55805 0.3968,-0.86815 0,-0.64488 -0.558,-1.1161 -1.0293,-1.1161 -0.1612,0 -0.3969,0.0744 -0.5581,0.1612 l -9.9956,8.33387 -9.8469,-8.33387 c -0.1612,-0.0868 -0.3968,-0.1612 -0.6325,-0.1612 -0.558,0 -0.9549,0.55805 -0.9549,1.02935 0,0.3224 0.1612,0.71925 0.3969,0.9549 l 9.45,7.93701 -9.45,7.8626 c -0.3225,0.23561 -0.3969,0.54571 -0.3969,0.86811"
     id="path232"
     inkscape:connector-curvature="0"
     style="stroke-width:0.79370099" />
  <path
     class="Note"
     d="m 1076.229,109.90288 c 0,4.60098 3.8073,7.37893 8.5695,7.37893 7.8626,0 17.5483,-7.30452 17.5483,-14.84469 0,-4.43978 -3.5717,-7.378934 -8.6564,-7.378934 -9.6856,0 -17.4614,7.217714 -17.4614,14.844694"
     id="path234"
     inkscape:connector-curvature="0"
     style="stroke-width:0.79370099" />
  <path
     class="Note"
     d="m 1076.229,80.138879 c 0,4.600982 3.8073,7.378935 8.5695,7.378935 7.8626,0 17.5483,-7.304526 17.5483,-14.844693 0,-4.439781 -3.5717,-7.378935 -8.6564,-7.378935 -9.6856,0 -17.4614,7.217718 -17.4614,14.844693"
     id="path236"
     inkscape:connector-curvature="0"
     style="stroke-width:0.79370099" />
  <path
     class="Note"
     d="m 1142.809,174.42771 c 0,0.6325 0.3969,1.19055 1.0293,1.19055 0.2357,0 0.3969,-0.0744 0.5581,-0.23565 l 9.8469,-8.33383 9.9956,8.33383 c 0.1612,0.16128 0.3969,0.23565 0.5581,0.23565 0.6325,0 1.0293,-0.6325 1.0293,-1.1161 0,-0.39685 -0.1612,-0.70695 -0.3968,-0.94256 l -9.45,-7.8626 9.45,-7.93701 c 0.2356,-0.1612 0.3968,-0.55805 0.3968,-0.86815 0,-0.64488 -0.558,-1.1161 -1.0293,-1.1161 -0.1612,0 -0.3969,0.0744 -0.5581,0.1612 l -9.9956,8.33387 -9.8469,-8.33387 c -0.1612,-0.0868 -0.3968,-0.1612 -0.6325,-0.1612 -0.558,0 -0.9549,0.55805 -0.9549,1.02935 0,0.3224 0.1612,0.71925 0.3969,0.9549 l 9.45,7.93701 -9.45,7.8626 c -0.3225,0.23561 -0.3969,0.54571 -0.3969,0.86811"
     id="path238"
     inkscape:connector-curvature="0"
     style="stroke-width:0.79370099" />
  <path
     class="Note"
     d="m 1203.179,99.980879 c 0,4.600981 3.8073,7.378931 8.5695,7.378931 7.8626,0 17.5483,-7.30452 17.5483,-14.844689 0,-4.439781 -3.5717,-7.378935 -8.6564,-7.378935 -9.6856,0 -17.4614,7.217718 -17.4614,14.844693"
     id="path240"
     inkscape:connector-curvature="0"
     style="stroke-width:0.79370099" />
  <path
     class="Note"
     d="m 1203.179,70.217879 c 0,4.600982 3.8073,7.378935 8.5695,7.378935 7.8626,0 17.5483,-7.304526 17.5483,-14.844693 0,-4.439781 -3.5717,-7.378935 -8.6564,-7.378935 -9.6856,0 -17.4614,7.217718 -17.4614,14.844693"
     id="path242"
     inkscape:connector-curvature="0"
     style="stroke-width:0.79370099" />
  <path
     class="Note"
     d="m 1303.569,179.35088 c 0,4.60098 3.8073,7.37893 8.5695,7.37893 7.8626,0 17.5483,-7.30452 17.5483,-14.84469 0,-4.43978 -3.5717,-7.37893 -8.6564,-7.37893 -9.6856,0 -17.4614,7.21771 -17.4614,14.84469"
     id="path244"
     inkscape:connector-curvature="0"
     style="stroke-width:0.79370099" />
  <path
     class="Note"
     d="m 1370.789,179.35088 c 0,4.60098 3.8073,7.37893 8.5695,7.37893 7.8626,0 17.5483,-7.30452 17.5483,-14.84469 0,-4.43978 -3.5717,-7.37893 -8.6564,-7.37893 -9.6856,0 -17.4614,7.21771 -17.4614,14.84469"
     id="path246"
     inkscape:connector-curvature="0"
     style="stroke-width:0.79370099" />
  <path
     class="Note"
     d="m 1438.019,139.66588 c 0,4.60098 3.8073,7.37893 8.5695,7.37893 7.8626,0 17.5483,-7.30452 17.5483,-14.84469 0,-4.43978 -3.5717,-7.37893 -8.6564,-7.37893 -9.6856,0 -17.4614,7.21771 -17.4614,14.84469"
     id="path248"
     inkscape:connector-curvature="0"
     style="stroke-width:0.79370099" />
  <path
     class="Note"
     d="m 1438.019,109.90288 c 0,4.60098 3.8073,7.37893 8.5695,7.37893 7.8626,0 17.5483,-7.30452 17.5483,-14.84469 0,-4.43978 -3.5717,-7.378934 -8.6564,-7.378934 -9.6856,0 -17.4614,7.217714 -17.4614,14.844694"
     id="path250"
     inkscape:connector-curvature="0"
     style="stroke-width:0.79370099" />
  <path
     class="Note"
     d="m 1508.339,184.34871 c 0,0.6325 0.3969,1.19055 1.0293,1.19055 0.2357,0 0.3969,-0.0744 0.5581,-0.23565 l 9.8469,-8.33383 9.9956,8.33383 c 0.1612,0.16128 0.3969,0.23565 0.5581,0.23565 0.6325,0 1.0293,-0.6325 1.0293,-1.1161 0,-0.39685 -0.1612,-0.70695 -0.3968,-0.94256 l -9.45,-7.8626 9.45,-7.93701 c 0.2356,-0.1612 0.3968,-0.55805 0.3968,-0.86815 0,-0.64488 -0.558,-1.1161 -1.0293,-1.1161 -0.1612,0 -0.3969,0.0744 -0.5581,0.1612 l -9.9956,8.33387 -9.8469,-8.33387 c -0.1612,-0.0868 -0.3968,-0.1612 -0.6325,-0.1612 -0.558,0 -0.9549,0.55805 -0.9549,1.02935 0,0.3224 0.1612,0.71925 0.3969,0.9549 l 9.45,7.93701 -9.45,7.8626 c -0.3225,0.23561 -0.3969,0.54571 -0.3969,0.86811"
     id="path252"
     inkscape:connector-curvature="0"
     style="stroke-width:0.79370099" />
  <path
     class="Note"
     d="m 1575.569,184.34871 c 0,0.6325 0.3969,1.19055 1.0293,1.19055 0.2357,0 0.3969,-0.0744 0.5581,-0.23565 l 9.8469,-8.33383 9.9956,8.33383 c 0.1612,0.16128 0.3969,0.23565 0.5581,0.23565 0.6325,0 1.0293,-0.6325 1.0293,-1.1161 0,-0.39685 -0.1612,-0.70695 -0.3968,-0.94256 l -9.45,-7.8626 9.45,-7.93701 c 0.2356,-0.1612 0.3968,-0.55805 0.3968,-0.86815 0,-0.64488 -0.558,-1.1161 -1.0293,-1.1161 -0.1612,0 -0.3969,0.0744 -0.5581,0.1612 l -9.9956,8.33387 -9.8469,-8.33387 c -0.1612,-0.0868 -0.3968,-0.1612 -0.6325,-0.1612 -0.558,0 -0.9549,0.55805 -0.9549,1.02935 0,0.3224 0.1612,0.71925 0.3969,0.9549 l 9.45,7.93701 -9.45,7.8626 c -0.3225,0.23561 -0.3969,0.54571 -0.3969,0.86811"
     id="path254"
     inkscape:connector-curvature="0"
     style="stroke-width:0.79370099" />
  <path
     class="Note"
     d="m 1639.689,149.58788 c 0,4.60098 3.8073,7.37893 8.5695,7.37893 7.8626,0 17.5483,-7.30452 17.5483,-14.84469 0,-4.43978 -3.5717,-7.37893 -8.6564,-7.37893 -9.6856,0 -17.4614,7.21771 -17.4614,14.84469"
     id="path256"
     inkscape:connector-curvature="0"
     style="stroke-width:0.79370099" />
  <path
     class="Note"
     d="m 1639.689,119.82388 c 0,4.60098 3.8073,7.37893 8.5695,7.37893 7.8626,0 17.5483,-7.30452 17.5483,-14.84469 0,-4.43978 -3.5717,-7.37893 -8.6564,-7.37893 -9.6856,0 -17.4614,7.21771 -17.4614,14.84469"
     id="path258"
     inkscape:connector-curvature="0"
     style="stroke-width:0.79370099" />
  <path
     class="Note"
     d="m 1747.249,139.66588 c 0,4.60098 3.8073,7.37893 8.5695,7.37893 7.8626,0 17.5483,-7.30452 17.5483,-14.84469 0,-4.43978 -3.5717,-7.37893 -8.6564,-7.37893 -9.6856,0 -17.4614,7.21771 -17.4614,14.84469"
     id="path260"
     inkscape:connector-curvature="0"
     style="stroke-width:0.79370099" />
  <path
     class="Note"
     d="m 1747.249,109.90288 c 0,4.60098 3.8073,7.37893 8.5695,7.37893 7.8626,0 17.5483,-7.30452 17.5483,-14.84469 0,-4.43978 -3.5717,-7.378934 -8.6564,-7.378934 -9.6856,0 -17.4614,7.217714 -17.4614,14.844694"
     id="path262"
     inkscape:connector-curvature="0"
     style="stroke-width:0.79370099" />
  <path
     class="Note"
     d="m 1860.989,179.35088 c 0,4.60098 3.8073,7.37893 8.5695,7.37893 7.8626,0 17.5483,-7.30452 17.5483,-14.84469 0,-4.43978 -3.5717,-7.37893 -8.6564,-7.37893 -9.6856,0 -17.4614,7.21771 -17.4614,14.84469"
     id="path264"
     inkscape:connector-curvature="0"
     style="stroke-width:0.79370099" />
  <path
     class="Note"
     d="m 1933.769,179.35088 c 0,4.60098 3.8073,7.37893 8.5695,7.37893 7.8626,0 17.5483,-7.30452 17.5483,-14.84469 0,-4.43978 -3.5717,-7.37893 -8.6564,-7.37893 -9.6856,0 -17.4614,7.21771 -17.4614,14.84469"
     id="path266"
     inkscape:connector-curvature="0"
     style="stroke-width:0.79370099" />
  <path
     class="Note"
     d="m 2006.549,179.35088 c 0,4.60098 3.8073,7.37893 8.5695,7.37893 7.8626,0 17.5483,-7.30452 17.5483,-14.84469 0,-4.43978 -3.5717,-7.37893 -8.6564,-7.37893 -9.6856,0 -17.4614,7.21771 -17.4614,14.84469"
     id="path268"
     inkscape:connector-curvature="0"
     style="stroke-width:0.79370099" />
  <path
     class="Note"
     d="m 2006.549,139.66588 c 0,4.60098 3.8073,7.37893 8.5695,7.37893 7.8626,0 17.5483,-7.30452 17.5483,-14.84469 0,-4.43978 -3.5717,-7.37893 -8.6564,-7.37893 -9.6856,0 -17.4614,7.21771 -17.4614,14.84469"
     id="path270"
     inkscape:connector-curvature="0"
     style="stroke-width:0.79370099" />
  <path
     class="Note"
     d="m 2006.549,109.90288 c 0,4.60098 3.8073,7.37893 8.5695,7.37893 7.8626,0 17.5483,-7.30452 17.5483,-14.84469 0,-4.43978 -3.5717,-7.378934 -8.6564,-7.378934 -9.6856,0 -17.4614,7.217714 -17.4614,14.844694"
     id="path272"
     inkscape:connector-curvature="0"
     style="stroke-width:0.79370099" />
  <path
     class="Note"
     d="m 2122.999,179.35088 c 0,4.60098 3.8073,7.37893 8.5695,7.37893 7.8626,0 17.5483,-7.30452 17.5483,-14.84469 0,-4.43978 -3.5717,-7.37893 -8.6564,-7.37893 -9.6856,0 -17.4614,7.21771 -17.4614,14.84469"
     id="path274"
     inkscape:connector-curvature="0"
     style="stroke-width:0.79370099" />
  <path
     class="Note"
     d="m 2122.999,139.66588 c 0,4.60098 3.8073,7.37893 8.5695,7.37893 7.8626,0 17.5483,-7.30452 17.5483,-14.84469 0,-4.43978 -3.5717,-7.37893 -8.6564,-7.37893 -9.6856,0 -17.4614,7.21771 -17.4614,14.84469"
     id="path276"
     inkscape:connector-curvature="0"
     style="stroke-width:0.79370099" />
  <path
     class="Note"
     d="m 2122.999,109.90288 c 0,4.60098 3.8073,7.37893 8.5695,7.37893 7.8626,0 17.5483,-7.30452 17.5483,-14.84469 0,-4.43978 -3.5717,-7.378934 -8.6564,-7.378934 -9.6856,0 -17.4614,7.217714 -17.4614,14.844694"
     id="path278"
     inkscape:connector-curvature="0"
     style="stroke-width:0.79370099" />
  <path
     class="Note"
     d="m 2198.879,184.34871 c 0,0.6325 0.3969,1.19055 1.0293,1.19055 0.2357,0 0.3969,-0.0744 0.5581,-0.23565 l 9.8469,-8.33383 9.9956,8.33383 c 0.1612,0.16128 0.3969,0.23565 0.5581,0.23565 0.6325,0 1.0293,-0.6325 1.0293,-1.1161 0,-0.39685 -0.1612,-0.70695 -0.3968,-0.94256 l -9.45,-7.8626 9.45,-7.93701 c 0.2356,-0.1612 0.3968,-0.55805 0.3968,-0.86815 0,-0.64488 -0.558,-1.1161 -1.0293,-1.1161 -0.1612,0 -0.3969,0.0744 -0.5581,0.1612 l -9.9956,8.33387 -9.8469,-8.33387 c -0.1612,-0.0868 -0.3968,-0.1612 -0.6325,-0.1612 -0.558,0 -0.9549,0.55805 -0.9549,1.02935 0,0.3224 0.1612,0.71925 0.3969,0.9549 l 9.45,7.93701 -9.45,7.8626 c -0.3225,0.23561 -0.3969,0.54571 -0.3969,0.86811"
     id="path280"
     inkscape:connector-curvature="0"
     style="stroke-width:0.79370099" />
  <path
     class="Note"
     d="m 2271.659,184.34871 c 0,0.6325 0.3969,1.19055 1.0293,1.19055 0.2357,0 0.3969,-0.0744 0.5581,-0.23565 l 9.8469,-8.33383 9.9956,8.33383 c 0.1612,0.16128 0.3969,0.23565 0.5581,0.23565 0.6325,0 1.0293,-0.6325 1.0293,-1.1161 0,-0.39685 -0.1612,-0.70695 -0.3968,-0.94256 l -9.45,-7.8626 9.45,-7.93701 c 0.2356,-0.1612 0.3968,-0.55805 0.3968,-0.86815 0,-0.64488 -0.558,-1.1161 -1.0293,-1.1161 -0.1612,0 -0.3969,0.0744 -0.5581,0.1612 l -9.9956,8.33387 -9.8469,-8.33387 c -0.1612,-0.0868 -0.3968,-0.1612 -0.6325,-0.1612 -0.558,0 -0.9549,0.55805 -0.9549,1.02935 0,0.3224 0.1612,0.71925 0.3969,0.9549 l 9.45,7.93701 -9.45,7.8626 c -0.3225,0.23561 -0.3969,0.54571 -0.3969,0.86811"
     id="path282"
     inkscape:connector-curvature="0"
     style="stroke-width:0.79370099" />
  <path
     class="Note"
     d="m 2341.339,179.35088 c 0,4.60098 3.8073,7.37893 8.5695,7.37893 7.8626,0 17.5483,-7.30452 17.5483,-14.84469 0,-4.43978 -3.5717,-7.37893 -8.6564,-7.37893 -9.6856,0 -17.4614,7.21771 -17.4614,14.84469"
     id="path284"
     inkscape:connector-curvature="0"
     style="stroke-width:0.79370099" />
  <path
     class="Clef"
     d="m 15.874,99.262317 c 0,13.815363 9.450042,26.911413 28.895717,26.911413 1.822972,0 3.881674,-0.1612 5.469076,-0.48361 0.880532,-0.14882 1.041732,-0.23565 1.190551,0.71926 0.954902,5.32025 2.145454,12.22799 2.145454,15.96085 0,11.74431 -7.93701,13.17043 -12.612386,13.17043 -4.290985,0 -6.361989,-1.26492 -6.361989,-2.30665 0,-0.54567 0.719252,-0.7937 2.542303,-1.33937 2.467934,-0.71933 5.320258,-2.86479 5.320258,-7.46579 0,-4.36536 -2.777954,-8.09821 -7.61453,-8.09821 -5.320336,0 -8.49514,4.20415 -8.49514,9.12756 0,4.84904 2.691202,11.90551 12.860496,12.86042 -1.426202,0.86815 -2.219903,2.30673 -2.219903,4.12978 0,1.19055 0.31002,2.14545 0.94252,2.93916 0.396851,0.54566 0.558052,0.70687 -0.39685,1.10372 -2.542304,1.04173 -3.571655,2.77795 -3.571655,4.68783 0,2.61668 1.909804,4.68776 6.200789,4.68776 3.881675,0 7.217679,-1.98425 7.217679,-5.64274 0,-1.42612 -0.322401,-2.45547 -1.264921,-3.4972 -0.558051,-0.6325 -0.719331,-0.79371 0.23565,-1.265 2.145453,-1.11611 2.939154,-2.77796 2.939154,-4.20408 0,-1.5874 -0.793701,-2.93923 -2.467934,-3.65849 4.923407,-1.50057 10.243743,-5.46907 10.243743,-15.08031 0,-4.51418 -1.426201,-12.05434 -2.306733,-16.97775 -0.161201,-0.95498 -0.07437,-0.88053 1.029351,-1.35183 8.023841,-3.1748 13.344098,-9.92126 13.344098,-18.88758 0,-10.169334 -7.46579,-19.135616 -19.135655,-19.135616 -2.058622,0 -2.058622,0 -2.294272,-1.426201 L 45.724618,73.231409 c -0.1612,-0.954902 0,-1.029351 0.471221,-1.513033 8.56951,-8.011379 15.080319,-18.093843 15.080319,-30.235007 0,-6.90766 -1.909804,-13.740949 -5.159057,-18.503552 -1.190551,-1.735824 -3.249174,-3.968505 -4.129705,-3.968505 -1.103721,0 -3.571655,2.07156 -5.159057,3.820083 -5.865927,6.498427 -7.775809,16.419689 -7.775809,24.679101 0,4.601005 0.55813,9.760062 1.116181,13.021697 0.148819,0.954901 0.23565,1.10372 -0.719331,1.897421 C 28.015165,71.879656 15.874,83.227041 15.874,99.262317 m 6.349608,5.320283 c 0,-4.687799 0.793701,-10.950615 7.378959,-18.416326 4.762206,-5.320336 8.420691,-8.25949 12.153546,-11.273094 0.793701,-0.632421 0.94252,-0.558051 1.103721,0.322481 l 1.674233,10.156912 c 0.23565,1.512953 0.23565,1.426122 -1.190552,1.909804 -6.99449,2.381103 -11.521046,8.64388 -11.521046,15.390373 0,7.14331 3.732855,12.22796 9.139943,14.05101 0.632501,0.23565 1.587402,0.48368 2.133072,0.48368 0.644882,0 0.954902,-0.39685 0.954902,-0.88053 0,-0.55805 -0.632501,-0.7937 -1.190552,-1.02935 -3.336005,-1.42618 -5.717108,-4.83661 -5.717108,-8.49508 0,-4.52658 3.100355,-7.937013 7.93701,-9.288821 1.277383,-0.31002 1.438583,-0.235571 1.587402,0.644882 l 3.968505,23.649829 c 0.161201,0.86815 0.08683,0.86815 -1.10372,1.1038 -1.277383,0.24803 -2.864785,0.39685 -4.452187,0.39685 -13.889767,0 -22.856128,-7.68898 -22.856128,-18.72642 M 42.624184,51.3178 c 0,-12.376735 5.717187,-20.003726 10.553763,-20.003726 2.616753,0 4.762206,2.145454 4.762206,6.510809 0,8.817542 -7.540159,15.960851 -13.802937,21.429927 -0.558051,0.483682 -0.880531,0.396851 -1.041732,-0.6325 -0.31002,-2.058622 -0.4713,-4.762206 -0.4713,-7.30451 m 8.259491,45.563438 c 6.423978,0.558051 11.744314,5.952732 11.744314,12.934822 0,5.01028 -3.013603,9.05316 -7.465789,11.27306 -0.954902,0.48368 -1.103721,0.48368 -1.264922,-0.4713 L 50.003143,97.99734 c -0.161201,-0.954901 -0.07437,-1.190551 0.880532,-1.116102 M 37.068277,171.65033 c 0,-1.26492 0.558131,-3.08797 2.219903,-4.11732 0.39685,-0.24803 0.6325,-0.1612 1.190551,0.23565 2.542304,1.98425 3.174804,2.5423 3.174804,3.73285 0,2.05871 -1.500571,3.17481 -3.410454,3.17481 -2.381103,0 -3.174804,-1.5874 -3.174804,-3.02599 m 6.672089,-13.33171 c 1.897422,0 2.529922,1.265 2.529922,2.54238 0,1.35175 -0.54567,2.69112 -1.897422,3.64602 -0.32248,0.23565 -0.55813,0.23565 -1.190551,-0.1612 -1.823052,-1.4262 -2.467934,-2.13307 -2.467934,-3.24925 0,-1.7486 1.277382,-2.77795 3.025985,-2.77795"
     id="path286"
     inkscape:connector-curvature="0"
     style="stroke-width:0.79370099" />
  <path
     class="TimeSig"
     d="m 94.133907,100.77482 c 3.013603,3.6461 7.378963,5.32034 12.141163,5.32034 13.88977,0 15.96085,-12.624851 15.96085,-14.931545 0,-1.73622 -0.88053,-1.73622 -1.19055,-1.73622 -0.6325,0 -1.19055,0.07441 -1.19055,1.426185 0,10.23134 -8.73071,12.61244 -11.27309,12.61244 -6.43636,0 -9.846818,-6.262856 -9.846818,-19.358906 0,-13.096083 6.039588,-15.799587 10.318118,-15.799587 4.1297,0 5.80393,1.909803 5.80393,2.703504 0,0.70687 -0.24803,1.748603 -1.43858,1.748603 -3.1748,0 -4.99785,3.410454 -4.99785,5.865982 0,4.52658 3.89413,5.952758 6.11395,5.952758 0,0 6.02721,-0.235626 6.02721,-6.820884 0,-10.404944 -11.97996,-11.347464 -13.49292,-11.347464 -11.273052,0 -18.093919,9.995712 -18.093919,20.710675 0,5.159057 1.909843,9.685613 5.159056,13.654119"
     id="path288"
     inkscape:connector-curvature="0"
     style="stroke-width:0.79370099" />
  <path
     class="Beam"
     d="m 193.582,86.327 h 111.81 v 9.921 h -111.81 v -9.921"
     id="path290"
     inkscape:connector-curvature="0"
     style="fill-rule:evenodd" />
  <path
     class="Beam"
     d="m 257.057,101.209 h 48.335 v 9.921 h -48.335 v -9.921"
     id="path292"
     inkscape:connector-curvature="0"
     style="fill-rule:evenodd" />
  <path
     class="Beam"
     d="m 342.683,0 65.856,36.027 V 47.336 L 342.683,11.309 V 0"
     id="path294"
     inkscape:connector-curvature="0"
     style="fill-rule:evenodd" />
  <path
     class="Beam"
     d="M 469.633,57.172 535.489,21.145 V 32.454 L 469.633,68.481 V 57.172"
     id="path296"
     inkscape:connector-curvature="0"
     style="fill-rule:evenodd" />
  <path
     class="Beam"
     d="M 596.582,37.319 662.438,6.439 V 17.396 L 596.582,48.277 V 37.319"
     id="path298"
     inkscape:connector-curvature="0"
     style="fill-rule:evenodd" />
  <path
     class="Beam"
     d="m 760.439,86.327 h 111.81 v 9.921 h -111.81 v -9.921"
     id="path300"
     inkscape:connector-curvature="0"
     style="fill-rule:evenodd" />
  <path
     class="Beam"
     d="m 823.919,101.209 h 48.33 v 9.921 h -48.33 v -9.921"
     id="path302"
     inkscape:connector-curvature="0"
     style="fill-rule:evenodd" />
  <path
     class="Beam"
     d="m 909.539,0 65.86,36.027 V 47.336 L 909.539,11.309 V 0"
     id="path304"
     inkscape:connector-curvature="0"
     style="fill-rule:evenodd" />
  <path
     class="Beam"
     d="m 1036.489,57.172 65.86,-36.027 v 11.309 l -65.86,36.027 V 57.172"
     id="path306"
     inkscape:connector-curvature="0"
     style="fill-rule:evenodd" />
  <path
     class="Beam"
     d="m 1163.439,37.319 65.86,-30.88 v 10.957 l -65.86,30.881 V 37.319"
     id="path308"
     inkscape:connector-curvature="0"
     style="fill-rule:evenodd" />
  <path
     class="Beam"
     d="m 1327.299,86.327 h 69.6 v 9.921 h -69.6 v -9.921"
     id="path310"
     inkscape:connector-curvature="0"
     style="fill-rule:evenodd" />
  <path
     class="Beam"
     d="m 1461.749,40.767 69.6,20.545 v 10.345 l -69.6,-20.546 V 40.767"
     id="path312"
     inkscape:connector-curvature="0"
     style="fill-rule:evenodd" />
  <path
     class="Beam"
     d="m 1884.719,86.327 h 75.16 v 9.921 h -75.16 v -9.921"
     id="path314"
     inkscape:connector-curvature="0"
     style="fill-rule:evenodd" />
  <path
     class="Beam"
     d="m 2146.729,40.851 75.16,20.492 v 10.283 l -75.16,-20.491 V 40.851"
     id="path316"
     inkscape:connector-curvature="0"
     style="fill-rule:evenodd" />
  <path
     class="Beam"
     d="m 2292.289,86.327 h 75.16 v 9.921 h -75.16 v -9.921"
     id="path318"
     inkscape:connector-curvature="0"
     style="fill-rule:evenodd" />
  <path
     class="Hook"
     d="m 1611.8374,124.26345 c 1.1905,2.7035 1.8975,7.23014 1.8975,11.90551 0,3.57166 -0.5457,7.30451 -1.8975,10.87617 -0.1612,0.48368 -0.2356,0.88053 -0.2356,1.19055 0,1.27738 0.7937,1.98425 1.2649,2.30673 0.4713,0.3224 1.8231,-0.16128 2.2199,-1.51303 0,0 2.0711,-7.54016 2.0711,-13.72857 0,-9.92126 -4.1298,-19.28439 -9.1276,-27.2214 -4.0553,-6.27524 -7.3913,-13.096069 -8.6563,-20.723075 -0.2356,-1.264965 -0.8681,-1.748627 -1.6618,-1.748627 -0.8805,0 -1.513,0.248032 -1.513,1.190552 v 18.97441 c 5.2335,0.95491 12.7737,11.74432 15.6384,18.49078"
     id="path320"
     inkscape:connector-curvature="0"
     style="stroke-width:0.79370099" />
  <path
     class="Hook"
     d="m 1786.6174,77.137447 c 1.1905,2.703505 1.8975,7.23014 1.8975,11.905515 0,3.571655 -0.5457,7.30451 -1.8975,10.876165 -0.1612,0.483683 -0.2356,0.880533 -0.2356,1.190553 0,1.27738 0.7937,1.98425 1.2649,2.30673 0.4713,0.3224 1.8231,-0.16128 2.2199,-1.51303 0,0 2.0711,-7.54016 2.0711,-13.728568 0,-9.921262 -4.1298,-19.284394 -9.1276,-27.221404 -4.0553,-6.275238 -7.3913,-13.096067 -8.6563,-20.723073 -0.2356,-1.264965 -0.8681,-1.748627 -1.6618,-1.748627 -0.8805,0 -1.513,0.248032 -1.513,1.190552 v 18.974415 c 5.2335,0.954901 12.7737,11.744314 15.6384,18.490772"
     id="path322"
     inkscape:connector-curvature="0"
     style="stroke-width:0.79370099" />
</svg>
