<?xml version="1.0" encoding="UTF-8" standalone="no"?>
<svg
   xmlns:dc="http://purl.org/dc/elements/1.1/"
   xmlns:cc="http://creativecommons.org/ns#"
   xmlns:rdf="http://www.w3.org/1999/02/22-rdf-syntax-ns#"
   xmlns:svg="http://www.w3.org/2000/svg"
   xmlns="http://www.w3.org/2000/svg"
   xmlns:sodipodi="http://sodipodi.sourceforge.net/DTD/sodipodi-0.dtd"
   xmlns:inkscape="http://www.inkscape.org/namespaces/inkscape"
   width="2545.355"
   height="359.57114"
   viewBox="0 0 2545.355 359.57116"
   version="1.2"
   id="svg348"
   sodipodi:docname="Beethoven-Popsong-Groove-Drums-Bass-1.svg"
   inkscape:version="0.92.3 (2405546, 2018-03-11)">
  <metadata
     id="metadata354">
    <rdf:RDF>
      <cc:Work
         rdf:about="">
        <dc:format>image/svg+xml</dc:format>
        <dc:type
           rdf:resource="http://purl.org/dc/dcmitype/StillImage" />
      </cc:Work>
    </rdf:RDF>
  </metadata>
  <defs
     id="defs352" />
  <sodipodi:namedview
     pagecolor="#ffffff"
     bordercolor="#666666"
     borderopacity="1"
     objecttolerance="10"
     gridtolerance="10"
     guidetolerance="10"
     inkscape:pageopacity="0"
     inkscape:pageshadow="2"
     inkscape:window-width="679"
     inkscape:window-height="480"
     id="namedview350"
     showgrid="false"
     inkscape:zoom="0.065483132"
     inkscape:cx="1272.6"
     inkscape:cy="-1458.7187"
     inkscape:window-x="0"
     inkscape:window-y="0"
     inkscape:window-maximized="0"
     inkscape:current-layer="svg348" />
  <title
     id="title2">Beethoven-Popsong-Groove-Drums-Bass</title>
  <desc
     id="desc4">Generated by MuseScore 3.6.2</desc>
  <polyline
     class="StaffLines"
     points="288.441,280.63 2758.11,280.63"
     id="polyline6"
     style="fill:none;stroke:#000000;stroke-width:2.57999992;stroke-linejoin:bevel"
     transform="translate(-212.755,-279.34)" />
  <polyline
     class="StaffLines"
     points="288.441,300.473 2758.11,300.473"
     id="polyline8"
     style="fill:none;stroke:#000000;stroke-width:2.57999992;stroke-linejoin:bevel"
     transform="translate(-212.755,-279.34)" />
  <polyline
     class="StaffLines"
     points="288.441,320.315 2758.11,320.315"
     id="polyline10"
     style="fill:none;stroke:#000000;stroke-width:2.57999992;stroke-linejoin:bevel"
     transform="translate(-212.755,-279.34)" />
  <polyline
     class="StaffLines"
     points="288.441,340.158 2758.11,340.158"
     id="polyline12"
     style="fill:none;stroke:#000000;stroke-width:2.57999992;stroke-linejoin:bevel"
     transform="translate(-212.755,-279.34)" />
  <polyline
     class="StaffLines"
     points="288.441,360 2758.11,360"
     id="polyline14"
     style="fill:none;stroke:#000000;stroke-width:2.57999992;stroke-linejoin:bevel"
     transform="translate(-212.755,-279.34)" />
  <polyline
     class="StaffLines"
     points="288.441,498.898 2758.11,498.898"
     id="polyline16"
     style="fill:none;stroke:#000000;stroke-width:2.57999992;stroke-linejoin:bevel"
     transform="translate(-212.755,-279.34)" />
  <polyline
     class="StaffLines"
     points="288.441,518.74 2758.11,518.74"
     id="polyline18"
     style="fill:none;stroke:#000000;stroke-width:2.57999992;stroke-linejoin:bevel"
     transform="translate(-212.755,-279.34)" />
  <polyline
     class="StaffLines"
     points="288.441,538.583 2758.11,538.583"
     id="polyline20"
     style="fill:none;stroke:#000000;stroke-width:2.57999992;stroke-linejoin:bevel"
     transform="translate(-212.755,-279.34)" />
  <polyline
     class="StaffLines"
     points="288.441,558.425 2758.11,558.425"
     id="polyline22"
     style="fill:none;stroke:#000000;stroke-width:2.57999992;stroke-linejoin:bevel"
     transform="translate(-212.755,-279.34)" />
  <polyline
     class="StaffLines"
     points="288.441,578.268 2758.11,578.268"
     id="polyline24"
     style="fill:none;stroke:#000000;stroke-width:2.57999992;stroke-linejoin:bevel"
     transform="translate(-212.755,-279.34)" />
  <path
     class="InstrumentName"
     d="m 0,273.243 h 13.437 c 3.563,0 6.281,-0.563 8.406,-1.766 4.032,-2.281 6.282,-6.828 6.282,-12.828 0,-5.516 -2,-9.844 -5.688,-12.234 -2.203,-1.407 -5.156,-2.047 -9.719,-2.047 H 0 v 1.875 h 0.765 c 2.235,0.047 3,0.172 3.313,0.562 0.25,0.36 0.25,0.438 0.25,2.485 v 19.031 c 0,2.047 0,2.125 -0.25,2.484 -0.313,0.391 -1.078,0.516 -3.313,0.563 H 0 v 1.875 m 11.078,-1.875 c -2.031,0 -2.281,-0.25 -2.281,-2.203 v -20.672 c 0,-1.969 0.281,-2.25 2.281,-2.25 h 2.078 c 6.844,0 9.687,3.719 9.687,12.562 0,8.953 -2.562,12.563 -9.046,12.563 h -2.719 m 26.687,-16.766 -7.078,0.438 v 1.718 h 1.641 c 1.515,0.047 1.719,0.282 1.719,2 v 9.563 1.875 c -0.047,0.609 -0.079,0.844 -0.25,1.047 -0.282,0.359 -1.079,0.515 -2.797,0.562 h -0.157 v 1.438 h 10.672 v -1.438 h -0.718 c -2.672,-0.078 -3.032,-0.281 -3.032,-1.718 v -1.766 -0.391 c 0.032,-6.718 2.438,-11.843 5.563,-12 -0.563,0.641 -0.719,1.032 -0.719,1.797 0,1.281 0.906,2.203 2.188,2.203 1.484,0 2.437,-1.078 2.437,-2.687 0,-1.953 -1.359,-3.235 -3.469,-3.235 -2.531,0 -4.687,2 -6,5.563 v -4.969 m 12.563,14.203 c -1.406,0 -2.531,1.125 -2.531,2.485 0,1.39 1.125,2.515 2.484,2.515 1.406,0 2.516,-1.125 2.516,-2.515 0,-1.36 -1.11,-2.485 -2.469,-2.485"
     id="path26"
     inkscape:connector-curvature="0" />
  <path
     class="InstrumentName"
     d="m 20.047,26.1 v 1.875 h 0.718 c 2.282,0.047 3.032,0.172 3.36,0.563 0.234,0.359 0.234,0.437 0.234,2.484 v 19.031 c 0,2.047 0,2.125 -0.234,2.485 -0.328,0.39 -1.078,0.562 -3.36,0.562 h -0.718 v 1.875 h 14.515 c 6.922,0 11.078,-2.922 11.078,-7.844 0,-4 -2.515,-6.281 -8,-7.234 1.922,-0.406 2.797,-0.766 3.844,-1.516 1.641,-1.25 2.641,-3.203 2.641,-5.203 0,-2.594 -1.61,-5.125 -3.922,-6.125 C 38.765,26.413 36.765,26.1 34.406,26.1 H 20.047 m 8.796,13 v -9.125 c 0,-1.562 0.516,-1.953 2.641,-2 h 1.594 c 1.844,0 3.359,0.328 4.203,0.844 1.437,0.875 2.203,2.562 2.203,4.797 0,3.968 -1.922,5.484 -7.078,5.484 h -3.563 m 0,1.875 h 3.516 c 6.125,0 8.359,1.641 8.359,6.047 0,2.547 -0.875,4.391 -2.437,5.156 -1.234,0.641 -2.922,0.922 -5.438,0.922 h -1.687 c -2,0 -2.391,-0.406 -2.313,-2.531 v -9.594 m 24.485,9.563 c -1.406,0 -2.531,1.125 -2.531,2.484 0,1.391 1.125,2.516 2.484,2.516 1.406,0 2.516,-1.125 2.516,-2.516 0,-1.359 -1.11,-2.484 -2.469,-2.484"
     id="path28"
     inkscape:connector-curvature="0" />
  <path
     class="TieSegment"
     d="m 2180.275,261.425 c 4.76,5.556 19.04,5.556 23.81,0 -4.77,10.319 -19.05,10.319 -23.81,0"
     id="path30"
     inkscape:connector-curvature="0"
     style="fill-rule:evenodd;stroke:#000000;stroke-width:1.98000002;stroke-linecap:round;stroke-linejoin:round" />
  <path
     class="TieSegment"
     d="m 259.181,85.621 c 46.818,23.414 187.273,23.414 234.091,0 -46.818,28.176 -187.273,28.176 -234.091,0"
     id="path32"
     inkscape:connector-curvature="0"
     style="fill-rule:evenodd;stroke:#000000;stroke-width:1.98000002;stroke-linecap:round;stroke-linejoin:round" />
  <path
     class="TieSegment"
     d="m 772.001,85.621 c 51.904,23.414 207.604,23.414 259.504,0 -51.9,28.176 -207.6,28.176 -259.504,0"
     id="path34"
     inkscape:connector-curvature="0"
     style="fill-rule:evenodd;stroke:#000000;stroke-width:1.98000002;stroke-linecap:round;stroke-linejoin:round" />
  <path
     class="TieSegment"
     d="m 1365.345,95.542 c 47.69,23.414 190.77,23.414 238.46,0 -47.69,28.176 -190.77,28.176 -238.46,0"
     id="path36"
     inkscape:connector-curvature="0"
     style="fill-rule:evenodd;stroke:#000000;stroke-width:1.98000002;stroke-linecap:round;stroke-linejoin:round" />
  <path
     class="TieSegment"
     d="m 1914.265,95.542 c 60.42,23.414 241.67,23.414 302.09,0 -60.42,28.176 -241.67,28.176 -302.09,0"
     id="path38"
     inkscape:connector-curvature="0"
     style="fill-rule:evenodd;stroke:#000000;stroke-width:1.98000002;stroke-linecap:round;stroke-linejoin:round" />
  <polyline
     class="BarLine"
     points="290.028,497.608 290.028,579.558"
     id="polyline40"
     style="stroke:#000000;stroke-width:3.17000008;stroke-linejoin:bevel"
     transform="translate(-212.755,-279.34)" />
  <polyline
     class="BarLine"
     points="940.4,497.608 940.4,579.558"
     id="polyline42"
     style="stroke:#000000;stroke-width:3.17000008;stroke-linejoin:bevel"
     transform="translate(-212.755,-279.34)" />
  <polyline
     class="BarLine"
     points="1533.75,497.608 1533.75,579.558"
     id="polyline44"
     style="stroke:#000000;stroke-width:3.17000008;stroke-linejoin:bevel"
     transform="translate(-212.755,-279.34)" />
  <polyline
     class="BarLine"
     points="2082.66,497.608 2082.66,579.558"
     id="polyline46"
     style="stroke:#000000;stroke-width:3.17000008;stroke-linejoin:bevel"
     transform="translate(-212.755,-279.34)" />
  <polyline
     class="BarLine"
     points="2756.52,497.608 2756.52,579.558"
     id="polyline48"
     style="stroke:#000000;stroke-width:3.17000008;stroke-linejoin:bevel"
     transform="translate(-212.755,-279.34)" />
  <polyline
     class="BarLine"
     points="290.028,279.34 290.028,498.898"
     id="polyline50"
     style="stroke:#000000;stroke-width:3.17000008;stroke-linejoin:bevel"
     transform="translate(-212.755,-279.34)" />
  <polyline
     class="BarLine"
     points="940.4,279.34 940.4,361.29"
     id="polyline52"
     style="stroke:#000000;stroke-width:3.17000008;stroke-linejoin:bevel"
     transform="translate(-212.755,-279.34)" />
  <polyline
     class="BarLine"
     points="1533.75,279.34 1533.75,361.29"
     id="polyline54"
     style="stroke:#000000;stroke-width:3.17000008;stroke-linejoin:bevel"
     transform="translate(-212.755,-279.34)" />
  <polyline
     class="BarLine"
     points="2082.66,279.34 2082.66,361.29"
     id="polyline56"
     style="stroke:#000000;stroke-width:3.17000008;stroke-linejoin:bevel"
     transform="translate(-212.755,-279.34)" />
  <polyline
     class="BarLine"
     points="2756.52,279.34 2756.52,361.29"
     id="polyline58"
     style="stroke:#000000;stroke-width:3.17000008;stroke-linejoin:bevel"
     transform="translate(-212.755,-279.34)" />
  <path
     class="Accidental"
     d="m 1221.0575,88.522338 c 0.3224,0 1.823,-0.719291 2.071,-0.880516 0.074,0 0.1489,-0.07441 0.2357,-0.07441 0.558,0 1.0293,0.793701 1.0293,1.426185 v 7.862601 c 0,0.86811 -0.3968,1.587402 -0.8681,1.823012 -0.4837,0.16128 -2.1455,0.86815 -2.1455,0.86815 -0.558,0.161201 -0.9549,0.7937 -0.9549,1.27738 v 5.63028 c 0,0.4713 0.2356,0.71933 0.6325,0.71933 0.087,0 0.2356,-0.0868 0.3224,-0.0868 0,0 1.1038,-0.4713 1.8231,-0.70687 0.074,-0.0868 0.1612,-0.0868 0.2356,-0.0868 0.5581,0 0.9549,0.88053 0.9549,1.27738 v 9.75998 c 0,0.4713 0.4713,0.86815 1.0293,0.86815 0.7937,0 1.3518,-0.39685 1.3518,-0.86815 v -11.03736 c 0,-1.02935 0.3969,-1.5874 0.7937,-1.7486 l 4.8367,-1.98426 c 0.087,0 0.248,-0.0744 0.3224,-0.0744 0.6325,0 1.0293,0.9549 1.0293,1.4262 v 9.92126 c 0,0.48368 0.4837,0.88053 1.0294,0.88053 0.8804,0 1.3517,-0.39685 1.3517,-0.88053 v -11.27302 c 0,-0.6325 0.3224,-1.5874 0.8806,-1.82305 0.5456,-0.23565 2.2198,-0.868149 2.2198,-0.868149 0.5581,-0.23557 0.955,-0.880452 0.955,-1.351752 v -5.630316 c 0,-0.396851 -0.2481,-0.644883 -0.5582,-0.644883 -0.1612,0 -0.2355,0 -0.3968,0.08682 l -2.071,0.793701 c -0.4713,0 -1.0294,-0.483665 -1.0294,-1.426185 v -7.391341 c 0,-0.545669 0.3969,-2.058661 1.0294,-2.294311 l 2.071,-0.793701 c 0.5581,-0.23565 0.955,-0.880532 0.955,-1.351752 V 74.23568 c 0,-0.39685 -0.2481,-0.644882 -0.5582,-0.644882 -0.1612,0 -0.2355,0 -0.3968,0.08683 0,0 -1.5874,0.632501 -1.9843,0.70687 -0.558,0 -1.1161,-0.39685 -1.1161,-1.029271 v -9.685692 c 0,-0.47122 -0.4713,-0.868071 -1.1037,-0.868071 -0.7937,0 -1.2774,0.396851 -1.2774,0.868071 v 10.318113 c -0.074,0.793701 -0.31,1.835433 -1.0293,2.306733 -0.9549,0.558051 -3.6461,1.661772 -4.9979,1.984253 -0.7193,0 -0.9549,-0.954902 -0.9549,-1.587402 V 67.16682 c 0,-0.483682 -0.5581,-0.880532 -1.1161,-0.880532 -0.7937,0 -1.265,0.39685 -1.265,0.880532 v 10.714963 c 0,1.116102 -0.4713,1.909803 -0.9549,2.145453 -0.4713,0.23565 -2.0587,0.86815 -2.0587,0.86815 -0.558,0.161201 -0.9549,0.793701 -0.9549,1.277303 v 5.630357 c 0,0.471259 0.2356,0.719291 0.6325,0.719291 m 5.4815,4.439765 c 0,-2.455512 0.074,-5.233466 0.2356,-5.878348 0.1612,-1.33937 3.8073,-3.013587 5.7916,-3.013587 0.558,0 1.0293,0.161224 1.1905,0.483665 0.1612,0.396851 0.3224,2.381103 0.3224,4.514174 0,2.145473 -0.1612,4.365356 -0.3224,5.084648 -0.4713,1.587402 -4.2041,3.174804 -6.0272,3.174804 -0.4836,0 -0.8805,-0.161217 -0.9549,-0.396851 -0.1612,-0.322441 -0.2356,-2.058662 -0.2356,-3.968505"
     id="path60"
     inkscape:connector-curvature="0"
     style="stroke-width:0.79370099" />
  <polyline
     class="LedgerLine"
     points="2262.84,479.055 2301.72,479.055"
     id="polyline62"
     style="stroke:#000000;stroke-width:3.17000008;stroke-linejoin:bevel"
     transform="translate(-212.755,-279.34)" />
  <polyline
     class="LedgerLine"
     points="1301.44,379.843 1343.43,379.843"
     id="polyline64"
     style="stroke:#000000;stroke-width:3.17000008;stroke-linejoin:bevel"
     transform="translate(-212.755,-279.34)" />
  <polyline
     class="Stem"
     points="456.154,571.013 456.154,627.874"
     id="polyline66"
     style="stroke:#000000;stroke-width:2.38000011;stroke-linejoin:bevel"
     transform="translate(-212.755,-279.34)" />
  <polyline
     class="Stem"
     points="523.355,571.013 523.355,627.874"
     id="polyline68"
     style="stroke:#000000;stroke-width:2.38000011;stroke-linejoin:bevel"
     transform="translate(-212.755,-279.34)" />
  <polyline
     class="Stem"
     points="590.556,531.328 590.556,593.15"
     id="polyline70"
     style="stroke:#000000;stroke-width:2.38000011;stroke-linejoin:bevel"
     transform="translate(-212.755,-279.34)" />
  <polyline
     class="Stem"
     points="765.28,571.013 765.28,637.795"
     id="polyline72"
     style="stroke:#000000;stroke-width:2.38000011;stroke-linejoin:bevel"
     transform="translate(-212.755,-279.34)" />
  <polyline
     class="Stem"
     points="832.481,531.328 832.481,593.15"
     id="polyline74"
     style="stroke:#000000;stroke-width:2.38000011;stroke-linejoin:bevel"
     transform="translate(-212.755,-279.34)" />
  <polyline
     class="Stem"
     points="968.974,571.013 968.974,627.874"
     id="polyline76"
     style="stroke:#000000;stroke-width:2.38000011;stroke-linejoin:bevel"
     transform="translate(-212.755,-279.34)" />
  <polyline
     class="Stem"
     points="1043.23,571.013 1043.23,627.874"
     id="polyline78"
     style="stroke:#000000;stroke-width:2.38000011;stroke-linejoin:bevel"
     transform="translate(-212.755,-279.34)" />
  <polyline
     class="Stem"
     points="1117.49,531.328 1117.49,593.15"
     id="polyline80"
     style="stroke:#000000;stroke-width:2.38000011;stroke-linejoin:bevel"
     transform="translate(-212.755,-279.34)" />
  <polyline
     class="Stem"
     points="1310.57,571.013 1310.57,622.913"
     id="polyline82"
     style="stroke:#000000;stroke-width:2.38000011;stroke-linejoin:bevel"
     transform="translate(-212.755,-279.34)" />
  <polyline
     class="Stem"
     points="1384.83,531.328 1384.83,622.913"
     id="polyline84"
     style="stroke:#000000;stroke-width:2.38000011;stroke-linejoin:bevel"
     transform="translate(-212.755,-279.34)" />
  <polyline
     class="Stem"
     points="1459.09,571.013 1459.09,622.913"
     id="polyline86"
     style="stroke:#000000;stroke-width:2.38000011;stroke-linejoin:bevel"
     transform="translate(-212.755,-279.34)" />
  <polyline
     class="Stem"
     points="1562.32,571.013 1562.32,627.874"
     id="polyline88"
     style="stroke:#000000;stroke-width:2.38000011;stroke-linejoin:bevel"
     transform="translate(-212.755,-279.34)" />
  <polyline
     class="Stem"
     points="1630.73,571.013 1630.73,627.874"
     id="polyline90"
     style="stroke:#000000;stroke-width:2.38000011;stroke-linejoin:bevel"
     transform="translate(-212.755,-279.34)" />
  <polyline
     class="Stem"
     points="1699.15,531.328 1699.15,593.15"
     id="polyline92"
     style="stroke:#000000;stroke-width:2.38000011;stroke-linejoin:bevel"
     transform="translate(-212.755,-279.34)" />
  <polyline
     class="Stem"
     points="1877.02,571.013 1877.02,622.913"
     id="polyline94"
     style="stroke:#000000;stroke-width:2.38000011;stroke-linejoin:bevel"
     transform="translate(-212.755,-279.34)" />
  <polyline
     class="Stem"
     points="1945.44,531.328 1945.44,598.11"
     id="polyline96"
     style="stroke:#000000;stroke-width:2.38000011;stroke-linejoin:bevel"
     transform="translate(-212.755,-279.34)" />
  <polyline
     class="Stem"
     points="2111.24,571.013 2111.24,627.874"
     id="polyline98"
     style="stroke:#000000;stroke-width:2.38000011;stroke-linejoin:bevel"
     transform="translate(-212.755,-279.34)" />
  <polyline
     class="Stem"
     points="2190.05,571.013 2190.05,627.874"
     id="polyline100"
     style="stroke:#000000;stroke-width:2.38000011;stroke-linejoin:bevel"
     transform="translate(-212.755,-279.34)" />
  <polyline
     class="Stem"
     points="2268.87,531.328 2268.87,593.15"
     id="polyline102"
     style="stroke:#000000;stroke-width:2.38000011;stroke-linejoin:bevel"
     transform="translate(-212.755,-279.34)" />
  <polyline
     class="Stem"
     points="2364.97,531.328 2364.97,593.15"
     id="polyline104"
     style="stroke:#000000;stroke-width:2.38000011;stroke-linejoin:bevel"
     transform="translate(-212.755,-279.34)" />
  <polyline
     class="Stem"
     points="2421.16,531.328 2421.16,583.228"
     id="polyline106"
     style="stroke:#000000;stroke-width:2.38000011;stroke-linejoin:bevel"
     transform="translate(-212.755,-279.34)" />
  <polyline
     class="Stem"
     points="2499.98,501.565 2499.98,563.386"
     id="polyline108"
     style="stroke:#000000;stroke-width:2.38000011;stroke-linejoin:bevel"
     transform="translate(-212.755,-279.34)" />
  <polyline
     class="Stem"
     points="2578.79,511.486 2578.79,573.307"
     id="polyline110"
     style="stroke:#000000;stroke-width:2.38000011;stroke-linejoin:bevel"
     transform="translate(-212.755,-279.34)" />
  <polyline
     class="Stem"
     points="2628.05,511.486 2628.05,575.787"
     id="polyline112"
     style="stroke:#000000;stroke-width:2.38000011;stroke-linejoin:bevel"
     transform="translate(-212.755,-279.34)" />
  <polyline
     class="Stem"
     points="2677.31,521.407 2677.31,578.268"
     id="polyline114"
     style="stroke:#000000;stroke-width:2.38000011;stroke-linejoin:bevel"
     transform="translate(-212.755,-279.34)" />
  <polyline
     class="Stem"
     points="479.884,481.928 479.884,439.37"
     id="polyline116"
     style="stroke:#000000;stroke-width:2.38000011;stroke-linejoin:bevel"
     transform="translate(-212.755,-279.34)" />
  <polyline
     class="Stem"
     points="614.287,481.928 614.287,439.37"
     id="polyline118"
     style="stroke:#000000;stroke-width:2.38000011;stroke-linejoin:bevel"
     transform="translate(-212.755,-279.34)" />
  <polyline
     class="Stem"
     points="721.809,481.928 721.809,439.37"
     id="polyline120"
     style="stroke:#000000;stroke-width:2.38000011;stroke-linejoin:bevel"
     transform="translate(-212.755,-279.34)" />
  <polyline
     class="Stem"
     points="856.212,481.928 856.212,439.37"
     id="polyline122"
     style="stroke:#000000;stroke-width:2.38000011;stroke-linejoin:bevel"
     transform="translate(-212.755,-279.34)" />
  <polyline
     class="Stem"
     points="992.704,481.928 992.704,439.37"
     id="polyline124"
     style="stroke:#000000;stroke-width:2.38000011;stroke-linejoin:bevel"
     transform="translate(-212.755,-279.34)" />
  <polyline
     class="Stem"
     points="1141.22,481.928 1141.22,439.37"
     id="polyline126"
     style="stroke:#000000;stroke-width:2.38000011;stroke-linejoin:bevel"
     transform="translate(-212.755,-279.34)" />
  <polyline
     class="Stem"
     points="1260.04,481.928 1260.04,439.37"
     id="polyline128"
     style="stroke:#000000;stroke-width:2.38000011;stroke-linejoin:bevel"
     transform="translate(-212.755,-279.34)" />
  <polyline
     class="Stem"
     points="1408.56,481.928 1408.56,439.37"
     id="polyline130"
     style="stroke:#000000;stroke-width:2.38000011;stroke-linejoin:bevel"
     transform="translate(-212.755,-279.34)" />
  <polyline
     class="Stem"
     points="1586.05,481.928 1586.05,439.37"
     id="polyline132"
     style="stroke:#000000;stroke-width:2.38000011;stroke-linejoin:bevel"
     transform="translate(-212.755,-279.34)" />
  <polyline
     class="Stem"
     points="1722.88,481.928 1722.88,439.37"
     id="polyline134"
     style="stroke:#000000;stroke-width:2.38000011;stroke-linejoin:bevel"
     transform="translate(-212.755,-279.34)" />
  <polyline
     class="Stem"
     points="1832.34,481.928 1832.34,439.37"
     id="polyline136"
     style="stroke:#000000;stroke-width:2.38000011;stroke-linejoin:bevel"
     transform="translate(-212.755,-279.34)" />
  <polyline
     class="Stem"
     points="1969.17,481.928 1969.17,439.37"
     id="polyline138"
     style="stroke:#000000;stroke-width:2.38000011;stroke-linejoin:bevel"
     transform="translate(-212.755,-279.34)" />
  <polyline
     class="Stem"
     points="2134.97,481.928 2134.97,439.37"
     id="polyline140"
     style="stroke:#000000;stroke-width:2.38000011;stroke-linejoin:bevel"
     transform="translate(-212.755,-279.34)" />
  <polyline
     class="Stem"
     points="2292.6,472.007 2292.6,431.929"
     id="polyline142"
     style="stroke:#000000;stroke-width:2.38000011;stroke-linejoin:bevel"
     transform="translate(-212.755,-279.34)" />
  <polyline
     class="Stem"
     points="479.884,347.412 479.884,280.63"
     id="polyline144"
     style="stroke:#000000;stroke-width:2.38000011;stroke-linejoin:bevel"
     transform="translate(-212.755,-279.34)" />
  <polyline
     class="Stem"
     points="721.809,347.412 721.809,285.591"
     id="polyline146"
     style="stroke:#000000;stroke-width:2.38000011;stroke-linejoin:bevel"
     transform="translate(-212.755,-279.34)" />
  <polyline
     class="Stem"
     points="789.01,347.412 789.01,285.591"
     id="polyline148"
     style="stroke:#000000;stroke-width:2.38000011;stroke-linejoin:bevel"
     transform="translate(-212.755,-279.34)" />
  <polyline
     class="Stem"
     points="856.212,347.412 856.212,280.63"
     id="polyline150"
     style="stroke:#000000;stroke-width:2.38000011;stroke-linejoin:bevel"
     transform="translate(-212.755,-279.34)" />
  <polyline
     class="Stem"
     points="992.704,347.412 992.704,280.63"
     id="polyline152"
     style="stroke:#000000;stroke-width:2.38000011;stroke-linejoin:bevel"
     transform="translate(-212.755,-279.34)" />
  <polyline
     class="Stem"
     points="1260.04,347.412 1260.04,295.512"
     id="polyline154"
     style="stroke:#000000;stroke-width:2.38000011;stroke-linejoin:bevel"
     transform="translate(-212.755,-279.34)" />
  <polyline
     class="Stem"
     points="1334.3,377.176 1334.3,315.354"
     id="polyline156"
     style="stroke:#000000;stroke-width:2.38000011;stroke-linejoin:bevel"
     transform="translate(-212.755,-279.34)" />
  <polyline
     class="Stem"
     points="1408.56,367.255 1408.56,305.433"
     id="polyline158"
     style="stroke:#000000;stroke-width:2.38000011;stroke-linejoin:bevel"
     transform="translate(-212.755,-279.34)" />
  <polyline
     class="Stem"
     points="1482.82,367.255 1482.82,305.433"
     id="polyline160"
     style="stroke:#000000;stroke-width:2.38000011;stroke-linejoin:bevel"
     transform="translate(-212.755,-279.34)" />
  <polyline
     class="Stem"
     points="1586.05,357.333 1586.05,290.551"
     id="polyline162"
     style="stroke:#000000;stroke-width:2.38000011;stroke-linejoin:bevel"
     transform="translate(-212.755,-279.34)" />
  <polyline
     class="Stem"
     points="1832.34,357.333 1832.34,300.473"
     id="polyline164"
     style="stroke:#000000;stroke-width:2.38000011;stroke-linejoin:bevel"
     transform="translate(-212.755,-279.34)" />
  <polyline
     class="Stem"
     points="1900.75,357.333 1900.75,300.473"
     id="polyline166"
     style="stroke:#000000;stroke-width:2.38000011;stroke-linejoin:bevel"
     transform="translate(-212.755,-279.34)" />
  <polyline
     class="Stem"
     points="1969.17,357.333 1969.17,290.551"
     id="polyline168"
     style="stroke:#000000;stroke-width:2.38000011;stroke-linejoin:bevel"
     transform="translate(-212.755,-279.34)" />
  <polyline
     class="Stem"
     points="2134.97,357.333 2134.97,290.551"
     id="polyline170"
     style="stroke:#000000;stroke-width:2.38000011;stroke-linejoin:bevel"
     transform="translate(-212.755,-279.34)" />
  <polyline
     class="Stem"
     points="2444.89,357.333 2444.89,300.473"
     id="polyline172"
     style="stroke:#000000;stroke-width:2.38000011;stroke-linejoin:bevel"
     transform="translate(-212.755,-279.34)" />
  <polyline
     class="Stem"
     points="2523.71,357.333 2523.71,300.473"
     id="polyline174"
     style="stroke:#000000;stroke-width:2.38000011;stroke-linejoin:bevel"
     transform="translate(-212.755,-279.34)" />
  <polyline
     class="Stem"
     points="2602.52,357.333 2602.52,300.473"
     id="polyline176"
     style="stroke:#000000;stroke-width:2.38000011;stroke-linejoin:bevel"
     transform="translate(-212.755,-279.34)" />
  <polyline
     class="Stem"
     points="2701.04,357.333 2701.04,300.473"
     id="polyline178"
     style="stroke:#000000;stroke-width:2.38000011;stroke-linejoin:bevel"
     transform="translate(-212.755,-279.34)" />
  <path
     class="Note"
     d="m 242.208,292.73988 c 0,4.60098 3.80729,7.37893 8.56951,7.37893 7.86256,0 17.54825,-7.30452 17.54825,-14.84469 0,-4.43978 -3.57165,-7.37893 -8.65634,-7.37893 -9.68563,0 -17.46142,7.21771 -17.46142,14.84469"
     id="path180"
     inkscape:connector-curvature="0"
     style="stroke-width:0.79370099" />
  <path
     class="Note"
     d="m 309.409,292.73988 c 0,4.60098 3.80729,7.37893 8.56951,7.37893 7.86256,0 17.54825,-7.30452 17.54825,-14.84469 0,-4.43978 -3.57165,-7.37893 -8.65634,-7.37893 -9.68563,0 -17.46142,7.21771 -17.46142,14.84469"
     id="path182"
     inkscape:connector-curvature="0"
     style="stroke-width:0.79370099" />
  <path
     class="Note"
     d="m 376.611,253.05388 c 0,4.60098 3.80729,7.37893 8.56951,7.37893 7.86256,0 17.54825,-7.30452 17.54825,-14.84469 0,-4.43978 -3.57165,-7.37893 -8.65634,-7.37893 -9.68563,0 -17.46142,7.21771 -17.46142,14.84469"
     id="path184"
     inkscape:connector-curvature="0"
     style="stroke-width:0.79370099" />
  <path
     class="Note"
     d="m 551.334,292.73988 c 0,4.60098 3.80729,7.37893 8.56951,7.37893 7.86256,0 17.54825,-7.30452 17.54825,-14.84469 0,-4.43978 -3.57165,-7.37893 -8.65634,-7.37893 -9.68563,0 -17.46142,7.21771 -17.46142,14.84469"
     id="path186"
     inkscape:connector-curvature="0"
     style="stroke-width:0.79370099" />
  <path
     class="Note"
     d="m 618.536,253.05388 c 0,4.60098 3.80729,7.37893 8.56951,7.37893 7.86256,0 17.54825,-7.30452 17.54825,-14.84469 0,-4.43978 -3.57165,-7.37893 -8.65634,-7.37893 -9.68563,0 -17.46142,7.21771 -17.46142,14.84469"
     id="path188"
     inkscape:connector-curvature="0"
     style="stroke-width:0.79370099" />
  <path
     class="Note"
     d="m 755.028,292.73988 c 0,4.60098 3.80729,7.37893 8.56951,7.37893 7.86256,0 17.54825,-7.30452 17.54825,-14.84469 0,-4.43978 -3.57165,-7.37893 -8.65634,-7.37893 -9.68563,0 -17.46142,7.21771 -17.46142,14.84469"
     id="path190"
     inkscape:connector-curvature="0"
     style="stroke-width:0.79370099" />
  <path
     class="Note"
     d="m 829.285,292.73988 c 0,4.60098 3.80729,7.37893 8.56951,7.37893 7.86256,0 17.54825,-7.30452 17.54825,-14.84469 0,-4.43978 -3.57165,-7.37893 -8.65634,-7.37893 -9.68563,0 -17.46142,7.21771 -17.46142,14.84469"
     id="path192"
     inkscape:connector-curvature="0"
     style="stroke-width:0.79370099" />
  <path
     class="Note"
     d="m 903.545,253.05388 c 0,4.60098 3.80729,7.37893 8.56951,7.37893 7.86256,0 17.54825,-7.30452 17.54825,-14.84469 0,-4.43978 -3.57165,-7.37893 -8.65634,-7.37893 -9.68563,0 -17.46142,7.21771 -17.46142,14.84469"
     id="path194"
     inkscape:connector-curvature="0"
     style="stroke-width:0.79370099" />
  <path
     class="Note"
     d="m 1096.625,292.73988 c 0,4.60098 3.8073,7.37893 8.5695,7.37893 7.8626,0 17.5483,-7.30452 17.5483,-14.84469 0,-4.43978 -3.5717,-7.37893 -8.6564,-7.37893 -9.6856,0 -17.4614,7.21771 -17.4614,14.84469"
     id="path196"
     inkscape:connector-curvature="0"
     style="stroke-width:0.79370099" />
  <path
     class="Note"
     d="m 1170.885,253.05388 c 0,4.60098 3.8073,7.37893 8.5695,7.37893 7.8626,0 17.5483,-7.30452 17.5483,-14.84469 0,-4.43978 -3.5717,-7.37893 -8.6564,-7.37893 -9.6856,0 -17.4614,7.21771 -17.4614,14.84469"
     id="path198"
     inkscape:connector-curvature="0"
     style="stroke-width:0.79370099" />
  <path
     class="Note"
     d="m 1245.145,292.73988 c 0,4.60098 3.8073,7.37893 8.5695,7.37893 7.8626,0 17.5483,-7.30452 17.5483,-14.84469 0,-4.43978 -3.5717,-7.37893 -8.6564,-7.37893 -9.6856,0 -17.4614,7.21771 -17.4614,14.84469"
     id="path200"
     inkscape:connector-curvature="0"
     style="stroke-width:0.79370099" />
  <path
     class="Note"
     d="m 1348.375,292.73988 c 0,4.60098 3.8073,7.37893 8.5695,7.37893 7.8626,0 17.5483,-7.30452 17.5483,-14.84469 0,-4.43978 -3.5717,-7.37893 -8.6564,-7.37893 -9.6856,0 -17.4614,7.21771 -17.4614,14.84469"
     id="path202"
     inkscape:connector-curvature="0"
     style="stroke-width:0.79370099" />
  <path
     class="Note"
     d="m 1416.785,292.73988 c 0,4.60098 3.8073,7.37893 8.5695,7.37893 7.8626,0 17.5483,-7.30452 17.5483,-14.84469 0,-4.43978 -3.5717,-7.37893 -8.6564,-7.37893 -9.6856,0 -17.4614,7.21771 -17.4614,14.84469"
     id="path204"
     inkscape:connector-curvature="0"
     style="stroke-width:0.79370099" />
  <path
     class="Note"
     d="m 1485.205,253.05388 c 0,4.60098 3.8073,7.37893 8.5695,7.37893 7.8626,0 17.5483,-7.30452 17.5483,-14.84469 0,-4.43978 -3.5717,-7.37893 -8.6564,-7.37893 -9.6856,0 -17.4614,7.21771 -17.4614,14.84469"
     id="path206"
     inkscape:connector-curvature="0"
     style="stroke-width:0.79370099" />
  <path
     class="Note"
     d="m 1663.075,292.73988 c 0,4.60098 3.8073,7.37893 8.5695,7.37893 7.8626,0 17.5483,-7.30452 17.5483,-14.84469 0,-4.43978 -3.5717,-7.37893 -8.6564,-7.37893 -9.6856,0 -17.4614,7.21771 -17.4614,14.84469"
     id="path208"
     inkscape:connector-curvature="0"
     style="stroke-width:0.79370099" />
  <path
     class="Note"
     d="m 1731.495,253.05388 c 0,4.60098 3.8073,7.37893 8.5695,7.37893 7.8626,0 17.5483,-7.30452 17.5483,-14.84469 0,-4.43978 -3.5717,-7.37893 -8.6564,-7.37893 -9.6856,0 -17.4614,7.21771 -17.4614,14.84469"
     id="path210"
     inkscape:connector-curvature="0"
     style="stroke-width:0.79370099" />
  <path
     class="Note"
     d="m 1897.295,292.73988 c 0,4.60098 3.8073,7.37893 8.5695,7.37893 7.8626,0 17.5483,-7.30452 17.5483,-14.84469 0,-4.43978 -3.5717,-7.37893 -8.6564,-7.37893 -9.6856,0 -17.4614,7.21771 -17.4614,14.84469"
     id="path212"
     inkscape:connector-curvature="0"
     style="stroke-width:0.79370099" />
  <path
     class="Note"
     d="m 1976.105,292.73988 c 0,4.60098 3.8073,7.37893 8.5695,7.37893 7.8626,0 17.5483,-7.30452 17.5483,-14.84469 0,-4.43978 -3.5717,-7.37893 -8.6564,-7.37893 -9.6856,0 -17.4614,7.21771 -17.4614,14.84469"
     id="path214"
     inkscape:connector-curvature="0"
     style="stroke-width:0.79370099" />
  <path
     class="Note"
     d="m 2054.925,253.05388 c 0,4.60098 3.8073,7.37893 8.5695,7.37893 7.8626,0 17.5483,-7.30452 17.5483,-14.84469 0,-4.43978 -3.5717,-7.37893 -8.6564,-7.37893 -9.6856,0 -17.4614,7.21771 -17.4614,14.84469"
     id="path216"
     inkscape:connector-curvature="0"
     style="stroke-width:0.79370099" />
  <path
     class="Note"
     d="m 2151.025,253.05388 c 0,4.60098 3.8073,7.37893 8.5695,7.37893 7.8626,0 17.5483,-7.30452 17.5483,-14.84469 0,-4.43978 -3.5717,-7.37893 -8.6564,-7.37893 -9.6856,0 -17.4614,7.21771 -17.4614,14.84469"
     id="path218"
     inkscape:connector-curvature="0"
     style="stroke-width:0.79370099" />
  <path
     class="Note"
     d="m 2207.215,253.05388 c 0,4.60098 3.8073,7.37893 8.5695,7.37893 7.8626,0 17.5483,-7.30452 17.5483,-14.84469 0,-4.43978 -3.5717,-7.37893 -8.6564,-7.37893 -9.6856,0 -17.4614,7.21771 -17.4614,14.84469"
     id="path220"
     inkscape:connector-curvature="0"
     style="stroke-width:0.79370099" />
  <path
     class="Note"
     d="m 2286.035,223.29088 c 0,4.60098 3.8073,7.37893 8.5695,7.37893 7.8626,0 17.5483,-7.30452 17.5483,-14.84469 0,-4.43978 -3.5717,-7.37893 -8.6564,-7.37893 -9.6856,0 -17.4614,7.21771 -17.4614,14.84469"
     id="path222"
     inkscape:connector-curvature="0"
     style="stroke-width:0.79370099" />
  <path
     class="Note"
     d="m 2364.845,233.21188 c 0,4.60098 3.8073,7.37893 8.5695,7.37893 7.8626,0 17.5483,-7.30452 17.5483,-14.84469 0,-4.43978 -3.5717,-7.37893 -8.6564,-7.37893 -9.6856,0 -17.4614,7.21771 -17.4614,14.84469"
     id="path224"
     inkscape:connector-curvature="0"
     style="stroke-width:0.79370099" />
  <path
     class="Note"
     d="m 2414.105,233.21188 c 0,4.60098 3.8073,7.37893 8.5695,7.37893 7.8626,0 17.5483,-7.30452 17.5483,-14.84469 0,-4.43978 -3.5717,-7.37893 -8.6564,-7.37893 -9.6856,0 -17.4614,7.21771 -17.4614,14.84469"
     id="path226"
     inkscape:connector-curvature="0"
     style="stroke-width:0.79370099" />
  <path
     class="Note"
     d="m 2463.365,243.13288 c 0,4.60098 3.8073,7.37893 8.5695,7.37893 7.8626,0 17.5483,-7.30452 17.5483,-14.84469 0,-4.43978 -3.5717,-7.37893 -8.6564,-7.37893 -9.6856,0 -17.4614,7.21771 -17.4614,14.84469"
     id="path228"
     inkscape:connector-curvature="0"
     style="stroke-width:0.79370099" />
  <path
     class="Note"
     d="m 245.308,218.36671 c 0,0.6325 0.39685,1.19055 1.02933,1.19055 0.23563,0 0.39686,-0.0744 0.55807,-0.23565 l 9.84689,-8.33383 9.99564,8.33383 c 0.1612,0.16128 0.39685,0.23565 0.55805,0.23565 0.6325,0 1.02935,-0.6325 1.02935,-1.1161 0,-0.39685 -0.1612,-0.70695 -0.39685,-0.94256 l -9.44996,-7.8626 9.44996,-7.93701 c 0.23565,-0.1612 0.39685,-0.55805 0.39685,-0.86815 0,-0.64488 -0.55805,-1.1161 -1.02935,-1.1161 -0.1612,0 -0.39685,0.0744 -0.55805,0.1612 l -9.99564,8.33387 -9.84689,-8.33387 c -0.16121,-0.0868 -0.39685,-0.1612 -0.63247,-0.1612 -0.55808,0 -0.95493,0.55805 -0.95493,1.02935 0,0.3224 0.16122,0.71925 0.39685,0.9549 l 9.45004,7.93701 -9.45004,7.8626 c -0.32244,0.23561 -0.39685,0.54571 -0.39685,0.86811"
     id="path230"
     inkscape:connector-curvature="0"
     style="stroke-width:0.79370099" />
  <path
     class="Note"
     d="m 379.711,218.36671 c 0,0.6325 0.39685,1.19055 1.02933,1.19055 0.23563,0 0.39686,-0.0744 0.55807,-0.23565 l 9.84689,-8.33383 9.99564,8.33383 c 0.1612,0.16128 0.39685,0.23565 0.55805,0.23565 0.6325,0 1.02935,-0.6325 1.02935,-1.1161 0,-0.39685 -0.1612,-0.70695 -0.39685,-0.94256 l -9.44996,-7.8626 9.44996,-7.93701 c 0.23565,-0.1612 0.39685,-0.55805 0.39685,-0.86815 0,-0.64488 -0.55805,-1.1161 -1.02935,-1.1161 -0.1612,0 -0.39685,0.0744 -0.55805,0.1612 l -9.99564,8.33387 -9.84689,-8.33387 c -0.16121,-0.0868 -0.39685,-0.1612 -0.63247,-0.1612 -0.55808,0 -0.95493,0.55805 -0.95493,1.02935 0,0.3224 0.16122,0.71925 0.39685,0.9549 l 9.45004,7.93701 -9.45004,7.8626 c -0.32244,0.23561 -0.39685,0.54571 -0.39685,0.86811"
     id="path232"
     inkscape:connector-curvature="0"
     style="stroke-width:0.79370099" />
  <path
     class="Note"
     d="m 487.233,218.36671 c 0,0.6325 0.39685,1.19055 1.02933,1.19055 0.23563,0 0.39686,-0.0744 0.55807,-0.23565 l 9.84689,-8.33383 9.99564,8.33383 c 0.1612,0.16128 0.39685,0.23565 0.55805,0.23565 0.6325,0 1.02935,-0.6325 1.02935,-1.1161 0,-0.39685 -0.1612,-0.70695 -0.39685,-0.94256 l -9.44996,-7.8626 9.44996,-7.93701 c 0.23565,-0.1612 0.39685,-0.55805 0.39685,-0.86815 0,-0.64488 -0.55805,-1.1161 -1.02935,-1.1161 -0.1612,0 -0.39685,0.0744 -0.55805,0.1612 l -9.99564,8.33387 -9.84689,-8.33387 c -0.16121,-0.0868 -0.39685,-0.1612 -0.63247,-0.1612 -0.55808,0 -0.95493,0.55805 -0.95493,1.02935 0,0.3224 0.16122,0.71925 0.39685,0.9549 l 9.45004,7.93701 -9.45004,7.8626 c -0.32244,0.23561 -0.39685,0.54571 -0.39685,0.86811"
     id="path234"
     inkscape:connector-curvature="0"
     style="stroke-width:0.79370099" />
  <path
     class="Note"
     d="m 621.636,218.36671 c 0,0.6325 0.39685,1.19055 1.02933,1.19055 0.23563,0 0.39686,-0.0744 0.55807,-0.23565 l 9.84689,-8.33383 9.99564,8.33383 c 0.1612,0.16128 0.39685,0.23565 0.55805,0.23565 0.6325,0 1.02935,-0.6325 1.02935,-1.1161 0,-0.39685 -0.1612,-0.70695 -0.39685,-0.94256 l -9.44996,-7.8626 9.44996,-7.93701 c 0.23565,-0.1612 0.39685,-0.55805 0.39685,-0.86815 0,-0.64488 -0.55805,-1.1161 -1.02935,-1.1161 -0.1612,0 -0.39685,0.0744 -0.55805,0.1612 l -9.99564,8.33387 -9.84689,-8.33387 c -0.16121,-0.0868 -0.39685,-0.1612 -0.63247,-0.1612 -0.55808,0 -0.95493,0.55805 -0.95493,1.02935 0,0.3224 0.16122,0.71925 0.39685,0.9549 l 9.45004,7.93701 -9.45004,7.8626 c -0.32244,0.23561 -0.39685,0.54571 -0.39685,0.86811"
     id="path236"
     inkscape:connector-curvature="0"
     style="stroke-width:0.79370099" />
  <path
     class="Note"
     d="m 758.129,218.36671 c 0,0.6325 0.39685,1.19055 1.02933,1.19055 0.23563,0 0.39686,-0.0744 0.55807,-0.23565 l 9.84689,-8.33383 9.99564,8.33383 c 0.1612,0.16128 0.39685,0.23565 0.55805,0.23565 0.6325,0 1.02935,-0.6325 1.02935,-1.1161 0,-0.39685 -0.1612,-0.70695 -0.39685,-0.94256 l -9.44996,-7.8626 9.44996,-7.93701 c 0.23565,-0.1612 0.39685,-0.55805 0.39685,-0.86815 0,-0.64488 -0.55805,-1.1161 -1.02935,-1.1161 -0.1612,0 -0.39685,0.0744 -0.55805,0.1612 l -9.99564,8.33387 -9.84689,-8.33387 c -0.16121,-0.0868 -0.39685,-0.1612 -0.63247,-0.1612 -0.55808,0 -0.95493,0.55805 -0.95493,1.02935 0,0.3224 0.16122,0.71925 0.39685,0.9549 l 9.45004,7.93701 -9.45004,7.8626 c -0.32244,0.23561 -0.39685,0.54571 -0.39685,0.86811"
     id="path238"
     inkscape:connector-curvature="0"
     style="stroke-width:0.79370099" />
  <path
     class="Note"
     d="m 906.645,218.36671 c 0,0.6325 0.39685,1.19055 1.02933,1.19055 0.23563,0 0.39686,-0.0744 0.55807,-0.23565 l 9.84689,-8.33383 9.99564,8.33383 c 0.1612,0.16128 0.39685,0.23565 0.55805,0.23565 0.6325,0 1.02935,-0.6325 1.02935,-1.1161 0,-0.39685 -0.1612,-0.70695 -0.39685,-0.94256 l -9.44996,-7.8626 9.44996,-7.93701 c 0.23565,-0.1612 0.39685,-0.55805 0.39685,-0.86815 0,-0.64488 -0.55805,-1.1161 -1.02935,-1.1161 -0.1612,0 -0.39685,0.0744 -0.55805,0.1612 l -9.99564,8.33387 -9.84689,-8.33387 c -0.16121,-0.0868 -0.39685,-0.1612 -0.63247,-0.1612 -0.55808,0 -0.95493,0.55805 -0.95493,1.02935 0,0.3224 0.16122,0.71925 0.39685,0.9549 l 9.45004,7.93701 -9.45004,7.8626 c -0.32244,0.23561 -0.39685,0.54571 -0.39685,0.86811"
     id="path240"
     inkscape:connector-curvature="0"
     style="stroke-width:0.79370099" />
  <path
     class="Note"
     d="m 1025.465,218.36671 c 0,0.6325 0.3969,1.19055 1.0293,1.19055 0.2357,0 0.3969,-0.0744 0.5581,-0.23565 l 9.8469,-8.33383 9.9956,8.33383 c 0.1612,0.16128 0.3969,0.23565 0.5581,0.23565 0.6325,0 1.0293,-0.6325 1.0293,-1.1161 0,-0.39685 -0.1612,-0.70695 -0.3968,-0.94256 l -9.45,-7.8626 9.45,-7.93701 c 0.2356,-0.1612 0.3968,-0.55805 0.3968,-0.86815 0,-0.64488 -0.558,-1.1161 -1.0293,-1.1161 -0.1612,0 -0.3969,0.0744 -0.5581,0.1612 l -9.9956,8.33387 -9.8469,-8.33387 c -0.1612,-0.0868 -0.3968,-0.1612 -0.6325,-0.1612 -0.558,0 -0.9549,0.55805 -0.9549,1.02935 0,0.3224 0.1612,0.71925 0.3969,0.9549 l 9.45,7.93701 -9.45,7.8626 c -0.3225,0.23561 -0.3969,0.54571 -0.3969,0.86811"
     id="path242"
     inkscape:connector-curvature="0"
     style="stroke-width:0.79370099" />
  <path
     class="Note"
     d="m 1173.985,218.36671 c 0,0.6325 0.3969,1.19055 1.0293,1.19055 0.2357,0 0.3969,-0.0744 0.5581,-0.23565 l 9.8469,-8.33383 9.9956,8.33383 c 0.1612,0.16128 0.3969,0.23565 0.5581,0.23565 0.6325,0 1.0293,-0.6325 1.0293,-1.1161 0,-0.39685 -0.1612,-0.70695 -0.3968,-0.94256 l -9.45,-7.8626 9.45,-7.93701 c 0.2356,-0.1612 0.3968,-0.55805 0.3968,-0.86815 0,-0.64488 -0.558,-1.1161 -1.0293,-1.1161 -0.1612,0 -0.3969,0.0744 -0.5581,0.1612 l -9.9956,8.33387 -9.8469,-8.33387 c -0.1612,-0.0868 -0.3968,-0.1612 -0.6325,-0.1612 -0.558,0 -0.9549,0.55805 -0.9549,1.02935 0,0.3224 0.1612,0.71925 0.3969,0.9549 l 9.45,7.93701 -9.45,7.8626 c -0.3225,0.23561 -0.3969,0.54571 -0.3969,0.86811"
     id="path244"
     inkscape:connector-curvature="0"
     style="stroke-width:0.79370099" />
  <path
     class="Note"
     d="m 1351.475,218.36671 c 0,0.6325 0.3969,1.19055 1.0293,1.19055 0.2357,0 0.3969,-0.0744 0.5581,-0.23565 l 9.8469,-8.33383 9.9956,8.33383 c 0.1612,0.16128 0.3969,0.23565 0.5581,0.23565 0.6325,0 1.0293,-0.6325 1.0293,-1.1161 0,-0.39685 -0.1612,-0.70695 -0.3968,-0.94256 l -9.45,-7.8626 9.45,-7.93701 c 0.2356,-0.1612 0.3968,-0.55805 0.3968,-0.86815 0,-0.64488 -0.558,-1.1161 -1.0293,-1.1161 -0.1612,0 -0.3969,0.0744 -0.5581,0.1612 l -9.9956,8.33387 -9.8469,-8.33387 c -0.1612,-0.0868 -0.3968,-0.1612 -0.6325,-0.1612 -0.558,0 -0.9549,0.55805 -0.9549,1.02935 0,0.3224 0.1612,0.71925 0.3969,0.9549 l 9.45,7.93701 -9.45,7.8626 c -0.3225,0.23561 -0.3969,0.54571 -0.3969,0.86811"
     id="path246"
     inkscape:connector-curvature="0"
     style="stroke-width:0.79370099" />
  <path
     class="Note"
     d="m 1488.305,218.36671 c 0,0.6325 0.3969,1.19055 1.0293,1.19055 0.2357,0 0.3969,-0.0744 0.5581,-0.23565 l 9.8469,-8.33383 9.9956,8.33383 c 0.1612,0.16128 0.3969,0.23565 0.5581,0.23565 0.6325,0 1.0293,-0.6325 1.0293,-1.1161 0,-0.39685 -0.1612,-0.70695 -0.3968,-0.94256 l -9.45,-7.8626 9.45,-7.93701 c 0.2356,-0.1612 0.3968,-0.55805 0.3968,-0.86815 0,-0.64488 -0.558,-1.1161 -1.0293,-1.1161 -0.1612,0 -0.3969,0.0744 -0.5581,0.1612 l -9.9956,8.33387 -9.8469,-8.33387 c -0.1612,-0.0868 -0.3968,-0.1612 -0.6325,-0.1612 -0.558,0 -0.9549,0.55805 -0.9549,1.02935 0,0.3224 0.1612,0.71925 0.3969,0.9549 l 9.45,7.93701 -9.45,7.8626 c -0.3225,0.23561 -0.3969,0.54571 -0.3969,0.86811"
     id="path248"
     inkscape:connector-curvature="0"
     style="stroke-width:0.79370099" />
  <path
     class="Note"
     d="m 1597.765,218.36671 c 0,0.6325 0.3969,1.19055 1.0293,1.19055 0.2357,0 0.3969,-0.0744 0.5581,-0.23565 l 9.8469,-8.33383 9.9956,8.33383 c 0.1612,0.16128 0.3969,0.23565 0.5581,0.23565 0.6325,0 1.0293,-0.6325 1.0293,-1.1161 0,-0.39685 -0.1612,-0.70695 -0.3968,-0.94256 l -9.45,-7.8626 9.45,-7.93701 c 0.2356,-0.1612 0.3968,-0.55805 0.3968,-0.86815 0,-0.64488 -0.558,-1.1161 -1.0293,-1.1161 -0.1612,0 -0.3969,0.0744 -0.5581,0.1612 l -9.9956,8.33387 -9.8469,-8.33387 c -0.1612,-0.0868 -0.3968,-0.1612 -0.6325,-0.1612 -0.558,0 -0.9549,0.55805 -0.9549,1.02935 0,0.3224 0.1612,0.71925 0.3969,0.9549 l 9.45,7.93701 -9.45,7.8626 c -0.3225,0.23561 -0.3969,0.54571 -0.3969,0.86811"
     id="path250"
     inkscape:connector-curvature="0"
     style="stroke-width:0.79370099" />
  <path
     class="Note"
     d="m 1734.595,218.36671 c 0,0.6325 0.3969,1.19055 1.0293,1.19055 0.2357,0 0.3969,-0.0744 0.5581,-0.23565 l 9.8469,-8.33383 9.9956,8.33383 c 0.1612,0.16128 0.3969,0.23565 0.5581,0.23565 0.6325,0 1.0293,-0.6325 1.0293,-1.1161 0,-0.39685 -0.1612,-0.70695 -0.3968,-0.94256 l -9.45,-7.8626 9.45,-7.93701 c 0.2356,-0.1612 0.3968,-0.55805 0.3968,-0.86815 0,-0.64488 -0.558,-1.1161 -1.0293,-1.1161 -0.1612,0 -0.3969,0.0744 -0.5581,0.1612 l -9.9956,8.33387 -9.8469,-8.33387 c -0.1612,-0.0868 -0.3968,-0.1612 -0.6325,-0.1612 -0.558,0 -0.9549,0.55805 -0.9549,1.02935 0,0.3224 0.1612,0.71925 0.3969,0.9549 l 9.45,7.93701 -9.45,7.8626 c -0.3225,0.23561 -0.3969,0.54571 -0.3969,0.86811"
     id="path252"
     inkscape:connector-curvature="0"
     style="stroke-width:0.79370099" />
  <path
     class="Note"
     d="m 1900.395,218.36671 c 0,0.6325 0.3969,1.19055 1.0293,1.19055 0.2357,0 0.3969,-0.0744 0.5581,-0.23565 l 9.8469,-8.33383 9.9956,8.33383 c 0.1612,0.16128 0.3969,0.23565 0.5581,0.23565 0.6325,0 1.0293,-0.6325 1.0293,-1.1161 0,-0.39685 -0.1612,-0.70695 -0.3968,-0.94256 l -9.45,-7.8626 9.45,-7.93701 c 0.2356,-0.1612 0.3968,-0.55805 0.3968,-0.86815 0,-0.64488 -0.558,-1.1161 -1.0293,-1.1161 -0.1612,0 -0.3969,0.0744 -0.5581,0.1612 l -9.9956,8.33387 -9.8469,-8.33387 c -0.1612,-0.0868 -0.3968,-0.1612 -0.6325,-0.1612 -0.558,0 -0.9549,0.55805 -0.9549,1.02935 0,0.3224 0.1612,0.71925 0.3969,0.9549 l 9.45,7.93701 -9.45,7.8626 c -0.3225,0.23561 -0.3969,0.54571 -0.3969,0.86811"
     id="path254"
     inkscape:connector-curvature="0"
     style="stroke-width:0.79370099" />
  <path
     class="Note"
     d="m 2058.025,208.44571 c 0,0.6325 0.3969,1.19055 1.0293,1.19055 0.2357,0 0.3969,-0.0744 0.5581,-0.23565 l 9.8469,-8.33383 9.9956,8.33383 c 0.1612,0.16128 0.3969,0.23565 0.5581,0.23565 0.6325,0 1.0293,-0.6325 1.0293,-1.1161 0,-0.39685 -0.1612,-0.70695 -0.3968,-0.94256 l -9.45,-7.8626 9.45,-7.93701 c 0.2356,-0.1612 0.3968,-0.55805 0.3968,-0.86815 0,-0.64488 -0.558,-1.1161 -1.0293,-1.1161 -0.1612,0 -0.3969,0.0744 -0.5581,0.1612 l -9.9956,8.33387 -9.8469,-8.33387 c -0.1612,-0.0868 -0.3968,-0.1612 -0.6325,-0.1612 -0.558,0 -0.9549,0.55805 -0.9549,1.02935 0,0.3224 0.1612,0.71925 0.3969,0.9549 l 9.45,7.93701 -9.45,7.8626 c -0.3225,0.23561 -0.3969,0.54571 -0.3969,0.86811"
     id="path256"
     inkscape:connector-curvature="0"
     style="stroke-width:0.79370099" />
  <path
     class="Note"
     d="m 250.77751,81.850814 c 14.60902,0 17.54825,-11.905515 17.54825,-14.757878 0,-4.526596 -3.57165,-7.46575 -8.73071,-7.46575 -13.25732,0 -17.38705,10.243704 -17.38705,14.844693 0,4.675431 3.73288,7.378935 8.56951,7.378935 m -5.95277,-7.217718 c 0,-4.290947 12.78606,-11.359846 16.99014,-11.359846 1.66185,0 2.61675,0.793701 3.24925,1.909843 0.24803,0.47126 0.48368,1.029327 0.48368,1.661811 0,1.748619 -1.82305,3.894096 -8.02384,7.93701 -3.96851,2.703544 -6.74646,3.65847 -8.64392,3.65847 -1.83543,0 -2.93917,-0.954926 -3.49725,-2.071068 -0.32244,-0.47126 -0.55806,-1.103736 -0.55806,-1.73622"
     id="path258"
     inkscape:connector-curvature="0"
     style="stroke-width:0.79370099" />
  <path
     class="Note"
     d="m 484.133,74.471879 c 0,4.600981 3.80729,7.378935 8.56951,7.378935 7.86256,0 17.54825,-7.304526 17.54825,-14.844693 0,-4.439781 -3.57165,-7.378935 -8.65634,-7.378935 -9.68563,0 -17.46142,7.217718 -17.46142,14.844693"
     id="path260"
     inkscape:connector-curvature="0"
     style="stroke-width:0.79370099" />
  <path
     class="Note"
     d="m 551.334,74.471879 c 0,4.600981 3.80729,7.378935 8.56951,7.378935 7.86256,0 17.54825,-7.304526 17.54825,-14.844693 0,-4.439781 -3.57165,-7.378935 -8.65634,-7.378935 -9.68563,0 -17.46142,7.217718 -17.46142,14.844693"
     id="path262"
     inkscape:connector-curvature="0"
     style="stroke-width:0.79370099" />
  <path
     class="Note"
     d="m 618.536,74.471879 c 0,4.600981 3.80729,7.378935 8.56951,7.378935 7.86256,0 17.54825,-7.304526 17.54825,-14.844693 0,-4.439781 -3.57165,-7.378935 -8.65634,-7.378935 -9.68563,0 -17.46142,7.217718 -17.46142,14.844693"
     id="path264"
     inkscape:connector-curvature="0"
     style="stroke-width:0.79370099" />
  <path
     class="Note"
     d="m 763.59751,81.850814 c 14.60902,0 17.54825,-11.905515 17.54825,-14.757878 0,-4.526596 -3.57165,-7.46575 -8.73071,-7.46575 -13.25732,0 -17.38705,10.243704 -17.38705,14.844693 0,4.675431 3.73288,7.378935 8.56951,7.378935 m -5.95277,-7.217718 c 0,-4.290947 12.78606,-11.359846 16.99014,-11.359846 1.66185,0 2.61675,0.793701 3.24925,1.909843 0.24803,0.47126 0.48368,1.029327 0.48368,1.661811 0,1.748619 -1.82305,3.894096 -8.02384,7.93701 -3.96851,2.703544 -6.74646,3.65847 -8.64392,3.65847 -1.83543,0 -2.93917,-0.954926 -3.49725,-2.071068 -0.32244,-0.47126 -0.55806,-1.103736 -0.55806,-1.73622"
     id="path266"
     inkscape:connector-curvature="0"
     style="stroke-width:0.79370099" />
  <path
     class="Note"
     d="m 1022.365,74.471879 c 0,4.600981 3.8073,7.378935 8.5695,7.378935 7.8626,0 17.5483,-7.304526 17.5483,-14.844693 0,-4.439781 -3.5717,-7.378935 -8.6564,-7.378935 -9.6856,0 -17.4614,7.217718 -17.4614,14.844693"
     id="path268"
     inkscape:connector-curvature="0"
     style="stroke-width:0.79370099" />
  <path
     class="Note"
     d="m 1096.625,104.23588 c 0,4.60098 3.8073,7.37893 8.5695,7.37893 7.8626,0 17.5483,-7.30452 17.5483,-14.844689 0,-4.439781 -3.5717,-7.378935 -8.6564,-7.378935 -9.6856,0 -17.4614,7.217718 -17.4614,14.844694"
     id="path270"
     inkscape:connector-curvature="0"
     style="stroke-width:0.79370099" />
  <path
     class="Note"
     d="m 1170.885,94.313879 c 0,4.600982 3.8073,7.378931 8.5695,7.378931 7.8626,0 17.5483,-7.304522 17.5483,-14.844689 0,-4.439781 -3.5717,-7.378935 -8.6564,-7.378935 -9.6856,0 -17.4614,7.217718 -17.4614,14.844693"
     id="path272"
     inkscape:connector-curvature="0"
     style="stroke-width:0.79370099" />
  <path
     class="Note"
     d="m 1245.145,94.313879 c 0,4.600982 3.8073,7.378931 8.5695,7.378931 7.8626,0 17.5483,-7.304522 17.5483,-14.844689 0,-4.439781 -3.5717,-7.378935 -8.6564,-7.378935 -9.6856,0 -17.4614,7.217718 -17.4614,14.844693"
     id="path274"
     inkscape:connector-curvature="0"
     style="stroke-width:0.79370099" />
  <path
     class="Note"
     d="m 1356.9445,91.771814 c 14.609,0 17.5483,-11.905515 17.5483,-14.757878 0,-4.526596 -3.5717,-7.46575 -8.7307,-7.46575 -13.2574,0 -17.3871,10.243704 -17.3871,14.844693 0,4.675431 3.7329,7.378935 8.5695,7.378935 m -5.9528,-7.217718 c 0,-4.290947 12.7861,-11.359846 16.9902,-11.359846 1.6618,0 2.6167,0.793701 3.2492,1.909843 0.2481,0.47126 0.4837,1.029327 0.4837,1.661811 0,1.748619 -1.823,3.894096 -8.0238,7.93701 -3.9685,2.703544 -6.7465,3.65847 -8.644,3.65847 -1.8354,0 -2.9391,-0.954926 -3.4972,-2.071068 -0.3224,-0.47126 -0.5581,-1.103736 -0.5581,-1.73622"
     id="path276"
     inkscape:connector-curvature="0"
     style="stroke-width:0.79370099" />
  <path
     class="Note"
     d="m 1594.665,84.392879 c 0,4.600981 3.8073,7.378935 8.5695,7.378935 7.8626,0 17.5483,-7.304526 17.5483,-14.844693 0,-4.439781 -3.5717,-7.378935 -8.6564,-7.378935 -9.6856,0 -17.4614,7.217718 -17.4614,14.844693"
     id="path278"
     inkscape:connector-curvature="0"
     style="stroke-width:0.79370099" />
  <path
     class="Note"
     d="m 1663.075,84.392879 c 0,4.600981 3.8073,7.378935 8.5695,7.378935 7.8626,0 17.5483,-7.304526 17.5483,-14.844693 0,-4.439781 -3.5717,-7.378935 -8.6564,-7.378935 -9.6856,0 -17.4614,7.217718 -17.4614,14.844693"
     id="path280"
     inkscape:connector-curvature="0"
     style="stroke-width:0.79370099" />
  <path
     class="Note"
     d="m 1731.495,84.392879 c 0,4.600981 3.8073,7.378935 8.5695,7.378935 7.8626,0 17.5483,-7.304526 17.5483,-14.844693 0,-4.439781 -3.5717,-7.378935 -8.6564,-7.378935 -9.6856,0 -17.4614,7.217718 -17.4614,14.844693"
     id="path282"
     inkscape:connector-curvature="0"
     style="stroke-width:0.79370099" />
  <path
     class="Note"
     d="m 1905.8645,91.771814 c 14.609,0 17.5483,-11.905515 17.5483,-14.757878 0,-4.526596 -3.5717,-7.46575 -8.7307,-7.46575 -13.2574,0 -17.3871,10.243704 -17.3871,14.844693 0,4.675431 3.7329,7.378935 8.5695,7.378935 m -5.9528,-7.217718 c 0,-4.290947 12.7861,-11.359846 16.9902,-11.359846 1.6618,0 2.6167,0.793701 3.2492,1.909843 0.2481,0.47126 0.4837,1.029327 0.4837,1.661811 0,1.748619 -1.823,3.894096 -8.0238,7.93701 -3.9685,2.703544 -6.7465,3.65847 -8.644,3.65847 -1.8354,0 -2.9391,-0.954926 -3.4972,-2.071068 -0.3224,-0.47126 -0.5581,-1.103736 -0.5581,-1.73622"
     id="path284"
     inkscape:connector-curvature="0"
     style="stroke-width:0.79370099" />
  <path
     class="Note"
     d="m 2207.215,84.392879 c 0,4.600981 3.8073,7.378935 8.5695,7.378935 7.8626,0 17.5483,-7.304526 17.5483,-14.844693 0,-4.439781 -3.5717,-7.378935 -8.6564,-7.378935 -9.6856,0 -17.4614,7.217718 -17.4614,14.844693"
     id="path286"
     inkscape:connector-curvature="0"
     style="stroke-width:0.79370099" />
  <path
     class="Note"
     d="m 2286.035,84.392879 c 0,4.600981 3.8073,7.378935 8.5695,7.378935 7.8626,0 17.5483,-7.304526 17.5483,-14.844693 0,-4.439781 -3.5717,-7.378935 -8.6564,-7.378935 -9.6856,0 -17.4614,7.217718 -17.4614,14.844693"
     id="path288"
     inkscape:connector-curvature="0"
     style="stroke-width:0.79370099" />
  <path
     class="Note"
     d="m 2364.845,84.392879 c 0,4.600981 3.8073,7.378935 8.5695,7.378935 7.8626,0 17.5483,-7.304526 17.5483,-14.844693 0,-4.439781 -3.5717,-7.378935 -8.6564,-7.378935 -9.6856,0 -17.4614,7.217718 -17.4614,14.844693"
     id="path290"
     inkscape:connector-curvature="0"
     style="stroke-width:0.79370099" />
  <path
     class="Note"
     d="m 2463.365,84.392879 c 0,4.600981 3.8073,7.378935 8.5695,7.378935 7.8626,0 17.5483,-7.304526 17.5483,-14.844693 0,-4.439781 -3.5717,-7.378935 -8.6564,-7.378935 -9.6856,0 -17.4614,7.217718 -17.4614,14.844693"
     id="path292"
     inkscape:connector-curvature="0"
     style="stroke-width:0.79370099" />
  <path
     class="Clef"
     d="m 112.75462,240.59103 v 37.30394 c 0,0.6325 0.4713,1.19055 1.1038,1.19055 h 10.47932 c 0.64488,0 1.1161,-0.55805 1.1161,-1.19055 v -37.30394 c 0,-0.6325 -0.47122,-1.19056 -1.1161,-1.19056 h -10.47932 c -0.6325,0 -1.1038,0.55806 -1.1038,1.19056 m -16.506478,38.49449 h 10.466968 c 0.64489,0 1.11611,-0.55805 1.11611,-1.19055 v -37.30394 c 0,-0.6325 -0.47122,-1.19056 -1.11611,-1.19056 H 96.248142 c -0.644882,0 -1.116142,0.55806 -1.116142,1.19056 v 37.30394 c 0,0.6325 0.47126,1.19055 1.116142,1.19055"
     id="path294"
     inkscape:connector-curvature="0"
     style="stroke-width:0.79370099" />
  <path
     class="Clef"
     d="m 95.76448,71.533013 c 0.396855,0 0.880513,-0.1612 1.351773,-0.39685 19.532507,-9.524412 40.168727,-23.649829 40.168727,-47.783277 0,-13.8029997 -8.42069,-23.01731267 -22.14925,-23.01731267 -13.81534,0 -20.00373,10.08246267 -20.00373,17.69703167 0,6.349608 3.336028,11.831106 9.76006,11.831106 4.99786,0 8.42069,-3.497245 8.42069,-8.40827 0,-5.084647 -3.73293,-8.259451 -7.62699,-8.259451 -2.14545,0 -2.93919,0.558067 -3.96852,0.558067 -1.02933,0 -1.26496,-0.632516 -1.26496,-1.426217 0,-3.1748042 4.76218,-8.9787427 12.86047,-8.9787427 8.40823,0 12.06672,8.2594907 12.06672,20.7230807 0,22.149234 -10.963,34.52597 -29.453769,45.079732 -0.719292,0.396851 -1.190551,0.793701 -1.190551,1.426202 0,0.483681 0.322441,0.954901 1.02933,0.954901 m 49.29631,-55.95592 c 2.45548,0 4.36536,-1.909843 4.36536,-4.365356 0,-2.4555517 -1.90988,-4.365355 -4.36536,-4.365355 -2.46793,0 -4.36535,1.9098033 -4.36535,4.365355 0,2.455513 1.89742,4.365356 4.36535,4.365356 m 0.0744,19.768155 c 2.46794,0 4.29099,-1.835433 4.29099,-4.290986 0,-2.455512 -1.82305,-4.290946 -4.29099,-4.290946 -2.45547,0 -4.27852,1.835434 -4.27852,4.290946 0,2.455553 1.82305,4.290986 4.27852,4.290986"
     id="path296"
     inkscape:connector-curvature="0"
     style="stroke-width:0.79370099" />
  <path
     class="TimeSig"
     d="m 174.42691,273.69082 c 3.0136,3.6461 7.37896,5.32034 12.14116,5.32034 13.88977,0 15.96085,-12.62485 15.96085,-14.93154 0,-1.73623 -0.88053,-1.73623 -1.19055,-1.73623 -0.6325,0 -1.19055,0.0744 -1.19055,1.42619 0,10.23134 -8.73071,12.61244 -11.27309,12.61244 -6.43636,0 -9.84682,-6.26286 -9.84682,-19.35891 0,-13.09608 6.03959,-15.79958 10.31812,-15.79958 4.1297,0 5.80393,1.9098 5.80393,2.7035 0,0.70687 -0.24803,1.7486 -1.43858,1.7486 -3.1748,0 -4.99786,3.41046 -4.99786,5.86599 0,4.52658 3.89414,5.95275 6.11396,5.95275 0,0 6.02721,-0.23562 6.02721,-6.82088 0,-10.40494 -11.97996,-11.34746 -13.49292,-11.34746 -11.27305,0 -18.09392,9.99571 -18.09392,20.71067 0,5.15906 1.90984,9.68561 5.15906,13.65412"
     id="path298"
     inkscape:connector-curvature="0"
     style="stroke-width:0.79370099" />
  <path
     class="TimeSig"
     d="m 174.42691,55.422819 c 3.0136,3.646103 7.37896,5.320336 12.14116,5.320336 13.88977,0 15.96085,-12.624846 15.96085,-14.93154 0,-1.73622 -0.88053,-1.73622 -1.19055,-1.73622 -0.6325,0 -1.19055,0.07441 -1.19055,1.426185 0,10.231338 -8.73071,12.612441 -11.27309,12.612441 -6.43636,0 -9.84682,-6.262857 -9.84682,-19.358907 0,-13.096083 6.03959,-15.799587 10.31812,-15.799587 4.1297,0 5.80393,1.909803 5.80393,2.703504 0,0.70687 -0.24803,1.748603 -1.43858,1.748603 -3.1748,0 -4.99786,3.410454 -4.99786,5.865982 0,4.52658 3.89414,5.952758 6.11396,5.952758 0,0 6.02721,-0.235626 6.02721,-6.820884 0,-10.404944 -11.97996,-11.347464 -13.49292,-11.347464 -11.27305,0 -18.09392,9.995712 -18.09392,20.710675 0,5.159057 1.90984,9.685613 5.15906,13.654118"
     id="path300"
     inkscape:connector-curvature="0"
     style="stroke-width:0.79370099" />
  <path
     class="Rest"
     d="m 486.27848,294.48824 c 1.26496,0.86811 2.77795,1.33937 4.27854,1.33937 1.11614,0 2.23232,-0.23564 3.10039,-0.54567 1.11618,-0.32245 1.82305,-0.64489 2.8524,-1.19056 0.16121,-0.0868 0.32241,-0.0868 0.39686,-0.0868 0.3224,0 0.39685,0.32244 0.39685,0.71929 0,0.23563 0,0.55808 -0.0745,0.86811 -0.23565,1.19055 -5.95276,16.99015 -7.37894,22.22365 0,0.9549 1.82303,1.02935 2.29433,1.02935 0.88045,0 1.98425,-0.14881 2.77795,-0.7937 0.24803,-0.14882 8.02376,-28.01518 8.02376,-28.01518 0.3101,-1.4262 0.70695,-2.6912 0.79371,-3.08805 0,-0.79371 -0.79371,-1.19056 -0.95491,-1.27731 -0.1612,0 -0.39685,0 -0.86807,0.3224 -0.55813,0.4713 -4.52663,5.23349 -7.14331,5.23349 v -0.79368 c 0,-2.93923 -2.3811,-5.32034 -5.32031,-5.32034 -2.93918,0 -5.32028,2.38111 -5.32028,5.32034 0,1.67419 0.95493,3.10037 2.14548,4.0553"
     id="path302"
     inkscape:connector-curvature="0"
     style="stroke-width:0.79370099" />
  <path
     class="Rest"
     d="m 1024.5105,294.48824 c 1.2649,0.86811 2.7779,1.33937 4.2785,1.33937 1.1162,0 2.2323,-0.23564 3.1004,-0.54567 1.1162,-0.32245 1.8231,-0.64489 2.8524,-1.19056 0.1612,-0.0868 0.3224,-0.0868 0.3969,-0.0868 0.3224,0 0.3968,0.32244 0.3968,0.71929 0,0.23563 0,0.55808 -0.074,0.86811 -0.2357,1.19055 -5.9528,16.99015 -7.379,22.22365 0,0.9549 1.8231,1.02935 2.2944,1.02935 0.8804,0 1.9842,-0.14881 2.7779,-0.7937 0.248,-0.14882 8.0238,-28.01518 8.0238,-28.01518 0.3101,-1.4262 0.7069,-2.6912 0.7937,-3.08805 0,-0.79371 -0.7937,-1.19056 -0.9549,-1.27731 -0.1612,0 -0.3969,0 -0.8681,0.3224 -0.5581,0.4713 -4.5266,5.23349 -7.1433,5.23349 v -0.79368 c 0,-2.93923 -2.3811,-5.32034 -5.3203,-5.32034 -2.9392,0 -5.3203,2.38111 -5.3203,5.32034 0,1.67419 0.9549,3.10037 2.1455,4.0553"
     id="path304"
     inkscape:connector-curvature="0"
     style="stroke-width:0.79370099" />
  <path
     class="Rest"
     d="m 1596.8105,294.48824 c 1.2649,0.86811 2.7779,1.33937 4.2785,1.33937 1.1162,0 2.2323,-0.23564 3.1004,-0.54567 1.1162,-0.32245 1.8231,-0.64489 2.8524,-1.19056 0.1612,-0.0868 0.3224,-0.0868 0.3969,-0.0868 0.3224,0 0.3968,0.32244 0.3968,0.71929 0,0.23563 0,0.55808 -0.074,0.86811 -0.2357,1.19055 -5.9528,16.99015 -7.379,22.22365 0,0.9549 1.8231,1.02935 2.2944,1.02935 0.8804,0 1.9842,-0.14881 2.7779,-0.7937 0.248,-0.14882 8.0238,-28.01518 8.0238,-28.01518 0.3101,-1.4262 0.7069,-2.6912 0.7937,-3.08805 0,-0.79371 -0.7937,-1.19056 -0.9549,-1.27731 -0.1612,0 -0.3969,0 -0.8681,0.3224 -0.5581,0.4713 -4.5266,5.23349 -7.1433,5.23349 v -0.79368 c 0,-2.93923 -2.3811,-5.32034 -5.3203,-5.32034 -2.9392,0 -5.3203,2.38111 -5.3203,5.32034 0,1.67419 0.9549,3.10037 2.1455,4.0553"
     id="path306"
     inkscape:connector-curvature="0"
     style="stroke-width:0.79370099" />
  <path
     class="Rest"
     d="m 1802.0505,294.48824 c 1.2649,0.86811 2.7779,1.33937 4.2785,1.33937 1.1162,0 2.2323,-0.23564 3.1004,-0.54567 1.1162,-0.32245 1.8231,-0.64489 2.8524,-1.19056 0.1612,-0.0868 0.3224,-0.0868 0.3969,-0.0868 0.3224,0 0.3968,0.32244 0.3968,0.71929 0,0.23563 0,0.55808 -0.074,0.86811 -0.2357,1.19055 -5.9528,16.99015 -7.379,22.22365 0,0.9549 1.8231,1.02935 2.2944,1.02935 0.8804,0 1.9842,-0.14881 2.7779,-0.7937 0.248,-0.14882 8.0238,-28.01518 8.0238,-28.01518 0.3101,-1.4262 0.7069,-2.6912 0.7937,-3.08805 0,-0.79371 -0.7937,-1.19056 -0.9549,-1.27731 -0.1612,0 -0.3969,0 -0.8681,0.3224 -0.5581,0.4713 -4.5266,5.23349 -7.1433,5.23349 v -0.79368 c 0,-2.93923 -2.3811,-5.32034 -5.3203,-5.32034 -2.9392,0 -5.3203,2.38111 -5.3203,5.32034 0,1.67419 0.9549,3.10037 2.1455,4.0553"
     id="path308"
     inkscape:connector-curvature="0"
     style="stroke-width:0.79370099" />
  <path
     class="Beam"
     d="m 242.208,343.573 h 69.583 v 9.922 h -69.583 v -9.922"
     id="path310"
     inkscape:connector-curvature="0"
     style="fill-rule:evenodd" />
  <path
     class="Beam"
     d="m 755.028,343.573 h 76.637 v 9.922 h -76.637 v -9.922"
     id="path312"
     inkscape:connector-curvature="0"
     style="fill-rule:evenodd" />
  <path
     class="Beam"
     d="m 1096.625,338.613 h 150.9 v 9.921 h -150.9 v -9.921"
     id="path314"
     inkscape:connector-curvature="0"
     style="fill-rule:evenodd" />
  <path
     class="Beam"
     d="m 1348.375,343.573 h 70.79 v 9.922 h -70.79 v -9.922"
     id="path316"
     inkscape:connector-curvature="0"
     style="fill-rule:evenodd" />
  <path
     class="Beam"
     d="m 1663.075,338.297 70.8,-25.667 v 10.554 l -70.8,25.666 v -10.553"
     id="path318"
     inkscape:connector-curvature="0"
     style="fill-rule:evenodd" />
  <path
     class="Beam"
     d="m 1897.295,343.573 h 81.19 v 9.922 h -81.19 v -9.922"
     id="path320"
     inkscape:connector-curvature="0"
     style="fill-rule:evenodd" />
  <path
     class="Beam"
     d="m 2054.925,308.849 h 98.48 v 9.921 h -98.48 v -9.921"
     id="path322"
     inkscape:connector-curvature="0"
     style="fill-rule:evenodd" />
  <path
     class="Beam"
     d="m 2153.405,293.967 h -25.79 v 9.921 h 25.79 v -9.921"
     id="path324"
     inkscape:connector-curvature="0"
     style="fill-rule:evenodd" />
  <path
     class="Beam"
     d="m 2207.215,298.773 81.2,-20.442 v 10.231 l -81.2,20.442 v -10.231"
     id="path326"
     inkscape:connector-curvature="0"
     style="fill-rule:evenodd" />
  <path
     class="Beam"
     d="m 2364.845,289 100.9,5.081 v 9.934 l -100.9,-5.081 V 289"
     id="path328"
     inkscape:connector-curvature="0"
     style="fill-rule:evenodd" />
  <path
     class="Beam"
     d="m 2364.845,274.118 51.64,2.601 v 9.933 l -51.64,-2.6 v -9.934"
     id="path330"
     inkscape:connector-curvature="0"
     style="fill-rule:evenodd" />
  <path
     class="Beam"
     d="m 507.863,1.29 h 69.583 v 9.921 H 507.863 V 1.29"
     id="path332"
     inkscape:connector-curvature="0"
     style="fill-rule:evenodd" />
  <path
     class="Beam"
     d="m 1046.095,10.401 76.64,20.479 V 41.149 L 1046.095,20.67 V 10.401"
     id="path334"
     inkscape:connector-curvature="0"
     style="fill-rule:evenodd" />
  <path
     class="Beam"
     d="m 1194.615,21.133 h 76.64 v 9.921 h -76.64 v -9.921"
     id="path336"
     inkscape:connector-curvature="0"
     style="fill-rule:evenodd" />
  <path
     class="Beam"
     d="m 1618.395,16.172 h 70.79 v 9.921 h -70.79 v -9.921"
     id="path338"
     inkscape:connector-curvature="0"
     style="fill-rule:evenodd" />
  <path
     class="Beam"
     d="m 2230.945,16.172 h 81.2 v 9.921 h -81.2 v -9.921"
     id="path340"
     inkscape:connector-curvature="0"
     style="fill-rule:evenodd" />
  <path
     class="Beam"
     d="m 2388.575,16.172 h 100.9 v 9.921 h -100.9 v -9.921"
     id="path342"
     inkscape:connector-curvature="0"
     style="fill-rule:evenodd" />
  <path
     class="Hook"
     d="m 552.59896,359.57114 c 0.71929,0 1.74863,-0.48366 1.90984,-1.74862 1.35178,-7.54018 7.21776,-14.44784 11.27302,-20.72308 4.99785,-7.85018 9.84689,-17.30014 9.84689,-27.2214 0,-6.18841 -1.5874,-11.83115 -2.23228,-14.37345 -0.23565,-0.86815 -0.70687,-1.19055 -1.265,-1.19055 -1.19055,0 -2.54231,1.51295 -1.74861,3.81968 1.11619,3.33601 1.67424,7.30451 1.67424,10.87617 0,4.67537 -1.99664,11.34746 -3.18719,14.03858 -2.92677,6.67209 -6.89528,13.09607 -17.53587,16.68011 v 18.65201 c 0,0.7937 0.63248,1.19055 1.26496,1.19055"
     id="path344"
     inkscape:connector-curvature="0"
     style="stroke-width:0.79370099" />
  <path
     class="NoteDot"
     d="m 2094.9235,253.2895 c 2.2199,0 3.9685,-1.74861 3.9685,-3.9685 0,-2.21989 -1.7486,-3.96851 -3.9685,-3.96851 -2.2199,0 -3.9685,1.74862 -3.9685,3.96851 0,2.21989 1.7486,3.9685 3.9685,3.9685"
     id="path346"
     inkscape:connector-curvature="0"
     style="stroke-width:0.79370099" />
</svg>
