<?xml version="1.0" encoding="UTF-8" standalone="no"?>
<svg
   xmlns:dc="http://purl.org/dc/elements/1.1/"
   xmlns:cc="http://creativecommons.org/ns#"
   xmlns:rdf="http://www.w3.org/1999/02/22-rdf-syntax-ns#"
   xmlns:svg="http://www.w3.org/2000/svg"
   xmlns="http://www.w3.org/2000/svg"
   xmlns:sodipodi="http://sodipodi.sourceforge.net/DTD/sodipodi-0.dtd"
   xmlns:inkscape="http://www.inkscape.org/namespaces/inkscape"
   width="2548.6685"
   height="1003.4783"
   viewBox="0 0 2548.6686 1003.4783"
   version="1.2"
   id="svg372"
   sodipodi:docname="reharmonisation-1.svg"
   inkscape:version="0.92.3 (2405546, 2018-03-11)">
  <metadata
     id="metadata378">
    <rdf:RDF>
      <cc:Work
         rdf:about="">
        <dc:format>image/svg+xml</dc:format>
        <dc:type
           rdf:resource="http://purl.org/dc/dcmitype/StillImage" />
      </cc:Work>
    </rdf:RDF>
  </metadata>
  <defs
     id="defs376" />
  <sodipodi:namedview
     pagecolor="#ffffff"
     bordercolor="#666666"
     borderopacity="1"
     objecttolerance="10"
     gridtolerance="10"
     guidetolerance="10"
     inkscape:pageopacity="0"
     inkscape:pageshadow="2"
     inkscape:window-width="3840"
     inkscape:window-height="2066"
     id="namedview374"
     showgrid="false"
     inkscape:zoom="0.44281317"
     inkscape:cx="1273.0734"
     inkscape:cy="-749.5651"
     inkscape:window-x="-11"
     inkscape:window-y="-11"
     inkscape:window-maximized="1"
     inkscape:current-layer="svg372" />
  <title
     id="title2">reharmonisation</title>
  <desc
     id="desc4">Generated by MuseScore 3.6.2</desc>
  <polyline
     class="StaffLines"
     points="253.079,386.22 2763.78,386.22"
     id="polyline6"
     style="fill:none;stroke:#000000;stroke-width:3.22000003;stroke-linejoin:bevel"
     transform="translate(-215.11653,-351.68167)" />
  <polyline
     class="StaffLines"
     points="253.079,411.024 2763.78,411.024"
     id="polyline8"
     style="fill:none;stroke:#000000;stroke-width:3.22000003;stroke-linejoin:bevel"
     transform="translate(-215.11653,-351.68167)" />
  <polyline
     class="StaffLines"
     points="253.079,435.827 2763.78,435.827"
     id="polyline10"
     style="fill:none;stroke:#000000;stroke-width:3.22000003;stroke-linejoin:bevel"
     transform="translate(-215.11653,-351.68167)" />
  <polyline
     class="StaffLines"
     points="253.079,460.63 2763.78,460.63"
     id="polyline12"
     style="fill:none;stroke:#000000;stroke-width:3.22000003;stroke-linejoin:bevel"
     transform="translate(-215.11653,-351.68167)" />
  <polyline
     class="StaffLines"
     points="253.079,485.433 2763.78,485.433"
     id="polyline14"
     style="fill:none;stroke:#000000;stroke-width:3.22000003;stroke-linejoin:bevel"
     transform="translate(-215.11653,-351.68167)" />
  <polyline
     class="StaffLines"
     points="253.079,646.654 2763.78,646.654"
     id="polyline16"
     style="fill:none;stroke:#000000;stroke-width:3.22000003;stroke-linejoin:bevel"
     transform="translate(-215.11653,-351.68167)" />
  <polyline
     class="StaffLines"
     points="253.079,671.457 2763.78,671.457"
     id="polyline18"
     style="fill:none;stroke:#000000;stroke-width:3.22000003;stroke-linejoin:bevel"
     transform="translate(-215.11653,-351.68167)" />
  <polyline
     class="StaffLines"
     points="253.079,696.26 2763.78,696.26"
     id="polyline20"
     style="fill:none;stroke:#000000;stroke-width:3.22000003;stroke-linejoin:bevel"
     transform="translate(-215.11653,-351.68167)" />
  <polyline
     class="StaffLines"
     points="253.079,721.063 2763.78,721.063"
     id="polyline22"
     style="fill:none;stroke:#000000;stroke-width:3.22000003;stroke-linejoin:bevel"
     transform="translate(-215.11653,-351.68167)" />
  <polyline
     class="StaffLines"
     points="253.079,745.866 2763.78,745.866"
     id="polyline24"
     style="fill:none;stroke:#000000;stroke-width:3.22000003;stroke-linejoin:bevel"
     transform="translate(-215.11653,-351.68167)" />
  <polyline
     class="StaffLines"
     points="253.079,993.898 2763.78,993.898"
     id="polyline26"
     style="fill:none;stroke:#000000;stroke-width:3.22000003;stroke-linejoin:bevel"
     transform="translate(-215.11653,-351.68167)" />
  <polyline
     class="StaffLines"
     points="253.079,1018.7 2763.78,1018.7"
     id="polyline28"
     style="fill:none;stroke:#000000;stroke-width:3.22000003;stroke-linejoin:bevel"
     transform="translate(-215.11653,-351.68167)" />
  <polyline
     class="StaffLines"
     points="253.079,1043.5 2763.78,1043.5"
     id="polyline30"
     style="fill:none;stroke:#000000;stroke-width:3.22000003;stroke-linejoin:bevel"
     transform="translate(-215.11653,-351.68167)" />
  <polyline
     class="StaffLines"
     points="253.079,1068.31 2763.78,1068.31"
     id="polyline32"
     style="fill:none;stroke:#000000;stroke-width:3.22000003;stroke-linejoin:bevel"
     transform="translate(-215.11653,-351.68167)" />
  <polyline
     class="StaffLines"
     points="253.079,1093.11 2763.78,1093.11"
     id="polyline34"
     style="fill:none;stroke:#000000;stroke-width:3.22000003;stroke-linejoin:bevel"
     transform="translate(-215.11653,-351.68167)" />
  <polyline
     class="StaffLines"
     points="253.079,1254.33 2763.78,1254.33"
     id="polyline36"
     style="fill:none;stroke:#000000;stroke-width:3.22000003;stroke-linejoin:bevel"
     transform="translate(-215.11653,-351.68167)" />
  <polyline
     class="StaffLines"
     points="253.079,1279.13 2763.78,1279.13"
     id="polyline38"
     style="fill:none;stroke:#000000;stroke-width:3.22000003;stroke-linejoin:bevel"
     transform="translate(-215.11653,-351.68167)" />
  <polyline
     class="StaffLines"
     points="253.079,1303.94 2763.78,1303.94"
     id="polyline40"
     style="fill:none;stroke:#000000;stroke-width:3.22000003;stroke-linejoin:bevel"
     transform="translate(-215.11653,-351.68167)" />
  <polyline
     class="StaffLines"
     points="253.079,1328.74 2763.78,1328.74"
     id="polyline42"
     style="fill:none;stroke:#000000;stroke-width:3.22000003;stroke-linejoin:bevel"
     transform="translate(-215.11653,-351.68167)" />
  <polyline
     class="StaffLines"
     points="253.079,1353.54 2763.78,1353.54"
     id="polyline44"
     style="fill:none;stroke:#000000;stroke-width:3.22000003;stroke-linejoin:bevel"
     transform="translate(-215.11653,-351.68167)" />
  <polyline
     class="BarLine"
     points="255.063,645.041 255.063,747.478"
     id="polyline46"
     style="fill:none;stroke:#000000;stroke-width:3.97000003;stroke-linejoin:bevel"
     transform="translate(-215.11653,-351.68167)" />
  <polyline
     class="BarLine"
     points="598.883,645.041 598.883,747.478"
     id="polyline48"
     style="fill:none;stroke:#000000;stroke-width:3.97000003;stroke-linejoin:bevel"
     transform="translate(-215.11653,-351.68167)" />
  <polyline
     class="BarLine"
     points="1152.41,645.041 1152.41,747.478"
     id="polyline50"
     style="fill:none;stroke:#000000;stroke-width:3.97000003;stroke-linejoin:bevel"
     transform="translate(-215.11653,-351.68167)" />
  <polyline
     class="BarLine"
     points="1709.13,645.041 1709.13,747.478"
     id="polyline52"
     style="fill:none;stroke:#000000;stroke-width:3.97000003;stroke-linejoin:bevel"
     transform="translate(-215.11653,-351.68167)" />
  <polyline
     class="BarLine"
     points="2265.89,645.041 2265.89,747.478"
     id="polyline54"
     style="fill:none;stroke:#000000;stroke-width:3.97000003;stroke-linejoin:bevel"
     transform="translate(-215.11653,-351.68167)" />
  <polyline
     class="BarLine"
     points="2761.8,645.041 2761.8,747.478"
     id="polyline56"
     style="fill:none;stroke:#000000;stroke-width:3.97000003;stroke-linejoin:bevel"
     transform="translate(-215.11653,-351.68167)" />
  <polyline
     class="BarLine"
     points="255.063,1252.72 255.063,1355.16"
     id="polyline58"
     style="fill:none;stroke:#000000;stroke-width:3.97000003;stroke-linejoin:bevel"
     transform="translate(-215.11653,-351.68167)" />
  <polyline
     class="BarLine"
     points="550.069,1252.72 550.069,1355.16"
     id="polyline60"
     style="fill:none;stroke:#000000;stroke-width:3.97000003;stroke-linejoin:bevel"
     transform="translate(-215.11653,-351.68167)" />
  <polyline
     class="BarLine"
     points="1120.85,1252.72 1120.85,1355.16"
     id="polyline62"
     style="fill:none;stroke:#000000;stroke-width:3.97000003;stroke-linejoin:bevel"
     transform="translate(-215.11653,-351.68167)" />
  <polyline
     class="BarLine"
     points="1694.84,1252.72 1694.84,1355.16"
     id="polyline64"
     style="fill:none;stroke:#000000;stroke-width:3.97000003;stroke-linejoin:bevel"
     transform="translate(-215.11653,-351.68167)" />
  <polyline
     class="BarLine"
     points="2248.63,1252.72 2248.63,1355.16"
     id="polyline66"
     style="fill:none;stroke:#000000;stroke-width:3.97000003;stroke-linejoin:bevel"
     transform="translate(-215.11653,-351.68167)" />
  <polyline
     class="BarLine"
     points="2761.8,1252.72 2761.8,1355.16"
     id="polyline68"
     style="fill:none;stroke:#000000;stroke-width:3.97000003;stroke-linejoin:bevel"
     transform="translate(-215.11653,-351.68167)" />
  <polyline
     class="BarLine"
     points="255.063,384.608 255.063,646.654"
     id="polyline70"
     style="fill:none;stroke:#000000;stroke-width:3.97000003;stroke-linejoin:bevel"
     transform="translate(-215.11653,-351.68167)" />
  <polyline
     class="BarLine"
     points="598.883,384.608 598.883,646.654"
     id="polyline72"
     style="fill:none;stroke:#000000;stroke-width:3.97000003;stroke-linejoin:bevel"
     transform="translate(-215.11653,-351.68167)" />
  <polyline
     class="BarLine"
     points="1152.41,384.608 1152.41,646.654"
     id="polyline74"
     style="fill:none;stroke:#000000;stroke-width:3.97000003;stroke-linejoin:bevel"
     transform="translate(-215.11653,-351.68167)" />
  <polyline
     class="BarLine"
     points="1709.13,384.608 1709.13,646.654"
     id="polyline76"
     style="fill:none;stroke:#000000;stroke-width:3.97000003;stroke-linejoin:bevel"
     transform="translate(-215.11653,-351.68167)" />
  <polyline
     class="BarLine"
     points="2265.89,384.608 2265.89,646.654"
     id="polyline78"
     style="fill:none;stroke:#000000;stroke-width:3.97000003;stroke-linejoin:bevel"
     transform="translate(-215.11653,-351.68167)" />
  <polyline
     class="BarLine"
     points="2761.8,384.608 2761.8,646.654"
     id="polyline80"
     style="fill:none;stroke:#000000;stroke-width:3.97000003;stroke-linejoin:bevel"
     transform="translate(-215.11653,-351.68167)" />
  <polyline
     class="BarLine"
     points="255.063,992.285 255.063,1254.33"
     id="polyline82"
     style="fill:none;stroke:#000000;stroke-width:3.97000003;stroke-linejoin:bevel"
     transform="translate(-215.11653,-351.68167)" />
  <polyline
     class="BarLine"
     points="550.069,992.285 550.069,1254.33"
     id="polyline84"
     style="fill:none;stroke:#000000;stroke-width:3.97000003;stroke-linejoin:bevel"
     transform="translate(-215.11653,-351.68167)" />
  <polyline
     class="BarLine"
     points="1120.85,992.285 1120.85,1254.33"
     id="polyline86"
     style="fill:none;stroke:#000000;stroke-width:3.97000003;stroke-linejoin:bevel"
     transform="translate(-215.11653,-351.68167)" />
  <polyline
     class="BarLine"
     points="1694.84,992.285 1694.84,1254.33"
     id="polyline88"
     style="fill:none;stroke:#000000;stroke-width:3.97000003;stroke-linejoin:bevel"
     transform="translate(-215.11653,-351.68167)" />
  <polyline
     class="BarLine"
     points="2248.63,992.285 2248.63,1254.33"
     id="polyline90"
     style="fill:none;stroke:#000000;stroke-width:3.97000003;stroke-linejoin:bevel"
     transform="translate(-215.11653,-351.68167)" />
  <polyline
     class="BarLine"
     points="2761.8,992.285 2761.8,1254.33"
     id="polyline92"
     style="fill:none;stroke:#000000;stroke-width:3.97000003;stroke-linejoin:bevel"
     transform="translate(-215.11653,-351.68167)" />
  <path
     class="Accidental"
     d="m 1518.3641,304.80001 c 0.403,0 2.2788,-0.89912 2.5888,-1.10065 0.093,0 0.186,-0.093 0.2945,-0.093 0.6976,0 1.2867,0.99213 1.2867,1.78273 v 9.82825 c 0,1.08514 -0.4961,1.98425 -1.0851,2.27876 -0.6046,0.2016 -2.6819,1.08519 -2.6819,1.08519 -0.6976,0.2015 -1.1936,0.99213 -1.1936,1.59673 v 7.03784 c 0,0.58913 0.2945,0.89917 0.7906,0.89917 0.1085,0 0.2945,-0.10854 0.403,-0.10854 0,0 1.3797,-0.58913 2.2788,-0.88359 0.093,-0.10854 0.2015,-0.10854 0.2946,-0.10854 0.6975,0 1.1936,1.10067 1.1936,1.59673 v 12.19997 c 0,0.58913 0.5891,1.08519 1.2867,1.08519 0.9921,0 1.6897,-0.49606 1.6897,-1.08519 v -13.7967 c 0,-1.28669 0.496,-1.98425 0.9921,-2.18575 l 6.0458,-2.48032 c 0.1085,0 0.3101,-0.0931 0.403,-0.0931 0.7906,0 1.2867,1.19363 1.2867,1.78275 v 12.40158 c 0,0.6046 0.6046,1.10066 1.2867,1.10066 1.1006,0 1.6897,-0.49606 1.6897,-1.10066 v -14.09127 c 0,-0.79062 0.403,-1.98425 1.1007,-2.27881 0.682,-0.29456 2.7747,-1.08519 2.7747,-1.08519 0.6977,-0.29446 1.1938,-1.10056 1.1938,-1.68969 v -7.03789 c 0,-0.49606 -0.3101,-0.8061 -0.6977,-0.8061 -0.2015,0 -0.2945,0 -0.4961,0.10851 l -2.5887,0.99213 c -0.5891,0 -1.2867,-0.60458 -1.2867,-1.78273 v -9.23917 c 0,-0.68209 0.4961,-2.57333 1.2867,-2.86789 l 2.5887,-0.99213 c 0.6977,-0.29456 1.1938,-1.10066 1.1938,-1.68969 v -7.03794 c 0,-0.49606 -0.3101,-0.8061 -0.6977,-0.8061 -0.2015,0 -0.2945,0 -0.4961,0.10853 0,0 -1.9842,0.79063 -2.4803,0.88359 -0.6975,0 -1.3951,-0.49606 -1.3951,-1.28659 v -12.10711 c 0,-0.58902 -0.5891,-1.08509 -1.3797,-1.08509 -0.9921,0 -1.5967,0.49607 -1.5967,1.08509 v 12.89764 c -0.093,0.99212 -0.3875,2.29429 -1.2867,2.88341 -1.1936,0.69757 -4.5575,2.07722 -6.2473,2.48032 -0.8991,0 -1.1936,-1.19363 -1.1936,-1.98425 v -11.90551 c 0,-0.60461 -0.6976,-1.10067 -1.3952,-1.10067 -0.9921,0 -1.5812,0.49606 -1.5812,1.10067 v 13.3937 c 0,1.39512 -0.5891,2.38725 -1.1936,2.68181 -0.5891,0.29456 -2.5734,1.08519 -2.5734,1.08519 -0.6976,0.2015 -1.1936,0.99213 -1.1936,1.59663 v 7.03794 c 0,0.58908 0.2945,0.89912 0.7906,0.89912 m 6.8518,5.5497 c 0,-3.06939 0.093,-6.54183 0.2946,-7.34793 0.2015,-1.67422 4.7591,-3.76699 7.2394,-3.76699 0.6976,0 1.2867,0.20153 1.4882,0.60459 0.2015,0.49606 0.403,2.97637 0.403,5.64271 0,2.68184 -0.2015,5.4567 -0.403,6.35581 -0.5891,1.98425 -5.2552,3.9685 -7.534,3.9685 -0.6045,0 -1.1006,-0.20152 -1.1936,-0.49606 -0.2015,-0.40305 -0.2946,-2.57333 -0.2946,-4.96063"
     id="path94"
     inkscape:connector-curvature="0"
     style="stroke-width:0.99212599" />
  <polyline
     class="LedgerLine"
     points="633.111,621.85 685.593,621.85"
     id="polyline96"
     style="fill:none;stroke:#000000;stroke-width:3.97000003;stroke-linejoin:bevel"
     transform="translate(-215.11653,-351.68167)" />
  <polyline
     class="LedgerLine"
     points="633.111,597.047 685.593,597.047"
     id="polyline98"
     style="fill:none;stroke:#000000;stroke-width:3.97000003;stroke-linejoin:bevel"
     transform="translate(-215.11653,-351.68167)" />
  <polyline
     class="LedgerLine"
     points="1763.59,621.85 1816.08,621.85"
     id="polyline100"
     style="fill:none;stroke:#000000;stroke-width:3.97000003;stroke-linejoin:bevel"
     transform="translate(-215.11653,-351.68167)" />
  <polyline
     class="LedgerLine"
     points="1763.59,597.047 1816.08,597.047"
     id="polyline102"
     style="fill:none;stroke:#000000;stroke-width:3.97000003;stroke-linejoin:bevel"
     transform="translate(-215.11653,-351.68167)" />
  <polyline
     class="LedgerLine"
     points="584.297,1229.53 636.779,1229.53"
     id="polyline104"
     style="fill:none;stroke:#000000;stroke-width:3.97000003;stroke-linejoin:bevel"
     transform="translate(-215.11653,-351.68167)" />
  <polyline
     class="LedgerLine"
     points="584.297,1204.72 636.779,1204.72"
     id="polyline106"
     style="fill:none;stroke:#000000;stroke-width:3.97000003;stroke-linejoin:bevel"
     transform="translate(-215.11653,-351.68167)" />
  <polyline
     class="LedgerLine"
     points="1729.07,1229.53 1781.55,1229.53"
     id="polyline108"
     style="fill:none;stroke:#000000;stroke-width:3.97000003;stroke-linejoin:bevel"
     transform="translate(-215.11653,-351.68167)" />
  <polyline
     class="Stem"
     points="644.521,600.381 644.521,733.465"
     id="polyline110"
     style="fill:none;stroke:#000000;stroke-width:2.98000002;stroke-linejoin:bevel"
     transform="translate(-215.11653,-351.68167)" />
  <polyline
     class="Stem"
     points="1775,600.381 1775,745.866"
     id="polyline112"
     style="fill:none;stroke:#000000;stroke-width:2.98000002;stroke-linejoin:bevel"
     transform="translate(-215.11653,-351.68167)" />
  <polyline
     class="Stem"
     points="595.707,1208.06 595.707,1341.14"
     id="polyline114"
     style="fill:none;stroke:#000000;stroke-width:2.98000002;stroke-linejoin:bevel"
     transform="translate(-215.11653,-351.68167)" />
  <polyline
     class="Stem"
     points="1740.48,1220.46 1740.48,1353.54"
     id="polyline116"
     style="fill:none;stroke:#000000;stroke-width:2.98000002;stroke-linejoin:bevel"
     transform="translate(-215.11653,-351.68167)" />
  <polyline
     class="Stem"
     points="490.096,482.1 490.096,398.622"
     id="polyline118"
     style="fill:none;stroke:#000000;stroke-width:2.98000002;stroke-linejoin:bevel"
     transform="translate(-215.11653,-351.68167)" />
  <polyline
     class="Stem"
     points="674.184,444.895 674.184,367.618"
     id="polyline120"
     style="fill:none;stroke:#000000;stroke-width:2.98000002;stroke-linejoin:bevel"
     transform="translate(-215.11653,-351.68167)" />
  <polyline
     class="Stem"
     points="830.303,444.895 830.303,367.618"
     id="polyline122"
     style="fill:none;stroke:#000000;stroke-width:2.98000002;stroke-linejoin:bevel"
     transform="translate(-215.11653,-351.68167)" />
  <polyline
     class="Stem"
     points="927.878,444.895 927.878,367.618"
     id="polyline124"
     style="fill:none;stroke:#000000;stroke-width:2.98000002;stroke-linejoin:bevel"
     transform="translate(-215.11653,-351.68167)" />
  <polyline
     class="Stem"
     points="1084,444.895 1084,367.618"
     id="polyline126"
     style="fill:none;stroke:#000000;stroke-width:2.98000002;stroke-linejoin:bevel"
     transform="translate(-215.11653,-351.68167)" />
  <polyline
     class="Stem"
     points="1188.12,439.16 1188.12,510.236"
     id="polyline128"
     style="fill:none;stroke:#000000;stroke-width:2.98000002;stroke-linejoin:bevel"
     transform="translate(-215.11653,-351.68167)" />
  <polyline
     class="Stem"
     points="1280.4,426.759 1280.4,510.236"
     id="polyline130"
     style="fill:none;stroke:#000000;stroke-width:2.98000002;stroke-linejoin:bevel"
     transform="translate(-215.11653,-351.68167)" />
  <polyline
     class="Stem"
     points="1372.68,439.16 1372.68,510.236"
     id="polyline132"
     style="fill:none;stroke:#000000;stroke-width:2.98000002;stroke-linejoin:bevel"
     transform="translate(-215.11653,-351.68167)" />
  <polyline
     class="Stem"
     points="1494.62,444.895 1494.62,367.618"
     id="polyline134"
     style="fill:none;stroke:#000000;stroke-width:2.98000002;stroke-linejoin:bevel"
     transform="translate(-215.11653,-351.68167)" />
  <polyline
     class="Stem"
     points="1642.26,444.895 1642.26,367.618"
     id="polyline136"
     style="fill:none;stroke:#000000;stroke-width:2.98000002;stroke-linejoin:bevel"
     transform="translate(-215.11653,-351.68167)" />
  <polyline
     class="Stem"
     points="1775,439.16 1775,513.337"
     id="polyline138"
     style="fill:none;stroke:#000000;stroke-width:2.98000002;stroke-linejoin:bevel"
     transform="translate(-215.11653,-351.68167)" />
  <polyline
     class="Stem"
     points="1915.12,439.16 1915.12,522.638"
     id="polyline140"
     style="fill:none;stroke:#000000;stroke-width:2.98000002;stroke-linejoin:bevel"
     transform="translate(-215.11653,-351.68167)" />
  <polyline
     class="Stem"
     points="2002.69,426.759 2002.69,504.035"
     id="polyline142"
     style="fill:none;stroke:#000000;stroke-width:2.98000002;stroke-linejoin:bevel"
     transform="translate(-215.11653,-351.68167)" />
  <polyline
     class="Stem"
     points="2090.25,439.16 2090.25,510.236"
     id="polyline144"
     style="fill:none;stroke:#000000;stroke-width:2.98000002;stroke-linejoin:bevel"
     transform="translate(-215.11653,-351.68167)" />
  <polyline
     class="Stem"
     points="2177.82,451.562 2177.82,516.437"
     id="polyline146"
     style="fill:none;stroke:#000000;stroke-width:2.98000002;stroke-linejoin:bevel"
     transform="translate(-215.11653,-351.68167)" />
  <polyline
     class="Stem"
     points="2301.61,439.16 2301.61,513.337"
     id="polyline148"
     style="fill:none;stroke:#000000;stroke-width:2.98000002;stroke-linejoin:bevel"
     transform="translate(-215.11653,-351.68167)" />
  <polyline
     class="Stem"
     points="2528.34,482.1 2528.34,398.622"
     id="polyline150"
     style="fill:none;stroke:#000000;stroke-width:2.98000002;stroke-linejoin:bevel"
     transform="translate(-215.11653,-351.68167)" />
  <polyline
     class="Stem"
     points="2689.95,482.1 2689.95,398.622"
     id="polyline152"
     style="fill:none;stroke:#000000;stroke-width:2.98000002;stroke-linejoin:bevel"
     transform="translate(-215.11653,-351.68167)" />
  <polyline
     class="Stem"
     points="438.405,1089.78 438.405,1006.3"
     id="polyline154"
     style="fill:none;stroke:#000000;stroke-width:2.98000002;stroke-linejoin:bevel"
     transform="translate(-215.11653,-351.68167)" />
  <polyline
     class="Stem"
     points="625.37,1052.57 625.37,975.295"
     id="polyline156"
     style="fill:none;stroke:#000000;stroke-width:2.98000002;stroke-linejoin:bevel"
     transform="translate(-215.11653,-351.68167)" />
  <polyline
     class="Stem"
     points="786.801,1052.57 786.801,975.295"
     id="polyline158"
     style="fill:none;stroke:#000000;stroke-width:2.98000002;stroke-linejoin:bevel"
     transform="translate(-215.11653,-351.68167)" />
  <polyline
     class="Stem"
     points="887.696,1052.57 887.696,975.295"
     id="polyline160"
     style="fill:none;stroke:#000000;stroke-width:2.98000002;stroke-linejoin:bevel"
     transform="translate(-215.11653,-351.68167)" />
  <polyline
     class="Stem"
     points="1049.13,1052.57 1049.13,975.295"
     id="polyline162"
     style="fill:none;stroke:#000000;stroke-width:2.98000002;stroke-linejoin:bevel"
     transform="translate(-215.11653,-351.68167)" />
  <polyline
     class="Stem"
     points="1156.57,1046.84 1156.57,1117.91"
     id="polyline164"
     style="fill:none;stroke:#000000;stroke-width:2.98000002;stroke-linejoin:bevel"
     transform="translate(-215.11653,-351.68167)" />
  <polyline
     class="Stem"
     points="1252.6,1034.44 1252.6,1117.91"
     id="polyline166"
     style="fill:none;stroke:#000000;stroke-width:2.98000002;stroke-linejoin:bevel"
     transform="translate(-215.11653,-351.68167)" />
  <polyline
     class="Stem"
     points="1348.63,1046.84 1348.63,1117.91"
     id="polyline168"
     style="fill:none;stroke:#000000;stroke-width:2.98000002;stroke-linejoin:bevel"
     transform="translate(-215.11653,-351.68167)" />
  <polyline
     class="Stem"
     points="1474.32,1052.57 1474.32,975.295"
     id="polyline170"
     style="fill:none;stroke:#000000;stroke-width:2.98000002;stroke-linejoin:bevel"
     transform="translate(-215.11653,-351.68167)" />
  <polyline
     class="Stem"
     points="1627.97,1052.57 1627.97,975.295"
     id="polyline172"
     style="fill:none;stroke:#000000;stroke-width:2.98000002;stroke-linejoin:bevel"
     transform="translate(-215.11653,-351.68167)" />
  <polyline
     class="Stem"
     points="1740.48,1046.84 1740.48,1121.01"
     id="polyline174"
     style="fill:none;stroke:#000000;stroke-width:2.98000002;stroke-linejoin:bevel"
     transform="translate(-215.11653,-351.68167)" />
  <polyline
     class="Stem"
     points="1885.52,1046.84 1885.52,1130.31"
     id="polyline176"
     style="fill:none;stroke:#000000;stroke-width:2.98000002;stroke-linejoin:bevel"
     transform="translate(-215.11653,-351.68167)" />
  <polyline
     class="Stem"
     points="1976.17,1034.44 1976.17,1111.71"
     id="polyline178"
     style="fill:none;stroke:#000000;stroke-width:2.98000002;stroke-linejoin:bevel"
     transform="translate(-215.11653,-351.68167)" />
  <polyline
     class="Stem"
     points="2066.83,1046.84 2066.83,1117.91"
     id="polyline180"
     style="fill:none;stroke:#000000;stroke-width:2.98000002;stroke-linejoin:bevel"
     transform="translate(-215.11653,-351.68167)" />
  <polyline
     class="Stem"
     points="2157.48,1059.24 2157.48,1124.11"
     id="polyline182"
     style="fill:none;stroke:#000000;stroke-width:2.98000002;stroke-linejoin:bevel"
     transform="translate(-215.11653,-351.68167)" />
  <polyline
     class="Stem"
     points="2284.34,1046.84 2284.34,1121.01"
     id="polyline184"
     style="fill:none;stroke:#000000;stroke-width:2.98000002;stroke-linejoin:bevel"
     transform="translate(-215.11653,-351.68167)" />
  <polyline
     class="Stem"
     points="2518.47,1089.78 2518.47,1006.3"
     id="polyline186"
     style="fill:none;stroke:#000000;stroke-width:2.98000002;stroke-linejoin:bevel"
     transform="translate(-215.11653,-351.68167)" />
  <polyline
     class="Stem"
     points="2686.16,1089.78 2686.16,1006.3"
     id="polyline188"
     style="fill:none;stroke:#000000;stroke-width:2.98000002;stroke-linejoin:bevel"
     transform="translate(-215.11653,-351.68167)" />
  <path
     class="Note"
     d="m 427.91647,299.63843 c 0,5.75123 4.75911,9.22367 10.71188,9.22367 9.8282,0 21.93531,-9.13066 21.93531,-18.55587 0,-5.54972 -4.46456,-9.22366 -10.82042,-9.22366 -12.10703,0 -21.82677,9.02214 -21.82677,18.55586"
     id="path190"
     inkscape:connector-curvature="0"
     style="stroke-width:0.99212599" />
  <path
     class="Note"
     d="m 427.91647,274.83443 c 0,5.75123 4.75911,9.22367 10.71188,9.22367 9.8282,0 21.93531,-9.13066 21.93531,-18.55587 0,-5.54972 -4.46456,-9.22366 -10.82042,-9.22366 -12.10703,0 -21.82677,9.02214 -21.82677,18.55586"
     id="path192"
     inkscape:connector-curvature="0"
     style="stroke-width:0.99212599" />
  <path
     class="Note"
     d="m 427.91647,250.03143 c 0,5.75123 4.75911,9.22367 10.71188,9.22367 9.8282,0 21.93531,-9.13066 21.93531,-18.55587 0,-5.54972 -4.46456,-9.22366 -10.82042,-9.22366 -12.10703,0 -21.82677,9.02214 -21.82677,18.55586"
     id="path194"
     inkscape:connector-curvature="0"
     style="stroke-width:0.99212599" />
  <path
     class="Note"
     d="m 1558.4035,312.03943 c 0,5.75123 4.7591,9.22367 10.7119,9.22367 9.8282,0 21.9353,-9.13066 21.9353,-18.55587 0,-5.54972 -4.4646,-9.22366 -10.8205,-9.22366 -12.107,0 -21.8267,9.02214 -21.8267,18.55586"
     id="path196"
     inkscape:connector-curvature="0"
     style="stroke-width:0.99212599" />
  <path
     class="Note"
     d="m 1558.4035,287.23643 c 0,5.75123 4.7591,9.22367 10.7119,9.22367 9.8282,0 21.9353,-9.13066 21.9353,-18.55587 0,-5.54972 -4.4646,-9.22366 -10.8205,-9.22366 -12.107,0 -21.8267,9.02214 -21.8267,18.55586"
     id="path198"
     inkscape:connector-curvature="0"
     style="stroke-width:0.99212599" />
  <path
     class="Note"
     d="m 1558.4035,250.03143 c 0,5.75123 4.7591,9.22367 10.7119,9.22367 9.8282,0 21.9353,-9.13066 21.9353,-18.55587 0,-5.54972 -4.4646,-9.22366 -10.8205,-9.22366 -12.107,0 -21.8267,9.02214 -21.8267,18.55586"
     id="path200"
     inkscape:connector-curvature="0"
     style="stroke-width:0.99212599" />
  <path
     class="Note"
     d="m 379.10147,907.31443 c 0,5.75123 4.75911,9.22367 10.71188,9.22367 9.8282,0 21.93531,-9.13066 21.93531,-18.55587 0,-5.54972 -4.46456,-9.22366 -10.82042,-9.22366 -12.10703,0 -21.82677,9.02214 -21.82677,18.55586"
     id="path202"
     inkscape:connector-curvature="0"
     style="stroke-width:0.99212599" />
  <path
     class="Note"
     d="m 379.10147,882.51443 c 0,5.75123 4.75911,9.22367 10.71188,9.22367 9.8282,0 21.93531,-9.13066 21.93531,-18.55587 0,-5.54972 -4.46456,-9.22366 -10.82042,-9.22366 -12.10703,0 -21.82677,9.02214 -21.82677,18.55586"
     id="path204"
     inkscape:connector-curvature="0"
     style="stroke-width:0.99212599" />
  <path
     class="Note"
     d="m 379.10147,857.70443 c 0,5.75123 4.75911,9.22367 10.71188,9.22367 9.8282,0 21.93531,-9.13066 21.93531,-18.55587 0,-5.54972 -4.46456,-9.22366 -10.82042,-9.22366 -12.10703,0 -21.82677,9.02214 -21.82677,18.55586"
     id="path206"
     inkscape:connector-curvature="0"
     style="stroke-width:0.99212599" />
  <path
     class="Note"
     d="m 1523.8735,919.71443 c 0,5.75123 4.7591,9.22367 10.7119,9.22367 9.8282,0 21.9353,-9.13066 21.9353,-18.55587 0,-5.54972 -4.4646,-9.22366 -10.8205,-9.22366 -12.107,0 -21.8267,9.02214 -21.8267,18.55586"
     id="path208"
     inkscape:connector-curvature="0"
     style="stroke-width:0.99212599" />
  <path
     class="Note"
     d="m 1523.8735,894.91443 c 0,5.75123 4.7591,9.22367 10.7119,9.22367 9.8282,0 21.9353,-9.13066 21.9353,-18.55587 0,-5.54972 -4.4646,-9.22366 -10.8205,-9.22366 -12.107,0 -21.8267,9.02214 -21.8267,18.55586"
     id="path210"
     inkscape:connector-curvature="0"
     style="stroke-width:0.99212599" />
  <path
     class="Note"
     d="m 1523.8735,870.11443 c 0,5.75123 4.7591,9.22367 10.7119,9.22367 9.8282,0 21.9353,-9.13066 21.9353,-18.55587 0,-5.54972 -4.4646,-9.22366 -10.8205,-9.22366 -12.107,0 -21.8267,9.02214 -21.8267,18.55586"
     id="path212"
     inkscape:connector-curvature="0"
     style="stroke-width:0.99212599" />
  <path
     class="Note"
     d="m 243.82847,138.41743 c 0,5.75123 4.75911,9.22367 10.71188,9.22367 9.8282,0 21.93531,-9.13066 21.93531,-18.55587 0,-5.54972 -4.46456,-9.22366 -10.82042,-9.22366 -12.10703,0 -21.82677,9.02214 -21.82677,18.55586"
     id="path214"
     inkscape:connector-curvature="0"
     style="stroke-width:0.99212599" />
  <path
     class="Note"
     d="m 427.91647,101.21243 c 0,5.75123 4.75911,9.22367 10.71188,9.22367 9.8282,0 21.93531,-9.13066 21.93531,-18.555865 0,-5.549725 -4.46456,-9.223667 -10.82042,-9.223667 -12.10703,0 -21.82677,9.022146 -21.82677,18.555862"
     id="path216"
     inkscape:connector-curvature="0"
     style="stroke-width:0.99212599" />
  <path
     class="Note"
     d="m 584.03547,101.21243 c 0,5.75123 4.75911,9.22367 10.71188,9.22367 9.8282,0 21.93531,-9.13066 21.93531,-18.555865 0,-5.549725 -4.46456,-9.223667 -10.82042,-9.223667 -12.10703,0 -21.82677,9.022146 -21.82677,18.555862"
     id="path218"
     inkscape:connector-curvature="0"
     style="stroke-width:0.99212599" />
  <path
     class="Note"
     d="m 681.61047,101.21243 c 0,5.75123 4.75911,9.22367 10.71188,9.22367 9.8282,0 21.93531,-9.13066 21.93531,-18.555865 0,-5.549725 -4.46456,-9.223667 -10.82042,-9.223667 -12.10703,0 -21.82677,9.022146 -21.82677,18.555862"
     id="path220"
     inkscape:connector-curvature="0"
     style="stroke-width:0.99212599" />
  <path
     class="Note"
     d="m 837.73347,101.21243 c 0,5.75123 4.75911,9.22367 10.71188,9.22367 9.8282,0 21.93531,-9.13066 21.93531,-18.555865 0,-5.549725 -4.46456,-9.223667 -10.82042,-9.223667 -12.10703,0 -21.82677,9.022146 -21.82677,18.555862"
     id="path222"
     inkscape:connector-curvature="0"
     style="stroke-width:0.99212599" />
  <path
     class="Note"
     d="m 971.51347,88.81143 c 0,5.751225 4.75911,9.223666 10.71188,9.223666 9.8282,0 21.93535,-9.130654 21.93535,-18.555861 0,-5.549725 -4.4646,-9.223667 -10.82046,-9.223667 -12.10703,0 -21.82677,9.022146 -21.82677,18.555862"
     id="path224"
     inkscape:connector-curvature="0"
     style="stroke-width:0.99212599" />
  <path
     class="Note"
     d="m 1063.7935,76.40943 c 0,5.751225 4.7591,9.223666 10.7119,9.223666 9.8282,0 21.9353,-9.130654 21.9353,-18.555861 0,-5.549725 -4.4646,-9.223667 -10.8205,-9.223667 -12.107,0 -21.8267,9.022146 -21.8267,18.555862"
     id="path226"
     inkscape:connector-curvature="0"
     style="stroke-width:0.99212599" />
  <path
     class="Note"
     d="m 1156.0735,88.81143 c 0,5.751225 4.7591,9.223666 10.7119,9.223666 9.8282,0 21.9353,-9.130654 21.9353,-18.555861 0,-5.549725 -4.4646,-9.223667 -10.8205,-9.223667 -12.107,0 -21.8267,9.022146 -21.8267,18.555862"
     id="path228"
     inkscape:connector-curvature="0"
     style="stroke-width:0.99212599" />
  <path
     class="Note"
     d="m 1248.3535,101.21243 c 0,5.75123 4.7591,9.22367 10.7119,9.22367 9.8282,0 21.9353,-9.13066 21.9353,-18.555865 0,-5.549725 -4.4646,-9.223667 -10.8205,-9.223667 -12.107,0 -21.8267,9.022146 -21.8267,18.555862"
     id="path230"
     inkscape:connector-curvature="0"
     style="stroke-width:0.99212599" />
  <path
     class="Note"
     d="m 1395.9935,101.21243 c 0,5.75123 4.7591,9.22367 10.7119,9.22367 9.8282,0 21.9353,-9.13066 21.9353,-18.555865 0,-5.549725 -4.4646,-9.223667 -10.8205,-9.223667 -12.107,0 -21.8267,9.022146 -21.8267,18.555862"
     id="path232"
     inkscape:connector-curvature="0"
     style="stroke-width:0.99212599" />
  <path
     class="Note"
     d="m 1558.4035,88.81143 c 0,5.751225 4.7591,9.223666 10.7119,9.223666 9.8282,0 21.9353,-9.130654 21.9353,-18.555861 0,-5.549725 -4.4646,-9.223667 -10.8205,-9.223667 -12.107,0 -21.8267,9.022146 -21.8267,18.555862"
     id="path234"
     inkscape:connector-curvature="0"
     style="stroke-width:0.99212599" />
  <path
     class="Note"
     d="m 1698.5135,88.81143 c 0,5.751225 4.7591,9.223666 10.7119,9.223666 9.8282,0 21.9353,-9.130654 21.9353,-18.555861 0,-5.549725 -4.4646,-9.223667 -10.8205,-9.223667 -12.107,0 -21.8267,9.022146 -21.8267,18.555862"
     id="path236"
     inkscape:connector-curvature="0"
     style="stroke-width:0.99212599" />
  <path
     class="Note"
     d="m 1786.0835,76.40943 c 0,5.751225 4.7591,9.223666 10.7119,9.223666 9.8282,0 21.9353,-9.130654 21.9353,-18.555861 0,-5.549725 -4.4646,-9.223667 -10.8205,-9.223667 -12.107,0 -21.8267,9.022146 -21.8267,18.555862"
     id="path238"
     inkscape:connector-curvature="0"
     style="stroke-width:0.99212599" />
  <path
     class="Note"
     d="m 1873.6535,88.81143 c 0,5.751225 4.7591,9.223666 10.7119,9.223666 9.8282,0 21.9353,-9.130654 21.9353,-18.555861 0,-5.549725 -4.4646,-9.223667 -10.8205,-9.223667 -12.107,0 -21.8267,9.022146 -21.8267,18.555862"
     id="path240"
     inkscape:connector-curvature="0"
     style="stroke-width:0.99212599" />
  <path
     class="Note"
     d="m 1961.2235,101.21243 c 0,5.75123 4.7591,9.22367 10.7119,9.22367 9.8282,0 21.9353,-9.13066 21.9353,-18.555865 0,-5.549725 -4.4646,-9.223667 -10.8205,-9.223667 -12.107,0 -21.8267,9.022146 -21.8267,18.555862"
     id="path242"
     inkscape:connector-curvature="0"
     style="stroke-width:0.99212599" />
  <path
     class="Note"
     d="m 2085.0035,88.81143 c 0,5.751225 4.7591,9.223666 10.7119,9.223666 9.8282,0 21.9353,-9.130654 21.9353,-18.555861 0,-5.549725 -4.4646,-9.223667 -10.8205,-9.223667 -12.107,0 -21.8267,9.022146 -21.8267,18.555862"
     id="path244"
     inkscape:connector-curvature="0"
     style="stroke-width:0.99212599" />
  <path
     class="Note"
     d="m 2282.0735,138.41743 c 0,5.75123 4.7591,9.22367 10.7119,9.22367 9.8282,0 21.9353,-9.13066 21.9353,-18.55587 0,-5.54972 -4.4646,-9.22366 -10.8205,-9.22366 -12.107,0 -21.8267,9.02214 -21.8267,18.55586"
     id="path246"
     inkscape:connector-curvature="0"
     style="stroke-width:0.99212599" />
  <path
     class="Note"
     d="m 2443.6835,138.41743 c 0,5.75123 4.7591,9.22367 10.7119,9.22367 9.8282,0 21.9353,-9.13066 21.9353,-18.55587 0,-5.54972 -4.4646,-9.22366 -10.8205,-9.22366 -12.107,0 -21.8267,9.02214 -21.8267,18.55586"
     id="path248"
     inkscape:connector-curvature="0"
     style="stroke-width:0.99212599" />
  <path
     class="Note"
     d="m 192.13747,746.09443 c 0,5.75123 4.75911,9.22367 10.71188,9.22367 9.8282,0 21.93531,-9.13066 21.93531,-18.55587 0,-5.54972 -4.46456,-9.22366 -10.82042,-9.22366 -12.10703,0 -21.82677,9.02214 -21.82677,18.55586"
     id="path250"
     inkscape:connector-curvature="0"
     style="stroke-width:0.99212599" />
  <path
     class="Note"
     d="m 379.10147,708.89443 c 0,5.75123 4.75911,9.22367 10.71188,9.22367 9.8282,0 21.93531,-9.13066 21.93531,-18.55587 0,-5.54972 -4.46456,-9.22366 -10.82042,-9.22366 -12.10703,0 -21.82677,9.02214 -21.82677,18.55586"
     id="path252"
     inkscape:connector-curvature="0"
     style="stroke-width:0.99212599" />
  <path
     class="Note"
     d="m 540.53347,708.89443 c 0,5.75123 4.75911,9.22367 10.71188,9.22367 9.8282,0 21.93531,-9.13066 21.93531,-18.55587 0,-5.54972 -4.46456,-9.22366 -10.82042,-9.22366 -12.10703,0 -21.82677,9.02214 -21.82677,18.55586"
     id="path254"
     inkscape:connector-curvature="0"
     style="stroke-width:0.99212599" />
  <path
     class="Note"
     d="m 641.42747,708.89443 c 0,5.75123 4.75911,9.22367 10.71188,9.22367 9.8282,0 21.93531,-9.13066 21.93531,-18.55587 0,-5.54972 -4.46456,-9.22366 -10.82042,-9.22366 -12.10703,0 -21.82677,9.02214 -21.82677,18.55586"
     id="path256"
     inkscape:connector-curvature="0"
     style="stroke-width:0.99212599" />
  <path
     class="Note"
     d="m 802.86347,708.89443 c 0,5.75123 4.75911,9.22367 10.71188,9.22367 9.8282,0 21.93531,-9.13066 21.93531,-18.55587 0,-5.54972 -4.46456,-9.22366 -10.82042,-9.22366 -12.10703,0 -21.82677,9.02214 -21.82677,18.55586"
     id="path258"
     inkscape:connector-curvature="0"
     style="stroke-width:0.99212599" />
  <path
     class="Note"
     d="m 939.96347,696.48443 c 0,5.75123 4.75911,9.22367 10.71188,9.22367 9.8282,0 21.93531,-9.13066 21.93531,-18.55587 0,-5.54972 -4.46456,-9.22366 -10.82042,-9.22366 -12.10703,0 -21.82677,9.02214 -21.82677,18.55586"
     id="path260"
     inkscape:connector-curvature="0"
     style="stroke-width:0.99212599" />
  <path
     class="Note"
     d="m 1035.9935,684.08443 c 0,5.75123 4.7591,9.22367 10.7119,9.22367 9.8282,0 21.9353,-9.13066 21.9353,-18.55587 0,-5.54972 -4.4646,-9.22366 -10.8205,-9.22366 -12.107,0 -21.8267,9.02214 -21.8267,18.55586"
     id="path262"
     inkscape:connector-curvature="0"
     style="stroke-width:0.99212599" />
  <path
     class="Note"
     d="m 1132.0235,696.48443 c 0,5.75123 4.7591,9.22367 10.7119,9.22367 9.8282,0 21.9353,-9.13066 21.9353,-18.55587 0,-5.54972 -4.4646,-9.22366 -10.8205,-9.22366 -12.107,0 -21.8267,9.02214 -21.8267,18.55586"
     id="path264"
     inkscape:connector-curvature="0"
     style="stroke-width:0.99212599" />
  <path
     class="Note"
     d="m 1228.0535,708.89443 c 0,5.75123 4.7591,9.22367 10.7119,9.22367 9.8282,0 21.9353,-9.13066 21.9353,-18.55587 0,-5.54972 -4.4646,-9.22366 -10.8205,-9.22366 -12.107,0 -21.8267,9.02214 -21.8267,18.55586"
     id="path266"
     inkscape:connector-curvature="0"
     style="stroke-width:0.99212599" />
  <path
     class="Note"
     d="m 1381.7035,708.89443 c 0,5.75123 4.7591,9.22367 10.7119,9.22367 9.8282,0 21.9353,-9.13066 21.9353,-18.55587 0,-5.54972 -4.4646,-9.22366 -10.8205,-9.22366 -12.107,0 -21.8267,9.02214 -21.8267,18.55586"
     id="path268"
     inkscape:connector-curvature="0"
     style="stroke-width:0.99212599" />
  <path
     class="Note"
     d="m 1523.8735,696.48443 c 0,5.75123 4.7591,9.22367 10.7119,9.22367 9.8282,0 21.9353,-9.13066 21.9353,-18.55587 0,-5.54972 -4.4646,-9.22366 -10.8205,-9.22366 -12.107,0 -21.8267,9.02214 -21.8267,18.55586"
     id="path270"
     inkscape:connector-curvature="0"
     style="stroke-width:0.99212599" />
  <path
     class="Note"
     d="m 1668.9135,696.48443 c 0,5.75123 4.7591,9.22367 10.7119,9.22367 9.8282,0 21.9353,-9.13066 21.9353,-18.55587 0,-5.54972 -4.4646,-9.22366 -10.8205,-9.22366 -12.107,0 -21.8267,9.02214 -21.8267,18.55586"
     id="path272"
     inkscape:connector-curvature="0"
     style="stroke-width:0.99212599" />
  <path
     class="Note"
     d="m 1759.5735,684.08443 c 0,5.75123 4.7591,9.22367 10.7119,9.22367 9.8282,0 21.9353,-9.13066 21.9353,-18.55587 0,-5.54972 -4.4646,-9.22366 -10.8205,-9.22366 -12.107,0 -21.8267,9.02214 -21.8267,18.55586"
     id="path274"
     inkscape:connector-curvature="0"
     style="stroke-width:0.99212599" />
  <path
     class="Note"
     d="m 1850.2235,696.48443 c 0,5.75123 4.7591,9.22367 10.7119,9.22367 9.8282,0 21.9353,-9.13066 21.9353,-18.55587 0,-5.54972 -4.4646,-9.22366 -10.8205,-9.22366 -12.107,0 -21.8267,9.02214 -21.8267,18.55586"
     id="path276"
     inkscape:connector-curvature="0"
     style="stroke-width:0.99212599" />
  <path
     class="Note"
     d="m 1940.8735,708.89443 c 0,5.75123 4.7591,9.22367 10.7119,9.22367 9.8282,0 21.9353,-9.13066 21.9353,-18.55587 0,-5.54972 -4.4646,-9.22366 -10.8205,-9.22366 -12.107,0 -21.8267,9.02214 -21.8267,18.55586"
     id="path278"
     inkscape:connector-curvature="0"
     style="stroke-width:0.99212599" />
  <path
     class="Note"
     d="m 2067.7435,696.48443 c 0,5.75123 4.7591,9.22367 10.7119,9.22367 9.8282,0 21.9353,-9.13066 21.9353,-18.55587 0,-5.54972 -4.4646,-9.22366 -10.8205,-9.22366 -12.107,0 -21.8267,9.02214 -21.8267,18.55586"
     id="path280"
     inkscape:connector-curvature="0"
     style="stroke-width:0.99212599" />
  <path
     class="Note"
     d="m 2272.2035,746.09443 c 0,5.75123 4.7591,9.22367 10.7119,9.22367 9.8282,0 21.9353,-9.13066 21.9353,-18.55587 0,-5.54972 -4.4646,-9.22366 -10.8205,-9.22366 -12.107,0 -21.8267,9.02214 -21.8267,18.55586"
     id="path282"
     inkscape:connector-curvature="0"
     style="stroke-width:0.99212599" />
  <path
     class="Note"
     d="m 2439.8935,746.09443 c 0,5.75123 4.7591,9.22367 10.7119,9.22367 9.8282,0 21.9353,-9.13066 21.9353,-18.55587 0,-5.54972 -4.4646,-9.22366 -10.8205,-9.22366 -12.107,0 -21.8267,9.02214 -21.8267,18.55586"
     id="path284"
     inkscape:connector-curvature="0"
     style="stroke-width:0.99212599" />
  <path
     class="Clef"
     d="m 63.060069,382.77533 c 0.496068,0 1.10064,-0.2015 1.689715,-0.49606 24.415626,-11.90551 50.210906,-29.56228 50.210906,-59.72908 0,-17.25375 -10.52587,-28.77163 -27.68657,-28.77163 -17.269164,0 -25.004651,12.60307 -25.004651,22.12128 0,7.93701 4.170035,14.78888 12.200074,14.78888 6.247318,0 10.525862,-4.37156 10.525862,-10.51034 0,-6.3558 -4.666167,-10.32431 -9.533736,-10.32431 -2.681816,0 -3.673991,0.69759 -4.96065,0.69759 -1.286668,0 -1.5812,-0.79065 -1.5812,-1.78277 0,-3.96851 5.952726,-11.22343 16.075586,-11.22343 10.510285,0 15.083395,10.32436 15.083395,25.90384 0,27.68654 -13.703745,43.15746 -36.817205,56.34966 -0.899114,0.49606 -1.488189,0.99212 -1.488189,1.78275 0,0.6046 0.403051,1.19362 1.286663,1.19362 m 61.620371,-69.94488 c 3.06935,0 5.4567,-2.3873 5.4567,-5.45669 0,-3.06944 -2.38735,-5.4567 -5.4567,-5.4567 -3.08491,0 -5.45669,2.38726 -5.45669,5.4567 0,3.06939 2.37178,5.45669 5.45669,5.45669 m 0.093,24.71019 c 3.08491,0 5.36373,-2.29429 5.36373,-5.36373 0,-3.06939 -2.27882,-5.36368 -5.36373,-5.36368 -3.06934,0 -5.34816,2.29429 -5.34816,5.36368 0,3.06944 2.27882,5.36373 5.34816,5.36373"
     id="path286"
     inkscape:connector-curvature="0"
     style="stroke-width:0.99212599" />
  <path
     class="Clef"
     d="m 63.060069,990.44833 c 0.496068,0 1.10064,-0.2015 1.689715,-0.49606 24.415626,-11.90551 50.210906,-29.56228 50.210906,-59.72908 0,-17.25375 -10.52587,-28.77163 -27.68657,-28.77163 -17.269164,0 -25.004651,12.60307 -25.004651,22.12128 0,7.93701 4.170035,14.78888 12.200074,14.78888 6.247318,0 10.525862,-4.37156 10.525862,-10.51034 0,-6.3558 -4.666167,-10.32431 -9.533736,-10.32431 -2.681816,0 -3.673991,0.69759 -4.96065,0.69759 -1.286668,0 -1.5812,-0.79065 -1.5812,-1.78277 0,-3.96851 5.952726,-11.22343 16.075586,-11.22343 10.510285,0 15.083395,10.32436 15.083395,25.90384 0,27.68654 -13.703745,43.15746 -36.817205,56.34966 -0.899114,0.49606 -1.488189,0.99212 -1.488189,1.78275 0,0.6046 0.403051,1.19362 1.286663,1.19362 m 61.620371,-69.94488 c 3.06935,0 5.4567,-2.3873 5.4567,-5.45669 0,-3.06944 -2.38735,-5.4567 -5.4567,-5.4567 -3.08491,0 -5.45669,2.38726 -5.45669,5.4567 0,3.06939 2.37178,5.45669 5.45669,5.45669 m 0.093,24.71019 c 3.08491,0 5.36373,-2.29429 5.36373,-5.36373 0,-3.06939 -2.27882,-5.36368 -5.36373,-5.36368 -3.06934,0 -5.34816,2.29429 -5.34816,5.36368 0,3.06944 2.27882,5.36373 5.34816,5.36373"
     id="path288"
     inkscape:connector-curvature="0"
     style="stroke-width:0.99212599" />
  <path
     class="Clef"
     d="m 98.389106,133.95298 c 2.278714,0 4.852094,-0.2015 6.836344,-0.6045 1.10066,-0.18602 1.30216,-0.29456 1.48819,0.89907 1.19363,6.65032 2.68181,15.28499 2.68181,19.95105 0,14.68039 -9.921256,16.46305 -15.765473,16.46305 -5.363731,0 -7.952486,-1.58116 -7.952486,-2.88332 0,-0.68209 0.899065,-0.99213 3.177879,-1.67421 3.084917,-0.89917 6.65032,-3.58098 6.65032,-9.33224 0,-5.45669 -3.472441,-10.12276 -9.518159,-10.12276 -6.650419,0 -10.618923,5.25519 -10.618923,11.40945 0,6.44882 3.860064,16.16858 18.850394,16.16858 6.650418,0 19.548058,-2.97638 19.548058,-19.84252 0,-5.64272 -1.78275,-15.06792 -2.88342,-21.22217 -0.2015,-1.19373 -0.093,-1.10067 1.28669,-1.68979 10.0298,-3.96851 16.68012,-12.40158 16.68012,-23.60948 0,-12.711659 -9.33224,-23.919508 -23.91956,-23.919508 -2.57328,0 -2.57328,0 -2.86784,-1.782752 L 99.582733,67.775103 c -0.201501,-1.193626 0,-1.286688 0.589027,-1.891289 10.71188,-10.014223 18.85039,-22.617298 18.85039,-37.793751 0,-8.634571 -2.38725,-17.176181 -6.44882,-23.129433 C 111.08514,2.7908504 108.51187,0 107.4112,0 c -1.37965,0 -4.46456,2.5894489 -6.44882,4.7751024 -7.332403,8.1230316 -9.719756,20.5246066 -9.719756,30.8488686 0,5.751255 0.697663,12.200074 1.395227,16.277116 0.186023,1.193627 0.294562,1.379651 -0.899164,2.371777 -14.292766,11.81255 -29.469218,25.996777 -29.469218,46.040866 0,17.2692 11.81255,33.63925 36.119637,33.63925 m -28.182629,-26.9889 c 0,-5.85974 0.992126,-13.688263 9.223696,-23.020398 5.952756,-6.650419 10.525862,-10.324361 15.19193,-14.091364 0.992126,-0.790526 1.178149,-0.697564 1.37965,0.4031 l 2.092791,12.696138 c 0.294562,1.89119 0.294562,1.782652 -1.488189,2.387253 -8.743111,2.976378 -14.401305,10.804848 -14.401305,19.237971 0,8.92913 4.666068,15.28494 11.424927,17.56375 0.790625,0.29456 1.984252,0.6046 2.666338,0.6046 0.806103,0 1.193627,-0.49606 1.193627,-1.10066 0,-0.69756 -0.790625,-0.99213 -1.488189,-1.28669 -4.170005,-1.78272 -7.146383,-6.04577 -7.146383,-10.61885 0,-5.65822 3.875443,-9.921262 9.92126,-11.611021 1.59673,-0.387525 1.79823,-0.294463 1.98425,0.806102 l 4.96063,29.562279 c 0.2015,1.08519 0.10854,1.08519 -1.37965,1.37975 -1.59673,0.31004 -3.58098,0.49606 -5.56523,0.49606 -17.362205,0 -28.570153,-9.61122 -28.570153,-23.40802 M 108.89939,15.378449 c 3.27094,0 5.95276,2.681816 5.95276,8.138509 0,11.021924 -9.4252,19.951058 -17.253669,26.787402 -0.697564,0.604601 -1.100665,0.496063 -1.302166,-0.790625 -0.387524,-2.573278 -0.589124,-5.952756 -0.589124,-9.130635 0,-15.470915 7.146479,-25.004651 13.192199,-25.004651 m -2.86784,81.958934 c 8.02997,0.697563 14.68039,7.440917 14.68039,16.168527 0,6.26285 -3.767,11.31644 -9.33223,14.09132 -1.19363,0.6046 -1.37965,0.6046 -1.58116,-0.58913 l -4.86766,-28.27559 c -0.2015,-1.193627 -0.093,-1.488189 1.10066,-1.395127"
     id="path290"
     inkscape:connector-curvature="0"
     style="stroke-width:0.99212599" />
  <path
     class="Clef"
     d="m 98.389106,741.63298 c 2.278714,0 4.852094,-0.2015 6.836344,-0.6045 1.10066,-0.18602 1.30216,-0.29456 1.48819,0.89907 1.19363,6.65032 2.68181,15.28499 2.68181,19.95105 0,14.68039 -9.921256,16.46305 -15.765473,16.46305 -5.363731,0 -7.952486,-1.58116 -7.952486,-2.88332 0,-0.68209 0.899065,-0.99213 3.177879,-1.67421 3.084917,-0.89917 6.65032,-3.58098 6.65032,-9.33224 0,-5.45669 -3.472441,-10.12276 -9.518159,-10.12276 -6.650419,0 -10.618923,5.25519 -10.618923,11.40945 0,6.44882 3.860064,16.16858 18.850394,16.16858 6.650418,0 19.548058,-2.97638 19.548058,-19.84252 0,-5.64272 -1.78275,-15.06792 -2.88342,-21.22217 -0.2015,-1.19373 -0.093,-1.10067 1.28669,-1.68979 10.0298,-3.96851 16.68012,-12.40158 16.68012,-23.60948 0,-12.71166 -9.33224,-23.91951 -23.91956,-23.91951 -2.57328,0 -2.57328,0 -2.86784,-1.78275 L 99.582733,675.4551 c -0.201501,-1.19362 0,-1.28668 0.589027,-1.89129 10.71188,-10.01422 18.85039,-22.61729 18.85039,-37.79375 0,-8.63457 -2.38725,-17.17618 -6.44882,-23.12943 -1.48819,-2.16978 -4.06146,-4.96063 -5.16213,-4.96063 -1.37965,0 -4.46456,2.58945 -6.44882,4.7751 -7.332403,8.12303 -9.719756,20.52461 -9.719756,30.84887 0,5.75126 0.697663,12.20007 1.395227,16.27712 0.186023,1.19362 0.294562,1.37965 -0.899164,2.37177 -14.292766,11.81255 -29.469218,25.99678 -29.469218,46.04087 0,17.2692 11.81255,33.63925 36.119637,33.63925 m -28.182629,-26.9889 c 0,-5.85974 0.992126,-13.68826 9.223696,-23.0204 5.952756,-6.65042 10.525862,-10.32436 15.19193,-14.09136 0.992126,-0.79053 1.178149,-0.69757 1.37965,0.4031 l 2.092791,12.69614 c 0.294562,1.89119 0.294562,1.78265 -1.488189,2.38725 -8.743111,2.97638 -14.401305,10.80485 -14.401305,19.23797 0,8.92913 4.666068,15.28494 11.424927,17.56375 0.790625,0.29456 1.984252,0.6046 2.666338,0.6046 0.806103,0 1.193627,-0.49606 1.193627,-1.10066 0,-0.69756 -0.790625,-0.99213 -1.488189,-1.28669 -4.170005,-1.78272 -7.146383,-6.04577 -7.146383,-10.61885 0,-5.65822 3.875443,-9.92126 9.92126,-11.61102 1.59673,-0.38753 1.79823,-0.29446 1.98425,0.8061 l 4.96063,29.56228 c 0.2015,1.08519 0.10854,1.08519 -1.37965,1.37975 -1.59673,0.31004 -3.58098,0.49606 -5.56523,0.49606 -17.362205,0 -28.570153,-9.61122 -28.570153,-23.40802 m 38.692913,-91.58563 c 3.27094,0 5.95276,2.68181 5.95276,8.13851 0,11.02192 -9.4252,19.95106 -17.253669,26.7874 -0.697564,0.6046 -1.100665,0.49606 -1.302166,-0.79063 -0.387524,-2.57327 -0.589124,-5.95275 -0.589124,-9.13063 0,-15.47092 7.146479,-25.00465 13.192199,-25.00465 m -2.86784,81.95893 c 8.02997,0.69757 14.68039,7.44092 14.68039,16.16853 0,6.26285 -3.767,11.31644 -9.33223,14.09132 -1.19363,0.6046 -1.37965,0.6046 -1.58116,-0.58913 l -4.86766,-28.27559 c -0.2015,-1.19363 -0.093,-1.48819 1.10066,-1.39513"
     id="path292"
     inkscape:connector-curvature="0"
     style="stroke-width:0.99212599" />
  <path
     class="TimeSig"
     d="m 155.03272,319.4808 v 0.38754 c 0.093,4.57309 0.89912,9.73524 3.06939,13.70379 4.07702,7.33241 8.92918,10.91339 17.26919,10.91339 4.46457,0 9.4252,-0.69766 13.00618,-3.58098 3.47244,-2.77488 5.75126,-7.23944 5.75126,-11.70401 0,-7.73548 -7.34799,-14.38583 -14.99043,-14.38583 -3.17788,0 -6.44882,1.19365 -9.0222,3.47244 -0.2015,0.20152 -0.403,0.20152 -0.6045,0.20152 -0.58912,0 -0.88369,-0.79059 -0.88369,-2.3873 0.29457,-18.3543 6.15436,-18.85036 8.23157,-18.85036 1.98426,0 3.27094,0.49606 3.27094,1.48819 0,1.39512 -1.87571,2.58875 -2.48031,3.7669 -0.49606,0.89916 -0.69757,1.89129 -0.69757,2.88342 0,1.48818 0.49607,2.97637 1.50367,4.06146 0.68209,1.30222 3.5654,2.09281 4.85209,2.09281 4.17001,0 7.93701,-3.27096 7.93701,-7.5495 0,-0.38753 0,-0.68209 -0.093,-1.08509 -0.99213,-6.35586 -8.72764,-8.03007 -14.09137,-8.03007 -7.54938,0.0931 -14.58732,3.767 -18.15278,10.51039 -2.18577,4.17 -3.87549,9.42519 -3.87549,14.09129 m 20.04402,0.093 c 3.17798,0 5.8598,4.96063 5.8598,11.11491 0,6.15426 -2.68182,11.11489 -5.8598,11.11489 -3.17788,0 -5.75115,-4.96063 -5.75115,-11.11489 0,-6.15428 2.57327,-11.11491 5.75115,-11.11491"
     id="path294"
     inkscape:connector-curvature="0"
     style="stroke-width:0.99212599" />
  <path
     class="TimeSig"
     d="m 154.93972,383.32547 c 0,8.63467 8.92914,12.60318 18.75743,12.60318 9.92126,0 20.54009,-4.27855 20.54009,-17.6723 0,-5.95275 -3.47244,-9.22367 -8.13851,-11.59547 3.5654,-2.29429 5.95275,-5.56521 5.95275,-10.52581 0,-10.12286 -14.58742,-11.61105 -17.26924,-11.61105 -11.50241,0 -19.34646,5.27067 -19.34646,13.5953 0,6.85184 3.8755,10.52581 8.63458,13.19215 -5.16213,2.48032 -9.13064,5.76673 -9.13064,12.014 m 5.65822,-0.49606 c 0,-3.96848 3.47242,-7.64245 7.82854,-9.33216 7.25492,3.1779 14.58733,5.25517 14.58733,11.81247 0,3.96851 -3.06944,7.33251 -9.71976,7.33251 -6.65032,0 -12.69611,-3.364 -12.69611,-9.81282 m 13.9828,-35.42198 c 3.17788,0 11.61095,1.58116 11.61095,8.52604 0,3.9685 -1.98425,6.55738 -5.25519,8.43312 -7.93701,-2.77486 -16.37008,-4.46462 -16.37008,-10.71184 0,-4.1701 5.65829,-6.24732 10.01432,-6.24732"
     id="path296"
     inkscape:connector-curvature="0"
     style="stroke-width:0.99212599" />
  <path
     class="TimeSig"
     d="m 155.03272,59.047795 v 0.387549 c 0.093,4.573086 0.89912,9.735237 3.06939,13.70379 4.07702,7.332407 8.92918,10.913386 17.26919,10.913386 4.46457,0 9.4252,-0.697663 13.00618,-3.580979 3.47244,-2.774878 5.75126,-7.239445 5.75126,-11.704012 0,-7.735477 -7.34799,-14.385827 -14.99043,-14.385827 -3.17788,0 -6.44882,1.193647 -9.0222,3.472441 -0.2015,0.201521 -0.403,0.201521 -0.6045,0.201521 -0.58912,0 -0.88369,-0.790595 -0.88369,-2.387303 0.29457,-18.354301 6.15436,-18.850364 8.23157,-18.850364 1.98426,0 3.27094,0.496063 3.27094,1.488189 0,1.395127 -1.87571,2.588754 -2.48031,3.766904 -0.49606,0.899163 -0.69757,1.891289 -0.69757,2.883415 0,1.488189 0.49607,2.976378 1.50367,4.061467 0.68209,1.302215 3.5654,2.09281 4.85209,2.09281 4.17001,0 7.93701,-3.27096 7.93701,-7.549503 0,-0.387525 0,-0.682087 -0.093,-1.085089 -0.99213,-6.355856 -8.72764,-8.030069 -14.09137,-8.030069 -7.54938,0.09306 -14.58732,3.767003 -18.15278,10.510384 -2.18577,4.170005 -3.87549,9.425197 -3.87549,14.09129 m 20.04402,0.09301 c 3.17798,0 5.8598,4.960635 5.8598,11.114911 0,6.154257 -2.68182,11.114887 -5.8598,11.114887 -3.17788,0 -5.75115,-4.96063 -5.75115,-11.114887 0,-6.154276 2.57327,-11.114911 5.75115,-11.114911"
     id="path298"
     inkscape:connector-curvature="0"
     style="stroke-width:0.99212599" />
  <path
     class="TimeSig"
     d="m 154.93972,122.89247 c 0,8.63467 8.92914,12.60318 18.75743,12.60318 9.92126,0 20.54009,-4.27855 20.54009,-17.6723 0,-5.95275 -3.47244,-9.22367 -8.13851,-11.59547 3.5654,-2.29429 5.95275,-5.56521 5.95275,-10.525812 0,-10.12286 -14.58742,-11.611049 -17.26924,-11.611049 -11.50241,0 -19.34646,5.270669 -19.34646,13.595301 0,6.85184 3.8755,10.52581 8.63458,13.19215 -5.16213,2.48032 -9.13064,5.76673 -9.13064,12.014 m 5.65822,-0.49606 c 0,-3.96848 3.47242,-7.64245 7.82854,-9.33216 7.25492,3.1779 14.58733,5.25517 14.58733,11.81247 0,3.96851 -3.06944,7.33251 -9.71976,7.33251 -6.65032,0 -12.69611,-3.364 -12.69611,-9.81282 m 13.9828,-35.421976 c 3.17788,0 11.61095,1.581152 11.61095,8.526034 0,3.968504 -1.98425,6.557382 -5.25519,8.433122 -7.93701,-2.77486 -16.37008,-4.464618 -16.37008,-10.711837 0,-4.170104 5.65829,-6.247319 10.01432,-6.247319"
     id="path300"
     inkscape:connector-curvature="0"
     style="stroke-width:0.99212599" />
  <path
     class="Rest"
     d="m 246.51031,339.02863 c 1.58121,1.08514 3.47245,1.67421 5.34818,1.67421 1.39518,0 2.7904,-0.29454 3.87549,-0.68209 1.39523,-0.40305 2.27882,-0.8061 3.5655,-1.48819 0.2015,-0.10851 0.40301,-0.10851 0.49607,-0.10851 0.403,0 0.49606,0.40305 0.49606,0.89911 0,0.29454 0,0.69759 -0.0931,1.08514 -0.29456,1.48819 -7.44095,21.23768 -9.22367,27.77956 0,1.19362 2.27879,1.28668 2.86791,1.28668 1.10057,0 2.48032,-0.18602 3.47244,-0.99212 0.31004,-0.18603 10.0297,-35.01897 10.0297,-35.01897 0.38762,-1.78276 0.88369,-3.36401 0.99213,-3.86007 0,-0.99212 -0.99213,-1.48819 -1.19363,-1.59663 -0.2015,0 -0.49606,0 -1.08509,0.403 -0.69766,0.58913 -5.65829,6.54185 -8.92913,6.54185 v -0.99209 c 0,-3.67404 -2.97638,-6.65042 -6.65039,-6.65042 -3.67397,0 -6.65035,2.97638 -6.65035,6.65042 0,2.09274 1.19366,3.87546 2.68184,5.06912"
     id="path302"
     inkscape:connector-curvature="0"
     style="stroke-width:0.99212599" />
  <path
     class="Rest"
     d="m 194.81931,946.70863 c 1.58121,1.08514 3.47245,1.67421 5.34818,1.67421 1.39518,0 2.7904,-0.29454 3.87549,-0.68209 1.39523,-0.40305 2.27882,-0.8061 3.5655,-1.48819 0.2015,-0.10851 0.40301,-0.10851 0.49607,-0.10851 0.403,0 0.49606,0.40305 0.49606,0.89911 0,0.29454 0,0.69759 -0.0931,1.08514 -0.29456,1.48819 -7.44095,21.23768 -9.22367,27.77956 0,1.19362 2.27879,1.28668 2.86791,1.28668 1.10057,0 2.48032,-0.18602 3.47244,-0.99212 0.31004,-0.18603 10.0297,-35.01897 10.0297,-35.01897 0.38762,-1.78276 0.88369,-3.36401 0.99213,-3.86007 0,-0.99212 -0.99213,-1.48819 -1.19363,-1.59663 -0.2015,0 -0.49606,0 -1.08509,0.403 -0.69766,0.58913 -5.65829,6.54185 -8.92913,6.54185 v -0.99209 c 0,-3.67404 -2.97638,-6.65042 -6.65039,-6.65042 -3.67397,0 -6.65035,2.97638 -6.65035,6.65042 0,2.09274 1.19366,3.87546 2.68184,5.06912"
     id="path306"
     inkscape:connector-curvature="0"
     style="stroke-width:0.99212599" />
  <path
     class="Beam"
     d="m 971.51347,152.35333 h 187.53003 v 12.402 H 971.51347 v -12.402"
     id="path308"
     inkscape:connector-curvature="0"
     style="fill-rule:evenodd" />
  <path
     class="Beam"
     d="m 1786.0835,146.13733 178.11,12.612 v 12.433 l -178.11,-12.612 v -12.433"
     id="path310"
     inkscape:connector-curvature="0"
     style="fill-rule:evenodd" />
  <path
     class="Beam"
     d="m 939.96347,760.02833 h 195.04003 v 12.4 H 939.96347 v -12.4"
     id="path312"
     inkscape:connector-curvature="0"
     style="fill-rule:evenodd" />
  <path
     class="Beam"
     d="m 1759.5735,753.81833 184.28,12.6 v 12.43 l -184.28,-12.6 v -12.43"
     id="path314"
     inkscape:connector-curvature="0"
     style="fill-rule:evenodd" />
  <path
     class="Hook"
     d="m 293.03943,94.36088 c 1.48819,3.379379 2.37187,9.03767 2.37187,14.88189 0,4.46457 -0.68208,9.13063 -2.37187,13.5952 -0.2015,0.6046 -0.29447,1.10067 -0.29447,1.48819 0,1.59673 0.99213,2.48032 1.58116,2.88342 0.58912,0.403 2.27881,-0.2016 2.77487,-1.89129 0,0 2.58886,-9.4252 2.58886,-17.16071 0,-12.401573 -5.16223,-24.105485 -11.40945,-34.026745 -5.06919,-7.844046 -9.23923,-16.370079 -10.82043,-25.903834 -0.29453,-1.581206 -1.08513,-2.185783 -2.07726,-2.185783 -1.10064,0 -1.89124,0.31004 -1.89124,1.488189 v 23.718012 c 6.54183,1.193627 15.96708,14.68039 19.54796,23.113461"
     id="path316"
     inkscape:connector-curvature="0"
     style="stroke-width:0.99212599" />
  <path
     class="Hook"
     d="m 633.24643,63.35688 c 1.48819,3.379379 2.37187,9.037672 2.37187,14.88189 0,4.464567 -0.68208,9.130634 -2.37187,13.595201 -0.2015,0.604602 -0.29447,1.100665 -0.29447,1.488189 0,1.596728 0.99213,2.480315 1.58116,2.883416 0.58912,0.403002 2.27881,-0.2016 2.77487,-1.89129 0,0 2.58886,-9.425197 2.58886,-17.160704 0,-12.401575 -5.16223,-24.105487 -11.40945,-34.026747 -5.06919,-7.844046 -9.23923,-16.370079 -10.82043,-25.903834 -0.29453,-1.581206 -1.08513,-2.185783 -2.07726,-2.185783 -1.10064,0 -1.89124,0.31004 -1.89124,1.488189 v 23.718012 c 6.54183,1.193627 15.96708,14.68039 19.54796,23.113461"
     id="path318"
     inkscape:connector-curvature="0"
     style="stroke-width:0.99212599" />
  <path
     class="Hook"
     d="m 886.94143,63.35688 c 1.48819,3.379379 2.37187,9.037672 2.37187,14.88189 0,4.464567 -0.68208,9.130634 -2.37187,13.595201 -0.2015,0.604602 -0.29447,1.100665 -0.29447,1.488189 0,1.596728 0.99213,2.480315 1.58116,2.883416 0.58912,0.403002 2.27881,-0.2016 2.77487,-1.89129 0,0 2.58886,-9.425197 2.58886,-17.160704 0,-12.401575 -5.16223,-24.105487 -11.40945,-34.026747 -5.06919,-7.844046 -9.23923,-16.370079 -10.82043,-25.903834 -0.29453,-1.581206 -1.08513,-2.185783 -2.07726,-2.185783 -1.10064,0 -1.89124,0.31004 -1.89124,1.488189 v 23.718012 c 6.54183,1.193627 15.96708,14.68039 19.54796,23.113461"
     id="path320"
     inkscape:connector-curvature="0"
     style="stroke-width:0.99212599" />
  <path
     class="Hook"
     d="m 1445.2014,63.35688 c 1.4882,3.379379 2.3719,9.037672 2.3719,14.88189 0,4.464567 -0.6821,9.130634 -2.3719,13.595201 -0.2015,0.604602 -0.2944,1.100665 -0.2944,1.488189 0,1.596728 0.9921,2.480315 1.5811,2.883416 0.5891,0.403002 2.2788,-0.2016 2.7749,-1.89129 0,0 2.5888,-9.425197 2.5888,-17.160704 0,-12.401575 -5.1622,-24.105487 -11.4094,-34.026747 -5.0692,-7.844046 -9.2392,-16.370079 -10.8204,-25.903834 -0.2946,-1.581206 -1.0852,-2.185783 -2.0773,-2.185783 -1.1006,0 -1.8912,0.31004 -1.8912,1.488189 v 23.718012 c 6.5418,1.193627 15.967,14.68039 19.5479,23.113461"
     id="path322"
     inkscape:connector-curvature="0"
     style="stroke-width:0.99212599" />
  <path
     class="Hook"
     d="m 1700.0947,172.35151 c 0.8991,0 2.1858,-0.60458 2.3873,-2.18578 1.6897,-9.42522 9.0222,-18.05979 14.0912,-25.90384 6.2474,-9.81272 12.3087,-21.62517 12.3087,-34.02674 0,-7.73551 -1.9843,-14.788932 -2.7904,-17.966811 -0.2946,-1.085187 -0.8836,-1.488189 -1.5813,-1.488189 -1.4881,0 -3.1778,1.891191 -2.1857,4.774606 1.3952,4.170005 2.0928,9.130634 2.0928,13.595204 0,5.84422 -2.4958,14.18432 -3.984,17.54823 -3.6585,8.34011 -8.6191,16.37008 -21.9198,20.85012 v 23.31501 c 0,0.99213 0.7906,1.48819 1.5812,1.48819"
     id="path324"
     inkscape:connector-curvature="0"
     style="stroke-width:0.99212599" />
  <path
     class="Hook"
     d="m 2492.8914,94.36088 c 1.4882,3.379379 2.3719,9.03767 2.3719,14.88189 0,4.46457 -0.6821,9.13063 -2.3719,13.5952 -0.2015,0.6046 -0.2944,1.10067 -0.2944,1.48819 0,1.59673 0.9921,2.48032 1.5811,2.88342 0.5891,0.403 2.2788,-0.2016 2.7749,-1.89129 0,0 2.5888,-9.4252 2.5888,-17.16071 0,-12.401573 -5.1622,-24.105485 -11.4094,-34.026745 -5.0692,-7.844046 -9.2392,-16.370079 -10.8204,-25.903834 -0.2946,-1.581206 -1.0852,-2.185783 -2.0773,-2.185783 -1.1006,0 -1.8912,0.31004 -1.8912,1.488189 v 23.718012 c 6.5418,1.193627 15.967,14.68039 19.5479,23.113461"
     id="path326"
     inkscape:connector-curvature="0"
     style="stroke-width:0.99212599" />
  <path
     class="Hook"
     d="m 241.34843,702.03888 c 1.48819,3.37938 2.37187,9.03767 2.37187,14.88189 0,4.46457 -0.68208,9.13063 -2.37187,13.5952 -0.2015,0.6046 -0.29447,1.10067 -0.29447,1.48819 0,1.59673 0.99213,2.48032 1.58116,2.88342 0.58912,0.403 2.27881,-0.2016 2.77487,-1.89129 0,0 2.58886,-9.4252 2.58886,-17.16071 0,-12.40157 -5.16223,-24.10548 -11.40945,-34.02674 -5.06919,-7.84405 -9.23923,-16.37008 -10.82043,-25.90384 -0.29453,-1.5812 -1.08513,-2.18578 -2.07726,-2.18578 -1.10064,0 -1.89124,0.31004 -1.89124,1.48819 v 23.71801 c 6.54183,1.19363 15.96708,14.68039 19.54796,23.11346"
     id="path328"
     inkscape:connector-curvature="0"
     style="stroke-width:0.99212599" />
  <path
     class="Hook"
     d="m 589.74443,671.03388 c 1.48819,3.37938 2.37187,9.03767 2.37187,14.88189 0,4.46457 -0.68208,9.13063 -2.37187,13.5952 -0.2015,0.6046 -0.29447,1.10067 -0.29447,1.48819 0,1.59673 0.99213,2.48032 1.58116,2.88342 0.58912,0.403 2.27881,-0.2016 2.77487,-1.89129 0,0 2.58886,-9.4252 2.58886,-17.16071 0,-12.40157 -5.16223,-24.10548 -11.40945,-34.02674 -5.06919,-7.84405 -9.23923,-16.37008 -10.82043,-25.90384 -0.29453,-1.5812 -1.08513,-2.18578 -2.07726,-2.18578 -1.10064,0 -1.89124,0.31004 -1.89124,1.48819 v 23.71801 c 6.54183,1.19363 15.96708,14.68039 19.54796,23.11346"
     id="path330"
     inkscape:connector-curvature="0"
     style="stroke-width:0.99212599" />
  <path
     class="Hook"
     d="m 852.07143,671.03388 c 1.48819,3.37938 2.37187,9.03767 2.37187,14.88189 0,4.46457 -0.68208,9.13063 -2.37187,13.5952 -0.2015,0.6046 -0.29447,1.10067 -0.29447,1.48819 0,1.59673 0.99213,2.48032 1.58116,2.88342 0.58912,0.403 2.27881,-0.2016 2.77487,-1.89129 0,0 2.58886,-9.4252 2.58886,-17.16071 0,-12.40157 -5.16223,-24.10548 -11.40945,-34.02674 -5.06919,-7.84405 -9.23923,-16.37008 -10.82043,-25.90384 -0.29453,-1.5812 -1.08513,-2.18578 -2.07726,-2.18578 -1.10064,0 -1.89124,0.31004 -1.89124,1.48819 v 23.71801 c 6.54183,1.19363 15.96708,14.68039 19.54796,23.11346"
     id="path332"
     inkscape:connector-curvature="0"
     style="stroke-width:0.99212599" />
  <path
     class="Hook"
     d="m 1430.9114,671.03388 c 1.4882,3.37938 2.3719,9.03767 2.3719,14.88189 0,4.46457 -0.6821,9.13063 -2.3719,13.5952 -0.2015,0.6046 -0.2944,1.10067 -0.2944,1.48819 0,1.59673 0.9921,2.48032 1.5811,2.88342 0.5891,0.403 2.2788,-0.2016 2.7749,-1.89129 0,0 2.5888,-9.4252 2.5888,-17.16071 0,-12.40157 -5.1622,-24.10548 -11.4094,-34.02674 -5.0692,-7.84405 -9.2392,-16.37008 -10.8204,-25.90384 -0.2946,-1.5812 -1.0852,-2.18578 -2.0773,-2.18578 -1.1006,0 -1.8912,0.31004 -1.8912,1.48819 v 23.71801 c 6.5418,1.19363 15.967,14.68039 19.5479,23.11346"
     id="path334"
     inkscape:connector-curvature="0"
     style="stroke-width:0.99212599" />
  <path
     class="Hook"
     d="m 1670.4947,780.02351 c 0.8991,0 2.1858,-0.60458 2.3873,-2.18578 1.6897,-9.42522 9.0222,-18.05979 14.0912,-25.90384 6.2474,-9.81272 12.3087,-21.62517 12.3087,-34.02674 0,-7.73551 -1.9843,-14.78893 -2.7904,-17.96681 -0.2946,-1.08519 -0.8836,-1.48819 -1.5813,-1.48819 -1.4881,0 -3.1778,1.89119 -2.1857,4.77461 1.3952,4.17 2.0928,9.13063 2.0928,13.5952 0,5.84422 -2.4958,14.18432 -3.984,17.54823 -3.6585,8.34011 -8.6191,16.37008 -21.9198,20.85012 v 23.31501 c 0,0.99213 0.7906,1.48819 1.5812,1.48819"
     id="path336"
     inkscape:connector-curvature="0"
     style="stroke-width:0.99212599" />
  <path
     class="Hook"
     d="m 2489.1014,702.03888 c 1.4882,3.37938 2.3719,9.03767 2.3719,14.88189 0,4.46457 -0.6821,9.13063 -2.3719,13.5952 -0.2015,0.6046 -0.2944,1.10067 -0.2944,1.48819 0,1.59673 0.9921,2.48032 1.5811,2.88342 0.5891,0.403 2.2788,-0.2016 2.7749,-1.89129 0,0 2.5888,-9.4252 2.5888,-17.16071 0,-12.40157 -5.1622,-24.10548 -11.4094,-34.02674 -5.0692,-7.84405 -9.2392,-16.37008 -10.8204,-25.90384 -0.2946,-1.5812 -1.0852,-2.18578 -2.0773,-2.18578 -1.1006,0 -1.8912,0.31004 -1.8912,1.48819 v 23.71801 c 6.5418,1.19363 15.967,14.68039 19.5479,23.11346"
     id="path338"
     inkscape:connector-curvature="0"
     style="stroke-width:0.99212599" />
  <path
     class="NoteDot"
     d="m 477.9181,287.53096 c 2.77486,0 4.96063,-2.18577 4.96063,-4.96063 0,-2.77485 -2.18577,-4.96063 -4.96063,-4.96063 -2.77485,0 -4.96063,2.18578 -4.96063,4.96063 0,2.77486 2.18578,4.96063 4.96063,4.96063"
     id="path340"
     inkscape:connector-curvature="0"
     style="stroke-width:0.99212599" />
  <path
     class="NoteDot"
     d="m 477.9181,262.72796 c 2.77486,0 4.96063,-2.18577 4.96063,-4.96063 0,-2.77485 -2.18577,-4.96063 -4.96063,-4.96063 -2.77485,0 -4.96063,2.18578 -4.96063,4.96063 0,2.77486 2.18578,4.96063 4.96063,4.96063"
     id="path342"
     inkscape:connector-curvature="0"
     style="stroke-width:0.99212599" />
  <path
     class="NoteDot"
     d="m 477.9181,237.92496 c 2.77486,0 4.96063,-2.18577 4.96063,-4.96063 0,-2.77485 -2.18577,-4.96063 -4.96063,-4.96063 -2.77485,0 -4.96063,2.18578 -4.96063,4.96063 0,2.77486 2.18578,4.96063 4.96063,4.96063"
     id="path344"
     inkscape:connector-curvature="0"
     style="stroke-width:0.99212599" />
  <path
     class="NoteDot"
     d="m 1608.4041,312.33396 c 2.7749,0 4.9606,-2.18577 4.9606,-4.96063 0,-2.77485 -2.1857,-4.96063 -4.9606,-4.96063 -2.7748,0 -4.9606,2.18578 -4.9606,4.96063 0,2.77486 2.1858,4.96063 4.9606,4.96063"
     id="path346"
     inkscape:connector-curvature="0"
     style="stroke-width:0.99212599" />
  <path
     class="NoteDot"
     d="m 1608.4041,287.53096 c 2.7749,0 4.9606,-2.18577 4.9606,-4.96063 0,-2.77485 -2.1857,-4.96063 -4.9606,-4.96063 -2.7748,0 -4.9606,2.18578 -4.9606,4.96063 0,2.77486 2.1858,4.96063 4.9606,4.96063"
     id="path348"
     inkscape:connector-curvature="0"
     style="stroke-width:0.99212599" />
  <path
     class="NoteDot"
     d="m 1608.4041,237.92496 c 2.7749,0 4.9606,-2.18577 4.9606,-4.96063 0,-2.77485 -2.1857,-4.96063 -4.9606,-4.96063 -2.7748,0 -4.9606,2.18578 -4.9606,4.96063 0,2.77486 2.1858,4.96063 4.9606,4.96063"
     id="path350"
     inkscape:connector-curvature="0"
     style="stroke-width:0.99212599" />
  <path
     class="NoteDot"
     d="m 429.1031,895.20896 c 2.77486,0 4.96063,-2.18577 4.96063,-4.96063 0,-2.77485 -2.18577,-4.96063 -4.96063,-4.96063 -2.77485,0 -4.96063,2.18578 -4.96063,4.96063 0,2.77486 2.18578,4.96063 4.96063,4.96063"
     id="path352"
     inkscape:connector-curvature="0"
     style="stroke-width:0.99212599" />
  <path
     class="NoteDot"
     d="m 429.1031,870.40896 c 2.77486,0 4.96063,-2.18577 4.96063,-4.96063 0,-2.77485 -2.18577,-4.96063 -4.96063,-4.96063 -2.77485,0 -4.96063,2.18578 -4.96063,4.96063 0,2.77486 2.18578,4.96063 4.96063,4.96063"
     id="path354"
     inkscape:connector-curvature="0"
     style="stroke-width:0.99212599" />
  <path
     class="NoteDot"
     d="m 429.1031,845.59896 c 2.77486,0 4.96063,-2.18577 4.96063,-4.96063 0,-2.77485 -2.18577,-4.96063 -4.96063,-4.96063 -2.77485,0 -4.96063,2.18578 -4.96063,4.96063 0,2.77486 2.18578,4.96063 4.96063,4.96063"
     id="path356"
     inkscape:connector-curvature="0"
     style="stroke-width:0.99212599" />
  <path
     class="NoteDot"
     d="m 1573.8741,920.00896 c 2.7749,0 4.9606,-2.18577 4.9606,-4.96063 0,-2.77485 -2.1857,-4.96063 -4.9606,-4.96063 -2.7748,0 -4.9606,2.18578 -4.9606,4.96063 0,2.77486 2.1858,4.96063 4.9606,4.96063"
     id="path358"
     inkscape:connector-curvature="0"
     style="stroke-width:0.99212599" />
  <path
     class="NoteDot"
     d="m 1573.8741,895.20896 c 2.7749,0 4.9606,-2.18577 4.9606,-4.96063 0,-2.77485 -2.1857,-4.96063 -4.9606,-4.96063 -2.7748,0 -4.9606,2.18578 -4.9606,4.96063 0,2.77486 2.1858,4.96063 4.9606,4.96063"
     id="path360"
     inkscape:connector-curvature="0"
     style="stroke-width:0.99212599" />
  <path
     class="NoteDot"
     d="m 1573.8741,870.40896 c 2.7749,0 4.9606,-2.18577 4.9606,-4.96063 0,-2.77485 -2.1857,-4.96063 -4.9606,-4.96063 -2.7748,0 -4.9606,2.18578 -4.9606,4.96063 0,2.77486 2.1858,4.96063 4.9606,4.96063"
     id="path362"
     inkscape:connector-curvature="0"
     style="stroke-width:0.99212599" />
  <path
     class="NoteDot"
     d="m 2135.0041,76.703962 c 2.7749,0 4.9606,-2.185772 4.9606,-4.96063 0,-2.774857 -2.1857,-4.96063 -4.9606,-4.96063 -2.7748,0 -4.9606,2.185773 -4.9606,4.96063 0,2.774858 2.1858,4.96063 4.9606,4.96063"
     id="path364"
     inkscape:connector-curvature="0"
     style="stroke-width:0.99212599" />
  <path
     class="NoteDot"
     d="m 2117.7441,684.37896 c 2.7749,0 4.9606,-2.18577 4.9606,-4.96063 0,-2.77485 -2.1857,-4.96063 -4.9606,-4.96063 -2.7748,0 -4.9606,2.18578 -4.9606,4.96063 0,2.77486 2.1858,4.96063 4.9606,4.96063"
     id="path366"
     inkscape:connector-curvature="0"
     style="stroke-width:0.99212599" />
  <path
     class="Bracket"
     d="m 16.914601,251.39372 c 0,25.17522 -12.5876101,47.48442 -12.5876101,73.72743 0,35.96449 9.6654861,56.81274 17.5889551,66.92778 1.461062,1.79823 2.191575,2.1354 2.865911,2.1354 1.123894,0 2.191611,-1.0677 2.191611,-2.1354 0,-1.12389 -0.393381,-2.19161 -1.79823,-3.98984 -1.79823,-2.86591 -10.058867,-20.84821 -10.058867,-39.8983 0,-19.05009 10.78938,-52.87911 13.261946,-74.12088 0.393381,-1.79823 0.393381,-3.59646 0.393381,-5.73168 0,-21.24177 -11.857097,-46.75398 -22.3093089,-53.21646 10.4522119,-6.51858 22.3093089,-32.03079 22.3093089,-53.27256 0,-1.79823 0,-3.93345 -0.393381,-5.73168 -2.472566,-21.57876 -13.261946,-55.01469 -13.261946,-74.458229 0,-18.712741 8.260637,-36.695041 10.058867,-39.898049 1.404849,-1.461241 1.79823,-2.528671 1.79823,-3.59646 0,-0.730441 -0.393381,-1.461241 -0.730549,-1.461241 -0.337168,-0.336989 -0.730513,-1.06743 -1.461062,-1.06743 -0.674336,0 -1.404849,0.730441 -2.865911,2.528671 -7.923469,9.665487 -17.5889551,30.56991 -17.5889551,66.534508 0,35.57115 12.5876101,49.95699 12.5876101,72.65964 0,16.85841 -6.855752,26.24301 -16.914601,37.76283 6.4623891,7.19292 16.914601,12.92496 16.914601,36.30195"
     id="path368"
     inkscape:connector-curvature="0"
     style="stroke-width:3.5964601" />
  <path
     class="Bracket"
     d="m 16.914601,859.06772 c 0,25.17522 -12.5876101,47.48442 -12.5876101,73.72743 0,35.96449 9.6654861,56.81274 17.5889551,66.92778 1.461062,1.79827 2.191575,2.13537 2.865911,2.13537 1.123894,0 2.191611,-1.0677 2.191611,-2.13537 0,-1.12389 -0.393381,-2.19161 -1.79823,-3.98984 -1.79823,-2.86591 -10.058867,-20.84821 -10.058867,-39.8983 0,-19.05009 10.78938,-52.87911 13.261946,-74.12088 0.393381,-1.79823 0.393381,-3.59646 0.393381,-5.73168 0,-21.24177 -11.857097,-46.75398 -22.3093089,-53.21646 10.4522119,-6.51858 22.3093089,-32.03079 22.3093089,-53.27256 0,-1.79823 0,-3.93345 -0.393381,-5.73168 -2.472566,-21.57876 -13.261946,-55.01469 -13.261946,-74.45823 0,-18.71274 8.260637,-36.69504 10.058867,-39.89805 1.404849,-1.46124 1.79823,-2.52867 1.79823,-3.59646 0,-0.73044 -0.393381,-1.46124 -0.730549,-1.46124 -0.337168,-0.33699 -0.730513,-1.06743 -1.461062,-1.06743 -0.674336,0 -1.404849,0.73044 -2.865911,2.52867 -7.923469,9.66549 -17.5889551,30.56991 -17.5889551,66.53451 0,35.57115 12.5876101,49.95699 12.5876101,72.65964 0,16.85841 -6.855752,26.24301 -16.914601,37.76283 6.4623891,7.19292 16.914601,12.92496 16.914601,36.30195"
     id="path370"
     inkscape:connector-curvature="0"
     style="stroke-width:3.5964601" />
</svg>
