<?xml version="1.0" encoding="UTF-8" standalone="no"?>
<svg
   xmlns:dc="http://purl.org/dc/elements/1.1/"
   xmlns:cc="http://creativecommons.org/ns#"
   xmlns:rdf="http://www.w3.org/1999/02/22-rdf-syntax-ns#"
   xmlns:svg="http://www.w3.org/2000/svg"
   xmlns="http://www.w3.org/2000/svg"
   xmlns:xlink="http://www.w3.org/1999/xlink"
   xmlns:sodipodi="http://sodipodi.sourceforge.net/DTD/sodipodi-0.dtd"
   xmlns:inkscape="http://www.inkscape.org/namespaces/inkscape"
   version="1.1"
   width="988.19702pt"
   height="538.25867pt"
   viewBox="0 0 988.19699 538.25867"
   id="svg120"
   sodipodi:docname="Beispiel-Benennung-Seite001.svg"
   inkscape:version="0.92.3 (2405546, 2018-03-11)">
  <metadata
     id="metadata124">
    <rdf:RDF>
      <cc:Work
         rdf:about="">
        <dc:format>image/svg+xml</dc:format>
        <dc:type
           rdf:resource="http://purl.org/dc/dcmitype/StillImage" />
      </cc:Work>
    </rdf:RDF>
  </metadata>
  <sodipodi:namedview
     pagecolor="#ffffff"
     bordercolor="#666666"
     borderopacity="1"
     objecttolerance="10"
     gridtolerance="10"
     guidetolerance="10"
     inkscape:pageopacity="0"
     inkscape:pageshadow="2"
     inkscape:window-width="3825"
     inkscape:window-height="1785"
     id="namedview122"
     showgrid="false"
     inkscape:zoom="0.61477185"
     inkscape:cx="1805.1297"
     inkscape:cy="-136.23433"
     inkscape:window-x="0"
     inkscape:window-y="0"
     inkscape:window-maximized="0"
     inkscape:current-layer="Hintergrund" />
  <defs
     id="defs17">
    <path
       id="GlArialMT39"
       d="M 0.771563,10 V 2.84172 H 3.23734 c 0.55667,0 0.98146,0.03422 1.27438,0.10265 0.41021,0.09438 0.76016,0.26527 1.04984,0.51266 0.37761,0.31896 0.66,0.72667 0.84719,1.22313 0.18719,0.49645 0.28078,1.06369 0.28078,1.70171 0,0.54355 -0.06349,1.02532 -0.19047,1.44532 C 6.37208,8.24708 6.20932,8.59458 6.01078,8.86969 5.81224,9.14469 5.59495,9.36115 5.35891,9.51906 5.12286,9.67688 4.83802,9.79651 4.50438,9.87797 4.17073,9.95932 3.78745,10 3.35453,10 Z M 1.71875,9.15531 h 1.52828 c 0.47208,0 0.8424,-0.04396 1.11094,-0.13187 C 4.62651,8.93552 4.84052,8.81182 5,8.65234 5.22458,8.42776 5.39953,8.12583 5.52484,7.74656 5.65026,7.36729 5.71297,6.9075 5.71297,6.36719 5.71297,5.61844 5.59005,5.04307 5.34422,4.64109 5.09849,4.23911 4.79984,3.96974 4.44828,3.83297 4.19432,3.73536 3.78578,3.68656 3.22266,3.68656 H 1.71875 Z"
       inkscape:connector-curvature="0" />
    <path
       id="GlArialMT88"
       d="M 4.05766,10 V 9.23828 C 3.65401,9.82422 3.10552,10.1172 2.41219,10.1172 2.10615,10.1172 1.82047,10.0586 1.55516,9.94141 1.28984,9.82422 1.09292,9.67693 0.964375,9.49953 0.835833,9.32214 0.745521,9.10484 0.693438,8.84766 0.657604,8.67516 0.639687,8.40172 0.639687,8.02734 V 4.81438 H 1.51859 v 2.87609 c 0,0.45896 0.01792,0.76818 0.05375,0.92765 0.05532,0.23115 0.17245,0.41266 0.35141,0.54454 0.17906,0.13177 0.40047,0.19765 0.66422,0.19765 0.26364,0 0.51099,-0.06755 0.74203,-0.20265 C 3.56115,9.02255 3.72474,8.83865 3.82078,8.60594 3.91682,8.37323 3.96484,8.03552 3.96484,7.59281 V 4.81438 H 4.84375 V 10 Z"
       inkscape:connector-curvature="0" />
    <path
       id="GlArialMT85"
       d="M 0.649375,10 V 4.81438 H 1.44047 V 5.60062 C 1.64224,5.23271 1.82859,4.99016 1.99953,4.87297 2.17047,4.75578 2.35844,4.69719 2.56344,4.69719 c 0.29625,0 0.59739,0.09442 0.90343,0.28328 L 3.16406,5.79594 C 2.94927,5.66896 2.73443,5.60547 2.51953,5.60547 2.32745,5.60547 2.1549,5.66328 2.00188,5.77891 1.84896,5.89443 1.73995,6.05469 1.67484,6.25969 1.57714,6.57219 1.52828,6.91401 1.52828,7.28516 V 10 Z"
       inkscape:connector-curvature="0" />
    <path
       id="GlArialMT74"
       d="m 0.498125,10.4297 0.854375,0.127 c 0.03583,0.2637 0.13516,0.4557 0.29797,0.5761 0.21802,0.1628 0.51583,0.2442 0.89344,0.2442 0.40698,0 0.72114,-0.0814 0.9425,-0.2442 C 3.70776,10.9701 3.8575,10.7422 3.93562,10.4492 3.98115,10.2702 4.00229,9.89417 3.99906,9.32125 3.6149,9.77375 3.13635,10 2.56344,10 1.85062,10 1.29891,9.74286 0.908281,9.22859 0.517656,8.71422 0.322344,8.09734 0.322344,7.37797 0.322344,6.88318 0.411823,6.42661 0.590781,6.00828 0.769844,5.58995 1.02943,5.26687 1.36953,5.03906 1.70974,4.81115 2.10938,4.69719 2.56844,4.69719 c 0.61198,0 1.11651,0.24739 1.51359,0.74219 v -0.625 h 0.81063 v 4.4825 c 0,0.80732 -0.08224,1.37932 -0.24672,1.71622 -0.16438,0.337 -0.42479,0.6032 -0.78125,0.7985 -0.35636,0.1953 -0.79495,0.2929 -1.31578,0.2929 -0.61855,0 -1.11823,-0.1391 -1.49907,-0.4175 C 0.66901,11.4087 0.485104,10.9896 0.498125,10.4297 Z M 1.22562,7.31438 c 0,0.68041 0.13506,1.17687 0.40516,1.48937 0.27021,0.3125 0.6088,0.46875 1.01578,0.46875 0.40365,0 0.74219,-0.15542 1.01563,-0.46625 C 3.93562,8.49531 4.07234,8.00781 4.07234,7.34375 4.07234,6.70896 3.93151,6.23047 3.64984,5.90828 3.36828,5.58599 3.02896,5.42484 2.63187,5.42484 c -0.39062,0 -0.72265,0.1587 -0.99609,0.4761 C 1.36234,6.21823 1.22562,6.68938 1.22562,7.31438 Z"
       inkscape:connector-curvature="0" />
    <path
       id="GlArialMT82"
       d="m 0.332031,7.40719 c 0,-0.96031 0.266927,-1.67157 0.800779,-2.13375 0.44594,-0.38417 0.98959,-0.57625 1.63094,-0.57625 0.71281,0 1.29547,0.23359 1.74797,0.70078 0.4525,0.46708 0.67875,1.11239 0.67875,1.93594 0,0.66739 -0.10011,1.19234 -0.30031,1.57484 C 4.68995,9.29115 4.39859,9.58818 4.01609,9.79984 3.63359,10.0114 3.21615,10.1172 2.76375,10.1172 2.03781,10.1172 1.45104,9.88443 1.00344,9.41891 0.555833,8.95339 0.332031,8.28281 0.332031,7.40719 Z m 0.903279,0 c 0,0.66406 0.14485,1.1613 0.43453,1.49172 0.2898,0.33041 0.65443,0.49562 1.09391,0.49562 0.43615,0 0.79906,-0.16599 1.08875,-0.49797 C 4.14229,8.56448 4.28719,8.05828 4.28719,7.37797 4.28719,6.73661 4.14151,6.25078 3.85016,5.92047 3.5588,5.59005 3.19667,5.42484 2.76375,5.42484 2.32427,5.42484 1.95964,5.58922 1.66984,5.91797 1.38016,6.24672 1.23531,6.74313 1.23531,7.40719 Z"
       inkscape:connector-curvature="0" />
    <path
       id="GlArialMT137"
       d="M 0.747031,10 V 5.12203 c 0,-0.59573 0.072448,-1.0539 0.217344,-1.37453 C 1.10927,3.42687 1.35099,3.17542 1.68953,2.99313 2.02807,2.81083 2.40891,2.71969 2.83203,2.71969 c 0.56313,0 1.00583,0.14078 1.32813,0.42234 0.32229,0.28156 0.48343,0.60792 0.48343,0.97906 0,0.16605 -0.02932,0.33698 -0.08796,0.51282 C 4.49708,4.80964 4.39292,5.02854 4.24313,5.29062 4.09344,5.5526 3.99906,5.7349 3.96,5.8375 3.92094,5.94 3.90141,6.03031 3.90141,6.10844 c 0,0.10416 0.03578,0.20666 0.10734,0.3075 0.06844,0.10416 0.26542,0.26208 0.59094,0.47375 0.44271,0.28969 0.73729,0.52239 0.88375,0.69812 0.20833,0.25073 0.3125,0.54698 0.3125,0.88875 0,0.4525 -0.16683,0.8399 -0.50047,1.16219 C 4.96182,9.96094 4.53458,10.122 4.01375,10.122 3.60354,10.122 3.2438,10.0122 2.93453,9.7925 2.62536,9.57271 2.39427,9.29031 2.24125,8.94531 L 2.99812,8.59375 C 3.16083,8.89646 3.32354,9.10641 3.48625,9.22359 3.64906,9.34078 3.82,9.39937 3.99906,9.39937 c 0.2474,0 0.45896,-0.08463 0.63469,-0.2539 C 4.80958,8.9762 4.8975,8.77766 4.8975,8.54984 4.8975,8.36755 4.84542,8.2113 4.74125,8.08109 4.67292,7.99641 4.49063,7.85318 4.19437,7.65141 3.65396,7.28026 3.32031,7.00193 3.19344,6.81641 3.06323,6.63089 2.99812,6.44047 2.99812,6.24516 2.99812,6.11818 3.02005,5.98958 3.06391,5.85938 3.10786,5.72917 3.21365,5.52083 3.38125,5.23438 3.54896,4.94792 3.65885,4.73307 3.71094,4.58984 3.76302,4.44661 3.78906,4.31964 3.78906,4.20891 3.78906,4.00714 3.70036,3.82896 3.52297,3.67437 3.34557,3.51969 3.10875,3.44234 2.8125,3.44234 2.46417,3.44234 2.17932,3.54979 1.95797,3.76469 1.73661,3.97948 1.62594,4.44495 1.62594,5.16109 V 10 Z"
       inkscape:connector-curvature="0" />
    <path
       id="GlArialMT72"
       d="M 4.20906,8.33 5.11719,8.44234 C 4.97396,8.97297 4.70865,9.38479 4.32125,9.67781 3.93396,9.97073 3.43917,10.1172 2.83688,10.1172 2.07844,10.1172 1.47703,9.88365 1.03266,9.41656 0.588385,8.94937 0.36625,8.29422 0.36625,7.45109 0.36625,6.5787 0.590833,5.90161 1.04,5.41984 1.48927,4.93807 2.07198,4.69719 2.78812,4.69719 c 0.69334,0 1.25974,0.23604 1.69922,0.70812 0.43948,0.47198 0.65922,1.13604 0.65922,1.99219 0,0.05208 -0.00166,0.13021 -0.005,0.23437 H 1.27438 c 0.0326,0.56959 0.19375,1.00579 0.48343,1.3086 0.28969,0.30271 0.65104,0.45406 1.08406,0.45406 0.32219,0 0.59719,-0.08463 0.82501,-0.2539 C 3.89479,8.97135 4.07552,8.70115 4.20906,8.33 Z M 1.32328,6.90922 H 4.21875 C 4.17969,6.47297 4.06901,6.14578 3.88672,5.92766 3.60682,5.58911 3.24385,5.41984 2.79781,5.41984 c -0.40364,0 -0.74302,0.13511 -1.01812,0.40532 -0.275,0.2702 -0.42714,0.63156 -0.45641,1.08406 z"
       inkscape:connector-curvature="0" />
    <path
       id="GlArialMT3"
       d=""
       inkscape:connector-curvature="0" />
    <path
       id="GlArialMT16"
       d="M 0.317344,7.85156 V 6.96781 H 3.01766 v 0.88375 z"
       inkscape:connector-curvature="0" />
    <path
       id="GlArialMT54"
       d="M 0.449219,7.70016 1.34281,7.62203 C 1.3851,7.98016 1.48354,8.27396 1.63813,8.50344 1.79281,8.73292 2.03292,8.91849 2.35844,9.06016 2.68396,9.20172 3.05016,9.2725 3.45703,9.2725 3.81839,9.2725 4.1374,9.2188 4.41406,9.11141 4.69073,9.00391 4.89661,8.85656 5.03172,8.66938 5.16682,8.48219 5.23438,8.27792 5.23438,8.05656 5.23438,7.83198 5.16927,7.63589 5.03906,7.46828 4.90885,7.30057 4.69401,7.15979 4.39453,7.04594 4.20245,6.97104 3.7776,6.85469 3.12,6.69688 2.4625,6.53896 2.00193,6.39 1.73828,6.25 1.39651,6.07094 1.14177,5.84875 0.974063,5.58344 0.806458,5.31813 0.722656,5.02109 0.722656,4.69234 0.722656,4.33099 0.825208,3.99328 1.03031,3.67922 1.23542,3.36505 1.5349,3.12661 1.92875,2.96391 2.3226,2.80109 2.76042,2.71969 3.24219,2.71969 c 0.53062,0 0.99854,0.08547 1.40375,0.2564 0.40531,0.17084 0.71703,0.4223 0.93515,0.75438 0.21813,0.33198 0.33532,0.70797 0.35157,1.12797 L 5.02438,4.92672 C 4.97562,4.47422 4.81042,4.13245 4.52875,3.90141 4.24719,3.67026 3.83135,3.55469 3.28125,3.55469 c -0.57292,0 -0.99042,0.105 -1.2525,0.315 -0.26198,0.20989 -0.39297,0.46297 -0.39297,0.75922 0,0.25718 0.09276,0.46875 0.27828,0.63468 0.18229,0.16605 0.65834,0.33615 1.42813,0.51032 0.76989,0.17416 1.29807,0.32635 1.58453,0.45656 0.41667,0.19208 0.72427,0.43542 0.92281,0.73 0.19865,0.29458 0.29797,0.6339 0.29797,1.01797 0,0.38094 -0.10906,0.73984 -0.32719,1.07672 -0.21812,0.33687 -0.53146,0.5989 -0.94,0.78609 C 4.47187,10.0284 4.01208,10.122 3.50094,10.122 2.85323,10.122 2.31042,10.0277 1.8725,9.83891 1.43469,9.65005 1.09125,9.36604 0.842187,8.98687 0.593229,8.6076 0.46224,8.1787 0.449219,7.70016 Z"
       inkscape:connector-curvature="0" />
    <path
       id="GlArialMT83"
       d="M 0.659219,11.9873 V 4.81438 H 1.46 v 0.6739 C 1.64875,5.22464 1.86193,5.02687 2.09953,4.895 2.33724,4.76312 2.62536,4.69719 2.96391,4.69719 c 0.4427,0 0.83333,0.11396 1.17187,0.34187 0.33854,0.22781 0.59406,0.54927 0.76656,0.96438 0.1725,0.415 0.25875,0.86989 0.25875,1.36469 0,0.53062 -0.0952,1.00833 -0.28562,1.43312 C 4.68505,9.22604 4.40833,9.55156 4.04531,9.77781 3.6824,10.0041 3.30078,10.1172 2.90047,10.1172 2.60745,10.1172 2.34453,10.0554 2.11172,9.93172 1.87901,9.80797 1.68781,9.65167 1.53812,9.46281 V 11.9873 Z M 1.45516,7.43656 c 0,0.66729 0.13505,1.16047 0.40515,1.47953 0.27021,0.31896 0.5974,0.47844 0.98156,0.47844 0.39063,0 0.72506,-0.16521 1.00329,-0.49562 C 4.12349,8.56849 4.26266,8.05661 4.26266,7.36328 4.26266,6.70245 4.12677,6.20766 3.855,5.87891 3.58323,5.55016 3.25854,5.38578 2.88094,5.38578 2.50656,5.38578 2.17531,5.56073 1.88719,5.91062 1.59917,6.26052 1.45516,6.76917 1.45516,7.43656 Z"
       inkscape:connector-curvature="0" />
    <path
       id="GlArialMT87"
       d="M 2.57813,9.21391 2.70516,9.99016 C 2.45776,10.0423 2.23641,10.0684 2.04109,10.0684 1.72203,10.0684 1.47458,10.018 1.29875,9.91703 1.12302,9.81609 0.999323,9.68344 0.927656,9.51906 0.856094,9.35469 0.820313,9.0088 0.820313,8.48141 V 5.49797 H 0.175781 V 4.81438 H 0.820313 V 3.53031 L 1.69437,3.00297 V 4.81438 H 2.57813 V 5.49797 H 1.69437 v 3.03234 c 0,0.25063 0.01547,0.41177 0.04641,0.48344 0.03094,0.07156 0.08136,0.12849 0.15125,0.17078 0.07,0.04229 0.17011,0.06344 0.30031,0.06344 0.09771,0 0.22631,-0.01136 0.38579,-0.03406 z"
       inkscape:connector-curvature="0" />
    <path
       id="GlArialMT68"
       d="M 4.04297,9.36031 C 3.71745,9.63698 3.40411,9.83229 3.10297,9.94625 2.80193,10.0602 2.47885,10.1172 2.13375,10.1172 1.56417,10.1172 1.12635,9.97802 0.820313,9.69969 0.514375,9.42135 0.361406,9.06573 0.361406,8.63281 0.361406,8.37885 0.419167,8.14693 0.534687,7.93703 0.650208,7.72703 0.801563,7.55859 0.98875,7.43172 1.17594,7.30474 1.38672,7.2087 1.62109,7.14359 1.79359,7.09797 2.05401,7.05401 2.40234,7.01172 3.11203,6.92703 3.63448,6.82609 3.96969,6.70891 3.97302,6.58849 3.97469,6.51203 3.97469,6.47953 3.97469,6.12141 3.89167,5.86911 3.72562,5.72266 3.50104,5.52411 3.1674,5.42484 2.72469,5.42484 2.31125,5.42484 2.00604,5.49729 1.80906,5.64219 1.61219,5.78698 1.46651,6.04328 1.37203,6.41109 L 0.512656,6.29391 C 0.590781,5.92609 0.719375,5.62906 0.898438,5.40281 1.0775,5.17656 1.3363,5.0024 1.67484,4.88031 2.01339,4.75823 2.40563,4.69719 2.85156,4.69719 c 0.44271,0 0.8024,0.05208 1.07907,0.15625 0.27677,0.10416 0.48026,0.23521 0.61046,0.39312 0.13021,0.15792 0.22136,0.35729 0.27344,0.59813 0.02927,0.14979 0.04391,0.42 0.04391,0.81062 v 1.17188 c 0,0.81698 0.0187,1.33375 0.05609,1.55031 C 4.95203,9.59396 5.02609,9.80146 5.13672,10 H 4.21875 C 4.1276,9.81771 4.06901,9.60448 4.04297,9.36031 Z M 3.96969,7.3975 C 3.65073,7.52771 3.17224,7.63839 2.53422,7.72953 2.17286,7.78161 1.91729,7.84021 1.7675,7.90531 1.61781,7.97042 1.50229,8.06563 1.42094,8.19094 1.33958,8.31625 1.29891,8.45542 1.29891,8.60844 c 0,0.23437 0.08869,0.42969 0.26609,0.58594 0.1774,0.15625 0.43698,0.23437 0.77875,0.23437 0.33854,0 0.63964,-0.07406 0.90328,-0.22219 C 3.51078,9.05844 3.70448,8.85578 3.82813,8.59859 3.9225,8.40005 3.96969,8.10708 3.96969,7.71969 Z"
       inkscape:connector-curvature="0" />
    <path
       id="GlArialMT78"
       d="M 0.664063,10 V 2.84172 H 1.54297 V 6.92375 L 3.62312,4.81438 H 4.76078 L 2.77828,6.73828 4.96094,10 H 3.87703 L 2.16312,7.34859 1.54297,7.94437 V 10 Z"
       inkscape:connector-curvature="0" />
    <path
       id="GlArialMT71"
       d="M 4.02344,10 V 9.34563 C 3.69469,9.86 3.2113,10.1172 2.57328,10.1172 2.15984,10.1172 1.77979,10.0033 1.43312,9.77547 1.08646,9.54755 0.817917,9.22932 0.6275,8.82078 0.437083,8.41224 0.341875,7.94266 0.341875,7.41203 c 0,-0.5175 0.08625,-0.98703 0.25875,-1.40859 C 0.773125,5.58188 1.03188,5.2588 1.37688,5.03422 1.72198,4.80953 2.10776,4.69719 2.53422,4.69719 c 0.3125,0 0.59078,0.06593 0.83484,0.19781 0.24417,0.13187 0.44276,0.30359 0.59578,0.51516 V 2.84172 H 4.83891 V 10 Z M 1.24516,7.41203 c 0,0.66406 0.13994,1.16052 0.41984,1.48938 0.28,0.32875 0.61042,0.49312 0.99125,0.49312 0.38417,0 0.71052,-0.15703 0.97906,-0.47109 C 3.90385,8.60927 4.03812,8.1299 4.03812,7.48531 4.03812,6.77573 3.90141,6.25495 3.62797,5.92297 3.35453,5.59089 3.0176,5.42484 2.61719,5.42484 2.22656,5.42484 1.90021,5.58437 1.63813,5.90344 1.37615,6.2224 1.24516,6.72526 1.24516,7.41203 Z"
       inkscape:connector-curvature="0" />
  </defs>
  <g
     inkscape:label="Hintergrund"
     id="Hintergrund"
     inkscape:groupmode="layer"
     transform="translate(874.448,475.83523)">
    <g
       id="g985"
       transform="matrix(8.6875226,0,0,8.6875226,-874.448,-479.8816)">
      <path
         d="M 5.12262,0 C 1.96185,0 0,1.37603 0,3.03288 0,4.68973 1.3624,6.15 4.87738,6.15 8.77384,6.15 10,4.74589 10,3.03288 10,1.31986 7.3297,0 5.12262,0 Z M 2.64305,1.54452 C 2.88828,0.702055 3.76022,0.561644 4.52316,0.561644 c 1.60763,0 2.91553,1.797256 2.91553,3.285616 0,0.73014 -0.35422,1.43219 -1.08992,1.62877 C 6.10354,5.56027 5.85831,5.58836 5.61308,5.58836 5.3951,5.58836 5.20436,5.56027 4.98638,5.47603 3.67847,5.11096 2.56131,3.51027 2.56131,2.13425 c 0,-0.19658 0,-0.39315 0.08174,-0.58973 z"
         style="fill:#171715;fill-rule:evenodd;stroke:none"
         id="Text1+U0"
         transform="translate(40.7015,54.2397)"
         inkscape:connector-curvature="0" />
      <path
         id="path20"
         d="M 0,0 H 55.6695"
         style="stroke:#171715;stroke-width:0.70866102;stroke-linecap:butt;stroke-linejoin:miter;stroke-dasharray:none"
         transform="translate(1.46021,53.6357)"
         inkscape:connector-curvature="0" />
      <path
         id="path22"
         d="M 0,0 H 55.6695"
         style="stroke:#171715;stroke-width:0.70866102;stroke-linecap:butt;stroke-linejoin:miter;stroke-dasharray:none"
         transform="translate(1.46021,46.2657)"
         inkscape:connector-curvature="0" />
      <path
         id="path24"
         d="M 0,0 H 55.6695"
         style="stroke:#171715;stroke-width:0.70866102;stroke-linecap:butt;stroke-linejoin:miter;stroke-dasharray:none"
         transform="translate(1.46021,38.8956)"
         inkscape:connector-curvature="0" />
      <path
         id="path26"
         d="M 0,0 H 55.6695"
         style="stroke:#171715;stroke-width:0.70866102;stroke-linecap:butt;stroke-linejoin:miter;stroke-dasharray:none"
         transform="translate(1.46021,31.5255)"
         inkscape:connector-curvature="0" />
      <path
         id="path28"
         d="M 0,0 H 55.6695"
         style="stroke:#171715;stroke-width:0.70866102;stroke-linecap:butt;stroke-linejoin:miter;stroke-dasharray:none"
         transform="translate(1.46021,24.1554)"
         inkscape:connector-curvature="0" />
      <path
         d="m 12.1002,3.9721 c 0.8496,0 1.5447,0.69191 1.5447,2.10136 0,2.84454 -2.4458,5.15094 -4.47962,6.91914 -0.07724,0.0512 -0.12873,0.1025 -0.18022,0.1025 -0.07724,0 -0.12873,-0.1025 -0.15447,-0.3075 C 8.72761,12.1213 8.67612,11.25 8.67612,10.43 c 0,-3.99777 1.85368,-6.4579 3.42408,-6.4579 z m -1.0298,21.5262 c -0.0515,-0.2819 -0.0257,-0.3588 0.1802,-0.3588 0.0258,0 0.0773,0 0.103,0 2.0854,0.1794 3.8103,1.922 3.8103,4.1771 0,1.6145 -0.9783,2.9214 -2.42,3.639 -0.1288,0.0512 -0.206,0.1025 -0.2575,0.1025 -0.103,0 -0.1287,-0.0769 -0.1545,-0.2563 z M 9.294,21.4237 c 0.07724,0.4869 0.07724,0.4613 -0.38618,0.615 -2.26557,0.7688 -3.73304,2.7933 -3.73304,4.9716 0,2.3063 1.21002,3.9464 2.96069,4.5358 0.20596,0.0769 0.5149,0.1538 0.69512,0.1538 0.20596,0 0.30894,-0.1281 0.30894,-0.2819 0,-0.1794 -0.20596,-0.2563 -0.38618,-0.3331 C 7.67206,30.6236 6.8997,29.5216 6.8997,28.3428 c 0,-1.4607 1.00406,-2.5626 2.57452,-2.9983 0.12872,-0.0256 0.2317,-0.0512 0.30894,-0.0512 0.12873,0 0.18022,0.0769 0.20596,0.2562 l 1.28728,7.6367 c 0.0515,0.2819 0.0257,0.2819 -0.3605,0.3588 -0.4119,0.0769 -0.92678,0.1281 -1.44168,0.1281 -4.5054,0 -7.41461,-2.4857 -7.41461,-6.0478 0,-4.3565 3.21815,-7.0729 6.33331,-9.5843 0.10298,-0.0769 0.18022,-0.1281 0.23171,-0.1281 0.07723,0 0.10298,0.0768 0.12872,0.2306 z m 0.38618,-3.9209 c -0.05149,-0.3075 0,-0.3331 0.15447,-0.4869 2.78045,-2.5882 4.89155,-5.8428 4.89155,-9.76362 0,-2.2295 -0.6179,-4.43337 -1.6734,-5.97096 C 12.6666,0.71754 11.9972,0 11.714,0 11.3536,0 10.5555,0.666287 10.0406,1.23007 8.13547,3.33144 7.51759,6.53474 7.51759,9.19989 c 0,1.48631 0.18021,3.15201 0.36043,4.20271 0.05149,0.3075 0.07723,0.3588 -0.23171,0.6151 C 3.93901,17.0672 0,20.7318 0,25.9083 c 0,4.459 3.06367,8.6874 9.37124,8.6874 0.59214,0 1.26146,-0.0513 1.77646,-0.1538 0.1029,-0.0256 0.1544,-0.0256 0.2059,-0.0256 0.103,0 0.1545,0.0512 0.1802,0.2563 0.309,1.7169 0.6951,3.9464 0.6951,5.1509 0,3.7927 -2.57447,4.2539 -4.09343,4.2539 -1.39024,0 -2.05961,-0.41 -2.05961,-0.7431 0,-0.1794 0.2317,-0.2563 0.82384,-0.4357 0.7981,-0.2306 1.72493,-0.9225 1.72493,-2.4089 0,-1.4094 -0.90108,-2.6138 -2.47154,-2.6138 -1.72492,0 -2.75473,1.3582 -2.75473,2.947 0,1.6657 1.00406,4.1771 4.89158,4.1771 1.72496,0 5.07176,-0.7688 5.07176,-5.1253 0,-1.4607 -0.4634,-3.8952 -0.7466,-5.484 -0.0515,-0.3076 -0.0257,-0.2819 0.3347,-0.4357 2.6003,-1.025 4.3252,-3.2033 4.3252,-6.0991 0,-3.2802 -2.42,-6.1759 -6.2046,-6.1759 -0.6694,0 -0.6694,0 -0.7466,-0.4613 z"
         style="fill:#171715;fill-rule:evenodd;stroke:none"
         id="Text8+U0"
         transform="translate(3.25469,17.0607)"
         inkscape:connector-curvature="0" />
      <path
         d="M 5.12262,0 C 1.96185,0 0,1.37603 0,3.03288 0,4.68973 1.3624,6.15 4.87738,6.15 8.77384,6.15 10,4.74589 10,3.03288 10,1.31986 7.3297,0 5.12262,0 Z M 2.64305,1.54452 C 2.88828,0.702055 3.76022,0.561644 4.52316,0.561644 c 1.60763,0 2.91553,1.797256 2.91553,3.285616 0,0.73014 -0.35422,1.43219 -1.08992,1.62877 C 6.10354,5.56027 5.85831,5.58836 5.61308,5.58836 5.3951,5.58836 5.20436,5.56027 4.98638,5.47603 3.67847,5.11096 2.56131,3.51027 2.56131,2.13425 c 0,-0.19658 0,-0.39315 0.08174,-0.58973 z"
         style="fill:#171715;fill-rule:evenodd;stroke:none"
         id="Kopie von Text1+U0"
         transform="translate(40.7015,46.8696)"
         inkscape:connector-curvature="0" />
      <path
         d="M 5.12262,0 C 1.96185,0 0,1.37603 0,3.03288 0,4.68973 1.3624,6.15 4.87738,6.15 8.77384,6.15 10,4.74589 10,3.03288 10,1.31986 7.3297,0 5.12262,0 Z M 2.64305,1.54452 C 2.88828,0.702055 3.76022,0.561644 4.52316,0.561644 c 1.60763,0 2.91553,1.797256 2.91553,3.285616 0,0.73014 -0.35422,1.43219 -1.08992,1.62877 C 6.10354,5.56027 5.85831,5.58836 5.61308,5.58836 5.3951,5.58836 5.20436,5.56027 4.98638,5.47603 3.67847,5.11096 2.56131,3.51027 2.56131,2.13425 c 0,-0.19658 0,-0.39315 0.08174,-0.58973 z"
         style="fill:#171715;fill-rule:evenodd;stroke:none"
         id="Kopie von Text1+U0 (2)"
         transform="translate(40.7015,39.4995)"
         inkscape:connector-curvature="0" />
      <path
         d="M 5.12262,0 C 1.96185,0 0,1.37603 0,3.03288 0,4.68973 1.3624,6.15 4.87738,6.15 8.77384,6.15 10,4.74589 10,3.03288 10,1.31986 7.3297,0 5.12262,0 Z M 2.64305,1.54452 C 2.88828,0.702055 3.76022,0.561644 4.52316,0.561644 c 1.60763,0 2.91553,1.797256 2.91553,3.285616 0,0.73014 -0.35422,1.43219 -1.08992,1.62877 C 6.10354,5.56027 5.85831,5.58836 5.61308,5.58836 5.3951,5.58836 5.20436,5.56027 4.98638,5.47603 3.67847,5.11096 2.56131,3.51027 2.56131,2.13425 c 0,-0.19658 0,-0.39315 0.08174,-0.58973 z"
         style="fill:#171715;fill-rule:evenodd;stroke:none"
         id="Kopie von Text1+U0 (3)"
         transform="translate(40.7015,32.1294)"
         inkscape:connector-curvature="0" />
      <path
         d="M 2.8026,6.62882 1.2474,7.14119 V 4.37118 L 2.8026,3.85881 Z M 2.8026,0 V 2.40175 L 1.2474,2.91412 V 0.512373 H 0.8424 V 3.0262 L 0,3.2984 V 4.75546 L 0.8424,4.48326 V 7.25328 L 0,7.52547 V 8.98253 L 0.8424,8.71033 V 11 h 0.405 V 8.59825 L 2.8026,8.08588 v 2.40172 h 0.405 V 7.9738 L 4.05,7.7016 V 6.24454 L 3.2076,6.51674 V 3.74672 L 4.05,3.47453 V 2.01747 L 3.2076,2.28967 V 0 Z"
         style="fill:#171715;fill-rule:evenodd;stroke:none"
         id="Text13+U0"
         transform="translate(35.1702,29.5704)"
         inkscape:connector-curvature="0" />
      <path
         d="M 2.8026,6.62882 1.2474,7.14119 V 4.37118 L 2.8026,3.85881 Z M 2.8026,0 V 2.40175 L 1.2474,2.91412 V 0.512373 H 0.8424 V 3.0262 L 0,3.2984 V 4.75546 L 0.8424,4.48326 V 7.25328 L 0,7.52547 V 8.98253 L 0.8424,8.71033 V 11 h 0.405 V 8.59825 L 2.8026,8.08588 v 2.40172 h 0.405 V 7.9738 L 4.05,7.7016 V 6.24454 L 3.2076,6.51674 V 3.74672 L 4.05,3.47453 V 2.01747 L 3.2076,2.28967 V 0 Z"
         style="fill:#171715;fill-rule:evenodd;stroke:none"
         id="Kopie von Text13+U0"
         transform="translate(35.1702,44.8775)"
         inkscape:connector-curvature="0" />
      <g
         id="g40">
        <path
           id="path36"
           d="M 0,0 H 43.2338"
           style="stroke:#5b8eca;stroke-width:1;stroke-linecap:butt;stroke-linejoin:miter;stroke-dasharray:none"
           transform="translate(56.2295,57.7176)"
           inkscape:connector-curvature="0" />
        <path
           id="path38"
           d="M 0,0 V 0 L 1.25,-1.25 -3,0 1.25,1.25 Z"
           style="fill:#5b8eca;stroke:none"
           transform="translate(56.2295,57.7176)"
           inkscape:connector-curvature="0" />
      </g>
      <path
         d="M 0,8.58994 V 0 H 2.95894 C 3.62694,0 4.13669,0.0410625 4.48819,0.123187 4.98044,0.236438 5.40038,0.4415 5.748,0.738375 6.20112,1.12113 6.54,1.61037 6.76463,2.20612 6.98925,2.80188 7.10156,3.48256 7.10156,4.24819 7.10156,4.90044 7.02538,5.47856 6.873,5.98256 6.72063,6.48644 6.52531,6.90344 6.28706,7.23356 6.04881,7.56356 5.78806,7.82331 5.50481,8.01281 5.22156,8.20219 4.87975,8.34575 4.47938,8.4435 4.079,8.54112 3.61906,8.58994 3.09956,8.58994 Z M 1.13662,7.57631 h 1.83394 c 0.5665,0 1.01088,-0.05275 1.33313,-0.15825 C 4.62594,7.31256 4.88275,7.16413 5.07413,6.97275 5.34363,6.70325 5.55356,6.34094 5.70394,5.88581 5.85444,5.43069 5.92969,4.87894 5.92969,4.23056 5.92969,3.33206 5.78219,2.64162 5.48719,2.15925 5.19231,1.67688 4.83394,1.35362 4.41206,1.1895 4.10731,1.07237 3.61706,1.01381 2.94131,1.01381 H 1.13662 Z"
         style="fill:#5b8eca;fill-rule:evenodd;stroke:#5b8eca;stroke-width:1px;stroke-linecap:butt;stroke-linejoin:miter;stroke-dasharray:none"
         id="Text21+U0"
         transform="translate(101.658,53.3335)"
         inkscape:connector-curvature="0" />
      <g
         id="g51"
         transform="translate(65.2614,45.5955)">
        <use
           id="use43"
           style="fill:#c13333;stroke:none"
           xlink:href="#GlArialMT39"
           transform="matrix(0.8,0,0,0.8,0,-2.27344)"
           x="0"
           y="0"
           width="100%"
           height="100%" />
        <use
           id="use45"
           style="fill:#c13333;stroke:none"
           xlink:href="#GlArialMT88"
           transform="matrix(0.8,0,0,0.8,5.7,-2.27344)"
           x="0"
           y="0"
           width="100%"
           height="100%" />
        <use
           id="use47"
           style="fill:#c13333;stroke:none"
           xlink:href="#GlArialMT85"
           transform="matrix(0.8,0,0,0.8,10.1,-2.27344)"
           x="0"
           y="0"
           width="100%"
           height="100%" />
        <path
           id="path49"
           d="M 0,0 H 16.275 V 7.37008 H 0 Z"
           style="fill:none;stroke:none"
           inkscape:connector-curvature="0" />
      </g>
      <g
         id="g63"
         transform="translate(85.1039,38.2794)">
        <use
           id="use53"
           style="fill:#63b338;stroke:none"
           xlink:href="#GlArialMT74"
           transform="matrix(0.8,0,0,0.8,0,-2.16578)"
           x="0"
           y="0"
           width="100%"
           height="100%" />
        <use
           id="use55"
           style="fill:#63b338;stroke:none"
           xlink:href="#GlArialMT85"
           transform="matrix(0.8,0,0,0.8,4.4,-2.16578)"
           x="0"
           y="0"
           width="100%"
           height="100%" />
        <use
           id="use57"
           style="fill:#63b338;stroke:none"
           xlink:href="#GlArialMT82"
           transform="matrix(0.8,0,0,0.8,7,-2.16578)"
           x="0"
           y="0"
           width="100%"
           height="100%" />
        <use
           id="use59"
           style="fill:#63b338;stroke:none"
           xlink:href="#GlArialMT137"
           transform="matrix(0.8,0,0,0.8,11.4,-2.16578)"
           x="0"
           y="0"
           width="100%"
           height="100%" />
        <path
           id="path61"
           d="M 0,0 H 27.2575 V 9.01683 H 0 Z"
           style="fill:none;stroke:none"
           inkscape:connector-curvature="0" />
      </g>
      <g
         id="g113"
         transform="translate(0,0.465768)">
        <use
           id="use65"
           style="fill:#63b338;stroke:none"
           xlink:href="#GlArialMT74"
           transform="matrix(0.9,0,0,0.9,6.325,-2.43775)"
           x="0"
           y="0"
           width="100%"
           height="100%" />
        <use
           id="use67"
           style="fill:#63b338;stroke:none"
           xlink:href="#GlArialMT85"
           transform="matrix(0.9,0,0,0.9,11.325,-2.43775)"
           x="0"
           y="0"
           width="100%"
           height="100%" />
        <use
           id="use69"
           style="fill:#63b338;stroke:none"
           xlink:href="#GlArialMT82"
           transform="matrix(0.9,0,0,0.9,14.225,-2.43775)"
           x="0"
           y="0"
           width="100%"
           height="100%" />
        <use
           id="use71"
           style="fill:#63b338;stroke:none"
           xlink:href="#GlArialMT137"
           transform="matrix(0.9,0,0,0.9,19.225,-2.43775)"
           x="0"
           y="0"
           width="100%"
           height="100%" />
        <use
           id="use73"
           style="fill:#63b338;stroke:none"
           xlink:href="#GlArialMT72"
           transform="matrix(0.9,0,0,0.9,24.625,-2.43775)"
           x="0"
           y="0"
           width="100%"
           height="100%" />
        <use
           id="use75"
           style="fill:#63b338;stroke:none"
           xlink:href="#GlArialMT85"
           transform="matrix(0.9,0,0,0.9,29.625,-2.43775)"
           x="0"
           y="0"
           width="100%"
           height="100%" />
        <use
           id="use77"
           style="fill:#171715;stroke:none"
           xlink:href="#GlArialMT3"
           transform="matrix(0.9,0,0,0.9,32.525,-2.43775)"
           x="0"
           y="0"
           width="100%"
           height="100%" />
        <use
           id="use79"
           style="fill:#5b8eca;stroke:none"
           xlink:href="#GlArialMT39"
           transform="matrix(0.9,0,0,0.9,35.025,-2.43775)"
           x="0"
           y="0"
           width="100%"
           height="100%" />
        <use
           id="use81"
           style="fill:#171715;stroke:none"
           xlink:href="#GlArialMT16"
           transform="matrix(0.9,0,0,0.9,41.425,-2.43775)"
           x="0"
           y="0"
           width="100%"
           height="100%" />
        <use
           id="use83"
           style="fill:#c13333;stroke:none"
           xlink:href="#GlArialMT39"
           transform="matrix(0.9,0,0,0.9,44.325,-2.43775)"
           x="0"
           y="0"
           width="100%"
           height="100%" />
        <use
           id="use85"
           style="fill:#c13333;stroke:none"
           xlink:href="#GlArialMT88"
           transform="matrix(0.9,0,0,0.9,50.725,-2.43775)"
           x="0"
           y="0"
           width="100%"
           height="100%" />
        <use
           id="use87"
           style="fill:#c13333;stroke:none"
           xlink:href="#GlArialMT85"
           transform="matrix(0.9,0,0,0.9,55.725,-2.43775)"
           x="0"
           y="0"
           width="100%"
           height="100%" />
        <use
           id="use89"
           style="fill:#171715;stroke:none"
           xlink:href="#GlArialMT16"
           transform="matrix(0.9,0,0,0.9,58.625,-2.43775)"
           x="0"
           y="0"
           width="100%"
           height="100%" />
        <use
           id="use91"
           style="fill:#171715;stroke:none"
           xlink:href="#GlArialMT54"
           transform="matrix(0.9,0,0,0.9,61.525,-2.43775)"
           x="0"
           y="0"
           width="100%"
           height="100%" />
        <use
           id="use93"
           style="fill:#171715;stroke:none"
           xlink:href="#GlArialMT72"
           transform="matrix(0.9,0,0,0.9,67.525,-2.43775)"
           x="0"
           y="0"
           width="100%"
           height="100%" />
        <use
           id="use95"
           style="fill:#171715;stroke:none"
           xlink:href="#GlArialMT83"
           transform="matrix(0.9,0,0,0.9,72.525,-2.43775)"
           x="0"
           y="0"
           width="100%"
           height="100%" />
        <use
           id="use97"
           style="fill:#171715;stroke:none"
           xlink:href="#GlArialMT87"
           transform="matrix(0.9,0,0,0.9,77.525,-2.43775)"
           x="0"
           y="0"
           width="100%"
           height="100%" />
        <use
           id="use99"
           style="fill:#171715;stroke:none"
           xlink:href="#GlArialMT68"
           transform="matrix(0.9,0,0,0.9,80.025,-2.43775)"
           x="0"
           y="0"
           width="100%"
           height="100%" />
        <use
           id="use101"
           style="fill:#171715;stroke:none"
           xlink:href="#GlArialMT78"
           transform="matrix(0.9,0,0,0.9,85.025,-2.43775)"
           x="0"
           y="0"
           width="100%"
           height="100%" />
        <use
           id="use103"
           style="fill:#171715;stroke:none"
           xlink:href="#GlArialMT78"
           transform="matrix(0.9,0,0,0.9,89.525,-2.43775)"
           x="0"
           y="0"
           width="100%"
           height="100%" />
        <use
           id="use105"
           style="fill:#171715;stroke:none"
           xlink:href="#GlArialMT82"
           transform="matrix(0.9,0,0,0.9,94.025,-2.43775)"
           x="0"
           y="0"
           width="100%"
           height="100%" />
        <use
           id="use107"
           style="fill:#171715;stroke:none"
           xlink:href="#GlArialMT85"
           transform="matrix(0.9,0,0,0.9,99.025,-2.43775)"
           x="0"
           y="0"
           width="100%"
           height="100%" />
        <use
           id="use109"
           style="fill:#171715;stroke:none"
           xlink:href="#GlArialMT71"
           transform="matrix(0.9,0,0,0.9,101.925,-2.43775)"
           x="0"
           y="0"
           width="100%"
           height="100%" />
        <path
           id="path111"
           d="M 0,0 H 113.749 V 10.5 H 0 Z"
           style="fill:none;stroke:none"
           inkscape:connector-curvature="0" />
      </g>
      <path
         id="path115"
         d="M 0,0 H 1.62699 3.025 V 14.6274 H 0"
         style="fill:none;stroke:#c13333;stroke-width:1;stroke-linecap:butt;stroke-linejoin:miter;stroke-dasharray:none"
         transform="translate(60.5864,43.0745)"
         inkscape:connector-curvature="0" />
      <path
         id="path117"
         d="M 0,0 H 1.62699 3.025 V 22.1315 H 0"
         style="fill:none;stroke:#63b338;stroke-width:1;stroke-linecap:butt;stroke-linejoin:miter;stroke-dasharray:none"
         transform="translate(77.5942,35.5704)"
         inkscape:connector-curvature="0" />
    </g>
  </g>
</svg>
