<?xml version="1.0" encoding="UTF-8" standalone="no"?>
<svg
   xmlns:dc="http://purl.org/dc/elements/1.1/"
   xmlns:cc="http://creativecommons.org/ns#"
   xmlns:rdf="http://www.w3.org/1999/02/22-rdf-syntax-ns#"
   xmlns:svg="http://www.w3.org/2000/svg"
   xmlns="http://www.w3.org/2000/svg"
   xmlns:sodipodi="http://sodipodi.sourceforge.net/DTD/sodipodi-0.dtd"
   xmlns:inkscape="http://www.inkscape.org/namespaces/inkscape"
   width="2607.8777"
   height="1011.6209"
   viewBox="0 0 2607.8777 1011.6209"
   version="1.2"
   id="svg90"
   sodipodi:docname="Ritardatio-1.svg"
   inkscape:version="0.92.3 (2405546, 2018-03-11)">
  <metadata
     id="metadata96">
    <rdf:RDF>
      <cc:Work
         rdf:about="">
        <dc:format>image/svg+xml</dc:format>
        <dc:type
           rdf:resource="http://purl.org/dc/dcmitype/StillImage" />
      </cc:Work>
    </rdf:RDF>
  </metadata>
  <defs
     id="defs94" />
  <sodipodi:namedview
     pagecolor="#ffffff"
     bordercolor="#666666"
     borderopacity="1"
     objecttolerance="10"
     gridtolerance="10"
     guidetolerance="10"
     inkscape:pageopacity="0"
     inkscape:pageshadow="2"
     inkscape:window-width="640"
     inkscape:window-height="480"
     id="namedview92"
     showgrid="false"
     inkscape:zoom="0.12027499"
     inkscape:cx="989.21386"
     inkscape:cy="1881.3508"
     inkscape:current-layer="svg90" />
  <title
     id="title2">Ritardatio</title>
  <desc
     id="desc4">Generated by MuseScore 3.6.2</desc>
  <polyline
     class="StaffLines"
     points="16.4803,47.9941 1133.86,47.9941"
     id="polyline6"
     transform="matrix(2.2907018,0,0,2.2907018,10.5426,-3.4089995)"
     style="fill:none;stroke:#000000;stroke-width:3.22000003;stroke-linejoin:bevel" />
  <polyline
     class="StaffLines"
     points="16.4803,72.7972 1133.86,72.7972"
     id="polyline8"
     transform="matrix(2.2907018,0,0,2.2907018,10.5426,-3.4089995)"
     style="fill:none;stroke:#000000;stroke-width:3.22000003;stroke-linejoin:bevel" />
  <polyline
     class="StaffLines"
     points="16.4803,97.6004 1133.86,97.6004"
     id="polyline10"
     transform="matrix(2.2907018,0,0,2.2907018,10.5426,-3.4089995)"
     style="fill:none;stroke:#000000;stroke-width:3.22000003;stroke-linejoin:bevel" />
  <polyline
     class="StaffLines"
     points="16.4803,122.404 1133.86,122.404"
     id="polyline12"
     transform="matrix(2.2907018,0,0,2.2907018,10.5426,-3.4089995)"
     style="fill:none;stroke:#000000;stroke-width:3.22000003;stroke-linejoin:bevel" />
  <polyline
     class="StaffLines"
     points="16.4803,147.207 1133.86,147.207"
     id="polyline14"
     transform="matrix(2.2907018,0,0,2.2907018,10.5426,-3.4089995)"
     style="fill:none;stroke:#000000;stroke-width:3.22000003;stroke-linejoin:bevel" />
  <polyline
     class="StaffLines"
     points="16.4803,308.427 1133.86,308.427"
     id="polyline16"
     transform="matrix(2.2907018,0,0,2.2907018,10.5426,-3.4089995)"
     style="fill:none;stroke:#000000;stroke-width:3.22000003;stroke-linejoin:bevel" />
  <polyline
     class="StaffLines"
     points="16.4803,333.23 1133.86,333.23"
     id="polyline18"
     transform="matrix(2.2907018,0,0,2.2907018,10.5426,-3.4089995)"
     style="fill:none;stroke:#000000;stroke-width:3.22000003;stroke-linejoin:bevel" />
  <polyline
     class="StaffLines"
     points="16.4803,358.033 1133.86,358.033"
     id="polyline20"
     transform="matrix(2.2907018,0,0,2.2907018,10.5426,-3.4089995)"
     style="fill:none;stroke:#000000;stroke-width:3.22000003;stroke-linejoin:bevel" />
  <polyline
     class="StaffLines"
     points="16.4803,382.837 1133.86,382.837"
     id="polyline22"
     transform="matrix(2.2907018,0,0,2.2907018,10.5426,-3.4089995)"
     style="fill:none;stroke:#000000;stroke-width:3.22000003;stroke-linejoin:bevel" />
  <polyline
     class="StaffLines"
     points="16.4803,407.64 1133.86,407.64"
     id="polyline24"
     transform="matrix(2.2907018,0,0,2.2907018,10.5426,-3.4089995)"
     style="fill:none;stroke:#000000;stroke-width:3.22000003;stroke-linejoin:bevel" />
  <polyline
     class="BarLine"
     points="18.4646,306.815 18.4646,409.252"
     id="polyline26"
     transform="matrix(2.2907018,0,0,2.2907018,10.5426,-3.4089995)"
     style="fill:none;stroke:#000000;stroke-width:3.97000003;stroke-linejoin:bevel" />
  <polyline
     class="BarLine"
     points="560.285,306.815 560.285,409.252"
     id="polyline28"
     transform="matrix(2.2907018,0,0,2.2907018,10.5426,-3.4089995)"
     style="fill:none;stroke:#000000;stroke-width:3.97000003;stroke-linejoin:bevel" />
  <polyline
     class="BarLine"
     points="1109.55,306.815 1109.55,409.252"
     id="polyline30"
     transform="matrix(2.2907018,0,0,2.2907018,10.5426,-3.4089995)"
     style="fill:none;stroke:#000000;stroke-width:3.97000003;stroke-linejoin:bevel" />
  <polyline
     class="BarLine"
     points="1127.66,306.815 1127.66,409.252"
     id="polyline32"
     transform="matrix(2.2907018,0,0,2.2907018,10.5426,-3.4089995)"
     style="fill:none;stroke:#000000;stroke-width:12.39999962;stroke-linejoin:bevel" />
  <polyline
     class="BarLine"
     points="18.4646,46.3819 18.4646,308.427"
     id="polyline34"
     transform="matrix(2.2907018,0,0,2.2907018,10.5426,-3.4089995)"
     style="fill:none;stroke:#000000;stroke-width:3.97000003;stroke-linejoin:bevel" />
  <polyline
     class="BarLine"
     points="560.285,46.3819 560.285,308.427"
     id="polyline36"
     transform="matrix(2.2907018,0,0,2.2907018,10.5426,-3.4089995)"
     style="fill:none;stroke:#000000;stroke-width:3.97000003;stroke-linejoin:bevel" />
  <polyline
     class="BarLine"
     points="1109.55,46.3819 1109.55,308.427"
     id="polyline38"
     transform="matrix(2.2907018,0,0,2.2907018,10.5426,-3.4089995)"
     style="fill:none;stroke:#000000;stroke-width:3.97000003;stroke-linejoin:bevel" />
  <polyline
     class="BarLine"
     points="1127.66,46.3819 1127.66,308.427"
     id="polyline40"
     transform="matrix(2.2907018,0,0,2.2907018,10.5426,-3.4089995)"
     style="fill:none;stroke:#000000;stroke-width:12.39999962;stroke-linejoin:bevel" />
  <path
     class="Accidental"
     d="m 635.0855,185.86133 c 0.9233,0 5.22,-2.0596 5.9302,-2.52125 0.2131,0 0.4261,-0.21306 0.6747,-0.21306 1.598,0 2.9474,2.27266 2.9474,4.0837 v 22.51359 c 0,2.48573 -1.1364,4.54533 -2.4857,5.21997 -1.3849,0.4618 -6.1433,2.48584 -6.1433,2.48584 -1.598,0.46157 -2.7343,2.27266 -2.7343,3.65762 v 16.12161 c 0,1.3495 0.6746,2.05971 1.811,2.05971 0.2485,0 0.6747,-0.24862 0.9233,-0.24862 0,0 3.1604,-1.34952 5.22,-2.02404 0.213,-0.24863 0.4616,-0.24863 0.6747,-0.24863 1.5979,0 2.7343,2.52129 2.7343,3.65763 v 27.9465 c 0,1.34951 1.3494,2.48584 2.9474,2.48584 2.2726,0 3.8706,-1.13633 3.8706,-2.48584 v -31.60413 c 0,-2.94742 1.1363,-4.54533 2.2727,-5.00691 l 13.8491,-5.68166 c 0.2484,0 0.7102,-0.21317 0.9232,-0.21317 1.811,0 2.9474,2.73423 2.9474,4.08375 v 28.4083 c 0,1.38497 1.3849,2.5213 2.9474,2.5213 2.5211,0 3.8706,-1.13633 3.8706,-2.5213 V 226.0592 c 0,-1.81109 0.9231,-4.54533 2.5213,-5.22008 1.5624,-0.67476 6.3562,-2.48584 6.3562,-2.48584 1.5981,-0.67453 2.7344,-2.52107 2.7344,-3.87058 v -16.12171 c 0,-1.13634 -0.7101,-1.84655 -1.5981,-1.84655 -0.4616,0 -0.6745,0 -1.1363,0.24859 l -5.9301,2.27266 c -1.3495,0 -2.9474,-1.38491 -2.9474,-4.08371 v -21.16419 c 0,-1.56245 1.1363,-5.89472 2.9474,-6.56947 l 5.9301,-2.27267 c 1.5981,-0.67475 2.7344,-2.52129 2.7344,-3.87057 v -16.12183 c 0,-1.13634 -0.7101,-1.84655 -1.5981,-1.84655 -0.4616,0 -0.6745,0 -1.1363,0.24864 0,0 -4.5454,1.81109 -5.6817,2.02403 -1.5979,0 -3.1958,-1.13633 -3.1958,-2.94719 V 114.6984 c 0,-1.3493 -1.3495,-2.48561 -3.1604,-2.48561 -2.2727,0 -3.6576,1.13631 -3.6576,2.48561 v 29.54464 c -0.2132,2.27267 -0.8877,5.25554 -2.9474,6.60504 -2.7343,1.59792 -10.4399,4.75828 -14.3107,5.68167 -2.0596,0 -2.7343,-2.73425 -2.7343,-4.54533 v -27.27198 c 0,-1.38496 -1.598,-2.52129 -3.196,-2.52129 -2.2726,0 -3.622,1.13633 -3.622,2.52129 v 30.68097 c 0,3.19583 -1.3494,5.46849 -2.7343,6.14324 -1.3494,0.67476 -5.8947,2.48585 -5.8947,2.48585 -1.598,0.46157 -2.7343,2.27266 -2.7343,3.6574 v 16.12183 c 0,1.34939 0.6746,2.0596 1.811,2.0596 m 15.6956,12.71272 c 0,-7.03106 0.213,-14.98539 0.6747,-16.83192 0.4616,-3.83513 10.9017,-8.62905 16.5834,-8.62905 1.5979,0 2.9474,0.46165 3.409,1.38492 0.4616,1.13634 0.9232,6.818 0.9232,12.92578 0,6.1433 -0.4616,12.49966 -0.9232,14.55926 -1.3495,4.54533 -12.0381,9.09066 -17.2581,9.09066 -1.3849,0 -2.5213,-0.46162 -2.7343,-1.13633 -0.4617,-0.92327 -0.6747,-5.89473 -0.6747,-11.36332"
     id="path42"
     inkscape:connector-curvature="0"
     style="stroke-width:2.27266479" />
  <path
     class="Accidental"
     d="m 1349.7753,185.86133 c 0.9233,0 5.22,-2.0596 5.9302,-2.52125 0.2131,0 0.4262,-0.21306 0.6748,-0.21306 1.5979,0 2.9473,2.27266 2.9473,4.0837 v 22.51359 c 0,2.48573 -1.1364,4.54533 -2.4858,5.21997 -1.3848,0.4618 -6.1432,2.48584 -6.1432,2.48584 -1.598,0.46157 -2.7343,2.27266 -2.7343,3.65762 v 16.12161 c 0,1.3495 0.6746,2.05971 1.811,2.05971 0.2486,0 0.6747,-0.24862 0.9233,-0.24862 0,0 3.1604,-1.34952 5.22,-2.02404 0.2131,-0.24863 0.4617,-0.24863 0.6747,-0.24863 1.5979,0 2.7343,2.52129 2.7343,3.65763 v 27.9465 c 0,1.34951 1.3494,2.48584 2.9474,2.48584 2.2726,0 3.8706,-1.13633 3.8706,-2.48584 v -31.60413 c 0,-2.94742 1.1363,-4.54533 2.2727,-5.00691 l 13.8491,-5.68166 c 0.2484,0 0.7102,-0.21317 0.9231,-0.21317 1.8111,0 2.9475,2.73423 2.9475,4.08375 v 28.4083 c 0,1.38497 1.3849,2.5213 2.9474,2.5213 2.5211,0 3.8706,-1.13633 3.8706,-2.5213 V 226.0592 c 0,-1.81109 0.9231,-4.54533 2.5213,-5.22008 1.5624,-0.67476 6.3561,-2.48584 6.3561,-2.48584 1.5982,-0.67453 2.7345,-2.52107 2.7345,-3.87058 v -16.12171 c 0,-1.13634 -0.7102,-1.84655 -1.5981,-1.84655 -0.4616,0 -0.6745,0 -1.1364,0.24859 l -5.93,2.27266 c -1.3495,0 -2.9474,-1.38491 -2.9474,-4.08371 v -21.16419 c 0,-1.56245 1.1363,-5.89472 2.9474,-6.56947 l 5.93,-2.27267 c 1.5982,-0.67475 2.7345,-2.52129 2.7345,-3.87057 v -16.12183 c 0,-1.13634 -0.7102,-1.84655 -1.5981,-1.84655 -0.4616,0 -0.6745,0 -1.1364,0.24864 0,0 -4.5453,1.81109 -5.6816,2.02403 -1.5979,0 -3.1958,-1.13633 -3.1958,-2.94719 V 114.6984 c 0,-1.3493 -1.3495,-2.48561 -3.1604,-2.48561 -2.2727,0 -3.6576,1.13631 -3.6576,2.48561 v 29.54464 c -0.2132,2.27267 -0.8877,5.25554 -2.9475,6.60504 -2.7342,1.59792 -10.4399,4.75828 -14.3106,5.68167 -2.0596,0 -2.7343,-2.73425 -2.7343,-4.54533 v -27.27198 c 0,-1.38496 -1.598,-2.52129 -3.196,-2.52129 -2.2726,0 -3.622,1.13633 -3.622,2.52129 v 30.68097 c 0,3.19583 -1.3494,5.46849 -2.7343,6.14324 -1.3494,0.67476 -5.8947,2.48585 -5.8947,2.48585 -1.598,0.46157 -2.7343,2.27266 -2.7343,3.6574 v 16.12183 c 0,1.34939 0.6746,2.0596 1.811,2.0596 m 15.6956,12.71272 c 0,-7.03106 0.2131,-14.98539 0.6747,-16.83192 0.4616,-3.83513 10.9018,-8.62905 16.5834,-8.62905 1.5979,0 2.9474,0.46165 3.409,1.38492 0.4616,1.13634 0.9232,6.818 0.9232,12.92578 0,6.1433 -0.4616,12.49966 -0.9232,14.55926 -1.3495,4.54533 -12.0381,9.09066 -17.2581,9.09066 -1.3849,0 -2.5213,-0.46162 -2.7343,-1.13633 -0.4616,-0.92327 -0.6747,-5.89473 -0.6747,-11.36332"
     id="path44"
     inkscape:connector-curvature="0"
     style="stroke-width:2.27266479" />
  <polyline
     class="Stem"
     points="304.243,311.761 304.243,395.238"
     id="polyline46"
     transform="matrix(2.2907018,0,0,2.2907018,10.5426,-3.4089995)"
     style="fill:none;stroke:#000000;stroke-width:2.98000002;stroke-linejoin:bevel" />
  <polyline
     class="Stem"
     points="333.906,143.873 333.906,10.7894"
     id="polyline48"
     transform="matrix(2.2907018,0,0,2.2907018,10.5426,-3.4089995)"
     style="fill:none;stroke:#000000;stroke-width:2.98000002;stroke-linejoin:bevel" />
  <polyline
     class="Stem"
     points="652.351,81.8653 652.351,10.7894"
     id="polyline50"
     transform="matrix(2.2907018,0,0,2.2907018,10.5426,-3.4089995)"
     style="fill:none;stroke:#000000;stroke-width:2.98000002;stroke-linejoin:bevel" />
  <polyline
     class="Stem"
     points="895.535,69.4637 895.535,1.48819"
     id="polyline52"
     transform="matrix(2.2907018,0,0,2.2907018,10.5426,-3.4089995)"
     style="fill:none;stroke:#000000;stroke-width:2.98000002;stroke-linejoin:bevel" />
  <path
     class="Note"
     d="m 728.6018,734.92264 c 41.8311,0 50.2472,-34.09 50.2472,-42.2574 0,-12.9614 -10.227,-21.3772 -24.9993,-21.3772 -37.9607,0 -49.7857,29.3315 -49.7857,42.5059 0,13.3875 10.6886,21.1287 24.5378,21.1287 m -17.0451,-20.6671 c 0,-12.2866 36.6113,-32.5275 48.6492,-32.5275 4.7585,0 7.4927,2.2726 9.3038,5.4686 0.7102,1.3494 1.385,2.9474 1.385,4.7584 0,5.0069 -5.2201,11.1502 -22.9753,22.7266 -11.3633,7.7413 -19.3176,10.4756 -24.7508,10.4756 -5.2555,0 -8.416,-2.7343 -10.0139,-5.9302 -0.9233,-1.3494 -1.598,-3.1605 -1.598,-4.9715"
     id="path54"
     inkscape:connector-curvature="0"
     style="stroke-width:2.27266479" />
  <path
     class="Note"
     d="m 1418.7538,816.27614 c 0,16.5834 14.0976,31.3559 50.922,31.3559 40.4462,0 53.4076,-14.0622 53.4076,-31.3559 0,-17.5065 -27.9467,-30.6809 -50.922,-30.6809 -32.9536,0 -53.4076,13.8845 -53.4076,30.6809 m 26.5972,-9.0906 c 0,-12.7127 8.8423,-15.9086 20.454,-15.9086 16.8321,0 30.4681,18.1813 30.4681,33.2022 0,12.4996 -7.7414,17.4712 -18.8916,17.4712 -16.3702,0 -32.0305,-18.8561 -32.0305,-34.7648"
     id="path56"
     inkscape:connector-curvature="0"
     style="stroke-width:2.27266479" />
  <path
     class="Note"
     d="m 1418.7538,304.92743 c 0,16.58335 14.0976,31.35578 50.922,31.35578 40.4462,0 53.4076,-14.06222 53.4076,-31.35578 0,-17.50662 -27.9467,-30.68092 -50.922,-30.68092 -32.9536,0 -53.4076,13.8845 -53.4076,30.68092 m 26.5972,-9.09068 c 0,-12.71271 8.8423,-15.90858 20.454,-15.90858 16.8321,0 30.4681,18.18125 30.4681,33.20215 0,12.49966 -7.7414,17.47123 -18.8916,17.47123 -16.3702,0 -32.0305,-18.85612 -32.0305,-34.7648"
     id="path58"
     inkscape:connector-curvature="0"
     style="stroke-width:2.27266479" />
  <path
     class="Note"
     d="m 1418.7538,248.11115 c 0,16.58335 14.0976,31.35579 50.922,31.35579 40.4462,0 53.4076,-14.06223 53.4076,-31.35579 0,-17.50662 -27.9467,-30.68092 -50.922,-30.68092 -32.9536,0 -53.4076,13.88451 -53.4076,30.68092 m 26.5972,-9.09067 c 0,-12.71272 8.8423,-15.90858 20.454,-15.90858 16.8321,0 30.4681,18.18125 30.4681,33.20215 0,12.49966 -7.7414,17.47122 -18.8916,17.47122 -16.3702,0 -32.0305,-18.85611 -32.0305,-34.76479"
     id="path60"
     inkscape:connector-curvature="0"
     style="stroke-width:2.27266479" />
  <path
     class="Note"
     d="m 728.6018,365.61565 c 41.8311,0 50.2472,-34.08997 50.2472,-42.25735 0,-12.96135 -10.227,-21.37726 -24.9993,-21.37726 -37.9607,0 -49.7857,29.33158 -49.7857,42.50595 0,13.38752 10.6886,21.12866 24.5378,21.12866 m -17.0451,-20.66704 c 0,-12.28659 36.6113,-32.52752 48.6492,-32.52752 4.7585,0 7.4927,2.27267 9.3038,5.4686 0.7102,1.34939 1.385,2.94735 1.385,4.7584 0,5.00695 -5.2201,11.15026 -22.9753,22.72664 -11.3633,7.74127 -19.3176,10.47558 -24.7508,10.47558 -5.2555,0 -8.416,-2.73431 -10.0139,-5.93025 -0.9233,-1.34939 -1.598,-3.16041 -1.598,-4.97145"
     id="path62"
     inkscape:connector-curvature="0"
     style="stroke-width:2.27266479" />
  <path
     class="Note"
     d="m 728.6018,280.39009 c 41.8311,0 50.2472,-34.08997 50.2472,-42.25735 0,-12.96135 -10.227,-21.37726 -24.9993,-21.37726 -37.9607,0 -49.7857,29.33158 -49.7857,42.50595 0,13.38752 10.6886,21.12866 24.5378,21.12866 m -17.0451,-20.66704 c 0,-12.28659 36.6113,-32.52752 48.6492,-32.52752 4.7585,0 7.4927,2.27267 9.3038,5.4686 0.7102,1.34939 1.385,2.94735 1.385,4.7584 0,5.00695 -5.2201,11.15026 -22.9753,22.72664 -11.3633,7.74127 -19.3176,10.47558 -24.7508,10.47558 -5.2555,0 -8.416,-2.73431 -10.0139,-5.93025 -0.9233,-1.34939 -1.598,-3.16041 -1.598,-4.97145"
     id="path64"
     inkscape:connector-curvature="0"
     style="stroke-width:2.27266479" />
  <path
     class="Note"
     d="m 728.6018,223.57336 c 41.8311,0 50.2472,-34.08997 50.2472,-42.25736 0,-12.96135 -10.227,-21.37726 -24.9993,-21.37726 -37.9607,0 -49.7857,29.33159 -49.7857,42.50595 0,13.38752 10.6886,21.12867 24.5378,21.12867 m -17.0451,-20.66705 c 0,-12.28659 36.6113,-32.52751 48.6492,-32.52751 4.7585,0 7.4927,2.27267 9.3038,5.4686 0.7102,1.3494 1.385,2.94735 1.385,4.75839 0,5.00696 -5.2201,11.15026 -22.9753,22.72665 -11.3633,7.74126 -19.3176,10.47557 -24.7508,10.47557 -5.2555,0 -8.416,-2.73431 -10.0139,-5.93024 -0.9233,-1.3494 -1.598,-3.16042 -1.598,-4.97146"
     id="path66"
     inkscape:connector-curvature="0"
     style="stroke-width:2.27266479" />
  <path
     class="Note"
     d="m 1458.0643,223.57336 c 41.8311,0 50.2472,-34.08997 50.2472,-42.25736 0,-12.96135 -10.2269,-21.37726 -24.9993,-21.37726 -37.9607,0 -49.7857,29.33159 -49.7857,42.50595 0,13.38752 10.6887,21.12867 24.5378,21.12867 m -17.0451,-20.66705 c 0,-12.28659 36.6114,-32.52751 48.6492,-32.52751 4.7585,0 7.4928,2.27267 9.3039,5.4686 0.7101,1.3494 1.3849,2.94735 1.3849,4.75839 0,5.00696 -5.2201,11.15026 -22.9752,22.72665 -11.3634,7.74126 -19.3177,10.47557 -24.7509,10.47557 -5.2555,0 -8.4159,-2.73431 -10.0139,-5.93024 -0.9233,-1.3494 -1.598,-3.16042 -1.598,-4.97146"
     id="path68"
     inkscape:connector-curvature="0"
     style="stroke-width:2.27266479" />
  <path
     class="Note"
     d="m 2015.124,195.16499 c 41.8311,0 50.2473,-34.08997 50.2473,-42.25736 0,-12.96135 -10.227,-21.37725 -24.9993,-21.37725 -37.9607,0 -49.7857,29.33158 -49.7857,42.50594 0,13.38752 10.6886,21.12867 24.5377,21.12867 m -17.045,-20.66704 c 0,-12.2866 36.6113,-32.52752 48.6491,-32.52752 4.7586,0 7.4928,2.27266 9.3039,5.4686 0.7102,1.34939 1.3849,2.94735 1.3849,4.75839 0,5.00696 -5.2201,11.15026 -22.9752,22.72665 -11.3633,7.74127 -19.3177,10.47558 -24.7508,10.47558 -5.2555,0 -8.416,-2.73431 -10.0139,-5.93025 -0.9233,-1.34939 -1.598,-3.16041 -1.598,-4.97145"
     id="path70"
     inkscape:connector-curvature="0"
     style="stroke-width:2.27266479" />
  <path
     class="Clef"
     d="m 105.7854,904.23584 c 1.1363,0 2.5212,-0.4616 3.8706,-1.1364 55.929,-27.272 115.0182,-67.7184 115.0182,-136.8215 0,-39.5232 -24.1116,-65.9072 -63.4216,-65.9072 -39.5585,0 -57.2782,28.8698 -57.2782,50.6732 0,18.1814 9.5523,33.877 27.9467,33.877 14.3107,0 24.1116,-10.014 24.1116,-24.0761 0,-14.5593 -10.6888,-23.6499 -21.8389,-23.6499 -6.1433,0 -8.416,1.5979 -11.3634,1.5979 -2.9474,0 -3.6221,-1.8111 -3.6221,-4.0838 0,-9.0906 13.6359,-25.7095 36.8244,-25.7095 24.0759,0 34.5516,23.65 34.5516,59.338 0,63.4216 -31.3912,98.8608 -84.3373,129.0802 -2.0596,1.1364 -3.4089,2.2727 -3.4089,4.0838 0,1.385 0.9232,2.7343 2.9473,2.7343 m 141.1539,-160.2229 c 7.0309,0 12.4997,-5.4686 12.4997,-12.4997 0,-7.0312 -5.4688,-12.4996 -12.4997,-12.4996 -7.0666,0 -12.4997,5.4684 -12.4997,12.4996 0,7.0311 5.4331,12.4997 12.4997,12.4997 m 0.213,56.6036 c 7.0666,0 12.2867,-5.2555 12.2867,-12.2866 0,-7.0311 -5.2201,-12.2867 -12.2867,-12.2867 -7.031,0 -12.2511,5.2556 -12.2511,12.2867 0,7.0311 5.2201,12.2866 12.2511,12.2866"
     id="path72"
     inkscape:connector-curvature="0"
     style="stroke-width:2.27266479" />
  <path
     class="Clef"
     d="m 186.7137,334.26027 c 5.2199,0 11.1147,-0.46158 15.66,-1.38474 2.5213,-0.42612 2.9829,-0.67475 3.409,2.0595 2.7342,15.23389 6.1432,35.01335 6.1432,45.70192 0,33.62839 -22.7266,37.71189 -36.114,37.71189 -12.2867,0 -18.2167,-3.6219 -18.2167,-6.6048 0,-1.5624 2.0594,-2.2727 7.2795,-3.8351 7.0667,-2.0597 15.2339,-8.203 15.2339,-21.3774 0,-12.49964 -7.9543,-23.18821 -21.8032,-23.18821 -15.2341,0 -24.3248,12.03808 -24.3248,26.13561 0,14.7724 8.8422,37.0374 43.1806,37.0374 15.2342,0 44.7788,-6.818 44.7788,-45.45327 0,-12.92578 -4.0837,-34.51609 -6.605,-48.61366 -0.4616,-2.73447 -0.213,-2.5213 2.9474,-3.8708 22.9753,-9.09066 38.2091,-28.40832 38.2091,-54.08227 0,-29.11863 -21.3773,-54.79247 -54.7925,-54.79247 -5.8946,0 -5.8946,0 -6.5694,-4.08375 l -5.6817,-32.95364 c -0.4616,-2.73424 0,-2.94742 1.3493,-4.33238 24.5378,-22.9396 43.1807,-51.80948 43.1807,-86.5742 0,-19.77926 -5.4685,-39.34549 -14.7724,-52.98263 -3.409,-4.97031 -9.3036,-11.36334 -11.8249,-11.36334 -3.1604,0 -10.2269,5.93164 -14.7723,10.93832 -16.7964,18.60746 -22.2651,47.01574 -22.2651,70.66558 0,13.17441 1.5982,27.94672 3.1961,37.28601 0.4261,2.73424 0.6748,3.16037 -2.0597,5.43304 -32.7405,27.05902 -67.5052,59.55086 -67.5052,105.46589 0,39.5586 27.059,77.0575 82.7393,77.0575 m -64.558,-61.82353 c 0,-13.42293 2.2727,-31.35573 21.1287,-52.73287 13.636,-15.23412 24.1116,-23.65003 34.8002,-32.27911 2.2726,-1.81086 2.6988,-1.59791 3.1603,0.92338 l 4.794,29.08307 c 0.6748,4.33215 0.6748,4.08352 -3.409,5.46848 -20.0278,6.818 -32.9891,24.75069 -32.9891,44.06845 0,20.45398 10.6886,35.01324 26.1711,40.23332 1.8111,0.67476 4.5453,1.38497 6.1078,1.38497 1.8466,0 2.7343,-1.13633 2.7343,-2.52129 0,-1.59791 -1.8111,-2.27267 -3.4091,-2.94743 -9.5522,-4.08368 -16.3702,-13.84905 -16.3702,-24.32461 0,-12.96129 8.8775,-22.72666 22.7267,-26.5974 3.6576,-0.8877 4.1192,-0.67452 4.5453,1.84655 l 11.3634,67.71836 c 0.4615,2.48584 0.2486,2.48584 -3.1604,3.1606 -3.6576,0.7102 -8.203,1.13633 -12.7483,1.13633 -39.7716,0 -65.4457,-22.01644 -65.4457,-53.6208 M 210.7896,62.64137 c 7.4928,0 13.636,6.14325 13.636,18.6429 0,25.24797 -21.5903,45.70192 -39.523,61.36195 -1.5979,1.38496 -2.5213,1.13633 -2.9829,-1.81109 -0.8877,-5.89461 -1.3495,-13.63599 -1.3495,-20.91556 0,-35.43928 16.3705,-57.2782 30.2194,-57.2782 m -6.5694,187.74348 c 18.3943,1.59791 33.6284,17.04491 33.6284,37.03727 0,14.34631 -8.629,25.92259 -21.3773,32.27901 -2.7343,1.38496 -3.1604,1.38496 -3.622,-1.34952 L 201.699,253.58066 c -0.4616,-2.73423 -0.213,-3.40899 2.5212,-3.19581"
     id="path74"
     inkscape:connector-curvature="0"
     style="stroke-width:2.27266479" />
  <path
     class="KeySig"
     d="m 318.971,912.19174 c 0.6748,0.9234 1.3495,1.1363 2.0241,1.1363 0.7103,0 1.3849,-0.4616 1.3849,-0.4616 6.8181,-3.8706 12.2511,-9.9784 17.9329,-13.8491 20.2408,-14.0976 27.272,-27.9467 27.272,-38.4222 0,-12.9615 -9.9786,-21.1287 -20.454,-21.8034 -3.8351,0 -9.3039,1.8111 -12.4998,3.8705 -1.3494,1.1363 -3.8351,3.1606 -4.9714,3.1606 -0.4616,0 -0.7102,0 -1.1364,-0.2132 -1.5979,-0.6747 -2.5212,-2.2726 -2.5212,-3.8705 0.2486,-5.007 1.598,-59.5509 1.598,-64.0962 0,-2.4859 -2.0596,-3.8708 -4.3323,-3.8708 -3.1604,0 -6.818,2.2726 -7.0311,6.3564 0,0 0.9233,129.7905 2.7343,132.0632 m 7.7058,-50.2117 c 1.598,-4.5453 10.6887,-11.1503 15.9088,-11.1503 6.6048,0 9.339,7.4927 9.339,13.1743 0,12.2867 -10.4753,24.5378 -20.2408,30.6811 -0.8878,0.4616 -1.598,0.6747 -2.2727,0.6747 -2.0241,0 -2.4857,-2.2727 -2.4857,-3.409 0,0 -0.6747,-13.6361 -0.6747,-22.7267 0,-3.622 0.2131,-6.3564 0.4261,-7.2441"
     id="path76"
     inkscape:connector-curvature="0"
     style="stroke-width:2.27266479" />
  <path
     class="KeySig"
     d="m 318.971,258.79972 c 0.6748,0.92338 1.3495,1.13634 2.0241,1.13634 0.7103,0 1.3849,-0.46159 1.3849,-0.46159 6.8181,-3.87057 12.2511,-9.97836 17.9329,-13.84916 20.2408,-14.09757 27.272,-27.94662 27.272,-38.42219 0,-12.9614 -9.9786,-21.12867 -20.454,-21.80343 -3.8351,0 -9.3039,1.81109 -12.4998,3.87058 -1.3494,1.13633 -3.8351,3.16059 -4.9714,3.16059 -0.4616,0 -0.7102,0 -1.1364,-0.21317 -1.5979,-0.67476 -2.5212,-2.27267 -2.5212,-3.87058 0.2486,-5.00691 1.598,-59.55086 1.598,-64.09619 0,-2.48584 -2.0596,-3.8708 -4.3323,-3.8708 -3.1604,0 -6.818,2.27266 -7.0311,6.35641 0,0 0.9233,129.79052 2.7343,132.06319 m 7.7058,-50.21169 c 1.598,-4.54533 10.6887,-11.15026 15.9088,-11.15026 6.6048,0 9.339,7.49268 9.339,13.17434 0,12.28662 -10.4753,24.53769 -20.2408,30.681 -0.8878,0.46163 -1.598,0.67468 -2.2727,0.67468 -2.0241,0 -2.4857,-2.27266 -2.4857,-3.40899 0,0 -0.6747,-13.63599 -0.6747,-22.72665 0,-3.62206 0.2131,-6.35637 0.4261,-7.24412"
     id="path78"
     inkscape:connector-curvature="0"
     style="stroke-width:2.27266479" />
  <path
     class="TimeSig"
     d="m 439.1922,858.10744 c 8.6291,10.4401 21.1287,15.234 34.7647,15.234 39.7717,0 45.7019,-36.1496 45.7019,-42.7546 0,-4.9714 -2.5212,-4.9714 -3.409,-4.9714 -1.8111,0 -3.4089,0.213 -3.4089,4.0837 0,29.2962 -24.9993,36.1142 -32.2791,36.1142 -18.4298,0 -28.1952,-17.9329 -28.1952,-55.4319 0,-37.499 17.2936,-45.2401 29.5446,-45.2401 11.8249,0 16.6189,5.4684 16.6189,7.7411 0,2.024 -0.7102,5.0069 -4.1192,5.0069 -9.0906,0 -14.3107,9.7655 -14.3107,16.7965 0,12.9613 11.1503,17.045 17.5065,17.045 0,0 17.2582,-0.6746 17.2582,-19.5307 0,-29.7933 -34.3031,-32.4921 -38.6353,-32.4921 -32.279,0 -51.8098,28.6215 -51.8098,59.3025 0,14.7723 5.4687,27.7335 14.7724,39.0969"
     id="path80"
     inkscape:connector-curvature="0"
     style="stroke-width:2.27266479" />
  <path
     class="TimeSig"
     d="m 439.1922,261.53396 c 8.6291,10.44017 21.1287,15.23413 34.7647,15.23413 39.7717,0 45.7019,-36.14969 45.7019,-42.75462 0,-4.97146 -2.5212,-4.97146 -3.409,-4.97146 -1.8111,0 -3.4089,0.21307 -3.4089,4.08371 0,29.29618 -24.9993,36.11417 -32.2791,36.11417 -18.4298,0 -28.1952,-17.93292 -28.1952,-55.43184 0,-37.49902 17.2936,-45.24017 29.5446,-45.24017 11.8249,0 16.6189,5.46849 16.6189,7.74115 0,2.02404 -0.7102,5.00691 -4.1192,5.00691 -9.0906,0 -14.3107,9.76542 -14.3107,16.79652 0,12.9613 11.1503,17.04498 17.5065,17.04498 0,0 17.2582,-0.67469 17.2582,-19.53075 0,-29.79328 -34.3031,-32.49207 -38.6353,-32.49207 -32.279,0 -51.8098,28.62149 -51.8098,59.30247 0,14.77231 5.4687,27.73355 14.7724,39.09687"
     id="path82"
     inkscape:connector-curvature="0"
     style="stroke-width:2.27266479" />
  <polyline
     class="Bracket"
     points="1.59843,35.5925 1.59843,420.041"
     id="polyline84"
     transform="matrix(2.2907018,0,0,2.2907018,10.5426,-3.4089995)"
     style="fill:none;stroke:#000000;stroke-width:12.39999962;stroke-linejoin:bevel" />
  <path
     class="Bracket"
     d="M 0,65.72976 V 92.327 h 28.4083 c 36.3626,-6.81798 68.8547,-23.65002 77.9453,-61.6106 0.2487,-0.88771 0.2487,-1.56244 0.2487,-2.27262 0,-1.81111 -0.6748,-2.69881 -1.8111,-3.16039 -2.0597,0 -4.5454,1.59789 -5.6817,3.16039 C 96.8368,30.96506 68.1799,60.9713 24.7864,64.13162 H 1.811 C 0.4616,64.13162 0,64.38029 0,65.72976"
     id="path86"
     inkscape:connector-curvature="0"
     style="stroke-width:2.27266479" />
  <path
     class="Bracket"
     d="m 0,944.57734 v 26.5972 c 0,1.3495 0.4616,1.5982 1.811,1.5982 h 22.9754 c 43.3935,3.1603 72.0504,33.16646 74.3231,35.68776 1.1363,1.5625 3.622,3.1604 5.6817,3.1604 1.1363,-0.4616 1.8111,-1.3493 1.8111,-3.1604 0,-0.7102 0,-1.3849 -0.2487,-2.2726 C 97.263,968.22734 64.7709,951.39534 28.4083,944.57734 H 0"
     id="path88"
     inkscape:connector-curvature="0"
     style="stroke-width:2.27266479" />
</svg>
