<?xml version="1.0" encoding="UTF-8" standalone="no"?>
<svg width="1133.86px" height="552.755px" viewBox="0 0 1133.86 552.755"
 xmlns="http://www.w3.org/2000/svg" xmlns:xlink="http://www.w3.org/1999/xlink" version="1.2" baseProfile="tiny">
<title>Septakkorde (5)</title>
<desc>Generated by MuseScore 3.6.2</desc>
<polyline class="StaffLines" fill="none" stroke="#000000" stroke-width="3.22" stroke-linejoin="bevel" points="0,181.118 1133.86,181.118"/>
<polyline class="StaffLines" fill="none" stroke="#000000" stroke-width="3.22" stroke-linejoin="bevel" points="0,205.921 1133.86,205.921"/>
<polyline class="StaffLines" fill="none" stroke="#000000" stroke-width="3.22" stroke-linejoin="bevel" points="0,230.725 1133.86,230.725"/>
<polyline class="StaffLines" fill="none" stroke="#000000" stroke-width="3.22" stroke-linejoin="bevel" points="0,255.528 1133.86,255.528"/>
<polyline class="StaffLines" fill="none" stroke="#000000" stroke-width="3.22" stroke-linejoin="bevel" points="0,280.331 1133.86,280.331"/>
<polyline class="BarLine" fill="none" stroke="#000000" stroke-width="3.97" stroke-linejoin="bevel" points="916.252,179.506 916.252,281.943"/>
<polyline class="BarLine" fill="none" stroke="#000000" stroke-width="3.97" stroke-linejoin="bevel" points="930.142,179.506 930.142,281.943"/>
<polyline class="BarLine" fill="none" stroke="#000000" stroke-width="3.97" stroke-linejoin="bevel" points="1131.88,179.506 1131.88,281.943"/>
<path class="Accidental" transform="matrix(0.992126,0,0,0.992126,148.416,317.536)" d="M13.7969,24.7969 C13.9063,24.7969 14.0938,24.7031 14.0938,24.5938 L14.0938,23.0938 C14.0938,22.9063 14,22.7969 13.9063,22.7031 C8.20313,17.5938 6,11.0938 6,0 C6,-11 8.29688,-17.4063 13.9063,-22.5 C14,-22.5938 14.0938,-22.7031 14.0938,-23 L14.0938,-24.4063 C14.0938,-24.5938 14.0938,-24.7031 14,-24.7031 C4.20313,-19.5 0,-9.70313 0,0 C0,10 4.20313,18.7031 13.7969,24.7969"/>
<path class="Accidental" transform="matrix(0.992126,0,0,0.992126,166.739,317.536)" d="M0,18.5938 C0,19.2031 0.296875,19.5 0.796875,19.5 C0.90625,19.5 1.40625,19.4063 1.5,19.2969 C2.90625,18.7031 8.5,16.2969 11.4063,16.2969 C12.4063,16.2969 13.0938,16.5938 13.0938,17.4063 L13.0938,32.2969 C13.0938,33 13.5938,33.5 14.2969,33.5 L15.5938,33.5 C16.2031,33.5 16.7969,33 16.7969,32.2969 L16.7969,-17.9063 C16.7969,-18.4063 16.4063,-18.7031 16,-18.7031 C15.9063,-18.7031 15.7031,-18.7031 15.5938,-18.5938 L14.0938,-18.0938 C13.9063,-18.0938 13.7969,-18 13.7031,-18 C13.7031,-18 7.29688,-15.7031 4.70313,-15.7031 C4.09375,-15.7031 3.70313,-15.7969 3.70313,-16.2031 L3.70313,-32.9063 C3.70313,-33.6094 3.09375,-34.1094 2.5,-34.1094 L1.20313,-34.1094 C0.5,-34.1094 0,-33.6094 0,-32.9063 L0,18.5938 M12.2031,-7.90625 C12.7969,-7.90625 13.0938,-7.79688 13.0938,-7.40625 L13.0938,2.90625 C13.0938,4.70313 7.40625,7 4.90625,7 C4.20313,7 3.70313,6.79688 3.70313,6.40625 L3.70313,-3.90625 C3.70313,-5.29688 9.79688,-7.90625 12.2031,-7.90625"/>
<path class="Accidental" transform="matrix(0.992126,0,0,0.992126,187.744,317.536)" d="M0,-23 C0,-22.7031 0.09375,-22.5938 0.203125,-22.5 C5.79688,-17.4063 8.09375,-11 8.09375,0 C8.09375,11.0938 5.90625,17.5938 0.203125,22.7031 C0.09375,22.7969 0,22.9063 0,23.0938 L0,24.5938 C0,24.7031 0.203125,24.7969 0.296875,24.7969 C9.90625,18.7031 14.0938,10 14.0938,0 C14.0938,-9.70313 9.90625,-19.5 0.09375,-24.7031 C0,-24.7031 0,-24.5938 0,-24.4063 L0,-23 "/>
<path class="Accidental" transform="matrix(0.992126,0,0,0.992126,706.713,243.126)" d="M1.20313,17 C1.5,17.4063 1.79688,17.5 2.09375,17.5 C2.40625,17.5 2.70313,17.2969 2.70313,17.2969 C5.70313,15.5938 8.09375,12.9063 10.5938,11.2031 C19.5,5 22.5938,-1.09375 22.5938,-5.70313 C22.5938,-11.4063 18.2031,-15 13.5938,-15.2969 C11.9063,-15.2969 9.5,-14.5 8.09375,-13.5938 C7.5,-13.0938 6.40625,-12.2031 5.90625,-12.2031 C5.70313,-12.2031 5.59375,-12.2031 5.40625,-12.2969 C4.70313,-12.5938 4.29688,-13.2969 4.29688,-14 C4.40625,-16.2031 5,-40.2031 5,-42.2031 C5,-43.2969 4.09375,-43.9063 3.09375,-43.9063 C1.70313,-43.9063 0.09375,-42.9063 0,-41.1094 C0,-41.1094 0.40625,16 1.20313,17 M4.59375,-5.09375 C5.29688,-7.09375 9.29688,-10 11.5938,-10 C14.5,-10 15.7031,-6.70313 15.7031,-4.20313 C15.7031,1.20313 11.0938,6.59375 6.79688,9.29688 C6.40625,9.5 6.09375,9.59375 5.79688,9.59375 C4.90625,9.59375 4.70313,8.59375 4.70313,8.09375 C4.70313,8.09375 4.40625,2.09375 4.40625,-1.90625 C4.40625,-3.5 4.5,-4.70313 4.59375,-5.09375"/>
<path class="Accidental" transform="matrix(0.992126,0,0,0.992126,948.249,243.126)" d="M1.20313,17 C1.5,17.4063 1.79688,17.5 2.09375,17.5 C2.40625,17.5 2.70313,17.2969 2.70313,17.2969 C5.70313,15.5938 8.09375,12.9063 10.5938,11.2031 C19.5,5 22.5938,-1.09375 22.5938,-5.70313 C22.5938,-11.4063 18.2031,-15 13.5938,-15.2969 C11.9063,-15.2969 9.5,-14.5 8.09375,-13.5938 C7.5,-13.0938 6.40625,-12.2031 5.90625,-12.2031 C5.70313,-12.2031 5.59375,-12.2031 5.40625,-12.2969 C4.70313,-12.5938 4.29688,-13.2969 4.29688,-14 C4.40625,-16.2031 5,-40.2031 5,-42.2031 C5,-43.2969 4.09375,-43.9063 3.09375,-43.9063 C1.70313,-43.9063 0.09375,-42.9063 0,-41.1094 C0,-41.1094 0.40625,16 1.20313,17 M4.59375,-5.09375 C5.29688,-7.09375 9.29688,-10 11.5938,-10 C14.5,-10 15.7031,-6.70313 15.7031,-4.20313 C15.7031,1.20313 11.0938,6.59375 6.79688,9.29688 C6.40625,9.5 6.09375,9.59375 5.79688,9.59375 C4.90625,9.59375 4.70313,8.59375 4.70313,8.09375 C4.70313,8.09375 4.40625,2.09375 4.40625,-1.90625 C4.40625,-3.5 4.5,-4.70313 4.59375,-5.09375"/>
<polyline class="LedgerLine" fill="none" stroke="#000000" stroke-width="3.97" stroke-linejoin="bevel" points="207.937,305.134 273.317,305.134"/>
<polyline class="LedgerLine" fill="none" stroke="#000000" stroke-width="3.97" stroke-linejoin="bevel" points="966.944,305.134 1032.32,305.134"/>
<path class="Note" transform="matrix(0.992126,0,0,0.992126,217.858,317.536)" d="M0,-0.203125 C0,7.09375 6.20313,13.5938 22.4063,13.5938 C40.2031,13.5938 45.9063,7.40625 45.9063,-0.203125 C45.9063,-7.90625 33.6094,-13.7031 23.5,-13.7031 C9,-13.7031 0,-7.59375 0,-0.203125 M11.7031,-4.20313 C11.7031,-9.79688 15.5938,-11.2031 20.7031,-11.2031 C28.1094,-11.2031 34.1094,-3.20313 34.1094,3.40625 C34.1094,8.90625 30.7031,11.0938 25.7969,11.0938 C18.5938,11.0938 11.7031,2.79688 11.7031,-4.20313"/>
<path class="Note" transform="matrix(0.992126,0,0,0.992126,390.349,292.732)" d="M0,-0.203125 C0,7.09375 6.20313,13.5938 22.4063,13.5938 C40.2031,13.5938 45.9063,7.40625 45.9063,-0.203125 C45.9063,-7.90625 33.6094,-13.7031 23.5,-13.7031 C9,-13.7031 0,-7.59375 0,-0.203125 M11.7031,-4.20313 C11.7031,-9.79688 15.5938,-11.2031 20.7031,-11.2031 C28.1094,-11.2031 34.1094,-3.20313 34.1094,3.40625 C34.1094,8.90625 30.7031,11.0938 25.7969,11.0938 C18.5938,11.0938 11.7031,2.79688 11.7031,-4.20313"/>
<path class="Note" transform="matrix(0.992126,0,0,0.992126,562.839,267.929)" d="M0,-0.203125 C0,7.09375 6.20313,13.5938 22.4063,13.5938 C40.2031,13.5938 45.9063,7.40625 45.9063,-0.203125 C45.9063,-7.90625 33.6094,-13.7031 23.5,-13.7031 C9,-13.7031 0,-7.59375 0,-0.203125 M11.7031,-4.20313 C11.7031,-9.79688 15.5938,-11.2031 20.7031,-11.2031 C28.1094,-11.2031 34.1094,-3.20313 34.1094,3.40625 C34.1094,8.90625 30.7031,11.0938 25.7969,11.0938 C18.5938,11.0938 11.7031,2.79688 11.7031,-4.20313"/>
<path class="Note" transform="matrix(0.992126,0,0,0.992126,735.329,243.126)" d="M0,-0.203125 C0,7.09375 6.20313,13.5938 22.4063,13.5938 C40.2031,13.5938 45.9063,7.40625 45.9063,-0.203125 C45.9063,-7.90625 33.6094,-13.7031 23.5,-13.7031 C9,-13.7031 0,-7.59375 0,-0.203125 M11.7031,-4.20313 C11.7031,-9.79688 15.5938,-11.2031 20.7031,-11.2031 C28.1094,-11.2031 34.1094,-3.20313 34.1094,3.40625 C34.1094,8.90625 30.7031,11.0938 25.7969,11.0938 C18.5938,11.0938 11.7031,2.79688 11.7031,-4.20313"/>
<path class="Note" transform="matrix(0.992126,0,0,0.992126,976.865,317.536)" d="M0,-0.203125 C0,7.09375 6.20313,13.5938 22.4063,13.5938 C40.2031,13.5938 45.9063,7.40625 45.9063,-0.203125 C45.9063,-7.90625 33.6094,-13.7031 23.5,-13.7031 C9,-13.7031 0,-7.59375 0,-0.203125 M11.7031,-4.20313 C11.7031,-9.79688 15.5938,-11.2031 20.7031,-11.2031 C28.1094,-11.2031 34.1094,-3.20313 34.1094,3.40625 C34.1094,8.90625 30.7031,11.0938 25.7969,11.0938 C18.5938,11.0938 11.7031,2.79688 11.7031,-4.20313"/>
<path class="Note" transform="matrix(0.992126,0,0,0.992126,976.865,292.732)" d="M0,-0.203125 C0,7.09375 6.20313,13.5938 22.4063,13.5938 C40.2031,13.5938 45.9063,7.40625 45.9063,-0.203125 C45.9063,-7.90625 33.6094,-13.7031 23.5,-13.7031 C9,-13.7031 0,-7.59375 0,-0.203125 M11.7031,-4.20313 C11.7031,-9.79688 15.5938,-11.2031 20.7031,-11.2031 C28.1094,-11.2031 34.1094,-3.20313 34.1094,3.40625 C34.1094,8.90625 30.7031,11.0938 25.7969,11.0938 C18.5938,11.0938 11.7031,2.79688 11.7031,-4.20313"/>
<path class="Note" transform="matrix(0.992126,0,0,0.992126,976.865,267.929)" d="M0,-0.203125 C0,7.09375 6.20313,13.5938 22.4063,13.5938 C40.2031,13.5938 45.9063,7.40625 45.9063,-0.203125 C45.9063,-7.90625 33.6094,-13.7031 23.5,-13.7031 C9,-13.7031 0,-7.59375 0,-0.203125 M11.7031,-4.20313 C11.7031,-9.79688 15.5938,-11.2031 20.7031,-11.2031 C28.1094,-11.2031 34.1094,-3.20313 34.1094,3.40625 C34.1094,8.90625 30.7031,11.0938 25.7969,11.0938 C18.5938,11.0938 11.7031,2.79688 11.7031,-4.20313"/>
<path class="Note" transform="matrix(0.992126,0,0,0.992126,976.865,243.126)" d="M0,-0.203125 C0,7.09375 6.20313,13.5938 22.4063,13.5938 C40.2031,13.5938 45.9063,7.40625 45.9063,-0.203125 C45.9063,-7.90625 33.6094,-13.7031 23.5,-13.7031 C9,-13.7031 0,-7.59375 0,-0.203125 M11.7031,-4.20313 C11.7031,-9.79688 15.5938,-11.2031 20.7031,-11.2031 C28.1094,-11.2031 34.1094,-3.20313 34.1094,3.40625 C34.1094,8.90625 30.7031,11.0938 25.7969,11.0938 C18.5938,11.0938 11.7031,2.79688 11.7031,-4.20313"/>
<path class="Clef" transform="matrix(0.992126,0,0,0.992126,19.8425,255.528)" d="M36.4063,25.2031 C38.7031,25.2031 41.2969,25 43.2969,24.5938 C44.4063,24.4063 44.6094,24.2969 44.7969,25.5 C46,32.2031 47.5,40.9063 47.5,45.6094 C47.5,60.4063 37.5,62.2031 31.6094,62.2031 C26.2031,62.2031 23.5938,60.6094 23.5938,59.2969 C23.5938,58.6094 24.5,58.2969 26.7969,57.6094 C29.9063,56.7031 33.5,54 33.5,48.2031 C33.5,42.7031 30,38 23.9063,38 C17.2031,38 13.2031,43.2969 13.2031,49.5 C13.2031,56 17.0938,65.7969 32.2031,65.7969 C38.9063,65.7969 51.9063,62.7969 51.9063,45.7969 C51.9063,40.1094 50.1094,30.6094 49,24.4063 C48.7969,23.2031 48.9063,23.2969 50.2969,22.7031 C60.4063,18.7031 67.1094,10.2031 67.1094,-1.09375 C67.1094,-13.9063 57.7031,-25.2031 43,-25.2031 C40.4063,-25.2031 40.4063,-25.2031 40.1094,-27 L37.6094,-41.5 C37.4063,-42.7031 37.6094,-42.7969 38.2031,-43.4063 C49,-53.5 57.2031,-66.2031 57.2031,-81.5 C57.2031,-90.2031 54.7969,-98.8125 50.7031,-104.813 C49.2031,-107 46.6094,-109.813 45.5,-109.813 C44.1094,-109.813 41,-107.203 39,-105 C31.6094,-96.8125 29.2031,-84.3125 29.2031,-73.9063 C29.2031,-68.1094 29.9063,-61.6094 30.6094,-57.5 C30.7969,-56.2969 30.9063,-56.1094 29.7031,-55.1094 C15.2969,-43.2031 0,-28.9063 0,-8.70313 C0,8.70313 11.9063,25.2031 36.4063,25.2031 M8,-2 C8,-7.90625 9,-15.7969 17.2969,-25.2031 C23.2969,-31.9063 27.9063,-35.6094 32.6094,-39.4063 C33.6094,-40.2031 33.7969,-40.1094 34,-39 L36.1094,-26.2031 C36.4063,-24.2969 36.4063,-24.4063 34.6094,-23.7969 C25.7969,-20.7969 20.0938,-12.9063 20.0938,-4.40625 C20.0938,4.59375 24.7969,11 31.6094,13.2969 C32.4063,13.5938 33.6094,13.9063 34.2969,13.9063 C35.1094,13.9063 35.5,13.4063 35.5,12.7969 C35.5,12.0938 34.7031,11.7969 34,11.5 C29.7969,9.70313 26.7969,5.40625 26.7969,0.796875 C26.7969,-4.90625 30.7031,-9.20313 36.7969,-10.9063 C38.4063,-11.2969 38.6094,-11.2031 38.7969,-10.0938 L43.7969,19.7031 C44,20.7969 43.9063,20.7969 42.4063,21.0938 C40.7969,21.4063 38.7969,21.5938 36.7969,21.5938 C19.2969,21.5938 8,11.9063 8,-2 M47,-94.3125 C50.2969,-94.3125 53,-91.6094 53,-86.1094 C53,-75 43.5,-66 35.6094,-59.1094 C34.9063,-58.5 34.5,-58.6094 34.2969,-59.9063 C33.9063,-62.5 33.7031,-65.9063 33.7031,-69.1094 C33.7031,-84.7031 40.9063,-94.3125 47,-94.3125 M44.1094,-11.7031 C52.2031,-11 58.9063,-4.20313 58.9063,4.59375 C58.9063,10.9063 55.1094,16 49.5,18.7969 C48.2969,19.4063 48.1094,19.4063 47.9063,18.2031 L43,-10.2969 C42.7969,-11.5 42.9063,-11.7969 44.1094,-11.7031"/>
<path class="StaffText" d="M279.312,424.629 L279.312,399.864 L270.062,400.426 L270.062,402.567 L272.452,402.567 C274.359,402.614 274.609,402.926 274.609,405.067 L274.609,430.567 L274.609,432.973 C274.562,433.676 274.515,433.973 274.312,434.223 C273.952,434.676 273.015,434.879 270.859,434.926 L270.656,434.926 L270.656,436.723 L283.312,436.723 L283.312,434.926 L283.109,434.926 C279.765,434.817 279.312,434.567 279.312,432.77 L279.312,430.567 L279.312,427.723 L282.359,424.817 L288.312,433.176 C288.562,433.567 288.656,433.817 288.656,434.02 C288.656,434.723 288.109,434.926 286.452,434.926 L285.515,434.926 L285.515,436.723 L298.718,436.723 L298.718,434.926 C295.906,434.676 294.906,434.067 292.859,431.473 L285.765,421.77 L288.015,419.567 C290.952,416.723 293.062,415.629 296.468,415.223 L296.468,413.426 L283.312,413.426 L283.312,415.223 L284.859,415.223 C286.452,415.223 287.202,415.52 287.202,416.176 C287.202,416.723 286.859,417.317 286.062,418.129 L279.312,424.629 M310.562,399.864 L301.312,400.426 L301.312,402.567 L303.765,402.567 C305.609,402.614 305.859,402.926 305.859,405.067 L305.859,430.567 L305.859,432.926 C305.812,433.676 305.765,433.973 305.562,434.223 C305.202,434.676 304.265,434.879 302.109,434.926 L301.765,434.926 L301.765,436.723 L314.702,436.723 L314.702,434.926 L314.359,434.926 C311.015,434.817 310.562,434.567 310.562,432.77 L310.562,430.567 L310.562,399.864 M322.202,431.176 C320.452,431.176 319.062,432.567 319.062,434.27 C319.062,436.02 320.452,437.426 322.156,437.426 C323.906,437.426 325.312,436.02 325.312,434.27 C325.312,432.567 323.906,431.176 322.202,431.176 M360.656,418.317 C365.202,416.676 367.312,414.129 367.312,410.114 C367.312,404.864 363.312,401.52 357.109,401.52 C351.265,401.52 346.812,404.973 346.812,409.52 C346.812,411.567 348.156,413.02 350.109,413.02 C351.859,413.02 353.062,411.817 353.062,410.02 C353.062,408.926 352.656,408.27 351.515,407.473 C351.015,407.114 350.859,406.926 350.859,406.567 C350.859,405.176 353.765,403.676 356.609,403.676 C360.202,403.676 362.109,405.926 362.109,410.176 C362.109,414.817 360.202,417.27 356.656,417.27 C356.202,417.27 355.359,417.223 354.609,417.176 C354.202,417.129 353.812,417.129 353.515,417.129 C352.452,417.129 351.906,417.567 351.906,418.473 C351.906,419.317 352.406,419.723 353.515,419.723 C353.812,419.723 354.202,419.723 354.656,419.676 C355.656,419.629 356.452,419.629 357.015,419.629 C360.702,419.629 362.702,422.27 362.702,427.223 C362.702,432.426 360.202,435.317 355.702,435.317 C352.562,435.317 349.156,433.629 349.156,432.067 C349.156,431.629 349.265,431.52 350.202,430.973 C351.609,430.129 352.156,429.27 352.156,428.02 C352.156,426.223 350.812,424.879 349.015,424.879 C346.859,424.879 345.452,426.629 345.452,429.27 C345.452,434.129 349.906,437.473 356.312,437.473 C363.562,437.473 368.265,433.473 368.265,427.317 C368.265,422.629 365.859,419.77 360.656,418.317"/>
<path class="StaffText" d="M477.236,533.583 L471.533,520.38 C471.392,519.974 471.283,519.583 471.283,519.287 C471.283,518.427 471.939,518.13 473.986,518.13 L474.689,518.13 L474.689,516.333 L462.892,516.333 L462.892,518.13 L463.283,518.13 C465.189,518.13 465.892,518.63 466.58,520.287 L475.189,540.38 L476.939,540.38 L484.033,522.833 C485.439,519.427 486.642,518.287 488.689,518.13 L488.892,518.13 L488.892,516.333 L478.892,516.333 L478.892,518.13 L479.58,518.13 C481.33,518.13 482.283,518.724 482.283,519.88 C482.283,520.474 482.142,521.224 481.83,521.974 L477.236,533.583 M511.736,528.38 C511.783,520.88 507.533,515.583 501.439,515.583 C495.033,515.583 490.236,521.13 490.236,528.63 C490.236,535.677 494.783,540.38 501.533,540.38 C506.33,540.38 509.689,538.037 511.736,533.287 L509.986,532.333 C507.939,536.177 505.83,537.677 502.486,537.677 C499.939,537.677 498.08,536.63 496.783,534.38 C495.892,532.88 495.486,531.13 495.533,528.38 L511.736,528.38 M495.58,526.224 C495.58,524.677 495.783,523.583 496.283,522.177 C497.33,519.177 498.939,517.724 501.392,517.724 C504.392,517.724 506.392,520.38 506.392,524.427 C506.392,525.833 505.939,526.224 504.33,526.224 L495.58,526.224 M523.392,516.333 L514.533,516.88 L514.533,519.037 L516.58,519.037 C518.486,519.083 518.736,519.38 518.736,521.537 L518.736,533.474 L518.736,535.833 C518.689,536.583 518.642,536.88 518.439,537.13 C518.08,537.583 517.08,537.787 514.939,537.833 L514.736,537.833 L514.736,539.63 L528.08,539.63 L528.08,537.833 L527.189,537.833 C523.83,537.724 523.392,537.474 523.392,535.677 L523.392,533.474 L523.392,532.974 C523.439,524.583 526.439,518.177 530.33,517.974 C529.642,518.787 529.439,519.287 529.439,520.224 C529.439,521.833 530.58,522.974 532.189,522.974 C534.033,522.974 535.236,521.63 535.236,519.63 C535.236,517.177 533.533,515.583 530.892,515.583 C527.736,515.583 525.033,518.083 523.392,522.537 L523.392,516.333 M546.533,516.333 L537.642,516.88 L537.642,519.037 L539.689,519.037 C541.58,519.083 541.83,519.38 541.83,521.537 L541.83,533.474 L541.83,535.427 L541.83,535.833 C541.783,536.583 541.736,536.88 541.533,537.13 C541.189,537.583 540.236,537.787 538.08,537.833 L537.892,537.833 L537.892,539.63 L550.486,539.63 L550.486,537.833 L550.283,537.833 C546.986,537.724 546.533,537.474 546.533,535.63 L546.533,533.474 L546.533,526.38 C546.533,521.927 548.986,518.63 552.236,518.63 C555.08,518.63 556.533,520.677 556.533,524.724 L556.533,533.474 L556.533,535.88 C556.486,536.537 556.439,536.88 556.189,537.13 C555.892,537.583 554.892,537.787 552.736,537.833 L552.533,537.833 L552.533,539.63 L565.189,539.63 L565.189,537.833 L564.986,537.833 C561.689,537.724 561.236,537.474 561.236,535.677 L561.236,533.474 L561.236,526.833 C561.236,521.833 563.486,518.63 566.986,518.63 C569.846,518.63 571.236,520.787 571.236,525.287 L571.236,533.474 L571.236,535.833 C571.189,536.537 571.142,536.88 570.892,537.13 C570.596,537.583 569.596,537.787 567.439,537.833 L567.236,537.833 L567.236,539.63 L579.892,539.63 L579.892,537.833 L579.689,537.833 C576.392,537.724 575.939,537.474 575.939,535.63 L575.939,533.474 L575.939,524.287 C575.939,521.177 575.642,520.13 574.346,518.427 C572.892,516.583 570.846,515.583 568.439,515.583 C565.189,515.583 562.783,517.13 560.642,520.583 C559.783,517.583 557.08,515.583 553.736,515.583 C550.689,515.583 548.486,517.037 546.533,520.177 L546.533,516.333 M587.33,534.083 C585.58,534.083 584.189,535.474 584.189,537.177 C584.189,538.927 585.58,540.333 587.283,540.333 C589.033,540.333 590.439,538.927 590.439,537.177 C590.439,535.474 589.033,534.083 587.33,534.083 M611.439,516.537 L613.642,516.88 L614.533,512.927 C615.283,509.63 615.642,509.13 617.08,509.13 C617.33,509.13 617.736,509.13 618.189,509.177 C624.33,509.474 624.33,509.474 626.642,509.474 C627.283,509.474 628.439,509.474 629.83,509.427 L626.439,516.287 C622.736,523.63 622.283,524.537 621.033,527.63 C619.486,531.38 618.689,534.537 618.689,536.63 C618.689,538.927 619.892,540.333 621.83,540.333 C624.236,540.333 625.189,538.724 625.142,534.38 C624.892,527.177 625.783,523.677 631.142,511.974 C631.892,510.38 632.642,508.833 633.392,507.271 C633.439,507.177 633.58,506.724 633.892,506.083 L633.892,504.63 C630.892,504.88 629.283,504.974 626.189,504.974 C621.83,504.974 618.392,504.833 612.986,504.427 L611.439,516.537 "/>
<path class="StaffText" d="M451.802,424.629 L451.802,399.864 L442.552,400.426 L442.552,402.567 L444.943,402.567 C446.849,402.614 447.099,402.926 447.099,405.067 L447.099,430.567 L447.099,432.973 C447.052,433.676 447.005,433.973 446.802,434.223 C446.443,434.676 445.505,434.879 443.349,434.926 L443.146,434.926 L443.146,436.723 L455.802,436.723 L455.802,434.926 L455.599,434.926 C452.255,434.817 451.802,434.567 451.802,432.77 L451.802,430.567 L451.802,427.723 L454.849,424.817 L460.802,433.176 C461.052,433.567 461.146,433.817 461.146,434.02 C461.146,434.723 460.599,434.926 458.943,434.926 L458.005,434.926 L458.005,436.723 L471.208,436.723 L471.208,434.926 C468.396,434.676 467.396,434.067 465.349,431.473 L458.255,421.77 L460.505,419.567 C463.443,416.723 465.552,415.629 468.958,415.223 L468.958,413.426 L455.802,413.426 L455.802,415.223 L457.349,415.223 C458.943,415.223 459.693,415.52 459.693,416.176 C459.693,416.723 459.349,417.317 458.552,418.129 L451.802,424.629 M483.052,399.864 L473.802,400.426 L473.802,402.567 L476.255,402.567 C478.099,402.614 478.349,402.926 478.349,405.067 L478.349,430.567 L478.349,432.926 C478.302,433.676 478.255,433.973 478.052,434.223 C477.693,434.676 476.755,434.879 474.599,434.926 L474.255,434.926 L474.255,436.723 L487.193,436.723 L487.193,434.926 L486.849,434.926 C483.505,434.817 483.052,434.567 483.052,432.77 L483.052,430.567 L483.052,399.864 M494.693,431.176 C492.943,431.176 491.552,432.567 491.552,434.27 C491.552,436.02 492.943,437.426 494.646,437.426 C496.396,437.426 497.802,436.02 497.802,434.27 C497.802,432.567 496.396,431.176 494.693,431.176 M533.146,418.317 C537.693,416.676 539.802,414.129 539.802,410.114 C539.802,404.864 535.802,401.52 529.599,401.52 C523.755,401.52 519.302,404.973 519.302,409.52 C519.302,411.567 520.646,413.02 522.599,413.02 C524.349,413.02 525.552,411.817 525.552,410.02 C525.552,408.926 525.146,408.27 524.005,407.473 C523.505,407.114 523.349,406.926 523.349,406.567 C523.349,405.176 526.255,403.676 529.099,403.676 C532.693,403.676 534.599,405.926 534.599,410.176 C534.599,414.817 532.693,417.27 529.146,417.27 C528.693,417.27 527.849,417.223 527.099,417.176 C526.693,417.129 526.302,417.129 526.005,417.129 C524.943,417.129 524.396,417.567 524.396,418.473 C524.396,419.317 524.896,419.723 526.005,419.723 C526.302,419.723 526.693,419.723 527.146,419.676 C528.146,419.629 528.943,419.629 529.505,419.629 C533.193,419.629 535.193,422.27 535.193,427.223 C535.193,432.426 532.693,435.317 528.193,435.317 C525.052,435.317 521.646,433.629 521.646,432.067 C521.646,431.629 521.755,431.52 522.693,430.973 C524.099,430.129 524.646,429.27 524.646,428.02 C524.646,426.223 523.302,424.879 521.505,424.879 C519.349,424.879 517.943,426.629 517.943,429.27 C517.943,434.129 522.396,437.473 528.802,437.473 C536.052,437.473 540.755,433.473 540.755,427.317 C540.755,422.629 538.349,419.77 533.146,418.317"/>
<path class="StaffText" d="M624.292,424.629 L624.292,399.864 L615.042,400.426 L615.042,402.567 L617.433,402.567 C619.339,402.614 619.589,402.926 619.589,405.067 L619.589,430.567 L619.589,432.973 C619.542,433.676 619.495,433.973 619.292,434.223 C618.933,434.676 617.995,434.879 615.839,434.926 L615.636,434.926 L615.636,436.723 L628.292,436.723 L628.292,434.926 L628.089,434.926 C624.745,434.817 624.292,434.567 624.292,432.77 L624.292,430.567 L624.292,427.723 L627.339,424.817 L633.292,433.176 C633.542,433.567 633.636,433.817 633.636,434.02 C633.636,434.723 633.089,434.926 631.433,434.926 L630.495,434.926 L630.495,436.723 L643.699,436.723 L643.699,434.926 C640.886,434.676 639.886,434.067 637.839,431.473 L630.745,421.77 L632.995,419.567 C635.933,416.723 638.042,415.629 641.449,415.223 L641.449,413.426 L628.292,413.426 L628.292,415.223 L629.839,415.223 C631.433,415.223 632.183,415.52 632.183,416.176 C632.183,416.723 631.839,417.317 631.042,418.129 L624.292,424.629 M655.542,399.864 L646.292,400.426 L646.292,402.567 L648.745,402.567 C650.589,402.614 650.839,402.926 650.839,405.067 L650.839,430.567 L650.839,432.926 C650.792,433.676 650.745,433.973 650.542,434.223 C650.183,434.676 649.245,434.879 647.089,434.926 L646.745,434.926 L646.745,436.723 L659.683,436.723 L659.683,434.926 L659.339,434.926 C655.995,434.817 655.542,434.567 655.542,432.77 L655.542,430.567 L655.542,399.864 M667.183,431.176 C665.433,431.176 664.042,432.567 664.042,434.27 C664.042,436.02 665.433,437.426 667.136,437.426 C668.886,437.426 670.292,436.02 670.292,434.27 C670.292,432.567 668.886,431.176 667.183,431.176 M705.636,418.317 C710.183,416.676 712.292,414.129 712.292,410.114 C712.292,404.864 708.292,401.52 702.089,401.52 C696.245,401.52 691.792,404.973 691.792,409.52 C691.792,411.567 693.136,413.02 695.089,413.02 C696.839,413.02 698.042,411.817 698.042,410.02 C698.042,408.926 697.636,408.27 696.495,407.473 C695.995,407.114 695.839,406.926 695.839,406.567 C695.839,405.176 698.745,403.676 701.589,403.676 C705.183,403.676 707.089,405.926 707.089,410.176 C707.089,414.817 705.183,417.27 701.636,417.27 C701.183,417.27 700.339,417.223 699.589,417.176 C699.183,417.129 698.792,417.129 698.495,417.129 C697.433,417.129 696.886,417.567 696.886,418.473 C696.886,419.317 697.386,419.723 698.495,419.723 C698.792,419.723 699.183,419.723 699.636,419.676 C700.636,419.629 701.433,419.629 701.995,419.629 C705.683,419.629 707.683,422.27 707.683,427.223 C707.683,432.426 705.183,435.317 700.683,435.317 C697.542,435.317 694.136,433.629 694.136,432.067 C694.136,431.629 694.245,431.52 695.183,430.973 C696.589,430.129 697.136,429.27 697.136,428.02 C697.136,426.223 695.792,424.879 693.995,424.879 C691.839,424.879 690.433,426.629 690.433,429.27 C690.433,434.129 694.886,437.473 701.292,437.473 C708.542,437.473 713.245,433.473 713.245,427.317 C713.245,422.629 710.839,419.77 705.636,418.317"/>
<path class="SystemText" d="M135.014,30.9531 L129.311,17.75 C129.17,17.3438 129.061,16.9531 129.061,16.6563 C129.061,15.7969 129.717,15.5 131.764,15.5 L132.467,15.5 L132.467,13.7031 L120.67,13.7031 L120.67,15.5 L121.061,15.5 C122.967,15.5 123.67,16 124.358,17.6563 L132.967,37.75 L134.717,37.75 L141.811,20.2031 C143.217,16.7969 144.42,15.6563 146.467,15.5 L146.67,15.5 L146.67,13.7031 L136.67,13.7031 L136.67,15.5 L137.358,15.5 C139.108,15.5 140.061,16.0938 140.061,17.25 C140.061,17.8438 139.92,18.5938 139.608,19.3438 L135.014,30.9531 M169.514,25.75 C169.561,18.25 165.311,12.9531 159.217,12.9531 C152.811,12.9531 148.014,18.5 148.014,26 C148.014,33.0469 152.561,37.75 159.311,37.75 C164.108,37.75 167.467,35.4063 169.514,30.6563 L167.764,29.7031 C165.717,33.5469 163.608,35.0469 160.264,35.0469 C157.717,35.0469 155.858,34 154.561,31.75 C153.67,30.25 153.264,28.5 153.311,25.75 L169.514,25.75 M153.358,23.5938 C153.358,22.0469 153.561,20.9531 154.061,19.5469 C155.108,16.5469 156.717,15.0938 159.17,15.0938 C162.17,15.0938 164.17,17.75 164.17,21.7969 C164.17,23.2031 163.717,23.5938 162.108,23.5938 L153.358,23.5938 M181.17,13.7031 L172.311,14.25 L172.311,16.4063 L174.358,16.4063 C176.264,16.4531 176.514,16.75 176.514,18.9063 L176.514,30.8438 L176.514,33.2031 C176.467,33.9531 176.42,34.25 176.217,34.5 C175.858,34.9531 174.858,35.1563 172.717,35.2031 L172.514,35.2031 L172.514,37 L185.858,37 L185.858,35.2031 L184.967,35.2031 C181.608,35.0938 181.17,34.8438 181.17,33.0469 L181.17,30.8438 L181.17,30.3438 C181.217,21.9531 184.217,15.5469 188.108,15.3438 C187.42,16.1563 187.217,16.6563 187.217,17.5938 C187.217,19.2031 188.358,20.3438 189.967,20.3438 C191.811,20.3438 193.014,19 193.014,17 C193.014,14.5469 191.311,12.9531 188.67,12.9531 C185.514,12.9531 182.811,15.4531 181.17,19.9063 L181.17,13.7031 M204.311,13.7031 L195.42,14.25 L195.42,16.4063 L197.467,16.4063 C199.358,16.4531 199.608,16.75 199.608,18.9063 L199.608,30.8438 L199.608,32.7969 L199.608,33.2031 C199.561,33.9531 199.514,34.25 199.311,34.5 C198.967,34.9531 198.014,35.1563 195.858,35.2031 L195.67,35.2031 L195.67,37 L208.264,37 L208.264,35.2031 L208.061,35.2031 C204.764,35.0938 204.311,34.8438 204.311,33 L204.311,30.8438 L204.311,23.75 C204.311,19.2969 206.764,16 210.014,16 C212.858,16 214.311,18.0469 214.311,22.0938 L214.311,30.8438 L214.311,33.25 C214.264,33.9063 214.217,34.25 213.967,34.5 C213.67,34.9531 212.67,35.1563 210.514,35.2031 L210.311,35.2031 L210.311,37 L222.967,37 L222.967,35.2031 L222.764,35.2031 C219.467,35.0938 219.014,34.8438 219.014,33.0469 L219.014,30.8438 L219.014,24.2031 C219.014,19.2031 221.264,16 224.764,16 C227.623,16 229.014,18.1563 229.014,22.6563 L229.014,30.8438 L229.014,33.2031 C228.967,33.9063 228.92,34.25 228.67,34.5 C228.373,34.9531 227.373,35.1563 225.217,35.2031 L225.014,35.2031 L225.014,37 L237.67,37 L237.67,35.2031 L237.467,35.2031 C234.17,35.0938 233.717,34.8438 233.717,33 L233.717,30.8438 L233.717,21.6563 C233.717,18.5469 233.42,17.5 232.123,15.7969 C230.67,13.9531 228.623,12.9531 226.217,12.9531 C222.967,12.9531 220.561,14.5 218.42,17.9531 C217.561,14.9531 214.858,12.9531 211.514,12.9531 C208.467,12.9531 206.264,14.4063 204.311,17.5469 L204.311,13.7031 M248.561,13.7031 L239.17,14.25 L239.17,16.4063 L241.717,16.4063 C243.608,16.4531 243.858,16.75 243.858,18.9063 L243.858,30.8438 L243.858,33.2031 C243.811,33.9531 243.764,34.25 243.561,34.5 C243.217,34.9531 242.264,35.1563 240.108,35.2031 L239.764,35.2031 L239.764,37 L252.717,37 L252.717,35.2031 L252.358,35.2031 C249.014,35.0938 248.561,34.8438 248.561,33.0469 L248.561,30.8438 L248.561,13.7031 M246.217,1.25 C244.608,1.25 243.311,2.54688 243.311,4.14063 C243.311,5.75 244.608,7.04688 246.17,7.04688 C247.811,7.04688 249.108,5.75 249.108,4.14063 C249.108,2.54688 247.811,1.25 246.217,1.25 M264.264,13.7031 L255.608,14.25 L255.608,16.4063 L257.42,16.4063 C259.311,16.4531 259.561,16.75 259.561,18.9063 L259.561,30.8438 L259.561,32.0469 L259.561,33.2031 C259.514,33.9531 259.467,34.25 259.264,34.5 C258.92,34.9531 257.967,35.1563 255.811,35.2031 L255.608,35.2031 L255.608,37 L268.264,37 L268.264,35.2031 L268.061,35.2031 C264.717,35.0938 264.264,34.8438 264.264,33.0469 L264.264,30.8438 L264.264,25.6563 C264.264,23.2031 264.608,20.9531 265.17,19.7969 C266.217,17.5469 268.467,16 270.608,16 C271.92,16 273.42,16.7031 274.17,17.75 C274.92,18.8438 275.264,20.3438 275.264,22.75 L275.264,30.8438 L275.264,33.2031 C275.217,33.9531 275.17,34.25 274.967,34.5 C274.608,34.9531 273.608,35.1563 271.467,35.2031 L271.264,35.2031 L271.264,37 L283.92,37 L283.92,35.2031 L283.717,35.2031 C280.42,35.0938 279.967,34.8438 279.967,33.0469 L279.967,30.8438 L279.967,23 C279.967,19.4063 279.811,18.5 278.92,16.7969 C277.67,14.4063 275.17,12.9531 272.17,12.9531 C268.92,12.9531 266.467,14.4531 264.264,17.75 L264.264,13.7031 M304.264,37.3438 L312.967,37 L312.967,34.8438 L312.061,34.8438 C309.217,34.7031 308.967,34.4063 308.967,31.2031 L308.967,0.140625 L299.17,0.703125 L299.17,2.84375 L302.108,2.84375 C304.014,2.89063 304.264,3.20313 304.264,5.34375 L304.264,16.6563 C302.42,14.0938 300.264,12.9531 297.358,12.9531 C291.717,12.9531 287.42,18.4063 287.42,25.5938 C287.42,32.7031 291.561,37.75 297.358,37.75 C300.514,37.75 302.67,36.4063 304.264,33.4063 L304.264,37.3438 M298.358,15.6563 C300.42,15.6563 302.358,17.1563 303.264,19.4531 C303.92,20.9531 304.217,23 304.217,25.4531 C304.217,31.2969 301.92,35.0469 298.311,35.0469 C294.764,35.0469 292.67,31.75 292.67,26.2031 C292.67,23.2031 292.967,20.9531 293.608,19.2969 C294.467,17.0469 296.311,15.6563 298.358,15.6563 M337.514,25.75 C337.561,18.25 333.311,12.9531 327.217,12.9531 C320.811,12.9531 316.014,18.5 316.014,26 C316.014,33.0469 320.561,37.75 327.311,37.75 C332.108,37.75 335.467,35.4063 337.514,30.6563 L335.764,29.7031 C333.717,33.5469 331.608,35.0469 328.264,35.0469 C325.717,35.0469 323.858,34 322.561,31.75 C321.67,30.25 321.264,28.5 321.311,25.75 L337.514,25.75 M321.358,23.5938 C321.358,22.0469 321.561,20.9531 322.061,19.5469 C323.108,16.5469 324.717,15.0938 327.17,15.0938 C330.17,15.0938 332.17,17.75 332.17,21.7969 C332.17,23.2031 331.717,23.5938 330.108,23.5938 L321.358,23.5938 M349.17,13.7031 L340.311,14.25 L340.311,16.4063 L342.358,16.4063 C344.264,16.4531 344.514,16.75 344.514,18.9063 L344.514,30.8438 L344.514,33.2031 C344.467,33.9531 344.42,34.25 344.217,34.5 C343.858,34.9531 342.858,35.1563 340.717,35.2031 L340.514,35.2031 L340.514,37 L353.858,37 L353.858,35.2031 L352.967,35.2031 C349.608,35.0938 349.17,34.8438 349.17,33.0469 L349.17,30.8438 L349.17,30.3438 C349.217,21.9531 352.217,15.5469 356.108,15.3438 C355.42,16.1563 355.217,16.6563 355.217,17.5938 C355.217,19.2031 356.358,20.3438 357.967,20.3438 C359.811,20.3438 361.014,19 361.014,17 C361.014,14.5469 359.311,12.9531 356.67,12.9531 C353.514,12.9531 350.811,15.4531 349.17,19.9063 L349.17,13.7031 M371.967,13.7031 L371.967,3.79688 L369.92,3.79688 C369.42,10.2969 367.217,13.5938 363.17,13.9063 L363.17,15.8438 L367.264,15.8438 L367.264,28.5938 C367.264,32.0938 367.358,33.3438 367.858,34.5 C368.67,36.5938 370.67,37.75 373.561,37.75 C378.061,37.75 380.967,34.3438 380.967,29.0469 C380.967,28.75 380.967,28.4063 380.92,27.9063 L378.811,27.9063 C378.67,32.4063 377.358,34.7031 374.92,34.7031 C373.764,34.7031 372.764,34.0938 372.42,33.25 C372.108,32.5469 371.967,31.2969 371.967,29.5 L371.967,15.8438 L379.311,15.8438 L379.311,13.7031 L371.967,13.7031 M384.358,23.0938 L384.358,27.25 L396.811,27.25 L396.811,23.0938 L384.358,23.0938 M412.014,30.9531 L406.311,17.75 C406.17,17.3438 406.061,16.9531 406.061,16.6563 C406.061,15.7969 406.717,15.5 408.764,15.5 L409.467,15.5 L409.467,13.7031 L397.67,13.7031 L397.67,15.5 L398.061,15.5 C399.967,15.5 400.67,16 401.358,17.6563 L409.967,37.75 L411.717,37.75 L418.811,20.2031 C420.217,16.7969 421.42,15.6563 423.467,15.5 L423.67,15.5 L423.67,13.7031 L413.67,13.7031 L413.67,15.5 L414.358,15.5 C416.108,15.5 417.061,16.0938 417.061,17.25 C417.061,17.8438 416.92,18.5938 416.608,19.3438 L412.014,30.9531 M446.514,25.75 C446.561,18.25 442.311,12.9531 436.217,12.9531 C429.811,12.9531 425.014,18.5 425.014,26 C425.014,33.0469 429.561,37.75 436.311,37.75 C441.108,37.75 444.467,35.4063 446.514,30.6563 L444.764,29.7031 C442.717,33.5469 440.608,35.0469 437.264,35.0469 C434.717,35.0469 432.858,34 431.561,31.75 C430.67,30.25 430.264,28.5 430.311,25.75 L446.514,25.75 M430.358,23.5938 C430.358,22.0469 430.561,20.9531 431.061,19.5469 C432.108,16.5469 433.717,15.0938 436.17,15.0938 C439.17,15.0938 441.17,17.75 441.17,21.7969 C441.17,23.2031 440.717,23.5938 439.108,23.5938 L430.358,23.5938 M458.17,13.7031 L449.311,14.25 L449.311,16.4063 L451.358,16.4063 C453.264,16.4531 453.514,16.75 453.514,18.9063 L453.514,30.8438 L453.514,33.2031 C453.467,33.9531 453.42,34.25 453.217,34.5 C452.858,34.9531 451.858,35.1563 449.717,35.2031 L449.514,35.2031 L449.514,37 L462.858,37 L462.858,35.2031 L461.967,35.2031 C458.608,35.0938 458.17,34.8438 458.17,33.0469 L458.17,30.8438 L458.17,30.3438 C458.217,21.9531 461.217,15.5469 465.108,15.3438 C464.42,16.1563 464.217,16.6563 464.217,17.5938 C464.217,19.2031 465.358,20.3438 466.967,20.3438 C468.811,20.3438 470.014,19 470.014,17 C470.014,14.5469 468.311,12.9531 465.67,12.9531 C462.514,12.9531 459.811,15.4531 458.17,19.9063 L458.17,13.7031 M481.311,13.7031 L472.42,14.25 L472.42,16.4063 L474.467,16.4063 C476.358,16.4531 476.608,16.75 476.608,18.9063 L476.608,30.8438 L476.608,32.7969 L476.608,33.2031 C476.561,33.9531 476.514,34.25 476.311,34.5 C475.967,34.9531 475.014,35.1563 472.858,35.2031 L472.67,35.2031 L472.67,37 L485.264,37 L485.264,35.2031 L485.061,35.2031 C481.764,35.0938 481.311,34.8438 481.311,33 L481.311,30.8438 L481.311,23.75 C481.311,19.2969 483.764,16 487.014,16 C489.858,16 491.311,18.0469 491.311,22.0938 L491.311,30.8438 L491.311,33.25 C491.264,33.9063 491.217,34.25 490.967,34.5 C490.67,34.9531 489.67,35.1563 487.514,35.2031 L487.311,35.2031 L487.311,37 L499.967,37 L499.967,35.2031 L499.764,35.2031 C496.467,35.0938 496.014,34.8438 496.014,33.0469 L496.014,30.8438 L496.014,24.2031 C496.014,19.2031 498.264,16 501.764,16 C504.623,16 506.014,18.1563 506.014,22.6563 L506.014,30.8438 L506.014,33.2031 C505.967,33.9063 505.92,34.25 505.67,34.5 C505.373,34.9531 504.373,35.1563 502.217,35.2031 L502.014,35.2031 L502.014,37 L514.67,37 L514.67,35.2031 L514.467,35.2031 C511.17,35.0938 510.717,34.8438 510.717,33 L510.717,30.8438 L510.717,21.6563 C510.717,18.5469 510.42,17.5 509.123,15.7969 C507.67,13.9531 505.623,12.9531 503.217,12.9531 C499.967,12.9531 497.561,14.5 495.42,17.9531 C494.561,14.9531 491.858,12.9531 488.514,12.9531 C485.467,12.9531 483.264,14.4063 481.311,17.5469 L481.311,13.7031 M525.561,13.7031 L516.17,14.25 L516.17,16.4063 L518.717,16.4063 C520.608,16.4531 520.858,16.75 520.858,18.9063 L520.858,30.8438 L520.858,33.2031 C520.811,33.9531 520.764,34.25 520.561,34.5 C520.217,34.9531 519.264,35.1563 517.108,35.2031 L516.764,35.2031 L516.764,37 L529.717,37 L529.717,35.2031 L529.358,35.2031 C526.014,35.0938 525.561,34.8438 525.561,33.0469 L525.561,30.8438 L525.561,13.7031 M523.217,1.25 C521.608,1.25 520.311,2.54688 520.311,4.14063 C520.311,5.75 521.608,7.04688 523.17,7.04688 C524.811,7.04688 526.108,5.75 526.108,4.14063 C526.108,2.54688 524.811,1.25 523.217,1.25 M541.264,13.7031 L532.608,14.25 L532.608,16.4063 L534.42,16.4063 C536.311,16.4531 536.561,16.75 536.561,18.9063 L536.561,30.8438 L536.561,32.0469 L536.561,33.2031 C536.514,33.9531 536.467,34.25 536.264,34.5 C535.92,34.9531 534.967,35.1563 532.811,35.2031 L532.608,35.2031 L532.608,37 L545.264,37 L545.264,35.2031 L545.061,35.2031 C541.717,35.0938 541.264,34.8438 541.264,33.0469 L541.264,30.8438 L541.264,25.6563 C541.264,23.2031 541.608,20.9531 542.17,19.7969 C543.217,17.5469 545.467,16 547.608,16 C548.92,16 550.42,16.7031 551.17,17.75 C551.92,18.8438 552.264,20.3438 552.264,22.75 L552.264,30.8438 L552.264,33.2031 C552.217,33.9531 552.17,34.25 551.967,34.5 C551.608,34.9531 550.608,35.1563 548.467,35.2031 L548.264,35.2031 L548.264,37 L560.92,37 L560.92,35.2031 L560.717,35.2031 C557.42,35.0938 556.967,34.8438 556.967,33.0469 L556.967,30.8438 L556.967,23 C556.967,19.4063 556.811,18.5 555.92,16.7969 C554.67,14.4063 552.17,12.9531 549.17,12.9531 C545.92,12.9531 543.467,14.4531 541.264,17.75 L541.264,13.7031 M581.264,37.3438 L589.967,37 L589.967,34.8438 L589.061,34.8438 C586.217,34.7031 585.967,34.4063 585.967,31.2031 L585.967,0.140625 L576.17,0.703125 L576.17,2.84375 L579.108,2.84375 C581.014,2.89063 581.264,3.20313 581.264,5.34375 L581.264,16.6563 C579.42,14.0938 577.264,12.9531 574.358,12.9531 C568.717,12.9531 564.42,18.4063 564.42,25.5938 C564.42,32.7031 568.561,37.75 574.358,37.75 C577.514,37.75 579.67,36.4063 581.264,33.4063 L581.264,37.3438 M575.358,15.6563 C577.42,15.6563 579.358,17.1563 580.264,19.4531 C580.92,20.9531 581.217,23 581.217,25.4531 C581.217,31.2969 578.92,35.0469 575.311,35.0469 C571.764,35.0469 569.67,31.75 569.67,26.2031 C569.67,23.2031 569.967,20.9531 570.608,19.2969 C571.467,17.0469 573.311,15.6563 575.358,15.6563 M614.514,25.75 C614.561,18.25 610.311,12.9531 604.217,12.9531 C597.811,12.9531 593.014,18.5 593.014,26 C593.014,33.0469 597.561,37.75 604.311,37.75 C609.108,37.75 612.467,35.4063 614.514,30.6563 L612.764,29.7031 C610.717,33.5469 608.608,35.0469 605.264,35.0469 C602.717,35.0469 600.858,34 599.561,31.75 C598.67,30.25 598.264,28.5 598.311,25.75 L614.514,25.75 M598.358,23.5938 C598.358,22.0469 598.561,20.9531 599.061,19.5469 C600.108,16.5469 601.717,15.0938 604.17,15.0938 C607.17,15.0938 609.17,17.75 609.17,21.7969 C609.17,23.2031 608.717,23.5938 607.108,23.5938 L598.358,23.5938 M626.17,13.7031 L617.311,14.25 L617.311,16.4063 L619.358,16.4063 C621.264,16.4531 621.514,16.75 621.514,18.9063 L621.514,30.8438 L621.514,33.2031 C621.467,33.9531 621.42,34.25 621.217,34.5 C620.858,34.9531 619.858,35.1563 617.717,35.2031 L617.514,35.2031 L617.514,37 L630.858,37 L630.858,35.2031 L629.967,35.2031 C626.608,35.0938 626.17,34.8438 626.17,33.0469 L626.17,30.8438 L626.17,30.3438 C626.217,21.9531 629.217,15.5469 633.108,15.3438 C632.42,16.1563 632.217,16.6563 632.217,17.5938 C632.217,19.2031 633.358,20.3438 634.967,20.3438 C636.811,20.3438 638.014,19 638.014,17 C638.014,14.5469 636.311,12.9531 633.67,12.9531 C630.514,12.9531 627.811,15.4531 626.17,19.9063 L626.17,13.7031 M648.967,13.7031 L648.967,3.79688 L646.92,3.79688 C646.42,10.2969 644.217,13.5938 640.17,13.9063 L640.17,15.8438 L644.264,15.8438 L644.264,28.5938 C644.264,32.0938 644.358,33.3438 644.858,34.5 C645.67,36.5938 647.67,37.75 650.561,37.75 C655.061,37.75 657.967,34.3438 657.967,29.0469 C657.967,28.75 657.967,28.4063 657.92,27.9063 L655.811,27.9063 C655.67,32.4063 654.358,34.7031 651.92,34.7031 C650.764,34.7031 649.764,34.0938 649.42,33.25 C649.108,32.5469 648.967,31.2969 648.967,29.5 L648.967,15.8438 L656.311,15.8438 L656.311,13.7031 L648.967,13.7031 M681.514,25.75 C681.561,18.25 677.311,12.9531 671.217,12.9531 C664.811,12.9531 660.014,18.5 660.014,26 C660.014,33.0469 664.561,37.75 671.311,37.75 C676.108,37.75 679.467,35.4063 681.514,30.6563 L679.764,29.7031 C677.717,33.5469 675.608,35.0469 672.264,35.0469 C669.717,35.0469 667.858,34 666.561,31.75 C665.67,30.25 665.264,28.5 665.311,25.75 L681.514,25.75 M665.358,23.5938 C665.358,22.0469 665.561,20.9531 666.061,19.5469 C667.108,16.5469 668.717,15.0938 671.17,15.0938 C674.17,15.0938 676.17,17.75 676.17,21.7969 C676.17,23.2031 675.717,23.5938 674.108,23.5938 L665.358,23.5938 M693.17,13.7031 L684.311,14.25 L684.311,16.4063 L686.358,16.4063 C688.264,16.4531 688.514,16.75 688.514,18.9063 L688.514,30.8438 L688.514,33.2031 C688.467,33.9531 688.42,34.25 688.217,34.5 C687.858,34.9531 686.858,35.1563 684.717,35.2031 L684.514,35.2031 L684.514,37 L697.858,37 L697.858,35.2031 L696.967,35.2031 C693.608,35.0938 693.17,34.8438 693.17,33.0469 L693.17,30.8438 L693.17,30.3438 C693.217,21.9531 696.217,15.5469 700.108,15.3438 C699.42,16.1563 699.217,16.6563 699.217,17.5938 C699.217,19.2031 700.358,20.3438 701.967,20.3438 C703.811,20.3438 705.014,19 705.014,17 C705.014,14.5469 703.311,12.9531 700.67,12.9531 C697.514,12.9531 694.811,15.4531 693.17,19.9063 L693.17,13.7031 M746.561,0.59375 L744.717,0.59375 L742.717,3.59375 C740.311,1.34375 737.17,0.140625 733.608,0.140625 C727.014,0.140625 722.67,4.29688 722.67,10.5938 C722.67,16.0469 725.358,18.75 732.717,20.6563 L737.467,21.8438 C741.17,22.7969 741.514,22.9063 742.561,23.7031 C744.061,24.8438 744.873,26.5 744.873,28.4531 C744.873,30.4531 744.108,32.0938 742.608,33.5 C740.967,34.9063 739.311,35.4531 736.561,35.4531 C732.858,35.4531 730.217,34.2969 727.858,31.7031 C725.764,29.4063 724.717,27 723.967,23.1563 L721.811,23.1563 L722.014,37.4063 L723.967,37.4063 L726.217,34 C729.561,36.75 732.311,37.75 736.717,37.75 C744.061,37.75 748.764,33.4531 748.764,26.75 C748.764,23.5938 747.764,21 745.764,19.0938 C744.42,17.7969 742.467,16.9531 738.467,15.9531 L733.108,14.5938 C728.67,13.4531 726.561,11.5 726.561,8.45313 C726.561,4.95313 729.42,2.54688 733.67,2.54688 C737.17,2.54688 740.014,4.04688 742.014,6.89063 C743.467,8.95313 744.42,11.0469 745.014,13.5938 L747.17,13.5938 L746.561,0.59375 M774.514,25.75 C774.561,18.25 770.311,12.9531 764.217,12.9531 C757.811,12.9531 753.014,18.5 753.014,26 C753.014,33.0469 757.561,37.75 764.311,37.75 C769.108,37.75 772.467,35.4063 774.514,30.6563 L772.764,29.7031 C770.717,33.5469 768.608,35.0469 765.264,35.0469 C762.717,35.0469 760.858,34 759.561,31.75 C758.67,30.25 758.264,28.5 758.311,25.75 L774.514,25.75 M758.358,23.5938 C758.358,22.0469 758.561,20.9531 759.061,19.5469 C760.108,16.5469 761.717,15.0938 764.17,15.0938 C767.17,15.0938 769.17,17.75 769.17,21.7969 C769.17,23.2031 768.717,23.5938 767.108,23.5938 L758.358,23.5938 M786.311,13.7031 L777.67,14.25 L777.67,16.4063 L779.467,16.4063 C781.358,16.4531 781.608,16.75 781.608,18.9063 L781.608,40.9531 L781.608,43.3438 C781.561,44.0469 781.514,44.3438 781.311,44.5938 C780.967,45.0469 780.014,45.25 777.858,45.2969 L777.67,45.2969 L777.67,47.0938 L790.67,47.0938 L790.67,45.2969 L790.108,45.2969 C786.764,45.2031 786.311,44.9531 786.311,43.1563 L786.311,40.9531 L786.311,33.7031 C787.967,36.5938 789.811,37.75 792.92,37.75 C795.967,37.75 798.467,36.4531 800.264,34 C802.014,31.5938 803.014,28.5 803.014,25.25 C803.014,22 802.014,18.9531 800.17,16.5469 C798.311,14.1563 796.014,12.9531 793.217,12.9531 C790.108,12.9531 788.061,14.25 786.311,17.25 L786.311,13.7031 M792.311,15.6563 C795.764,15.6563 797.764,19.0938 797.764,24.9531 C797.764,31.4063 795.764,35.0469 792.17,35.0469 C788.561,35.0469 786.264,31.3438 786.264,25.5938 C786.264,19.3438 788.514,15.6563 792.311,15.6563 M813.967,13.7031 L813.967,3.79688 L811.92,3.79688 C811.42,10.2969 809.217,13.5938 805.17,13.9063 L805.17,15.8438 L809.264,15.8438 L809.264,28.5938 C809.264,32.0938 809.358,33.3438 809.858,34.5 C810.67,36.5938 812.67,37.75 815.561,37.75 C820.061,37.75 822.967,34.3438 822.967,29.0469 C822.967,28.75 822.967,28.4063 822.92,27.9063 L820.811,27.9063 C820.67,32.4063 819.358,34.7031 816.92,34.7031 C815.764,34.7031 814.764,34.0938 814.42,33.25 C814.108,32.5469 813.967,31.2969 813.967,29.5 L813.967,15.8438 L821.311,15.8438 L821.311,13.7031 L813.967,13.7031 M845.858,20.9063 C845.858,17.75 845.311,16.1563 843.858,14.9531 C842.217,13.5938 839.764,12.9531 836.561,12.9531 C830.92,12.9531 826.811,15.5938 826.811,19.25 C826.811,21.0938 827.967,22.2969 829.717,22.2969 C831.311,22.2969 832.42,21.25 832.42,19.75 C832.42,19.0938 832.17,18.4063 831.67,17.7031 C831.358,17.3438 831.311,17.25 831.311,17 C831.311,16 833.311,15.0938 835.717,15.0938 C837.311,15.0938 839.061,15.5938 839.858,16.3438 C840.811,17.1563 841.17,18.3438 841.17,20.5938 L841.17,22.5469 C835.967,23.4531 834.311,23.8438 831.858,24.7969 C827.514,26.4063 825.467,28.7031 825.467,31.9063 C825.467,35.5 828.264,37.75 832.717,37.75 C836.17,37.75 839.264,36.3438 841.42,33.7969 C842.217,36.3438 843.467,37.3438 845.811,37.3438 C848.061,37.3438 850.42,35.9063 850.42,34.4531 C850.42,34.0938 850.217,33.8438 849.92,33.8438 C849.717,33.8438 849.514,33.9063 849.17,34.0469 C848.467,34.3438 848.17,34.4063 847.764,34.4063 C846.358,34.4063 845.858,33.5 845.858,30.9531 L845.858,20.9063 M841.17,27 C841.17,30 841.014,30.7031 840.17,32 C838.92,33.8438 836.67,35.0938 834.467,35.0938 C832.17,35.0938 830.514,33.4531 830.514,31.2031 C830.514,29.0938 831.561,27.5938 833.764,26.5469 C835.311,25.8438 837.264,25.3438 841.17,24.7031 L841.17,27 M861.217,24.9063 L861.217,0.140625 L851.967,0.703125 L851.967,2.84375 L854.358,2.84375 C856.264,2.89063 856.514,3.20313 856.514,5.34375 L856.514,30.8438 L856.514,33.25 C856.467,33.9531 856.42,34.25 856.217,34.5 C855.858,34.9531 854.92,35.1563 852.764,35.2031 L852.561,35.2031 L852.561,37 L865.217,37 L865.217,35.2031 L865.014,35.2031 C861.67,35.0938 861.217,34.8438 861.217,33.0469 L861.217,30.8438 L861.217,28 L864.264,25.0938 L870.217,33.4531 C870.467,33.8438 870.561,34.0938 870.561,34.2969 C870.561,35 870.014,35.2031 868.358,35.2031 L867.42,35.2031 L867.42,37 L880.623,37 L880.623,35.2031 C877.811,34.9531 876.811,34.3438 874.764,31.75 L867.67,22.0469 L869.92,19.8438 C872.858,17 874.967,15.9063 878.373,15.5 L878.373,13.7031 L865.217,13.7031 L865.217,15.5 L866.764,15.5 C868.358,15.5 869.108,15.7969 869.108,16.4531 C869.108,17 868.764,17.5938 867.967,18.4063 L861.217,24.9063 M892.217,24.9063 L892.217,0.140625 L882.967,0.703125 L882.967,2.84375 L885.358,2.84375 C887.264,2.89063 887.514,3.20313 887.514,5.34375 L887.514,30.8438 L887.514,33.25 C887.467,33.9531 887.42,34.25 887.217,34.5 C886.858,34.9531 885.92,35.1563 883.764,35.2031 L883.561,35.2031 L883.561,37 L896.217,37 L896.217,35.2031 L896.014,35.2031 C892.67,35.0938 892.217,34.8438 892.217,33.0469 L892.217,30.8438 L892.217,28 L895.264,25.0938 L901.217,33.4531 C901.467,33.8438 901.561,34.0938 901.561,34.2969 C901.561,35 901.014,35.2031 899.358,35.2031 L898.42,35.2031 L898.42,37 L911.623,37 L911.623,35.2031 C908.811,34.9531 907.811,34.3438 905.764,31.75 L898.67,22.0469 L900.92,19.8438 C903.858,17 905.967,15.9063 909.373,15.5 L909.373,13.7031 L896.217,13.7031 L896.217,15.5 L897.764,15.5 C899.358,15.5 900.108,15.7969 900.108,16.4531 C900.108,17 899.764,17.5938 898.967,18.4063 L892.217,24.9063 M923.858,12.9531 C917.717,12.9531 912.967,18.4063 912.967,25.4063 C912.967,32.25 917.764,37.75 923.764,37.75 C929.764,37.75 934.561,32.25 934.561,25.3438 C934.561,18.5 929.764,12.9531 923.858,12.9531 M923.858,15.0938 C927.358,15.0938 929.311,18.75 929.311,25.3438 C929.311,32 927.358,35.5938 923.764,35.5938 C920.17,35.5938 918.217,32 918.217,25.4063 C918.217,18.5938 920.108,15.0938 923.858,15.0938 M946.17,13.7031 L937.311,14.25 L937.311,16.4063 L939.358,16.4063 C941.264,16.4531 941.514,16.75 941.514,18.9063 L941.514,30.8438 L941.514,33.2031 C941.467,33.9531 941.42,34.25 941.217,34.5 C940.858,34.9531 939.858,35.1563 937.717,35.2031 L937.514,35.2031 L937.514,37 L950.858,37 L950.858,35.2031 L949.967,35.2031 C946.608,35.0938 946.17,34.8438 946.17,33.0469 L946.17,30.8438 L946.17,30.3438 C946.217,21.9531 949.217,15.5469 953.108,15.3438 C952.42,16.1563 952.217,16.6563 952.217,17.5938 C952.217,19.2031 953.358,20.3438 954.967,20.3438 C956.811,20.3438 958.014,19 958.014,17 C958.014,14.5469 956.311,12.9531 953.67,12.9531 C950.514,12.9531 947.811,15.4531 946.17,19.9063 L946.17,13.7031 M977.264,37.3438 L985.967,37 L985.967,34.8438 L985.061,34.8438 C982.217,34.7031 981.967,34.4063 981.967,31.2031 L981.967,0.140625 L972.17,0.703125 L972.17,2.84375 L975.108,2.84375 C977.014,2.89063 977.264,3.20313 977.264,5.34375 L977.264,16.6563 C975.42,14.0938 973.264,12.9531 970.358,12.9531 C964.717,12.9531 960.42,18.4063 960.42,25.5938 C960.42,32.7031 964.561,37.75 970.358,37.75 C973.514,37.75 975.67,36.4063 977.264,33.4063 L977.264,37.3438 M971.358,15.6563 C973.42,15.6563 975.358,17.1563 976.264,19.4531 C976.92,20.9531 977.217,23 977.217,25.4531 C977.217,31.2969 974.92,35.0469 971.311,35.0469 C967.764,35.0469 965.67,31.75 965.67,26.2031 C965.67,23.2031 965.967,20.9531 966.608,19.2969 C967.467,17.0469 969.311,15.6563 971.358,15.6563"/>
<path class="SystemText" d="M336.217,60.2031 C333.17,62.0469 331.608,63.3438 329.92,65.3438 C326.108,69.8438 324.061,75.5938 324.061,81.6563 C324.061,87.3438 325.858,92.7031 329.217,97.1563 C331.108,99.5469 332.811,101.047 336.217,103.156 L336.217,101.297 C331.217,96.8438 329.217,91.2969 329.217,81.6563 C329.217,72 331.217,66.4531 336.217,62.0469 L336.217,60.2031 M371.764,60.5469 L369.873,60.5469 L367.92,63.5469 C364.67,61 362.467,60.1406 358.811,60.1406 C354.858,60.1406 351.764,61.25 348.608,63.7969 C343.67,67.7969 341.358,72.8438 341.358,79.5938 C341.358,84.7031 342.811,88.9531 345.764,92.2031 C348.858,95.7031 353.467,97.75 358.264,97.75 C362.467,97.75 365.42,96.4531 368.67,93.2031 L370.514,97.7031 L372.623,97.7031 L372.623,86.7031 C372.623,84.1563 372.623,84.0469 372.92,83.5938 C373.373,83.0469 374.264,82.9063 377.123,82.9063 L377.873,82.9063 L377.873,80.5469 L361.967,80.5469 L361.967,82.9063 L362.92,82.9063 C367.123,82.9063 367.467,83.1563 367.467,85.9531 C367.467,88.0938 367.123,90.0469 366.467,91.25 C365.217,93.7031 362.014,95.4063 358.764,95.4063 C355.514,95.4063 352.311,93.75 350.608,91.25 C348.764,88.4531 347.967,84.9531 347.967,79.5938 C347.967,68.4531 351.67,62.5 358.608,62.5 C364.311,62.5 368.264,66.5938 370.311,74.5938 L372.467,74.5938 L371.764,60.5469 M400.858,80.9063 C400.858,77.75 400.311,76.1563 398.858,74.9531 C397.217,73.5938 394.764,72.9531 391.561,72.9531 C385.92,72.9531 381.811,75.5938 381.811,79.25 C381.811,81.0938 382.967,82.2969 384.717,82.2969 C386.311,82.2969 387.42,81.25 387.42,79.75 C387.42,79.0938 387.17,78.4063 386.67,77.7031 C386.358,77.3438 386.311,77.25 386.311,77 C386.311,76 388.311,75.0938 390.717,75.0938 C392.311,75.0938 394.061,75.5938 394.858,76.3438 C395.811,77.1563 396.17,78.3438 396.17,80.5938 L396.17,82.5469 C390.967,83.4531 389.311,83.8438 386.858,84.7969 C382.514,86.4063 380.467,88.7031 380.467,91.9063 C380.467,95.5 383.264,97.75 387.717,97.75 C391.17,97.75 394.264,96.3438 396.42,93.7969 C397.217,96.3438 398.467,97.3438 400.811,97.3438 C403.061,97.3438 405.42,95.9063 405.42,94.4531 C405.42,94.0938 405.217,93.8438 404.92,93.8438 C404.717,93.8438 404.514,93.9063 404.17,94.0469 C403.467,94.3438 403.17,94.4063 402.764,94.4063 C401.358,94.4063 400.858,93.5 400.858,90.9531 L400.858,80.9063 M396.17,87 C396.17,90 396.014,90.7031 395.17,92 C393.92,93.8438 391.67,95.0938 389.467,95.0938 C387.17,95.0938 385.514,93.4531 385.514,91.2031 C385.514,89.0938 386.561,87.5938 388.764,86.5469 C390.311,85.8438 392.264,85.3438 396.17,84.7031 L396.17,87 M416.264,73.7031 L407.608,74.25 L407.608,76.4063 L409.42,76.4063 C411.311,76.4531 411.561,76.75 411.561,78.9063 L411.561,90.8438 L411.561,92.0469 L411.561,93.2031 C411.514,93.9531 411.467,94.25 411.264,94.5 C410.92,94.9531 409.967,95.1563 407.811,95.2031 L407.608,95.2031 L407.608,97 L420.264,97 L420.264,95.2031 L420.061,95.2031 C416.717,95.0938 416.264,94.8438 416.264,93.0469 L416.264,90.8438 L416.264,85.6563 C416.264,83.2031 416.608,80.9531 417.17,79.7969 C418.217,77.5469 420.467,76 422.608,76 C423.92,76 425.42,76.7031 426.17,77.75 C426.92,78.8438 427.264,80.3438 427.264,82.75 L427.264,90.8438 L427.264,93.2031 C427.217,93.9531 427.17,94.25 426.967,94.5 C426.608,94.9531 425.608,95.1563 423.467,95.2031 L423.264,95.2031 L423.264,97 L435.92,97 L435.92,95.2031 L435.717,95.2031 C432.42,95.0938 431.967,94.8438 431.967,93.0469 L431.967,90.8438 L431.967,83 C431.967,79.4063 431.811,78.5 430.92,76.7969 C429.67,74.4063 427.17,72.9531 424.17,72.9531 C420.92,72.9531 418.467,74.4531 416.264,77.75 L416.264,73.7031 M458.67,73.7031 L440.608,73.7031 L440.17,82.1563 L442.17,82.1563 C442.561,77.7031 444.514,75.7969 448.514,75.8438 L452.858,75.8438 L439.217,95.2031 L439.217,97 L458.67,97 L459.014,88.0469 L457.014,88.0469 C456.514,92.9531 454.561,94.9063 450.108,94.8438 L445.014,94.8438 L458.67,75.5 L458.67,73.7031 M476.014,90.9531 L470.311,77.75 C470.17,77.3438 470.061,76.9531 470.061,76.6563 C470.061,75.7969 470.717,75.5 472.764,75.5 L473.467,75.5 L473.467,73.7031 L461.67,73.7031 L461.67,75.5 L462.061,75.5 C463.967,75.5 464.67,76 465.358,77.6563 L473.967,97.75 L475.717,97.75 L482.811,80.2031 C484.217,76.7969 485.42,75.6563 487.467,75.5 L487.67,75.5 L487.67,73.7031 L477.67,73.7031 L477.67,75.5 L478.358,75.5 C480.108,75.5 481.061,76.0938 481.061,77.25 C481.061,77.8438 480.92,78.5938 480.608,79.3438 L476.014,90.9531 M510.514,85.75 C510.561,78.25 506.311,72.9531 500.217,72.9531 C493.811,72.9531 489.014,78.5 489.014,86 C489.014,93.0469 493.561,97.75 500.311,97.75 C505.108,97.75 508.467,95.4063 510.514,90.6563 L508.764,89.7031 C506.717,93.5469 504.608,95.0469 501.264,95.0469 C498.717,95.0469 496.858,94 495.561,91.75 C494.67,90.25 494.264,88.5 494.311,85.75 L510.514,85.75 M494.358,83.5938 C494.358,82.0469 494.561,80.9531 495.061,79.5469 C496.108,76.5469 497.717,75.0938 500.17,75.0938 C503.17,75.0938 505.17,77.75 505.17,81.7969 C505.17,83.2031 504.717,83.5938 503.108,83.5938 L494.358,83.5938 M522.17,73.7031 L513.311,74.25 L513.311,76.4063 L515.358,76.4063 C517.264,76.4531 517.514,76.75 517.514,78.9063 L517.514,90.8438 L517.514,93.2031 C517.467,93.9531 517.42,94.25 517.217,94.5 C516.858,94.9531 515.858,95.1563 513.717,95.2031 L513.514,95.2031 L513.514,97 L526.858,97 L526.858,95.2031 L525.967,95.2031 C522.608,95.0938 522.17,94.8438 522.17,93.0469 L522.17,90.8438 L522.17,90.3438 C522.217,81.9531 525.217,75.5469 529.108,75.3438 C528.42,76.1563 528.217,76.6563 528.217,77.5938 C528.217,79.2031 529.358,80.3438 530.967,80.3438 C532.811,80.3438 534.014,79 534.014,77 C534.014,74.5469 532.311,72.9531 529.67,72.9531 C526.514,72.9531 523.811,75.4531 522.17,79.9063 L522.17,73.7031 M545.311,73.7031 L536.42,74.25 L536.42,76.4063 L538.467,76.4063 C540.358,76.4531 540.608,76.75 540.608,78.9063 L540.608,90.8438 L540.608,92.7969 L540.608,93.2031 C540.561,93.9531 540.514,94.25 540.311,94.5 C539.967,94.9531 539.014,95.1563 536.858,95.2031 L536.67,95.2031 L536.67,97 L549.264,97 L549.264,95.2031 L549.061,95.2031 C545.764,95.0938 545.311,94.8438 545.311,93 L545.311,90.8438 L545.311,83.75 C545.311,79.2969 547.764,76 551.014,76 C553.858,76 555.311,78.0469 555.311,82.0938 L555.311,90.8438 L555.311,93.25 C555.264,93.9063 555.217,94.25 554.967,94.5 C554.67,94.9531 553.67,95.1563 551.514,95.2031 L551.311,95.2031 L551.311,97 L563.967,97 L563.967,95.2031 L563.764,95.2031 C560.467,95.0938 560.014,94.8438 560.014,93.0469 L560.014,90.8438 L560.014,84.2031 C560.014,79.2031 562.264,76 565.764,76 C568.623,76 570.014,78.1563 570.014,82.6563 L570.014,90.8438 L570.014,93.2031 C569.967,93.9063 569.92,94.25 569.67,94.5 C569.373,94.9531 568.373,95.1563 566.217,95.2031 L566.014,95.2031 L566.014,97 L578.67,97 L578.67,95.2031 L578.467,95.2031 C575.17,95.0938 574.717,94.8438 574.717,93 L574.717,90.8438 L574.717,81.6563 C574.717,78.5469 574.42,77.5 573.123,75.7969 C571.67,73.9531 569.623,72.9531 567.217,72.9531 C563.967,72.9531 561.561,74.5 559.42,77.9531 C558.561,74.9531 555.858,72.9531 552.514,72.9531 C549.467,72.9531 547.264,74.4063 545.311,77.5469 L545.311,73.7031 M589.561,73.7031 L580.17,74.25 L580.17,76.4063 L582.717,76.4063 C584.608,76.4531 584.858,76.75 584.858,78.9063 L584.858,90.8438 L584.858,93.2031 C584.811,93.9531 584.764,94.25 584.561,94.5 C584.217,94.9531 583.264,95.1563 581.108,95.2031 L580.764,95.2031 L580.764,97 L593.717,97 L593.717,95.2031 L593.358,95.2031 C590.014,95.0938 589.561,94.8438 589.561,93.0469 L589.561,90.8438 L589.561,73.7031 M587.217,61.25 C585.608,61.25 584.311,62.5469 584.311,64.1406 C584.311,65.75 585.608,67.0469 587.17,67.0469 C588.811,67.0469 590.108,65.75 590.108,64.1406 C590.108,62.5469 588.811,61.25 587.217,61.25 M605.264,73.7031 L596.608,74.25 L596.608,76.4063 L598.42,76.4063 C600.311,76.4531 600.561,76.75 600.561,78.9063 L600.561,90.8438 L600.561,92.0469 L600.561,93.2031 C600.514,93.9531 600.467,94.25 600.264,94.5 C599.92,94.9531 598.967,95.1563 596.811,95.2031 L596.608,95.2031 L596.608,97 L609.264,97 L609.264,95.2031 L609.061,95.2031 C605.717,95.0938 605.264,94.8438 605.264,93.0469 L605.264,90.8438 L605.264,85.6563 C605.264,83.2031 605.608,80.9531 606.17,79.7969 C607.217,77.5469 609.467,76 611.608,76 C612.92,76 614.42,76.7031 615.17,77.75 C615.92,78.8438 616.264,80.3438 616.264,82.75 L616.264,90.8438 L616.264,93.2031 C616.217,93.9531 616.17,94.25 615.967,94.5 C615.608,94.9531 614.608,95.1563 612.467,95.2031 L612.264,95.2031 L612.264,97 L624.92,97 L624.92,95.2031 L624.717,95.2031 C621.42,95.0938 620.967,94.8438 620.967,93.0469 L620.967,90.8438 L620.967,83 C620.967,79.4063 620.811,78.5 619.92,76.7969 C618.67,74.4063 616.17,72.9531 613.17,72.9531 C609.92,72.9531 607.467,74.4531 605.264,77.75 L605.264,73.7031 M645.264,97.3438 L653.967,97 L653.967,94.8438 L653.061,94.8438 C650.217,94.7031 649.967,94.4063 649.967,91.2031 L649.967,60.1406 L640.17,60.7031 L640.17,62.8438 L643.108,62.8438 C645.014,62.8906 645.264,63.2031 645.264,65.3438 L645.264,76.6563 C643.42,74.0938 641.264,72.9531 638.358,72.9531 C632.717,72.9531 628.42,78.4063 628.42,85.5938 C628.42,92.7031 632.561,97.75 638.358,97.75 C641.514,97.75 643.67,96.4063 645.264,93.4063 L645.264,97.3438 M639.358,75.6563 C641.42,75.6563 643.358,77.1563 644.264,79.4531 C644.92,80.9531 645.217,83 645.217,85.4531 C645.217,91.2969 642.92,95.0469 639.311,95.0469 C635.764,95.0469 633.67,91.75 633.67,86.2031 C633.67,83.2031 633.967,80.9531 634.608,79.2969 C635.467,77.0469 637.311,75.6563 639.358,75.6563 M678.514,85.75 C678.561,78.25 674.311,72.9531 668.217,72.9531 C661.811,72.9531 657.014,78.5 657.014,86 C657.014,93.0469 661.561,97.75 668.311,97.75 C673.108,97.75 676.467,95.4063 678.514,90.6563 L676.764,89.7031 C674.717,93.5469 672.608,95.0469 669.264,95.0469 C666.717,95.0469 664.858,94 663.561,91.75 C662.67,90.25 662.264,88.5 662.311,85.75 L678.514,85.75 M662.358,83.5938 C662.358,82.0469 662.561,80.9531 663.061,79.5469 C664.108,76.5469 665.717,75.0938 668.17,75.0938 C671.17,75.0938 673.17,77.75 673.17,81.7969 C673.17,83.2031 672.717,83.5938 671.108,83.5938 L662.358,83.5938 M690.17,73.7031 L681.311,74.25 L681.311,76.4063 L683.358,76.4063 C685.264,76.4531 685.514,76.75 685.514,78.9063 L685.514,90.8438 L685.514,93.2031 C685.467,93.9531 685.42,94.25 685.217,94.5 C684.858,94.9531 683.858,95.1563 681.717,95.2031 L681.514,95.2031 L681.514,97 L694.858,97 L694.858,95.2031 L693.967,95.2031 C690.608,95.0938 690.17,94.8438 690.17,93.0469 L690.17,90.8438 L690.17,90.3438 C690.217,81.9531 693.217,75.5469 697.108,75.3438 C696.42,76.1563 696.217,76.6563 696.217,77.5938 C696.217,79.2031 697.358,80.3438 698.967,80.3438 C700.811,80.3438 702.014,79 702.014,77 C702.014,74.5469 700.311,72.9531 697.67,72.9531 C694.514,72.9531 691.811,75.4531 690.17,79.9063 L690.17,73.7031 M712.967,73.7031 L712.967,63.7969 L710.92,63.7969 C710.42,70.2969 708.217,73.5938 704.17,73.9063 L704.17,75.8438 L708.264,75.8438 L708.264,88.5938 C708.264,92.0938 708.358,93.3438 708.858,94.5 C709.67,96.5938 711.67,97.75 714.561,97.75 C719.061,97.75 721.967,94.3438 721.967,89.0469 C721.967,88.75 721.967,88.4063 721.92,87.9063 L719.811,87.9063 C719.67,92.4063 718.358,94.7031 715.92,94.7031 C714.764,94.7031 713.764,94.0938 713.42,93.25 C713.108,92.5469 712.967,91.2969 712.967,89.5 L712.967,75.8438 L720.311,75.8438 L720.311,73.7031 L712.967,73.7031 M745.514,85.75 C745.561,78.25 741.311,72.9531 735.217,72.9531 C728.811,72.9531 724.014,78.5 724.014,86 C724.014,93.0469 728.561,97.75 735.311,97.75 C740.108,97.75 743.467,95.4063 745.514,90.6563 L743.764,89.7031 C741.717,93.5469 739.608,95.0469 736.264,95.0469 C733.717,95.0469 731.858,94 730.561,91.75 C729.67,90.25 729.264,88.5 729.311,85.75 L745.514,85.75 M729.358,83.5938 C729.358,82.0469 729.561,80.9531 730.061,79.5469 C731.108,76.5469 732.717,75.0938 735.17,75.0938 C738.17,75.0938 740.17,77.75 740.17,81.7969 C740.17,83.2031 739.717,83.5938 738.108,83.5938 L729.358,83.5938 M757.17,73.7031 L748.311,74.25 L748.311,76.4063 L750.358,76.4063 C752.264,76.4531 752.514,76.75 752.514,78.9063 L752.514,90.8438 L752.514,93.2031 C752.467,93.9531 752.42,94.25 752.217,94.5 C751.858,94.9531 750.858,95.1563 748.717,95.2031 L748.514,95.2031 L748.514,97 L761.858,97 L761.858,95.2031 L760.967,95.2031 C757.608,95.0938 757.17,94.8438 757.17,93.0469 L757.17,90.8438 L757.17,90.3438 C757.217,81.9531 760.217,75.5469 764.108,75.3438 C763.42,76.1563 763.217,76.6563 763.217,77.5938 C763.217,79.2031 764.358,80.3438 765.967,80.3438 C767.811,80.3438 769.014,79 769.014,77 C769.014,74.5469 767.311,72.9531 764.67,72.9531 C761.514,72.9531 758.811,75.4531 757.17,79.9063 L757.17,73.7031 M771.967,103.156 C775.014,101.297 776.561,100 778.264,97.9531 C782.061,93.5 784.108,87.75 784.108,81.6563 C784.108,75.9531 782.311,70.5938 778.967,66.2031 C777.061,63.75 775.358,62.2969 771.967,60.2031 L771.967,62.0469 C776.967,66.4531 778.967,72 778.967,81.6563 C778.967,91.2969 776.967,96.9063 771.967,101.297 L771.967,103.156 "/>
<polyline class="PedalSegment" fill="none" stroke="#000000" stroke-width="3.97" stroke-linecap="square" stroke-linejoin="bevel" points="230.756,350.276 230.756,380.039"/>
<polyline class="PedalSegment" fill="none" stroke="#000000" stroke-width="3.97" stroke-linecap="square" stroke-linejoin="bevel" points="230.756,380.039 384.428,380.039"/>
<polyline class="PedalSegment" fill="none" stroke="#000000" stroke-width="3.97" stroke-linecap="square" stroke-linejoin="bevel" points="384.428,380.039 384.428,350.276"/>
<polyline class="PedalSegment" fill="none" stroke="#000000" stroke-width="3.97" stroke-linecap="square" stroke-linejoin="bevel" points="230.756,448.992 230.756,478.756"/>
<polyline class="PedalSegment" fill="none" stroke="#000000" stroke-width="3.97" stroke-linecap="square" stroke-linejoin="bevel" points="230.756,478.756 751.989,478.756"/>
<polyline class="PedalSegment" fill="none" stroke="#000000" stroke-width="3.97" stroke-linecap="square" stroke-linejoin="bevel" points="751.989,478.756 751.989,448.992"/>
<polyline class="PedalSegment" fill="none" stroke="#000000" stroke-width="3.97" stroke-linecap="square" stroke-linejoin="bevel" points="403.246,349.78 403.246,379.543"/>
<polyline class="PedalSegment" fill="none" stroke="#000000" stroke-width="3.97" stroke-linecap="square" stroke-linejoin="bevel" points="403.246,379.543 552.765,379.543"/>
<polyline class="PedalSegment" fill="none" stroke="#000000" stroke-width="3.97" stroke-linecap="square" stroke-linejoin="bevel" points="552.765,379.543 552.765,349.78"/>
<polyline class="PedalSegment" fill="none" stroke="#000000" stroke-width="3.97" stroke-linecap="square" stroke-linejoin="bevel" points="585.41,349.78 585.41,379.543"/>
<polyline class="PedalSegment" fill="none" stroke="#000000" stroke-width="3.97" stroke-linecap="square" stroke-linejoin="bevel" points="585.41,379.543 748.698,379.543"/>
<polyline class="PedalSegment" fill="none" stroke="#000000" stroke-width="3.97" stroke-linecap="square" stroke-linejoin="bevel" points="748.698,379.543 748.698,349.78"/>
</svg>
