<?xml version="1.0" encoding="UTF-8" standalone="no"?>
<svg
   xmlns:dc="http://purl.org/dc/elements/1.1/"
   xmlns:cc="http://creativecommons.org/ns#"
   xmlns:rdf="http://www.w3.org/1999/02/22-rdf-syntax-ns#"
   xmlns:svg="http://www.w3.org/2000/svg"
   xmlns="http://www.w3.org/2000/svg"
   xmlns:sodipodi="http://sodipodi.sourceforge.net/DTD/sodipodi-0.dtd"
   xmlns:inkscape="http://www.inkscape.org/namespaces/inkscape"
   width="1133.86px"
   height="552.755px"
   viewBox="0 0 1133.86 552.755"
   version="1.2"
   id="svg48"
   sodipodi:docname="Septakkorde-o-2.svg"
   inkscape:version="0.92.3 (2405546, 2018-03-11)">
  <metadata
     id="metadata54">
    <rdf:RDF>
      <cc:Work
         rdf:about="">
        <dc:format>image/svg+xml</dc:format>
        <dc:type
           rdf:resource="http://purl.org/dc/dcmitype/StillImage" />
      </cc:Work>
    </rdf:RDF>
  </metadata>
  <defs
     id="defs52" />
  <sodipodi:namedview
     pagecolor="#ffffff"
     bordercolor="#666666"
     borderopacity="1"
     objecttolerance="10"
     gridtolerance="10"
     guidetolerance="10"
     inkscape:pageopacity="0"
     inkscape:pageshadow="2"
     inkscape:window-width="640"
     inkscape:window-height="480"
     id="namedview50"
     showgrid="false"
     inkscape:zoom="0.96219993"
     inkscape:cx="644.27301"
     inkscape:cy="195.38994"
     inkscape:current-layer="svg48" />
  <title
     id="title2">Septakkorde-o (2)</title>
  <desc
     id="desc4">Generated by MuseScore 3.6.2</desc>
  <rect
     style="opacity:1;fill:#ffffff;fill-opacity:1;stroke:#a5ceef;stroke-width:5;stroke-linejoin:round;stroke-miterlimit:4;stroke-dasharray:none;stroke-opacity:0.00457064"
     id="rect864"
     width="1184.7849"
     height="625.6496"
     x="-16.628561"
     y="-11.576775" />
  <polyline
     class="StaffLines"
     fill="none"
     stroke="#000000"
     stroke-width="3.22"
     stroke-linejoin="bevel"
     points="0,174.168 1133.86,174.168"
     id="polyline6" />
  <polyline
     class="StaffLines"
     fill="none"
     stroke="#000000"
     stroke-width="3.22"
     stroke-linejoin="bevel"
     points="0,198.971 1133.86,198.971"
     id="polyline8" />
  <polyline
     class="StaffLines"
     fill="none"
     stroke="#000000"
     stroke-width="3.22"
     stroke-linejoin="bevel"
     points="0,223.774 1133.86,223.774"
     id="polyline10" />
  <polyline
     class="StaffLines"
     fill="none"
     stroke="#000000"
     stroke-width="3.22"
     stroke-linejoin="bevel"
     points="0,248.578 1133.86,248.578"
     id="polyline12" />
  <polyline
     class="StaffLines"
     fill="none"
     stroke="#000000"
     stroke-width="3.22"
     stroke-linejoin="bevel"
     points="0,273.381 1133.86,273.381"
     id="polyline14" />
  <polyline
     class="BarLine"
     fill="none"
     stroke="#000000"
     stroke-width="3.97"
     stroke-linejoin="bevel"
     points="892.89,172.556 892.89,274.993"
     id="polyline16" />
  <polyline
     class="BarLine"
     fill="none"
     stroke="#000000"
     stroke-width="3.97"
     stroke-linejoin="bevel"
     points="906.78,172.556 906.78,274.993"
     id="polyline18" />
  <polyline
     class="BarLine"
     fill="none"
     stroke="#000000"
     stroke-width="3.97"
     stroke-linejoin="bevel"
     points="1131.88,172.556 1131.88,274.993"
     id="polyline20" />
  <polyline
     class="LedgerLine"
     fill="none"
     stroke="#000000"
     stroke-width="3.97"
     stroke-linejoin="bevel"
     points="148.416,298.184 213.795,298.184"
     id="polyline22" />
  <polyline
     class="LedgerLine"
     fill="none"
     stroke="#000000"
     stroke-width="3.97"
     stroke-linejoin="bevel"
     points="941.008,298.184 1006.39,298.184"
     id="polyline24" />
  <path
     class="Note"
     transform="matrix(0.992126,0,0,0.992126,158.337,298.184)"
     d="M0,-0.203125 C0,7.09375 6.20313,13.5938 22.4063,13.5938 C40.2031,13.5938 45.9063,7.40625 45.9063,-0.203125 C45.9063,-7.90625 33.6094,-13.7031 23.5,-13.7031 C9,-13.7031 0,-7.59375 0,-0.203125 M11.7031,-4.20313 C11.7031,-9.79688 15.5938,-11.2031 20.7031,-11.2031 C28.1094,-11.2031 34.1094,-3.20313 34.1094,3.40625 C34.1094,8.90625 30.7031,11.0938 25.7969,11.0938 C18.5938,11.0938 11.7031,2.79688 11.7031,-4.20313"
     id="path26" />
  <path
     class="Note"
     transform="matrix(0.992126,0,0,0.992126,339.867,273.381)"
     d="M0,-0.203125 C0,7.09375 6.20313,13.5938 22.4063,13.5938 C40.2031,13.5938 45.9063,7.40625 45.9063,-0.203125 C45.9063,-7.90625 33.6094,-13.7031 23.5,-13.7031 C9,-13.7031 0,-7.59375 0,-0.203125 M11.7031,-4.20313 C11.7031,-9.79688 15.5938,-11.2031 20.7031,-11.2031 C28.1094,-11.2031 34.1094,-3.20313 34.1094,3.40625 C34.1094,8.90625 30.7031,11.0938 25.7969,11.0938 C18.5938,11.0938 11.7031,2.79688 11.7031,-4.20313"
     id="path28" />
  <path
     class="Note"
     transform="matrix(0.992126,0,0,0.992126,521.397,248.578)"
     d="M0,-0.203125 C0,7.09375 6.20313,13.5938 22.4063,13.5938 C40.2031,13.5938 45.9063,7.40625 45.9063,-0.203125 C45.9063,-7.90625 33.6094,-13.7031 23.5,-13.7031 C9,-13.7031 0,-7.59375 0,-0.203125 M11.7031,-4.20313 C11.7031,-9.79688 15.5938,-11.2031 20.7031,-11.2031 C28.1094,-11.2031 34.1094,-3.20313 34.1094,3.40625 C34.1094,8.90625 30.7031,11.0938 25.7969,11.0938 C18.5938,11.0938 11.7031,2.79688 11.7031,-4.20313"
     id="path30" />
  <path
     class="Note"
     transform="matrix(0.992126,0,0,0.992126,702.927,223.774)"
     d="M0,-0.203125 C0,7.09375 6.20313,13.5938 22.4063,13.5938 C40.2031,13.5938 45.9063,7.40625 45.9063,-0.203125 C45.9063,-7.90625 33.6094,-13.7031 23.5,-13.7031 C9,-13.7031 0,-7.59375 0,-0.203125 M11.7031,-4.20313 C11.7031,-9.79688 15.5938,-11.2031 20.7031,-11.2031 C28.1094,-11.2031 34.1094,-3.20313 34.1094,3.40625 C34.1094,8.90625 30.7031,11.0938 25.7969,11.0938 C18.5938,11.0938 11.7031,2.79688 11.7031,-4.20313"
     id="path32" />
  <path
     class="Note"
     transform="matrix(0.992126,0,0,0.992126,950.93,298.184)"
     d="M0,-0.203125 C0,7.09375 6.20313,13.5938 22.4063,13.5938 C40.2031,13.5938 45.9063,7.40625 45.9063,-0.203125 C45.9063,-7.90625 33.6094,-13.7031 23.5,-13.7031 C9,-13.7031 0,-7.59375 0,-0.203125 M11.7031,-4.20313 C11.7031,-9.79688 15.5938,-11.2031 20.7031,-11.2031 C28.1094,-11.2031 34.1094,-3.20313 34.1094,3.40625 C34.1094,8.90625 30.7031,11.0938 25.7969,11.0938 C18.5938,11.0938 11.7031,2.79688 11.7031,-4.20313"
     id="path34" />
  <path
     class="Note"
     transform="matrix(0.992126,0,0,0.992126,950.93,273.381)"
     d="M0,-0.203125 C0,7.09375 6.20313,13.5938 22.4063,13.5938 C40.2031,13.5938 45.9063,7.40625 45.9063,-0.203125 C45.9063,-7.90625 33.6094,-13.7031 23.5,-13.7031 C9,-13.7031 0,-7.59375 0,-0.203125 M11.7031,-4.20313 C11.7031,-9.79688 15.5938,-11.2031 20.7031,-11.2031 C28.1094,-11.2031 34.1094,-3.20313 34.1094,3.40625 C34.1094,8.90625 30.7031,11.0938 25.7969,11.0938 C18.5938,11.0938 11.7031,2.79688 11.7031,-4.20313"
     id="path36" />
  <path
     class="Note"
     transform="matrix(0.992126,0,0,0.992126,950.93,248.578)"
     d="M0,-0.203125 C0,7.09375 6.20313,13.5938 22.4063,13.5938 C40.2031,13.5938 45.9063,7.40625 45.9063,-0.203125 C45.9063,-7.90625 33.6094,-13.7031 23.5,-13.7031 C9,-13.7031 0,-7.59375 0,-0.203125 M11.7031,-4.20313 C11.7031,-9.79688 15.5938,-11.2031 20.7031,-11.2031 C28.1094,-11.2031 34.1094,-3.20313 34.1094,3.40625 C34.1094,8.90625 30.7031,11.0938 25.7969,11.0938 C18.5938,11.0938 11.7031,2.79688 11.7031,-4.20313"
     id="path38" />
  <path
     class="Note"
     transform="matrix(0.992126,0,0,0.992126,950.93,223.774)"
     d="M0,-0.203125 C0,7.09375 6.20313,13.5938 22.4063,13.5938 C40.2031,13.5938 45.9063,7.40625 45.9063,-0.203125 C45.9063,-7.90625 33.6094,-13.7031 23.5,-13.7031 C9,-13.7031 0,-7.59375 0,-0.203125 M11.7031,-4.20313 C11.7031,-9.79688 15.5938,-11.2031 20.7031,-11.2031 C28.1094,-11.2031 34.1094,-3.20313 34.1094,3.40625 C34.1094,8.90625 30.7031,11.0938 25.7969,11.0938 C18.5938,11.0938 11.7031,2.79688 11.7031,-4.20313"
     id="path40" />
  <path
     class="Clef"
     transform="matrix(0.992126,0,0,0.992126,19.8425,248.578)"
     d="M36.4063,25.2031 C38.7031,25.2031 41.2969,25 43.2969,24.5938 C44.4063,24.4063 44.6094,24.2969 44.7969,25.5 C46,32.2031 47.5,40.9063 47.5,45.6094 C47.5,60.4063 37.5,62.2031 31.6094,62.2031 C26.2031,62.2031 23.5938,60.6094 23.5938,59.2969 C23.5938,58.6094 24.5,58.2969 26.7969,57.6094 C29.9063,56.7031 33.5,54 33.5,48.2031 C33.5,42.7031 30,38 23.9063,38 C17.2031,38 13.2031,43.2969 13.2031,49.5 C13.2031,56 17.0938,65.7969 32.2031,65.7969 C38.9063,65.7969 51.9063,62.7969 51.9063,45.7969 C51.9063,40.1094 50.1094,30.6094 49,24.4063 C48.7969,23.2031 48.9063,23.2969 50.2969,22.7031 C60.4063,18.7031 67.1094,10.2031 67.1094,-1.09375 C67.1094,-13.9063 57.7031,-25.2031 43,-25.2031 C40.4063,-25.2031 40.4063,-25.2031 40.1094,-27 L37.6094,-41.5 C37.4063,-42.7031 37.6094,-42.7969 38.2031,-43.4063 C49,-53.5 57.2031,-66.2031 57.2031,-81.5 C57.2031,-90.2031 54.7969,-98.8125 50.7031,-104.813 C49.2031,-107 46.6094,-109.813 45.5,-109.813 C44.1094,-109.813 41,-107.203 39,-105 C31.6094,-96.8125 29.2031,-84.3125 29.2031,-73.9063 C29.2031,-68.1094 29.9063,-61.6094 30.6094,-57.5 C30.7969,-56.2969 30.9063,-56.1094 29.7031,-55.1094 C15.2969,-43.2031 0,-28.9063 0,-8.70313 C0,8.70313 11.9063,25.2031 36.4063,25.2031 M8,-2 C8,-7.90625 9,-15.7969 17.2969,-25.2031 C23.2969,-31.9063 27.9063,-35.6094 32.6094,-39.4063 C33.6094,-40.2031 33.7969,-40.1094 34,-39 L36.1094,-26.2031 C36.4063,-24.2969 36.4063,-24.4063 34.6094,-23.7969 C25.7969,-20.7969 20.0938,-12.9063 20.0938,-4.40625 C20.0938,4.59375 24.7969,11 31.6094,13.2969 C32.4063,13.5938 33.6094,13.9063 34.2969,13.9063 C35.1094,13.9063 35.5,13.4063 35.5,12.7969 C35.5,12.0938 34.7031,11.7969 34,11.5 C29.7969,9.70313 26.7969,5.40625 26.7969,0.796875 C26.7969,-4.90625 30.7031,-9.20313 36.7969,-10.9063 C38.4063,-11.2969 38.6094,-11.2031 38.7969,-10.0938 L43.7969,19.7031 C44,20.7969 43.9063,20.7969 42.4063,21.0938 C40.7969,21.4063 38.7969,21.5938 36.7969,21.5938 C19.2969,21.5938 8,11.9063 8,-2 M47,-94.3125 C50.2969,-94.3125 53,-91.6094 53,-86.1094 C53,-75 43.5,-66 35.6094,-59.1094 C34.9063,-58.5 34.5,-58.6094 34.2969,-59.9063 C33.9063,-62.5 33.7031,-65.9063 33.7031,-69.1094 C33.7031,-84.7031 40.9063,-94.3125 47,-94.3125 M44.1094,-11.7031 C52.2031,-11 58.9063,-4.20313 58.9063,4.59375 C58.9063,10.9063 55.1094,16 49.5,18.7969 C48.2969,19.4063 48.1094,19.4063 47.9063,18.2031 L43,-10.2969 C42.7969,-11.5 42.9063,-11.7969 44.1094,-11.7031"
     id="path42" />
  <path
     class="SystemText"
     d="M214.349,33.2969 C211.599,33.25 211.458,33.2031 210.849,32.8438 C210.505,32.6563 210.255,32.0938 210.255,31.5469 C210.255,30.0469 211.599,29.4063 214.958,29.2969 C219.646,29.2031 220.396,29.0938 222.099,28.3438 C225.099,27 226.755,24.4063 226.755,21.0938 C226.755,19.0938 226.302,17.8438 224.958,16.2031 C225.802,15.2969 226.255,15 226.646,15 C226.896,15 227.052,15.1563 227.146,15.7031 C227.349,16.9063 228.146,17.5469 229.396,17.5469 C230.708,17.5469 231.661,16.5 231.661,15.1563 C231.661,13.4531 230.302,12.25 228.349,12.25 C226.755,12.25 225.849,12.75 223.552,14.8438 C221.458,13.4531 219.849,12.9531 217.349,12.9531 C211.396,12.9531 207.505,16.25 207.505,21.25 C207.505,24.2031 209.099,26.7031 211.708,27.9531 C208.349,28.7031 206.958,30.2031 206.958,32.9531 C206.958,35.1563 207.958,36.4531 210.302,37.25 C207.208,38.4063 205.708,39.9531 205.708,42 C205.708,43.5 206.708,44.9063 208.302,45.75 C210.255,46.75 212.646,47.1563 216.255,47.1563 C224.599,47.1563 228.755,44.5 228.755,39.25 C228.755,36.75 227.599,34.75 225.802,34 C224.458,33.5 222.849,33.2969 219.458,33.2969 L214.349,33.2969 M217.302,15.0938 C220.396,15.0938 222.146,17.25 222.146,21.1563 C222.146,25.0469 220.255,27.4063 217.099,27.4063 C214.005,27.4063 212.052,25.0469 212.052,21.2969 C212.052,17.3438 213.958,15.0938 217.302,15.0938 M216.849,37.5938 C221.005,37.5938 221.302,37.5938 222.005,37.7031 C224.052,37.9063 225.255,39 225.255,40.5938 C225.255,43.4531 222.005,45.0938 216.458,45.0938 C212.208,45.0938 209.849,43.8438 209.849,41.5938 C209.849,39.9531 210.755,38.8438 213.146,37.5938 L216.849,37.5938 M242.458,13.7031 L233.599,14.25 L233.599,16.4063 L235.646,16.4063 C237.552,16.4531 237.802,16.75 237.802,18.9063 L237.802,30.8438 L237.802,33.2031 C237.755,33.9531 237.708,34.25 237.505,34.5 C237.146,34.9531 236.146,35.1563 234.005,35.2031 L233.802,35.2031 L233.802,37 L247.146,37 L247.146,35.2031 L246.255,35.2031 C242.896,35.0938 242.458,34.8438 242.458,33.0469 L242.458,30.8438 L242.458,30.3438 C242.505,21.9531 245.505,15.5469 249.396,15.3438 C248.708,16.1563 248.505,16.6563 248.505,17.5938 C248.505,19.2031 249.646,20.3438 251.255,20.3438 C253.099,20.3438 254.302,19 254.302,17 C254.302,14.5469 252.599,12.9531 249.958,12.9531 C246.802,12.9531 244.099,15.4531 242.458,19.9063 L242.458,13.7031 M267.146,12.9531 C261.005,12.9531 256.255,18.4063 256.255,25.4063 C256.255,32.25 261.052,37.75 267.052,37.75 C273.052,37.75 277.849,32.25 277.849,25.3438 C277.849,18.5 273.052,12.9531 267.146,12.9531 M267.146,15.0938 C270.646,15.0938 272.599,18.75 272.599,25.3438 C272.599,32 270.646,35.5938 267.052,35.5938 C263.458,35.5938 261.505,32 261.505,25.4063 C261.505,18.5938 263.396,15.0938 267.146,15.0938 M284.958,30.8438 L284.958,33.2031 C284.896,33.9531 284.849,34.25 284.646,34.5 C284.302,34.9531 283.349,35.1563 281.208,35.2031 L281.005,35.2031 L281.005,37 L289.646,37 L289.646,9.14063 C289.646,4.75 291.552,2.25 294.802,2.25 C298.005,2.25 299.708,4.59375 299.708,9.04688 C299.708,13.4063 298.302,15.2031 294.849,15.2031 L294.349,15.2031 C293.505,15.2031 293.005,15.6563 293.005,16.2969 C293.005,17 293.349,17.25 294.396,17.3438 C296.052,17.4531 296.458,17.5 297.099,17.7969 C299.755,19 301.052,22.0469 301.052,27.25 C301.052,32.4063 299.755,35.8438 297.849,35.8438 C297.255,35.8438 296.896,35.5469 296.896,35.0469 C296.896,34.75 296.896,34.7031 297.255,34 C297.505,33.5938 297.599,33.2031 297.599,32.75 C297.599,31.25 296.458,30.0938 294.896,30.0938 C293.255,30.0938 292.146,31.2969 292.146,33.1563 C292.146,35.9531 294.458,37.75 298.099,37.75 C302.958,37.75 306.302,33.5 306.302,27.2969 C306.302,24.0469 305.161,20.8438 303.302,18.9063 C302.208,17.75 301.099,17.1563 299.099,16.4063 C302.896,14.4531 304.396,12.2969 304.396,8.84375 C304.396,3.54688 300.646,0.140625 294.896,0.140625 C291.458,0.140625 288.599,1.45313 286.896,3.75 C285.349,5.84375 284.958,7.64063 284.958,12.3438 L284.958,30.8438 M331.802,25.75 C331.849,18.25 327.599,12.9531 321.505,12.9531 C315.099,12.9531 310.302,18.5 310.302,26 C310.302,33.0469 314.849,37.75 321.599,37.75 C326.396,37.75 329.755,35.4063 331.802,30.6563 L330.052,29.7031 C328.005,33.5469 325.896,35.0469 322.552,35.0469 C320.005,35.0469 318.146,34 316.849,31.75 C315.958,30.25 315.552,28.5 315.599,25.75 L331.802,25.75 M315.646,23.5938 C315.646,22.0469 315.849,20.9531 316.349,19.5469 C317.396,16.5469 319.005,15.0938 321.458,15.0938 C324.458,15.0938 326.458,17.75 326.458,21.7969 C326.458,23.2031 326.005,23.5938 324.396,23.5938 L315.646,23.5938 M343.458,13.7031 L334.599,14.25 L334.599,16.4063 L336.646,16.4063 C338.552,16.4531 338.802,16.75 338.802,18.9063 L338.802,30.8438 L338.802,33.2031 C338.755,33.9531 338.708,34.25 338.505,34.5 C338.146,34.9531 337.146,35.1563 335.005,35.2031 L334.802,35.2031 L334.802,37 L348.146,37 L348.146,35.2031 L347.255,35.2031 C343.896,35.0938 343.458,34.8438 343.458,33.0469 L343.458,30.8438 L343.458,30.3438 C343.505,21.9531 346.505,15.5469 350.396,15.3438 C349.708,16.1563 349.505,16.6563 349.505,17.5938 C349.505,19.2031 350.646,20.3438 352.255,20.3438 C354.099,20.3438 355.302,19 355.302,17 C355.302,14.5469 353.599,12.9531 350.958,12.9531 C347.802,12.9531 345.099,15.4531 343.458,19.9063 L343.458,13.7031 M371.005,37 L387.802,37 C392.255,37 395.661,36.2969 398.302,34.7969 C403.349,31.9531 406.161,26.25 406.161,18.75 C406.161,11.8438 403.661,6.45313 399.052,3.45313 C396.302,1.70313 392.599,0.890625 386.896,0.890625 L371.005,0.890625 L371.005,3.25 L371.958,3.25 C374.755,3.29688 375.708,3.45313 376.099,3.95313 C376.396,4.39063 376.396,4.5 376.396,7.04688 L376.396,30.8438 C376.396,33.4063 376.396,33.5 376.099,33.9531 C375.708,34.4531 374.755,34.5938 371.958,34.6563 L371.005,34.6563 L371.005,37 M384.849,34.6563 C382.302,34.6563 382.005,34.3438 382.005,31.9063 L382.005,6.04688 C382.005,3.59375 382.349,3.25 384.849,3.25 L387.458,3.25 C396.005,3.25 399.552,7.89063 399.552,18.9531 C399.552,30.1563 396.349,34.6563 388.255,34.6563 L384.849,34.6563 M429.146,37.3438 L438.255,37 L438.255,34.8438 L437.005,34.8438 C434.099,34.75 433.849,34.4531 433.849,31.2031 L433.849,13.7031 L424.458,14.25 L424.458,16.4063 L427.005,16.4063 C428.896,16.4531 429.146,16.75 429.146,18.9063 L429.146,25.0469 C429.146,27.9063 428.849,29.5938 428.099,31.2031 C427.052,33.4531 425.052,34.7031 422.599,34.7031 C421.052,34.7031 419.755,34.1563 419.099,33.1563 C418.458,32.2031 418.349,31.7031 418.349,28.9531 L418.349,13.7031 L409.599,14.25 L409.599,16.4063 L411.505,16.4063 C413.396,16.4531 413.646,16.75 413.646,18.9063 L413.646,29.7031 C413.646,32.25 413.849,33.4063 414.599,34.5469 C415.958,36.5938 418.349,37.75 421.349,37.75 C424.646,37.75 426.958,36.4063 429.146,33.2031 L429.146,37.3438 M449.458,13.7031 L440.599,14.25 L440.599,16.4063 L442.646,16.4063 C444.552,16.4531 444.802,16.75 444.802,18.9063 L444.802,30.8438 L444.802,33.2031 C444.755,33.9531 444.708,34.25 444.505,34.5 C444.146,34.9531 443.146,35.1563 441.005,35.2031 L440.802,35.2031 L440.802,37 L454.146,37 L454.146,35.2031 L453.255,35.2031 C449.896,35.0938 449.458,34.8438 449.458,33.0469 L449.458,30.8438 L449.458,30.3438 C449.505,21.9531 452.505,15.5469 456.396,15.3438 C455.708,16.1563 455.505,16.6563 455.505,17.5938 C455.505,19.2031 456.646,20.3438 458.255,20.3438 C460.099,20.3438 461.302,19 461.302,17 C461.302,14.5469 459.599,12.9531 456.958,12.9531 C453.802,12.9531 451.099,15.4531 449.458,19.9063 L449.458,13.7031 M460.646,23.0938 L460.646,27.25 L473.099,27.25 L473.099,23.0938 L460.646,23.0938 M504.849,0.59375 L503.005,0.59375 L501.005,3.59375 C498.599,1.34375 495.458,0.140625 491.896,0.140625 C485.302,0.140625 480.958,4.29688 480.958,10.5938 C480.958,16.0469 483.646,18.75 491.005,20.6563 L495.755,21.8438 C499.458,22.7969 499.802,22.9063 500.849,23.7031 C502.349,24.8438 503.161,26.5 503.161,28.4531 C503.161,30.4531 502.396,32.0938 500.896,33.5 C499.255,34.9063 497.599,35.4531 494.849,35.4531 C491.146,35.4531 488.505,34.2969 486.146,31.7031 C484.052,29.4063 483.005,27 482.255,23.1563 L480.099,23.1563 L480.302,37.4063 L482.255,37.4063 L484.505,34 C487.849,36.75 490.599,37.75 495.005,37.75 C502.349,37.75 507.052,33.4531 507.052,26.75 C507.052,23.5938 506.052,21 504.052,19.0938 C502.708,17.7969 500.755,16.9531 496.755,15.9531 L491.396,14.5938 C486.958,13.4531 484.849,11.5 484.849,8.45313 C484.849,4.95313 487.708,2.54688 491.958,2.54688 C495.458,2.54688 498.302,4.04688 500.302,6.89063 C501.755,8.95313 502.708,11.0469 503.302,13.5938 L505.458,13.5938 L504.849,0.59375 M532.802,25.75 C532.849,18.25 528.599,12.9531 522.505,12.9531 C516.099,12.9531 511.302,18.5 511.302,26 C511.302,33.0469 515.849,37.75 522.599,37.75 C527.396,37.75 530.755,35.4063 532.802,30.6563 L531.052,29.7031 C529.005,33.5469 526.896,35.0469 523.552,35.0469 C521.005,35.0469 519.146,34 517.849,31.75 C516.958,30.25 516.552,28.5 516.599,25.75 L532.802,25.75 M516.646,23.5938 C516.646,22.0469 516.849,20.9531 517.349,19.5469 C518.396,16.5469 520.005,15.0938 522.458,15.0938 C525.458,15.0938 527.458,17.75 527.458,21.7969 C527.458,23.2031 527.005,23.5938 525.396,23.5938 L516.646,23.5938 M544.599,13.7031 L535.958,14.25 L535.958,16.4063 L537.755,16.4063 C539.646,16.4531 539.896,16.75 539.896,18.9063 L539.896,40.9531 L539.896,43.3438 C539.849,44.0469 539.802,44.3438 539.599,44.5938 C539.255,45.0469 538.302,45.25 536.146,45.2969 L535.958,45.2969 L535.958,47.0938 L548.958,47.0938 L548.958,45.2969 L548.396,45.2969 C545.052,45.2031 544.599,44.9531 544.599,43.1563 L544.599,40.9531 L544.599,33.7031 C546.255,36.5938 548.099,37.75 551.208,37.75 C554.255,37.75 556.755,36.4531 558.552,34 C560.302,31.5938 561.302,28.5 561.302,25.25 C561.302,22 560.302,18.9531 558.458,16.5469 C556.599,14.1563 554.302,12.9531 551.505,12.9531 C548.396,12.9531 546.349,14.25 544.599,17.25 L544.599,13.7031 M550.599,15.6563 C554.052,15.6563 556.052,19.0938 556.052,24.9531 C556.052,31.4063 554.052,35.0469 550.458,35.0469 C546.849,35.0469 544.552,31.3438 544.552,25.5938 C544.552,19.3438 546.802,15.6563 550.599,15.6563 M572.255,13.7031 L572.255,3.79688 L570.208,3.79688 C569.708,10.2969 567.505,13.5938 563.458,13.9063 L563.458,15.8438 L567.552,15.8438 L567.552,28.5938 C567.552,32.0938 567.646,33.3438 568.146,34.5 C568.958,36.5938 570.958,37.75 573.849,37.75 C578.349,37.75 581.255,34.3438 581.255,29.0469 C581.255,28.75 581.255,28.4063 581.208,27.9063 L579.099,27.9063 C578.958,32.4063 577.646,34.7031 575.208,34.7031 C574.052,34.7031 573.052,34.0938 572.708,33.25 C572.396,32.5469 572.255,31.2969 572.255,29.5 L572.255,15.8438 L579.599,15.8438 L579.599,13.7031 L572.255,13.7031 M604.146,20.9063 C604.146,17.75 603.599,16.1563 602.146,14.9531 C600.505,13.5938 598.052,12.9531 594.849,12.9531 C589.208,12.9531 585.099,15.5938 585.099,19.25 C585.099,21.0938 586.255,22.2969 588.005,22.2969 C589.599,22.2969 590.708,21.25 590.708,19.75 C590.708,19.0938 590.458,18.4063 589.958,17.7031 C589.646,17.3438 589.599,17.25 589.599,17 C589.599,16 591.599,15.0938 594.005,15.0938 C595.599,15.0938 597.349,15.5938 598.146,16.3438 C599.099,17.1563 599.458,18.3438 599.458,20.5938 L599.458,22.5469 C594.255,23.4531 592.599,23.8438 590.146,24.7969 C585.802,26.4063 583.755,28.7031 583.755,31.9063 C583.755,35.5 586.552,37.75 591.005,37.75 C594.458,37.75 597.552,36.3438 599.708,33.7969 C600.505,36.3438 601.755,37.3438 604.099,37.3438 C606.349,37.3438 608.708,35.9063 608.708,34.4531 C608.708,34.0938 608.505,33.8438 608.208,33.8438 C608.005,33.8438 607.802,33.9063 607.458,34.0469 C606.755,34.3438 606.458,34.4063 606.052,34.4063 C604.646,34.4063 604.146,33.5 604.146,30.9531 L604.146,20.9063 M599.458,27 C599.458,30 599.302,30.7031 598.458,32 C597.208,33.8438 594.958,35.0938 592.755,35.0938 C590.458,35.0938 588.802,33.4531 588.802,31.2031 C588.802,29.0938 589.849,27.5938 592.052,26.5469 C593.599,25.8438 595.552,25.3438 599.458,24.7031 L599.458,27 M619.505,24.9063 L619.505,0.140625 L610.255,0.703125 L610.255,2.84375 L612.646,2.84375 C614.552,2.89063 614.802,3.20313 614.802,5.34375 L614.802,30.8438 L614.802,33.25 C614.755,33.9531 614.708,34.25 614.505,34.5 C614.146,34.9531 613.208,35.1563 611.052,35.2031 L610.849,35.2031 L610.849,37 L623.505,37 L623.505,35.2031 L623.302,35.2031 C619.958,35.0938 619.505,34.8438 619.505,33.0469 L619.505,30.8438 L619.505,28 L622.552,25.0938 L628.505,33.4531 C628.755,33.8438 628.849,34.0938 628.849,34.2969 C628.849,35 628.302,35.2031 626.646,35.2031 L625.708,35.2031 L625.708,37 L638.911,37 L638.911,35.2031 C636.099,34.9531 635.099,34.3438 633.052,31.75 L625.958,22.0469 L628.208,19.8438 C631.146,17 633.255,15.9063 636.661,15.5 L636.661,13.7031 L623.505,13.7031 L623.505,15.5 L625.052,15.5 C626.646,15.5 627.396,15.7969 627.396,16.4531 C627.396,17 627.052,17.5938 626.255,18.4063 L619.505,24.9063 M650.505,24.9063 L650.505,0.140625 L641.255,0.703125 L641.255,2.84375 L643.646,2.84375 C645.552,2.89063 645.802,3.20313 645.802,5.34375 L645.802,30.8438 L645.802,33.25 C645.755,33.9531 645.708,34.25 645.505,34.5 C645.146,34.9531 644.208,35.1563 642.052,35.2031 L641.849,35.2031 L641.849,37 L654.505,37 L654.505,35.2031 L654.302,35.2031 C650.958,35.0938 650.505,34.8438 650.505,33.0469 L650.505,30.8438 L650.505,28 L653.552,25.0938 L659.505,33.4531 C659.755,33.8438 659.849,34.0938 659.849,34.2969 C659.849,35 659.302,35.2031 657.646,35.2031 L656.708,35.2031 L656.708,37 L669.911,37 L669.911,35.2031 C667.099,34.9531 666.099,34.3438 664.052,31.75 L656.958,22.0469 L659.208,19.8438 C662.146,17 664.255,15.9063 667.661,15.5 L667.661,13.7031 L654.505,13.7031 L654.505,15.5 L656.052,15.5 C657.646,15.5 658.396,15.7969 658.396,16.4531 C658.396,17 658.052,17.5938 657.255,18.4063 L650.505,24.9063 M682.146,12.9531 C676.005,12.9531 671.255,18.4063 671.255,25.4063 C671.255,32.25 676.052,37.75 682.052,37.75 C688.052,37.75 692.849,32.25 692.849,25.3438 C692.849,18.5 688.052,12.9531 682.146,12.9531 M682.146,15.0938 C685.646,15.0938 687.599,18.75 687.599,25.3438 C687.599,32 685.646,35.5938 682.052,35.5938 C678.458,35.5938 676.505,32 676.505,25.4063 C676.505,18.5938 678.396,15.0938 682.146,15.0938 M704.458,13.7031 L695.599,14.25 L695.599,16.4063 L697.646,16.4063 C699.552,16.4531 699.802,16.75 699.802,18.9063 L699.802,30.8438 L699.802,33.2031 C699.755,33.9531 699.708,34.25 699.505,34.5 C699.146,34.9531 698.146,35.1563 696.005,35.2031 L695.802,35.2031 L695.802,37 L709.146,37 L709.146,35.2031 L708.255,35.2031 C704.896,35.0938 704.458,34.8438 704.458,33.0469 L704.458,30.8438 L704.458,30.3438 C704.505,21.9531 707.505,15.5469 711.396,15.3438 C710.708,16.1563 710.505,16.6563 710.505,17.5938 C710.505,19.2031 711.646,20.3438 713.255,20.3438 C715.099,20.3438 716.302,19 716.302,17 C716.302,14.5469 714.599,12.9531 711.958,12.9531 C708.802,12.9531 706.099,15.4531 704.458,19.9063 L704.458,13.7031 M735.552,37.3438 L744.255,37 L744.255,34.8438 L743.349,34.8438 C740.505,34.7031 740.255,34.4063 740.255,31.2031 L740.255,0.140625 L730.458,0.703125 L730.458,2.84375 L733.396,2.84375 C735.302,2.89063 735.552,3.20313 735.552,5.34375 L735.552,16.6563 C733.708,14.0938 731.552,12.9531 728.646,12.9531 C723.005,12.9531 718.708,18.4063 718.708,25.5938 C718.708,32.7031 722.849,37.75 728.646,37.75 C731.802,37.75 733.958,36.4063 735.552,33.4063 L735.552,37.3438 M729.646,15.6563 C731.708,15.6563 733.646,17.1563 734.552,19.4531 C735.208,20.9531 735.505,23 735.505,25.4531 C735.505,31.2969 733.208,35.0469 729.599,35.0469 C726.052,35.0469 723.958,31.75 723.958,26.2031 C723.958,23.2031 724.255,20.9531 724.896,19.2969 C725.755,17.0469 727.599,15.6563 729.646,15.6563"
     id="path44" />
  <path
     class="SystemText"
     d="M332.005,60.2031 C328.958,62.0469 327.396,63.3438 325.708,65.3438 C321.896,69.8438 319.849,75.5938 319.849,81.6563 C319.849,87.3438 321.646,92.7031 325.005,97.1563 C326.896,99.5469 328.599,101.047 332.005,103.156 L332.005,101.297 C327.005,96.8438 325.005,91.2969 325.005,81.6563 C325.005,72 327.005,66.4531 332.005,62.0469 L332.005,60.2031 M349.396,60.8906 L336.505,60.8906 L336.505,63.25 L337.458,63.25 C340.302,63.2969 341.255,63.4531 341.599,63.9531 C341.958,64.3906 341.958,64.4531 341.958,67.0469 L341.958,86.2031 C341.958,93 341.005,94.4063 336.146,94.6563 L336.146,97 L350.396,97 L350.396,94.6563 C345.599,94.4063 344.646,93 344.646,86.2031 L344.646,64.0938 L356.552,97 L358.552,97 L369.708,64.0938 L369.708,90.8438 C369.708,93.4063 369.708,93.5 369.411,94 C369.005,94.5 368.052,94.6563 365.208,94.6563 L364.302,94.6563 L364.302,97 L380.708,97 L380.708,94.6563 L379.802,94.6563 C376.958,94.6563 376.005,94.5 375.599,94 C375.302,93.5 375.302,93.4531 375.302,90.8438 L375.302,67.0469 C375.302,64.5 375.302,64.3906 375.599,63.9531 C376.005,63.4531 376.958,63.2969 379.802,63.25 L380.708,63.25 L380.708,60.8906 L368.161,60.8906 L359.005,87.5469 L349.396,60.8906 M404.646,80.9063 C404.646,77.75 404.099,76.1563 402.646,74.9531 C401.005,73.5938 398.552,72.9531 395.349,72.9531 C389.708,72.9531 385.599,75.5938 385.599,79.25 C385.599,81.0938 386.755,82.2969 388.505,82.2969 C390.099,82.2969 391.208,81.25 391.208,79.75 C391.208,79.0938 390.958,78.4063 390.458,77.7031 C390.146,77.3438 390.099,77.25 390.099,77 C390.099,76 392.099,75.0938 394.505,75.0938 C396.099,75.0938 397.849,75.5938 398.646,76.3438 C399.599,77.1563 399.958,78.3438 399.958,80.5938 L399.958,82.5469 C394.755,83.4531 393.099,83.8438 390.646,84.7969 C386.302,86.4063 384.255,88.7031 384.255,91.9063 C384.255,95.5 387.052,97.75 391.505,97.75 C394.958,97.75 398.052,96.3438 400.208,93.7969 C401.005,96.3438 402.255,97.3438 404.599,97.3438 C406.849,97.3438 409.208,95.9063 409.208,94.4531 C409.208,94.0938 409.005,93.8438 408.708,93.8438 C408.505,93.8438 408.302,93.9063 407.958,94.0469 C407.255,94.3438 406.958,94.4063 406.552,94.4063 C405.146,94.4063 404.646,93.5 404.646,90.9531 L404.646,80.9063 M399.958,87 C399.958,90 399.802,90.7031 398.958,92 C397.708,93.8438 395.458,95.0938 393.255,95.0938 C390.958,95.0938 389.302,93.4531 389.302,91.2031 C389.302,89.0938 390.349,87.5938 392.552,86.5469 C394.099,85.8438 396.052,85.3438 399.958,84.7031 L399.958,87 M419.396,73.7031 L409.646,74.25 L409.646,76.4063 L412.552,76.4063 C414.458,76.4531 414.708,76.75 414.708,78.9063 L414.708,95.8438 C414.708,99.9063 414.458,101.797 413.755,103.25 C413.255,104.25 412.099,105 411.005,105 C410.302,105 409.755,104.703 409.755,104.344 C409.755,104.156 409.802,104.047 410.005,103.547 C410.255,103.047 410.349,102.703 410.349,102.344 C410.349,101.094 409.146,100 407.755,100 C406.146,100 404.958,101.25 404.958,103 C404.958,105.453 407.208,107.094 410.552,107.094 C413.349,107.094 415.896,105.906 417.349,103.844 C418.896,101.656 419.396,99.0938 419.396,93.4531 L419.396,73.7031 M417.052,61.25 C415.458,61.25 414.146,62.5469 414.146,64.1406 C414.146,65.75 415.458,67.0469 417.005,67.0469 C418.646,67.0469 419.958,65.75 419.958,64.1406 C419.958,62.5469 418.646,61.25 417.052,61.25 M436.646,72.9531 C430.505,72.9531 425.755,78.4063 425.755,85.4063 C425.755,92.25 430.552,97.75 436.552,97.75 C442.552,97.75 447.349,92.25 447.349,85.3438 C447.349,78.5 442.552,72.9531 436.646,72.9531 M436.646,75.0938 C440.146,75.0938 442.099,78.75 442.099,85.3438 C442.099,92 440.146,95.5938 436.552,95.5938 C432.958,95.5938 431.005,92 431.005,85.4063 C431.005,78.5938 432.896,75.0938 436.646,75.0938 M458.958,73.7031 L450.099,74.25 L450.099,76.4063 L452.146,76.4063 C454.052,76.4531 454.302,76.75 454.302,78.9063 L454.302,90.8438 L454.302,93.2031 C454.255,93.9531 454.208,94.25 454.005,94.5 C453.646,94.9531 452.646,95.1563 450.505,95.2031 L450.302,95.2031 L450.302,97 L463.646,97 L463.646,95.2031 L462.755,95.2031 C459.396,95.0938 458.958,94.8438 458.958,93.0469 L458.958,90.8438 L458.958,90.3438 C459.005,81.9531 462.005,75.5469 465.896,75.3438 C465.208,76.1563 465.005,76.6563 465.005,77.5938 C465.005,79.2031 466.146,80.3438 467.755,80.3438 C469.599,80.3438 470.802,79 470.802,77 C470.802,74.5469 469.099,72.9531 466.458,72.9531 C463.302,72.9531 460.599,75.4531 458.958,79.9063 L458.958,73.7031 M504.552,73.1563 L502.802,73.1563 L501.349,74.9531 C499.552,73.5469 497.755,72.9531 495.255,72.9531 C490.849,72.9531 487.958,75.7969 487.958,80.2031 C487.958,82.1563 488.599,83.7969 489.708,84.7969 C490.849,85.8438 492.005,86.3438 495.005,87.0469 L497.646,87.6563 C501.599,88.5938 503.005,89.5938 503.005,91.5938 C503.005,93.9531 500.958,95.5938 498.052,95.5938 C493.802,95.5938 490.802,92.9063 489.599,87.9063 L487.599,87.9063 L487.599,97.3438 L489.349,97.3438 L491.099,95.2969 C493.146,96.9531 495.396,97.75 497.958,97.75 C502.849,97.75 506.099,94.7031 506.099,90.0469 C506.099,87.8438 505.396,86.1563 504.005,85 C502.802,83.9531 501.802,83.5469 498.755,82.9063 L496.255,82.3438 C493.505,81.75 493.505,81.75 492.599,81.25 C491.505,80.75 490.849,79.7031 490.849,78.5938 C490.849,76.5469 492.755,75.1563 495.505,75.1563 C497.396,75.1563 498.958,75.7969 500.349,77.1563 C501.458,78.25 502.005,79.25 502.802,81.5469 L504.552,81.5469 L504.552,73.1563 M531.302,85.75 C531.349,78.25 527.099,72.9531 521.005,72.9531 C514.599,72.9531 509.802,78.5 509.802,86 C509.802,93.0469 514.349,97.75 521.099,97.75 C525.896,97.75 529.255,95.4063 531.302,90.6563 L529.552,89.7031 C527.505,93.5469 525.396,95.0469 522.052,95.0469 C519.505,95.0469 517.646,94 516.349,91.75 C515.458,90.25 515.052,88.5 515.099,85.75 L531.302,85.75 M515.146,83.5938 C515.146,82.0469 515.349,80.9531 515.849,79.5469 C516.896,76.5469 518.505,75.0938 520.958,75.0938 C523.958,75.0938 525.958,77.75 525.958,81.7969 C525.958,83.2031 525.505,83.5938 523.896,83.5938 L515.146,83.5938 M546.802,90.9531 L541.099,77.75 C540.958,77.3438 540.849,76.9531 540.849,76.6563 C540.849,75.7969 541.505,75.5 543.552,75.5 L544.255,75.5 L544.255,73.7031 L532.458,73.7031 L532.458,75.5 L532.849,75.5 C534.755,75.5 535.458,76 536.146,77.6563 L544.755,97.75 L546.505,97.75 L553.599,80.2031 C555.005,76.7969 556.208,75.6563 558.255,75.5 L558.458,75.5 L558.458,73.7031 L548.458,73.7031 L548.458,75.5 L549.146,75.5 C550.896,75.5 551.849,76.0938 551.849,77.25 C551.849,77.8438 551.708,78.5938 551.396,79.3438 L546.802,90.9531 M581.302,85.75 C581.349,78.25 577.099,72.9531 571.005,72.9531 C564.599,72.9531 559.802,78.5 559.802,86 C559.802,93.0469 564.349,97.75 571.099,97.75 C575.896,97.75 579.255,95.4063 581.302,90.6563 L579.552,89.7031 C577.505,93.5469 575.396,95.0469 572.052,95.0469 C569.505,95.0469 567.646,94 566.349,91.75 C565.458,90.25 565.052,88.5 565.099,85.75 L581.302,85.75 M565.146,83.5938 C565.146,82.0469 565.349,80.9531 565.849,79.5469 C566.896,76.5469 568.505,75.0938 570.958,75.0938 C573.958,75.0938 575.958,77.75 575.958,81.7969 C575.958,83.2031 575.505,83.5938 573.896,83.5938 L565.146,83.5938 M593.052,73.7031 L584.396,74.25 L584.396,76.4063 L586.208,76.4063 C588.099,76.4531 588.349,76.75 588.349,78.9063 L588.349,90.8438 L588.349,92.0469 L588.349,93.2031 C588.302,93.9531 588.255,94.25 588.052,94.5 C587.708,94.9531 586.755,95.1563 584.599,95.2031 L584.396,95.2031 L584.396,97 L597.052,97 L597.052,95.2031 L596.849,95.2031 C593.505,95.0938 593.052,94.8438 593.052,93.0469 L593.052,90.8438 L593.052,85.6563 C593.052,83.2031 593.396,80.9531 593.958,79.7969 C595.005,77.5469 597.255,76 599.396,76 C600.708,76 602.208,76.7031 602.958,77.75 C603.708,78.8438 604.052,80.3438 604.052,82.75 L604.052,90.8438 L604.052,93.2031 C604.005,93.9531 603.958,94.25 603.755,94.5 C603.396,94.9531 602.396,95.1563 600.255,95.2031 L600.052,95.2031 L600.052,97 L612.708,97 L612.708,95.2031 L612.505,95.2031 C609.208,95.0938 608.755,94.8438 608.755,93.0469 L608.755,90.8438 L608.755,83 C608.755,79.4063 608.599,78.5 607.708,76.7969 C606.458,74.4063 603.958,72.9531 600.958,72.9531 C597.708,72.9531 595.255,74.4531 593.052,77.75 L593.052,73.7031 M616.755,103.156 C619.802,101.297 621.349,100 623.052,97.9531 C626.849,93.5 628.896,87.75 628.896,81.6563 C628.896,75.9531 627.099,70.5938 623.755,66.2031 C621.849,63.75 620.146,62.2969 616.755,60.2031 L616.755,62.0469 C621.755,66.4531 623.755,72 623.755,81.6563 C623.755,91.2969 621.755,96.9063 616.755,101.297 L616.755,103.156 "
     id="path46" />
</svg>
