<?xml version="1.0" encoding="UTF-8" standalone="no"?>
<svg
   xmlns:dc="http://purl.org/dc/elements/1.1/"
   xmlns:cc="http://creativecommons.org/ns#"
   xmlns:rdf="http://www.w3.org/1999/02/22-rdf-syntax-ns#"
   xmlns:svg="http://www.w3.org/2000/svg"
   xmlns="http://www.w3.org/2000/svg"
   xmlns:sodipodi="http://sodipodi.sourceforge.net/DTD/sodipodi-0.dtd"
   xmlns:inkscape="http://www.inkscape.org/namespaces/inkscape"
   width="1133.86px"
   height="552.755px"
   viewBox="0 0 1133.86 552.755"
   version="1.2"
   id="svg48"
   sodipodi:docname="Septakkorde-o-4.svg"
   inkscape:version="0.92.3 (2405546, 2018-03-11)">
  <metadata
     id="metadata54">
    <rdf:RDF>
      <cc:Work
         rdf:about="">
        <dc:format>image/svg+xml</dc:format>
        <dc:type
           rdf:resource="http://purl.org/dc/dcmitype/StillImage" />
      </cc:Work>
    </rdf:RDF>
  </metadata>
  <defs
     id="defs52" />
  <sodipodi:namedview
     pagecolor="#ffffff"
     bordercolor="#666666"
     borderopacity="1"
     objecttolerance="10"
     gridtolerance="10"
     guidetolerance="10"
     inkscape:pageopacity="0"
     inkscape:pageshadow="2"
     inkscape:window-width="640"
     inkscape:window-height="480"
     id="namedview50"
     showgrid="false"
     inkscape:zoom="0.96219993"
     inkscape:cx="496.63923"
     inkscape:cy="249.26866"
     inkscape:current-layer="svg48" />
  <title
     id="title2">Septakkorde-o (4)</title>
  <desc
     id="desc4">Generated by MuseScore 3.6.2</desc>
  <rect
     style="opacity:1;fill:#ffffff;fill-opacity:1;stroke:#a5ceef;stroke-width:5;stroke-linejoin:round;stroke-miterlimit:4;stroke-dasharray:none;stroke-opacity:0.00457064"
     id="rect864"
     width="1204.5314"
     height="670.33887"
     x="-18.70713"
     y="-14.69463" />
  <polyline
     class="StaffLines"
     fill="none"
     stroke="#000000"
     stroke-width="3.22"
     stroke-linejoin="bevel"
     points="0,174.168 1133.86,174.168"
     id="polyline6" />
  <polyline
     class="StaffLines"
     fill="none"
     stroke="#000000"
     stroke-width="3.22"
     stroke-linejoin="bevel"
     points="0,198.971 1133.86,198.971"
     id="polyline8" />
  <polyline
     class="StaffLines"
     fill="none"
     stroke="#000000"
     stroke-width="3.22"
     stroke-linejoin="bevel"
     points="0,223.774 1133.86,223.774"
     id="polyline10" />
  <polyline
     class="StaffLines"
     fill="none"
     stroke="#000000"
     stroke-width="3.22"
     stroke-linejoin="bevel"
     points="0,248.578 1133.86,248.578"
     id="polyline12" />
  <polyline
     class="StaffLines"
     fill="none"
     stroke="#000000"
     stroke-width="3.22"
     stroke-linejoin="bevel"
     points="0,273.381 1133.86,273.381"
     id="polyline14" />
  <polyline
     class="BarLine"
     fill="none"
     stroke="#000000"
     stroke-width="3.97"
     stroke-linejoin="bevel"
     points="894.14,172.556 894.14,274.993"
     id="polyline16" />
  <polyline
     class="BarLine"
     fill="none"
     stroke="#000000"
     stroke-width="3.97"
     stroke-linejoin="bevel"
     points="908.03,172.556 908.03,274.993"
     id="polyline18" />
  <polyline
     class="BarLine"
     fill="none"
     stroke="#000000"
     stroke-width="3.97"
     stroke-linejoin="bevel"
     points="1131.88,172.556 1131.88,274.993"
     id="polyline20" />
  <polyline
     class="LedgerLine"
     fill="none"
     stroke="#000000"
     stroke-width="3.97"
     stroke-linejoin="bevel"
     points="148.416,298.184 213.795,298.184"
     id="polyline22" />
  <polyline
     class="LedgerLine"
     fill="none"
     stroke="#000000"
     stroke-width="3.97"
     stroke-linejoin="bevel"
     points="942.259,298.184 1007.64,298.184"
     id="polyline24" />
  <path
     class="Note"
     transform="matrix(0.992126,0,0,0.992126,158.337,310.585)"
     d="M0,-0.203125 C0,7.09375 6.20313,13.5938 22.4063,13.5938 C40.2031,13.5938 45.9063,7.40625 45.9063,-0.203125 C45.9063,-7.90625 33.6094,-13.7031 23.5,-13.7031 C9,-13.7031 0,-7.59375 0,-0.203125 M11.7031,-4.20313 C11.7031,-9.79688 15.5938,-11.2031 20.7031,-11.2031 C28.1094,-11.2031 34.1094,-3.20313 34.1094,3.40625 C34.1094,8.90625 30.7031,11.0938 25.7969,11.0938 C18.5938,11.0938 11.7031,2.79688 11.7031,-4.20313"
     id="path26" />
  <path
     class="Note"
     transform="matrix(0.992126,0,0,0.992126,340.18,285.782)"
     d="M0,-0.203125 C0,7.09375 6.20313,13.5938 22.4063,13.5938 C40.2031,13.5938 45.9063,7.40625 45.9063,-0.203125 C45.9063,-7.90625 33.6094,-13.7031 23.5,-13.7031 C9,-13.7031 0,-7.59375 0,-0.203125 M11.7031,-4.20313 C11.7031,-9.79688 15.5938,-11.2031 20.7031,-11.2031 C28.1094,-11.2031 34.1094,-3.20313 34.1094,3.40625 C34.1094,8.90625 30.7031,11.0938 25.7969,11.0938 C18.5938,11.0938 11.7031,2.79688 11.7031,-4.20313"
     id="path28" />
  <path
     class="Note"
     transform="matrix(0.992126,0,0,0.992126,522.022,260.979)"
     d="M0,-0.203125 C0,7.09375 6.20313,13.5938 22.4063,13.5938 C40.2031,13.5938 45.9063,7.40625 45.9063,-0.203125 C45.9063,-7.90625 33.6094,-13.7031 23.5,-13.7031 C9,-13.7031 0,-7.59375 0,-0.203125 M11.7031,-4.20313 C11.7031,-9.79688 15.5938,-11.2031 20.7031,-11.2031 C28.1094,-11.2031 34.1094,-3.20313 34.1094,3.40625 C34.1094,8.90625 30.7031,11.0938 25.7969,11.0938 C18.5938,11.0938 11.7031,2.79688 11.7031,-4.20313"
     id="path30" />
  <path
     class="Note"
     transform="matrix(0.992126,0,0,0.992126,703.865,236.176)"
     d="M0,-0.203125 C0,7.09375 6.20313,13.5938 22.4063,13.5938 C40.2031,13.5938 45.9063,7.40625 45.9063,-0.203125 C45.9063,-7.90625 33.6094,-13.7031 23.5,-13.7031 C9,-13.7031 0,-7.59375 0,-0.203125 M11.7031,-4.20313 C11.7031,-9.79688 15.5938,-11.2031 20.7031,-11.2031 C28.1094,-11.2031 34.1094,-3.20313 34.1094,3.40625 C34.1094,8.90625 30.7031,11.0938 25.7969,11.0938 C18.5938,11.0938 11.7031,2.79688 11.7031,-4.20313"
     id="path32" />
  <path
     class="Note"
     transform="matrix(0.992126,0,0,0.992126,952.18,310.585)"
     d="M0,-0.203125 C0,7.09375 6.20313,13.5938 22.4063,13.5938 C40.2031,13.5938 45.9063,7.40625 45.9063,-0.203125 C45.9063,-7.90625 33.6094,-13.7031 23.5,-13.7031 C9,-13.7031 0,-7.59375 0,-0.203125 M11.7031,-4.20313 C11.7031,-9.79688 15.5938,-11.2031 20.7031,-11.2031 C28.1094,-11.2031 34.1094,-3.20313 34.1094,3.40625 C34.1094,8.90625 30.7031,11.0938 25.7969,11.0938 C18.5938,11.0938 11.7031,2.79688 11.7031,-4.20313"
     id="path34" />
  <path
     class="Note"
     transform="matrix(0.992126,0,0,0.992126,952.18,285.782)"
     d="M0,-0.203125 C0,7.09375 6.20313,13.5938 22.4063,13.5938 C40.2031,13.5938 45.9063,7.40625 45.9063,-0.203125 C45.9063,-7.90625 33.6094,-13.7031 23.5,-13.7031 C9,-13.7031 0,-7.59375 0,-0.203125 M11.7031,-4.20313 C11.7031,-9.79688 15.5938,-11.2031 20.7031,-11.2031 C28.1094,-11.2031 34.1094,-3.20313 34.1094,3.40625 C34.1094,8.90625 30.7031,11.0938 25.7969,11.0938 C18.5938,11.0938 11.7031,2.79688 11.7031,-4.20313"
     id="path36" />
  <path
     class="Note"
     transform="matrix(0.992126,0,0,0.992126,952.18,260.979)"
     d="M0,-0.203125 C0,7.09375 6.20313,13.5938 22.4063,13.5938 C40.2031,13.5938 45.9063,7.40625 45.9063,-0.203125 C45.9063,-7.90625 33.6094,-13.7031 23.5,-13.7031 C9,-13.7031 0,-7.59375 0,-0.203125 M11.7031,-4.20313 C11.7031,-9.79688 15.5938,-11.2031 20.7031,-11.2031 C28.1094,-11.2031 34.1094,-3.20313 34.1094,3.40625 C34.1094,8.90625 30.7031,11.0938 25.7969,11.0938 C18.5938,11.0938 11.7031,2.79688 11.7031,-4.20313"
     id="path38" />
  <path
     class="Note"
     transform="matrix(0.992126,0,0,0.992126,952.18,236.176)"
     d="M0,-0.203125 C0,7.09375 6.20313,13.5938 22.4063,13.5938 C40.2031,13.5938 45.9063,7.40625 45.9063,-0.203125 C45.9063,-7.90625 33.6094,-13.7031 23.5,-13.7031 C9,-13.7031 0,-7.59375 0,-0.203125 M11.7031,-4.20313 C11.7031,-9.79688 15.5938,-11.2031 20.7031,-11.2031 C28.1094,-11.2031 34.1094,-3.20313 34.1094,3.40625 C34.1094,8.90625 30.7031,11.0938 25.7969,11.0938 C18.5938,11.0938 11.7031,2.79688 11.7031,-4.20313"
     id="path40" />
  <path
     class="Clef"
     transform="matrix(0.992126,0,0,0.992126,19.8425,248.578)"
     d="M36.4063,25.2031 C38.7031,25.2031 41.2969,25 43.2969,24.5938 C44.4063,24.4063 44.6094,24.2969 44.7969,25.5 C46,32.2031 47.5,40.9063 47.5,45.6094 C47.5,60.4063 37.5,62.2031 31.6094,62.2031 C26.2031,62.2031 23.5938,60.6094 23.5938,59.2969 C23.5938,58.6094 24.5,58.2969 26.7969,57.6094 C29.9063,56.7031 33.5,54 33.5,48.2031 C33.5,42.7031 30,38 23.9063,38 C17.2031,38 13.2031,43.2969 13.2031,49.5 C13.2031,56 17.0938,65.7969 32.2031,65.7969 C38.9063,65.7969 51.9063,62.7969 51.9063,45.7969 C51.9063,40.1094 50.1094,30.6094 49,24.4063 C48.7969,23.2031 48.9063,23.2969 50.2969,22.7031 C60.4063,18.7031 67.1094,10.2031 67.1094,-1.09375 C67.1094,-13.9063 57.7031,-25.2031 43,-25.2031 C40.4063,-25.2031 40.4063,-25.2031 40.1094,-27 L37.6094,-41.5 C37.4063,-42.7031 37.6094,-42.7969 38.2031,-43.4063 C49,-53.5 57.2031,-66.2031 57.2031,-81.5 C57.2031,-90.2031 54.7969,-98.8125 50.7031,-104.813 C49.2031,-107 46.6094,-109.813 45.5,-109.813 C44.1094,-109.813 41,-107.203 39,-105 C31.6094,-96.8125 29.2031,-84.3125 29.2031,-73.9063 C29.2031,-68.1094 29.9063,-61.6094 30.6094,-57.5 C30.7969,-56.2969 30.9063,-56.1094 29.7031,-55.1094 C15.2969,-43.2031 0,-28.9063 0,-8.70313 C0,8.70313 11.9063,25.2031 36.4063,25.2031 M8,-2 C8,-7.90625 9,-15.7969 17.2969,-25.2031 C23.2969,-31.9063 27.9063,-35.6094 32.6094,-39.4063 C33.6094,-40.2031 33.7969,-40.1094 34,-39 L36.1094,-26.2031 C36.4063,-24.2969 36.4063,-24.4063 34.6094,-23.7969 C25.7969,-20.7969 20.0938,-12.9063 20.0938,-4.40625 C20.0938,4.59375 24.7969,11 31.6094,13.2969 C32.4063,13.5938 33.6094,13.9063 34.2969,13.9063 C35.1094,13.9063 35.5,13.4063 35.5,12.7969 C35.5,12.0938 34.7031,11.7969 34,11.5 C29.7969,9.70313 26.7969,5.40625 26.7969,0.796875 C26.7969,-4.90625 30.7031,-9.20313 36.7969,-10.9063 C38.4063,-11.2969 38.6094,-11.2031 38.7969,-10.0938 L43.7969,19.7031 C44,20.7969 43.9063,20.7969 42.4063,21.0938 C40.7969,21.4063 38.7969,21.5938 36.7969,21.5938 C19.2969,21.5938 8,11.9063 8,-2 M47,-94.3125 C50.2969,-94.3125 53,-91.6094 53,-86.1094 C53,-75 43.5,-66 35.6094,-59.1094 C34.9063,-58.5 34.5,-58.6094 34.2969,-59.9063 C33.9063,-62.5 33.7031,-65.9063 33.7031,-69.1094 C33.7031,-84.7031 40.9063,-94.3125 47,-94.3125 M44.1094,-11.7031 C52.2031,-11 58.9063,-4.20313 58.9063,4.59375 C58.9063,10.9063 55.1094,16 49.5,18.7969 C48.2969,19.4063 48.1094,19.4063 47.9063,18.2031 L43,-10.2969 C42.7969,-11.5 42.9063,-11.7969 44.1094,-11.7031"
     id="path42" />
  <path
     class="SystemText"
     d="M123.505,24.9063 L123.505,0.140625 L114.255,0.703125 L114.255,2.84375 L116.646,2.84375 C118.552,2.89063 118.802,3.20313 118.802,5.34375 L118.802,30.8438 L118.802,33.25 C118.755,33.9531 118.708,34.25 118.505,34.5 C118.146,34.9531 117.208,35.1563 115.052,35.2031 L114.849,35.2031 L114.849,37 L127.505,37 L127.505,35.2031 L127.302,35.2031 C123.958,35.0938 123.505,34.8438 123.505,33.0469 L123.505,30.8438 L123.505,28 L126.552,25.0938 L132.505,33.4531 C132.755,33.8438 132.849,34.0938 132.849,34.2969 C132.849,35 132.302,35.2031 130.646,35.2031 L129.708,35.2031 L129.708,37 L142.911,37 L142.911,35.2031 C140.099,34.9531 139.099,34.3438 137.052,31.75 L129.958,22.0469 L132.208,19.8438 C135.146,17 137.255,15.9063 140.661,15.5 L140.661,13.7031 L127.505,13.7031 L127.505,15.5 L129.052,15.5 C130.646,15.5 131.396,15.7969 131.396,16.4531 C131.396,17 131.052,17.5938 130.255,18.4063 L123.505,24.9063 M154.755,0.140625 L145.505,0.703125 L145.505,2.84375 L147.958,2.84375 C149.802,2.89063 150.052,3.20313 150.052,5.34375 L150.052,30.8438 L150.052,33.2031 C150.005,33.9531 149.958,34.25 149.755,34.5 C149.396,34.9531 148.458,35.1563 146.302,35.2031 L145.958,35.2031 L145.958,37 L158.896,37 L158.896,35.2031 L158.552,35.2031 C155.208,35.0938 154.755,34.8438 154.755,33.0469 L154.755,30.8438 L154.755,0.140625 M183.802,25.75 C183.849,18.25 179.599,12.9531 173.505,12.9531 C167.099,12.9531 162.302,18.5 162.302,26 C162.302,33.0469 166.849,37.75 173.599,37.75 C178.396,37.75 181.755,35.4063 183.802,30.6563 L182.052,29.7031 C180.005,33.5469 177.896,35.0469 174.552,35.0469 C172.005,35.0469 170.146,34 168.849,31.75 C167.958,30.25 167.552,28.5 167.599,25.75 L183.802,25.75 M167.646,23.5938 C167.646,22.0469 167.849,20.9531 168.349,19.5469 C169.396,16.5469 171.005,15.0938 173.458,15.0938 C176.458,15.0938 178.458,17.75 178.458,21.7969 C178.458,23.2031 178.005,23.5938 176.396,23.5938 L167.646,23.5938 M195.849,13.7031 L186.458,14.25 L186.458,16.4063 L189.005,16.4063 C190.896,16.4531 191.146,16.75 191.146,18.9063 L191.146,30.8438 L191.146,33.2031 C191.099,33.9531 191.052,34.25 190.849,34.5 C190.505,34.9531 189.552,35.1563 187.396,35.2031 L187.052,35.2031 L187.052,37 L200.005,37 L200.005,35.2031 L199.646,35.2031 C196.302,35.0938 195.849,34.8438 195.849,33.0469 L195.849,30.8438 L195.849,13.7031 M193.505,1.25 C191.896,1.25 190.599,2.54688 190.599,4.14063 C190.599,5.75 191.896,7.04688 193.458,7.04688 C195.099,7.04688 196.396,5.75 196.396,4.14063 C196.396,2.54688 195.099,1.25 193.505,1.25 M211.552,13.7031 L202.896,14.25 L202.896,16.4063 L204.708,16.4063 C206.599,16.4531 206.849,16.75 206.849,18.9063 L206.849,30.8438 L206.849,32.0469 L206.849,33.2031 C206.802,33.9531 206.755,34.25 206.552,34.5 C206.208,34.9531 205.255,35.1563 203.099,35.2031 L202.896,35.2031 L202.896,37 L215.552,37 L215.552,35.2031 L215.349,35.2031 C212.005,35.0938 211.552,34.8438 211.552,33.0469 L211.552,30.8438 L211.552,25.6563 C211.552,23.2031 211.896,20.9531 212.458,19.7969 C213.505,17.5469 215.755,16 217.896,16 C219.208,16 220.708,16.7031 221.458,17.75 C222.208,18.8438 222.552,20.3438 222.552,22.75 L222.552,30.8438 L222.552,33.2031 C222.505,33.9531 222.458,34.25 222.255,34.5 C221.896,34.9531 220.896,35.1563 218.755,35.2031 L218.552,35.2031 L218.552,37 L231.208,37 L231.208,35.2031 L231.005,35.2031 C227.708,35.0938 227.255,34.8438 227.255,33.0469 L227.255,30.8438 L227.255,23 C227.255,19.4063 227.099,18.5 226.208,16.7969 C224.958,14.4063 222.458,12.9531 219.458,12.9531 C216.208,12.9531 213.755,14.4531 211.552,17.75 L211.552,13.7031 M234.646,23.0938 L234.646,27.25 L247.099,27.25 L247.099,23.0938 L234.646,23.0938 M262.302,30.9531 L256.599,17.75 C256.458,17.3438 256.349,16.9531 256.349,16.6563 C256.349,15.7969 257.005,15.5 259.052,15.5 L259.755,15.5 L259.755,13.7031 L247.958,13.7031 L247.958,15.5 L248.349,15.5 C250.255,15.5 250.958,16 251.646,17.6563 L260.255,37.75 L262.005,37.75 L269.099,20.2031 C270.505,16.7969 271.708,15.6563 273.755,15.5 L273.958,15.5 L273.958,13.7031 L263.958,13.7031 L263.958,15.5 L264.646,15.5 C266.396,15.5 267.349,16.0938 267.349,17.25 C267.349,17.8438 267.208,18.5938 266.896,19.3438 L262.302,30.9531 M296.802,25.75 C296.849,18.25 292.599,12.9531 286.505,12.9531 C280.099,12.9531 275.302,18.5 275.302,26 C275.302,33.0469 279.849,37.75 286.599,37.75 C291.396,37.75 294.755,35.4063 296.802,30.6563 L295.052,29.7031 C293.005,33.5469 290.896,35.0469 287.552,35.0469 C285.005,35.0469 283.146,34 281.849,31.75 C280.958,30.25 280.552,28.5 280.599,25.75 L296.802,25.75 M280.646,23.5938 C280.646,22.0469 280.849,20.9531 281.349,19.5469 C282.396,16.5469 284.005,15.0938 286.458,15.0938 C289.458,15.0938 291.458,17.75 291.458,21.7969 C291.458,23.2031 291.005,23.5938 289.396,23.5938 L280.646,23.5938 M308.458,13.7031 L299.599,14.25 L299.599,16.4063 L301.646,16.4063 C303.552,16.4531 303.802,16.75 303.802,18.9063 L303.802,30.8438 L303.802,33.2031 C303.755,33.9531 303.708,34.25 303.505,34.5 C303.146,34.9531 302.146,35.1563 300.005,35.2031 L299.802,35.2031 L299.802,37 L313.146,37 L313.146,35.2031 L312.255,35.2031 C308.896,35.0938 308.458,34.8438 308.458,33.0469 L308.458,30.8438 L308.458,30.3438 C308.505,21.9531 311.505,15.5469 315.396,15.3438 C314.708,16.1563 314.505,16.6563 314.505,17.5938 C314.505,19.2031 315.646,20.3438 317.255,20.3438 C319.099,20.3438 320.302,19 320.302,17 C320.302,14.5469 318.599,12.9531 315.958,12.9531 C312.802,12.9531 310.099,15.4531 308.458,19.9063 L308.458,13.7031 M331.599,13.7031 L322.708,14.25 L322.708,16.4063 L324.755,16.4063 C326.646,16.4531 326.896,16.75 326.896,18.9063 L326.896,30.8438 L326.896,32.7969 L326.896,33.2031 C326.849,33.9531 326.802,34.25 326.599,34.5 C326.255,34.9531 325.302,35.1563 323.146,35.2031 L322.958,35.2031 L322.958,37 L335.552,37 L335.552,35.2031 L335.349,35.2031 C332.052,35.0938 331.599,34.8438 331.599,33 L331.599,30.8438 L331.599,23.75 C331.599,19.2969 334.052,16 337.302,16 C340.146,16 341.599,18.0469 341.599,22.0938 L341.599,30.8438 L341.599,33.25 C341.552,33.9063 341.505,34.25 341.255,34.5 C340.958,34.9531 339.958,35.1563 337.802,35.2031 L337.599,35.2031 L337.599,37 L350.255,37 L350.255,35.2031 L350.052,35.2031 C346.755,35.0938 346.302,34.8438 346.302,33.0469 L346.302,30.8438 L346.302,24.2031 C346.302,19.2031 348.552,16 352.052,16 C354.911,16 356.302,18.1563 356.302,22.6563 L356.302,30.8438 L356.302,33.2031 C356.255,33.9063 356.208,34.25 355.958,34.5 C355.661,34.9531 354.661,35.1563 352.505,35.2031 L352.302,35.2031 L352.302,37 L364.958,37 L364.958,35.2031 L364.755,35.2031 C361.458,35.0938 361.005,34.8438 361.005,33 L361.005,30.8438 L361.005,21.6563 C361.005,18.5469 360.708,17.5 359.411,15.7969 C357.958,13.9531 355.911,12.9531 353.505,12.9531 C350.255,12.9531 347.849,14.5 345.708,17.9531 C344.849,14.9531 342.146,12.9531 338.802,12.9531 C335.755,12.9531 333.552,14.4063 331.599,17.5469 L331.599,13.7031 M375.849,13.7031 L366.458,14.25 L366.458,16.4063 L369.005,16.4063 C370.896,16.4531 371.146,16.75 371.146,18.9063 L371.146,30.8438 L371.146,33.2031 C371.099,33.9531 371.052,34.25 370.849,34.5 C370.505,34.9531 369.552,35.1563 367.396,35.2031 L367.052,35.2031 L367.052,37 L380.005,37 L380.005,35.2031 L379.646,35.2031 C376.302,35.0938 375.849,34.8438 375.849,33.0469 L375.849,30.8438 L375.849,13.7031 M373.505,1.25 C371.896,1.25 370.599,2.54688 370.599,4.14063 C370.599,5.75 371.896,7.04688 373.458,7.04688 C375.099,7.04688 376.396,5.75 376.396,4.14063 C376.396,2.54688 375.099,1.25 373.505,1.25 M391.552,13.7031 L382.896,14.25 L382.896,16.4063 L384.708,16.4063 C386.599,16.4531 386.849,16.75 386.849,18.9063 L386.849,30.8438 L386.849,32.0469 L386.849,33.2031 C386.802,33.9531 386.755,34.25 386.552,34.5 C386.208,34.9531 385.255,35.1563 383.099,35.2031 L382.896,35.2031 L382.896,37 L395.552,37 L395.552,35.2031 L395.349,35.2031 C392.005,35.0938 391.552,34.8438 391.552,33.0469 L391.552,30.8438 L391.552,25.6563 C391.552,23.2031 391.896,20.9531 392.458,19.7969 C393.505,17.5469 395.755,16 397.896,16 C399.208,16 400.708,16.7031 401.458,17.75 C402.208,18.8438 402.552,20.3438 402.552,22.75 L402.552,30.8438 L402.552,33.2031 C402.505,33.9531 402.458,34.25 402.255,34.5 C401.896,34.9531 400.896,35.1563 398.755,35.2031 L398.552,35.2031 L398.552,37 L411.208,37 L411.208,35.2031 L411.005,35.2031 C407.708,35.0938 407.255,34.8438 407.255,33.0469 L407.255,30.8438 L407.255,23 C407.255,19.4063 407.099,18.5 406.208,16.7969 C404.958,14.4063 402.458,12.9531 399.458,12.9531 C396.208,12.9531 393.755,14.4531 391.552,17.75 L391.552,13.7031 M431.552,37.3438 L440.255,37 L440.255,34.8438 L439.349,34.8438 C436.505,34.7031 436.255,34.4063 436.255,31.2031 L436.255,0.140625 L426.458,0.703125 L426.458,2.84375 L429.396,2.84375 C431.302,2.89063 431.552,3.20313 431.552,5.34375 L431.552,16.6563 C429.708,14.0938 427.552,12.9531 424.646,12.9531 C419.005,12.9531 414.708,18.4063 414.708,25.5938 C414.708,32.7031 418.849,37.75 424.646,37.75 C427.802,37.75 429.958,36.4063 431.552,33.4063 L431.552,37.3438 M425.646,15.6563 C427.708,15.6563 429.646,17.1563 430.552,19.4531 C431.208,20.9531 431.505,23 431.505,25.4531 C431.505,31.2969 429.208,35.0469 425.599,35.0469 C422.052,35.0469 419.958,31.75 419.958,26.2031 C419.958,23.2031 420.255,20.9531 420.896,19.2969 C421.755,17.0469 423.599,15.6563 425.646,15.6563 M464.802,25.75 C464.849,18.25 460.599,12.9531 454.505,12.9531 C448.099,12.9531 443.302,18.5 443.302,26 C443.302,33.0469 447.849,37.75 454.599,37.75 C459.396,37.75 462.755,35.4063 464.802,30.6563 L463.052,29.7031 C461.005,33.5469 458.896,35.0469 455.552,35.0469 C453.005,35.0469 451.146,34 449.849,31.75 C448.958,30.25 448.552,28.5 448.599,25.75 L464.802,25.75 M448.646,23.5938 C448.646,22.0469 448.849,20.9531 449.349,19.5469 C450.396,16.5469 452.005,15.0938 454.458,15.0938 C457.458,15.0938 459.458,17.75 459.458,21.7969 C459.458,23.2031 459.005,23.5938 457.396,23.5938 L448.646,23.5938 M476.458,13.7031 L467.599,14.25 L467.599,16.4063 L469.646,16.4063 C471.552,16.4531 471.802,16.75 471.802,18.9063 L471.802,30.8438 L471.802,33.2031 C471.755,33.9531 471.708,34.25 471.505,34.5 C471.146,34.9531 470.146,35.1563 468.005,35.2031 L467.802,35.2031 L467.802,37 L481.146,37 L481.146,35.2031 L480.255,35.2031 C476.896,35.0938 476.458,34.8438 476.458,33.0469 L476.458,30.8438 L476.458,30.3438 C476.505,21.9531 479.505,15.5469 483.396,15.3438 C482.708,16.1563 482.505,16.6563 482.505,17.5938 C482.505,19.2031 483.646,20.3438 485.255,20.3438 C487.099,20.3438 488.302,19 488.302,17 C488.302,14.5469 486.599,12.9531 483.958,12.9531 C480.802,12.9531 478.099,15.4531 476.458,19.9063 L476.458,13.7031 M499.255,13.7031 L499.255,3.79688 L497.208,3.79688 C496.708,10.2969 494.505,13.5938 490.458,13.9063 L490.458,15.8438 L494.552,15.8438 L494.552,28.5938 C494.552,32.0938 494.646,33.3438 495.146,34.5 C495.958,36.5938 497.958,37.75 500.849,37.75 C505.349,37.75 508.255,34.3438 508.255,29.0469 C508.255,28.75 508.255,28.4063 508.208,27.9063 L506.099,27.9063 C505.958,32.4063 504.646,34.7031 502.208,34.7031 C501.052,34.7031 500.052,34.0938 499.708,33.25 C499.396,32.5469 499.255,31.2969 499.255,29.5 L499.255,15.8438 L506.599,15.8438 L506.599,13.7031 L499.255,13.7031 M531.802,25.75 C531.849,18.25 527.599,12.9531 521.505,12.9531 C515.099,12.9531 510.302,18.5 510.302,26 C510.302,33.0469 514.849,37.75 521.599,37.75 C526.396,37.75 529.755,35.4063 531.802,30.6563 L530.052,29.7031 C528.005,33.5469 525.896,35.0469 522.552,35.0469 C520.005,35.0469 518.146,34 516.849,31.75 C515.958,30.25 515.552,28.5 515.599,25.75 L531.802,25.75 M515.646,23.5938 C515.646,22.0469 515.849,20.9531 516.349,19.5469 C517.396,16.5469 519.005,15.0938 521.458,15.0938 C524.458,15.0938 526.458,17.75 526.458,21.7969 C526.458,23.2031 526.005,23.5938 524.396,23.5938 L515.646,23.5938 M543.458,13.7031 L534.599,14.25 L534.599,16.4063 L536.646,16.4063 C538.552,16.4531 538.802,16.75 538.802,18.9063 L538.802,30.8438 L538.802,33.2031 C538.755,33.9531 538.708,34.25 538.505,34.5 C538.146,34.9531 537.146,35.1563 535.005,35.2031 L534.802,35.2031 L534.802,37 L548.146,37 L548.146,35.2031 L547.255,35.2031 C543.896,35.0938 543.458,34.8438 543.458,33.0469 L543.458,30.8438 L543.458,30.3438 C543.505,21.9531 546.505,15.5469 550.396,15.3438 C549.708,16.1563 549.505,16.6563 549.505,17.5938 C549.505,19.2031 550.646,20.3438 552.255,20.3438 C554.099,20.3438 555.302,19 555.302,17 C555.302,14.5469 553.599,12.9531 550.958,12.9531 C547.802,12.9531 545.099,15.4531 543.458,19.9063 L543.458,13.7031 M596.849,0.59375 L595.005,0.59375 L593.005,3.59375 C590.599,1.34375 587.458,0.140625 583.896,0.140625 C577.302,0.140625 572.958,4.29688 572.958,10.5938 C572.958,16.0469 575.646,18.75 583.005,20.6563 L587.755,21.8438 C591.458,22.7969 591.802,22.9063 592.849,23.7031 C594.349,24.8438 595.161,26.5 595.161,28.4531 C595.161,30.4531 594.396,32.0938 592.896,33.5 C591.255,34.9063 589.599,35.4531 586.849,35.4531 C583.146,35.4531 580.505,34.2969 578.146,31.7031 C576.052,29.4063 575.005,27 574.255,23.1563 L572.099,23.1563 L572.302,37.4063 L574.255,37.4063 L576.505,34 C579.849,36.75 582.599,37.75 587.005,37.75 C594.349,37.75 599.052,33.4531 599.052,26.75 C599.052,23.5938 598.052,21 596.052,19.0938 C594.708,17.7969 592.755,16.9531 588.755,15.9531 L583.396,14.5938 C578.958,13.4531 576.849,11.5 576.849,8.45313 C576.849,4.95313 579.708,2.54688 583.958,2.54688 C587.458,2.54688 590.302,4.04688 592.302,6.89063 C593.755,8.95313 594.708,11.0469 595.302,13.5938 L597.458,13.5938 L596.849,0.59375 M624.802,25.75 C624.849,18.25 620.599,12.9531 614.505,12.9531 C608.099,12.9531 603.302,18.5 603.302,26 C603.302,33.0469 607.849,37.75 614.599,37.75 C619.396,37.75 622.755,35.4063 624.802,30.6563 L623.052,29.7031 C621.005,33.5469 618.896,35.0469 615.552,35.0469 C613.005,35.0469 611.146,34 609.849,31.75 C608.958,30.25 608.552,28.5 608.599,25.75 L624.802,25.75 M608.646,23.5938 C608.646,22.0469 608.849,20.9531 609.349,19.5469 C610.396,16.5469 612.005,15.0938 614.458,15.0938 C617.458,15.0938 619.458,17.75 619.458,21.7969 C619.458,23.2031 619.005,23.5938 617.396,23.5938 L608.646,23.5938 M636.599,13.7031 L627.958,14.25 L627.958,16.4063 L629.755,16.4063 C631.646,16.4531 631.896,16.75 631.896,18.9063 L631.896,40.9531 L631.896,43.3438 C631.849,44.0469 631.802,44.3438 631.599,44.5938 C631.255,45.0469 630.302,45.25 628.146,45.2969 L627.958,45.2969 L627.958,47.0938 L640.958,47.0938 L640.958,45.2969 L640.396,45.2969 C637.052,45.2031 636.599,44.9531 636.599,43.1563 L636.599,40.9531 L636.599,33.7031 C638.255,36.5938 640.099,37.75 643.208,37.75 C646.255,37.75 648.755,36.4531 650.552,34 C652.302,31.5938 653.302,28.5 653.302,25.25 C653.302,22 652.302,18.9531 650.458,16.5469 C648.599,14.1563 646.302,12.9531 643.505,12.9531 C640.396,12.9531 638.349,14.25 636.599,17.25 L636.599,13.7031 M642.599,15.6563 C646.052,15.6563 648.052,19.0938 648.052,24.9531 C648.052,31.4063 646.052,35.0469 642.458,35.0469 C638.849,35.0469 636.552,31.3438 636.552,25.5938 C636.552,19.3438 638.802,15.6563 642.599,15.6563 M664.255,13.7031 L664.255,3.79688 L662.208,3.79688 C661.708,10.2969 659.505,13.5938 655.458,13.9063 L655.458,15.8438 L659.552,15.8438 L659.552,28.5938 C659.552,32.0938 659.646,33.3438 660.146,34.5 C660.958,36.5938 662.958,37.75 665.849,37.75 C670.349,37.75 673.255,34.3438 673.255,29.0469 C673.255,28.75 673.255,28.4063 673.208,27.9063 L671.099,27.9063 C670.958,32.4063 669.646,34.7031 667.208,34.7031 C666.052,34.7031 665.052,34.0938 664.708,33.25 C664.396,32.5469 664.255,31.2969 664.255,29.5 L664.255,15.8438 L671.599,15.8438 L671.599,13.7031 L664.255,13.7031 M696.146,20.9063 C696.146,17.75 695.599,16.1563 694.146,14.9531 C692.505,13.5938 690.052,12.9531 686.849,12.9531 C681.208,12.9531 677.099,15.5938 677.099,19.25 C677.099,21.0938 678.255,22.2969 680.005,22.2969 C681.599,22.2969 682.708,21.25 682.708,19.75 C682.708,19.0938 682.458,18.4063 681.958,17.7031 C681.646,17.3438 681.599,17.25 681.599,17 C681.599,16 683.599,15.0938 686.005,15.0938 C687.599,15.0938 689.349,15.5938 690.146,16.3438 C691.099,17.1563 691.458,18.3438 691.458,20.5938 L691.458,22.5469 C686.255,23.4531 684.599,23.8438 682.146,24.7969 C677.802,26.4063 675.755,28.7031 675.755,31.9063 C675.755,35.5 678.552,37.75 683.005,37.75 C686.458,37.75 689.552,36.3438 691.708,33.7969 C692.505,36.3438 693.755,37.3438 696.099,37.3438 C698.349,37.3438 700.708,35.9063 700.708,34.4531 C700.708,34.0938 700.505,33.8438 700.208,33.8438 C700.005,33.8438 699.802,33.9063 699.458,34.0469 C698.755,34.3438 698.458,34.4063 698.052,34.4063 C696.646,34.4063 696.146,33.5 696.146,30.9531 L696.146,20.9063 M691.458,27 C691.458,30 691.302,30.7031 690.458,32 C689.208,33.8438 686.958,35.0938 684.755,35.0938 C682.458,35.0938 680.802,33.4531 680.802,31.2031 C680.802,29.0938 681.849,27.5938 684.052,26.5469 C685.599,25.8438 687.552,25.3438 691.458,24.7031 L691.458,27 M711.505,24.9063 L711.505,0.140625 L702.255,0.703125 L702.255,2.84375 L704.646,2.84375 C706.552,2.89063 706.802,3.20313 706.802,5.34375 L706.802,30.8438 L706.802,33.25 C706.755,33.9531 706.708,34.25 706.505,34.5 C706.146,34.9531 705.208,35.1563 703.052,35.2031 L702.849,35.2031 L702.849,37 L715.505,37 L715.505,35.2031 L715.302,35.2031 C711.958,35.0938 711.505,34.8438 711.505,33.0469 L711.505,30.8438 L711.505,28 L714.552,25.0938 L720.505,33.4531 C720.755,33.8438 720.849,34.0938 720.849,34.2969 C720.849,35 720.302,35.2031 718.646,35.2031 L717.708,35.2031 L717.708,37 L730.911,37 L730.911,35.2031 C728.099,34.9531 727.099,34.3438 725.052,31.75 L717.958,22.0469 L720.208,19.8438 C723.146,17 725.255,15.9063 728.661,15.5 L728.661,13.7031 L715.505,13.7031 L715.505,15.5 L717.052,15.5 C718.646,15.5 719.396,15.7969 719.396,16.4531 C719.396,17 719.052,17.5938 718.255,18.4063 L711.505,24.9063 M742.505,24.9063 L742.505,0.140625 L733.255,0.703125 L733.255,2.84375 L735.646,2.84375 C737.552,2.89063 737.802,3.20313 737.802,5.34375 L737.802,30.8438 L737.802,33.25 C737.755,33.9531 737.708,34.25 737.505,34.5 C737.146,34.9531 736.208,35.1563 734.052,35.2031 L733.849,35.2031 L733.849,37 L746.505,37 L746.505,35.2031 L746.302,35.2031 C742.958,35.0938 742.505,34.8438 742.505,33.0469 L742.505,30.8438 L742.505,28 L745.552,25.0938 L751.505,33.4531 C751.755,33.8438 751.849,34.0938 751.849,34.2969 C751.849,35 751.302,35.2031 749.646,35.2031 L748.708,35.2031 L748.708,37 L761.911,37 L761.911,35.2031 C759.099,34.9531 758.099,34.3438 756.052,31.75 L748.958,22.0469 L751.208,19.8438 C754.146,17 756.255,15.9063 759.661,15.5 L759.661,13.7031 L746.505,13.7031 L746.505,15.5 L748.052,15.5 C749.646,15.5 750.396,15.7969 750.396,16.4531 C750.396,17 750.052,17.5938 749.255,18.4063 L742.505,24.9063 M774.146,12.9531 C768.005,12.9531 763.255,18.4063 763.255,25.4063 C763.255,32.25 768.052,37.75 774.052,37.75 C780.052,37.75 784.849,32.25 784.849,25.3438 C784.849,18.5 780.052,12.9531 774.146,12.9531 M774.146,15.0938 C777.646,15.0938 779.599,18.75 779.599,25.3438 C779.599,32 777.646,35.5938 774.052,35.5938 C770.458,35.5938 768.505,32 768.505,25.4063 C768.505,18.5938 770.396,15.0938 774.146,15.0938 M796.458,13.7031 L787.599,14.25 L787.599,16.4063 L789.646,16.4063 C791.552,16.4531 791.802,16.75 791.802,18.9063 L791.802,30.8438 L791.802,33.2031 C791.755,33.9531 791.708,34.25 791.505,34.5 C791.146,34.9531 790.146,35.1563 788.005,35.2031 L787.802,35.2031 L787.802,37 L801.146,37 L801.146,35.2031 L800.255,35.2031 C796.896,35.0938 796.458,34.8438 796.458,33.0469 L796.458,30.8438 L796.458,30.3438 C796.505,21.9531 799.505,15.5469 803.396,15.3438 C802.708,16.1563 802.505,16.6563 802.505,17.5938 C802.505,19.2031 803.646,20.3438 805.255,20.3438 C807.099,20.3438 808.302,19 808.302,17 C808.302,14.5469 806.599,12.9531 803.958,12.9531 C800.802,12.9531 798.099,15.4531 796.458,19.9063 L796.458,13.7031 M827.552,37.3438 L836.255,37 L836.255,34.8438 L835.349,34.8438 C832.505,34.7031 832.255,34.4063 832.255,31.2031 L832.255,0.140625 L822.458,0.703125 L822.458,2.84375 L825.396,2.84375 C827.302,2.89063 827.552,3.20313 827.552,5.34375 L827.552,16.6563 C825.708,14.0938 823.552,12.9531 820.646,12.9531 C815.005,12.9531 810.708,18.4063 810.708,25.5938 C810.708,32.7031 814.849,37.75 820.646,37.75 C823.802,37.75 825.958,36.4063 827.552,33.4063 L827.552,37.3438 M821.646,15.6563 C823.708,15.6563 825.646,17.1563 826.552,19.4531 C827.208,20.9531 827.505,23 827.505,25.4531 C827.505,31.2969 825.208,35.0469 821.599,35.0469 C818.052,35.0469 815.958,31.75 815.958,26.2031 C815.958,23.2031 816.255,20.9531 816.896,19.2969 C817.755,17.0469 819.599,15.6563 821.646,15.6563"
     id="path44" />
  <path
     class="SystemText"
     d="M262.505,60.2031 C259.458,62.0469 257.896,63.3438 256.208,65.3438 C252.396,69.8438 250.349,75.5938 250.349,81.6563 C250.349,87.3438 252.146,92.7031 255.505,97.1563 C257.396,99.5469 259.099,101.047 262.505,103.156 L262.505,101.297 C257.505,96.8438 255.505,91.2969 255.505,81.6563 C255.505,72 257.505,66.4531 262.505,62.0469 L262.505,60.2031 M294.755,79.6563 L294.755,90.8438 C294.755,93.4063 294.755,93.5 294.458,93.9531 C294.052,94.4531 293.099,94.6563 290.255,94.6563 L289.349,94.6563 L289.349,97 L305.755,97 L305.755,94.6563 L304.849,94.6563 C302.005,94.6563 301.052,94.4531 300.661,93.9531 C300.349,93.5 300.349,93.4531 300.349,90.8438 L300.349,67.0469 C300.349,64.4531 300.349,64.3906 300.661,63.9531 C301.099,63.3906 302.005,63.25 304.849,63.25 L305.755,63.25 L305.755,60.8906 L289.552,60.8906 L289.552,63.25 L290.255,63.25 C293.099,63.25 294.005,63.3906 294.458,63.9531 C294.755,64.3906 294.755,64.5 294.755,67.0469 L294.755,76.9531 L278.005,76.9531 L278.005,67.0469 C278.005,64.5 278.005,64.3906 278.349,63.9531 C278.755,63.3906 279.646,63.25 282.505,63.25 L283.458,63.25 L283.458,60.8906 L267.005,60.8906 L267.005,63.25 L267.896,63.25 C270.755,63.25 271.646,63.3906 272.099,63.9531 C272.396,64.3906 272.396,64.5 272.396,67.0469 L272.396,90.8438 C272.396,93.3438 272.396,93.5 272.099,93.9531 C271.708,94.4531 270.755,94.6563 267.896,94.6563 L267.005,94.6563 L267.005,97 L283.458,97 L283.458,94.6563 L282.505,94.6563 C279.646,94.5938 278.755,94.4531 278.349,93.9531 C278.005,93.5 278.005,93.4063 278.005,90.8438 L278.005,79.6563 L294.755,79.6563 M330.146,80.9063 C330.146,77.75 329.599,76.1563 328.146,74.9531 C326.505,73.5938 324.052,72.9531 320.849,72.9531 C315.208,72.9531 311.099,75.5938 311.099,79.25 C311.099,81.0938 312.255,82.2969 314.005,82.2969 C315.599,82.2969 316.708,81.25 316.708,79.75 C316.708,79.0938 316.458,78.4063 315.958,77.7031 C315.646,77.3438 315.599,77.25 315.599,77 C315.599,76 317.599,75.0938 320.005,75.0938 C321.599,75.0938 323.349,75.5938 324.146,76.3438 C325.099,77.1563 325.458,78.3438 325.458,80.5938 L325.458,82.5469 C320.255,83.4531 318.599,83.8438 316.146,84.7969 C311.802,86.4063 309.755,88.7031 309.755,91.9063 C309.755,95.5 312.552,97.75 317.005,97.75 C320.458,97.75 323.552,96.3438 325.708,93.7969 C326.505,96.3438 327.755,97.3438 330.099,97.3438 C332.349,97.3438 334.708,95.9063 334.708,94.4531 C334.708,94.0938 334.505,93.8438 334.208,93.8438 C334.005,93.8438 333.802,93.9063 333.458,94.0469 C332.755,94.3438 332.458,94.4063 332.052,94.4063 C330.646,94.4063 330.146,93.5 330.146,90.9531 L330.146,80.9063 M325.458,87 C325.458,90 325.302,90.7031 324.458,92 C323.208,93.8438 320.958,95.0938 318.755,95.0938 C316.458,95.0938 314.802,93.4531 314.802,91.2031 C314.802,89.0938 315.849,87.5938 318.052,86.5469 C319.599,85.8438 321.552,85.3438 325.458,84.7031 L325.458,87 M345.755,60.1406 L336.505,60.7031 L336.505,62.8438 L338.958,62.8438 C340.802,62.8906 341.052,63.2031 341.052,65.3438 L341.052,90.8438 L341.052,93.2031 C341.005,93.9531 340.958,94.25 340.755,94.5 C340.396,94.9531 339.458,95.1563 337.302,95.2031 L336.958,95.2031 L336.958,97 L349.896,97 L349.896,95.2031 L349.552,95.2031 C346.208,95.0938 345.755,94.8438 345.755,93.0469 L345.755,90.8438 L345.755,60.1406 M360.552,60.1406 L351.958,60.7031 L351.958,62.8438 L353.708,62.8438 C355.599,62.8906 355.849,63.2031 355.849,65.3438 L355.849,84.7969 C355.849,91.75 355.552,95.5469 354.958,97.7031 L356.849,97.7031 L359.302,93.7969 C361.349,96.5 363.708,97.75 366.802,97.75 C373.005,97.75 377.552,92.4531 377.552,85.2031 C377.552,78 373.349,72.9531 367.349,72.9531 C364.302,72.9531 362.458,74 360.552,76.8438 L360.552,60.1406 M366.458,75.5 C370.208,75.5 372.302,79.1563 372.302,85.7031 C372.302,92.0469 370.255,95.5938 366.599,95.5938 C362.646,95.5938 360.302,91.9531 360.302,85.7969 C360.302,79.0938 362.458,75.5 366.458,75.5 M393.302,90.9531 L387.599,77.75 C387.458,77.3438 387.349,76.9531 387.349,76.6563 C387.349,75.7969 388.005,75.5 390.052,75.5 L390.755,75.5 L390.755,73.7031 L378.958,73.7031 L378.958,75.5 L379.349,75.5 C381.255,75.5 381.958,76 382.646,77.6563 L391.255,97.75 L393.005,97.75 L400.099,80.2031 C401.505,76.7969 402.708,75.6563 404.755,75.5 L404.958,75.5 L404.958,73.7031 L394.958,73.7031 L394.958,75.5 L395.646,75.5 C397.396,75.5 398.349,76.0938 398.349,77.25 C398.349,77.8438 398.208,78.5938 397.896,79.3438 L393.302,90.9531 M427.802,85.75 C427.849,78.25 423.599,72.9531 417.505,72.9531 C411.099,72.9531 406.302,78.5 406.302,86 C406.302,93.0469 410.849,97.75 417.599,97.75 C422.396,97.75 425.755,95.4063 427.802,90.6563 L426.052,89.7031 C424.005,93.5469 421.896,95.0469 418.552,95.0469 C416.005,95.0469 414.146,94 412.849,91.75 C411.958,90.25 411.552,88.5 411.599,85.75 L427.802,85.75 M411.646,83.5938 C411.646,82.0469 411.849,80.9531 412.349,79.5469 C413.396,76.5469 415.005,75.0938 417.458,75.0938 C420.458,75.0938 422.458,77.75 422.458,81.7969 C422.458,83.2031 422.005,83.5938 420.396,83.5938 L411.646,83.5938 M439.458,73.7031 L430.599,74.25 L430.599,76.4063 L432.646,76.4063 C434.552,76.4531 434.802,76.75 434.802,78.9063 L434.802,90.8438 L434.802,93.2031 C434.755,93.9531 434.708,94.25 434.505,94.5 C434.146,94.9531 433.146,95.1563 431.005,95.2031 L430.802,95.2031 L430.802,97 L444.146,97 L444.146,95.2031 L443.255,95.2031 C439.896,95.0938 439.458,94.8438 439.458,93.0469 L439.458,90.8438 L439.458,90.3438 C439.505,81.9531 442.505,75.5469 446.396,75.3438 C445.708,76.1563 445.505,76.6563 445.505,77.5938 C445.505,79.2031 446.646,80.3438 448.255,80.3438 C450.099,80.3438 451.302,79 451.302,77 C451.302,74.5469 449.599,72.9531 446.958,72.9531 C443.802,72.9531 441.099,75.4531 439.458,79.9063 L439.458,73.7031 M462.599,73.7031 L453.708,74.25 L453.708,76.4063 L455.755,76.4063 C457.646,76.4531 457.896,76.75 457.896,78.9063 L457.896,90.8438 L457.896,92.7969 L457.896,93.2031 C457.849,93.9531 457.802,94.25 457.599,94.5 C457.255,94.9531 456.302,95.1563 454.146,95.2031 L453.958,95.2031 L453.958,97 L466.552,97 L466.552,95.2031 L466.349,95.2031 C463.052,95.0938 462.599,94.8438 462.599,93 L462.599,90.8438 L462.599,83.75 C462.599,79.2969 465.052,76 468.302,76 C471.146,76 472.599,78.0469 472.599,82.0938 L472.599,90.8438 L472.599,93.25 C472.552,93.9063 472.505,94.25 472.255,94.5 C471.958,94.9531 470.958,95.1563 468.802,95.2031 L468.599,95.2031 L468.599,97 L481.255,97 L481.255,95.2031 L481.052,95.2031 C477.755,95.0938 477.302,94.8438 477.302,93.0469 L477.302,90.8438 L477.302,84.2031 C477.302,79.2031 479.552,76 483.052,76 C485.911,76 487.302,78.1563 487.302,82.6563 L487.302,90.8438 L487.302,93.2031 C487.255,93.9063 487.208,94.25 486.958,94.5 C486.661,94.9531 485.661,95.1563 483.505,95.2031 L483.302,95.2031 L483.302,97 L495.958,97 L495.958,95.2031 L495.755,95.2031 C492.458,95.0938 492.005,94.8438 492.005,93 L492.005,90.8438 L492.005,81.6563 C492.005,78.5469 491.708,77.5 490.411,75.7969 C488.958,73.9531 486.911,72.9531 484.505,72.9531 C481.255,72.9531 478.849,74.5 476.708,77.9531 C475.849,74.9531 473.146,72.9531 469.802,72.9531 C466.755,72.9531 464.552,74.4063 462.599,77.5469 L462.599,73.7031 M506.849,73.7031 L497.458,74.25 L497.458,76.4063 L500.005,76.4063 C501.896,76.4531 502.146,76.75 502.146,78.9063 L502.146,90.8438 L502.146,93.2031 C502.099,93.9531 502.052,94.25 501.849,94.5 C501.505,94.9531 500.552,95.1563 498.396,95.2031 L498.052,95.2031 L498.052,97 L511.005,97 L511.005,95.2031 L510.646,95.2031 C507.302,95.0938 506.849,94.8438 506.849,93.0469 L506.849,90.8438 L506.849,73.7031 M504.505,61.25 C502.896,61.25 501.599,62.5469 501.599,64.1406 C501.599,65.75 502.896,67.0469 504.458,67.0469 C506.099,67.0469 507.396,65.75 507.396,64.1406 C507.396,62.5469 506.099,61.25 504.505,61.25 M522.552,73.7031 L513.896,74.25 L513.896,76.4063 L515.708,76.4063 C517.599,76.4531 517.849,76.75 517.849,78.9063 L517.849,90.8438 L517.849,92.0469 L517.849,93.2031 C517.802,93.9531 517.755,94.25 517.552,94.5 C517.208,94.9531 516.255,95.1563 514.099,95.2031 L513.896,95.2031 L513.896,97 L526.552,97 L526.552,95.2031 L526.349,95.2031 C523.005,95.0938 522.552,94.8438 522.552,93.0469 L522.552,90.8438 L522.552,85.6563 C522.552,83.2031 522.896,80.9531 523.458,79.7969 C524.505,77.5469 526.755,76 528.896,76 C530.208,76 531.708,76.7031 532.458,77.75 C533.208,78.8438 533.552,80.3438 533.552,82.75 L533.552,90.8438 L533.552,93.2031 C533.505,93.9531 533.458,94.25 533.255,94.5 C532.896,94.9531 531.896,95.1563 529.755,95.2031 L529.552,95.2031 L529.552,97 L542.208,97 L542.208,95.2031 L542.005,95.2031 C538.708,95.0938 538.255,94.8438 538.255,93.0469 L538.255,90.8438 L538.255,83 C538.255,79.4063 538.099,78.5 537.208,76.7969 C535.958,74.4063 533.458,72.9531 530.458,72.9531 C527.208,72.9531 524.755,74.4531 522.552,77.75 L522.552,73.7031 M562.552,97.3438 L571.255,97 L571.255,94.8438 L570.349,94.8438 C567.505,94.7031 567.255,94.4063 567.255,91.2031 L567.255,60.1406 L557.458,60.7031 L557.458,62.8438 L560.396,62.8438 C562.302,62.8906 562.552,63.2031 562.552,65.3438 L562.552,76.6563 C560.708,74.0938 558.552,72.9531 555.646,72.9531 C550.005,72.9531 545.708,78.4063 545.708,85.5938 C545.708,92.7031 549.849,97.75 555.646,97.75 C558.802,97.75 560.958,96.4063 562.552,93.4063 L562.552,97.3438 M556.646,75.6563 C558.708,75.6563 560.646,77.1563 561.552,79.4531 C562.208,80.9531 562.505,83 562.505,85.4531 C562.505,91.2969 560.208,95.0469 556.599,95.0469 C553.052,95.0469 550.958,91.75 550.958,86.2031 C550.958,83.2031 551.255,80.9531 551.896,79.2969 C552.755,77.0469 554.599,75.6563 556.646,75.6563 M595.802,85.75 C595.849,78.25 591.599,72.9531 585.505,72.9531 C579.099,72.9531 574.302,78.5 574.302,86 C574.302,93.0469 578.849,97.75 585.599,97.75 C590.396,97.75 593.755,95.4063 595.802,90.6563 L594.052,89.7031 C592.005,93.5469 589.896,95.0469 586.552,95.0469 C584.005,95.0469 582.146,94 580.849,91.75 C579.958,90.25 579.552,88.5 579.599,85.75 L595.802,85.75 M579.646,83.5938 C579.646,82.0469 579.849,80.9531 580.349,79.5469 C581.396,76.5469 583.005,75.0938 585.458,75.0938 C588.458,75.0938 590.458,77.75 590.458,81.7969 C590.458,83.2031 590.005,83.5938 588.396,83.5938 L579.646,83.5938 M607.458,73.7031 L598.599,74.25 L598.599,76.4063 L600.646,76.4063 C602.552,76.4531 602.802,76.75 602.802,78.9063 L602.802,90.8438 L602.802,93.2031 C602.755,93.9531 602.708,94.25 602.505,94.5 C602.146,94.9531 601.146,95.1563 599.005,95.2031 L598.802,95.2031 L598.802,97 L612.146,97 L612.146,95.2031 L611.255,95.2031 C607.896,95.0938 607.458,94.8438 607.458,93.0469 L607.458,90.8438 L607.458,90.3438 C607.505,81.9531 610.505,75.5469 614.396,75.3438 C613.708,76.1563 613.505,76.6563 613.505,77.5938 C613.505,79.2031 614.646,80.3438 616.255,80.3438 C618.099,80.3438 619.302,79 619.302,77 C619.302,74.5469 617.599,72.9531 614.958,72.9531 C611.802,72.9531 609.099,75.4531 607.458,79.9063 L607.458,73.7031 M630.255,73.7031 L630.255,63.7969 L628.208,63.7969 C627.708,70.2969 625.505,73.5938 621.458,73.9063 L621.458,75.8438 L625.552,75.8438 L625.552,88.5938 C625.552,92.0938 625.646,93.3438 626.146,94.5 C626.958,96.5938 628.958,97.75 631.849,97.75 C636.349,97.75 639.255,94.3438 639.255,89.0469 C639.255,88.75 639.255,88.4063 639.208,87.9063 L637.099,87.9063 C636.958,92.4063 635.646,94.7031 633.208,94.7031 C632.052,94.7031 631.052,94.0938 630.708,93.25 C630.396,92.5469 630.255,91.2969 630.255,89.5 L630.255,75.8438 L637.599,75.8438 L637.599,73.7031 L630.255,73.7031 M662.802,85.75 C662.849,78.25 658.599,72.9531 652.505,72.9531 C646.099,72.9531 641.302,78.5 641.302,86 C641.302,93.0469 645.849,97.75 652.599,97.75 C657.396,97.75 660.755,95.4063 662.802,90.6563 L661.052,89.7031 C659.005,93.5469 656.896,95.0469 653.552,95.0469 C651.005,95.0469 649.146,94 647.849,91.75 C646.958,90.25 646.552,88.5 646.599,85.75 L662.802,85.75 M646.646,83.5938 C646.646,82.0469 646.849,80.9531 647.349,79.5469 C648.396,76.5469 650.005,75.0938 652.458,75.0938 C655.458,75.0938 657.458,77.75 657.458,81.7969 C657.458,83.2031 657.005,83.5938 655.396,83.5938 L646.646,83.5938 M674.458,73.7031 L665.599,74.25 L665.599,76.4063 L667.646,76.4063 C669.552,76.4531 669.802,76.75 669.802,78.9063 L669.802,90.8438 L669.802,93.2031 C669.755,93.9531 669.708,94.25 669.505,94.5 C669.146,94.9531 668.146,95.1563 666.005,95.2031 L665.802,95.2031 L665.802,97 L679.146,97 L679.146,95.2031 L678.255,95.2031 C674.896,95.0938 674.458,94.8438 674.458,93.0469 L674.458,90.8438 L674.458,90.3438 C674.505,81.9531 677.505,75.5469 681.396,75.3438 C680.708,76.1563 680.505,76.6563 680.505,77.5938 C680.505,79.2031 681.646,80.3438 683.255,80.3438 C685.099,80.3438 686.302,79 686.302,77 C686.302,74.5469 684.599,72.9531 681.958,72.9531 C678.802,72.9531 676.099,75.4531 674.458,79.9063 L674.458,73.7031 M689.255,103.156 C692.302,101.297 693.849,100 695.552,97.9531 C699.349,93.5 701.396,87.75 701.396,81.6563 C701.396,75.9531 699.599,70.5938 696.255,66.2031 C694.349,63.75 692.646,62.2969 689.255,60.2031 L689.255,62.0469 C694.255,66.4531 696.255,72 696.255,81.6563 C696.255,91.2969 694.255,96.9063 689.255,101.297 L689.255,103.156 "
     id="path46" />
</svg>
