<?xml version="1.0" encoding="UTF-8" standalone="no"?>
<svg width="1133.86px" height="552.755px" viewBox="0 0 1133.86 552.755"
 xmlns="http://www.w3.org/2000/svg" xmlns:xlink="http://www.w3.org/1999/xlink" version="1.2" baseProfile="tiny">
<title>Septakkorde (6)</title>
<desc>Generated by MuseScore 3.6.2</desc>
<polyline class="StaffLines" fill="none" stroke="#000000" stroke-width="3.22" stroke-linejoin="bevel" points="0,181.118 1133.86,181.118"/>
<polyline class="StaffLines" fill="none" stroke="#000000" stroke-width="3.22" stroke-linejoin="bevel" points="0,205.921 1133.86,205.921"/>
<polyline class="StaffLines" fill="none" stroke="#000000" stroke-width="3.22" stroke-linejoin="bevel" points="0,230.725 1133.86,230.725"/>
<polyline class="StaffLines" fill="none" stroke="#000000" stroke-width="3.22" stroke-linejoin="bevel" points="0,255.528 1133.86,255.528"/>
<polyline class="StaffLines" fill="none" stroke="#000000" stroke-width="3.22" stroke-linejoin="bevel" points="0,280.331 1133.86,280.331"/>
<polyline class="BarLine" fill="none" stroke="#000000" stroke-width="3.97" stroke-linejoin="bevel" points="900.108,179.506 900.108,281.943"/>
<polyline class="BarLine" fill="none" stroke="#000000" stroke-width="3.97" stroke-linejoin="bevel" points="913.998,179.506 913.998,281.943"/>
<polyline class="BarLine" fill="none" stroke="#000000" stroke-width="3.97" stroke-linejoin="bevel" points="1131.88,179.506 1131.88,281.943"/>
<path class="Accidental" transform="matrix(0.992126,0,0,0.992126,674.957,218.323)" d="M0.796875,-2.59375 C1.20313,-2.59375 3.09375,-3.5 3.40625,-3.70313 C3.5,-3.70313 3.59375,-3.79688 3.70313,-3.79688 C4.40625,-3.79688 5,-2.79688 5,-2 L5,7.90625 C5,9 4.5,9.90625 3.90625,10.2031 C3.29688,10.4063 1.20313,11.2969 1.20313,11.2969 C0.5,11.5 0,12.2969 0,12.9063 L0,20 C0,20.5938 0.296875,20.9063 0.796875,20.9063 C0.90625,20.9063 1.09375,20.7969 1.20313,20.7969 C1.20313,20.7969 2.59375,20.2031 3.5,19.9063 C3.59375,19.7969 3.70313,19.7969 3.79688,19.7969 C4.5,19.7969 5,20.9063 5,21.4063 L5,33.7031 C5,34.2969 5.59375,34.7969 6.29688,34.7969 C7.29688,34.7969 8,34.2969 8,33.7031 L8,19.7969 C8,18.5 8.5,17.7969 9,17.5938 L15.0938,15.0938 C15.2031,15.0938 15.4063,15 15.5,15 C16.2969,15 16.7969,16.2031 16.7969,16.7969 L16.7969,29.2969 C16.7969,29.9063 17.4063,30.4063 18.0938,30.4063 C19.2031,30.4063 19.7969,29.9063 19.7969,29.2969 L19.7969,15.0938 C19.7969,14.2969 20.2031,13.0938 20.9063,12.7969 C21.5938,12.5 23.7031,11.7031 23.7031,11.7031 C24.4063,11.4063 24.9063,10.5938 24.9063,10 L24.9063,2.90625 C24.9063,2.40625 24.5938,2.09375 24.2031,2.09375 C24,2.09375 23.9063,2.09375 23.7031,2.20313 L21.0938,3.20313 C20.5,3.20313 19.7969,2.59375 19.7969,1.40625 L19.7969,-7.90625 C19.7969,-8.59375 20.2969,-10.5 21.0938,-10.7969 L23.7031,-11.7969 C24.4063,-12.0938 24.9063,-12.9063 24.9063,-13.5 L24.9063,-20.5938 C24.9063,-21.0938 24.5938,-21.4063 24.2031,-21.4063 C24,-21.4063 23.9063,-21.4063 23.7031,-21.2969 C23.7031,-21.2969 21.7031,-20.5 21.2031,-20.4063 C20.5,-20.4063 19.7969,-20.9063 19.7969,-21.7031 L19.7969,-33.9063 C19.7969,-34.5 19.2031,-35 18.4063,-35 C17.4063,-35 16.7969,-34.5 16.7969,-33.9063 L16.7969,-20.9063 C16.7031,-19.9063 16.4063,-18.5938 15.5,-18 C14.2969,-17.2969 10.9063,-15.9063 9.20313,-15.5 C8.29688,-15.5 8,-16.7031 8,-17.5 L8,-29.5 C8,-30.1094 7.29688,-30.6094 6.59375,-30.6094 C5.59375,-30.6094 5,-30.1094 5,-29.5 L5,-16 C5,-14.5938 4.40625,-13.5938 3.79688,-13.2969 C3.20313,-13 1.20313,-12.2031 1.20313,-12.2031 C0.5,-12 0,-11.2031 0,-10.5938 L0,-3.5 C0,-2.90625 0.296875,-2.59375 0.796875,-2.59375 M7.70313,3 C7.70313,-0.09375 7.79688,-3.59375 8,-4.40625 C8.20313,-6.09375 12.7969,-8.20313 15.2969,-8.20313 C16,-8.20313 16.5938,-8 16.7969,-7.59375 C17,-7.09375 17.2031,-4.59375 17.2031,-1.90625 C17.2031,0.796875 17,3.59375 16.7969,4.5 C16.2031,6.5 11.5,8.5 9.20313,8.5 C8.59375,8.5 8.09375,8.29688 8,8 C7.79688,7.59375 7.70313,5.40625 7.70313,3"/>
<path class="Accidental" transform="matrix(0.992126,0,0,0.992126,932.104,218.323)" d="M0.796875,-2.59375 C1.20313,-2.59375 3.09375,-3.5 3.40625,-3.70313 C3.5,-3.70313 3.59375,-3.79688 3.70313,-3.79688 C4.40625,-3.79688 5,-2.79688 5,-2 L5,7.90625 C5,9 4.5,9.90625 3.90625,10.2031 C3.29688,10.4063 1.20313,11.2969 1.20313,11.2969 C0.5,11.5 0,12.2969 0,12.9063 L0,20 C0,20.5938 0.296875,20.9063 0.796875,20.9063 C0.90625,20.9063 1.09375,20.7969 1.20313,20.7969 C1.20313,20.7969 2.59375,20.2031 3.5,19.9063 C3.59375,19.7969 3.70313,19.7969 3.79688,19.7969 C4.5,19.7969 5,20.9063 5,21.4063 L5,33.7031 C5,34.2969 5.59375,34.7969 6.29688,34.7969 C7.29688,34.7969 8,34.2969 8,33.7031 L8,19.7969 C8,18.5 8.5,17.7969 9,17.5938 L15.0938,15.0938 C15.2031,15.0938 15.4063,15 15.5,15 C16.2969,15 16.7969,16.2031 16.7969,16.7969 L16.7969,29.2969 C16.7969,29.9063 17.4063,30.4063 18.0938,30.4063 C19.2031,30.4063 19.7969,29.9063 19.7969,29.2969 L19.7969,15.0938 C19.7969,14.2969 20.2031,13.0938 20.9063,12.7969 C21.5938,12.5 23.7031,11.7031 23.7031,11.7031 C24.4063,11.4063 24.9063,10.5938 24.9063,10 L24.9063,2.90625 C24.9063,2.40625 24.5938,2.09375 24.2031,2.09375 C24,2.09375 23.9063,2.09375 23.7031,2.20313 L21.0938,3.20313 C20.5,3.20313 19.7969,2.59375 19.7969,1.40625 L19.7969,-7.90625 C19.7969,-8.59375 20.2969,-10.5 21.0938,-10.7969 L23.7031,-11.7969 C24.4063,-12.0938 24.9063,-12.9063 24.9063,-13.5 L24.9063,-20.5938 C24.9063,-21.0938 24.5938,-21.4063 24.2031,-21.4063 C24,-21.4063 23.9063,-21.4063 23.7031,-21.2969 C23.7031,-21.2969 21.7031,-20.5 21.2031,-20.4063 C20.5,-20.4063 19.7969,-20.9063 19.7969,-21.7031 L19.7969,-33.9063 C19.7969,-34.5 19.2031,-35 18.4063,-35 C17.4063,-35 16.7969,-34.5 16.7969,-33.9063 L16.7969,-20.9063 C16.7031,-19.9063 16.4063,-18.5938 15.5,-18 C14.2969,-17.2969 10.9063,-15.9063 9.20313,-15.5 C8.29688,-15.5 8,-16.7031 8,-17.5 L8,-29.5 C8,-30.1094 7.29688,-30.6094 6.59375,-30.6094 C5.59375,-30.6094 5,-30.1094 5,-29.5 L5,-16 C5,-14.5938 4.40625,-13.5938 3.79688,-13.2969 C3.20313,-13 1.20313,-12.2031 1.20313,-12.2031 C0.5,-12 0,-11.2031 0,-10.5938 L0,-3.5 C0,-2.90625 0.296875,-2.59375 0.796875,-2.59375 M7.70313,3 C7.70313,-0.09375 7.79688,-3.59375 8,-4.40625 C8.20313,-6.09375 12.7969,-8.20313 15.2969,-8.20313 C16,-8.20313 16.5938,-8 16.7969,-7.59375 C17,-7.09375 17.2031,-4.59375 17.2031,-1.90625 C17.2031,0.796875 17,3.59375 16.7969,4.5 C16.2031,6.5 11.5,8.5 9.20313,8.5 C8.59375,8.5 8.09375,8.29688 8,8 C7.79688,7.59375 7.70313,5.40625 7.70313,3"/>
<path class="Note" transform="matrix(0.992126,0,0,0.992126,148.416,292.732)" d="M0,-0.203125 C0,7.09375 6.20313,13.5938 22.4063,13.5938 C40.2031,13.5938 45.9063,7.40625 45.9063,-0.203125 C45.9063,-7.90625 33.6094,-13.7031 23.5,-13.7031 C9,-13.7031 0,-7.59375 0,-0.203125 M11.7031,-4.20313 C11.7031,-9.79688 15.5938,-11.2031 20.7031,-11.2031 C28.1094,-11.2031 34.1094,-3.20313 34.1094,3.40625 C34.1094,8.90625 30.7031,11.0938 25.7969,11.0938 C18.5938,11.0938 11.7031,2.79688 11.7031,-4.20313"/>
<path class="Note" transform="matrix(0.992126,0,0,0.992126,334.231,267.929)" d="M0,-0.203125 C0,7.09375 6.20313,13.5938 22.4063,13.5938 C40.2031,13.5938 45.9063,7.40625 45.9063,-0.203125 C45.9063,-7.90625 33.6094,-13.7031 23.5,-13.7031 C9,-13.7031 0,-7.59375 0,-0.203125 M11.7031,-4.20313 C11.7031,-9.79688 15.5938,-11.2031 20.7031,-11.2031 C28.1094,-11.2031 34.1094,-3.20313 34.1094,3.40625 C34.1094,8.90625 30.7031,11.0938 25.7969,11.0938 C18.5938,11.0938 11.7031,2.79688 11.7031,-4.20313"/>
<path class="Note" transform="matrix(0.992126,0,0,0.992126,520.045,243.126)" d="M0,-0.203125 C0,7.09375 6.20313,13.5938 22.4063,13.5938 C40.2031,13.5938 45.9063,7.40625 45.9063,-0.203125 C45.9063,-7.90625 33.6094,-13.7031 23.5,-13.7031 C9,-13.7031 0,-7.59375 0,-0.203125 M11.7031,-4.20313 C11.7031,-9.79688 15.5938,-11.2031 20.7031,-11.2031 C28.1094,-11.2031 34.1094,-3.20313 34.1094,3.40625 C34.1094,8.90625 30.7031,11.0938 25.7969,11.0938 C18.5938,11.0938 11.7031,2.79688 11.7031,-4.20313"/>
<path class="Note" transform="matrix(0.992126,0,0,0.992126,705.86,218.323)" d="M0,-0.203125 C0,7.09375 6.20313,13.5938 22.4063,13.5938 C40.2031,13.5938 45.9063,7.40625 45.9063,-0.203125 C45.9063,-7.90625 33.6094,-13.7031 23.5,-13.7031 C9,-13.7031 0,-7.59375 0,-0.203125 M11.7031,-4.20313 C11.7031,-9.79688 15.5938,-11.2031 20.7031,-11.2031 C28.1094,-11.2031 34.1094,-3.20313 34.1094,3.40625 C34.1094,8.90625 30.7031,11.0938 25.7969,11.0938 C18.5938,11.0938 11.7031,2.79688 11.7031,-4.20313"/>
<path class="Note" transform="matrix(0.992126,0,0,0.992126,963.007,292.732)" d="M0,-0.203125 C0,7.09375 6.20313,13.5938 22.4063,13.5938 C40.2031,13.5938 45.9063,7.40625 45.9063,-0.203125 C45.9063,-7.90625 33.6094,-13.7031 23.5,-13.7031 C9,-13.7031 0,-7.59375 0,-0.203125 M11.7031,-4.20313 C11.7031,-9.79688 15.5938,-11.2031 20.7031,-11.2031 C28.1094,-11.2031 34.1094,-3.20313 34.1094,3.40625 C34.1094,8.90625 30.7031,11.0938 25.7969,11.0938 C18.5938,11.0938 11.7031,2.79688 11.7031,-4.20313"/>
<path class="Note" transform="matrix(0.992126,0,0,0.992126,963.007,267.929)" d="M0,-0.203125 C0,7.09375 6.20313,13.5938 22.4063,13.5938 C40.2031,13.5938 45.9063,7.40625 45.9063,-0.203125 C45.9063,-7.90625 33.6094,-13.7031 23.5,-13.7031 C9,-13.7031 0,-7.59375 0,-0.203125 M11.7031,-4.20313 C11.7031,-9.79688 15.5938,-11.2031 20.7031,-11.2031 C28.1094,-11.2031 34.1094,-3.20313 34.1094,3.40625 C34.1094,8.90625 30.7031,11.0938 25.7969,11.0938 C18.5938,11.0938 11.7031,2.79688 11.7031,-4.20313"/>
<path class="Note" transform="matrix(0.992126,0,0,0.992126,963.007,243.126)" d="M0,-0.203125 C0,7.09375 6.20313,13.5938 22.4063,13.5938 C40.2031,13.5938 45.9063,7.40625 45.9063,-0.203125 C45.9063,-7.90625 33.6094,-13.7031 23.5,-13.7031 C9,-13.7031 0,-7.59375 0,-0.203125 M11.7031,-4.20313 C11.7031,-9.79688 15.5938,-11.2031 20.7031,-11.2031 C28.1094,-11.2031 34.1094,-3.20313 34.1094,3.40625 C34.1094,8.90625 30.7031,11.0938 25.7969,11.0938 C18.5938,11.0938 11.7031,2.79688 11.7031,-4.20313"/>
<path class="Note" transform="matrix(0.992126,0,0,0.992126,963.007,218.323)" d="M0,-0.203125 C0,7.09375 6.20313,13.5938 22.4063,13.5938 C40.2031,13.5938 45.9063,7.40625 45.9063,-0.203125 C45.9063,-7.90625 33.6094,-13.7031 23.5,-13.7031 C9,-13.7031 0,-7.59375 0,-0.203125 M11.7031,-4.20313 C11.7031,-9.79688 15.5938,-11.2031 20.7031,-11.2031 C28.1094,-11.2031 34.1094,-3.20313 34.1094,3.40625 C34.1094,8.90625 30.7031,11.0938 25.7969,11.0938 C18.5938,11.0938 11.7031,2.79688 11.7031,-4.20313"/>
<path class="Clef" transform="matrix(0.992126,0,0,0.992126,19.8425,255.528)" d="M36.4063,25.2031 C38.7031,25.2031 41.2969,25 43.2969,24.5938 C44.4063,24.4063 44.6094,24.2969 44.7969,25.5 C46,32.2031 47.5,40.9063 47.5,45.6094 C47.5,60.4063 37.5,62.2031 31.6094,62.2031 C26.2031,62.2031 23.5938,60.6094 23.5938,59.2969 C23.5938,58.6094 24.5,58.2969 26.7969,57.6094 C29.9063,56.7031 33.5,54 33.5,48.2031 C33.5,42.7031 30,38 23.9063,38 C17.2031,38 13.2031,43.2969 13.2031,49.5 C13.2031,56 17.0938,65.7969 32.2031,65.7969 C38.9063,65.7969 51.9063,62.7969 51.9063,45.7969 C51.9063,40.1094 50.1094,30.6094 49,24.4063 C48.7969,23.2031 48.9063,23.2969 50.2969,22.7031 C60.4063,18.7031 67.1094,10.2031 67.1094,-1.09375 C67.1094,-13.9063 57.7031,-25.2031 43,-25.2031 C40.4063,-25.2031 40.4063,-25.2031 40.1094,-27 L37.6094,-41.5 C37.4063,-42.7031 37.6094,-42.7969 38.2031,-43.4063 C49,-53.5 57.2031,-66.2031 57.2031,-81.5 C57.2031,-90.2031 54.7969,-98.8125 50.7031,-104.813 C49.2031,-107 46.6094,-109.813 45.5,-109.813 C44.1094,-109.813 41,-107.203 39,-105 C31.6094,-96.8125 29.2031,-84.3125 29.2031,-73.9063 C29.2031,-68.1094 29.9063,-61.6094 30.6094,-57.5 C30.7969,-56.2969 30.9063,-56.1094 29.7031,-55.1094 C15.2969,-43.2031 0,-28.9063 0,-8.70313 C0,8.70313 11.9063,25.2031 36.4063,25.2031 M8,-2 C8,-7.90625 9,-15.7969 17.2969,-25.2031 C23.2969,-31.9063 27.9063,-35.6094 32.6094,-39.4063 C33.6094,-40.2031 33.7969,-40.1094 34,-39 L36.1094,-26.2031 C36.4063,-24.2969 36.4063,-24.4063 34.6094,-23.7969 C25.7969,-20.7969 20.0938,-12.9063 20.0938,-4.40625 C20.0938,4.59375 24.7969,11 31.6094,13.2969 C32.4063,13.5938 33.6094,13.9063 34.2969,13.9063 C35.1094,13.9063 35.5,13.4063 35.5,12.7969 C35.5,12.0938 34.7031,11.7969 34,11.5 C29.7969,9.70313 26.7969,5.40625 26.7969,0.796875 C26.7969,-4.90625 30.7031,-9.20313 36.7969,-10.9063 C38.4063,-11.2969 38.6094,-11.2031 38.7969,-10.0938 L43.7969,19.7031 C44,20.7969 43.9063,20.7969 42.4063,21.0938 C40.7969,21.4063 38.7969,21.5938 36.7969,21.5938 C19.2969,21.5938 8,11.9063 8,-2 M47,-94.3125 C50.2969,-94.3125 53,-91.6094 53,-86.1094 C53,-75 43.5,-66 35.6094,-59.1094 C34.9063,-58.5 34.5,-58.6094 34.2969,-59.9063 C33.9063,-62.5 33.7031,-65.9063 33.7031,-69.1094 C33.7031,-84.7031 40.9063,-94.3125 47,-94.3125 M44.1094,-11.7031 C52.2031,-11 58.9063,-4.20313 58.9063,4.59375 C58.9063,10.9063 55.1094,16 49.5,18.7969 C48.2969,19.4063 48.1094,19.4063 47.9063,18.2031 L43,-10.2969 C42.7969,-11.5 42.9063,-11.7969 44.1094,-11.7031"/>
<path class="StaffText" d="M209.869,424.629 L209.869,399.864 L200.619,400.426 L200.619,402.567 L203.01,402.567 C204.916,402.614 205.166,402.926 205.166,405.067 L205.166,430.567 L205.166,432.973 C205.119,433.676 205.072,433.973 204.869,434.223 C204.51,434.676 203.572,434.879 201.416,434.926 L201.213,434.926 L201.213,436.723 L213.869,436.723 L213.869,434.926 L213.666,434.926 C210.322,434.817 209.869,434.567 209.869,432.77 L209.869,430.567 L209.869,427.723 L212.916,424.817 L218.869,433.176 C219.119,433.567 219.213,433.817 219.213,434.02 C219.213,434.723 218.666,434.926 217.01,434.926 L216.072,434.926 L216.072,436.723 L229.275,436.723 L229.275,434.926 C226.463,434.676 225.463,434.067 223.416,431.473 L216.322,421.77 L218.572,419.567 C221.51,416.723 223.619,415.629 227.025,415.223 L227.025,413.426 L213.869,413.426 L213.869,415.223 L215.416,415.223 C217.01,415.223 217.76,415.52 217.76,416.176 C217.76,416.723 217.416,417.317 216.619,418.129 L209.869,424.629 M241.119,399.864 L231.869,400.426 L231.869,402.567 L234.322,402.567 C236.166,402.614 236.416,402.926 236.416,405.067 L236.416,430.567 L236.416,432.926 C236.369,433.676 236.322,433.973 236.119,434.223 C235.76,434.676 234.822,434.879 232.666,434.926 L232.322,434.926 L232.322,436.723 L245.26,436.723 L245.26,434.926 L244.916,434.926 C241.572,434.817 241.119,434.567 241.119,432.77 L241.119,430.567 L241.119,399.864 M252.76,431.176 C251.01,431.176 249.619,432.567 249.619,434.27 C249.619,436.02 251.01,437.426 252.713,437.426 C254.463,437.426 255.869,436.02 255.869,434.27 C255.869,432.567 254.463,431.176 252.76,431.176 M291.213,418.317 C295.76,416.676 297.869,414.129 297.869,410.114 C297.869,404.864 293.869,401.52 287.666,401.52 C281.822,401.52 277.369,404.973 277.369,409.52 C277.369,411.567 278.713,413.02 280.666,413.02 C282.416,413.02 283.619,411.817 283.619,410.02 C283.619,408.926 283.213,408.27 282.072,407.473 C281.572,407.114 281.416,406.926 281.416,406.567 C281.416,405.176 284.322,403.676 287.166,403.676 C290.76,403.676 292.666,405.926 292.666,410.176 C292.666,414.817 290.76,417.27 287.213,417.27 C286.76,417.27 285.916,417.223 285.166,417.176 C284.76,417.129 284.369,417.129 284.072,417.129 C283.01,417.129 282.463,417.567 282.463,418.473 C282.463,419.317 282.963,419.723 284.072,419.723 C284.369,419.723 284.76,419.723 285.213,419.676 C286.213,419.629 287.01,419.629 287.572,419.629 C291.26,419.629 293.26,422.27 293.26,427.223 C293.26,432.426 290.76,435.317 286.26,435.317 C283.119,435.317 279.713,433.629 279.713,432.067 C279.713,431.629 279.822,431.52 280.76,430.973 C282.166,430.129 282.713,429.27 282.713,428.02 C282.713,426.223 281.369,424.879 279.572,424.879 C277.416,424.879 276.01,426.629 276.01,429.27 C276.01,434.129 280.463,437.473 286.869,437.473 C294.119,437.473 298.822,433.473 298.822,427.317 C298.822,422.629 296.416,419.77 291.213,418.317"/>
<path class="StaffText" d="M401.84,535.927 C399.09,535.88 398.95,535.833 398.34,535.474 C397.997,535.287 397.747,534.724 397.747,534.177 C397.747,532.677 399.09,532.037 402.45,531.927 C407.137,531.833 407.887,531.724 409.59,530.974 C412.59,529.63 414.247,527.037 414.247,523.724 C414.247,521.724 413.794,520.474 412.45,518.833 C413.294,517.927 413.747,517.63 414.137,517.63 C414.387,517.63 414.544,517.787 414.637,518.333 C414.84,519.537 415.637,520.177 416.887,520.177 C418.2,520.177 419.153,519.13 419.153,517.787 C419.153,516.083 417.794,514.88 415.84,514.88 C414.247,514.88 413.34,515.38 411.044,517.474 C408.95,516.083 407.34,515.583 404.84,515.583 C398.887,515.583 394.997,518.88 394.997,523.88 C394.997,526.833 396.59,529.333 399.2,530.583 C395.84,531.333 394.45,532.833 394.45,535.583 C394.45,537.787 395.45,539.083 397.794,539.88 C394.7,541.037 393.2,542.583 393.2,544.63 C393.2,546.13 394.2,547.537 395.794,548.38 C397.747,549.38 400.137,549.787 403.747,549.787 C412.09,549.787 416.247,547.13 416.247,541.88 C416.247,539.38 415.09,537.38 413.294,536.63 C411.95,536.13 410.34,535.927 406.95,535.927 L401.84,535.927 M404.794,517.724 C407.887,517.724 409.637,519.88 409.637,523.787 C409.637,527.677 407.747,530.037 404.59,530.037 C401.497,530.037 399.544,527.677 399.544,523.927 C399.544,519.974 401.45,517.724 404.794,517.724 M404.34,540.224 C408.497,540.224 408.794,540.224 409.497,540.333 C411.544,540.537 412.747,541.63 412.747,543.224 C412.747,546.083 409.497,547.724 403.95,547.724 C399.7,547.724 397.34,546.474 397.34,544.224 C397.34,542.583 398.247,541.474 400.637,540.224 L404.34,540.224 M429.95,516.333 L421.09,516.88 L421.09,519.037 L423.137,519.037 C425.044,519.083 425.294,519.38 425.294,521.537 L425.294,533.474 L425.294,535.833 C425.247,536.583 425.2,536.88 424.997,537.13 C424.637,537.583 423.637,537.787 421.497,537.833 L421.294,537.833 L421.294,539.63 L434.637,539.63 L434.637,537.833 L433.747,537.833 C430.387,537.724 429.95,537.474 429.95,535.677 L429.95,533.474 L429.95,532.974 C429.997,524.583 432.997,518.177 436.887,517.974 C436.2,518.787 435.997,519.287 435.997,520.224 C435.997,521.833 437.137,522.974 438.747,522.974 C440.59,522.974 441.794,521.63 441.794,519.63 C441.794,517.177 440.09,515.583 437.45,515.583 C434.294,515.583 431.59,518.083 429.95,522.537 L429.95,516.333 M444.887,534.083 C443.137,534.083 441.747,535.474 441.747,537.177 C441.747,538.927 443.137,540.333 444.84,540.333 C446.59,540.333 447.997,538.927 447.997,537.177 C447.997,535.474 446.59,534.083 444.887,534.083 M468.997,516.537 L471.2,516.88 L472.09,512.927 C472.84,509.63 473.2,509.13 474.637,509.13 C474.887,509.13 475.294,509.13 475.747,509.177 C481.887,509.474 481.887,509.474 484.2,509.474 C484.84,509.474 485.997,509.474 487.387,509.427 L483.997,516.287 C480.294,523.63 479.84,524.537 478.59,527.63 C477.044,531.38 476.247,534.537 476.247,536.63 C476.247,538.927 477.45,540.333 479.387,540.333 C481.794,540.333 482.747,538.724 482.7,534.38 C482.45,527.177 483.34,523.677 488.7,511.974 C489.45,510.38 490.2,508.833 490.95,507.271 C490.997,507.177 491.137,506.724 491.45,506.083 L491.45,504.63 C488.45,504.88 486.84,504.974 483.747,504.974 C479.387,504.974 475.95,504.833 470.544,504.427 L468.997,516.537 "/>
<path class="StaffText" d="M401.969,437.199 C399.219,437.152 399.078,437.106 398.469,436.746 C398.125,436.559 397.875,435.996 397.875,435.449 C397.875,433.949 399.219,433.309 402.578,433.199 C407.266,433.106 408.016,432.996 409.719,432.246 C412.719,430.902 414.375,428.309 414.375,424.996 C414.375,422.996 413.922,421.746 412.578,420.106 C413.422,419.199 413.875,418.902 414.266,418.902 C414.516,418.902 414.672,419.059 414.766,419.606 C414.969,420.809 415.766,421.449 417.016,421.449 C418.328,421.449 419.281,420.402 419.281,419.059 C419.281,417.356 417.922,416.152 415.969,416.152 C414.375,416.152 413.469,416.652 411.172,418.746 C409.078,417.356 407.469,416.856 404.969,416.856 C399.016,416.856 395.125,420.152 395.125,425.152 C395.125,428.106 396.719,430.606 399.328,431.856 C395.969,432.606 394.578,434.106 394.578,436.856 C394.578,439.059 395.578,440.356 397.922,441.152 C394.828,442.309 393.328,443.856 393.328,445.902 C393.328,447.402 394.328,448.809 395.922,449.652 C397.875,450.652 400.266,451.059 403.875,451.059 C412.219,451.059 416.375,448.402 416.375,443.152 C416.375,440.652 415.219,438.652 413.422,437.902 C412.078,437.402 410.469,437.199 407.078,437.199 L401.969,437.199 M404.922,418.996 C408.016,418.996 409.766,421.152 409.766,425.059 C409.766,428.949 407.875,431.309 404.719,431.309 C401.625,431.309 399.672,428.949 399.672,425.199 C399.672,421.246 401.578,418.996 404.922,418.996 M404.469,441.496 C408.625,441.496 408.922,441.496 409.625,441.606 C411.672,441.809 412.875,442.902 412.875,444.496 C412.875,447.356 409.625,448.996 404.078,448.996 C399.828,448.996 397.469,447.746 397.469,445.496 C397.469,443.856 398.375,442.746 400.766,441.496 L404.469,441.496 M430.078,417.606 L421.219,418.152 L421.219,420.309 L423.266,420.309 C425.172,420.356 425.422,420.652 425.422,422.809 L425.422,434.746 L425.422,437.106 C425.375,437.856 425.328,438.152 425.125,438.402 C424.766,438.856 423.766,439.059 421.625,439.106 L421.422,439.106 L421.422,440.902 L434.766,440.902 L434.766,439.106 L433.875,439.106 C430.516,438.996 430.078,438.746 430.078,436.949 L430.078,434.746 L430.078,434.246 C430.125,425.856 433.125,419.449 437.016,419.246 C436.328,420.059 436.125,420.559 436.125,421.496 C436.125,423.106 437.266,424.246 438.875,424.246 C440.719,424.246 441.922,422.902 441.922,420.902 C441.922,418.449 440.219,416.856 437.578,416.856 C434.422,416.856 431.719,419.356 430.078,423.809 L430.078,417.606 M445.016,435.356 C443.266,435.356 441.875,436.746 441.875,438.449 C441.875,440.199 443.266,441.606 444.969,441.606 C446.719,441.606 448.125,440.199 448.125,438.449 C448.125,436.746 446.719,435.356 445.016,435.356 M483.469,422.496 C488.016,420.856 490.125,418.309 490.125,414.293 C490.125,409.043 486.125,405.699 479.922,405.699 C474.078,405.699 469.625,409.152 469.625,413.699 C469.625,415.746 470.969,417.199 472.922,417.199 C474.672,417.199 475.875,415.996 475.875,414.199 C475.875,413.106 475.469,412.449 474.328,411.652 C473.828,411.293 473.672,411.106 473.672,410.746 C473.672,409.356 476.578,407.856 479.422,407.856 C483.016,407.856 484.922,410.106 484.922,414.356 C484.922,418.996 483.016,421.449 479.469,421.449 C479.016,421.449 478.172,421.402 477.422,421.356 C477.016,421.309 476.625,421.309 476.328,421.309 C475.266,421.309 474.719,421.746 474.719,422.652 C474.719,423.496 475.219,423.902 476.328,423.902 C476.625,423.902 477.016,423.902 477.469,423.856 C478.469,423.809 479.266,423.809 479.828,423.809 C483.516,423.809 485.516,426.449 485.516,431.402 C485.516,436.606 483.016,439.496 478.516,439.496 C475.375,439.496 471.969,437.809 471.969,436.246 C471.969,435.809 472.078,435.699 473.016,435.152 C474.422,434.309 474.969,433.449 474.969,432.199 C474.969,430.402 473.625,429.059 471.828,429.059 C469.672,429.059 468.266,430.809 468.266,433.449 C468.266,438.309 472.719,441.652 479.125,441.652 C486.375,441.652 491.078,437.652 491.078,431.496 C491.078,426.809 488.672,423.949 483.469,422.496"/>
<path class="StaffText" d="M587.783,433.02 C585.033,432.973 584.893,432.926 584.283,432.567 C583.94,432.379 583.69,431.817 583.69,431.27 C583.69,429.77 585.033,429.129 588.393,429.02 C593.08,428.926 593.83,428.817 595.533,428.067 C598.533,426.723 600.19,424.129 600.19,420.817 C600.19,418.817 599.736,417.567 598.393,415.926 C599.236,415.02 599.69,414.723 600.08,414.723 C600.33,414.723 600.486,414.879 600.58,415.426 C600.783,416.629 601.58,417.27 602.83,417.27 C604.143,417.27 605.096,416.223 605.096,414.879 C605.096,413.176 603.736,411.973 601.783,411.973 C600.19,411.973 599.283,412.473 596.986,414.567 C594.893,413.176 593.283,412.676 590.783,412.676 C584.83,412.676 580.94,415.973 580.94,420.973 C580.94,423.926 582.533,426.426 585.143,427.676 C581.783,428.426 580.393,429.926 580.393,432.676 C580.393,434.879 581.393,436.176 583.736,436.973 C580.643,438.129 579.143,439.676 579.143,441.723 C579.143,443.223 580.143,444.629 581.736,445.473 C583.69,446.473 586.08,446.879 589.69,446.879 C598.033,446.879 602.19,444.223 602.19,438.973 C602.19,436.473 601.033,434.473 599.236,433.723 C597.893,433.223 596.283,433.02 592.893,433.02 L587.783,433.02 M590.736,414.817 C593.83,414.817 595.58,416.973 595.58,420.879 C595.58,424.77 593.69,427.129 590.533,427.129 C587.44,427.129 585.486,424.77 585.486,421.02 C585.486,417.067 587.393,414.817 590.736,414.817 M590.283,437.317 C594.44,437.317 594.736,437.317 595.44,437.426 C597.486,437.629 598.69,438.723 598.69,440.317 C598.69,443.176 595.44,444.817 589.893,444.817 C585.643,444.817 583.283,443.567 583.283,441.317 C583.283,439.676 584.19,438.567 586.58,437.317 L590.283,437.317 M615.893,413.426 L607.033,413.973 L607.033,416.129 L609.08,416.129 C610.986,416.176 611.236,416.473 611.236,418.629 L611.236,430.567 L611.236,432.926 C611.19,433.676 611.143,433.973 610.94,434.223 C610.58,434.676 609.58,434.879 607.44,434.926 L607.236,434.926 L607.236,436.723 L620.58,436.723 L620.58,434.926 L619.69,434.926 C616.33,434.817 615.893,434.567 615.893,432.77 L615.893,430.567 L615.893,430.067 C615.94,421.676 618.94,415.27 622.83,415.067 C622.143,415.879 621.94,416.379 621.94,417.317 C621.94,418.926 623.08,420.067 624.69,420.067 C626.533,420.067 627.736,418.723 627.736,416.723 C627.736,414.27 626.033,412.676 623.393,412.676 C620.236,412.676 617.533,415.176 615.893,419.629 L615.893,413.426 M630.83,431.176 C629.08,431.176 627.69,432.567 627.69,434.27 C627.69,436.02 629.08,437.426 630.783,437.426 C632.533,437.426 633.94,436.02 633.94,434.27 C633.94,432.567 632.533,431.176 630.83,431.176 M669.283,418.317 C673.83,416.676 675.94,414.129 675.94,410.114 C675.94,404.864 671.94,401.52 665.736,401.52 C659.893,401.52 655.44,404.973 655.44,409.52 C655.44,411.567 656.783,413.02 658.736,413.02 C660.486,413.02 661.69,411.817 661.69,410.02 C661.69,408.926 661.283,408.27 660.143,407.473 C659.643,407.114 659.486,406.926 659.486,406.567 C659.486,405.176 662.393,403.676 665.236,403.676 C668.83,403.676 670.736,405.926 670.736,410.176 C670.736,414.817 668.83,417.27 665.283,417.27 C664.83,417.27 663.986,417.223 663.236,417.176 C662.83,417.129 662.44,417.129 662.143,417.129 C661.08,417.129 660.533,417.567 660.533,418.473 C660.533,419.317 661.033,419.723 662.143,419.723 C662.44,419.723 662.83,419.723 663.283,419.676 C664.283,419.629 665.08,419.629 665.643,419.629 C669.33,419.629 671.33,422.27 671.33,427.223 C671.33,432.426 668.83,435.317 664.33,435.317 C661.19,435.317 657.783,433.629 657.783,432.067 C657.783,431.629 657.893,431.52 658.83,430.973 C660.236,430.129 660.783,429.27 660.783,428.02 C660.783,426.223 659.44,424.879 657.643,424.879 C655.486,424.879 654.08,426.629 654.08,429.27 C654.08,434.129 658.533,437.473 664.94,437.473 C672.19,437.473 676.893,433.473 676.893,427.317 C676.893,422.629 674.486,419.77 669.283,418.317"/>
<path class="SystemText" d="M284.185,33.2969 C281.435,33.25 281.295,33.2031 280.685,32.8438 C280.341,32.6563 280.091,32.0938 280.091,31.5469 C280.091,30.0469 281.435,29.4063 284.795,29.2969 C289.482,29.2031 290.232,29.0938 291.935,28.3438 C294.935,27 296.591,24.4063 296.591,21.0938 C296.591,19.0938 296.138,17.8438 294.795,16.2031 C295.638,15.2969 296.091,15 296.482,15 C296.732,15 296.888,15.1563 296.982,15.7031 C297.185,16.9063 297.982,17.5469 299.232,17.5469 C300.545,17.5469 301.498,16.5 301.498,15.1563 C301.498,13.4531 300.138,12.25 298.185,12.25 C296.591,12.25 295.685,12.75 293.388,14.8438 C291.295,13.4531 289.685,12.9531 287.185,12.9531 C281.232,12.9531 277.341,16.25 277.341,21.25 C277.341,24.2031 278.935,26.7031 281.545,27.9531 C278.185,28.7031 276.795,30.2031 276.795,32.9531 C276.795,35.1563 277.795,36.4531 280.138,37.25 C277.045,38.4063 275.545,39.9531 275.545,42 C275.545,43.5 276.545,44.9063 278.138,45.75 C280.091,46.75 282.482,47.1563 286.091,47.1563 C294.435,47.1563 298.591,44.5 298.591,39.25 C298.591,36.75 297.435,34.75 295.638,34 C294.295,33.5 292.685,33.2969 289.295,33.2969 L284.185,33.2969 M287.138,15.0938 C290.232,15.0938 291.982,17.25 291.982,21.1563 C291.982,25.0469 290.091,27.4063 286.935,27.4063 C283.841,27.4063 281.888,25.0469 281.888,21.2969 C281.888,17.3438 283.795,15.0938 287.138,15.0938 M286.685,37.5938 C290.841,37.5938 291.138,37.5938 291.841,37.7031 C293.888,37.9063 295.091,39 295.091,40.5938 C295.091,43.4531 291.841,45.0938 286.295,45.0938 C282.045,45.0938 279.685,43.8438 279.685,41.5938 C279.685,39.9531 280.591,38.8438 282.982,37.5938 L286.685,37.5938 M312.295,13.7031 L303.435,14.25 L303.435,16.4063 L305.482,16.4063 C307.388,16.4531 307.638,16.75 307.638,18.9063 L307.638,30.8438 L307.638,33.2031 C307.591,33.9531 307.545,34.25 307.341,34.5 C306.982,34.9531 305.982,35.1563 303.841,35.2031 L303.638,35.2031 L303.638,37 L316.982,37 L316.982,35.2031 L316.091,35.2031 C312.732,35.0938 312.295,34.8438 312.295,33.0469 L312.295,30.8438 L312.295,30.3438 C312.341,21.9531 315.341,15.5469 319.232,15.3438 C318.545,16.1563 318.341,16.6563 318.341,17.5938 C318.341,19.2031 319.482,20.3438 321.091,20.3438 C322.935,20.3438 324.138,19 324.138,17 C324.138,14.5469 322.435,12.9531 319.795,12.9531 C316.638,12.9531 313.935,15.4531 312.295,19.9063 L312.295,13.7031 M336.982,12.9531 C330.841,12.9531 326.091,18.4063 326.091,25.4063 C326.091,32.25 330.888,37.75 336.888,37.75 C342.888,37.75 347.685,32.25 347.685,25.3438 C347.685,18.5 342.888,12.9531 336.982,12.9531 M336.982,15.0938 C340.482,15.0938 342.435,18.75 342.435,25.3438 C342.435,32 340.482,35.5938 336.888,35.5938 C333.295,35.5938 331.341,32 331.341,25.4063 C331.341,18.5938 333.232,15.0938 336.982,15.0938 M354.795,30.8438 L354.795,33.2031 C354.732,33.9531 354.685,34.25 354.482,34.5 C354.138,34.9531 353.185,35.1563 351.045,35.2031 L350.841,35.2031 L350.841,37 L359.482,37 L359.482,9.14063 C359.482,4.75 361.388,2.25 364.638,2.25 C367.841,2.25 369.545,4.59375 369.545,9.04688 C369.545,13.4063 368.138,15.2031 364.685,15.2031 L364.185,15.2031 C363.341,15.2031 362.841,15.6563 362.841,16.2969 C362.841,17 363.185,17.25 364.232,17.3438 C365.888,17.4531 366.295,17.5 366.935,17.7969 C369.591,19 370.888,22.0469 370.888,27.25 C370.888,32.4063 369.591,35.8438 367.685,35.8438 C367.091,35.8438 366.732,35.5469 366.732,35.0469 C366.732,34.75 366.732,34.7031 367.091,34 C367.341,33.5938 367.435,33.2031 367.435,32.75 C367.435,31.25 366.295,30.0938 364.732,30.0938 C363.091,30.0938 361.982,31.2969 361.982,33.1563 C361.982,35.9531 364.295,37.75 367.935,37.75 C372.795,37.75 376.138,33.5 376.138,27.2969 C376.138,24.0469 374.998,20.8438 373.138,18.9063 C372.045,17.75 370.935,17.1563 368.935,16.4063 C372.732,14.4531 374.232,12.2969 374.232,8.84375 C374.232,3.54688 370.482,0.140625 364.732,0.140625 C361.295,0.140625 358.435,1.45313 356.732,3.75 C355.185,5.84375 354.795,7.64063 354.795,12.3438 L354.795,30.8438 M401.638,25.75 C401.685,18.25 397.435,12.9531 391.341,12.9531 C384.935,12.9531 380.138,18.5 380.138,26 C380.138,33.0469 384.685,37.75 391.435,37.75 C396.232,37.75 399.591,35.4063 401.638,30.6563 L399.888,29.7031 C397.841,33.5469 395.732,35.0469 392.388,35.0469 C389.841,35.0469 387.982,34 386.685,31.75 C385.795,30.25 385.388,28.5 385.435,25.75 L401.638,25.75 M385.482,23.5938 C385.482,22.0469 385.685,20.9531 386.185,19.5469 C387.232,16.5469 388.841,15.0938 391.295,15.0938 C394.295,15.0938 396.295,17.75 396.295,21.7969 C396.295,23.2031 395.841,23.5938 394.232,23.5938 L385.482,23.5938 M413.295,13.7031 L404.435,14.25 L404.435,16.4063 L406.482,16.4063 C408.388,16.4531 408.638,16.75 408.638,18.9063 L408.638,30.8438 L408.638,33.2031 C408.591,33.9531 408.545,34.25 408.341,34.5 C407.982,34.9531 406.982,35.1563 404.841,35.2031 L404.638,35.2031 L404.638,37 L417.982,37 L417.982,35.2031 L417.091,35.2031 C413.732,35.0938 413.295,34.8438 413.295,33.0469 L413.295,30.8438 L413.295,30.3438 C413.341,21.9531 416.341,15.5469 420.232,15.3438 C419.545,16.1563 419.341,16.6563 419.341,17.5938 C419.341,19.2031 420.482,20.3438 422.091,20.3438 C423.935,20.3438 425.138,19 425.138,17 C425.138,14.5469 423.435,12.9531 420.795,12.9531 C417.638,12.9531 414.935,15.4531 413.295,19.9063 L413.295,13.7031 M453.732,0.890625 L440.841,0.890625 L440.841,3.25 L441.795,3.25 C444.638,3.29688 445.591,3.45313 445.935,3.95313 C446.295,4.39063 446.295,4.45313 446.295,7.04688 L446.295,26.2031 C446.295,33 445.341,34.4063 440.482,34.6563 L440.482,37 L454.732,37 L454.732,34.6563 C449.935,34.4063 448.982,33 448.982,26.2031 L448.982,4.09375 L460.888,37 L462.888,37 L474.045,4.09375 L474.045,30.8438 C474.045,33.4063 474.045,33.5 473.748,34 C473.341,34.5 472.388,34.6563 469.545,34.6563 L468.638,34.6563 L468.638,37 L485.045,37 L485.045,34.6563 L484.138,34.6563 C481.295,34.6563 480.341,34.5 479.935,34 C479.638,33.5 479.638,33.4531 479.638,30.8438 L479.638,7.04688 C479.638,4.5 479.638,4.39063 479.935,3.95313 C480.341,3.45313 481.295,3.29688 484.138,3.25 L485.045,3.25 L485.045,0.890625 L472.498,0.890625 L463.341,27.5469 L453.732,0.890625 M498.982,12.9531 C492.841,12.9531 488.091,18.4063 488.091,25.4063 C488.091,32.25 492.888,37.75 498.888,37.75 C504.888,37.75 509.685,32.25 509.685,25.3438 C509.685,18.5 504.888,12.9531 498.982,12.9531 M498.982,15.0938 C502.482,15.0938 504.435,18.75 504.435,25.3438 C504.435,32 502.482,35.5938 498.888,35.5938 C495.295,35.5938 493.341,32 493.341,25.4063 C493.341,18.5938 495.232,15.0938 498.982,15.0938 M521.591,0.140625 L512.341,0.703125 L512.341,2.84375 L514.795,2.84375 C516.638,2.89063 516.888,3.20313 516.888,5.34375 L516.888,30.8438 L516.888,33.2031 C516.841,33.9531 516.795,34.25 516.591,34.5 C516.232,34.9531 515.295,35.1563 513.138,35.2031 L512.795,35.2031 L512.795,37 L525.732,37 L525.732,35.2031 L525.388,35.2031 C522.045,35.0938 521.591,34.8438 521.591,33.0469 L521.591,30.8438 L521.591,0.140625 M537.591,0.140625 L528.341,0.703125 L528.341,2.84375 L530.795,2.84375 C532.638,2.89063 532.888,3.20313 532.888,5.34375 L532.888,30.8438 L532.888,33.2031 C532.841,33.9531 532.795,34.25 532.591,34.5 C532.232,34.9531 531.295,35.1563 529.138,35.2031 L528.795,35.2031 L528.795,37 L541.732,37 L541.732,35.2031 L541.388,35.2031 C538.045,35.0938 537.591,34.8438 537.591,33.0469 L537.591,30.8438 L537.591,0.140625 M562.888,13.1563 L561.138,13.1563 L559.685,14.9531 C557.888,13.5469 556.091,12.9531 553.591,12.9531 C549.185,12.9531 546.295,15.7969 546.295,20.2031 C546.295,22.1563 546.935,23.7969 548.045,24.7969 C549.185,25.8438 550.341,26.3438 553.341,27.0469 L555.982,27.6563 C559.935,28.5938 561.341,29.5938 561.341,31.5938 C561.341,33.9531 559.295,35.5938 556.388,35.5938 C552.138,35.5938 549.138,32.9063 547.935,27.9063 L545.935,27.9063 L545.935,37.3438 L547.685,37.3438 L549.435,35.2969 C551.482,36.9531 553.732,37.75 556.295,37.75 C561.185,37.75 564.435,34.7031 564.435,30.0469 C564.435,27.8438 563.732,26.1563 562.341,25 C561.138,23.9531 560.138,23.5469 557.091,22.9063 L554.591,22.3438 C551.841,21.75 551.841,21.75 550.935,21.25 C549.841,20.75 549.185,19.7031 549.185,18.5938 C549.185,16.5469 551.091,15.1563 553.841,15.1563 C555.732,15.1563 557.295,15.7969 558.685,17.1563 C559.795,18.25 560.341,19.25 561.138,21.5469 L562.888,21.5469 L562.888,13.1563 M589.638,25.75 C589.685,18.25 585.435,12.9531 579.341,12.9531 C572.935,12.9531 568.138,18.5 568.138,26 C568.138,33.0469 572.685,37.75 579.435,37.75 C584.232,37.75 587.591,35.4063 589.638,30.6563 L587.888,29.7031 C585.841,33.5469 583.732,35.0469 580.388,35.0469 C577.841,35.0469 575.982,34 574.685,31.75 C573.795,30.25 573.388,28.5 573.435,25.75 L589.638,25.75 M573.482,23.5938 C573.482,22.0469 573.685,20.9531 574.185,19.5469 C575.232,16.5469 576.841,15.0938 579.295,15.0938 C582.295,15.0938 584.295,17.75 584.295,21.7969 C584.295,23.2031 583.841,23.5938 582.232,23.5938 L573.482,23.5938 M601.435,13.7031 L592.795,14.25 L592.795,16.4063 L594.591,16.4063 C596.482,16.4531 596.732,16.75 596.732,18.9063 L596.732,40.9531 L596.732,43.3438 C596.685,44.0469 596.638,44.3438 596.435,44.5938 C596.091,45.0469 595.138,45.25 592.982,45.2969 L592.795,45.2969 L592.795,47.0938 L605.795,47.0938 L605.795,45.2969 L605.232,45.2969 C601.888,45.2031 601.435,44.9531 601.435,43.1563 L601.435,40.9531 L601.435,33.7031 C603.091,36.5938 604.935,37.75 608.045,37.75 C611.091,37.75 613.591,36.4531 615.388,34 C617.138,31.5938 618.138,28.5 618.138,25.25 C618.138,22 617.138,18.9531 615.295,16.5469 C613.435,14.1563 611.138,12.9531 608.341,12.9531 C605.232,12.9531 603.185,14.25 601.435,17.25 L601.435,13.7031 M607.435,15.6563 C610.888,15.6563 612.888,19.0938 612.888,24.9531 C612.888,31.4063 610.888,35.0469 607.295,35.0469 C603.685,35.0469 601.388,31.3438 601.388,25.5938 C601.388,19.3438 603.638,15.6563 607.435,15.6563 M629.091,13.7031 L629.091,3.79688 L627.045,3.79688 C626.545,10.2969 624.341,13.5938 620.295,13.9063 L620.295,15.8438 L624.388,15.8438 L624.388,28.5938 C624.388,32.0938 624.482,33.3438 624.982,34.5 C625.795,36.5938 627.795,37.75 630.685,37.75 C635.185,37.75 638.091,34.3438 638.091,29.0469 C638.091,28.75 638.091,28.4063 638.045,27.9063 L635.935,27.9063 C635.795,32.4063 634.482,34.7031 632.045,34.7031 C630.888,34.7031 629.888,34.0938 629.545,33.25 C629.232,32.5469 629.091,31.2969 629.091,29.5 L629.091,15.8438 L636.435,15.8438 L636.435,13.7031 L629.091,13.7031 M660.982,20.9063 C660.982,17.75 660.435,16.1563 658.982,14.9531 C657.341,13.5938 654.888,12.9531 651.685,12.9531 C646.045,12.9531 641.935,15.5938 641.935,19.25 C641.935,21.0938 643.091,22.2969 644.841,22.2969 C646.435,22.2969 647.545,21.25 647.545,19.75 C647.545,19.0938 647.295,18.4063 646.795,17.7031 C646.482,17.3438 646.435,17.25 646.435,17 C646.435,16 648.435,15.0938 650.841,15.0938 C652.435,15.0938 654.185,15.5938 654.982,16.3438 C655.935,17.1563 656.295,18.3438 656.295,20.5938 L656.295,22.5469 C651.091,23.4531 649.435,23.8438 646.982,24.7969 C642.638,26.4063 640.591,28.7031 640.591,31.9063 C640.591,35.5 643.388,37.75 647.841,37.75 C651.295,37.75 654.388,36.3438 656.545,33.7969 C657.341,36.3438 658.591,37.3438 660.935,37.3438 C663.185,37.3438 665.545,35.9063 665.545,34.4531 C665.545,34.0938 665.341,33.8438 665.045,33.8438 C664.841,33.8438 664.638,33.9063 664.295,34.0469 C663.591,34.3438 663.295,34.4063 662.888,34.4063 C661.482,34.4063 660.982,33.5 660.982,30.9531 L660.982,20.9063 M656.295,27 C656.295,30 656.138,30.7031 655.295,32 C654.045,33.8438 651.795,35.0938 649.591,35.0938 C647.295,35.0938 645.638,33.4531 645.638,31.2031 C645.638,29.0938 646.685,27.5938 648.888,26.5469 C650.435,25.8438 652.388,25.3438 656.295,24.7031 L656.295,27 M676.341,24.9063 L676.341,0.140625 L667.091,0.703125 L667.091,2.84375 L669.482,2.84375 C671.388,2.89063 671.638,3.20313 671.638,5.34375 L671.638,30.8438 L671.638,33.25 C671.591,33.9531 671.545,34.25 671.341,34.5 C670.982,34.9531 670.045,35.1563 667.888,35.2031 L667.685,35.2031 L667.685,37 L680.341,37 L680.341,35.2031 L680.138,35.2031 C676.795,35.0938 676.341,34.8438 676.341,33.0469 L676.341,30.8438 L676.341,28 L679.388,25.0938 L685.341,33.4531 C685.591,33.8438 685.685,34.0938 685.685,34.2969 C685.685,35 685.138,35.2031 683.482,35.2031 L682.545,35.2031 L682.545,37 L695.748,37 L695.748,35.2031 C692.935,34.9531 691.935,34.3438 689.888,31.75 L682.795,22.0469 L685.045,19.8438 C687.982,17 690.091,15.9063 693.498,15.5 L693.498,13.7031 L680.341,13.7031 L680.341,15.5 L681.888,15.5 C683.482,15.5 684.232,15.7969 684.232,16.4531 C684.232,17 683.888,17.5938 683.091,18.4063 L676.341,24.9063 M707.341,24.9063 L707.341,0.140625 L698.091,0.703125 L698.091,2.84375 L700.482,2.84375 C702.388,2.89063 702.638,3.20313 702.638,5.34375 L702.638,30.8438 L702.638,33.25 C702.591,33.9531 702.545,34.25 702.341,34.5 C701.982,34.9531 701.045,35.1563 698.888,35.2031 L698.685,35.2031 L698.685,37 L711.341,37 L711.341,35.2031 L711.138,35.2031 C707.795,35.0938 707.341,34.8438 707.341,33.0469 L707.341,30.8438 L707.341,28 L710.388,25.0938 L716.341,33.4531 C716.591,33.8438 716.685,34.0938 716.685,34.2969 C716.685,35 716.138,35.2031 714.482,35.2031 L713.545,35.2031 L713.545,37 L726.748,37 L726.748,35.2031 C723.935,34.9531 722.935,34.3438 720.888,31.75 L713.795,22.0469 L716.045,19.8438 C718.982,17 721.091,15.9063 724.498,15.5 L724.498,13.7031 L711.341,13.7031 L711.341,15.5 L712.888,15.5 C714.482,15.5 715.232,15.7969 715.232,16.4531 C715.232,17 714.888,17.5938 714.091,18.4063 L707.341,24.9063 M738.982,12.9531 C732.841,12.9531 728.091,18.4063 728.091,25.4063 C728.091,32.25 732.888,37.75 738.888,37.75 C744.888,37.75 749.685,32.25 749.685,25.3438 C749.685,18.5 744.888,12.9531 738.982,12.9531 M738.982,15.0938 C742.482,15.0938 744.435,18.75 744.435,25.3438 C744.435,32 742.482,35.5938 738.888,35.5938 C735.295,35.5938 733.341,32 733.341,25.4063 C733.341,18.5938 735.232,15.0938 738.982,15.0938 M761.295,13.7031 L752.435,14.25 L752.435,16.4063 L754.482,16.4063 C756.388,16.4531 756.638,16.75 756.638,18.9063 L756.638,30.8438 L756.638,33.2031 C756.591,33.9531 756.545,34.25 756.341,34.5 C755.982,34.9531 754.982,35.1563 752.841,35.2031 L752.638,35.2031 L752.638,37 L765.982,37 L765.982,35.2031 L765.091,35.2031 C761.732,35.0938 761.295,34.8438 761.295,33.0469 L761.295,30.8438 L761.295,30.3438 C761.341,21.9531 764.341,15.5469 768.232,15.3438 C767.545,16.1563 767.341,16.6563 767.341,17.5938 C767.341,19.2031 768.482,20.3438 770.091,20.3438 C771.935,20.3438 773.138,19 773.138,17 C773.138,14.5469 771.435,12.9531 768.795,12.9531 C765.638,12.9531 762.935,15.4531 761.295,19.9063 L761.295,13.7031 M792.388,37.3438 L801.091,37 L801.091,34.8438 L800.185,34.8438 C797.341,34.7031 797.091,34.4063 797.091,31.2031 L797.091,0.140625 L787.295,0.703125 L787.295,2.84375 L790.232,2.84375 C792.138,2.89063 792.388,3.20313 792.388,5.34375 L792.388,16.6563 C790.545,14.0938 788.388,12.9531 785.482,12.9531 C779.841,12.9531 775.545,18.4063 775.545,25.5938 C775.545,32.7031 779.685,37.75 785.482,37.75 C788.638,37.75 790.795,36.4063 792.388,33.4063 L792.388,37.3438 M786.482,15.6563 C788.545,15.6563 790.482,17.1563 791.388,19.4531 C792.045,20.9531 792.341,23 792.341,25.4531 C792.341,31.2969 790.045,35.0469 786.435,35.0469 C782.888,35.0469 780.795,31.75 780.795,26.2031 C780.795,23.2031 781.091,20.9531 781.732,19.2969 C782.591,17.0469 784.435,15.6563 786.482,15.6563"/>
<path class="SystemText" d="M212.295,60.2031 L210.185,60.2031 L198.685,89.3438 C197.341,93.25 196.045,94.4531 193.185,94.6563 L192.982,94.6563 L192.982,97 L206.232,97 L206.232,94.6563 L205.232,94.6563 C202.545,94.6563 201.185,93.7031 201.185,91.7969 C201.185,91.1563 201.341,90.5469 201.638,89.7031 L203.295,85.2969 L216.545,85.2969 L219.248,92 C219.545,92.7969 219.638,93.0938 219.638,93.3438 C219.638,94.1563 218.388,94.6563 216.545,94.6563 L214.435,94.6563 L214.435,97 L229.935,97 L229.935,94.6563 L229.248,94.6563 C226.638,94.5938 226.185,94.2969 225.045,91.4531 L212.295,60.2031 M209.841,68.3906 L215.482,82.5938 L204.295,82.5938 L209.841,68.3906 M239.341,84.9063 L239.341,60.1406 L230.091,60.7031 L230.091,62.8438 L232.482,62.8438 C234.388,62.8906 234.638,63.2031 234.638,65.3438 L234.638,90.8438 L234.638,93.25 C234.591,93.9531 234.545,94.25 234.341,94.5 C233.982,94.9531 233.045,95.1563 230.888,95.2031 L230.685,95.2031 L230.685,97 L243.341,97 L243.341,95.2031 L243.138,95.2031 C239.795,95.0938 239.341,94.8438 239.341,93.0469 L239.341,90.8438 L239.341,88 L242.388,85.0938 L248.341,93.4531 C248.591,93.8438 248.685,94.0938 248.685,94.2969 C248.685,95 248.138,95.2031 246.482,95.2031 L245.545,95.2031 L245.545,97 L258.748,97 L258.748,95.2031 C255.935,94.9531 254.935,94.3438 252.888,91.75 L245.795,82.0469 L248.045,79.8438 C250.982,77 253.091,75.9063 256.498,75.5 L256.498,73.7031 L243.341,73.7031 L243.341,75.5 L244.888,75.5 C246.482,75.5 247.232,75.7969 247.232,76.4531 C247.232,77 246.888,77.5938 246.091,78.4063 L239.341,84.9063 M270.341,84.9063 L270.341,60.1406 L261.091,60.7031 L261.091,62.8438 L263.482,62.8438 C265.388,62.8906 265.638,63.2031 265.638,65.3438 L265.638,90.8438 L265.638,93.25 C265.591,93.9531 265.545,94.25 265.341,94.5 C264.982,94.9531 264.045,95.1563 261.888,95.2031 L261.685,95.2031 L261.685,97 L274.341,97 L274.341,95.2031 L274.138,95.2031 C270.795,95.0938 270.341,94.8438 270.341,93.0469 L270.341,90.8438 L270.341,88 L273.388,85.0938 L279.341,93.4531 C279.591,93.8438 279.685,94.0938 279.685,94.2969 C279.685,95 279.138,95.2031 277.482,95.2031 L276.545,95.2031 L276.545,97 L289.748,97 L289.748,95.2031 C286.935,94.9531 285.935,94.3438 283.888,91.75 L276.795,82.0469 L279.045,79.8438 C281.982,77 284.091,75.9063 287.498,75.5 L287.498,73.7031 L274.341,73.7031 L274.341,75.5 L275.888,75.5 C277.482,75.5 278.232,75.7969 278.232,76.4531 C278.232,77 277.888,77.5938 277.091,78.4063 L270.341,84.9063 M301.982,72.9531 C295.841,72.9531 291.091,78.4063 291.091,85.4063 C291.091,92.25 295.888,97.75 301.888,97.75 C307.888,97.75 312.685,92.25 312.685,85.3438 C312.685,78.5 307.888,72.9531 301.982,72.9531 M301.982,75.0938 C305.482,75.0938 307.435,78.75 307.435,85.3438 C307.435,92 305.482,95.5938 301.888,95.5938 C298.295,95.5938 296.341,92 296.341,85.4063 C296.341,78.5938 298.232,75.0938 301.982,75.0938 M324.295,73.7031 L315.435,74.25 L315.435,76.4063 L317.482,76.4063 C319.388,76.4531 319.638,76.75 319.638,78.9063 L319.638,90.8438 L319.638,93.2031 C319.591,93.9531 319.545,94.25 319.341,94.5 C318.982,94.9531 317.982,95.1563 315.841,95.2031 L315.638,95.2031 L315.638,97 L328.982,97 L328.982,95.2031 L328.091,95.2031 C324.732,95.0938 324.295,94.8438 324.295,93.0469 L324.295,90.8438 L324.295,90.3438 C324.341,81.9531 327.341,75.5469 331.232,75.3438 C330.545,76.1563 330.341,76.6563 330.341,77.5938 C330.341,79.2031 331.482,80.3438 333.091,80.3438 C334.935,80.3438 336.138,79 336.138,77 C336.138,74.5469 334.435,72.9531 331.795,72.9531 C328.638,72.9531 325.935,75.4531 324.295,79.9063 L324.295,73.7031 M355.388,97.3438 L364.091,97 L364.091,94.8438 L363.185,94.8438 C360.341,94.7031 360.091,94.4063 360.091,91.2031 L360.091,60.1406 L350.295,60.7031 L350.295,62.8438 L353.232,62.8438 C355.138,62.8906 355.388,63.2031 355.388,65.3438 L355.388,76.6563 C353.545,74.0938 351.388,72.9531 348.482,72.9531 C342.841,72.9531 338.545,78.4063 338.545,85.5938 C338.545,92.7031 342.685,97.75 348.482,97.75 C351.638,97.75 353.795,96.4063 355.388,93.4063 L355.388,97.3438 M349.482,75.6563 C351.545,75.6563 353.482,77.1563 354.388,79.4531 C355.045,80.9531 355.341,83 355.341,85.4531 C355.341,91.2969 353.045,95.0469 349.435,95.0469 C345.888,95.0469 343.795,91.75 343.795,86.2031 C343.795,83.2031 344.091,80.9531 344.732,79.2969 C345.591,77.0469 347.435,75.6563 349.482,75.6563 M392.545,82.3438 L381.935,82.3438 L381.935,86.3438 L392.545,86.3438 L392.545,97 L396.545,97 L396.545,86.3438 L407.138,86.3438 L407.138,82.3438 L396.545,82.3438 L396.545,71.75 L392.545,71.75 L392.545,82.3438 M443.045,89.25 L433.888,66.0469 C433.638,65.3906 433.482,64.75 433.482,64.5 C433.482,63.5938 434.341,63.25 436.591,63.25 L438.591,63.25 L438.591,60.8906 L422.982,60.8906 L422.982,63.25 L423.982,63.25 C426.295,63.2969 427.045,63.8438 427.841,66.0469 L440.482,97.75 L442.482,97.75 L453.998,68.1406 C455.498,64.25 456.545,63.3438 459.435,63.25 L459.935,63.25 L459.935,60.8906 L446.388,60.8906 L446.388,63.25 L447.341,63.25 C449.888,63.25 451.388,64.25 451.388,65.8438 C451.388,66.5469 451.138,67.6406 450.795,68.6406 L443.045,89.25 M467.982,72.9531 C461.841,72.9531 457.091,78.4063 457.091,85.4063 C457.091,92.25 461.888,97.75 467.888,97.75 C473.888,97.75 478.685,92.25 478.685,85.3438 C478.685,78.5 473.888,72.9531 467.982,72.9531 M467.982,75.0938 C471.482,75.0938 473.435,78.75 473.435,85.3438 C473.435,92 471.482,95.5938 467.888,95.5938 C464.295,95.5938 462.341,92 462.341,85.4063 C462.341,78.5938 464.232,75.0938 467.982,75.0938 M490.295,73.7031 L481.435,74.25 L481.435,76.4063 L483.482,76.4063 C485.388,76.4531 485.638,76.75 485.638,78.9063 L485.638,90.8438 L485.638,93.2031 C485.591,93.9531 485.545,94.25 485.341,94.5 C484.982,94.9531 483.982,95.1563 481.841,95.2031 L481.638,95.2031 L481.638,97 L494.982,97 L494.982,95.2031 L494.091,95.2031 C490.732,95.0938 490.295,94.8438 490.295,93.0469 L490.295,90.8438 L490.295,90.3438 C490.341,81.9531 493.341,75.5469 497.232,75.3438 C496.545,76.1563 496.341,76.6563 496.341,77.5938 C496.341,79.2031 497.482,80.3438 499.091,80.3438 C500.935,80.3438 502.138,79 502.138,77 C502.138,74.5469 500.435,72.9531 497.795,72.9531 C494.638,72.9531 491.935,75.4531 490.295,79.9063 L490.295,73.7031 M511.388,60.1406 L502.138,60.7031 L502.138,62.8438 L504.545,62.8438 C506.435,62.8906 506.685,63.2031 506.685,65.3438 L506.685,90.8438 L506.685,92.0469 L506.685,93.25 C506.638,93.9531 506.591,94.25 506.388,94.5 C506.045,94.9531 505.091,95.1563 502.935,95.2031 L502.732,95.2031 L502.732,97 L515.388,97 L515.388,95.2031 L515.185,95.2031 C511.841,95.0938 511.388,94.8438 511.388,93.0469 L511.388,90.8438 L511.388,85.6563 C511.388,83.2031 511.732,80.9531 512.295,79.7969 C513.388,77.5469 515.591,76 517.732,76 C519.045,76 520.545,76.75 521.232,77.75 C522.045,78.8438 522.388,80.3438 522.388,82.7969 L522.388,90.8438 L522.388,93.25 C522.341,93.9531 522.295,94.25 522.091,94.5 C521.732,94.9531 520.732,95.1563 518.591,95.2031 L518.388,95.2031 L518.388,97 L531.045,97 L531.045,95.2031 L530.841,95.2031 C527.545,95.0938 527.091,94.8438 527.091,93.0469 L527.091,90.8438 L527.091,83 C527.091,79.4063 526.935,78.5 526.045,76.7969 C524.795,74.3438 522.295,72.9531 519.295,72.9531 C516.045,72.9531 513.638,74.4063 511.388,77.75 L511.388,60.1406 M554.982,80.9063 C554.982,77.75 554.435,76.1563 552.982,74.9531 C551.341,73.5938 548.888,72.9531 545.685,72.9531 C540.045,72.9531 535.935,75.5938 535.935,79.25 C535.935,81.0938 537.091,82.2969 538.841,82.2969 C540.435,82.2969 541.545,81.25 541.545,79.75 C541.545,79.0938 541.295,78.4063 540.795,77.7031 C540.482,77.3438 540.435,77.25 540.435,77 C540.435,76 542.435,75.0938 544.841,75.0938 C546.435,75.0938 548.185,75.5938 548.982,76.3438 C549.935,77.1563 550.295,78.3438 550.295,80.5938 L550.295,82.5469 C545.091,83.4531 543.435,83.8438 540.982,84.7969 C536.638,86.4063 534.591,88.7031 534.591,91.9063 C534.591,95.5 537.388,97.75 541.841,97.75 C545.295,97.75 548.388,96.3438 550.545,93.7969 C551.341,96.3438 552.591,97.3438 554.935,97.3438 C557.185,97.3438 559.545,95.9063 559.545,94.4531 C559.545,94.0938 559.341,93.8438 559.045,93.8438 C558.841,93.8438 558.638,93.9063 558.295,94.0469 C557.591,94.3438 557.295,94.4063 556.888,94.4063 C555.482,94.4063 554.982,93.5 554.982,90.9531 L554.982,80.9063 M550.295,87 C550.295,90 550.138,90.7031 549.295,92 C548.045,93.8438 545.795,95.0938 543.591,95.0938 C541.295,95.0938 539.638,93.4531 539.638,91.2031 C539.638,89.0938 540.685,87.5938 542.888,86.5469 C544.435,85.8438 546.388,85.3438 550.295,84.7031 L550.295,87 M570.591,60.1406 L561.341,60.7031 L561.341,62.8438 L563.795,62.8438 C565.638,62.8906 565.888,63.2031 565.888,65.3438 L565.888,90.8438 L565.888,93.2031 C565.841,93.9531 565.795,94.25 565.591,94.5 C565.232,94.9531 564.295,95.1563 562.138,95.2031 L561.795,95.2031 L561.795,97 L574.732,97 L574.732,95.2031 L574.388,95.2031 C571.045,95.0938 570.591,94.8438 570.591,93.0469 L570.591,90.8438 L570.591,60.1406 M586.091,73.7031 L586.091,63.7969 L584.045,63.7969 C583.545,70.2969 581.341,73.5938 577.295,73.9063 L577.295,75.8438 L581.388,75.8438 L581.388,88.5938 C581.388,92.0938 581.482,93.3438 581.982,94.5 C582.795,96.5938 584.795,97.75 587.685,97.75 C592.185,97.75 595.091,94.3438 595.091,89.0469 C595.091,88.75 595.091,88.4063 595.045,87.9063 L592.935,87.9063 C592.795,92.4063 591.482,94.7031 589.045,94.7031 C587.888,94.7031 586.888,94.0938 586.545,93.25 C586.232,92.5469 586.091,91.2969 586.091,89.5 L586.091,75.8438 L593.435,75.8438 L593.435,73.7031 L586.091,73.7031 M623.341,60.2031 C620.295,62.0469 618.732,63.3438 617.045,65.3438 C613.232,69.8438 611.185,75.5938 611.185,81.6563 C611.185,87.3438 612.982,92.7031 616.341,97.1563 C618.232,99.5469 619.935,101.047 623.341,103.156 L623.341,101.297 C618.341,96.8438 616.341,91.2969 616.341,81.6563 C616.341,72 618.341,66.4531 623.341,62.0469 L623.341,60.2031 M638.685,79.5 L641.591,79.5 C646.638,79.7031 648.638,81.75 649.185,87.25 L649.435,89.7969 C650.045,95.4531 651.888,97.75 655.841,97.75 C659.935,97.75 661.888,95 662.045,89 L659.935,89 C659.748,92.4531 659.138,93.9531 657.795,93.9531 C656.638,93.9531 656.138,93.0938 655.295,89.6563 L654.498,86.5 C653.388,81.9063 651.435,79.7969 647.545,78.7969 C654.748,77.7969 658.185,74.9063 658.185,69.8438 C658.185,64.1406 653.388,60.8906 644.982,60.8906 L627.685,60.8906 L627.685,63.25 L628.591,63.25 C631.435,63.2969 632.388,63.4531 632.795,63.9531 C633.091,64.3906 633.091,64.5 633.091,67.0469 L633.091,90.9063 C633.091,93.4063 633.091,93.5 632.795,94 C632.388,94.5 631.435,94.6563 628.591,94.6563 L627.685,94.6563 L627.685,97 L644.091,97 L644.091,94.6563 L643.185,94.6563 C640.341,94.6563 639.388,94.5 638.982,94 C638.685,93.5 638.685,93.4063 638.685,90.9063 L638.685,79.5 M638.685,77.1563 L638.685,66.1406 C638.591,63.3906 638.841,63.2031 642.138,63.25 L644.841,63.25 C649.795,63.25 652.045,65.3438 652.045,69.8906 C652.045,72.4531 651.388,74.4063 650.091,75.4531 C648.841,76.5 646.591,77.1563 644.185,77.1563 L638.685,77.1563 M672.685,73.7031 L663.295,74.25 L663.295,76.4063 L665.841,76.4063 C667.732,76.4531 667.982,76.75 667.982,78.9063 L667.982,90.8438 L667.982,93.2031 C667.935,93.9531 667.888,94.25 667.685,94.5 C667.341,94.9531 666.388,95.1563 664.232,95.2031 L663.888,95.2031 L663.888,97 L676.841,97 L676.841,95.2031 L676.482,95.2031 C673.138,95.0938 672.685,94.8438 672.685,93.0469 L672.685,90.8438 L672.685,73.7031 M670.341,61.25 C668.732,61.25 667.435,62.5469 667.435,64.1406 C667.435,65.75 668.732,67.0469 670.295,67.0469 C671.935,67.0469 673.232,65.75 673.232,64.1406 C673.232,62.5469 671.935,61.25 670.341,61.25 M688.091,73.7031 L688.091,63.7969 L686.045,63.7969 C685.545,70.2969 683.341,73.5938 679.295,73.9063 L679.295,75.8438 L683.388,75.8438 L683.388,88.5938 C683.388,92.0938 683.482,93.3438 683.982,94.5 C684.795,96.5938 686.795,97.75 689.685,97.75 C694.185,97.75 697.091,94.3438 697.091,89.0469 C697.091,88.75 697.091,88.4063 697.045,87.9063 L694.935,87.9063 C694.795,92.4063 693.482,94.7031 691.045,94.7031 C689.888,94.7031 688.888,94.0938 688.545,93.25 C688.232,92.5469 688.091,91.2969 688.091,89.5 L688.091,75.8438 L695.435,75.8438 L695.435,73.7031 L688.091,73.7031 M719.982,80.9063 C719.982,77.75 719.435,76.1563 717.982,74.9531 C716.341,73.5938 713.888,72.9531 710.685,72.9531 C705.045,72.9531 700.935,75.5938 700.935,79.25 C700.935,81.0938 702.091,82.2969 703.841,82.2969 C705.435,82.2969 706.545,81.25 706.545,79.75 C706.545,79.0938 706.295,78.4063 705.795,77.7031 C705.482,77.3438 705.435,77.25 705.435,77 C705.435,76 707.435,75.0938 709.841,75.0938 C711.435,75.0938 713.185,75.5938 713.982,76.3438 C714.935,77.1563 715.295,78.3438 715.295,80.5938 L715.295,82.5469 C710.091,83.4531 708.435,83.8438 705.982,84.7969 C701.638,86.4063 699.591,88.7031 699.591,91.9063 C699.591,95.5 702.388,97.75 706.841,97.75 C710.295,97.75 713.388,96.3438 715.545,93.7969 C716.341,96.3438 717.591,97.3438 719.935,97.3438 C722.185,97.3438 724.545,95.9063 724.545,94.4531 C724.545,94.0938 724.341,93.8438 724.045,93.8438 C723.841,93.8438 723.638,93.9063 723.295,94.0469 C722.591,94.3438 722.295,94.4063 721.888,94.4063 C720.482,94.4063 719.982,93.5 719.982,90.9531 L719.982,80.9063 M715.295,87 C715.295,90 715.138,90.7031 714.295,92 C713.045,93.8438 710.795,95.0938 708.591,95.0938 C706.295,95.0938 704.638,93.4531 704.638,91.2031 C704.638,89.0938 705.685,87.5938 707.888,86.5469 C709.435,85.8438 711.388,85.3438 715.295,84.7031 L715.295,87 M735.295,73.7031 L726.435,74.25 L726.435,76.4063 L728.482,76.4063 C730.388,76.4531 730.638,76.75 730.638,78.9063 L730.638,90.8438 L730.638,93.2031 C730.591,93.9531 730.545,94.25 730.341,94.5 C729.982,94.9531 728.982,95.1563 726.841,95.2031 L726.638,95.2031 L726.638,97 L739.982,97 L739.982,95.2031 L739.091,95.2031 C735.732,95.0938 735.295,94.8438 735.295,93.0469 L735.295,90.8438 L735.295,90.3438 C735.341,81.9531 738.341,75.5469 742.232,75.3438 C741.545,76.1563 741.341,76.6563 741.341,77.5938 C741.341,79.2031 742.482,80.3438 744.091,80.3438 C745.935,80.3438 747.138,79 747.138,77 C747.138,74.5469 745.435,72.9531 742.795,72.9531 C739.638,72.9531 736.935,75.4531 735.295,79.9063 L735.295,73.7031 M766.388,97.3438 L775.091,97 L775.091,94.8438 L774.185,94.8438 C771.341,94.7031 771.091,94.4063 771.091,91.2031 L771.091,60.1406 L761.295,60.7031 L761.295,62.8438 L764.232,62.8438 C766.138,62.8906 766.388,63.2031 766.388,65.3438 L766.388,76.6563 C764.545,74.0938 762.388,72.9531 759.482,72.9531 C753.841,72.9531 749.545,78.4063 749.545,85.5938 C749.545,92.7031 753.685,97.75 759.482,97.75 C762.638,97.75 764.795,96.4063 766.388,93.4063 L766.388,97.3438 M760.482,75.6563 C762.545,75.6563 764.482,77.1563 765.388,79.4531 C766.045,80.9531 766.341,83 766.341,85.4531 C766.341,91.2969 764.045,95.0469 760.435,95.0469 C756.888,95.0469 754.795,91.75 754.795,86.2031 C754.795,83.2031 755.091,80.9531 755.732,79.2969 C756.591,77.0469 758.435,75.6563 760.482,75.6563 M798.982,80.9063 C798.982,77.75 798.435,76.1563 796.982,74.9531 C795.341,73.5938 792.888,72.9531 789.685,72.9531 C784.045,72.9531 779.935,75.5938 779.935,79.25 C779.935,81.0938 781.091,82.2969 782.841,82.2969 C784.435,82.2969 785.545,81.25 785.545,79.75 C785.545,79.0938 785.295,78.4063 784.795,77.7031 C784.482,77.3438 784.435,77.25 784.435,77 C784.435,76 786.435,75.0938 788.841,75.0938 C790.435,75.0938 792.185,75.5938 792.982,76.3438 C793.935,77.1563 794.295,78.3438 794.295,80.5938 L794.295,82.5469 C789.091,83.4531 787.435,83.8438 784.982,84.7969 C780.638,86.4063 778.591,88.7031 778.591,91.9063 C778.591,95.5 781.388,97.75 785.841,97.75 C789.295,97.75 792.388,96.3438 794.545,93.7969 C795.341,96.3438 796.591,97.3438 798.935,97.3438 C801.185,97.3438 803.545,95.9063 803.545,94.4531 C803.545,94.0938 803.341,93.8438 803.045,93.8438 C802.841,93.8438 802.638,93.9063 802.295,94.0469 C801.591,94.3438 801.295,94.4063 800.888,94.4063 C799.482,94.4063 798.982,93.5 798.982,90.9531 L798.982,80.9063 M794.295,87 C794.295,90 794.138,90.7031 793.295,92 C792.045,93.8438 789.795,95.0938 787.591,95.0938 C785.295,95.0938 783.638,93.4531 783.638,91.2031 C783.638,89.0938 784.685,87.5938 786.888,86.5469 C788.435,85.8438 790.388,85.3438 794.295,84.7031 L794.295,87 M813.091,73.7031 L813.091,63.7969 L811.045,63.7969 C810.545,70.2969 808.341,73.5938 804.295,73.9063 L804.295,75.8438 L808.388,75.8438 L808.388,88.5938 C808.388,92.0938 808.482,93.3438 808.982,94.5 C809.795,96.5938 811.795,97.75 814.685,97.75 C819.185,97.75 822.091,94.3438 822.091,89.0469 C822.091,88.75 822.091,88.4063 822.045,87.9063 L819.935,87.9063 C819.795,92.4063 818.482,94.7031 816.045,94.7031 C814.888,94.7031 813.888,94.0938 813.545,93.25 C813.232,92.5469 813.091,91.2969 813.091,89.5 L813.091,75.8438 L820.435,75.8438 L820.435,73.7031 L813.091,73.7031 M832.685,73.7031 L823.295,74.25 L823.295,76.4063 L825.841,76.4063 C827.732,76.4531 827.982,76.75 827.982,78.9063 L827.982,90.8438 L827.982,93.2031 C827.935,93.9531 827.888,94.25 827.685,94.5 C827.341,94.9531 826.388,95.1563 824.232,95.2031 L823.888,95.2031 L823.888,97 L836.841,97 L836.841,95.2031 L836.482,95.2031 C833.138,95.0938 832.685,94.8438 832.685,93.0469 L832.685,90.8438 L832.685,73.7031 M830.341,61.25 C828.732,61.25 827.435,62.5469 827.435,64.1406 C827.435,65.75 828.732,67.0469 830.295,67.0469 C831.935,67.0469 833.232,65.75 833.232,64.1406 C833.232,62.5469 831.935,61.25 830.341,61.25 M850.982,72.9531 C844.841,72.9531 840.091,78.4063 840.091,85.4063 C840.091,92.25 844.888,97.75 850.888,97.75 C856.888,97.75 861.685,92.25 861.685,85.3438 C861.685,78.5 856.888,72.9531 850.982,72.9531 M850.982,75.0938 C854.482,75.0938 856.435,78.75 856.435,85.3438 C856.435,92 854.482,95.5938 850.888,95.5938 C847.295,95.5938 845.341,92 845.341,85.4063 C845.341,78.5938 847.232,75.0938 850.982,75.0938 M866.091,103.156 C869.138,101.297 870.685,100 872.388,97.9531 C876.185,93.5 878.232,87.75 878.232,81.6563 C878.232,75.9531 876.435,70.5938 873.091,66.2031 C871.185,63.75 869.482,62.2969 866.091,60.2031 L866.091,62.0469 C871.091,66.4531 873.091,72 873.091,81.6563 C873.091,91.2969 871.091,96.9063 866.091,101.297 L866.091,103.156 "/>
<polyline class="PedalSegment" fill="none" stroke="#000000" stroke-width="3.97" stroke-linecap="square" stroke-linejoin="bevel" points="161.313,325.473 161.313,355.236"/>
<polyline class="PedalSegment" fill="none" stroke="#000000" stroke-width="3.97" stroke-linecap="square" stroke-linejoin="bevel" points="161.313,355.236 346.924,355.236"/>
<polyline class="PedalSegment" fill="none" stroke="#000000" stroke-width="3.97" stroke-linecap="square" stroke-linejoin="bevel" points="346.924,355.236 346.924,325.473"/>
<polyline class="PedalSegment" fill="none" stroke="#000000" stroke-width="3.97" stroke-linecap="square" stroke-linejoin="bevel" points="164.538,448.992 164.538,478.756"/>
<polyline class="PedalSegment" fill="none" stroke="#000000" stroke-width="3.97" stroke-linecap="square" stroke-linejoin="bevel" points="164.538,478.756 745.55,478.756"/>
<polyline class="PedalSegment" fill="none" stroke="#000000" stroke-width="3.97" stroke-linecap="square" stroke-linejoin="bevel" points="745.55,478.756 745.55,448.992"/>
<polyline class="PedalSegment" fill="none" stroke="#000000" stroke-width="3.97" stroke-linecap="square" stroke-linejoin="bevel" points="366.475,324.976 366.475,354.74"/>
<polyline class="PedalSegment" fill="none" stroke="#000000" stroke-width="3.97" stroke-linecap="square" stroke-linejoin="bevel" points="366.475,354.74 528.321,354.74"/>
<polyline class="PedalSegment" fill="none" stroke="#000000" stroke-width="3.97" stroke-linecap="square" stroke-linejoin="bevel" points="528.321,354.74 528.321,324.976"/>
<polyline class="PedalSegment" fill="none" stroke="#000000" stroke-width="3.97" stroke-linecap="square" stroke-linejoin="bevel" points="548.073,324.976 548.073,354.74"/>
<polyline class="PedalSegment" fill="none" stroke="#000000" stroke-width="3.97" stroke-linecap="square" stroke-linejoin="bevel" points="548.073,354.74 741.251,354.74"/>
<polyline class="PedalSegment" fill="none" stroke="#000000" stroke-width="3.97" stroke-linecap="square" stroke-linejoin="bevel" points="741.251,354.74 741.251,324.976"/>
</svg>
