<?xml version="1.0" encoding="UTF-8" standalone="no"?>
<svg
   xmlns:dc="http://purl.org/dc/elements/1.1/"
   xmlns:cc="http://creativecommons.org/ns#"
   xmlns:rdf="http://www.w3.org/1999/02/22-rdf-syntax-ns#"
   xmlns:svg="http://www.w3.org/2000/svg"
   xmlns="http://www.w3.org/2000/svg"
   xmlns:sodipodi="http://sodipodi.sourceforge.net/DTD/sodipodi-0.dtd"
   xmlns:inkscape="http://www.inkscape.org/namespaces/inkscape"
   width="1133.86px"
   height="552.755px"
   viewBox="0 0 1133.86 552.755"
   version="1.2"
   id="svg44"
   sodipodi:docname="Septakkorde-o-1.svg"
   inkscape:version="0.92.3 (2405546, 2018-03-11)">
  <metadata
     id="metadata50">
    <rdf:RDF>
      <cc:Work
         rdf:about="">
        <dc:format>image/svg+xml</dc:format>
        <dc:type
           rdf:resource="http://purl.org/dc/dcmitype/StillImage" />
      </cc:Work>
    </rdf:RDF>
  </metadata>
  <defs
     id="defs48" />
  <sodipodi:namedview
     pagecolor="#ffffff"
     bordercolor="#666666"
     borderopacity="1"
     objecttolerance="10"
     gridtolerance="10"
     guidetolerance="10"
     inkscape:pageopacity="0"
     inkscape:pageshadow="2"
     inkscape:window-width="640"
     inkscape:window-height="480"
     id="namedview46"
     showgrid="false"
     inkscape:zoom="0.7193731"
     inkscape:cx="226.94384"
     inkscape:cy="75.307258"
     inkscape:current-layer="svg44" />
  <title
     id="title2">Septakkorde-o (1)</title>
  <desc
     id="desc4">Generated by MuseScore 3.6.2</desc>
  <rect
     style="opacity:1;fill:#ffffff;fill-opacity:1;stroke:#a5ceef;stroke-width:5;stroke-linejoin:round;stroke-miterlimit:4;stroke-dasharray:none;stroke-opacity:0.00457064"
     id="rect860"
     width="1278.8914"
     height="670.02783"
     x="-34.75248"
     y="-26.916382" />
  <polyline
     class="StaffLines"
     fill="none"
     stroke="#000000"
     stroke-width="3.22"
     stroke-linejoin="bevel"
     points="0,174.168 1133.86,174.168"
     id="polyline6" />
  <polyline
     class="StaffLines"
     fill="none"
     stroke="#000000"
     stroke-width="3.22"
     stroke-linejoin="bevel"
     points="0,198.971 1133.86,198.971"
     id="polyline8" />
  <polyline
     class="StaffLines"
     fill="none"
     stroke="#000000"
     stroke-width="3.22"
     stroke-linejoin="bevel"
     points="0,223.774 1133.86,223.774"
     id="polyline10" />
  <polyline
     class="StaffLines"
     fill="none"
     stroke="#000000"
     stroke-width="3.22"
     stroke-linejoin="bevel"
     points="0,248.578 1133.86,248.578"
     id="polyline12" />
  <polyline
     class="StaffLines"
     fill="none"
     stroke="#000000"
     stroke-width="3.22"
     stroke-linejoin="bevel"
     points="0,273.381 1133.86,273.381"
     id="polyline14" />
  <polyline
     class="BarLine"
     fill="none"
     stroke="#000000"
     stroke-width="3.97"
     stroke-linejoin="bevel"
     points="899.875,172.556 899.875,274.993"
     id="polyline16" />
  <polyline
     class="BarLine"
     fill="none"
     stroke="#000000"
     stroke-width="3.97"
     stroke-linejoin="bevel"
     points="913.765,172.556 913.765,274.993"
     id="polyline18" />
  <polyline
     class="BarLine"
     fill="none"
     stroke="#000000"
     stroke-width="3.97"
     stroke-linejoin="bevel"
     points="1131.88,172.556 1131.88,274.993"
     id="polyline20" />
  <path
     class="Note"
     transform="matrix(0.992126,0,0,0.992126,148.416,248.578)"
     d="M0,-0.203125 C0,7.09375 6.20313,13.5938 22.4063,13.5938 C40.2031,13.5938 45.9063,7.40625 45.9063,-0.203125 C45.9063,-7.90625 33.6094,-13.7031 23.5,-13.7031 C9,-13.7031 0,-7.59375 0,-0.203125 M11.7031,-4.20313 C11.7031,-9.79688 15.5938,-11.2031 20.7031,-11.2031 C28.1094,-11.2031 34.1094,-3.20313 34.1094,3.40625 C34.1094,8.90625 30.7031,11.0938 25.7969,11.0938 C18.5938,11.0938 11.7031,2.79688 11.7031,-4.20313"
     id="path22" />
  <path
     class="Note"
     transform="matrix(0.992126,0,0,0.992126,334.172,223.774)"
     d="M0,-0.203125 C0,7.09375 6.20313,13.5938 22.4063,13.5938 C40.2031,13.5938 45.9063,7.40625 45.9063,-0.203125 C45.9063,-7.90625 33.6094,-13.7031 23.5,-13.7031 C9,-13.7031 0,-7.59375 0,-0.203125 M11.7031,-4.20313 C11.7031,-9.79688 15.5938,-11.2031 20.7031,-11.2031 C28.1094,-11.2031 34.1094,-3.20313 34.1094,3.40625 C34.1094,8.90625 30.7031,11.0938 25.7969,11.0938 C18.5938,11.0938 11.7031,2.79688 11.7031,-4.20313"
     id="path24" />
  <path
     class="Note"
     transform="matrix(0.992126,0,0,0.992126,519.929,198.971)"
     d="M0,-0.203125 C0,7.09375 6.20313,13.5938 22.4063,13.5938 C40.2031,13.5938 45.9063,7.40625 45.9063,-0.203125 C45.9063,-7.90625 33.6094,-13.7031 23.5,-13.7031 C9,-13.7031 0,-7.59375 0,-0.203125 M11.7031,-4.20313 C11.7031,-9.79688 15.5938,-11.2031 20.7031,-11.2031 C28.1094,-11.2031 34.1094,-3.20313 34.1094,3.40625 C34.1094,8.90625 30.7031,11.0938 25.7969,11.0938 C18.5938,11.0938 11.7031,2.79688 11.7031,-4.20313"
     id="path26" />
  <path
     class="Note"
     transform="matrix(0.992126,0,0,0.992126,705.685,174.168)"
     d="M0,-0.203125 C0,7.09375 6.20313,13.5938 22.4063,13.5938 C40.2031,13.5938 45.9063,7.40625 45.9063,-0.203125 C45.9063,-7.90625 33.6094,-13.7031 23.5,-13.7031 C9,-13.7031 0,-7.59375 0,-0.203125 M11.7031,-4.20313 C11.7031,-9.79688 15.5938,-11.2031 20.7031,-11.2031 C28.1094,-11.2031 34.1094,-3.20313 34.1094,3.40625 C34.1094,8.90625 30.7031,11.0938 25.7969,11.0938 C18.5938,11.0938 11.7031,2.79688 11.7031,-4.20313"
     id="path28" />
  <path
     class="Note"
     transform="matrix(0.992126,0,0,0.992126,954.442,248.578)"
     d="M0,-0.203125 C0,7.09375 6.20313,13.5938 22.4063,13.5938 C40.2031,13.5938 45.9063,7.40625 45.9063,-0.203125 C45.9063,-7.90625 33.6094,-13.7031 23.5,-13.7031 C9,-13.7031 0,-7.59375 0,-0.203125 M11.7031,-4.20313 C11.7031,-9.79688 15.5938,-11.2031 20.7031,-11.2031 C28.1094,-11.2031 34.1094,-3.20313 34.1094,3.40625 C34.1094,8.90625 30.7031,11.0938 25.7969,11.0938 C18.5938,11.0938 11.7031,2.79688 11.7031,-4.20313"
     id="path30" />
  <path
     class="Note"
     transform="matrix(0.992126,0,0,0.992126,954.442,223.774)"
     d="M0,-0.203125 C0,7.09375 6.20313,13.5938 22.4063,13.5938 C40.2031,13.5938 45.9063,7.40625 45.9063,-0.203125 C45.9063,-7.90625 33.6094,-13.7031 23.5,-13.7031 C9,-13.7031 0,-7.59375 0,-0.203125 M11.7031,-4.20313 C11.7031,-9.79688 15.5938,-11.2031 20.7031,-11.2031 C28.1094,-11.2031 34.1094,-3.20313 34.1094,3.40625 C34.1094,8.90625 30.7031,11.0938 25.7969,11.0938 C18.5938,11.0938 11.7031,2.79688 11.7031,-4.20313"
     id="path32" />
  <path
     class="Note"
     transform="matrix(0.992126,0,0,0.992126,954.442,198.971)"
     d="M0,-0.203125 C0,7.09375 6.20313,13.5938 22.4063,13.5938 C40.2031,13.5938 45.9063,7.40625 45.9063,-0.203125 C45.9063,-7.90625 33.6094,-13.7031 23.5,-13.7031 C9,-13.7031 0,-7.59375 0,-0.203125 M11.7031,-4.20313 C11.7031,-9.79688 15.5938,-11.2031 20.7031,-11.2031 C28.1094,-11.2031 34.1094,-3.20313 34.1094,3.40625 C34.1094,8.90625 30.7031,11.0938 25.7969,11.0938 C18.5938,11.0938 11.7031,2.79688 11.7031,-4.20313"
     id="path34" />
  <path
     class="Note"
     transform="matrix(0.992126,0,0,0.992126,954.442,174.168)"
     d="M0,-0.203125 C0,7.09375 6.20313,13.5938 22.4063,13.5938 C40.2031,13.5938 45.9063,7.40625 45.9063,-0.203125 C45.9063,-7.90625 33.6094,-13.7031 23.5,-13.7031 C9,-13.7031 0,-7.59375 0,-0.203125 M11.7031,-4.20313 C11.7031,-9.79688 15.5938,-11.2031 20.7031,-11.2031 C28.1094,-11.2031 34.1094,-3.20313 34.1094,3.40625 C34.1094,8.90625 30.7031,11.0938 25.7969,11.0938 C18.5938,11.0938 11.7031,2.79688 11.7031,-4.20313"
     id="path36" />
  <path
     class="Clef"
     transform="matrix(0.992126,0,0,0.992126,19.8425,248.578)"
     d="M36.4063,25.2031 C38.7031,25.2031 41.2969,25 43.2969,24.5938 C44.4063,24.4063 44.6094,24.2969 44.7969,25.5 C46,32.2031 47.5,40.9063 47.5,45.6094 C47.5,60.4063 37.5,62.2031 31.6094,62.2031 C26.2031,62.2031 23.5938,60.6094 23.5938,59.2969 C23.5938,58.6094 24.5,58.2969 26.7969,57.6094 C29.9063,56.7031 33.5,54 33.5,48.2031 C33.5,42.7031 30,38 23.9063,38 C17.2031,38 13.2031,43.2969 13.2031,49.5 C13.2031,56 17.0938,65.7969 32.2031,65.7969 C38.9063,65.7969 51.9063,62.7969 51.9063,45.7969 C51.9063,40.1094 50.1094,30.6094 49,24.4063 C48.7969,23.2031 48.9063,23.2969 50.2969,22.7031 C60.4063,18.7031 67.1094,10.2031 67.1094,-1.09375 C67.1094,-13.9063 57.7031,-25.2031 43,-25.2031 C40.4063,-25.2031 40.4063,-25.2031 40.1094,-27 L37.6094,-41.5 C37.4063,-42.7031 37.6094,-42.7969 38.2031,-43.4063 C49,-53.5 57.2031,-66.2031 57.2031,-81.5 C57.2031,-90.2031 54.7969,-98.8125 50.7031,-104.813 C49.2031,-107 46.6094,-109.813 45.5,-109.813 C44.1094,-109.813 41,-107.203 39,-105 C31.6094,-96.8125 29.2031,-84.3125 29.2031,-73.9063 C29.2031,-68.1094 29.9063,-61.6094 30.6094,-57.5 C30.7969,-56.2969 30.9063,-56.1094 29.7031,-55.1094 C15.2969,-43.2031 0,-28.9063 0,-8.70313 C0,8.70313 11.9063,25.2031 36.4063,25.2031 M8,-2 C8,-7.90625 9,-15.7969 17.2969,-25.2031 C23.2969,-31.9063 27.9063,-35.6094 32.6094,-39.4063 C33.6094,-40.2031 33.7969,-40.1094 34,-39 L36.1094,-26.2031 C36.4063,-24.2969 36.4063,-24.4063 34.6094,-23.7969 C25.7969,-20.7969 20.0938,-12.9063 20.0938,-4.40625 C20.0938,4.59375 24.7969,11 31.6094,13.2969 C32.4063,13.5938 33.6094,13.9063 34.2969,13.9063 C35.1094,13.9063 35.5,13.4063 35.5,12.7969 C35.5,12.0938 34.7031,11.7969 34,11.5 C29.7969,9.70313 26.7969,5.40625 26.7969,0.796875 C26.7969,-4.90625 30.7031,-9.20313 36.7969,-10.9063 C38.4063,-11.2969 38.6094,-11.2031 38.7969,-10.0938 L43.7969,19.7031 C44,20.7969 43.9063,20.7969 42.4063,21.0938 C40.7969,21.4063 38.7969,21.5938 36.7969,21.5938 C19.2969,21.5938 8,11.9063 8,-2 M47,-94.3125 C50.2969,-94.3125 53,-91.6094 53,-86.1094 C53,-75 43.5,-66 35.6094,-59.1094 C34.9063,-58.5 34.5,-58.6094 34.2969,-59.9063 C33.9063,-62.5 33.7031,-65.9063 33.7031,-69.1094 C33.7031,-84.7031 40.9063,-94.3125 47,-94.3125 M44.1094,-11.7031 C52.2031,-11 58.9063,-4.20313 58.9063,4.59375 C58.9063,10.9063 55.1094,16 49.5,18.7969 C48.2969,19.4063 48.1094,19.4063 47.9063,18.2031 L43,-10.2969 C42.7969,-11.5 42.9063,-11.7969 44.1094,-11.7031"
     id="path38" />
  <path
     class="SystemText"
     d="M197.584,24.9063 L197.584,0.140625 L188.334,0.703125 L188.334,2.84375 L190.725,2.84375 C192.631,2.89063 192.881,3.20313 192.881,5.34375 L192.881,30.8438 L192.881,33.25 C192.834,33.9531 192.787,34.25 192.584,34.5 C192.225,34.9531 191.287,35.1563 189.131,35.2031 L188.928,35.2031 L188.928,37 L201.584,37 L201.584,35.2031 L201.381,35.2031 C198.037,35.0938 197.584,34.8438 197.584,33.0469 L197.584,30.8438 L197.584,28 L200.631,25.0938 L206.584,33.4531 C206.834,33.8438 206.928,34.0938 206.928,34.2969 C206.928,35 206.381,35.2031 204.725,35.2031 L203.787,35.2031 L203.787,37 L216.99,37 L216.99,35.2031 C214.178,34.9531 213.178,34.3438 211.131,31.75 L204.037,22.0469 L206.287,19.8438 C209.225,17 211.334,15.9063 214.74,15.5 L214.74,13.7031 L201.584,13.7031 L201.584,15.5 L203.131,15.5 C204.725,15.5 205.475,15.7969 205.475,16.4531 C205.475,17 205.131,17.5938 204.334,18.4063 L197.584,24.9063 M228.834,0.140625 L219.584,0.703125 L219.584,2.84375 L222.037,2.84375 C223.881,2.89063 224.131,3.20313 224.131,5.34375 L224.131,30.8438 L224.131,33.2031 C224.084,33.9531 224.037,34.25 223.834,34.5 C223.475,34.9531 222.537,35.1563 220.381,35.2031 L220.037,35.2031 L220.037,37 L232.975,37 L232.975,35.2031 L232.631,35.2031 C229.287,35.0938 228.834,34.8438 228.834,33.0469 L228.834,30.8438 L228.834,0.140625 M257.881,25.75 C257.928,18.25 253.678,12.9531 247.584,12.9531 C241.178,12.9531 236.381,18.5 236.381,26 C236.381,33.0469 240.928,37.75 247.678,37.75 C252.475,37.75 255.834,35.4063 257.881,30.6563 L256.131,29.7031 C254.084,33.5469 251.975,35.0469 248.631,35.0469 C246.084,35.0469 244.225,34 242.928,31.75 C242.037,30.25 241.631,28.5 241.678,25.75 L257.881,25.75 M241.725,23.5938 C241.725,22.0469 241.928,20.9531 242.428,19.5469 C243.475,16.5469 245.084,15.0938 247.537,15.0938 C250.537,15.0938 252.537,17.75 252.537,21.7969 C252.537,23.2031 252.084,23.5938 250.475,23.5938 L241.725,23.5938 M269.928,13.7031 L260.537,14.25 L260.537,16.4063 L263.084,16.4063 C264.975,16.4531 265.225,16.75 265.225,18.9063 L265.225,30.8438 L265.225,33.2031 C265.178,33.9531 265.131,34.25 264.928,34.5 C264.584,34.9531 263.631,35.1563 261.475,35.2031 L261.131,35.2031 L261.131,37 L274.084,37 L274.084,35.2031 L273.725,35.2031 C270.381,35.0938 269.928,34.8438 269.928,33.0469 L269.928,30.8438 L269.928,13.7031 M267.584,1.25 C265.975,1.25 264.678,2.54688 264.678,4.14063 C264.678,5.75 265.975,7.04688 267.537,7.04688 C269.178,7.04688 270.475,5.75 270.475,4.14063 C270.475,2.54688 269.178,1.25 267.584,1.25 M285.631,13.7031 L276.975,14.25 L276.975,16.4063 L278.787,16.4063 C280.678,16.4531 280.928,16.75 280.928,18.9063 L280.928,30.8438 L280.928,32.0469 L280.928,33.2031 C280.881,33.9531 280.834,34.25 280.631,34.5 C280.287,34.9531 279.334,35.1563 277.178,35.2031 L276.975,35.2031 L276.975,37 L289.631,37 L289.631,35.2031 L289.428,35.2031 C286.084,35.0938 285.631,34.8438 285.631,33.0469 L285.631,30.8438 L285.631,25.6563 C285.631,23.2031 285.975,20.9531 286.537,19.7969 C287.584,17.5469 289.834,16 291.975,16 C293.287,16 294.787,16.7031 295.537,17.75 C296.287,18.8438 296.631,20.3438 296.631,22.75 L296.631,30.8438 L296.631,33.2031 C296.584,33.9531 296.537,34.25 296.334,34.5 C295.975,34.9531 294.975,35.1563 292.834,35.2031 L292.631,35.2031 L292.631,37 L305.287,37 L305.287,35.2031 L305.084,35.2031 C301.787,35.0938 301.334,34.8438 301.334,33.0469 L301.334,30.8438 L301.334,23 C301.334,19.4063 301.178,18.5 300.287,16.7969 C299.037,14.4063 296.537,12.9531 293.537,12.9531 C290.287,12.9531 287.834,14.4531 285.631,17.75 L285.631,13.7031 M329.881,25.75 C329.928,18.25 325.678,12.9531 319.584,12.9531 C313.178,12.9531 308.381,18.5 308.381,26 C308.381,33.0469 312.928,37.75 319.678,37.75 C324.475,37.75 327.834,35.4063 329.881,30.6563 L328.131,29.7031 C326.084,33.5469 323.975,35.0469 320.631,35.0469 C318.084,35.0469 316.225,34 314.928,31.75 C314.037,30.25 313.631,28.5 313.678,25.75 L329.881,25.75 M313.725,23.5938 C313.725,22.0469 313.928,20.9531 314.428,19.5469 C315.475,16.5469 317.084,15.0938 319.537,15.0938 C322.537,15.0938 324.537,17.75 324.537,21.7969 C324.537,23.2031 324.084,23.5938 322.475,23.5938 L313.725,23.5938 M341.537,13.7031 L332.678,14.25 L332.678,16.4063 L334.725,16.4063 C336.631,16.4531 336.881,16.75 336.881,18.9063 L336.881,30.8438 L336.881,33.2031 C336.834,33.9531 336.787,34.25 336.584,34.5 C336.225,34.9531 335.225,35.1563 333.084,35.2031 L332.881,35.2031 L332.881,37 L346.225,37 L346.225,35.2031 L345.334,35.2031 C341.975,35.0938 341.537,34.8438 341.537,33.0469 L341.537,30.8438 L341.537,30.3438 C341.584,21.9531 344.584,15.5469 348.475,15.3438 C347.787,16.1563 347.584,16.6563 347.584,17.5938 C347.584,19.2031 348.725,20.3438 350.334,20.3438 C352.178,20.3438 353.381,19 353.381,17 C353.381,14.5469 351.678,12.9531 349.037,12.9531 C345.881,12.9531 343.178,15.4531 341.537,19.9063 L341.537,13.7031 M369.084,37 L385.881,37 C390.334,37 393.74,36.2969 396.381,34.7969 C401.428,31.9531 404.24,26.25 404.24,18.75 C404.24,11.8438 401.74,6.45313 397.131,3.45313 C394.381,1.70313 390.678,0.890625 384.975,0.890625 L369.084,0.890625 L369.084,3.25 L370.037,3.25 C372.834,3.29688 373.787,3.45313 374.178,3.95313 C374.475,4.39063 374.475,4.5 374.475,7.04688 L374.475,30.8438 C374.475,33.4063 374.475,33.5 374.178,33.9531 C373.787,34.4531 372.834,34.5938 370.037,34.6563 L369.084,34.6563 L369.084,37 M382.928,34.6563 C380.381,34.6563 380.084,34.3438 380.084,31.9063 L380.084,6.04688 C380.084,3.59375 380.428,3.25 382.928,3.25 L385.537,3.25 C394.084,3.25 397.631,7.89063 397.631,18.9531 C397.631,30.1563 394.428,34.6563 386.334,34.6563 L382.928,34.6563 M427.225,37.3438 L436.334,37 L436.334,34.8438 L435.084,34.8438 C432.178,34.75 431.928,34.4531 431.928,31.2031 L431.928,13.7031 L422.537,14.25 L422.537,16.4063 L425.084,16.4063 C426.975,16.4531 427.225,16.75 427.225,18.9063 L427.225,25.0469 C427.225,27.9063 426.928,29.5938 426.178,31.2031 C425.131,33.4531 423.131,34.7031 420.678,34.7031 C419.131,34.7031 417.834,34.1563 417.178,33.1563 C416.537,32.2031 416.428,31.7031 416.428,28.9531 L416.428,13.7031 L407.678,14.25 L407.678,16.4063 L409.584,16.4063 C411.475,16.4531 411.725,16.75 411.725,18.9063 L411.725,29.7031 C411.725,32.25 411.928,33.4063 412.678,34.5469 C414.037,36.5938 416.428,37.75 419.428,37.75 C422.725,37.75 425.037,36.4063 427.225,33.2031 L427.225,37.3438 M447.537,13.7031 L438.678,14.25 L438.678,16.4063 L440.725,16.4063 C442.631,16.4531 442.881,16.75 442.881,18.9063 L442.881,30.8438 L442.881,33.2031 C442.834,33.9531 442.787,34.25 442.584,34.5 C442.225,34.9531 441.225,35.1563 439.084,35.2031 L438.881,35.2031 L438.881,37 L452.225,37 L452.225,35.2031 L451.334,35.2031 C447.975,35.0938 447.537,34.8438 447.537,33.0469 L447.537,30.8438 L447.537,30.3438 C447.584,21.9531 450.584,15.5469 454.475,15.3438 C453.787,16.1563 453.584,16.6563 453.584,17.5938 C453.584,19.2031 454.725,20.3438 456.334,20.3438 C458.178,20.3438 459.381,19 459.381,17 C459.381,14.5469 457.678,12.9531 455.037,12.9531 C451.881,12.9531 449.178,15.4531 447.537,19.9063 L447.537,13.7031 M458.725,23.0938 L458.725,27.25 L471.178,27.25 L471.178,23.0938 L458.725,23.0938 M502.928,0.59375 L501.084,0.59375 L499.084,3.59375 C496.678,1.34375 493.537,0.140625 489.975,0.140625 C483.381,0.140625 479.037,4.29688 479.037,10.5938 C479.037,16.0469 481.725,18.75 489.084,20.6563 L493.834,21.8438 C497.537,22.7969 497.881,22.9063 498.928,23.7031 C500.428,24.8438 501.24,26.5 501.24,28.4531 C501.24,30.4531 500.475,32.0938 498.975,33.5 C497.334,34.9063 495.678,35.4531 492.928,35.4531 C489.225,35.4531 486.584,34.2969 484.225,31.7031 C482.131,29.4063 481.084,27 480.334,23.1563 L478.178,23.1563 L478.381,37.4063 L480.334,37.4063 L482.584,34 C485.928,36.75 488.678,37.75 493.084,37.75 C500.428,37.75 505.131,33.4531 505.131,26.75 C505.131,23.5938 504.131,21 502.131,19.0938 C500.787,17.7969 498.834,16.9531 494.834,15.9531 L489.475,14.5938 C485.037,13.4531 482.928,11.5 482.928,8.45313 C482.928,4.95313 485.787,2.54688 490.037,2.54688 C493.537,2.54688 496.381,4.04688 498.381,6.89063 C499.834,8.95313 500.787,11.0469 501.381,13.5938 L503.537,13.5938 L502.928,0.59375 M530.881,25.75 C530.928,18.25 526.678,12.9531 520.584,12.9531 C514.178,12.9531 509.381,18.5 509.381,26 C509.381,33.0469 513.928,37.75 520.678,37.75 C525.475,37.75 528.834,35.4063 530.881,30.6563 L529.131,29.7031 C527.084,33.5469 524.975,35.0469 521.631,35.0469 C519.084,35.0469 517.225,34 515.928,31.75 C515.037,30.25 514.631,28.5 514.678,25.75 L530.881,25.75 M514.725,23.5938 C514.725,22.0469 514.928,20.9531 515.428,19.5469 C516.475,16.5469 518.084,15.0938 520.537,15.0938 C523.537,15.0938 525.537,17.75 525.537,21.7969 C525.537,23.2031 525.084,23.5938 523.475,23.5938 L514.725,23.5938 M542.678,13.7031 L534.037,14.25 L534.037,16.4063 L535.834,16.4063 C537.725,16.4531 537.975,16.75 537.975,18.9063 L537.975,40.9531 L537.975,43.3438 C537.928,44.0469 537.881,44.3438 537.678,44.5938 C537.334,45.0469 536.381,45.25 534.225,45.2969 L534.037,45.2969 L534.037,47.0938 L547.037,47.0938 L547.037,45.2969 L546.475,45.2969 C543.131,45.2031 542.678,44.9531 542.678,43.1563 L542.678,40.9531 L542.678,33.7031 C544.334,36.5938 546.178,37.75 549.287,37.75 C552.334,37.75 554.834,36.4531 556.631,34 C558.381,31.5938 559.381,28.5 559.381,25.25 C559.381,22 558.381,18.9531 556.537,16.5469 C554.678,14.1563 552.381,12.9531 549.584,12.9531 C546.475,12.9531 544.428,14.25 542.678,17.25 L542.678,13.7031 M548.678,15.6563 C552.131,15.6563 554.131,19.0938 554.131,24.9531 C554.131,31.4063 552.131,35.0469 548.537,35.0469 C544.928,35.0469 542.631,31.3438 542.631,25.5938 C542.631,19.3438 544.881,15.6563 548.678,15.6563 M570.334,13.7031 L570.334,3.79688 L568.287,3.79688 C567.787,10.2969 565.584,13.5938 561.537,13.9063 L561.537,15.8438 L565.631,15.8438 L565.631,28.5938 C565.631,32.0938 565.725,33.3438 566.225,34.5 C567.037,36.5938 569.037,37.75 571.928,37.75 C576.428,37.75 579.334,34.3438 579.334,29.0469 C579.334,28.75 579.334,28.4063 579.287,27.9063 L577.178,27.9063 C577.037,32.4063 575.725,34.7031 573.287,34.7031 C572.131,34.7031 571.131,34.0938 570.787,33.25 C570.475,32.5469 570.334,31.2969 570.334,29.5 L570.334,15.8438 L577.678,15.8438 L577.678,13.7031 L570.334,13.7031 M602.225,20.9063 C602.225,17.75 601.678,16.1563 600.225,14.9531 C598.584,13.5938 596.131,12.9531 592.928,12.9531 C587.287,12.9531 583.178,15.5938 583.178,19.25 C583.178,21.0938 584.334,22.2969 586.084,22.2969 C587.678,22.2969 588.787,21.25 588.787,19.75 C588.787,19.0938 588.537,18.4063 588.037,17.7031 C587.725,17.3438 587.678,17.25 587.678,17 C587.678,16 589.678,15.0938 592.084,15.0938 C593.678,15.0938 595.428,15.5938 596.225,16.3438 C597.178,17.1563 597.537,18.3438 597.537,20.5938 L597.537,22.5469 C592.334,23.4531 590.678,23.8438 588.225,24.7969 C583.881,26.4063 581.834,28.7031 581.834,31.9063 C581.834,35.5 584.631,37.75 589.084,37.75 C592.537,37.75 595.631,36.3438 597.787,33.7969 C598.584,36.3438 599.834,37.3438 602.178,37.3438 C604.428,37.3438 606.787,35.9063 606.787,34.4531 C606.787,34.0938 606.584,33.8438 606.287,33.8438 C606.084,33.8438 605.881,33.9063 605.537,34.0469 C604.834,34.3438 604.537,34.4063 604.131,34.4063 C602.725,34.4063 602.225,33.5 602.225,30.9531 L602.225,20.9063 M597.537,27 C597.537,30 597.381,30.7031 596.537,32 C595.287,33.8438 593.037,35.0938 590.834,35.0938 C588.537,35.0938 586.881,33.4531 586.881,31.2031 C586.881,29.0938 587.928,27.5938 590.131,26.5469 C591.678,25.8438 593.631,25.3438 597.537,24.7031 L597.537,27 M617.584,24.9063 L617.584,0.140625 L608.334,0.703125 L608.334,2.84375 L610.725,2.84375 C612.631,2.89063 612.881,3.20313 612.881,5.34375 L612.881,30.8438 L612.881,33.25 C612.834,33.9531 612.787,34.25 612.584,34.5 C612.225,34.9531 611.287,35.1563 609.131,35.2031 L608.928,35.2031 L608.928,37 L621.584,37 L621.584,35.2031 L621.381,35.2031 C618.037,35.0938 617.584,34.8438 617.584,33.0469 L617.584,30.8438 L617.584,28 L620.631,25.0938 L626.584,33.4531 C626.834,33.8438 626.928,34.0938 626.928,34.2969 C626.928,35 626.381,35.2031 624.725,35.2031 L623.787,35.2031 L623.787,37 L636.99,37 L636.99,35.2031 C634.178,34.9531 633.178,34.3438 631.131,31.75 L624.037,22.0469 L626.287,19.8438 C629.225,17 631.334,15.9063 634.74,15.5 L634.74,13.7031 L621.584,13.7031 L621.584,15.5 L623.131,15.5 C624.725,15.5 625.475,15.7969 625.475,16.4531 C625.475,17 625.131,17.5938 624.334,18.4063 L617.584,24.9063 M648.584,24.9063 L648.584,0.140625 L639.334,0.703125 L639.334,2.84375 L641.725,2.84375 C643.631,2.89063 643.881,3.20313 643.881,5.34375 L643.881,30.8438 L643.881,33.25 C643.834,33.9531 643.787,34.25 643.584,34.5 C643.225,34.9531 642.287,35.1563 640.131,35.2031 L639.928,35.2031 L639.928,37 L652.584,37 L652.584,35.2031 L652.381,35.2031 C649.037,35.0938 648.584,34.8438 648.584,33.0469 L648.584,30.8438 L648.584,28 L651.631,25.0938 L657.584,33.4531 C657.834,33.8438 657.928,34.0938 657.928,34.2969 C657.928,35 657.381,35.2031 655.725,35.2031 L654.787,35.2031 L654.787,37 L667.99,37 L667.99,35.2031 C665.178,34.9531 664.178,34.3438 662.131,31.75 L655.037,22.0469 L657.287,19.8438 C660.225,17 662.334,15.9063 665.74,15.5 L665.74,13.7031 L652.584,13.7031 L652.584,15.5 L654.131,15.5 C655.725,15.5 656.475,15.7969 656.475,16.4531 C656.475,17 656.131,17.5938 655.334,18.4063 L648.584,24.9063 M680.225,12.9531 C674.084,12.9531 669.334,18.4063 669.334,25.4063 C669.334,32.25 674.131,37.75 680.131,37.75 C686.131,37.75 690.928,32.25 690.928,25.3438 C690.928,18.5 686.131,12.9531 680.225,12.9531 M680.225,15.0938 C683.725,15.0938 685.678,18.75 685.678,25.3438 C685.678,32 683.725,35.5938 680.131,35.5938 C676.537,35.5938 674.584,32 674.584,25.4063 C674.584,18.5938 676.475,15.0938 680.225,15.0938 M702.537,13.7031 L693.678,14.25 L693.678,16.4063 L695.725,16.4063 C697.631,16.4531 697.881,16.75 697.881,18.9063 L697.881,30.8438 L697.881,33.2031 C697.834,33.9531 697.787,34.25 697.584,34.5 C697.225,34.9531 696.225,35.1563 694.084,35.2031 L693.881,35.2031 L693.881,37 L707.225,37 L707.225,35.2031 L706.334,35.2031 C702.975,35.0938 702.537,34.8438 702.537,33.0469 L702.537,30.8438 L702.537,30.3438 C702.584,21.9531 705.584,15.5469 709.475,15.3438 C708.787,16.1563 708.584,16.6563 708.584,17.5938 C708.584,19.2031 709.725,20.3438 711.334,20.3438 C713.178,20.3438 714.381,19 714.381,17 C714.381,14.5469 712.678,12.9531 710.037,12.9531 C706.881,12.9531 704.178,15.4531 702.537,19.9063 L702.537,13.7031 M733.631,37.3438 L742.334,37 L742.334,34.8438 L741.428,34.8438 C738.584,34.7031 738.334,34.4063 738.334,31.2031 L738.334,0.140625 L728.537,0.703125 L728.537,2.84375 L731.475,2.84375 C733.381,2.89063 733.631,3.20313 733.631,5.34375 L733.631,16.6563 C731.787,14.0938 729.631,12.9531 726.725,12.9531 C721.084,12.9531 716.787,18.4063 716.787,25.5938 C716.787,32.7031 720.928,37.75 726.725,37.75 C729.881,37.75 732.037,36.4063 733.631,33.4063 L733.631,37.3438 M727.725,15.6563 C729.787,15.6563 731.725,17.1563 732.631,19.4531 C733.287,20.9531 733.584,23 733.584,25.4531 C733.584,31.2969 731.287,35.0469 727.678,35.0469 C724.131,35.0469 722.037,31.75 722.037,26.2031 C722.037,23.2031 722.334,20.9531 722.975,19.2969 C723.834,17.0469 725.678,15.6563 727.725,15.6563"
     id="path40" />
  <path
     class="SystemText"
     d="M216.584,60.2031 C213.537,62.0469 211.975,63.3438 210.287,65.3438 C206.475,69.8438 204.428,75.5938 204.428,81.6563 C204.428,87.3438 206.225,92.7031 209.584,97.1563 C211.475,99.5469 213.178,101.047 216.584,103.156 L216.584,101.297 C211.584,96.8438 209.584,91.2969 209.584,81.6563 C209.584,72 211.584,66.4531 216.584,62.0469 L216.584,60.2031 M221.084,97 L237.881,97 C242.334,97 245.74,96.2969 248.381,94.7969 C253.428,91.9531 256.24,86.25 256.24,78.75 C256.24,71.8438 253.74,66.4531 249.131,63.4531 C246.381,61.7031 242.678,60.8906 236.975,60.8906 L221.084,60.8906 L221.084,63.25 L222.037,63.25 C224.834,63.2969 225.787,63.4531 226.178,63.9531 C226.475,64.3906 226.475,64.5 226.475,67.0469 L226.475,90.8438 C226.475,93.4063 226.475,93.5 226.178,93.9531 C225.787,94.4531 224.834,94.5938 222.037,94.6563 L221.084,94.6563 L221.084,97 M234.928,94.6563 C232.381,94.6563 232.084,94.3438 232.084,91.9063 L232.084,66.0469 C232.084,63.5938 232.428,63.25 234.928,63.25 L237.537,63.25 C246.084,63.25 249.631,67.8906 249.631,78.9531 C249.631,90.1563 246.428,94.6563 238.334,94.6563 L234.928,94.6563 M271.225,72.9531 C265.084,72.9531 260.334,78.4063 260.334,85.4063 C260.334,92.25 265.131,97.75 271.131,97.75 C277.131,97.75 281.928,92.25 281.928,85.3438 C281.928,78.5 277.131,72.9531 271.225,72.9531 M271.225,75.0938 C274.725,75.0938 276.678,78.75 276.678,85.3438 C276.678,92 274.725,95.5938 271.131,95.5938 C267.537,95.5938 265.584,92 265.584,85.4063 C265.584,78.5938 267.475,75.0938 271.225,75.0938 M293.678,73.7031 L284.787,74.25 L284.787,76.4063 L286.834,76.4063 C288.725,76.4531 288.975,76.75 288.975,78.9063 L288.975,90.8438 L288.975,92.7969 L288.975,93.2031 C288.928,93.9531 288.881,94.25 288.678,94.5 C288.334,94.9531 287.381,95.1563 285.225,95.2031 L285.037,95.2031 L285.037,97 L297.631,97 L297.631,95.2031 L297.428,95.2031 C294.131,95.0938 293.678,94.8438 293.678,93 L293.678,90.8438 L293.678,83.75 C293.678,79.2969 296.131,76 299.381,76 C302.225,76 303.678,78.0469 303.678,82.0938 L303.678,90.8438 L303.678,93.25 C303.631,93.9063 303.584,94.25 303.334,94.5 C303.037,94.9531 302.037,95.1563 299.881,95.2031 L299.678,95.2031 L299.678,97 L312.334,97 L312.334,95.2031 L312.131,95.2031 C308.834,95.0938 308.381,94.8438 308.381,93.0469 L308.381,90.8438 L308.381,84.2031 C308.381,79.2031 310.631,76 314.131,76 C316.99,76 318.381,78.1563 318.381,82.6563 L318.381,90.8438 L318.381,93.2031 C318.334,93.9063 318.287,94.25 318.037,94.5 C317.74,94.9531 316.74,95.1563 314.584,95.2031 L314.381,95.2031 L314.381,97 L327.037,97 L327.037,95.2031 L326.834,95.2031 C323.537,95.0938 323.084,94.8438 323.084,93 L323.084,90.8438 L323.084,81.6563 C323.084,78.5469 322.787,77.5 321.49,75.7969 C320.037,73.9531 317.99,72.9531 315.584,72.9531 C312.334,72.9531 309.928,74.5 307.787,77.9531 C306.928,74.9531 304.225,72.9531 300.881,72.9531 C297.834,72.9531 295.631,74.4063 293.678,77.5469 L293.678,73.7031 M337.928,73.7031 L328.537,74.25 L328.537,76.4063 L331.084,76.4063 C332.975,76.4531 333.225,76.75 333.225,78.9063 L333.225,90.8438 L333.225,93.2031 C333.178,93.9531 333.131,94.25 332.928,94.5 C332.584,94.9531 331.631,95.1563 329.475,95.2031 L329.131,95.2031 L329.131,97 L342.084,97 L342.084,95.2031 L341.725,95.2031 C338.381,95.0938 337.928,94.8438 337.928,93.0469 L337.928,90.8438 L337.928,73.7031 M335.584,61.25 C333.975,61.25 332.678,62.5469 332.678,64.1406 C332.678,65.75 333.975,67.0469 335.537,67.0469 C337.178,67.0469 338.475,65.75 338.475,64.1406 C338.475,62.5469 337.178,61.25 335.584,61.25 M353.631,73.7031 L344.975,74.25 L344.975,76.4063 L346.787,76.4063 C348.678,76.4531 348.928,76.75 348.928,78.9063 L348.928,90.8438 L348.928,92.0469 L348.928,93.2031 C348.881,93.9531 348.834,94.25 348.631,94.5 C348.287,94.9531 347.334,95.1563 345.178,95.2031 L344.975,95.2031 L344.975,97 L357.631,97 L357.631,95.2031 L357.428,95.2031 C354.084,95.0938 353.631,94.8438 353.631,93.0469 L353.631,90.8438 L353.631,85.6563 C353.631,83.2031 353.975,80.9531 354.537,79.7969 C355.584,77.5469 357.834,76 359.975,76 C361.287,76 362.787,76.7031 363.537,77.75 C364.287,78.8438 364.631,80.3438 364.631,82.75 L364.631,90.8438 L364.631,93.2031 C364.584,93.9531 364.537,94.25 364.334,94.5 C363.975,94.9531 362.975,95.1563 360.834,95.2031 L360.631,95.2031 L360.631,97 L373.287,97 L373.287,95.2031 L373.084,95.2031 C369.787,95.0938 369.334,94.8438 369.334,93.0469 L369.334,90.8438 L369.334,83 C369.334,79.4063 369.178,78.5 368.287,76.7969 C367.037,74.4063 364.537,72.9531 361.537,72.9531 C358.287,72.9531 355.834,74.4531 353.631,77.75 L353.631,73.7031 M397.225,80.9063 C397.225,77.75 396.678,76.1563 395.225,74.9531 C393.584,73.5938 391.131,72.9531 387.928,72.9531 C382.287,72.9531 378.178,75.5938 378.178,79.25 C378.178,81.0938 379.334,82.2969 381.084,82.2969 C382.678,82.2969 383.787,81.25 383.787,79.75 C383.787,79.0938 383.537,78.4063 383.037,77.7031 C382.725,77.3438 382.678,77.25 382.678,77 C382.678,76 384.678,75.0938 387.084,75.0938 C388.678,75.0938 390.428,75.5938 391.225,76.3438 C392.178,77.1563 392.537,78.3438 392.537,80.5938 L392.537,82.5469 C387.334,83.4531 385.678,83.8438 383.225,84.7969 C378.881,86.4063 376.834,88.7031 376.834,91.9063 C376.834,95.5 379.631,97.75 384.084,97.75 C387.537,97.75 390.631,96.3438 392.787,93.7969 C393.584,96.3438 394.834,97.3438 397.178,97.3438 C399.428,97.3438 401.787,95.9063 401.787,94.4531 C401.787,94.0938 401.584,93.8438 401.287,93.8438 C401.084,93.8438 400.881,93.9063 400.537,94.0469 C399.834,94.3438 399.537,94.4063 399.131,94.4063 C397.725,94.4063 397.225,93.5 397.225,90.9531 L397.225,80.9063 M392.537,87 C392.537,90 392.381,90.7031 391.537,92 C390.287,93.8438 388.037,95.0938 385.834,95.0938 C383.537,95.0938 381.881,93.4531 381.881,91.2031 C381.881,89.0938 382.928,87.5938 385.131,86.5469 C386.678,85.8438 388.631,85.3438 392.537,84.7031 L392.537,87 M412.631,73.7031 L403.975,74.25 L403.975,76.4063 L405.787,76.4063 C407.678,76.4531 407.928,76.75 407.928,78.9063 L407.928,90.8438 L407.928,92.0469 L407.928,93.2031 C407.881,93.9531 407.834,94.25 407.631,94.5 C407.287,94.9531 406.334,95.1563 404.178,95.2031 L403.975,95.2031 L403.975,97 L416.631,97 L416.631,95.2031 L416.428,95.2031 C413.084,95.0938 412.631,94.8438 412.631,93.0469 L412.631,90.8438 L412.631,85.6563 C412.631,83.2031 412.975,80.9531 413.537,79.7969 C414.584,77.5469 416.834,76 418.975,76 C420.287,76 421.787,76.7031 422.537,77.75 C423.287,78.8438 423.631,80.3438 423.631,82.75 L423.631,90.8438 L423.631,93.2031 C423.584,93.9531 423.537,94.25 423.334,94.5 C422.975,94.9531 421.975,95.1563 419.834,95.2031 L419.631,95.2031 L419.631,97 L432.287,97 L432.287,95.2031 L432.084,95.2031 C428.787,95.0938 428.334,94.8438 428.334,93.0469 L428.334,90.8438 L428.334,83 C428.334,79.4063 428.178,78.5 427.287,76.7969 C426.037,74.4063 423.537,72.9531 420.537,72.9531 C417.287,72.9531 414.834,74.4531 412.631,77.75 L412.631,73.7031 M443.334,73.7031 L443.334,63.7969 L441.287,63.7969 C440.787,70.2969 438.584,73.5938 434.537,73.9063 L434.537,75.8438 L438.631,75.8438 L438.631,88.5938 C438.631,92.0938 438.725,93.3438 439.225,94.5 C440.037,96.5938 442.037,97.75 444.928,97.75 C449.428,97.75 452.334,94.3438 452.334,89.0469 C452.334,88.75 452.334,88.4063 452.287,87.9063 L450.178,87.9063 C450.037,92.4063 448.725,94.7031 446.287,94.7031 C445.131,94.7031 444.131,94.0938 443.787,93.25 C443.475,92.5469 443.334,91.2969 443.334,89.5 L443.334,75.8438 L450.678,75.8438 L450.678,73.7031 L443.334,73.7031 M472.131,73.1563 L470.381,73.1563 L468.928,74.9531 C467.131,73.5469 465.334,72.9531 462.834,72.9531 C458.428,72.9531 455.537,75.7969 455.537,80.2031 C455.537,82.1563 456.178,83.7969 457.287,84.7969 C458.428,85.8438 459.584,86.3438 462.584,87.0469 L465.225,87.6563 C469.178,88.5938 470.584,89.5938 470.584,91.5938 C470.584,93.9531 468.537,95.5938 465.631,95.5938 C461.381,95.5938 458.381,92.9063 457.178,87.9063 L455.178,87.9063 L455.178,97.3438 L456.928,97.3438 L458.678,95.2969 C460.725,96.9531 462.975,97.75 465.537,97.75 C470.428,97.75 473.678,94.7031 473.678,90.0469 C473.678,87.8438 472.975,86.1563 471.584,85 C470.381,83.9531 469.381,83.5469 466.334,82.9063 L463.834,82.3438 C461.084,81.75 461.084,81.75 460.178,81.25 C459.084,80.75 458.428,79.7031 458.428,78.5938 C458.428,76.5469 460.334,75.1563 463.084,75.1563 C464.975,75.1563 466.537,75.7969 467.928,77.1563 C469.037,78.25 469.584,79.25 470.381,81.5469 L472.131,81.5469 L472.131,73.1563 M498.881,85.75 C498.928,78.25 494.678,72.9531 488.584,72.9531 C482.178,72.9531 477.381,78.5 477.381,86 C477.381,93.0469 481.928,97.75 488.678,97.75 C493.475,97.75 496.834,95.4063 498.881,90.6563 L497.131,89.7031 C495.084,93.5469 492.975,95.0469 489.631,95.0469 C487.084,95.0469 485.225,94 483.928,91.75 C483.037,90.25 482.631,88.5 482.678,85.75 L498.881,85.75 M482.725,83.5938 C482.725,82.0469 482.928,80.9531 483.428,79.5469 C484.475,76.5469 486.084,75.0938 488.537,75.0938 C491.537,75.0938 493.537,77.75 493.537,81.7969 C493.537,83.2031 493.084,83.5938 491.475,83.5938 L482.725,83.5938 M510.678,73.7031 L502.037,74.25 L502.037,76.4063 L503.834,76.4063 C505.725,76.4531 505.975,76.75 505.975,78.9063 L505.975,100.953 L505.975,103.344 C505.928,104.047 505.881,104.344 505.678,104.594 C505.334,105.047 504.381,105.25 502.225,105.297 L502.037,105.297 L502.037,107.094 L515.037,107.094 L515.037,105.297 L514.475,105.297 C511.131,105.203 510.678,104.953 510.678,103.156 L510.678,100.953 L510.678,93.7031 C512.334,96.5938 514.178,97.75 517.287,97.75 C520.334,97.75 522.834,96.4531 524.631,94 C526.381,91.5938 527.381,88.5 527.381,85.25 C527.381,82 526.381,78.9531 524.537,76.5469 C522.678,74.1563 520.381,72.9531 517.584,72.9531 C514.475,72.9531 512.428,74.25 510.678,77.25 L510.678,73.7031 M516.678,75.6563 C520.131,75.6563 522.131,79.0938 522.131,84.9531 C522.131,91.4063 520.131,95.0469 516.537,95.0469 C512.928,95.0469 510.631,91.3438 510.631,85.5938 C510.631,79.3438 512.881,75.6563 516.678,75.6563 M538.334,73.7031 L538.334,63.7969 L536.287,63.7969 C535.787,70.2969 533.584,73.5938 529.537,73.9063 L529.537,75.8438 L533.631,75.8438 L533.631,88.5938 C533.631,92.0938 533.725,93.3438 534.225,94.5 C535.037,96.5938 537.037,97.75 539.928,97.75 C544.428,97.75 547.334,94.3438 547.334,89.0469 C547.334,88.75 547.334,88.4063 547.287,87.9063 L545.178,87.9063 C545.037,92.4063 543.725,94.7031 541.287,94.7031 C540.131,94.7031 539.131,94.0938 538.787,93.25 C538.475,92.5469 538.334,91.2969 538.334,89.5 L538.334,75.8438 L545.678,75.8438 L545.678,73.7031 L538.334,73.7031 M570.225,80.9063 C570.225,77.75 569.678,76.1563 568.225,74.9531 C566.584,73.5938 564.131,72.9531 560.928,72.9531 C555.287,72.9531 551.178,75.5938 551.178,79.25 C551.178,81.0938 552.334,82.2969 554.084,82.2969 C555.678,82.2969 556.787,81.25 556.787,79.75 C556.787,79.0938 556.537,78.4063 556.037,77.7031 C555.725,77.3438 555.678,77.25 555.678,77 C555.678,76 557.678,75.0938 560.084,75.0938 C561.678,75.0938 563.428,75.5938 564.225,76.3438 C565.178,77.1563 565.537,78.3438 565.537,80.5938 L565.537,82.5469 C560.334,83.4531 558.678,83.8438 556.225,84.7969 C551.881,86.4063 549.834,88.7031 549.834,91.9063 C549.834,95.5 552.631,97.75 557.084,97.75 C560.537,97.75 563.631,96.3438 565.787,93.7969 C566.584,96.3438 567.834,97.3438 570.178,97.3438 C572.428,97.3438 574.787,95.9063 574.787,94.4531 C574.787,94.0938 574.584,93.8438 574.287,93.8438 C574.084,93.8438 573.881,93.9063 573.537,94.0469 C572.834,94.3438 572.537,94.4063 572.131,94.4063 C570.725,94.4063 570.225,93.5 570.225,90.9531 L570.225,80.9063 M565.537,87 C565.537,90 565.381,90.7031 564.537,92 C563.287,93.8438 561.037,95.0938 558.834,95.0938 C556.537,95.0938 554.881,93.4531 554.881,91.2031 C554.881,89.0938 555.928,87.5938 558.131,86.5469 C559.678,85.8438 561.631,85.3438 565.537,84.7031 L565.537,87 M585.584,84.9063 L585.584,60.1406 L576.334,60.7031 L576.334,62.8438 L578.725,62.8438 C580.631,62.8906 580.881,63.2031 580.881,65.3438 L580.881,90.8438 L580.881,93.25 C580.834,93.9531 580.787,94.25 580.584,94.5 C580.225,94.9531 579.287,95.1563 577.131,95.2031 L576.928,95.2031 L576.928,97 L589.584,97 L589.584,95.2031 L589.381,95.2031 C586.037,95.0938 585.584,94.8438 585.584,93.0469 L585.584,90.8438 L585.584,88 L588.631,85.0938 L594.584,93.4531 C594.834,93.8438 594.928,94.0938 594.928,94.2969 C594.928,95 594.381,95.2031 592.725,95.2031 L591.787,95.2031 L591.787,97 L604.99,97 L604.99,95.2031 C602.178,94.9531 601.178,94.3438 599.131,91.75 L592.037,82.0469 L594.287,79.8438 C597.225,77 599.334,75.9063 602.74,75.5 L602.74,73.7031 L589.584,73.7031 L589.584,75.5 L591.131,75.5 C592.725,75.5 593.475,75.7969 593.475,76.4531 C593.475,77 593.131,77.5938 592.334,78.4063 L585.584,84.9063 M616.584,84.9063 L616.584,60.1406 L607.334,60.7031 L607.334,62.8438 L609.725,62.8438 C611.631,62.8906 611.881,63.2031 611.881,65.3438 L611.881,90.8438 L611.881,93.25 C611.834,93.9531 611.787,94.25 611.584,94.5 C611.225,94.9531 610.287,95.1563 608.131,95.2031 L607.928,95.2031 L607.928,97 L620.584,97 L620.584,95.2031 L620.381,95.2031 C617.037,95.0938 616.584,94.8438 616.584,93.0469 L616.584,90.8438 L616.584,88 L619.631,85.0938 L625.584,93.4531 C625.834,93.8438 625.928,94.0938 625.928,94.2969 C625.928,95 625.381,95.2031 623.725,95.2031 L622.787,95.2031 L622.787,97 L635.99,97 L635.99,95.2031 C633.178,94.9531 632.178,94.3438 630.131,91.75 L623.037,82.0469 L625.287,79.8438 C628.225,77 630.334,75.9063 633.74,75.5 L633.74,73.7031 L620.584,73.7031 L620.584,75.5 L622.131,75.5 C623.725,75.5 624.475,75.7969 624.475,76.4531 C624.475,77 624.131,77.5938 623.334,78.4063 L616.584,84.9063 M648.225,72.9531 C642.084,72.9531 637.334,78.4063 637.334,85.4063 C637.334,92.25 642.131,97.75 648.131,97.75 C654.131,97.75 658.928,92.25 658.928,85.3438 C658.928,78.5 654.131,72.9531 648.225,72.9531 M648.225,75.0938 C651.725,75.0938 653.678,78.75 653.678,85.3438 C653.678,92 651.725,95.5938 648.131,95.5938 C644.537,95.5938 642.584,92 642.584,85.4063 C642.584,78.5938 644.475,75.0938 648.225,75.0938 M670.537,73.7031 L661.678,74.25 L661.678,76.4063 L663.725,76.4063 C665.631,76.4531 665.881,76.75 665.881,78.9063 L665.881,90.8438 L665.881,93.2031 C665.834,93.9531 665.787,94.25 665.584,94.5 C665.225,94.9531 664.225,95.1563 662.084,95.2031 L661.881,95.2031 L661.881,97 L675.225,97 L675.225,95.2031 L674.334,95.2031 C670.975,95.0938 670.537,94.8438 670.537,93.0469 L670.537,90.8438 L670.537,90.3438 C670.584,81.9531 673.584,75.5469 677.475,75.3438 C676.787,76.1563 676.584,76.6563 676.584,77.5938 C676.584,79.2031 677.725,80.3438 679.334,80.3438 C681.178,80.3438 682.381,79 682.381,77 C682.381,74.5469 680.678,72.9531 678.037,72.9531 C674.881,72.9531 672.178,75.4531 670.537,79.9063 L670.537,73.7031 M701.631,97.3438 L710.334,97 L710.334,94.8438 L709.428,94.8438 C706.584,94.7031 706.334,94.4063 706.334,91.2031 L706.334,60.1406 L696.537,60.7031 L696.537,62.8438 L699.475,62.8438 C701.381,62.8906 701.631,63.2031 701.631,65.3438 L701.631,76.6563 C699.787,74.0938 697.631,72.9531 694.725,72.9531 C689.084,72.9531 684.787,78.4063 684.787,85.5938 C684.787,92.7031 688.928,97.75 694.725,97.75 C697.881,97.75 700.037,96.4063 701.631,93.4063 L701.631,97.3438 M695.725,75.6563 C697.787,75.6563 699.725,77.1563 700.631,79.4531 C701.287,80.9531 701.584,83 701.584,85.4531 C701.584,91.2969 699.287,95.0469 695.678,95.0469 C692.131,95.0469 690.037,91.75 690.037,86.2031 C690.037,83.2031 690.334,80.9531 690.975,79.2969 C691.834,77.0469 693.678,75.6563 695.725,75.6563 M714.334,103.156 C717.381,101.297 718.928,100 720.631,97.9531 C724.428,93.5 726.475,87.75 726.475,81.6563 C726.475,75.9531 724.678,70.5938 721.334,66.2031 C719.428,63.75 717.725,62.2969 714.334,60.2031 L714.334,62.0469 C719.334,66.4531 721.334,72 721.334,81.6563 C721.334,91.2969 719.334,96.9063 714.334,101.297 L714.334,103.156 "
     id="path42" />
</svg>
