<?xml version="1.0" encoding="UTF-8" standalone="no"?>
<svg width="1133.86px" height="552.755px" viewBox="0 0 1133.86 552.755"
 xmlns="http://www.w3.org/2000/svg" xmlns:xlink="http://www.w3.org/1999/xlink" version="1.2" baseProfile="tiny">
<title>Septakkorde (3)</title>
<desc>Generated by MuseScore 3.6.2</desc>
<polyline class="StaffLines" fill="none" stroke="#000000" stroke-width="3.22" stroke-linejoin="bevel" points="0,174.168 1133.86,174.168"/>
<polyline class="StaffLines" fill="none" stroke="#000000" stroke-width="3.22" stroke-linejoin="bevel" points="0,198.971 1133.86,198.971"/>
<polyline class="StaffLines" fill="none" stroke="#000000" stroke-width="3.22" stroke-linejoin="bevel" points="0,223.774 1133.86,223.774"/>
<polyline class="StaffLines" fill="none" stroke="#000000" stroke-width="3.22" stroke-linejoin="bevel" points="0,248.578 1133.86,248.578"/>
<polyline class="StaffLines" fill="none" stroke="#000000" stroke-width="3.22" stroke-linejoin="bevel" points="0,273.381 1133.86,273.381"/>
<polyline class="BarLine" fill="none" stroke="#000000" stroke-width="3.97" stroke-linejoin="bevel" points="898.843,172.556 898.843,274.993"/>
<polyline class="BarLine" fill="none" stroke="#000000" stroke-width="3.97" stroke-linejoin="bevel" points="912.733,172.556 912.733,274.993"/>
<polyline class="BarLine" fill="none" stroke="#000000" stroke-width="3.97" stroke-linejoin="bevel" points="1131.88,172.556 1131.88,274.993"/>
<path class="Note" transform="matrix(0.992126,0,0,0.992126,148.416,285.782)" d="M0,-0.203125 C0,7.09375 6.20313,13.5938 22.4063,13.5938 C40.2031,13.5938 45.9063,7.40625 45.9063,-0.203125 C45.9063,-7.90625 33.6094,-13.7031 23.5,-13.7031 C9,-13.7031 0,-7.59375 0,-0.203125 M11.7031,-4.20313 C11.7031,-9.79688 15.5938,-11.2031 20.7031,-11.2031 C28.1094,-11.2031 34.1094,-3.20313 34.1094,3.40625 C34.1094,8.90625 30.7031,11.0938 25.7969,11.0938 C18.5938,11.0938 11.7031,2.79688 11.7031,-4.20313"/>
<path class="Note" transform="matrix(0.992126,0,0,0.992126,333.914,260.979)" d="M0,-0.203125 C0,7.09375 6.20313,13.5938 22.4063,13.5938 C40.2031,13.5938 45.9063,7.40625 45.9063,-0.203125 C45.9063,-7.90625 33.6094,-13.7031 23.5,-13.7031 C9,-13.7031 0,-7.59375 0,-0.203125 M11.7031,-4.20313 C11.7031,-9.79688 15.5938,-11.2031 20.7031,-11.2031 C28.1094,-11.2031 34.1094,-3.20313 34.1094,3.40625 C34.1094,8.90625 30.7031,11.0938 25.7969,11.0938 C18.5938,11.0938 11.7031,2.79688 11.7031,-4.20313"/>
<path class="Note" transform="matrix(0.992126,0,0,0.992126,519.413,236.176)" d="M0,-0.203125 C0,7.09375 6.20313,13.5938 22.4063,13.5938 C40.2031,13.5938 45.9063,7.40625 45.9063,-0.203125 C45.9063,-7.90625 33.6094,-13.7031 23.5,-13.7031 C9,-13.7031 0,-7.59375 0,-0.203125 M11.7031,-4.20313 C11.7031,-9.79688 15.5938,-11.2031 20.7031,-11.2031 C28.1094,-11.2031 34.1094,-3.20313 34.1094,3.40625 C34.1094,8.90625 30.7031,11.0938 25.7969,11.0938 C18.5938,11.0938 11.7031,2.79688 11.7031,-4.20313"/>
<path class="Note" transform="matrix(0.992126,0,0,0.992126,704.911,211.373)" d="M0,-0.203125 C0,7.09375 6.20313,13.5938 22.4063,13.5938 C40.2031,13.5938 45.9063,7.40625 45.9063,-0.203125 C45.9063,-7.90625 33.6094,-13.7031 23.5,-13.7031 C9,-13.7031 0,-7.59375 0,-0.203125 M11.7031,-4.20313 C11.7031,-9.79688 15.5938,-11.2031 20.7031,-11.2031 C28.1094,-11.2031 34.1094,-3.20313 34.1094,3.40625 C34.1094,8.90625 30.7031,11.0938 25.7969,11.0938 C18.5938,11.0938 11.7031,2.79688 11.7031,-4.20313"/>
<path class="Note" transform="matrix(0.992126,0,0,0.992126,946.961,285.782)" d="M0,-0.203125 C0,7.09375 6.20313,13.5938 22.4063,13.5938 C40.2031,13.5938 45.9063,7.40625 45.9063,-0.203125 C45.9063,-7.90625 33.6094,-13.7031 23.5,-13.7031 C9,-13.7031 0,-7.59375 0,-0.203125 M11.7031,-4.20313 C11.7031,-9.79688 15.5938,-11.2031 20.7031,-11.2031 C28.1094,-11.2031 34.1094,-3.20313 34.1094,3.40625 C34.1094,8.90625 30.7031,11.0938 25.7969,11.0938 C18.5938,11.0938 11.7031,2.79688 11.7031,-4.20313"/>
<path class="Note" transform="matrix(0.992126,0,0,0.992126,946.961,260.979)" d="M0,-0.203125 C0,7.09375 6.20313,13.5938 22.4063,13.5938 C40.2031,13.5938 45.9063,7.40625 45.9063,-0.203125 C45.9063,-7.90625 33.6094,-13.7031 23.5,-13.7031 C9,-13.7031 0,-7.59375 0,-0.203125 M11.7031,-4.20313 C11.7031,-9.79688 15.5938,-11.2031 20.7031,-11.2031 C28.1094,-11.2031 34.1094,-3.20313 34.1094,3.40625 C34.1094,8.90625 30.7031,11.0938 25.7969,11.0938 C18.5938,11.0938 11.7031,2.79688 11.7031,-4.20313"/>
<path class="Note" transform="matrix(0.992126,0,0,0.992126,946.961,236.176)" d="M0,-0.203125 C0,7.09375 6.20313,13.5938 22.4063,13.5938 C40.2031,13.5938 45.9063,7.40625 45.9063,-0.203125 C45.9063,-7.90625 33.6094,-13.7031 23.5,-13.7031 C9,-13.7031 0,-7.59375 0,-0.203125 M11.7031,-4.20313 C11.7031,-9.79688 15.5938,-11.2031 20.7031,-11.2031 C28.1094,-11.2031 34.1094,-3.20313 34.1094,3.40625 C34.1094,8.90625 30.7031,11.0938 25.7969,11.0938 C18.5938,11.0938 11.7031,2.79688 11.7031,-4.20313"/>
<path class="Note" transform="matrix(0.992126,0,0,0.992126,946.961,211.373)" d="M0,-0.203125 C0,7.09375 6.20313,13.5938 22.4063,13.5938 C40.2031,13.5938 45.9063,7.40625 45.9063,-0.203125 C45.9063,-7.90625 33.6094,-13.7031 23.5,-13.7031 C9,-13.7031 0,-7.59375 0,-0.203125 M11.7031,-4.20313 C11.7031,-9.79688 15.5938,-11.2031 20.7031,-11.2031 C28.1094,-11.2031 34.1094,-3.20313 34.1094,3.40625 C34.1094,8.90625 30.7031,11.0938 25.7969,11.0938 C18.5938,11.0938 11.7031,2.79688 11.7031,-4.20313"/>
<path class="Clef" transform="matrix(0.992126,0,0,0.992126,19.8425,248.578)" d="M36.4063,25.2031 C38.7031,25.2031 41.2969,25 43.2969,24.5938 C44.4063,24.4063 44.6094,24.2969 44.7969,25.5 C46,32.2031 47.5,40.9063 47.5,45.6094 C47.5,60.4063 37.5,62.2031 31.6094,62.2031 C26.2031,62.2031 23.5938,60.6094 23.5938,59.2969 C23.5938,58.6094 24.5,58.2969 26.7969,57.6094 C29.9063,56.7031 33.5,54 33.5,48.2031 C33.5,42.7031 30,38 23.9063,38 C17.2031,38 13.2031,43.2969 13.2031,49.5 C13.2031,56 17.0938,65.7969 32.2031,65.7969 C38.9063,65.7969 51.9063,62.7969 51.9063,45.7969 C51.9063,40.1094 50.1094,30.6094 49,24.4063 C48.7969,23.2031 48.9063,23.2969 50.2969,22.7031 C60.4063,18.7031 67.1094,10.2031 67.1094,-1.09375 C67.1094,-13.9063 57.7031,-25.2031 43,-25.2031 C40.4063,-25.2031 40.4063,-25.2031 40.1094,-27 L37.6094,-41.5 C37.4063,-42.7031 37.6094,-42.7969 38.2031,-43.4063 C49,-53.5 57.2031,-66.2031 57.2031,-81.5 C57.2031,-90.2031 54.7969,-98.8125 50.7031,-104.813 C49.2031,-107 46.6094,-109.813 45.5,-109.813 C44.1094,-109.813 41,-107.203 39,-105 C31.6094,-96.8125 29.2031,-84.3125 29.2031,-73.9063 C29.2031,-68.1094 29.9063,-61.6094 30.6094,-57.5 C30.7969,-56.2969 30.9063,-56.1094 29.7031,-55.1094 C15.2969,-43.2031 0,-28.9063 0,-8.70313 C0,8.70313 11.9063,25.2031 36.4063,25.2031 M8,-2 C8,-7.90625 9,-15.7969 17.2969,-25.2031 C23.2969,-31.9063 27.9063,-35.6094 32.6094,-39.4063 C33.6094,-40.2031 33.7969,-40.1094 34,-39 L36.1094,-26.2031 C36.4063,-24.2969 36.4063,-24.4063 34.6094,-23.7969 C25.7969,-20.7969 20.0938,-12.9063 20.0938,-4.40625 C20.0938,4.59375 24.7969,11 31.6094,13.2969 C32.4063,13.5938 33.6094,13.9063 34.2969,13.9063 C35.1094,13.9063 35.5,13.4063 35.5,12.7969 C35.5,12.0938 34.7031,11.7969 34,11.5 C29.7969,9.70313 26.7969,5.40625 26.7969,0.796875 C26.7969,-4.90625 30.7031,-9.20313 36.7969,-10.9063 C38.4063,-11.2969 38.6094,-11.2031 38.7969,-10.0938 L43.7969,19.7031 C44,20.7969 43.9063,20.7969 42.4063,21.0938 C40.7969,21.4063 38.7969,21.5938 36.7969,21.5938 C19.2969,21.5938 8,11.9063 8,-2 M47,-94.3125 C50.2969,-94.3125 53,-91.6094 53,-86.1094 C53,-75 43.5,-66 35.6094,-59.1094 C34.9063,-58.5 34.5,-58.6094 34.2969,-59.9063 C33.9063,-62.5 33.7031,-65.9063 33.7031,-69.1094 C33.7031,-84.7031 40.9063,-94.3125 47,-94.3125 M44.1094,-11.7031 C52.2031,-11 58.9063,-4.20313 58.9063,4.59375 C58.9063,10.9063 55.1094,16 49.5,18.7969 C48.2969,19.4063 48.1094,19.4063 47.9063,18.2031 L43,-10.2969 C42.7969,-11.5 42.9063,-11.7969 44.1094,-11.7031"/>
<path class="StaffText" d="M209.869,417.679 L209.869,392.914 L200.619,393.476 L200.619,395.617 L203.01,395.617 C204.916,395.664 205.166,395.976 205.166,398.117 L205.166,423.617 L205.166,426.023 C205.119,426.726 205.072,427.023 204.869,427.273 C204.51,427.726 203.572,427.929 201.416,427.976 L201.213,427.976 L201.213,429.773 L213.869,429.773 L213.869,427.976 L213.666,427.976 C210.322,427.867 209.869,427.617 209.869,425.82 L209.869,423.617 L209.869,420.773 L212.916,417.867 L218.869,426.226 C219.119,426.617 219.213,426.867 219.213,427.07 C219.213,427.773 218.666,427.976 217.01,427.976 L216.072,427.976 L216.072,429.773 L229.275,429.773 L229.275,427.976 C226.463,427.726 225.463,427.117 223.416,424.523 L216.322,414.82 L218.572,412.617 C221.51,409.773 223.619,408.679 227.025,408.273 L227.025,406.476 L213.869,406.476 L213.869,408.273 L215.416,408.273 C217.01,408.273 217.76,408.57 217.76,409.226 C217.76,409.773 217.416,410.367 216.619,411.179 L209.869,417.679 M241.119,392.914 L231.869,393.476 L231.869,395.617 L234.322,395.617 C236.166,395.664 236.416,395.976 236.416,398.117 L236.416,423.617 L236.416,425.976 C236.369,426.726 236.322,427.023 236.119,427.273 C235.76,427.726 234.822,427.929 232.666,427.976 L232.322,427.976 L232.322,429.773 L245.26,429.773 L245.26,427.976 L244.916,427.976 C241.572,427.867 241.119,427.617 241.119,425.82 L241.119,423.617 L241.119,392.914 M252.76,424.226 C251.01,424.226 249.619,425.617 249.619,427.32 C249.619,429.07 251.01,430.476 252.713,430.476 C254.463,430.476 255.869,429.07 255.869,427.32 C255.869,425.617 254.463,424.226 252.76,424.226 M291.213,411.367 C295.76,409.726 297.869,407.179 297.869,403.164 C297.869,397.914 293.869,394.57 287.666,394.57 C281.822,394.57 277.369,398.023 277.369,402.57 C277.369,404.617 278.713,406.07 280.666,406.07 C282.416,406.07 283.619,404.867 283.619,403.07 C283.619,401.976 283.213,401.32 282.072,400.523 C281.572,400.164 281.416,399.976 281.416,399.617 C281.416,398.226 284.322,396.726 287.166,396.726 C290.76,396.726 292.666,398.976 292.666,403.226 C292.666,407.867 290.76,410.32 287.213,410.32 C286.76,410.32 285.916,410.273 285.166,410.226 C284.76,410.179 284.369,410.179 284.072,410.179 C283.01,410.179 282.463,410.617 282.463,411.523 C282.463,412.367 282.963,412.773 284.072,412.773 C284.369,412.773 284.76,412.773 285.213,412.726 C286.213,412.679 287.01,412.679 287.572,412.679 C291.26,412.679 293.26,415.32 293.26,420.273 C293.26,425.476 290.76,428.367 286.26,428.367 C283.119,428.367 279.713,426.679 279.713,425.117 C279.713,424.679 279.822,424.57 280.76,424.023 C282.166,423.179 282.713,422.32 282.713,421.07 C282.713,419.273 281.369,417.929 279.572,417.929 C277.416,417.929 276.01,419.679 276.01,422.32 C276.01,427.179 280.463,430.523 286.869,430.523 C294.119,430.523 298.822,426.523 298.822,420.367 C298.822,415.679 296.416,412.82 291.213,411.367"/>
<path class="StaffText" d="M402.997,520.587 L402.997,495.821 L393.747,496.383 L393.747,498.524 L396.137,498.524 C398.044,498.571 398.294,498.883 398.294,501.024 L398.294,526.524 L398.294,528.93 C398.247,529.633 398.2,529.93 397.997,530.18 C397.637,530.633 396.7,530.837 394.544,530.883 L394.34,530.883 L394.34,532.68 L406.997,532.68 L406.997,530.883 L406.794,530.883 C403.45,530.774 402.997,530.524 402.997,528.727 L402.997,526.524 L402.997,523.68 L406.044,520.774 L411.997,529.133 C412.247,529.524 412.34,529.774 412.34,529.977 C412.34,530.68 411.794,530.883 410.137,530.883 L409.2,530.883 L409.2,532.68 L422.403,532.68 L422.403,530.883 C419.59,530.633 418.59,530.024 416.544,527.43 L409.45,517.727 L411.7,515.524 C414.637,512.68 416.747,511.587 420.153,511.18 L420.153,509.383 L406.997,509.383 L406.997,511.18 L408.544,511.18 C410.137,511.18 410.887,511.477 410.887,512.133 C410.887,512.68 410.544,513.274 409.747,514.087 L402.997,520.587 M434.247,495.821 L424.997,496.383 L424.997,498.524 L427.45,498.524 C429.294,498.571 429.544,498.883 429.544,501.024 L429.544,526.524 L429.544,528.883 C429.497,529.633 429.45,529.93 429.247,530.18 C428.887,530.633 427.95,530.837 425.794,530.883 L425.45,530.883 L425.45,532.68 L438.387,532.68 L438.387,530.883 L438.044,530.883 C434.7,530.774 434.247,530.524 434.247,528.727 L434.247,526.524 L434.247,495.821 M445.887,527.133 C444.137,527.133 442.747,528.524 442.747,530.227 C442.747,531.977 444.137,533.383 445.84,533.383 C447.59,533.383 448.997,531.977 448.997,530.227 C448.997,528.524 447.59,527.133 445.887,527.133 M469.997,509.587 L472.2,509.93 L473.09,505.977 C473.84,502.68 474.2,502.18 475.637,502.18 C475.887,502.18 476.294,502.18 476.747,502.227 C482.887,502.524 482.887,502.524 485.2,502.524 C485.84,502.524 486.997,502.524 488.387,502.477 L484.997,509.337 C481.294,516.68 480.84,517.587 479.59,520.68 C478.044,524.43 477.247,527.587 477.247,529.68 C477.247,531.977 478.45,533.383 480.387,533.383 C482.794,533.383 483.747,531.774 483.7,527.43 C483.45,520.227 484.34,516.727 489.7,505.024 C490.45,503.43 491.2,501.883 491.95,500.321 C491.997,500.227 492.137,499.774 492.45,499.133 L492.45,497.68 C489.45,497.93 487.84,498.024 484.747,498.024 C480.387,498.024 476.95,497.883 471.544,497.477 L469.997,509.587 "/>
<path class="StaffText" d="M401.652,426.07 C398.902,426.023 398.762,425.976 398.152,425.617 C397.809,425.429 397.559,424.867 397.559,424.32 C397.559,422.82 398.902,422.179 402.262,422.07 C406.949,421.976 407.699,421.867 409.402,421.117 C412.402,419.773 414.059,417.179 414.059,413.867 C414.059,411.867 413.606,410.617 412.262,408.976 C413.106,408.07 413.559,407.773 413.949,407.773 C414.199,407.773 414.356,407.929 414.449,408.476 C414.652,409.679 415.449,410.32 416.699,410.32 C418.012,410.32 418.965,409.273 418.965,407.929 C418.965,406.226 417.606,405.023 415.652,405.023 C414.059,405.023 413.152,405.523 410.856,407.617 C408.762,406.226 407.152,405.726 404.652,405.726 C398.699,405.726 394.809,409.023 394.809,414.023 C394.809,416.976 396.402,419.476 399.012,420.726 C395.652,421.476 394.262,422.976 394.262,425.726 C394.262,427.929 395.262,429.226 397.606,430.023 C394.512,431.179 393.012,432.726 393.012,434.773 C393.012,436.273 394.012,437.679 395.606,438.523 C397.559,439.523 399.949,439.929 403.559,439.929 C411.902,439.929 416.059,437.273 416.059,432.023 C416.059,429.523 414.902,427.523 413.106,426.773 C411.762,426.273 410.152,426.07 406.762,426.07 L401.652,426.07 M404.606,407.867 C407.699,407.867 409.449,410.023 409.449,413.929 C409.449,417.82 407.559,420.179 404.402,420.179 C401.309,420.179 399.356,417.82 399.356,414.07 C399.356,410.117 401.262,407.867 404.606,407.867 M404.152,430.367 C408.309,430.367 408.606,430.367 409.309,430.476 C411.356,430.679 412.559,431.773 412.559,433.367 C412.559,436.226 409.309,437.867 403.762,437.867 C399.512,437.867 397.152,436.617 397.152,434.367 C397.152,432.726 398.059,431.617 400.449,430.367 L404.152,430.367 M429.762,406.476 L420.902,407.023 L420.902,409.179 L422.949,409.179 C424.856,409.226 425.106,409.523 425.106,411.679 L425.106,423.617 L425.106,425.976 C425.059,426.726 425.012,427.023 424.809,427.273 C424.449,427.726 423.449,427.929 421.309,427.976 L421.106,427.976 L421.106,429.773 L434.449,429.773 L434.449,427.976 L433.559,427.976 C430.199,427.867 429.762,427.617 429.762,425.82 L429.762,423.617 L429.762,423.117 C429.809,414.726 432.809,408.32 436.699,408.117 C436.012,408.929 435.809,409.429 435.809,410.367 C435.809,411.976 436.949,413.117 438.559,413.117 C440.402,413.117 441.606,411.773 441.606,409.773 C441.606,407.32 439.902,405.726 437.262,405.726 C434.106,405.726 431.402,408.226 429.762,412.679 L429.762,406.476 M444.699,424.226 C442.949,424.226 441.559,425.617 441.559,427.32 C441.559,429.07 442.949,430.476 444.652,430.476 C446.402,430.476 447.809,429.07 447.809,427.32 C447.809,425.617 446.402,424.226 444.699,424.226 M483.152,411.367 C487.699,409.726 489.809,407.179 489.809,403.164 C489.809,397.914 485.809,394.57 479.606,394.57 C473.762,394.57 469.309,398.023 469.309,402.57 C469.309,404.617 470.652,406.07 472.606,406.07 C474.356,406.07 475.559,404.867 475.559,403.07 C475.559,401.976 475.152,401.32 474.012,400.523 C473.512,400.164 473.356,399.976 473.356,399.617 C473.356,398.226 476.262,396.726 479.106,396.726 C482.699,396.726 484.606,398.976 484.606,403.226 C484.606,407.867 482.699,410.32 479.152,410.32 C478.699,410.32 477.856,410.273 477.106,410.226 C476.699,410.179 476.309,410.179 476.012,410.179 C474.949,410.179 474.402,410.617 474.402,411.523 C474.402,412.367 474.902,412.773 476.012,412.773 C476.309,412.773 476.699,412.773 477.152,412.726 C478.152,412.679 478.949,412.679 479.512,412.679 C483.199,412.679 485.199,415.32 485.199,420.273 C485.199,425.476 482.699,428.367 478.199,428.367 C475.059,428.367 471.652,426.679 471.652,425.117 C471.652,424.679 471.762,424.57 472.699,424.023 C474.106,423.179 474.652,422.32 474.652,421.07 C474.652,419.273 473.309,417.929 471.512,417.929 C469.356,417.929 467.949,419.679 467.949,422.32 C467.949,427.179 472.402,430.523 478.809,430.523 C486.059,430.523 490.762,426.523 490.762,420.367 C490.762,415.679 488.356,412.82 483.152,411.367"/>
<path class="StaffText" d="M580.866,417.679 L580.866,392.914 L571.616,393.476 L571.616,395.617 L574.007,395.617 C575.913,395.664 576.163,395.976 576.163,398.117 L576.163,423.617 L576.163,426.023 C576.116,426.726 576.069,427.023 575.866,427.273 C575.507,427.726 574.569,427.929 572.413,427.976 L572.21,427.976 L572.21,429.773 L584.866,429.773 L584.866,427.976 L584.663,427.976 C581.319,427.867 580.866,427.617 580.866,425.82 L580.866,423.617 L580.866,420.773 L583.913,417.867 L589.866,426.226 C590.116,426.617 590.21,426.867 590.21,427.07 C590.21,427.773 589.663,427.976 588.007,427.976 L587.069,427.976 L587.069,429.773 L600.273,429.773 L600.273,427.976 C597.46,427.726 596.46,427.117 594.413,424.523 L587.319,414.82 L589.569,412.617 C592.507,409.773 594.616,408.679 598.023,408.273 L598.023,406.476 L584.866,406.476 L584.866,408.273 L586.413,408.273 C588.007,408.273 588.757,408.57 588.757,409.226 C588.757,409.773 588.413,410.367 587.616,411.179 L580.866,417.679 M612.116,392.914 L602.866,393.476 L602.866,395.617 L605.319,395.617 C607.163,395.664 607.413,395.976 607.413,398.117 L607.413,423.617 L607.413,425.976 C607.366,426.726 607.319,427.023 607.116,427.273 C606.757,427.726 605.819,427.929 603.663,427.976 L603.319,427.976 L603.319,429.773 L616.257,429.773 L616.257,427.976 L615.913,427.976 C612.569,427.867 612.116,427.617 612.116,425.82 L612.116,423.617 L612.116,392.914 M623.757,424.226 C622.007,424.226 620.616,425.617 620.616,427.32 C620.616,429.07 622.007,430.476 623.71,430.476 C625.46,430.476 626.866,429.07 626.866,427.32 C626.866,425.617 625.46,424.226 623.757,424.226 M662.21,411.367 C666.757,409.726 668.866,407.179 668.866,403.164 C668.866,397.914 664.866,394.57 658.663,394.57 C652.819,394.57 648.366,398.023 648.366,402.57 C648.366,404.617 649.71,406.07 651.663,406.07 C653.413,406.07 654.616,404.867 654.616,403.07 C654.616,401.976 654.21,401.32 653.069,400.523 C652.569,400.164 652.413,399.976 652.413,399.617 C652.413,398.226 655.319,396.726 658.163,396.726 C661.757,396.726 663.663,398.976 663.663,403.226 C663.663,407.867 661.757,410.32 658.21,410.32 C657.757,410.32 656.913,410.273 656.163,410.226 C655.757,410.179 655.366,410.179 655.069,410.179 C654.007,410.179 653.46,410.617 653.46,411.523 C653.46,412.367 653.96,412.773 655.069,412.773 C655.366,412.773 655.757,412.773 656.21,412.726 C657.21,412.679 658.007,412.679 658.569,412.679 C662.257,412.679 664.257,415.32 664.257,420.273 C664.257,425.476 661.757,428.367 657.257,428.367 C654.116,428.367 650.71,426.679 650.71,425.117 C650.71,424.679 650.819,424.57 651.757,424.023 C653.163,423.179 653.71,422.32 653.71,421.07 C653.71,419.273 652.366,417.929 650.569,417.929 C648.413,417.929 647.007,419.679 647.007,422.32 C647.007,427.179 651.46,430.523 657.866,430.523 C665.116,430.523 669.819,426.523 669.819,420.367 C669.819,415.679 667.413,412.82 662.21,411.367"/>
<path class="SystemText" d="M191.584,24.9063 L191.584,0.140625 L182.334,0.703125 L182.334,2.84375 L184.725,2.84375 C186.631,2.89063 186.881,3.20313 186.881,5.34375 L186.881,30.8438 L186.881,33.25 C186.834,33.9531 186.787,34.25 186.584,34.5 C186.225,34.9531 185.287,35.1563 183.131,35.2031 L182.928,35.2031 L182.928,37 L195.584,37 L195.584,35.2031 L195.381,35.2031 C192.037,35.0938 191.584,34.8438 191.584,33.0469 L191.584,30.8438 L191.584,28 L194.631,25.0938 L200.584,33.4531 C200.834,33.8438 200.928,34.0938 200.928,34.2969 C200.928,35 200.381,35.2031 198.725,35.2031 L197.787,35.2031 L197.787,37 L210.99,37 L210.99,35.2031 C208.178,34.9531 207.178,34.3438 205.131,31.75 L198.037,22.0469 L200.287,19.8438 C203.225,17 205.334,15.9063 208.74,15.5 L208.74,13.7031 L195.584,13.7031 L195.584,15.5 L197.131,15.5 C198.725,15.5 199.475,15.7969 199.475,16.4531 C199.475,17 199.131,17.5938 198.334,18.4063 L191.584,24.9063 M222.834,0.140625 L213.584,0.703125 L213.584,2.84375 L216.037,2.84375 C217.881,2.89063 218.131,3.20313 218.131,5.34375 L218.131,30.8438 L218.131,33.2031 C218.084,33.9531 218.037,34.25 217.834,34.5 C217.475,34.9531 216.537,35.1563 214.381,35.2031 L214.037,35.2031 L214.037,37 L226.975,37 L226.975,35.2031 L226.631,35.2031 C223.287,35.0938 222.834,34.8438 222.834,33.0469 L222.834,30.8438 L222.834,0.140625 M251.881,25.75 C251.928,18.25 247.678,12.9531 241.584,12.9531 C235.178,12.9531 230.381,18.5 230.381,26 C230.381,33.0469 234.928,37.75 241.678,37.75 C246.475,37.75 249.834,35.4063 251.881,30.6563 L250.131,29.7031 C248.084,33.5469 245.975,35.0469 242.631,35.0469 C240.084,35.0469 238.225,34 236.928,31.75 C236.037,30.25 235.631,28.5 235.678,25.75 L251.881,25.75 M235.725,23.5938 C235.725,22.0469 235.928,20.9531 236.428,19.5469 C237.475,16.5469 239.084,15.0938 241.537,15.0938 C244.537,15.0938 246.537,17.75 246.537,21.7969 C246.537,23.2031 246.084,23.5938 244.475,23.5938 L235.725,23.5938 M263.928,13.7031 L254.537,14.25 L254.537,16.4063 L257.084,16.4063 C258.975,16.4531 259.225,16.75 259.225,18.9063 L259.225,30.8438 L259.225,33.2031 C259.178,33.9531 259.131,34.25 258.928,34.5 C258.584,34.9531 257.631,35.1563 255.475,35.2031 L255.131,35.2031 L255.131,37 L268.084,37 L268.084,35.2031 L267.725,35.2031 C264.381,35.0938 263.928,34.8438 263.928,33.0469 L263.928,30.8438 L263.928,13.7031 M261.584,1.25 C259.975,1.25 258.678,2.54688 258.678,4.14063 C258.678,5.75 259.975,7.04688 261.537,7.04688 C263.178,7.04688 264.475,5.75 264.475,4.14063 C264.475,2.54688 263.178,1.25 261.584,1.25 M279.631,13.7031 L270.975,14.25 L270.975,16.4063 L272.787,16.4063 C274.678,16.4531 274.928,16.75 274.928,18.9063 L274.928,30.8438 L274.928,32.0469 L274.928,33.2031 C274.881,33.9531 274.834,34.25 274.631,34.5 C274.287,34.9531 273.334,35.1563 271.178,35.2031 L270.975,35.2031 L270.975,37 L283.631,37 L283.631,35.2031 L283.428,35.2031 C280.084,35.0938 279.631,34.8438 279.631,33.0469 L279.631,30.8438 L279.631,25.6563 C279.631,23.2031 279.975,20.9531 280.537,19.7969 C281.584,17.5469 283.834,16 285.975,16 C287.287,16 288.787,16.7031 289.537,17.75 C290.287,18.8438 290.631,20.3438 290.631,22.75 L290.631,30.8438 L290.631,33.2031 C290.584,33.9531 290.537,34.25 290.334,34.5 C289.975,34.9531 288.975,35.1563 286.834,35.2031 L286.631,35.2031 L286.631,37 L299.287,37 L299.287,35.2031 L299.084,35.2031 C295.787,35.0938 295.334,34.8438 295.334,33.0469 L295.334,30.8438 L295.334,23 C295.334,19.4063 295.178,18.5 294.287,16.7969 C293.037,14.4063 290.537,12.9531 287.537,12.9531 C284.287,12.9531 281.834,14.4531 279.631,17.75 L279.631,13.7031 M323.881,25.75 C323.928,18.25 319.678,12.9531 313.584,12.9531 C307.178,12.9531 302.381,18.5 302.381,26 C302.381,33.0469 306.928,37.75 313.678,37.75 C318.475,37.75 321.834,35.4063 323.881,30.6563 L322.131,29.7031 C320.084,33.5469 317.975,35.0469 314.631,35.0469 C312.084,35.0469 310.225,34 308.928,31.75 C308.037,30.25 307.631,28.5 307.678,25.75 L323.881,25.75 M307.725,23.5938 C307.725,22.0469 307.928,20.9531 308.428,19.5469 C309.475,16.5469 311.084,15.0938 313.537,15.0938 C316.537,15.0938 318.537,17.75 318.537,21.7969 C318.537,23.2031 318.084,23.5938 316.475,23.5938 L307.725,23.5938 M335.537,13.7031 L326.678,14.25 L326.678,16.4063 L328.725,16.4063 C330.631,16.4531 330.881,16.75 330.881,18.9063 L330.881,30.8438 L330.881,33.2031 C330.834,33.9531 330.787,34.25 330.584,34.5 C330.225,34.9531 329.225,35.1563 327.084,35.2031 L326.881,35.2031 L326.881,37 L340.225,37 L340.225,35.2031 L339.334,35.2031 C335.975,35.0938 335.537,34.8438 335.537,33.0469 L335.537,30.8438 L335.537,30.3438 C335.584,21.9531 338.584,15.5469 342.475,15.3438 C341.787,16.1563 341.584,16.6563 341.584,17.5938 C341.584,19.2031 342.725,20.3438 344.334,20.3438 C346.178,20.3438 347.381,19 347.381,17 C347.381,14.5469 345.678,12.9531 343.037,12.9531 C339.881,12.9531 337.178,15.4531 335.537,19.9063 L335.537,13.7031 M375.975,0.890625 L363.084,0.890625 L363.084,3.25 L364.037,3.25 C366.881,3.29688 367.834,3.45313 368.178,3.95313 C368.537,4.39063 368.537,4.45313 368.537,7.04688 L368.537,26.2031 C368.537,33 367.584,34.4063 362.725,34.6563 L362.725,37 L376.975,37 L376.975,34.6563 C372.178,34.4063 371.225,33 371.225,26.2031 L371.225,4.09375 L383.131,37 L385.131,37 L396.287,4.09375 L396.287,30.8438 C396.287,33.4063 396.287,33.5 395.99,34 C395.584,34.5 394.631,34.6563 391.787,34.6563 L390.881,34.6563 L390.881,37 L407.287,37 L407.287,34.6563 L406.381,34.6563 C403.537,34.6563 402.584,34.5 402.178,34 C401.881,33.5 401.881,33.4531 401.881,30.8438 L401.881,7.04688 C401.881,4.5 401.881,4.39063 402.178,3.95313 C402.584,3.45313 403.537,3.29688 406.381,3.25 L407.287,3.25 L407.287,0.890625 L394.74,0.890625 L385.584,27.5469 L375.975,0.890625 M421.225,12.9531 C415.084,12.9531 410.334,18.4063 410.334,25.4063 C410.334,32.25 415.131,37.75 421.131,37.75 C427.131,37.75 431.928,32.25 431.928,25.3438 C431.928,18.5 427.131,12.9531 421.225,12.9531 M421.225,15.0938 C424.725,15.0938 426.678,18.75 426.678,25.3438 C426.678,32 424.725,35.5938 421.131,35.5938 C417.537,35.5938 415.584,32 415.584,25.4063 C415.584,18.5938 417.475,15.0938 421.225,15.0938 M443.834,0.140625 L434.584,0.703125 L434.584,2.84375 L437.037,2.84375 C438.881,2.89063 439.131,3.20313 439.131,5.34375 L439.131,30.8438 L439.131,33.2031 C439.084,33.9531 439.037,34.25 438.834,34.5 C438.475,34.9531 437.537,35.1563 435.381,35.2031 L435.037,35.2031 L435.037,37 L447.975,37 L447.975,35.2031 L447.631,35.2031 C444.287,35.0938 443.834,34.8438 443.834,33.0469 L443.834,30.8438 L443.834,0.140625 M459.834,0.140625 L450.584,0.703125 L450.584,2.84375 L453.037,2.84375 C454.881,2.89063 455.131,3.20313 455.131,5.34375 L455.131,30.8438 L455.131,33.2031 C455.084,33.9531 455.037,34.25 454.834,34.5 C454.475,34.9531 453.537,35.1563 451.381,35.2031 L451.037,35.2031 L451.037,37 L463.975,37 L463.975,35.2031 L463.631,35.2031 C460.287,35.0938 459.834,34.8438 459.834,33.0469 L459.834,30.8438 L459.834,0.140625 M467.725,23.0938 L467.725,27.25 L480.178,27.25 L480.178,23.0938 L467.725,23.0938 M511.928,0.59375 L510.084,0.59375 L508.084,3.59375 C505.678,1.34375 502.537,0.140625 498.975,0.140625 C492.381,0.140625 488.037,4.29688 488.037,10.5938 C488.037,16.0469 490.725,18.75 498.084,20.6563 L502.834,21.8438 C506.537,22.7969 506.881,22.9063 507.928,23.7031 C509.428,24.8438 510.24,26.5 510.24,28.4531 C510.24,30.4531 509.475,32.0938 507.975,33.5 C506.334,34.9063 504.678,35.4531 501.928,35.4531 C498.225,35.4531 495.584,34.2969 493.225,31.7031 C491.131,29.4063 490.084,27 489.334,23.1563 L487.178,23.1563 L487.381,37.4063 L489.334,37.4063 L491.584,34 C494.928,36.75 497.678,37.75 502.084,37.75 C509.428,37.75 514.131,33.4531 514.131,26.75 C514.131,23.5938 513.131,21 511.131,19.0938 C509.787,17.7969 507.834,16.9531 503.834,15.9531 L498.475,14.5938 C494.037,13.4531 491.928,11.5 491.928,8.45313 C491.928,4.95313 494.787,2.54688 499.037,2.54688 C502.537,2.54688 505.381,4.04688 507.381,6.89063 C508.834,8.95313 509.787,11.0469 510.381,13.5938 L512.537,13.5938 L511.928,0.59375 M539.881,25.75 C539.928,18.25 535.678,12.9531 529.584,12.9531 C523.178,12.9531 518.381,18.5 518.381,26 C518.381,33.0469 522.928,37.75 529.678,37.75 C534.475,37.75 537.834,35.4063 539.881,30.6563 L538.131,29.7031 C536.084,33.5469 533.975,35.0469 530.631,35.0469 C528.084,35.0469 526.225,34 524.928,31.75 C524.037,30.25 523.631,28.5 523.678,25.75 L539.881,25.75 M523.725,23.5938 C523.725,22.0469 523.928,20.9531 524.428,19.5469 C525.475,16.5469 527.084,15.0938 529.537,15.0938 C532.537,15.0938 534.537,17.75 534.537,21.7969 C534.537,23.2031 534.084,23.5938 532.475,23.5938 L523.725,23.5938 M551.678,13.7031 L543.037,14.25 L543.037,16.4063 L544.834,16.4063 C546.725,16.4531 546.975,16.75 546.975,18.9063 L546.975,40.9531 L546.975,43.3438 C546.928,44.0469 546.881,44.3438 546.678,44.5938 C546.334,45.0469 545.381,45.25 543.225,45.2969 L543.037,45.2969 L543.037,47.0938 L556.037,47.0938 L556.037,45.2969 L555.475,45.2969 C552.131,45.2031 551.678,44.9531 551.678,43.1563 L551.678,40.9531 L551.678,33.7031 C553.334,36.5938 555.178,37.75 558.287,37.75 C561.334,37.75 563.834,36.4531 565.631,34 C567.381,31.5938 568.381,28.5 568.381,25.25 C568.381,22 567.381,18.9531 565.537,16.5469 C563.678,14.1563 561.381,12.9531 558.584,12.9531 C555.475,12.9531 553.428,14.25 551.678,17.25 L551.678,13.7031 M557.678,15.6563 C561.131,15.6563 563.131,19.0938 563.131,24.9531 C563.131,31.4063 561.131,35.0469 557.537,35.0469 C553.928,35.0469 551.631,31.3438 551.631,25.5938 C551.631,19.3438 553.881,15.6563 557.678,15.6563 M579.334,13.7031 L579.334,3.79688 L577.287,3.79688 C576.787,10.2969 574.584,13.5938 570.537,13.9063 L570.537,15.8438 L574.631,15.8438 L574.631,28.5938 C574.631,32.0938 574.725,33.3438 575.225,34.5 C576.037,36.5938 578.037,37.75 580.928,37.75 C585.428,37.75 588.334,34.3438 588.334,29.0469 C588.334,28.75 588.334,28.4063 588.287,27.9063 L586.178,27.9063 C586.037,32.4063 584.725,34.7031 582.287,34.7031 C581.131,34.7031 580.131,34.0938 579.787,33.25 C579.475,32.5469 579.334,31.2969 579.334,29.5 L579.334,15.8438 L586.678,15.8438 L586.678,13.7031 L579.334,13.7031 M611.225,20.9063 C611.225,17.75 610.678,16.1563 609.225,14.9531 C607.584,13.5938 605.131,12.9531 601.928,12.9531 C596.287,12.9531 592.178,15.5938 592.178,19.25 C592.178,21.0938 593.334,22.2969 595.084,22.2969 C596.678,22.2969 597.787,21.25 597.787,19.75 C597.787,19.0938 597.537,18.4063 597.037,17.7031 C596.725,17.3438 596.678,17.25 596.678,17 C596.678,16 598.678,15.0938 601.084,15.0938 C602.678,15.0938 604.428,15.5938 605.225,16.3438 C606.178,17.1563 606.537,18.3438 606.537,20.5938 L606.537,22.5469 C601.334,23.4531 599.678,23.8438 597.225,24.7969 C592.881,26.4063 590.834,28.7031 590.834,31.9063 C590.834,35.5 593.631,37.75 598.084,37.75 C601.537,37.75 604.631,36.3438 606.787,33.7969 C607.584,36.3438 608.834,37.3438 611.178,37.3438 C613.428,37.3438 615.787,35.9063 615.787,34.4531 C615.787,34.0938 615.584,33.8438 615.287,33.8438 C615.084,33.8438 614.881,33.9063 614.537,34.0469 C613.834,34.3438 613.537,34.4063 613.131,34.4063 C611.725,34.4063 611.225,33.5 611.225,30.9531 L611.225,20.9063 M606.537,27 C606.537,30 606.381,30.7031 605.537,32 C604.287,33.8438 602.037,35.0938 599.834,35.0938 C597.537,35.0938 595.881,33.4531 595.881,31.2031 C595.881,29.0938 596.928,27.5938 599.131,26.5469 C600.678,25.8438 602.631,25.3438 606.537,24.7031 L606.537,27 M626.584,24.9063 L626.584,0.140625 L617.334,0.703125 L617.334,2.84375 L619.725,2.84375 C621.631,2.89063 621.881,3.20313 621.881,5.34375 L621.881,30.8438 L621.881,33.25 C621.834,33.9531 621.787,34.25 621.584,34.5 C621.225,34.9531 620.287,35.1563 618.131,35.2031 L617.928,35.2031 L617.928,37 L630.584,37 L630.584,35.2031 L630.381,35.2031 C627.037,35.0938 626.584,34.8438 626.584,33.0469 L626.584,30.8438 L626.584,28 L629.631,25.0938 L635.584,33.4531 C635.834,33.8438 635.928,34.0938 635.928,34.2969 C635.928,35 635.381,35.2031 633.725,35.2031 L632.787,35.2031 L632.787,37 L645.99,37 L645.99,35.2031 C643.178,34.9531 642.178,34.3438 640.131,31.75 L633.037,22.0469 L635.287,19.8438 C638.225,17 640.334,15.9063 643.74,15.5 L643.74,13.7031 L630.584,13.7031 L630.584,15.5 L632.131,15.5 C633.725,15.5 634.475,15.7969 634.475,16.4531 C634.475,17 634.131,17.5938 633.334,18.4063 L626.584,24.9063 M657.584,24.9063 L657.584,0.140625 L648.334,0.703125 L648.334,2.84375 L650.725,2.84375 C652.631,2.89063 652.881,3.20313 652.881,5.34375 L652.881,30.8438 L652.881,33.25 C652.834,33.9531 652.787,34.25 652.584,34.5 C652.225,34.9531 651.287,35.1563 649.131,35.2031 L648.928,35.2031 L648.928,37 L661.584,37 L661.584,35.2031 L661.381,35.2031 C658.037,35.0938 657.584,34.8438 657.584,33.0469 L657.584,30.8438 L657.584,28 L660.631,25.0938 L666.584,33.4531 C666.834,33.8438 666.928,34.0938 666.928,34.2969 C666.928,35 666.381,35.2031 664.725,35.2031 L663.787,35.2031 L663.787,37 L676.99,37 L676.99,35.2031 C674.178,34.9531 673.178,34.3438 671.131,31.75 L664.037,22.0469 L666.287,19.8438 C669.225,17 671.334,15.9063 674.74,15.5 L674.74,13.7031 L661.584,13.7031 L661.584,15.5 L663.131,15.5 C664.725,15.5 665.475,15.7969 665.475,16.4531 C665.475,17 665.131,17.5938 664.334,18.4063 L657.584,24.9063 M689.225,12.9531 C683.084,12.9531 678.334,18.4063 678.334,25.4063 C678.334,32.25 683.131,37.75 689.131,37.75 C695.131,37.75 699.928,32.25 699.928,25.3438 C699.928,18.5 695.131,12.9531 689.225,12.9531 M689.225,15.0938 C692.725,15.0938 694.678,18.75 694.678,25.3438 C694.678,32 692.725,35.5938 689.131,35.5938 C685.537,35.5938 683.584,32 683.584,25.4063 C683.584,18.5938 685.475,15.0938 689.225,15.0938 M711.537,13.7031 L702.678,14.25 L702.678,16.4063 L704.725,16.4063 C706.631,16.4531 706.881,16.75 706.881,18.9063 L706.881,30.8438 L706.881,33.2031 C706.834,33.9531 706.787,34.25 706.584,34.5 C706.225,34.9531 705.225,35.1563 703.084,35.2031 L702.881,35.2031 L702.881,37 L716.225,37 L716.225,35.2031 L715.334,35.2031 C711.975,35.0938 711.537,34.8438 711.537,33.0469 L711.537,30.8438 L711.537,30.3438 C711.584,21.9531 714.584,15.5469 718.475,15.3438 C717.787,16.1563 717.584,16.6563 717.584,17.5938 C717.584,19.2031 718.725,20.3438 720.334,20.3438 C722.178,20.3438 723.381,19 723.381,17 C723.381,14.5469 721.678,12.9531 719.037,12.9531 C715.881,12.9531 713.178,15.4531 711.537,19.9063 L711.537,13.7031 M742.631,37.3438 L751.334,37 L751.334,34.8438 L750.428,34.8438 C747.584,34.7031 747.334,34.4063 747.334,31.2031 L747.334,0.140625 L737.537,0.703125 L737.537,2.84375 L740.475,2.84375 C742.381,2.89063 742.631,3.20313 742.631,5.34375 L742.631,16.6563 C740.787,14.0938 738.631,12.9531 735.725,12.9531 C730.084,12.9531 725.787,18.4063 725.787,25.5938 C725.787,32.7031 729.928,37.75 735.725,37.75 C738.881,37.75 741.037,36.4063 742.631,33.4063 L742.631,37.3438 M736.725,15.6563 C738.787,15.6563 740.725,17.1563 741.631,19.4531 C742.287,20.9531 742.584,23 742.584,25.4531 C742.584,31.2969 740.287,35.0469 736.678,35.0469 C733.131,35.0469 731.037,31.75 731.037,26.2031 C731.037,23.2031 731.334,20.9531 731.975,19.2969 C732.834,17.0469 734.678,15.6563 736.725,15.6563"/>
<polyline class="PedalSegment" fill="none" stroke="#000000" stroke-width="3.97" stroke-linecap="square" stroke-linejoin="bevel" points="161.313,330.428 161.313,360.192"/>
<polyline class="PedalSegment" fill="none" stroke="#000000" stroke-width="3.97" stroke-linecap="square" stroke-linejoin="bevel" points="161.313,360.192 341.704,360.192"/>
<polyline class="PedalSegment" fill="none" stroke="#000000" stroke-width="3.97" stroke-linecap="square" stroke-linejoin="bevel" points="341.704,360.192 341.704,330.428"/>
<polyline class="PedalSegment" fill="none" stroke="#000000" stroke-width="3.97" stroke-linecap="square" stroke-linejoin="bevel" points="161.313,442.042 161.313,471.806"/>
<polyline class="PedalSegment" fill="none" stroke="#000000" stroke-width="3.97" stroke-linecap="square" stroke-linejoin="bevel" points="161.313,471.806 740.466,471.806"/>
<polyline class="PedalSegment" fill="none" stroke="#000000" stroke-width="3.97" stroke-linecap="square" stroke-linejoin="bevel" points="740.466,471.806 740.466,442.042"/>
<polyline class="PedalSegment" fill="none" stroke="#000000" stroke-width="3.97" stroke-linecap="square" stroke-linejoin="bevel" points="365.146,330.428 365.146,360.192"/>
<polyline class="PedalSegment" fill="none" stroke="#000000" stroke-width="3.97" stroke-linecap="square" stroke-linejoin="bevel" points="365.146,360.192 525.042,360.192"/>
<polyline class="PedalSegment" fill="none" stroke="#000000" stroke-width="3.97" stroke-linecap="square" stroke-linejoin="bevel" points="525.042,360.192 525.042,330.428"/>
<polyline class="PedalSegment" fill="none" stroke="#000000" stroke-width="3.97" stroke-linecap="square" stroke-linejoin="bevel" points="545.952,330.428 545.952,360.192"/>
<polyline class="PedalSegment" fill="none" stroke="#000000" stroke-width="3.97" stroke-linecap="square" stroke-linejoin="bevel" points="545.952,360.192 731.19,360.192"/>
<polyline class="PedalSegment" fill="none" stroke="#000000" stroke-width="3.97" stroke-linecap="square" stroke-linejoin="bevel" points="731.19,360.192 731.19,330.428"/>
</svg>
